<REAPER_PROJECT 0.1 "7.27/win64" 1707000000
  <NOTES 0 2
    |ReapNES Studio Project
    |MIDI Import - Battletoads_08_Song_8_v1
  >
  RIPPLE 0
  GROUPOVERRIDE 0 0 0
  AUTOXFADE 129
  ENVATTACH 3
  POOLEDENVATTACH 0
  MIXERUIFLAGS 11 48
  ENVFADESZ10 40
  PEAKGAIN 1
  FEEDBACK 0
  PANLAW 1
  PROJOFFS 0 0 0
  MAXPROJLEN 0 0
  GRID 3199 8 1 8 1 0 0 0
  TIMEMODE 1 5 -1 30 0 0 -1
  VIDEO_CONFIG 0 0 65792
  PANMODE 3
  PANLAWFLAGS 3
  CURSOR 0
  ZOOM 100 0 0
  VZOOMEX 6 0
  USE_REC_CFG 0
  RECMODE 1
  SMPTESYNC 0 30 100 40 1000 300 0 0 1 0 0
  LOOP 0
  LOOPGRAN 0 4
  RECORD_PATH "Media" ""
  <RECORD_CFG
    ZXZhdxgAAQ==
  >
  <APPLYFX_CFG
  >
  RENDER_FILE ""
  RENDER_PATTERN ""
  RENDER_FMT 0 2 0
  RENDER_1X 0
  RENDER_RANGE 1 0 0 18 1000
  RENDER_RESAMPLE 3 0 1
  RENDER_ADDTOPROJ 0
  RENDER_STEMS 0
  RENDER_DITHER 0
  TIMELOCKMODE 1
  TEMPOENVLOCKMODE 1
  ITEMMIX 1
  DEFPITCHMODE 589824 0
  TAKELANE 1
  SAMPLERATE 44100 0 0
  <RENDER_CFG
    ZXZhdxgAAQ==
  >
  LOCK 1
  <METRONOME 6 2
    VOL 0.25 0.125
    BEATLEN 4
    FREQ 1760 880 1
    SAMPLES "" ""
    SPLIGNORE 0 0
    SPLDEF 2 660 "" 0
    SPLDEF 3 440 "" 0
    PATTERN 0 169
    PATTERNSTR ABBB
    MULT 1
  >
  GLOBAL_AUTO -1
  TEMPO 128.59999614200012 4 4
  PLAYRATE 1 0 0.25 4
  SELECTION 0 0
  SELECTION2 0 0
  MASTERAUTOMODE 0
  MASTERTRACKHEIGHT 0 0
  MASTERPEAKCOL 16576
  MASTERMUTESOLO 0
  MASTERTRACKVIEW 0 0.6667 0.5 0.5 0 0 0 0 0 0 0 0 0 0
  MASTERHWOUT 0 0 1 0 0 0 0 -1
  MASTER_NCH 2 2
  MASTER_VOLUME 1 0 -1 -1 1
  MASTER_PANMODE 3
  MASTER_PANLAWFLAGS 3
  MASTER_FX 1
  MASTER_SEL 0
  <MASTERPLAYSPEEDENV
    EGUID {3D9963DE-F8F6-48B8-97CC-8ED9C2E42577}
    ACT 0 -1
    VIS 0 1 1
    LANEHEIGHT 0 0
    ARM 0
    DEFSHAPE 0 -1 -1
  >
  <TEMPOENVEX
    EGUID {5628977B-C1DD-41DE-AAA8-C2984B557FE6}
    ACT 1 -1
    VIS 1 0 1
    LANEHEIGHT 0 0
    ARM 0
    DEFSHAPE 1 -1 -1
  >
  <PROJBAY
  >
  <TRACK {84E51CED-04E5-4FB8-9079-FDDB42E3436F}
    NAME "NES - Pulse 1 [ch0]"
    PEAKCOL 16576606
    BEAT -1
    AUTOMODE 0
    PANLAWFLAGS 3
    VOLPAN 1 0 -1 -1 1
    MUTESOLO 0 0 0
    IPHASE 0
    PLAYOFFS 0 1
    ISBUS 0 0
    BUSCOMP 0 0 0 0 0
    SHOWINMIX 1 0.6667 0.5 1 0.5 0 0 0
    FIXEDLANES 9 0 0 0 0
    SEL 1
    REC 0 5088 1 0 0 0 0 0
    VU 2
    TRACKHEIGHT 0 0 0 0 0 0 0
    INQ 0 0 0 0.5 100 0 0 100
    NCHAN 2
    FX 1
    TRACKID {84E51CED-04E5-4FB8-9079-FDDB42E3436F}
    PERF 0
    MIDIOUT -1
    MAINSEND 1 0
    <FXCHAIN
      WNDRECT 24 52 700 560
      SHOW 0
      LASTSEL 0
      DOCKED 0
      BYPASS 0 0 0
      <JS "ReapNES Studio/ReapNES_Console.jsfx" ""
        2 15 1 10 80 10 100 2 1 15 1 5 60 10 80 1 1 0 50 0 0 15 1 0 100 0 0 0.500000 0.500000 0.400000 0.300000 0.800000 0 1 0 0 0 0 - - - - - - - - - - - - - - - - - - - - - - - - - -
      >
      FLOATPOS 0 0 0 0
      FXID {870BD507-8CEF-4D6C-A054-7B42C1C9F7CD}
      WAK 0 0
    >
    <ITEM
      POSITION 0
      LENGTH 83.98134
      LOOP 0
      ALLTAKES 0
      FADEIN 0 0 0 0 0 0 0
      FADEOUT 0 0 0 0 0 0 0
      MUTE 0 0
      SEL 0
      IGUID {566508EB-A0A0-49C8-A77F-DD23F2E609D0}
      <SOURCE MIDI
        HASDATA 1 480 QN
        CCINTERP 32
        X 0 18 ff 03 0f 53 71 75 61 72 65 20 31 20 5b 6c 65 61 64 5d
        E 0 c0 50
        E 16 b0 0c 20
        E 0 b0 0b 30
        E 0 90 1c 30
        E 48 b0 0b 28
        E 64 b0 0b 20
        E 16 b0 0b 30
        E 0 80 1c 00
        E 0 90 1a 30
        E 64 b0 0b 28
        E 48 b0 0b 30
        E 0 80 1a 00
        E 0 90 1c 30
        E 16 b0 0b 28
        E 64 b0 0b 20
        E 48 b0 0b 30
        E 0 80 1c 00
        E 0 90 1a 30
        E 32 b0 0b 28
        E 64 b0 0b 20
        E 16 b0 0b 30
        E 0 80 1a 00
        E 0 90 1f 30
        E 48 b0 0b 28
        E 80 b0 0b 20
        E 64 b0 0b 18
        E 64 b0 0b 10
        E 80 b0 0b 08
        E 16 b0 0b 30
        E 0 80 1f 00
        E 0 90 28 30
        E 48 b0 0b 28
        E 64 b0 0b 20
        E 80 b0 0b 18
        E 48 b0 0b 30
        E 0 80 28 00
        E 0 90 26 30
        E 16 b0 0b 28
        E 64 b0 0b 20
        E 48 b0 0b 30
        E 0 80 26 00
        E 0 90 23 30
        E 32 b0 0b 28
        E 64 b0 0b 20
        E 16 b0 0b 30
        E 0 80 23 00
        E 0 90 21 30
        E 48 b0 0b 28
        E 64 b0 0b 30
        E 0 80 21 00
        E 0 90 1f 30
        E 16 b0 0b 28
        E 64 b0 0b 20
        E 48 b0 0b 30
        E 0 80 1f 00
        E 0 90 1a 30
        E 16 b0 0b 28
        E 80 b0 0b 20
        E 64 b0 0b 18
        E 64 b0 0b 10
        E 80 b0 0b 08
        E 48 b0 0b 30
        E 0 80 1a 00
        E 0 90 1c 30
        E 16 b0 0b 28
        E 64 b0 0b 20
        E 32 b0 0b 30
        E 0 80 1c 00
        E 0 90 1a 30
        E 48 b0 0b 28
        E 64 b0 0b 20
        E 16 b0 0b 30
        E 0 80 1a 00
        E 0 90 1c 30
        E 48 b0 0b 28
        E 64 b0 0b 30
        E 0 80 1c 00
        E 0 90 1a 30
        E 16 b0 0b 28
        E 64 b0 0b 20
        E 48 b0 0b 30
        E 0 80 1a 00
        E 0 90 1f 30
        E 16 b0 0b 28
        E 80 b0 0b 20
        E 64 b0 0b 18
        E 64 b0 0b 10
        E 80 b0 0b 08
        E 48 b0 0b 30
        E 0 80 1f 00
        E 0 90 28 30
        E 16 b0 0b 28
        E 64 b0 0b 20
        E 80 b0 0b 18
        E 64 b0 0b 10
        E 16 b0 0b 30
        E 0 80 28 00
        E 0 90 26 30
        E 48 b0 0b 28
        E 64 b0 0b 30
        E 0 80 26 00
        E 0 90 23 30
        E 16 b0 0b 28
        E 64 b0 0b 20
        E 48 b0 0b 30
        E 0 80 23 00
        E 0 90 21 30
        E 16 b0 0b 28
        E 80 b0 0b 20
        E 16 b0 0b 30
        E 0 80 21 00
        E 0 90 1f 30
        E 48 b0 0b 28
        E 64 b0 0b 20
        E 16 b0 0b 30
        E 0 80 1f 00
        E 0 90 1a 30
        E 64 b0 0b 28
        E 64 b0 0b 20
        E 64 b0 0b 18
        E 80 b0 0b 10
        E 64 b0 0b 08
        E 16 b0 0b 30
        E 0 80 1a 00
        E 0 90 1c 30
        E 48 b0 0b 28
        E 64 b0 0b 30
        E 0 80 1c 00
        E 0 90 1a 30
        E 16 b0 0b 28
        E 64 b0 0b 20
        E 48 b0 0b 30
        E 0 80 1a 00
        E 0 90 1c 30
        E 32 b0 0b 28
        E 64 b0 0b 20
        E 16 b0 0b 30
        E 0 80 1c 00
        E 0 90 1a 30
        E 48 b0 0b 28
        E 64 b0 0b 30
        E 0 80 1a 00
        E 0 90 1f 30
        E 16 b0 0b 28
        E 64 b0 0b 20
        E 64 b0 0b 18
        E 80 b0 0b 10
        E 64 b0 0b 08
        E 64 80 1f 00
        E 16 b0 0b 30
        E 0 90 28 30
        E 64 b0 0b 28
        E 64 b0 0b 20
        E 64 b0 0b 18
        E 48 b0 0b 30
        E 0 80 28 00
        E 0 90 26 30
        E 32 b0 0b 28
        E 64 b0 0b 20
        E 16 b0 0b 30
        E 0 80 26 00
        E 0 90 23 30
        E 48 b0 0b 28
        E 64 b0 0b 30
        E 0 80 23 00
        E 0 90 21 30
        E 16 b0 0b 28
        E 64 b0 0b 20
        E 48 b0 0b 30
        E 0 80 21 00
        E 0 90 1f 30
        E 16 b0 0b 28
        E 80 b0 0b 20
        E 16 b0 0b 30
        E 0 80 1f 00
        E 0 90 1a 30
        E 48 b0 0b 28
        E 64 b0 0b 20
        E 80 b0 0b 18
        E 64 b0 0b 10
        E 64 b0 0b 08
        E 48 b0 0b 30
        E 0 80 1a 00
        E 0 90 1c 30
        E 32 b0 0b 28
        E 64 b0 0b 20
        E 16 b0 0b 30
        E 0 80 1c 00
        E 0 90 1a 30
        E 48 b0 0b 28
        E 64 b0 0b 30
        E 0 80 1a 00
        E 0 90 1c 30
        E 16 b0 0b 28
        E 64 b0 0b 20
        E 48 b0 0b 30
        E 0 80 1c 00
        E 0 90 1a 30
        E 16 b0 0b 28
        E 80 b0 0b 20
        E 16 b0 0b 30
        E 0 80 1a 00
        E 0 90 1f 30
        E 48 b0 0b 28
        E 64 b0 0b 20
        E 80 b0 0b 18
        E 64 b0 0b 10
        E 64 b0 0b 08
        E 32 b0 0b 30
        E 0 80 1f 00
        E 0 90 28 30
        E 48 b0 0b 28
        E 64 b0 0b 20
        E 64 b0 0b 18
        E 64 b0 0b 30
        E 0 80 28 00
        E 0 90 26 30
        E 16 b0 0b 28
        E 64 b0 0b 20
        E 48 b0 0b 30
        E 0 80 26 00
        E 0 90 23 30
        E 16 b0 0b 28
        E 80 b0 0b 20
        E 16 b0 0b 30
        E 0 80 23 00
        E 0 90 21 30
        E 48 b0 0b 28
        E 64 b0 0b 20
        E 16 b0 0b 30
        E 0 80 21 00
        E 0 90 1f 30
        E 64 b0 0b 28
        E 48 b0 0b 30
        E 0 80 1f 00
        E 0 90 1a 30
        E 16 b0 0b 28
        E 64 b0 0b 20
        E 80 b0 0b 18
        E 64 b0 0b 10
        E 64 b0 0b 08
        E 64 b0 0c 10
        E 0 b0 0b 30
        E 0 80 1a 00
        E 0 90 34 30
        E 16 b0 0b 28
        E 64 b0 0b 20
        E 48 b0 0b 30
        E 64 b0 0b 28
        E 64 b0 0b 20
        E 64 b0 0b 18
        E 48 b0 0b 30
        E 32 b0 0b 28
        E 64 b0 0b 20
        E 64 b0 0b 18
        E 64 b0 0b 30
        E 16 b0 0b 28
        E 64 b0 0b 20
        E 64 b0 0b 18
        E 80 b0 0b 10
        E 64 b0 0b 08
        E 64 80 34 00
        E 16 b0 0c 40
        E 0 b0 0b 28
        E 0 90 1c 28
        E 48 80 1c 00
        E 64 90 28 28
        E 16 b0 0b 20
        E 48 b0 0b 10
        E 0 80 28 00
        E 0 90 1c 10
        E 16 b0 0b 08
        E 32 b0 0b 28
        E 48 b0 0b 20
        E 16 b0 0b 10
        E 0 80 1c 00
        E 0 90 28 10
        E 48 b0 0b 08
        E 16 b0 0b 28
        E 0 80 28 00
        E 0 90 26 28
        E 48 b0 0b 20
        E 16 b0 0b 10
        E 0 80 26 00
        E 0 90 1c 10
        E 48 b0 0b 28
        E 16 b0 0b 20
        E 48 b0 0b 10
        E 0 80 1c 00
        E 0 90 26 10
        E 16 b0 0b 08
        E 48 b0 0b 28
        E 0 80 26 00
        E 0 90 23 28
        E 16 b0 0b 20
        E 32 b0 0b 10
        E 0 80 23 00
        E 0 90 1c 10
        E 48 b0 0b 08
        E 16 b0 0b 28
        E 0 80 1c 00
        E 0 90 21 28
        E 48 b0 0b 20
        E 16 b0 0b 10
        E 0 80 21 00
        E 0 90 23 10
        E 48 b0 0b 08
        E 16 b0 0b 28
        E 0 80 23 00
        E 0 90 1f 28
        E 48 b0 0b 10
        E 0 80 1f 00
        E 0 90 21 10
        E 16 b0 0b 08
        E 48 b0 0c 10
        E 0 b0 0b 30
        E 0 80 21 00
        E 0 90 37 30
        E 16 b0 0b 28
        E 64 b0 0b 20
        E 32 b0 0b 30
        E 48 b0 0b 28
        E 64 b0 0b 20
        E 64 b0 0b 18
        E 64 b0 0b 30
        E 16 b0 0b 28
        E 64 b0 0b 20
        E 64 b0 0b 18
        E 80 b0 0b 10
        E 16 b0 0b 30
        E 48 b0 0b 28
        E 80 b0 0b 20
        E 64 b0 0b 18
        E 64 b0 0b 10
        E 80 b0 0b 08
        E 16 b0 0c 40
        E 0 b0 0b 28
        E 0 80 37 00
        E 0 90 1c 28
        E 48 b0 0b 30
        E 16 80 1c 00
        E 64 b0 0b 28
        E 0 90 28 28
        E 48 b0 0b 10
        E 0 80 28 00
        E 0 90 1c 10
        E 16 b0 0b 08
        E 48 b0 0b 28
        E 16 b0 0b 20
        E 48 b0 0b 10
        E 0 80 1c 00
        E 0 90 28 10
        E 16 b0 0b 08
        E 48 b0 0b 28
        E 0 80 28 00
        E 0 90 26 28
        E 32 b0 0b 20
        E 16 b0 0b 10
        E 0 80 26 00
        E 0 90 1c 10
        E 48 b0 0b 08
        E 16 b0 0b 28
        E 48 b0 0b 20
        E 16 b0 0b 10
        E 0 80 1c 00
        E 0 90 26 10
        E 48 b0 0b 28
        E 0 80 26 00
        E 0 90 23 28
        E 16 b0 0b 20
        E 48 b0 0b 10
        E 0 80 23 00
        E 0 90 1c 10
        E 16 b0 0b 08
        E 48 b0 0b 28
        E 0 80 1c 00
        E 0 90 21 28
        E 16 b0 0b 20
        E 48 b0 0b 10
        E 0 80 21 00
        E 0 90 23 10
        E 32 b0 0b 08
        E 16 b0 0b 28
        E 0 80 23 00
        E 0 90 1f 28
        E 48 b0 0b 20
        E 16 b0 0b 10
        E 0 80 1f 00
        E 0 90 21 10
        E 48 b0 0b 08
        E 16 b0 0c 10
        E 0 b0 0b 30
        E 0 80 21 00
        E 0 90 34 30
        E 64 b0 0b 28
        E 48 b0 0b 30
        E 48 b0 0b 28
        E 64 b0 0b 20
        E 80 b0 0b 18
        E 48 b0 0b 30
        E 16 b0 0b 28
        E 64 b0 0b 20
        E 80 b0 0b 18
        E 64 b0 0b 10
        E 16 b0 0b 30
        E 48 b0 0b 28
        E 80 b0 0b 20
        E 64 b0 0b 18
        E 80 b0 0b 10
        E 64 b0 0b 08
        E 16 b0 0c 40
        E 0 b0 0b 28
        E 0 80 34 00
        E 0 90 1c 28
        E 48 b0 0b 30
        E 16 80 1c 00
        E 48 b0 0b 28
        E 0 90 28 28
        E 48 b0 0b 20
        E 16 b0 0b 10
        E 0 80 28 00
        E 0 90 1c 10
        E 48 b0 0b 08
        E 16 b0 0b 28
        E 48 b0 0b 20
        E 16 b0 0b 10
        E 0 80 1c 00
        E 0 90 28 10
        E 48 b0 0b 28
        E 0 80 28 00
        E 0 90 26 28
        E 16 b0 0b 20
        E 48 b0 0b 10
        E 0 80 26 00
        E 0 90 1c 10
        E 16 b0 0b 08
        E 48 b0 0b 28
        E 16 b0 0b 20
        E 32 b0 0b 10
        E 0 80 1c 00
        E 0 90 26 10
        E 48 b0 0b 08
        E 16 b0 0b 28
        E 0 80 26 00
        E 0 90 23 28
        E 48 b0 0b 20
        E 16 b0 0b 10
        E 0 80 23 00
        E 0 90 1c 10
        E 48 b0 0b 08
        E 16 b0 0b 28
        E 0 80 1c 00
        E 0 90 21 28
        E 48 b0 0b 10
        E 0 80 21 00
        E 0 90 23 10
        E 16 b0 0b 08
        E 48 b0 0b 28
        E 0 80 23 00
        E 0 90 1f 28
        E 16 b0 0b 20
        E 48 b0 0b 10
        E 0 80 1f 00
        E 0 90 21 10
        E 16 b0 0b 08
        E 32 b0 0c 10
        E 0 b0 0b 30
        E 0 80 21 00
        E 0 90 32 30
        E 48 b0 0b 28
        E 64 b0 0b 20
        E 16 b0 0b 30
        E 48 b0 0b 28
        E 80 b0 0b 20
        E 64 b0 0b 18
        E 48 b0 0b 30
        E 16 b0 0b 28
        E 80 b0 0b 20
        E 64 b0 0b 18
        E 64 b0 0b 10
        E 16 b0 0b 30
        E 64 b0 0b 28
        E 64 b0 0b 20
        E 64 b0 0b 18
        E 80 b0 0b 10
        E 64 b0 0b 08
        E 16 b0 0c 40
        E 0 b0 0b 28
        E 0 80 32 00
        E 0 90 1c 28
        E 48 80 1c 00
        E 64 90 28 28
        E 16 b0 0b 20
        E 48 b0 0b 10
        E 0 80 28 00
        E 0 90 1c 10
        E 16 b0 0b 08
        E 48 b0 0b 28
        E 32 b0 0b 20
        E 16 b0 0b 10
        E 0 80 1c 00
        E 0 90 28 10
        E 48 b0 0b 08
        E 16 b0 0b 28
        E 0 80 28 00
        E 0 90 26 28
        E 48 b0 0b 20
        E 16 b0 0b 10
        E 0 80 26 00
        E 0 90 1c 10
        E 48 b0 0b 28
        E 16 b0 0b 20
        E 48 b0 0b 10
        E 0 80 1c 00
        E 0 90 26 10
        E 16 b0 0b 08
        E 48 b0 0b 28
        E 0 80 26 00
        E 0 90 23 28
        E 16 b0 0b 20
        E 48 b0 0b 10
        E 0 80 23 00
        E 0 90 1c 10
        E 32 b0 0b 08
        E 16 b0 0b 28
        E 0 80 1c 00
        E 0 90 21 28
        E 48 b0 0b 20
        E 16 b0 0b 10
        E 0 80 21 00
        E 0 90 23 10
        E 48 b0 0b 08
        E 16 b0 0b 28
        E 0 80 23 00
        E 0 90 1f 28
        E 48 b0 0b 10
        E 0 80 1f 00
        E 0 90 21 10
        E 16 b0 0b 08
        E 48 b0 0c 10
        E 0 b0 0b 30
        E 0 80 21 00
        E 0 90 34 30
        E 16 b0 0b 28
        E 64 b0 0b 20
        E 48 b0 0b 30
        E 64 b0 0b 28
        E 64 b0 0b 20
        E 64 b0 0b 18
        E 32 b0 0b 30
        E 48 b0 0b 28
        E 64 b0 0b 20
        E 64 b0 0b 18
        E 64 b0 0b 30
        E 16 b0 0b 28
        E 64 b0 0b 20
        E 64 b0 0b 18
        E 80 b0 0b 10
        E 64 b0 0b 08
        E 64 80 34 00
        E 16 b0 0c 40
        E 0 b0 0b 28
        E 0 90 1c 28
        E 48 80 1c 00
        E 64 90 28 28
        E 16 b0 0b 20
        E 48 b0 0b 10
        E 0 80 28 00
        E 0 90 1c 10
        E 32 b0 0b 08
        E 16 b0 0b 28
        E 48 b0 0b 20
        E 16 b0 0b 10
        E 0 80 1c 00
        E 0 90 28 10
        E 48 b0 0b 08
        E 16 b0 0b 28
        E 0 80 28 00
        E 0 90 26 28
        E 48 b0 0b 10
        E 0 80 26 00
        E 0 90 1c 10
        E 16 b0 0b 08
        E 48 b0 0b 28
        E 16 b0 0b 20
        E 48 b0 0b 10
        E 0 80 1c 00
        E 0 90 26 10
        E 16 b0 0b 08
        E 48 b0 0b 28
        E 0 80 26 00
        E 0 90 23 28
        E 32 b0 0b 20
        E 16 b0 0b 10
        E 0 80 23 00
        E 0 90 1c 10
        E 48 b0 0b 08
        E 16 b0 0b 28
        E 0 80 1c 00
        E 0 90 21 28
        E 48 b0 0b 20
        E 16 b0 0b 10
        E 0 80 21 00
        E 0 90 23 10
        E 48 b0 0b 28
        E 0 80 23 00
        E 0 90 1f 28
        E 16 b0 0b 20
        E 48 b0 0b 10
        E 0 80 1f 00
        E 0 90 21 10
        E 16 b0 0b 08
        E 48 b0 0c 10
        E 0 b0 0b 30
        E 0 80 21 00
        E 0 90 37 30
        E 16 b0 0b 28
        E 80 b0 0b 20
        E 16 b0 0b 30
        E 48 b0 0b 28
        E 64 b0 0b 20
        E 80 b0 0b 18
        E 48 b0 0b 30
        E 16 b0 0b 28
        E 64 b0 0b 20
        E 80 b0 0b 18
        E 64 b0 0b 10
        E 16 b0 0b 30
        E 48 b0 0b 28
        E 80 b0 0b 20
        E 64 b0 0b 18
        E 64 b0 0b 10
        E 80 b0 0b 08
        E 16 b0 0c 40
        E 0 b0 0b 28
        E 0 80 37 00
        E 0 90 1c 28
        E 48 b0 0b 30
        E 16 80 1c 00
        E 64 b0 0b 28
        E 0 90 28 28
        E 48 b0 0b 10
        E 0 80 28 00
        E 0 90 1c 10
        E 16 b0 0b 08
        E 48 b0 0b 28
        E 16 b0 0b 20
        E 48 b0 0b 10
        E 0 80 1c 00
        E 0 90 28 10
        E 16 b0 0b 08
        E 32 b0 0b 28
        E 0 80 28 00
        E 0 90 26 28
        E 48 b0 0b 20
        E 16 b0 0b 10
        E 0 80 26 00
        E 0 90 1c 10
        E 48 b0 0b 08
        E 16 b0 0b 28
        E 48 b0 0b 20
        E 16 b0 0b 10
        E 0 80 1c 00
        E 0 90 26 10
        E 48 b0 0b 28
        E 0 80 26 00
        E 0 90 23 28
        E 16 b0 0b 20
        E 48 b0 0b 10
        E 0 80 23 00
        E 0 90 1c 10
        E 16 b0 0b 08
        E 48 b0 0b 28
        E 0 80 1c 00
        E 0 90 21 28
        E 16 b0 0b 20
        E 32 b0 0b 10
        E 0 80 21 00
        E 0 90 23 10
        E 48 b0 0b 08
        E 16 b0 0b 28
        E 0 80 23 00
        E 0 90 1f 28
        E 48 b0 0b 20
        E 16 b0 0b 10
        E 0 80 1f 00
        E 0 90 21 10
        E 48 b0 0b 08
        E 16 b0 0c 10
        E 0 b0 0b 30
        E 0 80 21 00
        E 0 90 32 30
        E 64 b0 0b 28
        E 48 b0 0b 30
        E 48 b0 0b 28
        E 80 b0 0b 20
        E 64 b0 0b 18
        E 48 b0 0b 30
        E 16 b0 0b 28
        E 80 b0 0b 20
        E 64 b0 0b 18
        E 64 b0 0b 10
        E 16 b0 0b 30
        E 64 b0 0b 28
        E 64 b0 0b 20
        E 64 b0 0b 18
        E 80 b0 0b 10
        E 64 b0 0b 08
        E 16 b0 0c 40
        E 0 b0 0b 28
        E 0 80 32 00
        E 0 90 1c 28
        E 48 b0 0b 30
        E 16 80 1c 00
        E 48 b0 0b 28
        E 0 90 28 28
        E 48 b0 0b 20
        E 16 b0 0b 10
        E 0 80 28 00
        E 0 90 1c 10
        E 48 b0 0b 08
        E 16 b0 0b 28
        E 48 b0 0b 20
        E 16 b0 0b 10
        E 0 80 1c 00
        E 0 90 28 10
        E 48 b0 0b 28
        E 0 80 28 00
        E 0 90 26 28
        E 16 b0 0b 20
        E 48 b0 0b 10
        E 0 80 26 00
        E 0 90 1c 10
        E 16 b0 0b 08
        E 48 b0 0b 28
        E 32 b0 0b 20
        E 16 b0 0b 10
        E 0 80 1c 00
        E 0 90 26 10
        E 48 b0 0b 08
        E 16 b0 0b 28
        E 0 80 26 00
        E 0 90 23 28
        E 48 b0 0b 20
        E 16 b0 0b 10
        E 0 80 23 00
        E 0 90 1c 10
        E 48 b0 0b 28
        E 0 80 1c 00
        E 0 90 21 28
        E 16 b0 0b 20
        E 48 b0 0b 10
        E 0 80 21 00
        E 0 90 23 10
        E 16 b0 0b 08
        E 48 b0 0b 28
        E 0 80 23 00
        E 0 90 1f 28
        E 16 b0 0b 20
        E 48 b0 0b 10
        E 0 80 1f 00
        E 0 90 21 10
        E 32 b0 0b 08
        E 16 b0 0c 10
        E 0 b0 0b 30
        E 0 80 21 00
        E 0 90 34 30
        E 48 b0 0b 28
        E 64 b0 0b 20
        E 16 b0 0b 30
        E 64 b0 0b 28
        E 64 b0 0b 20
        E 64 b0 0b 18
        E 48 b0 0b 30
        E 32 b0 0b 28
        E 64 b0 0b 20
        E 64 b0 0b 18
        E 64 b0 0b 30
        E 16 b0 0b 28
        E 64 b0 0b 20
        E 64 b0 0b 18
        E 80 b0 0b 10
        E 64 b0 0b 08
        E 64 80 34 00
        E 16 b0 0c 40
        E 0 b0 0b 28
        E 0 90 1c 28
        E 48 80 1c 00
        E 64 90 28 28
        E 16 b0 0b 20
        E 48 b0 0b 10
        E 0 80 28 00
        E 0 90 1c 10
        E 16 b0 0b 08
        E 48 b0 0b 28
        E 32 b0 0b 20
        E 16 b0 0b 10
        E 0 80 1c 00
        E 0 90 28 10
        E 48 b0 0b 08
        E 16 b0 0b 28
        E 0 80 28 00
        E 0 90 26 28
        E 48 b0 0b 20
        E 16 b0 0b 10
        E 0 80 26 00
        E 0 90 1c 10
        E 48 b0 0b 28
        E 16 b0 0b 20
        E 48 b0 0b 10
        E 0 80 1c 00
        E 0 90 26 10
        E 16 b0 0b 08
        E 48 b0 0b 28
        E 0 80 26 00
        E 0 90 23 28
        E 16 b0 0b 20
        E 32 b0 0b 10
        E 0 80 23 00
        E 0 90 1c 10
        E 48 b0 0b 08
        E 16 b0 0b 28
        E 0 80 1c 00
        E 0 90 21 28
        E 48 b0 0b 20
        E 16 b0 0b 10
        E 0 80 21 00
        E 0 90 23 10
        E 48 b0 0b 08
        E 16 b0 0b 28
        E 0 80 23 00
        E 0 90 1f 28
        E 48 b0 0b 10
        E 0 80 1f 00
        E 0 90 21 10
        E 16 b0 0b 08
        E 48 b0 0c 10
        E 0 b0 0b 30
        E 0 80 21 00
        E 0 90 34 30
        E 16 b0 0b 28
        E 64 b0 0b 20
        E 32 b0 0b 30
        E 48 b0 0b 28
        E 64 b0 0b 20
        E 64 b0 0b 18
        E 64 b0 0b 30
        E 16 b0 0b 28
        E 64 b0 0b 20
        E 64 b0 0b 18
        E 80 b0 0b 10
        E 64 b0 0b 08
        E 64 80 34 00
        E 240 b0 0b 30
        E 0 90 36 30
        E 48 b0 0b 28
        E 64 b0 0b 20
        E 16 b0 0b 30
        E 48 b0 0b 28
        E 80 b0 0b 20
        E 64 b0 0b 18
        E 48 b0 0b 30
        E 16 b0 0b 28
        E 80 b0 0b 20
        E 64 b0 0b 18
        E 64 b0 0b 10
        E 80 b0 0b 08
        E 64 80 36 00
        E 224 b0 0b 30
        E 0 90 32 30
        E 64 b0 0b 28
        E 48 b0 0b 30
        E 16 b0 0b 28
        E 64 b0 0b 20
        E 80 b0 0b 18
        E 64 b0 0b 10
        E 16 b0 0b 30
        E 48 b0 0b 28
        E 80 b0 0b 20
        E 64 b0 0b 18
        E 64 b0 0b 10
        E 80 b0 0b 08
        E 64 80 32 00
        E 80 b0 0c 20
        E 0 b0 0b 30
        E 0 90 2b 30
        E 16 b0 0b 28
        E 48 b0 0b 20
        E 32 b0 0b 18
        E 32 b0 0b 10
        E 32 b0 0b 08
        E 32 80 2b 00
        E 48 b0 0b 30
        E 0 90 2a 30
        E 32 b0 0b 28
        E 32 b0 0b 20
        E 32 b0 0b 18
        E 16 b0 0b 30
        E 0 80 2a 00
        E 0 90 28 30
        E 16 b0 0b 28
        E 32 b0 0b 20
        E 32 b0 0b 18
        E 32 b0 0b 30
        E 0 80 28 00
        E 0 90 26 30
        E 16 b0 0b 28
        E 32 b0 0b 20
        E 32 b0 0b 18
        E 32 b0 0b 10
        E 16 b0 0b 30
        E 0 80 26 00
        E 0 90 28 30
        E 16 b0 0b 28
        E 32 b0 0b 20
        E 48 b0 0b 18
        E 16 b0 0b 30
        E 0 80 28 00
        E 0 90 26 30
        E 16 b0 0b 28
        E 32 b0 0b 20
        E 32 b0 0b 18
        E 32 b0 0b 10
        E 32 b0 0b 08
        E 48 80 26 00
        E 48 b0 0b 30
        E 0 90 26 30
        E 16 b0 0b 28
        E 32 b0 0b 20
        E 32 b0 0b 18
        E 32 b0 0c 10
        E 0 b0 0b 30
        E 0 80 26 00
        E 0 90 34 30
        E 16 b0 0b 28
        E 32 b0 0b 20
        E 32 b0 0b 18
        E 32 b0 0b 10
        E 16 b0 0b 30
        E 48 b0 0b 28
        E 80 b0 0b 20
        E 64 b0 0b 18
        E 48 b0 0b 30
        E 16 b0 0b 28
        E 80 b0 0b 20
        E 64 b0 0b 18
        E 64 b0 0b 10
        E 80 b0 0b 08
        E 64 80 34 00
        E 224 b0 0b 30
        E 0 90 36 30
        E 48 b0 0b 28
        E 64 b0 0b 30
        E 16 b0 0b 28
        E 64 b0 0b 20
        E 64 b0 0b 18
        E 80 b0 0b 10
        E 16 b0 0b 30
        E 48 b0 0b 28
        E 64 b0 0b 20
        E 80 b0 0b 18
        E 64 b0 0b 10
        E 64 b0 0b 08
        E 80 80 36 00
        E 192 b0 0b 30
        E 0 90 32 30
        E 48 b0 0b 28
        E 64 b0 0b 20
        E 16 b0 0b 30
        E 64 b0 0b 28
        E 64 b0 0b 20
        E 64 b0 0b 18
        E 32 b0 0b 30
        E 48 b0 0b 28
        E 64 b0 0b 20
        E 64 b0 0b 18
        E 80 b0 0b 10
        E 64 b0 0b 08
        E 64 80 32 00
        E 96 b0 0c 20
        E 0 b0 0b 30
        E 0 90 2b 30
        E 16 b0 0b 28
        E 32 b0 0b 20
        E 32 b0 0b 18
        E 32 b0 0b 10
        E 48 b0 0b 08
        E 32 80 2b 00
        E 48 b0 0b 30
        E 0 90 2a 30
        E 16 b0 0b 28
        E 32 b0 0b 20
        E 32 b0 0b 18
        E 32 b0 0b 30
        E 0 80 2a 00
        E 0 90 28 30
        E 16 b0 0b 28
        E 32 b0 0b 20
        E 32 b0 0b 18
        E 32 b0 0b 10
        E 16 b0 0b 30
        E 0 80 28 00
        E 0 90 26 30
        E 16 b0 0b 28
        E 32 b0 0b 20
        E 48 b0 0b 18
        E 16 b0 0b 30
        E 0 80 26 00
        E 0 90 28 30
        E 16 b0 0b 28
        E 32 b0 0b 20
        E 32 b0 0b 18
        E 32 b0 0b 10
        E 16 b0 0b 30
        E 0 80 28 00
        E 0 90 26 30
        E 16 b0 0b 28
        E 48 b0 0b 20
        E 32 b0 0b 18
        E 32 b0 0b 10
        E 32 b0 0b 08
        E 32 80 26 00
        E 48 b0 0b 30
        E 0 90 26 30
        E 32 b0 0b 28
        E 32 b0 0b 20
        E 32 b0 0b 18
        E 16 b0 0c 40
        E 0 b0 0b 28
        E 0 80 26 00
        E 0 90 29 28
        E 16 b0 0b 20
        E 32 b0 0b 18
        E 16 80 29 00
        E 48 b0 0b 28
        E 0 90 2d 28
        E 16 b0 0b 20
        E 32 b0 0b 18
        E 16 b0 0b 10
        E 0 80 2d 00
        E 0 90 29 10
        E 16 b0 0b 08
        E 32 80 29 00
        E 16 b0 0b 28
        E 0 90 30 28
        E 16 b0 0b 20
        E 32 b0 0b 10
        E 0 80 30 00
        E 0 90 2d 10
        E 16 b0 0b 08
        E 32 80 2d 00
        E 16 b0 0b 28
        E 0 90 34 28
        E 16 b0 0b 20
        E 32 b0 0b 18
        E 16 b0 0b 10
        E 0 80 34 00
        E 0 90 30 10
        E 16 b0 0b 08
        E 32 80 30 00
        E 16 b0 0b 28
        E 0 90 35 28
        E 32 b0 0b 20
        E 16 b0 0b 10
        E 0 80 35 00
        E 0 90 34 10
        E 16 b0 0b 08
        E 32 80 34 00
        E 16 b0 0b 28
        E 0 90 39 28
        E 16 b0 0b 20
        E 32 b0 0b 18
        E 16 b0 0b 10
        E 0 80 39 00
        E 0 90 35 10
        E 16 b0 0b 08
        E 32 b0 0b 28
        E 0 80 35 00
        E 0 90 3c 28
        E 16 b0 0b 20
        E 32 b0 0b 18
        E 16 b0 0b 10
        E 0 80 3c 00
        E 0 90 39 10
        E 16 b0 0b 08
        E 32 80 39 00
        E 16 b0 0b 28
        E 0 90 34 28
        E 16 b0 0b 20
        E 32 b0 0b 18
        E 16 b0 0b 10
        E 0 80 34 00
        E 0 90 3c 10
        E 32 b0 0b 08
        E 16 b0 0b 28
        E 0 80 3c 00
        E 0 90 40 28
        E 16 b0 0b 20
        E 32 b0 0b 18
        E 16 b0 0b 10
        E 0 80 40 00
        E 0 90 34 10
        E 16 b0 0b 08
        E 32 80 34 00
        E 16 b0 0b 28
        E 0 90 3c 28
        E 16 b0 0b 20
        E 32 b0 0b 10
        E 0 80 3c 00
        E 0 90 40 10
        E 16 b0 0b 08
        E 32 80 40 00
        E 16 b0 0b 28
        E 0 90 39 28
        E 16 b0 0b 20
        E 32 b0 0b 18
        E 16 b0 0b 10
        E 0 80 39 00
        E 0 90 3c 10
        E 16 b0 0b 08
        E 32 80 3c 00
        E 16 b0 0b 28
        E 0 90 35 28
        E 32 b0 0b 20
        E 16 b0 0b 10
        E 0 80 35 00
        E 0 90 39 10
        E 16 b0 0b 08
        E 32 80 39 00
        E 16 b0 0b 28
        E 0 90 34 28
        E 16 b0 0b 20
        E 32 b0 0b 18
        E 16 b0 0b 10
        E 0 80 34 00
        E 0 90 35 10
        E 16 b0 0b 08
        E 32 b0 0b 28
        E 16 b0 0b 20
        E 32 b0 0b 18
        E 16 b0 0b 10
        E 0 80 35 00
        E 0 90 34 10
        E 16 b0 0b 08
        E 32 80 34 00
        E 16 b0 0b 28
        E 0 90 30 28
        E 16 b0 0b 20
        E 32 b0 0b 18
        E 16 b0 0b 10
        E 0 80 30 00
        E 0 90 35 10
        E 32 b0 0b 08
        E 16 b0 0b 28
        E 0 80 35 00
        E 0 90 2d 28
        E 16 b0 0b 20
        E 32 b0 0b 18
        E 16 b0 0b 10
        E 0 80 2d 00
        E 0 90 30 10
        E 64 b0 0b 28
        E 0 80 30 00
        E 0 90 29 28
        E 16 b0 0b 20
        E 32 80 29 00
        E 64 b0 0b 28
        E 0 90 2d 28
        E 16 b0 0b 20
        E 32 b0 0b 18
        E 16 b0 0b 10
        E 0 80 2d 00
        E 0 90 29 10
        E 16 b0 0b 08
        E 32 80 29 00
        E 16 b0 0b 28
        E 0 90 30 28
        E 32 b0 0b 20
        E 16 b0 0b 10
        E 0 80 30 00
        E 0 90 2d 10
        E 16 b0 0b 08
        E 32 80 2d 00
        E 16 b0 0b 28
        E 0 90 34 28
        E 16 b0 0b 20
        E 32 b0 0b 18
        E 16 b0 0b 10
        E 0 80 34 00
        E 0 90 30 10
        E 32 b0 0b 08
        E 16 b0 0b 28
        E 0 80 30 00
        E 0 90 35 28
        E 16 b0 0b 20
        E 32 b0 0b 18
        E 16 b0 0b 10
        E 0 80 35 00
        E 0 90 34 10
        E 16 b0 0b 08
        E 32 80 34 00
        E 16 b0 0b 28
        E 0 90 39 28
        E 16 b0 0b 20
        E 32 b0 0b 10
        E 0 80 39 00
        E 0 90 35 10
        E 16 b0 0b 08
        E 32 80 35 00
        E 16 b0 0b 28
        E 0 90 3c 28
        E 16 b0 0b 20
        E 32 b0 0b 18
        E 16 b0 0b 10
        E 0 80 3c 00
        E 0 90 39 10
        E 16 b0 0b 08
        E 32 80 39 00
        E 16 b0 0b 28
        E 0 90 34 28
        E 32 b0 0b 20
        E 16 b0 0b 10
        E 0 80 34 00
        E 0 90 3c 10
        E 16 b0 0b 08
        E 32 80 3c 00
        E 16 b0 0b 28
        E 0 90 40 28
        E 16 b0 0b 20
        E 32 b0 0b 18
        E 16 b0 0b 10
        E 0 80 40 00
        E 0 90 34 10
        E 16 b0 0b 08
        E 32 b0 0b 28
        E 0 80 34 00
        E 0 90 3c 28
        E 16 b0 0b 20
        E 32 b0 0b 18
        E 16 b0 0b 10
        E 0 80 3c 00
        E 0 90 40 10
        E 16 b0 0b 08
        E 32 80 40 00
        E 16 b0 0b 28
        E 0 90 39 28
        E 16 b0 0b 20
        E 32 b0 0b 18
        E 16 b0 0b 10
        E 0 80 39 00
        E 0 90 3c 10
        E 32 b0 0b 08
        E 16 b0 0b 28
        E 0 80 3c 00
        E 0 90 35 28
        E 16 b0 0b 20
        E 32 b0 0b 18
        E 16 b0 0b 10
        E 0 80 35 00
        E 0 90 39 10
        E 16 b0 0b 08
        E 32 80 39 00
        E 16 b0 0b 28
        E 0 90 34 28
        E 16 b0 0b 20
        E 32 b0 0b 10
        E 0 80 34 00
        E 0 90 35 10
        E 16 b0 0b 08
        E 32 80 35 00
        E 16 b0 0b 28
        E 0 90 35 28
        E 16 b0 0b 20
        E 32 b0 0b 18
        E 16 b0 0b 10
        E 0 80 35 00
        E 0 90 34 10
        E 16 b0 0b 08
        E 32 80 34 00
        E 16 b0 0b 28
        E 0 90 30 28
        E 32 b0 0b 20
        E 16 b0 0b 10
        E 0 80 30 00
        E 0 90 35 10
        E 16 b0 0b 08
        E 32 80 35 00
        E 16 b0 0b 28
        E 0 90 2d 28
        E 16 b0 0b 20
        E 32 b0 0b 18
        E 16 b0 0b 10
        E 0 80 2d 00
        E 0 90 30 10
        E 48 b0 0c 20
        E 0 b0 0b 30
        E 0 80 30 00
        E 0 90 1c 30
        E 48 b0 0b 28
        E 64 b0 0b 20
        E 16 b0 0b 30
        E 0 80 1c 00
        E 0 90 1a 30
        E 48 b0 0b 28
        E 64 b0 0b 30
        E 0 80 1a 00
        E 0 90 1c 30
        E 16 b0 0b 28
        E 64 b0 0b 20
        E 48 b0 0b 30
        E 0 80 1c 00
        E 0 90 1a 30
        E 16 b0 0b 28
        E 80 b0 0b 20
        E 16 b0 0b 30
        E 0 80 1a 00
        E 0 90 1f 30
        E 48 b0 0b 28
        E 80 b0 0b 20
        E 64 b0 0b 18
        E 64 b0 0b 10
        E 80 b0 0b 08
        E 16 b0 0b 30
        E 0 80 1f 00
        E 0 90 28 30
        E 48 b0 0b 28
        E 64 b0 0b 20
        E 80 b0 0b 18
        E 48 b0 0b 30
        E 0 80 28 00
        E 0 90 26 30
        E 16 b0 0b 28
        E 64 b0 0b 20
        E 48 b0 0b 30
        E 0 80 26 00
        E 0 90 23 30
        E 32 b0 0b 28
        E 64 b0 0b 20
        E 16 b0 0b 30
        E 0 80 23 00
        E 0 90 21 30
        E 48 b0 0b 28
        E 64 b0 0b 30
        E 0 80 21 00
        E 0 90 1f 30
        E 16 b0 0b 28
        E 64 b0 0b 20
        E 48 b0 0b 30
        E 0 80 1f 00
        E 0 90 1a 30
        E 16 b0 0b 28
        E 80 b0 0b 20
        E 64 b0 0b 18
        E 64 b0 0b 10
        E 80 b0 0b 08
        E 48 b0 0b 30
        E 0 80 1a 00
        E 0 90 1c 30
        E 16 b0 0b 28
        E 64 b0 0b 20
        E 48 b0 0b 30
        E 0 80 1c 00
        E 0 90 1a 30
        E 32 b0 0b 28
        E 64 b0 0b 20
        E 16 b0 0b 30
        E 0 80 1a 00
        E 0 90 1c 30
        E 48 b0 0b 28
        E 64 b0 0b 30
        E 0 80 1c 00
        E 0 90 1a 30
        E 16 b0 0b 28
        E 64 b0 0b 20
        E 48 b0 0b 30
        E 0 80 1a 00
        E 0 90 1f 30
        E 16 b0 0b 28
        E 80 b0 0b 20
        E 64 b0 0b 18
        E 64 b0 0b 10
        E 80 b0 0b 08
        E 48 b0 0b 30
        E 0 80 1f 00
        E 0 90 28 30
        E 16 b0 0b 28
        E 64 b0 0b 20
        E 80 b0 0b 18
        E 64 b0 0b 10
        E 16 b0 0b 30
        E 0 80 28 00
        E 0 90 26 30
        E 48 b0 0b 28
        E 64 b0 0b 30
        E 0 80 26 00
        E 0 90 23 30
        E 16 b0 0b 28
        E 64 b0 0b 20
        E 48 b0 0b 30
        E 0 80 23 00
        E 0 90 21 30
        E 16 b0 0b 28
        E 80 b0 0b 20
        E 16 b0 0b 30
        E 0 80 21 00
        E 0 90 1f 30
        E 48 b0 0b 28
        E 64 b0 0b 20
        E 16 b0 0b 30
        E 0 80 1f 00
        E 0 90 1a 30
        E 64 b0 0b 28
        E 64 b0 0b 20
        E 64 b0 0b 18
        E 80 b0 0b 10
        E 64 b0 0b 08
        E 16 b0 0b 30
        E 0 80 1a 00
        E 0 90 1c 30
        E 48 b0 0b 28
        E 64 b0 0b 30
        E 0 80 1c 00
        E 0 90 1a 30
        E 16 b0 0b 28
        E 64 b0 0b 20
        E 48 b0 0b 30
        E 0 80 1a 00
        E 0 90 1c 30
        E 16 b0 0b 28
        E 80 b0 0b 20
        E 16 b0 0b 30
        E 0 80 1c 00
        E 0 90 1a 30
        E 48 b0 0b 28
        E 64 b0 0b 20
        E 16 b0 0b 30
        E 0 80 1a 00
        E 0 90 1f 30
        E 64 b0 0b 28
        E 64 b0 0b 20
        E 64 b0 0b 18
        E 80 b0 0b 10
        E 64 b0 0b 08
        E 16 b0 0b 30
        E 0 80 1f 00
        E 0 90 28 30
        E 64 b0 0b 28
        E 64 b0 0b 20
        E 64 b0 0b 18
        E 48 b0 0b 30
        E 0 80 28 00
        E 0 90 26 30
        E 32 b0 0b 28
        E 64 b0 0b 20
        E 16 b0 0b 30
        E 0 80 26 00
        E 0 90 23 30
        E 48 b0 0b 28
        E 64 b0 0b 30
        E 0 80 23 00
        E 0 90 21 30
        E 16 b0 0b 28
        E 64 b0 0b 20
        E 48 b0 0b 30
        E 0 80 21 00
        E 0 90 1f 30
        E 16 b0 0b 28
        E 80 b0 0b 20
        E 16 b0 0b 30
        E 0 80 1f 00
        E 0 90 1a 30
        E 48 b0 0b 28
        E 64 b0 0b 20
        E 80 b0 0b 18
        E 64 b0 0b 10
        E 64 b0 0b 08
        E 48 b0 0b 30
        E 0 80 1a 00
        E 0 90 1c 30
        E 32 b0 0b 28
        E 64 b0 0b 20
        E 16 b0 0b 30
        E 0 80 1c 00
        E 0 90 1a 30
        E 48 b0 0b 28
        E 64 b0 0b 30
        E 0 80 1a 00
        E 0 90 1c 30
        E 16 b0 0b 28
        E 64 b0 0b 20
        E 48 b0 0b 30
        E 0 80 1c 00
        E 0 90 1a 30
        E 16 b0 0b 28
        E 80 b0 0b 20
        E 16 b0 0b 30
        E 0 80 1a 00
        E 0 90 1f 30
        E 48 b0 0b 28
        E 64 b0 0b 20
        E 80 b0 0b 18
        E 64 b0 0b 10
        E 64 b0 0b 08
        E 48 b0 0b 30
        E 0 80 1f 00
        E 0 90 28 30
        E 32 b0 0b 28
        E 64 b0 0b 20
        E 64 b0 0b 18
        E 64 b0 0b 30
        E 0 80 28 00
        E 0 90 26 30
        E 16 b0 0b 28
        E 64 b0 0b 20
        E 48 b0 0b 30
        E 0 80 26 00
        E 0 90 23 30
        E 16 b0 0b 28
        E 80 b0 0b 20
        E 16 b0 0b 30
        E 0 80 23 00
        E 0 90 21 30
        E 48 b0 0b 28
        E 64 b0 0b 20
        E 16 b0 0b 30
        E 0 80 21 00
        E 0 90 1f 30
        E 64 b0 0b 28
        E 48 b0 0b 30
        E 0 80 1f 00
        E 0 90 1a 30
        E 16 b0 0b 28
        E 64 b0 0b 20
        E 80 b0 0b 18
        E 64 b0 0b 10
        E 64 b0 0b 08
        E 64 b0 0c 10
        E 0 b0 0b 30
        E 0 80 1a 00
        E 0 90 34 30
        E 16 b0 0b 28
        E 64 b0 0b 20
        E 48 b0 0b 30
        E 64 b0 0b 28
        E 64 b0 0b 20
        E 64 b0 0b 18
        E 48 b0 0b 30
        E 32 b0 0b 28
        E 64 b0 0b 20
        E 64 b0 0b 18
        E 64 b0 0b 30
        E 16 b0 0b 28
        E 64 b0 0b 20
        E 64 b0 0b 18
        E 80 b0 0b 10
        E 64 b0 0b 08
        E 64 80 34 00
        E 16 b0 0c 40
        E 0 b0 0b 28
        E 0 90 1c 28
        E 48 80 1c 00
        E 64 90 28 28
        E 16 b0 0b 20
        E 48 b0 0b 10
        E 0 80 28 00
        E 0 90 1c 10
        E 16 b0 0b 08
        E 32 b0 0b 28
        E 48 b0 0b 20
        E 16 b0 0b 10
        E 0 80 1c 00
        E 0 90 28 10
        E 48 b0 0b 08
        E 16 b0 0b 28
        E 0 80 28 00
        E 0 90 26 28
        E 48 b0 0b 20
        E 16 b0 0b 10
        E 0 80 26 00
        E 0 90 1c 10
        E 48 b0 0b 28
        E 16 b0 0b 20
        E 48 b0 0b 10
        E 0 80 1c 00
        E 0 90 26 10
        E 16 b0 0b 08
        E 48 b0 0b 28
        E 0 80 26 00
        E 0 90 23 28
        E 16 b0 0b 20
        E 32 b0 0b 10
        E 0 80 23 00
        E 0 90 1c 10
        E 48 b0 0b 08
        E 16 b0 0b 28
        E 0 80 1c 00
        E 0 90 21 28
        E 48 b0 0b 20
        E 16 b0 0b 10
        E 0 80 21 00
        E 0 90 23 10
        E 48 b0 0b 08
        E 16 b0 0b 28
        E 0 80 23 00
        E 0 90 1f 28
        E 48 b0 0b 10
        E 0 80 1f 00
        E 0 90 21 10
        E 16 b0 0b 08
        E 48 b0 0c 10
        E 0 b0 0b 30
        E 0 80 21 00
        E 0 90 37 30
        E 16 b0 0b 28
        E 64 b0 0b 20
        E 32 b0 0b 30
        E 48 b0 0b 28
        E 64 b0 0b 20
        E 64 b0 0b 18
        E 64 b0 0b 30
        E 16 b0 0b 28
        E 64 b0 0b 20
        E 64 b0 0b 18
        E 80 b0 0b 10
        E 16 b0 0b 30
        E 48 b0 0b 28
        E 64 b0 0b 20
        E 80 b0 0b 18
        E 64 b0 0b 10
        E 64 b0 0b 08
        E 32 b0 0c 40
        E 0 b0 0b 28
        E 0 80 37 00
        E 0 90 1c 28
        E 48 b0 0b 30
        E 16 80 1c 00
        E 64 b0 0b 28
        E 0 90 28 28
        E 48 b0 0b 20
        E 16 b0 0b 10
        E 0 80 28 00
        E 0 90 1c 10
        E 48 b0 0b 28
        E 16 b0 0b 20
        E 48 b0 0b 10
        E 0 80 1c 00
        E 0 90 28 10
        E 16 b0 0b 08
        E 48 b0 0b 28
        E 0 80 28 00
        E 0 90 26 28
        E 32 b0 0b 20
        E 16 b0 0b 10
        E 0 80 26 00
        E 0 90 1c 10
        E 48 b0 0b 08
        E 16 b0 0b 28
        E 48 b0 0b 20
        E 16 b0 0b 10
        E 0 80 1c 00
        E 0 90 26 10
        E 48 b0 0b 28
        E 0 80 26 00
        E 0 90 23 28
        E 16 b0 0b 20
        E 48 b0 0b 10
        E 0 80 23 00
        E 0 90 1c 10
        E 16 b0 0b 08
        E 48 b0 0b 28
        E 0 80 1c 00
        E 0 90 21 28
        E 16 b0 0b 20
        E 48 b0 0b 10
        E 0 80 21 00
        E 0 90 23 10
        E 32 b0 0b 08
        E 16 b0 0b 28
        E 0 80 23 00
        E 0 90 1f 28
        E 48 b0 0b 20
        E 16 b0 0b 10
        E 0 80 1f 00
        E 0 90 21 10
        E 48 b0 0b 08
        E 16 b0 0c 10
        E 0 b0 0b 30
        E 0 80 21 00
        E 0 90 34 30
        E 64 b0 0b 28
        E 48 b0 0b 30
        E 48 b0 0b 28
        E 64 b0 0b 20
        E 80 b0 0b 18
        E 48 b0 0b 30
        E 16 b0 0b 28
        E 64 b0 0b 20
        E 80 b0 0b 18
        E 64 b0 0b 10
        E 16 b0 0b 30
        E 48 b0 0b 28
        E 80 b0 0b 20
        E 64 b0 0b 18
        E 64 b0 0b 10
        E 80 b0 0b 08
        E 16 b0 0c 40
        E 0 b0 0b 28
        E 0 80 34 00
        E 0 90 1c 28
        E 48 b0 0b 30
        E 16 80 1c 00
        E 64 b0 0b 28
        E 0 90 28 28
        E 48 b0 0b 10
        E 0 80 28 00
        E 0 90 1c 10
        E 16 b0 0b 08
        E 48 b0 0b 28
        E 16 b0 0b 20
        E 48 b0 0b 10
        E 0 80 1c 00
        E 0 90 28 10
        E 16 b0 0b 08
        E 32 b0 0b 28
        E 0 80 28 00
        E 0 90 26 28
        E 48 b0 0b 20
        E 16 b0 0b 10
        E 0 80 26 00
        E 0 90 1c 10
        E 48 b0 0b 08
        E 16 b0 0b 28
        E 48 b0 0b 10
        E 0 80 1c 00
        E 0 90 26 10
        E 16 b0 0b 08
        E 48 b0 0b 28
        E 0 80 26 00
        E 0 90 23 28
        E 16 b0 0b 20
        E 48 b0 0b 10
        E 0 80 23 00
        E 0 90 1c 10
        E 16 b0 0b 08
        E 48 b0 0b 28
        E 0 80 1c 00
        E 0 90 21 28
        E 32 b0 0b 20
        E 16 b0 0b 10
        E 0 80 21 00
        E 0 90 23 10
        E 48 b0 0b 08
        E 16 b0 0b 28
        E 0 80 23 00
        E 0 90 1f 28
        E 48 b0 0b 20
        E 16 b0 0b 10
        E 0 80 1f 00
        E 0 90 21 10
        E 48 b0 0c 10
        E 0 b0 0b 30
        E 0 80 21 00
        E 0 90 32 30
        E 16 b0 0b 28
        E 64 b0 0b 20
        E 48 b0 0b 30
        E 48 b0 0b 28
        E 80 b0 0b 20
        E 64 b0 0b 18
        E 48 b0 0b 30
        E 16 b0 0b 28
        E 80 b0 0b 20
        E 64 b0 0b 18
        E 64 b0 0b 10
        E 16 b0 0b 30
        E 64 b0 0b 28
        E 64 b0 0b 20
        E 64 b0 0b 18
        E 80 b0 0b 10
        E 64 b0 0b 08
        E 16 b0 0c 40
        E 0 b0 0b 28
        E 0 80 32 00
        E 0 90 1c 28
        E 48 b0 0b 30
        E 16 80 1c 00
        E 48 b0 0b 28
        E 0 90 28 28
        E 48 b0 0b 20
        E 16 b0 0b 10
        E 0 80 28 00
        E 0 90 1c 10
        E 48 b0 0b 08
        E 16 b0 0b 28
        E 48 b0 0b 10
        E 0 80 1c 00
        E 0 90 28 10
        E 16 b0 0b 08
        E 48 b0 0b 28
        E 0 80 28 00
        E 0 90 26 28
        E 16 b0 0b 20
        E 48 b0 0b 10
        E 0 80 26 00
        E 0 90 1c 10
        E 16 b0 0b 08
        E 48 b0 0b 28
        E 32 b0 0b 20
        E 16 b0 0b 10
        E 0 80 1c 00
        E 0 90 26 10
        E 48 b0 0b 08
        E 16 b0 0b 28
        E 0 80 26 00
        E 0 90 23 28
        E 48 b0 0b 20
        E 16 b0 0b 10
        E 0 80 23 00
        E 0 90 1c 10
        E 48 b0 0b 28
        E 0 80 1c 00
        E 0 90 21 28
        E 16 b0 0b 20
        E 48 b0 0b 10
        E 0 80 21 00
        E 0 90 23 10
        E 16 b0 0b 08
        E 48 b0 0b 28
        E 0 80 23 00
        E 0 90 1f 28
        E 16 b0 0b 20
        E 32 b0 0b 10
        E 0 80 1f 00
        E 0 90 21 10
        E 48 b0 0b 08
        E 16 b0 0c 10
        E 0 b0 0b 30
        E 0 80 21 00
        E 0 90 34 30
        E 48 b0 0b 28
        E 64 b0 0b 20
        E 16 b0 0b 30
        E 64 b0 0b 28
        E 64 b0 0b 20
        E 64 b0 0b 18
        E 32 b0 0b 30
        E 48 b0 0b 28
        E 64 b0 0b 20
        E 64 b0 0b 18
        E 64 b0 0b 30
        E 16 b0 0b 28
        E 64 b0 0b 20
        E 64 b0 0b 18
        E 80 b0 0b 10
        E 64 b0 0b 08
        E 64 80 34 00
        E 16 b0 0c 40
        E 0 b0 0b 28
        E 0 90 1c 28
        E 48 80 1c 00
        E 64 90 28 28
        E 16 b0 0b 20
        E 48 b0 0b 10
        E 0 80 28 00
        E 0 90 1c 10
        E 16 b0 0b 08
        E 32 b0 0b 28
        E 48 b0 0b 20
        E 16 b0 0b 10
        E 0 80 1c 00
        E 0 90 28 10
        E 48 b0 0b 08
        E 16 b0 0b 28
        E 0 80 28 00
        E 0 90 26 28
        E 48 b0 0b 20
        E 16 b0 0b 10
        E 0 80 26 00
        E 0 90 1c 10
        E 48 b0 0b 28
        E 16 b0 0b 20
        E 48 b0 0b 10
        E 0 80 1c 00
        E 0 90 26 10
        E 16 b0 0b 08
        E 48 b0 0b 28
        E 0 80 26 00
        E 0 90 23 28
        E 16 b0 0b 20
        E 32 b0 0b 10
        E 0 80 23 00
        E 0 90 1c 10
        E 48 b0 0b 08
        E 16 b0 0b 28
        E 0 80 1c 00
        E 0 90 21 28
        E 48 b0 0b 20
        E 16 b0 0b 10
        E 0 80 21 00
        E 0 90 23 10
        E 48 b0 0b 28
        E 0 80 23 00
        E 0 90 1f 28
        E 16 b0 0b 20
        E 48 b0 0b 10
        E 0 80 1f 00
        E 0 90 21 10
        E 16 b0 0b 08
        E 48 b0 0c 10
        E 0 b0 0b 30
        E 0 80 21 00
        E 0 90 37 30
        E 16 b0 0b 28
        E 80 b0 0b 20
        E 16 b0 0b 30
        E 48 b0 0b 28
        E 64 b0 0b 20
        E 80 b0 0b 18
        E 48 b0 0b 30
        E 16 b0 0b 28
        E 64 b0 0b 20
        E 80 b0 0b 18
        E 64 b0 0b 10
        E 16 b0 0b 30
        E 48 b0 0b 28
        E 80 b0 0b 20
        E 64 b0 0b 18
        E 64 b0 0b 10
        E 80 b0 0b 08
        E 16 b0 0c 40
        E 0 b0 0b 28
        E 0 80 37 00
        E 0 90 1c 28
        E 48 b0 0b 30
        E 16 80 1c 00
        E 64 b0 0b 28
        E 0 90 28 28
        E 48 b0 0b 10
        E 0 80 28 00
        E 0 90 1c 10
        E 16 b0 0b 08
        E 48 b0 0b 28
        E 16 b0 0b 20
        E 48 b0 0b 10
        E 0 80 1c 00
        E 0 90 28 10
        E 16 b0 0b 08
        E 48 b0 0b 28
        E 0 80 28 00
        E 0 90 26 28
        E 32 b0 0b 20
        E 16 b0 0b 10
        E 0 80 26 00
        E 0 90 1c 10
        E 48 b0 0b 08
        E 16 b0 0b 28
        E 48 b0 0b 20
        E 16 b0 0b 10
        E 0 80 1c 00
        E 0 90 26 10
        E 48 b0 0b 28
        E 0 80 26 00
        E 0 90 23 28
        E 16 b0 0b 20
        E 48 b0 0b 10
        E 0 80 23 00
        E 0 90 1c 10
        E 16 b0 0b 08
        E 48 b0 0b 28
        E 0 80 1c 00
        E 0 90 21 28
        E 16 b0 0b 20
        E 48 b0 0b 10
        E 0 80 21 00
        E 0 90 23 10
        E 32 b0 0b 08
        E 16 b0 0b 28
        E 0 80 23 00
        E 0 90 1f 28
        E 48 b0 0b 20
        E 16 b0 0b 10
        E 0 80 1f 00
        E 0 90 21 10
        E 48 b0 0b 08
        E 16 b0 0c 10
        E 0 b0 0b 30
        E 0 80 21 00
        E 0 90 32 30
        E 64 b0 0b 28
        E 48 b0 0b 30
        E 48 b0 0b 28
        E 80 b0 0b 20
        E 64 b0 0b 18
        E 48 b0 0b 30
        E 16 b0 0b 28
        E 80 b0 0b 20
        E 64 b0 0b 18
        E 64 b0 0b 10
        E 16 b0 0b 30
        E 64 b0 0b 28
        E 64 b0 0b 20
        E 64 b0 0b 18
        E 80 b0 0b 10
        E 64 b0 0b 08
        E 16 b0 0c 40
        E 0 b0 0b 28
        E 0 80 32 00
        E 0 90 1c 28
        E 48 b0 0b 30
        E 16 80 1c 00
        E 48 b0 0b 28
        E 0 90 28 28
        E 48 b0 0b 20
        E 16 b0 0b 10
        E 0 80 28 00
        E 0 90 1c 10
        E 48 b0 0b 08
        E 16 b0 0b 28
        E 48 b0 0b 20
        E 16 b0 0b 10
        E 0 80 1c 00
        E 0 90 28 10
        E 48 b0 0b 28
        E 0 80 28 00
        E 0 90 26 28
        E 16 b0 0b 20
        E 48 b0 0b 10
        E 0 80 26 00
        E 0 90 1c 10
        E 16 b0 0b 08
        E 48 b0 0b 28
        E 16 b0 0b 20
        E 32 b0 0b 10
        E 0 80 1c 00
        E 0 90 26 10
        E 48 b0 0b 08
        E 16 b0 0b 28
        E 0 80 26 00
        E 0 90 23 28
        E 48 b0 0b 20
        E 16 b0 0b 10
        E 0 80 23 00
        E 0 90 1c 10
        E 48 b0 0b 08
        E 16 b0 0b 28
        E 0 80 1c 00
        E 0 90 21 28
        E 48 b0 0b 10
        E 0 80 21 00
        E 0 90 23 10
        E 16 b0 0b 08
        E 48 b0 0b 28
        E 0 80 23 00
        E 0 90 1f 28
        E 16 b0 0b 20
        E 48 b0 0b 10
        E 0 80 1f 00
        E 0 90 21 10
        E 16 b0 0b 08
        E 32 b0 0c 10
        E 0 b0 0b 30
        E 0 80 21 00
        E 0 90 34 30
        E 48 b0 0b 28
        E 64 b0 0b 20
        E 16 b0 0b 30
        E 64 b0 0b 28
        E 64 b0 0b 20
        E 64 b0 0b 18
        E 48 b0 0b 30
        E 32 b0 0b 28
        E 64 b0 0b 20
        E 64 b0 0b 18
        E 64 b0 0b 30
        E 16 b0 0b 28
        E 64 b0 0b 20
        E 64 b0 0b 18
        E 80 b0 0b 10
        E 64 b0 0b 08
        E 64 80 34 00
        E 16 b0 0c 40
        E 0 b0 0b 28
        E 0 90 1c 28
        E 48 80 1c 00
        E 64 90 28 28
        E 16 b0 0b 20
        E 48 b0 0b 10
        E 0 80 28 00
        E 0 90 1c 10
        E 16 b0 0b 08
        E 48 b0 0b 28
        E 32 b0 0b 20
        E 16 b0 0b 10
        E 0 80 1c 00
        E 0 90 28 10
        E 48 b0 0b 08
        E 16 b0 0b 28
        E 0 80 28 00
        E 0 90 26 28
        E 48 b0 0b 20
        E 16 b0 0b 10
        E 0 80 26 00
        E 0 90 1c 10
        E 48 b0 0b 28
        E 16 b0 0b 20
        E 48 b0 0b 10
        E 0 80 1c 00
        E 0 90 26 10
        E 16 b0 0b 08
        E 48 b0 0b 28
        E 0 80 26 00
        E 0 90 23 28
        E 16 b0 0b 20
        E 48 b0 0b 10
        E 0 80 23 00
        E 0 90 1c 10
        E 32 b0 0b 08
        E 16 b0 0b 28
        E 0 80 1c 00
        E 0 90 21 28
        E 48 b0 0b 20
        E 16 b0 0b 10
        E 0 80 21 00
        E 0 90 23 10
        E 48 b0 0b 08
        E 16 b0 0b 28
        E 0 80 23 00
        E 0 90 1f 28
        E 48 b0 0b 10
        E 0 80 1f 00
        E 0 90 21 10
        E 16 b0 0b 08
        E 48 b0 0c 10
        E 0 b0 0b 30
        E 0 80 21 00
        E 0 90 34 30
        E 16 b0 0b 28
        E 64 b0 0b 20
        E 48 b0 0b 30
        E 64 b0 0b 28
        E 64 b0 0b 20
        E 80 b0 0b 18
        E 16 b0 0b 30
        E 48 b0 0b 28
        E 64 b0 0b 20
        E 80 b0 0b 18
        E 64 b0 0b 10
        E 64 b0 0b 08
        E 80 80 34 00
        E 192 b0 0b 30
        E 0 90 36 30
        E 48 b0 0b 28
        E 64 b0 0b 20
        E 16 b0 0b 30
        E 48 b0 0b 28
        E 80 b0 0b 20
        E 64 b0 0b 18
        E 48 b0 0b 30
        E 16 b0 0b 28
        E 80 b0 0b 20
        E 64 b0 0b 18
        E 64 b0 0b 10
        E 80 b0 0b 08
        E 64 80 36 00
        E 224 b0 0b 30
        E 0 90 32 30
        E 48 b0 0b 28
        E 64 b0 0b 30
        E 16 b0 0b 28
        E 64 b0 0b 20
        E 64 b0 0b 18
        E 80 b0 0b 10
        E 16 b0 0b 30
        E 48 b0 0b 28
        E 80 b0 0b 20
        E 64 b0 0b 18
        E 64 b0 0b 10
        E 80 b0 0b 08
        E 64 80 32 00
        E 80 b0 0c 20
        E 0 b0 0b 30
        E 0 90 2b 30
        E 16 b0 0b 28
        E 48 b0 0b 20
        E 32 b0 0b 18
        E 32 b0 0b 10
        E 32 b0 0b 08
        E 32 80 2b 00
        E 48 b0 0b 30
        E 0 90 2a 30
        E 32 b0 0b 28
        E 32 b0 0b 20
        E 32 b0 0b 18
        E 16 b0 0b 30
        E 0 80 2a 00
        E 0 90 28 30
        E 16 b0 0b 28
        E 32 b0 0b 20
        E 32 b0 0b 18
        E 32 b0 0b 30
        E 0 80 28 00
        E 0 90 26 30
        E 16 b0 0b 28
        E 32 b0 0b 20
        E 32 b0 0b 18
        E 32 b0 0b 10
        E 16 b0 0b 30
        E 0 80 26 00
        E 0 90 28 30
        E 16 b0 0b 28
        E 32 b0 0b 20
        E 48 b0 0b 18
        E 16 b0 0b 30
        E 0 80 28 00
        E 0 90 26 30
        E 16 b0 0b 28
        E 32 b0 0b 20
        E 32 b0 0b 18
        E 32 b0 0b 10
        E 32 b0 0b 08
        E 48 80 26 00
        E 48 b0 0b 30
        E 0 90 26 30
        E 16 b0 0b 28
        E 32 b0 0b 20
        E 32 b0 0b 18
        E 32 b0 0b 10
        E 16 b0 0c 10
        E 0 b0 0b 30
        E 0 80 26 00
        E 0 90 34 30
        E 32 b0 0b 28
        E 32 b0 0b 20
        E 32 b0 0b 18
        E 16 b0 0b 30
        E 48 b0 0b 28
        E 80 b0 0b 20
        E 64 b0 0b 18
        E 48 b0 0b 30
        E 16 b0 0b 28
        E 80 b0 0b 20
        E 64 b0 0b 18
        E 64 b0 0b 10
        E 80 b0 0b 08
        E 64 80 34 00
        E 224 b0 0b 30
        E 0 90 36 30
        E 48 b0 0b 28
        E 64 b0 0b 30
        E 16 b0 0b 28
        E 64 b0 0b 20
        E 64 b0 0b 18
        E 80 b0 0b 10
        E 16 b0 0b 30
        E 48 b0 0b 28
        E 64 b0 0b 20
        E 80 b0 0b 18
        E 64 b0 0b 10
        E 64 b0 0b 08
        E 80 80 36 00
        E 192 b0 0b 30
        E 0 90 32 30
        E 48 b0 0b 28
        E 64 b0 0b 20
        E 16 b0 0b 30
        E 64 b0 0b 28
        E 64 b0 0b 20
        E 64 b0 0b 18
        E 48 b0 0b 30
        E 32 b0 0b 28
        E 64 b0 0b 20
        E 64 b0 0b 18
        E 80 b0 0b 10
        E 64 b0 0b 08
        E 64 80 32 00
        E 96 b0 0c 20
        E 0 b0 0b 30
        E 0 90 2b 30
        E 16 b0 0b 28
        E 32 b0 0b 20
        E 32 b0 0b 18
        E 32 b0 0b 10
        E 48 b0 0b 08
        E 32 80 2b 00
        E 48 b0 0b 30
        E 0 90 2a 30
        E 16 b0 0b 28
        E 32 b0 0b 20
        E 32 b0 0b 18
        E 32 b0 0b 30
        E 0 80 2a 00
        E 0 90 28 30
        E 16 b0 0b 28
        E 32 b0 0b 20
        E 32 b0 0b 18
        E 32 b0 0b 10
        E 16 b0 0b 30
        E 0 80 28 00
        E 0 90 26 30
        E 16 b0 0b 28
        E 32 b0 0b 20
        E 48 b0 0b 18
        E 16 b0 0b 30
        E 0 80 26 00
        E 0 90 28 30
        E 16 b0 0b 28
        E 32 b0 0b 20
        E 32 b0 0b 18
        E 32 b0 0b 10
        E 16 b0 0b 30
        E 0 80 28 00
        E 0 90 26 30
        E 16 b0 0b 28
        E 48 b0 0b 20
        E 32 b0 0b 18
        E 32 b0 0b 10
        E 32 b0 0b 08
        E 32 80 26 00
        E 48 b0 0b 30
        E 0 90 26 30
        E 32 b0 0b 28
        E 32 b0 0b 20
        E 32 b0 0b 18
        E 16 b0 0c 40
        E 0 b0 0b 28
        E 0 80 26 00
        E 0 90 29 28
        E 16 b0 0b 20
        E 32 b0 0b 18
        E 16 80 29 00
        E 48 b0 0b 28
        E 0 90 2d 28
        E 16 b0 0b 20
        E 32 b0 0b 18
        E 16 b0 0b 10
        E 0 80 2d 00
        E 0 90 29 10
        E 16 b0 0b 08
        E 32 80 29 00
        E 16 b0 0b 28
        E 0 90 30 28
        E 16 b0 0b 20
        E 32 b0 0b 18
        E 16 b0 0b 10
        E 0 80 30 00
        E 0 90 2d 10
        E 32 b0 0b 08
        E 16 b0 0b 28
        E 0 80 2d 00
        E 0 90 34 28
        E 16 b0 0b 20
        E 32 b0 0b 18
        E 16 b0 0b 10
        E 0 80 34 00
        E 0 90 30 10
        E 16 b0 0b 08
        E 32 80 30 00
        E 16 b0 0b 28
        E 0 90 35 28
        E 16 b0 0b 20
        E 32 b0 0b 10
        E 0 80 35 00
        E 0 90 34 10
        E 16 b0 0b 08
        E 32 80 34 00
        E 16 b0 0b 28
        E 0 90 39 28
        E 16 b0 0b 20
        E 32 b0 0b 18
        E 16 b0 0b 10
        E 0 80 39 00
        E 0 90 35 10
        E 16 b0 0b 08
        E 32 80 35 00
        E 16 b0 0b 28
        E 0 90 3c 28
        E 32 b0 0b 20
        E 16 b0 0b 10
        E 0 80 3c 00
        E 0 90 39 10
        E 16 b0 0b 08
        E 32 80 39 00
        E 16 b0 0b 28
        E 0 90 34 28
        E 16 b0 0b 20
        E 32 b0 0b 18
        E 16 b0 0b 10
        E 0 80 34 00
        E 0 90 3c 10
        E 32 b0 0b 08
        E 16 b0 0b 28
        E 0 80 3c 00
        E 0 90 40 28
        E 16 b0 0b 20
        E 32 b0 0b 18
        E 16 b0 0b 10
        E 0 80 40 00
        E 0 90 34 10
        E 16 b0 0b 08
        E 32 80 34 00
        E 16 b0 0b 28
        E 0 90 3c 28
        E 16 b0 0b 20
        E 32 b0 0b 10
        E 0 80 3c 00
        E 0 90 40 10
        E 16 b0 0b 08
        E 32 80 40 00
        E 16 b0 0b 28
        E 0 90 39 28
        E 16 b0 0b 20
        E 32 b0 0b 18
        E 16 b0 0b 10
        E 0 80 39 00
        E 0 90 3c 10
        E 16 b0 0b 08
        E 32 80 3c 00
        E 16 b0 0b 28
        E 0 90 35 28
        E 32 b0 0b 20
        E 16 b0 0b 10
        E 0 80 35 00
        E 0 90 39 10
        E 16 b0 0b 08
        E 32 80 39 00
        E 16 b0 0b 28
        E 0 90 34 28
        E 16 b0 0b 20
        E 32 b0 0b 18
        E 16 b0 0b 10
        E 0 80 34 00
        E 0 90 35 10
        E 16 b0 0b 08
        E 32 b0 0b 28
        E 16 b0 0b 20
        E 32 b0 0b 18
        E 16 b0 0b 10
        E 0 80 35 00
        E 0 90 34 10
        E 16 b0 0b 08
        E 32 80 34 00
        E 16 b0 0b 28
        E 0 90 30 28
        E 16 b0 0b 20
        E 32 b0 0b 18
        E 16 b0 0b 10
        E 0 80 30 00
        E 0 90 35 10
        E 32 b0 0b 08
        E 16 b0 0b 28
        E 0 80 35 00
        E 0 90 2d 28
        E 16 b0 0b 20
        E 32 b0 0b 18
        E 16 b0 0b 10
        E 0 80 2d 00
        E 0 90 30 10
        E 64 b0 0b 28
        E 0 80 30 00
        E 0 90 29 28
        E 16 b0 0b 20
        E 32 80 29 00
        E 64 b0 0b 28
        E 0 90 2d 28
        E 16 b0 0b 20
        E 32 b0 0b 18
        E 16 b0 0b 10
        E 0 80 2d 00
        E 0 90 29 10
        E 16 b0 0b 08
        E 32 80 29 00
        E 16 b0 0b 28
        E 0 90 30 28
        E 32 b0 0b 20
        E 16 b0 0b 10
        E 0 80 30 00
        E 0 90 2d 10
        E 16 b0 0b 08
        E 32 80 2d 00
        E 16 b0 0b 28
        E 0 90 34 28
        E 16 b0 0b 20
        E 32 b0 0b 18
        E 16 b0 0b 10
        E 0 80 34 00
        E 0 90 30 10
        E 16 b0 0b 08
        E 32 b0 0b 28
        E 0 80 30 00
        E 0 90 35 28
        E 16 b0 0b 20
        E 32 b0 0b 18
        E 16 b0 0b 10
        E 0 80 35 00
        E 0 90 34 10
        E 16 b0 0b 08
        E 32 80 34 00
        E 16 b0 0b 28
        E 0 90 39 28
        E 16 b0 0b 20
        E 32 b0 0b 18
        E 16 b0 0b 10
        E 0 80 39 00
        E 0 90 35 10
        E 32 b0 0b 08
        E 16 b0 0b 28
        E 0 80 35 00
        E 0 90 3c 28
        E 16 b0 0b 20
        E 32 b0 0b 18
        E 16 b0 0b 10
        E 0 80 3c 00
        E 0 90 39 10
        E 16 b0 0b 08
        E 32 80 39 00
        E 16 b0 0b 28
        E 0 90 34 28
        E 16 b0 0b 20
        E 32 b0 0b 10
        E 0 80 34 00
        E 0 90 3c 10
        E 16 b0 0b 08
        E 32 80 3c 00
        E 16 b0 0b 28
        E 0 90 40 28
        E 16 b0 0b 20
        E 32 b0 0b 18
        E 16 b0 0b 10
        E 0 80 40 00
        E 0 90 34 10
        E 16 b0 0b 08
        E 32 b0 0b 28
        E 0 80 34 00
        E 0 90 3c 28
        E 16 b0 0b 20
        E 32 b0 0b 18
        E 16 b0 0b 10
        E 0 80 3c 00
        E 0 90 40 10
        E 16 b0 0b 08
        E 32 80 40 00
        E 16 b0 0b 28
        E 0 90 39 28
        E 16 b0 0b 20
        E 32 b0 0b 18
        E 16 b0 0b 10
        E 0 80 39 00
        E 0 90 3c 10
        E 32 b0 0b 08
        E 16 b0 0b 28
        E 0 80 3c 00
        E 0 90 35 28
        E 16 b0 0b 20
        E 32 b0 0b 18
        E 16 b0 0b 10
        E 0 80 35 00
        E 0 90 39 10
        E 16 b0 0b 08
        E 32 80 39 00
        E 16 b0 0b 28
        E 0 90 34 28
        E 16 b0 0b 20
        E 32 b0 0b 10
        E 0 80 34 00
        E 0 90 35 10
        E 16 b0 0b 08
        E 32 80 35 00
        E 16 b0 0b 28
        E 0 90 35 28
        E 16 b0 0b 20
        E 32 b0 0b 18
        E 16 b0 0b 10
        E 0 80 35 00
        E 0 90 34 10
        E 16 b0 0b 08
        E 32 80 34 00
        E 16 b0 0b 28
        E 0 90 30 28
        E 32 b0 0b 20
        E 16 b0 0b 10
        E 0 80 30 00
        E 0 90 35 10
        E 16 b0 0b 08
        E 32 80 35 00
        E 16 b0 0b 28
        E 0 90 2d 28
        E 16 b0 0b 20
        E 32 b0 0b 18
        E 16 b0 0b 10
        E 0 80 2d 00
        E 0 90 30 10
        E 48 b0 0c 20
        E 0 b0 0b 30
        E 0 80 30 00
        E 0 90 1c 30
        E 48 b0 0b 28
        E 64 b0 0b 20
        E 16 b0 0b 30
        E 0 80 1c 00
        E 0 90 1a 30
        E 48 b0 0b 28
        E 64 b0 0b 30
        E 0 80 1a 00
        E 0 90 1c 30
        E 16 b0 0b 28
        E 64 b0 0b 20
        E 48 b0 0b 30
        E 0 80 1c 00
        E 0 90 1a 30
        E 16 b0 0b 28
        E 80 b0 0b 20
        E 16 b0 0b 30
        E 0 80 1a 00
        E 0 90 1f 30
        E 48 b0 0b 28
        E 64 b0 0b 20
        E 80 b0 0b 18
        E 64 b0 0b 10
        E 64 b0 0b 08
        E 32 b0 0b 30
        E 0 80 1f 00
        E 0 90 28 30
        E 48 b0 0b 28
        E 64 b0 0b 20
        E 64 b0 0b 18
        E 64 b0 0b 30
        E 0 80 28 00
        E 0 90 26 30
        E 16 b0 0b 28
        E 64 b0 0b 20
        E 48 b0 0b 30
        E 0 80 26 00
        E 0 90 23 30
        E 32 b0 0b 28
        E 64 b0 0b 20
        E 16 b0 0b 30
        E 0 80 23 00
        E 0 90 21 30
        E 48 b0 0b 28
        E 64 b0 0b 30
        E 0 80 21 00
        E 0 90 1f 30
        E 16 b0 0b 28
        E 64 b0 0b 20
        E 48 b0 0b 30
        E 0 80 1f 00
        E 0 90 1a 30
        E 16 b0 0b 28
        E 80 b0 0b 20
        E 64 b0 0b 18
        E 64 b0 0b 10
        E 80 b0 0b 08
        E 48 b0 0b 30
        E 0 80 1a 00
        E 0 90 1c 30
        E 16 b0 0b 28
        E 64 b0 0b 20
        E 48 b0 0b 30
        E 0 80 1c 00
        E 0 90 1a 30
        E 32 b0 0b 28
        E 64 b0 0b 20
        E 16 b0 0b 30
        E 0 80 1a 00
        E 0 90 1c 30
        E 48 b0 0b 28
        E 64 b0 0b 30
        E 0 80 1c 00
        E 0 90 1a 30
        E 16 b0 0b 28
        E 64 b0 0b 20
        E 48 b0 0b 30
        E 0 80 1a 00
        E 0 90 1f 30
        E 16 b0 0b 28
        E 80 b0 0b 20
        E 64 b0 0b 18
        E 64 b0 0b 10
        E 80 b0 0b 08
        E 48 b0 0b 30
        E 0 80 1f 00
        E 0 90 28 30
        E 16 b0 0b 28
        E 64 b0 0b 20
        E 80 b0 0b 18
        E 64 b0 0b 10
        E 16 b0 0b 30
        E 0 80 28 00
        E 0 90 26 30
        E 48 b0 0b 28
        E 64 b0 0b 30
        E 0 80 26 00
        E 0 90 23 30
        E 16 b0 0b 28
        E 64 b0 0b 20
        E 48 b0 0b 30
        E 0 80 23 00
        E 0 90 21 30
        E 16 b0 0b 28
        E 80 b0 0b 20
        E 16 b0 0b 30
        E 0 80 21 00
        E 0 90 1f 30
        E 48 b0 0b 28
        E 64 b0 0b 20
        E 16 b0 0b 30
        E 0 80 1f 00
        E 0 90 1a 30
        E 64 b0 0b 28
        E 64 b0 0b 20
        E 64 b0 0b 18
        E 80 b0 0b 10
        E 64 b0 0b 08
        E 16 b0 0b 30
        E 0 80 1a 00
        E 0 90 1c 30
        E 48 b0 0b 28
        E 64 b0 0b 30
        E 0 80 1c 00
        E 0 90 1a 30
        E 16 b0 0b 28
        E 64 b0 0b 20
        E 48 b0 0b 30
        E 0 80 1a 00
        E 0 90 1c 30
        E 16 b0 0b 28
        E 80 b0 0b 20
        E 16 b0 0b 30
        E 0 80 1c 00
        E 0 90 1a 30
        E 48 b0 0b 28
        E 64 b0 0b 20
        E 16 b0 0b 30
        E 0 80 1a 00
        E 0 90 1f 30
        E 64 b0 0b 28
        E 64 b0 0b 20
        E 64 b0 0b 18
        E 80 b0 0b 10
        E 64 b0 0b 08
        E 16 b0 0b 30
        E 0 80 1f 00
        E 0 90 28 30
        E 48 b0 0b 28
        E 80 b0 0b 20
        E 64 b0 0b 18
        E 48 b0 0b 30
        E 0 80 28 00
        E 0 90 26 30
        E 16 b0 0b 28
        E 80 b0 0b 20
        E 16 b0 0b 30
        E 0 80 26 00
        E 0 90 23 30
        E 48 b0 0b 28
        E 64 b0 0b 20
        E 16 b0 0b 30
        E 0 80 23 00
        E 0 90 21 30
        E 64 b0 0b 28
        E 48 b0 0b 30
        E 0 80 21 00
        E 0 90 1f 30
        E 16 b0 0b 28
        E 80 b0 0b 20
        E 16 b0 0b 30
        E 0 80 1f 00
        E 0 90 1a 30
        E 48 b0 0b 28
        E 64 b0 0b 20
        E 80 b0 0b 18
        E 64 b0 0b 10
        E 64 b0 0b 08
        E 48 b0 0b 30
        E 0 80 1a 00
        E 0 90 1c 30
        E 32 b0 0b 28
        E 64 b0 0b 20
        E 16 b0 0b 30
        E 0 80 1c 00
        E 0 90 1a 30
        E 48 b0 0b 28
        E 64 b0 0b 30
        E 0 80 1a 00
        E 0 90 1c 30
        E 16 b0 0b 28
        E 64 b0 0b 20
        E 48 b0 0b 30
        E 0 80 1c 00
        E 0 90 1a 30
        E 16 b0 0b 28
        E 80 b0 0b 20
        E 16 b0 0b 30
        E 0 80 1a 00
        E 0 90 1f 30
        E 48 b0 0b 28
        E 64 b0 0b 20
        E 80 b0 0b 18
        E 64 b0 0b 10
        E 64 b0 0b 08
        E 48 b0 0b 30
        E 0 80 1f 00
        E 0 90 28 30
        E 32 b0 0b 28
        E 64 b0 0b 20
        E 64 b0 0b 18
        E 64 b0 0b 30
        E 0 80 28 00
        E 0 90 26 30
        E 16 b0 0b 28
        E 64 b0 0b 20
        E 48 b0 0b 30
        E 0 80 26 00
        E 0 90 23 30
        E 16 b0 0b 28
        E 80 b0 0b 20
        E 16 b0 0b 30
        E 0 80 23 00
        E 0 90 21 30
        E 48 b0 0b 28
        E 64 b0 0b 20
        E 16 b0 0b 30
        E 0 80 21 00
        E 0 90 1f 30
        E 64 b0 0b 28
        E 48 b0 0b 30
        E 0 80 1f 00
        E 0 90 1a 30
        E 16 b0 0b 28
        E 64 b0 0b 20
        E 80 b0 0b 18
        E 64 b0 0b 10
        E 64 b0 0b 08
        E 64 b0 0c 10
        E 0 b0 0b 30
        E 0 80 1a 00
        E 0 90 34 30
        E 16 b0 0b 28
        E 64 b0 0b 20
        E 48 b0 0b 30
        E 64 b0 0b 28
        E 64 b0 0b 20
        E 64 b0 0b 18
        E 48 b0 0b 30
        E 32 b0 0b 28
        E 64 b0 0b 20
        E 64 b0 0b 18
        E 64 b0 0b 30
        E 16 b0 0b 28
        E 64 b0 0b 20
        E 64 b0 0b 18
        E 80 b0 0b 10
        E 64 b0 0b 08
        E 64 80 34 00
        E 16 b0 0c 40
        E 0 b0 0b 28
        E 0 90 1c 28
        E 48 80 1c 00
        E 64 90 28 28
        E 16 b0 0b 20
        E 48 b0 0b 10
        E 0 80 28 00
        E 0 90 1c 10
        E 16 b0 0b 08
        E 48 b0 0b 28
        E 32 b0 0b 20
        E 16 b0 0b 10
        E 0 80 1c 00
        E 0 90 28 10
        E 48 b0 0b 08
        E 16 b0 0b 28
        E 0 80 28 00
        E 0 90 26 28
        E 48 b0 0b 20
        E 16 b0 0b 10
        E 0 80 26 00
        E 0 90 1c 10
        E 48 b0 0b 28
        E 16 b0 0b 20
        E 48 b0 0b 10
        E 0 80 1c 00
        E 0 90 26 10
        E 16 b0 0b 08
        E 48 b0 0b 28
        E 0 80 26 00
        E 0 90 23 28
        E 16 b0 0b 20
        E 48 b0 0b 10
        E 0 80 23 00
        E 0 90 1c 10
        E 32 b0 0b 08
        E 16 b0 0b 28
        E 0 80 1c 00
        E 0 90 21 28
        E 48 b0 0b 20
        E 16 b0 0b 10
        E 0 80 21 00
        E 0 90 23 10
        E 48 b0 0b 08
        E 16 b0 0b 28
        E 0 80 23 00
        E 0 90 1f 28
        E 48 b0 0b 10
        E 0 80 1f 00
        E 0 90 21 10
        E 16 b0 0b 08
        E 48 b0 0c 10
        E 0 b0 0b 30
        E 0 80 21 00
        E 0 90 37 30
        E 16 b0 0b 28
        E 64 b0 0b 20
        E 32 b0 0b 30
        E 48 b0 0b 28
        E 64 b0 0b 20
        E 64 b0 0b 18
        E 64 b0 0b 30
        E 16 b0 0b 28
        E 64 b0 0b 20
        E 64 b0 0b 18
        E 80 b0 0b 10
        E 16 b0 0b 30
        E 48 b0 0b 28
        E 64 b0 0b 20
        E 80 b0 0b 18
        E 64 b0 0b 10
        E 64 b0 0b 08
        E 32 b0 0c 40
        E 0 b0 0b 28
        E 0 80 37 00
        E 0 90 1c 28
        E 48 b0 0b 30
        E 16 80 1c 00
        E 64 b0 0b 28
        E 0 90 28 28
        E 48 b0 0b 20
        E 16 b0 0b 10
        E 0 80 28 00
        E 0 90 1c 10
        E 48 b0 0b 28
        E 16 b0 0b 20
        E 48 b0 0b 10
        E 0 80 1c 00
        E 0 90 28 10
        E 16 b0 0b 08
        E 48 b0 0b 28
        E 0 80 28 00
        E 0 90 26 28
        E 16 b0 0b 20
        E 32 b0 0b 10
        E 0 80 26 00
        E 0 90 1c 10
        E 48 b0 0b 08
        E 16 b0 0b 28
        E 48 b0 0b 20
        E 16 b0 0b 10
        E 0 80 1c 00
        E 0 90 26 10
        E 48 b0 0b 08
        E 16 b0 0b 28
        E 0 80 26 00
        E 0 90 23 28
        E 48 b0 0b 10
        E 0 80 23 00
        E 0 90 1c 10
        E 16 b0 0b 08
        E 48 b0 0b 28
        E 0 80 1c 00
        E 0 90 21 28
        E 16 b0 0b 20
        E 48 b0 0b 10
        E 0 80 21 00
        E 0 90 23 10
        E 16 b0 0b 08
        E 32 b0 0b 28
        E 0 80 23 00
        E 0 90 1f 28
        E 48 b0 0b 20
        E 16 b0 0b 10
        E 0 80 1f 00
        E 0 90 21 10
        E 48 b0 0b 08
        E 16 b0 0c 10
        E 0 b0 0b 30
        E 0 80 21 00
        E 0 90 34 30
        E 64 b0 0b 28
        E 48 b0 0b 30
        E 48 b0 0b 28
        E 64 b0 0b 20
        E 80 b0 0b 18
        E 48 b0 0b 30
        E 16 b0 0b 28
        E 64 b0 0b 20
        E 80 b0 0b 18
        E 64 b0 0b 10
        E 16 b0 0b 30
        E 48 b0 0b 28
        E 80 b0 0b 20
        E 64 b0 0b 18
        E 64 b0 0b 10
        E 80 b0 0b 08
        E 16 b0 0c 40
        E 0 b0 0b 28
        E 0 80 34 00
        E 0 90 1c 28
        E 48 b0 0b 30
        E 16 80 1c 00
        E 64 b0 0b 28
        E 0 90 28 28
        E 48 b0 0b 10
        E 0 80 28 00
        E 0 90 1c 10
        E 16 b0 0b 08
        E 48 b0 0b 28
        E 16 b0 0b 20
        E 48 b0 0b 10
        E 0 80 1c 00
        E 0 90 28 10
        E 16 b0 0b 08
        E 32 b0 0b 28
        E 0 80 28 00
        E 0 90 26 28
        E 48 b0 0b 20
        E 16 b0 0b 10
        E 0 80 26 00
        E 0 90 1c 10
        E 48 b0 0b 08
        E 16 b0 0b 28
        E 48 b0 0b 20
        E 16 b0 0b 10
        E 0 80 1c 00
        E 0 90 26 10
        E 48 b0 0b 28
        E 0 80 26 00
        E 0 90 23 28
        E 16 b0 0b 20
        E 48 b0 0b 10
        E 0 80 23 00
        E 0 90 1c 10
        E 16 b0 0b 08
        E 48 b0 0b 28
        E 0 80 1c 00
        E 0 90 21 28
        E 16 b0 0b 20
        E 32 b0 0b 10
        E 0 80 21 00
        E 0 90 23 10
        E 48 b0 0b 08
        E 16 b0 0b 28
        E 0 80 23 00
        E 0 90 1f 28
        E 48 b0 0b 20
        E 16 b0 0b 10
        E 0 80 1f 00
        E 0 90 21 10
        E 48 b0 0b 08
        E 16 b0 0c 10
        E 0 b0 0b 30
        E 0 80 21 00
        E 0 90 32 30
        E 64 b0 0b 28
        E 48 b0 0b 30
        E 48 b0 0b 28
        E 80 b0 0b 20
        E 64 b0 0b 18
        E 48 b0 0b 30
        E 16 b0 0b 28
        E 80 b0 0b 20
        E 64 b0 0b 18
        E 64 b0 0b 10
        E 16 b0 0b 30
        E 64 b0 0b 28
        E 64 b0 0b 20
        E 64 b0 0b 18
        E 80 b0 0b 10
        E 64 b0 0b 08
        E 16 b0 0c 40
        E 0 b0 0b 28
        E 0 80 32 00
        E 0 90 1c 28
        E 48 b0 0b 30
        E 16 80 1c 00
        E 48 b0 0b 28
        E 0 90 28 28
        E 48 b0 0b 20
        E 16 b0 0b 10
        E 0 80 28 00
        E 0 90 1c 10
        E 48 b0 0b 08
        E 16 b0 0b 28
        E 48 b0 0b 10
        E 0 80 1c 00
        E 0 90 28 10
        E 16 b0 0b 08
        E 48 b0 0b 28
        E 0 80 28 00
        E 0 90 26 28
        E 16 b0 0b 20
        E 48 b0 0b 10
        E 0 80 26 00
        E 0 90 1c 10
        E 16 b0 0b 08
        E 48 b0 0b 28
        E 32 b0 0b 20
        E 16 b0 0b 10
        E 0 80 1c 00
        E 0 90 26 10
        E 48 b0 0b 08
        E 16 b0 0b 28
        E 0 80 26 00
        E 0 90 23 28
        E 48 b0 0b 20
        E 16 b0 0b 10
        E 0 80 23 00
        E 0 90 1c 10
        E 48 b0 0b 28
        E 0 80 1c 00
        E 0 90 21 28
        E 16 b0 0b 20
        E 48 b0 0b 10
        E 0 80 21 00
        E 0 90 23 10
        E 16 b0 0b 08
        E 48 b0 0b 28
        E 0 80 23 00
        E 0 90 1f 28
        E 16 b0 0b 20
        E 48 b0 0b 10
        E 0 80 1f 00
        E 0 90 21 10
        E 32 b0 0b 08
        E 16 b0 0c 10
        E 0 b0 0b 30
        E 0 80 21 00
        E 0 90 34 30
        E 48 b0 0b 28
        E 64 b0 0b 20
        E 16 b0 0b 30
        E 64 b0 0b 28
        E 64 b0 0b 20
        E 64 b0 0b 18
        E 32 b0 0b 30
        E 48 b0 0b 28
        E 64 b0 0b 20
        E 64 b0 0b 18
        E 64 b0 0b 30
        E 16 b0 0b 28
        E 64 b0 0b 20
        E 64 b0 0b 18
        E 80 b0 0b 10
        E 64 b0 0b 08
        E 64 80 34 00
        E 16 b0 0c 40
        E 0 b0 0b 28
        E 0 90 1c 28
        E 48 80 1c 00
        E 64 90 28 28
        E 16 b0 0b 20
        E 48 b0 0b 10
        E 0 80 28 00
        E 0 90 1c 10
        E 16 b0 0b 08
        E 32 b0 0b 28
        E 48 b0 0b 20
        E 16 b0 0b 10
        E 0 80 1c 00
        E 0 90 28 10
        E 48 b0 0b 08
        E 16 b0 0b 28
        E 0 80 28 00
        E 0 90 26 28
        E 48 b0 0b 20
        E 16 b0 0b 10
        E 0 80 26 00
        E 0 90 1c 10
        E 48 b0 0b 28
        E 16 b0 0b 20
        E 48 b0 0b 10
        E 0 80 1c 00
        E 0 90 26 10
        E 16 b0 0b 08
        E 48 b0 0b 28
        E 0 80 26 00
        E 0 90 23 28
        E 16 b0 0b 20
        E 32 b0 0b 10
        E 0 80 23 00
        E 0 90 1c 10
        E 48 b0 0b 08
        E 16 b0 0b 28
        E 0 80 1c 00
        E 0 90 21 28
        E 48 b0 0b 20
        E 16 b0 0b 10
        E 0 80 21 00
        E 0 90 23 10
        E 48 b0 0b 08
        E 16 b0 0b 28
        E 0 80 23 00
        E 0 90 1f 28
        E 48 b0 0b 10
        E 0 80 1f 00
        E 0 90 21 10
        E 16 b0 0b 08
        E 48 b0 0c 10
        E 0 b0 0b 30
        E 0 80 21 00
        E 0 90 37 30
        E 16 b0 0b 28
        E 64 b0 0b 20
        E 32 b0 0b 30
        E 48 b0 0b 28
        E 64 b0 0b 20
        E 64 b0 0b 18
        E 64 b0 0b 30
        E 16 b0 0b 28
        E 64 b0 0b 20
        E 80 b0 0b 18
        E 64 b0 0b 10
        E 16 b0 0b 30
        E 48 b0 0b 28
        E 80 b0 0b 20
        E 64 b0 0b 18
        E 64 b0 0b 10
        E 48 80 37 00
        E 0 ff 2f 00
      >
    >
  >
  <TRACK {29BEFE80-6036-4D35-9DF5-8BA4CA5B5620}
    NAME "NES - Pulse 2 [ch1]"
    PEAKCOL 10092441
    BEAT -1
    AUTOMODE 0
    PANLAWFLAGS 3
    VOLPAN 1 0 -1 -1 1
    MUTESOLO 0 0 0
    IPHASE 0
    PLAYOFFS 0 1
    ISBUS 0 0
    BUSCOMP 0 0 0 0 0
    SHOWINMIX 1 0.6667 0.5 1 0.5 0 0 0
    FIXEDLANES 9 0 0 0 0
    SEL 0
    REC 0 5088 1 0 0 0 0 0
    VU 2
    TRACKHEIGHT 0 0 0 0 0 0 0
    INQ 0 0 0 0.5 100 0 0 100
    NCHAN 2
    FX 1
    TRACKID {29BEFE80-6036-4D35-9DF5-8BA4CA5B5620}
    PERF 0
    MIDIOUT -1
    MAINSEND 1 0
    <FXCHAIN
      WNDRECT 24 52 700 560
      SHOW 0
      LASTSEL 0
      DOCKED 0
      BYPASS 0 0 0
      <JS "ReapNES Studio/ReapNES_Console.jsfx" ""
        2 15 1 10 80 10 100 2 1 15 1 5 60 10 80 1 1 0 50 0 0 15 1 0 100 0 0 0.500000 0.500000 0.400000 0.300000 0.800000 1 1 0 0 0 0 - - - - - - - - - - - - - - - - - - - - - - - - - -
      >
      FLOATPOS 0 0 0 0
      FXID {6F167E1B-145C-4F27-91B0-9B3A23F249C0}
      WAK 0 0
    >
    <ITEM
      POSITION 0
      LENGTH 83.98134
      LOOP 0
      ALLTAKES 0
      FADEIN 0 0 0 0 0 0 0
      FADEOUT 0 0 0 0 0 0 0
      MUTE 0 0
      SEL 0
      IGUID {78697965-2FEC-407E-885F-963C64AA97A7}
      <SOURCE MIDI
        HASDATA 1 480 QN
        CCINTERP 32
        X 0 21 ff 03 12 53 71 75 61 72 65 20 32 20 5b 68 61 72 6d 6f 6e 79 5d
        E 0 c1 51
        E 48 b1 0c 20
        E 0 b1 0b 30
        E 0 91 23 30
        E 48 b1 0b 28
        E 64 b1 0b 20
        E 16 b1 0b 30
        E 0 81 23 00
        E 0 91 21 30
        E 64 b1 0b 28
        E 48 b1 0b 30
        E 0 81 21 00
        E 0 91 23 30
        E 16 b1 0b 28
        E 64 b1 0b 20
        E 32 b1 0b 30
        E 0 81 23 00
        E 0 91 21 30
        E 48 b1 0b 28
        E 64 b1 0b 20
        E 16 b1 0b 30
        E 0 81 21 00
        E 0 91 26 30
        E 48 b1 0b 28
        E 80 b1 0b 20
        E 64 b1 0b 18
        E 64 b1 0b 10
        E 80 b1 0b 08
        E 16 b1 0b 30
        E 0 81 26 00
        E 0 91 2f 30
        E 48 b1 0b 28
        E 64 b1 0b 20
        E 80 b1 0b 18
        E 48 b1 0b 30
        E 0 81 2f 00
        E 0 91 2d 30
        E 16 b1 0b 28
        E 64 b1 0b 20
        E 32 b1 0b 30
        E 0 81 2d 00
        E 0 91 2a 30
        E 48 b1 0b 28
        E 64 b1 0b 20
        E 16 b1 0b 30
        E 0 81 2a 00
        E 0 91 28 30
        E 48 b1 0b 28
        E 64 b1 0b 30
        E 0 81 28 00
        E 0 91 26 30
        E 16 b1 0b 28
        E 64 b1 0b 20
        E 48 b1 0b 30
        E 0 81 26 00
        E 0 91 21 30
        E 16 b1 0b 28
        E 80 b1 0b 20
        E 64 b1 0b 18
        E 64 b1 0b 10
        E 80 b1 0b 08
        E 48 b1 0b 30
        E 0 81 21 00
        E 0 91 23 30
        E 16 b1 0b 28
        E 80 b1 0b 20
        E 16 b1 0b 30
        E 0 81 23 00
        E 0 91 21 30
        E 48 b1 0b 28
        E 64 b1 0b 20
        E 16 b1 0b 30
        E 0 81 21 00
        E 0 91 23 30
        E 64 b1 0b 28
        E 48 b1 0b 30
        E 0 81 23 00
        E 0 91 21 30
        E 16 b1 0b 28
        E 64 b1 0b 20
        E 48 b1 0b 30
        E 0 81 21 00
        E 0 91 26 30
        E 32 b1 0b 28
        E 64 b1 0b 20
        E 64 b1 0b 18
        E 80 b1 0b 10
        E 64 b1 0b 08
        E 48 b1 0b 30
        E 0 81 26 00
        E 0 91 2f 30
        E 16 b1 0b 28
        E 80 b1 0b 20
        E 64 b1 0b 18
        E 64 b1 0b 10
        E 16 b1 0b 30
        E 0 81 2f 00
        E 0 91 2d 30
        E 64 b1 0b 28
        E 48 b1 0b 30
        E 0 81 2d 00
        E 0 91 2a 30
        E 16 b1 0b 28
        E 64 b1 0b 20
        E 48 b1 0b 30
        E 0 81 2a 00
        E 0 91 28 30
        E 32 b1 0b 28
        E 64 b1 0b 20
        E 16 b1 0b 30
        E 0 81 28 00
        E 0 91 26 30
        E 48 b1 0b 28
        E 64 b1 0b 30
        E 0 81 26 00
        E 0 91 21 30
        E 16 b1 0b 28
        E 64 b1 0b 20
        E 64 b1 0b 18
        E 80 b1 0b 10
        E 64 b1 0b 08
        E 64 81 21 00
        E 16 b1 0b 30
        E 0 91 23 30
        E 64 b1 0b 28
        E 48 b1 0b 30
        E 0 81 23 00
        E 0 91 21 30
        E 16 b1 0b 28
        E 64 b1 0b 20
        E 32 b1 0b 30
        E 0 81 21 00
        E 0 91 23 30
        E 48 b1 0b 28
        E 64 b1 0b 20
        E 16 b1 0b 30
        E 0 81 23 00
        E 0 91 21 30
        E 48 b1 0b 28
        E 64 b1 0b 30
        E 0 81 21 00
        E 0 91 26 30
        E 16 b1 0b 28
        E 64 b1 0b 20
        E 64 b1 0b 18
        E 80 b1 0b 10
        E 64 b1 0b 08
        E 64 81 26 00
        E 16 b1 0b 30
        E 0 91 2f 30
        E 64 b1 0b 28
        E 64 b1 0b 20
        E 64 b1 0b 18
        E 32 b1 0b 30
        E 0 81 2f 00
        E 0 91 2d 30
        E 48 b1 0b 28
        E 64 b1 0b 20
        E 16 b1 0b 30
        E 0 81 2d 00
        E 0 91 2a 30
        E 48 b1 0b 28
        E 64 b1 0b 30
        E 0 81 2a 00
        E 0 91 28 30
        E 16 b1 0b 28
        E 64 b1 0b 20
        E 48 b1 0b 30
        E 0 81 28 00
        E 0 91 26 30
        E 16 b1 0b 28
        E 80 b1 0b 20
        E 16 b1 0b 30
        E 0 81 26 00
        E 0 91 21 30
        E 48 b1 0b 28
        E 64 b1 0b 20
        E 80 b1 0b 18
        E 64 b1 0b 10
        E 64 b1 0b 08
        E 32 b1 0b 30
        E 0 81 21 00
        E 0 91 23 30
        E 48 b1 0b 28
        E 64 b1 0b 20
        E 16 b1 0b 30
        E 0 81 23 00
        E 0 91 21 30
        E 48 b1 0b 28
        E 64 b1 0b 30
        E 0 81 21 00
        E 0 91 23 30
        E 16 b1 0b 28
        E 64 b1 0b 20
        E 48 b1 0b 30
        E 0 81 23 00
        E 0 91 21 30
        E 32 b1 0b 28
        E 64 b1 0b 20
        E 16 b1 0b 30
        E 0 81 21 00
        E 0 91 26 30
        E 48 b1 0b 28
        E 80 b1 0b 20
        E 64 b1 0b 18
        E 64 b1 0b 10
        E 80 b1 0b 08
        E 16 b1 0b 30
        E 0 81 26 00
        E 0 91 2f 30
        E 48 b1 0b 28
        E 64 b1 0b 20
        E 80 b1 0b 18
        E 48 b1 0b 30
        E 0 81 2f 00
        E 0 91 2d 30
        E 16 b1 0b 28
        E 64 b1 0b 20
        E 48 b1 0b 30
        E 0 81 2d 00
        E 0 91 2a 30
        E 32 b1 0b 28
        E 64 b1 0b 20
        E 16 b1 0b 30
        E 0 81 2a 00
        E 0 91 28 30
        E 48 b1 0b 28
        E 64 b1 0b 30
        E 0 81 28 00
        E 0 91 26 30
        E 16 b1 0b 28
        E 64 b1 0b 20
        E 48 b1 0b 30
        E 0 81 26 00
        E 0 91 21 30
        E 16 b1 0b 28
        E 80 b1 0b 20
        E 64 b1 0b 18
        E 64 b1 0b 10
        E 80 b1 0b 08
        E 48 b1 0c 10
        E 0 b1 0b 30
        E 0 81 21 00
        E 0 91 2f 30
        E 16 b1 0b 28
        E 64 b1 0b 20
        E 48 b1 0b 30
        E 64 b1 0b 28
        E 64 b1 0b 20
        E 64 b1 0b 18
        E 32 b1 0b 30
        E 48 b1 0b 28
        E 64 b1 0b 20
        E 80 b1 0b 18
        E 48 b1 0b 30
        E 16 b1 0b 28
        E 64 b1 0b 20
        E 80 b1 0b 18
        E 64 b1 0b 10
        E 64 b1 0b 08
        E 64 b1 0c 40
        E 0 b1 0b 28
        E 0 81 2f 00
        E 0 91 28 28
        E 16 b1 0b 30
        E 48 81 28 00
        E 64 b1 0b 28
        E 0 91 34 28
        E 16 b1 0b 20
        E 48 b1 0b 10
        E 0 81 34 00
        E 0 91 28 10
        E 32 b1 0b 08
        E 16 b1 0b 28
        E 48 b1 0b 20
        E 16 b1 0b 10
        E 0 81 28 00
        E 0 91 34 10
        E 48 b1 0b 08
        E 16 b1 0b 28
        E 0 81 34 00
        E 0 91 32 28
        E 48 b1 0b 10
        E 0 81 32 00
        E 0 91 28 10
        E 16 b1 0b 08
        E 48 b1 0b 28
        E 16 b1 0b 20
        E 48 b1 0b 10
        E 0 81 28 00
        E 0 91 32 10
        E 16 b1 0b 08
        E 48 b1 0b 28
        E 0 81 32 00
        E 0 91 2f 28
        E 32 b1 0b 20
        E 16 b1 0b 10
        E 0 81 2f 00
        E 0 91 28 10
        E 48 b1 0b 08
        E 16 b1 0b 28
        E 0 81 28 00
        E 0 91 2d 28
        E 48 b1 0b 20
        E 16 b1 0b 10
        E 0 81 2d 00
        E 0 91 2f 10
        E 48 b1 0b 28
        E 0 81 2f 00
        E 0 91 2b 28
        E 16 b1 0b 20
        E 48 b1 0b 10
        E 0 81 2b 00
        E 0 91 2d 10
        E 16 b1 0b 08
        E 48 b1 0c 10
        E 0 b1 0b 30
        E 0 81 2d 00
        E 0 91 32 30
        E 16 b1 0b 28
        E 80 b1 0b 20
        E 16 b1 0b 30
        E 48 b1 0b 28
        E 64 b1 0b 20
        E 80 b1 0b 18
        E 48 b1 0b 30
        E 16 b1 0b 28
        E 64 b1 0b 20
        E 80 b1 0b 18
        E 64 b1 0b 10
        E 16 b1 0b 30
        E 48 b1 0b 28
        E 80 b1 0b 20
        E 64 b1 0b 18
        E 64 b1 0b 10
        E 80 b1 0b 08
        E 16 b1 0c 40
        E 0 b1 0b 28
        E 0 81 32 00
        E 0 91 28 28
        E 48 b1 0b 30
        E 16 81 28 00
        E 64 b1 0b 28
        E 0 91 34 28
        E 48 b1 0b 10
        E 0 81 34 00
        E 0 91 28 10
        E 16 b1 0b 08
        E 48 b1 0b 28
        E 16 b1 0b 20
        E 48 b1 0b 10
        E 0 81 28 00
        E 0 91 34 10
        E 16 b1 0b 08
        E 32 b1 0b 28
        E 0 81 34 00
        E 0 91 32 28
        E 48 b1 0b 20
        E 16 b1 0b 10
        E 0 81 32 00
        E 0 91 28 10
        E 48 b1 0b 08
        E 16 b1 0b 28
        E 48 b1 0b 20
        E 16 b1 0b 10
        E 0 81 28 00
        E 0 91 32 10
        E 48 b1 0b 28
        E 0 81 32 00
        E 0 91 2f 28
        E 16 b1 0b 20
        E 48 b1 0b 10
        E 0 81 2f 00
        E 0 91 28 10
        E 16 b1 0b 08
        E 48 b1 0b 28
        E 0 81 28 00
        E 0 91 2d 28
        E 16 b1 0b 20
        E 32 b1 0b 10
        E 0 81 2d 00
        E 0 91 2f 10
        E 48 b1 0b 08
        E 16 b1 0b 28
        E 0 81 2f 00
        E 0 91 2b 28
        E 48 b1 0b 20
        E 16 b1 0b 10
        E 0 81 2b 00
        E 0 91 2d 10
        E 48 b1 0b 08
        E 16 b1 0c 10
        E 0 b1 0b 30
        E 0 81 2d 00
        E 0 91 2f 30
        E 64 b1 0b 28
        E 48 b1 0b 30
        E 48 b1 0b 28
        E 80 b1 0b 20
        E 64 b1 0b 18
        E 48 b1 0b 30
        E 16 b1 0b 28
        E 80 b1 0b 20
        E 64 b1 0b 18
        E 64 b1 0b 10
        E 16 b1 0b 30
        E 64 b1 0b 28
        E 64 b1 0b 20
        E 64 b1 0b 18
        E 80 b1 0b 10
        E 64 b1 0b 08
        E 16 b1 0c 40
        E 0 b1 0b 28
        E 0 81 2f 00
        E 0 91 28 28
        E 48 b1 0b 30
        E 16 81 28 00
        E 48 b1 0b 28
        E 0 91 34 28
        E 48 b1 0b 20
        E 16 b1 0b 10
        E 0 81 34 00
        E 0 91 28 10
        E 48 b1 0b 08
        E 16 b1 0b 28
        E 48 b1 0b 10
        E 0 81 28 00
        E 0 91 34 10
        E 16 b1 0b 08
        E 48 b1 0b 28
        E 0 81 34 00
        E 0 91 32 28
        E 16 b1 0b 20
        E 48 b1 0b 10
        E 0 81 32 00
        E 0 91 28 10
        E 16 b1 0b 08
        E 48 b1 0b 28
        E 32 b1 0b 20
        E 16 b1 0b 10
        E 0 81 28 00
        E 0 91 32 10
        E 48 b1 0b 08
        E 16 b1 0b 28
        E 0 81 32 00
        E 0 91 2f 28
        E 48 b1 0b 20
        E 16 b1 0b 10
        E 0 81 2f 00
        E 0 91 28 10
        E 48 b1 0b 28
        E 0 81 28 00
        E 0 91 2d 28
        E 16 b1 0b 20
        E 48 b1 0b 10
        E 0 81 2d 00
        E 0 91 2f 10
        E 16 b1 0b 08
        E 48 b1 0b 28
        E 0 81 2f 00
        E 0 91 2b 28
        E 16 b1 0b 20
        E 48 b1 0b 10
        E 0 81 2b 00
        E 0 91 2d 10
        E 32 b1 0b 08
        E 16 b1 0c 10
        E 0 b1 0b 30
        E 0 81 2d 00
        E 0 91 2b 30
        E 48 b1 0b 28
        E 64 b1 0b 20
        E 16 b1 0b 30
        E 64 b1 0b 28
        E 64 b1 0b 20
        E 64 b1 0b 18
        E 48 b1 0b 30
        E 32 b1 0b 28
        E 64 b1 0b 20
        E 64 b1 0b 18
        E 64 b1 0b 30
        E 16 b1 0b 28
        E 64 b1 0b 20
        E 64 b1 0b 18
        E 80 b1 0b 10
        E 64 b1 0b 08
        E 64 81 2b 00
        E 16 b1 0c 40
        E 0 b1 0b 28
        E 0 91 28 28
        E 48 81 28 00
        E 64 91 34 28
        E 16 b1 0b 20
        E 48 b1 0b 10
        E 0 81 34 00
        E 0 91 28 10
        E 16 b1 0b 08
        E 32 b1 0b 28
        E 48 b1 0b 20
        E 16 b1 0b 10
        E 0 81 28 00
        E 0 91 34 10
        E 48 b1 0b 08
        E 16 b1 0b 28
        E 0 81 34 00
        E 0 91 32 28
        E 48 b1 0b 20
        E 16 b1 0b 10
        E 0 81 32 00
        E 0 91 28 10
        E 48 b1 0b 28
        E 16 b1 0b 20
        E 48 b1 0b 10
        E 0 81 28 00
        E 0 91 32 10
        E 16 b1 0b 08
        E 48 b1 0b 28
        E 0 81 32 00
        E 0 91 2f 28
        E 16 b1 0b 20
        E 32 b1 0b 10
        E 0 81 2f 00
        E 0 91 28 10
        E 48 b1 0b 08
        E 16 b1 0b 28
        E 0 81 28 00
        E 0 91 2d 28
        E 48 b1 0b 20
        E 16 b1 0b 10
        E 0 81 2d 00
        E 0 91 2f 10
        E 48 b1 0b 08
        E 16 b1 0b 28
        E 0 81 2f 00
        E 0 91 2b 28
        E 48 b1 0b 10
        E 0 81 2b 00
        E 0 91 2d 10
        E 16 b1 0b 08
        E 48 b1 0c 10
        E 0 b1 0b 30
        E 0 81 2d 00
        E 0 91 2f 30
        E 16 b1 0b 28
        E 64 b1 0b 20
        E 32 b1 0b 30
        E 48 b1 0b 28
        E 64 b1 0b 20
        E 64 b1 0b 18
        E 64 b1 0b 30
        E 16 b1 0b 28
        E 64 b1 0b 20
        E 64 b1 0b 18
        E 80 b1 0b 10
        E 16 b1 0b 30
        E 48 b1 0b 28
        E 64 b1 0b 20
        E 80 b1 0b 18
        E 64 b1 0b 10
        E 64 b1 0b 08
        E 32 b1 0c 40
        E 0 b1 0b 28
        E 0 81 2f 00
        E 0 91 28 28
        E 48 b1 0b 30
        E 16 81 28 00
        E 64 b1 0b 28
        E 0 91 34 28
        E 48 b1 0b 10
        E 0 81 34 00
        E 0 91 28 10
        E 16 b1 0b 08
        E 48 b1 0b 28
        E 16 b1 0b 20
        E 48 b1 0b 10
        E 0 81 28 00
        E 0 91 34 10
        E 16 b1 0b 08
        E 48 b1 0b 28
        E 0 81 34 00
        E 0 91 32 28
        E 32 b1 0b 20
        E 16 b1 0b 10
        E 0 81 32 00
        E 0 91 28 10
        E 48 b1 0b 08
        E 16 b1 0b 28
        E 48 b1 0b 20
        E 16 b1 0b 10
        E 0 81 28 00
        E 0 91 32 10
        E 48 b1 0b 28
        E 0 81 32 00
        E 0 91 2f 28
        E 16 b1 0b 20
        E 48 b1 0b 10
        E 0 81 2f 00
        E 0 91 28 10
        E 16 b1 0b 08
        E 48 b1 0b 28
        E 0 81 28 00
        E 0 91 2d 28
        E 16 b1 0b 20
        E 48 b1 0b 10
        E 0 81 2d 00
        E 0 91 2f 10
        E 32 b1 0b 08
        E 16 b1 0b 28
        E 0 81 2f 00
        E 0 91 2b 28
        E 48 b1 0b 20
        E 16 b1 0b 10
        E 0 81 2b 00
        E 0 91 2d 10
        E 48 b1 0b 08
        E 16 b1 0c 10
        E 0 b1 0b 30
        E 0 81 2d 00
        E 0 91 32 30
        E 64 b1 0b 28
        E 48 b1 0b 30
        E 48 b1 0b 28
        E 64 b1 0b 20
        E 80 b1 0b 18
        E 48 b1 0b 30
        E 16 b1 0b 28
        E 64 b1 0b 20
        E 80 b1 0b 18
        E 64 b1 0b 10
        E 16 b1 0b 30
        E 48 b1 0b 28
        E 80 b1 0b 20
        E 64 b1 0b 18
        E 64 b1 0b 10
        E 80 b1 0b 08
        E 16 b1 0c 40
        E 0 b1 0b 28
        E 0 81 32 00
        E 0 91 28 28
        E 48 b1 0b 30
        E 16 81 28 00
        E 64 b1 0b 28
        E 0 91 34 28
        E 48 b1 0b 10
        E 0 81 34 00
        E 0 91 28 10
        E 16 b1 0b 08
        E 48 b1 0b 28
        E 16 b1 0b 20
        E 48 b1 0b 10
        E 0 81 28 00
        E 0 91 34 10
        E 32 b1 0b 08
        E 16 b1 0b 28
        E 0 81 34 00
        E 0 91 32 28
        E 48 b1 0b 20
        E 16 b1 0b 10
        E 0 81 32 00
        E 0 91 28 10
        E 48 b1 0b 08
        E 16 b1 0b 28
        E 48 b1 0b 10
        E 0 81 28 00
        E 0 91 32 10
        E 16 b1 0b 08
        E 48 b1 0b 28
        E 0 81 32 00
        E 0 91 2f 28
        E 16 b1 0b 20
        E 48 b1 0b 10
        E 0 81 2f 00
        E 0 91 28 10
        E 16 b1 0b 08
        E 48 b1 0b 28
        E 0 81 28 00
        E 0 91 2d 28
        E 32 b1 0b 20
        E 16 b1 0b 10
        E 0 81 2d 00
        E 0 91 2f 10
        E 48 b1 0b 08
        E 16 b1 0b 28
        E 0 81 2f 00
        E 0 91 2b 28
        E 48 b1 0b 20
        E 16 b1 0b 10
        E 0 81 2b 00
        E 0 91 2d 10
        E 48 b1 0c 10
        E 0 b1 0b 30
        E 0 81 2d 00
        E 0 91 2b 30
        E 16 b1 0b 28
        E 64 b1 0b 20
        E 48 b1 0b 30
        E 48 b1 0b 28
        E 80 b1 0b 20
        E 64 b1 0b 18
        E 48 b1 0b 30
        E 16 b1 0b 28
        E 80 b1 0b 20
        E 64 b1 0b 18
        E 64 b1 0b 10
        E 16 b1 0b 30
        E 64 b1 0b 28
        E 64 b1 0b 20
        E 64 b1 0b 18
        E 80 b1 0b 10
        E 64 b1 0b 08
        E 16 b1 0c 40
        E 0 b1 0b 28
        E 0 81 2b 00
        E 0 91 28 28
        E 48 b1 0b 30
        E 16 81 28 00
        E 48 b1 0b 28
        E 0 91 34 28
        E 48 b1 0b 20
        E 16 b1 0b 10
        E 0 81 34 00
        E 0 91 28 10
        E 48 b1 0b 08
        E 16 b1 0b 28
        E 48 b1 0b 10
        E 0 81 28 00
        E 0 91 34 10
        E 16 b1 0b 08
        E 48 b1 0b 28
        E 0 81 34 00
        E 0 91 32 28
        E 16 b1 0b 20
        E 48 b1 0b 10
        E 0 81 32 00
        E 0 91 28 10
        E 16 b1 0b 08
        E 32 b1 0b 28
        E 48 b1 0b 20
        E 16 b1 0b 10
        E 0 81 28 00
        E 0 91 32 10
        E 48 b1 0b 08
        E 16 b1 0b 28
        E 0 81 32 00
        E 0 91 2f 28
        E 48 b1 0b 20
        E 16 b1 0b 10
        E 0 81 2f 00
        E 0 91 28 10
        E 48 b1 0b 28
        E 0 81 28 00
        E 0 91 2d 28
        E 16 b1 0b 20
        E 48 b1 0b 10
        E 0 81 2d 00
        E 0 91 2f 10
        E 16 b1 0b 08
        E 48 b1 0b 28
        E 0 81 2f 00
        E 0 91 2b 28
        E 16 b1 0b 20
        E 32 b1 0b 10
        E 0 81 2b 00
        E 0 91 2d 10
        E 48 b1 0b 08
        E 16 b1 0c 10
        E 0 b1 0b 30
        E 0 81 2d 00
        E 0 91 2f 30
        E 48 b1 0b 28
        E 64 b1 0b 20
        E 16 b1 0b 30
        E 64 b1 0b 28
        E 64 b1 0b 20
        E 64 b1 0b 18
        E 32 b1 0b 30
        E 48 b1 0b 28
        E 64 b1 0b 20
        E 64 b1 0b 18
        E 64 b1 0b 30
        E 16 b1 0b 28
        E 64 b1 0b 20
        E 64 b1 0b 18
        E 80 b1 0b 10
        E 64 b1 0b 08
        E 64 81 2f 00
        E 16 b1 0c 40
        E 0 b1 0b 28
        E 0 91 28 28
        E 48 81 28 00
        E 64 91 34 28
        E 16 b1 0b 20
        E 48 b1 0b 10
        E 0 81 34 00
        E 0 91 28 10
        E 16 b1 0b 08
        E 32 b1 0b 28
        E 48 b1 0b 20
        E 16 b1 0b 10
        E 0 81 28 00
        E 0 91 34 10
        E 48 b1 0b 08
        E 16 b1 0b 28
        E 0 81 34 00
        E 0 91 32 28
        E 48 b1 0b 20
        E 16 b1 0b 10
        E 0 81 32 00
        E 0 91 28 10
        E 48 b1 0b 28
        E 16 b1 0b 20
        E 48 b1 0b 10
        E 0 81 28 00
        E 0 91 32 10
        E 16 b1 0b 08
        E 48 b1 0b 28
        E 0 81 32 00
        E 0 91 2f 28
        E 32 b1 0b 20
        E 16 b1 0b 10
        E 0 81 2f 00
        E 0 91 28 10
        E 48 b1 0b 08
        E 16 b1 0b 28
        E 0 81 28 00
        E 0 91 2d 28
        E 48 b1 0b 20
        E 16 b1 0b 10
        E 0 81 2d 00
        E 0 91 2f 10
        E 48 b1 0b 28
        E 0 81 2f 00
        E 0 91 2b 28
        E 16 b1 0b 20
        E 48 b1 0b 10
        E 0 81 2b 00
        E 0 91 2d 10
        E 16 b1 0b 08
        E 48 b1 0c 10
        E 0 b1 0b 30
        E 0 81 2d 00
        E 0 91 3c 30
        E 16 b1 0b 28
        E 80 b1 0b 20
        E 16 b1 0b 30
        E 48 b1 0b 28
        E 64 b1 0b 20
        E 80 b1 0b 18
        E 48 b1 0b 30
        E 16 b1 0b 28
        E 64 b1 0b 20
        E 80 b1 0b 18
        E 64 b1 0b 10
        E 64 b1 0b 08
        E 80 81 3c 00
        E 224 b1 0b 30
        E 0 91 3e 30
        E 48 b1 0b 28
        E 64 b1 0b 20
        E 16 b1 0b 30
        E 64 b1 0b 28
        E 64 b1 0b 20
        E 64 b1 0b 18
        E 48 b1 0b 30
        E 32 b1 0b 28
        E 64 b1 0b 20
        E 64 b1 0b 18
        E 80 b1 0b 10
        E 64 b1 0b 08
        E 64 81 3e 00
        E 224 b1 0b 30
        E 0 91 39 30
        E 64 b1 0b 28
        E 48 b1 0b 30
        E 16 b1 0b 28
        E 64 b1 0b 20
        E 80 b1 0b 18
        E 64 b1 0b 10
        E 16 b1 0b 30
        E 48 b1 0b 28
        E 80 b1 0b 20
        E 64 b1 0b 18
        E 64 b1 0b 10
        E 80 b1 0b 08
        E 64 81 39 00
        E 80 b1 0c 20
        E 0 b1 0b 30
        E 0 91 32 30
        E 32 b1 0b 28
        E 32 b1 0b 20
        E 32 b1 0b 18
        E 32 b1 0b 10
        E 32 b1 0b 08
        E 32 81 32 00
        E 32 b1 0b 30
        E 0 91 31 30
        E 16 b1 0b 28
        E 32 b1 0b 20
        E 32 b1 0b 18
        E 32 b1 0b 10
        E 16 b1 0b 30
        E 0 81 31 00
        E 0 91 2f 30
        E 16 b1 0b 28
        E 32 b1 0b 20
        E 48 b1 0b 18
        E 16 b1 0b 30
        E 0 81 2f 00
        E 0 91 2d 30
        E 16 b1 0b 28
        E 32 b1 0b 20
        E 32 b1 0b 18
        E 32 b1 0b 10
        E 16 b1 0b 30
        E 0 81 2d 00
        E 0 91 2f 30
        E 16 b1 0b 28
        E 48 b1 0b 20
        E 32 b1 0b 18
        E 16 b1 0b 30
        E 0 81 2f 00
        E 0 91 2d 30
        E 16 b1 0b 28
        E 32 b1 0b 20
        E 32 b1 0b 18
        E 32 b1 0b 10
        E 48 b1 0b 08
        E 32 81 2d 00
        E 48 b1 0b 30
        E 0 91 2d 30
        E 16 b1 0b 28
        E 32 b1 0b 20
        E 48 b1 0b 18
        E 16 b1 0c 10
        E 0 b1 0b 30
        E 0 81 2d 00
        E 0 91 3c 30
        E 16 b1 0b 28
        E 32 b1 0b 20
        E 32 b1 0b 18
        E 32 b1 0b 10
        E 16 b1 0b 30
        E 64 b1 0b 28
        E 64 b1 0b 20
        E 64 b1 0b 18
        E 48 b1 0b 30
        E 32 b1 0b 28
        E 64 b1 0b 20
        E 64 b1 0b 18
        E 80 b1 0b 10
        E 64 b1 0b 08
        E 64 81 3c 00
        E 224 b1 0b 30
        E 0 91 3e 30
        E 64 b1 0b 28
        E 48 b1 0b 30
        E 16 b1 0b 28
        E 64 b1 0b 20
        E 80 b1 0b 18
        E 64 b1 0b 10
        E 16 b1 0b 30
        E 48 b1 0b 28
        E 80 b1 0b 20
        E 64 b1 0b 18
        E 64 b1 0b 10
        E 80 b1 0b 08
        E 64 81 3e 00
        E 192 b1 0b 30
        E 0 91 39 30
        E 48 b1 0b 28
        E 64 b1 0b 30
        E 16 b1 0b 28
        E 64 b1 0b 20
        E 64 b1 0b 18
        E 80 b1 0b 10
        E 16 b1 0b 30
        E 48 b1 0b 28
        E 64 b1 0b 20
        E 80 b1 0b 18
        E 64 b1 0b 10
        E 64 b1 0b 08
        E 80 81 39 00
        E 80 b1 0c 20
        E 0 b1 0b 30
        E 0 91 32 30
        E 16 b1 0b 28
        E 32 b1 0b 20
        E 32 b1 0b 18
        E 48 b1 0b 10
        E 32 b1 0b 08
        E 32 81 32 00
        E 48 b1 0b 30
        E 0 91 31 30
        E 16 b1 0b 28
        E 32 b1 0b 20
        E 48 b1 0b 18
        E 16 b1 0b 30
        E 0 81 31 00
        E 0 91 2f 30
        E 16 b1 0b 28
        E 32 b1 0b 20
        E 32 b1 0b 18
        E 32 b1 0b 10
        E 16 b1 0b 30
        E 0 81 2f 00
        E 0 91 2d 30
        E 16 b1 0b 28
        E 48 b1 0b 20
        E 32 b1 0b 18
        E 16 b1 0b 30
        E 0 81 2d 00
        E 0 91 2f 30
        E 16 b1 0b 28
        E 32 b1 0b 20
        E 32 b1 0b 18
        E 32 b1 0b 10
        E 16 b1 0b 30
        E 0 81 2f 00
        E 0 91 2d 30
        E 32 b1 0b 28
        E 32 b1 0b 20
        E 32 b1 0b 18
        E 32 b1 0b 10
        E 32 b1 0b 08
        E 32 81 2d 00
        E 32 b1 0b 30
        E 0 91 2d 30
        E 16 b1 0b 28
        E 32 b1 0b 20
        E 32 b1 0b 18
        E 32 b1 0b 10
        E 16 b1 0c 40
        E 0 b1 0b 28
        E 0 81 2d 00
        E 0 91 35 28
        E 16 b1 0b 20
        E 32 b1 0b 18
        E 16 81 35 00
        E 48 b1 0b 28
        E 0 91 39 28
        E 16 b1 0b 20
        E 32 b1 0b 18
        E 16 b1 0b 10
        E 0 81 39 00
        E 0 91 35 10
        E 16 b1 0b 08
        E 32 81 35 00
        E 16 b1 0b 28
        E 0 91 3c 28
        E 32 b1 0b 20
        E 16 b1 0b 10
        E 0 81 3c 00
        E 0 91 39 10
        E 16 b1 0b 08
        E 32 81 39 00
        E 16 b1 0b 28
        E 0 91 40 28
        E 16 b1 0b 20
        E 32 b1 0b 18
        E 16 b1 0b 10
        E 0 81 40 00
        E 0 91 3c 10
        E 16 b1 0b 08
        E 32 b1 0b 28
        E 0 81 3c 00
        E 0 91 41 28
        E 16 b1 0b 20
        E 32 b1 0b 18
        E 16 b1 0b 10
        E 0 81 41 00
        E 0 91 40 10
        E 16 b1 0b 08
        E 32 81 40 00
        E 16 b1 0b 28
        E 0 91 45 28
        E 16 b1 0b 20
        E 32 b1 0b 18
        E 16 b1 0b 10
        E 0 81 45 00
        E 0 91 41 10
        E 32 b1 0b 08
        E 16 b1 0b 28
        E 0 81 41 00
        E 0 91 48 28
        E 16 b1 0b 20
        E 32 b1 0b 18
        E 16 b1 0b 10
        E 0 81 48 00
        E 0 91 45 10
        E 16 b1 0b 08
        E 32 81 45 00
        E 16 b1 0b 28
        E 0 91 40 28
        E 16 b1 0b 20
        E 32 b1 0b 10
        E 0 81 40 00
        E 0 91 48 10
        E 16 b1 0b 08
        E 32 81 48 00
        E 16 b1 0b 28
        E 0 91 4c 28
        E 16 b1 0b 20
        E 32 b1 0b 18
        E 16 b1 0b 10
        E 0 81 4c 00
        E 0 91 40 10
        E 16 b1 0b 08
        E 32 81 40 00
        E 16 b1 0b 28
        E 0 91 48 28
        E 32 b1 0b 20
        E 16 b1 0b 10
        E 0 81 48 00
        E 0 91 4c 10
        E 16 b1 0b 08
        E 32 81 4c 00
        E 16 b1 0b 28
        E 0 91 45 28
        E 16 b1 0b 20
        E 32 b1 0b 18
        E 16 b1 0b 10
        E 0 81 45 00
        E 0 91 48 10
        E 16 b1 0b 08
        E 32 b1 0b 28
        E 0 81 48 00
        E 0 91 41 28
        E 16 b1 0b 20
        E 32 b1 0b 18
        E 16 b1 0b 10
        E 0 81 41 00
        E 0 91 45 10
        E 16 b1 0b 08
        E 32 81 45 00
        E 16 b1 0b 28
        E 0 91 40 28
        E 16 b1 0b 20
        E 32 b1 0b 18
        E 16 b1 0b 10
        E 0 81 40 00
        E 0 91 41 10
        E 32 b1 0b 08
        E 16 b1 0b 28
        E 16 b1 0b 20
        E 32 b1 0b 18
        E 16 b1 0b 10
        E 0 81 41 00
        E 0 91 40 10
        E 16 b1 0b 08
        E 32 81 40 00
        E 16 b1 0b 28
        E 0 91 3c 28
        E 16 b1 0b 20
        E 32 b1 0b 10
        E 0 81 3c 00
        E 0 91 41 10
        E 16 b1 0b 08
        E 32 81 41 00
        E 16 b1 0b 28
        E 0 91 39 28
        E 16 b1 0b 20
        E 32 b1 0b 18
        E 16 b1 0b 10
        E 0 81 39 00
        E 0 91 3c 10
        E 64 b1 0b 28
        E 0 81 3c 00
        E 0 91 35 28
        E 32 b1 0b 20
        E 16 81 35 00
        E 64 b1 0b 28
        E 0 91 39 28
        E 16 b1 0b 20
        E 32 b1 0b 18
        E 16 b1 0b 10
        E 0 81 39 00
        E 0 91 35 10
        E 16 b1 0b 08
        E 32 b1 0b 28
        E 0 81 35 00
        E 0 91 3c 28
        E 16 b1 0b 20
        E 32 b1 0b 18
        E 16 b1 0b 10
        E 0 81 3c 00
        E 0 91 39 10
        E 16 b1 0b 08
        E 32 81 39 00
        E 16 b1 0b 28
        E 0 91 40 28
        E 16 b1 0b 20
        E 32 b1 0b 10
        E 0 81 40 00
        E 0 91 3c 10
        E 16 b1 0b 08
        E 32 81 3c 00
        E 16 b1 0b 28
        E 0 91 41 28
        E 16 b1 0b 20
        E 32 b1 0b 18
        E 16 b1 0b 10
        E 0 81 41 00
        E 0 91 40 10
        E 16 b1 0b 08
        E 32 81 40 00
        E 16 b1 0b 28
        E 0 91 45 28
        E 32 b1 0b 20
        E 16 b1 0b 10
        E 0 81 45 00
        E 0 91 41 10
        E 16 b1 0b 08
        E 32 81 41 00
        E 16 b1 0b 28
        E 0 91 48 28
        E 16 b1 0b 20
        E 32 b1 0b 18
        E 16 b1 0b 10
        E 0 81 48 00
        E 0 91 45 10
        E 16 b1 0b 08
        E 32 b1 0b 28
        E 0 81 45 00
        E 0 91 40 28
        E 16 b1 0b 20
        E 32 b1 0b 18
        E 16 b1 0b 10
        E 0 81 40 00
        E 0 91 48 10
        E 16 b1 0b 08
        E 32 81 48 00
        E 16 b1 0b 28
        E 0 91 4c 28
        E 16 b1 0b 20
        E 32 b1 0b 18
        E 16 b1 0b 10
        E 0 81 4c 00
        E 0 91 40 10
        E 32 b1 0b 08
        E 16 b1 0b 28
        E 0 81 40 00
        E 0 91 48 28
        E 16 b1 0b 20
        E 32 b1 0b 18
        E 16 b1 0b 10
        E 0 81 48 00
        E 0 91 4c 10
        E 16 b1 0b 08
        E 32 81 4c 00
        E 16 b1 0b 28
        E 0 91 45 28
        E 16 b1 0b 20
        E 32 b1 0b 10
        E 0 81 45 00
        E 0 91 48 10
        E 16 b1 0b 08
        E 32 81 48 00
        E 16 b1 0b 28
        E 0 91 41 28
        E 16 b1 0b 20
        E 32 b1 0b 18
        E 16 b1 0b 10
        E 0 81 41 00
        E 0 91 45 10
        E 16 b1 0b 08
        E 32 81 45 00
        E 16 b1 0b 28
        E 0 91 40 28
        E 32 b1 0b 20
        E 16 b1 0b 10
        E 0 81 40 00
        E 0 91 41 10
        E 16 b1 0b 08
        E 32 81 41 00
        E 16 b1 0b 28
        E 0 91 41 28
        E 16 b1 0b 20
        E 32 b1 0b 18
        E 16 b1 0b 10
        E 0 81 41 00
        E 0 91 40 10
        E 16 b1 0b 08
        E 32 b1 0b 28
        E 0 81 40 00
        E 0 91 3c 28
        E 16 b1 0b 20
        E 32 b1 0b 18
        E 16 b1 0b 10
        E 0 81 3c 00
        E 0 91 41 10
        E 16 b1 0b 08
        E 32 81 41 00
        E 16 b1 0b 28
        E 0 91 39 28
        E 16 b1 0b 20
        E 32 b1 0b 18
        E 16 b1 0b 10
        E 0 81 39 00
        E 0 91 3c 10
        E 48 b1 0c 20
        E 0 b1 0b 30
        E 0 81 3c 00
        E 0 91 23 30
        E 48 b1 0b 28
        E 64 b1 0b 20
        E 16 b1 0b 30
        E 0 81 23 00
        E 0 91 21 30
        E 64 b1 0b 28
        E 48 b1 0b 30
        E 0 81 21 00
        E 0 91 23 30
        E 16 b1 0b 28
        E 64 b1 0b 20
        E 48 b1 0b 30
        E 0 81 23 00
        E 0 91 21 30
        E 32 b1 0b 28
        E 64 b1 0b 20
        E 16 b1 0b 30
        E 0 81 21 00
        E 0 91 26 30
        E 48 b1 0b 28
        E 80 b1 0b 20
        E 64 b1 0b 18
        E 64 b1 0b 10
        E 80 b1 0b 08
        E 16 b1 0b 30
        E 0 81 26 00
        E 0 91 2f 30
        E 48 b1 0b 28
        E 64 b1 0b 20
        E 80 b1 0b 18
        E 48 b1 0b 30
        E 0 81 2f 00
        E 0 91 2d 30
        E 16 b1 0b 28
        E 64 b1 0b 20
        E 32 b1 0b 30
        E 0 81 2d 00
        E 0 91 2a 30
        E 48 b1 0b 28
        E 64 b1 0b 20
        E 16 b1 0b 30
        E 0 81 2a 00
        E 0 91 28 30
        E 48 b1 0b 28
        E 64 b1 0b 30
        E 0 81 28 00
        E 0 91 26 30
        E 16 b1 0b 28
        E 64 b1 0b 20
        E 48 b1 0b 30
        E 0 81 26 00
        E 0 91 21 30
        E 16 b1 0b 28
        E 80 b1 0b 20
        E 64 b1 0b 18
        E 64 b1 0b 10
        E 80 b1 0b 08
        E 48 b1 0b 30
        E 0 81 21 00
        E 0 91 23 30
        E 16 b1 0b 28
        E 64 b1 0b 20
        E 32 b1 0b 30
        E 0 81 23 00
        E 0 91 21 30
        E 48 b1 0b 28
        E 64 b1 0b 20
        E 16 b1 0b 30
        E 0 81 21 00
        E 0 91 23 30
        E 48 b1 0b 28
        E 64 b1 0b 30
        E 0 81 23 00
        E 0 91 21 30
        E 16 b1 0b 28
        E 64 b1 0b 20
        E 48 b1 0b 30
        E 0 81 21 00
        E 0 91 26 30
        E 16 b1 0b 28
        E 80 b1 0b 20
        E 64 b1 0b 18
        E 80 b1 0b 10
        E 64 b1 0b 08
        E 48 b1 0b 30
        E 0 81 26 00
        E 0 91 2f 30
        E 16 b1 0b 28
        E 80 b1 0b 20
        E 64 b1 0b 18
        E 64 b1 0b 10
        E 16 b1 0b 30
        E 0 81 2f 00
        E 0 91 2d 30
        E 64 b1 0b 28
        E 48 b1 0b 30
        E 0 81 2d 00
        E 0 91 2a 30
        E 16 b1 0b 28
        E 64 b1 0b 20
        E 48 b1 0b 30
        E 0 81 2a 00
        E 0 91 28 30
        E 32 b1 0b 28
        E 64 b1 0b 20
        E 16 b1 0b 30
        E 0 81 28 00
        E 0 91 26 30
        E 48 b1 0b 28
        E 64 b1 0b 30
        E 0 81 26 00
        E 0 91 21 30
        E 16 b1 0b 28
        E 64 b1 0b 20
        E 64 b1 0b 18
        E 80 b1 0b 10
        E 64 b1 0b 08
        E 64 81 21 00
        E 16 b1 0b 30
        E 0 91 23 30
        E 64 b1 0b 28
        E 48 b1 0b 30
        E 0 81 23 00
        E 0 91 21 30
        E 16 b1 0b 28
        E 64 b1 0b 20
        E 48 b1 0b 30
        E 0 81 21 00
        E 0 91 23 30
        E 32 b1 0b 28
        E 64 b1 0b 20
        E 16 b1 0b 30
        E 0 81 23 00
        E 0 91 21 30
        E 48 b1 0b 28
        E 64 b1 0b 30
        E 0 81 21 00
        E 0 91 26 30
        E 16 b1 0b 28
        E 64 b1 0b 20
        E 64 b1 0b 18
        E 80 b1 0b 10
        E 64 b1 0b 08
        E 64 81 26 00
        E 16 b1 0b 30
        E 0 91 2f 30
        E 64 b1 0b 28
        E 64 b1 0b 20
        E 64 b1 0b 18
        E 32 b1 0b 30
        E 0 81 2f 00
        E 0 91 2d 30
        E 48 b1 0b 28
        E 64 b1 0b 20
        E 16 b1 0b 30
        E 0 81 2d 00
        E 0 91 2a 30
        E 48 b1 0b 28
        E 64 b1 0b 30
        E 0 81 2a 00
        E 0 91 28 30
        E 16 b1 0b 28
        E 64 b1 0b 20
        E 48 b1 0b 30
        E 0 81 28 00
        E 0 91 26 30
        E 16 b1 0b 28
        E 80 b1 0b 20
        E 16 b1 0b 30
        E 0 81 26 00
        E 0 91 21 30
        E 48 b1 0b 28
        E 64 b1 0b 20
        E 80 b1 0b 18
        E 64 b1 0b 10
        E 64 b1 0b 08
        E 32 b1 0b 30
        E 0 81 21 00
        E 0 91 23 30
        E 48 b1 0b 28
        E 64 b1 0b 20
        E 16 b1 0b 30
        E 0 81 23 00
        E 0 91 21 30
        E 48 b1 0b 28
        E 64 b1 0b 30
        E 0 81 21 00
        E 0 91 23 30
        E 16 b1 0b 28
        E 64 b1 0b 20
        E 48 b1 0b 30
        E 0 81 23 00
        E 0 91 21 30
        E 16 b1 0b 28
        E 80 b1 0b 20
        E 16 b1 0b 30
        E 0 81 21 00
        E 0 91 26 30
        E 48 b1 0b 28
        E 64 b1 0b 20
        E 80 b1 0b 18
        E 64 b1 0b 10
        E 64 b1 0b 08
        E 32 b1 0b 30
        E 0 81 26 00
        E 0 91 2f 30
        E 48 b1 0b 28
        E 64 b1 0b 20
        E 80 b1 0b 18
        E 48 b1 0b 30
        E 0 81 2f 00
        E 0 91 2d 30
        E 16 b1 0b 28
        E 64 b1 0b 20
        E 48 b1 0b 30
        E 0 81 2d 00
        E 0 91 2a 30
        E 32 b1 0b 28
        E 64 b1 0b 20
        E 16 b1 0b 30
        E 0 81 2a 00
        E 0 91 28 30
        E 48 b1 0b 28
        E 64 b1 0b 30
        E 0 81 28 00
        E 0 91 26 30
        E 16 b1 0b 28
        E 64 b1 0b 20
        E 48 b1 0b 30
        E 0 81 26 00
        E 0 91 21 30
        E 16 b1 0b 28
        E 80 b1 0b 20
        E 64 b1 0b 18
        E 64 b1 0b 10
        E 80 b1 0b 08
        E 48 b1 0c 10
        E 0 b1 0b 30
        E 0 81 21 00
        E 0 91 2f 30
        E 16 b1 0b 28
        E 64 b1 0b 20
        E 48 b1 0b 30
        E 64 b1 0b 28
        E 64 b1 0b 20
        E 64 b1 0b 18
        E 32 b1 0b 30
        E 48 b1 0b 28
        E 64 b1 0b 20
        E 64 b1 0b 18
        E 64 b1 0b 30
        E 16 b1 0b 28
        E 64 b1 0b 20
        E 64 b1 0b 18
        E 80 b1 0b 10
        E 64 b1 0b 08
        E 64 81 2f 00
        E 16 b1 0c 40
        E 0 b1 0b 28
        E 0 91 28 28
        E 48 81 28 00
        E 64 91 34 28
        E 16 b1 0b 20
        E 48 b1 0b 10
        E 0 81 34 00
        E 0 91 28 10
        E 32 b1 0b 08
        E 16 b1 0b 28
        E 48 b1 0b 20
        E 16 b1 0b 10
        E 0 81 28 00
        E 0 91 34 10
        E 48 b1 0b 08
        E 16 b1 0b 28
        E 0 81 34 00
        E 0 91 32 28
        E 48 b1 0b 10
        E 0 81 32 00
        E 0 91 28 10
        E 16 b1 0b 08
        E 48 b1 0b 28
        E 16 b1 0b 20
        E 48 b1 0b 10
        E 0 81 28 00
        E 0 91 32 10
        E 16 b1 0b 08
        E 48 b1 0b 28
        E 0 81 32 00
        E 0 91 2f 28
        E 32 b1 0b 20
        E 16 b1 0b 10
        E 0 81 2f 00
        E 0 91 28 10
        E 48 b1 0b 08
        E 16 b1 0b 28
        E 0 81 28 00
        E 0 91 2d 28
        E 48 b1 0b 20
        E 16 b1 0b 10
        E 0 81 2d 00
        E 0 91 2f 10
        E 48 b1 0b 28
        E 0 81 2f 00
        E 0 91 2b 28
        E 16 b1 0b 20
        E 48 b1 0b 10
        E 0 81 2b 00
        E 0 91 2d 10
        E 16 b1 0b 08
        E 48 b1 0c 10
        E 0 b1 0b 30
        E 0 81 2d 00
        E 0 91 32 30
        E 16 b1 0b 28
        E 80 b1 0b 20
        E 16 b1 0b 30
        E 48 b1 0b 28
        E 64 b1 0b 20
        E 80 b1 0b 18
        E 48 b1 0b 30
        E 16 b1 0b 28
        E 64 b1 0b 20
        E 80 b1 0b 18
        E 64 b1 0b 10
        E 16 b1 0b 30
        E 48 b1 0b 28
        E 80 b1 0b 20
        E 64 b1 0b 18
        E 64 b1 0b 10
        E 80 b1 0b 08
        E 16 b1 0c 40
        E 0 b1 0b 28
        E 0 81 32 00
        E 0 91 28 28
        E 48 b1 0b 30
        E 16 81 28 00
        E 64 b1 0b 28
        E 0 91 34 28
        E 48 b1 0b 10
        E 0 81 34 00
        E 0 91 28 10
        E 16 b1 0b 08
        E 48 b1 0b 28
        E 16 b1 0b 20
        E 48 b1 0b 10
        E 0 81 28 00
        E 0 91 34 10
        E 16 b1 0b 08
        E 32 b1 0b 28
        E 0 81 34 00
        E 0 91 32 28
        E 48 b1 0b 20
        E 16 b1 0b 10
        E 0 81 32 00
        E 0 91 28 10
        E 48 b1 0b 08
        E 16 b1 0b 28
        E 48 b1 0b 20
        E 16 b1 0b 10
        E 0 81 28 00
        E 0 91 32 10
        E 48 b1 0b 28
        E 0 81 32 00
        E 0 91 2f 28
        E 16 b1 0b 20
        E 48 b1 0b 10
        E 0 81 2f 00
        E 0 91 28 10
        E 16 b1 0b 08
        E 48 b1 0b 28
        E 0 81 28 00
        E 0 91 2d 28
        E 16 b1 0b 20
        E 32 b1 0b 10
        E 0 81 2d 00
        E 0 91 2f 10
        E 48 b1 0b 08
        E 16 b1 0b 28
        E 0 81 2f 00
        E 0 91 2b 28
        E 48 b1 0b 20
        E 16 b1 0b 10
        E 0 81 2b 00
        E 0 91 2d 10
        E 48 b1 0b 08
        E 16 b1 0c 10
        E 0 b1 0b 30
        E 0 81 2d 00
        E 0 91 2f 30
        E 64 b1 0b 28
        E 48 b1 0b 30
        E 48 b1 0b 28
        E 80 b1 0b 20
        E 64 b1 0b 18
        E 48 b1 0b 30
        E 16 b1 0b 28
        E 80 b1 0b 20
        E 64 b1 0b 18
        E 64 b1 0b 10
        E 16 b1 0b 30
        E 64 b1 0b 28
        E 64 b1 0b 20
        E 64 b1 0b 18
        E 80 b1 0b 10
        E 64 b1 0b 08
        E 16 b1 0c 40
        E 0 b1 0b 28
        E 0 81 2f 00
        E 0 91 28 28
        E 48 b1 0b 30
        E 16 81 28 00
        E 48 b1 0b 28
        E 0 91 34 28
        E 48 b1 0b 20
        E 16 b1 0b 10
        E 0 81 34 00
        E 0 91 28 10
        E 48 b1 0b 08
        E 16 b1 0b 28
        E 48 b1 0b 20
        E 16 b1 0b 10
        E 0 81 28 00
        E 0 91 34 10
        E 48 b1 0b 28
        E 0 81 34 00
        E 0 91 32 28
        E 16 b1 0b 20
        E 48 b1 0b 10
        E 0 81 32 00
        E 0 91 28 10
        E 16 b1 0b 08
        E 48 b1 0b 28
        E 32 b1 0b 20
        E 16 b1 0b 10
        E 0 81 28 00
        E 0 91 32 10
        E 48 b1 0b 08
        E 16 b1 0b 28
        E 0 81 32 00
        E 0 91 2f 28
        E 48 b1 0b 20
        E 16 b1 0b 10
        E 0 81 2f 00
        E 0 91 28 10
        E 48 b1 0b 28
        E 0 81 28 00
        E 0 91 2d 28
        E 16 b1 0b 20
        E 48 b1 0b 10
        E 0 81 2d 00
        E 0 91 2f 10
        E 16 b1 0b 08
        E 48 b1 0b 28
        E 0 81 2f 00
        E 0 91 2b 28
        E 16 b1 0b 20
        E 48 b1 0b 10
        E 0 81 2b 00
        E 0 91 2d 10
        E 32 b1 0b 08
        E 16 b1 0c 10
        E 0 b1 0b 30
        E 0 81 2d 00
        E 0 91 2b 30
        E 48 b1 0b 28
        E 64 b1 0b 20
        E 16 b1 0b 30
        E 64 b1 0b 28
        E 64 b1 0b 20
        E 64 b1 0b 18
        E 48 b1 0b 30
        E 32 b1 0b 28
        E 64 b1 0b 20
        E 64 b1 0b 18
        E 64 b1 0b 30
        E 16 b1 0b 28
        E 64 b1 0b 20
        E 64 b1 0b 18
        E 80 b1 0b 10
        E 64 b1 0b 08
        E 64 81 2b 00
        E 16 b1 0c 40
        E 0 b1 0b 28
        E 0 91 28 28
        E 48 81 28 00
        E 64 91 34 28
        E 16 b1 0b 20
        E 48 b1 0b 10
        E 0 81 34 00
        E 0 91 28 10
        E 16 b1 0b 08
        E 48 b1 0b 28
        E 32 b1 0b 20
        E 16 b1 0b 10
        E 0 81 28 00
        E 0 91 34 10
        E 48 b1 0b 08
        E 16 b1 0b 28
        E 0 81 34 00
        E 0 91 32 28
        E 48 b1 0b 20
        E 16 b1 0b 10
        E 0 81 32 00
        E 0 91 28 10
        E 48 b1 0b 28
        E 16 b1 0b 20
        E 48 b1 0b 10
        E 0 81 28 00
        E 0 91 32 10
        E 16 b1 0b 08
        E 48 b1 0b 28
        E 0 81 32 00
        E 0 91 2f 28
        E 16 b1 0b 20
        E 32 b1 0b 10
        E 0 81 2f 00
        E 0 91 28 10
        E 48 b1 0b 08
        E 16 b1 0b 28
        E 0 81 28 00
        E 0 91 2d 28
        E 48 b1 0b 20
        E 16 b1 0b 10
        E 0 81 2d 00
        E 0 91 2f 10
        E 48 b1 0b 08
        E 16 b1 0b 28
        E 0 81 2f 00
        E 0 91 2b 28
        E 48 b1 0b 10
        E 0 81 2b 00
        E 0 91 2d 10
        E 16 b1 0b 08
        E 48 b1 0c 10
        E 0 b1 0b 30
        E 0 81 2d 00
        E 0 91 2f 30
        E 16 b1 0b 28
        E 64 b1 0b 20
        E 32 b1 0b 30
        E 48 b1 0b 28
        E 64 b1 0b 20
        E 64 b1 0b 18
        E 64 b1 0b 30
        E 16 b1 0b 28
        E 64 b1 0b 20
        E 64 b1 0b 18
        E 80 b1 0b 10
        E 16 b1 0b 30
        E 48 b1 0b 28
        E 64 b1 0b 20
        E 80 b1 0b 18
        E 64 b1 0b 10
        E 64 b1 0b 08
        E 32 b1 0c 40
        E 0 b1 0b 28
        E 0 81 2f 00
        E 0 91 28 28
        E 48 b1 0b 30
        E 16 81 28 00
        E 64 b1 0b 28
        E 0 91 34 28
        E 48 b1 0b 20
        E 16 b1 0b 10
        E 0 81 34 00
        E 0 91 28 10
        E 48 b1 0b 28
        E 16 b1 0b 20
        E 48 b1 0b 10
        E 0 81 28 00
        E 0 91 34 10
        E 16 b1 0b 08
        E 48 b1 0b 28
        E 0 81 34 00
        E 0 91 32 28
        E 16 b1 0b 20
        E 32 b1 0b 10
        E 0 81 32 00
        E 0 91 28 10
        E 48 b1 0b 08
        E 16 b1 0b 28
        E 48 b1 0b 20
        E 16 b1 0b 10
        E 0 81 28 00
        E 0 91 32 10
        E 48 b1 0b 08
        E 16 b1 0b 28
        E 0 81 32 00
        E 0 91 2f 28
        E 48 b1 0b 10
        E 0 81 2f 00
        E 0 91 28 10
        E 16 b1 0b 08
        E 48 b1 0b 28
        E 0 81 28 00
        E 0 91 2d 28
        E 16 b1 0b 20
        E 48 b1 0b 10
        E 0 81 2d 00
        E 0 91 2f 10
        E 32 b1 0b 08
        E 16 b1 0b 28
        E 0 81 2f 00
        E 0 91 2b 28
        E 48 b1 0b 20
        E 16 b1 0b 10
        E 0 81 2b 00
        E 0 91 2d 10
        E 48 b1 0b 08
        E 16 b1 0c 10
        E 0 b1 0b 30
        E 0 81 2d 00
        E 0 91 32 30
        E 64 b1 0b 28
        E 48 b1 0b 30
        E 48 b1 0b 28
        E 64 b1 0b 20
        E 80 b1 0b 18
        E 48 b1 0b 30
        E 16 b1 0b 28
        E 64 b1 0b 20
        E 80 b1 0b 18
        E 64 b1 0b 10
        E 16 b1 0b 30
        E 48 b1 0b 28
        E 80 b1 0b 20
        E 64 b1 0b 18
        E 64 b1 0b 10
        E 80 b1 0b 08
        E 16 b1 0c 40
        E 0 b1 0b 28
        E 0 81 32 00
        E 0 91 28 28
        E 48 b1 0b 30
        E 16 81 28 00
        E 64 b1 0b 28
        E 0 91 34 28
        E 48 b1 0b 10
        E 0 81 34 00
        E 0 91 28 10
        E 16 b1 0b 08
        E 48 b1 0b 28
        E 16 b1 0b 20
        E 48 b1 0b 10
        E 0 81 28 00
        E 0 91 34 10
        E 16 b1 0b 08
        E 32 b1 0b 28
        E 0 81 34 00
        E 0 91 32 28
        E 48 b1 0b 20
        E 16 b1 0b 10
        E 0 81 32 00
        E 0 91 28 10
        E 48 b1 0b 08
        E 16 b1 0b 28
        E 48 b1 0b 20
        E 16 b1 0b 10
        E 0 81 28 00
        E 0 91 32 10
        E 48 b1 0b 28
        E 0 81 32 00
        E 0 91 2f 28
        E 16 b1 0b 20
        E 48 b1 0b 10
        E 0 81 2f 00
        E 0 91 28 10
        E 16 b1 0b 08
        E 48 b1 0b 28
        E 0 81 28 00
        E 0 91 2d 28
        E 16 b1 0b 20
        E 32 b1 0b 10
        E 0 81 2d 00
        E 0 91 2f 10
        E 48 b1 0b 08
        E 16 b1 0b 28
        E 0 81 2f 00
        E 0 91 2b 28
        E 48 b1 0b 20
        E 16 b1 0b 10
        E 0 81 2b 00
        E 0 91 2d 10
        E 48 b1 0c 10
        E 0 b1 0b 30
        E 0 81 2d 00
        E 0 91 2b 30
        E 16 b1 0b 28
        E 64 b1 0b 20
        E 48 b1 0b 30
        E 48 b1 0b 28
        E 80 b1 0b 20
        E 64 b1 0b 18
        E 48 b1 0b 30
        E 16 b1 0b 28
        E 80 b1 0b 20
        E 64 b1 0b 18
        E 64 b1 0b 10
        E 16 b1 0b 30
        E 64 b1 0b 28
        E 64 b1 0b 20
        E 64 b1 0b 18
        E 80 b1 0b 10
        E 64 b1 0b 08
        E 16 b1 0c 40
        E 0 b1 0b 28
        E 0 81 2b 00
        E 0 91 28 28
        E 48 b1 0b 30
        E 16 81 28 00
        E 48 b1 0b 28
        E 0 91 34 28
        E 48 b1 0b 20
        E 16 b1 0b 10
        E 0 81 34 00
        E 0 91 28 10
        E 48 b1 0b 08
        E 16 b1 0b 28
        E 48 b1 0b 10
        E 0 81 28 00
        E 0 91 34 10
        E 16 b1 0b 08
        E 48 b1 0b 28
        E 0 81 34 00
        E 0 91 32 28
        E 16 b1 0b 20
        E 48 b1 0b 10
        E 0 81 32 00
        E 0 91 28 10
        E 16 b1 0b 08
        E 48 b1 0b 28
        E 32 b1 0b 20
        E 16 b1 0b 10
        E 0 81 28 00
        E 0 91 32 10
        E 48 b1 0b 08
        E 16 b1 0b 28
        E 0 81 32 00
        E 0 91 2f 28
        E 48 b1 0b 20
        E 16 b1 0b 10
        E 0 81 2f 00
        E 0 91 28 10
        E 48 b1 0b 28
        E 0 81 28 00
        E 0 91 2d 28
        E 16 b1 0b 20
        E 48 b1 0b 10
        E 0 81 2d 00
        E 0 91 2f 10
        E 16 b1 0b 08
        E 48 b1 0b 28
        E 0 81 2f 00
        E 0 91 2b 28
        E 16 b1 0b 20
        E 48 b1 0b 10
        E 0 81 2b 00
        E 0 91 2d 10
        E 32 b1 0b 08
        E 16 b1 0c 10
        E 0 b1 0b 30
        E 0 81 2d 00
        E 0 91 2f 30
        E 48 b1 0b 28
        E 64 b1 0b 20
        E 16 b1 0b 30
        E 64 b1 0b 28
        E 64 b1 0b 20
        E 64 b1 0b 18
        E 32 b1 0b 30
        E 48 b1 0b 28
        E 64 b1 0b 20
        E 64 b1 0b 18
        E 64 b1 0b 30
        E 16 b1 0b 28
        E 64 b1 0b 20
        E 64 b1 0b 18
        E 80 b1 0b 10
        E 64 b1 0b 08
        E 64 81 2f 00
        E 16 b1 0c 40
        E 0 b1 0b 28
        E 0 91 28 28
        E 48 81 28 00
        E 64 91 34 28
        E 16 b1 0b 20
        E 48 b1 0b 10
        E 0 81 34 00
        E 0 91 28 10
        E 16 b1 0b 08
        E 32 b1 0b 28
        E 48 b1 0b 20
        E 16 b1 0b 10
        E 0 81 28 00
        E 0 91 34 10
        E 48 b1 0b 08
        E 16 b1 0b 28
        E 0 81 34 00
        E 0 91 32 28
        E 48 b1 0b 20
        E 16 b1 0b 10
        E 0 81 32 00
        E 0 91 28 10
        E 48 b1 0b 28
        E 16 b1 0b 20
        E 48 b1 0b 10
        E 0 81 28 00
        E 0 91 32 10
        E 16 b1 0b 08
        E 48 b1 0b 28
        E 0 81 32 00
        E 0 91 2f 28
        E 16 b1 0b 20
        E 32 b1 0b 10
        E 0 81 2f 00
        E 0 91 28 10
        E 48 b1 0b 08
        E 16 b1 0b 28
        E 0 81 28 00
        E 0 91 2d 28
        E 48 b1 0b 20
        E 16 b1 0b 10
        E 0 81 2d 00
        E 0 91 2f 10
        E 48 b1 0b 08
        E 16 b1 0b 28
        E 0 81 2f 00
        E 0 91 2b 28
        E 48 b1 0b 10
        E 0 81 2b 00
        E 0 91 2d 10
        E 16 b1 0b 08
        E 48 b1 0c 10
        E 0 b1 0b 30
        E 0 81 2d 00
        E 0 91 3c 30
        E 16 b1 0b 28
        E 64 b1 0b 20
        E 32 b1 0b 30
        E 48 b1 0b 28
        E 64 b1 0b 20
        E 80 b1 0b 18
        E 48 b1 0b 30
        E 16 b1 0b 28
        E 64 b1 0b 20
        E 80 b1 0b 18
        E 64 b1 0b 10
        E 64 b1 0b 08
        E 80 81 3c 00
        E 224 b1 0b 30
        E 0 91 3e 30
        E 48 b1 0b 28
        E 64 b1 0b 20
        E 16 b1 0b 30
        E 64 b1 0b 28
        E 64 b1 0b 20
        E 64 b1 0b 18
        E 48 b1 0b 30
        E 32 b1 0b 28
        E 64 b1 0b 20
        E 64 b1 0b 18
        E 80 b1 0b 10
        E 64 b1 0b 08
        E 64 81 3e 00
        E 224 b1 0b 30
        E 0 91 39 30
        E 64 b1 0b 28
        E 48 b1 0b 30
        E 16 b1 0b 28
        E 64 b1 0b 20
        E 80 b1 0b 18
        E 64 b1 0b 10
        E 16 b1 0b 30
        E 48 b1 0b 28
        E 80 b1 0b 20
        E 64 b1 0b 18
        E 64 b1 0b 10
        E 80 b1 0b 08
        E 64 81 39 00
        E 80 b1 0c 20
        E 0 b1 0b 30
        E 0 91 32 30
        E 32 b1 0b 28
        E 32 b1 0b 20
        E 32 b1 0b 18
        E 32 b1 0b 10
        E 32 b1 0b 08
        E 32 81 32 00
        E 32 b1 0b 30
        E 0 91 31 30
        E 16 b1 0b 28
        E 32 b1 0b 20
        E 32 b1 0b 18
        E 32 b1 0b 10
        E 16 b1 0b 30
        E 0 81 31 00
        E 0 91 2f 30
        E 16 b1 0b 28
        E 32 b1 0b 20
        E 48 b1 0b 18
        E 16 b1 0b 30
        E 0 81 2f 00
        E 0 91 2d 30
        E 16 b1 0b 28
        E 32 b1 0b 20
        E 32 b1 0b 18
        E 32 b1 0b 10
        E 16 b1 0b 30
        E 0 81 2d 00
        E 0 91 2f 30
        E 16 b1 0b 28
        E 48 b1 0b 20
        E 32 b1 0b 18
        E 16 b1 0b 30
        E 0 81 2f 00
        E 0 91 2d 30
        E 16 b1 0b 28
        E 32 b1 0b 20
        E 32 b1 0b 18
        E 32 b1 0b 10
        E 48 b1 0b 08
        E 32 81 2d 00
        E 48 b1 0b 30
        E 0 91 2d 30
        E 16 b1 0b 28
        E 32 b1 0b 20
        E 32 b1 0b 18
        E 32 b1 0c 10
        E 0 b1 0b 30
        E 0 81 2d 00
        E 0 91 3c 30
        E 16 b1 0b 28
        E 32 b1 0b 20
        E 32 b1 0b 18
        E 32 b1 0b 10
        E 16 b1 0b 30
        E 48 b1 0b 28
        E 80 b1 0b 20
        E 64 b1 0b 18
        E 48 b1 0b 30
        E 16 b1 0b 28
        E 80 b1 0b 20
        E 64 b1 0b 18
        E 80 b1 0b 10
        E 64 b1 0b 08
        E 64 81 3c 00
        E 224 b1 0b 30
        E 0 91 3e 30
        E 64 b1 0b 28
        E 48 b1 0b 30
        E 16 b1 0b 28
        E 64 b1 0b 20
        E 80 b1 0b 18
        E 64 b1 0b 10
        E 16 b1 0b 30
        E 48 b1 0b 28
        E 80 b1 0b 20
        E 64 b1 0b 18
        E 64 b1 0b 10
        E 80 b1 0b 08
        E 64 81 3e 00
        E 192 b1 0b 30
        E 0 91 39 30
        E 48 b1 0b 28
        E 64 b1 0b 20
        E 16 b1 0b 30
        E 64 b1 0b 28
        E 64 b1 0b 20
        E 64 b1 0b 18
        E 32 b1 0b 30
        E 48 b1 0b 28
        E 64 b1 0b 20
        E 64 b1 0b 18
        E 80 b1 0b 10
        E 64 b1 0b 08
        E 80 81 39 00
        E 80 b1 0c 20
        E 0 b1 0b 30
        E 0 91 32 30
        E 16 b1 0b 28
        E 32 b1 0b 20
        E 32 b1 0b 18
        E 48 b1 0b 10
        E 32 b1 0b 08
        E 32 81 32 00
        E 48 b1 0b 30
        E 0 91 31 30
        E 16 b1 0b 28
        E 32 b1 0b 20
        E 48 b1 0b 18
        E 16 b1 0b 30
        E 0 81 31 00
        E 0 91 2f 30
        E 16 b1 0b 28
        E 32 b1 0b 20
        E 32 b1 0b 18
        E 32 b1 0b 10
        E 16 b1 0b 30
        E 0 81 2f 00
        E 0 91 2d 30
        E 16 b1 0b 28
        E 48 b1 0b 20
        E 32 b1 0b 18
        E 16 b1 0b 30
        E 0 81 2d 00
        E 0 91 2f 30
        E 16 b1 0b 28
        E 32 b1 0b 20
        E 32 b1 0b 18
        E 32 b1 0b 10
        E 16 b1 0b 30
        E 0 81 2f 00
        E 0 91 2d 30
        E 32 b1 0b 28
        E 32 b1 0b 20
        E 32 b1 0b 18
        E 32 b1 0b 10
        E 32 b1 0b 08
        E 32 81 2d 00
        E 32 b1 0b 30
        E 0 91 2d 30
        E 16 b1 0b 28
        E 32 b1 0b 20
        E 32 b1 0b 18
        E 32 b1 0b 10
        E 16 b1 0c 40
        E 0 b1 0b 28
        E 0 81 2d 00
        E 0 91 35 28
        E 16 b1 0b 20
        E 32 b1 0b 18
        E 16 81 35 00
        E 48 b1 0b 28
        E 0 91 39 28
        E 16 b1 0b 20
        E 32 b1 0b 18
        E 16 b1 0b 10
        E 0 81 39 00
        E 0 91 35 10
        E 16 b1 0b 08
        E 32 81 35 00
        E 16 b1 0b 28
        E 0 91 3c 28
        E 16 b1 0b 20
        E 32 b1 0b 10
        E 0 81 3c 00
        E 0 91 39 10
        E 16 b1 0b 08
        E 32 81 39 00
        E 16 b1 0b 28
        E 0 91 40 28
        E 16 b1 0b 20
        E 32 b1 0b 18
        E 16 b1 0b 10
        E 0 81 40 00
        E 0 91 3c 10
        E 16 b1 0b 08
        E 32 81 3c 00
        E 16 b1 0b 28
        E 0 91 41 28
        E 32 b1 0b 20
        E 16 b1 0b 10
        E 0 81 41 00
        E 0 91 40 10
        E 16 b1 0b 08
        E 32 81 40 00
        E 16 b1 0b 28
        E 0 91 45 28
        E 16 b1 0b 20
        E 32 b1 0b 18
        E 16 b1 0b 10
        E 0 81 45 00
        E 0 91 41 10
        E 16 b1 0b 08
        E 32 b1 0b 28
        E 0 81 41 00
        E 0 91 48 28
        E 16 b1 0b 20
        E 32 b1 0b 18
        E 16 b1 0b 10
        E 0 81 48 00
        E 0 91 45 10
        E 16 b1 0b 08
        E 32 81 45 00
        E 16 b1 0b 28
        E 0 91 40 28
        E 16 b1 0b 20
        E 32 b1 0b 10
        E 0 81 40 00
        E 0 91 48 10
        E 16 b1 0b 08
        E 32 81 48 00
        E 16 b1 0b 28
        E 0 91 4c 28
        E 16 b1 0b 20
        E 32 b1 0b 18
        E 16 b1 0b 10
        E 0 81 4c 00
        E 0 91 40 10
        E 16 b1 0b 08
        E 32 81 40 00
        E 16 b1 0b 28
        E 0 91 48 28
        E 32 b1 0b 20
        E 16 b1 0b 10
        E 0 81 48 00
        E 0 91 4c 10
        E 16 b1 0b 08
        E 32 81 4c 00
        E 16 b1 0b 28
        E 0 91 45 28
        E 16 b1 0b 20
        E 32 b1 0b 18
        E 16 b1 0b 10
        E 0 81 45 00
        E 0 91 48 10
        E 16 b1 0b 08
        E 32 b1 0b 28
        E 0 81 48 00
        E 0 91 41 28
        E 16 b1 0b 20
        E 32 b1 0b 18
        E 16 b1 0b 10
        E 0 81 41 00
        E 0 91 45 10
        E 16 b1 0b 08
        E 32 81 45 00
        E 16 b1 0b 28
        E 0 91 40 28
        E 16 b1 0b 20
        E 32 b1 0b 18
        E 16 b1 0b 10
        E 0 81 40 00
        E 0 91 41 10
        E 32 b1 0b 08
        E 16 b1 0b 28
        E 16 b1 0b 20
        E 32 b1 0b 18
        E 16 b1 0b 10
        E 0 81 41 00
        E 0 91 40 10
        E 16 b1 0b 08
        E 32 81 40 00
        E 16 b1 0b 28
        E 0 91 3c 28
        E 16 b1 0b 20
        E 32 b1 0b 10
        E 0 81 3c 00
        E 0 91 41 10
        E 16 b1 0b 08
        E 32 81 41 00
        E 16 b1 0b 28
        E 0 91 39 28
        E 16 b1 0b 20
        E 32 b1 0b 18
        E 16 b1 0b 10
        E 0 81 39 00
        E 0 91 3c 10
        E 64 b1 0b 28
        E 0 81 3c 00
        E 0 91 35 28
        E 32 b1 0b 20
        E 16 81 35 00
        E 64 b1 0b 28
        E 0 91 39 28
        E 16 b1 0b 20
        E 32 b1 0b 18
        E 16 b1 0b 10
        E 0 81 39 00
        E 0 91 35 10
        E 16 b1 0b 08
        E 32 b1 0b 28
        E 0 81 35 00
        E 0 91 3c 28
        E 16 b1 0b 20
        E 32 b1 0b 18
        E 16 b1 0b 10
        E 0 81 3c 00
        E 0 91 39 10
        E 16 b1 0b 08
        E 32 81 39 00
        E 16 b1 0b 28
        E 0 91 40 28
        E 16 b1 0b 20
        E 32 b1 0b 18
        E 16 b1 0b 10
        E 0 81 40 00
        E 0 91 3c 10
        E 32 b1 0b 08
        E 16 b1 0b 28
        E 0 81 3c 00
        E 0 91 41 28
        E 16 b1 0b 20
        E 32 b1 0b 18
        E 16 b1 0b 10
        E 0 81 41 00
        E 0 91 40 10
        E 16 b1 0b 08
        E 32 81 40 00
        E 16 b1 0b 28
        E 0 91 45 28
        E 16 b1 0b 20
        E 32 b1 0b 10
        E 0 81 45 00
        E 0 91 41 10
        E 16 b1 0b 08
        E 32 81 41 00
        E 16 b1 0b 28
        E 0 91 48 28
        E 16 b1 0b 20
        E 32 b1 0b 18
        E 16 b1 0b 10
        E 0 81 48 00
        E 0 91 45 10
        E 16 b1 0b 08
        E 32 81 45 00
        E 16 b1 0b 28
        E 0 91 40 28
        E 32 b1 0b 20
        E 16 b1 0b 10
        E 0 81 40 00
        E 0 91 48 10
        E 16 b1 0b 08
        E 32 81 48 00
        E 16 b1 0b 28
        E 0 91 4c 28
        E 16 b1 0b 20
        E 32 b1 0b 18
        E 16 b1 0b 10
        E 0 81 4c 00
        E 0 91 40 10
        E 32 b1 0b 08
        E 16 b1 0b 28
        E 0 81 40 00
        E 0 91 48 28
        E 16 b1 0b 20
        E 32 b1 0b 18
        E 16 b1 0b 10
        E 0 81 48 00
        E 0 91 4c 10
        E 16 b1 0b 08
        E 32 81 4c 00
        E 16 b1 0b 28
        E 0 91 45 28
        E 16 b1 0b 20
        E 32 b1 0b 10
        E 0 81 45 00
        E 0 91 48 10
        E 16 b1 0b 08
        E 32 81 48 00
        E 16 b1 0b 28
        E 0 91 41 28
        E 16 b1 0b 20
        E 32 b1 0b 18
        E 16 b1 0b 10
        E 0 81 41 00
        E 0 91 45 10
        E 16 b1 0b 08
        E 32 81 45 00
        E 16 b1 0b 28
        E 0 91 40 28
        E 32 b1 0b 20
        E 16 b1 0b 10
        E 0 81 40 00
        E 0 91 41 10
        E 16 b1 0b 08
        E 32 81 41 00
        E 16 b1 0b 28
        E 0 91 41 28
        E 16 b1 0b 20
        E 32 b1 0b 18
        E 16 b1 0b 10
        E 0 81 41 00
        E 0 91 40 10
        E 16 b1 0b 08
        E 32 b1 0b 28
        E 0 81 40 00
        E 0 91 3c 28
        E 16 b1 0b 20
        E 32 b1 0b 18
        E 16 b1 0b 10
        E 0 81 3c 00
        E 0 91 41 10
        E 16 b1 0b 08
        E 32 81 41 00
        E 16 b1 0b 28
        E 0 91 39 28
        E 16 b1 0b 20
        E 32 b1 0b 18
        E 16 b1 0b 10
        E 0 81 39 00
        E 0 91 3c 10
        E 48 b1 0c 20
        E 0 b1 0b 30
        E 0 81 3c 00
        E 0 91 23 30
        E 48 b1 0b 28
        E 64 b1 0b 20
        E 16 b1 0b 30
        E 0 81 23 00
        E 0 91 21 30
        E 64 b1 0b 28
        E 48 b1 0b 30
        E 0 81 21 00
        E 0 91 23 30
        E 16 b1 0b 28
        E 64 b1 0b 20
        E 48 b1 0b 30
        E 0 81 23 00
        E 0 91 21 30
        E 32 b1 0b 28
        E 64 b1 0b 20
        E 16 b1 0b 30
        E 0 81 21 00
        E 0 91 26 30
        E 48 b1 0b 28
        E 80 b1 0b 20
        E 64 b1 0b 18
        E 64 b1 0b 10
        E 80 b1 0b 08
        E 16 b1 0b 30
        E 0 81 26 00
        E 0 91 2f 30
        E 48 b1 0b 28
        E 64 b1 0b 20
        E 80 b1 0b 18
        E 48 b1 0b 30
        E 0 81 2f 00
        E 0 91 2d 30
        E 16 b1 0b 28
        E 64 b1 0b 20
        E 32 b1 0b 30
        E 0 81 2d 00
        E 0 91 2a 30
        E 48 b1 0b 28
        E 64 b1 0b 20
        E 16 b1 0b 30
        E 0 81 2a 00
        E 0 91 28 30
        E 48 b1 0b 28
        E 64 b1 0b 30
        E 0 81 28 00
        E 0 91 26 30
        E 16 b1 0b 28
        E 64 b1 0b 20
        E 48 b1 0b 30
        E 0 81 26 00
        E 0 91 21 30
        E 16 b1 0b 28
        E 80 b1 0b 20
        E 64 b1 0b 18
        E 64 b1 0b 10
        E 80 b1 0b 08
        E 48 b1 0b 30
        E 0 81 21 00
        E 0 91 23 30
        E 16 b1 0b 28
        E 64 b1 0b 20
        E 32 b1 0b 30
        E 0 81 23 00
        E 0 91 21 30
        E 48 b1 0b 28
        E 64 b1 0b 20
        E 16 b1 0b 30
        E 0 81 21 00
        E 0 91 23 30
        E 48 b1 0b 28
        E 64 b1 0b 30
        E 0 81 23 00
        E 0 91 21 30
        E 16 b1 0b 28
        E 64 b1 0b 20
        E 48 b1 0b 30
        E 0 81 21 00
        E 0 91 26 30
        E 16 b1 0b 28
        E 80 b1 0b 20
        E 64 b1 0b 18
        E 64 b1 0b 10
        E 80 b1 0b 08
        E 48 b1 0b 30
        E 0 81 26 00
        E 0 91 2f 30
        E 16 b1 0b 28
        E 64 b1 0b 20
        E 80 b1 0b 18
        E 64 b1 0b 10
        E 16 b1 0b 30
        E 0 81 2f 00
        E 0 91 2d 30
        E 48 b1 0b 28
        E 64 b1 0b 30
        E 0 81 2d 00
        E 0 91 2a 30
        E 16 b1 0b 28
        E 64 b1 0b 20
        E 48 b1 0b 30
        E 0 81 2a 00
        E 0 91 28 30
        E 32 b1 0b 28
        E 64 b1 0b 20
        E 16 b1 0b 30
        E 0 81 28 00
        E 0 91 26 30
        E 48 b1 0b 28
        E 64 b1 0b 30
        E 0 81 26 00
        E 0 91 21 30
        E 16 b1 0b 28
        E 64 b1 0b 20
        E 64 b1 0b 18
        E 80 b1 0b 10
        E 64 b1 0b 08
        E 64 81 21 00
        E 16 b1 0b 30
        E 0 91 23 30
        E 64 b1 0b 28
        E 48 b1 0b 30
        E 0 81 23 00
        E 0 91 21 30
        E 16 b1 0b 28
        E 64 b1 0b 20
        E 48 b1 0b 30
        E 0 81 21 00
        E 0 91 23 30
        E 32 b1 0b 28
        E 64 b1 0b 20
        E 16 b1 0b 30
        E 0 81 23 00
        E 0 91 21 30
        E 48 b1 0b 28
        E 64 b1 0b 30
        E 0 81 21 00
        E 0 91 26 30
        E 16 b1 0b 28
        E 64 b1 0b 20
        E 64 b1 0b 18
        E 80 b1 0b 10
        E 64 b1 0b 08
        E 64 81 26 00
        E 16 b1 0b 30
        E 0 91 2f 30
        E 64 b1 0b 28
        E 64 b1 0b 20
        E 64 b1 0b 18
        E 48 b1 0b 30
        E 0 81 2f 00
        E 0 91 2d 30
        E 32 b1 0b 28
        E 64 b1 0b 20
        E 16 b1 0b 30
        E 0 81 2d 00
        E 0 91 2a 30
        E 48 b1 0b 28
        E 64 b1 0b 30
        E 0 81 2a 00
        E 0 91 28 30
        E 16 b1 0b 28
        E 64 b1 0b 20
        E 48 b1 0b 30
        E 0 81 28 00
        E 0 91 26 30
        E 16 b1 0b 28
        E 80 b1 0b 20
        E 16 b1 0b 30
        E 0 81 26 00
        E 0 91 21 30
        E 48 b1 0b 28
        E 64 b1 0b 20
        E 80 b1 0b 18
        E 64 b1 0b 10
        E 64 b1 0b 08
        E 32 b1 0b 30
        E 0 81 21 00
        E 0 91 23 30
        E 48 b1 0b 28
        E 64 b1 0b 20
        E 16 b1 0b 30
        E 0 81 23 00
        E 0 91 21 30
        E 48 b1 0b 28
        E 64 b1 0b 30
        E 0 81 21 00
        E 0 91 23 30
        E 16 b1 0b 28
        E 64 b1 0b 20
        E 48 b1 0b 30
        E 0 81 23 00
        E 0 91 21 30
        E 16 b1 0b 28
        E 80 b1 0b 20
        E 16 b1 0b 30
        E 0 81 21 00
        E 0 91 26 30
        E 48 b1 0b 28
        E 64 b1 0b 20
        E 80 b1 0b 18
        E 64 b1 0b 10
        E 64 b1 0b 08
        E 32 b1 0b 30
        E 0 81 26 00
        E 0 91 2f 30
        E 48 b1 0b 28
        E 64 b1 0b 20
        E 64 b1 0b 18
        E 64 b1 0b 30
        E 0 81 2f 00
        E 0 91 2d 30
        E 16 b1 0b 28
        E 64 b1 0b 20
        E 48 b1 0b 30
        E 0 81 2d 00
        E 0 91 2a 30
        E 16 b1 0b 28
        E 80 b1 0b 20
        E 16 b1 0b 30
        E 0 81 2a 00
        E 0 91 28 30
        E 48 b1 0b 28
        E 64 b1 0b 20
        E 16 b1 0b 30
        E 0 81 28 00
        E 0 91 26 30
        E 64 b1 0b 28
        E 48 b1 0b 30
        E 0 81 26 00
        E 0 91 21 30
        E 16 b1 0b 28
        E 80 b1 0b 20
        E 64 b1 0b 18
        E 64 b1 0b 10
        E 80 b1 0b 08
        E 48 b1 0c 10
        E 0 b1 0b 30
        E 0 81 21 00
        E 0 91 2f 30
        E 16 b1 0b 28
        E 64 b1 0b 20
        E 48 b1 0b 30
        E 64 b1 0b 28
        E 64 b1 0b 20
        E 64 b1 0b 18
        E 32 b1 0b 30
        E 48 b1 0b 28
        E 64 b1 0b 20
        E 64 b1 0b 18
        E 64 b1 0b 30
        E 16 b1 0b 28
        E 64 b1 0b 20
        E 64 b1 0b 18
        E 80 b1 0b 10
        E 64 b1 0b 08
        E 64 81 2f 00
        E 16 b1 0c 40
        E 0 b1 0b 28
        E 0 91 28 28
        E 48 81 28 00
        E 64 91 34 28
        E 16 b1 0b 20
        E 48 b1 0b 10
        E 0 81 34 00
        E 0 91 28 10
        E 16 b1 0b 08
        E 32 b1 0b 28
        E 48 b1 0b 20
        E 16 b1 0b 10
        E 0 81 28 00
        E 0 91 34 10
        E 48 b1 0b 08
        E 16 b1 0b 28
        E 0 81 34 00
        E 0 91 32 28
        E 48 b1 0b 20
        E 16 b1 0b 10
        E 0 81 32 00
        E 0 91 28 10
        E 48 b1 0b 28
        E 16 b1 0b 20
        E 48 b1 0b 10
        E 0 81 28 00
        E 0 91 32 10
        E 16 b1 0b 08
        E 48 b1 0b 28
        E 0 81 32 00
        E 0 91 2f 28
        E 16 b1 0b 20
        E 32 b1 0b 10
        E 0 81 2f 00
        E 0 91 28 10
        E 48 b1 0b 08
        E 16 b1 0b 28
        E 0 81 28 00
        E 0 91 2d 28
        E 48 b1 0b 20
        E 16 b1 0b 10
        E 0 81 2d 00
        E 0 91 2f 10
        E 48 b1 0b 28
        E 0 81 2f 00
        E 0 91 2b 28
        E 16 b1 0b 20
        E 48 b1 0b 10
        E 0 81 2b 00
        E 0 91 2d 10
        E 16 b1 0b 08
        E 48 b1 0c 10
        E 0 b1 0b 30
        E 0 81 2d 00
        E 0 91 32 30
        E 16 b1 0b 28
        E 80 b1 0b 20
        E 16 b1 0b 30
        E 48 b1 0b 28
        E 64 b1 0b 20
        E 80 b1 0b 18
        E 48 b1 0b 30
        E 16 b1 0b 28
        E 64 b1 0b 20
        E 80 b1 0b 18
        E 64 b1 0b 10
        E 16 b1 0b 30
        E 48 b1 0b 28
        E 80 b1 0b 20
        E 64 b1 0b 18
        E 64 b1 0b 10
        E 80 b1 0b 08
        E 16 b1 0c 40
        E 0 b1 0b 28
        E 0 81 32 00
        E 0 91 28 28
        E 48 b1 0b 30
        E 16 81 28 00
        E 64 b1 0b 28
        E 0 91 34 28
        E 48 b1 0b 10
        E 0 81 34 00
        E 0 91 28 10
        E 16 b1 0b 08
        E 48 b1 0b 28
        E 16 b1 0b 20
        E 48 b1 0b 10
        E 0 81 28 00
        E 0 91 34 10
        E 16 b1 0b 08
        E 48 b1 0b 28
        E 0 81 34 00
        E 0 91 32 28
        E 32 b1 0b 20
        E 16 b1 0b 10
        E 0 81 32 00
        E 0 91 28 10
        E 48 b1 0b 08
        E 16 b1 0b 28
        E 48 b1 0b 20
        E 16 b1 0b 10
        E 0 81 28 00
        E 0 91 32 10
        E 48 b1 0b 28
        E 0 81 32 00
        E 0 91 2f 28
        E 16 b1 0b 20
        E 48 b1 0b 10
        E 0 81 2f 00
        E 0 91 28 10
        E 16 b1 0b 08
        E 48 b1 0b 28
        E 0 81 28 00
        E 0 91 2d 28
        E 16 b1 0b 20
        E 48 b1 0b 10
        E 0 81 2d 00
        E 0 91 2f 10
        E 32 b1 0b 08
        E 16 b1 0b 28
        E 0 81 2f 00
        E 0 91 2b 28
        E 48 b1 0b 20
        E 16 b1 0b 10
        E 0 81 2b 00
        E 0 91 2d 10
        E 48 b1 0b 08
        E 16 b1 0c 10
        E 0 b1 0b 30
        E 0 81 2d 00
        E 0 91 2f 30
        E 64 b1 0b 28
        E 48 b1 0b 30
        E 48 b1 0b 28
        E 80 b1 0b 20
        E 64 b1 0b 18
        E 48 b1 0b 30
        E 16 b1 0b 28
        E 80 b1 0b 20
        E 64 b1 0b 18
        E 64 b1 0b 10
        E 16 b1 0b 30
        E 64 b1 0b 28
        E 64 b1 0b 20
        E 64 b1 0b 18
        E 80 b1 0b 10
        E 64 b1 0b 08
        E 16 b1 0c 40
        E 0 b1 0b 28
        E 0 81 2f 00
        E 0 91 28 28
        E 48 b1 0b 30
        E 16 81 28 00
        E 48 b1 0b 28
        E 0 91 34 28
        E 48 b1 0b 20
        E 16 b1 0b 10
        E 0 81 34 00
        E 0 91 28 10
        E 48 b1 0b 08
        E 16 b1 0b 28
        E 48 b1 0b 20
        E 16 b1 0b 10
        E 0 81 28 00
        E 0 91 34 10
        E 48 b1 0b 28
        E 0 81 34 00
        E 0 91 32 28
        E 16 b1 0b 20
        E 48 b1 0b 10
        E 0 81 32 00
        E 0 91 28 10
        E 16 b1 0b 08
        E 48 b1 0b 28
        E 16 b1 0b 20
        E 32 b1 0b 10
        E 0 81 28 00
        E 0 91 32 10
        E 48 b1 0b 08
        E 16 b1 0b 28
        E 0 81 32 00
        E 0 91 2f 28
        E 48 b1 0b 20
        E 16 b1 0b 10
        E 0 81 2f 00
        E 0 91 28 10
        E 48 b1 0b 08
        E 16 b1 0b 28
        E 0 81 28 00
        E 0 91 2d 28
        E 48 b1 0b 10
        E 0 81 2d 00
        E 0 91 2f 10
        E 16 b1 0b 08
        E 48 b1 0b 28
        E 0 81 2f 00
        E 0 91 2b 28
        E 16 b1 0b 20
        E 48 b1 0b 10
        E 0 81 2b 00
        E 0 91 2d 10
        E 16 b1 0b 08
        E 32 b1 0c 10
        E 0 b1 0b 30
        E 0 81 2d 00
        E 0 91 2b 30
        E 48 b1 0b 28
        E 64 b1 0b 20
        E 16 b1 0b 30
        E 64 b1 0b 28
        E 64 b1 0b 20
        E 64 b1 0b 18
        E 48 b1 0b 30
        E 32 b1 0b 28
        E 64 b1 0b 20
        E 64 b1 0b 18
        E 64 b1 0b 30
        E 16 b1 0b 28
        E 64 b1 0b 20
        E 64 b1 0b 18
        E 80 b1 0b 10
        E 64 b1 0b 08
        E 64 81 2b 00
        E 16 b1 0c 40
        E 0 b1 0b 28
        E 0 91 28 28
        E 48 81 28 00
        E 64 91 34 28
        E 16 b1 0b 20
        E 48 b1 0b 10
        E 0 81 34 00
        E 0 91 28 10
        E 16 b1 0b 08
        E 48 b1 0b 28
        E 32 b1 0b 20
        E 16 b1 0b 10
        E 0 81 28 00
        E 0 91 34 10
        E 48 b1 0b 08
        E 16 b1 0b 28
        E 0 81 34 00
        E 0 91 32 28
        E 48 b1 0b 20
        E 16 b1 0b 10
        E 0 81 32 00
        E 0 91 28 10
        E 48 b1 0b 28
        E 16 b1 0b 20
        E 48 b1 0b 10
        E 0 81 28 00
        E 0 91 32 10
        E 16 b1 0b 08
        E 48 b1 0b 28
        E 0 81 32 00
        E 0 91 2f 28
        E 16 b1 0b 20
        E 48 b1 0b 10
        E 0 81 2f 00
        E 0 91 28 10
        E 32 b1 0b 08
        E 16 b1 0b 28
        E 0 81 28 00
        E 0 91 2d 28
        E 48 b1 0b 20
        E 16 b1 0b 10
        E 0 81 2d 00
        E 0 91 2f 10
        E 48 b1 0b 08
        E 16 b1 0b 28
        E 0 81 2f 00
        E 0 91 2b 28
        E 48 b1 0b 10
        E 0 81 2b 00
        E 0 91 2d 10
        E 16 b1 0b 08
        E 48 b1 0c 10
        E 0 b1 0b 30
        E 0 81 2d 00
        E 0 91 2f 30
        E 16 b1 0b 28
        E 64 b1 0b 20
        E 48 b1 0b 30
        E 64 b1 0b 28
        E 64 b1 0b 20
        E 80 b1 0b 18
        E 16 b1 0b 30
        E 48 b1 0b 28
        E 64 b1 0b 20
        E 80 b1 0b 18
        E 48 b1 0b 30
        E 16 b1 0b 28
        E 64 b1 0b 20
        E 80 b1 0b 18
        E 64 b1 0b 10
        E 64 b1 0b 08
        E 64 b1 0c 40
        E 0 b1 0b 28
        E 0 81 2f 00
        E 0 91 28 28
        E 16 b1 0b 30
        E 48 81 28 00
        E 64 b1 0b 28
        E 0 91 34 28
        E 16 b1 0b 20
        E 48 b1 0b 10
        E 0 81 34 00
        E 0 91 28 10
        E 32 b1 0b 08
        E 16 b1 0b 28
        E 48 b1 0b 20
        E 16 b1 0b 10
        E 0 81 28 00
        E 0 91 34 10
        E 48 b1 0b 08
        E 16 b1 0b 28
        E 0 81 34 00
        E 0 91 32 28
        E 48 b1 0b 10
        E 0 81 32 00
        E 0 91 28 10
        E 16 b1 0b 08
        E 48 b1 0b 28
        E 16 b1 0b 20
        E 48 b1 0b 10
        E 0 81 28 00
        E 0 91 32 10
        E 16 b1 0b 08
        E 48 b1 0b 28
        E 0 81 32 00
        E 0 91 2f 28
        E 32 b1 0b 20
        E 16 b1 0b 10
        E 0 81 2f 00
        E 0 91 28 10
        E 48 b1 0b 08
        E 16 b1 0b 28
        E 0 81 28 00
        E 0 91 2d 28
        E 48 b1 0b 20
        E 16 b1 0b 10
        E 0 81 2d 00
        E 0 91 2f 10
        E 48 b1 0b 28
        E 0 81 2f 00
        E 0 91 2b 28
        E 16 b1 0b 20
        E 48 b1 0b 10
        E 0 81 2b 00
        E 0 91 2d 10
        E 16 b1 0b 08
        E 48 b1 0c 10
        E 0 b1 0b 30
        E 0 81 2d 00
        E 0 91 32 30
        E 16 b1 0b 28
        E 80 b1 0b 20
        E 16 b1 0b 30
        E 48 b1 0b 28
        E 64 b1 0b 20
        E 80 b1 0b 18
        E 48 b1 0b 30
        E 16 b1 0b 28
        E 64 b1 0b 20
        E 80 b1 0b 18
        E 64 b1 0b 10
        E 16 b1 0b 30
        E 48 b1 0b 28
        E 80 b1 0b 20
        E 64 b1 0b 18
        E 64 b1 0b 10
        E 16 81 32 00
        E 0 ff 2f 00
      >
    >
  >
  <TRACK {F6E0E582-4A2A-4BB7-A96E-1CF2175475B7}
    NAME "NES - Triangle [ch2]"
    PEAKCOL 16744192
    BEAT -1
    AUTOMODE 0
    PANLAWFLAGS 3
    VOLPAN 1 0 -1 -1 1
    MUTESOLO 0 0 0
    IPHASE 0
    PLAYOFFS 0 1
    ISBUS 0 0
    BUSCOMP 0 0 0 0 0
    SHOWINMIX 1 0.6667 0.5 1 0.5 0 0 0
    FIXEDLANES 9 0 0 0 0
    SEL 0
    REC 0 5088 1 0 0 0 0 0
    VU 2
    TRACKHEIGHT 0 0 0 0 0 0 0
    INQ 0 0 0 0.5 100 0 0 100
    NCHAN 2
    FX 1
    TRACKID {F6E0E582-4A2A-4BB7-A96E-1CF2175475B7}
    PERF 0
    MIDIOUT -1
    MAINSEND 1 0
    <FXCHAIN
      WNDRECT 24 52 700 560
      SHOW 0
      LASTSEL 0
      DOCKED 0
      BYPASS 0 0 0
      <JS "ReapNES Studio/ReapNES_Console.jsfx" ""
        2 15 1 10 80 10 100 2 1 15 1 5 60 10 80 1 1 0 50 0 0 15 1 0 100 0 0 0.500000 0.500000 0.400000 0.300000 0.800000 2 1 0 0 0 0 - - - - - - - - - - - - - - - - - - - - - - - - - -
      >
      FLOATPOS 0 0 0 0
      FXID {A9B9BCAC-0654-43EE-AFD7-0D30E81AE953}
      WAK 0 0
    >
    <ITEM
      POSITION 0
      LENGTH 83.98134
      LOOP 0
      ALLTAKES 0
      FADEIN 0 0 0 0 0 0 0
      FADEOUT 0 0 0 0 0 0 0
      MUTE 0 0
      SEL 0
      IGUID {31FC1EC3-369D-4F97-BCBA-255D818D9F58}
      <SOURCE MIDI
        HASDATA 1 480 QN
        CCINTERP 32
        X 0 18 ff 03 0f 54 72 69 61 6e 67 6c 65 20 5b 62 61 73 73 5d
        E 0 c2 26
        E 16 b2 0b 7f
        E 0 92 28 7f
        E 128 82 28 00
        E 0 b2 0b 7f
        E 0 92 26 7f
        E 112 82 26 00
        E 0 b2 0b 7f
        E 0 92 28 7f
        E 128 82 28 00
        E 0 b2 0b 7f
        E 0 92 26 7f
        E 112 82 26 00
        E 0 b2 0b 7f
        E 0 92 2b 7f
        E 352 82 2b 00
        E 0 b2 0b 7f
        E 0 92 34 7f
        E 240 82 34 00
        E 0 b2 0b 7f
        E 0 92 32 7f
        E 128 82 32 00
        E 0 b2 0b 7f
        E 0 92 2f 7f
        E 112 82 2f 00
        E 0 b2 0b 7f
        E 0 92 2d 7f
        E 112 82 2d 00
        E 0 b2 0b 7f
        E 0 92 2b 7f
        E 128 82 2b 00
        E 0 b2 0b 7f
        E 0 92 26 7f
        E 352 82 26 00
        E 0 b2 0b 7f
        E 0 92 28 7f
        E 112 82 28 00
        E 0 b2 0b 7f
        E 0 92 26 7f
        E 128 82 26 00
        E 0 b2 0b 7f
        E 0 92 28 7f
        E 112 82 28 00
        E 0 b2 0b 7f
        E 0 92 26 7f
        E 128 82 26 00
        E 0 b2 0b 7f
        E 0 92 2b 7f
        E 352 82 2b 00
        E 0 b2 0b 7f
        E 0 92 34 7f
        E 240 82 34 00
        E 0 b2 0b 7f
        E 0 92 32 7f
        E 112 82 32 00
        E 0 b2 0b 7f
        E 0 92 2f 7f
        E 128 82 2f 00
        E 0 b2 0b 7f
        E 0 92 2d 7f
        E 112 82 2d 00
        E 0 b2 0b 7f
        E 0 92 2b 7f
        E 128 82 2b 00
        E 0 b2 0b 7f
        E 0 92 26 7f
        E 352 82 26 00
        E 0 b2 0b 7f
        E 0 92 28 7f
        E 112 82 28 00
        E 0 b2 0b 7f
        E 0 92 26 7f
        E 128 82 26 00
        E 0 b2 0b 7f
        E 0 92 28 7f
        E 112 82 28 00
        E 0 b2 0b 7f
        E 0 92 26 7f
        E 112 82 26 00
        E 0 b2 0b 7f
        E 0 92 2b 7f
        E 368 82 2b 00
        E 0 b2 0b 7f
        E 0 92 34 7f
        E 240 82 34 00
        E 0 b2 0b 7f
        E 0 92 32 7f
        E 112 82 32 00
        E 0 b2 0b 7f
        E 0 92 2f 7f
        E 112 82 2f 00
        E 0 b2 0b 7f
        E 0 92 2d 7f
        E 128 82 2d 00
        E 0 b2 0b 7f
        E 0 92 2b 7f
        E 112 82 2b 00
        E 0 b2 0b 7f
        E 0 92 26 7f
        E 368 82 26 00
        E 0 b2 0b 7f
        E 0 92 28 7f
        E 112 82 28 00
        E 0 b2 0b 7f
        E 0 92 26 7f
        E 112 82 26 00
        E 0 b2 0b 7f
        E 0 92 28 7f
        E 128 82 28 00
        E 0 b2 0b 7f
        E 0 92 26 7f
        E 112 82 26 00
        E 0 b2 0b 7f
        E 0 92 2b 7f
        E 352 82 2b 00
        E 0 b2 0b 7f
        E 0 92 34 7f
        E 240 82 34 00
        E 0 b2 0b 7f
        E 0 92 32 7f
        E 128 82 32 00
        E 0 b2 0b 7f
        E 0 92 2f 7f
        E 112 82 2f 00
        E 0 b2 0b 7f
        E 0 92 2d 7f
        E 128 82 2d 00
        E 0 b2 0b 7f
        E 0 92 2b 7f
        E 112 82 2b 00
        E 0 b2 0b 7f
        E 0 92 26 7f
        E 352 82 26 00
        E 0 b2 0b 7f
        E 0 92 28 7f
        E 15200 82 28 00
        E 0 b2 0b 7f
        E 0 92 30 7f
        E 1904 82 30 00
        E 0 b2 0b 7f
        E 0 92 2f 7f
        E 832 82 2f 00
        E 0 b2 0b 7f
        E 0 92 2b 7f
        E 240 82 2b 00
        E 0 b2 0b 7f
        E 0 92 2a 7f
        E 112 82 2a 00
        E 0 b2 0b 7f
        E 0 92 28 7f
        E 112 82 28 00
        E 0 b2 0b 7f
        E 0 92 26 7f
        E 128 82 26 00
        E 0 b2 0b 7f
        E 0 92 28 7f
        E 112 82 28 00
        E 0 b2 0b 7f
        E 0 92 26 7f
        E 352 82 26 00
        E 0 b2 0b 7f
        E 0 92 30 7f
        E 1904 82 30 00
        E 0 b2 0b 7f
        E 0 92 2f 7f
        E 832 82 2f 00
        E 0 b2 0b 7f
        E 0 92 2b 7f
        E 240 82 2b 00
        E 0 b2 0b 7f
        E 0 92 2a 7f
        E 112 82 2a 00
        E 0 b2 0b 7f
        E 0 92 28 7f
        E 128 82 28 00
        E 0 b2 0b 7f
        E 0 92 26 7f
        E 112 82 26 00
        E 0 b2 0b 7f
        E 0 92 28 7f
        E 128 82 28 00
        E 0 b2 0b 7f
        E 0 92 26 7f
        E 352 82 26 00
        E 0 b2 0b 7f
        E 0 92 29 7f
        E 3792 82 29 00
        E 0 b2 0b 7f
        E 0 92 28 7f
        E 128 82 28 00
        E 0 b2 0b 7f
        E 0 92 26 7f
        E 112 82 26 00
        E 0 b2 0b 7f
        E 0 92 28 7f
        E 128 82 28 00
        E 0 b2 0b 7f
        E 0 92 26 7f
        E 112 82 26 00
        E 0 b2 0b 7f
        E 0 92 2b 7f
        E 352 82 2b 00
        E 0 b2 0b 7f
        E 0 92 34 7f
        E 240 82 34 00
        E 0 b2 0b 7f
        E 0 92 32 7f
        E 128 82 32 00
        E 0 b2 0b 7f
        E 0 92 2f 7f
        E 112 82 2f 00
        E 0 b2 0b 7f
        E 0 92 2d 7f
        E 112 82 2d 00
        E 0 b2 0b 7f
        E 0 92 2b 7f
        E 128 82 2b 00
        E 0 b2 0b 7f
        E 0 92 26 7f
        E 352 82 26 00
        E 0 b2 0b 7f
        E 0 92 28 7f
        E 128 82 28 00
        E 0 b2 0b 7f
        E 0 92 26 7f
        E 112 82 26 00
        E 0 b2 0b 7f
        E 0 92 28 7f
        E 112 82 28 00
        E 0 b2 0b 7f
        E 0 92 26 7f
        E 128 82 26 00
        E 0 b2 0b 7f
        E 0 92 2b 7f
        E 352 82 2b 00
        E 0 b2 0b 7f
        E 0 92 34 7f
        E 240 82 34 00
        E 0 b2 0b 7f
        E 0 92 32 7f
        E 112 82 32 00
        E 0 b2 0b 7f
        E 0 92 2f 7f
        E 128 82 2f 00
        E 0 b2 0b 7f
        E 0 92 2d 7f
        E 112 82 2d 00
        E 0 b2 0b 7f
        E 0 92 2b 7f
        E 128 82 2b 00
        E 0 b2 0b 7f
        E 0 92 26 7f
        E 352 82 26 00
        E 0 b2 0b 7f
        E 0 92 28 7f
        E 112 82 28 00
        E 0 b2 0b 7f
        E 0 92 26 7f
        E 128 82 26 00
        E 0 b2 0b 7f
        E 0 92 28 7f
        E 112 82 28 00
        E 0 b2 0b 7f
        E 0 92 26 7f
        E 128 82 26 00
        E 0 b2 0b 7f
        E 0 92 2b 7f
        E 352 82 2b 00
        E 0 b2 0b 7f
        E 0 92 34 7f
        E 240 82 34 00
        E 0 b2 0b 7f
        E 0 92 32 7f
        E 112 82 32 00
        E 0 b2 0b 7f
        E 0 92 2f 7f
        E 112 82 2f 00
        E 0 b2 0b 7f
        E 0 92 2d 7f
        E 128 82 2d 00
        E 0 b2 0b 7f
        E 0 92 2b 7f
        E 112 82 2b 00
        E 0 b2 0b 7f
        E 0 92 26 7f
        E 368 82 26 00
        E 0 b2 0b 7f
        E 0 92 28 7f
        E 112 82 28 00
        E 0 b2 0b 7f
        E 0 92 26 7f
        E 112 82 26 00
        E 0 b2 0b 7f
        E 0 92 28 7f
        E 128 82 28 00
        E 0 b2 0b 7f
        E 0 92 26 7f
        E 112 82 26 00
        E 0 b2 0b 7f
        E 0 92 2b 7f
        E 368 82 2b 00
        E 0 b2 0b 7f
        E 0 92 34 7f
        E 224 82 34 00
        E 0 b2 0b 7f
        E 0 92 32 7f
        E 128 82 32 00
        E 0 b2 0b 7f
        E 0 92 2f 7f
        E 112 82 2f 00
        E 0 b2 0b 7f
        E 0 92 2d 7f
        E 128 82 2d 00
        E 0 b2 0b 7f
        E 0 92 2b 7f
        E 112 82 2b 00
        E 0 b2 0b 7f
        E 0 92 26 7f
        E 352 82 26 00
        E 0 b2 0b 7f
        E 0 92 28 7f
        E 15200 82 28 00
        E 0 b2 0b 7f
        E 0 92 30 7f
        E 1904 82 30 00
        E 0 b2 0b 7f
        E 0 92 2f 7f
        E 832 82 2f 00
        E 0 b2 0b 7f
        E 0 92 2b 7f
        E 240 82 2b 00
        E 0 b2 0b 7f
        E 0 92 2a 7f
        E 112 82 2a 00
        E 0 b2 0b 7f
        E 0 92 28 7f
        E 112 82 28 00
        E 0 b2 0b 7f
        E 0 92 26 7f
        E 128 82 26 00
        E 0 b2 0b 7f
        E 0 92 28 7f
        E 112 82 28 00
        E 0 b2 0b 7f
        E 0 92 26 7f
        E 368 82 26 00
        E 0 b2 0b 7f
        E 0 92 30 7f
        E 1888 82 30 00
        E 0 b2 0b 7f
        E 0 92 2f 7f
        E 832 82 2f 00
        E 0 b2 0b 7f
        E 0 92 2b 7f
        E 240 82 2b 00
        E 0 b2 0b 7f
        E 0 92 2a 7f
        E 112 82 2a 00
        E 0 b2 0b 7f
        E 0 92 28 7f
        E 128 82 28 00
        E 0 b2 0b 7f
        E 0 92 26 7f
        E 112 82 26 00
        E 0 b2 0b 7f
        E 0 92 28 7f
        E 128 82 28 00
        E 0 b2 0b 7f
        E 0 92 26 7f
        E 352 82 26 00
        E 0 b2 0b 7f
        E 0 92 29 7f
        E 3792 82 29 00
        E 0 b2 0b 7f
        E 0 92 28 7f
        E 128 82 28 00
        E 0 b2 0b 7f
        E 0 92 26 7f
        E 112 82 26 00
        E 0 b2 0b 7f
        E 0 92 28 7f
        E 128 82 28 00
        E 0 b2 0b 7f
        E 0 92 26 7f
        E 112 82 26 00
        E 0 b2 0b 7f
        E 0 92 2b 7f
        E 352 82 2b 00
        E 0 b2 0b 7f
        E 0 92 34 7f
        E 240 82 34 00
        E 0 b2 0b 7f
        E 0 92 32 7f
        E 128 82 32 00
        E 0 b2 0b 7f
        E 0 92 2f 7f
        E 112 82 2f 00
        E 0 b2 0b 7f
        E 0 92 2d 7f
        E 112 82 2d 00
        E 0 b2 0b 7f
        E 0 92 2b 7f
        E 128 82 2b 00
        E 0 b2 0b 7f
        E 0 92 26 7f
        E 352 82 26 00
        E 0 b2 0b 7f
        E 0 92 28 7f
        E 128 82 28 00
        E 0 b2 0b 7f
        E 0 92 26 7f
        E 112 82 26 00
        E 0 b2 0b 7f
        E 0 92 28 7f
        E 112 82 28 00
        E 0 b2 0b 7f
        E 0 92 26 7f
        E 128 82 26 00
        E 0 b2 0b 7f
        E 0 92 2b 7f
        E 352 82 2b 00
        E 0 b2 0b 7f
        E 0 92 34 7f
        E 240 82 34 00
        E 0 b2 0b 7f
        E 0 92 32 7f
        E 112 82 32 00
        E 0 b2 0b 7f
        E 0 92 2f 7f
        E 128 82 2f 00
        E 0 b2 0b 7f
        E 0 92 2d 7f
        E 112 82 2d 00
        E 0 b2 0b 7f
        E 0 92 2b 7f
        E 128 82 2b 00
        E 0 b2 0b 7f
        E 0 92 26 7f
        E 352 82 26 00
        E 0 b2 0b 7f
        E 0 92 28 7f
        E 112 82 28 00
        E 0 b2 0b 7f
        E 0 92 26 7f
        E 128 82 26 00
        E 0 b2 0b 7f
        E 0 92 28 7f
        E 112 82 28 00
        E 0 b2 0b 7f
        E 0 92 26 7f
        E 128 82 26 00
        E 0 b2 0b 7f
        E 0 92 2b 7f
        E 352 82 2b 00
        E 0 b2 0b 7f
        E 0 92 34 7f
        E 240 82 34 00
        E 0 b2 0b 7f
        E 0 92 32 7f
        E 112 82 32 00
        E 0 b2 0b 7f
        E 0 92 2f 7f
        E 128 82 2f 00
        E 0 b2 0b 7f
        E 0 92 2d 7f
        E 112 82 2d 00
        E 0 b2 0b 7f
        E 0 92 2b 7f
        E 112 82 2b 00
        E 0 b2 0b 7f
        E 0 92 26 7f
        E 368 82 26 00
        E 0 b2 0b 7f
        E 0 92 28 7f
        E 112 82 28 00
        E 0 b2 0b 7f
        E 0 92 26 7f
        E 112 82 26 00
        E 0 b2 0b 7f
        E 0 92 28 7f
        E 128 82 28 00
        E 0 b2 0b 7f
        E 0 92 26 7f
        E 112 82 26 00
        E 0 b2 0b 7f
        E 0 92 2b 7f
        E 368 82 2b 00
        E 0 b2 0b 7f
        E 0 92 34 7f
        E 224 82 34 00
        E 0 b2 0b 7f
        E 0 92 32 7f
        E 128 82 32 00
        E 0 b2 0b 7f
        E 0 92 2f 7f
        E 112 82 2f 00
        E 0 b2 0b 7f
        E 0 92 2d 7f
        E 128 82 2d 00
        E 0 b2 0b 7f
        E 0 92 2b 7f
        E 112 82 2b 00
        E 0 b2 0b 7f
        E 0 92 26 7f
        E 352 82 26 00
        E 0 b2 0b 7f
        E 0 92 28 7f
        E 10400 82 28 00
        E 0 ff 2f 00
      >
    >
  >
  <TRACK {106E6FD1-53B5-4DA7-A156-777A705AED8F}
    NAME "NES - Noise / Drums [ch3]"
    PEAKCOL 11184810
    BEAT -1
    AUTOMODE 0
    PANLAWFLAGS 3
    VOLPAN 1 0 -1 -1 1
    MUTESOLO 0 0 0
    IPHASE 0
    PLAYOFFS 0 1
    ISBUS 0 0
    BUSCOMP 0 0 0 0 0
    SHOWINMIX 1 0.6667 0.5 1 0.5 0 0 0
    FIXEDLANES 9 0 0 0 0
    SEL 0
    REC 0 5088 1 0 0 0 0 0
    VU 2
    TRACKHEIGHT 0 0 0 0 0 0 0
    INQ 0 0 0 0.5 100 0 0 100
    NCHAN 2
    FX 1
    TRACKID {106E6FD1-53B5-4DA7-A156-777A705AED8F}
    PERF 0
    MIDIOUT -1
    MAINSEND 1 0
    <FXCHAIN
      WNDRECT 24 52 700 560
      SHOW 0
      LASTSEL 0
      DOCKED 0
      BYPASS 0 0 0
      <JS "ReapNES Studio/ReapNES_Console.jsfx" ""
        2 15 1 10 80 10 100 2 1 15 1 5 60 10 80 1 1 0 50 0 0 15 1 0 100 0 0 0.500000 0.500000 0.400000 0.300000 0.800000 3 1 0 0 0 0 - - - - - - - - - - - - - - - - - - - - - - - - - -
      >
      FLOATPOS 0 0 0 0
      FXID {CB11DB7D-CF61-42C8-93F2-DB9B3BA00901}
      WAK 0 0
    >
    <ITEM
      POSITION 0
      LENGTH 83.98134
      LOOP 0
      ALLTAKES 0
      FADEIN 0 0 0 0 0 0 0
      FADEOUT 0 0 0 0 0 0 0
      MUTE 0 0
      SEL 0
      IGUID {AEB0F6A0-EA62-4883-AF90-B28CF16F043F}
      <SOURCE MIDI
        HASDATA 1 480 QN
        CCINTERP 32
        X 0 16 ff 03 0d 4e 6f 69 73 65 20 5b 64 72 75 6d 73 5d
        E 48 93 24 78
        E 8080 83 24 00
        E 240 93 26 08
        E 704 83 26 00
        E 240 93 26 08
        E 720 83 26 00
        E 224 93 26 08
        E 720 83 26 00
        E 240 93 26 08
        E 704 83 26 00
        E 240 93 26 08
        E 720 83 26 00
        E 224 93 26 08
        E 720 83 26 00
        E 240 93 26 08
        E 704 83 26 00
        E 240 93 26 08
        E 720 83 26 00
        E 240 93 26 08
        E 704 83 26 00
        E 240 93 26 08
        E 704 83 26 00
        E 240 93 26 08
        E 720 83 26 00
        E 240 93 26 08
        E 704 83 26 00
        E 240 93 26 08
        E 704 83 26 00
        E 240 93 26 08
        E 720 83 26 00
        E 240 93 26 08
        E 704 83 26 00
        E 240 93 26 08
        E 240 83 26 00
        E 240 93 2a 28
        E 704 83 2a 00
        E 480 93 26 08
        E 480 83 26 00
        E 224 93 2a 28
        E 720 83 2a 00
        E 480 93 26 08
        E 464 83 26 00
        E 240 93 2a 28
        E 720 83 2a 00
        E 464 93 26 08
        E 480 83 26 00
        E 240 93 2a 28
        E 704 83 2a 00
        E 480 93 26 08
        E 2208 83 26 00
        E 176 93 24 28
        E 1728 83 24 00
        E 160 93 24 78
        E 8080 83 24 00
        E 240 93 26 08
        E 704 83 26 00
        E 240 93 26 08
        E 720 83 26 00
        E 224 93 26 08
        E 720 83 26 00
        E 240 93 26 08
        E 704 83 26 00
        E 240 93 26 08
        E 720 83 26 00
        E 224 93 26 08
        E 720 83 26 00
        E 240 93 26 08
        E 704 83 26 00
        E 240 93 26 08
        E 720 83 26 00
        E 240 93 26 08
        E 704 83 26 00
        E 240 93 26 08
        E 704 83 26 00
        E 240 93 26 08
        E 720 83 26 00
        E 240 93 26 08
        E 704 83 26 00
        E 240 93 26 08
        E 720 83 26 00
        E 224 93 26 08
        E 720 83 26 00
        E 240 93 26 08
        E 704 83 26 00
        E 240 93 26 08
        E 240 83 26 00
        E 240 93 2a 28
        E 704 83 2a 00
        E 480 93 26 08
        E 480 83 26 00
        E 240 93 2a 28
        E 704 83 2a 00
        E 480 93 26 08
        E 464 83 26 00
        E 240 93 2a 28
        E 720 83 2a 00
        E 464 93 26 08
        E 480 83 26 00
        E 240 93 2a 28
        E 704 83 2a 00
        E 480 93 26 08
        E 2208 83 26 00
        E 176 93 24 28
        E 1728 83 24 00
        E 160 93 24 78
        E 8080 83 24 00
        E 240 93 26 08
        E 704 83 26 00
        E 240 93 26 08
        E 720 83 26 00
        E 224 93 26 08
        E 720 83 26 00
        E 240 93 26 08
        E 704 83 26 00
        E 240 93 26 08
        E 720 83 26 00
        E 240 93 26 08
        E 704 83 26 00
        E 240 93 26 08
        E 704 83 26 00
        E 240 93 26 08
        E 720 83 26 00
        E 240 93 26 08
        E 704 83 26 00
        E 240 93 26 08
        E 704 83 26 00
        E 240 93 26 08
        E 160 83 26 00
        E 0 ff 2f 00
      >
    >
  >
>