<REAPER_PROJECT 0.1 "7.27/win64" 1707000000
  <NOTES 0 2
    |ReapNES Studio Project
    |MIDI Import - Battletoads_20_Song_20_v1
  >
  RIPPLE 0
  GROUPOVERRIDE 0 0 0
  AUTOXFADE 129
  ENVATTACH 3
  POOLEDENVATTACH 0
  MIXERUIFLAGS 11 48
  ENVFADESZ10 40
  PEAKGAIN 1
  FEEDBACK 0
  PANLAW 1
  PROJOFFS 0 0 0
  MAXPROJLEN 0 0
  GRID 3199 8 1 8 1 0 0 0
  TIMEMODE 1 5 -1 30 0 0 -1
  VIDEO_CONFIG 0 0 65792
  PANMODE 3
  PANLAWFLAGS 3
  CURSOR 0
  ZOOM 100 0 0
  VZOOMEX 6 0
  USE_REC_CFG 0
  RECMODE 1
  SMPTESYNC 0 30 100 40 1000 300 0 0 1 0 0
  LOOP 0
  LOOPGRAN 0 4
  RECORD_PATH "Media" ""
  <RECORD_CFG
    ZXZhdxgAAQ==
  >
  <APPLYFX_CFG
  >
  RENDER_FILE ""
  RENDER_PATTERN ""
  RENDER_FMT 0 2 0
  RENDER_1X 0
  RENDER_RANGE 1 0 0 18 1000
  RENDER_RESAMPLE 3 0 1
  RENDER_ADDTOPROJ 0
  RENDER_STEMS 0
  RENDER_DITHER 0
  TIMELOCKMODE 1
  TEMPOENVLOCKMODE 1
  ITEMMIX 1
  DEFPITCHMODE 589824 0
  TAKELANE 1
  SAMPLERATE 44100 0 0
  <RENDER_CFG
    ZXZhdxgAAQ==
  >
  LOCK 1
  <METRONOME 6 2
    VOL 0.25 0.125
    BEATLEN 4
    FREQ 1760 880 1
    SAMPLES "" ""
    SPLIGNORE 0 0
    SPLDEF 2 660 "" 0
    SPLDEF 3 440 "" 0
    PATTERN 0 169
    PATTERNSTR ABBB
    MULT 1
  >
  GLOBAL_AUTO -1
  TEMPO 128.59999614200012 4 4
  PLAYRATE 1 0 0.25 4
  SELECTION 0 0
  SELECTION2 0 0
  MASTERAUTOMODE 0
  MASTERTRACKHEIGHT 0 0
  MASTERPEAKCOL 16576
  MASTERMUTESOLO 0
  MASTERTRACKVIEW 0 0.6667 0.5 0.5 0 0 0 0 0 0 0 0 0 0
  MASTERHWOUT 0 0 1 0 0 0 0 -1
  MASTER_NCH 2 2
  MASTER_VOLUME 1 0 -1 -1 1
  MASTER_PANMODE 3
  MASTER_PANLAWFLAGS 3
  MASTER_FX 1
  MASTER_SEL 0
  <MASTERPLAYSPEEDENV
    EGUID {EF8949AB-7B09-4DCA-962A-FFAAD68D3196}
    ACT 0 -1
    VIS 0 1 1
    LANEHEIGHT 0 0
    ARM 0
    DEFSHAPE 0 -1 -1
  >
  <TEMPOENVEX
    EGUID {31BC415C-1B0E-401C-9A33-61681D4C1D97}
    ACT 1 -1
    VIS 1 0 1
    LANEHEIGHT 0 0
    ARM 0
    DEFSHAPE 1 -1 -1
  >
  <PROJBAY
  >
  <TRACK {329669CC-20A7-48FC-8F12-65EDF4A6CC35}
    NAME "NES - Pulse 1 [ch0]"
    PEAKCOL 16576606
    BEAT -1
    AUTOMODE 0
    PANLAWFLAGS 3
    VOLPAN 1 0 -1 -1 1
    MUTESOLO 0 0 0
    IPHASE 0
    PLAYOFFS 0 1
    ISBUS 0 0
    BUSCOMP 0 0 0 0 0
    SHOWINMIX 1 0.6667 0.5 1 0.5 0 0 0
    FIXEDLANES 9 0 0 0 0
    SEL 1
    REC 0 5088 1 0 0 0 0 0
    VU 2
    TRACKHEIGHT 0 0 0 0 0 0 0
    INQ 0 0 0 0.5 100 0 0 100
    NCHAN 2
    FX 1
    TRACKID {329669CC-20A7-48FC-8F12-65EDF4A6CC35}
    PERF 0
    MIDIOUT -1
    MAINSEND 1 0
    <FXCHAIN
      WNDRECT 24 52 700 560
      SHOW 0
      LASTSEL 0
      DOCKED 0
      BYPASS 0 0 0
      <JS "ReapNES Studio/ReapNES_Console.jsfx" ""
        2 15 1 10 80 10 100 2 1 15 1 5 60 10 80 1 1 0 50 0 0 15 1 0 100 0 0 0.500000 0.500000 0.400000 0.300000 0.800000 0 1 0 0 0 0 - - - - - - - - - - - - - - - - - - - - - - - - - -
      >
      FLOATPOS 0 0 0 0
      FXID {9B979261-8AB3-4C6D-810F-83C5683E7F6C}
      WAK 0 0
    >
    <ITEM
      POSITION 0
      LENGTH 83.98134
      LOOP 0
      ALLTAKES 0
      FADEIN 0 0 0 0 0 0 0
      FADEOUT 0 0 0 0 0 0 0
      MUTE 0 0
      SEL 0
      IGUID {FBF31D04-45C9-417B-802D-C44506321E61}
      <SOURCE MIDI
        HASDATA 1 480 QN
        CCINTERP 32
        X 0 18 ff 03 0f 53 71 75 61 72 65 20 31 20 5b 6c 65 61 64 5d
        E 0 c0 50
        E 3824 b0 0c 40
        E 0 b0 0b 60
        E 0 90 1c 60
        E 720 80 1c 00
        E 0 90 1d 60
        E 64 b0 0b 58
        E 800 b0 0b 50
        E 416 80 1d 00
        E 0 90 1e 50
        E 384 b0 0b 48
        E 800 b0 0b 40
        E 32 80 1e 00
        E 0 90 1f 40
        E 768 b0 0b 38
        E 384 80 1f 00
        E 0 90 20 38
        E 416 b0 0b 30
        E 656 80 20 00
        E 0 90 21 30
        E 128 b0 0b 28
        E 800 b0 0b 20
        E 80 80 21 00
        E 0 90 22 20
        E 720 b0 0b 18
        E 240 80 22 00
        E 0 90 23 18
        E 160 80 23 00
        E 32 b0 0c 20
        E 0 b0 0b 40
        E 0 90 1c 40
        E 128 b0 0b 38
        E 32 b0 0b 30
        E 32 b0 0b 28
        E 32 b0 0b 20
        E 16 b0 0b 40
        E 32 b0 0b 38
        E 32 b0 0b 30
        E 32 b0 0b 28
        E 16 b0 0b 40
        E 16 b0 0b 38
        E 32 b0 0b 30
        E 32 b0 0b 28
        E 32 b0 0b 40
        E 16 b0 0b 38
        E 32 b0 0b 30
        E 32 b0 0b 28
        E 32 b0 0b 20
        E 16 b0 0b 40
        E 16 b0 0b 38
        E 32 b0 0b 30
        E 48 b0 0b 28
        E 16 b0 0b 40
        E 16 b0 0b 38
        E 32 b0 0b 30
        E 32 b0 0b 28
        E 32 b0 0b 20
        E 16 b0 0b 40
        E 32 b0 0b 38
        E 32 b0 0b 30
        E 32 b0 0b 28
        E 16 b0 0b 40
        E 16 b0 0b 38
        E 32 b0 0b 30
        E 32 b0 0b 28
        E 32 b0 0b 40
        E 16 b0 0b 38
        E 32 b0 0b 30
        E 32 b0 0b 28
        E 32 b0 0b 20
        E 16 b0 0b 40
        E 16 b0 0b 38
        E 32 b0 0b 30
        E 48 b0 0b 28
        E 16 b0 0b 40
        E 16 b0 0b 38
        E 32 b0 0b 30
        E 32 b0 0b 28
        E 32 b0 0b 20
        E 16 b0 0b 40
        E 16 b0 0b 38
        E 48 b0 0b 30
        E 32 b0 0b 28
        E 16 b0 0b 40
        E 0 80 1c 00
        E 0 90 1a 40
        E 16 b0 0b 38
        E 32 b0 0b 30
        E 32 b0 0b 28
        E 32 b0 0b 20
        E 16 b0 0b 40
        E 0 80 1a 00
        E 0 90 1c 40
        E 32 b0 0b 38
        E 32 b0 0b 30
        E 32 b0 0b 28
        E 16 b0 0b 40
        E 0 80 1c 00
        E 0 90 1f 40
        E 16 b0 0b 38
        E 32 b0 0b 30
        E 32 b0 0b 28
        E 32 b0 0b 40
        E 0 80 1f 00
        E 0 90 1c 40
        E 16 b0 0b 38
        E 32 b0 0b 30
        E 32 b0 0b 28
        E 32 b0 0b 20
        E 16 b0 0b 40
        E 16 b0 0b 38
        E 32 b0 0b 30
        E 48 b0 0b 28
        E 16 b0 0b 40
        E 16 b0 0b 38
        E 32 b0 0b 30
        E 32 b0 0b 28
        E 32 b0 0b 20
        E 16 b0 0b 40
        E 16 b0 0b 38
        E 48 b0 0b 30
        E 32 b0 0b 28
        E 16 b0 0b 40
        E 16 b0 0b 38
        E 32 b0 0b 30
        E 32 b0 0b 28
        E 32 b0 0b 20
        E 16 b0 0b 40
        E 32 b0 0b 38
        E 32 b0 0b 30
        E 32 b0 0b 28
        E 16 b0 0b 40
        E 16 b0 0b 38
        E 32 b0 0b 30
        E 32 b0 0b 28
        E 32 b0 0b 40
        E 16 b0 0b 38
        E 32 b0 0b 30
        E 32 b0 0b 28
        E 32 b0 0b 20
        E 16 b0 0b 40
        E 16 b0 0b 38
        E 48 b0 0b 30
        E 32 b0 0b 28
        E 16 b0 0b 40
        E 0 80 1c 00
        E 0 90 1a 40
        E 16 b0 0b 38
        E 32 b0 0b 30
        E 32 b0 0b 28
        E 32 b0 0b 20
        E 16 b0 0b 40
        E 0 80 1a 00
        E 0 90 1c 40
        E 32 b0 0b 38
        E 32 b0 0b 30
        E 32 b0 0b 28
        E 16 b0 0b 40
        E 0 80 1c 00
        E 0 90 1f 40
        E 16 b0 0b 38
        E 32 b0 0b 30
        E 32 b0 0b 28
        E 32 b0 0b 40
        E 0 80 1f 00
        E 0 90 21 40
        E 16 b0 0b 38
        E 32 b0 0b 30
        E 32 b0 0b 28
        E 32 b0 0b 20
        E 16 b0 0b 40
        E 0 80 21 00
        E 0 90 1f 40
        E 16 b0 0b 38
        E 32 b0 0b 30
        E 48 b0 0b 28
        E 16 b0 0b 40
        E 0 80 1f 00
        E 0 90 1c 40
        E 16 b0 0b 38
        E 32 b0 0b 30
        E 32 b0 0b 28
        E 32 b0 0b 20
        E 16 b0 0b 40
        E 0 80 1c 00
        E 0 90 1a 40
        E 16 b0 0b 38
        E 48 b0 0b 30
        E 32 b0 0b 28
        E 16 b0 0b 40
        E 0 80 1a 00
        E 0 90 1c 40
        E 16 b0 0b 38
        E 32 b0 0b 30
        E 32 b0 0b 28
        E 32 b0 0b 20
        E 16 b0 0b 40
        E 32 b0 0b 38
        E 32 b0 0b 30
        E 32 b0 0b 28
        E 16 b0 0b 40
        E 16 b0 0b 38
        E 32 b0 0b 30
        E 32 b0 0b 28
        E 32 b0 0b 40
        E 16 b0 0b 38
        E 32 b0 0b 30
        E 32 b0 0b 28
        E 32 b0 0b 20
        E 16 b0 0b 40
        E 16 b0 0b 38
        E 32 b0 0b 30
        E 48 b0 0b 28
        E 16 b0 0b 40
        E 16 b0 0b 38
        E 32 b0 0b 30
        E 32 b0 0b 28
        E 32 b0 0b 20
        E 16 b0 0b 40
        E 16 b0 0b 38
        E 48 b0 0b 30
        E 32 b0 0b 28
        E 16 b0 0b 40
        E 16 b0 0b 38
        E 32 b0 0b 30
        E 32 b0 0b 28
        E 32 b0 0b 20
        E 16 b0 0b 40
        E 32 b0 0b 38
        E 32 b0 0b 30
        E 32 b0 0b 28
        E 16 b0 0b 40
        E 16 b0 0b 38
        E 32 b0 0b 30
        E 48 b0 0b 28
        E 16 b0 0b 40
        E 16 b0 0b 38
        E 32 b0 0b 30
        E 32 b0 0b 28
        E 32 b0 0b 20
        E 16 b0 0b 40
        E 16 b0 0b 38
        E 48 b0 0b 30
        E 32 b0 0b 28
        E 16 b0 0b 40
        E 16 b0 0b 38
        E 32 b0 0b 30
        E 32 b0 0b 28
        E 32 b0 0b 20
        E 16 b0 0b 40
        E 0 80 1c 00
        E 0 90 1a 40
        E 32 b0 0b 38
        E 32 b0 0b 30
        E 32 b0 0b 28
        E 16 b0 0b 40
        E 0 80 1a 00
        E 0 90 1c 40
        E 16 b0 0b 38
        E 32 b0 0b 30
        E 32 b0 0b 28
        E 32 b0 0b 40
        E 0 80 1c 00
        E 0 90 1f 40
        E 16 b0 0b 38
        E 32 b0 0b 30
        E 32 b0 0b 28
        E 32 b0 0b 20
        E 16 b0 0b 40
        E 0 80 1f 00
        E 0 90 1c 40
        E 16 b0 0b 38
        E 32 b0 0b 30
        E 48 b0 0b 28
        E 16 b0 0b 40
        E 16 b0 0b 38
        E 32 b0 0b 30
        E 32 b0 0b 28
        E 32 b0 0b 20
        E 16 b0 0b 40
        E 16 b0 0b 38
        E 48 b0 0b 30
        E 32 b0 0b 28
        E 16 b0 0b 40
        E 16 b0 0b 38
        E 32 b0 0b 30
        E 32 b0 0b 28
        E 32 b0 0b 20
        E 16 b0 0b 40
        E 32 b0 0b 38
        E 32 b0 0b 30
        E 32 b0 0b 28
        E 16 b0 0b 40
        E 16 b0 0b 38
        E 32 b0 0b 30
        E 32 b0 0b 28
        E 32 b0 0b 40
        E 16 b0 0b 38
        E 32 b0 0b 30
        E 32 b0 0b 28
        E 32 b0 0b 20
        E 16 b0 0b 40
        E 16 b0 0b 38
        E 32 b0 0b 30
        E 48 b0 0b 28
        E 16 b0 0c 10
        E 0 b0 0b 48
        E 0 80 1c 00
        E 0 90 26 48
        E 16 b0 0b 40
        E 32 b0 0b 38
        E 16 b0 0b 48
        E 0 80 26 00
        E 0 90 28 48
        E 16 b0 0b 40
        E 32 b0 0b 38
        E 16 b0 0b 48
        E 0 80 28 00
        E 0 90 2b 48
        E 16 b0 0b 40
        E 32 b0 0b 48
        E 0 80 2b 00
        E 0 90 2d 48
        E 16 b0 0b 40
        E 32 b0 0b 38
        E 16 b0 0b 48
        E 0 80 2d 00
        E 0 90 2b 48
        E 16 b0 0b 40
        E 32 b0 0b 38
        E 16 b0 0b 48
        E 0 80 2b 00
        E 0 90 2d 48
        E 16 b0 0b 40
        E 32 b0 0b 48
        E 0 80 2d 00
        E 0 90 2f 48
        E 16 b0 0b 40
        E 32 b0 0b 38
        E 16 b0 0b 48
        E 0 80 2f 00
        E 0 90 32 48
        E 16 b0 0b 40
        E 32 b0 0b 38
        E 16 b0 0b 48
        E 0 80 32 00
        E 0 90 34 48
        E 16 b0 0b 40
        E 32 b0 0b 38
        E 16 b0 0b 48
        E 0 80 34 00
        E 0 90 37 48
        E 32 b0 0b 40
        E 16 b0 0b 48
        E 0 80 37 00
        E 0 90 39 48
        E 16 b0 0b 40
        E 32 b0 0b 38
        E 16 b0 0b 48
        E 0 80 39 00
        E 0 90 3b 48
        E 16 b0 0b 40
        E 32 b0 0b 38
        E 16 b0 0b 48
        E 0 80 3b 00
        E 0 90 3e 48
        E 16 b0 0b 40
        E 32 b0 0b 48
        E 0 80 3e 00
        E 0 90 40 48
        E 16 b0 0b 40
        E 32 b0 0b 38
        E 16 b0 0b 48
        E 0 80 40 00
        E 0 90 43 48
        E 16 b0 0b 40
        E 32 b0 0b 38
        E 16 b0 0b 48
        E 0 80 43 00
        E 0 90 45 48
        E 16 b0 0b 40
        E 32 b0 0b 38
        E 16 b0 0c 20
        E 0 b0 0b 40
        E 0 80 45 00
        E 0 90 1c 40
        E 32 b0 0b 38
        E 32 b0 0b 30
        E 32 b0 0b 28
        E 16 b0 0b 40
        E 16 b0 0b 38
        E 32 b0 0b 30
        E 32 b0 0b 28
        E 32 b0 0b 40
        E 16 b0 0b 38
        E 32 b0 0b 30
        E 32 b0 0b 28
        E 32 b0 0b 20
        E 16 b0 0b 40
        E 16 b0 0b 38
        E 32 b0 0b 30
        E 48 b0 0b 28
        E 16 b0 0b 40
        E 16 b0 0b 38
        E 32 b0 0b 30
        E 32 b0 0b 28
        E 32 b0 0b 20
        E 16 b0 0b 40
        E 16 b0 0b 38
        E 48 b0 0b 30
        E 32 b0 0b 28
        E 16 b0 0b 40
        E 16 b0 0b 38
        E 32 b0 0b 30
        E 32 b0 0b 28
        E 32 b0 0b 20
        E 16 b0 0b 40
        E 32 b0 0b 38
        E 32 b0 0b 30
        E 32 b0 0b 28
        E 16 b0 0b 40
        E 16 b0 0b 38
        E 32 b0 0b 30
        E 32 b0 0b 28
        E 32 b0 0b 40
        E 16 b0 0b 38
        E 32 b0 0b 30
        E 32 b0 0b 28
        E 32 b0 0b 20
        E 16 b0 0b 40
        E 16 b0 0b 38
        E 32 b0 0b 30
        E 48 b0 0b 28
        E 16 b0 0b 40
        E 16 b0 0b 38
        E 32 b0 0b 30
        E 32 b0 0b 28
        E 32 b0 0b 20
        E 16 b0 0b 40
        E 32 b0 0b 38
        E 32 b0 0b 30
        E 32 b0 0b 28
        E 16 b0 0b 40
        E 0 80 1c 00
        E 0 90 1a 40
        E 16 b0 0b 38
        E 32 b0 0b 30
        E 32 b0 0b 28
        E 32 b0 0b 40
        E 0 80 1a 00
        E 0 90 1c 40
        E 16 b0 0b 38
        E 32 b0 0b 30
        E 32 b0 0b 28
        E 32 b0 0b 20
        E 16 b0 0b 40
        E 0 80 1c 00
        E 0 90 1f 40
        E 16 b0 0b 38
        E 32 b0 0b 30
        E 48 b0 0b 28
        E 16 b0 0b 40
        E 0 80 1f 00
        E 0 90 1c 40
        E 16 b0 0b 38
        E 32 b0 0b 30
        E 32 b0 0b 28
        E 32 b0 0b 20
        E 16 b0 0b 40
        E 16 b0 0b 38
        E 48 b0 0b 30
        E 32 b0 0b 28
        E 16 b0 0b 40
        E 16 b0 0b 38
        E 32 b0 0b 30
        E 32 b0 0b 28
        E 32 b0 0b 20
        E 16 b0 0b 40
        E 32 b0 0b 38
        E 32 b0 0b 30
        E 32 b0 0b 28
        E 16 b0 0b 40
        E 16 b0 0b 38
        E 32 b0 0b 30
        E 32 b0 0b 28
        E 32 b0 0b 40
        E 16 b0 0b 38
        E 32 b0 0b 30
        E 32 b0 0b 28
        E 32 b0 0b 20
        E 16 b0 0b 40
        E 16 b0 0b 38
        E 32 b0 0b 30
        E 48 b0 0b 28
        E 16 b0 0b 40
        E 16 b0 0b 38
        E 32 b0 0b 30
        E 32 b0 0b 28
        E 32 b0 0b 20
        E 16 b0 0b 40
        E 16 b0 0b 38
        E 48 b0 0b 30
        E 32 b0 0b 28
        E 16 b0 0b 40
        E 0 80 1c 00
        E 0 90 1a 40
        E 16 b0 0b 38
        E 32 b0 0b 30
        E 32 b0 0b 28
        E 32 b0 0b 20
        E 16 b0 0b 40
        E 0 80 1a 00
        E 0 90 1c 40
        E 32 b0 0b 38
        E 32 b0 0b 30
        E 32 b0 0b 28
        E 16 b0 0b 40
        E 0 80 1c 00
        E 0 90 1f 40
        E 16 b0 0b 38
        E 32 b0 0b 30
        E 32 b0 0b 28
        E 32 b0 0b 40
        E 0 80 1f 00
        E 0 90 21 40
        E 16 b0 0b 38
        E 32 b0 0b 30
        E 32 b0 0b 28
        E 32 b0 0b 20
        E 16 b0 0b 40
        E 0 80 21 00
        E 0 90 1f 40
        E 16 b0 0b 38
        E 48 b0 0b 30
        E 32 b0 0b 28
        E 16 b0 0b 40
        E 0 80 1f 00
        E 0 90 1c 40
        E 16 b0 0b 38
        E 32 b0 0b 30
        E 32 b0 0b 28
        E 32 b0 0b 20
        E 16 b0 0b 40
        E 0 80 1c 00
        E 0 90 1a 40
        E 32 b0 0b 38
        E 32 b0 0b 30
        E 32 b0 0b 28
        E 16 b0 0b 40
        E 0 80 1a 00
        E 0 90 1c 40
        E 16 b0 0b 38
        E 32 b0 0b 30
        E 32 b0 0b 28
        E 32 b0 0b 40
        E 16 b0 0b 38
        E 32 b0 0b 30
        E 32 b0 0b 28
        E 32 b0 0b 20
        E 16 b0 0b 40
        E 16 b0 0b 38
        E 32 b0 0b 30
        E 48 b0 0b 28
        E 16 b0 0b 40
        E 16 b0 0b 38
        E 32 b0 0b 30
        E 32 b0 0b 28
        E 32 b0 0b 20
        E 16 b0 0b 40
        E 16 b0 0b 38
        E 48 b0 0b 30
        E 32 b0 0b 28
        E 16 b0 0b 40
        E 16 b0 0b 38
        E 32 b0 0b 30
        E 32 b0 0b 28
        E 32 b0 0b 20
        E 16 b0 0b 40
        E 32 b0 0b 38
        E 32 b0 0b 30
        E 32 b0 0b 28
        E 16 b0 0b 40
        E 16 b0 0b 38
        E 32 b0 0b 30
        E 32 b0 0b 28
        E 32 b0 0b 40
        E 16 b0 0b 38
        E 32 b0 0b 30
        E 32 b0 0b 28
        E 32 b0 0b 20
        E 16 b0 0b 40
        E 16 b0 0b 38
        E 32 b0 0b 30
        E 48 b0 0b 28
        E 16 b0 0b 40
        E 16 b0 0b 38
        E 32 b0 0b 30
        E 32 b0 0b 28
        E 32 b0 0b 20
        E 16 b0 0b 40
        E 16 b0 0b 38
        E 48 b0 0b 30
        E 32 b0 0b 28
        E 16 b0 0b 40
        E 16 b0 0b 38
        E 32 b0 0b 30
        E 32 b0 0b 28
        E 32 b0 0b 20
        E 16 b0 0b 40
        E 0 80 1c 00
        E 0 90 1a 40
        E 32 b0 0b 38
        E 32 b0 0b 30
        E 32 b0 0b 28
        E 16 b0 0b 40
        E 0 80 1a 00
        E 0 90 1c 40
        E 16 b0 0b 38
        E 32 b0 0b 30
        E 48 b0 0b 28
        E 16 b0 0b 40
        E 0 80 1c 00
        E 0 90 1f 40
        E 16 b0 0b 38
        E 32 b0 0b 30
        E 32 b0 0b 28
        E 32 b0 0b 20
        E 16 b0 0b 40
        E 0 80 1f 00
        E 0 90 1c 40
        E 16 b0 0b 38
        E 48 b0 0b 30
        E 32 b0 0b 28
        E 16 b0 0b 40
        E 16 b0 0b 38
        E 32 b0 0b 30
        E 32 b0 0b 28
        E 32 b0 0b 20
        E 16 b0 0b 40
        E 32 b0 0b 38
        E 32 b0 0b 30
        E 32 b0 0b 28
        E 16 b0 0b 40
        E 16 b0 0b 38
        E 32 b0 0b 30
        E 32 b0 0b 28
        E 32 b0 0b 40
        E 16 b0 0b 38
        E 32 b0 0b 30
        E 32 b0 0b 28
        E 32 b0 0b 20
        E 16 b0 0b 40
        E 16 b0 0b 38
        E 32 b0 0b 30
        E 48 b0 0b 28
        E 16 b0 0b 40
        E 16 b0 0b 38
        E 32 b0 0b 30
        E 32 b0 0b 28
        E 32 b0 0b 20
        E 16 b0 0b 40
        E 16 b0 0b 38
        E 48 b0 0b 30
        E 32 b0 0b 28
        E 16 b0 0c 10
        E 0 b0 0b 48
        E 0 80 1c 00
        E 0 90 26 48
        E 16 b0 0b 40
        E 32 b0 0b 38
        E 16 b0 0b 48
        E 0 80 26 00
        E 0 90 28 48
        E 16 b0 0b 40
        E 32 b0 0b 38
        E 16 b0 0b 48
        E 0 80 28 00
        E 0 90 2b 48
        E 32 b0 0b 40
        E 16 b0 0b 48
        E 0 80 2b 00
        E 0 90 2d 48
        E 16 b0 0b 40
        E 32 b0 0b 38
        E 16 b0 0b 48
        E 0 80 2d 00
        E 0 90 2b 48
        E 16 b0 0b 40
        E 32 b0 0b 38
        E 16 b0 0b 48
        E 0 80 2b 00
        E 0 90 2d 48
        E 16 b0 0b 40
        E 32 b0 0b 48
        E 0 80 2d 00
        E 0 90 2f 48
        E 16 b0 0b 40
        E 32 b0 0b 38
        E 16 b0 0b 48
        E 0 80 2f 00
        E 0 90 32 48
        E 16 b0 0b 40
        E 32 b0 0b 38
        E 16 b0 0b 48
        E 0 80 32 00
        E 0 90 34 48
        E 16 b0 0b 40
        E 32 b0 0b 38
        E 16 b0 0b 48
        E 0 80 34 00
        E 0 90 37 48
        E 32 b0 0b 40
        E 16 b0 0b 48
        E 0 80 37 00
        E 0 90 39 48
        E 16 b0 0b 40
        E 32 b0 0b 38
        E 16 b0 0b 48
        E 0 80 39 00
        E 0 90 3b 48
        E 16 b0 0b 40
        E 32 b0 0b 38
        E 16 b0 0b 48
        E 0 80 3b 00
        E 0 90 3e 48
        E 16 b0 0b 40
        E 32 b0 0b 48
        E 0 80 3e 00
        E 0 90 40 48
        E 16 b0 0b 40
        E 32 b0 0b 38
        E 16 b0 0b 48
        E 0 80 40 00
        E 0 90 43 48
        E 16 b0 0b 40
        E 32 b0 0b 38
        E 16 b0 0b 48
        E 0 80 43 00
        E 0 90 45 48
        E 16 b0 0b 40
        E 32 b0 0c 20
        E 0 80 45 00
        E 0 90 1c 40
        E 16 b0 0b 38
        E 32 b0 0b 30
        E 32 b0 0b 28
        E 32 b0 0b 20
        E 16 b0 0b 40
        E 16 b0 0b 38
        E 32 b0 0b 30
        E 48 b0 0b 28
        E 16 b0 0b 40
        E 16 b0 0b 38
        E 32 b0 0b 30
        E 32 b0 0b 28
        E 32 b0 0b 20
        E 16 b0 0b 40
        E 16 b0 0b 38
        E 48 b0 0b 30
        E 32 b0 0b 28
        E 16 b0 0b 40
        E 16 b0 0b 38
        E 32 b0 0b 30
        E 32 b0 0b 28
        E 32 b0 0b 20
        E 16 b0 0b 40
        E 32 b0 0b 38
        E 32 b0 0b 30
        E 32 b0 0b 28
        E 16 b0 0b 40
        E 16 b0 0b 38
        E 32 b0 0b 30
        E 32 b0 0b 28
        E 32 b0 0b 40
        E 16 b0 0b 38
        E 32 b0 0b 30
        E 32 b0 0b 28
        E 32 b0 0b 20
        E 16 b0 0b 40
        E 16 b0 0b 38
        E 32 b0 0b 30
        E 48 b0 0b 28
        E 16 b0 0b 40
        E 16 b0 0b 38
        E 32 b0 0b 30
        E 32 b0 0b 28
        E 32 b0 0b 20
        E 16 b0 0b 40
        E 16 b0 0b 38
        E 48 b0 0b 30
        E 32 b0 0b 28
        E 16 b0 0b 40
        E 16 b0 0b 38
        E 32 b0 0b 30
        E 32 b0 0b 28
        E 32 b0 0b 20
        E 16 b0 0b 40
        E 32 b0 0b 38
        E 32 b0 0b 30
        E 32 b0 0b 28
        E 16 b0 0b 40
        E 0 80 1c 00
        E 0 90 1a 40
        E 16 b0 0b 38
        E 32 b0 0b 30
        E 32 b0 0b 28
        E 32 b0 0b 40
        E 0 80 1a 00
        E 0 90 1c 40
        E 16 b0 0b 38
        E 32 b0 0b 30
        E 32 b0 0b 28
        E 32 b0 0b 20
        E 16 b0 0b 40
        E 0 80 1c 00
        E 0 90 1f 40
        E 16 b0 0b 38
        E 32 b0 0b 30
        E 48 b0 0b 28
        E 16 b0 0b 40
        E 0 80 1f 00
        E 0 90 1c 40
        E 16 b0 0b 38
        E 32 b0 0b 30
        E 32 b0 0b 28
        E 32 b0 0b 20
        E 16 b0 0b 40
        E 32 b0 0b 38
        E 32 b0 0b 30
        E 32 b0 0b 28
        E 16 b0 0b 40
        E 16 b0 0b 38
        E 32 b0 0b 30
        E 32 b0 0b 28
        E 32 b0 0b 40
        E 16 b0 0b 38
        E 32 b0 0b 30
        E 32 b0 0b 28
        E 32 b0 0b 20
        E 16 b0 0b 40
        E 16 b0 0b 38
        E 32 b0 0b 30
        E 48 b0 0b 28
        E 16 b0 0b 40
        E 16 b0 0b 38
        E 32 b0 0b 30
        E 32 b0 0b 28
        E 32 b0 0b 20
        E 16 b0 0b 40
        E 16 b0 0b 38
        E 48 b0 0b 30
        E 32 b0 0b 28
        E 16 b0 0b 40
        E 16 b0 0b 38
        E 32 b0 0b 30
        E 32 b0 0b 28
        E 32 b0 0b 20
        E 16 b0 0b 40
        E 32 b0 0b 38
        E 32 b0 0b 30
        E 32 b0 0b 28
        E 16 b0 0b 40
        E 0 80 1c 00
        E 0 90 1a 40
        E 16 b0 0b 38
        E 32 b0 0b 30
        E 32 b0 0b 28
        E 32 b0 0b 40
        E 0 80 1a 00
        E 0 90 1c 40
        E 16 b0 0b 38
        E 32 b0 0b 30
        E 32 b0 0b 28
        E 32 b0 0b 20
        E 16 b0 0b 40
        E 0 80 1c 00
        E 0 90 1f 40
        E 16 b0 0b 38
        E 32 b0 0b 30
        E 48 b0 0b 28
        E 16 b0 0b 40
        E 0 80 1f 00
        E 0 90 21 40
        E 16 b0 0b 38
        E 32 b0 0b 30
        E 32 b0 0b 28
        E 32 b0 0b 20
        E 16 b0 0b 40
        E 0 80 21 00
        E 0 90 1f 40
        E 16 b0 0b 38
        E 48 b0 0b 30
        E 32 b0 0b 28
        E 16 b0 0b 40
        E 0 80 1f 00
        E 0 90 1c 40
        E 16 b0 0b 38
        E 32 b0 0b 30
        E 32 b0 0b 28
        E 32 b0 0b 20
        E 16 b0 0b 40
        E 0 80 1c 00
        E 0 90 1a 40
        E 32 b0 0b 38
        E 32 b0 0b 30
        E 32 b0 0b 28
        E 16 b0 0b 40
        E 0 80 1a 00
        E 0 90 1c 40
        E 16 b0 0b 38
        E 32 b0 0b 30
        E 32 b0 0b 28
        E 32 b0 0b 40
        E 16 b0 0b 38
        E 32 b0 0b 30
        E 32 b0 0b 28
        E 32 b0 0b 20
        E 16 b0 0b 40
        E 16 b0 0b 38
        E 48 b0 0b 30
        E 32 b0 0b 28
        E 16 b0 0b 40
        E 16 b0 0b 38
        E 32 b0 0b 30
        E 32 b0 0b 28
        E 32 b0 0b 20
        E 16 b0 0b 40
        E 32 b0 0b 38
        E 32 b0 0b 30
        E 32 b0 0b 28
        E 16 b0 0b 40
        E 16 b0 0b 38
        E 32 b0 0b 30
        E 32 b0 0b 28
        E 32 b0 0b 40
        E 16 b0 0b 38
        E 32 b0 0b 30
        E 32 b0 0b 28
        E 32 b0 0b 20
        E 16 b0 0b 40
        E 16 b0 0b 38
        E 32 b0 0b 30
        E 48 b0 0b 28
        E 16 b0 0b 40
        E 16 b0 0b 38
        E 32 b0 0b 30
        E 32 b0 0b 28
        E 32 b0 0b 20
        E 16 b0 0b 40
        E 16 b0 0b 38
        E 48 b0 0b 30
        E 32 b0 0b 28
        E 16 b0 0b 40
        E 16 b0 0b 38
        E 32 b0 0b 30
        E 32 b0 0b 28
        E 32 b0 0b 20
        E 16 b0 0b 40
        E 32 b0 0b 38
        E 32 b0 0b 30
        E 32 b0 0b 28
        E 16 b0 0b 40
        E 16 b0 0b 38
        E 32 b0 0b 30
        E 32 b0 0b 28
        E 32 b0 0b 40
        E 0 80 1c 00
        E 0 90 1a 40
        E 16 b0 0b 38
        E 32 b0 0b 30
        E 32 b0 0b 28
        E 32 b0 0b 20
        E 16 b0 0b 40
        E 0 80 1a 00
        E 0 90 1c 40
        E 16 b0 0b 38
        E 32 b0 0b 30
        E 48 b0 0b 28
        E 16 b0 0b 40
        E 0 80 1c 00
        E 0 90 1f 40
        E 16 b0 0b 38
        E 32 b0 0b 30
        E 32 b0 0b 28
        E 32 b0 0b 20
        E 16 b0 0b 40
        E 0 80 1f 00
        E 0 90 1c 40
        E 16 b0 0b 38
        E 48 b0 0b 30
        E 32 b0 0b 28
        E 16 b0 0b 40
        E 16 b0 0b 38
        E 32 b0 0b 30
        E 32 b0 0b 28
        E 32 b0 0b 20
        E 16 b0 0b 40
        E 32 b0 0b 38
        E 32 b0 0b 30
        E 32 b0 0b 28
        E 16 b0 0b 40
        E 16 b0 0b 38
        E 32 b0 0b 30
        E 48 b0 0b 28
        E 16 b0 0b 40
        E 16 b0 0b 38
        E 32 b0 0b 30
        E 32 b0 0b 28
        E 32 b0 0b 20
        E 16 b0 0b 40
        E 16 b0 0b 38
        E 48 b0 0b 30
        E 32 b0 0b 28
        E 16 b0 0b 40
        E 16 b0 0b 38
        E 32 b0 0b 30
        E 32 b0 0b 28
        E 32 b0 0b 20
        E 16 b0 0b 40
        E 32 b0 0b 38
        E 32 b0 0b 30
        E 32 b0 0b 28
        E 16 b0 0c 10
        E 0 b0 0b 48
        E 0 80 1c 00
        E 0 90 26 48
        E 16 b0 0b 40
        E 32 b0 0b 38
        E 16 b0 0b 48
        E 0 80 26 00
        E 0 90 28 48
        E 16 b0 0b 40
        E 32 b0 0b 48
        E 0 80 28 00
        E 0 90 2b 48
        E 16 b0 0b 40
        E 32 b0 0b 38
        E 16 b0 0b 48
        E 0 80 2b 00
        E 0 90 2d 48
        E 16 b0 0b 40
        E 32 b0 0b 38
        E 16 b0 0b 48
        E 0 80 2d 00
        E 0 90 2b 48
        E 16 b0 0b 40
        E 32 b0 0b 38
        E 16 b0 0b 48
        E 0 80 2b 00
        E 0 90 2d 48
        E 32 b0 0b 40
        E 16 b0 0b 48
        E 0 80 2d 00
        E 0 90 2f 48
        E 16 b0 0b 40
        E 32 b0 0b 38
        E 16 b0 0b 48
        E 0 80 2f 00
        E 0 90 32 48
        E 16 b0 0b 40
        E 32 b0 0b 38
        E 16 b0 0b 48
        E 0 80 32 00
        E 0 90 34 48
        E 16 b0 0b 40
        E 32 b0 0b 48
        E 0 80 34 00
        E 0 90 37 48
        E 16 b0 0b 40
        E 32 b0 0b 38
        E 16 b0 0b 48
        E 0 80 37 00
        E 0 90 39 48
        E 16 b0 0b 40
        E 32 b0 0b 38
        E 16 b0 0b 48
        E 0 80 39 00
        E 0 90 3b 48
        E 16 b0 0b 40
        E 32 b0 0b 38
        E 16 b0 0b 48
        E 0 80 3b 00
        E 0 90 3e 48
        E 32 b0 0b 40
        E 16 b0 0b 48
        E 0 80 3e 00
        E 0 90 40 48
        E 16 b0 0b 40
        E 32 b0 0b 38
        E 16 b0 0b 48
        E 0 80 40 00
        E 0 90 43 48
        E 16 b0 0b 40
        E 32 b0 0b 38
        E 16 b0 0b 48
        E 0 80 43 00
        E 0 90 45 48
        E 16 b0 0b 40
        E 32 b0 0c 20
        E 0 80 45 00
        E 0 90 1c 40
        E 16 b0 0b 38
        E 32 b0 0b 30
        E 32 b0 0b 28
        E 32 b0 0b 20
        E 16 b0 0b 40
        E 16 b0 0b 38
        E 32 b0 0b 30
        E 48 b0 0b 28
        E 16 b0 0b 40
        E 16 b0 0b 38
        E 32 b0 0b 30
        E 32 b0 0b 28
        E 32 b0 0b 20
        E 16 b0 0b 40
        E 16 b0 0b 38
        E 48 b0 0b 30
        E 32 b0 0b 28
        E 16 b0 0b 40
        E 16 b0 0b 38
        E 32 b0 0b 30
        E 32 b0 0b 28
        E 32 b0 0b 40
        E 16 b0 0b 38
        E 32 b0 0b 30
        E 32 b0 0b 28
        E 32 b0 0b 20
        E 16 b0 0b 40
        E 16 b0 0b 38
        E 32 b0 0b 30
        E 48 b0 0b 28
        E 16 b0 0b 40
        E 16 b0 0b 38
        E 32 b0 0b 30
        E 32 b0 0b 28
        E 32 b0 0b 20
        E 16 b0 0b 40
        E 16 b0 0b 38
        E 48 b0 0b 30
        E 32 b0 0b 28
        E 16 b0 0b 40
        E 16 b0 0b 38
        E 32 b0 0b 30
        E 32 b0 0b 28
        E 32 b0 0b 20
        E 16 b0 0b 40
        E 32 b0 0b 38
        E 32 b0 0b 30
        E 32 b0 0b 28
        E 16 b0 0b 40
        E 16 b0 0b 38
        E 32 b0 0b 30
        E 32 b0 0b 28
        E 32 b0 0b 40
        E 16 b0 0b 38
        E 32 b0 0b 30
        E 32 b0 0b 28
        E 32 b0 0b 20
        E 16 b0 0b 40
        E 0 80 1c 00
        E 0 90 1a 40
        E 16 b0 0b 38
        E 32 b0 0b 30
        E 48 b0 0b 28
        E 16 b0 0b 40
        E 0 80 1a 00
        E 0 90 1c 40
        E 16 b0 0b 38
        E 32 b0 0b 30
        E 32 b0 0b 28
        E 32 b0 0b 20
        E 16 b0 0b 40
        E 0 80 1c 00
        E 0 90 1f 40
        E 16 b0 0b 38
        E 48 b0 0b 30
        E 32 b0 0b 28
        E 16 b0 0b 40
        E 0 80 1f 00
        E 0 90 1c 40
        E 16 b0 0b 38
        E 32 b0 0b 30
        E 32 b0 0b 28
        E 32 b0 0b 20
        E 16 b0 0b 40
        E 32 b0 0b 38
        E 32 b0 0b 30
        E 32 b0 0b 28
        E 16 b0 0b 40
        E 16 b0 0b 38
        E 32 b0 0b 30
        E 32 b0 0b 28
        E 32 b0 0b 40
        E 16 b0 0b 38
        E 32 b0 0b 30
        E 32 b0 0b 28
        E 32 b0 0b 20
        E 16 b0 0b 40
        E 16 b0 0b 38
        E 32 b0 0b 30
        E 48 b0 0b 28
        E 16 b0 0b 40
        E 16 b0 0b 38
        E 32 b0 0b 30
        E 32 b0 0b 28
        E 32 b0 0b 20
        E 16 b0 0b 40
        E 32 b0 0b 38
        E 32 b0 0b 30
        E 32 b0 0b 28
        E 16 b0 0b 40
        E 16 b0 0b 38
        E 32 b0 0b 30
        E 32 b0 0b 28
        E 32 b0 0b 40
        E 16 b0 0b 38
        E 32 b0 0b 30
        E 32 b0 0b 28
        E 32 b0 0b 20
        E 16 b0 0b 40
        E 0 80 1c 00
        E 0 90 1a 40
        E 16 b0 0b 38
        E 32 b0 0b 30
        E 48 b0 0b 28
        E 16 b0 0b 40
        E 0 80 1a 00
        E 0 90 1c 40
        E 16 b0 0b 38
        E 32 b0 0b 30
        E 32 b0 0b 28
        E 32 b0 0b 20
        E 16 b0 0b 40
        E 0 80 1c 00
        E 0 90 1f 40
        E 16 b0 0b 38
        E 48 b0 0b 30
        E 32 b0 0b 28
        E 16 b0 0b 40
        E 0 80 1f 00
        E 0 90 21 40
        E 16 b0 0b 38
        E 32 b0 0b 30
        E 32 b0 0b 28
        E 32 b0 0b 20
        E 16 b0 0b 40
        E 0 80 21 00
        E 0 90 1f 40
        E 32 b0 0b 38
        E 32 b0 0b 30
        E 32 b0 0b 28
        E 16 b0 0b 40
        E 0 80 1f 00
        E 0 90 1c 40
        E 16 b0 0b 38
        E 32 b0 0b 30
        E 32 b0 0b 28
        E 32 b0 0b 40
        E 0 80 1c 00
        E 0 90 1a 40
        E 16 b0 0b 38
        E 32 b0 0b 30
        E 32 b0 0b 28
        E 32 b0 0b 20
        E 16 b0 0b 40
        E 0 80 1a 00
        E 0 90 1c 40
        E 16 b0 0b 38
        E 32 b0 0b 30
        E 48 b0 0b 28
        E 16 b0 0b 40
        E 16 b0 0b 38
        E 32 b0 0b 30
        E 32 b0 0b 28
        E 32 b0 0b 20
        E 16 b0 0b 40
        E 16 b0 0b 38
        E 48 b0 0b 30
        E 32 b0 0b 28
        E 16 b0 0b 40
        E 16 b0 0b 38
        E 32 b0 0b 30
        E 32 b0 0b 28
        E 32 b0 0b 20
        E 16 b0 0b 40
        E 32 b0 0b 38
        E 32 b0 0b 30
        E 32 b0 0b 28
        E 16 b0 0b 40
        E 16 b0 0b 38
        E 32 b0 0b 30
        E 32 b0 0b 28
        E 32 b0 0b 40
        E 16 b0 0b 38
        E 32 b0 0b 30
        E 32 b0 0b 28
        E 32 b0 0b 20
        E 16 b0 0b 40
        E 16 b0 0b 38
        E 48 b0 0b 30
        E 32 b0 0b 28
        E 16 b0 0b 40
        E 16 b0 0b 38
        E 32 b0 0b 30
        E 32 b0 0b 28
        E 32 b0 0b 20
        E 16 b0 0b 40
        E 32 b0 0b 38
        E 32 b0 0b 30
        E 32 b0 0b 28
        E 16 b0 0b 40
        E 16 b0 0b 38
        E 32 b0 0b 30
        E 32 b0 0b 28
        E 32 b0 0b 40
        E 16 b0 0b 38
        E 32 b0 0b 30
        E 32 b0 0b 28
        E 32 b0 0b 20
        E 16 b0 0b 40
        E 16 b0 0b 38
        E 32 b0 0b 30
        E 48 b0 0b 28
        E 16 b0 0b 40
        E 0 80 1c 00
        E 0 90 1a 40
        E 16 b0 0b 38
        E 32 b0 0b 30
        E 32 b0 0b 28
        E 32 b0 0b 20
        E 16 b0 0b 40
        E 0 80 1a 00
        E 0 90 1c 40
        E 16 b0 0b 38
        E 48 b0 0b 30
        E 32 b0 0b 28
        E 16 b0 0b 40
        E 0 80 1c 00
        E 0 90 1f 40
        E 16 b0 0b 38
        E 32 b0 0b 30
        E 32 b0 0b 28
        E 32 b0 0b 20
        E 16 b0 0b 40
        E 0 80 1f 00
        E 0 90 1c 40
        E 32 b0 0b 38
        E 32 b0 0b 30
        E 32 b0 0b 28
        E 16 b0 0b 40
        E 16 b0 0b 38
        E 32 b0 0b 30
        E 32 b0 0b 28
        E 32 b0 0b 40
        E 16 b0 0b 38
        E 32 b0 0b 30
        E 32 b0 0b 28
        E 32 b0 0b 20
        E 16 b0 0b 40
        E 16 b0 0b 38
        E 32 b0 0b 30
        E 48 b0 0b 28
        E 16 b0 0b 40
        E 16 b0 0b 38
        E 32 b0 0b 30
        E 32 b0 0b 28
        E 32 b0 0b 20
        E 16 b0 0b 40
        E 16 b0 0b 38
        E 48 b0 0b 30
        E 32 b0 0b 28
        E 16 b0 0b 40
        E 16 b0 0b 38
        E 32 b0 0b 30
        E 32 b0 0b 28
        E 32 b0 0b 20
        E 16 b0 0b 40
        E 32 b0 0b 38
        E 32 b0 0b 30
        E 32 b0 0b 28
        E 16 b0 0c 10
        E 0 b0 0b 48
        E 0 80 1c 00
        E 0 90 26 48
        E 16 b0 0b 40
        E 32 b0 0b 38
        E 16 b0 0b 48
        E 0 80 26 00
        E 0 90 28 48
        E 32 b0 0b 40
        E 16 b0 0b 48
        E 0 80 28 00
        E 0 90 2b 48
        E 16 b0 0b 40
        E 32 b0 0b 38
        E 16 b0 0b 48
        E 0 80 2b 00
        E 0 90 2d 48
        E 16 b0 0b 40
        E 32 b0 0b 38
        E 16 b0 0b 48
        E 0 80 2d 00
        E 0 90 2b 48
        E 16 b0 0b 40
        E 32 b0 0b 48
        E 0 80 2b 00
        E 0 90 2d 48
        E 16 b0 0b 40
        E 32 b0 0b 38
        E 16 b0 0b 48
        E 0 80 2d 00
        E 0 90 2f 48
        E 16 b0 0b 40
        E 32 b0 0b 38
        E 16 b0 0b 48
        E 0 80 2f 00
        E 0 90 32 48
        E 16 b0 0b 40
        E 32 b0 0b 38
        E 16 b0 0b 48
        E 0 80 32 00
        E 0 90 34 48
        E 32 b0 0b 40
        E 16 b0 0b 48
        E 0 80 34 00
        E 0 90 37 48
        E 16 b0 0b 40
        E 32 b0 0b 38
        E 16 b0 0b 48
        E 0 80 37 00
        E 0 90 39 48
        E 16 b0 0b 40
        E 32 b0 0b 38
        E 16 b0 0b 48
        E 0 80 39 00
        E 0 90 3b 48
        E 16 b0 0b 40
        E 32 b0 0b 48
        E 0 80 3b 00
        E 0 90 3e 48
        E 16 b0 0b 40
        E 32 b0 0b 38
        E 16 b0 0b 48
        E 0 80 3e 00
        E 0 90 40 48
        E 16 b0 0b 40
        E 32 b0 0b 38
        E 16 b0 0b 48
        E 0 80 40 00
        E 0 90 43 48
        E 16 b0 0b 40
        E 32 b0 0b 38
        E 16 b0 0b 48
        E 0 80 43 00
        E 0 90 45 48
        E 32 b0 0b 40
        E 16 b0 0c 20
        E 0 80 45 00
        E 0 90 1c 40
        E 16 b0 0b 38
        E 32 b0 0b 30
        E 32 b0 0b 28
        E 32 b0 0b 20
        E 16 b0 0b 40
        E 16 b0 0b 38
        E 48 b0 0b 30
        E 32 b0 0b 28
        E 16 b0 0b 40
        E 16 b0 0b 38
        E 32 b0 0b 30
        E 32 b0 0b 28
        E 32 b0 0b 20
        E 16 b0 0b 40
        E 32 b0 0b 38
        E 32 b0 0b 30
        E 32 b0 0b 28
        E 16 b0 0b 40
        E 16 b0 0b 38
        E 32 b0 0b 30
        E 32 b0 0b 28
        E 32 b0 0b 40
        E 16 b0 0b 38
        E 32 b0 0b 30
        E 32 b0 0b 28
        E 32 b0 0b 20
        E 16 b0 0b 40
        E 16 b0 0b 38
        E 32 b0 0b 30
        E 48 b0 0b 28
        E 16 b0 0b 40
        E 16 b0 0b 38
        E 32 b0 0b 30
        E 32 b0 0b 28
        E 32 b0 0b 20
        E 16 b0 0b 40
        E 16 b0 0b 38
        E 48 b0 0b 30
        E 32 b0 0b 28
        E 16 b0 0b 40
        E 16 b0 0b 38
        E 32 b0 0b 30
        E 32 b0 0b 28
        E 32 b0 0b 40
        E 16 b0 0b 38
        E 32 b0 0b 30
        E 32 b0 0b 28
        E 32 b0 0b 20
        E 16 b0 0b 40
        E 16 b0 0b 38
        E 32 b0 0b 30
        E 48 b0 0b 28
        E 16 b0 0b 40
        E 16 b0 0b 38
        E 32 b0 0b 30
        E 32 b0 0b 28
        E 32 b0 0b 20
        E 16 b0 0b 40
        E 0 80 1c 00
        E 0 90 1a 40
        E 16 b0 0b 38
        E 48 b0 0b 30
        E 32 b0 0b 28
        E 16 b0 0b 40
        E 0 80 1a 00
        E 0 90 1c 40
        E 16 b0 0b 38
        E 32 b0 0b 30
        E 32 b0 0b 28
        E 32 b0 0b 20
        E 16 b0 0b 40
        E 0 80 1c 00
        E 0 90 1f 40
        E 32 b0 0b 38
        E 32 b0 0b 30
        E 32 b0 0b 28
        E 16 b0 0b 40
        E 0 80 1f 00
        E 0 90 1c 40
        E 16 b0 0b 38
        E 32 b0 0b 30
        E 32 b0 0b 28
        E 32 b0 0b 40
        E 16 b0 0b 38
        E 32 b0 0b 30
        E 32 b0 0b 28
        E 32 b0 0b 20
        E 16 b0 0b 40
        E 16 b0 0b 38
        E 32 b0 0b 30
        E 48 b0 0b 28
        E 16 b0 0b 40
        E 16 b0 0b 38
        E 32 b0 0b 30
        E 32 b0 0b 28
        E 32 b0 0b 20
        E 16 b0 0b 40
        E 16 b0 0b 38
        E 48 b0 0b 30
        E 32 b0 0b 28
        E 16 b0 0b 40
        E 16 b0 0b 38
        E 32 b0 0b 30
        E 32 b0 0b 28
        E 32 b0 0b 20
        E 16 b0 0b 40
        E 32 b0 0b 38
        E 32 b0 0b 30
        E 32 b0 0b 28
        E 16 b0 0b 40
        E 16 b0 0b 38
        E 32 b0 0b 30
        E 32 b0 0b 28
        E 32 b0 0b 40
        E 16 b0 0b 38
        E 32 b0 0b 30
        E 32 b0 0b 28
        E 32 b0 0b 20
        E 16 b0 0b 40
        E 0 80 1c 00
        E 0 90 1a 40
        E 16 b0 0b 38
        E 32 b0 0b 30
        E 48 b0 0b 28
        E 16 b0 0b 40
        E 0 80 1a 00
        E 0 90 1c 40
        E 16 b0 0b 38
        E 32 b0 0b 30
        E 32 b0 0b 28
        E 32 b0 0b 20
        E 16 b0 0b 40
        E 0 80 1c 00
        E 0 90 1f 40
        E 32 b0 0b 38
        E 32 b0 0b 30
        E 32 b0 0b 28
        E 16 b0 0b 40
        E 0 80 1f 00
        E 0 90 21 40
        E 16 b0 0b 38
        E 32 b0 0b 30
        E 32 b0 0b 28
        E 32 b0 0b 40
        E 0 80 21 00
        E 0 90 1f 40
        E 16 b0 0b 38
        E 32 b0 0b 30
        E 32 b0 0b 28
        E 32 b0 0b 20
        E 16 b0 0b 40
        E 0 80 1f 00
        E 0 90 1c 40
        E 16 b0 0b 38
        E 32 b0 0b 30
        E 48 b0 0b 28
        E 16 b0 0b 40
        E 0 80 1c 00
        E 0 90 1a 40
        E 16 b0 0b 38
        E 32 b0 0b 30
        E 32 b0 0b 28
        E 32 b0 0b 20
        E 16 b0 0b 40
        E 0 80 1a 00
        E 0 90 1c 40
        E 16 b0 0b 38
        E 48 b0 0b 30
        E 32 b0 0b 28
        E 16 b0 0b 40
        E 16 b0 0b 38
        E 32 b0 0b 30
        E 32 b0 0b 28
        E 32 b0 0b 20
        E 16 b0 0b 40
        E 32 b0 0b 38
        E 32 b0 0b 30
        E 32 b0 0b 28
        E 16 b0 0b 40
        E 16 b0 0b 38
        E 32 b0 0b 30
        E 32 b0 0b 28
        E 32 b0 0b 40
        E 16 b0 0b 38
        E 32 b0 0b 30
        E 32 b0 0b 28
        E 32 b0 0b 20
        E 16 b0 0b 40
        E 16 b0 0b 38
        E 32 b0 0b 30
        E 48 b0 0b 28
        E 16 b0 0b 40
        E 16 b0 0b 38
        E 32 b0 0b 30
        E 32 b0 0b 28
        E 32 b0 0b 20
        E 16 b0 0b 40
        E 16 b0 0b 38
        E 48 b0 0b 30
        E 32 b0 0b 28
        E 16 b0 0b 40
        E 16 b0 0b 38
        E 32 b0 0b 30
        E 32 b0 0b 28
        E 32 b0 0b 20
        E 16 b0 0b 40
        E 32 b0 0b 38
        E 32 b0 0b 30
        E 32 b0 0b 28
        E 16 b0 0b 40
        E 16 b0 0b 38
        E 32 b0 0b 30
        E 32 b0 0b 28
        E 32 b0 0b 40
        E 16 b0 0b 38
        E 32 b0 0b 30
        E 32 b0 0b 28
        E 32 b0 0b 20
        E 16 b0 0b 40
        E 16 b0 0b 38
        E 48 b0 0b 30
        E 32 b0 0b 28
        E 16 b0 0b 40
        E 0 80 1c 00
        E 0 90 1a 40
        E 16 b0 0b 38
        E 32 b0 0b 30
        E 32 b0 0b 28
        E 32 b0 0b 20
        E 16 b0 0b 40
        E 0 80 1a 00
        E 0 90 1c 40
        E 32 b0 0b 38
        E 32 b0 0b 30
        E 32 b0 0b 28
        E 16 b0 0b 40
        E 0 80 1c 00
        E 0 90 1f 40
        E 16 b0 0b 38
        E 32 b0 0b 30
        E 32 b0 0b 28
        E 32 b0 0b 40
        E 0 80 1f 00
        E 0 90 1c 40
        E 16 b0 0b 38
        E 32 b0 0b 30
        E 32 b0 0b 28
        E 32 b0 0b 20
        E 16 b0 0b 40
        E 16 b0 0b 38
        E 32 b0 0b 30
        E 48 b0 0b 28
        E 16 b0 0b 40
        E 16 b0 0b 38
        E 32 b0 0b 30
        E 32 b0 0b 28
        E 32 b0 0b 20
        E 16 b0 0b 40
        E 16 b0 0b 38
        E 48 b0 0b 30
        E 32 b0 0b 28
        E 16 b0 0b 40
        E 16 b0 0b 38
        E 32 b0 0b 30
        E 32 b0 0b 28
        E 32 b0 0b 20
        E 16 b0 0b 40
        E 32 b0 0b 38
        E 32 b0 0b 30
        E 32 b0 0b 28
        E 16 b0 0b 40
        E 16 b0 0b 38
        E 32 b0 0b 30
        E 32 b0 0b 28
        E 32 b0 0b 40
        E 16 b0 0b 38
        E 32 b0 0b 30
        E 32 b0 0b 28
        E 32 b0 0b 20
        E 16 b0 0c 10
        E 0 b0 0b 48
        E 0 80 1c 00
        E 0 90 26 48
        E 16 b0 0b 40
        E 32 b0 0b 38
        E 16 b0 0b 48
        E 0 80 26 00
        E 0 90 28 48
        E 32 b0 0b 40
        E 16 b0 0b 48
        E 0 80 28 00
        E 0 90 2b 48
        E 16 b0 0b 40
        E 32 b0 0b 38
        E 16 b0 0b 48
        E 0 80 2b 00
        E 0 90 2d 48
        E 16 b0 0b 40
        E 32 b0 0b 38
        E 16 b0 0b 48
        E 0 80 2d 00
        E 0 90 2b 48
        E 16 b0 0b 40
        E 32 b0 0b 48
        E 0 80 2b 00
        E 0 90 2d 48
        E 16 b0 0b 40
        E 32 b0 0b 38
        E 16 b0 0b 48
        E 0 80 2d 00
        E 0 90 2f 48
        E 16 b0 0b 40
        E 32 b0 0b 38
        E 16 b0 0b 48
        E 0 80 2f 00
        E 0 90 32 48
        E 16 b0 0b 40
        E 32 b0 0b 38
        E 16 b0 0b 48
        E 0 80 32 00
        E 0 90 34 48
        E 32 b0 0b 40
        E 16 b0 0b 48
        E 0 80 34 00
        E 0 90 37 48
        E 16 b0 0b 40
        E 32 b0 0b 38
        E 16 b0 0b 48
        E 0 80 37 00
        E 0 90 39 48
        E 16 b0 0b 40
        E 32 b0 0b 38
        E 16 b0 0b 48
        E 0 80 39 00
        E 0 90 3b 48
        E 32 b0 0b 40
        E 16 b0 0b 48
        E 0 80 3b 00
        E 0 90 3e 48
        E 16 b0 0b 40
        E 32 b0 0b 38
        E 16 b0 0b 48
        E 0 80 3e 00
        E 0 90 40 48
        E 16 b0 0b 40
        E 32 b0 0b 38
        E 16 b0 0b 48
        E 0 80 40 00
        E 0 90 43 48
        E 16 b0 0b 40
        E 32 b0 0b 48
        E 0 80 43 00
        E 0 90 45 48
        E 16 b0 0b 40
        E 32 b0 0b 38
        E 16 b0 0c 20
        E 0 b0 0b 40
        E 0 80 45 00
        E 0 90 1c 40
        E 16 b0 0b 38
        E 32 b0 0b 30
        E 32 b0 0b 28
        E 32 b0 0b 20
        E 16 b0 0b 40
        E 32 b0 0b 38
        E 32 b0 0b 30
        E 32 b0 0b 28
        E 16 b0 0b 40
        E 16 b0 0b 38
        E 32 b0 0b 30
        E 32 b0 0b 28
        E 32 b0 0b 40
        E 16 b0 0b 38
        E 32 b0 0b 30
        E 32 b0 0b 28
        E 32 b0 0b 20
        E 16 b0 0b 40
        E 16 b0 0b 38
        E 32 b0 0b 30
        E 48 b0 0b 28
        E 16 b0 0b 40
        E 16 b0 0b 38
        E 32 b0 0b 30
        E 32 b0 0b 28
        E 32 b0 0b 20
        E 16 b0 0b 40
        E 16 b0 0b 38
        E 48 b0 0b 30
        E 32 b0 0b 28
        E 16 b0 0b 40
        E 16 b0 0b 38
        E 32 b0 0b 30
        E 32 b0 0b 28
        E 32 b0 0b 20
        E 16 b0 0b 40
        E 32 b0 0b 38
        E 32 b0 0b 30
        E 32 b0 0b 28
        E 16 b0 0b 40
        E 16 b0 0b 38
        E 32 b0 0b 30
        E 32 b0 0b 28
        E 32 b0 0b 40
        E 16 b0 0b 38
        E 32 b0 0b 30
        E 32 b0 0b 28
        E 32 b0 0b 20
        E 16 b0 0b 40
        E 16 b0 0b 38
        E 32 b0 0b 30
        E 48 b0 0b 28
        E 16 b0 0b 40
        E 16 b0 0b 38
        E 32 b0 0b 30
        E 32 b0 0b 28
        E 32 b0 0b 20
        E 16 b0 0b 40
        E 0 80 1c 00
        E 0 90 1a 40
        E 16 b0 0b 38
        E 48 b0 0b 30
        E 32 b0 0b 28
        E 16 b0 0b 40
        E 0 80 1a 00
        E 0 90 1c 40
        E 16 b0 0b 38
        E 32 b0 0b 30
        E 32 b0 0b 28
        E 32 b0 0b 40
        E 0 80 1c 00
        E 0 90 1f 40
        E 16 b0 0b 38
        E 32 b0 0b 30
        E 32 b0 0b 28
        E 32 b0 0b 20
        E 16 b0 0b 40
        E 0 80 1f 00
        E 0 90 1c 40
        E 16 b0 0b 38
        E 32 b0 0b 30
        E 48 b0 0b 28
        E 16 b0 0b 40
        E 16 b0 0b 38
        E 32 b0 0b 30
        E 32 b0 0b 28
        E 32 b0 0b 20
        E 16 b0 0b 40
        E 16 b0 0b 38
        E 48 b0 0b 30
        E 32 b0 0b 28
        E 16 b0 0b 40
        E 16 b0 0b 38
        E 32 b0 0b 30
        E 32 b0 0b 28
        E 32 b0 0b 20
        E 16 b0 0b 40
        E 32 b0 0b 38
        E 32 b0 0b 30
        E 32 b0 0b 28
        E 16 b0 0b 40
        E 16 b0 0b 38
        E 32 b0 0b 30
        E 32 b0 0b 28
        E 32 b0 0b 40
        E 16 b0 0b 38
        E 32 b0 0b 30
        E 32 b0 0b 28
        E 32 b0 0b 20
        E 16 b0 0b 40
        E 16 b0 0b 38
        E 32 b0 0b 30
        E 48 b0 0b 28
        E 16 b0 0b 40
        E 16 b0 0b 38
        E 32 b0 0b 30
        E 32 b0 0b 28
        E 32 b0 0b 20
        E 16 b0 0b 40
        E 0 80 1c 00
        E 0 90 1a 40
        E 16 b0 0b 38
        E 48 b0 0b 30
        E 32 b0 0b 28
        E 16 b0 0b 40
        E 0 80 1a 00
        E 0 90 1c 40
        E 16 b0 0b 38
        E 32 b0 0b 30
        E 32 b0 0b 28
        E 32 b0 0b 20
        E 16 b0 0b 40
        E 0 80 1c 00
        E 0 90 1f 40
        E 32 b0 0b 38
        E 32 b0 0b 30
        E 32 b0 0b 28
        E 16 b0 0b 40
        E 0 80 1f 00
        E 0 90 21 40
        E 16 b0 0b 38
        E 32 b0 0b 30
        E 32 b0 0b 28
        E 32 b0 0b 40
        E 0 80 21 00
        E 0 90 1f 40
        E 16 b0 0b 38
        E 32 b0 0b 30
        E 32 b0 0b 28
        E 32 b0 0b 20
        E 16 b0 0b 40
        E 0 80 1f 00
        E 0 90 1c 40
        E 16 b0 0b 38
        E 32 b0 0b 30
        E 48 b0 0b 28
        E 16 b0 0b 40
        E 0 80 1c 00
        E 0 90 1a 40
        E 16 b0 0b 38
        E 32 b0 0b 30
        E 32 b0 0b 28
        E 32 b0 0b 20
        E 16 b0 0b 40
        E 0 80 1a 00
        E 0 90 1c 40
        E 32 b0 0b 38
        E 32 b0 0b 30
        E 32 b0 0b 28
        E 16 b0 0b 40
        E 16 b0 0b 38
        E 32 b0 0b 30
        E 32 b0 0b 28
        E 32 b0 0b 40
        E 16 b0 0b 38
        E 32 b0 0b 30
        E 32 b0 0b 28
        E 32 b0 0b 20
        E 16 b0 0b 40
        E 16 b0 0b 38
        E 32 b0 0b 30
        E 48 b0 0b 28
        E 16 b0 0b 40
        E 16 b0 0b 38
        E 32 b0 0b 30
        E 32 b0 0b 28
        E 32 b0 0b 20
        E 16 b0 0b 40
        E 16 b0 0b 38
        E 48 b0 0b 30
        E 32 b0 0b 28
        E 16 b0 0b 40
        E 16 b0 0b 38
        E 32 b0 0b 30
        E 32 b0 0b 28
        E 32 b0 0b 20
        E 16 b0 0b 40
        E 32 b0 0b 38
        E 32 b0 0b 30
        E 32 b0 0b 28
        E 16 b0 0b 40
        E 16 b0 0b 38
        E 32 b0 0b 30
        E 32 b0 0b 28
        E 32 b0 0b 40
        E 16 b0 0b 38
        E 32 b0 0b 30
        E 32 b0 0b 28
        E 32 b0 0b 20
        E 16 b0 0b 40
        E 16 b0 0b 38
        E 32 b0 0b 30
        E 48 b0 0b 28
        E 16 b0 0b 40
        E 16 b0 0b 38
        E 32 b0 0b 30
        E 32 b0 0b 28
        E 32 b0 0b 20
        E 16 b0 0b 40
        E 16 b0 0b 38
        E 48 b0 0b 30
        E 32 b0 0b 28
        E 16 b0 0b 40
        E 0 80 1c 00
        E 0 90 1a 40
        E 16 b0 0b 38
        E 32 b0 0b 30
        E 32 b0 0b 28
        E 32 b0 0b 20
        E 16 b0 0b 40
        E 0 80 1a 00
        E 0 90 1c 40
        E 32 b0 0b 38
        E 32 b0 0b 30
        E 32 b0 0b 28
        E 16 b0 0b 40
        E 0 80 1c 00
        E 0 90 1f 40
        E 16 b0 0b 38
        E 32 b0 0b 30
        E 32 b0 0b 28
        E 32 b0 0b 40
        E 0 80 1f 00
        E 0 90 1c 40
        E 16 b0 0b 38
        E 32 b0 0b 30
        E 32 b0 0b 28
        E 32 b0 0b 20
        E 16 b0 0b 40
        E 16 b0 0b 38
        E 48 b0 0b 30
        E 32 b0 0b 28
        E 16 b0 0b 40
        E 16 b0 0b 38
        E 32 b0 0b 30
        E 32 b0 0b 28
        E 32 b0 0b 20
        E 16 b0 0b 40
        E 32 b0 0b 38
        E 32 b0 0b 30
        E 32 b0 0b 28
        E 16 b0 0b 40
        E 16 b0 0b 38
        E 32 b0 0b 30
        E 32 b0 0b 28
        E 32 b0 0b 40
        E 16 b0 0b 38
        E 32 b0 0b 30
        E 32 b0 0b 28
        E 32 b0 0b 20
        E 16 b0 0b 40
        E 16 b0 0b 38
        E 32 b0 0b 30
        E 48 b0 0b 28
        E 16 b0 0b 40
        E 16 b0 0b 38
        E 32 b0 0b 30
        E 32 b0 0b 28
        E 32 b0 0b 20
        E 16 b0 0c 10
        E 0 b0 0b 48
        E 0 80 1c 00
        E 0 90 26 48
        E 16 b0 0b 40
        E 32 b0 0b 48
        E 0 80 26 00
        E 0 90 28 48
        E 16 b0 0b 40
        E 32 b0 0b 38
        E 16 b0 0b 48
        E 0 80 28 00
        E 0 90 2b 48
        E 16 b0 0b 40
        E 32 b0 0b 38
        E 16 b0 0b 48
        E 0 80 2b 00
        E 0 90 2d 48
        E 16 b0 0b 40
        E 32 b0 0b 38
        E 16 b0 0b 48
        E 0 80 2d 00
        E 0 90 2b 48
        E 32 b0 0b 40
        E 16 b0 0b 48
        E 0 80 2b 00
        E 0 90 2d 48
        E 16 b0 0b 40
        E 32 b0 0b 38
        E 16 b0 0b 48
        E 0 80 2d 00
        E 0 90 2f 48
        E 16 b0 0b 40
        E 32 b0 0b 38
        E 16 b0 0b 48
        E 0 80 2f 00
        E 0 90 32 48
        E 16 b0 0b 40
        E 32 b0 0b 48
        E 0 80 32 00
        E 0 90 34 48
        E 16 b0 0b 40
        E 32 b0 0b 38
        E 16 b0 0b 48
        E 0 80 34 00
        E 0 90 37 48
        E 16 b0 0b 40
        E 32 b0 0b 38
        E 16 b0 0b 48
        E 0 80 37 00
        E 0 90 39 48
        E 16 b0 0b 40
        E 32 b0 0b 38
        E 16 b0 0b 48
        E 0 80 39 00
        E 0 90 3b 48
        E 32 b0 0b 40
        E 16 b0 0b 48
        E 0 80 3b 00
        E 0 90 3e 48
        E 16 b0 0b 40
        E 32 b0 0b 38
        E 16 b0 0b 48
        E 0 80 3e 00
        E 0 90 40 48
        E 16 b0 0b 40
        E 32 b0 0b 38
        E 16 b0 0b 48
        E 0 80 40 00
        E 0 90 43 48
        E 16 b0 0b 40
        E 32 b0 0b 48
        E 0 80 43 00
        E 0 90 45 48
        E 16 b0 0b 40
        E 32 b0 0b 38
        E 16 b0 0c 20
        E 0 b0 0b 40
        E 0 80 45 00
        E 0 90 1c 40
        E 16 b0 0b 38
        E 32 b0 0b 30
        E 32 b0 0b 28
        E 32 b0 0b 20
        E 16 b0 0b 40
        E 32 b0 0b 38
        E 32 b0 0b 30
        E 32 b0 0b 28
        E 16 b0 0b 40
        E 16 b0 0b 38
        E 32 b0 0b 30
        E 48 b0 0b 28
        E 16 b0 0b 40
        E 16 b0 0b 38
        E 32 b0 0b 30
        E 32 b0 0b 28
        E 32 b0 0b 20
        E 16 b0 0b 40
        E 16 b0 0b 38
        E 48 b0 0b 30
        E 32 b0 0b 28
        E 16 b0 0b 40
        E 16 b0 0b 38
        E 32 b0 0b 30
        E 32 b0 0b 28
        E 32 b0 0b 20
        E 16 b0 0b 40
        E 32 b0 0b 38
        E 32 b0 0b 30
        E 32 b0 0b 28
        E 16 b0 0b 40
        E 16 b0 0b 38
        E 32 b0 0b 30
        E 32 b0 0b 28
        E 32 b0 0b 40
        E 16 b0 0b 38
        E 32 b0 0b 30
        E 32 b0 0b 28
        E 32 b0 0b 20
        E 16 b0 0b 40
        E 16 b0 0b 38
        E 32 b0 0b 30
        E 48 b0 0b 28
        E 16 b0 0b 40
        E 16 b0 0b 38
        E 32 b0 0b 30
        E 32 b0 0b 28
        E 32 b0 0b 20
        E 16 b0 0b 40
        E 16 b0 0b 38
        E 48 b0 0b 30
        E 32 b0 0b 28
        E 16 b0 0b 40
        E 16 b0 0b 38
        E 32 b0 0b 30
        E 32 b0 0b 28
        E 32 b0 0b 20
        E 16 b0 0b 40
        E 0 80 1c 00
        E 0 90 1a 40
        E 32 b0 0b 38
        E 32 b0 0b 30
        E 32 b0 0b 28
        E 16 b0 0b 40
        E 0 80 1a 00
        E 0 90 1c 40
        E 16 b0 0b 38
        E 32 b0 0b 30
        E 32 b0 0b 28
        E 32 b0 0b 40
        E 0 80 1c 00
        E 0 90 1f 40
        E 16 b0 0b 38
        E 32 b0 0b 30
        E 32 b0 0b 28
        E 32 b0 0b 20
        E 16 b0 0b 40
        E 0 80 1f 00
        E 0 90 1c 40
        E 16 b0 0b 38
        E 32 b0 0b 30
        E 48 b0 0b 28
        E 16 b0 0b 40
        E 16 b0 0b 38
        E 32 b0 0b 30
        E 32 b0 0b 28
        E 32 b0 0b 20
        E 16 b0 0b 40
        E 16 b0 0b 38
        E 48 b0 0b 30
        E 32 b0 0b 28
        E 16 b0 0b 40
        E 16 b0 0b 38
        E 32 b0 0b 30
        E 32 b0 0b 28
        E 32 b0 0b 40
        E 16 b0 0b 38
        E 32 b0 0b 30
        E 32 b0 0b 28
        E 32 b0 0b 20
        E 16 b0 0b 40
        E 16 b0 0b 38
        E 32 b0 0b 30
        E 48 b0 0b 28
        E 16 b0 0b 40
        E 16 b0 0b 38
        E 32 b0 0b 30
        E 32 b0 0b 28
        E 32 b0 0b 20
        E 16 b0 0b 40
        E 16 b0 0b 38
        E 48 b0 0b 30
        E 32 b0 0b 28
        E 16 b0 0b 40
        E 16 b0 0b 38
        E 32 b0 0b 30
        E 32 b0 0b 28
        E 32 b0 0b 20
        E 16 b0 0b 40
        E 0 80 1c 00
        E 0 90 1a 40
        E 32 b0 0b 38
        E 32 b0 0b 30
        E 32 b0 0b 28
        E 16 b0 0b 40
        E 0 80 1a 00
        E 0 90 1c 40
        E 16 b0 0b 38
        E 32 b0 0b 30
        E 32 b0 0b 28
        E 32 b0 0b 40
        E 0 80 1c 00
        E 0 90 1f 40
        E 16 b0 0b 38
        E 32 b0 0b 30
        E 32 b0 0b 28
        E 32 b0 0b 20
        E 16 b0 0b 40
        E 0 80 1f 00
        E 0 90 21 40
        E 16 b0 0b 38
        E 32 b0 0b 30
        E 48 b0 0b 28
        E 16 b0 0b 40
        E 0 80 21 00
        E 0 90 1f 40
        E 16 b0 0b 38
        E 32 b0 0b 30
        E 32 b0 0b 28
        E 32 b0 0b 20
        E 16 b0 0b 40
        E 0 80 1f 00
        E 0 90 1c 40
        E 16 b0 0b 38
        E 48 b0 0b 30
        E 32 b0 0b 28
        E 16 b0 0b 40
        E 0 80 1c 00
        E 0 90 1a 40
        E 16 b0 0b 38
        E 32 b0 0b 30
        E 32 b0 0b 28
        E 32 b0 0b 20
        E 16 b0 0b 40
        E 0 80 1a 00
        E 0 90 1c 40
        E 32 b0 0b 38
        E 32 b0 0b 30
        E 32 b0 0b 28
        E 16 b0 0b 40
        E 16 b0 0b 38
        E 32 b0 0b 30
        E 32 b0 0b 28
        E 32 b0 0b 40
        E 16 b0 0b 38
        E 32 b0 0b 30
        E 32 b0 0b 28
        E 32 b0 0b 20
        E 16 b0 0b 40
        E 16 b0 0b 38
        E 32 b0 0b 30
        E 48 b0 0b 28
        E 16 b0 0b 40
        E 16 b0 0b 38
        E 32 b0 0b 30
        E 32 b0 0b 28
        E 32 b0 0b 20
        E 16 b0 0b 40
        E 32 b0 0b 38
        E 32 b0 0b 30
        E 32 b0 0b 28
        E 16 b0 0b 40
        E 16 b0 0b 38
        E 32 b0 0b 30
        E 32 b0 0b 28
        E 32 b0 0b 40
        E 16 b0 0b 38
        E 32 b0 0b 30
        E 32 b0 0b 28
        E 32 b0 0b 20
        E 16 b0 0b 40
        E 16 b0 0b 38
        E 32 b0 0b 30
        E 48 b0 0b 28
        E 16 b0 0b 40
        E 16 b0 0b 38
        E 32 b0 0b 30
        E 32 b0 0b 28
        E 32 b0 0b 20
        E 16 b0 0b 40
        E 16 b0 0b 38
        E 48 b0 0b 30
        E 32 b0 0b 28
        E 16 b0 0b 40
        E 16 b0 0b 38
        E 32 b0 0b 30
        E 32 b0 0b 28
        E 32 b0 0b 20
        E 16 b0 0b 40
        E 32 b0 0b 38
        E 32 b0 0b 30
        E 32 b0 0b 28
        E 16 b0 0b 40
        E 0 80 1c 00
        E 0 90 1a 40
        E 16 b0 0b 38
        E 32 b0 0b 30
        E 32 b0 0b 28
        E 32 b0 0b 40
        E 0 80 1a 00
        E 0 90 1c 40
        E 16 b0 0b 38
        E 32 b0 0b 30
        E 32 b0 0b 28
        E 32 b0 0b 20
        E 16 b0 0b 40
        E 0 80 1c 00
        E 0 90 1f 40
        E 16 b0 0b 38
        E 32 b0 0b 30
        E 48 b0 0b 28
        E 16 b0 0b 40
        E 0 80 1f 00
        E 0 90 1c 40
        E 16 b0 0b 38
        E 32 b0 0b 30
        E 32 b0 0b 28
        E 32 b0 0b 20
        E 16 b0 0b 40
        E 16 b0 0b 38
        E 48 b0 0b 30
        E 32 b0 0b 28
        E 16 b0 0b 40
        E 16 b0 0b 38
        E 32 b0 0b 30
        E 32 b0 0b 28
        E 32 b0 0b 20
        E 16 b0 0b 40
        E 32 b0 0b 38
        E 32 b0 0b 30
        E 32 b0 0b 28
        E 16 b0 0b 40
        E 16 b0 0b 38
        E 32 b0 0b 30
        E 32 b0 0b 28
        E 32 b0 0b 40
        E 16 b0 0b 38
        E 32 b0 0b 30
        E 32 b0 0b 28
        E 32 b0 0b 20
        E 16 b0 0b 40
        E 16 b0 0b 38
        E 48 b0 0b 30
        E 32 b0 0b 28
        E 16 b0 0b 40
        E 16 b0 0b 38
        E 32 b0 0b 30
        E 32 b0 0b 28
        E 32 b0 0b 20
        E 16 b0 0c 10
        E 0 b0 0b 48
        E 0 80 1c 00
        E 0 90 26 48
        E 32 b0 0b 40
        E 16 b0 0b 48
        E 0 80 26 00
        E 0 90 28 48
        E 16 b0 0b 40
        E 32 b0 0b 38
        E 16 b0 0b 48
        E 0 80 28 00
        E 0 90 2b 48
        E 16 b0 0b 40
        E 32 b0 0b 38
        E 16 b0 0b 48
        E 0 80 2b 00
        E 0 90 2d 48
        E 16 b0 0b 40
        E 32 b0 0b 48
        E 0 80 2d 00
        E 0 90 2b 48
        E 16 b0 0b 40
        E 32 b0 0b 38
        E 16 b0 0b 48
        E 0 80 2b 00
        E 0 90 2d 48
        E 16 b0 0b 40
        E 32 b0 0b 38
        E 16 b0 0b 48
        E 0 80 2d 00
        E 0 90 2f 48
        E 16 b0 0b 40
        E 32 b0 0b 38
        E 16 b0 0b 48
        E 0 80 2f 00
        E 0 90 32 48
        E 32 b0 0b 40
        E 16 b0 0b 48
        E 0 80 32 00
        E 0 90 34 48
        E 16 b0 0b 40
        E 32 b0 0b 38
        E 16 b0 0b 48
        E 0 80 34 00
        E 0 90 37 48
        E 16 b0 0b 40
        E 32 b0 0b 38
        E 16 b0 0b 48
        E 0 80 37 00
        E 0 90 39 48
        E 16 b0 0b 40
        E 32 b0 0b 48
        E 0 80 39 00
        E 0 90 3b 48
        E 16 b0 0b 40
        E 32 b0 0b 38
        E 16 b0 0b 48
        E 0 80 3b 00
        E 0 90 3e 48
        E 16 b0 0b 40
        E 32 b0 0b 38
        E 16 b0 0b 48
        E 0 80 3e 00
        E 0 90 40 48
        E 16 b0 0b 40
        E 32 b0 0b 38
        E 16 b0 0b 48
        E 0 80 40 00
        E 0 90 43 48
        E 32 b0 0b 40
        E 16 b0 0b 48
        E 0 80 43 00
        E 0 90 45 48
        E 16 b0 0b 40
        E 32 b0 0b 38
        E 16 b0 0c 20
        E 0 b0 0b 40
        E 0 80 45 00
        E 0 90 1c 40
        E 16 b0 0b 38
        E 32 b0 0b 30
        E 32 b0 0b 28
        E 32 b0 0b 40
        E 16 b0 0b 38
        E 32 b0 0b 30
        E 32 b0 0b 28
        E 32 b0 0b 20
        E 16 b0 0b 40
        E 16 b0 0b 38
        E 32 b0 0b 30
        E 48 b0 0b 28
        E 16 b0 0b 40
        E 16 b0 0b 38
        E 32 b0 0b 30
        E 32 b0 0b 28
        E 32 b0 0b 20
        E 16 b0 0b 40
        E 16 b0 0b 38
        E 48 b0 0b 30
        E 32 b0 0b 28
        E 16 b0 0b 40
        E 16 b0 0b 38
        E 32 b0 0b 30
        E 32 b0 0b 28
        E 32 b0 0b 20
        E 16 b0 0b 40
        E 32 b0 0b 38
        E 32 b0 0b 30
        E 32 b0 0b 28
        E 16 b0 0b 40
        E 16 b0 0b 38
        E 32 b0 0b 30
        E 48 b0 0b 28
        E 16 b0 0b 40
        E 16 b0 0b 38
        E 32 b0 0b 30
        E 32 b0 0b 28
        E 32 b0 0b 20
        E 16 b0 0b 40
        E 16 b0 0b 38
        E 48 b0 0b 30
        E 32 b0 0b 28
        E 16 b0 0b 40
        E 16 b0 0b 38
        E 32 b0 0b 30
        E 32 b0 0b 28
        E 32 b0 0b 20
        E 16 b0 0b 40
        E 32 b0 0b 38
        E 32 b0 0b 30
        E 32 b0 0b 28
        E 16 b0 0b 40
        E 16 b0 0b 38
        E 32 b0 0b 30
        E 32 b0 0b 28
        E 32 b0 0b 40
        E 0 80 1c 00
        E 0 90 1a 40
        E 16 b0 0b 38
        E 32 b0 0b 30
        E 32 b0 0b 28
        E 32 b0 0b 20
        E 16 b0 0b 40
        E 0 80 1a 00
        E 0 90 1c 40
        E 16 b0 0b 38
        E 32 b0 0b 30
        E 48 b0 0b 28
        E 16 b0 0b 40
        E 0 80 1c 00
        E 0 90 1f 40
        E 16 b0 0b 38
        E 32 b0 0b 30
        E 32 b0 0b 28
        E 32 b0 0b 20
        E 16 b0 0b 40
        E 0 80 1f 00
        E 0 90 1c 40
        E 16 b0 0b 38
        E 48 b0 0b 30
        E 32 b0 0b 28
        E 16 b0 0b 40
        E 16 b0 0b 38
        E 32 b0 0b 30
        E 32 b0 0b 28
        E 32 b0 0b 20
        E 16 b0 0b 40
        E 32 b0 0b 38
        E 32 b0 0b 30
        E 32 b0 0b 28
        E 16 b0 0b 40
        E 16 b0 0b 38
        E 32 b0 0b 30
        E 32 b0 0b 28
        E 32 b0 0b 40
        E 16 b0 0b 38
        E 32 b0 0b 30
        E 32 b0 0b 28
        E 32 b0 0b 20
        E 16 b0 0b 40
        E 16 b0 0b 38
        E 32 b0 0b 30
        E 48 b0 0b 28
        E 16 b0 0b 40
        E 16 b0 0b 38
        E 32 b0 0b 30
        E 32 b0 0b 28
        E 32 b0 0b 20
        E 16 b0 0b 40
        E 16 b0 0b 38
        E 48 b0 0b 30
        E 32 b0 0b 28
        E 16 b0 0b 40
        E 16 b0 0b 38
        E 32 b0 0b 30
        E 32 b0 0b 28
        E 32 b0 0b 40
        E 0 80 1c 00
        E 0 90 1a 40
        E 16 b0 0b 38
        E 32 b0 0b 30
        E 32 b0 0b 28
        E 32 b0 0b 20
        E 16 b0 0b 40
        E 0 80 1a 00
        E 0 90 1c 40
        E 16 b0 0b 38
        E 32 b0 0b 30
        E 48 b0 0b 28
        E 16 b0 0b 40
        E 0 80 1c 00
        E 0 90 1f 40
        E 16 b0 0b 38
        E 32 b0 0b 30
        E 32 b0 0b 28
        E 32 b0 0b 20
        E 16 b0 0b 40
        E 0 80 1f 00
        E 0 90 21 40
        E 16 b0 0b 38
        E 48 b0 0b 30
        E 32 b0 0b 28
        E 16 b0 0b 40
        E 0 80 21 00
        E 0 90 1f 40
        E 16 b0 0b 38
        E 32 b0 0b 30
        E 32 b0 0b 28
        E 32 b0 0b 20
        E 16 b0 0b 40
        E 0 80 1f 00
        E 0 90 1c 40
        E 32 b0 0b 38
        E 32 b0 0b 30
        E 32 b0 0b 28
        E 16 b0 0b 40
        E 0 80 1c 00
        E 0 90 1a 40
        E 16 b0 0b 38
        E 32 b0 0b 30
        E 32 b0 0b 28
        E 32 b0 0b 40
        E 0 80 1a 00
        E 0 90 1c 40
        E 16 b0 0b 38
        E 32 b0 0b 30
        E 32 b0 0b 28
        E 32 b0 0b 20
        E 16 b0 0b 40
        E 16 b0 0b 38
        E 32 b0 0b 30
        E 48 b0 0b 28
        E 16 b0 0b 40
        E 16 b0 0b 38
        E 32 b0 0b 30
        E 32 b0 0b 28
        E 32 b0 0b 20
        E 16 b0 0b 40
        E 16 b0 0b 38
        E 48 b0 0b 30
        E 32 b0 0b 28
        E 16 b0 0b 40
        E 16 b0 0b 38
        E 32 b0 0b 30
        E 32 b0 0b 28
        E 32 b0 0b 20
        E 16 b0 0b 40
        E 32 b0 0b 38
        E 32 b0 0b 30
        E 32 b0 0b 28
        E 16 b0 0b 40
        E 16 b0 0b 38
        E 32 b0 0b 30
        E 32 b0 0b 28
        E 32 b0 0b 40
        E 16 b0 0b 38
        E 32 b0 0b 30
        E 32 b0 0b 28
        E 32 b0 0b 20
        E 16 b0 0b 40
        E 16 b0 0b 38
        E 32 b0 0b 30
        E 48 b0 0b 28
        E 16 b0 0b 40
        E 16 b0 0b 38
        E 32 b0 0b 30
        E 32 b0 0b 28
        E 32 b0 0b 20
        E 16 b0 0b 40
        E 32 b0 0b 38
        E 32 b0 0b 30
        E 32 b0 0b 28
        E 16 b0 0b 40
        E 16 b0 0b 38
        E 32 b0 0b 30
        E 32 b0 0b 28
        E 32 b0 0b 40
        E 16 b0 0b 38
        E 32 b0 0b 30
        E 32 b0 0b 28
        E 32 b0 0b 20
        E 16 b0 0b 40
        E 0 80 1c 00
        E 0 90 1a 40
        E 16 b0 0b 38
        E 32 b0 0b 30
        E 48 b0 0b 28
        E 16 b0 0b 40
        E 0 80 1a 00
        E 0 90 1c 40
        E 16 b0 0b 38
        E 32 b0 0b 30
        E 32 b0 0b 28
        E 32 b0 0b 20
        E 16 b0 0b 40
        E 0 80 1c 00
        E 0 90 1f 40
        E 16 b0 0b 38
        E 48 b0 0b 30
        E 32 b0 0b 28
        E 16 b0 0b 40
        E 0 80 1f 00
        E 0 90 1c 40
        E 16 b0 0b 38
        E 32 b0 0b 30
        E 32 b0 0b 28
        E 32 b0 0b 20
        E 16 b0 0b 40
        E 32 b0 0b 38
        E 32 b0 0b 30
        E 32 b0 0b 28
        E 16 b0 0b 40
        E 16 b0 0b 38
        E 32 b0 0b 30
        E 32 b0 0b 28
        E 32 b0 0b 40
        E 16 b0 0b 38
        E 32 b0 0b 30
        E 32 b0 0b 28
        E 32 b0 0b 20
        E 16 b0 0b 40
        E 16 b0 0b 38
        E 32 b0 0b 30
        E 48 b0 0b 28
        E 16 b0 0b 40
        E 16 b0 0b 38
        E 32 b0 0b 30
        E 32 b0 0b 28
        E 32 b0 0b 20
        E 16 b0 0b 40
        E 16 b0 0b 38
        E 48 b0 0b 30
        E 32 b0 0b 28
        E 16 b0 0b 40
        E 16 b0 0b 38
        E 32 b0 0b 30
        E 32 b0 0b 28
        E 32 b0 0b 20
        E 16 b0 0c 10
        E 0 b0 0b 48
        E 0 80 1c 00
        E 0 90 26 48
        E 32 b0 0b 40
        E 16 b0 0b 48
        E 0 80 26 00
        E 0 90 28 48
        E 16 b0 0b 40
        E 32 b0 0b 38
        E 16 b0 0b 48
        E 0 80 28 00
        E 0 90 2b 48
        E 16 b0 0b 40
        E 32 b0 0b 38
        E 16 b0 0b 48
        E 0 80 2b 00
        E 0 90 2d 48
        E 16 b0 0b 40
        E 32 b0 0b 48
        E 0 80 2d 00
        E 0 90 2b 48
        E 16 b0 0b 40
        E 32 b0 0b 38
        E 16 b0 0b 48
        E 0 80 2b 00
        E 0 90 2d 48
        E 16 b0 0b 40
        E 32 b0 0b 38
        E 16 b0 0b 48
        E 0 80 2d 00
        E 0 90 2f 48
        E 16 b0 0b 40
        E 32 b0 0b 48
        E 0 80 2f 00
        E 0 90 32 48
        E 16 b0 0b 40
        E 32 b0 0b 38
        E 16 b0 0b 48
        E 0 80 32 00
        E 0 90 34 48
        E 16 b0 0b 40
        E 32 b0 0b 38
        E 16 b0 0b 48
        E 0 80 34 00
        E 0 90 37 48
        E 16 b0 0b 40
        E 32 b0 0b 38
        E 16 b0 0b 48
        E 0 80 37 00
        E 0 90 39 48
        E 32 b0 0b 40
        E 16 b0 0b 48
        E 0 80 39 00
        E 0 90 3b 48
        E 16 b0 0b 40
        E 32 b0 0b 38
        E 16 b0 0b 48
        E 0 80 3b 00
        E 0 90 3e 48
        E 16 b0 0b 40
        E 32 b0 0b 38
        E 16 b0 0b 48
        E 0 80 3e 00
        E 0 90 40 48
        E 16 b0 0b 40
        E 32 b0 0b 48
        E 0 80 40 00
        E 0 90 43 48
        E 16 b0 0b 40
        E 32 b0 0b 38
        E 16 b0 0b 48
        E 0 80 43 00
        E 0 90 45 48
        E 16 b0 0b 40
        E 32 b0 0b 38
        E 16 b0 0c 20
        E 0 b0 0b 40
        E 0 80 45 00
        E 0 90 1c 40
        E 16 b0 0b 38
        E 32 b0 0b 30
        E 48 b0 0b 28
        E 16 b0 0b 40
        E 16 b0 0b 38
        E 32 b0 0b 30
        E 32 b0 0b 28
        E 32 b0 0b 20
        E 16 b0 0b 40
        E 16 b0 0b 38
        E 48 b0 0b 30
        E 32 b0 0b 28
        E 16 b0 0b 40
        E 16 b0 0b 38
        E 32 b0 0b 30
        E 32 b0 0b 28
        E 32 b0 0b 20
        E 16 b0 0b 40
        E 32 b0 0b 38
        E 32 b0 0b 30
        E 32 b0 0b 28
        E 16 b0 0b 40
        E 16 b0 0b 38
        E 32 b0 0b 30
        E 32 b0 0b 28
        E 32 b0 0b 40
        E 16 b0 0b 38
        E 32 b0 0b 30
        E 32 b0 0b 28
        E 32 b0 0b 20
        E 16 b0 0b 40
        E 16 b0 0b 38
        E 32 b0 0b 30
        E 48 b0 0b 28
        E 16 b0 0b 40
        E 16 b0 0b 38
        E 32 b0 0b 30
        E 32 b0 0b 28
        E 32 b0 0b 20
        E 16 b0 0b 40
        E 16 b0 0b 38
        E 48 b0 0b 30
        E 32 b0 0b 28
        E 16 b0 0b 40
        E 16 b0 0b 38
        E 32 b0 0b 30
        E 32 b0 0b 28
        E 32 b0 0b 20
        E 16 b0 0b 40
        E 32 b0 0b 38
        E 32 b0 0b 30
        E 32 b0 0b 28
        E 16 b0 0b 40
        E 16 b0 0b 38
        E 32 b0 0b 30
        E 48 b0 0b 28
        E 16 b0 0b 40
        E 0 80 1c 00
        E 0 90 1a 40
        E 16 b0 0b 38
        E 32 b0 0b 30
        E 32 b0 0b 28
        E 32 b0 0b 20
        E 16 b0 0b 40
        E 0 80 1a 00
        E 0 90 1c 40
        E 16 b0 0b 38
        E 48 b0 0b 30
        E 32 b0 0b 28
        E 16 b0 0b 40
        E 0 80 1c 00
        E 0 90 1f 40
        E 16 b0 0b 38
        E 32 b0 0b 30
        E 32 b0 0b 28
        E 32 b0 0b 20
        E 16 b0 0b 40
        E 0 80 1f 00
        E 0 90 1c 40
        E 32 b0 0b 38
        E 32 b0 0b 30
        E 32 b0 0b 28
        E 16 b0 0b 40
        E 16 b0 0b 38
        E 32 b0 0b 30
        E 32 b0 0b 28
        E 32 b0 0b 40
        E 16 b0 0b 38
        E 32 b0 0b 30
        E 32 b0 0b 28
        E 32 b0 0b 20
        E 16 b0 0b 40
        E 16 b0 0b 38
        E 32 b0 0b 30
        E 48 b0 0b 28
        E 16 b0 0b 40
        E 16 b0 0b 38
        E 32 b0 0b 30
        E 32 b0 0b 28
        E 32 b0 0b 20
        E 16 b0 0b 40
        E 16 b0 0b 38
        E 48 b0 0b 30
        E 32 b0 0b 28
        E 16 b0 0b 40
        E 16 b0 0b 38
        E 32 b0 0b 30
        E 32 b0 0b 28
        E 32 b0 0b 20
        E 16 b0 0b 40
        E 32 b0 0b 38
        E 32 b0 0b 30
        E 32 b0 0b 28
        E 16 b0 0b 40
        E 16 b0 0b 38
        E 32 b0 0b 30
        E 32 b0 0b 28
        E 32 b0 0b 40
        E 0 80 1c 00
        E 0 90 1a 40
        E 16 b0 0b 38
        E 32 b0 0b 30
        E 32 b0 0b 28
        E 32 b0 0b 20
        E 16 b0 0b 40
        E 0 80 1a 00
        E 0 90 1c 40
        E 16 b0 0b 38
        E 32 b0 0b 30
        E 48 b0 0b 28
        E 16 b0 0b 40
        E 0 80 1c 00
        E 0 90 1f 40
        E 16 b0 0b 38
        E 32 b0 0b 30
        E 32 b0 0b 28
        E 32 b0 0b 20
        E 16 b0 0b 40
        E 0 80 1f 00
        E 0 90 21 40
        E 16 b0 0b 38
        E 48 b0 0b 30
        E 32 b0 0b 28
        E 16 b0 0b 40
        E 0 80 21 00
        E 0 90 1f 40
        E 16 b0 0b 38
        E 32 b0 0b 30
        E 32 b0 0b 28
        E 32 b0 0b 40
        E 0 80 1f 00
        E 0 90 1c 40
        E 16 b0 0b 38
        E 32 b0 0b 30
        E 32 b0 0b 28
        E 32 b0 0b 20
        E 16 b0 0b 40
        E 0 80 1c 00
        E 0 90 1a 40
        E 16 b0 0b 38
        E 32 b0 0b 30
        E 48 b0 0b 28
        E 16 b0 0b 40
        E 0 80 1a 00
        E 0 90 1c 40
        E 16 b0 0b 38
        E 32 b0 0b 30
        E 32 b0 0b 28
        E 32 b0 0b 20
        E 16 b0 0b 40
        E 16 b0 0b 38
        E 48 b0 0b 30
        E 32 b0 0b 28
        E 16 b0 0b 40
        E 16 b0 0b 38
        E 32 b0 0b 30
        E 32 b0 0b 28
        E 32 b0 0b 20
        E 16 b0 0b 40
        E 32 b0 0b 38
        E 32 b0 0b 30
        E 32 b0 0b 28
        E 16 b0 0b 40
        E 16 b0 0b 38
        E 32 b0 0b 30
        E 32 b0 0b 28
        E 32 b0 0b 40
        E 16 b0 0b 38
        E 32 b0 0b 30
        E 32 b0 0b 28
        E 32 b0 0b 20
        E 16 b0 0b 40
        E 16 b0 0b 38
        E 32 b0 0b 30
        E 48 b0 0b 28
        E 16 b0 0b 40
        E 16 b0 0b 38
        E 32 b0 0b 30
        E 32 b0 0b 28
        E 32 b0 0b 20
        E 16 b0 0b 40
        E 16 b0 0b 38
        E 48 b0 0b 30
        E 32 b0 0b 28
        E 16 b0 0b 40
        E 16 b0 0b 38
        E 32 b0 0b 30
        E 32 b0 0b 28
        E 32 b0 0b 20
        E 16 b0 0b 40
        E 32 b0 0b 38
        E 32 b0 0b 30
        E 32 b0 0b 28
        E 16 b0 0b 40
        E 16 b0 0b 38
        E 32 b0 0b 30
        E 32 b0 0b 28
        E 32 b0 0b 40
        E 16 b0 0b 38
        E 32 b0 0b 30
        E 32 b0 0b 28
        E 32 b0 0b 20
        E 16 b0 0b 40
        E 0 80 1c 00
        E 0 90 1a 40
        E 16 b0 0b 38
        E 32 b0 0b 30
        E 48 b0 0b 28
        E 16 b0 0b 40
        E 0 80 1a 00
        E 0 90 1c 40
        E 16 b0 0b 38
        E 32 b0 0b 30
        E 32 b0 0b 28
        E 32 b0 0b 20
        E 16 b0 0b 40
        E 0 80 1c 00
        E 0 90 1f 40
        E 32 b0 0b 38
        E 32 b0 0b 30
        E 32 b0 0b 28
        E 16 b0 0b 40
        E 0 80 1f 00
        E 0 90 1c 40
        E 16 b0 0b 38
        E 32 b0 0b 30
        E 32 b0 0b 28
        E 32 b0 0b 40
        E 16 b0 0b 38
        E 32 b0 0b 30
        E 32 b0 0b 28
        E 32 b0 0b 20
        E 16 b0 0b 40
        E 16 b0 0b 38
        E 32 b0 0b 30
        E 48 b0 0b 28
        E 16 b0 0b 40
        E 16 b0 0b 38
        E 32 b0 0b 30
        E 32 b0 0b 28
        E 32 b0 0b 20
        E 16 b0 0b 40
        E 16 b0 0b 38
        E 48 b0 0b 30
        E 32 b0 0b 28
        E 16 b0 0b 40
        E 16 b0 0b 38
        E 32 b0 0b 30
        E 32 b0 0b 28
        E 32 b0 0b 20
        E 16 b0 0b 40
        E 32 b0 0b 38
        E 32 b0 0b 30
        E 32 b0 0b 28
        E 16 b0 0b 40
        E 16 b0 0b 38
        E 32 b0 0b 30
        E 32 b0 0b 28
        E 32 b0 0c 10
        E 0 b0 0b 48
        E 0 80 1c 00
        E 0 90 26 48
        E 16 b0 0b 40
        E 32 b0 0b 38
        E 16 b0 0b 48
        E 0 80 26 00
        E 0 90 28 48
        E 16 b0 0b 40
        E 32 b0 0b 38
        E 16 b0 0b 48
        E 0 80 28 00
        E 0 90 2b 48
        E 16 b0 0b 40
        E 32 b0 0b 38
        E 16 b0 0b 48
        E 0 80 2b 00
        E 0 90 2d 48
        E 32 b0 0b 40
        E 16 b0 0b 48
        E 0 80 2d 00
        E 0 90 2b 48
        E 16 b0 0b 40
        E 32 b0 0b 38
        E 16 b0 0b 48
        E 0 80 2b 00
        E 0 90 2d 48
        E 16 b0 0b 40
        E 32 b0 0b 38
        E 16 b0 0b 48
        E 0 80 2d 00
        E 0 90 2f 48
        E 16 b0 0b 40
        E 32 b0 0b 48
        E 0 80 2f 00
        E 0 90 32 48
        E 16 b0 0b 40
        E 32 b0 0b 38
        E 16 b0 0b 48
        E 0 80 32 00
        E 0 90 34 48
        E 16 b0 0b 40
        E 32 b0 0b 38
        E 16 b0 0b 48
        E 0 80 34 00
        E 0 90 37 48
        E 16 b0 0b 40
        E 32 b0 0b 38
        E 16 b0 0b 48
        E 0 80 37 00
        E 0 90 39 48
        E 32 b0 0b 40
        E 16 b0 0b 48
        E 0 80 39 00
        E 0 90 3b 48
        E 16 b0 0b 40
        E 32 b0 0b 38
        E 16 b0 0b 48
        E 0 80 3b 00
        E 0 90 3e 48
        E 16 b0 0b 40
        E 32 b0 0b 38
        E 16 b0 0b 48
        E 0 80 3e 00
        E 0 90 40 48
        E 16 b0 0b 40
        E 32 b0 0b 48
        E 0 80 40 00
        E 0 90 43 48
        E 16 b0 0b 40
        E 32 b0 0b 38
        E 16 b0 0b 48
        E 0 80 43 00
        E 0 90 45 48
        E 16 b0 0b 40
        E 32 b0 0b 38
        E 16 b0 0c 20
        E 0 b0 0b 40
        E 0 80 45 00
        E 0 90 1c 40
        E 16 b0 0b 38
        E 48 b0 0b 30
        E 32 b0 0b 28
        E 16 b0 0b 40
        E 16 b0 0b 38
        E 32 b0 0b 30
        E 32 b0 0b 28
        E 32 b0 0b 20
        E 16 b0 0b 40
        E 32 b0 0b 38
        E 32 b0 0b 30
        E 32 b0 0b 28
        E 16 b0 0b 40
        E 16 b0 0b 38
        E 32 b0 0b 30
        E 32 b0 0b 28
        E 32 b0 0b 40
        E 16 b0 0b 38
        E 32 b0 0b 30
        E 32 b0 0b 28
        E 32 b0 0b 20
        E 16 b0 0b 40
        E 16 b0 0b 38
        E 32 b0 0b 30
        E 48 b0 0b 28
        E 16 b0 0b 40
        E 16 b0 0b 38
        E 32 b0 0b 30
        E 32 b0 0b 28
        E 32 b0 0b 20
        E 16 b0 0b 40
        E 16 b0 0b 38
        E 48 b0 0b 30
        E 32 b0 0b 28
        E 16 b0 0b 40
        E 16 b0 0b 38
        E 32 b0 0b 30
        E 32 b0 0b 28
        E 32 b0 0b 20
        E 16 b0 0b 40
        E 32 b0 0b 38
        E 32 b0 0b 30
        E 32 b0 0b 28
        E 16 b0 0b 40
        E 16 b0 0b 38
        E 32 b0 0b 30
        E 32 b0 0b 28
        E 32 b0 0b 40
        E 16 b0 0b 38
        E 32 b0 0b 30
        E 32 b0 0b 28
        E 32 b0 0b 20
        E 16 b0 0b 40
        E 16 b0 0b 38
        E 32 b0 0b 30
        E 48 b0 0b 28
        E 16 b0 0b 40
        E 0 80 1c 00
        E 0 90 1a 40
        E 16 b0 0b 38
        E 32 b0 0b 30
        E 32 b0 0b 28
        E 32 b0 0b 20
        E 16 b0 0b 40
        E 0 80 1a 00
        E 0 90 1c 40
        E 16 b0 0b 38
        E 48 b0 0b 30
        E 32 b0 0b 28
        E 16 b0 0b 40
        E 0 80 1c 00
        E 0 90 1f 40
        E 16 b0 0b 38
        E 32 b0 0b 30
        E 32 b0 0b 28
        E 32 b0 0b 20
        E 16 b0 0b 40
        E 0 80 1f 00
        E 0 90 1c 40
        E 32 b0 0b 38
        E 32 b0 0b 30
        E 32 b0 0b 28
        E 16 b0 0b 40
        E 16 b0 0b 38
        E 32 b0 0b 30
        E 48 b0 0b 28
        E 16 b0 0b 40
        E 16 b0 0b 38
        E 32 b0 0b 30
        E 32 b0 0b 28
        E 32 b0 0b 20
        E 16 b0 0b 40
        E 16 b0 0b 38
        E 48 b0 0b 30
        E 32 b0 0b 28
        E 16 b0 0b 40
        E 16 b0 0b 38
        E 32 b0 0b 30
        E 32 b0 0b 28
        E 32 b0 0b 20
        E 16 b0 0b 40
        E 32 b0 0b 38
        E 32 b0 0b 30
        E 32 b0 0b 28
        E 16 b0 0b 40
        E 16 b0 0b 38
        E 32 b0 0b 30
        E 32 b0 0b 28
        E 32 b0 0b 40
        E 16 b0 0b 38
        E 32 b0 0b 30
        E 32 b0 0b 28
        E 32 b0 0b 20
        E 16 b0 0b 40
        E 16 b0 0b 38
        E 32 b0 0b 30
        E 48 b0 0b 28
        E 16 b0 0b 40
        E 0 80 1c 00
        E 0 90 1a 40
        E 16 b0 0b 38
        E 32 b0 0b 30
        E 32 b0 0b 28
        E 32 b0 0b 20
        E 16 b0 0b 40
        E 0 80 1a 00
        E 0 90 1c 40
        E 16 b0 0b 38
        E 48 b0 0b 30
        E 32 b0 0b 28
        E 16 b0 0b 40
        E 0 80 1c 00
        E 0 90 1f 40
        E 16 b0 0b 38
        E 32 b0 0b 30
        E 32 b0 0b 28
        E 32 b0 0b 20
        E 16 b0 0b 40
        E 0 80 1f 00
        E 0 90 21 40
        E 32 b0 0b 38
        E 32 b0 0b 30
        E 32 b0 0b 28
        E 16 b0 0b 40
        E 0 80 21 00
        E 0 90 1f 40
        E 16 b0 0b 38
        E 32 b0 0b 30
        E 32 b0 0b 28
        E 32 b0 0b 40
        E 0 80 1f 00
        E 0 90 1c 40
        E 16 b0 0b 38
        E 32 b0 0b 30
        E 32 b0 0b 28
        E 32 b0 0b 20
        E 16 b0 0b 40
        E 0 80 1c 00
        E 0 90 1a 40
        E 16 b0 0b 38
        E 32 b0 0b 30
        E 48 b0 0b 28
        E 16 b0 0b 40
        E 0 80 1a 00
        E 0 90 1c 40
        E 16 b0 0b 38
        E 32 b0 0b 30
        E 32 b0 0b 28
        E 32 b0 0b 20
        E 16 b0 0b 40
        E 16 b0 0b 38
        E 48 b0 0b 30
        E 32 b0 0b 28
        E 16 b0 0b 40
        E 16 b0 0b 38
        E 32 b0 0b 30
        E 32 b0 0b 28
        E 32 b0 0b 40
        E 16 b0 0b 38
        E 32 b0 0b 30
        E 32 b0 0b 28
        E 32 b0 0b 20
        E 16 b0 0b 40
        E 16 b0 0b 38
        E 32 b0 0b 30
        E 48 b0 0b 28
        E 16 b0 0b 40
        E 16 b0 0b 38
        E 32 b0 0b 30
        E 32 b0 0b 28
        E 32 b0 0b 20
        E 16 b0 0b 40
        E 16 b0 0b 38
        E 48 b0 0b 30
        E 32 b0 0b 28
        E 16 b0 0b 40
        E 16 b0 0b 38
        E 32 b0 0b 30
        E 32 b0 0b 28
        E 32 b0 0b 20
        E 16 b0 0b 40
        E 32 b0 0b 38
        E 32 b0 0b 30
        E 32 b0 0b 28
        E 16 b0 0b 40
        E 16 b0 0b 38
        E 32 b0 0b 30
        E 32 b0 0b 28
        E 32 b0 0b 40
        E 16 b0 0b 38
        E 32 b0 0b 30
        E 32 b0 0b 28
        E 32 b0 0b 20
        E 16 b0 0b 40
        E 16 b0 0b 38
        E 32 b0 0b 30
        E 48 b0 0b 28
        E 16 b0 0b 40
        E 16 b0 0b 38
        E 32 b0 0b 30
        E 32 b0 0b 28
        E 32 b0 0b 20
        E 16 b0 0b 40
        E 0 80 1c 00
        E 0 90 1a 40
        E 16 b0 0b 38
        E 48 b0 0b 30
        E 32 b0 0b 28
        E 16 b0 0b 40
        E 0 80 1a 00
        E 0 90 1c 40
        E 16 b0 0b 38
        E 32 b0 0b 30
        E 32 b0 0b 28
        E 32 b0 0b 20
        E 16 b0 0b 40
        E 0 80 1c 00
        E 0 90 1f 40
        E 32 b0 0b 38
        E 32 b0 0b 30
        E 32 b0 0b 28
        E 16 b0 0b 40
        E 0 80 1f 00
        E 0 90 1c 40
        E 16 b0 0b 38
        E 32 b0 0b 30
        E 32 b0 0b 28
        E 32 b0 0b 40
        E 16 b0 0b 38
        E 32 b0 0b 30
        E 32 b0 0b 28
        E 32 b0 0b 20
        E 16 b0 0b 40
        E 16 b0 0b 38
        E 32 b0 0b 30
        E 48 b0 0b 28
        E 16 b0 0b 40
        E 16 b0 0b 38
        E 32 b0 0b 30
        E 32 b0 0b 28
        E 32 b0 0b 20
        E 16 b0 0b 40
        E 32 b0 0b 38
        E 32 b0 0b 30
        E 32 b0 0b 28
        E 16 b0 0b 40
        E 16 b0 0b 38
        E 32 b0 0b 30
        E 32 b0 0b 28
        E 32 b0 0b 40
        E 16 b0 0b 38
        E 32 b0 0b 30
        E 32 b0 0b 28
        E 32 b0 0b 20
        E 16 b0 0b 40
        E 16 b0 0b 38
        E 32 b0 0b 30
        E 16 80 1c 00
        E 0 ff 2f 00
      >
    >
  >
  <TRACK {7501A57A-7ABD-41F6-9564-D247D6F7CCBD}
    NAME "NES - Pulse 2 [ch1]"
    PEAKCOL 10092441
    BEAT -1
    AUTOMODE 0
    PANLAWFLAGS 3
    VOLPAN 1 0 -1 -1 1
    MUTESOLO 0 0 0
    IPHASE 0
    PLAYOFFS 0 1
    ISBUS 0 0
    BUSCOMP 0 0 0 0 0
    SHOWINMIX 1 0.6667 0.5 1 0.5 0 0 0
    FIXEDLANES 9 0 0 0 0
    SEL 0
    REC 0 5088 1 0 0 0 0 0
    VU 2
    TRACKHEIGHT 0 0 0 0 0 0 0
    INQ 0 0 0 0.5 100 0 0 100
    NCHAN 2
    FX 1
    TRACKID {7501A57A-7ABD-41F6-9564-D247D6F7CCBD}
    PERF 0
    MIDIOUT -1
    MAINSEND 1 0
    <FXCHAIN
      WNDRECT 24 52 700 560
      SHOW 0
      LASTSEL 0
      DOCKED 0
      BYPASS 0 0 0
      <JS "ReapNES Studio/ReapNES_Console.jsfx" ""
        2 15 1 10 80 10 100 2 1 15 1 5 60 10 80 1 1 0 50 0 0 15 1 0 100 0 0 0.500000 0.500000 0.400000 0.300000 0.800000 1 1 0 0 0 0 - - - - - - - - - - - - - - - - - - - - - - - - - -
      >
      FLOATPOS 0 0 0 0
      FXID {F4290ADE-6AED-4731-BCFF-8F0BA916B509}
      WAK 0 0
    >
    <ITEM
      POSITION 0
      LENGTH 83.98134
      LOOP 0
      ALLTAKES 0
      FADEIN 0 0 0 0 0 0 0
      FADEOUT 0 0 0 0 0 0 0
      MUTE 0 0
      SEL 0
      IGUID {0187010C-F0CF-4F74-A7D2-F95CE2F97669}
      <SOURCE MIDI
        HASDATA 1 480 QN
        CCINTERP 32
        X 0 21 ff 03 12 53 71 75 61 72 65 20 32 20 5b 68 61 72 6d 6f 6e 79 5d
        E 0 c1 51
        E 3920 b1 0c 40
        E 0 b1 0b 58
        E 0 91 15 58
        E 80 81 15 00
        E 0 91 1c 58
        E 640 b1 0b 50
        E 800 b1 0b 48
        E 800 b1 0b 40
        E 800 b1 0b 38
        E 800 b1 0b 30
        E 800 b1 0b 28
        E 800 b1 0b 20
        E 800 b1 0b 18
        E 784 b1 0b 10
        E 400 81 1c 00
        E 112 b1 0c 20
        E 0 b1 0b 30
        E 0 91 1c 30
        E 48 b1 0b 28
        E 64 b1 0b 20
        E 16 b1 0b 30
        E 64 b1 0b 28
        E 48 b1 0b 30
        E 16 b1 0b 28
        E 64 b1 0b 20
        E 32 b1 0b 30
        E 48 b1 0b 28
        E 64 b1 0b 20
        E 16 b1 0b 30
        E 48 b1 0b 28
        E 64 b1 0b 30
        E 16 b1 0b 28
        E 64 b1 0b 20
        E 48 b1 0b 30
        E 32 b1 0b 28
        E 64 b1 0b 20
        E 16 b1 0b 30
        E 48 b1 0b 28
        E 64 b1 0b 30
        E 16 b1 0b 28
        E 64 b1 0b 20
        E 48 b1 0b 30
        E 16 b1 0b 28
        E 80 b1 0b 20
        E 16 b1 0b 30
        E 48 b1 0b 28
        E 64 b1 0b 20
        E 16 b1 0b 30
        E 64 b1 0b 28
        E 48 b1 0b 30
        E 16 b1 0b 28
        E 64 b1 0b 20
        E 48 b1 0b 30
        E 0 81 1c 00
        E 0 91 1a 30
        E 32 b1 0b 28
        E 64 b1 0b 20
        E 16 b1 0b 30
        E 0 81 1a 00
        E 0 91 1c 30
        E 48 b1 0b 28
        E 64 b1 0b 30
        E 0 81 1c 00
        E 0 91 1f 30
        E 16 b1 0b 28
        E 64 b1 0b 20
        E 48 b1 0b 30
        E 0 81 1f 00
        E 0 91 1c 30
        E 16 b1 0b 28
        E 80 b1 0b 20
        E 16 b1 0b 30
        E 48 b1 0b 28
        E 64 b1 0b 20
        E 16 b1 0b 30
        E 64 b1 0b 28
        E 48 b1 0b 30
        E 16 b1 0b 28
        E 64 b1 0b 20
        E 48 b1 0b 30
        E 32 b1 0b 28
        E 64 b1 0b 20
        E 16 b1 0b 30
        E 48 b1 0b 28
        E 64 b1 0b 30
        E 16 b1 0b 28
        E 64 b1 0b 20
        E 48 b1 0b 30
        E 16 b1 0b 28
        E 80 b1 0b 20
        E 16 b1 0b 30
        E 48 b1 0b 28
        E 64 b1 0b 20
        E 16 b1 0b 30
        E 0 81 1c 00
        E 0 91 1a 30
        E 64 b1 0b 28
        E 48 b1 0b 30
        E 0 81 1a 00
        E 0 91 1c 30
        E 16 b1 0b 28
        E 64 b1 0b 20
        E 32 b1 0b 30
        E 0 81 1c 00
        E 0 91 1f 30
        E 48 b1 0b 28
        E 64 b1 0b 20
        E 16 b1 0b 30
        E 0 81 1f 00
        E 0 91 21 30
        E 48 b1 0b 28
        E 64 b1 0b 30
        E 0 81 21 00
        E 0 91 1f 30
        E 16 b1 0b 28
        E 64 b1 0b 20
        E 48 b1 0b 30
        E 0 81 1f 00
        E 0 91 1c 30
        E 16 b1 0b 28
        E 80 b1 0b 20
        E 16 b1 0b 30
        E 0 81 1c 00
        E 0 91 1a 30
        E 48 b1 0b 28
        E 64 b1 0b 20
        E 16 b1 0b 30
        E 0 81 1a 00
        E 0 91 1c 30
        E 64 b1 0b 28
        E 48 b1 0b 30
        E 16 b1 0b 28
        E 64 b1 0b 20
        E 32 b1 0b 30
        E 48 b1 0b 28
        E 64 b1 0b 20
        E 16 b1 0b 30
        E 48 b1 0b 28
        E 64 b1 0b 30
        E 16 b1 0b 28
        E 64 b1 0b 20
        E 48 b1 0b 30
        E 16 b1 0b 28
        E 80 b1 0b 20
        E 16 b1 0b 30
        E 48 b1 0b 28
        E 64 b1 0b 20
        E 16 b1 0b 30
        E 64 b1 0b 28
        E 48 b1 0b 30
        E 16 b1 0b 28
        E 80 b1 0b 20
        E 16 b1 0b 30
        E 48 b1 0b 28
        E 64 b1 0b 20
        E 16 b1 0b 30
        E 64 b1 0b 28
        E 48 b1 0b 30
        E 16 b1 0b 28
        E 64 b1 0b 20
        E 48 b1 0b 30
        E 32 b1 0b 28
        E 64 b1 0b 20
        E 16 b1 0b 30
        E 0 81 1c 00
        E 0 91 1a 30
        E 48 b1 0b 28
        E 64 b1 0b 30
        E 0 81 1a 00
        E 0 91 1c 30
        E 16 b1 0b 28
        E 64 b1 0b 20
        E 48 b1 0b 30
        E 0 81 1c 00
        E 0 91 1f 30
        E 16 b1 0b 28
        E 80 b1 0b 20
        E 16 b1 0b 30
        E 0 81 1f 00
        E 0 91 1c 30
        E 48 b1 0b 28
        E 64 b1 0b 20
        E 16 b1 0b 30
        E 64 b1 0b 28
        E 48 b1 0b 30
        E 16 b1 0b 28
        E 64 b1 0b 20
        E 48 b1 0b 30
        E 32 b1 0b 28
        E 64 b1 0b 20
        E 16 b1 0b 30
        E 48 b1 0b 28
        E 64 b1 0b 30
        E 16 b1 0b 28
        E 64 b1 0b 20
        E 48 b1 0b 30
        E 16 b1 0b 28
        E 80 b1 0b 20
        E 16 b1 0b 30
        E 48 b1 0b 28
        E 64 b1 0b 20
        E 16 b1 0c 10
        E 0 b1 0b 38
        E 0 81 1c 00
        E 0 91 26 38
        E 48 81 26 00
        E 0 91 28 38
        E 16 b1 0b 30
        E 48 b1 0b 38
        E 0 81 28 00
        E 0 91 2b 38
        E 16 b1 0b 30
        E 48 b1 0b 38
        E 0 81 2b 00
        E 0 91 2d 38
        E 16 b1 0b 30
        E 32 b1 0b 38
        E 0 81 2d 00
        E 0 91 2b 38
        E 48 b1 0b 30
        E 16 b1 0b 38
        E 0 81 2b 00
        E 0 91 2d 38
        E 48 b1 0b 30
        E 16 b1 0b 38
        E 0 81 2d 00
        E 0 91 2f 38
        E 48 b1 0b 30
        E 16 b1 0b 38
        E 0 81 2f 00
        E 0 91 32 38
        E 48 81 32 00
        E 0 91 34 38
        E 16 b1 0b 30
        E 48 b1 0b 38
        E 0 81 34 00
        E 0 91 37 38
        E 16 b1 0b 30
        E 48 b1 0b 38
        E 0 81 37 00
        E 0 91 39 38
        E 16 b1 0b 30
        E 32 b1 0b 38
        E 0 81 39 00
        E 0 91 3b 38
        E 48 b1 0b 30
        E 16 b1 0b 38
        E 0 81 3b 00
        E 0 91 3e 38
        E 48 b1 0b 30
        E 16 b1 0b 38
        E 0 81 3e 00
        E 0 91 40 38
        E 48 b1 0b 30
        E 16 b1 0b 38
        E 0 81 40 00
        E 0 91 43 38
        E 16 81 43 00
        E 96 b1 0c 20
        E 0 b1 0b 30
        E 0 91 1c 30
        E 16 b1 0b 28
        E 64 b1 0b 20
        E 32 b1 0b 30
        E 48 b1 0b 28
        E 64 b1 0b 20
        E 16 b1 0b 30
        E 48 b1 0b 28
        E 64 b1 0b 30
        E 16 b1 0b 28
        E 64 b1 0b 20
        E 48 b1 0b 30
        E 16 b1 0b 28
        E 80 b1 0b 20
        E 16 b1 0b 30
        E 48 b1 0b 28
        E 64 b1 0b 20
        E 16 b1 0b 30
        E 64 b1 0b 28
        E 48 b1 0b 30
        E 16 b1 0b 28
        E 64 b1 0b 20
        E 32 b1 0b 30
        E 48 b1 0b 28
        E 64 b1 0b 20
        E 16 b1 0b 30
        E 48 b1 0b 28
        E 64 b1 0b 30
        E 16 b1 0b 28
        E 64 b1 0b 20
        E 48 b1 0b 30
        E 32 b1 0b 28
        E 64 b1 0b 20
        E 16 b1 0b 30
        E 48 b1 0b 28
        E 64 b1 0b 30
        E 0 81 1c 00
        E 0 91 1a 30
        E 16 b1 0b 28
        E 64 b1 0b 20
        E 48 b1 0b 30
        E 0 81 1a 00
        E 0 91 1c 30
        E 16 b1 0b 28
        E 80 b1 0b 20
        E 16 b1 0b 30
        E 0 81 1c 00
        E 0 91 1f 30
        E 48 b1 0b 28
        E 64 b1 0b 20
        E 16 b1 0b 30
        E 0 81 1f 00
        E 0 91 1c 30
        E 64 b1 0b 28
        E 48 b1 0b 30
        E 16 b1 0b 28
        E 64 b1 0b 20
        E 48 b1 0b 30
        E 32 b1 0b 28
        E 64 b1 0b 20
        E 16 b1 0b 30
        E 48 b1 0b 28
        E 64 b1 0b 30
        E 16 b1 0b 28
        E 64 b1 0b 20
        E 48 b1 0b 30
        E 16 b1 0b 28
        E 80 b1 0b 20
        E 16 b1 0b 30
        E 48 b1 0b 28
        E 64 b1 0b 20
        E 16 b1 0b 30
        E 64 b1 0b 28
        E 48 b1 0b 30
        E 16 b1 0b 28
        E 64 b1 0b 20
        E 48 b1 0b 30
        E 0 81 1c 00
        E 0 91 1a 30
        E 32 b1 0b 28
        E 64 b1 0b 20
        E 16 b1 0b 30
        E 0 81 1a 00
        E 0 91 1c 30
        E 48 b1 0b 28
        E 64 b1 0b 30
        E 0 81 1c 00
        E 0 91 1f 30
        E 16 b1 0b 28
        E 64 b1 0b 20
        E 48 b1 0b 30
        E 0 81 1f 00
        E 0 91 21 30
        E 16 b1 0b 28
        E 80 b1 0b 20
        E 16 b1 0b 30
        E 0 81 21 00
        E 0 91 1f 30
        E 48 b1 0b 28
        E 64 b1 0b 20
        E 16 b1 0b 30
        E 0 81 1f 00
        E 0 91 1c 30
        E 64 b1 0b 28
        E 48 b1 0b 30
        E 0 81 1c 00
        E 0 91 1a 30
        E 16 b1 0b 28
        E 64 b1 0b 20
        E 32 b1 0b 30
        E 0 81 1a 00
        E 0 91 1c 30
        E 48 b1 0b 28
        E 64 b1 0b 20
        E 16 b1 0b 30
        E 48 b1 0b 28
        E 64 b1 0b 30
        E 16 b1 0b 28
        E 64 b1 0b 20
        E 48 b1 0b 30
        E 16 b1 0b 28
        E 80 b1 0b 20
        E 16 b1 0b 30
        E 48 b1 0b 28
        E 64 b1 0b 20
        E 16 b1 0b 30
        E 64 b1 0b 28
        E 48 b1 0b 30
        E 16 b1 0b 28
        E 64 b1 0b 20
        E 32 b1 0b 30
        E 48 b1 0b 28
        E 64 b1 0b 20
        E 16 b1 0b 30
        E 48 b1 0b 28
        E 64 b1 0b 30
        E 16 b1 0b 28
        E 64 b1 0b 20
        E 48 b1 0b 30
        E 16 b1 0b 28
        E 80 b1 0b 20
        E 16 b1 0b 30
        E 48 b1 0b 28
        E 64 b1 0b 20
        E 16 b1 0b 30
        E 64 b1 0b 28
        E 48 b1 0b 30
        E 0 81 1c 00
        E 0 91 1a 30
        E 16 b1 0b 28
        E 80 b1 0b 20
        E 16 b1 0b 30
        E 0 81 1a 00
        E 0 91 1c 30
        E 48 b1 0b 28
        E 64 b1 0b 20
        E 16 b1 0b 30
        E 0 81 1c 00
        E 0 91 1f 30
        E 64 b1 0b 28
        E 48 b1 0b 30
        E 0 81 1f 00
        E 0 91 1c 30
        E 16 b1 0b 28
        E 64 b1 0b 20
        E 48 b1 0b 30
        E 32 b1 0b 28
        E 64 b1 0b 20
        E 16 b1 0b 30
        E 48 b1 0b 28
        E 64 b1 0b 30
        E 16 b1 0b 28
        E 64 b1 0b 20
        E 48 b1 0b 30
        E 16 b1 0b 28
        E 80 b1 0b 20
        E 16 b1 0b 30
        E 48 b1 0b 28
        E 64 b1 0b 20
        E 16 b1 0b 30
        E 64 b1 0b 28
        E 48 b1 0b 30
        E 16 b1 0b 28
        E 64 b1 0b 20
        E 48 b1 0c 10
        E 0 b1 0b 38
        E 0 81 1c 00
        E 0 91 26 38
        E 32 b1 0b 30
        E 16 b1 0b 38
        E 0 81 26 00
        E 0 91 28 38
        E 48 b1 0b 30
        E 16 b1 0b 38
        E 0 81 28 00
        E 0 91 2b 38
        E 48 b1 0b 30
        E 16 b1 0b 38
        E 0 81 2b 00
        E 0 91 2d 38
        E 48 81 2d 00
        E 0 91 2b 38
        E 16 b1 0b 30
        E 48 b1 0b 38
        E 0 81 2b 00
        E 0 91 2d 38
        E 16 b1 0b 30
        E 48 b1 0b 38
        E 0 81 2d 00
        E 0 91 2f 38
        E 16 b1 0b 30
        E 48 b1 0b 38
        E 0 81 2f 00
        E 0 91 32 38
        E 32 b1 0b 30
        E 16 b1 0b 38
        E 0 81 32 00
        E 0 91 34 38
        E 48 b1 0b 30
        E 16 b1 0b 38
        E 0 81 34 00
        E 0 91 37 38
        E 48 b1 0b 30
        E 16 b1 0b 38
        E 0 81 37 00
        E 0 91 39 38
        E 48 81 39 00
        E 0 91 3b 38
        E 16 b1 0b 30
        E 48 b1 0b 38
        E 0 81 3b 00
        E 0 91 3e 38
        E 16 b1 0b 30
        E 48 b1 0b 38
        E 0 81 3e 00
        E 0 91 40 38
        E 16 b1 0b 30
        E 32 b1 0b 38
        E 0 81 40 00
        E 0 91 43 38
        E 32 81 43 00
        E 96 b1 0c 20
        E 0 b1 0b 30
        E 0 91 1c 30
        E 16 b1 0b 28
        E 80 b1 0b 20
        E 16 b1 0b 30
        E 48 b1 0b 28
        E 64 b1 0b 20
        E 16 b1 0b 30
        E 64 b1 0b 28
        E 48 b1 0b 30
        E 16 b1 0b 28
        E 64 b1 0b 20
        E 48 b1 0b 30
        E 32 b1 0b 28
        E 64 b1 0b 20
        E 16 b1 0b 30
        E 48 b1 0b 28
        E 64 b1 0b 30
        E 16 b1 0b 28
        E 64 b1 0b 20
        E 48 b1 0b 30
        E 16 b1 0b 28
        E 80 b1 0b 20
        E 16 b1 0b 30
        E 48 b1 0b 28
        E 64 b1 0b 20
        E 16 b1 0b 30
        E 64 b1 0b 28
        E 48 b1 0b 30
        E 16 b1 0b 28
        E 64 b1 0b 20
        E 48 b1 0b 30
        E 32 b1 0b 28
        E 64 b1 0b 20
        E 16 b1 0b 30
        E 48 b1 0b 28
        E 64 b1 0b 30
        E 0 81 1c 00
        E 0 91 1a 30
        E 16 b1 0b 28
        E 64 b1 0b 20
        E 48 b1 0b 30
        E 0 81 1a 00
        E 0 91 1c 30
        E 16 b1 0b 28
        E 80 b1 0b 20
        E 16 b1 0b 30
        E 0 81 1c 00
        E 0 91 1f 30
        E 48 b1 0b 28
        E 64 b1 0b 20
        E 16 b1 0b 30
        E 0 81 1f 00
        E 0 91 1c 30
        E 64 b1 0b 28
        E 48 b1 0b 30
        E 16 b1 0b 28
        E 64 b1 0b 20
        E 32 b1 0b 30
        E 48 b1 0b 28
        E 64 b1 0b 20
        E 16 b1 0b 30
        E 48 b1 0b 28
        E 64 b1 0b 30
        E 16 b1 0b 28
        E 64 b1 0b 20
        E 48 b1 0b 30
        E 16 b1 0b 28
        E 80 b1 0b 20
        E 16 b1 0b 30
        E 48 b1 0b 28
        E 64 b1 0b 20
        E 16 b1 0b 30
        E 64 b1 0b 28
        E 48 b1 0b 30
        E 16 b1 0b 28
        E 64 b1 0b 20
        E 32 b1 0b 30
        E 0 81 1c 00
        E 0 91 1a 30
        E 48 b1 0b 28
        E 64 b1 0b 20
        E 16 b1 0b 30
        E 0 81 1a 00
        E 0 91 1c 30
        E 48 b1 0b 28
        E 64 b1 0b 30
        E 0 81 1c 00
        E 0 91 1f 30
        E 16 b1 0b 28
        E 64 b1 0b 20
        E 48 b1 0b 30
        E 0 81 1f 00
        E 0 91 21 30
        E 16 b1 0b 28
        E 80 b1 0b 20
        E 16 b1 0b 30
        E 0 81 21 00
        E 0 91 1f 30
        E 48 b1 0b 28
        E 64 b1 0b 20
        E 16 b1 0b 30
        E 0 81 1f 00
        E 0 91 1c 30
        E 64 b1 0b 28
        E 48 b1 0b 30
        E 0 81 1c 00
        E 0 91 1a 30
        E 16 b1 0b 28
        E 64 b1 0b 20
        E 32 b1 0b 30
        E 0 81 1a 00
        E 0 91 1c 30
        E 48 b1 0b 28
        E 64 b1 0b 20
        E 16 b1 0b 30
        E 64 b1 0b 28
        E 48 b1 0b 30
        E 16 b1 0b 28
        E 64 b1 0b 20
        E 48 b1 0b 30
        E 32 b1 0b 28
        E 64 b1 0b 20
        E 16 b1 0b 30
        E 48 b1 0b 28
        E 64 b1 0b 30
        E 16 b1 0b 28
        E 64 b1 0b 20
        E 48 b1 0b 30
        E 16 b1 0b 28
        E 80 b1 0b 20
        E 16 b1 0b 30
        E 48 b1 0b 28
        E 64 b1 0b 20
        E 16 b1 0b 30
        E 64 b1 0b 28
        E 48 b1 0b 30
        E 16 b1 0b 28
        E 64 b1 0b 20
        E 48 b1 0b 30
        E 32 b1 0b 28
        E 64 b1 0b 20
        E 16 b1 0b 30
        E 48 b1 0b 28
        E 64 b1 0b 30
        E 16 b1 0b 28
        E 64 b1 0b 20
        E 48 b1 0b 30
        E 0 81 1c 00
        E 0 91 1a 30
        E 16 b1 0b 28
        E 80 b1 0b 20
        E 16 b1 0b 30
        E 0 81 1a 00
        E 0 91 1c 30
        E 48 b1 0b 28
        E 64 b1 0b 20
        E 16 b1 0b 30
        E 0 81 1c 00
        E 0 91 1f 30
        E 64 b1 0b 28
        E 48 b1 0b 30
        E 0 81 1f 00
        E 0 91 1c 30
        E 16 b1 0b 28
        E 64 b1 0b 20
        E 48 b1 0b 30
        E 32 b1 0b 28
        E 64 b1 0b 20
        E 16 b1 0b 30
        E 48 b1 0b 28
        E 64 b1 0b 30
        E 16 b1 0b 28
        E 64 b1 0b 20
        E 48 b1 0b 30
        E 16 b1 0b 28
        E 80 b1 0b 20
        E 16 b1 0b 30
        E 48 b1 0b 28
        E 64 b1 0b 20
        E 16 b1 0b 30
        E 64 b1 0b 28
        E 48 b1 0b 30
        E 16 b1 0b 28
        E 64 b1 0b 20
        E 32 b1 0c 10
        E 0 b1 0b 38
        E 0 81 1c 00
        E 0 91 26 38
        E 48 b1 0b 30
        E 16 b1 0b 38
        E 0 81 26 00
        E 0 91 28 38
        E 48 b1 0b 30
        E 16 b1 0b 38
        E 0 81 28 00
        E 0 91 2b 38
        E 48 b1 0b 30
        E 16 b1 0b 38
        E 0 81 2b 00
        E 0 91 2d 38
        E 48 81 2d 00
        E 0 91 2b 38
        E 16 b1 0b 30
        E 48 b1 0b 38
        E 0 81 2b 00
        E 0 91 2d 38
        E 16 b1 0b 30
        E 48 b1 0b 38
        E 0 81 2d 00
        E 0 91 2f 38
        E 16 b1 0b 30
        E 32 b1 0b 38
        E 0 81 2f 00
        E 0 91 32 38
        E 48 b1 0b 30
        E 16 b1 0b 38
        E 0 81 32 00
        E 0 91 34 38
        E 48 b1 0b 30
        E 16 b1 0b 38
        E 0 81 34 00
        E 0 91 37 38
        E 48 b1 0b 30
        E 16 b1 0b 38
        E 0 81 37 00
        E 0 91 39 38
        E 48 81 39 00
        E 0 91 3b 38
        E 16 b1 0b 30
        E 48 b1 0b 38
        E 0 81 3b 00
        E 0 91 3e 38
        E 16 b1 0b 30
        E 48 b1 0b 38
        E 0 81 3e 00
        E 0 91 40 38
        E 16 b1 0b 30
        E 32 b1 0b 38
        E 0 81 40 00
        E 0 91 43 38
        E 32 81 43 00
        E 96 b1 0c 20
        E 0 b1 0b 30
        E 0 91 1c 30
        E 16 b1 0b 28
        E 80 b1 0b 20
        E 16 b1 0b 30
        E 48 b1 0b 28
        E 64 b1 0b 20
        E 16 b1 0b 30
        E 64 b1 0b 28
        E 48 b1 0b 30
        E 16 b1 0b 28
        E 64 b1 0b 20
        E 32 b1 0b 30
        E 48 b1 0b 28
        E 64 b1 0b 20
        E 16 b1 0b 30
        E 48 b1 0b 28
        E 64 b1 0b 30
        E 16 b1 0b 28
        E 64 b1 0b 20
        E 48 b1 0b 30
        E 16 b1 0b 28
        E 80 b1 0b 20
        E 16 b1 0b 30
        E 48 b1 0b 28
        E 64 b1 0b 20
        E 16 b1 0b 30
        E 64 b1 0b 28
        E 48 b1 0b 30
        E 16 b1 0b 28
        E 64 b1 0b 20
        E 32 b1 0b 30
        E 48 b1 0b 28
        E 64 b1 0b 20
        E 16 b1 0b 30
        E 48 b1 0b 28
        E 64 b1 0b 30
        E 0 81 1c 00
        E 0 91 1a 30
        E 16 b1 0b 28
        E 64 b1 0b 20
        E 48 b1 0b 30
        E 0 81 1a 00
        E 0 91 1c 30
        E 16 b1 0b 28
        E 80 b1 0b 20
        E 16 b1 0b 30
        E 0 81 1c 00
        E 0 91 1f 30
        E 48 b1 0b 28
        E 64 b1 0b 20
        E 16 b1 0b 30
        E 0 81 1f 00
        E 0 91 1c 30
        E 64 b1 0b 28
        E 48 b1 0b 30
        E 16 b1 0b 28
        E 64 b1 0b 20
        E 32 b1 0b 30
        E 48 b1 0b 28
        E 64 b1 0b 20
        E 16 b1 0b 30
        E 48 b1 0b 28
        E 64 b1 0b 30
        E 16 b1 0b 28
        E 64 b1 0b 20
        E 48 b1 0b 30
        E 32 b1 0b 28
        E 64 b1 0b 20
        E 16 b1 0b 30
        E 48 b1 0b 28
        E 64 b1 0b 30
        E 16 b1 0b 28
        E 64 b1 0b 20
        E 48 b1 0b 30
        E 16 b1 0b 28
        E 80 b1 0b 20
        E 16 b1 0b 30
        E 0 81 1c 00
        E 0 91 1a 30
        E 48 b1 0b 28
        E 64 b1 0b 20
        E 16 b1 0b 30
        E 0 81 1a 00
        E 0 91 1c 30
        E 64 b1 0b 28
        E 48 b1 0b 30
        E 0 81 1c 00
        E 0 91 1f 30
        E 16 b1 0b 28
        E 64 b1 0b 20
        E 48 b1 0b 30
        E 0 81 1f 00
        E 0 91 21 30
        E 32 b1 0b 28
        E 64 b1 0b 20
        E 16 b1 0b 30
        E 0 81 21 00
        E 0 91 1f 30
        E 48 b1 0b 28
        E 64 b1 0b 30
        E 0 81 1f 00
        E 0 91 1c 30
        E 16 b1 0b 28
        E 64 b1 0b 20
        E 48 b1 0b 30
        E 0 81 1c 00
        E 0 91 1a 30
        E 16 b1 0b 28
        E 80 b1 0b 20
        E 16 b1 0b 30
        E 0 81 1a 00
        E 0 91 1c 30
        E 48 b1 0b 28
        E 64 b1 0b 20
        E 16 b1 0b 30
        E 64 b1 0b 28
        E 48 b1 0b 30
        E 16 b1 0b 28
        E 64 b1 0b 20
        E 48 b1 0b 30
        E 32 b1 0b 28
        E 64 b1 0b 20
        E 16 b1 0b 30
        E 48 b1 0b 28
        E 64 b1 0b 30
        E 16 b1 0b 28
        E 64 b1 0b 20
        E 48 b1 0b 30
        E 16 b1 0b 28
        E 80 b1 0b 20
        E 16 b1 0b 30
        E 48 b1 0b 28
        E 64 b1 0b 20
        E 16 b1 0b 30
        E 64 b1 0b 28
        E 48 b1 0b 30
        E 16 b1 0b 28
        E 64 b1 0b 20
        E 32 b1 0b 30
        E 48 b1 0b 28
        E 64 b1 0b 20
        E 16 b1 0b 30
        E 48 b1 0b 28
        E 64 b1 0b 30
        E 16 b1 0b 28
        E 64 b1 0b 20
        E 48 b1 0b 30
        E 0 81 1c 00
        E 0 91 1a 30
        E 16 b1 0b 28
        E 80 b1 0b 20
        E 16 b1 0b 30
        E 0 81 1a 00
        E 0 91 1c 30
        E 48 b1 0b 28
        E 64 b1 0b 20
        E 16 b1 0b 30
        E 0 81 1c 00
        E 0 91 1f 30
        E 64 b1 0b 28
        E 48 b1 0b 30
        E 0 81 1f 00
        E 0 91 1c 30
        E 16 b1 0b 28
        E 64 b1 0b 20
        E 32 b1 0b 30
        E 48 b1 0b 28
        E 64 b1 0b 20
        E 16 b1 0b 30
        E 48 b1 0b 28
        E 64 b1 0b 30
        E 16 b1 0b 28
        E 64 b1 0b 20
        E 48 b1 0b 30
        E 16 b1 0b 28
        E 80 b1 0b 20
        E 16 b1 0b 30
        E 48 b1 0b 28
        E 64 b1 0b 20
        E 16 b1 0b 30
        E 64 b1 0b 28
        E 48 b1 0b 30
        E 16 b1 0b 28
        E 80 b1 0b 20
        E 16 b1 0c 10
        E 0 b1 0b 38
        E 0 81 1c 00
        E 0 91 26 38
        E 48 b1 0b 30
        E 16 b1 0b 38
        E 0 81 26 00
        E 0 91 28 38
        E 48 b1 0b 30
        E 16 b1 0b 38
        E 0 81 28 00
        E 0 91 2b 38
        E 48 81 2b 00
        E 0 91 2d 38
        E 16 b1 0b 30
        E 48 b1 0b 38
        E 0 81 2d 00
        E 0 91 2b 38
        E 16 b1 0b 30
        E 48 b1 0b 38
        E 0 81 2b 00
        E 0 91 2d 38
        E 16 b1 0b 30
        E 48 b1 0b 38
        E 0 81 2d 00
        E 0 91 2f 38
        E 32 b1 0b 30
        E 16 b1 0b 38
        E 0 81 2f 00
        E 0 91 32 38
        E 48 b1 0b 30
        E 16 b1 0b 38
        E 0 81 32 00
        E 0 91 34 38
        E 48 b1 0b 30
        E 16 b1 0b 38
        E 0 81 34 00
        E 0 91 37 38
        E 48 81 37 00
        E 0 91 39 38
        E 16 b1 0b 30
        E 48 b1 0b 38
        E 0 81 39 00
        E 0 91 3b 38
        E 16 b1 0b 30
        E 48 b1 0b 38
        E 0 81 3b 00
        E 0 91 3e 38
        E 16 b1 0b 30
        E 48 b1 0b 38
        E 0 81 3e 00
        E 0 91 40 38
        E 32 b1 0b 30
        E 16 b1 0b 38
        E 0 81 40 00
        E 0 91 43 38
        E 32 81 43 00
        E 96 b1 0c 20
        E 0 b1 0b 30
        E 0 91 1c 30
        E 16 b1 0b 28
        E 80 b1 0b 20
        E 16 b1 0b 30
        E 48 b1 0b 28
        E 64 b1 0b 20
        E 16 b1 0b 30
        E 64 b1 0b 28
        E 48 b1 0b 30
        E 16 b1 0b 28
        E 64 b1 0b 20
        E 32 b1 0b 30
        E 48 b1 0b 28
        E 64 b1 0b 20
        E 16 b1 0b 30
        E 48 b1 0b 28
        E 64 b1 0b 30
        E 16 b1 0b 28
        E 64 b1 0b 20
        E 48 b1 0b 30
        E 16 b1 0b 28
        E 80 b1 0b 20
        E 16 b1 0b 30
        E 48 b1 0b 28
        E 64 b1 0b 30
        E 16 b1 0b 28
        E 64 b1 0b 20
        E 48 b1 0b 30
        E 16 b1 0b 28
        E 80 b1 0b 20
        E 16 b1 0b 30
        E 48 b1 0b 28
        E 64 b1 0b 20
        E 16 b1 0b 30
        E 64 b1 0b 28
        E 48 b1 0b 30
        E 0 81 1c 00
        E 0 91 1a 30
        E 16 b1 0b 28
        E 64 b1 0b 20
        E 48 b1 0b 30
        E 0 81 1a 00
        E 0 91 1c 30
        E 32 b1 0b 28
        E 64 b1 0b 20
        E 16 b1 0b 30
        E 0 81 1c 00
        E 0 91 1f 30
        E 48 b1 0b 28
        E 64 b1 0b 30
        E 0 81 1f 00
        E 0 91 1c 30
        E 16 b1 0b 28
        E 64 b1 0b 20
        E 48 b1 0b 30
        E 16 b1 0b 28
        E 80 b1 0b 20
        E 16 b1 0b 30
        E 48 b1 0b 28
        E 64 b1 0b 20
        E 16 b1 0b 30
        E 64 b1 0b 28
        E 48 b1 0b 30
        E 16 b1 0b 28
        E 64 b1 0b 20
        E 48 b1 0b 30
        E 32 b1 0b 28
        E 64 b1 0b 20
        E 16 b1 0b 30
        E 48 b1 0b 28
        E 64 b1 0b 30
        E 16 b1 0b 28
        E 64 b1 0b 20
        E 48 b1 0b 30
        E 16 b1 0b 28
        E 80 b1 0b 20
        E 16 b1 0b 30
        E 0 81 1c 00
        E 0 91 1a 30
        E 48 b1 0b 28
        E 64 b1 0b 20
        E 16 b1 0b 30
        E 0 81 1a 00
        E 0 91 1c 30
        E 64 b1 0b 28
        E 48 b1 0b 30
        E 0 81 1c 00
        E 0 91 1f 30
        E 16 b1 0b 28
        E 64 b1 0b 20
        E 32 b1 0b 30
        E 0 81 1f 00
        E 0 91 21 30
        E 48 b1 0b 28
        E 64 b1 0b 20
        E 16 b1 0b 30
        E 0 81 21 00
        E 0 91 1f 30
        E 48 b1 0b 28
        E 64 b1 0b 30
        E 0 81 1f 00
        E 0 91 1c 30
        E 16 b1 0b 28
        E 64 b1 0b 20
        E 48 b1 0b 30
        E 0 81 1c 00
        E 0 91 1a 30
        E 16 b1 0b 28
        E 80 b1 0b 20
        E 16 b1 0b 30
        E 0 81 1a 00
        E 0 91 1c 30
        E 48 b1 0b 28
        E 64 b1 0b 20
        E 16 b1 0b 30
        E 64 b1 0b 28
        E 48 b1 0b 30
        E 16 b1 0b 28
        E 64 b1 0b 20
        E 32 b1 0b 30
        E 48 b1 0b 28
        E 64 b1 0b 20
        E 16 b1 0b 30
        E 48 b1 0b 28
        E 64 b1 0b 30
        E 16 b1 0b 28
        E 64 b1 0b 20
        E 48 b1 0b 30
        E 16 b1 0b 28
        E 80 b1 0b 20
        E 16 b1 0b 30
        E 48 b1 0b 28
        E 64 b1 0b 20
        E 16 b1 0b 30
        E 64 b1 0b 28
        E 48 b1 0b 30
        E 16 b1 0b 28
        E 64 b1 0b 20
        E 32 b1 0b 30
        E 48 b1 0b 28
        E 64 b1 0b 20
        E 16 b1 0b 30
        E 64 b1 0b 28
        E 48 b1 0b 30
        E 16 b1 0b 28
        E 64 b1 0b 20
        E 48 b1 0b 30
        E 0 81 1c 00
        E 0 91 1a 30
        E 32 b1 0b 28
        E 64 b1 0b 20
        E 16 b1 0b 30
        E 0 81 1a 00
        E 0 91 1c 30
        E 48 b1 0b 28
        E 64 b1 0b 30
        E 0 81 1c 00
        E 0 91 1f 30
        E 16 b1 0b 28
        E 64 b1 0b 20
        E 48 b1 0b 30
        E 0 81 1f 00
        E 0 91 1c 30
        E 16 b1 0b 28
        E 80 b1 0b 20
        E 16 b1 0b 30
        E 48 b1 0b 28
        E 64 b1 0b 20
        E 16 b1 0b 30
        E 64 b1 0b 28
        E 48 b1 0b 30
        E 16 b1 0b 28
        E 64 b1 0b 20
        E 48 b1 0b 30
        E 32 b1 0b 28
        E 64 b1 0b 20
        E 16 b1 0b 30
        E 48 b1 0b 28
        E 64 b1 0b 30
        E 16 b1 0b 28
        E 64 b1 0b 20
        E 48 b1 0b 30
        E 16 b1 0b 28
        E 80 b1 0b 20
        E 16 b1 0c 10
        E 0 b1 0b 38
        E 0 81 1c 00
        E 0 91 26 38
        E 48 b1 0b 30
        E 16 b1 0b 38
        E 0 81 26 00
        E 0 91 28 38
        E 48 b1 0b 30
        E 16 b1 0b 38
        E 0 81 28 00
        E 0 91 2b 38
        E 48 81 2b 00
        E 0 91 2d 38
        E 16 b1 0b 30
        E 48 b1 0b 38
        E 0 81 2d 00
        E 0 91 2b 38
        E 16 b1 0b 30
        E 48 b1 0b 38
        E 0 81 2b 00
        E 0 91 2d 38
        E 16 b1 0b 30
        E 48 b1 0b 38
        E 0 81 2d 00
        E 0 91 2f 38
        E 32 b1 0b 30
        E 16 b1 0b 38
        E 0 81 2f 00
        E 0 91 32 38
        E 48 b1 0b 30
        E 16 b1 0b 38
        E 0 81 32 00
        E 0 91 34 38
        E 48 b1 0b 30
        E 16 b1 0b 38
        E 0 81 34 00
        E 0 91 37 38
        E 48 81 37 00
        E 0 91 39 38
        E 16 b1 0b 30
        E 48 b1 0b 38
        E 0 81 39 00
        E 0 91 3b 38
        E 16 b1 0b 30
        E 48 b1 0b 38
        E 0 81 3b 00
        E 0 91 3e 38
        E 16 b1 0b 30
        E 32 b1 0b 38
        E 0 81 3e 00
        E 0 91 40 38
        E 48 b1 0b 30
        E 16 b1 0b 38
        E 0 81 40 00
        E 0 91 43 38
        E 32 81 43 00
        E 96 b1 0c 20
        E 0 b1 0b 30
        E 0 91 1c 30
        E 32 b1 0b 28
        E 64 b1 0b 20
        E 16 b1 0b 30
        E 48 b1 0b 28
        E 64 b1 0b 30
        E 16 b1 0b 28
        E 64 b1 0b 20
        E 48 b1 0b 30
        E 16 b1 0b 28
        E 80 b1 0b 20
        E 16 b1 0b 30
        E 48 b1 0b 28
        E 64 b1 0b 20
        E 16 b1 0b 30
        E 64 b1 0b 28
        E 48 b1 0b 30
        E 16 b1 0b 28
        E 64 b1 0b 20
        E 48 b1 0b 30
        E 32 b1 0b 28
        E 64 b1 0b 20
        E 16 b1 0b 30
        E 48 b1 0b 28
        E 64 b1 0b 30
        E 16 b1 0b 28
        E 64 b1 0b 20
        E 48 b1 0b 30
        E 16 b1 0b 28
        E 80 b1 0b 20
        E 16 b1 0b 30
        E 48 b1 0b 28
        E 64 b1 0b 20
        E 16 b1 0b 30
        E 64 b1 0b 28
        E 48 b1 0b 30
        E 0 81 1c 00
        E 0 91 1a 30
        E 16 b1 0b 28
        E 64 b1 0b 20
        E 32 b1 0b 30
        E 0 81 1a 00
        E 0 91 1c 30
        E 48 b1 0b 28
        E 64 b1 0b 20
        E 16 b1 0b 30
        E 0 81 1c 00
        E 0 91 1f 30
        E 48 b1 0b 28
        E 64 b1 0b 30
        E 0 81 1f 00
        E 0 91 1c 30
        E 16 b1 0b 28
        E 64 b1 0b 20
        E 48 b1 0b 30
        E 16 b1 0b 28
        E 80 b1 0b 20
        E 16 b1 0b 30
        E 48 b1 0b 28
        E 64 b1 0b 20
        E 16 b1 0b 30
        E 64 b1 0b 28
        E 48 b1 0b 30
        E 16 b1 0b 28
        E 64 b1 0b 20
        E 32 b1 0b 30
        E 48 b1 0b 28
        E 64 b1 0b 20
        E 16 b1 0b 30
        E 48 b1 0b 28
        E 64 b1 0b 30
        E 16 b1 0b 28
        E 64 b1 0b 20
        E 48 b1 0b 30
        E 16 b1 0b 28
        E 80 b1 0b 20
        E 16 b1 0b 30
        E 0 81 1c 00
        E 0 91 1a 30
        E 48 b1 0b 28
        E 64 b1 0b 20
        E 16 b1 0b 30
        E 0 81 1a 00
        E 0 91 1c 30
        E 64 b1 0b 28
        E 48 b1 0b 30
        E 0 81 1c 00
        E 0 91 1f 30
        E 16 b1 0b 28
        E 64 b1 0b 20
        E 32 b1 0b 30
        E 0 81 1f 00
        E 0 91 21 30
        E 48 b1 0b 28
        E 64 b1 0b 20
        E 16 b1 0b 30
        E 0 81 21 00
        E 0 91 1f 30
        E 48 b1 0b 28
        E 64 b1 0b 30
        E 0 81 1f 00
        E 0 91 1c 30
        E 16 b1 0b 28
        E 64 b1 0b 20
        E 48 b1 0b 30
        E 0 81 1c 00
        E 0 91 1a 30
        E 32 b1 0b 28
        E 64 b1 0b 20
        E 16 b1 0b 30
        E 0 81 1a 00
        E 0 91 1c 30
        E 48 b1 0b 28
        E 64 b1 0b 30
        E 16 b1 0b 28
        E 64 b1 0b 20
        E 48 b1 0b 30
        E 16 b1 0b 28
        E 80 b1 0b 20
        E 16 b1 0b 30
        E 48 b1 0b 28
        E 64 b1 0b 20
        E 16 b1 0b 30
        E 64 b1 0b 28
        E 48 b1 0b 30
        E 16 b1 0b 28
        E 64 b1 0b 20
        E 48 b1 0b 30
        E 32 b1 0b 28
        E 64 b1 0b 20
        E 16 b1 0b 30
        E 48 b1 0b 28
        E 64 b1 0b 30
        E 16 b1 0b 28
        E 64 b1 0b 20
        E 48 b1 0b 30
        E 16 b1 0b 28
        E 80 b1 0b 20
        E 16 b1 0b 30
        E 48 b1 0b 28
        E 64 b1 0b 20
        E 16 b1 0b 30
        E 64 b1 0b 28
        E 48 b1 0b 30
        E 16 b1 0b 28
        E 64 b1 0b 20
        E 48 b1 0b 30
        E 0 81 1c 00
        E 0 91 1a 30
        E 32 b1 0b 28
        E 64 b1 0b 20
        E 16 b1 0b 30
        E 0 81 1a 00
        E 0 91 1c 30
        E 48 b1 0b 28
        E 64 b1 0b 30
        E 0 81 1c 00
        E 0 91 1f 30
        E 16 b1 0b 28
        E 64 b1 0b 20
        E 48 b1 0b 30
        E 0 81 1f 00
        E 0 91 1c 30
        E 16 b1 0b 28
        E 80 b1 0b 20
        E 16 b1 0b 30
        E 48 b1 0b 28
        E 64 b1 0b 20
        E 16 b1 0b 30
        E 64 b1 0b 28
        E 48 b1 0b 30
        E 16 b1 0b 28
        E 64 b1 0b 20
        E 32 b1 0b 30
        E 48 b1 0b 28
        E 64 b1 0b 20
        E 16 b1 0b 30
        E 48 b1 0b 28
        E 64 b1 0b 30
        E 16 b1 0b 28
        E 64 b1 0b 20
        E 48 b1 0b 30
        E 16 b1 0b 28
        E 80 b1 0b 20
        E 16 b1 0c 10
        E 0 b1 0b 38
        E 0 81 1c 00
        E 0 91 26 38
        E 48 b1 0b 30
        E 16 b1 0b 38
        E 0 81 26 00
        E 0 91 28 38
        E 48 b1 0b 30
        E 16 b1 0b 38
        E 0 81 28 00
        E 0 91 2b 38
        E 48 81 2b 00
        E 0 91 2d 38
        E 16 b1 0b 30
        E 48 b1 0b 38
        E 0 81 2d 00
        E 0 91 2b 38
        E 16 b1 0b 30
        E 48 b1 0b 38
        E 0 81 2b 00
        E 0 91 2d 38
        E 16 b1 0b 30
        E 32 b1 0b 38
        E 0 81 2d 00
        E 0 91 2f 38
        E 48 b1 0b 30
        E 16 b1 0b 38
        E 0 81 2f 00
        E 0 91 32 38
        E 48 b1 0b 30
        E 16 b1 0b 38
        E 0 81 32 00
        E 0 91 34 38
        E 48 b1 0b 30
        E 16 b1 0b 38
        E 0 81 34 00
        E 0 91 37 38
        E 48 81 37 00
        E 0 91 39 38
        E 16 b1 0b 30
        E 48 b1 0b 38
        E 0 81 39 00
        E 0 91 3b 38
        E 16 b1 0b 30
        E 48 b1 0b 38
        E 0 81 3b 00
        E 0 91 3e 38
        E 16 b1 0b 30
        E 32 b1 0b 38
        E 0 81 3e 00
        E 0 91 40 38
        E 48 b1 0b 30
        E 16 b1 0b 38
        E 0 81 40 00
        E 0 91 43 38
        E 32 81 43 00
        E 96 b1 0c 20
        E 0 b1 0b 30
        E 0 91 1c 30
        E 32 b1 0b 28
        E 64 b1 0b 20
        E 16 b1 0b 30
        E 48 b1 0b 28
        E 64 b1 0b 30
        E 16 b1 0b 28
        E 64 b1 0b 20
        E 48 b1 0b 30
        E 16 b1 0b 28
        E 80 b1 0b 20
        E 16 b1 0b 30
        E 48 b1 0b 28
        E 64 b1 0b 20
        E 16 b1 0b 30
        E 64 b1 0b 28
        E 48 b1 0b 30
        E 16 b1 0b 28
        E 64 b1 0b 20
        E 32 b1 0b 30
        E 48 b1 0b 28
        E 64 b1 0b 20
        E 16 b1 0b 30
        E 48 b1 0b 28
        E 64 b1 0b 30
        E 16 b1 0b 28
        E 64 b1 0b 20
        E 48 b1 0b 30
        E 16 b1 0b 28
        E 80 b1 0b 20
        E 16 b1 0b 30
        E 48 b1 0b 28
        E 64 b1 0b 20
        E 16 b1 0b 30
        E 64 b1 0b 28
        E 48 b1 0b 30
        E 0 81 1c 00
        E 0 91 1a 30
        E 16 b1 0b 28
        E 64 b1 0b 20
        E 32 b1 0b 30
        E 0 81 1a 00
        E 0 91 1c 30
        E 48 b1 0b 28
        E 64 b1 0b 20
        E 16 b1 0b 30
        E 0 81 1c 00
        E 0 91 1f 30
        E 48 b1 0b 28
        E 64 b1 0b 30
        E 0 81 1f 00
        E 0 91 1c 30
        E 16 b1 0b 28
        E 64 b1 0b 20
        E 48 b1 0b 30
        E 16 b1 0b 28
        E 80 b1 0b 20
        E 16 b1 0b 30
        E 48 b1 0b 28
        E 64 b1 0b 30
        E 16 b1 0b 28
        E 64 b1 0b 20
        E 48 b1 0b 30
        E 16 b1 0b 28
        E 80 b1 0b 20
        E 16 b1 0b 30
        E 48 b1 0b 28
        E 64 b1 0b 20
        E 16 b1 0b 30
        E 64 b1 0b 28
        E 48 b1 0b 30
        E 16 b1 0b 28
        E 64 b1 0b 20
        E 48 b1 0b 30
        E 32 b1 0b 28
        E 64 b1 0b 20
        E 16 b1 0b 30
        E 0 81 1c 00
        E 0 91 1a 30
        E 48 b1 0b 28
        E 64 b1 0b 30
        E 0 81 1a 00
        E 0 91 1c 30
        E 16 b1 0b 28
        E 64 b1 0b 20
        E 48 b1 0b 30
        E 0 81 1c 00
        E 0 91 1f 30
        E 16 b1 0b 28
        E 80 b1 0b 20
        E 16 b1 0b 30
        E 0 81 1f 00
        E 0 91 21 30
        E 48 b1 0b 28
        E 64 b1 0b 20
        E 16 b1 0b 30
        E 0 81 21 00
        E 0 91 1f 30
        E 64 b1 0b 28
        E 48 b1 0b 30
        E 0 81 1f 00
        E 0 91 1c 30
        E 16 b1 0b 28
        E 64 b1 0b 20
        E 48 b1 0b 30
        E 0 81 1c 00
        E 0 91 1a 30
        E 32 b1 0b 28
        E 64 b1 0b 20
        E 16 b1 0b 30
        E 0 81 1a 00
        E 0 91 1c 30
        E 48 b1 0b 28
        E 64 b1 0b 30
        E 16 b1 0b 28
        E 64 b1 0b 20
        E 48 b1 0b 30
        E 16 b1 0b 28
        E 80 b1 0b 20
        E 16 b1 0b 30
        E 48 b1 0b 28
        E 64 b1 0b 20
        E 16 b1 0b 30
        E 64 b1 0b 28
        E 48 b1 0b 30
        E 16 b1 0b 28
        E 64 b1 0b 20
        E 32 b1 0b 30
        E 48 b1 0b 28
        E 64 b1 0b 20
        E 16 b1 0b 30
        E 48 b1 0b 28
        E 64 b1 0b 30
        E 16 b1 0b 28
        E 64 b1 0b 20
        E 48 b1 0b 30
        E 16 b1 0b 28
        E 80 b1 0b 20
        E 16 b1 0b 30
        E 48 b1 0b 28
        E 64 b1 0b 20
        E 16 b1 0b 30
        E 64 b1 0b 28
        E 48 b1 0b 30
        E 16 b1 0b 28
        E 64 b1 0b 20
        E 32 b1 0b 30
        E 0 81 1c 00
        E 0 91 1a 30
        E 48 b1 0b 28
        E 64 b1 0b 20
        E 16 b1 0b 30
        E 0 81 1a 00
        E 0 91 1c 30
        E 48 b1 0b 28
        E 64 b1 0b 30
        E 0 81 1c 00
        E 0 91 1f 30
        E 16 b1 0b 28
        E 64 b1 0b 20
        E 48 b1 0b 30
        E 0 81 1f 00
        E 0 91 1c 30
        E 16 b1 0b 28
        E 80 b1 0b 20
        E 16 b1 0b 30
        E 48 b1 0b 28
        E 64 b1 0b 20
        E 16 b1 0b 30
        E 64 b1 0b 28
        E 48 b1 0b 30
        E 16 b1 0b 28
        E 64 b1 0b 20
        E 32 b1 0b 30
        E 48 b1 0b 28
        E 64 b1 0b 20
        E 16 b1 0b 30
        E 64 b1 0b 28
        E 48 b1 0b 30
        E 16 b1 0b 28
        E 64 b1 0b 20
        E 48 b1 0b 30
        E 32 b1 0b 28
        E 64 b1 0b 20
        E 16 b1 0c 10
        E 0 b1 0b 38
        E 0 81 1c 00
        E 0 91 26 38
        E 48 b1 0b 30
        E 16 b1 0b 38
        E 0 81 26 00
        E 0 91 28 38
        E 48 81 28 00
        E 0 91 2b 38
        E 16 b1 0b 30
        E 48 b1 0b 38
        E 0 81 2b 00
        E 0 91 2d 38
        E 16 b1 0b 30
        E 48 b1 0b 38
        E 0 81 2d 00
        E 0 91 2b 38
        E 16 b1 0b 30
        E 48 b1 0b 38
        E 0 81 2b 00
        E 0 91 2d 38
        E 32 b1 0b 30
        E 16 b1 0b 38
        E 0 81 2d 00
        E 0 91 2f 38
        E 48 b1 0b 30
        E 16 b1 0b 38
        E 0 81 2f 00
        E 0 91 32 38
        E 48 b1 0b 30
        E 16 b1 0b 38
        E 0 81 32 00
        E 0 91 34 38
        E 48 81 34 00
        E 0 91 37 38
        E 16 b1 0b 30
        E 48 b1 0b 38
        E 0 81 37 00
        E 0 91 39 38
        E 16 b1 0b 30
        E 48 b1 0b 38
        E 0 81 39 00
        E 0 91 3b 38
        E 16 b1 0b 30
        E 48 b1 0b 38
        E 0 81 3b 00
        E 0 91 3e 38
        E 32 b1 0b 30
        E 16 b1 0b 38
        E 0 81 3e 00
        E 0 91 40 38
        E 48 b1 0b 30
        E 16 b1 0b 38
        E 0 81 40 00
        E 0 91 43 38
        E 32 81 43 00
        E 80 b1 0c 20
        E 0 b1 0b 30
        E 0 91 1c 30
        E 48 b1 0b 28
        E 64 b1 0b 20
        E 16 b1 0b 30
        E 48 b1 0b 28
        E 64 b1 0b 30
        E 16 b1 0b 28
        E 64 b1 0b 20
        E 48 b1 0b 30
        E 16 b1 0b 28
        E 80 b1 0b 20
        E 16 b1 0b 30
        E 48 b1 0b 28
        E 64 b1 0b 20
        E 16 b1 0b 30
        E 64 b1 0b 28
        E 48 b1 0b 30
        E 16 b1 0b 28
        E 80 b1 0b 20
        E 16 b1 0b 30
        E 48 b1 0b 28
        E 64 b1 0b 20
        E 16 b1 0b 30
        E 64 b1 0b 28
        E 48 b1 0b 30
        E 16 b1 0b 28
        E 64 b1 0b 20
        E 48 b1 0b 30
        E 32 b1 0b 28
        E 64 b1 0b 20
        E 16 b1 0b 30
        E 48 b1 0b 28
        E 64 b1 0b 30
        E 16 b1 0b 28
        E 64 b1 0b 20
        E 48 b1 0b 30
        E 0 81 1c 00
        E 0 91 1a 30
        E 16 b1 0b 28
        E 80 b1 0b 20
        E 16 b1 0b 30
        E 0 81 1a 00
        E 0 91 1c 30
        E 48 b1 0b 28
        E 64 b1 0b 20
        E 16 b1 0b 30
        E 0 81 1c 00
        E 0 91 1f 30
        E 64 b1 0b 28
        E 48 b1 0b 30
        E 0 81 1f 00
        E 0 91 1c 30
        E 16 b1 0b 28
        E 64 b1 0b 20
        E 48 b1 0b 30
        E 32 b1 0b 28
        E 64 b1 0b 20
        E 16 b1 0b 30
        E 48 b1 0b 28
        E 64 b1 0b 30
        E 16 b1 0b 28
        E 64 b1 0b 20
        E 48 b1 0b 30
        E 16 b1 0b 28
        E 80 b1 0b 20
        E 16 b1 0b 30
        E 48 b1 0b 28
        E 64 b1 0b 20
        E 16 b1 0b 30
        E 64 b1 0b 28
        E 48 b1 0b 30
        E 16 b1 0b 28
        E 64 b1 0b 20
        E 32 b1 0b 30
        E 48 b1 0b 28
        E 64 b1 0b 20
        E 16 b1 0b 30
        E 0 81 1c 00
        E 0 91 1a 30
        E 48 b1 0b 28
        E 64 b1 0b 30
        E 0 81 1a 00
        E 0 91 1c 30
        E 16 b1 0b 28
        E 64 b1 0b 20
        E 48 b1 0b 30
        E 0 81 1c 00
        E 0 91 1f 30
        E 16 b1 0b 28
        E 80 b1 0b 20
        E 16 b1 0b 30
        E 0 81 1f 00
        E 0 91 21 30
        E 48 b1 0b 28
        E 64 b1 0b 20
        E 16 b1 0b 30
        E 0 81 21 00
        E 0 91 1f 30
        E 64 b1 0b 28
        E 48 b1 0b 30
        E 0 81 1f 00
        E 0 91 1c 30
        E 16 b1 0b 28
        E 64 b1 0b 20
        E 32 b1 0b 30
        E 0 81 1c 00
        E 0 91 1a 30
        E 48 b1 0b 28
        E 64 b1 0b 20
        E 16 b1 0b 30
        E 0 81 1a 00
        E 0 91 1c 30
        E 48 b1 0b 28
        E 64 b1 0b 30
        E 16 b1 0b 28
        E 64 b1 0b 20
        E 48 b1 0b 30
        E 16 b1 0b 28
        E 80 b1 0b 20
        E 16 b1 0b 30
        E 48 b1 0b 28
        E 64 b1 0b 20
        E 16 b1 0b 30
        E 64 b1 0b 28
        E 48 b1 0b 30
        E 16 b1 0b 28
        E 64 b1 0b 20
        E 32 b1 0b 30
        E 48 b1 0b 28
        E 64 b1 0b 20
        E 16 b1 0b 30
        E 48 b1 0b 28
        E 64 b1 0b 30
        E 16 b1 0b 28
        E 64 b1 0b 20
        E 48 b1 0b 30
        E 32 b1 0b 28
        E 64 b1 0b 20
        E 16 b1 0b 30
        E 48 b1 0b 28
        E 64 b1 0b 30
        E 16 b1 0b 28
        E 64 b1 0b 20
        E 48 b1 0b 30
        E 16 b1 0b 28
        E 80 b1 0b 20
        E 16 b1 0b 30
        E 0 81 1c 00
        E 0 91 1a 30
        E 48 b1 0b 28
        E 64 b1 0b 20
        E 16 b1 0b 30
        E 0 81 1a 00
        E 0 91 1c 30
        E 64 b1 0b 28
        E 48 b1 0b 30
        E 0 81 1c 00
        E 0 91 1f 30
        E 16 b1 0b 28
        E 64 b1 0b 20
        E 48 b1 0b 30
        E 0 81 1f 00
        E 0 91 1c 30
        E 32 b1 0b 28
        E 64 b1 0b 20
        E 16 b1 0b 30
        E 48 b1 0b 28
        E 64 b1 0b 30
        E 16 b1 0b 28
        E 64 b1 0b 20
        E 48 b1 0b 30
        E 16 b1 0b 28
        E 80 b1 0b 20
        E 16 b1 0b 30
        E 48 b1 0b 28
        E 64 b1 0b 20
        E 16 b1 0b 30
        E 64 b1 0b 28
        E 48 b1 0b 30
        E 16 b1 0b 28
        E 64 b1 0b 20
        E 48 b1 0b 30
        E 32 b1 0b 28
        E 64 b1 0b 20
        E 16 b1 0c 10
        E 0 b1 0b 38
        E 0 81 1c 00
        E 0 91 26 38
        E 48 b1 0b 30
        E 16 b1 0b 38
        E 0 81 26 00
        E 0 91 28 38
        E 48 81 28 00
        E 0 91 2b 38
        E 16 b1 0b 30
        E 48 b1 0b 38
        E 0 81 2b 00
        E 0 91 2d 38
        E 16 b1 0b 30
        E 48 b1 0b 38
        E 0 81 2d 00
        E 0 91 2b 38
        E 16 b1 0b 30
        E 32 b1 0b 38
        E 0 81 2b 00
        E 0 91 2d 38
        E 48 b1 0b 30
        E 16 b1 0b 38
        E 0 81 2d 00
        E 0 91 2f 38
        E 48 b1 0b 30
        E 16 b1 0b 38
        E 0 81 2f 00
        E 0 91 32 38
        E 48 b1 0b 30
        E 16 b1 0b 38
        E 0 81 32 00
        E 0 91 34 38
        E 48 81 34 00
        E 0 91 37 38
        E 16 b1 0b 30
        E 48 b1 0b 38
        E 0 81 37 00
        E 0 91 39 38
        E 16 b1 0b 30
        E 48 b1 0b 38
        E 0 81 39 00
        E 0 91 3b 38
        E 16 b1 0b 30
        E 32 b1 0b 38
        E 0 81 3b 00
        E 0 91 3e 38
        E 48 b1 0b 30
        E 16 b1 0b 38
        E 0 81 3e 00
        E 0 91 40 38
        E 48 b1 0b 30
        E 16 b1 0b 38
        E 0 81 40 00
        E 0 91 43 38
        E 32 81 43 00
        E 80 b1 0c 20
        E 0 b1 0b 30
        E 0 91 1c 30
        E 48 b1 0b 28
        E 64 b1 0b 20
        E 16 b1 0b 30
        E 64 b1 0b 28
        E 48 b1 0b 30
        E 16 b1 0b 28
        E 64 b1 0b 20
        E 48 b1 0b 30
        E 32 b1 0b 28
        E 64 b1 0b 20
        E 16 b1 0b 30
        E 48 b1 0b 28
        E 64 b1 0b 30
        E 16 b1 0b 28
        E 64 b1 0b 20
        E 48 b1 0b 30
        E 16 b1 0b 28
        E 80 b1 0b 20
        E 16 b1 0b 30
        E 48 b1 0b 28
        E 64 b1 0b 20
        E 16 b1 0b 30
        E 64 b1 0b 28
        E 48 b1 0b 30
        E 16 b1 0b 28
        E 64 b1 0b 20
        E 48 b1 0b 30
        E 32 b1 0b 28
        E 64 b1 0b 20
        E 16 b1 0b 30
        E 48 b1 0b 28
        E 64 b1 0b 30
        E 16 b1 0b 28
        E 64 b1 0b 20
        E 48 b1 0b 30
        E 0 81 1c 00
        E 0 91 1a 30
        E 16 b1 0b 28
        E 80 b1 0b 20
        E 16 b1 0b 30
        E 0 81 1a 00
        E 0 91 1c 30
        E 48 b1 0b 28
        E 64 b1 0b 20
        E 16 b1 0b 30
        E 0 81 1c 00
        E 0 91 1f 30
        E 64 b1 0b 28
        E 48 b1 0b 30
        E 0 81 1f 00
        E 0 91 1c 30
        E 16 b1 0b 28
        E 64 b1 0b 20
        E 32 b1 0b 30
        E 48 b1 0b 28
        E 64 b1 0b 20
        E 16 b1 0b 30
        E 48 b1 0b 28
        E 64 b1 0b 30
        E 16 b1 0b 28
        E 64 b1 0b 20
        E 48 b1 0b 30
        E 16 b1 0b 28
        E 80 b1 0b 20
        E 16 b1 0b 30
        E 48 b1 0b 28
        E 64 b1 0b 20
        E 16 b1 0b 30
        E 64 b1 0b 28
        E 48 b1 0b 30
        E 16 b1 0b 28
        E 64 b1 0b 20
        E 32 b1 0b 30
        E 48 b1 0b 28
        E 64 b1 0b 20
        E 16 b1 0b 30
        E 0 81 1c 00
        E 0 91 1a 30
        E 48 b1 0b 28
        E 64 b1 0b 30
        E 0 81 1a 00
        E 0 91 1c 30
        E 16 b1 0b 28
        E 64 b1 0b 20
        E 48 b1 0b 30
        E 0 81 1c 00
        E 0 91 1f 30
        E 16 b1 0b 28
        E 80 b1 0b 20
        E 16 b1 0b 30
        E 0 81 1f 00
        E 0 91 21 30
        E 48 b1 0b 28
        E 64 b1 0b 30
        E 0 81 21 00
        E 0 91 1f 30
        E 16 b1 0b 28
        E 64 b1 0b 20
        E 48 b1 0b 30
        E 0 81 1f 00
        E 0 91 1c 30
        E 16 b1 0b 28
        E 80 b1 0b 20
        E 16 b1 0b 30
        E 0 81 1c 00
        E 0 91 1a 30
        E 48 b1 0b 28
        E 64 b1 0b 20
        E 16 b1 0b 30
        E 0 81 1a 00
        E 0 91 1c 30
        E 64 b1 0b 28
        E 48 b1 0b 30
        E 16 b1 0b 28
        E 64 b1 0b 20
        E 48 b1 0b 30
        E 32 b1 0b 28
        E 64 b1 0b 20
        E 16 b1 0b 30
        E 48 b1 0b 28
        E 64 b1 0b 30
        E 16 b1 0b 28
        E 64 b1 0b 20
        E 48 b1 0b 30
        E 16 b1 0b 28
        E 80 b1 0b 20
        E 16 b1 0b 30
        E 48 b1 0b 28
        E 64 b1 0b 20
        E 16 b1 0b 30
        E 64 b1 0b 28
        E 48 b1 0b 30
        E 16 b1 0b 28
        E 64 b1 0b 20
        E 48 b1 0b 30
        E 32 b1 0b 28
        E 64 b1 0b 20
        E 16 b1 0b 30
        E 48 b1 0b 28
        E 64 b1 0b 30
        E 16 b1 0b 28
        E 64 b1 0b 20
        E 48 b1 0b 30
        E 16 b1 0b 28
        E 80 b1 0b 20
        E 16 b1 0b 30
        E 0 81 1c 00
        E 0 91 1a 30
        E 48 b1 0b 28
        E 64 b1 0b 20
        E 16 b1 0b 30
        E 0 81 1a 00
        E 0 91 1c 30
        E 64 b1 0b 28
        E 48 b1 0b 30
        E 0 81 1c 00
        E 0 91 1f 30
        E 16 b1 0b 28
        E 64 b1 0b 20
        E 32 b1 0b 30
        E 0 81 1f 00
        E 0 91 1c 30
        E 48 b1 0b 28
        E 64 b1 0b 20
        E 16 b1 0b 30
        E 48 b1 0b 28
        E 64 b1 0b 30
        E 16 b1 0b 28
        E 64 b1 0b 20
        E 48 b1 0b 30
        E 16 b1 0b 28
        E 80 b1 0b 20
        E 16 b1 0b 30
        E 48 b1 0b 28
        E 64 b1 0b 20
        E 16 b1 0b 30
        E 64 b1 0b 28
        E 48 b1 0b 30
        E 16 b1 0b 28
        E 64 b1 0b 20
        E 32 b1 0b 30
        E 48 b1 0b 28
        E 64 b1 0b 20
        E 16 b1 0c 10
        E 0 b1 0b 38
        E 0 81 1c 00
        E 0 91 26 38
        E 48 b1 0b 30
        E 16 b1 0b 38
        E 0 81 26 00
        E 0 91 28 38
        E 48 81 28 00
        E 0 91 2b 38
        E 16 b1 0b 30
        E 48 b1 0b 38
        E 0 81 2b 00
        E 0 91 2d 38
        E 16 b1 0b 30
        E 48 b1 0b 38
        E 0 81 2d 00
        E 0 91 2b 38
        E 16 b1 0b 30
        E 32 b1 0b 38
        E 0 81 2b 00
        E 0 91 2d 38
        E 48 b1 0b 30
        E 16 b1 0b 38
        E 0 81 2d 00
        E 0 91 2f 38
        E 48 b1 0b 30
        E 16 b1 0b 38
        E 0 81 2f 00
        E 0 91 32 38
        E 48 b1 0b 30
        E 16 b1 0b 38
        E 0 81 32 00
        E 0 91 34 38
        E 48 81 34 00
        E 0 91 37 38
        E 16 b1 0b 30
        E 48 b1 0b 38
        E 0 81 37 00
        E 0 91 39 38
        E 16 b1 0b 30
        E 48 b1 0b 38
        E 0 81 39 00
        E 0 91 3b 38
        E 16 b1 0b 30
        E 32 b1 0b 38
        E 0 81 3b 00
        E 0 91 3e 38
        E 48 b1 0b 30
        E 16 b1 0b 38
        E 0 81 3e 00
        E 0 91 40 38
        E 48 b1 0b 30
        E 16 b1 0b 38
        E 0 81 40 00
        E 0 91 43 38
        E 32 81 43 00
        E 80 b1 0c 20
        E 0 b1 0b 30
        E 0 91 1c 30
        E 48 b1 0b 28
        E 64 b1 0b 20
        E 16 b1 0b 30
        E 64 b1 0b 28
        E 48 b1 0b 30
        E 16 b1 0b 28
        E 64 b1 0b 20
        E 32 b1 0b 30
        E 48 b1 0b 28
        E 64 b1 0b 20
        E 16 b1 0b 30
        E 48 b1 0b 28
        E 64 b1 0b 30
        E 16 b1 0b 28
        E 64 b1 0b 20
        E 48 b1 0b 30
        E 16 b1 0b 28
        E 80 b1 0b 20
        E 16 b1 0b 30
        E 48 b1 0b 28
        E 64 b1 0b 20
        E 16 b1 0b 30
        E 64 b1 0b 28
        E 48 b1 0b 30
        E 16 b1 0b 28
        E 64 b1 0b 20
        E 32 b1 0b 30
        E 48 b1 0b 28
        E 64 b1 0b 20
        E 16 b1 0b 30
        E 48 b1 0b 28
        E 64 b1 0b 30
        E 16 b1 0b 28
        E 64 b1 0b 20
        E 48 b1 0b 30
        E 0 81 1c 00
        E 0 91 1a 30
        E 16 b1 0b 28
        E 80 b1 0b 20
        E 16 b1 0b 30
        E 0 81 1a 00
        E 0 91 1c 30
        E 48 b1 0b 28
        E 64 b1 0b 20
        E 16 b1 0b 30
        E 0 81 1c 00
        E 0 91 1f 30
        E 64 b1 0b 28
        E 48 b1 0b 30
        E 0 81 1f 00
        E 0 91 1c 30
        E 16 b1 0b 28
        E 80 b1 0b 20
        E 16 b1 0b 30
        E 48 b1 0b 28
        E 64 b1 0b 20
        E 16 b1 0b 30
        E 64 b1 0b 28
        E 48 b1 0b 30
        E 16 b1 0b 28
        E 64 b1 0b 20
        E 48 b1 0b 30
        E 32 b1 0b 28
        E 64 b1 0b 20
        E 16 b1 0b 30
        E 48 b1 0b 28
        E 64 b1 0b 30
        E 16 b1 0b 28
        E 64 b1 0b 20
        E 48 b1 0b 30
        E 16 b1 0b 28
        E 80 b1 0b 20
        E 16 b1 0b 30
        E 48 b1 0b 28
        E 64 b1 0b 20
        E 16 b1 0b 30
        E 0 81 1c 00
        E 0 91 1a 30
        E 64 b1 0b 28
        E 48 b1 0b 30
        E 0 81 1a 00
        E 0 91 1c 30
        E 16 b1 0b 28
        E 64 b1 0b 20
        E 48 b1 0b 30
        E 0 81 1c 00
        E 0 91 1f 30
        E 32 b1 0b 28
        E 64 b1 0b 20
        E 16 b1 0b 30
        E 0 81 1f 00
        E 0 91 21 30
        E 48 b1 0b 28
        E 64 b1 0b 30
        E 0 81 21 00
        E 0 91 1f 30
        E 16 b1 0b 28
        E 64 b1 0b 20
        E 48 b1 0b 30
        E 0 81 1f 00
        E 0 91 1c 30
        E 16 b1 0b 28
        E 80 b1 0b 20
        E 16 b1 0b 30
        E 0 81 1c 00
        E 0 91 1a 30
        E 48 b1 0b 28
        E 64 b1 0b 20
        E 16 b1 0b 30
        E 0 81 1a 00
        E 0 91 1c 30
        E 64 b1 0b 28
        E 48 b1 0b 30
        E 16 b1 0b 28
        E 64 b1 0b 20
        E 32 b1 0b 30
        E 48 b1 0b 28
        E 64 b1 0b 20
        E 16 b1 0b 30
        E 48 b1 0b 28
        E 64 b1 0b 30
        E 16 b1 0b 28
        E 64 b1 0b 20
        E 48 b1 0b 30
        E 16 b1 0b 28
        E 80 b1 0b 20
        E 16 b1 0b 30
        E 48 b1 0b 28
        E 64 b1 0b 20
        E 16 b1 0b 30
        E 64 b1 0b 28
        E 48 b1 0b 30
        E 16 b1 0b 28
        E 64 b1 0b 20
        E 32 b1 0b 30
        E 48 b1 0b 28
        E 64 b1 0b 20
        E 16 b1 0b 30
        E 48 b1 0b 28
        E 64 b1 0b 30
        E 16 b1 0b 28
        E 64 b1 0b 20
        E 48 b1 0b 30
        E 16 b1 0b 28
        E 80 b1 0b 20
        E 16 b1 0b 30
        E 0 81 1c 00
        E 0 91 1a 30
        E 48 b1 0b 28
        E 64 b1 0b 20
        E 16 b1 0b 30
        E 0 81 1a 00
        E 0 91 1c 30
        E 64 b1 0b 28
        E 48 b1 0b 30
        E 0 81 1c 00
        E 0 91 1f 30
        E 16 b1 0b 28
        E 64 b1 0b 20
        E 32 b1 0b 30
        E 0 81 1f 00
        E 0 91 1c 30
        E 48 b1 0b 28
        E 64 b1 0b 20
        E 16 b1 0b 30
        E 48 b1 0b 28
        E 64 b1 0b 30
        E 16 b1 0b 28
        E 64 b1 0b 20
        E 48 b1 0b 30
        E 32 b1 0b 28
        E 64 b1 0b 20
        E 16 b1 0b 30
        E 48 b1 0b 28
        E 64 b1 0b 30
        E 16 b1 0b 28
        E 64 b1 0b 20
        E 48 b1 0b 30
        E 16 b1 0b 28
        E 48 81 1c 00
        E 0 ff 2f 00
      >
    >
  >
  <TRACK {6A8F9412-66A0-40FF-8C44-191CABA47C41}
    NAME "NES - Triangle [ch2]"
    PEAKCOL 16744192
    BEAT -1
    AUTOMODE 0
    PANLAWFLAGS 3
    VOLPAN 1 0 -1 -1 1
    MUTESOLO 0 0 0
    IPHASE 0
    PLAYOFFS 0 1
    ISBUS 0 0
    BUSCOMP 0 0 0 0 0
    SHOWINMIX 1 0.6667 0.5 1 0.5 0 0 0
    FIXEDLANES 9 0 0 0 0
    SEL 0
    REC 0 5088 1 0 0 0 0 0
    VU 2
    TRACKHEIGHT 0 0 0 0 0 0 0
    INQ 0 0 0 0.5 100 0 0 100
    NCHAN 2
    FX 1
    TRACKID {6A8F9412-66A0-40FF-8C44-191CABA47C41}
    PERF 0
    MIDIOUT -1
    MAINSEND 1 0
    <FXCHAIN
      WNDRECT 24 52 700 560
      SHOW 0
      LASTSEL 0
      DOCKED 0
      BYPASS 0 0 0
      <JS "ReapNES Studio/ReapNES_Console.jsfx" ""
        2 15 1 10 80 10 100 2 1 15 1 5 60 10 80 1 1 0 50 0 0 15 1 0 100 0 0 0.500000 0.500000 0.400000 0.300000 0.800000 2 1 0 0 0 0 - - - - - - - - - - - - - - - - - - - - - - - - - -
      >
      FLOATPOS 0 0 0 0
      FXID {580AD1B1-8B36-4023-A4B6-06D19AAC0C73}
      WAK 0 0
    >
    <ITEM
      POSITION 0
      LENGTH 83.98134
      LOOP 0
      ALLTAKES 0
      FADEIN 0 0 0 0 0 0 0
      FADEOUT 0 0 0 0 0 0 0
      MUTE 0 0
      SEL 0
      IGUID {857B9426-2C5C-460D-BDBF-634078586814}
      <SOURCE MIDI
        HASDATA 1 480 QN
        CCINTERP 32
        X 0 18 ff 03 0f 54 72 69 61 6e 67 6c 65 20 5b 62 61 73 73 5d
        E 0 c2 26
        E 16 b2 0b 7f
        E 0 92 28 7f
        E 1552 82 28 00
        E 0 b2 0b 7f
        E 0 92 26 7f
        E 112 82 26 00
        E 0 b2 0b 7f
        E 0 92 28 7f
        E 128 82 28 00
        E 0 b2 0b 7f
        E 0 92 2b 7f
        E 112 82 2b 00
        E 0 b2 0b 7f
        E 0 92 28 7f
        E 1072 82 28 00
        E 0 b2 0b 7f
        E 0 92 26 7f
        E 112 82 26 00
        E 0 b2 0b 7f
        E 0 92 28 7f
        E 128 82 28 00
        E 0 b2 0b 7f
        E 0 92 2b 7f
        E 112 82 2b 00
        E 0 b2 0b 7f
        E 0 92 2d 7f
        E 128 82 2d 00
        E 0 b2 0b 7f
        E 0 92 2b 7f
        E 112 82 2b 00
        E 0 b2 0b 7f
        E 0 92 28 7f
        E 112 82 28 00
        E 0 b2 0b 7f
        E 0 92 26 7f
        E 128 82 26 00
        E 0 b2 0b 7f
        E 0 92 28 7f
        E 1536 82 28 00
        E 0 b2 0b 7f
        E 0 92 26 7f
        E 128 82 26 00
        E 0 b2 0b 7f
        E 0 92 28 7f
        E 112 82 28 00
        E 0 b2 0b 7f
        E 0 92 2b 7f
        E 128 82 2b 00
        E 0 b2 0b 7f
        E 0 92 28 7f
        E 1056 82 28 00
        E 0 b2 0b 7f
        E 0 92 26 7f
        E 128 82 26 00
        E 0 b2 0b 7f
        E 0 92 28 7f
        E 112 82 28 00
        E 0 b2 0b 7f
        E 0 92 2b 7f
        E 128 82 2b 00
        E 0 b2 0b 7f
        E 0 92 2d 7f
        E 112 82 2d 00
        E 0 b2 0b 7f
        E 0 92 2b 7f
        E 112 82 2b 00
        E 0 b2 0b 7f
        E 0 92 28 7f
        E 128 82 28 00
        E 0 b2 0b 7f
        E 0 92 26 7f
        E 112 82 26 00
        E 0 b2 0b 7f
        E 0 92 28 7f
        E 1552 82 28 00
        E 0 b2 0b 7f
        E 0 92 26 7f
        E 112 82 26 00
        E 0 b2 0b 7f
        E 0 92 28 7f
        E 128 82 28 00
        E 0 b2 0b 7f
        E 0 92 2b 7f
        E 112 82 2b 00
        E 0 b2 0b 7f
        E 0 92 28 7f
        E 1072 82 28 00
        E 0 b2 0b 7f
        E 0 92 26 7f
        E 112 82 26 00
        E 0 b2 0b 7f
        E 0 92 28 7f
        E 128 82 28 00
        E 0 b2 0b 7f
        E 0 92 2b 7f
        E 112 82 2b 00
        E 0 b2 0b 7f
        E 0 92 2d 7f
        E 112 82 2d 00
        E 0 b2 0b 7f
        E 0 92 2b 7f
        E 128 82 2b 00
        E 0 b2 0b 7f
        E 0 92 28 7f
        E 112 82 28 00
        E 0 b2 0b 7f
        E 0 92 26 7f
        E 128 82 26 00
        E 0 b2 0b 7f
        E 0 92 28 7f
        E 1536 82 28 00
        E 0 b2 0b 7f
        E 0 92 26 7f
        E 128 82 26 00
        E 0 b2 0b 7f
        E 0 92 28 7f
        E 112 82 28 00
        E 0 b2 0b 7f
        E 0 92 2b 7f
        E 112 82 2b 00
        E 0 b2 0b 7f
        E 0 92 28 7f
        E 1072 82 28 00
        E 0 b2 0b 7f
        E 0 92 26 7f
        E 128 82 26 00
        E 0 b2 0b 7f
        E 0 92 28 7f
        E 112 82 28 00
        E 0 b2 0b 7f
        E 0 92 2b 7f
        E 112 82 2b 00
        E 0 b2 0b 7f
        E 0 92 2d 7f
        E 128 82 2d 00
        E 0 b2 0b 7f
        E 0 92 2b 7f
        E 112 82 2b 00
        E 0 b2 0b 7f
        E 0 92 28 7f
        E 128 82 28 00
        E 0 b2 0b 7f
        E 0 92 26 7f
        E 112 82 26 00
        E 0 b2 0b 7f
        E 0 92 28 7f
        E 1552 82 28 00
        E 0 b2 0b 7f
        E 0 92 26 7f
        E 112 82 26 00
        E 0 b2 0b 7f
        E 0 92 28 7f
        E 112 82 28 00
        E 0 b2 0b 7f
        E 0 92 2b 7f
        E 128 82 2b 00
        E 0 b2 0b 7f
        E 0 92 28 7f
        E 1072 82 28 00
        E 0 b2 0b 7f
        E 0 92 26 7f
        E 112 82 26 00
        E 0 b2 0b 7f
        E 0 92 28 7f
        E 112 82 28 00
        E 0 b2 0b 7f
        E 0 92 2b 7f
        E 128 82 2b 00
        E 0 b2 0b 7f
        E 0 92 2d 7f
        E 112 82 2d 00
        E 0 b2 0b 7f
        E 0 92 2b 7f
        E 128 82 2b 00
        E 0 b2 0b 7f
        E 0 92 28 7f
        E 112 82 28 00
        E 0 b2 0b 7f
        E 0 92 26 7f
        E 128 82 26 00
        E 0 b2 0b 7f
        E 0 92 28 7f
        E 1536 82 28 00
        E 0 b2 0b 7f
        E 0 92 26 7f
        E 112 82 26 00
        E 0 b2 0b 7f
        E 0 92 28 7f
        E 128 82 28 00
        E 0 b2 0b 7f
        E 0 92 2b 7f
        E 112 82 2b 00
        E 0 b2 0b 7f
        E 0 92 28 7f
        E 1072 82 28 00
        E 0 b2 0b 7f
        E 0 92 26 7f
        E 128 82 26 00
        E 0 b2 0b 7f
        E 0 92 28 7f
        E 112 82 28 00
        E 0 b2 0b 7f
        E 0 92 2b 7f
        E 112 82 2b 00
        E 0 b2 0b 7f
        E 0 92 2d 7f
        E 128 82 2d 00
        E 0 b2 0b 7f
        E 0 92 2b 7f
        E 112 82 2b 00
        E 0 b2 0b 7f
        E 0 92 28 7f
        E 128 82 28 00
        E 0 b2 0b 7f
        E 0 92 26 7f
        E 112 82 26 00
        E 0 b2 0b 7f
        E 0 92 28 7f
        E 1552 82 28 00
        E 0 b2 0b 7f
        E 0 92 26 7f
        E 112 82 26 00
        E 0 b2 0b 7f
        E 0 92 28 7f
        E 112 82 28 00
        E 0 b2 0b 7f
        E 0 92 2b 7f
        E 128 82 2b 00
        E 0 b2 0b 7f
        E 0 92 28 7f
        E 1072 82 28 00
        E 0 b2 0b 7f
        E 0 92 26 7f
        E 112 82 26 00
        E 0 b2 0b 7f
        E 0 92 28 7f
        E 112 82 28 00
        E 0 b2 0b 7f
        E 0 92 2b 7f
        E 128 82 2b 00
        E 0 b2 0b 7f
        E 0 92 2d 7f
        E 112 82 2d 00
        E 0 b2 0b 7f
        E 0 92 2b 7f
        E 128 82 2b 00
        E 0 b2 0b 7f
        E 0 92 28 7f
        E 112 82 28 00
        E 0 b2 0b 7f
        E 0 92 26 7f
        E 112 82 26 00
        E 0 b2 0b 7f
        E 0 92 28 7f
        E 1552 82 28 00
        E 0 b2 0b 7f
        E 0 92 26 7f
        E 112 82 26 00
        E 0 b2 0b 7f
        E 0 92 28 7f
        E 128 82 28 00
        E 0 b2 0b 7f
        E 0 92 2b 7f
        E 112 82 2b 00
        E 0 b2 0b 7f
        E 0 92 28 7f
        E 1072 82 28 00
        E 0 b2 0b 7f
        E 0 92 26 7f
        E 112 82 26 00
        E 0 b2 0b 7f
        E 0 92 28 7f
        E 128 82 28 00
        E 0 b2 0b 7f
        E 0 92 2b 7f
        E 112 82 2b 00
        E 0 b2 0b 7f
        E 0 92 2d 7f
        E 128 82 2d 00
        E 0 b2 0b 7f
        E 0 92 2b 7f
        E 112 82 2b 00
        E 0 b2 0b 7f
        E 0 92 28 7f
        E 128 82 28 00
        E 0 b2 0b 7f
        E 0 92 26 7f
        E 112 82 26 00
        E 0 b2 0b 7f
        E 0 92 28 7f
        E 1536 82 28 00
        E 0 b2 0b 7f
        E 0 92 26 7f
        E 128 82 26 00
        E 0 b2 0b 7f
        E 0 92 28 7f
        E 112 82 28 00
        E 0 b2 0b 7f
        E 0 92 2b 7f
        E 128 82 2b 00
        E 0 b2 0b 7f
        E 0 92 28 7f
        E 1056 82 28 00
        E 0 b2 0b 7f
        E 0 92 26 7f
        E 128 82 26 00
        E 0 b2 0b 7f
        E 0 92 28 7f
        E 112 82 28 00
        E 0 b2 0b 7f
        E 0 92 2b 7f
        E 128 82 2b 00
        E 0 b2 0b 7f
        E 0 92 2d 7f
        E 112 82 2d 00
        E 0 b2 0b 7f
        E 0 92 2b 7f
        E 128 82 2b 00
        E 0 b2 0b 7f
        E 0 92 28 7f
        E 112 82 28 00
        E 0 b2 0b 7f
        E 0 92 26 7f
        E 112 82 26 00
        E 0 b2 0b 7f
        E 0 92 28 7f
        E 1552 82 28 00
        E 0 b2 0b 7f
        E 0 92 26 7f
        E 112 82 26 00
        E 0 b2 0b 7f
        E 0 92 28 7f
        E 128 82 28 00
        E 0 b2 0b 7f
        E 0 92 2b 7f
        E 112 82 2b 00
        E 0 b2 0b 7f
        E 0 92 28 7f
        E 1072 82 28 00
        E 0 b2 0b 7f
        E 0 92 26 7f
        E 112 82 26 00
        E 0 b2 0b 7f
        E 0 92 28 7f
        E 128 82 28 00
        E 0 b2 0b 7f
        E 0 92 2b 7f
        E 112 82 2b 00
        E 0 b2 0b 7f
        E 0 92 2d 7f
        E 128 82 2d 00
        E 0 b2 0b 7f
        E 0 92 2b 7f
        E 112 82 2b 00
        E 0 b2 0b 7f
        E 0 92 28 7f
        E 112 82 28 00
        E 0 b2 0b 7f
        E 0 92 26 7f
        E 128 82 26 00
        E 0 b2 0b 7f
        E 0 92 28 7f
        E 1536 82 28 00
        E 0 b2 0b 7f
        E 0 92 26 7f
        E 128 82 26 00
        E 0 b2 0b 7f
        E 0 92 28 7f
        E 112 82 28 00
        E 0 b2 0b 7f
        E 0 92 2b 7f
        E 128 82 2b 00
        E 0 b2 0b 7f
        E 0 92 28 7f
        E 1056 82 28 00
        E 0 b2 0b 7f
        E 0 92 26 7f
        E 128 82 26 00
        E 0 b2 0b 7f
        E 0 92 28 7f
        E 112 82 28 00
        E 0 b2 0b 7f
        E 0 92 2b 7f
        E 128 82 2b 00
        E 0 b2 0b 7f
        E 0 92 2d 7f
        E 112 82 2d 00
        E 0 b2 0b 7f
        E 0 92 2b 7f
        E 112 82 2b 00
        E 0 b2 0b 7f
        E 0 92 28 7f
        E 128 82 28 00
        E 0 b2 0b 7f
        E 0 92 26 7f
        E 112 82 26 00
        E 0 b2 0b 7f
        E 0 92 28 7f
        E 1552 82 28 00
        E 0 b2 0b 7f
        E 0 92 26 7f
        E 112 82 26 00
        E 0 b2 0b 7f
        E 0 92 28 7f
        E 128 82 28 00
        E 0 b2 0b 7f
        E 0 92 2b 7f
        E 112 82 2b 00
        E 0 b2 0b 7f
        E 0 92 28 7f
        E 1072 82 28 00
        E 0 b2 0b 7f
        E 0 92 26 7f
        E 112 82 26 00
        E 0 b2 0b 7f
        E 0 92 28 7f
        E 128 82 28 00
        E 0 b2 0b 7f
        E 0 92 2b 7f
        E 112 82 2b 00
        E 0 b2 0b 7f
        E 0 92 2d 7f
        E 112 82 2d 00
        E 0 b2 0b 7f
        E 0 92 2b 7f
        E 128 82 2b 00
        E 0 b2 0b 7f
        E 0 92 28 7f
        E 112 82 28 00
        E 0 b2 0b 7f
        E 0 92 26 7f
        E 128 82 26 00
        E 0 b2 0b 7f
        E 0 92 28 7f
        E 1536 82 28 00
        E 0 b2 0b 7f
        E 0 92 26 7f
        E 128 82 26 00
        E 0 b2 0b 7f
        E 0 92 28 7f
        E 112 82 28 00
        E 0 b2 0b 7f
        E 0 92 2b 7f
        E 112 82 2b 00
        E 0 b2 0b 7f
        E 0 92 28 7f
        E 1072 82 28 00
        E 0 b2 0b 7f
        E 0 92 26 7f
        E 128 82 26 00
        E 0 b2 0b 7f
        E 0 92 28 7f
        E 112 82 28 00
        E 0 b2 0b 7f
        E 0 92 2b 7f
        E 128 82 2b 00
        E 0 b2 0b 7f
        E 0 92 2d 7f
        E 112 82 2d 00
        E 0 b2 0b 7f
        E 0 92 2b 7f
        E 112 82 2b 00
        E 0 b2 0b 7f
        E 0 92 28 7f
        E 128 82 28 00
        E 0 b2 0b 7f
        E 0 92 26 7f
        E 112 82 26 00
        E 0 b2 0b 7f
        E 0 92 28 7f
        E 1552 82 28 00
        E 0 b2 0b 7f
        E 0 92 26 7f
        E 112 82 26 00
        E 0 b2 0b 7f
        E 0 92 28 7f
        E 112 82 28 00
        E 0 b2 0b 7f
        E 0 92 2b 7f
        E 128 82 2b 00
        E 0 b2 0b 7f
        E 0 92 28 7f
        E 1072 82 28 00
        E 0 b2 0b 7f
        E 0 92 26 7f
        E 112 82 26 00
        E 0 b2 0b 7f
        E 0 92 28 7f
        E 128 82 28 00
        E 0 b2 0b 7f
        E 0 92 2b 7f
        E 112 82 2b 00
        E 0 b2 0b 7f
        E 0 92 2d 7f
        E 112 82 2d 00
        E 0 b2 0b 7f
        E 0 92 2b 7f
        E 128 82 2b 00
        E 0 b2 0b 7f
        E 0 92 28 7f
        E 112 82 28 00
        E 0 b2 0b 7f
        E 0 92 26 7f
        E 128 82 26 00
        E 0 b2 0b 7f
        E 0 92 28 7f
        E 1536 82 28 00
        E 0 b2 0b 7f
        E 0 92 26 7f
        E 128 82 26 00
        E 0 b2 0b 7f
        E 0 92 28 7f
        E 112 82 28 00
        E 0 b2 0b 7f
        E 0 92 2b 7f
        E 112 82 2b 00
        E 0 b2 0b 7f
        E 0 92 28 7f
        E 1072 82 28 00
        E 0 b2 0b 7f
        E 0 92 26 7f
        E 128 82 26 00
        E 0 b2 0b 7f
        E 0 92 28 7f
        E 112 82 28 00
        E 0 b2 0b 7f
        E 0 92 2b 7f
        E 112 82 2b 00
        E 0 b2 0b 7f
        E 0 92 2d 7f
        E 128 82 2d 00
        E 0 b2 0b 7f
        E 0 92 2b 7f
        E 112 82 2b 00
        E 0 b2 0b 7f
        E 0 92 28 7f
        E 128 82 28 00
        E 0 b2 0b 7f
        E 0 92 26 7f
        E 112 82 26 00
        E 0 b2 0b 7f
        E 0 92 28 7f
        E 1552 82 28 00
        E 0 b2 0b 7f
        E 0 92 26 7f
        E 112 82 26 00
        E 0 b2 0b 7f
        E 0 92 28 7f
        E 112 82 28 00
        E 0 b2 0b 7f
        E 0 92 2b 7f
        E 128 82 2b 00
        E 0 b2 0b 7f
        E 0 92 28 7f
        E 1072 82 28 00
        E 0 b2 0b 7f
        E 0 92 26 7f
        E 112 82 26 00
        E 0 b2 0b 7f
        E 0 92 28 7f
        E 112 82 28 00
        E 0 b2 0b 7f
        E 0 92 2b 7f
        E 128 82 2b 00
        E 0 b2 0b 7f
        E 0 92 2d 7f
        E 112 82 2d 00
        E 0 b2 0b 7f
        E 0 92 2b 7f
        E 128 82 2b 00
        E 0 b2 0b 7f
        E 0 92 28 7f
        E 112 82 28 00
        E 0 b2 0b 7f
        E 0 92 26 7f
        E 128 82 26 00
        E 0 b2 0b 7f
        E 0 92 28 7f
        E 1536 82 28 00
        E 0 b2 0b 7f
        E 0 92 26 7f
        E 112 82 26 00
        E 0 b2 0b 7f
        E 0 92 28 7f
        E 128 82 28 00
        E 0 b2 0b 7f
        E 0 92 2b 7f
        E 112 82 2b 00
        E 0 b2 0b 7f
        E 0 92 28 7f
        E 1072 82 28 00
        E 0 b2 0b 7f
        E 0 92 26 7f
        E 112 82 26 00
        E 0 b2 0b 7f
        E 0 92 28 7f
        E 128 82 28 00
        E 0 b2 0b 7f
        E 0 92 2b 7f
        E 112 82 2b 00
        E 0 b2 0b 7f
        E 0 92 2d 7f
        E 128 82 2d 00
        E 0 b2 0b 7f
        E 0 92 2b 7f
        E 112 82 2b 00
        E 0 b2 0b 7f
        E 0 92 28 7f
        E 128 82 28 00
        E 0 b2 0b 7f
        E 0 92 26 7f
        E 112 82 26 00
        E 0 b2 0b 7f
        E 0 92 28 7f
        E 1536 82 28 00
        E 0 b2 0b 7f
        E 0 92 26 7f
        E 128 82 26 00
        E 0 b2 0b 7f
        E 0 92 28 7f
        E 112 82 28 00
        E 0 b2 0b 7f
        E 0 92 2b 7f
        E 128 82 2b 00
        E 0 b2 0b 7f
        E 0 92 28 7f
        E 1056 82 28 00
        E 0 b2 0b 7f
        E 0 92 26 7f
        E 128 82 26 00
        E 0 b2 0b 7f
        E 0 92 28 7f
        E 112 82 28 00
        E 0 b2 0b 7f
        E 0 92 2b 7f
        E 128 82 2b 00
        E 0 b2 0b 7f
        E 0 92 2d 7f
        E 112 82 2d 00
        E 0 b2 0b 7f
        E 0 92 2b 7f
        E 128 82 2b 00
        E 0 b2 0b 7f
        E 0 92 28 7f
        E 112 82 28 00
        E 0 b2 0b 7f
        E 0 92 26 7f
        E 112 82 26 00
        E 0 b2 0b 7f
        E 0 92 28 7f
        E 1552 82 28 00
        E 0 b2 0b 7f
        E 0 92 26 7f
        E 112 82 26 00
        E 0 b2 0b 7f
        E 0 92 28 7f
        E 128 82 28 00
        E 0 b2 0b 7f
        E 0 92 2b 7f
        E 112 82 2b 00
        E 0 b2 0b 7f
        E 0 92 28 7f
        E 1072 82 28 00
        E 0 b2 0b 7f
        E 0 92 26 7f
        E 112 82 26 00
        E 0 b2 0b 7f
        E 0 92 28 7f
        E 128 82 28 00
        E 0 b2 0b 7f
        E 0 92 2b 7f
        E 112 82 2b 00
        E 0 b2 0b 7f
        E 0 92 2d 7f
        E 128 82 2d 00
        E 0 b2 0b 7f
        E 0 92 2b 7f
        E 112 82 2b 00
        E 0 b2 0b 7f
        E 0 92 28 7f
        E 112 82 28 00
        E 0 b2 0b 7f
        E 0 92 26 7f
        E 128 82 26 00
        E 0 b2 0b 7f
        E 0 92 28 7f
        E 1536 82 28 00
        E 0 b2 0b 7f
        E 0 92 26 7f
        E 128 82 26 00
        E 0 b2 0b 7f
        E 0 92 28 7f
        E 112 82 28 00
        E 0 b2 0b 7f
        E 0 92 2b 7f
        E 128 82 2b 00
        E 0 b2 0b 7f
        E 0 92 28 7f
        E 1056 82 28 00
        E 0 b2 0b 7f
        E 0 92 26 7f
        E 128 82 26 00
        E 0 b2 0b 7f
        E 0 92 28 7f
        E 112 82 28 00
        E 0 b2 0b 7f
        E 0 92 2b 7f
        E 128 82 2b 00
        E 0 b2 0b 7f
        E 0 92 2d 7f
        E 112 82 2d 00
        E 0 b2 0b 7f
        E 0 92 2b 7f
        E 112 82 2b 00
        E 0 b2 0b 7f
        E 0 92 28 7f
        E 128 82 28 00
        E 0 b2 0b 7f
        E 0 92 26 7f
        E 112 82 26 00
        E 0 b2 0b 7f
        E 0 92 28 7f
        E 1552 82 28 00
        E 0 b2 0b 7f
        E 0 92 26 7f
        E 112 82 26 00
        E 0 b2 0b 7f
        E 0 92 28 7f
        E 128 82 28 00
        E 0 b2 0b 7f
        E 0 92 2b 7f
        E 112 82 2b 00
        E 0 b2 0b 7f
        E 0 92 28 7f
        E 1072 82 28 00
        E 0 b2 0b 7f
        E 0 92 26 7f
        E 112 82 26 00
        E 0 b2 0b 7f
        E 0 92 28 7f
        E 128 82 28 00
        E 0 b2 0b 7f
        E 0 92 2b 7f
        E 112 82 2b 00
        E 0 b2 0b 7f
        E 0 92 2d 7f
        E 128 82 2d 00
        E 0 b2 0b 7f
        E 0 92 2b 7f
        E 112 82 2b 00
        E 0 b2 0b 7f
        E 0 92 28 7f
        E 112 82 28 00
        E 0 b2 0b 7f
        E 0 92 26 7f
        E 128 82 26 00
        E 0 b2 0b 7f
        E 0 92 28 7f
        E 1536 82 28 00
        E 0 b2 0b 7f
        E 0 92 26 7f
        E 128 82 26 00
        E 0 b2 0b 7f
        E 0 92 28 7f
        E 112 82 28 00
        E 0 b2 0b 7f
        E 0 92 2b 7f
        E 128 82 2b 00
        E 0 b2 0b 7f
        E 0 92 28 7f
        E 1056 82 28 00
        E 0 b2 0b 7f
        E 0 92 26 7f
        E 128 82 26 00
        E 0 b2 0b 7f
        E 0 92 28 7f
        E 112 82 28 00
        E 0 b2 0b 7f
        E 0 92 2b 7f
        E 128 82 2b 00
        E 0 b2 0b 7f
        E 0 92 2d 7f
        E 112 82 2d 00
        E 0 b2 0b 7f
        E 0 92 2b 7f
        E 112 82 2b 00
        E 0 b2 0b 7f
        E 0 92 28 7f
        E 128 82 28 00
        E 0 b2 0b 7f
        E 0 92 26 7f
        E 112 82 26 00
        E 0 b2 0b 7f
        E 0 92 28 7f
        E 1552 82 28 00
        E 0 b2 0b 7f
        E 0 92 26 7f
        E 112 82 26 00
        E 0 b2 0b 7f
        E 0 92 28 7f
        E 128 82 28 00
        E 0 b2 0b 7f
        E 0 92 2b 7f
        E 112 82 2b 00
        E 0 b2 0b 7f
        E 0 92 28 7f
        E 896 82 28 00
        E 0 ff 2f 00
      >
    >
  >
  <TRACK {B2E77A5B-4695-44AA-B974-9F5B4444F890}
    NAME "NES - Noise / Drums [ch3]"
    PEAKCOL 11184810
    BEAT -1
    AUTOMODE 0
    PANLAWFLAGS 3
    VOLPAN 1 0 -1 -1 1
    MUTESOLO 0 0 0
    IPHASE 0
    PLAYOFFS 0 1
    ISBUS 0 0
    BUSCOMP 0 0 0 0 0
    SHOWINMIX 1 0.6667 0.5 1 0.5 0 0 0
    FIXEDLANES 9 0 0 0 0
    SEL 0
    REC 0 5088 1 0 0 0 0 0
    VU 2
    TRACKHEIGHT 0 0 0 0 0 0 0
    INQ 0 0 0 0.5 100 0 0 100
    NCHAN 2
    FX 1
    TRACKID {B2E77A5B-4695-44AA-B974-9F5B4444F890}
    PERF 0
    MIDIOUT -1
    MAINSEND 1 0
    <FXCHAIN
      WNDRECT 24 52 700 560
      SHOW 0
      LASTSEL 0
      DOCKED 0
      BYPASS 0 0 0
      <JS "ReapNES Studio/ReapNES_Console.jsfx" ""
        2 15 1 10 80 10 100 2 1 15 1 5 60 10 80 1 1 0 50 0 0 15 1 0 100 0 0 0.500000 0.500000 0.400000 0.300000 0.800000 3 1 0 0 0 0 - - - - - - - - - - - - - - - - - - - - - - - - - -
      >
      FLOATPOS 0 0 0 0
      FXID {0F94CEBD-E651-4F15-A16F-67762DF22C44}
      WAK 0 0
    >
    <ITEM
      POSITION 0
      LENGTH 83.98134
      LOOP 0
      ALLTAKES 0
      FADEIN 0 0 0 0 0 0 0
      FADEOUT 0 0 0 0 0 0 0
      MUTE 0 0
      SEL 0
      IGUID {67334533-EDA8-480B-9506-7EF2C025969B}
      <SOURCE MIDI
        HASDATA 1 480 QN
        CCINTERP 32
        X 0 16 ff 03 0d 4e 6f 69 73 65 20 5b 64 72 75 6d 73 5d
        E 48 93 2a 38
        E 86352 83 2a 00
        E 0 ff 2f 00
      >
    >
  >
>