<REAPER_PROJECT 0.1 "7.27/win64" 1707000000
  <NOTES 0 2
    |ReapNES Studio Project
    |MIDI Import - Battletoads_04_Song_4_v1
  >
  RIPPLE 0
  GROUPOVERRIDE 0 0 0
  AUTOXFADE 129
  ENVATTACH 3
  POOLEDENVATTACH 0
  MIXERUIFLAGS 11 48
  ENVFADESZ10 40
  PEAKGAIN 1
  FEEDBACK 0
  PANLAW 1
  PROJOFFS 0 0 0
  MAXPROJLEN 0 0
  GRID 3199 8 1 8 1 0 0 0
  TIMEMODE 1 5 -1 30 0 0 -1
  VIDEO_CONFIG 0 0 65792
  PANMODE 3
  PANLAWFLAGS 3
  CURSOR 0
  ZOOM 100 0 0
  VZOOMEX 6 0
  USE_REC_CFG 0
  RECMODE 1
  SMPTESYNC 0 30 100 40 1000 300 0 0 1 0 0
  LOOP 0
  LOOPGRAN 0 4
  RECORD_PATH "Media" ""
  <RECORD_CFG
    ZXZhdxgAAQ==
  >
  <APPLYFX_CFG
  >
  RENDER_FILE ""
  RENDER_PATTERN ""
  RENDER_FMT 0 2 0
  RENDER_1X 0
  RENDER_RANGE 1 0 0 18 1000
  RENDER_RESAMPLE 3 0 1
  RENDER_ADDTOPROJ 0
  RENDER_STEMS 0
  RENDER_DITHER 0
  TIMELOCKMODE 1
  TEMPOENVLOCKMODE 1
  ITEMMIX 1
  DEFPITCHMODE 589824 0
  TAKELANE 1
  SAMPLERATE 44100 0 0
  <RENDER_CFG
    ZXZhdxgAAQ==
  >
  LOCK 1
  <METRONOME 6 2
    VOL 0.25 0.125
    BEATLEN 4
    FREQ 1760 880 1
    SAMPLES "" ""
    SPLIGNORE 0 0
    SPLDEF 2 660 "" 0
    SPLDEF 3 440 "" 0
    PATTERN 0 169
    PATTERNSTR ABBB
    MULT 1
  >
  GLOBAL_AUTO -1
  TEMPO 128.59999614200012 4 4
  PLAYRATE 1 0 0.25 4
  SELECTION 0 0
  SELECTION2 0 0
  MASTERAUTOMODE 0
  MASTERTRACKHEIGHT 0 0
  MASTERPEAKCOL 16576
  MASTERMUTESOLO 0
  MASTERTRACKVIEW 0 0.6667 0.5 0.5 0 0 0 0 0 0 0 0 0 0
  MASTERHWOUT 0 0 1 0 0 0 0 -1
  MASTER_NCH 2 2
  MASTER_VOLUME 1 0 -1 -1 1
  MASTER_PANMODE 3
  MASTER_PANLAWFLAGS 3
  MASTER_FX 1
  MASTER_SEL 0
  <MASTERPLAYSPEEDENV
    EGUID {4A272DFD-4B10-4D87-94CD-00E0CAF1B6EB}
    ACT 0 -1
    VIS 0 1 1
    LANEHEIGHT 0 0
    ARM 0
    DEFSHAPE 0 -1 -1
  >
  <TEMPOENVEX
    EGUID {000C6673-8AB7-425A-B9EB-591D737023E0}
    ACT 1 -1
    VIS 1 0 1
    LANEHEIGHT 0 0
    ARM 0
    DEFSHAPE 1 -1 -1
  >
  <PROJBAY
  >
  <TRACK {43AC3E05-F689-45F1-856F-3ECAB11A7F0F}
    NAME "NES - Pulse 1 [ch0]"
    PEAKCOL 16576606
    BEAT -1
    AUTOMODE 0
    PANLAWFLAGS 3
    VOLPAN 1 0 -1 -1 1
    MUTESOLO 0 0 0
    IPHASE 0
    PLAYOFFS 0 1
    ISBUS 0 0
    BUSCOMP 0 0 0 0 0
    SHOWINMIX 1 0.6667 0.5 1 0.5 0 0 0
    FIXEDLANES 9 0 0 0 0
    SEL 1
    REC 0 5088 1 0 0 0 0 0
    VU 2
    TRACKHEIGHT 0 0 0 0 0 0 0
    INQ 0 0 0 0.5 100 0 0 100
    NCHAN 2
    FX 1
    TRACKID {43AC3E05-F689-45F1-856F-3ECAB11A7F0F}
    PERF 0
    MIDIOUT -1
    MAINSEND 1 0
    <FXCHAIN
      WNDRECT 24 52 700 560
      SHOW 0
      LASTSEL 0
      DOCKED 0
      BYPASS 0 0 0
      <JS "ReapNES Studio/ReapNES_Console.jsfx" ""
        2 15 1 10 80 10 100 2 1 15 1 5 60 10 80 1 1 0 50 0 0 15 1 0 100 0 0 0.500000 0.500000 0.400000 0.300000 0.800000 0 1 0 0 0 0 - - - - - - - - - - - - - - - - - - - - - - - - - -
      >
      FLOATPOS 0 0 0 0
      FXID {B7790156-700A-4D67-96EF-C25658E2D95A}
      WAK 0 0
    >
    <ITEM
      POSITION 0
      LENGTH 83.98134
      LOOP 0
      ALLTAKES 0
      FADEIN 0 0 0 0 0 0 0
      FADEOUT 0 0 0 0 0 0 0
      MUTE 0 0
      SEL 0
      IGUID {9140023D-953C-49BA-96BF-4F67AB7895D0}
      <SOURCE MIDI
        HASDATA 1 480 QN
        CCINTERP 32
        X 0 18 ff 03 0f 53 71 75 61 72 65 20 31 20 5b 6c 65 61 64 5d
        E 0 c0 50
        E 16 b0 0c 20
        E 0 b0 0b 38
        E 0 90 26 38
        E 128 b0 0b 10
        E 0 80 26 00
        E 0 90 21 10
        E 112 b0 0b 38
        E 0 80 21 00
        E 0 90 26 38
        E 128 b0 0b 10
        E 0 80 26 00
        E 0 90 21 10
        E 112 b0 0b 38
        E 0 80 21 00
        E 0 90 26 38
        E 112 b0 0b 10
        E 0 80 26 00
        E 0 90 21 10
        E 128 b0 0c 40
        E 112 b0 0c 60
        E 128 b0 0c 20
        E 112 b0 0c 10
        E 128 b0 0c 60
        E 112 b0 0c 40
        E 112 b0 0c 20
        E 128 b0 0c 10
        E 112 b0 0c 60
        E 128 b0 0c 40
        E 112 b0 0c 20
        E 0 b0 0b 38
        E 0 80 21 00
        E 0 90 26 38
        E 112 b0 0b 10
        E 0 80 26 00
        E 0 90 21 10
        E 128 b0 0b 38
        E 0 80 21 00
        E 0 90 26 38
        E 112 b0 0b 10
        E 0 80 26 00
        E 0 90 21 10
        E 128 b0 0b 38
        E 0 80 21 00
        E 0 90 26 38
        E 112 b0 0b 10
        E 0 80 26 00
        E 0 90 21 10
        E 128 b0 0c 40
        E 112 b0 0c 60
        E 112 b0 0c 20
        E 128 b0 0c 10
        E 112 b0 0c 60
        E 128 b0 0c 40
        E 112 b0 0c 20
        E 128 b0 0c 10
        E 112 b0 0c 60
        E 112 b0 0c 40
        E 128 b0 0c 20
        E 0 b0 0b 38
        E 0 80 21 00
        E 0 90 25 38
        E 112 b0 0b 10
        E 0 80 25 00
        E 0 90 20 10
        E 128 b0 0b 38
        E 0 80 20 00
        E 0 90 25 38
        E 112 b0 0b 10
        E 0 80 25 00
        E 0 90 20 10
        E 112 b0 0b 38
        E 0 80 20 00
        E 0 90 25 38
        E 128 b0 0b 10
        E 0 80 25 00
        E 0 90 20 10
        E 112 b0 0c 40
        E 128 b0 0c 60
        E 112 b0 0c 20
        E 128 b0 0c 10
        E 112 b0 0c 60
        E 112 b0 0c 40
        E 128 b0 0c 20
        E 112 b0 0c 10
        E 128 b0 0c 60
        E 112 b0 0c 40
        E 128 b0 0c 20
        E 0 b0 0b 38
        E 0 80 20 00
        E 0 90 24 38
        E 112 b0 0b 10
        E 0 80 24 00
        E 0 90 1f 10
        E 112 b0 0b 38
        E 0 80 1f 00
        E 0 90 24 38
        E 128 b0 0b 10
        E 0 80 24 00
        E 0 90 1f 10
        E 112 b0 0b 38
        E 0 80 1f 00
        E 0 90 24 38
        E 128 b0 0b 10
        E 0 80 24 00
        E 0 90 1f 10
        E 112 b0 0c 40
        E 112 b0 0c 60
        E 128 b0 0c 20
        E 112 b0 0c 10
        E 128 b0 0c 60
        E 112 b0 0c 40
        E 128 b0 0c 20
        E 112 b0 0c 10
        E 112 b0 0c 60
        E 128 b0 0c 40
        E 112 b0 0c 20
        E 0 b0 0b 38
        E 0 80 1f 00
        E 0 90 26 38
        E 128 b0 0b 10
        E 0 80 26 00
        E 0 90 21 10
        E 112 b0 0b 38
        E 0 80 21 00
        E 0 90 26 38
        E 128 b0 0b 10
        E 0 80 26 00
        E 0 90 21 10
        E 112 b0 0b 38
        E 0 80 21 00
        E 0 90 26 38
        E 112 b0 0b 10
        E 0 80 26 00
        E 0 90 21 10
        E 128 b0 0c 40
        E 112 b0 0c 60
        E 128 b0 0c 20
        E 112 b0 0c 10
        E 112 b0 0c 60
        E 128 b0 0c 40
        E 112 b0 0c 20
        E 128 b0 0c 10
        E 112 b0 0c 60
        E 128 b0 0c 40
        E 112 b0 0c 20
        E 0 b0 0b 38
        E 0 80 21 00
        E 0 90 26 38
        E 112 b0 0b 10
        E 0 80 26 00
        E 0 90 21 10
        E 128 b0 0b 38
        E 0 80 21 00
        E 0 90 26 38
        E 112 b0 0b 10
        E 0 80 26 00
        E 0 90 21 10
        E 128 b0 0b 38
        E 0 80 21 00
        E 0 90 26 38
        E 112 b0 0b 10
        E 0 80 26 00
        E 0 90 21 10
        E 112 b0 0c 40
        E 128 b0 0c 60
        E 112 b0 0c 20
        E 128 b0 0c 10
        E 112 b0 0c 60
        E 128 b0 0c 40
        E 112 b0 0c 20
        E 112 b0 0c 10
        E 128 b0 0c 60
        E 112 b0 0c 40
        E 128 b0 0c 20
        E 0 b0 0b 38
        E 0 80 21 00
        E 0 90 25 38
        E 112 b0 0b 10
        E 0 80 25 00
        E 0 90 20 10
        E 128 b0 0b 38
        E 0 80 20 00
        E 0 90 25 38
        E 112 b0 0b 10
        E 0 80 25 00
        E 0 90 20 10
        E 112 b0 0b 38
        E 0 80 20 00
        E 0 90 25 38
        E 128 b0 0b 10
        E 0 80 25 00
        E 0 90 20 10
        E 112 b0 0c 40
        E 128 b0 0c 60
        E 112 b0 0c 20
        E 112 b0 0c 10
        E 128 b0 0c 60
        E 112 b0 0c 40
        E 128 b0 0c 20
        E 112 b0 0c 10
        E 128 b0 0c 60
        E 112 b0 0c 40
        E 112 b0 0c 20
        E 0 b0 0b 38
        E 0 80 20 00
        E 0 90 24 38
        E 128 b0 0b 10
        E 0 80 24 00
        E 0 90 1f 10
        E 112 b0 0b 38
        E 0 80 1f 00
        E 0 90 24 38
        E 128 b0 0b 10
        E 0 80 24 00
        E 0 90 1f 10
        E 112 b0 0b 38
        E 0 80 1f 00
        E 0 90 24 38
        E 128 b0 0b 10
        E 0 80 24 00
        E 0 90 1f 10
        E 112 b0 0c 40
        E 112 b0 0c 60
        E 128 b0 0c 20
        E 112 b0 0c 10
        E 128 b0 0c 60
        E 112 b0 0c 40
        E 112 b0 0c 20
        E 128 b0 0c 10
        E 112 b0 0c 60
        E 128 b0 0c 40
        E 112 b0 0c 20
        E 0 b0 0b 38
        E 0 80 1f 00
        E 0 90 26 38
        E 128 b0 0b 10
        E 0 80 26 00
        E 0 90 21 10
        E 112 b0 0b 38
        E 0 80 21 00
        E 0 90 26 38
        E 112 b0 0b 10
        E 0 80 26 00
        E 0 90 21 10
        E 128 b0 0b 38
        E 0 80 21 00
        E 0 90 26 38
        E 112 b0 0b 10
        E 0 80 26 00
        E 0 90 21 10
        E 128 b0 0c 40
        E 112 b0 0c 60
        E 128 b0 0c 20
        E 112 b0 0c 10
        E 112 b0 0c 60
        E 128 b0 0c 40
        E 112 b0 0c 20
        E 128 b0 0c 10
        E 112 b0 0c 60
        E 112 b0 0c 40
        E 128 b0 0c 20
        E 0 b0 0b 38
        E 0 80 21 00
        E 0 90 26 38
        E 112 b0 0b 10
        E 0 80 26 00
        E 0 90 21 10
        E 128 b0 0b 38
        E 0 80 21 00
        E 0 90 26 38
        E 112 b0 0b 10
        E 0 80 26 00
        E 0 90 21 10
        E 128 b0 0b 38
        E 0 80 21 00
        E 0 90 26 38
        E 112 b0 0b 10
        E 0 80 26 00
        E 0 90 21 10
        E 112 b0 0c 40
        E 128 b0 0c 60
        E 112 b0 0c 20
        E 128 b0 0c 10
        E 112 b0 0c 60
        E 112 b0 0c 40
        E 128 b0 0c 20
        E 112 b0 0c 10
        E 128 b0 0c 60
        E 112 b0 0c 40
        E 128 b0 0c 20
        E 0 b0 0b 38
        E 0 80 21 00
        E 0 90 25 38
        E 112 b0 0b 10
        E 0 80 25 00
        E 0 90 20 10
        E 112 b0 0b 38
        E 0 80 20 00
        E 0 90 25 38
        E 128 b0 0b 10
        E 0 80 25 00
        E 0 90 20 10
        E 112 b0 0b 38
        E 0 80 20 00
        E 0 90 25 38
        E 128 b0 0b 10
        E 0 80 25 00
        E 0 90 20 10
        E 112 b0 0c 40
        E 128 b0 0c 60
        E 112 b0 0c 20
        E 112 b0 0c 10
        E 128 b0 0c 60
        E 112 b0 0c 40
        E 128 b0 0c 20
        E 112 b0 0c 10
        E 112 b0 0c 60
        E 128 b0 0c 40
        E 112 b0 0c 20
        E 0 b0 0b 38
        E 0 80 20 00
        E 0 90 24 38
        E 128 b0 0b 10
        E 0 80 24 00
        E 0 90 1f 10
        E 112 b0 0b 38
        E 0 80 1f 00
        E 0 90 24 38
        E 128 b0 0b 10
        E 0 80 24 00
        E 0 90 1f 10
        E 112 b0 0b 38
        E 0 80 1f 00
        E 0 90 24 38
        E 112 b0 0b 10
        E 0 80 24 00
        E 0 90 1f 10
        E 128 b0 0c 40
        E 112 b0 0c 60
        E 128 b0 0c 20
        E 112 b0 0c 10
        E 128 b0 0c 60
        E 112 b0 0c 40
        E 112 b0 0c 20
        E 128 b0 0c 10
        E 112 b0 0c 60
        E 128 b0 0c 40
        E 112 b0 0c 20
        E 0 b0 0b 38
        E 0 80 1f 00
        E 0 90 26 38
        E 112 b0 0b 10
        E 0 80 26 00
        E 0 90 21 10
        E 128 b0 0b 38
        E 0 80 21 00
        E 0 90 26 38
        E 112 b0 0b 10
        E 0 80 26 00
        E 0 90 21 10
        E 128 b0 0b 38
        E 0 80 21 00
        E 0 90 26 38
        E 112 b0 0b 10
        E 0 80 26 00
        E 0 90 21 10
        E 128 b0 0c 40
        E 112 b0 0c 60
        E 112 b0 0c 20
        E 128 b0 0c 10
        E 112 b0 0c 60
        E 128 b0 0c 40
        E 112 b0 0c 20
        E 128 b0 0c 10
        E 112 b0 0c 60
        E 112 b0 0c 40
        E 128 b0 0c 20
        E 0 b0 0b 38
        E 0 80 21 00
        E 0 90 26 38
        E 112 b0 0b 10
        E 0 80 26 00
        E 0 90 21 10
        E 128 b0 0b 38
        E 0 80 21 00
        E 0 90 26 38
        E 112 b0 0b 10
        E 0 80 26 00
        E 0 90 21 10
        E 112 b0 0b 38
        E 0 80 21 00
        E 0 90 26 38
        E 128 b0 0b 10
        E 0 80 26 00
        E 0 90 21 10
        E 112 b0 0c 40
        E 128 b0 0c 60
        E 112 b0 0c 20
        E 128 b0 0c 10
        E 112 b0 0c 60
        E 112 b0 0c 40
        E 128 b0 0c 20
        E 112 b0 0c 10
        E 128 b0 0c 60
        E 112 b0 0c 40
        E 112 b0 0c 20
        E 0 b0 0b 38
        E 0 80 21 00
        E 0 90 25 38
        E 128 b0 0b 10
        E 0 80 25 00
        E 0 90 20 10
        E 112 b0 0b 38
        E 0 80 20 00
        E 0 90 25 38
        E 128 b0 0b 10
        E 0 80 25 00
        E 0 90 20 10
        E 112 b0 0b 38
        E 0 80 20 00
        E 0 90 25 38
        E 128 b0 0b 10
        E 0 80 25 00
        E 0 90 20 10
        E 112 b0 0c 40
        E 112 b0 0c 60
        E 128 b0 0c 20
        E 112 b0 0c 10
        E 128 b0 0c 60
        E 112 b0 0c 40
        E 128 b0 0c 20
        E 112 b0 0c 10
        E 112 b0 0c 60
        E 128 b0 0c 40
        E 112 b0 0c 20
        E 0 b0 0b 38
        E 0 80 20 00
        E 0 90 24 38
        E 128 b0 0b 10
        E 0 80 24 00
        E 0 90 1f 10
        E 112 b0 0b 38
        E 0 80 1f 00
        E 0 90 24 38
        E 112 b0 0b 10
        E 0 80 24 00
        E 0 90 1f 10
        E 128 b0 0b 38
        E 0 80 1f 00
        E 0 90 24 38
        E 112 b0 0b 10
        E 0 80 24 00
        E 0 90 1f 10
        E 128 b0 0c 40
        E 112 b0 0c 60
        E 128 b0 0c 20
        E 112 b0 0c 10
        E 112 b0 0c 60
        E 128 b0 0c 40
        E 112 b0 0c 20
        E 128 b0 0c 10
        E 112 b0 0c 60
        E 128 b0 0c 40
        E 112 b0 0c 20
        E 0 b0 0b 38
        E 0 80 1f 00
        E 0 90 26 38
        E 112 b0 0b 10
        E 0 80 26 00
        E 0 90 21 10
        E 128 b0 0b 38
        E 0 80 21 00
        E 0 90 26 38
        E 112 b0 0b 10
        E 0 80 26 00
        E 0 90 21 10
        E 128 b0 0b 38
        E 0 80 21 00
        E 0 90 26 38
        E 112 b0 0b 10
        E 0 80 26 00
        E 0 90 21 10
        E 112 b0 0c 40
        E 128 b0 0c 60
        E 112 b0 0c 20
        E 128 b0 0c 10
        E 112 b0 0c 60
        E 128 b0 0c 40
        E 112 b0 0c 20
        E 112 b0 0c 10
        E 128 b0 0c 60
        E 112 b0 0c 40
        E 128 b0 0c 20
        E 0 b0 0b 38
        E 0 80 21 00
        E 0 90 26 38
        E 112 b0 0b 10
        E 0 80 26 00
        E 0 90 21 10
        E 128 b0 0b 38
        E 0 80 21 00
        E 0 90 26 38
        E 112 b0 0b 10
        E 0 80 26 00
        E 0 90 21 10
        E 112 b0 0b 38
        E 0 80 21 00
        E 0 90 26 38
        E 128 b0 0b 10
        E 0 80 26 00
        E 0 90 21 10
        E 112 b0 0c 40
        E 128 b0 0c 60
        E 112 b0 0c 20
        E 112 b0 0c 10
        E 128 b0 0c 60
        E 112 b0 0c 40
        E 128 b0 0c 20
        E 112 b0 0c 10
        E 128 b0 0c 60
        E 112 b0 0c 40
        E 112 b0 0c 20
        E 0 b0 0b 38
        E 0 80 21 00
        E 0 90 25 38
        E 128 b0 0b 10
        E 0 80 25 00
        E 0 90 20 10
        E 112 b0 0b 38
        E 0 80 20 00
        E 0 90 25 38
        E 128 b0 0b 10
        E 0 80 25 00
        E 0 90 20 10
        E 112 b0 0b 38
        E 0 80 20 00
        E 0 90 25 38
        E 112 b0 0b 10
        E 0 80 25 00
        E 0 90 20 10
        E 128 b0 0c 40
        E 112 b0 0c 60
        E 128 b0 0c 20
        E 112 b0 0c 10
        E 128 b0 0c 60
        E 112 b0 0c 40
        E 112 b0 0c 20
        E 128 b0 0c 10
        E 112 b0 0c 60
        E 128 b0 0c 40
        E 112 b0 0c 20
        E 0 b0 0b 38
        E 0 80 20 00
        E 0 90 24 38
        E 128 b0 0b 10
        E 0 80 24 00
        E 0 90 1f 10
        E 112 b0 0b 38
        E 0 80 1f 00
        E 0 90 24 38
        E 112 b0 0b 10
        E 0 80 24 00
        E 0 90 1f 10
        E 128 b0 0b 38
        E 0 80 1f 00
        E 0 90 24 38
        E 112 b0 0b 10
        E 0 80 24 00
        E 0 90 1f 10
        E 128 b0 0c 40
        E 112 b0 0c 60
        E 112 b0 0c 20
        E 128 b0 0c 10
        E 112 b0 0c 60
        E 128 b0 0c 40
        E 112 b0 0c 20
        E 128 b0 0c 10
        E 112 b0 0c 60
        E 112 b0 0c 40
        E 128 b0 0c 20
        E 0 b0 0b 38
        E 0 80 1f 00
        E 0 90 26 38
        E 112 b0 0b 10
        E 0 80 26 00
        E 0 90 21 10
        E 128 b0 0b 38
        E 0 80 21 00
        E 0 90 26 38
        E 112 b0 0b 10
        E 0 80 26 00
        E 0 90 21 10
        E 128 b0 0b 38
        E 0 80 21 00
        E 0 90 26 38
        E 112 b0 0b 10
        E 0 80 26 00
        E 0 90 21 10
        E 112 b0 0c 40
        E 128 b0 0c 60
        E 112 b0 0c 20
        E 128 b0 0c 10
        E 112 b0 0c 60
        E 112 b0 0c 40
        E 128 b0 0c 20
        E 112 b0 0c 10
        E 128 b0 0c 60
        E 112 b0 0c 40
        E 128 b0 0c 20
        E 0 b0 0b 38
        E 0 80 21 00
        E 0 90 26 38
        E 112 b0 0b 10
        E 0 80 26 00
        E 0 90 21 10
        E 112 b0 0b 38
        E 0 80 21 00
        E 0 90 26 38
        E 128 b0 0b 10
        E 0 80 26 00
        E 0 90 21 10
        E 112 b0 0b 38
        E 0 80 21 00
        E 0 90 26 38
        E 128 b0 0b 10
        E 0 80 26 00
        E 0 90 21 10
        E 112 b0 0c 40
        E 128 b0 0c 60
        E 112 b0 0c 20
        E 112 b0 0c 10
        E 128 b0 0c 60
        E 112 b0 0c 40
        E 128 b0 0c 20
        E 112 b0 0c 10
        E 112 b0 0c 60
        E 128 b0 0c 40
        E 112 b0 0c 20
        E 0 b0 0b 38
        E 0 80 21 00
        E 0 90 25 38
        E 128 b0 0b 10
        E 0 80 25 00
        E 0 90 20 10
        E 112 b0 0b 38
        E 0 80 20 00
        E 0 90 25 38
        E 128 b0 0b 10
        E 0 80 25 00
        E 0 90 20 10
        E 112 b0 0b 38
        E 0 80 20 00
        E 0 90 25 38
        E 112 b0 0b 10
        E 0 80 25 00
        E 0 90 20 10
        E 128 b0 0c 40
        E 112 b0 0c 60
        E 128 b0 0c 20
        E 112 b0 0c 10
        E 112 b0 0c 60
        E 128 b0 0c 40
        E 112 b0 0c 20
        E 128 b0 0c 10
        E 112 b0 0c 60
        E 128 b0 0c 40
        E 112 b0 0c 20
        E 0 b0 0b 38
        E 0 80 20 00
        E 0 90 24 38
        E 112 b0 0b 10
        E 0 80 24 00
        E 0 90 1f 10
        E 128 b0 0b 38
        E 0 80 1f 00
        E 0 90 24 38
        E 112 b0 0b 10
        E 0 80 24 00
        E 0 90 1f 10
        E 128 b0 0b 38
        E 0 80 1f 00
        E 0 90 24 38
        E 112 b0 0b 10
        E 0 80 24 00
        E 0 90 1f 10
        E 128 b0 0c 40
        E 112 b0 0c 60
        E 112 b0 0c 20
        E 128 b0 0c 10
        E 112 b0 0c 60
        E 128 b0 0c 40
        E 112 b0 0c 20
        E 112 b0 0c 10
        E 128 b0 0c 60
        E 112 b0 0c 40
        E 128 b0 0c 20
        E 0 b0 0b 38
        E 0 80 1f 00
        E 0 90 26 38
        E 112 b0 0b 10
        E 0 80 26 00
        E 0 90 21 10
        E 128 b0 0b 38
        E 0 80 21 00
        E 0 90 26 38
        E 112 b0 0b 10
        E 0 80 26 00
        E 0 90 21 10
        E 112 b0 0b 38
        E 0 80 21 00
        E 0 90 26 38
        E 128 b0 0b 10
        E 0 80 26 00
        E 0 90 21 10
        E 112 b0 0c 40
        E 128 b0 0c 60
        E 112 b0 0c 20
        E 128 b0 0c 10
        E 112 b0 0c 60
        E 112 b0 0c 40
        E 128 b0 0c 20
        E 112 b0 0c 10
        E 128 b0 0c 60
        E 112 b0 0c 40
        E 112 b0 0c 20
        E 0 b0 0b 38
        E 0 80 21 00
        E 0 90 26 38
        E 128 b0 0b 10
        E 0 80 26 00
        E 0 90 21 10
        E 112 b0 0b 38
        E 0 80 21 00
        E 0 90 26 38
        E 128 b0 0b 10
        E 0 80 26 00
        E 0 90 21 10
        E 112 b0 0b 38
        E 0 80 21 00
        E 0 90 26 38
        E 128 b0 0b 10
        E 0 80 26 00
        E 0 90 21 10
        E 112 b0 0c 40
        E 112 b0 0c 60
        E 128 b0 0c 20
        E 112 b0 0c 10
        E 128 b0 0c 60
        E 112 b0 0c 40
        E 128 b0 0c 20
        E 112 b0 0c 10
        E 112 b0 0c 60
        E 128 b0 0c 40
        E 112 b0 0c 20
        E 0 b0 0b 38
        E 0 80 21 00
        E 0 90 25 38
        E 128 b0 0b 10
        E 0 80 25 00
        E 0 90 20 10
        E 112 b0 0b 38
        E 0 80 20 00
        E 0 90 25 38
        E 112 b0 0b 10
        E 0 80 25 00
        E 0 90 20 10
        E 128 b0 0b 38
        E 0 80 20 00
        E 0 90 25 38
        E 112 b0 0b 10
        E 0 80 25 00
        E 0 90 20 10
        E 128 b0 0c 40
        E 112 b0 0c 60
        E 128 b0 0c 20
        E 112 b0 0c 10
        E 112 b0 0c 60
        E 128 b0 0c 40
        E 112 b0 0c 20
        E 128 b0 0c 10
        E 112 b0 0c 60
        E 112 b0 0c 40
        E 128 b0 0c 20
        E 0 b0 0b 38
        E 0 80 20 00
        E 0 90 24 38
        E 112 b0 0b 10
        E 0 80 24 00
        E 0 90 1f 10
        E 128 b0 0b 38
        E 0 80 1f 00
        E 0 90 24 38
        E 112 b0 0b 10
        E 0 80 24 00
        E 0 90 1f 10
        E 128 b0 0b 38
        E 0 80 1f 00
        E 0 90 24 38
        E 112 b0 0b 10
        E 0 80 24 00
        E 0 90 1f 10
        E 112 b0 0c 40
        E 128 b0 0c 60
        E 112 b0 0c 20
        E 128 b0 0c 10
        E 112 b0 0c 60
        E 128 b0 0c 40
        E 112 b0 0c 20
        E 112 b0 0c 10
        E 128 b0 0c 60
        E 112 b0 0c 40
        E 128 b0 0c 20
        E 0 b0 0b 38
        E 0 80 1f 00
        E 0 90 26 38
        E 112 b0 0b 10
        E 0 80 26 00
        E 0 90 21 10
        E 112 b0 0b 38
        E 0 80 21 00
        E 0 90 26 38
        E 128 b0 0b 10
        E 0 80 26 00
        E 0 90 21 10
        E 112 b0 0b 38
        E 0 80 21 00
        E 0 90 26 38
        E 128 b0 0b 10
        E 0 80 26 00
        E 0 90 21 10
        E 112 b0 0c 40
        E 128 b0 0c 60
        E 112 b0 0c 20
        E 112 b0 0c 10
        E 128 b0 0c 60
        E 112 b0 0c 40
        E 128 b0 0c 20
        E 112 b0 0c 10
        E 128 b0 0c 60
        E 112 b0 0c 40
        E 112 b0 0c 20
        E 0 b0 0b 38
        E 0 80 21 00
        E 0 90 26 38
        E 128 b0 0b 10
        E 0 80 26 00
        E 0 90 21 10
        E 112 b0 0b 38
        E 0 80 21 00
        E 0 90 26 38
        E 128 b0 0b 10
        E 0 80 26 00
        E 0 90 21 10
        E 112 b0 0b 38
        E 0 80 21 00
        E 0 90 26 38
        E 112 b0 0b 10
        E 0 80 26 00
        E 0 90 21 10
        E 128 b0 0c 40
        E 112 b0 0c 60
        E 128 b0 0c 20
        E 112 b0 0c 10
        E 128 b0 0c 60
        E 112 b0 0c 40
        E 112 b0 0c 20
        E 128 b0 0c 10
        E 112 b0 0c 60
        E 128 b0 0c 40
        E 112 b0 0c 20
        E 0 b0 0b 38
        E 0 80 21 00
        E 0 90 25 38
        E 128 b0 0b 10
        E 0 80 25 00
        E 0 90 20 10
        E 112 b0 0b 38
        E 0 80 20 00
        E 0 90 25 38
        E 112 b0 0b 10
        E 0 80 25 00
        E 0 90 20 10
        E 128 b0 0b 38
        E 0 80 20 00
        E 0 90 25 38
        E 112 b0 0b 10
        E 0 80 25 00
        E 0 90 20 10
        E 128 b0 0c 40
        E 112 b0 0c 60
        E 112 b0 0c 20
        E 128 b0 0c 10
        E 112 b0 0c 60
        E 128 b0 0c 40
        E 112 b0 0c 20
        E 128 b0 0c 10
        E 112 b0 0c 60
        E 112 b0 0c 40
        E 128 b0 0c 20
        E 0 b0 0b 38
        E 0 80 20 00
        E 0 90 24 38
        E 112 b0 0b 10
        E 0 80 24 00
        E 0 90 1f 10
        E 128 b0 0b 38
        E 0 80 1f 00
        E 0 90 24 38
        E 112 b0 0b 10
        E 0 80 24 00
        E 0 90 1f 10
        E 112 b0 0b 38
        E 0 80 1f 00
        E 0 90 24 38
        E 128 b0 0b 10
        E 0 80 24 00
        E 0 90 1f 10
        E 112 b0 0c 40
        E 128 b0 0c 60
        E 112 b0 0c 20
        E 128 b0 0c 10
        E 112 b0 0c 60
        E 112 b0 0c 40
        E 128 b0 0c 20
        E 112 b0 0c 10
        E 128 b0 0c 60
        E 112 b0 0c 40
        E 128 b0 0c 20
        E 0 b0 0b 38
        E 0 80 1f 00
        E 0 90 26 38
        E 112 b0 0b 10
        E 0 80 26 00
        E 0 90 21 10
        E 112 b0 0b 38
        E 0 80 21 00
        E 0 90 26 38
        E 128 b0 0b 10
        E 0 80 26 00
        E 0 90 21 10
        E 112 b0 0b 38
        E 0 80 21 00
        E 0 90 26 38
        E 128 b0 0b 10
        E 0 80 26 00
        E 0 90 21 10
        E 112 b0 0c 40
        E 112 b0 0c 60
        E 128 b0 0c 20
        E 112 b0 0c 10
        E 128 b0 0c 60
        E 112 b0 0c 40
        E 128 b0 0c 20
        E 112 b0 0c 10
        E 112 b0 0c 60
        E 128 b0 0c 40
        E 112 b0 0c 20
        E 0 b0 0b 38
        E 0 80 21 00
        E 0 90 26 38
        E 128 b0 0b 10
        E 0 80 26 00
        E 0 90 21 10
        E 112 b0 0b 38
        E 0 80 21 00
        E 0 90 26 38
        E 128 b0 0b 10
        E 0 80 26 00
        E 0 90 21 10
        E 112 b0 0b 38
        E 0 80 21 00
        E 0 90 26 38
        E 112 b0 0b 10
        E 0 80 26 00
        E 0 90 21 10
        E 128 b0 0c 40
        E 112 b0 0c 60
        E 128 b0 0c 20
        E 112 b0 0c 10
        E 112 b0 0c 60
        E 128 b0 0c 40
        E 112 b0 0c 20
        E 128 b0 0c 10
        E 112 b0 0c 60
        E 128 b0 0c 40
        E 112 b0 0c 20
        E 0 b0 0b 38
        E 0 80 21 00
        E 0 90 25 38
        E 112 b0 0b 10
        E 0 80 25 00
        E 0 90 20 10
        E 128 b0 0b 38
        E 0 80 20 00
        E 0 90 25 38
        E 112 b0 0b 10
        E 0 80 25 00
        E 0 90 20 10
        E 128 b0 0b 38
        E 0 80 20 00
        E 0 90 25 38
        E 112 b0 0b 10
        E 0 80 25 00
        E 0 90 20 10
        E 128 b0 0c 40
        E 112 b0 0c 60
        E 112 b0 0c 20
        E 128 b0 0c 10
        E 112 b0 0c 60
        E 128 b0 0c 40
        E 112 b0 0c 20
        E 112 b0 0c 10
        E 128 b0 0c 60
        E 112 b0 0c 40
        E 128 b0 0c 20
        E 0 b0 0b 38
        E 0 80 20 00
        E 0 90 24 38
        E 112 b0 0b 10
        E 0 80 24 00
        E 0 90 1f 10
        E 128 b0 0b 38
        E 0 80 1f 00
        E 0 90 24 38
        E 112 b0 0b 10
        E 0 80 24 00
        E 0 90 1f 10
        E 112 b0 0b 38
        E 0 80 1f 00
        E 0 90 24 38
        E 128 b0 0b 10
        E 0 80 24 00
        E 0 90 1f 10
        E 112 b0 0c 40
        E 128 b0 0c 60
        E 112 b0 0c 20
        E 112 b0 0c 10
        E 128 b0 0c 60
        E 112 b0 0c 40
        E 128 b0 0c 20
        E 112 b0 0c 10
        E 128 b0 0c 60
        E 112 b0 0c 40
        E 112 b0 0c 20
        E 0 b0 0b 38
        E 0 80 1f 00
        E 0 90 26 38
        E 128 b0 0b 10
        E 0 80 26 00
        E 0 90 21 10
        E 112 b0 0b 38
        E 0 80 21 00
        E 0 90 26 38
        E 128 b0 0b 10
        E 0 80 26 00
        E 0 90 21 10
        E 112 b0 0b 38
        E 0 80 21 00
        E 0 90 26 38
        E 128 b0 0b 10
        E 0 80 26 00
        E 0 90 21 10
        E 112 b0 0c 40
        E 112 b0 0c 60
        E 128 b0 0c 20
        E 112 b0 0c 10
        E 128 b0 0c 60
        E 112 b0 0c 40
        E 112 b0 0c 20
        E 128 b0 0c 10
        E 112 b0 0c 60
        E 128 b0 0c 40
        E 112 b0 0c 20
        E 0 b0 0b 38
        E 0 80 21 00
        E 0 90 26 38
        E 128 b0 0b 10
        E 0 80 26 00
        E 0 90 21 10
        E 112 b0 0b 38
        E 0 80 21 00
        E 0 90 26 38
        E 112 b0 0b 10
        E 0 80 26 00
        E 0 90 21 10
        E 128 b0 0b 38
        E 0 80 21 00
        E 0 90 26 38
        E 112 b0 0b 10
        E 0 80 26 00
        E 0 90 21 10
        E 128 b0 0c 40
        E 112 b0 0c 60
        E 128 b0 0c 20
        E 112 b0 0c 10
        E 112 b0 0c 60
        E 128 b0 0c 40
        E 112 b0 0c 20
        E 128 b0 0c 10
        E 112 b0 0c 60
        E 112 b0 0c 40
        E 128 b0 0c 20
        E 0 b0 0b 38
        E 0 80 21 00
        E 0 90 25 38
        E 112 b0 0b 10
        E 0 80 25 00
        E 0 90 20 10
        E 128 b0 0b 38
        E 0 80 20 00
        E 0 90 25 38
        E 112 b0 0b 10
        E 0 80 25 00
        E 0 90 20 10
        E 128 b0 0b 38
        E 0 80 20 00
        E 0 90 25 38
        E 112 b0 0b 10
        E 0 80 25 00
        E 0 90 20 10
        E 112 b0 0c 40
        E 128 b0 0c 60
        E 112 b0 0c 20
        E 128 b0 0c 10
        E 112 b0 0c 60
        E 128 b0 0c 40
        E 112 b0 0c 20
        E 112 b0 0c 10
        E 128 b0 0c 60
        E 112 b0 0c 40
        E 128 b0 0c 20
        E 0 b0 0b 38
        E 0 80 20 00
        E 0 90 24 38
        E 112 b0 0b 10
        E 0 80 24 00
        E 0 90 1f 10
        E 112 b0 0b 38
        E 0 80 1f 00
        E 0 90 24 38
        E 128 b0 0b 10
        E 0 80 24 00
        E 0 90 1f 10
        E 112 b0 0b 38
        E 0 80 1f 00
        E 0 90 24 38
        E 128 b0 0b 10
        E 0 80 24 00
        E 0 90 1f 10
        E 112 b0 0c 40
        E 128 b0 0c 60
        E 112 b0 0c 20
        E 112 b0 0c 10
        E 128 b0 0c 60
        E 112 b0 0c 40
        E 128 b0 0c 20
        E 112 b0 0c 10
        E 112 b0 0c 60
        E 128 b0 0c 40
        E 112 b0 0c 20
        E 0 b0 0b 38
        E 0 80 1f 00
        E 0 90 26 38
        E 128 b0 0b 10
        E 0 80 26 00
        E 0 90 21 10
        E 112 b0 0b 38
        E 0 80 21 00
        E 0 90 26 38
        E 128 b0 0b 10
        E 0 80 26 00
        E 0 90 21 10
        E 112 b0 0b 38
        E 0 80 21 00
        E 0 90 26 38
        E 112 b0 0b 10
        E 0 80 26 00
        E 0 90 21 10
        E 128 b0 0c 40
        E 112 b0 0c 60
        E 128 b0 0c 20
        E 112 b0 0c 10
        E 128 b0 0c 60
        E 112 b0 0c 40
        E 112 b0 0c 20
        E 128 b0 0c 10
        E 112 b0 0c 60
        E 128 b0 0c 40
        E 112 b0 0c 20
        E 0 b0 0b 38
        E 0 80 21 00
        E 0 90 26 38
        E 112 b0 0b 10
        E 0 80 26 00
        E 0 90 21 10
        E 128 b0 0b 38
        E 0 80 21 00
        E 0 90 26 38
        E 112 b0 0b 10
        E 0 80 26 00
        E 0 90 21 10
        E 128 b0 0b 38
        E 0 80 21 00
        E 0 90 26 38
        E 112 b0 0b 10
        E 0 80 26 00
        E 0 90 21 10
        E 128 b0 0c 40
        E 112 b0 0c 60
        E 112 b0 0c 20
        E 128 b0 0c 10
        E 112 b0 0c 60
        E 128 b0 0c 40
        E 112 b0 0c 20
        E 128 b0 0c 10
        E 112 b0 0c 60
        E 112 b0 0c 40
        E 128 b0 0c 20
        E 0 b0 0b 38
        E 0 80 21 00
        E 0 90 25 38
        E 112 b0 0b 10
        E 0 80 25 00
        E 0 90 20 10
        E 128 b0 0b 38
        E 0 80 20 00
        E 0 90 25 38
        E 112 b0 0b 10
        E 0 80 25 00
        E 0 90 20 10
        E 112 b0 0b 38
        E 0 80 20 00
        E 0 90 25 38
        E 128 b0 0b 10
        E 0 80 25 00
        E 0 90 20 10
        E 112 b0 0c 40
        E 128 b0 0c 60
        E 112 b0 0c 20
        E 128 b0 0c 10
        E 112 b0 0c 60
        E 112 b0 0c 40
        E 128 b0 0c 20
        E 112 b0 0c 10
        E 128 b0 0c 60
        E 112 b0 0c 40
        E 128 b0 0c 20
        E 0 b0 0b 38
        E 0 80 20 00
        E 0 90 24 38
        E 112 b0 0b 10
        E 0 80 24 00
        E 0 90 1f 10
        E 112 b0 0b 38
        E 0 80 1f 00
        E 0 90 24 38
        E 128 b0 0b 10
        E 0 80 24 00
        E 0 90 1f 10
        E 112 b0 0b 38
        E 0 80 1f 00
        E 0 90 24 38
        E 128 b0 0b 10
        E 0 80 24 00
        E 0 90 1f 10
        E 112 b0 0c 40
        E 112 b0 0c 60
        E 128 b0 0c 20
        E 112 b0 0c 10
        E 128 b0 0c 60
        E 112 b0 0c 40
        E 128 b0 0c 20
        E 112 b0 0c 10
        E 112 b0 0c 60
        E 128 b0 0c 40
        E 112 b0 0c 20
        E 0 b0 0b 38
        E 0 80 1f 00
        E 0 90 26 38
        E 128 b0 0b 10
        E 0 80 26 00
        E 0 90 21 10
        E 112 b0 0b 38
        E 0 80 21 00
        E 0 90 26 38
        E 112 b0 0b 10
        E 0 80 26 00
        E 0 90 21 10
        E 128 b0 0b 38
        E 0 80 21 00
        E 0 90 26 38
        E 112 b0 0b 10
        E 0 80 26 00
        E 0 90 21 10
        E 128 b0 0c 40
        E 112 b0 0c 60
        E 128 b0 0c 20
        E 112 b0 0c 10
        E 112 b0 0c 60
        E 128 b0 0c 40
        E 112 b0 0c 20
        E 128 b0 0c 10
        E 112 b0 0c 60
        E 128 b0 0c 40
        E 112 b0 0c 20
        E 0 b0 0b 38
        E 0 80 21 00
        E 0 90 26 38
        E 112 b0 0b 10
        E 0 80 26 00
        E 0 90 21 10
        E 128 b0 0b 38
        E 0 80 21 00
        E 0 90 26 38
        E 112 b0 0b 10
        E 0 80 26 00
        E 0 90 21 10
        E 128 b0 0b 38
        E 0 80 21 00
        E 0 90 26 38
        E 112 b0 0b 10
        E 0 80 26 00
        E 0 90 21 10
        E 112 b0 0c 40
        E 128 b0 0c 60
        E 64 80 21 00
        E 0 ff 2f 00
      >
    >
  >
  <TRACK {160BC718-2A01-462E-B3B4-A9D42EA84FF8}
    NAME "NES - Pulse 2 [ch1]"
    PEAKCOL 10092441
    BEAT -1
    AUTOMODE 0
    PANLAWFLAGS 3
    VOLPAN 1 0 -1 -1 1
    MUTESOLO 0 0 0
    IPHASE 0
    PLAYOFFS 0 1
    ISBUS 0 0
    BUSCOMP 0 0 0 0 0
    SHOWINMIX 1 0.6667 0.5 1 0.5 0 0 0
    FIXEDLANES 9 0 0 0 0
    SEL 0
    REC 0 5088 1 0 0 0 0 0
    VU 2
    TRACKHEIGHT 0 0 0 0 0 0 0
    INQ 0 0 0 0.5 100 0 0 100
    NCHAN 2
    FX 1
    TRACKID {160BC718-2A01-462E-B3B4-A9D42EA84FF8}
    PERF 0
    MIDIOUT -1
    MAINSEND 1 0
    <FXCHAIN
      WNDRECT 24 52 700 560
      SHOW 0
      LASTSEL 0
      DOCKED 0
      BYPASS 0 0 0
      <JS "ReapNES Studio/ReapNES_Console.jsfx" ""
        2 15 1 10 80 10 100 2 1 15 1 5 60 10 80 1 1 0 50 0 0 15 1 0 100 0 0 0.500000 0.500000 0.400000 0.300000 0.800000 1 1 0 0 0 0 - - - - - - - - - - - - - - - - - - - - - - - - - -
      >
      FLOATPOS 0 0 0 0
      FXID {EFBCC54E-88F5-44D8-BC88-520B80ED0FAE}
      WAK 0 0
    >
    <ITEM
      POSITION 0
      LENGTH 83.98134
      LOOP 0
      ALLTAKES 0
      FADEIN 0 0 0 0 0 0 0
      FADEOUT 0 0 0 0 0 0 0
      MUTE 0 0
      SEL 0
      IGUID {0F6D9544-9CD9-4EFC-B0F0-4501C69651EC}
      <SOURCE MIDI
        HASDATA 1 480 QN
        CCINTERP 32
        X 0 21 ff 03 12 53 71 75 61 72 65 20 32 20 5b 68 61 72 6d 6f 6e 79 5d
        E 0 c1 51
        E 16 b1 0c 20
        E 0 b1 0b 38
        E 0 91 21 38
        E 128 b1 0b 10
        E 0 81 21 00
        E 0 91 1a 10
        E 112 b1 0b 38
        E 0 81 1a 00
        E 0 91 21 38
        E 128 b1 0b 10
        E 0 81 21 00
        E 0 91 1a 10
        E 112 b1 0b 38
        E 0 81 1a 00
        E 0 91 21 38
        E 112 b1 0b 10
        E 0 81 21 00
        E 0 91 1a 10
        E 128 b1 0c 40
        E 112 b1 0c 60
        E 128 b1 0c 20
        E 112 b1 0c 10
        E 128 b1 0c 60
        E 112 b1 0c 40
        E 112 b1 0c 20
        E 128 b1 0c 10
        E 112 b1 0c 60
        E 128 b1 0c 40
        E 112 b1 0c 20
        E 0 b1 0b 38
        E 0 81 1a 00
        E 0 91 21 38
        E 112 b1 0b 10
        E 0 81 21 00
        E 0 91 1a 10
        E 128 b1 0b 38
        E 0 81 1a 00
        E 0 91 21 38
        E 112 b1 0b 10
        E 0 81 21 00
        E 0 91 1a 10
        E 128 b1 0b 38
        E 0 81 1a 00
        E 0 91 21 38
        E 112 b1 0b 10
        E 0 81 21 00
        E 0 91 1a 10
        E 128 b1 0c 40
        E 112 b1 0c 60
        E 112 b1 0c 20
        E 128 b1 0c 10
        E 112 b1 0c 60
        E 128 b1 0c 40
        E 112 b1 0c 20
        E 128 b1 0c 10
        E 112 b1 0c 60
        E 112 b1 0c 40
        E 128 b1 0c 20
        E 0 b1 0b 38
        E 0 81 1a 00
        E 0 91 20 38
        E 112 b1 0b 10
        E 0 81 20 00
        E 0 91 19 10
        E 128 b1 0b 38
        E 0 81 19 00
        E 0 91 20 38
        E 112 b1 0b 10
        E 0 81 20 00
        E 0 91 19 10
        E 112 b1 0b 38
        E 0 81 19 00
        E 0 91 20 38
        E 128 b1 0b 10
        E 0 81 20 00
        E 0 91 19 10
        E 112 b1 0c 40
        E 128 b1 0c 60
        E 112 b1 0c 20
        E 128 b1 0c 10
        E 112 b1 0c 60
        E 112 b1 0c 40
        E 128 b1 0c 20
        E 112 b1 0c 10
        E 128 b1 0c 60
        E 112 b1 0c 40
        E 128 b1 0c 20
        E 0 b1 0b 38
        E 0 81 19 00
        E 0 91 1f 38
        E 112 b1 0b 10
        E 0 81 1f 00
        E 0 91 18 10
        E 112 b1 0b 38
        E 0 81 18 00
        E 0 91 1f 38
        E 128 b1 0b 10
        E 0 81 1f 00
        E 0 91 18 10
        E 112 b1 0b 38
        E 0 81 18 00
        E 0 91 1f 38
        E 128 b1 0b 10
        E 0 81 1f 00
        E 0 91 18 10
        E 112 b1 0c 40
        E 112 b1 0c 60
        E 128 b1 0c 20
        E 112 b1 0c 10
        E 128 b1 0c 60
        E 112 b1 0c 40
        E 128 b1 0c 20
        E 112 b1 0c 10
        E 112 b1 0c 60
        E 128 b1 0c 40
        E 112 b1 0c 20
        E 0 b1 0b 38
        E 0 81 18 00
        E 0 91 21 38
        E 128 b1 0b 10
        E 0 81 21 00
        E 0 91 1a 10
        E 112 b1 0b 38
        E 0 81 1a 00
        E 0 91 21 38
        E 128 b1 0b 10
        E 0 81 21 00
        E 0 91 1a 10
        E 112 b1 0b 38
        E 0 81 1a 00
        E 0 91 21 38
        E 112 b1 0b 10
        E 0 81 21 00
        E 0 91 1a 10
        E 128 b1 0c 40
        E 112 b1 0c 60
        E 128 b1 0c 20
        E 112 b1 0c 10
        E 112 b1 0c 60
        E 128 b1 0c 40
        E 112 b1 0c 20
        E 128 b1 0c 10
        E 112 b1 0c 60
        E 128 b1 0c 40
        E 112 b1 0c 20
        E 0 b1 0b 38
        E 0 81 1a 00
        E 0 91 21 38
        E 112 b1 0b 10
        E 0 81 21 00
        E 0 91 1a 10
        E 128 b1 0b 38
        E 0 81 1a 00
        E 0 91 21 38
        E 112 b1 0b 10
        E 0 81 21 00
        E 0 91 1a 10
        E 128 b1 0b 38
        E 0 81 1a 00
        E 0 91 21 38
        E 112 b1 0b 10
        E 0 81 21 00
        E 0 91 1a 10
        E 112 b1 0c 40
        E 128 b1 0c 60
        E 112 b1 0c 20
        E 128 b1 0c 10
        E 112 b1 0c 60
        E 128 b1 0c 40
        E 112 b1 0c 20
        E 112 b1 0c 10
        E 128 b1 0c 60
        E 112 b1 0c 40
        E 128 b1 0c 20
        E 0 b1 0b 38
        E 0 81 1a 00
        E 0 91 20 38
        E 112 b1 0b 10
        E 0 81 20 00
        E 0 91 19 10
        E 128 b1 0b 38
        E 0 81 19 00
        E 0 91 20 38
        E 112 b1 0b 10
        E 0 81 20 00
        E 0 91 19 10
        E 112 b1 0b 38
        E 0 81 19 00
        E 0 91 20 38
        E 128 b1 0b 10
        E 0 81 20 00
        E 0 91 19 10
        E 112 b1 0c 40
        E 128 b1 0c 60
        E 112 b1 0c 20
        E 112 b1 0c 10
        E 128 b1 0c 60
        E 112 b1 0c 40
        E 128 b1 0c 20
        E 112 b1 0c 10
        E 128 b1 0c 60
        E 112 b1 0c 40
        E 112 b1 0c 20
        E 0 b1 0b 38
        E 0 81 19 00
        E 0 91 1f 38
        E 128 b1 0b 10
        E 0 81 1f 00
        E 0 91 18 10
        E 112 b1 0b 38
        E 0 81 18 00
        E 0 91 1f 38
        E 128 b1 0b 10
        E 0 81 1f 00
        E 0 91 18 10
        E 112 b1 0b 38
        E 0 81 18 00
        E 0 91 1f 38
        E 128 b1 0b 10
        E 0 81 1f 00
        E 0 91 18 10
        E 112 b1 0c 40
        E 112 b1 0c 60
        E 128 b1 0c 20
        E 112 b1 0c 10
        E 128 b1 0c 60
        E 112 b1 0c 40
        E 112 b1 0c 20
        E 128 b1 0c 10
        E 112 b1 0c 60
        E 128 b1 0c 40
        E 112 b1 0c 20
        E 0 b1 0b 38
        E 0 81 18 00
        E 0 91 21 38
        E 128 b1 0b 10
        E 0 81 21 00
        E 0 91 1a 10
        E 112 b1 0b 38
        E 0 81 1a 00
        E 0 91 21 38
        E 112 b1 0b 10
        E 0 81 21 00
        E 0 91 1a 10
        E 128 b1 0b 38
        E 0 81 1a 00
        E 0 91 21 38
        E 112 b1 0b 10
        E 0 81 21 00
        E 0 91 1a 10
        E 128 b1 0c 40
        E 112 b1 0c 60
        E 128 b1 0c 20
        E 112 b1 0c 10
        E 112 b1 0c 60
        E 128 b1 0c 40
        E 112 b1 0c 20
        E 128 b1 0c 10
        E 112 b1 0c 60
        E 112 b1 0c 40
        E 128 b1 0c 20
        E 0 b1 0b 38
        E 0 81 1a 00
        E 0 91 21 38
        E 112 b1 0b 10
        E 0 81 21 00
        E 0 91 1a 10
        E 128 b1 0b 38
        E 0 81 1a 00
        E 0 91 21 38
        E 112 b1 0b 10
        E 0 81 21 00
        E 0 91 1a 10
        E 128 b1 0b 38
        E 0 81 1a 00
        E 0 91 21 38
        E 112 b1 0b 10
        E 0 81 21 00
        E 0 91 1a 10
        E 112 b1 0c 40
        E 128 b1 0c 60
        E 112 b1 0c 20
        E 128 b1 0c 10
        E 112 b1 0c 60
        E 112 b1 0c 40
        E 128 b1 0c 20
        E 112 b1 0c 10
        E 128 b1 0c 60
        E 112 b1 0c 40
        E 128 b1 0c 20
        E 0 b1 0b 38
        E 0 81 1a 00
        E 0 91 20 38
        E 112 b1 0b 10
        E 0 81 20 00
        E 0 91 19 10
        E 112 b1 0b 38
        E 0 81 19 00
        E 0 91 20 38
        E 128 b1 0b 10
        E 0 81 20 00
        E 0 91 19 10
        E 112 b1 0b 38
        E 0 81 19 00
        E 0 91 20 38
        E 128 b1 0b 10
        E 0 81 20 00
        E 0 91 19 10
        E 112 b1 0c 40
        E 128 b1 0c 60
        E 112 b1 0c 20
        E 112 b1 0c 10
        E 128 b1 0c 60
        E 112 b1 0c 40
        E 128 b1 0c 20
        E 112 b1 0c 10
        E 112 b1 0c 60
        E 128 b1 0c 40
        E 112 b1 0c 20
        E 0 b1 0b 38
        E 0 81 19 00
        E 0 91 1f 38
        E 128 b1 0b 10
        E 0 81 1f 00
        E 0 91 18 10
        E 112 b1 0b 38
        E 0 81 18 00
        E 0 91 1f 38
        E 128 b1 0b 10
        E 0 81 1f 00
        E 0 91 18 10
        E 112 b1 0b 38
        E 0 81 18 00
        E 0 91 1f 38
        E 112 b1 0b 10
        E 0 81 1f 00
        E 0 91 18 10
        E 128 b1 0c 40
        E 112 b1 0c 60
        E 128 b1 0c 20
        E 112 b1 0c 10
        E 128 b1 0c 60
        E 112 b1 0c 40
        E 112 b1 0c 20
        E 128 b1 0c 10
        E 112 b1 0c 60
        E 128 b1 0c 40
        E 112 b1 0c 20
        E 0 b1 0b 38
        E 0 81 18 00
        E 0 91 21 38
        E 112 b1 0b 10
        E 0 81 21 00
        E 0 91 1a 10
        E 128 b1 0b 38
        E 0 81 1a 00
        E 0 91 21 38
        E 112 b1 0b 10
        E 0 81 21 00
        E 0 91 1a 10
        E 128 b1 0b 38
        E 0 81 1a 00
        E 0 91 21 38
        E 112 b1 0b 10
        E 0 81 21 00
        E 0 91 1a 10
        E 128 b1 0c 40
        E 112 b1 0c 60
        E 112 b1 0c 20
        E 128 b1 0c 10
        E 112 b1 0c 60
        E 128 b1 0c 40
        E 112 b1 0c 20
        E 128 b1 0c 10
        E 112 b1 0c 60
        E 112 b1 0c 40
        E 128 b1 0c 20
        E 0 b1 0b 38
        E 0 81 1a 00
        E 0 91 21 38
        E 112 b1 0b 10
        E 0 81 21 00
        E 0 91 1a 10
        E 128 b1 0b 38
        E 0 81 1a 00
        E 0 91 21 38
        E 112 b1 0b 10
        E 0 81 21 00
        E 0 91 1a 10
        E 112 b1 0b 38
        E 0 81 1a 00
        E 0 91 21 38
        E 128 b1 0b 10
        E 0 81 21 00
        E 0 91 1a 10
        E 112 b1 0c 40
        E 128 b1 0c 60
        E 112 b1 0c 20
        E 128 b1 0c 10
        E 112 b1 0c 60
        E 112 b1 0c 40
        E 128 b1 0c 20
        E 112 b1 0c 10
        E 128 b1 0c 60
        E 112 b1 0c 40
        E 112 b1 0c 20
        E 0 b1 0b 38
        E 0 81 1a 00
        E 0 91 20 38
        E 128 b1 0b 10
        E 0 81 20 00
        E 0 91 19 10
        E 112 b1 0b 38
        E 0 81 19 00
        E 0 91 20 38
        E 128 b1 0b 10
        E 0 81 20 00
        E 0 91 19 10
        E 112 b1 0b 38
        E 0 81 19 00
        E 0 91 20 38
        E 128 b1 0b 10
        E 0 81 20 00
        E 0 91 19 10
        E 112 b1 0c 40
        E 112 b1 0c 60
        E 128 b1 0c 20
        E 112 b1 0c 10
        E 128 b1 0c 60
        E 112 b1 0c 40
        E 128 b1 0c 20
        E 112 b1 0c 10
        E 112 b1 0c 60
        E 128 b1 0c 40
        E 112 b1 0c 20
        E 0 b1 0b 38
        E 0 81 19 00
        E 0 91 1f 38
        E 128 b1 0b 10
        E 0 81 1f 00
        E 0 91 18 10
        E 112 b1 0b 38
        E 0 81 18 00
        E 0 91 1f 38
        E 112 b1 0b 10
        E 0 81 1f 00
        E 0 91 18 10
        E 128 b1 0b 38
        E 0 81 18 00
        E 0 91 1f 38
        E 112 b1 0b 10
        E 0 81 1f 00
        E 0 91 18 10
        E 128 b1 0c 40
        E 112 b1 0c 60
        E 128 b1 0c 20
        E 112 b1 0c 10
        E 112 b1 0c 60
        E 128 b1 0c 40
        E 112 b1 0c 20
        E 128 b1 0c 10
        E 112 b1 0c 60
        E 128 b1 0c 40
        E 112 b1 0c 20
        E 0 b1 0b 38
        E 0 81 18 00
        E 0 91 21 38
        E 112 b1 0b 10
        E 0 81 21 00
        E 0 91 1a 10
        E 128 b1 0b 38
        E 0 81 1a 00
        E 0 91 21 38
        E 112 b1 0b 10
        E 0 81 21 00
        E 0 91 1a 10
        E 128 b1 0b 38
        E 0 81 1a 00
        E 0 91 21 38
        E 112 b1 0b 10
        E 0 81 21 00
        E 0 91 1a 10
        E 112 b1 0c 40
        E 128 b1 0c 60
        E 112 b1 0c 20
        E 128 b1 0c 10
        E 112 b1 0c 60
        E 128 b1 0c 40
        E 112 b1 0c 20
        E 112 b1 0c 10
        E 128 b1 0c 60
        E 112 b1 0c 40
        E 128 b1 0c 20
        E 0 b1 0b 38
        E 0 81 1a 00
        E 0 91 21 38
        E 112 b1 0b 10
        E 0 81 21 00
        E 0 91 1a 10
        E 128 b1 0b 38
        E 0 81 1a 00
        E 0 91 21 38
        E 112 b1 0b 10
        E 0 81 21 00
        E 0 91 1a 10
        E 112 b1 0b 38
        E 0 81 1a 00
        E 0 91 21 38
        E 128 b1 0b 10
        E 0 81 21 00
        E 0 91 1a 10
        E 112 b1 0c 40
        E 128 b1 0c 60
        E 112 b1 0c 20
        E 112 b1 0c 10
        E 128 b1 0c 60
        E 112 b1 0c 40
        E 128 b1 0c 20
        E 112 b1 0c 10
        E 128 b1 0c 60
        E 112 b1 0c 40
        E 112 b1 0c 20
        E 0 b1 0b 38
        E 0 81 1a 00
        E 0 91 20 38
        E 128 b1 0b 10
        E 0 81 20 00
        E 0 91 19 10
        E 112 b1 0b 38
        E 0 81 19 00
        E 0 91 20 38
        E 128 b1 0b 10
        E 0 81 20 00
        E 0 91 19 10
        E 112 b1 0b 38
        E 0 81 19 00
        E 0 91 20 38
        E 112 b1 0b 10
        E 0 81 20 00
        E 0 91 19 10
        E 128 b1 0c 40
        E 112 b1 0c 60
        E 128 b1 0c 20
        E 112 b1 0c 10
        E 128 b1 0c 60
        E 112 b1 0c 40
        E 112 b1 0c 20
        E 128 b1 0c 10
        E 112 b1 0c 60
        E 128 b1 0c 40
        E 112 b1 0c 20
        E 0 b1 0b 38
        E 0 81 19 00
        E 0 91 1f 38
        E 128 b1 0b 10
        E 0 81 1f 00
        E 0 91 18 10
        E 112 b1 0b 38
        E 0 81 18 00
        E 0 91 1f 38
        E 112 b1 0b 10
        E 0 81 1f 00
        E 0 91 18 10
        E 128 b1 0b 38
        E 0 81 18 00
        E 0 91 1f 38
        E 112 b1 0b 10
        E 0 81 1f 00
        E 0 91 18 10
        E 128 b1 0c 40
        E 112 b1 0c 60
        E 112 b1 0c 20
        E 128 b1 0c 10
        E 112 b1 0c 60
        E 128 b1 0c 40
        E 112 b1 0c 20
        E 128 b1 0c 10
        E 112 b1 0c 60
        E 112 b1 0c 40
        E 128 b1 0c 20
        E 0 b1 0b 38
        E 0 81 18 00
        E 0 91 21 38
        E 112 b1 0b 10
        E 0 81 21 00
        E 0 91 1a 10
        E 128 b1 0b 38
        E 0 81 1a 00
        E 0 91 21 38
        E 112 b1 0b 10
        E 0 81 21 00
        E 0 91 1a 10
        E 128 b1 0b 38
        E 0 81 1a 00
        E 0 91 21 38
        E 112 b1 0b 10
        E 0 81 21 00
        E 0 91 1a 10
        E 112 b1 0c 40
        E 128 b1 0c 60
        E 112 b1 0c 20
        E 128 b1 0c 10
        E 112 b1 0c 60
        E 112 b1 0c 40
        E 128 b1 0c 20
        E 112 b1 0c 10
        E 128 b1 0c 60
        E 112 b1 0c 40
        E 128 b1 0c 20
        E 0 b1 0b 38
        E 0 81 1a 00
        E 0 91 21 38
        E 112 b1 0b 10
        E 0 81 21 00
        E 0 91 1a 10
        E 112 b1 0b 38
        E 0 81 1a 00
        E 0 91 21 38
        E 128 b1 0b 10
        E 0 81 21 00
        E 0 91 1a 10
        E 112 b1 0b 38
        E 0 81 1a 00
        E 0 91 21 38
        E 128 b1 0b 10
        E 0 81 21 00
        E 0 91 1a 10
        E 112 b1 0c 40
        E 128 b1 0c 60
        E 112 b1 0c 20
        E 112 b1 0c 10
        E 128 b1 0c 60
        E 112 b1 0c 40
        E 128 b1 0c 20
        E 112 b1 0c 10
        E 112 b1 0c 60
        E 128 b1 0c 40
        E 112 b1 0c 20
        E 0 b1 0b 38
        E 0 81 1a 00
        E 0 91 20 38
        E 128 b1 0b 10
        E 0 81 20 00
        E 0 91 19 10
        E 112 b1 0b 38
        E 0 81 19 00
        E 0 91 20 38
        E 128 b1 0b 10
        E 0 81 20 00
        E 0 91 19 10
        E 112 b1 0b 38
        E 0 81 19 00
        E 0 91 20 38
        E 112 b1 0b 10
        E 0 81 20 00
        E 0 91 19 10
        E 128 b1 0c 40
        E 112 b1 0c 60
        E 128 b1 0c 20
        E 112 b1 0c 10
        E 112 b1 0c 60
        E 128 b1 0c 40
        E 112 b1 0c 20
        E 128 b1 0c 10
        E 112 b1 0c 60
        E 128 b1 0c 40
        E 112 b1 0c 20
        E 0 b1 0b 38
        E 0 81 19 00
        E 0 91 1f 38
        E 112 b1 0b 10
        E 0 81 1f 00
        E 0 91 18 10
        E 128 b1 0b 38
        E 0 81 18 00
        E 0 91 1f 38
        E 112 b1 0b 10
        E 0 81 1f 00
        E 0 91 18 10
        E 128 b1 0b 38
        E 0 81 18 00
        E 0 91 1f 38
        E 112 b1 0b 10
        E 0 81 1f 00
        E 0 91 18 10
        E 128 b1 0c 40
        E 112 b1 0c 60
        E 112 b1 0c 20
        E 128 b1 0c 10
        E 112 b1 0c 60
        E 128 b1 0c 40
        E 112 b1 0c 20
        E 112 b1 0c 10
        E 128 b1 0c 60
        E 112 b1 0c 40
        E 128 b1 0c 20
        E 0 b1 0b 38
        E 0 81 18 00
        E 0 91 21 38
        E 112 b1 0b 10
        E 0 81 21 00
        E 0 91 1a 10
        E 128 b1 0b 38
        E 0 81 1a 00
        E 0 91 21 38
        E 112 b1 0b 10
        E 0 81 21 00
        E 0 91 1a 10
        E 112 b1 0b 38
        E 0 81 1a 00
        E 0 91 21 38
        E 128 b1 0b 10
        E 0 81 21 00
        E 0 91 1a 10
        E 112 b1 0c 40
        E 128 b1 0c 60
        E 112 b1 0c 20
        E 128 b1 0c 10
        E 112 b1 0c 60
        E 112 b1 0c 40
        E 128 b1 0c 20
        E 112 b1 0c 10
        E 128 b1 0c 60
        E 112 b1 0c 40
        E 112 b1 0c 20
        E 0 b1 0b 38
        E 0 81 1a 00
        E 0 91 21 38
        E 128 b1 0b 10
        E 0 81 21 00
        E 0 91 1a 10
        E 112 b1 0b 38
        E 0 81 1a 00
        E 0 91 21 38
        E 128 b1 0b 10
        E 0 81 21 00
        E 0 91 1a 10
        E 112 b1 0b 38
        E 0 81 1a 00
        E 0 91 21 38
        E 128 b1 0b 10
        E 0 81 21 00
        E 0 91 1a 10
        E 112 b1 0c 40
        E 112 b1 0c 60
        E 128 b1 0c 20
        E 112 b1 0c 10
        E 128 b1 0c 60
        E 112 b1 0c 40
        E 128 b1 0c 20
        E 112 b1 0c 10
        E 112 b1 0c 60
        E 128 b1 0c 40
        E 112 b1 0c 20
        E 0 b1 0b 38
        E 0 81 1a 00
        E 0 91 20 38
        E 128 b1 0b 10
        E 0 81 20 00
        E 0 91 19 10
        E 112 b1 0b 38
        E 0 81 19 00
        E 0 91 20 38
        E 112 b1 0b 10
        E 0 81 20 00
        E 0 91 19 10
        E 128 b1 0b 38
        E 0 81 19 00
        E 0 91 20 38
        E 112 b1 0b 10
        E 0 81 20 00
        E 0 91 19 10
        E 128 b1 0c 40
        E 112 b1 0c 60
        E 128 b1 0c 20
        E 112 b1 0c 10
        E 112 b1 0c 60
        E 128 b1 0c 40
        E 112 b1 0c 20
        E 128 b1 0c 10
        E 112 b1 0c 60
        E 112 b1 0c 40
        E 128 b1 0c 20
        E 0 b1 0b 38
        E 0 81 19 00
        E 0 91 1f 38
        E 112 b1 0b 10
        E 0 81 1f 00
        E 0 91 18 10
        E 128 b1 0b 38
        E 0 81 18 00
        E 0 91 1f 38
        E 112 b1 0b 10
        E 0 81 1f 00
        E 0 91 18 10
        E 128 b1 0b 38
        E 0 81 18 00
        E 0 91 1f 38
        E 112 b1 0b 10
        E 0 81 1f 00
        E 0 91 18 10
        E 112 b1 0c 40
        E 128 b1 0c 60
        E 112 b1 0c 20
        E 128 b1 0c 10
        E 112 b1 0c 60
        E 128 b1 0c 40
        E 112 b1 0c 20
        E 112 b1 0c 10
        E 128 b1 0c 60
        E 112 b1 0c 40
        E 128 b1 0c 20
        E 0 b1 0b 38
        E 0 81 18 00
        E 0 91 21 38
        E 112 b1 0b 10
        E 0 81 21 00
        E 0 91 1a 10
        E 112 b1 0b 38
        E 0 81 1a 00
        E 0 91 21 38
        E 128 b1 0b 10
        E 0 81 21 00
        E 0 91 1a 10
        E 112 b1 0b 38
        E 0 81 1a 00
        E 0 91 21 38
        E 128 b1 0b 10
        E 0 81 21 00
        E 0 91 1a 10
        E 112 b1 0c 40
        E 128 b1 0c 60
        E 112 b1 0c 20
        E 112 b1 0c 10
        E 128 b1 0c 60
        E 112 b1 0c 40
        E 128 b1 0c 20
        E 112 b1 0c 10
        E 128 b1 0c 60
        E 112 b1 0c 40
        E 112 b1 0c 20
        E 0 b1 0b 38
        E 0 81 1a 00
        E 0 91 21 38
        E 128 b1 0b 10
        E 0 81 21 00
        E 0 91 1a 10
        E 112 b1 0b 38
        E 0 81 1a 00
        E 0 91 21 38
        E 128 b1 0b 10
        E 0 81 21 00
        E 0 91 1a 10
        E 112 b1 0b 38
        E 0 81 1a 00
        E 0 91 21 38
        E 112 b1 0b 10
        E 0 81 21 00
        E 0 91 1a 10
        E 128 b1 0c 40
        E 112 b1 0c 60
        E 128 b1 0c 20
        E 112 b1 0c 10
        E 128 b1 0c 60
        E 112 b1 0c 40
        E 112 b1 0c 20
        E 128 b1 0c 10
        E 112 b1 0c 60
        E 128 b1 0c 40
        E 112 b1 0c 20
        E 0 b1 0b 38
        E 0 81 1a 00
        E 0 91 20 38
        E 128 b1 0b 10
        E 0 81 20 00
        E 0 91 19 10
        E 112 b1 0b 38
        E 0 81 19 00
        E 0 91 20 38
        E 112 b1 0b 10
        E 0 81 20 00
        E 0 91 19 10
        E 128 b1 0b 38
        E 0 81 19 00
        E 0 91 20 38
        E 112 b1 0b 10
        E 0 81 20 00
        E 0 91 19 10
        E 128 b1 0c 40
        E 112 b1 0c 60
        E 112 b1 0c 20
        E 128 b1 0c 10
        E 112 b1 0c 60
        E 128 b1 0c 40
        E 112 b1 0c 20
        E 128 b1 0c 10
        E 112 b1 0c 60
        E 112 b1 0c 40
        E 128 b1 0c 20
        E 0 b1 0b 38
        E 0 81 19 00
        E 0 91 1f 38
        E 112 b1 0b 10
        E 0 81 1f 00
        E 0 91 18 10
        E 128 b1 0b 38
        E 0 81 18 00
        E 0 91 1f 38
        E 112 b1 0b 10
        E 0 81 1f 00
        E 0 91 18 10
        E 112 b1 0b 38
        E 0 81 18 00
        E 0 91 1f 38
        E 128 b1 0b 10
        E 0 81 1f 00
        E 0 91 18 10
        E 112 b1 0c 40
        E 128 b1 0c 60
        E 112 b1 0c 20
        E 128 b1 0c 10
        E 112 b1 0c 60
        E 112 b1 0c 40
        E 128 b1 0c 20
        E 112 b1 0c 10
        E 128 b1 0c 60
        E 112 b1 0c 40
        E 128 b1 0c 20
        E 0 b1 0b 38
        E 0 81 18 00
        E 0 91 21 38
        E 112 b1 0b 10
        E 0 81 21 00
        E 0 91 1a 10
        E 112 b1 0b 38
        E 0 81 1a 00
        E 0 91 21 38
        E 128 b1 0b 10
        E 0 81 21 00
        E 0 91 1a 10
        E 112 b1 0b 38
        E 0 81 1a 00
        E 0 91 21 38
        E 128 b1 0b 10
        E 0 81 21 00
        E 0 91 1a 10
        E 112 b1 0c 40
        E 112 b1 0c 60
        E 128 b1 0c 20
        E 112 b1 0c 10
        E 128 b1 0c 60
        E 112 b1 0c 40
        E 128 b1 0c 20
        E 112 b1 0c 10
        E 112 b1 0c 60
        E 128 b1 0c 40
        E 112 b1 0c 20
        E 0 b1 0b 38
        E 0 81 1a 00
        E 0 91 21 38
        E 128 b1 0b 10
        E 0 81 21 00
        E 0 91 1a 10
        E 112 b1 0b 38
        E 0 81 1a 00
        E 0 91 21 38
        E 128 b1 0b 10
        E 0 81 21 00
        E 0 91 1a 10
        E 112 b1 0b 38
        E 0 81 1a 00
        E 0 91 21 38
        E 112 b1 0b 10
        E 0 81 21 00
        E 0 91 1a 10
        E 128 b1 0c 40
        E 112 b1 0c 60
        E 128 b1 0c 20
        E 112 b1 0c 10
        E 112 b1 0c 60
        E 128 b1 0c 40
        E 112 b1 0c 20
        E 128 b1 0c 10
        E 112 b1 0c 60
        E 128 b1 0c 40
        E 112 b1 0c 20
        E 0 b1 0b 38
        E 0 81 1a 00
        E 0 91 20 38
        E 112 b1 0b 10
        E 0 81 20 00
        E 0 91 19 10
        E 128 b1 0b 38
        E 0 81 19 00
        E 0 91 20 38
        E 112 b1 0b 10
        E 0 81 20 00
        E 0 91 19 10
        E 128 b1 0b 38
        E 0 81 19 00
        E 0 91 20 38
        E 112 b1 0b 10
        E 0 81 20 00
        E 0 91 19 10
        E 128 b1 0c 40
        E 112 b1 0c 60
        E 112 b1 0c 20
        E 128 b1 0c 10
        E 112 b1 0c 60
        E 128 b1 0c 40
        E 112 b1 0c 20
        E 112 b1 0c 10
        E 128 b1 0c 60
        E 112 b1 0c 40
        E 128 b1 0c 20
        E 0 b1 0b 38
        E 0 81 19 00
        E 0 91 1f 38
        E 112 b1 0b 10
        E 0 81 1f 00
        E 0 91 18 10
        E 128 b1 0b 38
        E 0 81 18 00
        E 0 91 1f 38
        E 112 b1 0b 10
        E 0 81 1f 00
        E 0 91 18 10
        E 112 b1 0b 38
        E 0 81 18 00
        E 0 91 1f 38
        E 128 b1 0b 10
        E 0 81 1f 00
        E 0 91 18 10
        E 112 b1 0c 40
        E 128 b1 0c 60
        E 112 b1 0c 20
        E 112 b1 0c 10
        E 128 b1 0c 60
        E 112 b1 0c 40
        E 128 b1 0c 20
        E 112 b1 0c 10
        E 128 b1 0c 60
        E 112 b1 0c 40
        E 112 b1 0c 20
        E 0 b1 0b 38
        E 0 81 18 00
        E 0 91 21 38
        E 128 b1 0b 10
        E 0 81 21 00
        E 0 91 1a 10
        E 112 b1 0b 38
        E 0 81 1a 00
        E 0 91 21 38
        E 128 b1 0b 10
        E 0 81 21 00
        E 0 91 1a 10
        E 112 b1 0b 38
        E 0 81 1a 00
        E 0 91 21 38
        E 128 b1 0b 10
        E 0 81 21 00
        E 0 91 1a 10
        E 112 b1 0c 40
        E 112 b1 0c 60
        E 128 b1 0c 20
        E 112 b1 0c 10
        E 128 b1 0c 60
        E 112 b1 0c 40
        E 112 b1 0c 20
        E 128 b1 0c 10
        E 112 b1 0c 60
        E 128 b1 0c 40
        E 112 b1 0c 20
        E 0 b1 0b 38
        E 0 81 1a 00
        E 0 91 21 38
        E 128 b1 0b 10
        E 0 81 21 00
        E 0 91 1a 10
        E 112 b1 0b 38
        E 0 81 1a 00
        E 0 91 21 38
        E 112 b1 0b 10
        E 0 81 21 00
        E 0 91 1a 10
        E 128 b1 0b 38
        E 0 81 1a 00
        E 0 91 21 38
        E 112 b1 0b 10
        E 0 81 21 00
        E 0 91 1a 10
        E 128 b1 0c 40
        E 112 b1 0c 60
        E 128 b1 0c 20
        E 112 b1 0c 10
        E 112 b1 0c 60
        E 128 b1 0c 40
        E 112 b1 0c 20
        E 128 b1 0c 10
        E 112 b1 0c 60
        E 112 b1 0c 40
        E 128 b1 0c 20
        E 0 b1 0b 38
        E 0 81 1a 00
        E 0 91 20 38
        E 112 b1 0b 10
        E 0 81 20 00
        E 0 91 19 10
        E 128 b1 0b 38
        E 0 81 19 00
        E 0 91 20 38
        E 112 b1 0b 10
        E 0 81 20 00
        E 0 91 19 10
        E 128 b1 0b 38
        E 0 81 19 00
        E 0 91 20 38
        E 112 b1 0b 10
        E 0 81 20 00
        E 0 91 19 10
        E 112 b1 0c 40
        E 128 b1 0c 60
        E 112 b1 0c 20
        E 128 b1 0c 10
        E 112 b1 0c 60
        E 128 b1 0c 40
        E 112 b1 0c 20
        E 112 b1 0c 10
        E 128 b1 0c 60
        E 112 b1 0c 40
        E 128 b1 0c 20
        E 0 b1 0b 38
        E 0 81 19 00
        E 0 91 1f 38
        E 112 b1 0b 10
        E 0 81 1f 00
        E 0 91 18 10
        E 112 b1 0b 38
        E 0 81 18 00
        E 0 91 1f 38
        E 128 b1 0b 10
        E 0 81 1f 00
        E 0 91 18 10
        E 112 b1 0b 38
        E 0 81 18 00
        E 0 91 1f 38
        E 128 b1 0b 10
        E 0 81 1f 00
        E 0 91 18 10
        E 112 b1 0c 40
        E 128 b1 0c 60
        E 112 b1 0c 20
        E 112 b1 0c 10
        E 128 b1 0c 60
        E 112 b1 0c 40
        E 128 b1 0c 20
        E 112 b1 0c 10
        E 112 b1 0c 60
        E 128 b1 0c 40
        E 112 b1 0c 20
        E 0 b1 0b 38
        E 0 81 18 00
        E 0 91 21 38
        E 128 b1 0b 10
        E 0 81 21 00
        E 0 91 1a 10
        E 112 b1 0b 38
        E 0 81 1a 00
        E 0 91 21 38
        E 128 b1 0b 10
        E 0 81 21 00
        E 0 91 1a 10
        E 112 b1 0b 38
        E 0 81 1a 00
        E 0 91 21 38
        E 112 b1 0b 10
        E 0 81 21 00
        E 0 91 1a 10
        E 128 b1 0c 40
        E 112 b1 0c 60
        E 128 b1 0c 20
        E 112 b1 0c 10
        E 128 b1 0c 60
        E 112 b1 0c 40
        E 112 b1 0c 20
        E 128 b1 0c 10
        E 112 b1 0c 60
        E 128 b1 0c 40
        E 112 b1 0c 20
        E 0 b1 0b 38
        E 0 81 1a 00
        E 0 91 21 38
        E 112 b1 0b 10
        E 0 81 21 00
        E 0 91 1a 10
        E 128 b1 0b 38
        E 0 81 1a 00
        E 0 91 21 38
        E 112 b1 0b 10
        E 0 81 21 00
        E 0 91 1a 10
        E 128 b1 0b 38
        E 0 81 1a 00
        E 0 91 21 38
        E 112 b1 0b 10
        E 0 81 21 00
        E 0 91 1a 10
        E 128 b1 0c 40
        E 112 b1 0c 60
        E 112 b1 0c 20
        E 128 b1 0c 10
        E 112 b1 0c 60
        E 128 b1 0c 40
        E 112 b1 0c 20
        E 128 b1 0c 10
        E 112 b1 0c 60
        E 112 b1 0c 40
        E 128 b1 0c 20
        E 0 b1 0b 38
        E 0 81 1a 00
        E 0 91 20 38
        E 112 b1 0b 10
        E 0 81 20 00
        E 0 91 19 10
        E 128 b1 0b 38
        E 0 81 19 00
        E 0 91 20 38
        E 112 b1 0b 10
        E 0 81 20 00
        E 0 91 19 10
        E 112 b1 0b 38
        E 0 81 19 00
        E 0 91 20 38
        E 128 b1 0b 10
        E 0 81 20 00
        E 0 91 19 10
        E 112 b1 0c 40
        E 128 b1 0c 60
        E 112 b1 0c 20
        E 128 b1 0c 10
        E 112 b1 0c 60
        E 112 b1 0c 40
        E 128 b1 0c 20
        E 112 b1 0c 10
        E 128 b1 0c 60
        E 112 b1 0c 40
        E 128 b1 0c 20
        E 0 b1 0b 38
        E 0 81 19 00
        E 0 91 1f 38
        E 112 b1 0b 10
        E 0 81 1f 00
        E 0 91 18 10
        E 112 b1 0b 38
        E 0 81 18 00
        E 0 91 1f 38
        E 128 b1 0b 10
        E 0 81 1f 00
        E 0 91 18 10
        E 112 b1 0b 38
        E 0 81 18 00
        E 0 91 1f 38
        E 128 b1 0b 10
        E 0 81 1f 00
        E 0 91 18 10
        E 112 b1 0c 40
        E 112 b1 0c 60
        E 128 b1 0c 20
        E 112 b1 0c 10
        E 128 b1 0c 60
        E 112 b1 0c 40
        E 128 b1 0c 20
        E 112 b1 0c 10
        E 112 b1 0c 60
        E 128 b1 0c 40
        E 112 b1 0c 20
        E 0 b1 0b 38
        E 0 81 18 00
        E 0 91 21 38
        E 128 b1 0b 10
        E 0 81 21 00
        E 0 91 1a 10
        E 112 b1 0b 38
        E 0 81 1a 00
        E 0 91 21 38
        E 112 b1 0b 10
        E 0 81 21 00
        E 0 91 1a 10
        E 128 b1 0b 38
        E 0 81 1a 00
        E 0 91 21 38
        E 112 b1 0b 10
        E 0 81 21 00
        E 0 91 1a 10
        E 128 b1 0c 40
        E 112 b1 0c 60
        E 128 b1 0c 20
        E 112 b1 0c 10
        E 112 b1 0c 60
        E 128 b1 0c 40
        E 112 b1 0c 20
        E 128 b1 0c 10
        E 112 b1 0c 60
        E 128 b1 0c 40
        E 112 b1 0c 20
        E 0 b1 0b 38
        E 0 81 1a 00
        E 0 91 21 38
        E 112 b1 0b 10
        E 0 81 21 00
        E 0 91 1a 10
        E 128 b1 0b 38
        E 0 81 1a 00
        E 0 91 21 38
        E 112 b1 0b 10
        E 0 81 21 00
        E 0 91 1a 10
        E 128 b1 0b 38
        E 0 81 1a 00
        E 0 91 21 38
        E 112 b1 0b 10
        E 0 81 21 00
        E 0 91 1a 10
        E 112 b1 0c 40
        E 128 b1 0c 60
        E 64 81 1a 00
        E 0 ff 2f 00
      >
    >
  >
  <TRACK {ED9AEA8A-0D13-437B-83DE-F37D8766359B}
    NAME "NES - Triangle [ch2]"
    PEAKCOL 16744192
    BEAT -1
    AUTOMODE 0
    PANLAWFLAGS 3
    VOLPAN 1 0 -1 -1 1
    MUTESOLO 0 0 0
    IPHASE 0
    PLAYOFFS 0 1
    ISBUS 0 0
    BUSCOMP 0 0 0 0 0
    SHOWINMIX 1 0.6667 0.5 1 0.5 0 0 0
    FIXEDLANES 9 0 0 0 0
    SEL 0
    REC 0 5088 1 0 0 0 0 0
    VU 2
    TRACKHEIGHT 0 0 0 0 0 0 0
    INQ 0 0 0 0.5 100 0 0 100
    NCHAN 2
    FX 1
    TRACKID {ED9AEA8A-0D13-437B-83DE-F37D8766359B}
    PERF 0
    MIDIOUT -1
    MAINSEND 1 0
    <FXCHAIN
      WNDRECT 24 52 700 560
      SHOW 0
      LASTSEL 0
      DOCKED 0
      BYPASS 0 0 0
      <JS "ReapNES Studio/ReapNES_Console.jsfx" ""
        2 15 1 10 80 10 100 2 1 15 1 5 60 10 80 1 1 0 50 0 0 15 1 0 100 0 0 0.500000 0.500000 0.400000 0.300000 0.800000 2 1 0 0 0 0 - - - - - - - - - - - - - - - - - - - - - - - - - -
      >
      FLOATPOS 0 0 0 0
      FXID {5293E4DC-04C9-4B64-9753-6F24D305A0B8}
      WAK 0 0
    >
    <ITEM
      POSITION 0
      LENGTH 83.98134
      LOOP 0
      ALLTAKES 0
      FADEIN 0 0 0 0 0 0 0
      FADEOUT 0 0 0 0 0 0 0
      MUTE 0 0
      SEL 0
      IGUID {3F6731AA-182D-426A-9ABE-1C608609EDE2}
      <SOURCE MIDI
        HASDATA 1 480 QN
        CCINTERP 32
        X 0 18 ff 03 0f 54 72 69 61 6e 67 6c 65 20 5b 62 61 73 73 5d
        E 0 c2 26
        E 48 b2 0b 7f
        E 0 92 26 7f
        E 128 82 26 00
        E 0 b2 0b 7f
        E 0 92 1a 7f
        E 112 82 1a 00
        E 0 b2 0b 7f
        E 0 92 26 7f
        E 112 82 26 00
        E 0 b2 0b 7f
        E 0 92 1a 7f
        E 128 82 1a 00
        E 0 b2 0b 7f
        E 0 92 26 7f
        E 112 82 26 00
        E 0 b2 0b 7f
        E 0 92 1a 7f
        E 1424 82 1a 00
        E 0 b2 0b 7f
        E 0 92 26 7f
        E 128 82 26 00
        E 0 b2 0b 7f
        E 0 92 1a 7f
        E 112 82 1a 00
        E 0 b2 0b 7f
        E 0 92 26 7f
        E 128 82 26 00
        E 0 b2 0b 7f
        E 0 92 1a 7f
        E 1296 82 1a 00
        E 0 b2 0b 7f
        E 0 92 25 7f
        E 128 82 25 00
        E 0 b2 0b 7f
        E 0 92 19 7f
        E 112 82 19 00
        E 0 b2 0b 7f
        E 0 92 25 7f
        E 112 82 25 00
        E 0 b2 0b 7f
        E 0 92 19 7f
        E 128 82 19 00
        E 0 b2 0b 7f
        E 0 92 25 7f
        E 112 82 25 00
        E 0 b2 0b 7f
        E 0 92 19 7f
        E 1312 82 19 00
        E 0 b2 0b 7f
        E 0 92 24 7f
        E 112 82 24 00
        E 0 b2 0b 7f
        E 0 92 18 7f
        E 128 82 18 00
        E 0 b2 0b 7f
        E 0 92 24 7f
        E 112 82 24 00
        E 0 b2 0b 7f
        E 0 92 18 7f
        E 128 82 18 00
        E 0 b2 0b 7f
        E 0 92 24 7f
        E 112 82 24 00
        E 0 b2 0b 7f
        E 0 92 18 7f
        E 1312 82 18 00
        E 0 b2 0b 7f
        E 0 92 26 7f
        E 112 82 26 00
        E 0 b2 0b 7f
        E 0 92 1a 7f
        E 128 82 1a 00
        E 0 b2 0b 7f
        E 0 92 26 7f
        E 112 82 26 00
        E 0 b2 0b 7f
        E 0 92 1a 7f
        E 112 82 1a 00
        E 0 b2 0b 7f
        E 0 92 26 7f
        E 128 82 26 00
        E 0 b2 0b 7f
        E 0 92 1a 7f
        E 1424 82 1a 00
        E 0 b2 0b 7f
        E 0 92 26 7f
        E 112 82 26 00
        E 0 b2 0b 7f
        E 0 92 1a 7f
        E 128 82 1a 00
        E 0 b2 0b 7f
        E 0 92 26 7f
        E 112 82 26 00
        E 0 b2 0b 7f
        E 0 92 1a 7f
        E 1312 82 1a 00
        E 0 b2 0b 7f
        E 0 92 25 7f
        E 112 82 25 00
        E 0 b2 0b 7f
        E 0 92 19 7f
        E 128 82 19 00
        E 0 b2 0b 7f
        E 0 92 25 7f
        E 112 82 25 00
        E 0 b2 0b 7f
        E 0 92 19 7f
        E 112 82 19 00
        E 0 b2 0b 7f
        E 0 92 25 7f
        E 128 82 25 00
        E 0 b2 0b 7f
        E 0 92 19 7f
        E 1296 82 19 00
        E 0 b2 0b 7f
        E 0 92 24 7f
        E 128 82 24 00
        E 0 b2 0b 7f
        E 0 92 18 7f
        E 112 82 18 00
        E 0 b2 0b 7f
        E 0 92 24 7f
        E 128 82 24 00
        E 0 b2 0b 7f
        E 0 92 18 7f
        E 112 82 18 00
        E 0 b2 0b 7f
        E 0 92 24 7f
        E 128 82 24 00
        E 0 b2 0b 7f
        E 0 92 18 7f
        E 1296 82 18 00
        E 0 b2 0b 7f
        E 0 92 26 7f
        E 128 82 26 00
        E 0 b2 0b 7f
        E 0 92 1a 7f
        E 112 82 1a 00
        E 0 b2 0b 7f
        E 0 92 26 7f
        E 112 82 26 00
        E 0 b2 0b 7f
        E 0 92 1a 7f
        E 128 82 1a 00
        E 0 b2 0b 7f
        E 0 92 26 7f
        E 112 82 26 00
        E 0 b2 0b 7f
        E 0 92 1a 7f
        E 1424 82 1a 00
        E 0 b2 0b 7f
        E 0 92 26 7f
        E 128 82 26 00
        E 0 b2 0b 7f
        E 0 92 1a 7f
        E 112 82 1a 00
        E 0 b2 0b 7f
        E 0 92 26 7f
        E 128 82 26 00
        E 0 b2 0b 7f
        E 0 92 1a 7f
        E 1296 82 1a 00
        E 0 b2 0b 7f
        E 0 92 25 7f
        E 128 82 25 00
        E 0 b2 0b 7f
        E 0 92 19 7f
        E 112 82 19 00
        E 0 b2 0b 7f
        E 0 92 25 7f
        E 112 82 25 00
        E 0 b2 0b 7f
        E 0 92 19 7f
        E 128 82 19 00
        E 0 b2 0b 7f
        E 0 92 25 7f
        E 112 82 25 00
        E 0 b2 0b 7f
        E 0 92 19 7f
        E 1312 82 19 00
        E 0 b2 0b 7f
        E 0 92 24 7f
        E 112 82 24 00
        E 0 b2 0b 7f
        E 0 92 18 7f
        E 128 82 18 00
        E 0 b2 0b 7f
        E 0 92 24 7f
        E 112 82 24 00
        E 0 b2 0b 7f
        E 0 92 18 7f
        E 128 82 18 00
        E 0 b2 0b 7f
        E 0 92 24 7f
        E 112 82 24 00
        E 0 b2 0b 7f
        E 0 92 18 7f
        E 1312 82 18 00
        E 0 b2 0b 7f
        E 0 92 26 7f
        E 112 82 26 00
        E 0 b2 0b 7f
        E 0 92 1a 7f
        E 112 82 1a 00
        E 0 b2 0b 7f
        E 0 92 26 7f
        E 128 82 26 00
        E 0 b2 0b 7f
        E 0 92 1a 7f
        E 112 82 1a 00
        E 0 b2 0b 7f
        E 0 92 26 7f
        E 128 82 26 00
        E 0 b2 0b 7f
        E 0 92 1a 7f
        E 1424 82 1a 00
        E 0 b2 0b 7f
        E 0 92 26 7f
        E 112 82 26 00
        E 0 b2 0b 7f
        E 0 92 1a 7f
        E 128 82 1a 00
        E 0 b2 0b 7f
        E 0 92 26 7f
        E 112 82 26 00
        E 0 b2 0b 7f
        E 0 92 1a 7f
        E 1312 82 1a 00
        E 0 b2 0b 7f
        E 0 92 25 7f
        E 112 82 25 00
        E 0 b2 0b 7f
        E 0 92 19 7f
        E 128 82 19 00
        E 0 b2 0b 7f
        E 0 92 25 7f
        E 112 82 25 00
        E 0 b2 0b 7f
        E 0 92 19 7f
        E 112 82 19 00
        E 0 b2 0b 7f
        E 0 92 25 7f
        E 128 82 25 00
        E 0 b2 0b 7f
        E 0 92 19 7f
        E 1296 82 19 00
        E 0 b2 0b 7f
        E 0 92 24 7f
        E 128 82 24 00
        E 0 b2 0b 7f
        E 0 92 18 7f
        E 112 82 18 00
        E 0 b2 0b 7f
        E 0 92 24 7f
        E 128 82 24 00
        E 0 b2 0b 7f
        E 0 92 18 7f
        E 112 82 18 00
        E 0 b2 0b 7f
        E 0 92 24 7f
        E 112 82 24 00
        E 0 b2 0b 7f
        E 0 92 18 7f
        E 1312 82 18 00
        E 0 b2 0b 7f
        E 0 92 26 7f
        E 128 82 26 00
        E 0 b2 0b 7f
        E 0 92 1a 7f
        E 112 82 1a 00
        E 0 b2 0b 7f
        E 0 92 26 7f
        E 112 82 26 00
        E 0 b2 0b 7f
        E 0 92 1a 7f
        E 128 82 1a 00
        E 0 b2 0b 7f
        E 0 92 26 7f
        E 112 82 26 00
        E 0 b2 0b 7f
        E 0 92 1a 7f
        E 1424 82 1a 00
        E 0 b2 0b 7f
        E 0 92 26 7f
        E 128 82 26 00
        E 0 b2 0b 7f
        E 0 92 1a 7f
        E 112 82 1a 00
        E 0 b2 0b 7f
        E 0 92 26 7f
        E 128 82 26 00
        E 0 b2 0b 7f
        E 0 92 1a 7f
        E 1296 82 1a 00
        E 0 b2 0b 7f
        E 0 92 25 7f
        E 128 82 25 00
        E 0 b2 0b 7f
        E 0 92 19 7f
        E 112 82 19 00
        E 0 b2 0b 7f
        E 0 92 25 7f
        E 112 82 25 00
        E 0 b2 0b 7f
        E 0 92 19 7f
        E 128 82 19 00
        E 0 b2 0b 7f
        E 0 92 25 7f
        E 112 82 25 00
        E 0 b2 0b 7f
        E 0 92 19 7f
        E 1312 82 19 00
        E 0 b2 0b 7f
        E 0 92 24 7f
        E 112 82 24 00
        E 0 b2 0b 7f
        E 0 92 18 7f
        E 128 82 18 00
        E 0 b2 0b 7f
        E 0 92 24 7f
        E 112 82 24 00
        E 0 b2 0b 7f
        E 0 92 18 7f
        E 128 82 18 00
        E 0 b2 0b 7f
        E 0 92 24 7f
        E 112 82 24 00
        E 0 b2 0b 7f
        E 0 92 18 7f
        E 1312 82 18 00
        E 0 b2 0b 7f
        E 0 92 26 7f
        E 112 82 26 00
        E 0 b2 0b 7f
        E 0 92 1a 7f
        E 112 82 1a 00
        E 0 b2 0b 7f
        E 0 92 26 7f
        E 128 82 26 00
        E 0 b2 0b 7f
        E 0 92 1a 7f
        E 112 82 1a 00
        E 0 b2 0b 7f
        E 0 92 26 7f
        E 128 82 26 00
        E 0 b2 0b 7f
        E 0 92 1a 7f
        E 1424 82 1a 00
        E 0 b2 0b 7f
        E 0 92 26 7f
        E 112 82 26 00
        E 0 b2 0b 7f
        E 0 92 1a 7f
        E 128 82 1a 00
        E 0 b2 0b 7f
        E 0 92 26 7f
        E 112 82 26 00
        E 0 b2 0b 7f
        E 0 92 1a 7f
        E 1312 82 1a 00
        E 0 b2 0b 7f
        E 0 92 25 7f
        E 112 82 25 00
        E 0 b2 0b 7f
        E 0 92 19 7f
        E 112 82 19 00
        E 0 b2 0b 7f
        E 0 92 25 7f
        E 128 82 25 00
        E 0 b2 0b 7f
        E 0 92 19 7f
        E 112 82 19 00
        E 0 b2 0b 7f
        E 0 92 25 7f
        E 128 82 25 00
        E 0 b2 0b 7f
        E 0 92 19 7f
        E 1296 82 19 00
        E 0 b2 0b 7f
        E 0 92 24 7f
        E 128 82 24 00
        E 0 b2 0b 7f
        E 0 92 18 7f
        E 112 82 18 00
        E 0 b2 0b 7f
        E 0 92 24 7f
        E 128 82 24 00
        E 0 b2 0b 7f
        E 0 92 18 7f
        E 112 82 18 00
        E 0 b2 0b 7f
        E 0 92 24 7f
        E 112 82 24 00
        E 0 b2 0b 7f
        E 0 92 18 7f
        E 1312 82 18 00
        E 0 b2 0b 7f
        E 0 92 26 7f
        E 112 82 26 00
        E 0 b2 0b 7f
        E 0 92 1a 7f
        E 128 82 1a 00
        E 0 b2 0b 7f
        E 0 92 26 7f
        E 112 82 26 00
        E 0 b2 0b 7f
        E 0 92 1a 7f
        E 128 82 1a 00
        E 0 b2 0b 7f
        E 0 92 26 7f
        E 112 82 26 00
        E 0 b2 0b 7f
        E 0 92 1a 7f
        E 1424 82 1a 00
        E 0 b2 0b 7f
        E 0 92 26 7f
        E 128 82 26 00
        E 0 b2 0b 7f
        E 0 92 1a 7f
        E 112 82 1a 00
        E 0 b2 0b 7f
        E 0 92 26 7f
        E 112 82 26 00
        E 0 b2 0b 7f
        E 0 92 1a 7f
        E 1312 82 1a 00
        E 0 b2 0b 7f
        E 0 92 25 7f
        E 128 82 25 00
        E 0 b2 0b 7f
        E 0 92 19 7f
        E 112 82 19 00
        E 0 b2 0b 7f
        E 0 92 25 7f
        E 112 82 25 00
        E 0 b2 0b 7f
        E 0 92 19 7f
        E 128 82 19 00
        E 0 b2 0b 7f
        E 0 92 25 7f
        E 112 82 25 00
        E 0 b2 0b 7f
        E 0 92 19 7f
        E 1312 82 19 00
        E 0 b2 0b 7f
        E 0 92 24 7f
        E 112 82 24 00
        E 0 b2 0b 7f
        E 0 92 18 7f
        E 128 82 18 00
        E 0 b2 0b 7f
        E 0 92 24 7f
        E 112 82 24 00
        E 0 b2 0b 7f
        E 0 92 18 7f
        E 128 82 18 00
        E 0 b2 0b 7f
        E 0 92 24 7f
        E 112 82 24 00
        E 0 b2 0b 7f
        E 0 92 18 7f
        E 1312 82 18 00
        E 0 b2 0b 7f
        E 0 92 26 7f
        E 112 82 26 00
        E 0 b2 0b 7f
        E 0 92 1a 7f
        E 112 82 1a 00
        E 0 b2 0b 7f
        E 0 92 26 7f
        E 128 82 26 00
        E 0 b2 0b 7f
        E 0 92 1a 7f
        E 112 82 1a 00
        E 0 b2 0b 7f
        E 0 92 26 7f
        E 128 82 26 00
        E 0 b2 0b 7f
        E 0 92 1a 7f
        E 1424 82 1a 00
        E 0 b2 0b 7f
        E 0 92 26 7f
        E 112 82 26 00
        E 0 b2 0b 7f
        E 0 92 1a 7f
        E 128 82 1a 00
        E 0 b2 0b 7f
        E 0 92 26 7f
        E 112 82 26 00
        E 0 b2 0b 7f
        E 0 92 1a 7f
        E 1312 82 1a 00
        E 0 b2 0b 7f
        E 0 92 25 7f
        E 112 82 25 00
        E 0 b2 0b 7f
        E 0 92 19 7f
        E 112 82 19 00
        E 0 b2 0b 7f
        E 0 92 25 7f
        E 128 82 25 00
        E 0 b2 0b 7f
        E 0 92 19 7f
        E 112 82 19 00
        E 0 b2 0b 7f
        E 0 92 25 7f
        E 128 82 25 00
        E 0 b2 0b 7f
        E 0 92 19 7f
        E 1296 82 19 00
        E 0 b2 0b 7f
        E 0 92 24 7f
        E 128 82 24 00
        E 0 b2 0b 7f
        E 0 92 18 7f
        E 112 82 18 00
        E 0 b2 0b 7f
        E 0 92 24 7f
        E 128 82 24 00
        E 0 b2 0b 7f
        E 0 92 18 7f
        E 112 82 18 00
        E 0 b2 0b 7f
        E 0 92 24 7f
        E 112 82 24 00
        E 0 b2 0b 7f
        E 0 92 18 7f
        E 1312 82 18 00
        E 0 b2 0b 7f
        E 0 92 26 7f
        E 112 82 26 00
        E 0 b2 0b 7f
        E 0 92 1a 7f
        E 128 82 1a 00
        E 0 b2 0b 7f
        E 0 92 26 7f
        E 112 82 26 00
        E 0 b2 0b 7f
        E 0 92 1a 7f
        E 128 82 1a 00
        E 0 b2 0b 7f
        E 0 92 26 7f
        E 112 82 26 00
        E 0 b2 0b 7f
        E 0 92 1a 7f
        E 1424 82 1a 00
        E 0 b2 0b 7f
        E 0 92 26 7f
        E 128 82 26 00
        E 0 b2 0b 7f
        E 0 92 1a 7f
        E 112 82 1a 00
        E 0 b2 0b 7f
        E 0 92 26 7f
        E 112 82 26 00
        E 0 b2 0b 7f
        E 0 92 1a 7f
        E 1312 82 1a 00
        E 0 b2 0b 7f
        E 0 92 25 7f
        E 112 82 25 00
        E 0 b2 0b 7f
        E 0 92 19 7f
        E 128 82 19 00
        E 0 b2 0b 7f
        E 0 92 25 7f
        E 112 82 25 00
        E 0 b2 0b 7f
        E 0 92 19 7f
        E 128 82 19 00
        E 0 b2 0b 7f
        E 0 92 25 7f
        E 112 82 25 00
        E 0 b2 0b 7f
        E 0 92 19 7f
        E 1312 82 19 00
        E 0 b2 0b 7f
        E 0 92 24 7f
        E 112 82 24 00
        E 0 b2 0b 7f
        E 0 92 18 7f
        E 128 82 18 00
        E 0 b2 0b 7f
        E 0 92 24 7f
        E 112 82 24 00
        E 0 b2 0b 7f
        E 0 92 18 7f
        E 112 82 18 00
        E 0 b2 0b 7f
        E 0 92 24 7f
        E 128 82 24 00
        E 0 b2 0b 7f
        E 0 92 18 7f
        E 1312 82 18 00
        E 0 b2 0b 7f
        E 0 92 26 7f
        E 112 82 26 00
        E 0 b2 0b 7f
        E 0 92 1a 7f
        E 112 82 1a 00
        E 0 b2 0b 7f
        E 0 92 26 7f
        E 128 82 26 00
        E 0 b2 0b 7f
        E 0 92 1a 7f
        E 112 82 1a 00
        E 0 b2 0b 7f
        E 0 92 26 7f
        E 128 82 26 00
        E 0 b2 0b 7f
        E 0 92 1a 7f
        E 1424 82 1a 00
        E 0 b2 0b 7f
        E 0 92 26 7f
        E 112 82 26 00
        E 0 b2 0b 7f
        E 0 92 1a 7f
        E 112 82 1a 00
        E 0 b2 0b 7f
        E 0 92 26 7f
        E 128 82 26 00
        E 0 b2 0b 7f
        E 0 92 1a 7f
        E 1312 82 1a 00
        E 0 b2 0b 7f
        E 0 92 25 7f
        E 112 82 25 00
        E 0 b2 0b 7f
        E 0 92 19 7f
        E 112 82 19 00
        E 0 b2 0b 7f
        E 0 92 25 7f
        E 128 82 25 00
        E 0 b2 0b 7f
        E 0 92 19 7f
        E 112 82 19 00
        E 0 b2 0b 7f
        E 0 92 25 7f
        E 128 82 25 00
        E 0 b2 0b 7f
        E 0 92 19 7f
        E 1296 82 19 00
        E 0 b2 0b 7f
        E 0 92 24 7f
        E 128 82 24 00
        E 0 b2 0b 7f
        E 0 92 18 7f
        E 112 82 18 00
        E 0 b2 0b 7f
        E 0 92 24 7f
        E 128 82 24 00
        E 0 b2 0b 7f
        E 0 92 18 7f
        E 112 82 18 00
        E 0 b2 0b 7f
        E 0 92 24 7f
        E 112 82 24 00
        E 0 b2 0b 7f
        E 0 92 18 7f
        E 1312 82 18 00
        E 0 b2 0b 7f
        E 0 92 26 7f
        E 112 82 26 00
        E 0 b2 0b 7f
        E 0 92 1a 7f
        E 128 82 1a 00
        E 0 b2 0b 7f
        E 0 92 26 7f
        E 112 82 26 00
        E 0 b2 0b 7f
        E 0 92 1a 7f
        E 128 82 1a 00
        E 0 b2 0b 7f
        E 0 92 26 7f
        E 112 82 26 00
        E 0 b2 0b 7f
        E 0 92 1a 7f
        E 1424 82 1a 00
        E 0 b2 0b 7f
        E 0 92 26 7f
        E 128 82 26 00
        E 0 b2 0b 7f
        E 0 92 1a 7f
        E 112 82 1a 00
        E 0 b2 0b 7f
        E 0 92 26 7f
        E 112 82 26 00
        E 0 b2 0b 7f
        E 0 92 1a 7f
        E 1312 82 1a 00
        E 0 b2 0b 7f
        E 0 92 25 7f
        E 112 82 25 00
        E 0 b2 0b 7f
        E 0 92 19 7f
        E 128 82 19 00
        E 0 b2 0b 7f
        E 0 92 25 7f
        E 112 82 25 00
        E 0 b2 0b 7f
        E 0 92 19 7f
        E 128 82 19 00
        E 0 b2 0b 7f
        E 0 92 25 7f
        E 112 82 25 00
        E 0 b2 0b 7f
        E 0 92 19 7f
        E 1312 82 19 00
        E 0 b2 0b 7f
        E 0 92 24 7f
        E 112 82 24 00
        E 0 b2 0b 7f
        E 0 92 18 7f
        E 128 82 18 00
        E 0 b2 0b 7f
        E 0 92 24 7f
        E 112 82 24 00
        E 0 b2 0b 7f
        E 0 92 18 7f
        E 112 82 18 00
        E 0 b2 0b 7f
        E 0 92 24 7f
        E 128 82 24 00
        E 0 b2 0b 7f
        E 0 92 18 7f
        E 1296 82 18 00
        E 0 b2 0b 7f
        E 0 92 26 7f
        E 128 82 26 00
        E 0 b2 0b 7f
        E 0 92 1a 7f
        E 112 82 1a 00
        E 0 b2 0b 7f
        E 0 92 26 7f
        E 128 82 26 00
        E 0 b2 0b 7f
        E 0 92 1a 7f
        E 112 82 1a 00
        E 0 b2 0b 7f
        E 0 92 26 7f
        E 128 82 26 00
        E 0 b2 0b 7f
        E 0 92 1a 7f
        E 1424 82 1a 00
        E 0 b2 0b 7f
        E 0 92 26 7f
        E 112 82 26 00
        E 0 b2 0b 7f
        E 0 92 1a 7f
        E 112 82 1a 00
        E 0 b2 0b 7f
        E 0 92 26 7f
        E 128 82 26 00
        E 0 b2 0b 7f
        E 0 92 1a 7f
        E 1296 82 1a 00
        E 0 b2 0b 7f
        E 0 92 25 7f
        E 128 82 25 00
        E 0 b2 0b 7f
        E 0 92 19 7f
        E 112 82 19 00
        E 0 b2 0b 7f
        E 0 92 25 7f
        E 128 82 25 00
        E 0 b2 0b 7f
        E 0 92 19 7f
        E 32 82 19 00
        E 0 ff 2f 00
      >
    >
  >
  <TRACK {30D7A0C3-07D4-4170-AEA8-D4E1289DB4F0}
    NAME "NES - Noise / Drums [ch3]"
    PEAKCOL 11184810
    BEAT -1
    AUTOMODE 0
    PANLAWFLAGS 3
    VOLPAN 1 0 -1 -1 1
    MUTESOLO 0 0 0
    IPHASE 0
    PLAYOFFS 0 1
    ISBUS 0 0
    BUSCOMP 0 0 0 0 0
    SHOWINMIX 1 0.6667 0.5 1 0.5 0 0 0
    FIXEDLANES 9 0 0 0 0
    SEL 0
    REC 0 5088 1 0 0 0 0 0
    VU 2
    TRACKHEIGHT 0 0 0 0 0 0 0
    INQ 0 0 0 0.5 100 0 0 100
    NCHAN 2
    FX 1
    TRACKID {30D7A0C3-07D4-4170-AEA8-D4E1289DB4F0}
    PERF 0
    MIDIOUT -1
    MAINSEND 1 0
    <FXCHAIN
      WNDRECT 24 52 700 560
      SHOW 0
      LASTSEL 0
      DOCKED 0
      BYPASS 0 0 0
      <JS "ReapNES Studio/ReapNES_Console.jsfx" ""
        2 15 1 10 80 10 100 2 1 15 1 5 60 10 80 1 1 0 50 0 0 15 1 0 100 0 0 0.500000 0.500000 0.400000 0.300000 0.800000 3 1 0 0 0 0 - - - - - - - - - - - - - - - - - - - - - - - - - -
      >
      FLOATPOS 0 0 0 0
      FXID {12163F15-2F41-4DE9-A843-426D6A136259}
      WAK 0 0
    >
    <ITEM
      POSITION 0
      LENGTH 83.98134
      LOOP 0
      ALLTAKES 0
      FADEIN 0 0 0 0 0 0 0
      FADEOUT 0 0 0 0 0 0 0
      MUTE 0 0
      SEL 0
      IGUID {00C41ED0-A436-49C3-8A9C-03B0D4618973}
      <SOURCE MIDI
        HASDATA 1 480 QN
        CCINTERP 32
        X 0 16 ff 03 0d 4e 6f 69 73 65 20 5b 64 72 75 6d 73 5d
        E 16 93 2a 50
        E 86384 83 2a 00
        E 0 ff 2f 00
      >
    >
  >
>