<REAPER_PROJECT 0.1 "7.27/win64" 1707000000
  <NOTES 0 2
    |ReapNES Studio Project
    |MIDI Import - Battletoads_15_Song_15_v1
  >
  RIPPLE 0
  GROUPOVERRIDE 0 0 0
  AUTOXFADE 129
  ENVATTACH 3
  POOLEDENVATTACH 0
  MIXERUIFLAGS 11 48
  ENVFADESZ10 40
  PEAKGAIN 1
  FEEDBACK 0
  PANLAW 1
  PROJOFFS 0 0 0
  MAXPROJLEN 0 0
  GRID 3199 8 1 8 1 0 0 0
  TIMEMODE 1 5 -1 30 0 0 -1
  VIDEO_CONFIG 0 0 65792
  PANMODE 3
  PANLAWFLAGS 3
  CURSOR 0
  ZOOM 100 0 0
  VZOOMEX 6 0
  USE_REC_CFG 0
  RECMODE 1
  SMPTESYNC 0 30 100 40 1000 300 0 0 1 0 0
  LOOP 0
  LOOPGRAN 0 4
  RECORD_PATH "Media" ""
  <RECORD_CFG
    ZXZhdxgAAQ==
  >
  <APPLYFX_CFG
  >
  RENDER_FILE ""
  RENDER_PATTERN ""
  RENDER_FMT 0 2 0
  RENDER_1X 0
  RENDER_RANGE 1 0 0 18 1000
  RENDER_RESAMPLE 3 0 1
  RENDER_ADDTOPROJ 0
  RENDER_STEMS 0
  RENDER_DITHER 0
  TIMELOCKMODE 1
  TEMPOENVLOCKMODE 1
  ITEMMIX 1
  DEFPITCHMODE 589824 0
  TAKELANE 1
  SAMPLERATE 44100 0 0
  <RENDER_CFG
    ZXZhdxgAAQ==
  >
  LOCK 1
  <METRONOME 6 2
    VOL 0.25 0.125
    BEATLEN 4
    FREQ 1760 880 1
    SAMPLES "" ""
    SPLIGNORE 0 0
    SPLDEF 2 660 "" 0
    SPLDEF 3 440 "" 0
    PATTERN 0 169
    PATTERNSTR ABBB
    MULT 1
  >
  GLOBAL_AUTO -1
  TEMPO 128.59999614200012 4 4
  PLAYRATE 1 0 0.25 4
  SELECTION 0 0
  SELECTION2 0 0
  MASTERAUTOMODE 0
  MASTERTRACKHEIGHT 0 0
  MASTERPEAKCOL 16576
  MASTERMUTESOLO 0
  MASTERTRACKVIEW 0 0.6667 0.5 0.5 0 0 0 0 0 0 0 0 0 0
  MASTERHWOUT 0 0 1 0 0 0 0 -1
  MASTER_NCH 2 2
  MASTER_VOLUME 1 0 -1 -1 1
  MASTER_PANMODE 3
  MASTER_PANLAWFLAGS 3
  MASTER_FX 1
  MASTER_SEL 0
  <MASTERPLAYSPEEDENV
    EGUID {83A45A44-ACD7-4402-A03A-697FF6850216}
    ACT 0 -1
    VIS 0 1 1
    LANEHEIGHT 0 0
    ARM 0
    DEFSHAPE 0 -1 -1
  >
  <TEMPOENVEX
    EGUID {3E9733C9-C8C2-4071-B98D-F0409A63F05A}
    ACT 1 -1
    VIS 1 0 1
    LANEHEIGHT 0 0
    ARM 0
    DEFSHAPE 1 -1 -1
  >
  <PROJBAY
  >
  <TRACK {361591D1-D221-46E3-867F-12EDB172867A}
    NAME "NES - Pulse 1 [ch0]"
    PEAKCOL 16576606
    BEAT -1
    AUTOMODE 0
    PANLAWFLAGS 3
    VOLPAN 1 0 -1 -1 1
    MUTESOLO 0 0 0
    IPHASE 0
    PLAYOFFS 0 1
    ISBUS 0 0
    BUSCOMP 0 0 0 0 0
    SHOWINMIX 1 0.6667 0.5 1 0.5 0 0 0
    FIXEDLANES 9 0 0 0 0
    SEL 1
    REC 0 5088 1 0 0 0 0 0
    VU 2
    TRACKHEIGHT 0 0 0 0 0 0 0
    INQ 0 0 0 0.5 100 0 0 100
    NCHAN 2
    FX 1
    TRACKID {361591D1-D221-46E3-867F-12EDB172867A}
    PERF 0
    MIDIOUT -1
    MAINSEND 1 0
    <FXCHAIN
      WNDRECT 24 52 700 560
      SHOW 0
      LASTSEL 0
      DOCKED 0
      BYPASS 0 0 0
      <JS "ReapNES Studio/ReapNES_Console.jsfx" ""
        2 15 1 10 80 10 100 2 1 15 1 5 60 10 80 1 1 0 50 0 0 15 1 0 100 0 0 0.500000 0.500000 0.400000 0.300000 0.800000 0 1 0 0 0 0 - - - - - - - - - - - - - - - - - - - - - - - - - -
      >
      FLOATPOS 0 0 0 0
      FXID {0B7B811E-942B-4CF0-9E7E-A2773BBAE0C7}
      WAK 0 0
    >
    <ITEM
      POSITION 0
      LENGTH 83.98134
      LOOP 0
      ALLTAKES 0
      FADEIN 0 0 0 0 0 0 0
      FADEOUT 0 0 0 0 0 0 0
      MUTE 0 0
      SEL 0
      IGUID {2EA01084-55C5-4DE9-99DF-B77CBB18ADD3}
      <SOURCE MIDI
        HASDATA 1 480 QN
        CCINTERP 32
        X 0 18 ff 03 0f 53 71 75 61 72 65 20 31 20 5b 6c 65 61 64 5d
        E 0 c0 50
        E 4352 b0 0c 40
        E 0 b0 0b 40
        E 0 90 43 40
        E 64 b0 0b 18
        E 16 b0 0b 10
        E 16 b0 0b 08
        E 32 80 43 00
        E 16 b0 0b 40
        E 0 90 42 40
        E 16 b0 0b 38
        E 32 b0 0b 30
        E 16 b0 0b 18
        E 16 b0 0b 10
        E 32 b0 0b 08
        E 16 b0 0b 40
        E 0 80 42 00
        E 0 90 40 40
        E 16 b0 0b 38
        E 32 b0 0b 30
        E 16 b0 0b 18
        E 16 b0 0b 10
        E 32 b0 0b 08
        E 16 b0 0b 40
        E 0 80 40 00
        E 0 90 3e 40
        E 16 b0 0b 38
        E 16 b0 0b 30
        E 32 b0 0b 28
        E 16 b0 0b 18
        E 16 b0 0b 10
        E 32 b0 0b 08
        E 16 b0 0b 40
        E 0 80 3e 00
        E 0 90 3b 40
        E 16 b0 0b 38
        E 32 b0 0b 30
        E 16 b0 0b 20
        E 64 b0 0b 10
        E 64 b0 0b 08
        E 80 b0 0b 10
        E 64 b0 0b 08
        E 64 b0 0b 40
        E 0 80 3b 00
        E 0 90 3e 40
        E 64 b0 0b 20
        E 64 b0 0b 10
        E 80 b0 0b 08
        E 64 b0 0b 40
        E 0 80 3e 00
        E 0 90 3b 40
        E 64 b0 0b 18
        E 16 b0 0b 10
        E 32 b0 0b 08
        E 16 b0 0b 40
        E 0 80 3b 00
        E 0 90 3e 40
        E 16 b0 0b 38
        E 32 b0 0b 30
        E 16 b0 0b 18
        E 16 b0 0b 10
        E 16 b0 0b 08
        E 32 80 3e 00
        E 16 b0 0b 40
        E 0 90 40 40
        E 16 b0 0b 38
        E 32 b0 0b 30
        E 16 b0 0b 20
        E 64 b0 0b 10
        E 64 b0 0b 08
        E 64 b0 0b 40
        E 0 80 40 00
        E 0 90 3e 40
        E 80 b0 0b 18
        E 16 b0 0b 10
        E 32 b0 0b 08
        E 16 b0 0b 40
        E 0 80 3e 00
        E 0 90 40 40
        E 16 b0 0b 38
        E 32 b0 0b 30
        E 16 b0 0b 18
        E 16 b0 0b 10
        E 32 b0 0b 08
        E 16 b0 0b 40
        E 0 80 40 00
        E 0 90 42 40
        E 16 b0 0b 38
        E 32 b0 0b 30
        E 16 b0 0b 18
        E 16 b0 0b 10
        E 32 b0 0b 08
        E 16 80 42 00
        E 16 b0 0b 40
        E 0 90 43 40
        E 16 b0 0b 38
        E 32 b0 0b 30
        E 16 b0 0b 18
        E 16 b0 0b 10
        E 32 b0 0b 08
        E 16 b0 0b 40
        E 0 80 43 00
        E 0 90 42 40
        E 16 b0 0b 38
        E 32 b0 0b 30
        E 16 b0 0b 18
        E 16 b0 0b 10
        E 32 b0 0b 08
        E 16 b0 0b 40
        E 0 80 42 00
        E 0 90 40 40
        E 16 b0 0b 38
        E 32 b0 0b 30
        E 16 b0 0b 28
        E 16 b0 0b 18
        E 16 b0 0b 10
        E 32 b0 0b 08
        E 16 b0 0b 40
        E 0 80 40 00
        E 0 90 3e 40
        E 16 b0 0b 38
        E 32 b0 0b 30
        E 16 b0 0b 18
        E 16 b0 0b 10
        E 32 b0 0b 08
        E 16 b0 0b 40
        E 0 80 3e 00
        E 0 90 3b 40
        E 16 b0 0b 38
        E 32 b0 0b 30
        E 16 b0 0b 20
        E 80 b0 0b 10
        E 64 b0 0b 08
        E 64 b0 0b 10
        E 64 b0 0b 08
        E 64 b0 0b 40
        E 0 80 3b 00
        E 0 90 3e 40
        E 80 b0 0b 20
        E 64 b0 0b 10
        E 64 b0 0b 08
        E 64 b0 0b 40
        E 0 80 3e 00
        E 0 90 3b 40
        E 64 b0 0b 18
        E 16 b0 0b 10
        E 32 b0 0b 08
        E 16 80 3b 00
        E 16 b0 0b 40
        E 0 90 3e 40
        E 16 b0 0b 38
        E 32 b0 0b 30
        E 16 b0 0b 18
        E 16 b0 0b 10
        E 32 b0 0b 08
        E 16 b0 0b 40
        E 0 80 3e 00
        E 0 90 40 40
        E 16 b0 0b 38
        E 32 b0 0b 30
        E 16 b0 0b 20
        E 64 b0 0b 40
        E 0 80 40 00
        E 0 90 3e 40
        E 64 b0 0b 18
        E 80 b0 0b 10
        E 64 b0 0b 08
        E 16 80 3e 00
        E 48 b0 0b 10
        E 0 90 3e 10
        E 16 b0 0b 08
        E 32 80 3e 00
        E 16 90 3e 08
        E 16 80 3e 00
        E 48 b0 0b 10
        E 0 90 3e 10
        E 16 b0 0b 08
        E 16 80 3e 00
        E 48 90 3e 08
        E 16 80 3e 00
        E 48 b0 0b 40
        E 0 90 43 40
        E 64 b0 0b 18
        E 16 b0 0b 10
        E 32 b0 0b 08
        E 16 b0 0b 40
        E 0 80 43 00
        E 0 90 42 40
        E 16 b0 0b 38
        E 32 b0 0b 30
        E 16 b0 0b 18
        E 16 b0 0b 10
        E 16 b0 0b 08
        E 32 80 42 00
        E 16 b0 0b 40
        E 0 90 40 40
        E 16 b0 0b 38
        E 32 b0 0b 30
        E 16 b0 0b 18
        E 16 b0 0b 10
        E 32 b0 0b 08
        E 16 b0 0b 40
        E 0 80 40 00
        E 0 90 3e 40
        E 16 b0 0b 38
        E 32 b0 0b 30
        E 16 b0 0b 18
        E 16 b0 0b 10
        E 32 b0 0b 08
        E 16 b0 0b 40
        E 0 80 3e 00
        E 0 90 3b 40
        E 16 b0 0b 38
        E 16 b0 0b 30
        E 32 b0 0b 28
        E 16 b0 0b 20
        E 64 b0 0b 10
        E 64 b0 0b 08
        E 64 b0 0b 10
        E 64 b0 0b 08
        E 80 b0 0b 40
        E 0 80 3b 00
        E 0 90 3e 40
        E 64 b0 0b 20
        E 64 b0 0b 10
        E 64 b0 0b 08
        E 64 b0 0b 40
        E 0 80 3e 00
        E 0 90 3b 40
        E 80 b0 0b 18
        E 16 b0 0b 10
        E 32 b0 0b 08
        E 16 b0 0b 40
        E 0 80 3b 00
        E 0 90 3e 40
        E 16 b0 0b 38
        E 32 b0 0b 30
        E 16 b0 0b 18
        E 16 b0 0b 10
        E 32 b0 0b 08
        E 16 b0 0b 40
        E 0 80 3e 00
        E 0 90 40 40
        E 16 b0 0b 38
        E 32 b0 0b 30
        E 16 b0 0b 20
        E 80 b0 0b 10
        E 64 b0 0b 08
        E 64 b0 0b 40
        E 0 80 40 00
        E 0 90 3e 40
        E 64 b0 0b 18
        E 16 b0 0b 10
        E 32 b0 0b 08
        E 16 b0 0b 40
        E 0 80 3e 00
        E 0 90 40 40
        E 16 b0 0b 38
        E 32 b0 0b 30
        E 16 b0 0b 28
        E 16 b0 0b 18
        E 16 b0 0b 10
        E 32 b0 0b 08
        E 16 b0 0b 40
        E 0 80 40 00
        E 0 90 42 40
        E 16 b0 0b 38
        E 32 b0 0b 30
        E 16 b0 0b 18
        E 16 b0 0b 10
        E 32 b0 0b 08
        E 16 b0 0b 40
        E 0 80 42 00
        E 0 90 43 40
        E 16 b0 0b 38
        E 32 b0 0b 30
        E 16 b0 0b 18
        E 16 b0 0b 10
        E 32 b0 0b 08
        E 16 80 43 00
        E 16 b0 0b 40
        E 0 90 42 40
        E 16 b0 0b 38
        E 32 b0 0b 30
        E 16 b0 0b 18
        E 16 b0 0b 10
        E 32 b0 0b 08
        E 16 b0 0b 40
        E 0 80 42 00
        E 0 90 40 40
        E 16 b0 0b 38
        E 32 b0 0b 30
        E 16 b0 0b 18
        E 16 b0 0b 10
        E 32 b0 0b 08
        E 16 b0 0b 40
        E 0 80 40 00
        E 0 90 3e 40
        E 16 b0 0b 38
        E 32 b0 0b 30
        E 16 b0 0b 28
        E 16 b0 0b 18
        E 16 b0 0b 10
        E 32 b0 0b 08
        E 16 b0 0b 40
        E 0 80 3e 00
        E 0 90 3b 40
        E 16 b0 0b 38
        E 32 b0 0b 30
        E 16 b0 0b 20
        E 64 b0 0b 10
        E 64 b0 0b 08
        E 80 b0 0b 10
        E 64 b0 0b 08
        E 64 b0 0b 40
        E 0 80 3b 00
        E 0 90 3e 40
        E 64 b0 0b 20
        E 64 b0 0b 10
        E 80 b0 0b 08
        E 64 b0 0b 40
        E 0 80 3e 00
        E 0 90 3b 40
        E 64 b0 0b 18
        E 16 b0 0b 10
        E 32 b0 0b 08
        E 16 b0 0b 40
        E 0 80 3b 00
        E 0 90 3e 40
        E 16 b0 0b 38
        E 32 b0 0b 30
        E 16 b0 0b 18
        E 16 b0 0b 10
        E 32 b0 0b 08
        E 16 b0 0b 40
        E 0 80 3e 00
        E 0 90 40 40
        E 16 b0 0b 38
        E 16 b0 0b 30
        E 32 b0 0b 28
        E 16 b0 0b 20
        E 64 b0 0b 40
        E 0 80 40 00
        E 0 90 3e 40
        E 64 b0 0b 18
        E 64 b0 0b 10
        E 64 b0 0b 08
        E 16 80 3e 00
        E 64 b0 0b 10
        E 0 90 3e 10
        E 16 b0 0b 08
        E 32 80 3e 00
        E 16 90 3e 08
        E 16 80 3e 00
        E 48 b0 0b 10
        E 0 90 3e 10
        E 16 b0 0b 08
        E 32 80 3e 00
        E 16 90 3e 08
        E 16 80 3e 00
        E 48 b0 0b 40
        E 0 90 1c 40
        E 80 80 1c 00
        E 64 90 1e 40
        E 16 b0 0b 38
        E 32 b0 0b 30
        E 16 b0 0b 18
        E 0 80 1e 00
        E 0 90 1c 18
        E 16 b0 0b 10
        E 32 b0 0b 08
        E 16 b0 0b 40
        E 0 80 1c 00
        E 0 90 1f 40
        E 16 b0 0b 38
        E 32 b0 0b 30
        E 16 b0 0b 18
        E 0 80 1f 00
        E 0 90 1e 18
        E 16 b0 0b 10
        E 16 b0 0b 08
        E 32 80 1e 00
        E 16 b0 0b 40
        E 0 90 21 40
        E 16 b0 0b 38
        E 32 b0 0b 30
        E 16 b0 0b 18
        E 0 80 21 00
        E 0 90 1f 18
        E 16 b0 0b 10
        E 32 b0 0b 08
        E 16 b0 0b 40
        E 0 80 1f 00
        E 0 90 23 40
        E 16 b0 0b 38
        E 32 b0 0b 30
        E 16 b0 0b 18
        E 0 80 23 00
        E 0 90 21 18
        E 16 b0 0b 10
        E 32 b0 0b 08
        E 16 b0 0b 40
        E 0 80 21 00
        E 0 90 24 40
        E 16 b0 0b 38
        E 16 b0 0b 30
        E 32 b0 0b 28
        E 16 b0 0b 18
        E 0 80 24 00
        E 0 90 23 18
        E 16 b0 0b 10
        E 32 b0 0b 08
        E 16 b0 0b 40
        E 0 80 23 00
        E 0 90 26 40
        E 16 b0 0b 38
        E 32 b0 0b 30
        E 16 b0 0b 18
        E 0 80 26 00
        E 0 90 24 18
        E 16 b0 0b 10
        E 32 b0 0b 08
        E 16 b0 0b 40
        E 0 80 24 00
        E 0 90 28 40
        E 16 b0 0b 38
        E 32 b0 0b 30
        E 16 b0 0b 10
        E 0 80 28 00
        E 0 90 26 10
        E 80 b0 0b 40
        E 0 80 26 00
        E 0 90 3c 40
        E 64 b0 0b 18
        E 16 b0 0b 10
        E 32 b0 0b 08
        E 16 b0 0b 40
        E 0 80 3c 00
        E 0 90 3b 40
        E 16 b0 0b 38
        E 32 b0 0b 30
        E 16 b0 0b 18
        E 16 b0 0b 10
        E 32 b0 0b 08
        E 16 b0 0b 40
        E 0 80 3b 00
        E 0 90 39 40
        E 16 b0 0b 38
        E 32 b0 0b 30
        E 16 b0 0b 28
        E 16 b0 0b 18
        E 16 b0 0b 10
        E 32 b0 0b 08
        E 16 b0 0b 40
        E 0 80 39 00
        E 0 90 37 40
        E 16 b0 0b 38
        E 32 b0 0b 30
        E 16 b0 0b 18
        E 16 b0 0b 10
        E 32 b0 0b 08
        E 16 b0 0b 40
        E 0 80 37 00
        E 0 90 34 40
        E 16 b0 0b 38
        E 32 b0 0b 30
        E 16 b0 0b 20
        E 80 b0 0b 10
        E 64 b0 0b 08
        E 64 b0 0b 10
        E 64 b0 0b 08
        E 64 b0 0b 40
        E 0 80 34 00
        E 0 90 37 40
        E 80 b0 0b 20
        E 64 b0 0b 10
        E 64 b0 0b 08
        E 64 b0 0b 40
        E 0 80 37 00
        E 0 90 34 40
        E 64 b0 0b 18
        E 16 b0 0b 10
        E 32 b0 0b 08
        E 16 80 34 00
        E 16 b0 0b 40
        E 0 90 37 40
        E 16 b0 0b 38
        E 32 b0 0b 30
        E 16 b0 0b 18
        E 16 b0 0b 10
        E 32 b0 0b 08
        E 16 b0 0b 40
        E 0 80 37 00
        E 0 90 39 40
        E 16 b0 0b 38
        E 32 b0 0b 30
        E 16 b0 0b 20
        E 64 b0 0b 10
        E 80 b0 0b 08
        E 64 b0 0b 40
        E 0 80 39 00
        E 0 90 37 40
        E 64 b0 0b 18
        E 16 b0 0b 10
        E 32 b0 0b 08
        E 16 b0 0b 40
        E 0 80 37 00
        E 0 90 39 40
        E 16 b0 0b 38
        E 32 b0 0b 30
        E 16 b0 0b 18
        E 16 b0 0b 10
        E 32 b0 0b 08
        E 16 80 39 00
        E 16 b0 0b 40
        E 0 90 3b 40
        E 16 b0 0b 38
        E 32 b0 0b 30
        E 16 b0 0b 18
        E 16 b0 0b 10
        E 32 b0 0b 08
        E 16 b0 0b 40
        E 0 80 3b 00
        E 0 90 3c 40
        E 16 b0 0b 38
        E 32 b0 0b 30
        E 16 b0 0b 18
        E 16 b0 0b 10
        E 32 b0 0b 08
        E 16 b0 0b 40
        E 0 80 3c 00
        E 0 90 3b 40
        E 16 b0 0b 38
        E 32 b0 0b 30
        E 16 b0 0b 18
        E 16 b0 0b 10
        E 16 b0 0b 08
        E 32 80 3b 00
        E 16 b0 0b 40
        E 0 90 39 40
        E 16 b0 0b 38
        E 32 b0 0b 30
        E 16 b0 0b 18
        E 16 b0 0b 10
        E 32 b0 0b 08
        E 16 b0 0b 40
        E 0 80 39 00
        E 0 90 37 40
        E 16 b0 0b 38
        E 32 b0 0b 30
        E 16 b0 0b 18
        E 16 b0 0b 10
        E 32 b0 0b 08
        E 16 b0 0b 40
        E 0 80 37 00
        E 0 90 34 40
        E 16 b0 0b 38
        E 16 b0 0b 30
        E 32 b0 0b 28
        E 16 b0 0b 20
        E 64 b0 0b 10
        E 64 b0 0b 08
        E 64 b0 0b 10
        E 64 b0 0b 08
        E 80 b0 0b 40
        E 0 80 34 00
        E 0 90 37 40
        E 64 b0 0b 20
        E 64 b0 0b 10
        E 64 b0 0b 08
        E 64 b0 0b 40
        E 0 80 37 00
        E 0 90 34 40
        E 80 b0 0b 18
        E 16 b0 0b 10
        E 32 b0 0b 08
        E 16 b0 0b 40
        E 0 80 34 00
        E 0 90 37 40
        E 16 b0 0b 38
        E 32 b0 0b 30
        E 16 b0 0b 18
        E 16 b0 0b 10
        E 32 b0 0b 08
        E 16 b0 0b 40
        E 0 80 37 00
        E 0 90 39 40
        E 16 b0 0b 38
        E 32 b0 0b 30
        E 16 b0 0b 20
        E 80 b0 0b 40
        E 0 80 39 00
        E 0 90 37 40
        E 64 b0 0b 18
        E 64 b0 0b 10
        E 64 b0 0b 08
        E 16 80 37 00
        E 48 b0 0b 10
        E 0 90 37 10
        E 16 b0 0b 08
        E 16 80 37 00
        E 48 90 37 08
        E 16 80 37 00
        E 48 b0 0b 10
        E 0 90 37 10
        E 16 b0 0b 08
        E 32 80 37 00
        E 16 90 37 08
        E 16 80 37 00
        E 48 b0 0b 40
        E 0 90 3c 40
        E 64 b0 0b 18
        E 16 b0 0b 10
        E 32 b0 0b 08
        E 16 80 3c 00
        E 16 b0 0b 40
        E 0 90 3b 40
        E 16 b0 0b 38
        E 32 b0 0b 30
        E 16 b0 0b 18
        E 16 b0 0b 10
        E 32 b0 0b 08
        E 16 b0 0b 40
        E 0 80 3b 00
        E 0 90 39 40
        E 16 b0 0b 38
        E 32 b0 0b 30
        E 16 b0 0b 18
        E 16 b0 0b 10
        E 32 b0 0b 08
        E 16 b0 0b 40
        E 0 80 39 00
        E 0 90 37 40
        E 16 b0 0b 38
        E 32 b0 0b 30
        E 16 b0 0b 28
        E 16 b0 0b 18
        E 16 b0 0b 10
        E 32 b0 0b 08
        E 16 b0 0b 40
        E 0 80 37 00
        E 0 90 34 40
        E 16 b0 0b 38
        E 32 b0 0b 30
        E 16 b0 0b 20
        E 64 b0 0b 10
        E 64 b0 0b 08
        E 80 b0 0b 10
        E 64 b0 0b 08
        E 64 b0 0b 40
        E 0 80 34 00
        E 0 90 37 40
        E 64 b0 0b 20
        E 64 b0 0b 10
        E 80 b0 0b 08
        E 64 b0 0b 40
        E 0 80 37 00
        E 0 90 34 40
        E 64 b0 0b 18
        E 16 b0 0b 10
        E 32 b0 0b 08
        E 16 b0 0b 40
        E 0 80 34 00
        E 0 90 37 40
        E 16 b0 0b 38
        E 32 b0 0b 30
        E 16 b0 0b 18
        E 16 b0 0b 10
        E 32 b0 0b 08
        E 16 80 37 00
        E 16 b0 0b 40
        E 0 90 39 40
        E 16 b0 0b 38
        E 32 b0 0b 30
        E 16 b0 0b 20
        E 64 b0 0b 10
        E 64 b0 0b 08
        E 64 b0 0b 40
        E 0 80 39 00
        E 0 90 37 40
        E 80 b0 0b 18
        E 16 b0 0b 10
        E 32 b0 0b 08
        E 16 b0 0b 40
        E 0 80 37 00
        E 0 90 39 40
        E 16 b0 0b 38
        E 32 b0 0b 30
        E 16 b0 0b 18
        E 16 b0 0b 10
        E 32 b0 0b 08
        E 16 b0 0b 40
        E 0 80 39 00
        E 0 90 3b 40
        E 16 b0 0b 38
        E 32 b0 0b 30
        E 16 b0 0b 18
        E 16 b0 0b 10
        E 32 b0 0b 08
        E 16 b0 0b 40
        E 0 80 3b 00
        E 0 90 3c 40
        E 16 b0 0b 38
        E 16 b0 0b 30
        E 32 b0 0b 28
        E 16 b0 0b 18
        E 16 b0 0b 10
        E 32 b0 0b 08
        E 16 b0 0b 40
        E 0 80 3c 00
        E 0 90 3b 40
        E 16 b0 0b 38
        E 32 b0 0b 30
        E 16 b0 0b 18
        E 16 b0 0b 10
        E 32 b0 0b 08
        E 16 b0 0b 40
        E 0 80 3b 00
        E 0 90 39 40
        E 16 b0 0b 38
        E 32 b0 0b 30
        E 16 b0 0b 18
        E 16 b0 0b 10
        E 16 b0 0b 08
        E 32 80 39 00
        E 16 b0 0b 40
        E 0 90 37 40
        E 16 b0 0b 38
        E 32 b0 0b 30
        E 16 b0 0b 18
        E 16 b0 0b 10
        E 32 b0 0b 08
        E 16 b0 0b 40
        E 0 80 37 00
        E 0 90 34 40
        E 16 b0 0b 38
        E 32 b0 0b 30
        E 16 b0 0b 20
        E 64 b0 0b 10
        E 80 b0 0b 08
        E 64 b0 0b 10
        E 64 b0 0b 08
        E 64 b0 0b 40
        E 0 80 34 00
        E 0 90 37 40
        E 64 b0 0b 20
        E 80 b0 0b 10
        E 64 b0 0b 08
        E 64 b0 0b 40
        E 0 80 37 00
        E 0 90 34 40
        E 64 b0 0b 18
        E 16 b0 0b 10
        E 32 b0 0b 08
        E 16 b0 0b 40
        E 0 80 34 00
        E 0 90 37 40
        E 16 b0 0b 38
        E 16 b0 0b 30
        E 32 b0 0b 28
        E 16 b0 0b 18
        E 16 b0 0b 10
        E 32 b0 0b 08
        E 16 b0 0b 40
        E 0 80 37 00
        E 0 90 39 40
        E 16 b0 0b 38
        E 32 b0 0b 30
        E 16 b0 0b 20
        E 64 b0 0b 40
        E 0 80 39 00
        E 0 90 37 40
        E 64 b0 0b 18
        E 80 b0 0b 10
        E 64 b0 0b 08
        E 16 80 37 00
        E 48 b0 0b 10
        E 0 90 37 10
        E 16 b0 0b 08
        E 32 80 37 00
        E 16 90 37 08
        E 16 80 37 00
        E 48 b0 0b 10
        E 0 90 37 10
        E 16 b0 0b 08
        E 32 80 37 00
        E 32 90 37 08
        E 16 80 37 00
        E 48 b0 0b 40
        E 0 90 43 40
        E 64 b0 0b 18
        E 16 b0 0b 10
        E 32 b0 0b 08
        E 16 b0 0b 40
        E 0 80 43 00
        E 0 90 42 40
        E 16 b0 0b 38
        E 32 b0 0b 30
        E 16 b0 0b 18
        E 16 b0 0b 10
        E 32 b0 0b 08
        E 16 80 42 00
        E 16 b0 0b 40
        E 0 90 40 40
        E 16 b0 0b 38
        E 32 b0 0b 30
        E 16 b0 0b 18
        E 16 b0 0b 10
        E 32 b0 0b 08
        E 16 b0 0b 40
        E 0 80 40 00
        E 0 90 3e 40
        E 16 b0 0b 38
        E 32 b0 0b 30
        E 16 b0 0b 18
        E 16 b0 0b 10
        E 32 b0 0b 08
        E 16 b0 0b 40
        E 0 80 3e 00
        E 0 90 3b 40
        E 16 b0 0b 38
        E 32 b0 0b 30
        E 16 b0 0b 28
        E 16 b0 0b 20
        E 64 b0 0b 10
        E 64 b0 0b 08
        E 64 b0 0b 10
        E 64 b0 0b 08
        E 80 b0 0b 40
        E 0 80 3b 00
        E 0 90 3e 40
        E 64 b0 0b 20
        E 64 b0 0b 10
        E 64 b0 0b 08
        E 64 b0 0b 40
        E 0 80 3e 00
        E 0 90 3b 40
        E 80 b0 0b 18
        E 16 b0 0b 10
        E 32 b0 0b 08
        E 16 b0 0b 40
        E 0 80 3b 00
        E 0 90 3e 40
        E 16 b0 0b 38
        E 32 b0 0b 30
        E 16 b0 0b 18
        E 16 b0 0b 10
        E 32 b0 0b 08
        E 16 b0 0b 40
        E 0 80 3e 00
        E 0 90 40 40
        E 16 b0 0b 38
        E 32 b0 0b 30
        E 16 b0 0b 20
        E 80 b0 0b 10
        E 64 b0 0b 08
        E 64 b0 0b 40
        E 0 80 40 00
        E 0 90 3e 40
        E 64 b0 0b 18
        E 16 b0 0b 10
        E 32 b0 0b 08
        E 16 b0 0b 40
        E 0 80 3e 00
        E 0 90 40 40
        E 16 b0 0b 38
        E 32 b0 0b 30
        E 16 b0 0b 18
        E 16 b0 0b 10
        E 16 b0 0b 08
        E 32 80 40 00
        E 16 b0 0b 40
        E 0 90 42 40
        E 16 b0 0b 38
        E 32 b0 0b 30
        E 16 b0 0b 18
        E 16 b0 0b 10
        E 32 b0 0b 08
        E 16 b0 0b 40
        E 0 80 42 00
        E 0 90 43 40
        E 16 b0 0b 38
        E 32 b0 0b 30
        E 16 b0 0b 18
        E 16 b0 0b 10
        E 32 b0 0b 08
        E 16 b0 0b 40
        E 0 80 43 00
        E 0 90 42 40
        E 16 b0 0b 38
        E 16 b0 0b 30
        E 32 b0 0b 28
        E 16 b0 0b 18
        E 16 b0 0b 10
        E 32 b0 0b 08
        E 16 b0 0b 40
        E 0 80 42 00
        E 0 90 40 40
        E 16 b0 0b 38
        E 32 b0 0b 30
        E 16 b0 0b 18
        E 16 b0 0b 10
        E 32 b0 0b 08
        E 16 b0 0b 40
        E 0 80 40 00
        E 0 90 3e 40
        E 16 b0 0b 38
        E 32 b0 0b 30
        E 16 b0 0b 18
        E 16 b0 0b 10
        E 16 b0 0b 08
        E 32 80 3e 00
        E 16 b0 0b 40
        E 0 90 3b 40
        E 16 b0 0b 38
        E 32 b0 0b 30
        E 16 b0 0b 20
        E 64 b0 0b 10
        E 64 b0 0b 08
        E 64 b0 0b 10
        E 80 b0 0b 08
        E 64 b0 0b 40
        E 0 80 3b 00
        E 0 90 3e 40
        E 64 b0 0b 20
        E 64 b0 0b 10
        E 64 b0 0b 08
        E 80 b0 0b 40
        E 0 80 3e 00
        E 0 90 3b 40
        E 64 b0 0b 18
        E 16 b0 0b 10
        E 32 b0 0b 08
        E 16 b0 0b 40
        E 0 80 3b 00
        E 0 90 3e 40
        E 16 b0 0b 38
        E 32 b0 0b 30
        E 16 b0 0b 18
        E 16 b0 0b 10
        E 32 b0 0b 08
        E 16 b0 0b 40
        E 0 80 3e 00
        E 0 90 40 40
        E 16 b0 0b 38
        E 16 b0 0b 30
        E 32 b0 0b 28
        E 16 b0 0b 20
        E 64 b0 0b 40
        E 0 80 40 00
        E 0 90 3e 40
        E 64 b0 0b 18
        E 64 b0 0b 10
        E 64 b0 0b 08
        E 16 80 3e 00
        E 64 b0 0b 10
        E 0 90 3e 10
        E 16 b0 0b 08
        E 32 80 3e 00
        E 16 90 3e 08
        E 16 80 3e 00
        E 48 b0 0b 10
        E 0 90 3e 10
        E 16 b0 0b 08
        E 32 80 3e 00
        E 16 90 3e 08
        E 16 80 3e 00
        E 48 b0 0b 40
        E 0 90 43 40
        E 80 b0 0b 18
        E 16 b0 0b 10
        E 32 b0 0b 08
        E 16 b0 0b 40
        E 0 80 43 00
        E 0 90 42 40
        E 16 b0 0b 38
        E 32 b0 0b 30
        E 16 b0 0b 18
        E 16 b0 0b 10
        E 32 b0 0b 08
        E 16 b0 0b 40
        E 0 80 42 00
        E 0 90 40 40
        E 16 b0 0b 38
        E 32 b0 0b 30
        E 16 b0 0b 18
        E 16 b0 0b 10
        E 32 b0 0b 08
        E 16 80 40 00
        E 16 b0 0b 40
        E 0 90 3e 40
        E 16 b0 0b 38
        E 32 b0 0b 30
        E 16 b0 0b 18
        E 16 b0 0b 10
        E 32 b0 0b 08
        E 16 b0 0b 40
        E 0 80 3e 00
        E 0 90 3b 40
        E 16 b0 0b 38
        E 32 b0 0b 30
        E 16 b0 0b 20
        E 64 b0 0b 10
        E 80 b0 0b 08
        E 64 b0 0b 10
        E 64 b0 0b 08
        E 64 b0 0b 40
        E 0 80 3b 00
        E 0 90 3e 40
        E 64 b0 0b 20
        E 80 b0 0b 10
        E 64 b0 0b 08
        E 64 b0 0b 40
        E 0 80 3e 00
        E 0 90 3b 40
        E 64 b0 0b 18
        E 16 b0 0b 10
        E 32 b0 0b 08
        E 16 b0 0b 40
        E 0 80 3b 00
        E 0 90 3e 40
        E 16 b0 0b 38
        E 32 b0 0b 30
        E 16 b0 0b 28
        E 16 b0 0b 18
        E 16 b0 0b 10
        E 32 b0 0b 08
        E 16 b0 0b 40
        E 0 80 3e 00
        E 0 90 40 40
        E 16 b0 0b 38
        E 32 b0 0b 30
        E 16 b0 0b 20
        E 64 b0 0b 10
        E 64 b0 0b 08
        E 64 b0 0b 40
        E 0 80 40 00
        E 0 90 3e 40
        E 80 b0 0b 18
        E 16 b0 0b 10
        E 32 b0 0b 08
        E 16 b0 0b 40
        E 0 80 3e 00
        E 0 90 40 40
        E 16 b0 0b 38
        E 32 b0 0b 30
        E 16 b0 0b 18
        E 16 b0 0b 10
        E 32 b0 0b 08
        E 16 b0 0b 40
        E 0 80 40 00
        E 0 90 42 40
        E 16 b0 0b 38
        E 32 b0 0b 30
        E 16 b0 0b 18
        E 16 b0 0b 10
        E 16 b0 0b 08
        E 32 80 42 00
        E 16 b0 0b 40
        E 0 90 43 40
        E 16 b0 0b 38
        E 32 b0 0b 30
        E 16 b0 0b 18
        E 16 b0 0b 10
        E 32 b0 0b 08
        E 16 b0 0b 40
        E 0 80 43 00
        E 0 90 42 40
        E 16 b0 0b 38
        E 32 b0 0b 30
        E 16 b0 0b 18
        E 16 b0 0b 10
        E 32 b0 0b 08
        E 16 b0 0b 40
        E 0 80 42 00
        E 0 90 40 40
        E 16 b0 0b 38
        E 16 b0 0b 30
        E 32 b0 0b 28
        E 16 b0 0b 18
        E 16 b0 0b 10
        E 32 b0 0b 08
        E 16 b0 0b 40
        E 0 80 40 00
        E 0 90 3e 40
        E 16 b0 0b 38
        E 32 b0 0b 30
        E 16 b0 0b 18
        E 16 b0 0b 10
        E 32 b0 0b 08
        E 16 b0 0b 40
        E 0 80 3e 00
        E 0 90 3b 40
        E 16 b0 0b 38
        E 32 b0 0b 30
        E 16 b0 0b 20
        E 80 b0 0b 10
        E 64 b0 0b 08
        E 64 b0 0b 10
        E 64 b0 0b 08
        E 64 b0 0b 40
        E 0 80 3b 00
        E 0 90 3e 40
        E 80 b0 0b 20
        E 64 b0 0b 10
        E 64 b0 0b 08
        E 64 b0 0b 40
        E 0 80 3e 00
        E 0 90 3b 40
        E 64 b0 0b 18
        E 16 b0 0b 10
        E 16 b0 0b 08
        E 32 80 3b 00
        E 16 b0 0b 40
        E 0 90 3e 40
        E 16 b0 0b 38
        E 32 b0 0b 30
        E 16 b0 0b 18
        E 16 b0 0b 10
        E 32 b0 0b 08
        E 16 b0 0b 40
        E 0 80 3e 00
        E 0 90 40 40
        E 16 b0 0b 38
        E 32 b0 0b 30
        E 16 b0 0b 20
        E 64 b0 0b 40
        E 0 80 40 00
        E 0 90 3e 40
        E 80 b0 0b 18
        E 64 b0 0b 10
        E 64 b0 0b 08
        E 16 80 3e 00
        E 48 b0 0b 10
        E 0 90 3e 10
        E 16 b0 0b 08
        E 32 80 3e 00
        E 16 90 3e 08
        E 16 80 3e 00
        E 64 b0 0b 10
        E 0 90 3e 10
        E 16 b0 0b 08
        E 32 80 3e 00
        E 16 90 3e 08
        E 16 80 3e 00
        E 48 b0 0c 10
        E 0 b0 0b 40
        E 0 90 31 40
        E 16 b0 0b 38
        E 32 b0 0b 30
        E 16 b0 0b 18
        E 64 b0 0b 28
        E 0 80 31 00
        E 0 90 32 28
        E 80 b0 0b 18
        E 64 b0 0b 08
        E 64 b0 0b 18
        E 64 b0 0b 28
        E 64 b0 0b 18
        E 80 b0 0b 08
        E 64 b0 0b 18
        E 64 b0 0b 28
        E 64 b0 0b 18
        E 64 b0 0b 08
        E 80 b0 0b 18
        E 64 b0 0b 28
        E 64 b0 0b 18
        E 64 b0 0b 40
        E 64 b0 0b 18
        E 80 b0 0b 28
        E 0 80 32 00
        E 0 90 33 28
        E 64 b0 0b 18
        E 64 b0 0b 08
        E 64 b0 0b 18
        E 64 b0 0b 28
        E 64 b0 0b 18
        E 80 b0 0b 08
        E 64 b0 0b 18
        E 64 b0 0b 28
        E 64 b0 0b 18
        E 64 b0 0b 08
        E 80 b0 0b 18
        E 64 b0 0b 28
        E 64 b0 0b 18
        E 64 b0 0b 40
        E 64 b0 0b 18
        E 80 b0 0b 28
        E 0 80 33 00
        E 0 90 34 28
        E 64 b0 0b 18
        E 64 b0 0b 08
        E 64 b0 0b 18
        E 64 b0 0b 28
        E 80 b0 0b 18
        E 64 b0 0b 08
        E 64 b0 0b 18
        E 64 b0 0b 28
        E 64 b0 0b 18
        E 80 b0 0b 08
        E 64 b0 0b 18
        E 64 b0 0b 28
        E 64 b0 0b 18
        E 64 b0 0b 40
        E 80 b0 0b 18
        E 64 b0 0b 28
        E 0 80 34 00
        E 0 90 33 28
        E 64 b0 0b 18
        E 64 b0 0b 08
        E 64 b0 0b 18
        E 80 b0 0b 28
        E 64 b0 0b 18
        E 64 b0 0b 08
        E 64 b0 0b 18
        E 64 b0 0b 28
        E 80 b0 0b 18
        E 64 b0 0b 08
        E 64 b0 0b 18
        E 64 b0 0b 28
        E 64 b0 0b 18
        E 80 b0 0b 40
        E 0 80 33 00
        E 0 90 2c 40
        E 16 b0 0b 38
        E 32 b0 0b 30
        E 16 b0 0b 18
        E 64 b0 0b 28
        E 0 80 2c 00
        E 0 90 2d 28
        E 64 b0 0b 18
        E 64 b0 0b 08
        E 80 b0 0b 18
        E 64 b0 0b 28
        E 64 b0 0b 18
        E 64 b0 0b 08
        E 64 b0 0b 18
        E 80 b0 0b 28
        E 64 b0 0b 18
        E 64 b0 0b 08
        E 64 b0 0b 18
        E 64 b0 0b 28
        E 80 b0 0b 18
        E 64 b0 0b 40
        E 64 b0 0b 18
        E 64 b0 0b 28
        E 0 80 2d 00
        E 0 90 2e 28
        E 64 b0 0b 18
        E 64 b0 0b 08
        E 80 b0 0b 18
        E 64 b0 0b 28
        E 64 b0 0b 18
        E 64 b0 0b 08
        E 64 b0 0b 18
        E 80 b0 0b 28
        E 64 b0 0b 18
        E 64 b0 0b 08
        E 64 b0 0b 18
        E 64 b0 0b 28
        E 80 b0 0b 18
        E 64 b0 0b 40
        E 64 b0 0b 18
        E 64 b0 0b 28
        E 0 80 2e 00
        E 0 90 2f 28
        E 64 b0 0b 18
        E 80 b0 0b 08
        E 64 b0 0b 18
        E 64 b0 0b 28
        E 64 b0 0b 18
        E 64 b0 0b 08
        E 80 b0 0b 18
        E 64 b0 0b 28
        E 64 b0 0b 18
        E 64 b0 0b 08
        E 64 b0 0b 18
        E 80 b0 0b 28
        E 64 b0 0b 18
        E 64 b0 0b 40
        E 64 b0 0b 18
        E 64 b0 0b 28
        E 0 80 2f 00
        E 0 90 2e 28
        E 80 b0 0b 18
        E 64 b0 0b 08
        E 64 b0 0b 18
        E 64 b0 0b 28
        E 64 b0 0b 18
        E 80 b0 0b 08
        E 64 b0 0b 18
        E 64 b0 0b 28
        E 64 b0 0b 18
        E 64 b0 0b 08
        E 80 b0 0b 18
        E 64 b0 0b 28
        E 64 b0 0b 18
        E 64 b0 0b 40
        E 0 80 2e 00
        E 0 90 33 40
        E 16 b0 0b 38
        E 32 b0 0b 30
        E 16 b0 0b 18
        E 80 b0 0b 28
        E 0 80 33 00
        E 0 90 34 28
        E 64 b0 0b 18
        E 64 b0 0b 08
        E 64 b0 0b 18
        E 64 b0 0b 28
        E 80 b0 0b 18
        E 64 b0 0b 08
        E 64 b0 0b 18
        E 64 b0 0b 28
        E 64 b0 0b 18
        E 80 b0 0b 08
        E 64 b0 0b 18
        E 64 b0 0b 28
        E 64 b0 0b 18
        E 64 b0 0b 40
        E 64 b0 0b 18
        E 80 b0 0b 28
        E 0 80 34 00
        E 0 90 35 28
        E 64 b0 0b 18
        E 64 b0 0b 08
        E 64 b0 0b 18
        E 64 b0 0b 28
        E 80 b0 0b 18
        E 64 b0 0b 08
        E 64 b0 0b 18
        E 64 b0 0b 28
        E 64 b0 0b 18
        E 80 b0 0b 08
        E 64 b0 0b 18
        E 64 b0 0b 28
        E 64 b0 0b 18
        E 64 b0 0b 40
        E 80 b0 0b 18
        E 64 b0 0b 28
        E 0 80 35 00
        E 0 90 36 28
        E 64 b0 0b 18
        E 64 b0 0b 08
        E 64 b0 0b 18
        E 80 b0 0b 28
        E 64 b0 0b 18
        E 64 b0 0b 08
        E 64 b0 0b 18
        E 64 b0 0b 28
        E 80 b0 0b 18
        E 64 b0 0b 08
        E 64 b0 0b 18
        E 64 b0 0b 28
        E 64 b0 0b 18
        E 80 b0 0b 40
        E 64 b0 0b 18
        E 64 b0 0b 28
        E 0 80 36 00
        E 0 90 35 28
        E 64 b0 0b 18
        E 64 b0 0b 08
        E 80 b0 0b 18
        E 64 b0 0b 28
        E 64 b0 0b 18
        E 64 b0 0b 08
        E 64 b0 0b 18
        E 80 b0 0b 28
        E 64 b0 0b 18
        E 64 b0 0b 08
        E 64 b0 0b 18
        E 64 b0 0b 28
        E 80 b0 0b 18
        E 64 b0 0b 40
        E 0 80 35 00
        E 0 90 2e 40
        E 16 b0 0b 38
        E 32 b0 0b 30
        E 16 b0 0b 18
        E 64 b0 0b 28
        E 0 80 2e 00
        E 0 90 2f 28
        E 64 b0 0b 18
        E 80 b0 0b 08
        E 64 b0 0b 18
        E 64 b0 0b 28
        E 64 b0 0b 18
        E 64 b0 0b 08
        E 80 b0 0b 18
        E 64 b0 0b 28
        E 64 b0 0b 18
        E 64 b0 0b 08
        E 64 b0 0b 18
        E 64 b0 0b 28
        E 80 b0 0b 18
        E 64 b0 0b 40
        E 64 b0 0b 18
        E 64 b0 0b 28
        E 0 80 2f 00
        E 0 90 30 28
        E 64 b0 0b 18
        E 80 b0 0b 08
        E 64 b0 0b 18
        E 64 b0 0b 28
        E 64 b0 0b 18
        E 64 b0 0b 08
        E 80 b0 0b 18
        E 64 b0 0b 28
        E 64 b0 0b 18
        E 64 b0 0b 08
        E 64 b0 0b 18
        E 80 b0 0b 28
        E 64 b0 0b 18
        E 64 b0 0b 40
        E 64 b0 0b 18
        E 64 b0 0b 28
        E 0 80 30 00
        E 0 90 31 28
        E 80 b0 0b 18
        E 64 b0 0b 08
        E 64 b0 0b 18
        E 64 b0 0b 28
        E 64 b0 0b 18
        E 80 b0 0b 08
        E 64 b0 0b 18
        E 64 b0 0b 28
        E 64 b0 0b 18
        E 64 b0 0b 08
        E 80 b0 0b 18
        E 64 b0 0b 28
        E 64 b0 0b 18
        E 64 b0 0b 40
        E 64 b0 0b 18
        E 80 b0 0b 28
        E 0 80 31 00
        E 0 90 30 28
        E 64 b0 0b 18
        E 64 b0 0b 08
        E 64 b0 0b 18
        E 64 b0 0b 28
        E 80 b0 0b 18
        E 64 b0 0b 08
        E 64 b0 0b 18
        E 64 b0 0b 28
        E 64 b0 0b 18
        E 80 b0 0b 08
        E 64 b0 0b 18
        E 64 b0 0b 28
        E 64 b0 0b 18
        E 64 80 30 00
        E 4304 b0 0c 40
        E 0 b0 0b 40
        E 0 90 43 40
        E 64 b0 0b 18
        E 16 b0 0b 10
        E 32 b0 0b 08
        E 16 b0 0b 40
        E 0 80 43 00
        E 0 90 42 40
        E 16 b0 0b 38
        E 32 b0 0b 30
        E 16 b0 0b 28
        E 16 b0 0b 18
        E 16 b0 0b 10
        E 32 b0 0b 08
        E 16 b0 0b 40
        E 0 80 42 00
        E 0 90 40 40
        E 16 b0 0b 38
        E 32 b0 0b 30
        E 16 b0 0b 18
        E 16 b0 0b 10
        E 32 b0 0b 08
        E 16 b0 0b 40
        E 0 80 40 00
        E 0 90 3e 40
        E 16 b0 0b 38
        E 32 b0 0b 30
        E 16 b0 0b 18
        E 16 b0 0b 10
        E 32 b0 0b 08
        E 16 b0 0b 40
        E 0 80 3e 00
        E 0 90 3b 40
        E 16 b0 0b 38
        E 16 b0 0b 30
        E 32 b0 0b 28
        E 16 b0 0b 20
        E 64 b0 0b 10
        E 64 b0 0b 08
        E 64 b0 0b 10
        E 64 b0 0b 08
        E 80 b0 0b 40
        E 0 80 3b 00
        E 0 90 3e 40
        E 64 b0 0b 20
        E 64 b0 0b 10
        E 64 b0 0b 08
        E 64 b0 0b 40
        E 0 80 3e 00
        E 0 90 3b 40
        E 80 b0 0b 18
        E 16 b0 0b 10
        E 32 b0 0b 08
        E 16 b0 0b 40
        E 0 80 3b 00
        E 0 90 3e 40
        E 16 b0 0b 38
        E 32 b0 0b 30
        E 16 b0 0b 18
        E 16 b0 0b 10
        E 32 b0 0b 08
        E 16 b0 0b 40
        E 0 80 3e 00
        E 0 90 40 40
        E 16 b0 0b 38
        E 32 b0 0b 30
        E 16 b0 0b 20
        E 80 b0 0b 10
        E 64 b0 0b 08
        E 64 b0 0b 40
        E 0 80 40 00
        E 0 90 3e 40
        E 64 b0 0b 18
        E 16 b0 0b 10
        E 32 b0 0b 08
        E 16 b0 0b 40
        E 0 80 3e 00
        E 0 90 40 40
        E 16 b0 0b 38
        E 16 b0 0b 30
        E 32 b0 0b 28
        E 16 b0 0b 18
        E 16 b0 0b 10
        E 32 b0 0b 08
        E 16 b0 0b 40
        E 0 80 40 00
        E 0 90 42 40
        E 16 b0 0b 38
        E 32 b0 0b 30
        E 16 b0 0b 18
        E 16 b0 0b 10
        E 32 b0 0b 08
        E 16 b0 0b 40
        E 0 80 42 00
        E 0 90 43 40
        E 16 b0 0b 38
        E 32 b0 0b 30
        E 16 b0 0b 18
        E 16 b0 0b 10
        E 16 b0 0b 08
        E 32 80 43 00
        E 16 b0 0b 40
        E 0 90 42 40
        E 16 b0 0b 38
        E 32 b0 0b 30
        E 16 b0 0b 18
        E 16 b0 0b 10
        E 32 b0 0b 08
        E 16 b0 0b 40
        E 0 80 42 00
        E 0 90 40 40
        E 16 b0 0b 38
        E 32 b0 0b 30
        E 16 b0 0b 18
        E 16 b0 0b 10
        E 32 b0 0b 08
        E 16 b0 0b 40
        E 0 80 40 00
        E 0 90 3e 40
        E 16 b0 0b 38
        E 32 b0 0b 30
        E 16 b0 0b 28
        E 16 b0 0b 18
        E 16 b0 0b 10
        E 32 b0 0b 08
        E 16 b0 0b 40
        E 0 80 3e 00
        E 0 90 3b 40
        E 16 b0 0b 38
        E 32 b0 0b 30
        E 16 b0 0b 20
        E 64 b0 0b 10
        E 64 b0 0b 08
        E 80 b0 0b 10
        E 64 b0 0b 08
        E 64 b0 0b 40
        E 0 80 3b 00
        E 0 90 3e 40
        E 64 b0 0b 20
        E 64 b0 0b 10
        E 80 b0 0b 08
        E 64 b0 0b 40
        E 0 80 3e 00
        E 0 90 3b 40
        E 64 b0 0b 18
        E 16 b0 0b 10
        E 32 b0 0b 08
        E 16 b0 0b 40
        E 0 80 3b 00
        E 0 90 3e 40
        E 16 b0 0b 38
        E 32 b0 0b 30
        E 16 b0 0b 18
        E 16 b0 0b 10
        E 32 b0 0b 08
        E 16 80 3e 00
        E 16 b0 0b 40
        E 0 90 40 40
        E 16 b0 0b 38
        E 32 b0 0b 30
        E 16 b0 0b 20
        E 64 b0 0b 40
        E 0 80 40 00
        E 0 90 3e 40
        E 64 b0 0b 18
        E 64 b0 0b 10
        E 80 b0 0b 08
        E 16 80 3e 00
        E 48 b0 0b 10
        E 0 90 3e 10
        E 16 b0 0b 08
        E 32 80 3e 00
        E 16 90 3e 08
        E 16 80 3e 00
        E 48 b0 0b 10
        E 0 90 3e 10
        E 16 b0 0b 08
        E 32 80 3e 00
        E 16 90 3e 08
        E 16 80 3e 00
        E 64 b0 0b 40
        E 0 90 43 40
        E 64 b0 0b 18
        E 16 b0 0b 10
        E 32 b0 0b 08
        E 16 b0 0b 40
        E 0 80 43 00
        E 0 90 42 40
        E 16 b0 0b 38
        E 32 b0 0b 30
        E 16 b0 0b 18
        E 16 b0 0b 10
        E 32 b0 0b 08
        E 16 b0 0b 40
        E 0 80 42 00
        E 0 90 40 40
        E 16 b0 0b 38
        E 32 b0 0b 30
        E 16 b0 0b 18
        E 16 b0 0b 10
        E 16 b0 0b 08
        E 32 80 40 00
        E 16 b0 0b 40
        E 0 90 3e 40
        E 16 b0 0b 38
        E 32 b0 0b 30
        E 16 b0 0b 18
        E 16 b0 0b 10
        E 32 b0 0b 08
        E 16 b0 0b 40
        E 0 80 3e 00
        E 0 90 3b 40
        E 16 b0 0b 38
        E 32 b0 0b 30
        E 16 b0 0b 20
        E 64 b0 0b 10
        E 80 b0 0b 08
        E 64 b0 0b 10
        E 64 b0 0b 08
        E 64 b0 0b 40
        E 0 80 3b 00
        E 0 90 3e 40
        E 64 b0 0b 20
        E 80 b0 0b 10
        E 64 b0 0b 08
        E 64 b0 0b 40
        E 0 80 3e 00
        E 0 90 3b 40
        E 64 b0 0b 18
        E 16 b0 0b 10
        E 32 b0 0b 08
        E 16 b0 0b 40
        E 0 80 3b 00
        E 0 90 3e 40
        E 16 b0 0b 38
        E 16 b0 0b 30
        E 32 b0 0b 28
        E 16 b0 0b 18
        E 16 b0 0b 10
        E 32 b0 0b 08
        E 16 b0 0b 40
        E 0 80 3e 00
        E 0 90 40 40
        E 16 b0 0b 38
        E 32 b0 0b 30
        E 16 b0 0b 20
        E 64 b0 0b 10
        E 64 b0 0b 08
        E 80 b0 0b 40
        E 0 80 40 00
        E 0 90 3e 40
        E 64 b0 0b 18
        E 16 b0 0b 10
        E 32 b0 0b 08
        E 16 b0 0b 40
        E 0 80 3e 00
        E 0 90 40 40
        E 16 b0 0b 38
        E 32 b0 0b 30
        E 16 b0 0b 18
        E 16 b0 0b 10
        E 32 b0 0b 08
        E 16 b0 0b 40
        E 0 80 40 00
        E 0 90 42 40
        E 16 b0 0b 38
        E 16 b0 0b 30
        E 32 b0 0b 28
        E 16 b0 0b 18
        E 16 b0 0b 10
        E 32 b0 0b 08
        E 16 b0 0b 40
        E 0 80 42 00
        E 0 90 43 40
        E 16 b0 0b 38
        E 32 b0 0b 30
        E 16 b0 0b 18
        E 16 b0 0b 10
        E 32 b0 0b 08
        E 16 b0 0b 40
        E 0 80 43 00
        E 0 90 42 40
        E 16 b0 0b 38
        E 32 b0 0b 30
        E 16 b0 0b 18
        E 16 b0 0b 10
        E 32 b0 0b 08
        E 16 80 42 00
        E 16 b0 0b 40
        E 0 90 40 40
        E 16 b0 0b 38
        E 32 b0 0b 30
        E 16 b0 0b 18
        E 16 b0 0b 10
        E 32 b0 0b 08
        E 16 b0 0b 40
        E 0 80 40 00
        E 0 90 3e 40
        E 16 b0 0b 38
        E 32 b0 0b 30
        E 16 b0 0b 18
        E 16 b0 0b 10
        E 32 b0 0b 08
        E 16 b0 0b 40
        E 0 80 3e 00
        E 0 90 3b 40
        E 16 b0 0b 38
        E 32 b0 0b 30
        E 16 b0 0b 28
        E 16 b0 0b 20
        E 64 b0 0b 10
        E 64 b0 0b 08
        E 64 b0 0b 10
        E 64 b0 0b 08
        E 80 b0 0b 40
        E 0 80 3b 00
        E 0 90 3e 40
        E 64 b0 0b 20
        E 64 b0 0b 10
        E 64 b0 0b 08
        E 64 b0 0b 40
        E 0 80 3e 00
        E 0 90 3b 40
        E 80 b0 0b 18
        E 16 b0 0b 10
        E 32 b0 0b 08
        E 16 b0 0b 40
        E 0 80 3b 00
        E 0 90 3e 40
        E 16 b0 0b 38
        E 32 b0 0b 30
        E 16 b0 0b 18
        E 16 b0 0b 10
        E 32 b0 0b 08
        E 16 b0 0b 40
        E 0 80 3e 00
        E 0 90 40 40
        E 16 b0 0b 38
        E 32 b0 0b 30
        E 16 b0 0b 20
        E 80 b0 0b 40
        E 0 80 40 00
        E 0 90 3e 40
        E 64 b0 0b 18
        E 64 b0 0b 10
        E 64 b0 0b 08
        E 16 80 3e 00
        E 48 b0 0b 10
        E 0 90 3e 10
        E 16 b0 0b 08
        E 32 80 3e 00
        E 32 90 3e 08
        E 16 80 3e 00
        E 48 b0 0b 10
        E 0 90 3e 10
        E 16 b0 0b 08
        E 32 80 3e 00
        E 16 90 3e 08
        E 16 80 3e 00
        E 48 b0 0b 40
        E 0 90 1c 40
        E 64 80 1c 00
        E 64 90 1e 40
        E 16 b0 0b 38
        E 16 b0 0b 30
        E 32 b0 0b 28
        E 16 b0 0b 18
        E 0 80 1e 00
        E 0 90 1c 18
        E 16 b0 0b 10
        E 32 b0 0b 08
        E 16 b0 0b 40
        E 0 80 1c 00
        E 0 90 1f 40
        E 16 b0 0b 38
        E 32 b0 0b 30
        E 16 b0 0b 18
        E 0 80 1f 00
        E 0 90 1e 18
        E 16 b0 0b 10
        E 32 b0 0b 08
        E 16 b0 0b 40
        E 0 80 1e 00
        E 0 90 21 40
        E 16 b0 0b 38
        E 32 b0 0b 30
        E 16 b0 0b 18
        E 0 80 21 00
        E 0 90 1f 18
        E 16 b0 0b 10
        E 16 b0 0b 08
        E 32 80 1f 00
        E 16 b0 0b 40
        E 0 90 23 40
        E 16 b0 0b 38
        E 32 b0 0b 30
        E 16 b0 0b 18
        E 0 80 23 00
        E 0 90 21 18
        E 16 b0 0b 10
        E 32 b0 0b 08
        E 16 b0 0b 40
        E 0 80 21 00
        E 0 90 24 40
        E 16 b0 0b 38
        E 32 b0 0b 30
        E 16 b0 0b 18
        E 0 80 24 00
        E 0 90 23 18
        E 16 b0 0b 10
        E 32 b0 0b 08
        E 16 b0 0b 40
        E 0 80 23 00
        E 0 90 26 40
        E 16 b0 0b 38
        E 16 b0 0b 30
        E 32 b0 0b 28
        E 16 b0 0b 18
        E 0 80 26 00
        E 0 90 24 18
        E 16 b0 0b 10
        E 32 b0 0b 08
        E 16 b0 0b 40
        E 0 80 24 00
        E 0 90 28 40
        E 16 b0 0b 38
        E 32 b0 0b 30
        E 16 b0 0b 10
        E 0 80 28 00
        E 0 90 26 10
        E 64 b0 0b 40
        E 0 80 26 00
        E 0 90 3c 40
        E 64 b0 0b 18
        E 16 b0 0b 10
        E 16 b0 0b 08
        E 32 80 3c 00
        E 16 b0 0b 40
        E 0 90 3b 40
        E 16 b0 0b 38
        E 32 b0 0b 30
        E 16 b0 0b 18
        E 16 b0 0b 10
        E 32 b0 0b 08
        E 16 b0 0b 40
        E 0 80 3b 00
        E 0 90 39 40
        E 16 b0 0b 38
        E 32 b0 0b 30
        E 16 b0 0b 18
        E 16 b0 0b 10
        E 32 b0 0b 08
        E 16 b0 0b 40
        E 0 80 39 00
        E 0 90 37 40
        E 16 b0 0b 38
        E 16 b0 0b 30
        E 32 b0 0b 28
        E 16 b0 0b 18
        E 16 b0 0b 10
        E 32 b0 0b 08
        E 16 b0 0b 40
        E 0 80 37 00
        E 0 90 34 40
        E 16 b0 0b 38
        E 32 b0 0b 30
        E 16 b0 0b 20
        E 64 b0 0b 10
        E 64 b0 0b 08
        E 80 b0 0b 10
        E 64 b0 0b 08
        E 64 b0 0b 40
        E 0 80 34 00
        E 0 90 37 40
        E 64 b0 0b 20
        E 64 b0 0b 10
        E 80 b0 0b 08
        E 64 b0 0b 40
        E 0 80 37 00
        E 0 90 34 40
        E 64 b0 0b 18
        E 16 b0 0b 10
        E 32 b0 0b 08
        E 16 b0 0b 40
        E 0 80 34 00
        E 0 90 37 40
        E 16 b0 0b 38
        E 32 b0 0b 30
        E 16 b0 0b 18
        E 16 b0 0b 10
        E 32 b0 0b 08
        E 16 80 37 00
        E 16 b0 0b 40
        E 0 90 39 40
        E 16 b0 0b 38
        E 32 b0 0b 30
        E 16 b0 0b 20
        E 64 b0 0b 10
        E 64 b0 0b 08
        E 64 b0 0b 40
        E 0 80 39 00
        E 0 90 37 40
        E 80 b0 0b 18
        E 16 b0 0b 10
        E 32 b0 0b 08
        E 16 b0 0b 40
        E 0 80 37 00
        E 0 90 39 40
        E 16 b0 0b 38
        E 32 b0 0b 30
        E 16 b0 0b 18
        E 16 b0 0b 10
        E 32 b0 0b 08
        E 16 b0 0b 40
        E 0 80 39 00
        E 0 90 3b 40
        E 16 b0 0b 38
        E 32 b0 0b 30
        E 16 b0 0b 18
        E 16 b0 0b 10
        E 32 b0 0b 08
        E 16 80 3b 00
        E 16 b0 0b 40
        E 0 90 3c 40
        E 16 b0 0b 38
        E 32 b0 0b 30
        E 16 b0 0b 18
        E 16 b0 0b 10
        E 32 b0 0b 08
        E 16 b0 0b 40
        E 0 80 3c 00
        E 0 90 3b 40
        E 16 b0 0b 38
        E 32 b0 0b 30
        E 16 b0 0b 18
        E 16 b0 0b 10
        E 32 b0 0b 08
        E 16 b0 0b 40
        E 0 80 3b 00
        E 0 90 39 40
        E 16 b0 0b 38
        E 32 b0 0b 30
        E 16 b0 0b 28
        E 16 b0 0b 18
        E 16 b0 0b 10
        E 32 b0 0b 08
        E 16 b0 0b 40
        E 0 80 39 00
        E 0 90 37 40
        E 16 b0 0b 38
        E 32 b0 0b 30
        E 16 b0 0b 18
        E 16 b0 0b 10
        E 32 b0 0b 08
        E 16 b0 0b 40
        E 0 80 37 00
        E 0 90 34 40
        E 16 b0 0b 38
        E 32 b0 0b 30
        E 16 b0 0b 20
        E 80 b0 0b 10
        E 64 b0 0b 08
        E 64 b0 0b 10
        E 64 b0 0b 08
        E 64 b0 0b 40
        E 0 80 34 00
        E 0 90 37 40
        E 64 b0 0b 20
        E 80 b0 0b 10
        E 64 b0 0b 08
        E 64 b0 0b 40
        E 0 80 37 00
        E 0 90 34 40
        E 64 b0 0b 18
        E 16 b0 0b 10
        E 32 b0 0b 08
        E 16 b0 0b 40
        E 0 80 34 00
        E 0 90 37 40
        E 16 b0 0b 38
        E 16 b0 0b 30
        E 32 b0 0b 28
        E 16 b0 0b 18
        E 16 b0 0b 10
        E 32 b0 0b 08
        E 16 b0 0b 40
        E 0 80 37 00
        E 0 90 39 40
        E 16 b0 0b 38
        E 32 b0 0b 30
        E 16 b0 0b 20
        E 64 b0 0b 40
        E 0 80 39 00
        E 0 90 37 40
        E 64 b0 0b 18
        E 80 b0 0b 10
        E 64 b0 0b 08
        E 16 80 37 00
        E 48 b0 0b 10
        E 0 90 37 10
        E 16 b0 0b 08
        E 32 80 37 00
        E 16 90 37 08
        E 16 80 37 00
        E 48 b0 0b 10
        E 0 90 37 10
        E 16 b0 0b 08
        E 16 80 37 00
        E 48 90 37 08
        E 16 80 37 00
        E 48 b0 0b 40
        E 0 90 3c 40
        E 64 b0 0b 18
        E 16 b0 0b 10
        E 32 b0 0b 08
        E 16 b0 0b 40
        E 0 80 3c 00
        E 0 90 3b 40
        E 16 b0 0b 38
        E 32 b0 0b 30
        E 16 b0 0b 18
        E 16 b0 0b 10
        E 16 b0 0b 08
        E 32 80 3b 00
        E 16 b0 0b 40
        E 0 90 39 40
        E 16 b0 0b 38
        E 32 b0 0b 30
        E 16 b0 0b 18
        E 16 b0 0b 10
        E 32 b0 0b 08
        E 16 b0 0b 40
        E 0 80 39 00
        E 0 90 37 40
        E 16 b0 0b 38
        E 32 b0 0b 30
        E 16 b0 0b 18
        E 16 b0 0b 10
        E 32 b0 0b 08
        E 16 b0 0b 40
        E 0 80 37 00
        E 0 90 34 40
        E 16 b0 0b 38
        E 16 b0 0b 30
        E 32 b0 0b 28
        E 16 b0 0b 20
        E 64 b0 0b 10
        E 64 b0 0b 08
        E 64 b0 0b 10
        E 64 b0 0b 08
        E 80 b0 0b 40
        E 0 80 34 00
        E 0 90 37 40
        E 64 b0 0b 20
        E 64 b0 0b 10
        E 64 b0 0b 08
        E 64 b0 0b 40
        E 0 80 37 00
        E 0 90 34 40
        E 80 b0 0b 18
        E 16 b0 0b 10
        E 32 b0 0b 08
        E 16 b0 0b 40
        E 0 80 34 00
        E 0 90 37 40
        E 16 b0 0b 38
        E 32 b0 0b 30
        E 16 b0 0b 18
        E 16 b0 0b 10
        E 32 b0 0b 08
        E 16 b0 0b 40
        E 0 80 37 00
        E 0 90 39 40
        E 16 b0 0b 38
        E 32 b0 0b 30
        E 16 b0 0b 20
        E 80 b0 0b 10
        E 64 b0 0b 08
        E 64 b0 0b 40
        E 0 80 39 00
        E 0 90 37 40
        E 64 b0 0b 18
        E 16 b0 0b 10
        E 32 b0 0b 08
        E 16 b0 0b 40
        E 0 80 37 00
        E 0 90 39 40
        E 16 b0 0b 38
        E 32 b0 0b 30
        E 16 b0 0b 28
        E 16 b0 0b 18
        E 16 b0 0b 10
        E 32 b0 0b 08
        E 16 b0 0b 40
        E 0 80 39 00
        E 0 90 3b 40
        E 16 b0 0b 38
        E 32 b0 0b 30
        E 16 b0 0b 18
        E 16 b0 0b 10
        E 32 b0 0b 08
        E 16 b0 0b 40
        E 0 80 3b 00
        E 0 90 3c 40
        E 16 b0 0b 38
        E 32 b0 0b 30
        E 16 b0 0b 18
        E 16 b0 0b 10
        E 32 b0 0b 08
        E 16 80 3c 00
        E 16 b0 0b 40
        E 0 90 3b 40
        E 16 b0 0b 38
        E 32 b0 0b 30
        E 16 b0 0b 18
        E 16 b0 0b 10
        E 32 b0 0b 08
        E 16 b0 0b 40
        E 0 80 3b 00
        E 0 90 39 40
        E 16 b0 0b 38
        E 32 b0 0b 30
        E 16 b0 0b 18
        E 16 b0 0b 10
        E 32 b0 0b 08
        E 16 b0 0b 40
        E 0 80 39 00
        E 0 90 37 40
        E 16 b0 0b 38
        E 32 b0 0b 30
        E 16 b0 0b 28
        E 16 b0 0b 18
        E 16 b0 0b 10
        E 32 b0 0b 08
        E 16 b0 0b 40
        E 0 80 37 00
        E 0 90 34 40
        E 16 b0 0b 38
        E 32 b0 0b 30
        E 16 b0 0b 20
        E 64 b0 0b 10
        E 64 b0 0b 08
        E 64 b0 0b 10
        E 80 b0 0b 08
        E 64 b0 0b 40
        E 0 80 34 00
        E 0 90 37 40
        E 64 b0 0b 20
        E 64 b0 0b 10
        E 64 b0 0b 08
        E 80 b0 0b 40
        E 0 80 37 00
        E 0 90 34 40
        E 64 b0 0b 18
        E 16 b0 0b 10
        E 32 b0 0b 08
        E 16 b0 0b 40
        E 0 80 34 00
        E 0 90 37 40
        E 16 b0 0b 38
        E 32 b0 0b 30
        E 16 b0 0b 18
        E 16 b0 0b 10
        E 32 b0 0b 08
        E 16 b0 0b 40
        E 0 80 37 00
        E 0 90 39 40
        E 16 b0 0b 38
        E 16 b0 0b 30
        E 32 b0 0b 28
        E 16 b0 0b 20
        E 64 b0 0b 40
        E 0 80 39 00
        E 0 90 37 40
        E 64 b0 0b 18
        E 64 b0 0b 10
        E 64 b0 0b 08
        E 16 80 37 00
        E 64 b0 0b 10
        E 0 90 37 10
        E 16 b0 0b 08
        E 32 80 37 00
        E 16 90 37 08
        E 16 80 37 00
        E 48 b0 0b 10
        E 0 90 37 10
        E 16 b0 0b 08
        E 32 80 37 00
        E 16 90 37 08
        E 16 80 37 00
        E 48 b0 0b 40
        E 0 90 43 40
        E 80 b0 0b 18
        E 16 b0 0b 10
        E 32 b0 0b 08
        E 16 b0 0b 40
        E 0 80 43 00
        E 0 90 42 40
        E 16 b0 0b 38
        E 32 b0 0b 30
        E 16 b0 0b 18
        E 16 b0 0b 10
        E 32 b0 0b 08
        E 16 b0 0b 40
        E 0 80 42 00
        E 0 90 40 40
        E 16 b0 0b 38
        E 32 b0 0b 30
        E 16 b0 0b 18
        E 16 b0 0b 10
        E 16 b0 0b 08
        E 32 80 40 00
        E 16 b0 0b 40
        E 0 90 3e 40
        E 16 b0 0b 38
        E 32 b0 0b 30
        E 16 b0 0b 18
        E 16 b0 0b 10
        E 32 b0 0b 08
        E 16 b0 0b 40
        E 0 80 3e 00
        E 0 90 3b 40
        E 16 b0 0b 38
        E 32 b0 0b 30
        E 16 b0 0b 20
        E 64 b0 0b 10
        E 80 b0 0b 08
        E 64 b0 0b 10
        E 64 b0 0b 08
        E 64 b0 0b 40
        E 0 80 3b 00
        E 0 90 3e 40
        E 64 b0 0b 20
        E 80 b0 0b 10
        E 64 b0 0b 08
        E 64 b0 0b 40
        E 0 80 3e 00
        E 0 90 3b 40
        E 64 b0 0b 18
        E 16 b0 0b 10
        E 32 b0 0b 08
        E 16 b0 0b 40
        E 0 80 3b 00
        E 0 90 3e 40
        E 16 b0 0b 38
        E 32 b0 0b 30
        E 16 b0 0b 28
        E 16 b0 0b 18
        E 16 b0 0b 10
        E 32 b0 0b 08
        E 16 b0 0b 40
        E 0 80 3e 00
        E 0 90 40 40
        E 16 b0 0b 38
        E 32 b0 0b 30
        E 16 b0 0b 20
        E 64 b0 0b 10
        E 64 b0 0b 08
        E 80 b0 0b 40
        E 0 80 40 00
        E 0 90 3e 40
        E 64 b0 0b 18
        E 16 b0 0b 10
        E 32 b0 0b 08
        E 16 b0 0b 40
        E 0 80 3e 00
        E 0 90 40 40
        E 16 b0 0b 38
        E 32 b0 0b 30
        E 16 b0 0b 18
        E 16 b0 0b 10
        E 32 b0 0b 08
        E 16 b0 0b 40
        E 0 80 40 00
        E 0 90 42 40
        E 16 b0 0b 38
        E 32 b0 0b 30
        E 16 b0 0b 28
        E 16 b0 0b 18
        E 16 b0 0b 10
        E 32 b0 0b 08
        E 16 b0 0b 40
        E 0 80 42 00
        E 0 90 43 40
        E 16 b0 0b 38
        E 32 b0 0b 30
        E 16 b0 0b 18
        E 16 b0 0b 10
        E 32 b0 0b 08
        E 16 b0 0b 40
        E 0 80 43 00
        E 0 90 42 40
        E 16 b0 0b 38
        E 32 b0 0b 30
        E 16 b0 0b 18
        E 16 b0 0b 10
        E 32 b0 0b 08
        E 16 80 42 00
        E 16 b0 0b 40
        E 0 90 40 40
        E 16 b0 0b 38
        E 32 b0 0b 30
        E 16 b0 0b 18
        E 16 b0 0b 10
        E 32 b0 0b 08
        E 16 b0 0b 40
        E 0 80 40 00
        E 0 90 3e 40
        E 16 b0 0b 38
        E 32 b0 0b 30
        E 16 b0 0b 18
        E 16 b0 0b 10
        E 32 b0 0b 08
        E 16 b0 0b 40
        E 0 80 3e 00
        E 0 90 3b 40
        E 16 b0 0b 38
        E 32 b0 0b 30
        E 16 b0 0b 20
        E 80 b0 0b 10
        E 64 b0 0b 08
        E 64 b0 0b 10
        E 64 b0 0b 08
        E 64 b0 0b 40
        E 0 80 3b 00
        E 0 90 3e 40
        E 80 b0 0b 20
        E 64 b0 0b 10
        E 64 b0 0b 08
        E 64 b0 0b 40
        E 0 80 3e 00
        E 0 90 3b 40
        E 64 b0 0b 18
        E 16 b0 0b 10
        E 16 b0 0b 08
        E 32 80 3b 00
        E 16 b0 0b 40
        E 0 90 3e 40
        E 16 b0 0b 38
        E 32 b0 0b 30
        E 16 b0 0b 18
        E 16 b0 0b 10
        E 32 b0 0b 08
        E 16 b0 0b 40
        E 0 80 3e 00
        E 0 90 40 40
        E 16 b0 0b 38
        E 32 b0 0b 30
        E 16 b0 0b 20
        E 64 b0 0b 40
        E 0 80 40 00
        E 0 90 3e 40
        E 80 b0 0b 18
        E 64 b0 0b 10
        E 64 b0 0b 08
        E 16 80 3e 00
        E 48 b0 0b 10
        E 0 90 3e 10
        E 16 b0 0b 08
        E 32 80 3e 00
        E 16 90 3e 08
        E 16 80 3e 00
        E 64 b0 0b 10
        E 0 90 3e 10
        E 16 b0 0b 08
        E 32 80 3e 00
        E 16 90 3e 08
        E 16 80 3e 00
        E 48 b0 0b 40
        E 0 90 43 40
        E 64 b0 0b 18
        E 16 b0 0b 10
        E 32 b0 0b 08
        E 16 b0 0b 40
        E 0 80 43 00
        E 0 90 42 40
        E 16 b0 0b 38
        E 16 b0 0b 30
        E 32 b0 0b 28
        E 16 b0 0b 18
        E 16 b0 0b 10
        E 32 b0 0b 08
        E 16 b0 0b 40
        E 0 80 42 00
        E 0 90 40 40
        E 16 b0 0b 38
        E 32 b0 0b 30
        E 16 b0 0b 18
        E 16 b0 0b 10
        E 32 b0 0b 08
        E 16 b0 0b 40
        E 0 80 40 00
        E 0 90 3e 40
        E 16 b0 0b 38
        E 32 b0 0b 30
        E 16 b0 0b 18
        E 16 b0 0b 10
        E 32 b0 0b 08
        E 16 80 3e 00
        E 16 b0 0b 40
        E 0 90 3b 40
        E 16 b0 0b 38
        E 32 b0 0b 30
        E 16 b0 0b 20
        E 64 b0 0b 10
        E 64 b0 0b 08
        E 64 b0 0b 10
        E 80 b0 0b 08
        E 64 b0 0b 40
        E 0 80 3b 00
        E 0 90 3e 40
        E 64 b0 0b 20
        E 64 b0 0b 10
        E 64 b0 0b 08
        E 80 b0 0b 40
        E 0 80 3e 00
        E 0 90 3b 40
        E 64 b0 0b 18
        E 16 b0 0b 10
        E 32 b0 0b 08
        E 16 b0 0b 40
        E 0 80 3b 00
        E 0 90 3e 40
        E 16 b0 0b 38
        E 32 b0 0b 30
        E 16 b0 0b 18
        E 16 b0 0b 10
        E 32 b0 0b 08
        E 16 b0 0b 40
        E 0 80 3e 00
        E 0 90 40 40
        E 16 b0 0b 38
        E 32 b0 0b 30
        E 16 b0 0b 28
        E 16 b0 0b 20
        E 64 b0 0b 10
        E 64 b0 0b 08
        E 64 b0 0b 40
        E 0 80 40 00
        E 0 90 3e 40
        E 64 b0 0b 18
        E 16 b0 0b 10
        E 32 b0 0b 08
        E 16 80 3e 00
        E 16 b0 0b 40
        E 0 90 40 40
        E 16 b0 0b 38
        E 32 b0 0b 30
        E 16 b0 0b 18
        E 16 b0 0b 10
        E 32 b0 0b 08
        E 16 b0 0b 40
        E 0 80 40 00
        E 0 90 42 40
        E 16 b0 0b 38
        E 32 b0 0b 30
        E 16 b0 0b 18
        E 16 b0 0b 10
        E 32 b0 0b 08
        E 16 b0 0b 40
        E 0 80 42 00
        E 0 90 43 40
        E 16 b0 0b 38
        E 32 b0 0b 30
        E 16 b0 0b 28
        E 16 b0 0b 18
        E 16 b0 0b 10
        E 32 b0 0b 08
        E 16 b0 0b 40
        E 0 80 43 00
        E 0 90 42 40
        E 16 b0 0b 38
        E 32 b0 0b 30
        E 16 b0 0b 18
        E 16 b0 0b 10
        E 32 b0 0b 08
        E 16 b0 0b 40
        E 0 80 42 00
        E 0 90 40 40
        E 16 b0 0b 38
        E 32 b0 0b 30
        E 16 b0 0b 18
        E 16 b0 0b 10
        E 32 b0 0b 08
        E 16 b0 0b 40
        E 0 80 40 00
        E 0 90 3e 40
        E 16 b0 0b 38
        E 16 b0 0b 30
        E 32 b0 0b 28
        E 16 b0 0b 18
        E 16 b0 0b 10
        E 32 b0 0b 08
        E 16 b0 0b 40
        E 0 80 3e 00
        E 0 90 3b 40
        E 16 b0 0b 38
        E 32 b0 0b 30
        E 16 b0 0b 20
        E 64 b0 0b 10
        E 64 b0 0b 08
        E 80 b0 0b 10
        E 64 b0 0b 08
        E 64 b0 0b 40
        E 0 80 3b 00
        E 0 90 3e 40
        E 64 b0 0b 20
        E 64 b0 0b 10
        E 80 b0 0b 08
        E 64 b0 0b 40
        E 0 80 3e 00
        E 0 90 3b 40
        E 64 b0 0b 18
        E 16 b0 0b 10
        E 32 b0 0b 08
        E 16 b0 0b 40
        E 0 80 3b 00
        E 0 90 3e 40
        E 16 b0 0b 38
        E 32 b0 0b 30
        E 16 b0 0b 18
        E 16 b0 0b 10
        E 16 b0 0b 08
        E 32 80 3e 00
        E 16 b0 0b 40
        E 0 90 40 40
        E 16 b0 0b 38
        E 32 b0 0b 30
        E 16 b0 0b 20
        E 64 b0 0b 40
        E 0 80 40 00
        E 0 90 3e 40
        E 64 b0 0b 18
        E 64 b0 0b 10
        E 80 b0 0b 08
        E 16 80 3e 00
        E 48 b0 0b 10
        E 0 90 3e 10
        E 16 b0 0b 08
        E 32 80 3e 00
        E 16 90 3e 08
        E 16 80 3e 00
        E 48 b0 0b 10
        E 0 90 3e 10
        E 16 b0 0b 08
        E 32 80 3e 00
        E 16 90 3e 08
        E 16 80 3e 00
        E 64 b0 0c 10
        E 0 b0 0b 40
        E 0 90 31 40
        E 16 b0 0b 38
        E 32 b0 0b 30
        E 16 b0 0b 18
        E 64 b0 0b 28
        E 0 80 31 00
        E 0 90 32 28
        E 64 b0 0b 18
        E 64 b0 0b 08
        E 80 b0 0b 18
        E 64 b0 0b 28
        E 64 b0 0b 18
        E 64 b0 0b 08
        E 64 b0 0b 18
        E 80 b0 0b 28
        E 64 b0 0b 18
        E 64 b0 0b 08
        E 64 b0 0b 18
        E 64 b0 0b 28
        E 80 b0 0b 18
        E 64 b0 0b 40
        E 64 b0 0b 18
        E 64 b0 0b 28
        E 0 80 32 00
        E 0 90 33 28
        E 64 b0 0b 18
        E 80 b0 0b 08
        E 64 b0 0b 18
        E 64 b0 0b 28
        E 64 b0 0b 18
        E 64 b0 0b 08
        E 80 b0 0b 18
        E 64 b0 0b 28
        E 64 b0 0b 18
        E 64 b0 0b 08
        E 64 b0 0b 18
        E 80 b0 0b 28
        E 64 b0 0b 18
        E 64 b0 0b 40
        E 64 b0 0b 18
        E 64 b0 0b 28
        E 0 80 33 00
        E 0 90 34 28
        E 64 b0 0b 18
        E 80 b0 0b 08
        E 64 b0 0b 18
        E 64 b0 0b 28
        E 64 b0 0b 18
        E 64 b0 0b 08
        E 80 b0 0b 18
        E 64 b0 0b 28
        E 64 b0 0b 18
        E 64 b0 0b 08
        E 64 b0 0b 18
        E 80 b0 0b 28
        E 64 b0 0b 18
        E 64 b0 0b 40
        E 64 b0 0b 18
        E 64 b0 0b 28
        E 0 80 34 00
        E 0 90 33 28
        E 80 b0 0b 18
        E 64 b0 0b 08
        E 64 b0 0b 18
        E 64 b0 0b 28
        E 64 b0 0b 18
        E 80 b0 0b 08
        E 64 b0 0b 18
        E 64 b0 0b 28
        E 64 b0 0b 18
        E 64 b0 0b 08
        E 80 b0 0b 18
        E 64 b0 0b 28
        E 64 b0 0b 18
        E 64 b0 0b 40
        E 0 80 33 00
        E 0 90 2c 40
        E 16 b0 0b 38
        E 32 b0 0b 30
        E 16 b0 0b 18
        E 80 b0 0b 28
        E 0 80 2c 00
        E 0 90 2d 28
        E 64 b0 0b 18
        E 64 b0 0b 08
        E 64 b0 0b 18
        E 64 b0 0b 28
        E 80 b0 0b 18
        E 64 b0 0b 08
        E 64 b0 0b 18
        E 64 b0 0b 28
        E 64 b0 0b 18
        E 80 b0 0b 08
        E 64 b0 0b 18
        E 64 b0 0b 28
        E 64 b0 0b 18
        E 64 b0 0b 40
        E 80 b0 0b 18
        E 64 b0 0b 28
        E 0 80 2d 00
        E 0 90 2e 28
        E 64 b0 0b 18
        E 64 b0 0b 08
        E 64 b0 0b 18
        E 80 b0 0b 28
        E 64 b0 0b 18
        E 64 b0 0b 08
        E 64 b0 0b 18
        E 64 b0 0b 28
        E 80 b0 0b 18
        E 64 b0 0b 08
        E 64 b0 0b 18
        E 64 b0 0b 28
        E 64 b0 0b 18
        E 64 b0 0b 40
        E 80 b0 0b 18
        E 64 b0 0b 28
        E 0 80 2e 00
        E 0 90 2f 28
        E 64 b0 0b 18
        E 64 b0 0b 08
        E 64 b0 0b 18
        E 64 80 2f 00
        E 0 ff 2f 00
      >
    >
  >
  <TRACK {A5E61237-DAB9-4840-B783-EFD2F6B95AA9}
    NAME "NES - Pulse 2 [ch1]"
    PEAKCOL 10092441
    BEAT -1
    AUTOMODE 0
    PANLAWFLAGS 3
    VOLPAN 1 0 -1 -1 1
    MUTESOLO 0 0 0
    IPHASE 0
    PLAYOFFS 0 1
    ISBUS 0 0
    BUSCOMP 0 0 0 0 0
    SHOWINMIX 1 0.6667 0.5 1 0.5 0 0 0
    FIXEDLANES 9 0 0 0 0
    SEL 0
    REC 0 5088 1 0 0 0 0 0
    VU 2
    TRACKHEIGHT 0 0 0 0 0 0 0
    INQ 0 0 0 0.5 100 0 0 100
    NCHAN 2
    FX 1
    TRACKID {A5E61237-DAB9-4840-B783-EFD2F6B95AA9}
    PERF 0
    MIDIOUT -1
    MAINSEND 1 0
    <FXCHAIN
      WNDRECT 24 52 700 560
      SHOW 0
      LASTSEL 0
      DOCKED 0
      BYPASS 0 0 0
      <JS "ReapNES Studio/ReapNES_Console.jsfx" ""
        2 15 1 10 80 10 100 2 1 15 1 5 60 10 80 1 1 0 50 0 0 15 1 0 100 0 0 0.500000 0.500000 0.400000 0.300000 0.800000 1 1 0 0 0 0 - - - - - - - - - - - - - - - - - - - - - - - - - -
      >
      FLOATPOS 0 0 0 0
      FXID {BCA279A7-8570-4228-A596-41F8CCF2174C}
      WAK 0 0
    >
    <ITEM
      POSITION 0
      LENGTH 83.98134
      LOOP 0
      ALLTAKES 0
      FADEIN 0 0 0 0 0 0 0
      FADEOUT 0 0 0 0 0 0 0
      MUTE 0 0
      SEL 0
      IGUID {C4E90E23-7C9D-42C5-8A9D-426EEC9E8902}
      <SOURCE MIDI
        HASDATA 1 480 QN
        CCINTERP 32
        X 0 21 ff 03 12 53 71 75 61 72 65 20 32 20 5b 68 61 72 6d 6f 6e 79 5d
        E 0 c1 51
        E 32 b1 0c 10
        E 0 b1 0b 40
        E 0 91 1c 40
        E 128 b1 0b 18
        E 128 b1 0b 40
        E 0 81 1c 00
        E 0 91 28 40
        E 16 b1 0b 38
        E 32 b1 0b 30
        E 16 b1 0b 28
        E 32 b1 0b 20
        E 32 b1 0b 18
        E 32 b1 0b 10
        E 32 b1 0b 08
        E 32 81 28 00
        E 48 b1 0b 40
        E 0 91 1f 40
        E 16 b1 0b 38
        E 32 b1 0b 30
        E 32 b1 0b 28
        E 32 b1 0b 20
        E 16 b1 0b 18
        E 32 b1 0b 10
        E 32 b1 0b 08
        E 32 81 1f 00
        E 48 b1 0b 40
        E 0 91 2b 40
        E 16 b1 0b 38
        E 32 b1 0b 30
        E 32 b1 0b 28
        E 32 b1 0b 20
        E 16 b1 0b 18
        E 16 b1 0b 10
        E 32 b1 0b 08
        E 16 81 2b 00
        E 80 b1 0b 40
        E 0 91 21 40
        E 16 b1 0b 38
        E 32 b1 0b 30
        E 32 b1 0b 28
        E 32 b1 0b 20
        E 16 b1 0b 18
        E 16 b1 0b 10
        E 32 b1 0b 08
        E 32 81 21 00
        E 64 b1 0b 40
        E 0 91 2d 40
        E 16 b1 0b 38
        E 32 b1 0b 30
        E 32 b1 0b 28
        E 32 b1 0b 20
        E 16 b1 0b 18
        E 16 b1 0b 10
        E 32 b1 0b 08
        E 32 81 2d 00
        E 48 b1 0b 40
        E 0 91 23 40
        E 16 b1 0b 38
        E 32 b1 0b 30
        E 16 b1 0b 28
        E 32 b1 0b 20
        E 32 b1 0b 18
        E 32 b1 0b 10
        E 32 b1 0b 08
        E 32 81 23 00
        E 48 b1 0b 40
        E 0 91 2f 40
        E 16 b1 0b 38
        E 32 b1 0b 30
        E 32 b1 0b 28
        E 32 b1 0b 20
        E 16 b1 0b 18
        E 144 b1 0b 40
        E 0 81 2f 00
        E 0 91 1c 40
        E 128 b1 0b 18
        E 144 b1 0b 40
        E 0 81 1c 00
        E 0 91 28 40
        E 16 b1 0b 38
        E 32 b1 0b 30
        E 32 b1 0b 28
        E 32 b1 0b 20
        E 16 b1 0b 18
        E 16 b1 0b 10
        E 32 b1 0b 08
        E 32 81 28 00
        E 48 b1 0b 40
        E 0 91 1f 40
        E 16 b1 0b 38
        E 16 b1 0b 30
        E 32 b1 0b 28
        E 32 b1 0b 20
        E 32 b1 0b 18
        E 32 b1 0b 10
        E 32 b1 0b 08
        E 32 81 1f 00
        E 48 b1 0b 40
        E 0 91 2b 40
        E 16 b1 0b 38
        E 32 b1 0b 30
        E 32 b1 0b 28
        E 16 b1 0b 20
        E 32 b1 0b 18
        E 32 b1 0b 10
        E 32 b1 0b 08
        E 32 81 2b 00
        E 48 b1 0b 40
        E 0 91 21 40
        E 16 b1 0b 38
        E 32 b1 0b 30
        E 32 b1 0b 28
        E 32 b1 0b 20
        E 16 b1 0b 18
        E 16 b1 0b 10
        E 16 b1 0b 08
        E 32 81 21 00
        E 80 b1 0b 40
        E 0 91 2d 40
        E 16 b1 0b 38
        E 32 b1 0b 30
        E 32 b1 0b 28
        E 32 b1 0b 20
        E 16 b1 0b 18
        E 16 b1 0b 10
        E 32 b1 0b 08
        E 32 81 2d 00
        E 64 b1 0b 40
        E 0 91 23 40
        E 16 b1 0b 38
        E 32 b1 0b 30
        E 32 b1 0b 28
        E 32 b1 0b 20
        E 16 b1 0b 18
        E 16 b1 0b 10
        E 32 b1 0b 08
        E 32 81 23 00
        E 48 b1 0b 40
        E 0 91 2f 40
        E 16 b1 0b 38
        E 32 b1 0b 30
        E 16 b1 0b 28
        E 32 b1 0b 20
        E 32 b1 0b 18
        E 144 b1 0b 40
        E 0 81 2f 00
        E 0 91 1c 40
        E 144 b1 0b 18
        E 128 b1 0b 40
        E 0 81 1c 00
        E 0 91 28 40
        E 16 b1 0b 38
        E 32 b1 0b 30
        E 32 b1 0b 28
        E 32 b1 0b 20
        E 16 b1 0b 18
        E 16 b1 0b 10
        E 32 b1 0b 08
        E 16 81 28 00
        E 80 b1 0b 40
        E 0 91 1f 40
        E 16 b1 0b 38
        E 32 b1 0b 30
        E 32 b1 0b 28
        E 32 b1 0b 20
        E 16 b1 0b 18
        E 16 b1 0b 10
        E 32 b1 0b 08
        E 32 81 1f 00
        E 64 b1 0b 40
        E 0 91 2b 40
        E 16 b1 0b 38
        E 32 b1 0b 30
        E 32 b1 0b 28
        E 32 b1 0b 20
        E 16 b1 0b 18
        E 16 b1 0b 10
        E 32 b1 0b 08
        E 32 81 2b 00
        E 48 b1 0b 40
        E 0 91 21 40
        E 16 b1 0b 38
        E 32 b1 0b 30
        E 16 b1 0b 28
        E 32 b1 0b 20
        E 32 b1 0b 18
        E 32 b1 0b 10
        E 32 b1 0b 08
        E 32 81 21 00
        E 48 b1 0b 40
        E 0 91 2d 40
        E 16 b1 0b 38
        E 32 b1 0b 30
        E 32 b1 0b 28
        E 32 b1 0b 20
        E 16 b1 0b 18
        E 32 b1 0b 10
        E 32 b1 0b 08
        E 32 81 2d 00
        E 48 b1 0b 40
        E 0 91 23 40
        E 16 b1 0b 38
        E 32 b1 0b 30
        E 32 b1 0b 28
        E 32 b1 0b 20
        E 16 b1 0b 18
        E 16 b1 0b 10
        E 32 b1 0b 08
        E 32 81 23 00
        E 64 b1 0b 40
        E 0 91 2f 40
        E 16 b1 0b 38
        E 32 b1 0b 30
        E 32 b1 0b 28
        E 32 b1 0b 20
        E 16 b1 0b 18
        E 128 b1 0b 40
        E 0 81 2f 00
        E 0 91 1c 40
        E 144 b1 0b 18
        E 128 b1 0b 40
        E 0 81 1c 00
        E 0 91 28 40
        E 16 b1 0b 38
        E 32 b1 0b 30
        E 32 b1 0b 28
        E 16 b1 0b 20
        E 32 b1 0b 18
        E 32 b1 0b 10
        E 32 b1 0b 08
        E 32 81 28 00
        E 48 b1 0b 40
        E 0 91 1f 40
        E 16 b1 0b 38
        E 32 b1 0b 30
        E 32 b1 0b 28
        E 32 b1 0b 20
        E 16 b1 0b 18
        E 16 b1 0b 10
        E 16 b1 0b 08
        E 32 81 1f 00
        E 80 b1 0b 40
        E 0 91 2b 40
        E 16 b1 0b 38
        E 32 b1 0b 30
        E 32 b1 0b 28
        E 32 b1 0b 20
        E 16 b1 0b 18
        E 16 b1 0b 10
        E 32 b1 0b 08
        E 32 81 2b 00
        E 64 b1 0b 40
        E 0 91 21 40
        E 16 b1 0b 38
        E 32 b1 0b 30
        E 32 b1 0b 28
        E 32 b1 0b 20
        E 16 b1 0b 18
        E 16 b1 0b 10
        E 32 b1 0b 08
        E 32 81 21 00
        E 48 b1 0b 40
        E 0 91 2d 40
        E 16 b1 0b 38
        E 16 b1 0b 30
        E 32 b1 0b 28
        E 32 b1 0b 20
        E 32 b1 0b 18
        E 32 b1 0b 10
        E 32 b1 0b 08
        E 32 81 2d 00
        E 48 b1 0b 40
        E 0 91 23 40
        E 16 b1 0b 38
        E 32 b1 0b 30
        E 32 b1 0b 28
        E 32 b1 0b 20
        E 16 b1 0b 18
        E 32 b1 0b 10
        E 32 b1 0b 08
        E 32 81 23 00
        E 48 b1 0b 40
        E 0 91 2f 40
        E 16 b1 0b 38
        E 32 b1 0b 30
        E 32 b1 0b 28
        E 32 b1 0b 20
        E 16 b1 0b 18
        E 144 b1 0b 40
        E 0 81 2f 00
        E 0 91 1c 40
        E 128 b1 0b 18
        E 144 b1 0b 40
        E 0 81 1c 00
        E 0 91 28 40
        E 16 b1 0b 38
        E 32 b1 0b 30
        E 32 b1 0b 28
        E 32 b1 0b 20
        E 16 b1 0b 18
        E 16 b1 0b 10
        E 32 b1 0b 08
        E 32 81 28 00
        E 48 b1 0b 40
        E 0 91 1f 40
        E 16 b1 0b 38
        E 32 b1 0b 30
        E 16 b1 0b 28
        E 32 b1 0b 20
        E 32 b1 0b 18
        E 32 b1 0b 10
        E 32 b1 0b 08
        E 32 81 1f 00
        E 48 b1 0b 40
        E 0 91 2b 40
        E 16 b1 0b 38
        E 32 b1 0b 30
        E 32 b1 0b 28
        E 32 b1 0b 20
        E 16 b1 0b 18
        E 32 b1 0b 10
        E 32 b1 0b 08
        E 32 81 2b 00
        E 48 b1 0b 40
        E 0 91 21 40
        E 16 b1 0b 38
        E 32 b1 0b 30
        E 32 b1 0b 28
        E 32 b1 0b 20
        E 16 b1 0b 18
        E 16 b1 0b 10
        E 32 b1 0b 08
        E 16 81 21 00
        E 80 b1 0b 40
        E 0 91 2d 40
        E 16 b1 0b 38
        E 32 b1 0b 30
        E 32 b1 0b 28
        E 32 b1 0b 20
        E 16 b1 0b 18
        E 16 b1 0b 10
        E 32 b1 0b 08
        E 32 81 2d 00
        E 48 b1 0b 40
        E 0 91 23 40
        E 16 b1 0b 38
        E 16 b1 0b 30
        E 32 b1 0b 28
        E 32 b1 0b 20
        E 32 b1 0b 18
        E 32 b1 0b 10
        E 32 b1 0b 08
        E 32 81 23 00
        E 48 b1 0b 40
        E 0 91 2f 40
        E 16 b1 0b 38
        E 32 b1 0b 30
        E 32 b1 0b 28
        E 16 b1 0b 20
        E 32 b1 0b 18
        E 144 b1 0b 40
        E 0 81 2f 00
        E 0 91 1c 40
        E 128 b1 0b 18
        E 144 b1 0b 40
        E 0 81 1c 00
        E 0 91 28 40
        E 16 b1 0b 38
        E 32 b1 0b 30
        E 32 b1 0b 28
        E 32 b1 0b 20
        E 16 b1 0b 18
        E 16 b1 0b 10
        E 32 b1 0b 08
        E 32 81 28 00
        E 64 b1 0b 40
        E 0 91 1f 40
        E 16 b1 0b 38
        E 32 b1 0b 30
        E 32 b1 0b 28
        E 32 b1 0b 20
        E 16 b1 0b 18
        E 16 b1 0b 10
        E 32 b1 0b 08
        E 32 81 1f 00
        E 48 b1 0b 40
        E 0 91 2b 40
        E 16 b1 0b 38
        E 16 b1 0b 30
        E 32 b1 0b 28
        E 32 b1 0b 20
        E 32 b1 0b 18
        E 32 b1 0b 10
        E 32 b1 0b 08
        E 32 81 2b 00
        E 48 b1 0b 40
        E 0 91 21 40
        E 16 b1 0b 38
        E 32 b1 0b 30
        E 32 b1 0b 28
        E 16 b1 0b 20
        E 32 b1 0b 18
        E 32 b1 0b 10
        E 32 b1 0b 08
        E 32 81 21 00
        E 48 b1 0b 40
        E 0 91 2d 40
        E 16 b1 0b 38
        E 32 b1 0b 30
        E 32 b1 0b 28
        E 32 b1 0b 20
        E 16 b1 0b 18
        E 16 b1 0b 10
        E 32 b1 0b 08
        E 16 81 2d 00
        E 80 b1 0b 40
        E 0 91 23 40
        E 16 b1 0b 38
        E 32 b1 0b 30
        E 32 b1 0b 28
        E 32 b1 0b 20
        E 16 b1 0b 18
        E 16 b1 0b 10
        E 32 b1 0b 08
        E 32 81 23 00
        E 64 b1 0b 40
        E 0 91 2f 40
        E 16 b1 0b 38
        E 32 b1 0b 30
        E 32 b1 0b 28
        E 32 b1 0b 20
        E 16 b1 0b 18
        E 128 b1 0b 40
        E 0 81 2f 00
        E 0 91 28 40
        E 80 81 28 00
        E 64 91 2a 40
        E 16 b1 0b 38
        E 32 b1 0b 30
        E 16 b1 0b 18
        E 0 81 2a 00
        E 0 91 28 18
        E 16 b1 0b 10
        E 32 b1 0b 08
        E 16 b1 0b 40
        E 0 81 28 00
        E 0 91 2b 40
        E 16 b1 0b 38
        E 32 b1 0b 30
        E 16 b1 0b 18
        E 0 81 2b 00
        E 0 91 2a 18
        E 16 b1 0b 10
        E 32 b1 0b 08
        E 16 81 2a 00
        E 16 b1 0b 40
        E 0 91 2d 40
        E 16 b1 0b 38
        E 32 b1 0b 30
        E 16 b1 0b 18
        E 0 81 2d 00
        E 0 91 2b 18
        E 16 b1 0b 10
        E 32 b1 0b 08
        E 16 b1 0b 40
        E 0 81 2b 00
        E 0 91 2f 40
        E 16 b1 0b 38
        E 32 b1 0b 30
        E 16 b1 0b 18
        E 0 81 2f 00
        E 0 91 2d 18
        E 16 b1 0b 10
        E 32 b1 0b 08
        E 16 b1 0b 40
        E 0 81 2d 00
        E 0 91 30 40
        E 16 b1 0b 38
        E 32 b1 0b 30
        E 16 b1 0b 28
        E 16 b1 0b 18
        E 0 81 30 00
        E 0 91 2f 18
        E 16 b1 0b 10
        E 32 b1 0b 08
        E 16 b1 0b 40
        E 0 81 2f 00
        E 0 91 32 40
        E 16 b1 0b 38
        E 32 b1 0b 30
        E 16 b1 0b 18
        E 0 81 32 00
        E 0 91 30 18
        E 16 b1 0b 10
        E 32 b1 0b 08
        E 16 b1 0b 40
        E 0 81 30 00
        E 0 91 34 40
        E 16 b1 0b 38
        E 32 b1 0b 30
        E 16 b1 0b 10
        E 0 81 34 00
        E 0 91 32 10
        E 80 b1 0b 40
        E 0 81 32 00
        E 0 91 21 40
        E 128 b1 0b 18
        E 16 b1 0b 10
        E 32 b1 0b 08
        E 32 81 21 00
        E 48 b1 0b 40
        E 0 91 2d 40
        E 16 b1 0b 38
        E 32 b1 0b 30
        E 32 b1 0b 28
        E 16 b1 0b 20
        E 32 b1 0b 18
        E 32 b1 0b 10
        E 32 b1 0b 08
        E 32 81 2d 00
        E 48 b1 0b 40
        E 0 91 18 40
        E 16 b1 0b 38
        E 32 b1 0b 30
        E 32 b1 0b 28
        E 32 b1 0b 20
        E 16 b1 0b 18
        E 16 b1 0b 10
        E 16 b1 0b 08
        E 32 81 18 00
        E 80 b1 0b 40
        E 0 91 24 40
        E 16 b1 0b 38
        E 32 b1 0b 30
        E 32 b1 0b 28
        E 32 b1 0b 20
        E 16 b1 0b 18
        E 16 b1 0b 10
        E 32 b1 0b 08
        E 32 81 24 00
        E 64 b1 0b 40
        E 0 91 1a 40
        E 16 b1 0b 38
        E 32 b1 0b 30
        E 32 b1 0b 28
        E 32 b1 0b 20
        E 16 b1 0b 18
        E 16 b1 0b 10
        E 32 b1 0b 08
        E 32 81 1a 00
        E 48 b1 0b 40
        E 0 91 26 40
        E 16 b1 0b 38
        E 16 b1 0b 30
        E 32 b1 0b 28
        E 32 b1 0b 20
        E 32 b1 0b 18
        E 32 b1 0b 10
        E 32 b1 0b 08
        E 32 81 26 00
        E 48 b1 0b 40
        E 0 91 1c 40
        E 16 b1 0b 38
        E 32 b1 0b 30
        E 32 b1 0b 28
        E 16 b1 0b 20
        E 32 b1 0b 18
        E 32 b1 0b 10
        E 32 b1 0b 08
        E 32 81 1c 00
        E 48 b1 0b 40
        E 0 91 28 40
        E 16 b1 0b 38
        E 32 b1 0b 30
        E 32 b1 0b 28
        E 32 b1 0b 20
        E 16 b1 0b 18
        E 144 b1 0b 40
        E 0 81 28 00
        E 0 91 21 40
        E 128 b1 0b 18
        E 16 b1 0b 10
        E 32 b1 0b 08
        E 32 81 21 00
        E 64 b1 0b 40
        E 0 91 2d 40
        E 16 b1 0b 38
        E 32 b1 0b 30
        E 32 b1 0b 28
        E 32 b1 0b 20
        E 16 b1 0b 18
        E 16 b1 0b 10
        E 32 b1 0b 08
        E 32 81 2d 00
        E 48 b1 0b 40
        E 0 91 18 40
        E 16 b1 0b 38
        E 32 b1 0b 30
        E 16 b1 0b 28
        E 32 b1 0b 20
        E 32 b1 0b 18
        E 32 b1 0b 10
        E 32 b1 0b 08
        E 32 81 18 00
        E 48 b1 0b 40
        E 0 91 24 40
        E 16 b1 0b 38
        E 32 b1 0b 30
        E 32 b1 0b 28
        E 32 b1 0b 20
        E 16 b1 0b 18
        E 32 b1 0b 10
        E 32 b1 0b 08
        E 32 81 24 00
        E 48 b1 0b 40
        E 0 91 1a 40
        E 16 b1 0b 38
        E 32 b1 0b 30
        E 32 b1 0b 28
        E 32 b1 0b 20
        E 16 b1 0b 18
        E 16 b1 0b 10
        E 32 b1 0b 08
        E 16 81 1a 00
        E 80 b1 0b 40
        E 0 91 26 40
        E 16 b1 0b 38
        E 32 b1 0b 30
        E 32 b1 0b 28
        E 32 b1 0b 20
        E 16 b1 0b 18
        E 16 b1 0b 10
        E 32 b1 0b 08
        E 32 81 26 00
        E 64 b1 0b 40
        E 0 91 1c 40
        E 16 b1 0b 38
        E 32 b1 0b 30
        E 32 b1 0b 28
        E 32 b1 0b 20
        E 16 b1 0b 18
        E 16 b1 0b 10
        E 32 b1 0b 08
        E 32 81 1c 00
        E 48 b1 0b 40
        E 0 91 28 40
        E 16 b1 0b 38
        E 32 b1 0b 30
        E 16 b1 0b 28
        E 32 b1 0b 20
        E 32 b1 0b 18
        E 144 b1 0b 40
        E 0 81 28 00
        E 0 91 21 40
        E 128 b1 0b 18
        E 16 b1 0b 10
        E 16 b1 0b 08
        E 32 81 21 00
        E 80 b1 0b 40
        E 0 91 2d 40
        E 16 b1 0b 38
        E 32 b1 0b 30
        E 32 b1 0b 28
        E 32 b1 0b 20
        E 16 b1 0b 18
        E 16 b1 0b 10
        E 32 b1 0b 08
        E 32 81 2d 00
        E 64 b1 0b 40
        E 0 91 18 40
        E 16 b1 0b 38
        E 32 b1 0b 30
        E 32 b1 0b 28
        E 32 b1 0b 20
        E 16 b1 0b 18
        E 16 b1 0b 10
        E 32 b1 0b 08
        E 32 81 18 00
        E 48 b1 0b 40
        E 0 91 24 40
        E 16 b1 0b 38
        E 16 b1 0b 30
        E 32 b1 0b 28
        E 32 b1 0b 20
        E 32 b1 0b 18
        E 32 b1 0b 10
        E 32 b1 0b 08
        E 32 81 24 00
        E 48 b1 0b 40
        E 0 91 1a 40
        E 16 b1 0b 38
        E 32 b1 0b 30
        E 32 b1 0b 28
        E 16 b1 0b 20
        E 32 b1 0b 18
        E 32 b1 0b 10
        E 32 b1 0b 08
        E 32 81 1a 00
        E 48 b1 0b 40
        E 0 91 26 40
        E 16 b1 0b 38
        E 32 b1 0b 30
        E 32 b1 0b 28
        E 32 b1 0b 20
        E 16 b1 0b 18
        E 16 b1 0b 10
        E 16 b1 0b 08
        E 32 81 26 00
        E 80 b1 0b 40
        E 0 91 1c 40
        E 16 b1 0b 38
        E 32 b1 0b 30
        E 32 b1 0b 28
        E 32 b1 0b 20
        E 16 b1 0b 18
        E 16 b1 0b 10
        E 32 b1 0b 08
        E 32 81 1c 00
        E 64 b1 0b 40
        E 0 91 28 40
        E 16 b1 0b 38
        E 32 b1 0b 30
        E 32 b1 0b 28
        E 32 b1 0b 20
        E 16 b1 0b 18
        E 128 b1 0b 40
        E 0 81 28 00
        E 0 91 21 40
        E 144 b1 0b 18
        E 16 b1 0b 10
        E 32 b1 0b 08
        E 32 81 21 00
        E 48 b1 0b 40
        E 0 91 2d 40
        E 16 b1 0b 38
        E 32 b1 0b 30
        E 32 b1 0b 28
        E 32 b1 0b 20
        E 16 b1 0b 18
        E 32 b1 0b 10
        E 32 b1 0b 08
        E 32 81 2d 00
        E 48 b1 0b 40
        E 0 91 18 40
        E 16 b1 0b 38
        E 32 b1 0b 30
        E 32 b1 0b 28
        E 32 b1 0b 20
        E 16 b1 0b 18
        E 16 b1 0b 10
        E 32 b1 0b 08
        E 16 81 18 00
        E 80 b1 0b 40
        E 0 91 24 40
        E 16 b1 0b 38
        E 32 b1 0b 30
        E 32 b1 0b 28
        E 32 b1 0b 20
        E 16 b1 0b 18
        E 16 b1 0b 10
        E 32 b1 0b 08
        E 32 81 24 00
        E 64 b1 0b 40
        E 0 91 1a 40
        E 16 b1 0b 38
        E 32 b1 0b 30
        E 32 b1 0b 28
        E 32 b1 0b 20
        E 16 b1 0b 18
        E 16 b1 0b 10
        E 32 b1 0b 08
        E 32 81 1a 00
        E 48 b1 0b 40
        E 0 91 26 40
        E 16 b1 0b 38
        E 32 b1 0b 30
        E 16 b1 0b 28
        E 32 b1 0b 20
        E 32 b1 0b 18
        E 32 b1 0b 10
        E 32 b1 0b 08
        E 32 81 26 00
        E 48 b1 0b 40
        E 0 91 1c 40
        E 16 b1 0b 38
        E 32 b1 0b 30
        E 32 b1 0b 28
        E 32 b1 0b 20
        E 16 b1 0b 18
        E 32 b1 0b 10
        E 32 b1 0b 08
        E 32 81 1c 00
        E 48 b1 0b 40
        E 0 91 28 40
        E 16 b1 0b 38
        E 32 b1 0b 30
        E 32 b1 0b 28
        E 32 b1 0b 20
        E 16 b1 0b 18
        E 144 b1 0b 40
        E 0 81 28 00
        E 0 91 1c 40
        E 128 b1 0b 18
        E 128 b1 0b 40
        E 0 81 1c 00
        E 0 91 28 40
        E 16 b1 0b 38
        E 16 b1 0b 30
        E 32 b1 0b 28
        E 32 b1 0b 20
        E 32 b1 0b 18
        E 32 b1 0b 10
        E 32 b1 0b 08
        E 32 81 28 00
        E 48 b1 0b 40
        E 0 91 1f 40
        E 16 b1 0b 38
        E 32 b1 0b 30
        E 32 b1 0b 28
        E 16 b1 0b 20
        E 32 b1 0b 18
        E 32 b1 0b 10
        E 32 b1 0b 08
        E 32 81 1f 00
        E 48 b1 0b 40
        E 0 91 2b 40
        E 16 b1 0b 38
        E 32 b1 0b 30
        E 32 b1 0b 28
        E 32 b1 0b 20
        E 16 b1 0b 18
        E 16 b1 0b 10
        E 16 b1 0b 08
        E 32 81 2b 00
        E 80 b1 0b 40
        E 0 91 21 40
        E 16 b1 0b 38
        E 32 b1 0b 30
        E 32 b1 0b 28
        E 32 b1 0b 20
        E 16 b1 0b 18
        E 16 b1 0b 10
        E 32 b1 0b 08
        E 32 81 21 00
        E 64 b1 0b 40
        E 0 91 2d 40
        E 16 b1 0b 38
        E 32 b1 0b 30
        E 32 b1 0b 28
        E 32 b1 0b 20
        E 16 b1 0b 18
        E 16 b1 0b 10
        E 32 b1 0b 08
        E 32 81 2d 00
        E 48 b1 0b 40
        E 0 91 23 40
        E 16 b1 0b 38
        E 16 b1 0b 30
        E 32 b1 0b 28
        E 32 b1 0b 20
        E 32 b1 0b 18
        E 32 b1 0b 10
        E 32 b1 0b 08
        E 32 81 23 00
        E 48 b1 0b 40
        E 0 91 2f 40
        E 16 b1 0b 38
        E 32 b1 0b 30
        E 32 b1 0b 28
        E 32 b1 0b 20
        E 16 b1 0b 18
        E 144 b1 0b 40
        E 0 81 2f 00
        E 0 91 1c 40
        E 128 b1 0b 18
        E 144 b1 0b 40
        E 0 81 1c 00
        E 0 91 28 40
        E 16 b1 0b 38
        E 32 b1 0b 30
        E 32 b1 0b 28
        E 32 b1 0b 20
        E 16 b1 0b 18
        E 16 b1 0b 10
        E 32 b1 0b 08
        E 32 81 28 00
        E 64 b1 0b 40
        E 0 91 1f 40
        E 16 b1 0b 38
        E 32 b1 0b 30
        E 32 b1 0b 28
        E 32 b1 0b 20
        E 16 b1 0b 18
        E 16 b1 0b 10
        E 32 b1 0b 08
        E 32 81 1f 00
        E 48 b1 0b 40
        E 0 91 2b 40
        E 16 b1 0b 38
        E 32 b1 0b 30
        E 16 b1 0b 28
        E 32 b1 0b 20
        E 32 b1 0b 18
        E 32 b1 0b 10
        E 32 b1 0b 08
        E 32 81 2b 00
        E 48 b1 0b 40
        E 0 91 21 40
        E 16 b1 0b 38
        E 32 b1 0b 30
        E 32 b1 0b 28
        E 32 b1 0b 20
        E 16 b1 0b 18
        E 32 b1 0b 10
        E 32 b1 0b 08
        E 32 81 21 00
        E 48 b1 0b 40
        E 0 91 2d 40
        E 16 b1 0b 38
        E 32 b1 0b 30
        E 32 b1 0b 28
        E 32 b1 0b 20
        E 16 b1 0b 18
        E 16 b1 0b 10
        E 32 b1 0b 08
        E 16 81 2d 00
        E 80 b1 0b 40
        E 0 91 23 40
        E 16 b1 0b 38
        E 32 b1 0b 30
        E 32 b1 0b 28
        E 32 b1 0b 20
        E 16 b1 0b 18
        E 16 b1 0b 10
        E 32 b1 0b 08
        E 32 81 23 00
        E 48 b1 0b 40
        E 0 91 2f 40
        E 16 b1 0b 38
        E 16 b1 0b 30
        E 32 b1 0b 28
        E 32 b1 0b 20
        E 32 b1 0b 18
        E 144 b1 0b 40
        E 0 81 2f 00
        E 0 91 1c 40
        E 144 b1 0b 18
        E 128 b1 0b 40
        E 0 81 1c 00
        E 0 91 28 40
        E 16 b1 0b 38
        E 32 b1 0b 30
        E 32 b1 0b 28
        E 32 b1 0b 20
        E 16 b1 0b 18
        E 16 b1 0b 10
        E 16 b1 0b 08
        E 32 81 28 00
        E 80 b1 0b 40
        E 0 91 1f 40
        E 16 b1 0b 38
        E 32 b1 0b 30
        E 32 b1 0b 28
        E 32 b1 0b 20
        E 16 b1 0b 18
        E 16 b1 0b 10
        E 32 b1 0b 08
        E 32 81 1f 00
        E 64 b1 0b 40
        E 0 91 2b 40
        E 16 b1 0b 38
        E 32 b1 0b 30
        E 32 b1 0b 28
        E 32 b1 0b 20
        E 16 b1 0b 18
        E 16 b1 0b 10
        E 32 b1 0b 08
        E 32 81 2b 00
        E 48 b1 0b 40
        E 0 91 21 40
        E 16 b1 0b 38
        E 16 b1 0b 30
        E 32 b1 0b 28
        E 32 b1 0b 20
        E 32 b1 0b 18
        E 32 b1 0b 10
        E 32 b1 0b 08
        E 32 81 21 00
        E 48 b1 0b 40
        E 0 91 2d 40
        E 16 b1 0b 38
        E 32 b1 0b 30
        E 32 b1 0b 28
        E 16 b1 0b 20
        E 32 b1 0b 18
        E 32 b1 0b 10
        E 32 b1 0b 08
        E 32 81 2d 00
        E 48 b1 0b 40
        E 0 91 23 40
        E 16 b1 0b 38
        E 32 b1 0b 30
        E 32 b1 0b 28
        E 32 b1 0b 20
        E 16 b1 0b 18
        E 16 b1 0b 10
        E 32 b1 0b 08
        E 16 81 23 00
        E 80 b1 0b 40
        E 0 91 2f 40
        E 16 b1 0b 38
        E 32 b1 0b 30
        E 32 b1 0b 28
        E 32 b1 0b 20
        E 16 b1 0b 18
        E 144 b1 0b 40
        E 0 81 2f 00
        E 0 91 1c 40
        E 128 b1 0b 18
        E 128 b1 0b 40
        E 0 81 1c 00
        E 0 91 28 40
        E 16 b1 0b 38
        E 32 b1 0b 30
        E 16 b1 0b 28
        E 32 b1 0b 20
        E 32 b1 0b 18
        E 32 b1 0b 10
        E 32 b1 0b 08
        E 32 81 28 00
        E 48 b1 0b 40
        E 0 91 1f 40
        E 16 b1 0b 38
        E 32 b1 0b 30
        E 32 b1 0b 28
        E 32 b1 0b 20
        E 16 b1 0b 18
        E 32 b1 0b 10
        E 32 b1 0b 08
        E 32 81 1f 00
        E 48 b1 0b 40
        E 0 91 2b 40
        E 16 b1 0b 38
        E 32 b1 0b 30
        E 32 b1 0b 28
        E 32 b1 0b 20
        E 16 b1 0b 18
        E 16 b1 0b 10
        E 32 b1 0b 08
        E 16 81 2b 00
        E 80 b1 0b 40
        E 0 91 21 40
        E 16 b1 0b 38
        E 32 b1 0b 30
        E 32 b1 0b 28
        E 32 b1 0b 20
        E 16 b1 0b 18
        E 16 b1 0b 10
        E 32 b1 0b 08
        E 32 81 21 00
        E 64 b1 0b 40
        E 0 91 2d 40
        E 16 b1 0b 38
        E 32 b1 0b 30
        E 32 b1 0b 28
        E 32 b1 0b 20
        E 16 b1 0b 18
        E 16 b1 0b 10
        E 32 b1 0b 08
        E 32 81 2d 00
        E 48 b1 0b 40
        E 0 91 23 40
        E 16 b1 0b 38
        E 32 b1 0b 30
        E 32 b1 0b 28
        E 16 b1 0b 20
        E 32 b1 0b 18
        E 32 b1 0b 10
        E 32 b1 0b 08
        E 32 81 23 00
        E 48 b1 0b 40
        E 0 91 2f 40
        E 16 b1 0b 38
        E 32 b1 0b 30
        E 32 b1 0b 28
        E 32 b1 0b 20
        E 16 b1 0b 18
        E 144 b1 0b 40
        E 0 81 2f 00
        E 0 91 2c 40
        E 16 b1 0b 38
        E 32 b1 0b 30
        E 16 b1 0b 18
        E 64 b1 0b 28
        E 0 81 2c 00
        E 0 91 2d 28
        E 64 b1 0b 18
        E 80 b1 0b 08
        E 64 b1 0b 18
        E 64 b1 0b 28
        E 64 b1 0b 18
        E 64 b1 0b 08
        E 80 b1 0b 18
        E 64 b1 0b 28
        E 64 b1 0b 18
        E 64 b1 0b 08
        E 64 b1 0b 18
        E 80 b1 0b 28
        E 64 b1 0b 18
        E 64 b1 0b 40
        E 64 b1 0b 18
        E 64 b1 0b 28
        E 0 81 2d 00
        E 0 91 2e 28
        E 80 b1 0b 18
        E 64 b1 0b 08
        E 64 b1 0b 18
        E 64 b1 0b 28
        E 64 b1 0b 18
        E 80 b1 0b 08
        E 64 b1 0b 18
        E 64 b1 0b 28
        E 64 b1 0b 18
        E 64 b1 0b 08
        E 80 b1 0b 18
        E 64 b1 0b 28
        E 64 b1 0b 18
        E 64 b1 0b 40
        E 64 b1 0b 18
        E 80 b1 0b 28
        E 0 81 2e 00
        E 0 91 2f 28
        E 64 b1 0b 18
        E 64 b1 0b 08
        E 64 b1 0b 18
        E 64 b1 0b 28
        E 80 b1 0b 18
        E 64 b1 0b 08
        E 64 b1 0b 18
        E 64 b1 0b 28
        E 64 b1 0b 18
        E 80 b1 0b 08
        E 64 b1 0b 18
        E 64 b1 0b 28
        E 64 b1 0b 18
        E 64 b1 0b 40
        E 80 b1 0b 18
        E 64 b1 0b 28
        E 0 81 2f 00
        E 0 91 2e 28
        E 64 b1 0b 18
        E 64 b1 0b 08
        E 64 b1 0b 18
        E 64 b1 0b 28
        E 80 b1 0b 18
        E 64 b1 0b 08
        E 64 b1 0b 18
        E 64 b1 0b 28
        E 64 b1 0b 18
        E 80 b1 0b 08
        E 64 b1 0b 18
        E 64 b1 0b 28
        E 64 b1 0b 18
        E 64 b1 0b 40
        E 0 81 2e 00
        E 0 91 27 40
        E 16 b1 0b 38
        E 16 b1 0b 30
        E 32 b1 0b 28
        E 16 b1 0b 18
        E 64 b1 0b 28
        E 0 81 27 00
        E 0 91 28 28
        E 64 b1 0b 18
        E 64 b1 0b 08
        E 64 b1 0b 18
        E 80 b1 0b 28
        E 64 b1 0b 18
        E 64 b1 0b 08
        E 64 b1 0b 18
        E 64 b1 0b 28
        E 80 b1 0b 18
        E 64 b1 0b 08
        E 64 b1 0b 18
        E 64 b1 0b 28
        E 64 b1 0b 18
        E 80 b1 0b 40
        E 64 b1 0b 18
        E 64 b1 0b 28
        E 0 81 28 00
        E 0 91 29 28
        E 64 b1 0b 18
        E 64 b1 0b 08
        E 80 b1 0b 18
        E 64 b1 0b 28
        E 64 b1 0b 18
        E 64 b1 0b 08
        E 64 b1 0b 18
        E 80 b1 0b 28
        E 64 b1 0b 18
        E 64 b1 0b 08
        E 64 b1 0b 18
        E 64 b1 0b 28
        E 80 b1 0b 18
        E 64 b1 0b 40
        E 64 b1 0b 18
        E 64 b1 0b 28
        E 0 81 29 00
        E 0 91 2a 28
        E 64 b1 0b 18
        E 80 b1 0b 08
        E 64 b1 0b 18
        E 64 b1 0b 28
        E 64 b1 0b 18
        E 64 b1 0b 08
        E 80 b1 0b 18
        E 64 b1 0b 28
        E 64 b1 0b 18
        E 64 b1 0b 08
        E 64 b1 0b 18
        E 80 b1 0b 28
        E 64 b1 0b 18
        E 64 b1 0b 40
        E 64 b1 0b 18
        E 64 b1 0b 28
        E 0 81 2a 00
        E 0 91 29 28
        E 64 b1 0b 18
        E 80 b1 0b 08
        E 64 b1 0b 18
        E 64 b1 0b 28
        E 64 b1 0b 18
        E 64 b1 0b 08
        E 80 b1 0b 18
        E 64 b1 0b 28
        E 64 b1 0b 18
        E 64 b1 0b 08
        E 64 b1 0b 18
        E 80 b1 0b 28
        E 64 b1 0b 18
        E 64 b1 0b 40
        E 0 81 29 00
        E 0 91 2e 40
        E 16 b1 0b 38
        E 32 b1 0b 30
        E 16 b1 0b 18
        E 64 b1 0b 28
        E 0 81 2e 00
        E 0 91 2f 28
        E 80 b1 0b 18
        E 64 b1 0b 08
        E 64 b1 0b 18
        E 64 b1 0b 28
        E 64 b1 0b 18
        E 80 b1 0b 08
        E 64 b1 0b 18
        E 64 b1 0b 28
        E 64 b1 0b 18
        E 64 b1 0b 08
        E 80 b1 0b 18
        E 64 b1 0b 28
        E 64 b1 0b 18
        E 64 b1 0b 40
        E 64 b1 0b 18
        E 80 b1 0b 28
        E 0 81 2f 00
        E 0 91 30 28
        E 64 b1 0b 18
        E 64 b1 0b 08
        E 64 b1 0b 18
        E 64 b1 0b 28
        E 80 b1 0b 18
        E 64 b1 0b 08
        E 64 b1 0b 18
        E 64 b1 0b 28
        E 64 b1 0b 18
        E 80 b1 0b 08
        E 64 b1 0b 18
        E 64 b1 0b 28
        E 64 b1 0b 18
        E 64 b1 0b 40
        E 80 b1 0b 18
        E 64 b1 0b 28
        E 0 81 30 00
        E 0 91 31 28
        E 64 b1 0b 18
        E 64 b1 0b 08
        E 64 b1 0b 18
        E 80 b1 0b 28
        E 64 b1 0b 18
        E 64 b1 0b 08
        E 64 b1 0b 18
        E 64 b1 0b 28
        E 80 b1 0b 18
        E 64 b1 0b 08
        E 64 b1 0b 18
        E 64 b1 0b 28
        E 64 b1 0b 18
        E 64 b1 0b 40
        E 80 b1 0b 18
        E 64 b1 0b 28
        E 0 81 31 00
        E 0 91 30 28
        E 64 b1 0b 18
        E 64 b1 0b 08
        E 64 b1 0b 18
        E 80 b1 0b 28
        E 64 b1 0b 18
        E 64 b1 0b 08
        E 64 b1 0b 18
        E 64 b1 0b 28
        E 80 b1 0b 18
        E 64 b1 0b 08
        E 64 b1 0b 18
        E 64 b1 0b 28
        E 64 b1 0b 18
        E 80 b1 0b 40
        E 0 81 30 00
        E 0 91 29 40
        E 16 b1 0b 38
        E 32 b1 0b 30
        E 16 b1 0b 18
        E 64 b1 0b 28
        E 0 81 29 00
        E 0 91 2a 28
        E 64 b1 0b 18
        E 64 b1 0b 08
        E 80 b1 0b 18
        E 64 b1 0b 28
        E 64 b1 0b 18
        E 64 b1 0b 08
        E 64 b1 0b 18
        E 80 b1 0b 28
        E 64 b1 0b 18
        E 64 b1 0b 08
        E 64 b1 0b 18
        E 64 b1 0b 28
        E 80 b1 0b 18
        E 64 b1 0b 40
        E 64 b1 0b 18
        E 64 b1 0b 28
        E 0 81 2a 00
        E 0 91 2b 28
        E 64 b1 0b 18
        E 80 b1 0b 08
        E 64 b1 0b 18
        E 64 b1 0b 28
        E 64 b1 0b 18
        E 64 b1 0b 08
        E 80 b1 0b 18
        E 64 b1 0b 28
        E 64 b1 0b 18
        E 64 b1 0b 08
        E 64 b1 0b 18
        E 80 b1 0b 28
        E 64 b1 0b 18
        E 64 b1 0b 40
        E 64 b1 0b 18
        E 64 b1 0b 28
        E 0 81 2b 00
        E 0 91 2c 28
        E 80 b1 0b 18
        E 64 b1 0b 08
        E 64 b1 0b 18
        E 64 b1 0b 28
        E 64 b1 0b 18
        E 80 b1 0b 08
        E 64 b1 0b 18
        E 64 b1 0b 28
        E 64 b1 0b 18
        E 64 b1 0b 08
        E 64 b1 0b 18
        E 80 b1 0b 28
        E 64 b1 0b 18
        E 64 b1 0b 40
        E 64 b1 0b 18
        E 64 b1 0b 28
        E 0 81 2c 00
        E 0 91 2b 28
        E 80 b1 0b 18
        E 64 b1 0b 08
        E 64 b1 0b 18
        E 64 b1 0b 28
        E 64 b1 0b 18
        E 80 b1 0b 08
        E 64 b1 0b 18
        E 64 b1 0b 28
        E 64 b1 0b 18
        E 64 b1 0b 08
        E 80 b1 0b 18
        E 64 b1 0b 28
        E 64 b1 0b 18
        E 64 b1 0b 40
        E 0 81 2b 00
        E 0 91 1c 40
        E 16 b1 0b 38
        E 32 b1 0b 30
        E 32 b1 0b 28
        E 16 b1 0b 20
        E 32 b1 0b 18
        E 144 b1 0b 40
        E 0 81 1c 00
        E 0 91 28 40
        E 16 b1 0b 38
        E 32 b1 0b 30
        E 32 b1 0b 28
        E 32 b1 0b 20
        E 16 b1 0b 18
        E 16 b1 0b 10
        E 16 b1 0b 08
        E 32 81 28 00
        E 80 b1 0b 40
        E 0 91 1f 40
        E 16 b1 0b 38
        E 32 b1 0b 30
        E 32 b1 0b 28
        E 32 b1 0b 20
        E 16 b1 0b 18
        E 16 b1 0b 10
        E 32 b1 0b 08
        E 32 81 1f 00
        E 64 b1 0b 40
        E 0 91 2b 40
        E 16 b1 0b 38
        E 32 b1 0b 30
        E 32 b1 0b 28
        E 32 b1 0b 20
        E 16 b1 0b 18
        E 16 b1 0b 10
        E 32 b1 0b 08
        E 32 81 2b 00
        E 48 b1 0b 40
        E 0 91 21 40
        E 16 b1 0b 38
        E 32 b1 0b 30
        E 16 b1 0b 28
        E 32 b1 0b 20
        E 32 b1 0b 18
        E 32 b1 0b 10
        E 32 b1 0b 08
        E 32 81 21 00
        E 48 b1 0b 40
        E 0 91 2d 40
        E 16 b1 0b 38
        E 32 b1 0b 30
        E 32 b1 0b 28
        E 32 b1 0b 20
        E 16 b1 0b 18
        E 32 b1 0b 10
        E 32 b1 0b 08
        E 32 81 2d 00
        E 48 b1 0b 40
        E 0 91 23 40
        E 16 b1 0b 38
        E 32 b1 0b 30
        E 32 b1 0b 28
        E 32 b1 0b 20
        E 16 b1 0b 18
        E 16 b1 0b 10
        E 32 b1 0b 08
        E 16 81 23 00
        E 80 b1 0b 40
        E 0 91 2f 40
        E 16 b1 0b 38
        E 32 b1 0b 30
        E 32 b1 0b 28
        E 32 b1 0b 20
        E 16 b1 0b 18
        E 144 b1 0b 40
        E 0 81 2f 00
        E 0 91 1c 40
        E 128 b1 0b 18
        E 128 b1 0b 40
        E 0 81 1c 00
        E 0 91 28 40
        E 16 b1 0b 38
        E 32 b1 0b 30
        E 16 b1 0b 28
        E 32 b1 0b 20
        E 32 b1 0b 18
        E 32 b1 0b 10
        E 32 b1 0b 08
        E 32 81 28 00
        E 48 b1 0b 40
        E 0 91 1f 40
        E 16 b1 0b 38
        E 32 b1 0b 30
        E 32 b1 0b 28
        E 32 b1 0b 20
        E 16 b1 0b 18
        E 16 b1 0b 10
        E 16 b1 0b 08
        E 32 81 1f 00
        E 80 b1 0b 40
        E 0 91 2b 40
        E 16 b1 0b 38
        E 32 b1 0b 30
        E 32 b1 0b 28
        E 32 b1 0b 20
        E 16 b1 0b 18
        E 16 b1 0b 10
        E 32 b1 0b 08
        E 32 81 2b 00
        E 64 b1 0b 40
        E 0 91 21 40
        E 16 b1 0b 38
        E 32 b1 0b 30
        E 32 b1 0b 28
        E 32 b1 0b 20
        E 16 b1 0b 18
        E 16 b1 0b 10
        E 32 b1 0b 08
        E 32 81 21 00
        E 48 b1 0b 40
        E 0 91 2d 40
        E 16 b1 0b 38
        E 16 b1 0b 30
        E 32 b1 0b 28
        E 32 b1 0b 20
        E 32 b1 0b 18
        E 32 b1 0b 10
        E 32 b1 0b 08
        E 32 81 2d 00
        E 48 b1 0b 40
        E 0 91 23 40
        E 16 b1 0b 38
        E 32 b1 0b 30
        E 32 b1 0b 28
        E 16 b1 0b 20
        E 32 b1 0b 18
        E 32 b1 0b 10
        E 32 b1 0b 08
        E 32 81 23 00
        E 48 b1 0b 40
        E 0 91 2f 40
        E 16 b1 0b 38
        E 32 b1 0b 30
        E 32 b1 0b 28
        E 32 b1 0b 20
        E 16 b1 0b 18
        E 144 b1 0b 40
        E 0 81 2f 00
        E 0 91 1c 40
        E 128 b1 0b 18
        E 144 b1 0b 40
        E 0 81 1c 00
        E 0 91 28 40
        E 16 b1 0b 38
        E 32 b1 0b 30
        E 32 b1 0b 28
        E 32 b1 0b 20
        E 16 b1 0b 18
        E 16 b1 0b 10
        E 32 b1 0b 08
        E 32 81 28 00
        E 48 b1 0b 40
        E 0 91 1f 40
        E 16 b1 0b 38
        E 32 b1 0b 30
        E 16 b1 0b 28
        E 32 b1 0b 20
        E 32 b1 0b 18
        E 32 b1 0b 10
        E 32 b1 0b 08
        E 32 81 1f 00
        E 48 b1 0b 40
        E 0 91 2b 40
        E 16 b1 0b 38
        E 32 b1 0b 30
        E 32 b1 0b 28
        E 32 b1 0b 20
        E 16 b1 0b 18
        E 32 b1 0b 10
        E 32 b1 0b 08
        E 32 81 2b 00
        E 48 b1 0b 40
        E 0 91 21 40
        E 16 b1 0b 38
        E 32 b1 0b 30
        E 32 b1 0b 28
        E 32 b1 0b 20
        E 16 b1 0b 18
        E 16 b1 0b 10
        E 32 b1 0b 08
        E 16 81 21 00
        E 80 b1 0b 40
        E 0 91 2d 40
        E 16 b1 0b 38
        E 32 b1 0b 30
        E 32 b1 0b 28
        E 32 b1 0b 20
        E 16 b1 0b 18
        E 16 b1 0b 10
        E 32 b1 0b 08
        E 32 81 2d 00
        E 64 b1 0b 40
        E 0 91 23 40
        E 16 b1 0b 38
        E 32 b1 0b 30
        E 32 b1 0b 28
        E 32 b1 0b 20
        E 16 b1 0b 18
        E 16 b1 0b 10
        E 32 b1 0b 08
        E 32 81 23 00
        E 48 b1 0b 40
        E 0 91 2f 40
        E 16 b1 0b 38
        E 32 b1 0b 30
        E 16 b1 0b 28
        E 32 b1 0b 20
        E 32 b1 0b 18
        E 144 b1 0b 40
        E 0 81 2f 00
        E 0 91 1c 40
        E 144 b1 0b 18
        E 128 b1 0b 40
        E 0 81 1c 00
        E 0 91 28 40
        E 16 b1 0b 38
        E 32 b1 0b 30
        E 32 b1 0b 28
        E 32 b1 0b 20
        E 16 b1 0b 18
        E 16 b1 0b 10
        E 32 b1 0b 08
        E 32 81 28 00
        E 64 b1 0b 40
        E 0 91 1f 40
        E 16 b1 0b 38
        E 32 b1 0b 30
        E 32 b1 0b 28
        E 32 b1 0b 20
        E 16 b1 0b 18
        E 16 b1 0b 10
        E 32 b1 0b 08
        E 32 81 1f 00
        E 48 b1 0b 40
        E 0 91 2b 40
        E 16 b1 0b 38
        E 16 b1 0b 30
        E 32 b1 0b 28
        E 32 b1 0b 20
        E 32 b1 0b 18
        E 32 b1 0b 10
        E 32 b1 0b 08
        E 32 81 2b 00
        E 48 b1 0b 40
        E 0 91 21 40
        E 16 b1 0b 38
        E 32 b1 0b 30
        E 32 b1 0b 28
        E 16 b1 0b 20
        E 32 b1 0b 18
        E 32 b1 0b 10
        E 32 b1 0b 08
        E 32 81 21 00
        E 48 b1 0b 40
        E 0 91 2d 40
        E 16 b1 0b 38
        E 32 b1 0b 30
        E 32 b1 0b 28
        E 32 b1 0b 20
        E 16 b1 0b 18
        E 16 b1 0b 10
        E 16 b1 0b 08
        E 32 81 2d 00
        E 80 b1 0b 40
        E 0 91 23 40
        E 16 b1 0b 38
        E 32 b1 0b 30
        E 32 b1 0b 28
        E 32 b1 0b 20
        E 16 b1 0b 18
        E 16 b1 0b 10
        E 32 b1 0b 08
        E 32 81 23 00
        E 64 b1 0b 40
        E 0 91 2f 40
        E 16 b1 0b 38
        E 32 b1 0b 30
        E 32 b1 0b 28
        E 32 b1 0b 20
        E 16 b1 0b 18
        E 128 b1 0b 40
        E 0 81 2f 00
        E 0 91 1c 40
        E 144 b1 0b 18
        E 128 b1 0b 40
        E 0 81 1c 00
        E 0 91 28 40
        E 16 b1 0b 38
        E 32 b1 0b 30
        E 32 b1 0b 28
        E 32 b1 0b 20
        E 16 b1 0b 18
        E 32 b1 0b 10
        E 32 b1 0b 08
        E 32 81 28 00
        E 48 b1 0b 40
        E 0 91 1f 40
        E 16 b1 0b 38
        E 32 b1 0b 30
        E 32 b1 0b 28
        E 32 b1 0b 20
        E 16 b1 0b 18
        E 16 b1 0b 10
        E 32 b1 0b 08
        E 16 81 1f 00
        E 80 b1 0b 40
        E 0 91 2b 40
        E 16 b1 0b 38
        E 32 b1 0b 30
        E 32 b1 0b 28
        E 32 b1 0b 20
        E 16 b1 0b 18
        E 16 b1 0b 10
        E 32 b1 0b 08
        E 32 81 2b 00
        E 64 b1 0b 40
        E 0 91 21 40
        E 16 b1 0b 38
        E 32 b1 0b 30
        E 32 b1 0b 28
        E 32 b1 0b 20
        E 16 b1 0b 18
        E 16 b1 0b 10
        E 32 b1 0b 08
        E 32 81 21 00
        E 48 b1 0b 40
        E 0 91 2d 40
        E 16 b1 0b 38
        E 32 b1 0b 30
        E 16 b1 0b 28
        E 32 b1 0b 20
        E 32 b1 0b 18
        E 32 b1 0b 10
        E 32 b1 0b 08
        E 32 81 2d 00
        E 48 b1 0b 40
        E 0 91 23 40
        E 16 b1 0b 38
        E 32 b1 0b 30
        E 32 b1 0b 28
        E 32 b1 0b 20
        E 16 b1 0b 18
        E 32 b1 0b 10
        E 32 b1 0b 08
        E 32 81 23 00
        E 48 b1 0b 40
        E 0 91 2f 40
        E 16 b1 0b 38
        E 32 b1 0b 30
        E 32 b1 0b 28
        E 32 b1 0b 20
        E 16 b1 0b 18
        E 144 b1 0b 40
        E 0 81 2f 00
        E 0 91 1c 40
        E 128 b1 0b 18
        E 128 b1 0b 40
        E 0 81 1c 00
        E 0 91 28 40
        E 16 b1 0b 38
        E 16 b1 0b 30
        E 32 b1 0b 28
        E 32 b1 0b 20
        E 32 b1 0b 18
        E 32 b1 0b 10
        E 32 b1 0b 08
        E 32 81 28 00
        E 48 b1 0b 40
        E 0 91 1f 40
        E 16 b1 0b 38
        E 32 b1 0b 30
        E 32 b1 0b 28
        E 16 b1 0b 20
        E 32 b1 0b 18
        E 32 b1 0b 10
        E 32 b1 0b 08
        E 32 81 1f 00
        E 48 b1 0b 40
        E 0 91 2b 40
        E 16 b1 0b 38
        E 32 b1 0b 30
        E 32 b1 0b 28
        E 32 b1 0b 20
        E 16 b1 0b 18
        E 16 b1 0b 10
        E 16 b1 0b 08
        E 32 81 2b 00
        E 80 b1 0b 40
        E 0 91 21 40
        E 16 b1 0b 38
        E 32 b1 0b 30
        E 32 b1 0b 28
        E 32 b1 0b 20
        E 16 b1 0b 18
        E 16 b1 0b 10
        E 32 b1 0b 08
        E 32 81 21 00
        E 64 b1 0b 40
        E 0 91 2d 40
        E 16 b1 0b 38
        E 32 b1 0b 30
        E 32 b1 0b 28
        E 32 b1 0b 20
        E 16 b1 0b 18
        E 16 b1 0b 10
        E 32 b1 0b 08
        E 32 81 2d 00
        E 48 b1 0b 40
        E 0 91 23 40
        E 16 b1 0b 38
        E 16 b1 0b 30
        E 32 b1 0b 28
        E 32 b1 0b 20
        E 32 b1 0b 18
        E 32 b1 0b 10
        E 32 b1 0b 08
        E 32 81 23 00
        E 48 b1 0b 40
        E 0 91 2f 40
        E 16 b1 0b 38
        E 32 b1 0b 30
        E 32 b1 0b 28
        E 16 b1 0b 20
        E 32 b1 0b 18
        E 144 b1 0b 40
        E 0 81 2f 00
        E 0 91 28 40
        E 64 81 28 00
        E 64 91 2a 40
        E 16 b1 0b 38
        E 32 b1 0b 30
        E 16 b1 0b 28
        E 16 b1 0b 18
        E 0 81 2a 00
        E 0 91 28 18
        E 16 b1 0b 10
        E 32 b1 0b 08
        E 16 b1 0b 40
        E 0 81 28 00
        E 0 91 2b 40
        E 16 b1 0b 38
        E 32 b1 0b 30
        E 16 b1 0b 18
        E 0 81 2b 00
        E 0 91 2a 18
        E 16 b1 0b 10
        E 32 b1 0b 08
        E 16 b1 0b 40
        E 0 81 2a 00
        E 0 91 2d 40
        E 16 b1 0b 38
        E 32 b1 0b 30
        E 16 b1 0b 18
        E 0 81 2d 00
        E 0 91 2b 18
        E 16 b1 0b 10
        E 32 b1 0b 08
        E 16 81 2b 00
        E 16 b1 0b 40
        E 0 91 2f 40
        E 16 b1 0b 38
        E 32 b1 0b 30
        E 16 b1 0b 18
        E 0 81 2f 00
        E 0 91 2d 18
        E 16 b1 0b 10
        E 32 b1 0b 08
        E 16 b1 0b 40
        E 0 81 2d 00
        E 0 91 30 40
        E 16 b1 0b 38
        E 32 b1 0b 30
        E 16 b1 0b 18
        E 0 81 30 00
        E 0 91 2f 18
        E 16 b1 0b 10
        E 32 b1 0b 08
        E 16 b1 0b 40
        E 0 81 2f 00
        E 0 91 32 40
        E 16 b1 0b 38
        E 32 b1 0b 30
        E 16 b1 0b 28
        E 16 b1 0b 18
        E 0 81 32 00
        E 0 91 30 18
        E 16 b1 0b 10
        E 32 b1 0b 08
        E 16 b1 0b 40
        E 0 81 30 00
        E 0 91 34 40
        E 16 b1 0b 38
        E 32 b1 0b 30
        E 16 b1 0b 10
        E 0 81 34 00
        E 0 91 32 10
        E 64 b1 0b 40
        E 0 81 32 00
        E 0 91 21 40
        E 144 b1 0b 18
        E 16 b1 0b 10
        E 32 b1 0b 08
        E 32 81 21 00
        E 48 b1 0b 40
        E 0 91 2d 40
        E 16 b1 0b 38
        E 32 b1 0b 30
        E 32 b1 0b 28
        E 32 b1 0b 20
        E 16 b1 0b 18
        E 16 b1 0b 10
        E 32 b1 0b 08
        E 16 81 2d 00
        E 80 b1 0b 40
        E 0 91 18 40
        E 16 b1 0b 38
        E 32 b1 0b 30
        E 32 b1 0b 28
        E 32 b1 0b 20
        E 16 b1 0b 18
        E 16 b1 0b 10
        E 32 b1 0b 08
        E 32 81 18 00
        E 64 b1 0b 40
        E 0 91 24 40
        E 16 b1 0b 38
        E 32 b1 0b 30
        E 32 b1 0b 28
        E 32 b1 0b 20
        E 16 b1 0b 18
        E 16 b1 0b 10
        E 32 b1 0b 08
        E 32 81 24 00
        E 48 b1 0b 40
        E 0 91 1a 40
        E 16 b1 0b 38
        E 32 b1 0b 30
        E 32 b1 0b 28
        E 16 b1 0b 20
        E 32 b1 0b 18
        E 32 b1 0b 10
        E 32 b1 0b 08
        E 32 81 1a 00
        E 48 b1 0b 40
        E 0 91 26 40
        E 16 b1 0b 38
        E 32 b1 0b 30
        E 32 b1 0b 28
        E 32 b1 0b 20
        E 16 b1 0b 18
        E 16 b1 0b 10
        E 16 b1 0b 08
        E 32 81 26 00
        E 80 b1 0b 40
        E 0 91 1c 40
        E 16 b1 0b 38
        E 32 b1 0b 30
        E 32 b1 0b 28
        E 32 b1 0b 20
        E 16 b1 0b 18
        E 16 b1 0b 10
        E 32 b1 0b 08
        E 32 81 1c 00
        E 64 b1 0b 40
        E 0 91 28 40
        E 16 b1 0b 38
        E 32 b1 0b 30
        E 32 b1 0b 28
        E 32 b1 0b 20
        E 16 b1 0b 18
        E 128 b1 0b 40
        E 0 81 28 00
        E 0 91 21 40
        E 144 b1 0b 18
        E 16 b1 0b 10
        E 32 b1 0b 08
        E 32 81 21 00
        E 48 b1 0b 40
        E 0 91 2d 40
        E 16 b1 0b 38
        E 32 b1 0b 30
        E 32 b1 0b 28
        E 16 b1 0b 20
        E 32 b1 0b 18
        E 32 b1 0b 10
        E 32 b1 0b 08
        E 32 81 2d 00
        E 48 b1 0b 40
        E 0 91 18 40
        E 16 b1 0b 38
        E 32 b1 0b 30
        E 32 b1 0b 28
        E 32 b1 0b 20
        E 16 b1 0b 18
        E 16 b1 0b 10
        E 16 b1 0b 08
        E 32 81 18 00
        E 80 b1 0b 40
        E 0 91 24 40
        E 16 b1 0b 38
        E 32 b1 0b 30
        E 32 b1 0b 28
        E 32 b1 0b 20
        E 16 b1 0b 18
        E 16 b1 0b 10
        E 32 b1 0b 08
        E 32 81 24 00
        E 64 b1 0b 40
        E 0 91 1a 40
        E 16 b1 0b 38
        E 32 b1 0b 30
        E 32 b1 0b 28
        E 32 b1 0b 20
        E 16 b1 0b 18
        E 16 b1 0b 10
        E 32 b1 0b 08
        E 32 81 1a 00
        E 48 b1 0b 40
        E 0 91 26 40
        E 16 b1 0b 38
        E 32 b1 0b 30
        E 16 b1 0b 28
        E 32 b1 0b 20
        E 32 b1 0b 18
        E 32 b1 0b 10
        E 32 b1 0b 08
        E 32 81 26 00
        E 48 b1 0b 40
        E 0 91 1c 40
        E 16 b1 0b 38
        E 32 b1 0b 30
        E 32 b1 0b 28
        E 32 b1 0b 20
        E 16 b1 0b 18
        E 32 b1 0b 10
        E 32 b1 0b 08
        E 32 81 1c 00
        E 48 b1 0b 40
        E 0 91 28 40
        E 16 b1 0b 38
        E 32 b1 0b 30
        E 32 b1 0b 28
        E 32 b1 0b 20
        E 16 b1 0b 18
        E 144 b1 0b 40
        E 0 81 28 00
        E 0 91 21 40
        E 128 b1 0b 18
        E 16 b1 0b 10
        E 32 b1 0b 08
        E 32 81 21 00
        E 64 b1 0b 40
        E 0 91 2d 40
        E 16 b1 0b 38
        E 32 b1 0b 30
        E 32 b1 0b 28
        E 32 b1 0b 20
        E 16 b1 0b 18
        E 16 b1 0b 10
        E 32 b1 0b 08
        E 32 81 2d 00
        E 48 b1 0b 40
        E 0 91 18 40
        E 16 b1 0b 38
        E 32 b1 0b 30
        E 16 b1 0b 28
        E 32 b1 0b 20
        E 32 b1 0b 18
        E 32 b1 0b 10
        E 32 b1 0b 08
        E 32 81 18 00
        E 48 b1 0b 40
        E 0 91 24 40
        E 16 b1 0b 38
        E 32 b1 0b 30
        E 32 b1 0b 28
        E 32 b1 0b 20
        E 16 b1 0b 18
        E 16 b1 0b 10
        E 16 b1 0b 08
        E 32 81 24 00
        E 80 b1 0b 40
        E 0 91 1a 40
        E 16 b1 0b 38
        E 32 b1 0b 30
        E 32 b1 0b 28
        E 32 b1 0b 20
        E 16 b1 0b 18
        E 16 b1 0b 10
        E 32 b1 0b 08
        E 32 81 1a 00
        E 64 b1 0b 40
        E 0 91 26 40
        E 16 b1 0b 38
        E 32 b1 0b 30
        E 32 b1 0b 28
        E 32 b1 0b 20
        E 16 b1 0b 18
        E 16 b1 0b 10
        E 32 b1 0b 08
        E 32 81 26 00
        E 48 b1 0b 40
        E 0 91 1c 40
        E 16 b1 0b 38
        E 16 b1 0b 30
        E 32 b1 0b 28
        E 32 b1 0b 20
        E 32 b1 0b 18
        E 32 b1 0b 10
        E 32 b1 0b 08
        E 32 81 1c 00
        E 48 b1 0b 40
        E 0 91 28 40
        E 16 b1 0b 38
        E 32 b1 0b 30
        E 32 b1 0b 28
        E 16 b1 0b 20
        E 32 b1 0b 18
        E 144 b1 0b 40
        E 0 81 28 00
        E 0 91 21 40
        E 128 b1 0b 18
        E 16 b1 0b 10
        E 16 b1 0b 08
        E 32 81 21 00
        E 80 b1 0b 40
        E 0 91 2d 40
        E 16 b1 0b 38
        E 32 b1 0b 30
        E 32 b1 0b 28
        E 32 b1 0b 20
        E 16 b1 0b 18
        E 16 b1 0b 10
        E 32 b1 0b 08
        E 32 81 2d 00
        E 64 b1 0b 40
        E 0 91 18 40
        E 16 b1 0b 38
        E 32 b1 0b 30
        E 32 b1 0b 28
        E 32 b1 0b 20
        E 16 b1 0b 18
        E 16 b1 0b 10
        E 32 b1 0b 08
        E 32 81 18 00
        E 48 b1 0b 40
        E 0 91 24 40
        E 16 b1 0b 38
        E 32 b1 0b 30
        E 16 b1 0b 28
        E 32 b1 0b 20
        E 32 b1 0b 18
        E 32 b1 0b 10
        E 32 b1 0b 08
        E 32 81 24 00
        E 48 b1 0b 40
        E 0 91 1a 40
        E 16 b1 0b 38
        E 32 b1 0b 30
        E 32 b1 0b 28
        E 32 b1 0b 20
        E 16 b1 0b 18
        E 32 b1 0b 10
        E 32 b1 0b 08
        E 32 81 1a 00
        E 48 b1 0b 40
        E 0 91 26 40
        E 16 b1 0b 38
        E 32 b1 0b 30
        E 32 b1 0b 28
        E 32 b1 0b 20
        E 16 b1 0b 18
        E 16 b1 0b 10
        E 32 b1 0b 08
        E 16 81 26 00
        E 80 b1 0b 40
        E 0 91 1c 40
        E 16 b1 0b 38
        E 32 b1 0b 30
        E 32 b1 0b 28
        E 32 b1 0b 20
        E 16 b1 0b 18
        E 16 b1 0b 10
        E 32 b1 0b 08
        E 32 81 1c 00
        E 64 b1 0b 40
        E 0 91 28 40
        E 16 b1 0b 38
        E 32 b1 0b 30
        E 32 b1 0b 28
        E 32 b1 0b 20
        E 16 b1 0b 18
        E 128 b1 0b 40
        E 0 81 28 00
        E 0 91 1c 40
        E 144 b1 0b 18
        E 128 b1 0b 40
        E 0 81 1c 00
        E 0 91 28 40
        E 16 b1 0b 38
        E 32 b1 0b 30
        E 32 b1 0b 28
        E 32 b1 0b 20
        E 16 b1 0b 18
        E 32 b1 0b 10
        E 32 b1 0b 08
        E 32 81 28 00
        E 48 b1 0b 40
        E 0 91 1f 40
        E 16 b1 0b 38
        E 32 b1 0b 30
        E 32 b1 0b 28
        E 32 b1 0b 20
        E 16 b1 0b 18
        E 16 b1 0b 10
        E 32 b1 0b 08
        E 32 81 1f 00
        E 64 b1 0b 40
        E 0 91 2b 40
        E 16 b1 0b 38
        E 32 b1 0b 30
        E 32 b1 0b 28
        E 32 b1 0b 20
        E 16 b1 0b 18
        E 16 b1 0b 10
        E 32 b1 0b 08
        E 32 81 2b 00
        E 48 b1 0b 40
        E 0 91 21 40
        E 16 b1 0b 38
        E 16 b1 0b 30
        E 32 b1 0b 28
        E 32 b1 0b 20
        E 32 b1 0b 18
        E 32 b1 0b 10
        E 32 b1 0b 08
        E 32 81 21 00
        E 48 b1 0b 40
        E 0 91 2d 40
        E 16 b1 0b 38
        E 32 b1 0b 30
        E 32 b1 0b 28
        E 16 b1 0b 20
        E 32 b1 0b 18
        E 32 b1 0b 10
        E 32 b1 0b 08
        E 32 81 2d 00
        E 48 b1 0b 40
        E 0 91 23 40
        E 16 b1 0b 38
        E 32 b1 0b 30
        E 32 b1 0b 28
        E 32 b1 0b 20
        E 16 b1 0b 18
        E 16 b1 0b 10
        E 16 b1 0b 08
        E 32 81 23 00
        E 80 b1 0b 40
        E 0 91 2f 40
        E 16 b1 0b 38
        E 32 b1 0b 30
        E 32 b1 0b 28
        E 32 b1 0b 20
        E 16 b1 0b 18
        E 144 b1 0b 40
        E 0 81 2f 00
        E 0 91 1c 40
        E 128 b1 0b 18
        E 128 b1 0b 40
        E 0 81 1c 00
        E 0 91 28 40
        E 16 b1 0b 38
        E 16 b1 0b 30
        E 32 b1 0b 28
        E 32 b1 0b 20
        E 32 b1 0b 18
        E 32 b1 0b 10
        E 32 b1 0b 08
        E 32 81 28 00
        E 48 b1 0b 40
        E 0 91 1f 40
        E 16 b1 0b 38
        E 32 b1 0b 30
        E 32 b1 0b 28
        E 32 b1 0b 20
        E 16 b1 0b 18
        E 32 b1 0b 10
        E 32 b1 0b 08
        E 32 81 1f 00
        E 48 b1 0b 40
        E 0 91 2b 40
        E 16 b1 0b 38
        E 32 b1 0b 30
        E 32 b1 0b 28
        E 32 b1 0b 20
        E 16 b1 0b 18
        E 16 b1 0b 10
        E 32 b1 0b 08
        E 16 81 2b 00
        E 80 b1 0b 40
        E 0 91 21 40
        E 16 b1 0b 38
        E 32 b1 0b 30
        E 32 b1 0b 28
        E 32 b1 0b 20
        E 16 b1 0b 18
        E 16 b1 0b 10
        E 32 b1 0b 08
        E 32 81 21 00
        E 64 b1 0b 40
        E 0 91 2d 40
        E 16 b1 0b 38
        E 32 b1 0b 30
        E 32 b1 0b 28
        E 32 b1 0b 20
        E 16 b1 0b 18
        E 16 b1 0b 10
        E 32 b1 0b 08
        E 32 81 2d 00
        E 48 b1 0b 40
        E 0 91 23 40
        E 16 b1 0b 38
        E 32 b1 0b 30
        E 16 b1 0b 28
        E 32 b1 0b 20
        E 32 b1 0b 18
        E 32 b1 0b 10
        E 32 b1 0b 08
        E 32 81 23 00
        E 48 b1 0b 40
        E 0 91 2f 40
        E 16 b1 0b 38
        E 32 b1 0b 30
        E 32 b1 0b 28
        E 32 b1 0b 20
        E 16 b1 0b 18
        E 144 b1 0b 40
        E 0 81 2f 00
        E 0 91 1c 40
        E 128 b1 0b 18
        E 144 b1 0b 40
        E 0 81 1c 00
        E 0 91 28 40
        E 16 b1 0b 38
        E 32 b1 0b 30
        E 32 b1 0b 28
        E 32 b1 0b 20
        E 16 b1 0b 18
        E 16 b1 0b 10
        E 32 b1 0b 08
        E 32 81 28 00
        E 48 b1 0b 40
        E 0 91 1f 40
        E 16 b1 0b 38
        E 16 b1 0b 30
        E 32 b1 0b 28
        E 32 b1 0b 20
        E 32 b1 0b 18
        E 32 b1 0b 10
        E 32 b1 0b 08
        E 32 81 1f 00
        E 48 b1 0b 40
        E 0 91 2b 40
        E 16 b1 0b 38
        E 32 b1 0b 30
        E 32 b1 0b 28
        E 16 b1 0b 20
        E 32 b1 0b 18
        E 32 b1 0b 10
        E 32 b1 0b 08
        E 32 81 2b 00
        E 48 b1 0b 40
        E 0 91 21 40
        E 16 b1 0b 38
        E 32 b1 0b 30
        E 32 b1 0b 28
        E 32 b1 0b 20
        E 16 b1 0b 18
        E 16 b1 0b 10
        E 16 b1 0b 08
        E 32 81 21 00
        E 80 b1 0b 40
        E 0 91 2d 40
        E 16 b1 0b 38
        E 32 b1 0b 30
        E 32 b1 0b 28
        E 32 b1 0b 20
        E 16 b1 0b 18
        E 16 b1 0b 10
        E 32 b1 0b 08
        E 32 81 2d 00
        E 64 b1 0b 40
        E 0 91 23 40
        E 16 b1 0b 38
        E 32 b1 0b 30
        E 32 b1 0b 28
        E 32 b1 0b 20
        E 16 b1 0b 18
        E 16 b1 0b 10
        E 32 b1 0b 08
        E 32 81 23 00
        E 48 b1 0b 40
        E 0 91 2f 40
        E 16 b1 0b 38
        E 16 b1 0b 30
        E 32 b1 0b 28
        E 32 b1 0b 20
        E 32 b1 0b 18
        E 144 b1 0b 40
        E 0 81 2f 00
        E 0 91 1c 40
        E 144 b1 0b 18
        E 128 b1 0b 40
        E 0 81 1c 00
        E 0 91 28 40
        E 16 b1 0b 38
        E 32 b1 0b 30
        E 32 b1 0b 28
        E 32 b1 0b 20
        E 16 b1 0b 18
        E 16 b1 0b 10
        E 32 b1 0b 08
        E 16 81 28 00
        E 80 b1 0b 40
        E 0 91 1f 40
        E 16 b1 0b 38
        E 32 b1 0b 30
        E 32 b1 0b 28
        E 32 b1 0b 20
        E 16 b1 0b 18
        E 16 b1 0b 10
        E 32 b1 0b 08
        E 32 81 1f 00
        E 64 b1 0b 40
        E 0 91 2b 40
        E 16 b1 0b 38
        E 32 b1 0b 30
        E 32 b1 0b 28
        E 32 b1 0b 20
        E 16 b1 0b 18
        E 16 b1 0b 10
        E 32 b1 0b 08
        E 32 81 2b 00
        E 48 b1 0b 40
        E 0 91 21 40
        E 16 b1 0b 38
        E 32 b1 0b 30
        E 16 b1 0b 28
        E 32 b1 0b 20
        E 32 b1 0b 18
        E 32 b1 0b 10
        E 32 b1 0b 08
        E 32 81 21 00
        E 48 b1 0b 40
        E 0 91 2d 40
        E 16 b1 0b 38
        E 32 b1 0b 30
        E 32 b1 0b 28
        E 32 b1 0b 20
        E 16 b1 0b 18
        E 32 b1 0b 10
        E 32 b1 0b 08
        E 32 81 2d 00
        E 48 b1 0b 40
        E 0 91 23 40
        E 16 b1 0b 38
        E 32 b1 0b 30
        E 32 b1 0b 28
        E 32 b1 0b 20
        E 16 b1 0b 18
        E 16 b1 0b 10
        E 32 b1 0b 08
        E 16 81 23 00
        E 80 b1 0b 40
        E 0 91 2f 40
        E 16 b1 0b 38
        E 32 b1 0b 30
        E 32 b1 0b 28
        E 32 b1 0b 20
        E 16 b1 0b 18
        E 144 b1 0b 40
        E 0 81 2f 00
        E 0 91 2c 40
        E 16 b1 0b 38
        E 32 b1 0b 30
        E 16 b1 0b 18
        E 64 b1 0b 28
        E 0 81 2c 00
        E 0 91 2d 28
        E 64 b1 0b 18
        E 64 b1 0b 08
        E 64 b1 0b 18
        E 80 b1 0b 28
        E 64 b1 0b 18
        E 64 b1 0b 08
        E 64 b1 0b 18
        E 64 b1 0b 28
        E 80 b1 0b 18
        E 64 b1 0b 08
        E 64 b1 0b 18
        E 64 b1 0b 28
        E 64 b1 0b 18
        E 80 b1 0b 40
        E 64 b1 0b 18
        E 64 b1 0b 28
        E 0 81 2d 00
        E 0 91 2e 28
        E 64 b1 0b 18
        E 64 b1 0b 08
        E 80 b1 0b 18
        E 64 b1 0b 28
        E 64 b1 0b 18
        E 64 b1 0b 08
        E 64 b1 0b 18
        E 80 b1 0b 28
        E 64 b1 0b 18
        E 64 b1 0b 08
        E 64 b1 0b 18
        E 64 b1 0b 28
        E 80 b1 0b 18
        E 64 b1 0b 40
        E 64 b1 0b 18
        E 64 b1 0b 28
        E 0 81 2e 00
        E 0 91 2f 28
        E 64 b1 0b 18
        E 80 b1 0b 08
        E 64 b1 0b 18
        E 64 b1 0b 28
        E 64 b1 0b 18
        E 64 b1 0b 08
        E 80 b1 0b 18
        E 64 b1 0b 28
        E 64 b1 0b 18
        E 64 b1 0b 08
        E 64 b1 0b 18
        E 80 b1 0b 28
        E 64 b1 0b 18
        E 64 b1 0b 40
        E 64 b1 0b 18
        E 64 b1 0b 28
        E 0 81 2f 00
        E 0 91 2e 28
        E 80 b1 0b 18
        E 64 b1 0b 08
        E 64 b1 0b 18
        E 64 b1 0b 28
        E 64 b1 0b 18
        E 80 b1 0b 08
        E 64 b1 0b 18
        E 64 b1 0b 28
        E 64 b1 0b 18
        E 64 b1 0b 08
        E 80 b1 0b 18
        E 64 b1 0b 28
        E 64 b1 0b 18
        E 64 b1 0b 40
        E 0 81 2e 00
        E 0 91 27 40
        E 16 b1 0b 38
        E 32 b1 0b 30
        E 16 b1 0b 18
        E 64 b1 0b 28
        E 0 81 27 00
        E 0 91 28 28
        E 80 b1 0b 18
        E 64 b1 0b 08
        E 64 b1 0b 18
        E 64 b1 0b 28
        E 64 b1 0b 18
        E 80 b1 0b 08
        E 64 b1 0b 18
        E 64 b1 0b 28
        E 64 b1 0b 18
        E 64 b1 0b 08
        E 80 b1 0b 18
        E 64 b1 0b 28
        E 64 b1 0b 18
        E 64 b1 0b 40
        E 64 b1 0b 18
        E 80 b1 0b 28
        E 0 81 28 00
        E 0 91 29 28
        E 64 b1 0b 18
        E 64 b1 0b 08
        E 64 b1 0b 18
        E 64 b1 0b 28
        E 80 b1 0b 18
        E 64 b1 0b 08
        E 64 b1 0b 18
        E 64 b1 0b 28
        E 64 b1 0b 18
        E 80 b1 0b 08
        E 64 b1 0b 18
        E 64 b1 0b 28
        E 64 b1 0b 18
        E 64 b1 0b 40
        E 80 b1 0b 18
        E 64 b1 0b 28
        E 0 81 29 00
        E 0 91 2a 28
        E 64 b1 0b 18
        E 64 b1 0b 08
        E 64 b1 0b 18
        E 80 b1 0b 28
        E 16 81 2a 00
        E 0 ff 2f 00
      >
    >
  >
  <TRACK {FE5A146F-CDC6-4A4E-9696-99ACB0B15D25}
    NAME "NES - Triangle [ch2]"
    PEAKCOL 16744192
    BEAT -1
    AUTOMODE 0
    PANLAWFLAGS 3
    VOLPAN 1 0 -1 -1 1
    MUTESOLO 0 0 0
    IPHASE 0
    PLAYOFFS 0 1
    ISBUS 0 0
    BUSCOMP 0 0 0 0 0
    SHOWINMIX 1 0.6667 0.5 1 0.5 0 0 0
    FIXEDLANES 9 0 0 0 0
    SEL 0
    REC 0 5088 1 0 0 0 0 0
    VU 2
    TRACKHEIGHT 0 0 0 0 0 0 0
    INQ 0 0 0 0.5 100 0 0 100
    NCHAN 2
    FX 1
    TRACKID {FE5A146F-CDC6-4A4E-9696-99ACB0B15D25}
    PERF 0
    MIDIOUT -1
    MAINSEND 1 0
    <FXCHAIN
      WNDRECT 24 52 700 560
      SHOW 0
      LASTSEL 0
      DOCKED 0
      BYPASS 0 0 0
      <JS "ReapNES Studio/ReapNES_Console.jsfx" ""
        2 15 1 10 80 10 100 2 1 15 1 5 60 10 80 1 1 0 50 0 0 15 1 0 100 0 0 0.500000 0.500000 0.400000 0.300000 0.800000 2 1 0 0 0 0 - - - - - - - - - - - - - - - - - - - - - - - - - -
      >
      FLOATPOS 0 0 0 0
      FXID {16193FFB-E83D-4056-9915-448A20018070}
      WAK 0 0
    >
    <ITEM
      POSITION 0
      LENGTH 83.98134
      LOOP 0
      ALLTAKES 0
      FADEIN 0 0 0 0 0 0 0
      FADEOUT 0 0 0 0 0 0 0
      MUTE 0 0
      SEL 0
      IGUID {C23D2BC5-587F-428D-9BB6-E58BCC683A08}
      <SOURCE MIDI
        HASDATA 1 480 QN
        CCINTERP 32
        X 0 18 ff 03 0f 54 72 69 61 6e 67 6c 65 20 5b 62 61 73 73 5d
        E 0 c2 26
        E 128 b2 0b 7f
        E 0 92 28 7f
        E 192 82 28 00
        E 0 b2 0b 7f
        E 0 92 34 7f
        E 272 82 34 00
        E 0 b2 0b 7f
        E 0 92 2b 7f
        E 272 82 2b 00
        E 0 b2 0b 7f
        E 0 92 37 7f
        E 272 82 37 00
        E 0 b2 0b 7f
        E 0 92 2d 7f
        E 272 82 2d 00
        E 0 b2 0b 7f
        E 0 92 39 7f
        E 256 82 39 00
        E 0 b2 0b 7f
        E 0 92 2f 7f
        E 272 82 2f 00
        E 0 b2 0b 7f
        E 0 92 3b 7f
        E 272 82 3b 00
        E 0 b2 0b 7f
        E 0 92 28 7f
        E 272 82 28 00
        E 0 b2 0b 7f
        E 0 92 34 7f
        E 272 82 34 00
        E 0 b2 0b 7f
        E 0 92 2b 7f
        E 256 82 2b 00
        E 0 b2 0b 7f
        E 0 92 37 7f
        E 272 82 37 00
        E 0 b2 0b 7f
        E 0 92 2d 7f
        E 272 82 2d 00
        E 0 b2 0b 7f
        E 0 92 39 7f
        E 272 82 39 00
        E 0 b2 0b 7f
        E 0 92 2f 7f
        E 256 82 2f 00
        E 0 b2 0b 7f
        E 0 92 3b 7f
        E 272 82 3b 00
        E 0 b2 0b 7f
        E 0 92 28 7f
        E 272 82 28 00
        E 0 b2 0b 7f
        E 0 92 34 7f
        E 272 82 34 00
        E 0 b2 0b 7f
        E 0 92 2b 7f
        E 272 82 2b 00
        E 0 b2 0b 7f
        E 0 92 37 7f
        E 256 82 37 00
        E 0 b2 0b 7f
        E 0 92 2d 7f
        E 272 82 2d 00
        E 0 b2 0b 7f
        E 0 92 39 7f
        E 272 82 39 00
        E 0 b2 0b 7f
        E 0 92 2f 7f
        E 272 82 2f 00
        E 0 b2 0b 7f
        E 0 92 3b 7f
        E 272 82 3b 00
        E 0 b2 0b 7f
        E 0 92 28 7f
        E 256 82 28 00
        E 0 b2 0b 7f
        E 0 92 34 7f
        E 272 82 34 00
        E 0 b2 0b 7f
        E 0 92 2b 7f
        E 272 82 2b 00
        E 0 b2 0b 7f
        E 0 92 37 7f
        E 272 82 37 00
        E 0 b2 0b 7f
        E 0 92 2d 7f
        E 272 82 2d 00
        E 0 b2 0b 7f
        E 0 92 39 7f
        E 256 82 39 00
        E 0 b2 0b 7f
        E 0 92 2f 7f
        E 272 82 2f 00
        E 0 b2 0b 7f
        E 0 92 3b 7f
        E 272 82 3b 00
        E 0 b2 0b 7f
        E 0 92 28 7f
        E 272 82 28 00
        E 0 b2 0b 7f
        E 0 92 34 7f
        E 256 82 34 00
        E 0 b2 0b 7f
        E 0 92 2b 7f
        E 272 82 2b 00
        E 0 b2 0b 7f
        E 0 92 37 7f
        E 272 82 37 00
        E 0 b2 0b 7f
        E 0 92 2d 7f
        E 272 82 2d 00
        E 0 b2 0b 7f
        E 0 92 39 7f
        E 272 82 39 00
        E 0 b2 0b 7f
        E 0 92 2f 7f
        E 256 82 2f 00
        E 0 b2 0b 7f
        E 0 92 3b 7f
        E 272 82 3b 00
        E 0 b2 0b 7f
        E 0 92 28 7f
        E 272 82 28 00
        E 0 b2 0b 7f
        E 0 92 34 7f
        E 272 82 34 00
        E 0 b2 0b 7f
        E 0 92 2b 7f
        E 272 82 2b 00
        E 0 b2 0b 7f
        E 0 92 37 7f
        E 256 82 37 00
        E 0 b2 0b 7f
        E 0 92 2d 7f
        E 272 82 2d 00
        E 0 b2 0b 7f
        E 0 92 39 7f
        E 272 82 39 00
        E 0 b2 0b 7f
        E 0 92 2f 7f
        E 272 82 2f 00
        E 0 b2 0b 7f
        E 0 92 3b 7f
        E 256 82 3b 00
        E 0 b2 0b 7f
        E 0 92 28 7f
        E 144 82 28 00
        E 0 b2 0b 7f
        E 0 92 2a 7f
        E 128 82 2a 00
        E 0 b2 0b 7f
        E 0 92 2b 7f
        E 144 82 2b 00
        E 0 b2 0b 7f
        E 0 92 2d 7f
        E 128 82 2d 00
        E 0 b2 0b 7f
        E 0 92 2f 7f
        E 128 82 2f 00
        E 0 b2 0b 7f
        E 0 92 30 7f
        E 144 82 30 00
        E 0 b2 0b 7f
        E 0 92 32 7f
        E 128 82 32 00
        E 0 b2 0b 7f
        E 0 92 34 7f
        E 144 82 34 00
        E 0 b2 0b 7f
        E 0 92 2d 7f
        E 256 82 2d 00
        E 0 b2 0b 7f
        E 0 92 39 7f
        E 272 82 39 00
        E 0 b2 0b 7f
        E 0 92 24 7f
        E 272 82 24 00
        E 0 b2 0b 7f
        E 0 92 30 7f
        E 272 82 30 00
        E 0 b2 0b 7f
        E 0 92 26 7f
        E 272 82 26 00
        E 0 b2 0b 7f
        E 0 92 32 7f
        E 256 82 32 00
        E 0 b2 0b 7f
        E 0 92 28 7f
        E 272 82 28 00
        E 0 b2 0b 7f
        E 0 92 34 7f
        E 272 82 34 00
        E 0 b2 0b 7f
        E 0 92 2d 7f
        E 272 82 2d 00
        E 0 b2 0b 7f
        E 0 92 39 7f
        E 256 82 39 00
        E 0 b2 0b 7f
        E 0 92 24 7f
        E 272 82 24 00
        E 0 b2 0b 7f
        E 0 92 30 7f
        E 272 82 30 00
        E 0 b2 0b 7f
        E 0 92 26 7f
        E 272 82 26 00
        E 0 b2 0b 7f
        E 0 92 32 7f
        E 272 82 32 00
        E 0 b2 0b 7f
        E 0 92 28 7f
        E 256 82 28 00
        E 0 b2 0b 7f
        E 0 92 34 7f
        E 272 82 34 00
        E 0 b2 0b 7f
        E 0 92 2d 7f
        E 272 82 2d 00
        E 0 b2 0b 7f
        E 0 92 39 7f
        E 272 82 39 00
        E 0 b2 0b 7f
        E 0 92 24 7f
        E 272 82 24 00
        E 0 b2 0b 7f
        E 0 92 30 7f
        E 256 82 30 00
        E 0 b2 0b 7f
        E 0 92 26 7f
        E 272 82 26 00
        E 0 b2 0b 7f
        E 0 92 32 7f
        E 272 82 32 00
        E 0 b2 0b 7f
        E 0 92 28 7f
        E 272 82 28 00
        E 0 b2 0b 7f
        E 0 92 34 7f
        E 256 82 34 00
        E 0 b2 0b 7f
        E 0 92 2d 7f
        E 272 82 2d 00
        E 0 b2 0b 7f
        E 0 92 39 7f
        E 272 82 39 00
        E 0 b2 0b 7f
        E 0 92 24 7f
        E 272 82 24 00
        E 0 b2 0b 7f
        E 0 92 30 7f
        E 272 82 30 00
        E 0 b2 0b 7f
        E 0 92 26 7f
        E 256 82 26 00
        E 0 b2 0b 7f
        E 0 92 32 7f
        E 272 82 32 00
        E 0 b2 0b 7f
        E 0 92 28 7f
        E 272 82 28 00
        E 0 b2 0b 7f
        E 0 92 34 7f
        E 272 82 34 00
        E 0 b2 0b 7f
        E 0 92 28 7f
        E 272 82 28 00
        E 0 b2 0b 7f
        E 0 92 34 7f
        E 256 82 34 00
        E 0 b2 0b 7f
        E 0 92 2b 7f
        E 272 82 2b 00
        E 0 b2 0b 7f
        E 0 92 37 7f
        E 272 82 37 00
        E 0 b2 0b 7f
        E 0 92 2d 7f
        E 272 82 2d 00
        E 0 b2 0b 7f
        E 0 92 39 7f
        E 272 82 39 00
        E 0 b2 0b 7f
        E 0 92 2f 7f
        E 256 82 2f 00
        E 0 b2 0b 7f
        E 0 92 3b 7f
        E 272 82 3b 00
        E 0 b2 0b 7f
        E 0 92 28 7f
        E 272 82 28 00
        E 0 b2 0b 7f
        E 0 92 34 7f
        E 272 82 34 00
        E 0 b2 0b 7f
        E 0 92 2b 7f
        E 256 82 2b 00
        E 0 b2 0b 7f
        E 0 92 37 7f
        E 272 82 37 00
        E 0 b2 0b 7f
        E 0 92 2d 7f
        E 272 82 2d 00
        E 0 b2 0b 7f
        E 0 92 39 7f
        E 272 82 39 00
        E 0 b2 0b 7f
        E 0 92 2f 7f
        E 272 82 2f 00
        E 0 b2 0b 7f
        E 0 92 3b 7f
        E 256 82 3b 00
        E 0 b2 0b 7f
        E 0 92 28 7f
        E 272 82 28 00
        E 0 b2 0b 7f
        E 0 92 34 7f
        E 272 82 34 00
        E 0 b2 0b 7f
        E 0 92 2b 7f
        E 272 82 2b 00
        E 0 b2 0b 7f
        E 0 92 37 7f
        E 272 82 37 00
        E 0 b2 0b 7f
        E 0 92 2d 7f
        E 256 82 2d 00
        E 0 b2 0b 7f
        E 0 92 39 7f
        E 272 82 39 00
        E 0 b2 0b 7f
        E 0 92 2f 7f
        E 272 82 2f 00
        E 0 b2 0b 7f
        E 0 92 3b 7f
        E 272 82 3b 00
        E 0 b2 0b 7f
        E 0 92 28 7f
        E 256 82 28 00
        E 0 b2 0b 7f
        E 0 92 34 7f
        E 272 82 34 00
        E 0 b2 0b 7f
        E 0 92 2b 7f
        E 272 82 2b 00
        E 0 b2 0b 7f
        E 0 92 37 7f
        E 272 82 37 00
        E 0 b2 0b 7f
        E 0 92 2d 7f
        E 272 82 2d 00
        E 0 b2 0b 7f
        E 0 92 39 7f
        E 256 82 39 00
        E 0 b2 0b 7f
        E 0 92 2f 7f
        E 272 82 2f 00
        E 0 b2 0b 7f
        E 0 92 3b 7f
        E 272 82 3b 00
        E 0 b2 0b 7f
        E 0 92 30 7f
        E 4304 82 30 00
        E 0 b2 0b 7f
        E 0 92 2b 7f
        E 4288 82 2b 00
        E 0 b2 0b 7f
        E 0 92 30 7f
        E 4304 82 30 00
        E 0 b2 0b 7f
        E 0 92 2b 7f
        E 4288 82 2b 00
        E 80 b2 0b 7f
        E 0 92 28 7f
        E 192 82 28 00
        E 0 b2 0b 7f
        E 0 92 34 7f
        E 272 82 34 00
        E 0 b2 0b 7f
        E 0 92 2b 7f
        E 272 82 2b 00
        E 0 b2 0b 7f
        E 0 92 37 7f
        E 256 82 37 00
        E 0 b2 0b 7f
        E 0 92 2d 7f
        E 272 82 2d 00
        E 0 b2 0b 7f
        E 0 92 39 7f
        E 272 82 39 00
        E 0 b2 0b 7f
        E 0 92 2f 7f
        E 272 82 2f 00
        E 0 b2 0b 7f
        E 0 92 3b 7f
        E 272 82 3b 00
        E 0 b2 0b 7f
        E 0 92 28 7f
        E 256 82 28 00
        E 0 b2 0b 7f
        E 0 92 34 7f
        E 272 82 34 00
        E 0 b2 0b 7f
        E 0 92 2b 7f
        E 272 82 2b 00
        E 0 b2 0b 7f
        E 0 92 37 7f
        E 272 82 37 00
        E 0 b2 0b 7f
        E 0 92 2d 7f
        E 272 82 2d 00
        E 0 b2 0b 7f
        E 0 92 39 7f
        E 256 82 39 00
        E 0 b2 0b 7f
        E 0 92 2f 7f
        E 272 82 2f 00
        E 0 b2 0b 7f
        E 0 92 3b 7f
        E 272 82 3b 00
        E 0 b2 0b 7f
        E 0 92 28 7f
        E 272 82 28 00
        E 0 b2 0b 7f
        E 0 92 34 7f
        E 256 82 34 00
        E 0 b2 0b 7f
        E 0 92 2b 7f
        E 272 82 2b 00
        E 0 b2 0b 7f
        E 0 92 37 7f
        E 272 82 37 00
        E 0 b2 0b 7f
        E 0 92 2d 7f
        E 272 82 2d 00
        E 0 b2 0b 7f
        E 0 92 39 7f
        E 272 82 39 00
        E 0 b2 0b 7f
        E 0 92 2f 7f
        E 256 82 2f 00
        E 0 b2 0b 7f
        E 0 92 3b 7f
        E 272 82 3b 00
        E 0 b2 0b 7f
        E 0 92 28 7f
        E 272 82 28 00
        E 0 b2 0b 7f
        E 0 92 34 7f
        E 272 82 34 00
        E 0 b2 0b 7f
        E 0 92 2b 7f
        E 272 82 2b 00
        E 0 b2 0b 7f
        E 0 92 37 7f
        E 256 82 37 00
        E 0 b2 0b 7f
        E 0 92 2d 7f
        E 272 82 2d 00
        E 0 b2 0b 7f
        E 0 92 39 7f
        E 272 82 39 00
        E 0 b2 0b 7f
        E 0 92 2f 7f
        E 272 82 2f 00
        E 0 b2 0b 7f
        E 0 92 3b 7f
        E 272 82 3b 00
        E 0 b2 0b 7f
        E 0 92 28 7f
        E 256 82 28 00
        E 0 b2 0b 7f
        E 0 92 34 7f
        E 272 82 34 00
        E 0 b2 0b 7f
        E 0 92 2b 7f
        E 272 82 2b 00
        E 0 b2 0b 7f
        E 0 92 37 7f
        E 272 82 37 00
        E 0 b2 0b 7f
        E 0 92 2d 7f
        E 256 82 2d 00
        E 0 b2 0b 7f
        E 0 92 39 7f
        E 272 82 39 00
        E 0 b2 0b 7f
        E 0 92 2f 7f
        E 272 82 2f 00
        E 0 b2 0b 7f
        E 0 92 3b 7f
        E 272 82 3b 00
        E 0 b2 0b 7f
        E 0 92 28 7f
        E 272 82 28 00
        E 0 b2 0b 7f
        E 0 92 34 7f
        E 256 82 34 00
        E 0 b2 0b 7f
        E 0 92 2b 7f
        E 272 82 2b 00
        E 0 b2 0b 7f
        E 0 92 37 7f
        E 272 82 37 00
        E 0 b2 0b 7f
        E 0 92 2d 7f
        E 272 82 2d 00
        E 0 b2 0b 7f
        E 0 92 39 7f
        E 272 82 39 00
        E 0 b2 0b 7f
        E 0 92 2f 7f
        E 256 82 2f 00
        E 0 b2 0b 7f
        E 0 92 3b 7f
        E 272 82 3b 00
        E 0 b2 0b 7f
        E 0 92 28 7f
        E 128 82 28 00
        E 0 b2 0b 7f
        E 0 92 2a 7f
        E 144 82 2a 00
        E 0 b2 0b 7f
        E 0 92 2b 7f
        E 128 82 2b 00
        E 0 b2 0b 7f
        E 0 92 2d 7f
        E 144 82 2d 00
        E 0 b2 0b 7f
        E 0 92 2f 7f
        E 128 82 2f 00
        E 0 b2 0b 7f
        E 0 92 30 7f
        E 128 82 30 00
        E 0 b2 0b 7f
        E 0 92 32 7f
        E 144 82 32 00
        E 0 b2 0b 7f
        E 0 92 34 7f
        E 128 82 34 00
        E 0 b2 0b 7f
        E 0 92 2d 7f
        E 272 82 2d 00
        E 0 b2 0b 7f
        E 0 92 39 7f
        E 272 82 39 00
        E 0 b2 0b 7f
        E 0 92 24 7f
        E 272 82 24 00
        E 0 b2 0b 7f
        E 0 92 30 7f
        E 256 82 30 00
        E 0 b2 0b 7f
        E 0 92 26 7f
        E 272 82 26 00
        E 0 b2 0b 7f
        E 0 92 32 7f
        E 272 82 32 00
        E 0 b2 0b 7f
        E 0 92 28 7f
        E 272 82 28 00
        E 0 b2 0b 7f
        E 0 92 34 7f
        E 272 82 34 00
        E 0 b2 0b 7f
        E 0 92 2d 7f
        E 256 82 2d 00
        E 0 b2 0b 7f
        E 0 92 39 7f
        E 272 82 39 00
        E 0 b2 0b 7f
        E 0 92 24 7f
        E 272 82 24 00
        E 0 b2 0b 7f
        E 0 92 30 7f
        E 272 82 30 00
        E 0 b2 0b 7f
        E 0 92 26 7f
        E 256 82 26 00
        E 0 b2 0b 7f
        E 0 92 32 7f
        E 272 82 32 00
        E 0 b2 0b 7f
        E 0 92 28 7f
        E 272 82 28 00
        E 0 b2 0b 7f
        E 0 92 34 7f
        E 272 82 34 00
        E 0 b2 0b 7f
        E 0 92 2d 7f
        E 272 82 2d 00
        E 0 b2 0b 7f
        E 0 92 39 7f
        E 256 82 39 00
        E 0 b2 0b 7f
        E 0 92 24 7f
        E 272 82 24 00
        E 0 b2 0b 7f
        E 0 92 30 7f
        E 272 82 30 00
        E 0 b2 0b 7f
        E 0 92 26 7f
        E 272 82 26 00
        E 0 b2 0b 7f
        E 0 92 32 7f
        E 272 82 32 00
        E 0 b2 0b 7f
        E 0 92 28 7f
        E 256 82 28 00
        E 0 b2 0b 7f
        E 0 92 34 7f
        E 272 82 34 00
        E 0 b2 0b 7f
        E 0 92 2d 7f
        E 272 82 2d 00
        E 0 b2 0b 7f
        E 0 92 39 7f
        E 272 82 39 00
        E 0 b2 0b 7f
        E 0 92 24 7f
        E 256 82 24 00
        E 0 b2 0b 7f
        E 0 92 30 7f
        E 272 82 30 00
        E 0 b2 0b 7f
        E 0 92 26 7f
        E 272 82 26 00
        E 0 b2 0b 7f
        E 0 92 32 7f
        E 272 82 32 00
        E 0 b2 0b 7f
        E 0 92 28 7f
        E 272 82 28 00
        E 0 b2 0b 7f
        E 0 92 34 7f
        E 256 82 34 00
        E 0 b2 0b 7f
        E 0 92 28 7f
        E 272 82 28 00
        E 0 b2 0b 7f
        E 0 92 34 7f
        E 272 82 34 00
        E 0 b2 0b 7f
        E 0 92 2b 7f
        E 272 82 2b 00
        E 0 b2 0b 7f
        E 0 92 37 7f
        E 272 82 37 00
        E 0 b2 0b 7f
        E 0 92 2d 7f
        E 256 82 2d 00
        E 0 b2 0b 7f
        E 0 92 39 7f
        E 272 82 39 00
        E 0 b2 0b 7f
        E 0 92 2f 7f
        E 272 82 2f 00
        E 0 b2 0b 7f
        E 0 92 3b 7f
        E 272 82 3b 00
        E 0 b2 0b 7f
        E 0 92 28 7f
        E 272 82 28 00
        E 0 b2 0b 7f
        E 0 92 34 7f
        E 256 82 34 00
        E 0 b2 0b 7f
        E 0 92 2b 7f
        E 272 82 2b 00
        E 0 b2 0b 7f
        E 0 92 37 7f
        E 272 82 37 00
        E 0 b2 0b 7f
        E 0 92 2d 7f
        E 272 82 2d 00
        E 0 b2 0b 7f
        E 0 92 39 7f
        E 256 82 39 00
        E 0 b2 0b 7f
        E 0 92 2f 7f
        E 272 82 2f 00
        E 0 b2 0b 7f
        E 0 92 3b 7f
        E 272 82 3b 00
        E 0 b2 0b 7f
        E 0 92 28 7f
        E 272 82 28 00
        E 0 b2 0b 7f
        E 0 92 34 7f
        E 272 82 34 00
        E 0 b2 0b 7f
        E 0 92 2b 7f
        E 256 82 2b 00
        E 0 b2 0b 7f
        E 0 92 37 7f
        E 272 82 37 00
        E 0 b2 0b 7f
        E 0 92 2d 7f
        E 272 82 2d 00
        E 0 b2 0b 7f
        E 0 92 39 7f
        E 272 82 39 00
        E 0 b2 0b 7f
        E 0 92 2f 7f
        E 272 82 2f 00
        E 0 b2 0b 7f
        E 0 92 3b 7f
        E 256 82 3b 00
        E 0 b2 0b 7f
        E 0 92 28 7f
        E 272 82 28 00
        E 0 b2 0b 7f
        E 0 92 34 7f
        E 272 82 34 00
        E 0 b2 0b 7f
        E 0 92 2b 7f
        E 272 82 2b 00
        E 0 b2 0b 7f
        E 0 92 37 7f
        E 256 82 37 00
        E 0 b2 0b 7f
        E 0 92 2d 7f
        E 272 82 2d 00
        E 0 b2 0b 7f
        E 0 92 39 7f
        E 272 82 39 00
        E 0 b2 0b 7f
        E 0 92 2f 7f
        E 272 82 2f 00
        E 0 b2 0b 7f
        E 0 92 3b 7f
        E 272 82 3b 00
        E 0 b2 0b 7f
        E 0 92 30 7f
        E 4288 82 30 00
        E 0 b2 0b 7f
        E 0 92 2b 7f
        E 2544 82 2b 00
        E 0 ff 2f 00
      >
    >
  >
  <TRACK {55395DED-834B-4173-B83A-03E9B902A341}
    NAME "NES - Noise / Drums [ch3]"
    PEAKCOL 11184810
    BEAT -1
    AUTOMODE 0
    PANLAWFLAGS 3
    VOLPAN 1 0 -1 -1 1
    MUTESOLO 0 0 0
    IPHASE 0
    PLAYOFFS 0 1
    ISBUS 0 0
    BUSCOMP 0 0 0 0 0
    SHOWINMIX 1 0.6667 0.5 1 0.5 0 0 0
    FIXEDLANES 9 0 0 0 0
    SEL 0
    REC 0 5088 1 0 0 0 0 0
    VU 2
    TRACKHEIGHT 0 0 0 0 0 0 0
    INQ 0 0 0 0.5 100 0 0 100
    NCHAN 2
    FX 1
    TRACKID {55395DED-834B-4173-B83A-03E9B902A341}
    PERF 0
    MIDIOUT -1
    MAINSEND 1 0
    <FXCHAIN
      WNDRECT 24 52 700 560
      SHOW 0
      LASTSEL 0
      DOCKED 0
      BYPASS 0 0 0
      <JS "ReapNES Studio/ReapNES_Console.jsfx" ""
        2 15 1 10 80 10 100 2 1 15 1 5 60 10 80 1 1 0 50 0 0 15 1 0 100 0 0 0.500000 0.500000 0.400000 0.300000 0.800000 3 1 0 0 0 0 - - - - - - - - - - - - - - - - - - - - - - - - - -
      >
      FLOATPOS 0 0 0 0
      FXID {0DEBFA4D-4915-47E4-95D1-6A1CB182BEB9}
      WAK 0 0
    >
    <ITEM
      POSITION 0
      LENGTH 83.98134
      LOOP 0
      ALLTAKES 0
      FADEIN 0 0 0 0 0 0 0
      FADEOUT 0 0 0 0 0 0 0
      MUTE 0 0
      SEL 0
      IGUID {BA42DA7F-1CD7-495D-9ECA-2238BE185AA6}
      <SOURCE MIDI
        HASDATA 1 480 QN
        CCINTERP 32
        X 0 16 ff 03 0d 4e 6f 69 73 65 20 5b 64 72 75 6d 73 5d
        E 32 93 24 40
        E 86368 83 24 00
        E 0 ff 2f 00
      >
    >
  >
>