<REAPER_PROJECT 0.1 "7.27/win64" 1707000000
  <NOTES 0 2
    |ReapNES Studio Project
    |MIDI Import - Battletoads_19_Song_19_v1
  >
  RIPPLE 0
  GROUPOVERRIDE 0 0 0
  AUTOXFADE 129
  ENVATTACH 3
  POOLEDENVATTACH 0
  MIXERUIFLAGS 11 48
  ENVFADESZ10 40
  PEAKGAIN 1
  FEEDBACK 0
  PANLAW 1
  PROJOFFS 0 0 0
  MAXPROJLEN 0 0
  GRID 3199 8 1 8 1 0 0 0
  TIMEMODE 1 5 -1 30 0 0 -1
  VIDEO_CONFIG 0 0 65792
  PANMODE 3
  PANLAWFLAGS 3
  CURSOR 0
  ZOOM 100 0 0
  VZOOMEX 6 0
  USE_REC_CFG 0
  RECMODE 1
  SMPTESYNC 0 30 100 40 1000 300 0 0 1 0 0
  LOOP 0
  LOOPGRAN 0 4
  RECORD_PATH "Media" ""
  <RECORD_CFG
    ZXZhdxgAAQ==
  >
  <APPLYFX_CFG
  >
  RENDER_FILE ""
  RENDER_PATTERN ""
  RENDER_FMT 0 2 0
  RENDER_1X 0
  RENDER_RANGE 1 0 0 18 1000
  RENDER_RESAMPLE 3 0 1
  RENDER_ADDTOPROJ 0
  RENDER_STEMS 0
  RENDER_DITHER 0
  TIMELOCKMODE 1
  TEMPOENVLOCKMODE 1
  ITEMMIX 1
  DEFPITCHMODE 589824 0
  TAKELANE 1
  SAMPLERATE 44100 0 0
  <RENDER_CFG
    ZXZhdxgAAQ==
  >
  LOCK 1
  <METRONOME 6 2
    VOL 0.25 0.125
    BEATLEN 4
    FREQ 1760 880 1
    SAMPLES "" ""
    SPLIGNORE 0 0
    SPLDEF 2 660 "" 0
    SPLDEF 3 440 "" 0
    PATTERN 0 169
    PATTERNSTR ABBB
    MULT 1
  >
  GLOBAL_AUTO -1
  TEMPO 128.59999614200012 4 4
  PLAYRATE 1 0 0.25 4
  SELECTION 0 0
  SELECTION2 0 0
  MASTERAUTOMODE 0
  MASTERTRACKHEIGHT 0 0
  MASTERPEAKCOL 16576
  MASTERMUTESOLO 0
  MASTERTRACKVIEW 0 0.6667 0.5 0.5 0 0 0 0 0 0 0 0 0 0
  MASTERHWOUT 0 0 1 0 0 0 0 -1
  MASTER_NCH 2 2
  MASTER_VOLUME 1 0 -1 -1 1
  MASTER_PANMODE 3
  MASTER_PANLAWFLAGS 3
  MASTER_FX 1
  MASTER_SEL 0
  <MASTERPLAYSPEEDENV
    EGUID {22795059-EEFB-44DA-A8B9-8F7815C6B831}
    ACT 0 -1
    VIS 0 1 1
    LANEHEIGHT 0 0
    ARM 0
    DEFSHAPE 0 -1 -1
  >
  <TEMPOENVEX
    EGUID {7AC2DEB4-D7A2-4D06-8351-C3DE38D826C9}
    ACT 1 -1
    VIS 1 0 1
    LANEHEIGHT 0 0
    ARM 0
    DEFSHAPE 1 -1 -1
  >
  <PROJBAY
  >
  <TRACK {00AA4327-BF43-41D8-A430-A9F679D54E5A}
    NAME "NES - Pulse 1 [ch0]"
    PEAKCOL 16576606
    BEAT -1
    AUTOMODE 0
    PANLAWFLAGS 3
    VOLPAN 1 0 -1 -1 1
    MUTESOLO 0 0 0
    IPHASE 0
    PLAYOFFS 0 1
    ISBUS 0 0
    BUSCOMP 0 0 0 0 0
    SHOWINMIX 1 0.6667 0.5 1 0.5 0 0 0
    FIXEDLANES 9 0 0 0 0
    SEL 1
    REC 0 5088 1 0 0 0 0 0
    VU 2
    TRACKHEIGHT 0 0 0 0 0 0 0
    INQ 0 0 0 0.5 100 0 0 100
    NCHAN 2
    FX 1
    TRACKID {00AA4327-BF43-41D8-A430-A9F679D54E5A}
    PERF 0
    MIDIOUT -1
    MAINSEND 1 0
    <FXCHAIN
      WNDRECT 24 52 700 560
      SHOW 0
      LASTSEL 0
      DOCKED 0
      BYPASS 0 0 0
      <JS "ReapNES Studio/ReapNES_Console.jsfx" ""
        2 15 1 10 80 10 100 2 1 15 1 5 60 10 80 1 1 0 50 0 0 15 1 0 100 0 0 0.500000 0.500000 0.400000 0.300000 0.800000 0 1 0 0 0 0 - - - - - - - - - - - - - - - - - - - - - - - - - -
      >
      FLOATPOS 0 0 0 0
      FXID {D4592BBD-3676-4C66-B289-BE2903C65A25}
      WAK 0 0
    >
    <ITEM
      POSITION 0
      LENGTH 83.98134
      LOOP 0
      ALLTAKES 0
      FADEIN 0 0 0 0 0 0 0
      FADEOUT 0 0 0 0 0 0 0
      MUTE 0 0
      SEL 0
      IGUID {F93C6ACF-7783-4518-8916-2AF47E6FF5A5}
      <SOURCE MIDI
        HASDATA 1 480 QN
        CCINTERP 32
        X 0 18 ff 03 0f 53 71 75 61 72 65 20 31 20 5b 6c 65 61 64 5d
        E 0 c0 50
        E 48 b0 0c 20
        E 0 b0 0b 48
        E 0 90 26 48
        E 192 80 26 00
        E 0 90 21 48
        E 208 80 21 00
        E 0 90 24 48
        E 192 80 24 00
        E 0 90 26 48
        E 208 80 26 00
        E 0 90 28 48
        E 400 80 28 00
        E 0 90 26 48
        E 192 80 26 00
        E 0 90 28 48
        E 208 80 28 00
        E 0 90 29 48
        E 192 80 29 00
        E 0 90 26 48
        E 192 80 26 00
        E 0 90 29 48
        E 208 80 29 00
        E 0 90 2b 48
        E 192 80 2b 00
        E 0 90 29 48
        E 208 80 29 00
        E 0 90 28 48
        E 192 80 28 00
        E 0 90 26 48
        E 208 80 26 00
        E 0 90 24 48
        E 192 80 24 00
        E 0 90 26 48
        E 208 80 26 00
        E 0 90 21 48
        E 192 80 21 00
        E 0 90 24 48
        E 208 80 24 00
        E 0 90 26 48
        E 192 80 26 00
        E 0 90 28 48
        E 400 80 28 00
        E 0 90 26 48
        E 208 80 26 00
        E 0 90 28 48
        E 192 80 28 00
        E 0 90 29 48
        E 208 80 29 00
        E 0 90 26 48
        E 192 80 26 00
        E 0 90 29 48
        E 208 80 29 00
        E 0 90 2b 48
        E 192 80 2b 00
        E 0 90 29 48
        E 208 80 29 00
        E 0 90 28 48
        E 192 80 28 00
        E 0 90 26 48
        E 208 80 26 00
        E 0 90 24 48
        E 192 80 24 00
        E 0 90 26 48
        E 208 80 26 00
        E 0 90 21 48
        E 192 80 21 00
        E 0 90 24 48
        E 208 80 24 00
        E 0 90 26 48
        E 192 80 26 00
        E 0 90 28 48
        E 400 80 28 00
        E 0 90 26 48
        E 208 80 26 00
        E 0 90 28 48
        E 192 80 28 00
        E 0 90 29 48
        E 208 80 29 00
        E 0 90 26 48
        E 192 80 26 00
        E 0 90 29 48
        E 208 80 29 00
        E 0 90 2b 48
        E 192 80 2b 00
        E 0 90 29 48
        E 208 80 29 00
        E 0 90 28 48
        E 192 80 28 00
        E 0 90 26 48
        E 208 80 26 00
        E 0 90 24 48
        E 192 80 24 00
        E 0 90 26 48
        E 208 80 26 00
        E 0 90 21 48
        E 192 80 21 00
        E 0 90 24 48
        E 192 80 24 00
        E 0 90 26 48
        E 208 80 26 00
        E 0 90 28 48
        E 400 80 28 00
        E 0 90 26 48
        E 192 80 26 00
        E 0 90 28 48
        E 208 80 28 00
        E 0 90 29 48
        E 192 80 29 00
        E 0 90 26 48
        E 208 80 26 00
        E 0 90 29 48
        E 192 80 29 00
        E 0 90 2b 48
        E 208 80 2b 00
        E 0 90 29 48
        E 192 80 29 00
        E 0 90 28 48
        E 208 80 28 00
        E 0 90 26 48
        E 192 80 26 00
        E 0 90 24 48
        E 208 80 24 00
        E 0 90 26 48
        E 192 80 26 00
        E 0 90 21 48
        E 208 80 21 00
        E 0 90 24 48
        E 192 80 24 00
        E 0 90 26 48
        E 208 80 26 00
        E 0 90 28 48
        E 400 80 28 00
        E 0 90 26 48
        E 192 80 26 00
        E 0 90 28 48
        E 208 80 28 00
        E 0 90 29 48
        E 192 80 29 00
        E 0 90 26 48
        E 208 80 26 00
        E 0 90 29 48
        E 192 80 29 00
        E 0 90 2b 48
        E 208 80 2b 00
        E 0 90 29 48
        E 192 80 29 00
        E 0 90 28 48
        E 208 80 28 00
        E 0 90 26 48
        E 192 80 26 00
        E 0 90 24 48
        E 208 80 24 00
        E 0 90 26 48
        E 192 80 26 00
        E 0 90 21 48
        E 208 80 21 00
        E 0 90 24 48
        E 192 80 24 00
        E 0 90 26 48
        E 208 80 26 00
        E 0 90 28 48
        E 400 80 28 00
        E 0 90 26 48
        E 192 80 26 00
        E 0 90 28 48
        E 208 80 28 00
        E 0 90 29 48
        E 192 80 29 00
        E 0 90 26 48
        E 208 80 26 00
        E 0 90 29 48
        E 192 80 29 00
        E 0 90 2b 48
        E 192 80 2b 00
        E 0 90 29 48
        E 208 80 29 00
        E 0 90 28 48
        E 192 80 28 00
        E 0 90 26 48
        E 208 80 26 00
        E 0 90 24 48
        E 192 80 24 00
        E 0 90 26 48
        E 208 80 26 00
        E 0 90 21 48
        E 192 80 21 00
        E 0 90 24 48
        E 208 80 24 00
        E 0 90 26 48
        E 192 80 26 00
        E 0 90 28 48
        E 400 80 28 00
        E 0 90 26 48
        E 208 80 26 00
        E 0 90 28 48
        E 192 80 28 00
        E 0 90 29 48
        E 208 80 29 00
        E 0 90 26 48
        E 192 80 26 00
        E 0 90 29 48
        E 208 80 29 00
        E 0 90 2b 48
        E 192 80 2b 00
        E 0 90 29 48
        E 208 80 29 00
        E 0 90 28 48
        E 192 80 28 00
        E 0 90 26 48
        E 208 80 26 00
        E 0 90 24 48
        E 192 80 24 00
        E 0 90 26 48
        E 208 80 26 00
        E 0 90 21 48
        E 192 80 21 00
        E 0 90 24 48
        E 208 80 24 00
        E 0 90 26 48
        E 192 80 26 00
        E 0 90 28 48
        E 400 80 28 00
        E 0 90 26 48
        E 208 80 26 00
        E 0 90 28 48
        E 192 80 28 00
        E 0 90 29 48
        E 208 80 29 00
        E 0 90 26 48
        E 192 80 26 00
        E 0 90 29 48
        E 208 80 29 00
        E 0 90 2b 48
        E 192 80 2b 00
        E 0 90 29 48
        E 208 80 29 00
        E 0 90 28 48
        E 192 80 28 00
        E 0 90 26 48
        E 208 80 26 00
        E 0 90 24 48
        E 192 80 24 00
        E 0 90 26 48
        E 208 80 26 00
        E 0 90 21 48
        E 192 80 21 00
        E 0 90 24 48
        E 208 80 24 00
        E 0 90 26 48
        E 192 80 26 00
        E 0 90 28 48
        E 400 80 28 00
        E 0 90 26 48
        E 192 80 26 00
        E 0 90 28 48
        E 208 80 28 00
        E 0 90 29 48
        E 192 80 29 00
        E 0 90 26 48
        E 208 80 26 00
        E 0 90 29 48
        E 192 80 29 00
        E 0 90 2b 48
        E 208 80 2b 00
        E 0 90 29 48
        E 192 80 29 00
        E 0 90 28 48
        E 208 80 28 00
        E 0 90 26 48
        E 192 80 26 00
        E 0 90 24 48
        E 208 80 24 00
        E 0 90 26 48
        E 192 80 26 00
        E 0 90 21 48
        E 208 80 21 00
        E 0 90 24 48
        E 192 80 24 00
        E 0 90 26 48
        E 208 80 26 00
        E 0 90 28 48
        E 400 80 28 00
        E 0 90 26 48
        E 192 80 26 00
        E 0 90 28 48
        E 208 80 28 00
        E 0 90 29 48
        E 192 80 29 00
        E 0 90 26 48
        E 208 80 26 00
        E 0 90 29 48
        E 192 80 29 00
        E 0 90 2b 48
        E 208 80 2b 00
        E 0 90 29 48
        E 192 80 29 00
        E 0 90 28 48
        E 208 80 28 00
        E 0 90 26 48
        E 192 80 26 00
        E 0 90 24 48
        E 208 80 24 00
        E 0 90 26 48
        E 192 80 26 00
        E 0 90 21 48
        E 208 80 21 00
        E 0 90 24 48
        E 192 80 24 00
        E 0 90 26 48
        E 208 80 26 00
        E 0 90 28 48
        E 400 80 28 00
        E 0 90 26 48
        E 192 80 26 00
        E 0 90 28 48
        E 208 80 28 00
        E 0 90 29 48
        E 192 80 29 00
        E 0 90 26 48
        E 208 80 26 00
        E 0 90 29 48
        E 192 80 29 00
        E 0 90 2b 48
        E 208 80 2b 00
        E 0 90 29 48
        E 192 80 29 00
        E 0 90 28 48
        E 192 80 28 00
        E 0 90 26 48
        E 208 80 26 00
        E 0 90 24 48
        E 192 80 24 00
        E 0 90 26 48
        E 208 80 26 00
        E 0 90 21 48
        E 192 80 21 00
        E 0 90 24 48
        E 208 80 24 00
        E 0 90 26 48
        E 192 80 26 00
        E 0 90 28 48
        E 400 80 28 00
        E 0 90 26 48
        E 208 80 26 00
        E 0 90 28 48
        E 192 80 28 00
        E 0 90 29 48
        E 208 80 29 00
        E 0 90 26 48
        E 192 80 26 00
        E 0 90 29 48
        E 208 80 29 00
        E 0 90 2b 48
        E 192 80 2b 00
        E 0 90 29 48
        E 208 80 29 00
        E 0 90 28 48
        E 192 80 28 00
        E 0 90 26 48
        E 208 80 26 00
        E 0 90 24 48
        E 192 80 24 00
        E 0 90 26 48
        E 208 80 26 00
        E 0 90 21 48
        E 192 80 21 00
        E 0 90 24 48
        E 208 80 24 00
        E 0 90 26 48
        E 192 80 26 00
        E 0 90 28 48
        E 400 80 28 00
        E 0 90 26 48
        E 208 80 26 00
        E 0 90 28 48
        E 192 80 28 00
        E 0 90 29 48
        E 208 80 29 00
        E 0 90 26 48
        E 192 80 26 00
        E 0 90 29 48
        E 208 80 29 00
        E 0 90 2b 48
        E 192 80 2b 00
        E 0 90 29 48
        E 208 80 29 00
        E 0 90 28 48
        E 192 80 28 00
        E 0 90 26 48
        E 208 80 26 00
        E 0 90 24 48
        E 192 80 24 00
        E 0 90 26 48
        E 208 80 26 00
        E 0 90 21 48
        E 192 80 21 00
        E 0 90 24 48
        E 208 80 24 00
        E 0 90 26 48
        E 192 80 26 00
        E 0 90 28 48
        E 400 80 28 00
        E 0 90 26 48
        E 192 80 26 00
        E 0 90 28 48
        E 208 80 28 00
        E 0 90 29 48
        E 192 80 29 00
        E 0 90 26 48
        E 208 80 26 00
        E 0 90 29 48
        E 192 80 29 00
        E 0 90 2b 48
        E 208 80 2b 00
        E 0 90 29 48
        E 192 80 29 00
        E 0 90 28 48
        E 208 80 28 00
        E 0 90 26 48
        E 192 80 26 00
        E 0 90 24 48
        E 208 80 24 00
        E 0 90 26 48
        E 192 80 26 00
        E 0 90 21 48
        E 208 80 21 00
        E 0 90 24 48
        E 192 80 24 00
        E 0 90 26 48
        E 208 80 26 00
        E 0 90 28 48
        E 400 80 28 00
        E 0 90 26 48
        E 192 80 26 00
        E 0 90 28 48
        E 208 80 28 00
        E 0 90 29 48
        E 192 80 29 00
        E 0 90 26 48
        E 208 80 26 00
        E 0 90 29 48
        E 192 80 29 00
        E 0 90 2b 48
        E 208 80 2b 00
        E 0 90 29 48
        E 192 80 29 00
        E 0 90 28 48
        E 208 80 28 00
        E 0 90 26 48
        E 192 80 26 00
        E 0 90 24 48
        E 208 80 24 00
        E 0 90 26 48
        E 192 80 26 00
        E 0 90 21 48
        E 208 80 21 00
        E 0 90 24 48
        E 192 80 24 00
        E 0 90 26 48
        E 208 80 26 00
        E 0 90 28 48
        E 400 80 28 00
        E 0 90 26 48
        E 192 80 26 00
        E 0 90 28 48
        E 208 80 28 00
        E 0 90 29 48
        E 192 80 29 00
        E 0 90 26 48
        E 208 80 26 00
        E 0 90 29 48
        E 192 80 29 00
        E 0 90 2b 48
        E 208 80 2b 00
        E 0 90 29 48
        E 192 80 29 00
        E 0 90 28 48
        E 208 80 28 00
        E 0 90 26 48
        E 192 80 26 00
        E 0 90 24 48
        E 192 80 24 00
        E 0 ff 2f 00
      >
    >
  >
  <TRACK {CF3F649F-7EE7-4CE4-B0BB-FAD1DDE8DE16}
    NAME "NES - Pulse 2 [ch1]"
    PEAKCOL 10092441
    BEAT -1
    AUTOMODE 0
    PANLAWFLAGS 3
    VOLPAN 1 0 -1 -1 1
    MUTESOLO 0 0 0
    IPHASE 0
    PLAYOFFS 0 1
    ISBUS 0 0
    BUSCOMP 0 0 0 0 0
    SHOWINMIX 1 0.6667 0.5 1 0.5 0 0 0
    FIXEDLANES 9 0 0 0 0
    SEL 0
    REC 0 5088 1 0 0 0 0 0
    VU 2
    TRACKHEIGHT 0 0 0 0 0 0 0
    INQ 0 0 0 0.5 100 0 0 100
    NCHAN 2
    FX 1
    TRACKID {CF3F649F-7EE7-4CE4-B0BB-FAD1DDE8DE16}
    PERF 0
    MIDIOUT -1
    MAINSEND 1 0
    <FXCHAIN
      WNDRECT 24 52 700 560
      SHOW 0
      LASTSEL 0
      DOCKED 0
      BYPASS 0 0 0
      <JS "ReapNES Studio/ReapNES_Console.jsfx" ""
        2 15 1 10 80 10 100 2 1 15 1 5 60 10 80 1 1 0 50 0 0 15 1 0 100 0 0 0.500000 0.500000 0.400000 0.300000 0.800000 1 1 0 0 0 0 - - - - - - - - - - - - - - - - - - - - - - - - - -
      >
      FLOATPOS 0 0 0 0
      FXID {F80EAF37-3558-4019-8636-5A6638244CAB}
      WAK 0 0
    >
    <ITEM
      POSITION 0
      LENGTH 83.98134
      LOOP 0
      ALLTAKES 0
      FADEIN 0 0 0 0 0 0 0
      FADEOUT 0 0 0 0 0 0 0
      MUTE 0 0
      SEL 0
      IGUID {5FA01487-21B1-4714-B978-61C38F403895}
      <SOURCE MIDI
        HASDATA 1 480 QN
        CCINTERP 32
        X 0 21 ff 03 12 53 71 75 61 72 65 20 32 20 5b 68 61 72 6d 6f 6e 79 5d
        E 0 c1 51
        E 13280 b1 0c 40
        E 0 b1 0b 58
        E 0 91 3c 58
        E 16 b1 0b 50
        E 16 b1 0b 48
        E 32 b1 0b 40
        E 16 b1 0b 38
        E 32 b1 0b 30
        E 16 b1 0b 28
        E 32 b1 0b 20
        E 16 b1 0b 18
        E 32 b1 0b 10
        E 16 b1 0b 08
        E 176 b1 0b 58
        E 0 81 3c 00
        E 0 91 3b 58
        E 16 b1 0b 50
        E 16 b1 0b 48
        E 32 b1 0b 40
        E 16 b1 0b 38
        E 32 b1 0b 30
        E 16 b1 0b 28
        E 32 b1 0b 20
        E 16 b1 0b 18
        E 32 b1 0b 10
        E 16 b1 0b 08
        E 576 b1 0b 58
        E 0 81 3b 00
        E 0 91 3c 58
        E 16 b1 0b 50
        E 16 b1 0b 48
        E 32 b1 0b 40
        E 16 b1 0b 38
        E 32 b1 0b 30
        E 16 b1 0b 28
        E 32 b1 0b 20
        E 16 b1 0b 18
        E 16 b1 0b 58
        E 0 81 3c 00
        E 0 91 3b 58
        E 16 b1 0b 50
        E 16 b1 0b 48
        E 32 b1 0b 40
        E 16 b1 0b 38
        E 16 b1 0b 30
        E 32 b1 0b 28
        E 16 b1 0b 20
        E 32 b1 0b 18
        E 16 b1 0b 10
        E 16 b1 0b 58
        E 0 81 3b 00
        E 0 91 3c 58
        E 16 b1 0b 50
        E 16 b1 0b 48
        E 32 b1 0b 40
        E 16 b1 0b 38
        E 32 b1 0b 30
        E 16 b1 0b 28
        E 32 b1 0b 20
        E 16 b1 0b 18
        E 16 b1 0b 58
        E 0 81 3c 00
        E 0 91 3b 58
        E 16 b1 0b 50
        E 16 b1 0b 48
        E 32 b1 0b 40
        E 16 b1 0b 38
        E 16 b1 0b 30
        E 32 b1 0b 28
        E 16 b1 0b 20
        E 32 b1 0b 18
        E 16 b1 0b 10
        E 32 b1 0b 08
        E 176 b1 0b 58
        E 0 81 3b 00
        E 0 91 39 58
        E 16 b1 0b 50
        E 16 b1 0b 48
        E 32 b1 0b 40
        E 16 b1 0b 38
        E 16 b1 0b 30
        E 32 b1 0b 28
        E 16 b1 0b 20
        E 32 b1 0b 18
        E 16 b1 0b 10
        E 16 b1 0b 58
        E 0 81 39 00
        E 0 91 37 58
        E 16 b1 0b 50
        E 16 b1 0b 48
        E 32 b1 0b 40
        E 16 b1 0b 38
        E 32 b1 0b 30
        E 16 b1 0b 28
        E 32 b1 0b 20
        E 16 b1 0b 18
        E 32 b1 0b 10
        E 16 b1 0b 08
        E 176 81 37 00
        E 400 b1 0b 58
        E 0 91 3c 58
        E 16 b1 0b 50
        E 16 b1 0b 48
        E 32 b1 0b 40
        E 16 b1 0b 38
        E 32 b1 0b 30
        E 16 b1 0b 28
        E 32 b1 0b 20
        E 16 b1 0b 18
        E 32 b1 0b 10
        E 16 b1 0b 08
        E 176 b1 0b 58
        E 0 81 3c 00
        E 0 91 3b 58
        E 16 b1 0b 50
        E 16 b1 0b 48
        E 32 b1 0b 40
        E 16 b1 0b 38
        E 32 b1 0b 30
        E 16 b1 0b 28
        E 32 b1 0b 20
        E 16 b1 0b 18
        E 32 b1 0b 10
        E 16 b1 0b 08
        E 576 b1 0b 58
        E 0 81 3b 00
        E 0 91 3c 58
        E 16 b1 0b 50
        E 16 b1 0b 48
        E 32 b1 0b 40
        E 16 b1 0b 38
        E 32 b1 0b 30
        E 16 b1 0b 28
        E 32 b1 0b 20
        E 16 b1 0b 18
        E 16 b1 0b 58
        E 0 81 3c 00
        E 0 91 3b 58
        E 16 b1 0b 50
        E 16 b1 0b 48
        E 32 b1 0b 40
        E 16 b1 0b 38
        E 32 b1 0b 30
        E 16 b1 0b 28
        E 16 b1 0b 20
        E 32 b1 0b 18
        E 16 b1 0b 10
        E 16 b1 0b 58
        E 0 81 3b 00
        E 0 91 3c 58
        E 16 b1 0b 50
        E 16 b1 0b 48
        E 32 b1 0b 40
        E 16 b1 0b 38
        E 32 b1 0b 30
        E 16 b1 0b 28
        E 32 b1 0b 20
        E 16 b1 0b 18
        E 16 b1 0b 58
        E 0 81 3c 00
        E 0 91 3e 58
        E 16 b1 0b 50
        E 16 b1 0b 48
        E 32 b1 0b 40
        E 16 b1 0b 38
        E 32 b1 0b 30
        E 16 b1 0b 28
        E 32 b1 0b 20
        E 16 b1 0b 18
        E 16 b1 0b 10
        E 32 b1 0b 08
        E 784 81 3e 00
        E 400 b1 0b 58
        E 0 91 3c 58
        E 16 b1 0b 50
        E 16 b1 0b 48
        E 32 b1 0b 40
        E 16 b1 0b 38
        E 32 b1 0b 30
        E 16 b1 0b 28
        E 32 b1 0b 20
        E 16 b1 0b 18
        E 32 b1 0b 10
        E 16 b1 0b 08
        E 176 b1 0b 58
        E 0 81 3c 00
        E 0 91 3b 58
        E 16 b1 0b 50
        E 16 b1 0b 48
        E 32 b1 0b 40
        E 16 b1 0b 38
        E 32 b1 0b 30
        E 16 b1 0b 28
        E 32 b1 0b 20
        E 16 b1 0b 18
        E 32 b1 0b 10
        E 16 b1 0b 08
        E 560 b1 0b 58
        E 0 81 3b 00
        E 0 91 3c 58
        E 16 b1 0b 50
        E 16 b1 0b 48
        E 16 b1 0b 40
        E 32 b1 0b 38
        E 16 b1 0b 30
        E 32 b1 0b 28
        E 16 b1 0b 20
        E 32 b1 0b 18
        E 16 b1 0b 10
        E 16 b1 0b 58
        E 0 81 3c 00
        E 0 91 3b 58
        E 16 b1 0b 50
        E 16 b1 0b 48
        E 32 b1 0b 40
        E 16 b1 0b 38
        E 32 b1 0b 30
        E 16 b1 0b 28
        E 32 b1 0b 20
        E 16 b1 0b 18
        E 16 b1 0b 58
        E 0 81 3b 00
        E 0 91 3c 58
        E 16 b1 0b 50
        E 16 b1 0b 48
        E 16 b1 0b 40
        E 32 b1 0b 38
        E 16 b1 0b 30
        E 32 b1 0b 28
        E 16 b1 0b 20
        E 32 b1 0b 18
        E 16 b1 0b 10
        E 16 b1 0b 58
        E 0 81 3c 00
        E 0 91 3b 58
        E 16 b1 0b 50
        E 16 b1 0b 48
        E 32 b1 0b 40
        E 16 b1 0b 38
        E 32 b1 0b 30
        E 16 b1 0b 28
        E 32 b1 0b 20
        E 16 b1 0b 18
        E 32 b1 0b 10
        E 16 b1 0b 08
        E 176 b1 0b 58
        E 0 81 3b 00
        E 0 91 39 58
        E 16 b1 0b 50
        E 16 b1 0b 48
        E 32 b1 0b 40
        E 16 b1 0b 38
        E 32 b1 0b 30
        E 16 b1 0b 28
        E 32 b1 0b 20
        E 16 b1 0b 18
        E 16 b1 0b 58
        E 0 81 39 00
        E 0 91 37 58
        E 16 b1 0b 50
        E 16 b1 0b 48
        E 16 b1 0b 40
        E 32 b1 0b 38
        E 16 b1 0b 30
        E 32 b1 0b 28
        E 16 b1 0b 20
        E 32 b1 0b 18
        E 16 b1 0b 10
        E 32 b1 0b 08
        E 176 81 37 00
        E 400 b1 0b 58
        E 0 91 3c 58
        E 16 b1 0b 50
        E 16 b1 0b 48
        E 32 b1 0b 40
        E 16 b1 0b 38
        E 16 b1 0b 30
        E 32 b1 0b 28
        E 16 b1 0b 20
        E 32 b1 0b 18
        E 16 b1 0b 10
        E 32 b1 0b 08
        E 176 b1 0b 58
        E 0 81 3c 00
        E 0 91 3b 58
        E 16 b1 0b 50
        E 16 b1 0b 48
        E 32 b1 0b 40
        E 16 b1 0b 38
        E 16 b1 0b 30
        E 32 b1 0b 28
        E 16 b1 0b 20
        E 32 b1 0b 18
        E 16 b1 0b 10
        E 32 b1 0b 08
        E 576 b1 0b 58
        E 0 81 3b 00
        E 0 91 3c 58
        E 16 b1 0b 50
        E 16 b1 0b 48
        E 32 b1 0b 40
        E 16 b1 0b 38
        E 16 b1 0b 30
        E 32 b1 0b 28
        E 16 b1 0b 20
        E 32 b1 0b 18
        E 16 b1 0b 10
        E 16 b1 0b 58
        E 0 81 3c 00
        E 0 91 3b 58
        E 16 b1 0b 50
        E 16 b1 0b 48
        E 32 b1 0b 40
        E 16 b1 0b 38
        E 32 b1 0b 30
        E 16 b1 0b 28
        E 32 b1 0b 20
        E 16 b1 0b 18
        E 16 b1 0b 58
        E 0 81 3b 00
        E 0 91 3c 58
        E 16 b1 0b 50
        E 16 b1 0b 48
        E 32 b1 0b 40
        E 16 b1 0b 38
        E 32 b1 0b 30
        E 16 b1 0b 28
        E 16 b1 0b 20
        E 32 b1 0b 18
        E 16 b1 0b 10
        E 16 b1 0b 58
        E 0 81 3c 00
        E 0 91 3e 58
        E 16 b1 0b 50
        E 16 b1 0b 48
        E 32 b1 0b 40
        E 16 b1 0b 38
        E 32 b1 0b 30
        E 16 b1 0b 28
        E 32 b1 0b 20
        E 16 b1 0b 18
        E 32 b1 0b 10
        E 16 b1 0b 08
        E 768 81 3e 00
        E 13184 b1 0b 58
        E 0 91 3c 58
        E 16 b1 0b 50
        E 16 b1 0b 48
        E 32 b1 0b 40
        E 16 b1 0b 38
        E 16 b1 0b 30
        E 32 b1 0b 28
        E 16 b1 0b 20
        E 32 b1 0b 18
        E 16 b1 0b 10
        E 32 b1 0b 08
        E 176 b1 0b 58
        E 0 81 3c 00
        E 0 91 3b 58
        E 16 b1 0b 50
        E 16 b1 0b 48
        E 32 b1 0b 40
        E 16 b1 0b 38
        E 16 b1 0b 30
        E 32 b1 0b 28
        E 16 b1 0b 20
        E 32 b1 0b 18
        E 16 b1 0b 10
        E 32 b1 0b 08
        E 576 b1 0b 58
        E 0 81 3b 00
        E 0 91 3c 58
        E 16 b1 0b 50
        E 16 b1 0b 48
        E 32 b1 0b 40
        E 16 b1 0b 38
        E 16 b1 0b 30
        E 32 b1 0b 28
        E 16 b1 0b 20
        E 32 b1 0b 18
        E 16 b1 0b 10
        E 16 b1 0b 58
        E 0 81 3c 00
        E 0 91 3b 58
        E 16 b1 0b 50
        E 16 b1 0b 48
        E 32 b1 0b 40
        E 16 b1 0b 38
        E 32 b1 0b 30
        E 16 b1 0b 28
        E 32 b1 0b 20
        E 16 b1 0b 18
        E 16 b1 0b 58
        E 0 81 3b 00
        E 0 91 3c 58
        E 16 b1 0b 50
        E 16 b1 0b 48
        E 32 b1 0b 40
        E 16 b1 0b 38
        E 16 b1 0b 30
        E 32 b1 0b 28
        E 16 b1 0b 20
        E 32 b1 0b 18
        E 16 b1 0b 10
        E 16 b1 0b 58
        E 0 81 3c 00
        E 0 91 3b 58
        E 16 b1 0b 50
        E 16 b1 0b 48
        E 32 b1 0b 40
        E 16 b1 0b 38
        E 32 b1 0b 30
        E 16 b1 0b 28
        E 32 b1 0b 20
        E 16 b1 0b 18
        E 32 b1 0b 10
        E 16 b1 0b 08
        E 176 b1 0b 58
        E 0 81 3b 00
        E 0 91 39 58
        E 16 b1 0b 50
        E 16 b1 0b 48
        E 32 b1 0b 40
        E 16 b1 0b 38
        E 32 b1 0b 30
        E 16 b1 0b 28
        E 32 b1 0b 20
        E 16 b1 0b 18
        E 16 b1 0b 58
        E 0 81 39 00
        E 0 91 37 58
        E 16 b1 0b 50
        E 16 b1 0b 48
        E 32 b1 0b 40
        E 16 b1 0b 38
        E 32 b1 0b 30
        E 16 b1 0b 28
        E 16 b1 0b 20
        E 32 b1 0b 18
        E 16 b1 0b 10
        E 32 b1 0b 08
        E 176 81 37 00
        E 400 b1 0b 58
        E 0 91 3c 58
        E 16 b1 0b 50
        E 16 b1 0b 48
        E 32 b1 0b 40
        E 16 b1 0b 38
        E 32 b1 0b 30
        E 16 b1 0b 28
        E 16 b1 0b 20
        E 32 b1 0b 18
        E 16 b1 0b 10
        E 32 b1 0b 08
        E 176 b1 0b 58
        E 0 81 3c 00
        E 0 91 3b 58
        E 16 b1 0b 50
        E 16 b1 0b 48
        E 32 b1 0b 40
        E 16 b1 0b 38
        E 32 b1 0b 30
        E 16 b1 0b 28
        E 16 b1 0b 20
        E 32 b1 0b 18
        E 16 b1 0b 10
        E 32 b1 0b 08
        E 576 b1 0b 58
        E 0 81 3b 00
        E 0 91 3c 58
        E 16 b1 0b 50
        E 16 b1 0b 48
        E 32 b1 0b 40
        E 16 b1 0b 38
        E 32 b1 0b 30
        E 16 b1 0b 28
        E 32 b1 0b 20
        E 16 b1 0b 18
        E 16 b1 0b 10
        E 16 b1 0b 58
        E 0 81 3c 00
        E 0 91 3b 58
        E 16 b1 0b 50
        E 16 b1 0b 48
        E 32 b1 0b 40
        E 16 b1 0b 38
        E 32 b1 0b 30
        E 16 b1 0b 28
        E 32 b1 0b 20
        E 16 b1 0b 18
        E 16 b1 0b 58
        E 0 81 3b 00
        E 0 91 3c 58
        E 16 b1 0b 50
        E 16 b1 0b 48
        E 32 b1 0b 40
        E 16 b1 0b 38
        E 32 b1 0b 30
        E 16 b1 0b 28
        E 32 b1 0b 20
        E 16 b1 0b 18
        E 16 b1 0b 10
        E 16 b1 0b 58
        E 0 81 3c 00
        E 0 91 3e 58
        E 16 b1 0b 50
        E 16 b1 0b 48
        E 32 b1 0b 40
        E 16 b1 0b 38
        E 32 b1 0b 30
        E 16 b1 0b 28
        E 32 b1 0b 20
        E 16 b1 0b 18
        E 32 b1 0b 10
        E 16 b1 0b 08
        E 768 81 3e 00
        E 400 b1 0b 58
        E 0 91 3c 58
        E 16 b1 0b 50
        E 16 b1 0b 48
        E 32 b1 0b 40
        E 16 b1 0b 38
        E 32 b1 0b 30
        E 16 b1 0b 28
        E 32 b1 0b 20
        E 16 b1 0b 18
        E 32 b1 0b 10
        E 16 b1 0b 08
        E 176 b1 0b 58
        E 0 81 3c 00
        E 0 91 3b 58
        E 16 b1 0b 50
        E 16 b1 0b 48
        E 32 b1 0b 40
        E 16 b1 0b 38
        E 32 b1 0b 30
        E 16 b1 0b 28
        E 32 b1 0b 20
        E 16 b1 0b 18
        E 32 b1 0b 10
        E 16 b1 0b 08
        E 576 b1 0b 58
        E 0 81 3b 00
        E 0 91 3c 58
        E 16 b1 0b 50
        E 16 b1 0b 48
        E 32 b1 0b 40
        E 16 b1 0b 38
        E 32 b1 0b 30
        E 16 b1 0b 28
        E 32 b1 0b 20
        E 16 b1 0b 18
        E 16 b1 0b 58
        E 0 81 3c 00
        E 0 91 3b 58
        E 16 b1 0b 50
        E 16 b1 0b 48
        E 16 b1 0b 40
        E 32 b1 0b 38
        E 16 b1 0b 30
        E 32 b1 0b 28
        E 16 b1 0b 20
        E 32 b1 0b 18
        E 16 b1 0b 10
        E 16 b1 0b 58
        E 0 81 3b 00
        E 0 91 3c 58
        E 16 b1 0b 50
        E 16 b1 0b 48
        E 32 b1 0b 40
        E 16 b1 0b 38
        E 32 b1 0b 30
        E 16 b1 0b 28
        E 32 b1 0b 20
        E 16 b1 0b 18
        E 16 b1 0b 58
        E 0 81 3c 00
        E 0 91 3b 58
        E 16 b1 0b 50
        E 16 b1 0b 48
        E 32 b1 0b 40
        E 16 b1 0b 38
        E 16 b1 0b 30
        E 32 b1 0b 28
        E 16 b1 0b 20
        E 32 b1 0b 18
        E 16 b1 0b 10
        E 32 b1 0b 08
        E 176 b1 0b 58
        E 0 81 3b 00
        E 0 91 39 58
        E 16 b1 0b 50
        E 16 b1 0b 48
        E 32 b1 0b 40
        E 16 b1 0b 38
        E 16 b1 0b 30
        E 32 b1 0b 28
        E 16 b1 0b 20
        E 32 b1 0b 18
        E 16 b1 0b 10
        E 16 b1 0b 58
        E 0 81 39 00
        E 0 91 37 58
        E 16 b1 0b 50
        E 16 b1 0b 48
        E 32 b1 0b 40
        E 16 b1 0b 38
        E 32 b1 0b 30
        E 16 b1 0b 28
        E 32 b1 0b 20
        E 16 b1 0b 18
        E 32 b1 0b 10
        E 16 b1 0b 08
        E 176 81 37 00
        E 400 b1 0b 58
        E 0 91 3c 58
        E 16 b1 0b 50
        E 16 b1 0b 48
        E 32 b1 0b 40
        E 16 b1 0b 38
        E 32 b1 0b 30
        E 16 b1 0b 28
        E 32 b1 0b 20
        E 16 b1 0b 18
        E 32 b1 0b 10
        E 16 b1 0b 08
        E 176 b1 0b 58
        E 0 81 3c 00
        E 0 91 3b 58
        E 16 b1 0b 50
        E 16 b1 0b 48
        E 32 b1 0b 40
        E 16 b1 0b 38
        E 32 b1 0b 30
        E 16 b1 0b 28
        E 32 b1 0b 20
        E 16 b1 0b 18
        E 32 b1 0b 10
        E 16 b1 0b 08
        E 576 b1 0b 58
        E 0 81 3b 00
        E 0 91 3c 58
        E 16 b1 0b 50
        E 16 b1 0b 48
        E 32 b1 0b 40
        E 16 b1 0b 38
        E 32 b1 0b 30
        E 16 b1 0b 28
        E 32 b1 0b 20
        E 16 b1 0b 18
        E 16 b1 0b 58
        E 0 81 3c 00
        E 0 91 3b 58
        E 16 b1 0b 50
        E 16 b1 0b 48
        E 32 b1 0b 40
        E 16 b1 0b 38
        E 32 b1 0b 30
        E 16 b1 0b 28
        E 16 b1 0b 20
        E 32 b1 0b 18
        E 16 b1 0b 10
        E 16 b1 0b 58
        E 0 81 3b 00
        E 0 91 3c 58
        E 16 b1 0b 50
        E 16 b1 0b 48
        E 32 b1 0b 40
        E 16 b1 0b 38
        E 32 b1 0b 30
        E 16 b1 0b 28
        E 32 b1 0b 20
        E 16 b1 0b 18
        E 16 b1 0b 58
        E 0 81 3c 00
        E 0 91 3e 58
        E 16 b1 0b 50
        E 16 b1 0b 48
        E 32 b1 0b 40
        E 16 b1 0b 38
        E 32 b1 0b 30
        E 16 b1 0b 28
        E 16 b1 0b 20
        E 32 b1 0b 18
        E 16 b1 0b 10
        E 32 b1 0b 08
        E 784 81 3e 00
        E 0 ff 2f 00
      >
    >
  >
  <TRACK {068C54C6-B2AB-44DA-BF25-F1915B41C0C8}
    NAME "NES - Triangle [ch2]"
    PEAKCOL 16744192
    BEAT -1
    AUTOMODE 0
    PANLAWFLAGS 3
    VOLPAN 1 0 -1 -1 1
    MUTESOLO 0 0 0
    IPHASE 0
    PLAYOFFS 0 1
    ISBUS 0 0
    BUSCOMP 0 0 0 0 0
    SHOWINMIX 1 0.6667 0.5 1 0.5 0 0 0
    FIXEDLANES 9 0 0 0 0
    SEL 0
    REC 0 5088 1 0 0 0 0 0
    VU 2
    TRACKHEIGHT 0 0 0 0 0 0 0
    INQ 0 0 0 0.5 100 0 0 100
    NCHAN 2
    FX 1
    TRACKID {068C54C6-B2AB-44DA-BF25-F1915B41C0C8}
    PERF 0
    MIDIOUT -1
    MAINSEND 1 0
    <FXCHAIN
      WNDRECT 24 52 700 560
      SHOW 0
      LASTSEL 0
      DOCKED 0
      BYPASS 0 0 0
      <JS "ReapNES Studio/ReapNES_Console.jsfx" ""
        2 15 1 10 80 10 100 2 1 15 1 5 60 10 80 1 1 0 50 0 0 15 1 0 100 0 0 0.500000 0.500000 0.400000 0.300000 0.800000 2 1 0 0 0 0 - - - - - - - - - - - - - - - - - - - - - - - - - -
      >
      FLOATPOS 0 0 0 0
      FXID {6278CFBD-92C7-460C-A968-D54FCA634A8F}
      WAK 0 0
    >
    <ITEM
      POSITION 0
      LENGTH 83.98134
      LOOP 0
      ALLTAKES 0
      FADEIN 0 0 0 0 0 0 0
      FADEOUT 0 0 0 0 0 0 0
      MUTE 0 0
      SEL 0
      IGUID {694127CC-3E7E-4DD3-B00F-D9E26AE41F11}
      <SOURCE MIDI
        HASDATA 1 480 QN
        CCINTERP 32
        X 0 18 ff 03 0f 54 72 69 61 6e 67 6c 65 20 5b 62 61 73 73 5d
        E 0 c2 26
        E 48 b2 0b 7f
        E 0 92 26 7f
        E 192 82 26 00
        E 0 b2 0b 7f
        E 0 92 21 7f
        E 208 82 21 00
        E 0 b2 0b 7f
        E 0 92 24 7f
        E 192 82 24 00
        E 0 b2 0b 7f
        E 0 92 26 7f
        E 208 82 26 00
        E 0 b2 0b 7f
        E 0 92 28 7f
        E 400 82 28 00
        E 0 b2 0b 7f
        E 0 92 26 7f
        E 192 82 26 00
        E 0 b2 0b 7f
        E 0 92 28 7f
        E 208 82 28 00
        E 0 b2 0b 7f
        E 0 92 29 7f
        E 192 82 29 00
        E 0 b2 0b 7f
        E 0 92 26 7f
        E 192 82 26 00
        E 0 b2 0b 7f
        E 0 92 29 7f
        E 208 82 29 00
        E 0 b2 0b 7f
        E 0 92 2b 7f
        E 192 82 2b 00
        E 0 b2 0b 7f
        E 0 92 29 7f
        E 208 82 29 00
        E 0 b2 0b 7f
        E 0 92 28 7f
        E 192 82 28 00
        E 0 b2 0b 7f
        E 0 92 26 7f
        E 208 82 26 00
        E 0 b2 0b 7f
        E 0 92 24 7f
        E 192 82 24 00
        E 0 b2 0b 7f
        E 0 92 26 7f
        E 208 82 26 00
        E 0 b2 0b 7f
        E 0 92 21 7f
        E 192 82 21 00
        E 0 b2 0b 7f
        E 0 92 24 7f
        E 208 82 24 00
        E 0 b2 0b 7f
        E 0 92 26 7f
        E 192 82 26 00
        E 0 b2 0b 7f
        E 0 92 28 7f
        E 400 82 28 00
        E 0 b2 0b 7f
        E 0 92 26 7f
        E 208 82 26 00
        E 0 b2 0b 7f
        E 0 92 28 7f
        E 192 82 28 00
        E 0 b2 0b 7f
        E 0 92 29 7f
        E 208 82 29 00
        E 0 b2 0b 7f
        E 0 92 26 7f
        E 192 82 26 00
        E 0 b2 0b 7f
        E 0 92 29 7f
        E 208 82 29 00
        E 0 b2 0b 7f
        E 0 92 2b 7f
        E 192 82 2b 00
        E 0 b2 0b 7f
        E 0 92 29 7f
        E 208 82 29 00
        E 0 b2 0b 7f
        E 0 92 28 7f
        E 192 82 28 00
        E 0 b2 0b 7f
        E 0 92 26 7f
        E 208 82 26 00
        E 0 b2 0b 7f
        E 0 92 24 7f
        E 192 82 24 00
        E 0 b2 0b 7f
        E 0 92 26 7f
        E 208 82 26 00
        E 0 b2 0b 7f
        E 0 92 21 7f
        E 192 82 21 00
        E 0 b2 0b 7f
        E 0 92 24 7f
        E 208 82 24 00
        E 0 b2 0b 7f
        E 0 92 26 7f
        E 192 82 26 00
        E 0 b2 0b 7f
        E 0 92 28 7f
        E 400 82 28 00
        E 0 b2 0b 7f
        E 0 92 26 7f
        E 208 82 26 00
        E 0 b2 0b 7f
        E 0 92 28 7f
        E 192 82 28 00
        E 0 b2 0b 7f
        E 0 92 29 7f
        E 208 82 29 00
        E 0 b2 0b 7f
        E 0 92 26 7f
        E 192 82 26 00
        E 0 b2 0b 7f
        E 0 92 29 7f
        E 208 82 29 00
        E 0 b2 0b 7f
        E 0 92 2b 7f
        E 192 82 2b 00
        E 0 b2 0b 7f
        E 0 92 29 7f
        E 208 82 29 00
        E 0 b2 0b 7f
        E 0 92 28 7f
        E 192 82 28 00
        E 0 b2 0b 7f
        E 0 92 26 7f
        E 208 82 26 00
        E 0 b2 0b 7f
        E 0 92 24 7f
        E 192 82 24 00
        E 0 b2 0b 7f
        E 0 92 26 7f
        E 208 82 26 00
        E 0 b2 0b 7f
        E 0 92 21 7f
        E 192 82 21 00
        E 0 b2 0b 7f
        E 0 92 24 7f
        E 192 82 24 00
        E 0 b2 0b 7f
        E 0 92 26 7f
        E 208 82 26 00
        E 0 b2 0b 7f
        E 0 92 28 7f
        E 400 82 28 00
        E 0 b2 0b 7f
        E 0 92 26 7f
        E 192 82 26 00
        E 0 b2 0b 7f
        E 0 92 28 7f
        E 208 82 28 00
        E 0 b2 0b 7f
        E 0 92 29 7f
        E 192 82 29 00
        E 0 b2 0b 7f
        E 0 92 26 7f
        E 208 82 26 00
        E 0 b2 0b 7f
        E 0 92 29 7f
        E 192 82 29 00
        E 0 b2 0b 7f
        E 0 92 2b 7f
        E 208 82 2b 00
        E 0 b2 0b 7f
        E 0 92 29 7f
        E 192 82 29 00
        E 0 b2 0b 7f
        E 0 92 28 7f
        E 208 82 28 00
        E 0 b2 0b 7f
        E 0 92 26 7f
        E 192 82 26 00
        E 0 b2 0b 7f
        E 0 92 24 7f
        E 208 82 24 00
        E 0 b2 0b 7f
        E 0 92 26 7f
        E 192 82 26 00
        E 0 b2 0b 7f
        E 0 92 21 7f
        E 208 82 21 00
        E 0 b2 0b 7f
        E 0 92 24 7f
        E 192 82 24 00
        E 0 b2 0b 7f
        E 0 92 26 7f
        E 208 82 26 00
        E 0 b2 0b 7f
        E 0 92 28 7f
        E 400 82 28 00
        E 0 b2 0b 7f
        E 0 92 26 7f
        E 192 82 26 00
        E 0 b2 0b 7f
        E 0 92 28 7f
        E 208 82 28 00
        E 0 b2 0b 7f
        E 0 92 29 7f
        E 192 82 29 00
        E 0 b2 0b 7f
        E 0 92 26 7f
        E 208 82 26 00
        E 0 b2 0b 7f
        E 0 92 29 7f
        E 192 82 29 00
        E 0 b2 0b 7f
        E 0 92 2b 7f
        E 208 82 2b 00
        E 0 b2 0b 7f
        E 0 92 29 7f
        E 192 82 29 00
        E 0 b2 0b 7f
        E 0 92 28 7f
        E 208 82 28 00
        E 0 b2 0b 7f
        E 0 92 26 7f
        E 192 82 26 00
        E 0 b2 0b 7f
        E 0 92 24 7f
        E 208 82 24 00
        E 0 b2 0b 7f
        E 0 92 26 7f
        E 192 82 26 00
        E 0 b2 0b 7f
        E 0 92 21 7f
        E 208 82 21 00
        E 0 b2 0b 7f
        E 0 92 24 7f
        E 192 82 24 00
        E 0 b2 0b 7f
        E 0 92 26 7f
        E 208 82 26 00
        E 0 b2 0b 7f
        E 0 92 28 7f
        E 400 82 28 00
        E 0 b2 0b 7f
        E 0 92 26 7f
        E 192 82 26 00
        E 0 b2 0b 7f
        E 0 92 28 7f
        E 208 82 28 00
        E 0 b2 0b 7f
        E 0 92 29 7f
        E 192 82 29 00
        E 0 b2 0b 7f
        E 0 92 26 7f
        E 208 82 26 00
        E 0 b2 0b 7f
        E 0 92 29 7f
        E 192 82 29 00
        E 0 b2 0b 7f
        E 0 92 2b 7f
        E 192 82 2b 00
        E 0 b2 0b 7f
        E 0 92 29 7f
        E 208 82 29 00
        E 0 b2 0b 7f
        E 0 92 28 7f
        E 192 82 28 00
        E 0 b2 0b 7f
        E 0 92 26 7f
        E 208 82 26 00
        E 0 b2 0b 7f
        E 0 92 24 7f
        E 192 82 24 00
        E 0 b2 0b 7f
        E 0 92 26 7f
        E 208 82 26 00
        E 0 b2 0b 7f
        E 0 92 21 7f
        E 192 82 21 00
        E 0 b2 0b 7f
        E 0 92 24 7f
        E 208 82 24 00
        E 0 b2 0b 7f
        E 0 92 26 7f
        E 192 82 26 00
        E 0 b2 0b 7f
        E 0 92 28 7f
        E 400 82 28 00
        E 0 b2 0b 7f
        E 0 92 26 7f
        E 208 82 26 00
        E 0 b2 0b 7f
        E 0 92 28 7f
        E 192 82 28 00
        E 0 b2 0b 7f
        E 0 92 29 7f
        E 208 82 29 00
        E 0 b2 0b 7f
        E 0 92 26 7f
        E 192 82 26 00
        E 0 b2 0b 7f
        E 0 92 29 7f
        E 208 82 29 00
        E 0 b2 0b 7f
        E 0 92 2b 7f
        E 192 82 2b 00
        E 0 b2 0b 7f
        E 0 92 29 7f
        E 208 82 29 00
        E 0 b2 0b 7f
        E 0 92 28 7f
        E 192 82 28 00
        E 0 b2 0b 7f
        E 0 92 26 7f
        E 208 82 26 00
        E 0 b2 0b 7f
        E 0 92 24 7f
        E 192 82 24 00
        E 0 b2 0b 7f
        E 0 92 26 7f
        E 208 82 26 00
        E 0 b2 0b 7f
        E 0 92 21 7f
        E 192 82 21 00
        E 0 b2 0b 7f
        E 0 92 24 7f
        E 208 82 24 00
        E 0 b2 0b 7f
        E 0 92 26 7f
        E 192 82 26 00
        E 0 b2 0b 7f
        E 0 92 28 7f
        E 400 82 28 00
        E 0 b2 0b 7f
        E 0 92 26 7f
        E 208 82 26 00
        E 0 b2 0b 7f
        E 0 92 28 7f
        E 192 82 28 00
        E 0 b2 0b 7f
        E 0 92 29 7f
        E 208 82 29 00
        E 0 b2 0b 7f
        E 0 92 26 7f
        E 192 82 26 00
        E 0 b2 0b 7f
        E 0 92 29 7f
        E 208 82 29 00
        E 0 b2 0b 7f
        E 0 92 2b 7f
        E 192 82 2b 00
        E 0 b2 0b 7f
        E 0 92 29 7f
        E 208 82 29 00
        E 0 b2 0b 7f
        E 0 92 28 7f
        E 192 82 28 00
        E 0 b2 0b 7f
        E 0 92 26 7f
        E 208 82 26 00
        E 0 b2 0b 7f
        E 0 92 24 7f
        E 192 82 24 00
        E 0 b2 0b 7f
        E 0 92 26 7f
        E 208 82 26 00
        E 0 b2 0b 7f
        E 0 92 21 7f
        E 192 82 21 00
        E 0 b2 0b 7f
        E 0 92 24 7f
        E 208 82 24 00
        E 0 b2 0b 7f
        E 0 92 26 7f
        E 192 82 26 00
        E 0 b2 0b 7f
        E 0 92 28 7f
        E 400 82 28 00
        E 0 b2 0b 7f
        E 0 92 26 7f
        E 192 82 26 00
        E 0 b2 0b 7f
        E 0 92 28 7f
        E 208 82 28 00
        E 0 b2 0b 7f
        E 0 92 29 7f
        E 192 82 29 00
        E 0 b2 0b 7f
        E 0 92 26 7f
        E 208 82 26 00
        E 0 b2 0b 7f
        E 0 92 29 7f
        E 192 82 29 00
        E 0 b2 0b 7f
        E 0 92 2b 7f
        E 208 82 2b 00
        E 0 b2 0b 7f
        E 0 92 29 7f
        E 192 82 29 00
        E 0 b2 0b 7f
        E 0 92 28 7f
        E 208 82 28 00
        E 0 b2 0b 7f
        E 0 92 26 7f
        E 192 82 26 00
        E 0 b2 0b 7f
        E 0 92 24 7f
        E 208 82 24 00
        E 0 b2 0b 7f
        E 0 92 26 7f
        E 192 82 26 00
        E 0 b2 0b 7f
        E 0 92 21 7f
        E 208 82 21 00
        E 0 b2 0b 7f
        E 0 92 24 7f
        E 192 82 24 00
        E 0 b2 0b 7f
        E 0 92 26 7f
        E 208 82 26 00
        E 0 b2 0b 7f
        E 0 92 28 7f
        E 400 82 28 00
        E 0 b2 0b 7f
        E 0 92 26 7f
        E 192 82 26 00
        E 0 b2 0b 7f
        E 0 92 28 7f
        E 208 82 28 00
        E 0 b2 0b 7f
        E 0 92 29 7f
        E 192 82 29 00
        E 0 b2 0b 7f
        E 0 92 26 7f
        E 208 82 26 00
        E 0 b2 0b 7f
        E 0 92 29 7f
        E 192 82 29 00
        E 0 b2 0b 7f
        E 0 92 2b 7f
        E 208 82 2b 00
        E 0 b2 0b 7f
        E 0 92 29 7f
        E 192 82 29 00
        E 0 b2 0b 7f
        E 0 92 28 7f
        E 208 82 28 00
        E 0 b2 0b 7f
        E 0 92 26 7f
        E 192 82 26 00
        E 0 b2 0b 7f
        E 0 92 24 7f
        E 208 82 24 00
        E 0 b2 0b 7f
        E 0 92 26 7f
        E 192 82 26 00
        E 0 b2 0b 7f
        E 0 92 21 7f
        E 208 82 21 00
        E 0 b2 0b 7f
        E 0 92 24 7f
        E 192 82 24 00
        E 0 b2 0b 7f
        E 0 92 26 7f
        E 208 82 26 00
        E 0 b2 0b 7f
        E 0 92 28 7f
        E 400 82 28 00
        E 0 b2 0b 7f
        E 0 92 26 7f
        E 192 82 26 00
        E 0 b2 0b 7f
        E 0 92 28 7f
        E 208 82 28 00
        E 0 b2 0b 7f
        E 0 92 29 7f
        E 192 82 29 00
        E 0 b2 0b 7f
        E 0 92 26 7f
        E 208 82 26 00
        E 0 b2 0b 7f
        E 0 92 29 7f
        E 192 82 29 00
        E 0 b2 0b 7f
        E 0 92 2b 7f
        E 208 82 2b 00
        E 0 b2 0b 7f
        E 0 92 29 7f
        E 192 82 29 00
        E 0 b2 0b 7f
        E 0 92 28 7f
        E 192 82 28 00
        E 0 b2 0b 7f
        E 0 92 26 7f
        E 208 82 26 00
        E 0 b2 0b 7f
        E 0 92 24 7f
        E 192 82 24 00
        E 0 b2 0b 7f
        E 0 92 26 7f
        E 208 82 26 00
        E 0 b2 0b 7f
        E 0 92 21 7f
        E 192 82 21 00
        E 0 b2 0b 7f
        E 0 92 24 7f
        E 208 82 24 00
        E 0 b2 0b 7f
        E 0 92 26 7f
        E 192 82 26 00
        E 0 b2 0b 7f
        E 0 92 28 7f
        E 400 82 28 00
        E 0 b2 0b 7f
        E 0 92 26 7f
        E 208 82 26 00
        E 0 b2 0b 7f
        E 0 92 28 7f
        E 192 82 28 00
        E 0 b2 0b 7f
        E 0 92 29 7f
        E 208 82 29 00
        E 0 b2 0b 7f
        E 0 92 26 7f
        E 192 82 26 00
        E 0 b2 0b 7f
        E 0 92 29 7f
        E 208 82 29 00
        E 0 b2 0b 7f
        E 0 92 2b 7f
        E 192 82 2b 00
        E 0 b2 0b 7f
        E 0 92 29 7f
        E 208 82 29 00
        E 0 b2 0b 7f
        E 0 92 28 7f
        E 192 82 28 00
        E 0 b2 0b 7f
        E 0 92 26 7f
        E 208 82 26 00
        E 0 b2 0b 7f
        E 0 92 24 7f
        E 192 82 24 00
        E 0 b2 0b 7f
        E 0 92 26 7f
        E 208 82 26 00
        E 0 b2 0b 7f
        E 0 92 21 7f
        E 192 82 21 00
        E 0 b2 0b 7f
        E 0 92 24 7f
        E 208 82 24 00
        E 0 b2 0b 7f
        E 0 92 26 7f
        E 192 82 26 00
        E 0 b2 0b 7f
        E 0 92 28 7f
        E 400 82 28 00
        E 0 b2 0b 7f
        E 0 92 26 7f
        E 208 82 26 00
        E 0 b2 0b 7f
        E 0 92 28 7f
        E 192 82 28 00
        E 0 b2 0b 7f
        E 0 92 29 7f
        E 208 82 29 00
        E 0 b2 0b 7f
        E 0 92 26 7f
        E 192 82 26 00
        E 0 b2 0b 7f
        E 0 92 29 7f
        E 208 82 29 00
        E 0 b2 0b 7f
        E 0 92 2b 7f
        E 192 82 2b 00
        E 0 b2 0b 7f
        E 0 92 29 7f
        E 208 82 29 00
        E 0 b2 0b 7f
        E 0 92 28 7f
        E 192 82 28 00
        E 0 b2 0b 7f
        E 0 92 26 7f
        E 208 82 26 00
        E 0 b2 0b 7f
        E 0 92 24 7f
        E 192 82 24 00
        E 0 b2 0b 7f
        E 0 92 26 7f
        E 208 82 26 00
        E 0 b2 0b 7f
        E 0 92 21 7f
        E 192 82 21 00
        E 0 b2 0b 7f
        E 0 92 24 7f
        E 208 82 24 00
        E 0 b2 0b 7f
        E 0 92 26 7f
        E 192 82 26 00
        E 0 b2 0b 7f
        E 0 92 28 7f
        E 400 82 28 00
        E 0 b2 0b 7f
        E 0 92 26 7f
        E 192 82 26 00
        E 0 b2 0b 7f
        E 0 92 28 7f
        E 208 82 28 00
        E 0 b2 0b 7f
        E 0 92 29 7f
        E 192 82 29 00
        E 0 b2 0b 7f
        E 0 92 26 7f
        E 208 82 26 00
        E 0 b2 0b 7f
        E 0 92 29 7f
        E 192 82 29 00
        E 0 b2 0b 7f
        E 0 92 2b 7f
        E 208 82 2b 00
        E 0 b2 0b 7f
        E 0 92 29 7f
        E 192 82 29 00
        E 0 b2 0b 7f
        E 0 92 28 7f
        E 208 82 28 00
        E 0 b2 0b 7f
        E 0 92 26 7f
        E 192 82 26 00
        E 0 b2 0b 7f
        E 0 92 24 7f
        E 208 82 24 00
        E 0 b2 0b 7f
        E 0 92 26 7f
        E 192 82 26 00
        E 0 b2 0b 7f
        E 0 92 21 7f
        E 208 82 21 00
        E 0 b2 0b 7f
        E 0 92 24 7f
        E 192 82 24 00
        E 0 b2 0b 7f
        E 0 92 26 7f
        E 208 82 26 00
        E 0 b2 0b 7f
        E 0 92 28 7f
        E 400 82 28 00
        E 0 b2 0b 7f
        E 0 92 26 7f
        E 192 82 26 00
        E 0 b2 0b 7f
        E 0 92 28 7f
        E 208 82 28 00
        E 0 b2 0b 7f
        E 0 92 29 7f
        E 192 82 29 00
        E 0 b2 0b 7f
        E 0 92 26 7f
        E 208 82 26 00
        E 0 b2 0b 7f
        E 0 92 29 7f
        E 192 82 29 00
        E 0 b2 0b 7f
        E 0 92 2b 7f
        E 208 82 2b 00
        E 0 b2 0b 7f
        E 0 92 29 7f
        E 192 82 29 00
        E 0 b2 0b 7f
        E 0 92 28 7f
        E 208 82 28 00
        E 0 b2 0b 7f
        E 0 92 26 7f
        E 192 82 26 00
        E 0 b2 0b 7f
        E 0 92 24 7f
        E 208 82 24 00
        E 0 b2 0b 7f
        E 0 92 26 7f
        E 192 82 26 00
        E 0 b2 0b 7f
        E 0 92 21 7f
        E 208 82 21 00
        E 0 b2 0b 7f
        E 0 92 24 7f
        E 192 82 24 00
        E 0 b2 0b 7f
        E 0 92 26 7f
        E 208 82 26 00
        E 0 b2 0b 7f
        E 0 92 28 7f
        E 400 82 28 00
        E 0 b2 0b 7f
        E 0 92 26 7f
        E 192 82 26 00
        E 0 b2 0b 7f
        E 0 92 28 7f
        E 208 82 28 00
        E 0 b2 0b 7f
        E 0 92 29 7f
        E 192 82 29 00
        E 0 b2 0b 7f
        E 0 92 26 7f
        E 208 82 26 00
        E 0 b2 0b 7f
        E 0 92 29 7f
        E 192 82 29 00
        E 0 b2 0b 7f
        E 0 92 2b 7f
        E 208 82 2b 00
        E 0 b2 0b 7f
        E 0 92 29 7f
        E 192 82 29 00
        E 0 b2 0b 7f
        E 0 92 28 7f
        E 208 82 28 00
        E 0 b2 0b 7f
        E 0 92 26 7f
        E 192 82 26 00
        E 0 b2 0b 7f
        E 0 92 24 7f
        E 35408 82 24 00
        E 0 ff 2f 00
      >
    >
  >
  <TRACK {AB2AD2B0-9853-430E-9A29-A9B425551BD8}
    NAME "NES - Noise / Drums"
    PEAKCOL 11184810
    BEAT -1
    AUTOMODE 0
    PANLAWFLAGS 3
    VOLPAN 1 0 -1 -1 1
    MUTESOLO 0 0 0
    IPHASE 0
    PLAYOFFS 0 1
    ISBUS 0 0
    BUSCOMP 0 0 0 0 0
    SHOWINMIX 1 0.6667 0.5 1 0.5 0 0 0
    FIXEDLANES 9 0 0 0 0
    SEL 0
    REC 1 5088 1 0 0 0 0 0
    VU 2
    TRACKHEIGHT 0 0 0 0 0 0 0
    INQ 0 0 0 0.5 100 0 0 100
    NCHAN 2
    FX 1
    TRACKID {AB2AD2B0-9853-430E-9A29-A9B425551BD8}
    PERF 0
    MIDIOUT -1
    MAINSEND 1 0
    <FXCHAIN
      WNDRECT 24 52 700 560
      SHOW 0
      LASTSEL 0
      DOCKED 0
      BYPASS 0 0 0
      <JS "ReapNES Studio/ReapNES_Console.jsfx" ""
        2 15 1 10 80 10 100 2 1 15 1 5 60 10 80 1 1 0 50 0 0 15 1 0 100 0 0 0.500000 0.500000 0.400000 0.300000 0.800000 3 1 0 0 0 0 - - - - - - - - - - - - - - - - - - - - - - - - - -
      >
      FLOATPOS 0 0 0 0
      FXID {806F4276-06CB-4FDF-AC5A-ADDCE3D1D39E}
      WAK 0 0
    >
  >
>