<REAPER_PROJECT 0.1 "7.27/win64" 1707000000
  <NOTES 0 2
    |ReapNES Studio Project
    |MIDI Import - Mega_Man_2_song_02_rom_v1
  >
  RIPPLE 0
  GROUPOVERRIDE 0 0 0
  AUTOXFADE 129
  ENVATTACH 3
  POOLEDENVATTACH 0
  MIXERUIFLAGS 11 48
  ENVFADESZ10 40
  PEAKGAIN 1
  FEEDBACK 0
  PANLAW 1
  PROJOFFS 0 0 0
  MAXPROJLEN 0 0
  GRID 3199 8 1 8 1 0 0 0
  TIMEMODE 1 5 -1 30 0 0 -1
  VIDEO_CONFIG 0 0 65792
  PANMODE 3
  PANLAWFLAGS 3
  CURSOR 0
  ZOOM 100 0 0
  VZOOMEX 6 0
  USE_REC_CFG 0
  RECMODE 1
  SMPTESYNC 0 30 100 40 1000 300 0 0 1 0 0
  LOOP 0
  LOOPGRAN 0 4
  RECORD_PATH "Media" ""
  <RECORD_CFG
    ZXZhdxgAAQ==
  >
  <APPLYFX_CFG
  >
  RENDER_FILE ""
  RENDER_PATTERN ""
  RENDER_FMT 0 2 0
  RENDER_1X 0
  RENDER_RANGE 1 0 0 18 1000
  RENDER_RESAMPLE 3 0 1
  RENDER_ADDTOPROJ 0
  RENDER_STEMS 0
  RENDER_DITHER 0
  TIMELOCKMODE 1
  TEMPOENVLOCKMODE 1
  ITEMMIX 1
  DEFPITCHMODE 589824 0
  TAKELANE 1
  SAMPLERATE 44100 0 0
  <RENDER_CFG
    ZXZhdxgAAQ==
  >
  LOCK 1
  <METRONOME 6 2
    VOL 0.25 0.125
    BEATLEN 4
    FREQ 1760 880 1
    SAMPLES "" ""
    SPLIGNORE 0 0
    SPLDEF 2 660 "" 0
    SPLDEF 3 440 "" 0
    PATTERN 0 169
    PATTERNSTR ABBB
    MULT 1
  >
  GLOBAL_AUTO -1
  TEMPO 128.59999614200012 4 4
  PLAYRATE 1 0 0.25 4
  SELECTION 0 0
  SELECTION2 0 0
  MASTERAUTOMODE 0
  MASTERTRACKHEIGHT 0 0
  MASTERPEAKCOL 16576
  MASTERMUTESOLO 0
  MASTERTRACKVIEW 0 0.6667 0.5 0.5 0 0 0 0 0 0 0 0 0 0
  MASTERHWOUT 0 0 1 0 0 0 0 -1
  MASTER_NCH 2 2
  MASTER_VOLUME 1 0 -1 -1 1
  MASTER_PANMODE 3
  MASTER_PANLAWFLAGS 3
  MASTER_FX 1
  MASTER_SEL 0
  <MASTERPLAYSPEEDENV
    EGUID {E687DD25-BE20-45EA-9D57-DA1B4BC0B5B5}
    ACT 0 -1
    VIS 0 1 1
    LANEHEIGHT 0 0
    ARM 0
    DEFSHAPE 0 -1 -1
  >
  <TEMPOENVEX
    EGUID {23B8FE33-4E0C-4976-9303-BC79BDE1C09B}
    ACT 1 -1
    VIS 1 0 1
    LANEHEIGHT 0 0
    ARM 0
    DEFSHAPE 1 -1 -1
  >
  <PROJBAY
  >
  <TRACK {69B078BB-CE42-4065-8F8F-AD34186FB42A}
    NAME "NES - Pulse 1 [ch0]"
    PEAKCOL 16576606
    BEAT -1
    AUTOMODE 0
    PANLAWFLAGS 3
    VOLPAN 1 0 -1 -1 1
    MUTESOLO 0 0 0
    IPHASE 0
    PLAYOFFS 0 1
    ISBUS 0 0
    BUSCOMP 0 0 0 0 0
    SHOWINMIX 1 0.6667 0.5 1 0.5 0 0 0
    FIXEDLANES 9 0 0 0 0
    SEL 1
    REC 1 5088 1 0 0 0 0 0
    VU 2
    TRACKHEIGHT 0 0 0 0 0 0 0
    INQ 0 0 0 0.5 100 0 0 100
    NCHAN 2
    FX 1
    TRACKID {69B078BB-CE42-4065-8F8F-AD34186FB42A}
    PERF 0
    MIDIOUT -1
    MAINSEND 1 0
    <FXCHAIN
      WNDRECT 24 52 700 560
      SHOW 0
      LASTSEL 0
      DOCKED 0
      BYPASS 0 0 0
      <JS "ReapNES Studio/ReapNES_Console.jsfx" ""
        3 15 1 0 300 12 50 3 1 15 1 5 60 10 80 1 1 0 50 0 0 15 1 0 100 0 0 0.500000 0.500000 0.400000 0.300000 0.800000 0 1 0 0 0 0 - - - - - - - - - - - - - - - - - - - - - - - - - -
      >
      FLOATPOS 0 0 0 0
      FXID {A63A11F8-772D-4F73-90FD-57E600212F3C}
      WAK 0 0
    >
    <ITEM
      POSITION 0
      LENGTH 70.2799399
      LOOP 0
      ALLTAKES 0
      FADEIN 0 0 0 0 0 0 0
      FADEOUT 0 0 0 0 0 0 0
      MUTE 0 0
      SEL 0
      IGUID {75FF290B-025D-4D2A-A37C-CAE38454B1FB}
      <SOURCE MIDI
        HASDATA 1 480 QN
        CCINTERP 32
        E 0 c0 50
        E 0 b0 0c 40
        E 0 b0 0b 77
        E 0 90 3a 77
        E 1504 b0 0b 55
        E 528 80 3a 00
        E 16 b0 0b 77
        E 0 90 3b 77
        E 1264 80 3b 00
        E 16 90 3d 77
        E 752 80 3d 00
        E 16 90 3a 77
        E 1504 b0 0b 55
        E 528 80 3a 00
        E 16 b0 0b 77
        E 0 90 3b 77
        E 1264 80 3b 00
        E 16 90 3d 77
        E 752 80 3d 00
        E 16 90 3a 77
        E 496 80 3a 00
        E 16 90 3d 77
        E 496 80 3d 00
        E 16 90 44 77
        E 496 80 44 00
        E 16 90 41 77
        E 240 80 41 00
        E 16 90 42 77
        E 240 80 42 00
        E 784 90 42 77
        E 240 80 42 00
        E 16 90 41 77
        E 240 80 41 00
        E 16 90 3f 77
        E 240 80 3f 00
        E 16 90 3d 77
        E 240 80 3d 00
        E 16 90 3f 77
        E 240 80 3f 00
        E 272 90 3a 77
        E 240 80 3a 00
        E 16 90 38 77
        E 240 80 38 00
        E 16 90 36 77
        E 240 80 36 00
        E 272 90 36 77
        E 240 80 36 00
        E 16 90 35 77
        E 240 80 35 00
        E 16 90 36 77
        E 240 80 36 00
        E 16 90 3d 77
        E 1504 b0 0b 55
        E 528 80 3d 00
        E 16 b0 0b 77
        E 0 90 3f 77
        E 752 80 3f 00
        E 16 90 3d 77
        E 752 80 3d 00
        E 16 90 3b 77
        E 496 80 3b 00
        E 16 90 41 77
        E 752 80 41 00
        E 16 90 3f 77
        E 752 80 3f 00
        E 16 90 3d 77
        E 496 80 3d 00
        E 16 90 41 77
        E 752 80 41 00
        E 16 90 3f 77
        E 752 80 3f 00
        E 16 90 3e 77
        E 496 80 3e 00
        E 16 90 42 77
        E 752 80 42 00
        E 16 90 41 77
        E 752 80 41 00
        E 16 90 3f 77
        E 496 80 3f 00
        E 16 90 42 77
        E 880 80 42 00
        E 240 b0 0c 60
        E 0 90 39 77
        E 208 80 39 00
        E 16 90 3b 77
        E 208 80 3b 00
        E 16 90 3d 77
        E 208 80 3d 00
        E 16 90 3e 77
        E 880 80 3e 00
        E 16 90 3e 77
        E 208 80 3e 00
        E 16 90 3d 77
        E 432 80 3d 00
        E 16 90 3e 77
        E 208 80 3e 00
        E 16 90 3b 77
        E 1104 80 3b 00
        E 16 90 3b 77
        E 208 80 3b 00
        E 16 90 38 77
        E 208 80 38 00
        E 16 90 3b 77
        E 208 80 3b 00
        E 16 90 40 77
        E 432 80 40 00
        E 16 90 3e 77
        E 432 80 3e 00
        E 16 90 3d 77
        E 432 80 3d 00
        E 16 90 3b 77
        E 432 80 3b 00
        E 16 90 3c 77
        E 368 80 3c 00
        E 208 90 3c 77
        E 176 80 3c 00
        E 16 90 3c 77
        E 176 80 3c 00
        E 16 90 3b 77
        E 368 80 3b 00
        E 16 90 3c 77
        E 176 80 3c 00
        E 16 90 39 77
        E 368 80 39 00
        E 208 90 39 77
        E 176 80 39 00
        E 16 90 39 77
        E 176 80 39 00
        E 16 90 3b 77
        E 368 80 3b 00
        E 16 90 3c 77
        E 176 80 3c 00
        E 16 90 3e 77
        E 1504 b0 0b 55
        E 16 80 3e 00
        E 16 b0 0c 10
        E 0 b0 0b 7f
        E 0 90 5c 7f
        E 736 b0 0b 77
        E 752 b0 0b 6e
        E 240 80 5c 00
        E 16 b0 0b 66
        E 0 90 3c 66
        E 144 80 3c 00
        E 16 90 3c 66
        E 64 80 3c 00
        E 16 90 3c 66
        E 64 80 3c 00
        E 16 90 3c 66
        E 144 80 3c 00
        E 16 90 3c 66
        E 64 80 3c 00
        E 16 90 3c 66
        E 64 80 3c 00
        E 16 90 3c 66
        E 144 80 3c 00
        E 16 90 3e 66
        E 144 80 3e 00
        E 176 90 3a 66
        E 400 b0 0b 5d
        E 416 b0 0b 55
        E 416 b0 0b 4c
        E 32 80 3a 00
        E 16 b0 0b 66
        E 0 90 3a 66
        E 144 80 3a 00
        E 16 90 38 66
        E 144 80 38 00
        E 16 90 38 66
        E 64 80 38 00
        E 16 90 38 66
        E 64 80 38 00
        E 16 90 38 66
        E 144 80 38 00
        E 16 90 35 66
        E 144 80 35 00
        E 176 90 35 66
        E 144 80 35 00
        E 176 90 37 66
        E 400 b0 0b 5d
        E 224 80 37 00
        E 16 b0 0b 66
        E 0 90 37 66
        E 144 80 37 00
        E 16 90 38 66
        E 144 80 38 00
        E 16 90 3a 66
        E 144 80 3a 00
        E 336 90 3c 66
        E 144 80 3c 00
        E 16 90 3c 66
        E 64 80 3c 00
        E 16 90 3c 66
        E 64 80 3c 00
        E 16 90 3c 66
        E 144 80 3c 00
        E 16 90 3c 66
        E 64 80 3c 00
        E 16 90 3c 66
        E 64 80 3c 00
        E 16 90 3c 66
        E 144 80 3c 00
        E 16 90 3e 66
        E 144 80 3e 00
        E 176 90 3a 66
        E 400 b0 0b 5d
        E 416 b0 0b 55
        E 416 b0 0b 4c
        E 32 80 3a 00
        E 16 b0 0b 66
        E 0 90 3a 66
        E 144 80 3a 00
        E 16 90 38 66
        E 304 80 38 00
        E 16 90 38 66
        E 144 80 38 00
        E 16 90 3a 66
        E 144 80 3a 00
        E 176 90 3a 66
        E 144 80 3a 00
        E 176 90 3c 66
        E 400 b0 0b 5d
        E 384 80 3c 00
        E 16 b0 0c 40
        E 0 b0 0b 66
        E 0 90 4f 66
        E 32 b0 0b 2a
        E 32 80 4f 00
        E 16 b0 0b 66
        E 0 90 4d 66
        E 32 b0 0b 2a
        E 32 80 4d 00
        E 16 b0 0b 66
        E 0 90 4b 66
        E 32 b0 0b 2a
        E 32 80 4b 00
        E 16 b0 0b 66
        E 0 90 4d 66
        E 32 b0 0b 2a
        E 32 80 4d 00
        E 16 b0 0b 66
        E 0 90 4b 66
        E 32 b0 0b 2a
        E 32 80 4b 00
        E 16 b0 0b 66
        E 0 90 4a 66
        E 32 b0 0b 2a
        E 32 80 4a 00
        E 16 b0 0b 66
        E 0 90 49 66
        E 32 b0 0b 2a
        E 32 80 49 00
        E 16 b0 0b 66
        E 0 90 48 66
        E 32 b0 0b 2a
        E 32 80 48 00
        E 16 b0 0c 10
        E 0 b0 0b 66
        E 0 90 3c 66
        E 144 80 3c 00
        E 16 90 3c 66
        E 64 80 3c 00
        E 16 90 3c 66
        E 64 80 3c 00
        E 16 90 3c 66
        E 144 80 3c 00
        E 16 90 3c 66
        E 64 80 3c 00
        E 16 90 3c 66
        E 64 80 3c 00
        E 16 90 3c 66
        E 144 80 3c 00
        E 16 90 3e 66
        E 144 80 3e 00
        E 176 90 3a 66
        E 400 b0 0b 5d
        E 416 b0 0b 55
        E 416 b0 0b 4c
        E 32 80 3a 00
        E 16 b0 0b 66
        E 0 90 3a 66
        E 144 80 3a 00
        E 16 90 38 66
        E 144 80 38 00
        E 16 90 38 66
        E 64 80 38 00
        E 16 90 38 66
        E 64 80 38 00
        E 16 90 38 66
        E 144 80 38 00
        E 16 90 35 66
        E 144 80 35 00
        E 176 90 35 66
        E 144 80 35 00
        E 176 90 37 66
        E 400 b0 0b 5d
        E 224 80 37 00
        E 16 b0 0b 66
        E 0 90 37 66
        E 144 80 37 00
        E 16 90 38 66
        E 144 80 38 00
        E 16 90 3a 66
        E 144 80 3a 00
        E 336 90 3c 66
        E 144 80 3c 00
        E 16 90 3c 66
        E 64 80 3c 00
        E 16 90 3c 66
        E 64 80 3c 00
        E 16 90 3c 66
        E 144 80 3c 00
        E 16 90 3c 66
        E 64 80 3c 00
        E 16 90 3c 66
        E 64 80 3c 00
        E 16 90 3c 66
        E 144 80 3c 00
        E 16 90 3e 66
        E 144 80 3e 00
        E 176 90 3a 66
        E 400 b0 0b 5d
        E 416 b0 0b 55
        E 416 b0 0b 4c
        E 32 80 3a 00
        E 16 b0 0b 66
        E 0 90 3a 66
        E 144 80 3a 00
        E 16 90 38 66
        E 304 80 38 00
        E 16 90 38 66
        E 144 80 38 00
        E 16 90 3a 66
        E 144 80 3a 00
        E 176 90 3a 66
        E 144 80 3a 00
        E 176 90 3c 66
        E 400 b0 0b 5d
        E 384 80 3c 00
        E 16 b0 0c 40
        E 0 b0 0b 66
        E 0 90 4f 66
        E 32 b0 0b 2a
        E 32 80 4f 00
        E 16 b0 0b 66
        E 0 90 4d 66
        E 32 b0 0b 2a
        E 32 80 4d 00
        E 16 b0 0b 66
        E 0 90 4b 66
        E 32 b0 0b 2a
        E 32 80 4b 00
        E 16 b0 0b 66
        E 0 90 4d 66
        E 32 b0 0b 2a
        E 32 80 4d 00
        E 16 b0 0b 66
        E 0 90 4b 66
        E 32 b0 0b 2a
        E 32 80 4b 00
        E 16 b0 0b 66
        E 0 90 4a 66
        E 32 b0 0b 2a
        E 32 80 4a 00
        E 16 b0 0b 66
        E 0 90 49 66
        E 32 b0 0b 2a
        E 32 80 49 00
        E 16 b0 0b 66
        E 0 90 48 66
        E 32 b0 0b 2a
        E 32 80 48 00
        E 16 b0 0c 60
        E 0 b0 0b 66
        E 0 90 3c 66
        E 48 b0 0b 5d
        E 64 b0 0b 55
        E 32 80 3c 00
        E 16 b0 0b 66
        E 0 90 3c 66
        E 48 b0 0b 5d
        E 64 b0 0b 55
        E 32 80 3c 00
        E 16 b0 0b 66
        E 0 90 37 66
        E 48 b0 0b 5d
        E 64 b0 0b 55
        E 32 80 37 00
        E 16 b0 0b 66
        E 0 90 34 66
        E 48 b0 0b 5d
        E 64 b0 0b 55
        E 32 80 34 00
        E 16 b0 0b 66
        E 0 90 40 66
        E 48 b0 0b 5d
        E 64 b0 0b 55
        E 32 80 40 00
        E 16 b0 0b 66
        E 0 90 3c 66
        E 48 b0 0b 5d
        E 64 b0 0b 55
        E 32 80 3c 00
        E 16 b0 0b 66
        E 0 90 37 66
        E 48 b0 0b 5d
        E 64 b0 0b 55
        E 32 80 37 00
        E 16 b0 0b 66
        E 0 90 43 66
        E 48 b0 0b 5d
        E 64 b0 0b 55
        E 64 b0 0b 4c
        E 64 b0 0b 44
        E 64 80 43 00
        E 16 b0 0b 66
        E 0 90 41 66
        E 48 b0 0b 5d
        E 64 b0 0b 55
        E 32 80 41 00
        E 16 b0 0b 66
        E 0 90 40 66
        E 48 b0 0b 5d
        E 64 b0 0b 55
        E 32 80 40 00
        E 16 b0 0b 66
        E 0 90 3e 66
        E 48 b0 0b 5d
        E 64 b0 0b 55
        E 32 80 3e 00
        E 16 b0 0b 66
        E 0 90 40 66
        E 48 b0 0b 5d
        E 64 b0 0b 55
        E 32 80 40 00
        E 16 b0 0b 66
        E 0 90 3c 66
        E 48 b0 0b 5d
        E 64 b0 0b 55
        E 64 b0 0b 4c
        E 64 b0 0b 44
        E 64 80 3c 00
        E 176 b0 0b 66
        E 0 90 3a 66
        E 48 b0 0b 5d
        E 64 b0 0b 55
        E 32 80 3a 00
        E 16 b0 0b 66
        E 0 90 3a 66
        E 48 b0 0b 5d
        E 64 b0 0b 55
        E 32 80 3a 00
        E 16 b0 0b 66
        E 0 90 39 66
        E 48 b0 0b 5d
        E 64 b0 0b 55
        E 32 80 39 00
        E 16 b0 0b 66
        E 0 90 35 66
        E 48 b0 0b 5d
        E 64 b0 0b 55
        E 32 80 35 00
        E 16 b0 0b 66
        E 0 90 3e 66
        E 48 b0 0b 5d
        E 64 b0 0b 55
        E 64 b0 0b 4c
        E 64 b0 0b 44
        E 64 80 3e 00
        E 16 b0 0b 66
        E 0 90 3a 66
        E 48 b0 0b 5d
        E 64 b0 0b 55
        E 32 80 3a 00
        E 16 b0 0b 66
        E 0 90 37 66
        E 48 b0 0b 5d
        E 64 b0 0b 55
        E 32 80 37 00
        E 16 b0 0b 66
        E 0 90 3a 66
        E 48 b0 0b 5d
        E 16 80 3a 00
        E 16 b0 0b 66
        E 0 90 3a 66
        E 48 b0 0b 5d
        E 16 80 3a 00
        E 16 b0 0b 66
        E 0 90 35 66
        E 48 b0 0b 5d
        E 16 80 35 00
        E 16 b0 0b 66
        E 0 90 3e 66
        E 48 b0 0b 5d
        E 16 80 3e 00
        E 16 b0 0b 66
        E 0 90 3a 66
        E 48 b0 0b 5d
        E 16 80 3a 00
        E 16 b0 0b 66
        E 0 90 41 66
        E 48 b0 0b 5d
        E 16 80 41 00
        E 16 b0 0b 66
        E 0 90 3e 66
        E 48 b0 0b 5d
        E 16 80 3e 00
        E 16 b0 0b 66
        E 0 90 46 66
        E 48 b0 0b 5d
        E 16 80 46 00
        E 16 b0 0b 66
        E 0 90 41 66
        E 48 b0 0b 5d
        E 64 b0 0b 55
        E 32 80 41 00
        E 16 b0 0b 66
        E 0 90 3a 66
        E 48 b0 0b 5d
        E 64 b0 0b 55
        E 64 b0 0b 4c
        E 64 b0 0b 44
        E 64 80 3a 00
        E 176 b0 0b 66
        E 0 90 39 66
        E 48 b0 0b 5d
        E 64 b0 0b 55
        E 32 80 39 00
        E 16 b0 0b 66
        E 0 90 39 66
        E 48 b0 0b 5d
        E 16 80 39 00
        E 16 b0 0b 66
        E 0 90 3c 66
        E 48 b0 0b 5d
        E 16 80 3c 00
        E 16 b0 0b 66
        E 0 90 39 66
        E 48 b0 0b 5d
        E 16 80 39 00
        E 16 b0 0b 66
        E 0 90 34 66
        E 48 b0 0b 5d
        E 16 80 34 00
        E 16 b0 0b 66
        E 0 90 30 66
        E 48 b0 0b 5d
        E 64 b0 0b 55
        E 32 80 30 00
        E 16 b0 0b 66
        E 0 90 39 66
        E 48 b0 0b 5d
        E 16 80 39 00
        E 16 b0 0b 66
        E 0 90 3c 66
        E 48 b0 0b 5d
        E 16 80 3c 00
        E 16 b0 0b 66
        E 0 90 39 66
        E 48 b0 0b 5d
        E 16 80 39 00
        E 16 b0 0b 66
        E 0 90 34 66
        E 48 b0 0b 5d
        E 16 80 34 00
        E 16 b0 0b 66
        E 0 90 30 66
        E 48 b0 0b 5d
        E 64 b0 0b 55
        E 32 80 30 00
        E 16 b0 0b 66
        E 0 90 39 66
        E 48 b0 0b 5d
        E 16 80 39 00
        E 16 b0 0b 66
        E 0 90 3c 66
        E 48 b0 0b 5d
        E 16 80 3c 00
        E 16 b0 0b 66
        E 0 90 44 66
        E 48 b0 0b 5d
        E 16 80 44 00
        E 16 b0 0b 66
        E 0 90 45 66
        E 48 b0 0b 5d
        E 16 80 45 00
        E 16 b0 0b 66
        E 0 90 44 66
        E 48 b0 0b 5d
        E 16 80 44 00
        E 16 b0 0b 66
        E 0 90 45 66
        E 48 b0 0b 5d
        E 16 80 45 00
        E 16 b0 0b 66
        E 0 90 44 66
        E 48 b0 0b 5d
        E 16 80 44 00
        E 16 b0 0b 66
        E 0 90 45 66
        E 48 b0 0b 5d
        E 16 80 45 00
        E 16 b0 0b 66
        E 0 90 40 66
        E 48 b0 0b 5d
        E 16 80 40 00
        E 16 b0 0b 66
        E 0 90 3c 66
        E 48 b0 0b 5d
        E 16 80 3c 00
        E 176 b0 0b 66
        E 0 90 39 66
        E 48 b0 0b 5d
        E 64 b0 0b 55
        E 64 b0 0b 4c
        E 64 b0 0b 44
        E 64 80 39 00
        E 176 b0 0b 66
        E 0 90 30 66
        E 48 b0 0b 5d
        E 48 80 30 00
        E 16 b0 0b 66
        E 0 90 33 66
        E 48 b0 0b 5d
        E 48 b0 0b 66
        E 0 80 33 00
        E 0 90 38 66
        E 64 b0 0b 5d
        E 32 80 38 00
        E 16 b0 0b 66
        E 0 90 33 66
        E 48 b0 0b 5d
        E 48 80 33 00
        E 16 b0 0b 66
        E 0 90 38 66
        E 48 b0 0b 5d
        E 48 b0 0b 66
        E 0 80 38 00
        E 0 90 3c 66
        E 64 b0 0b 5d
        E 32 80 3c 00
        E 16 b0 0b 66
        E 0 90 38 66
        E 48 b0 0b 5d
        E 48 80 38 00
        E 16 b0 0b 66
        E 0 90 3c 66
        E 48 b0 0b 5d
        E 48 b0 0b 66
        E 0 80 3c 00
        E 0 90 3f 66
        E 64 b0 0b 5d
        E 32 80 3f 00
        E 16 b0 0b 66
        E 0 90 3c 66
        E 48 b0 0b 5d
        E 48 80 3c 00
        E 16 b0 0b 66
        E 0 90 3f 66
        E 48 b0 0b 5d
        E 48 b0 0b 66
        E 0 80 3f 00
        E 0 90 44 66
        E 64 b0 0b 5d
        E 32 80 44 00
        E 16 b0 0b 66
        E 0 90 38 66
        E 48 b0 0b 5d
        E 64 b0 0b 55
        E 32 80 38 00
        E 16 b0 0b 66
        E 0 90 38 66
        E 48 b0 0b 5d
        E 64 b0 0b 55
        E 32 80 38 00
        E 16 b0 0b 66
        E 0 90 38 66
        E 48 b0 0b 5d
        E 64 b0 0b 55
        E 32 80 38 00
        E 16 b0 0b 66
        E 0 90 38 66
        E 48 b0 0b 5d
        E 64 b0 0b 55
        E 32 80 38 00
        E 176 b0 0b 66
        E 0 90 3a 66
        E 48 b0 0b 5d
        E 64 b0 0b 55
        E 64 b0 0b 4c
        E 64 b0 0b 44
        E 64 80 3a 00
        E 176 b0 0c 10
        E 0 b0 0b 66
        E 0 90 3c 66
        E 144 80 3c 00
        E 16 90 3c 66
        E 64 80 3c 00
        E 16 90 3c 66
        E 64 80 3c 00
        E 16 90 3c 66
        E 144 80 3c 00
        E 16 90 3c 66
        E 64 80 3c 00
        E 16 90 3c 66
        E 64 80 3c 00
        E 16 90 3c 66
        E 144 80 3c 00
        E 16 90 3e 66
        E 144 80 3e 00
        E 176 90 3a 66
        E 400 b0 0b 5d
        E 416 b0 0b 55
        E 416 b0 0b 4c
        E 32 80 3a 00
        E 16 b0 0b 66
        E 0 90 3a 66
        E 144 80 3a 00
        E 16 90 38 66
        E 144 80 38 00
        E 16 90 38 66
        E 64 80 38 00
        E 16 90 38 66
        E 64 80 38 00
        E 16 90 38 66
        E 144 80 38 00
        E 16 90 35 66
        E 144 80 35 00
        E 176 90 35 66
        E 128 80 35 00
        E 0 b0 7b 00
        E 0 ff 2f 00
      >
    >
  >
  <TRACK {D533CA73-F548-4988-B8EE-BB7D99729A26}
    NAME "NES - Pulse 2 [ch1]"
    PEAKCOL 10092441
    BEAT -1
    AUTOMODE 0
    PANLAWFLAGS 3
    VOLPAN 1 0 -1 -1 1
    MUTESOLO 0 0 0
    IPHASE 0
    PLAYOFFS 0 1
    ISBUS 0 0
    BUSCOMP 0 0 0 0 0
    SHOWINMIX 1 0.6667 0.5 1 0.5 0 0 0
    FIXEDLANES 9 0 0 0 0
    SEL 0
    REC 0 5088 1 0 0 0 0 0
    VU 2
    TRACKHEIGHT 0 0 0 0 0 0 0
    INQ 0 0 0 0.5 100 0 0 100
    NCHAN 2
    FX 1
    TRACKID {D533CA73-F548-4988-B8EE-BB7D99729A26}
    PERF 0
    MIDIOUT -1
    MAINSEND 1 0
    <FXCHAIN
      WNDRECT 24 52 700 560
      SHOW 0
      LASTSEL 0
      DOCKED 0
      BYPASS 0 0 0
      <JS "ReapNES Studio/ReapNES_Console.jsfx" ""
        2 15 1 10 80 10 100 2 3 15 1 0 400 14 50 3 1 0 50 0 0 15 1 0 100 0 0 0.500000 0.500000 0.400000 0.300000 0.800000 1 1 0 0 0 0 - - - - - - - - - - - - - - - - - - - - - - - - - -
      >
      FLOATPOS 0 0 0 0
      FXID {7D131493-D5CA-415F-932C-2D5B63100C52}
      WAK 0 0
    >
    <ITEM
      POSITION 0
      LENGTH 70.2799399
      LOOP 0
      ALLTAKES 0
      FADEIN 0 0 0 0 0 0 0
      FADEOUT 0 0 0 0 0 0 0
      MUTE 0 0
      SEL 0
      IGUID {4A5F3B36-085C-4258-8EB7-99607408FC14}
      <SOURCE MIDI
        HASDATA 1 480 QN
        CCINTERP 32
        E 0 c1 51
        E 256 b1 0c 60
        E 0 b1 0b 55
        E 0 91 3d 55
        E 144 b1 0b 3b
        E 96 81 3d 00
        E 16 b1 0b 55
        E 0 91 42 55
        E 144 b1 0b 3b
        E 96 81 42 00
        E 16 b1 0b 55
        E 0 91 44 55
        E 144 b1 0b 3b
        E 96 81 44 00
        E 16 b1 0b 55
        E 0 91 46 55
        E 144 b1 0b 3b
        E 160 b1 0b 22
        E 160 b1 0b 08
        E 160 81 46 00
        E 656 b1 0b 55
        E 0 91 3e 55
        E 144 b1 0b 3b
        E 96 81 3e 00
        E 16 b1 0b 55
        E 0 91 42 55
        E 144 b1 0b 3b
        E 96 81 42 00
        E 16 b1 0b 55
        E 0 91 44 55
        E 144 b1 0b 3b
        E 96 81 44 00
        E 16 b1 0b 55
        E 0 91 47 55
        E 144 b1 0b 3b
        E 160 b1 0b 22
        E 160 b1 0b 08
        E 160 81 47 00
        E 656 b1 0b 55
        E 0 91 3d 55
        E 144 b1 0b 3b
        E 96 81 3d 00
        E 16 b1 0b 55
        E 0 91 42 55
        E 144 b1 0b 3b
        E 96 81 42 00
        E 16 b1 0b 55
        E 0 91 44 55
        E 144 b1 0b 3b
        E 96 81 44 00
        E 16 b1 0b 55
        E 0 91 46 55
        E 144 b1 0b 3b
        E 160 b1 0b 22
        E 160 b1 0b 08
        E 160 81 46 00
        E 656 b1 0b 55
        E 0 91 3e 55
        E 144 b1 0b 3b
        E 96 81 3e 00
        E 16 b1 0b 55
        E 0 91 42 55
        E 144 b1 0b 3b
        E 96 81 42 00
        E 16 b1 0b 55
        E 0 91 44 55
        E 144 b1 0b 3b
        E 96 81 44 00
        E 16 b1 0b 55
        E 0 91 47 55
        E 144 b1 0b 3b
        E 160 b1 0b 22
        E 160 b1 0b 08
        E 160 81 47 00
        E 400 b1 0b 55
        E 0 91 42 55
        E 144 b1 0b 3b
        E 96 81 42 00
        E 16 b1 0b 55
        E 0 91 3d 55
        E 144 b1 0b 3b
        E 96 81 3d 00
        E 16 b1 0b 55
        E 0 91 42 55
        E 144 b1 0b 3b
        E 96 81 42 00
        E 16 b1 0b 55
        E 0 91 46 55
        E 144 b1 0b 3b
        E 96 81 46 00
        E 16 b1 0b 55
        E 0 91 41 55
        E 144 b1 0b 3b
        E 96 81 41 00
        E 16 b1 0b 55
        E 0 91 3d 55
        E 144 b1 0b 3b
        E 96 81 3d 00
        E 16 b1 0b 55
        E 0 91 41 55
        E 144 b1 0b 3b
        E 96 81 41 00
        E 16 b1 0b 55
        E 0 91 44 55
        E 144 b1 0b 3b
        E 96 81 44 00
        E 16 b1 0b 55
        E 0 91 3f 55
        E 144 b1 0b 3b
        E 96 81 3f 00
        E 16 b1 0b 55
        E 0 91 3a 55
        E 144 b1 0b 3b
        E 96 81 3a 00
        E 16 b1 0b 55
        E 0 91 3f 55
        E 144 b1 0b 3b
        E 96 81 3f 00
        E 16 b1 0b 55
        E 0 91 42 55
        E 144 b1 0b 3b
        E 96 81 42 00
        E 16 b1 0b 55
        E 0 91 3d 55
        E 144 b1 0b 3b
        E 96 81 3d 00
        E 16 b1 0b 55
        E 0 91 38 55
        E 144 b1 0b 3b
        E 96 81 38 00
        E 16 b1 0b 55
        E 0 91 3d 55
        E 144 b1 0b 3b
        E 96 81 3d 00
        E 16 b1 0b 55
        E 0 91 42 55
        E 144 b1 0b 3b
        E 96 81 42 00
        E 16 b1 0b 55
        E 0 91 3c 55
        E 144 b1 0b 3b
        E 96 81 3c 00
        E 16 b1 0b 55
        E 0 91 38 55
        E 144 b1 0b 3b
        E 96 81 38 00
        E 16 b1 0b 55
        E 0 91 3c 55
        E 144 b1 0b 3b
        E 96 81 3c 00
        E 16 b1 0b 55
        E 0 91 3f 55
        E 144 b1 0b 3b
        E 96 81 3f 00
        E 16 b1 0b 55
        E 0 91 3c 55
        E 144 b1 0b 3b
        E 96 81 3c 00
        E 16 b1 0b 55
        E 0 91 38 55
        E 144 b1 0b 3b
        E 96 81 38 00
        E 16 b1 0b 55
        E 0 91 3c 55
        E 144 b1 0b 3b
        E 96 81 3c 00
        E 16 b1 0b 55
        E 0 91 3f 55
        E 144 b1 0b 3b
        E 96 81 3f 00
        E 16 b1 0b 55
        E 0 91 3d 55
        E 144 b1 0b 3b
        E 160 b1 0b 22
        E 160 b1 0b 08
        E 160 81 3d 00
        E 400 b1 0b 55
        E 0 91 3d 55
        E 144 b1 0b 3b
        E 96 81 3d 00
        E 16 b1 0b 55
        E 0 91 3c 55
        E 144 b1 0b 3b
        E 160 b1 0b 22
        E 160 b1 0b 08
        E 160 81 3c 00
        E 144 b1 0b 55
        E 0 91 3b 55
        E 144 b1 0b 3b
        E 96 81 3b 00
        E 16 b1 0b 55
        E 0 91 36 55
        E 144 b1 0b 3b
        E 96 81 36 00
        E 16 b1 0b 55
        E 0 91 3b 55
        E 144 b1 0b 3b
        E 96 81 3b 00
        E 16 b1 0b 55
        E 0 91 3d 55
        E 144 b1 0b 3b
        E 96 81 3d 00
        E 16 b1 0b 55
        E 0 91 3f 55
        E 144 b1 0b 3b
        E 160 b1 0b 22
        E 160 b1 0b 08
        E 160 81 3f 00
        E 400 b1 0b 55
        E 0 91 3d 55
        E 144 b1 0b 3b
        E 96 81 3d 00
        E 16 b1 0b 55
        E 0 91 38 55
        E 144 b1 0b 3b
        E 96 81 38 00
        E 16 b1 0b 55
        E 0 91 3d 55
        E 144 b1 0b 3b
        E 96 81 3d 00
        E 16 b1 0b 55
        E 0 91 3f 55
        E 144 b1 0b 3b
        E 96 81 3f 00
        E 16 b1 0b 55
        E 0 91 41 55
        E 144 b1 0b 3b
        E 160 b1 0b 22
        E 160 b1 0b 08
        E 160 81 41 00
        E 400 b1 0b 55
        E 0 91 3e 55
        E 144 b1 0b 3b
        E 96 81 3e 00
        E 16 b1 0b 55
        E 0 91 3a 55
        E 144 b1 0b 3b
        E 96 81 3a 00
        E 16 b1 0b 55
        E 0 91 3e 55
        E 144 b1 0b 3b
        E 96 81 3e 00
        E 16 b1 0b 55
        E 0 91 3f 55
        E 144 b1 0b 3b
        E 96 81 3f 00
        E 16 b1 0b 55
        E 0 91 41 55
        E 144 b1 0b 3b
        E 160 b1 0b 22
        E 160 b1 0b 08
        E 160 81 41 00
        E 400 b1 0b 55
        E 0 91 3f 55
        E 144 b1 0b 3b
        E 96 81 3f 00
        E 16 b1 0b 55
        E 0 91 3a 55
        E 144 b1 0b 3b
        E 96 81 3a 00
        E 16 b1 0b 55
        E 0 91 3f 55
        E 144 b1 0b 3b
        E 96 81 3f 00
        E 16 b1 0b 55
        E 0 91 41 55
        E 144 b1 0b 3b
        E 96 81 41 00
        E 16 b1 0b 55
        E 0 91 42 55
        E 144 b1 0b 3b
        E 160 b1 0b 22
        E 160 b1 0b 08
        E 160 81 42 00
        E 400 b1 0c 40
        E 0 b1 0b 55
        E 0 91 32 55
        E 32 b1 0b 3b
        E 48 b1 0b 22
        E 48 b1 0b 08
        E 48 81 32 00
        E 48 b1 0b 55
        E 0 91 36 55
        E 32 b1 0b 3b
        E 48 b1 0b 22
        E 48 b1 0b 08
        E 48 81 36 00
        E 48 b1 0b 55
        E 0 91 39 55
        E 32 b1 0b 3b
        E 48 b1 0b 22
        E 48 b1 0b 08
        E 48 81 39 00
        E 48 b1 0b 55
        E 0 91 2e 55
        E 32 b1 0b 3b
        E 48 b1 0b 22
        E 48 b1 0b 08
        E 48 81 2e 00
        E 48 b1 0b 55
        E 0 91 32 55
        E 32 b1 0b 3b
        E 48 b1 0b 22
        E 48 b1 0b 08
        E 48 81 32 00
        E 48 b1 0b 55
        E 0 91 36 55
        E 32 b1 0b 3b
        E 48 b1 0b 22
        E 48 b1 0b 08
        E 48 81 36 00
        E 48 b1 0b 55
        E 0 91 39 55
        E 32 b1 0b 3b
        E 48 b1 0b 22
        E 48 b1 0b 08
        E 48 81 39 00
        E 48 b1 0b 55
        E 0 91 2e 55
        E 32 b1 0b 3b
        E 48 b1 0b 22
        E 48 b1 0b 08
        E 48 81 2e 00
        E 48 b1 0b 55
        E 0 91 32 55
        E 32 b1 0b 3b
        E 48 b1 0b 22
        E 48 b1 0b 08
        E 48 81 32 00
        E 48 b1 0b 55
        E 0 91 36 55
        E 32 b1 0b 3b
        E 48 b1 0b 22
        E 48 b1 0b 08
        E 48 81 36 00
        E 48 b1 0b 55
        E 0 91 39 55
        E 32 b1 0b 3b
        E 48 b1 0b 22
        E 48 b1 0b 08
        E 48 81 39 00
        E 48 b1 0b 55
        E 0 91 2e 55
        E 32 b1 0b 3b
        E 48 b1 0b 22
        E 48 b1 0b 08
        E 48 81 2e 00
        E 48 b1 0b 55
        E 0 91 32 55
        E 32 b1 0b 3b
        E 48 b1 0b 22
        E 48 b1 0b 08
        E 48 81 32 00
        E 48 b1 0b 55
        E 0 91 36 55
        E 32 b1 0b 3b
        E 48 b1 0b 22
        E 48 b1 0b 08
        E 48 81 36 00
        E 48 b1 0b 55
        E 0 91 39 55
        E 32 b1 0b 3b
        E 48 b1 0b 22
        E 48 b1 0b 08
        E 48 81 39 00
        E 48 b1 0b 55
        E 0 91 2e 55
        E 32 b1 0b 3b
        E 48 b1 0b 22
        E 48 b1 0b 08
        E 48 81 2e 00
        E 48 b1 0b 55
        E 0 91 34 55
        E 32 b1 0b 3b
        E 48 b1 0b 22
        E 48 b1 0b 08
        E 48 81 34 00
        E 48 b1 0b 55
        E 0 91 38 55
        E 32 b1 0b 3b
        E 48 b1 0b 22
        E 48 b1 0b 08
        E 48 81 38 00
        E 48 b1 0b 55
        E 0 91 3b 55
        E 32 b1 0b 3b
        E 48 b1 0b 22
        E 48 b1 0b 08
        E 48 81 3b 00
        E 48 b1 0b 55
        E 0 91 40 55
        E 32 b1 0b 3b
        E 48 b1 0b 22
        E 48 b1 0b 08
        E 48 81 40 00
        E 48 b1 0b 55
        E 0 91 34 55
        E 32 b1 0b 3b
        E 48 b1 0b 22
        E 48 b1 0b 08
        E 48 81 34 00
        E 48 b1 0b 55
        E 0 91 38 55
        E 32 b1 0b 3b
        E 48 b1 0b 22
        E 48 b1 0b 08
        E 48 81 38 00
        E 48 b1 0b 55
        E 0 91 3b 55
        E 32 b1 0b 3b
        E 48 b1 0b 22
        E 48 b1 0b 08
        E 48 81 3b 00
        E 48 b1 0b 55
        E 0 91 40 55
        E 32 b1 0b 3b
        E 48 b1 0b 22
        E 48 b1 0b 08
        E 48 81 40 00
        E 48 b1 0b 55
        E 0 91 34 55
        E 32 b1 0b 3b
        E 48 b1 0b 22
        E 48 b1 0b 08
        E 48 81 34 00
        E 48 b1 0b 55
        E 0 91 38 55
        E 32 b1 0b 3b
        E 48 b1 0b 22
        E 48 b1 0b 08
        E 48 81 38 00
        E 48 b1 0b 55
        E 0 91 3b 55
        E 32 b1 0b 3b
        E 48 b1 0b 22
        E 48 b1 0b 08
        E 48 81 3b 00
        E 48 b1 0b 55
        E 0 91 40 55
        E 32 b1 0b 3b
        E 48 b1 0b 22
        E 48 b1 0b 08
        E 48 81 40 00
        E 48 b1 0b 55
        E 0 91 34 55
        E 32 b1 0b 3b
        E 48 b1 0b 22
        E 48 b1 0b 08
        E 48 81 34 00
        E 48 b1 0b 55
        E 0 91 38 55
        E 32 b1 0b 3b
        E 48 b1 0b 22
        E 48 b1 0b 08
        E 48 81 38 00
        E 48 b1 0b 55
        E 0 91 3b 55
        E 32 b1 0b 3b
        E 48 b1 0b 22
        E 48 b1 0b 08
        E 48 81 3b 00
        E 48 b1 0b 55
        E 0 91 40 55
        E 32 b1 0b 3b
        E 48 b1 0b 22
        E 48 b1 0b 08
        E 48 81 40 00
        E 48 b1 0b 55
        E 0 91 35 55
        E 32 b1 0b 3b
        E 48 b1 0b 22
        E 48 b1 0b 08
        E 48 81 35 00
        E 16 b1 0b 55
        E 0 91 39 55
        E 32 b1 0b 3b
        E 48 b1 0b 22
        E 48 b1 0b 08
        E 48 81 39 00
        E 16 b1 0b 55
        E 0 91 3c 55
        E 32 b1 0b 3b
        E 48 b1 0b 22
        E 48 b1 0b 08
        E 48 81 3c 00
        E 16 b1 0b 55
        E 0 91 41 55
        E 32 b1 0b 3b
        E 48 b1 0b 22
        E 48 b1 0b 08
        E 48 81 41 00
        E 16 b1 0b 55
        E 0 91 35 55
        E 32 b1 0b 3b
        E 48 b1 0b 22
        E 48 b1 0b 08
        E 48 81 35 00
        E 16 b1 0b 55
        E 0 91 39 55
        E 32 b1 0b 3b
        E 48 b1 0b 22
        E 48 b1 0b 08
        E 48 81 39 00
        E 16 b1 0b 55
        E 0 91 3c 55
        E 32 b1 0b 3b
        E 48 b1 0b 22
        E 48 b1 0b 08
        E 48 81 3c 00
        E 16 b1 0b 55
        E 0 91 41 55
        E 32 b1 0b 3b
        E 48 b1 0b 22
        E 48 b1 0b 08
        E 48 81 41 00
        E 16 b1 0b 55
        E 0 91 35 55
        E 32 b1 0b 3b
        E 48 b1 0b 22
        E 48 b1 0b 08
        E 48 81 35 00
        E 16 b1 0b 55
        E 0 91 39 55
        E 32 b1 0b 3b
        E 48 b1 0b 22
        E 48 b1 0b 08
        E 48 81 39 00
        E 16 b1 0b 55
        E 0 91 3c 55
        E 32 b1 0b 3b
        E 48 b1 0b 22
        E 48 b1 0b 08
        E 48 81 3c 00
        E 16 b1 0b 55
        E 0 91 41 55
        E 32 b1 0b 3b
        E 48 b1 0b 22
        E 48 b1 0b 08
        E 48 81 41 00
        E 16 b1 0b 55
        E 0 91 35 55
        E 32 b1 0b 3b
        E 48 b1 0b 22
        E 48 b1 0b 08
        E 48 81 35 00
        E 16 b1 0b 55
        E 0 91 39 55
        E 32 b1 0b 3b
        E 48 b1 0b 22
        E 48 b1 0b 08
        E 48 81 39 00
        E 16 b1 0b 55
        E 0 91 3c 55
        E 32 b1 0b 3b
        E 48 b1 0b 22
        E 48 b1 0b 08
        E 48 81 3c 00
        E 16 b1 0b 55
        E 0 91 41 55
        E 32 b1 0b 3b
        E 48 b1 0b 22
        E 48 b1 0b 08
        E 48 81 41 00
        E 1552 b1 0c 10
        E 0 b1 0b 7f
        E 0 91 57 7f
        E 736 b1 0b 77
        E 752 b1 0b 6e
        E 240 81 57 00
        E 16 b1 0b 66
        E 0 91 37 66
        E 144 81 37 00
        E 16 91 37 66
        E 64 81 37 00
        E 16 91 37 66
        E 64 81 37 00
        E 16 91 37 66
        E 144 81 37 00
        E 16 91 37 66
        E 64 81 37 00
        E 16 91 37 66
        E 64 81 37 00
        E 16 91 37 66
        E 144 81 37 00
        E 16 91 37 66
        E 144 81 37 00
        E 176 91 35 66
        E 400 b1 0b 5d
        E 416 b1 0b 55
        E 416 b1 0b 4c
        E 32 81 35 00
        E 16 b1 0b 66
        E 0 91 37 66
        E 144 81 37 00
        E 16 91 33 66
        E 144 81 33 00
        E 16 91 33 66
        E 64 81 33 00
        E 16 91 33 66
        E 64 81 33 00
        E 16 91 33 66
        E 144 81 33 00
        E 16 91 32 66
        E 144 81 32 00
        E 176 91 32 66
        E 144 81 32 00
        E 176 91 34 66
        E 400 b1 0b 5d
        E 224 81 34 00
        E 16 b1 0b 66
        E 0 91 34 66
        E 144 81 34 00
        E 16 91 33 66
        E 144 81 33 00
        E 16 91 35 66
        E 144 81 35 00
        E 336 91 37 66
        E 144 81 37 00
        E 16 91 37 66
        E 64 81 37 00
        E 16 91 37 66
        E 64 81 37 00
        E 16 91 37 66
        E 144 81 37 00
        E 16 91 37 66
        E 64 81 37 00
        E 16 91 37 66
        E 64 81 37 00
        E 16 91 37 66
        E 144 81 37 00
        E 16 91 37 66
        E 144 81 37 00
        E 176 91 35 66
        E 400 b1 0b 5d
        E 416 b1 0b 55
        E 416 b1 0b 4c
        E 32 81 35 00
        E 16 b1 0b 66
        E 0 91 37 66
        E 144 81 37 00
        E 16 91 33 66
        E 304 81 33 00
        E 16 91 33 66
        E 144 81 33 00
        E 16 91 35 66
        E 144 81 35 00
        E 176 91 35 66
        E 144 81 35 00
        E 176 91 37 66
        E 400 b1 0b 5d
        E 384 81 37 00
        E 96 b1 0c 40
        E 0 b1 0b 33
        E 0 91 4f 33
        E 32 81 4f 00
        E 48 91 4d 33
        E 32 81 4d 00
        E 48 91 4b 33
        E 32 81 4b 00
        E 48 91 4d 33
        E 32 81 4d 00
        E 48 91 4b 33
        E 32 81 4b 00
        E 48 91 4a 33
        E 32 81 4a 00
        E 48 91 49 33
        E 32 81 49 00
        E 48 b1 0c 10
        E 0 b1 0b 66
        E 0 91 37 66
        E 144 81 37 00
        E 16 91 37 66
        E 64 81 37 00
        E 16 91 37 66
        E 64 81 37 00
        E 16 91 37 66
        E 144 81 37 00
        E 16 91 37 66
        E 64 81 37 00
        E 16 91 37 66
        E 64 81 37 00
        E 16 91 37 66
        E 144 81 37 00
        E 16 91 37 66
        E 144 81 37 00
        E 176 91 35 66
        E 400 b1 0b 5d
        E 416 b1 0b 55
        E 416 b1 0b 4c
        E 32 81 35 00
        E 16 b1 0b 66
        E 0 91 37 66
        E 144 81 37 00
        E 16 91 33 66
        E 144 81 33 00
        E 16 91 33 66
        E 64 81 33 00
        E 16 91 33 66
        E 64 81 33 00
        E 16 91 33 66
        E 144 81 33 00
        E 16 91 32 66
        E 144 81 32 00
        E 176 91 32 66
        E 144 81 32 00
        E 176 91 34 66
        E 400 b1 0b 5d
        E 224 81 34 00
        E 16 b1 0b 66
        E 0 91 34 66
        E 144 81 34 00
        E 16 91 33 66
        E 144 81 33 00
        E 16 91 35 66
        E 144 81 35 00
        E 336 91 37 66
        E 144 81 37 00
        E 16 91 37 66
        E 64 81 37 00
        E 16 91 37 66
        E 64 81 37 00
        E 16 91 37 66
        E 144 81 37 00
        E 16 91 37 66
        E 64 81 37 00
        E 16 91 37 66
        E 64 81 37 00
        E 16 91 37 66
        E 144 81 37 00
        E 16 91 37 66
        E 144 81 37 00
        E 176 91 35 66
        E 400 b1 0b 5d
        E 416 b1 0b 55
        E 416 b1 0b 4c
        E 32 81 35 00
        E 16 b1 0b 66
        E 0 91 37 66
        E 144 81 37 00
        E 16 91 33 66
        E 304 81 33 00
        E 16 91 33 66
        E 144 81 33 00
        E 16 91 35 66
        E 144 81 35 00
        E 176 91 35 66
        E 144 81 35 00
        E 176 91 37 66
        E 400 b1 0b 5d
        E 384 81 37 00
        E 96 b1 0c 40
        E 0 b1 0b 33
        E 0 91 4f 33
        E 32 81 4f 00
        E 48 91 4d 33
        E 32 81 4d 00
        E 48 91 4b 33
        E 32 81 4b 00
        E 48 91 4d 33
        E 32 81 4d 00
        E 48 91 4b 33
        E 32 81 4b 00
        E 48 91 4a 33
        E 32 81 4a 00
        E 48 91 49 33
        E 32 81 49 00
        E 48 b1 0c 60
        E 0 b1 0b 66
        E 0 91 37 66
        E 48 b1 0b 5d
        E 64 b1 0b 55
        E 32 81 37 00
        E 176 b1 0b 3b
        E 0 91 3c 3b
        E 48 b1 0b 33
        E 64 b1 0b 2a
        E 32 81 3c 00
        E 16 b1 0b 3b
        E 0 91 37 3b
        E 48 b1 0b 33
        E 64 b1 0b 2a
        E 32 81 37 00
        E 16 b1 0b 3b
        E 0 91 34 3b
        E 48 b1 0b 33
        E 64 b1 0b 2a
        E 32 81 34 00
        E 16 b1 0b 3b
        E 0 91 40 3b
        E 48 b1 0b 33
        E 64 b1 0b 2a
        E 32 81 40 00
        E 16 b1 0b 3b
        E 0 91 3c 3b
        E 48 b1 0b 33
        E 64 b1 0b 2a
        E 32 81 3c 00
        E 16 b1 0b 3b
        E 0 91 37 3b
        E 48 b1 0b 33
        E 64 b1 0b 2a
        E 32 81 37 00
        E 16 b1 0b 3b
        E 0 91 43 3b
        E 48 b1 0b 33
        E 64 b1 0b 2a
        E 64 b1 0b 22
        E 64 b1 0b 19
        E 64 81 43 00
        E 16 b1 0b 3b
        E 0 91 41 3b
        E 48 b1 0b 33
        E 64 b1 0b 2a
        E 32 81 41 00
        E 16 b1 0b 3b
        E 0 91 40 3b
        E 48 b1 0b 33
        E 64 b1 0b 2a
        E 32 81 40 00
        E 16 b1 0b 3b
        E 0 91 3e 3b
        E 48 b1 0b 33
        E 64 b1 0b 2a
        E 32 81 3e 00
        E 16 b1 0b 66
        E 0 91 37 66
        E 48 b1 0b 5d
        E 64 b1 0b 55
        E 64 b1 0b 4c
        E 64 b1 0b 44
        E 64 81 37 00
        E 176 b1 0b 66
        E 0 91 35 66
        E 48 b1 0b 5d
        E 64 b1 0b 55
        E 32 81 35 00
        E 176 b1 0b 3b
        E 0 91 3a 3b
        E 48 b1 0b 33
        E 64 b1 0b 2a
        E 32 81 3a 00
        E 16 b1 0b 3b
        E 0 91 39 3b
        E 48 b1 0b 33
        E 64 b1 0b 2a
        E 32 81 39 00
        E 16 b1 0b 3b
        E 0 91 35 3b
        E 48 b1 0b 33
        E 64 b1 0b 2a
        E 32 81 35 00
        E 16 b1 0b 3b
        E 0 91 3e 3b
        E 48 b1 0b 33
        E 64 b1 0b 2a
        E 64 b1 0b 22
        E 64 b1 0b 19
        E 64 81 3e 00
        E 16 b1 0b 3b
        E 0 91 3a 3b
        E 48 b1 0b 33
        E 64 b1 0b 2a
        E 32 81 3a 00
        E 16 b1 0b 3b
        E 0 91 37 3b
        E 48 b1 0b 33
        E 64 b1 0b 2a
        E 32 81 37 00
        E 16 b1 0b 3b
        E 0 91 3a 3b
        E 48 b1 0b 33
        E 16 81 3a 00
        E 16 b1 0b 3b
        E 0 91 3a 3b
        E 48 b1 0b 33
        E 16 81 3a 00
        E 16 b1 0b 3b
        E 0 91 35 3b
        E 48 b1 0b 33
        E 16 81 35 00
        E 16 b1 0b 3b
        E 0 91 3e 3b
        E 48 b1 0b 33
        E 16 81 3e 00
        E 16 b1 0b 3b
        E 0 91 3a 3b
        E 48 b1 0b 33
        E 16 81 3a 00
        E 16 b1 0b 3b
        E 0 91 41 3b
        E 48 b1 0b 33
        E 16 81 41 00
        E 16 b1 0b 3b
        E 0 91 3e 3b
        E 48 b1 0b 33
        E 16 81 3e 00
        E 16 b1 0b 3b
        E 0 91 46 3b
        E 48 b1 0b 33
        E 16 81 46 00
        E 16 b1 0b 66
        E 0 91 35 66
        E 48 b1 0b 5d
        E 64 b1 0b 55
        E 64 b1 0b 4c
        E 64 b1 0b 44
        E 64 81 35 00
        E 176 b1 0b 66
        E 0 91 34 66
        E 48 b1 0b 5d
        E 64 b1 0b 55
        E 32 81 34 00
        E 96 b1 0b 3b
        E 0 91 39 3b
        E 48 b1 0b 33
        E 16 81 39 00
        E 16 b1 0b 3b
        E 0 91 3c 3b
        E 48 b1 0b 33
        E 16 81 3c 00
        E 16 b1 0b 3b
        E 0 91 39 3b
        E 48 b1 0b 33
        E 16 81 39 00
        E 16 b1 0b 3b
        E 0 91 34 3b
        E 48 b1 0b 33
        E 16 81 34 00
        E 16 b1 0b 3b
        E 0 91 30 3b
        E 48 b1 0b 33
        E 64 b1 0b 2a
        E 32 81 30 00
        E 16 b1 0b 3b
        E 0 91 39 3b
        E 48 b1 0b 33
        E 16 81 39 00
        E 16 b1 0b 3b
        E 0 91 3c 3b
        E 48 b1 0b 33
        E 16 81 3c 00
        E 16 b1 0b 3b
        E 0 91 39 3b
        E 48 b1 0b 33
        E 16 81 39 00
        E 16 b1 0b 3b
        E 0 91 34 3b
        E 48 b1 0b 33
        E 16 81 34 00
        E 16 b1 0b 3b
        E 0 91 30 3b
        E 48 b1 0b 33
        E 64 b1 0b 2a
        E 32 81 30 00
        E 16 b1 0b 3b
        E 0 91 39 3b
        E 48 b1 0b 33
        E 16 81 39 00
        E 16 b1 0b 3b
        E 0 91 3c 3b
        E 48 b1 0b 33
        E 16 81 3c 00
        E 16 b1 0b 3b
        E 0 91 44 3b
        E 48 b1 0b 33
        E 16 81 44 00
        E 16 b1 0b 3b
        E 0 91 45 3b
        E 48 b1 0b 33
        E 16 81 45 00
        E 16 b1 0b 3b
        E 0 91 44 3b
        E 48 b1 0b 33
        E 16 81 44 00
        E 16 b1 0b 3b
        E 0 91 45 3b
        E 48 b1 0b 33
        E 16 81 45 00
        E 16 b1 0b 3b
        E 0 91 44 3b
        E 48 b1 0b 33
        E 16 81 44 00
        E 16 b1 0b 3b
        E 0 91 45 3b
        E 48 b1 0b 33
        E 16 81 45 00
        E 16 b1 0b 3b
        E 0 91 40 3b
        E 48 b1 0b 33
        E 16 81 40 00
        E 16 b1 0b 3b
        E 0 91 3c 3b
        E 48 b1 0b 33
        E 16 81 3c 00
        E 96 b1 0b 66
        E 0 91 34 66
        E 48 b1 0b 5d
        E 64 b1 0b 55
        E 64 b1 0b 4c
        E 64 b1 0b 44
        E 64 81 34 00
        E 176 b1 0b 66
        E 0 91 33 66
        E 48 b1 0b 5d
        E 48 81 33 00
        E 16 b1 0b 66
        E 0 91 38 66
        E 48 b1 0b 5d
        E 48 b1 0b 66
        E 0 81 38 00
        E 0 91 3c 66
        E 64 b1 0b 5d
        E 32 81 3c 00
        E 16 b1 0b 66
        E 0 91 38 66
        E 48 b1 0b 5d
        E 48 81 38 00
        E 16 b1 0b 66
        E 0 91 3c 66
        E 48 b1 0b 5d
        E 48 b1 0b 66
        E 0 81 3c 00
        E 0 91 3f 66
        E 64 b1 0b 5d
        E 32 81 3f 00
        E 16 b1 0b 66
        E 0 91 3c 66
        E 48 b1 0b 5d
        E 48 81 3c 00
        E 16 b1 0b 66
        E 0 91 3f 66
        E 48 b1 0b 5d
        E 48 b1 0b 66
        E 0 81 3f 00
        E 0 91 44 66
        E 64 b1 0b 5d
        E 32 81 44 00
        E 16 b1 0b 66
        E 0 91 3f 66
        E 48 b1 0b 5d
        E 48 81 3f 00
        E 16 b1 0b 66
        E 0 91 44 66
        E 48 b1 0b 5d
        E 48 b1 0b 66
        E 0 81 44 00
        E 0 91 48 66
        E 64 b1 0b 5d
        E 32 81 48 00
        E 16 b1 0b 66
        E 0 91 33 66
        E 48 b1 0b 5d
        E 64 b1 0b 55
        E 32 81 33 00
        E 16 b1 0b 66
        E 0 91 33 66
        E 48 b1 0b 5d
        E 64 b1 0b 55
        E 32 81 33 00
        E 16 b1 0b 66
        E 0 91 33 66
        E 48 b1 0b 5d
        E 64 b1 0b 55
        E 32 81 33 00
        E 16 b1 0b 66
        E 0 91 33 66
        E 48 b1 0b 5d
        E 64 b1 0b 55
        E 32 81 33 00
        E 176 b1 0b 66
        E 0 91 35 66
        E 48 b1 0b 5d
        E 64 b1 0b 55
        E 64 b1 0b 4c
        E 64 b1 0b 44
        E 64 81 35 00
        E 176 b1 0c 10
        E 0 b1 0b 66
        E 0 91 37 66
        E 144 81 37 00
        E 16 91 37 66
        E 64 81 37 00
        E 16 91 37 66
        E 64 81 37 00
        E 16 91 37 66
        E 144 81 37 00
        E 16 91 37 66
        E 64 81 37 00
        E 16 91 37 66
        E 64 81 37 00
        E 16 91 37 66
        E 144 81 37 00
        E 16 91 37 66
        E 144 81 37 00
        E 176 91 35 66
        E 400 b1 0b 5d
        E 416 b1 0b 55
        E 416 b1 0b 4c
        E 32 81 35 00
        E 16 b1 0b 66
        E 0 91 37 66
        E 144 81 37 00
        E 16 91 33 66
        E 144 81 33 00
        E 16 91 33 66
        E 64 81 33 00
        E 16 91 33 66
        E 64 81 33 00
        E 16 91 33 66
        E 144 81 33 00
        E 16 91 32 66
        E 144 81 32 00
        E 176 91 32 66
        E 128 81 32 00
        E 0 b1 7b 00
        E 0 ff 2f 00
      >
    >
  >
  <TRACK {0B4DD13B-C30E-4136-9A15-FF5AF354F293}
    NAME "NES - Triangle [ch2]"
    PEAKCOL 16744192
    BEAT -1
    AUTOMODE 0
    PANLAWFLAGS 3
    VOLPAN 1 0 -1 -1 1
    MUTESOLO 0 0 0
    IPHASE 0
    PLAYOFFS 0 1
    ISBUS 0 0
    BUSCOMP 0 0 0 0 0
    SHOWINMIX 1 0.6667 0.5 1 0.5 0 0 0
    FIXEDLANES 9 0 0 0 0
    SEL 0
    REC 0 5088 1 0 0 0 0 0
    VU 2
    TRACKHEIGHT 0 0 0 0 0 0 0
    INQ 0 0 0 0.5 100 0 0 100
    NCHAN 2
    FX 1
    TRACKID {0B4DD13B-C30E-4136-9A15-FF5AF354F293}
    PERF 0
    MIDIOUT -1
    MAINSEND 1 0
    <FXCHAIN
      WNDRECT 24 52 700 560
      SHOW 0
      LASTSEL 0
      DOCKED 0
      BYPASS 0 0 0
      <JS "ReapNES Studio/ReapNES_Console.jsfx" ""
        2 15 1 10 80 10 100 2 1 15 1 5 60 10 80 1 1 0 30 0 0 15 1 0 100 0 0 0.500000 0.500000 0.400000 0.300000 0.800000 2 1 0 0 0 0 - - - - - - - - - - - - - - - - - - - - - - - - - -
      >
      FLOATPOS 0 0 0 0
      FXID {3CEDE4EB-10CD-4A18-83C0-5F1BFC343188}
      WAK 0 0
    >
    <ITEM
      POSITION 0
      LENGTH 70.2799399
      LOOP 0
      ALLTAKES 0
      FADEIN 0 0 0 0 0 0 0
      FADEOUT 0 0 0 0 0 0 0
      MUTE 0 0
      SEL 0
      IGUID {0AB76DD4-1025-4B1A-9DDF-B2A9F79CC61A}
      <SOURCE MIDI
        HASDATA 1 480 QN
        CCINTERP 32
        E 0 c2 26
        E 0 b2 0b 7f
        E 0 92 2a 7f
        E 752 82 2a 00
        E 16 b2 0b 7f
        E 0 92 2a 7f
        E 240 82 2a 00
        E 16 b2 0b 7f
        E 0 92 2a 7f
        E 496 82 2a 00
        E 528 b2 0b 7f
        E 0 92 2a 7f
        E 752 82 2a 00
        E 16 b2 0b 7f
        E 0 92 2a 7f
        E 240 82 2a 00
        E 16 b2 0b 7f
        E 0 92 2a 7f
        E 496 82 2a 00
        E 528 b2 0b 7f
        E 0 92 2a 7f
        E 752 82 2a 00
        E 16 b2 0b 7f
        E 0 92 2a 7f
        E 240 82 2a 00
        E 16 b2 0b 7f
        E 0 92 2a 7f
        E 496 82 2a 00
        E 528 b2 0b 7f
        E 0 92 2a 7f
        E 752 82 2a 00
        E 16 b2 0b 7f
        E 0 92 2a 7f
        E 240 82 2a 00
        E 16 b2 0b 7f
        E 0 92 2a 7f
        E 496 82 2a 00
        E 528 b2 0b 7f
        E 0 92 2a 7f
        E 1008 82 2a 00
        E 16 b2 0b 7f
        E 0 92 29 7f
        E 1008 82 29 00
        E 16 b2 0b 7f
        E 0 92 27 7f
        E 1008 82 27 00
        E 16 b2 0b 7f
        E 0 92 25 7f
        E 1008 82 25 00
        E 16 b2 0b 7f
        E 0 92 24 7f
        E 1008 82 24 00
        E 16 b2 0b 7f
        E 0 92 27 7f
        E 1008 82 27 00
        E 16 b2 0b 7f
        E 0 92 25 7f
        E 752 82 25 00
        E 16 b2 0b 7f
        E 0 92 25 7f
        E 240 82 25 00
        E 16 b2 0b 7f
        E 0 92 25 7f
        E 496 82 25 00
        E 528 b2 0b 7f
        E 0 92 23 7f
        E 1520 82 23 00
        E 16 b2 0b 7f
        E 0 92 24 7f
        E 496 82 24 00
        E 16 b2 0b 7f
        E 0 92 25 7f
        E 2032 82 25 00
        E 16 b2 0b 7f
        E 0 92 22 7f
        E 1520 82 22 00
        E 16 b2 0b 7f
        E 0 92 26 7f
        E 496 82 26 00
        E 16 b2 0b 7f
        E 0 92 27 7f
        E 2032 82 27 00
        E 16 b2 0b 7f
        E 0 92 26 7f
        E 208 82 26 00
        E 16 b2 0b 7f
        E 0 92 26 7f
        E 208 82 26 00
        E 240 b2 0b 7f
        E 0 92 26 7f
        E 208 82 26 00
        E 16 b2 0b 7f
        E 0 92 26 7f
        E 208 82 26 00
        E 16 b2 0b 7f
        E 0 92 21 7f
        E 208 82 21 00
        E 16 b2 0b 7f
        E 0 92 26 7f
        E 208 82 26 00
        E 16 b2 0b 7f
        E 0 92 2a 7f
        E 208 82 2a 00
        E 16 b2 0b 7f
        E 0 92 26 7f
        E 208 82 26 00
        E 16 b2 0b 7f
        E 0 92 26 7f
        E 208 82 26 00
        E 240 b2 0b 7f
        E 0 92 26 7f
        E 208 82 26 00
        E 16 b2 0b 7f
        E 0 92 26 7f
        E 208 82 26 00
        E 16 b2 0b 7f
        E 0 92 21 7f
        E 208 82 21 00
        E 16 b2 0b 7f
        E 0 92 26 7f
        E 208 82 26 00
        E 16 b2 0b 7f
        E 0 92 2a 7f
        E 208 82 2a 00
        E 16 b2 0b 7f
        E 0 92 28 7f
        E 208 82 28 00
        E 16 b2 0b 7f
        E 0 92 28 7f
        E 208 82 28 00
        E 240 b2 0b 7f
        E 0 92 28 7f
        E 208 82 28 00
        E 16 b2 0b 7f
        E 0 92 28 7f
        E 208 82 28 00
        E 16 b2 0b 7f
        E 0 92 23 7f
        E 208 82 23 00
        E 16 b2 0b 7f
        E 0 92 28 7f
        E 208 82 28 00
        E 16 b2 0b 7f
        E 0 92 2c 7f
        E 208 82 2c 00
        E 16 b2 0b 7f
        E 0 92 28 7f
        E 208 82 28 00
        E 16 b2 0b 7f
        E 0 92 28 7f
        E 208 82 28 00
        E 240 b2 0b 7f
        E 0 92 28 7f
        E 208 82 28 00
        E 16 b2 0b 7f
        E 0 92 28 7f
        E 208 82 28 00
        E 16 b2 0b 7f
        E 0 92 23 7f
        E 208 82 23 00
        E 16 b2 0b 7f
        E 0 92 28 7f
        E 208 82 28 00
        E 16 b2 0b 7f
        E 0 92 2c 7f
        E 208 82 2c 00
        E 16 b2 0b 7f
        E 0 92 29 7f
        E 176 82 29 00
        E 16 b2 0b 7f
        E 0 92 29 7f
        E 176 82 29 00
        E 208 b2 0b 7f
        E 0 92 29 7f
        E 176 82 29 00
        E 16 b2 0b 7f
        E 0 92 29 7f
        E 176 82 29 00
        E 16 b2 0b 7f
        E 0 92 24 7f
        E 176 82 24 00
        E 16 b2 0b 7f
        E 0 92 29 7f
        E 176 82 29 00
        E 16 b2 0b 7f
        E 0 92 2d 7f
        E 176 82 2d 00
        E 16 b2 0b 7f
        E 0 92 29 7f
        E 176 82 29 00
        E 16 b2 0b 7f
        E 0 92 29 7f
        E 176 82 29 00
        E 208 b2 0b 7f
        E 0 92 29 7f
        E 176 82 29 00
        E 16 b2 0b 7f
        E 0 92 29 7f
        E 176 82 29 00
        E 16 b2 0b 7f
        E 0 92 24 7f
        E 176 82 24 00
        E 16 b2 0b 7f
        E 0 92 29 7f
        E 176 82 29 00
        E 16 b2 0b 7f
        E 0 92 2d 7f
        E 176 82 2d 00
        E 16 b2 0b 7f
        E 0 92 3a 7f
        E 64 82 3a 00
        E 0 b2 0b 7f
        E 0 92 2c 7f
        E 48 82 2c 00
        E 16 b2 0b 7f
        E 0 92 3a 7f
        E 64 82 3a 00
        E 0 b2 0b 7f
        E 0 92 2c 7f
        E 48 82 2c 00
        E 16 b2 0b 7f
        E 0 92 3a 7f
        E 64 82 3a 00
        E 0 b2 0b 7f
        E 0 92 2c 7f
        E 48 82 2c 00
        E 16 b2 0b 7f
        E 0 92 35 7f
        E 48 82 35 00
        E 0 b2 0b 7f
        E 0 92 2d 7f
        E 64 82 2d 00
        E 16 b2 0b 7f
        E 0 92 35 7f
        E 48 82 35 00
        E 0 b2 0b 7f
        E 0 92 2d 7f
        E 64 82 2d 00
        E 16 b2 0b 7f
        E 0 92 35 7f
        E 48 82 35 00
        E 0 b2 0b 7f
        E 0 92 2d 7f
        E 64 82 2d 00
        E 16 b2 0b 7f
        E 0 92 35 7f
        E 48 82 35 00
        E 0 b2 0b 7f
        E 0 92 2d 7f
        E 64 82 2d 00
        E 16 b2 0b 7f
        E 0 92 35 7f
        E 48 82 35 00
        E 0 b2 0b 7f
        E 0 92 2d 7f
        E 64 82 2d 00
        E 16 b2 0b 7f
        E 0 92 35 7f
        E 48 82 35 00
        E 0 b2 0b 7f
        E 0 92 2d 7f
        E 64 82 2d 00
        E 16 b2 0b 7f
        E 0 92 35 7f
        E 48 82 35 00
        E 0 b2 0b 7f
        E 0 92 2d 7f
        E 64 82 2d 00
        E 16 b2 0b 7f
        E 0 92 35 7f
        E 48 82 35 00
        E 0 b2 0b 7f
        E 0 92 2d 7f
        E 64 82 2d 00
        E 16 b2 0b 7f
        E 0 92 35 7f
        E 48 82 35 00
        E 0 b2 0b 7f
        E 0 92 2d 7f
        E 64 82 2d 00
        E 16 b2 0b 7f
        E 0 92 4c 7f
        E 1728 82 4c 00
        E 16 b2 0b 7f
        E 0 92 30 7f
        E 144 82 30 00
        E 16 b2 0b 7f
        E 0 92 30 7f
        E 64 82 30 00
        E 16 b2 0b 7f
        E 0 92 30 7f
        E 64 82 30 00
        E 16 b2 0b 7f
        E 0 92 30 7f
        E 144 82 30 00
        E 16 b2 0b 7f
        E 0 92 30 7f
        E 64 82 30 00
        E 16 b2 0b 7f
        E 0 92 30 7f
        E 64 82 30 00
        E 16 b2 0b 7f
        E 0 92 30 7f
        E 144 82 30 00
        E 16 b2 0b 7f
        E 0 92 30 7f
        E 64 82 30 00
        E 16 b2 0b 7f
        E 0 92 30 7f
        E 64 82 30 00
        E 16 b2 0b 7f
        E 0 92 30 7f
        E 144 82 30 00
        E 16 b2 0b 7f
        E 0 92 30 7f
        E 64 82 30 00
        E 16 b2 0b 7f
        E 0 92 30 7f
        E 64 82 30 00
        E 16 b2 0b 7f
        E 0 92 30 7f
        E 144 82 30 00
        E 16 b2 0b 7f
        E 0 92 30 7f
        E 64 82 30 00
        E 16 b2 0b 7f
        E 0 92 30 7f
        E 64 82 30 00
        E 16 b2 0b 7f
        E 0 92 30 7f
        E 144 82 30 00
        E 16 b2 0b 7f
        E 0 92 30 7f
        E 64 82 30 00
        E 16 b2 0b 7f
        E 0 92 30 7f
        E 64 82 30 00
        E 16 b2 0b 7f
        E 0 92 30 7f
        E 144 82 30 00
        E 16 b2 0b 7f
        E 0 92 30 7f
        E 64 82 30 00
        E 16 b2 0b 7f
        E 0 92 30 7f
        E 64 82 30 00
        E 16 b2 0b 7f
        E 0 92 30 7f
        E 144 82 30 00
        E 16 b2 0b 7f
        E 0 92 30 7f
        E 64 82 30 00
        E 16 b2 0b 7f
        E 0 92 30 7f
        E 64 82 30 00
        E 16 b2 0b 7f
        E 0 92 30 7f
        E 144 82 30 00
        E 16 b2 0b 7f
        E 0 92 30 7f
        E 64 82 30 00
        E 16 b2 0b 7f
        E 0 92 30 7f
        E 64 82 30 00
        E 16 b2 0b 7f
        E 0 92 30 7f
        E 144 82 30 00
        E 16 b2 0b 7f
        E 0 92 30 7f
        E 64 82 30 00
        E 16 b2 0b 7f
        E 0 92 30 7f
        E 64 82 30 00
        E 16 b2 0b 7f
        E 0 92 30 7f
        E 144 82 30 00
        E 16 b2 0b 7f
        E 0 92 30 7f
        E 64 82 30 00
        E 16 b2 0b 7f
        E 0 92 30 7f
        E 64 82 30 00
        E 16 b2 0b 7f
        E 0 92 30 7f
        E 144 82 30 00
        E 16 b2 0b 7f
        E 0 92 30 7f
        E 64 82 30 00
        E 16 b2 0b 7f
        E 0 92 30 7f
        E 64 82 30 00
        E 16 b2 0b 7f
        E 0 92 30 7f
        E 144 82 30 00
        E 16 b2 0b 7f
        E 0 92 30 7f
        E 64 82 30 00
        E 16 b2 0b 7f
        E 0 92 30 7f
        E 64 82 30 00
        E 16 b2 0b 7f
        E 0 92 30 7f
        E 144 82 30 00
        E 16 b2 0b 7f
        E 0 92 30 7f
        E 64 82 30 00
        E 16 b2 0b 7f
        E 0 92 30 7f
        E 64 82 30 00
        E 16 b2 0b 7f
        E 0 92 30 7f
        E 144 82 30 00
        E 16 b2 0b 7f
        E 0 92 30 7f
        E 64 82 30 00
        E 16 b2 0b 7f
        E 0 92 30 7f
        E 64 82 30 00
        E 16 b2 0b 7f
        E 0 92 30 7f
        E 144 82 30 00
        E 16 b2 0b 7f
        E 0 92 30 7f
        E 64 82 30 00
        E 16 b2 0b 7f
        E 0 92 30 7f
        E 64 82 30 00
        E 16 b2 0b 7f
        E 0 92 30 7f
        E 144 82 30 00
        E 16 b2 0b 7f
        E 0 92 30 7f
        E 64 82 30 00
        E 16 b2 0b 7f
        E 0 92 30 7f
        E 64 82 30 00
        E 16 b2 0b 7f
        E 0 92 30 7f
        E 144 82 30 00
        E 16 b2 0b 7f
        E 0 92 30 7f
        E 64 82 30 00
        E 16 b2 0b 7f
        E 0 92 30 7f
        E 64 82 30 00
        E 16 b2 0b 7f
        E 0 92 30 7f
        E 144 82 30 00
        E 16 b2 0b 7f
        E 0 92 30 7f
        E 64 82 30 00
        E 16 b2 0b 7f
        E 0 92 30 7f
        E 64 82 30 00
        E 16 b2 0b 7f
        E 0 92 30 7f
        E 144 82 30 00
        E 16 b2 0b 7f
        E 0 92 30 7f
        E 64 82 30 00
        E 16 b2 0b 7f
        E 0 92 30 7f
        E 64 82 30 00
        E 16 b2 0b 7f
        E 0 92 30 7f
        E 144 82 30 00
        E 16 b2 0b 7f
        E 0 92 30 7f
        E 64 82 30 00
        E 16 b2 0b 7f
        E 0 92 30 7f
        E 64 82 30 00
        E 16 b2 0b 7f
        E 0 92 30 7f
        E 144 82 30 00
        E 16 b2 0b 7f
        E 0 92 30 7f
        E 64 82 30 00
        E 16 b2 0b 7f
        E 0 92 30 7f
        E 64 82 30 00
        E 16 b2 0b 7f
        E 0 92 30 7f
        E 144 82 30 00
        E 16 b2 0b 7f
        E 0 92 30 7f
        E 64 82 30 00
        E 16 b2 0b 7f
        E 0 92 30 7f
        E 64 82 30 00
        E 16 b2 0b 7f
        E 0 92 30 7f
        E 144 82 30 00
        E 16 b2 0b 7f
        E 0 92 30 7f
        E 64 82 30 00
        E 16 b2 0b 7f
        E 0 92 30 7f
        E 64 82 30 00
        E 16 b2 0b 7f
        E 0 92 30 7f
        E 144 82 30 00
        E 16 b2 0b 7f
        E 0 92 30 7f
        E 64 82 30 00
        E 16 b2 0b 7f
        E 0 92 30 7f
        E 64 82 30 00
        E 16 b2 0b 7f
        E 0 92 30 7f
        E 144 82 30 00
        E 16 b2 0b 7f
        E 0 92 30 7f
        E 64 82 30 00
        E 16 b2 0b 7f
        E 0 92 30 7f
        E 64 82 30 00
        E 16 b2 0b 7f
        E 0 92 30 7f
        E 144 82 30 00
        E 16 b2 0b 7f
        E 0 92 30 7f
        E 64 82 30 00
        E 16 b2 0b 7f
        E 0 92 30 7f
        E 64 82 30 00
        E 16 b2 0b 7f
        E 0 92 30 7f
        E 144 82 30 00
        E 16 b2 0b 7f
        E 0 92 30 7f
        E 64 82 30 00
        E 16 b2 0b 7f
        E 0 92 30 7f
        E 64 82 30 00
        E 16 b2 0b 7f
        E 0 92 30 7f
        E 144 82 30 00
        E 16 b2 0b 7f
        E 0 92 30 7f
        E 64 82 30 00
        E 16 b2 0b 7f
        E 0 92 30 7f
        E 64 82 30 00
        E 16 b2 0b 7f
        E 0 92 30 7f
        E 144 82 30 00
        E 16 b2 0b 7f
        E 0 92 30 7f
        E 64 82 30 00
        E 16 b2 0b 7f
        E 0 92 30 7f
        E 64 82 30 00
        E 16 b2 0b 7f
        E 0 92 30 7f
        E 144 82 30 00
        E 16 b2 0b 7f
        E 0 92 2b 7f
        E 144 82 2b 00
        E 16 b2 0b 7f
        E 0 92 2d 7f
        E 144 82 2d 00
        E 16 b2 0b 7f
        E 0 92 30 7f
        E 144 82 30 00
        E 16 b2 0b 7f
        E 0 92 30 7f
        E 144 82 30 00
        E 16 b2 0b 7f
        E 0 92 30 7f
        E 64 82 30 00
        E 16 b2 0b 7f
        E 0 92 30 7f
        E 64 82 30 00
        E 16 b2 0b 7f
        E 0 92 30 7f
        E 144 82 30 00
        E 16 b2 0b 7f
        E 0 92 30 7f
        E 64 82 30 00
        E 16 b2 0b 7f
        E 0 92 30 7f
        E 64 82 30 00
        E 16 b2 0b 7f
        E 0 92 30 7f
        E 144 82 30 00
        E 16 b2 0b 7f
        E 0 92 30 7f
        E 64 82 30 00
        E 16 b2 0b 7f
        E 0 92 30 7f
        E 64 82 30 00
        E 16 b2 0b 7f
        E 0 92 30 7f
        E 144 82 30 00
        E 16 b2 0b 7f
        E 0 92 30 7f
        E 64 82 30 00
        E 16 b2 0b 7f
        E 0 92 30 7f
        E 64 82 30 00
        E 16 b2 0b 7f
        E 0 92 30 7f
        E 144 82 30 00
        E 16 b2 0b 7f
        E 0 92 30 7f
        E 64 82 30 00
        E 16 b2 0b 7f
        E 0 92 30 7f
        E 64 82 30 00
        E 16 b2 0b 7f
        E 0 92 30 7f
        E 144 82 30 00
        E 16 b2 0b 7f
        E 0 92 30 7f
        E 64 82 30 00
        E 16 b2 0b 7f
        E 0 92 30 7f
        E 64 82 30 00
        E 16 b2 0b 7f
        E 0 92 30 7f
        E 144 82 30 00
        E 16 b2 0b 7f
        E 0 92 30 7f
        E 64 82 30 00
        E 16 b2 0b 7f
        E 0 92 30 7f
        E 64 82 30 00
        E 16 b2 0b 7f
        E 0 92 30 7f
        E 144 82 30 00
        E 16 b2 0b 7f
        E 0 92 30 7f
        E 64 82 30 00
        E 16 b2 0b 7f
        E 0 92 30 7f
        E 64 82 30 00
        E 16 b2 0b 7f
        E 0 92 30 7f
        E 144 82 30 00
        E 16 b2 0b 7f
        E 0 92 30 7f
        E 64 82 30 00
        E 16 b2 0b 7f
        E 0 92 30 7f
        E 64 82 30 00
        E 16 b2 0b 7f
        E 0 92 30 7f
        E 144 82 30 00
        E 16 b2 0b 7f
        E 0 92 30 7f
        E 64 82 30 00
        E 16 b2 0b 7f
        E 0 92 30 7f
        E 64 82 30 00
        E 16 b2 0b 7f
        E 0 92 30 7f
        E 144 82 30 00
        E 16 b2 0b 7f
        E 0 92 30 7f
        E 64 82 30 00
        E 16 b2 0b 7f
        E 0 92 30 7f
        E 64 82 30 00
        E 16 b2 0b 7f
        E 0 92 30 7f
        E 144 82 30 00
        E 16 b2 0b 7f
        E 0 92 30 7f
        E 64 82 30 00
        E 16 b2 0b 7f
        E 0 92 30 7f
        E 64 82 30 00
        E 16 b2 0b 7f
        E 0 92 30 7f
        E 144 82 30 00
        E 16 b2 0b 7f
        E 0 92 30 7f
        E 64 82 30 00
        E 16 b2 0b 7f
        E 0 92 30 7f
        E 64 82 30 00
        E 16 b2 0b 7f
        E 0 92 30 7f
        E 144 82 30 00
        E 16 b2 0b 7f
        E 0 92 30 7f
        E 64 82 30 00
        E 16 b2 0b 7f
        E 0 92 30 7f
        E 64 82 30 00
        E 16 b2 0b 7f
        E 0 92 30 7f
        E 144 82 30 00
        E 16 b2 0b 7f
        E 0 92 30 7f
        E 64 82 30 00
        E 16 b2 0b 7f
        E 0 92 30 7f
        E 64 82 30 00
        E 16 b2 0b 7f
        E 0 92 30 7f
        E 144 82 30 00
        E 16 b2 0b 7f
        E 0 92 30 7f
        E 64 82 30 00
        E 16 b2 0b 7f
        E 0 92 30 7f
        E 64 82 30 00
        E 16 b2 0b 7f
        E 0 92 30 7f
        E 144 82 30 00
        E 16 b2 0b 7f
        E 0 92 30 7f
        E 64 82 30 00
        E 16 b2 0b 7f
        E 0 92 30 7f
        E 64 82 30 00
        E 16 b2 0b 7f
        E 0 92 30 7f
        E 144 82 30 00
        E 16 b2 0b 7f
        E 0 92 30 7f
        E 64 82 30 00
        E 16 b2 0b 7f
        E 0 92 30 7f
        E 64 82 30 00
        E 16 b2 0b 7f
        E 0 92 30 7f
        E 144 82 30 00
        E 16 b2 0b 7f
        E 0 92 30 7f
        E 64 82 30 00
        E 16 b2 0b 7f
        E 0 92 30 7f
        E 64 82 30 00
        E 16 b2 0b 7f
        E 0 92 30 7f
        E 144 82 30 00
        E 16 b2 0b 7f
        E 0 92 30 7f
        E 64 82 30 00
        E 16 b2 0b 7f
        E 0 92 30 7f
        E 64 82 30 00
        E 16 b2 0b 7f
        E 0 92 30 7f
        E 144 82 30 00
        E 16 b2 0b 7f
        E 0 92 30 7f
        E 64 82 30 00
        E 16 b2 0b 7f
        E 0 92 30 7f
        E 64 82 30 00
        E 16 b2 0b 7f
        E 0 92 30 7f
        E 144 82 30 00
        E 16 b2 0b 7f
        E 0 92 30 7f
        E 64 82 30 00
        E 16 b2 0b 7f
        E 0 92 30 7f
        E 64 82 30 00
        E 16 b2 0b 7f
        E 0 92 30 7f
        E 144 82 30 00
        E 16 b2 0b 7f
        E 0 92 30 7f
        E 64 82 30 00
        E 16 b2 0b 7f
        E 0 92 30 7f
        E 64 82 30 00
        E 16 b2 0b 7f
        E 0 92 30 7f
        E 144 82 30 00
        E 16 b2 0b 7f
        E 0 92 30 7f
        E 64 82 30 00
        E 16 b2 0b 7f
        E 0 92 30 7f
        E 64 82 30 00
        E 16 b2 0b 7f
        E 0 92 30 7f
        E 144 82 30 00
        E 16 b2 0b 7f
        E 0 92 30 7f
        E 64 82 30 00
        E 16 b2 0b 7f
        E 0 92 30 7f
        E 64 82 30 00
        E 16 b2 0b 7f
        E 0 92 30 7f
        E 144 82 30 00
        E 16 b2 0b 7f
        E 0 92 30 7f
        E 64 82 30 00
        E 16 b2 0b 7f
        E 0 92 30 7f
        E 64 82 30 00
        E 16 b2 0b 7f
        E 0 92 30 7f
        E 144 82 30 00
        E 16 b2 0b 7f
        E 0 92 30 7f
        E 64 82 30 00
        E 16 b2 0b 7f
        E 0 92 30 7f
        E 64 82 30 00
        E 16 b2 0b 7f
        E 0 92 30 7f
        E 144 82 30 00
        E 16 b2 0b 7f
        E 0 92 30 7f
        E 64 82 30 00
        E 16 b2 0b 7f
        E 0 92 30 7f
        E 64 82 30 00
        E 16 b2 0b 7f
        E 0 92 30 7f
        E 144 82 30 00
        E 16 b2 0b 7f
        E 0 92 30 7f
        E 64 82 30 00
        E 16 b2 0b 7f
        E 0 92 30 7f
        E 64 82 30 00
        E 16 b2 0b 7f
        E 0 92 30 7f
        E 144 82 30 00
        E 16 b2 0b 7f
        E 0 92 30 7f
        E 64 82 30 00
        E 16 b2 0b 7f
        E 0 92 30 7f
        E 64 82 30 00
        E 16 b2 0b 7f
        E 0 92 30 7f
        E 144 82 30 00
        E 16 b2 0b 7f
        E 0 92 2b 7f
        E 144 82 2b 00
        E 16 b2 0b 7f
        E 0 92 2d 7f
        E 144 82 2d 00
        E 16 b2 0b 7f
        E 0 92 30 7f
        E 144 82 30 00
        E 16 b2 0b 7f
        E 0 92 28 7f
        E 304 82 28 00
        E 16 b2 0b 7f
        E 0 92 3c 7f
        E 128 82 3c 00
        E 0 b2 0b 7f
        E 0 92 2c 7f
        E 16 82 2c 00
        E 176 b2 0b 7f
        E 0 92 2e 7f
        E 32 82 2e 00
        E 0 b2 0b 7f
        E 0 92 2c 7f
        E 112 82 2c 00
        E 16 b2 0b 7f
        E 0 92 2e 7f
        E 32 82 2e 00
        E 0 b2 0b 7f
        E 0 92 2c 7f
        E 112 82 2c 00
        E 16 b2 0b 7f
        E 0 92 3c 7f
        E 128 82 3c 00
        E 0 b2 0b 7f
        E 0 92 2c 7f
        E 16 82 2c 00
        E 176 b2 0b 7f
        E 0 92 2e 7f
        E 32 82 2e 00
        E 0 b2 0b 7f
        E 0 92 2c 7f
        E 112 82 2c 00
        E 16 b2 0b 7f
        E 0 92 2e 7f
        E 32 82 2e 00
        E 0 b2 0b 7f
        E 0 92 2c 7f
        E 112 82 2c 00
        E 16 b2 0b 7f
        E 0 92 3c 7f
        E 128 82 3c 00
        E 0 b2 0b 7f
        E 0 92 2c 7f
        E 16 82 2c 00
        E 16 b2 0b 7f
        E 0 92 2e 7f
        E 32 82 2e 00
        E 0 b2 0b 7f
        E 0 92 2c 7f
        E 112 82 2c 00
        E 176 b2 0b 7f
        E 0 92 28 7f
        E 144 82 28 00
        E 16 b2 0b 7f
        E 0 92 3c 7f
        E 128 82 3c 00
        E 0 b2 0b 7f
        E 0 92 2c 7f
        E 16 82 2c 00
        E 16 b2 0b 7f
        E 0 92 3c 7f
        E 128 82 3c 00
        E 0 b2 0b 7f
        E 0 92 2c 7f
        E 16 82 2c 00
        E 16 b2 0b 7f
        E 0 92 26 7f
        E 304 82 26 00
        E 16 b2 0b 7f
        E 0 92 3c 7f
        E 128 82 3c 00
        E 0 b2 0b 7f
        E 0 92 2c 7f
        E 16 82 2c 00
        E 176 b2 0b 7f
        E 0 92 2e 7f
        E 32 82 2e 00
        E 0 b2 0b 7f
        E 0 92 2c 7f
        E 112 82 2c 00
        E 16 b2 0b 7f
        E 0 92 2e 7f
        E 32 82 2e 00
        E 0 b2 0b 7f
        E 0 92 2c 7f
        E 112 82 2c 00
        E 16 b2 0b 7f
        E 0 92 3c 7f
        E 128 82 3c 00
        E 0 b2 0b 7f
        E 0 92 2c 7f
        E 16 82 2c 00
        E 176 b2 0b 7f
        E 0 92 2e 7f
        E 32 82 2e 00
        E 0 b2 0b 7f
        E 0 92 2c 7f
        E 112 82 2c 00
        E 16 b2 0b 7f
        E 0 92 2e 7f
        E 32 82 2e 00
        E 0 b2 0b 7f
        E 0 92 2c 7f
        E 112 82 2c 00
        E 16 b2 0b 7f
        E 0 92 3c 7f
        E 128 82 3c 00
        E 0 b2 0b 7f
        E 0 92 2c 7f
        E 16 82 2c 00
        E 16 b2 0b 7f
        E 0 92 2e 7f
        E 32 82 2e 00
        E 0 b2 0b 7f
        E 0 92 2c 7f
        E 112 82 2c 00
        E 176 b2 0b 7f
        E 0 92 26 7f
        E 144 82 26 00
        E 16 b2 0b 7f
        E 0 92 3c 7f
        E 128 82 3c 00
        E 0 b2 0b 7f
        E 0 92 2c 7f
        E 16 82 2c 00
        E 16 b2 0b 7f
        E 0 92 3c 7f
        E 128 82 3c 00
        E 0 b2 0b 7f
        E 0 92 2c 7f
        E 16 82 2c 00
        E 16 b2 0b 7f
        E 0 92 24 7f
        E 144 82 24 00
        E 176 b2 0b 7f
        E 0 92 3c 7f
        E 128 82 3c 00
        E 0 b2 0b 7f
        E 0 92 2c 7f
        E 16 82 2c 00
        E 176 b2 0b 7f
        E 0 92 2e 7f
        E 32 82 2e 00
        E 0 b2 0b 7f
        E 0 92 2c 7f
        E 112 82 2c 00
        E 16 b2 0b 7f
        E 0 92 2e 7f
        E 32 82 2e 00
        E 0 b2 0b 7f
        E 0 92 2c 7f
        E 112 82 2c 00
        E 16 b2 0b 7f
        E 0 92 3c 7f
        E 128 82 3c 00
        E 0 b2 0b 7f
        E 0 92 2c 7f
        E 16 82 2c 00
        E 176 b2 0b 7f
        E 0 92 2e 7f
        E 32 82 2e 00
        E 0 b2 0b 7f
        E 0 92 2c 7f
        E 112 82 2c 00
        E 16 b2 0b 7f
        E 0 92 2e 7f
        E 32 82 2e 00
        E 0 b2 0b 7f
        E 0 92 2c 7f
        E 112 82 2c 00
        E 16 b2 0b 7f
        E 0 92 3c 7f
        E 128 82 3c 00
        E 0 b2 0b 7f
        E 0 92 2c 7f
        E 16 82 2c 00
        E 16 b2 0b 7f
        E 0 92 2e 7f
        E 32 82 2e 00
        E 0 b2 0b 7f
        E 0 92 2c 7f
        E 112 82 2c 00
        E 176 b2 0b 7f
        E 0 92 24 7f
        E 144 82 24 00
        E 16 b2 0b 7f
        E 0 92 3c 7f
        E 128 82 3c 00
        E 0 b2 0b 7f
        E 0 92 2c 7f
        E 16 82 2c 00
        E 16 b2 0b 7f
        E 0 92 3c 7f
        E 128 82 3c 00
        E 0 b2 0b 7f
        E 0 92 2c 7f
        E 16 82 2c 00
        E 16 b2 0b 7f
        E 0 92 24 7f
        E 144 82 24 00
        E 176 b2 0b 7f
        E 0 92 3c 7f
        E 128 82 3c 00
        E 0 b2 0b 7f
        E 0 92 2c 7f
        E 16 82 2c 00
        E 176 b2 0b 7f
        E 0 92 29 7f
        E 144 82 29 00
        E 16 b2 0b 7f
        E 0 92 29 7f
        E 144 82 29 00
        E 16 b2 0b 7f
        E 0 92 3c 7f
        E 128 82 3c 00
        E 0 b2 0b 7f
        E 0 92 2c 7f
        E 176 82 2c 00
        E 16 b2 0b 7f
        E 0 92 3c 7f
        E 64 82 3c 00
        E 16 b2 0b 7f
        E 0 92 3c 7f
        E 64 82 3c 00
        E 16 b2 0b 7f
        E 0 92 3c 7f
        E 128 82 3c 00
        E 0 b2 0b 7f
        E 0 92 2c 7f
        E 16 82 2c 00
        E 16 b2 0b 7f
        E 0 92 3b 7f
        E 64 82 3b 00
        E 16 b2 0b 7f
        E 0 92 3b 7f
        E 64 82 3b 00
        E 16 b2 0b 7f
        E 0 92 3b 7f
        E 128 82 3b 00
        E 0 b2 0b 7f
        E 0 92 2c 7f
        E 16 82 2c 00
        E 16 b2 0b 7f
        E 0 92 39 7f
        E 64 82 39 00
        E 16 b2 0b 7f
        E 0 92 39 7f
        E 64 82 39 00
        E 16 b2 0b 7f
        E 0 92 39 7f
        E 112 82 39 00
        E 0 b2 0b 7f
        E 0 92 2c 7f
        E 32 82 2c 00
        E 16 b2 0b 7f
        E 0 92 3c 7f
        E 64 82 3c 00
        E 16 b2 0b 7f
        E 0 92 3c 7f
        E 64 82 3c 00
        E 16 b2 0b 7f
        E 0 92 3b 7f
        E 64 82 3b 00
        E 16 b2 0b 7f
        E 0 92 38 7f
        E 64 82 38 00
        E 16 b2 0b 7f
        E 0 92 30 7f
        E 144 82 30 00
        E 16 b2 0b 7f
        E 0 92 30 7f
        E 64 82 30 00
        E 16 b2 0b 7f
        E 0 92 30 7f
        E 64 82 30 00
        E 16 b2 0b 7f
        E 0 92 30 7f
        E 144 82 30 00
        E 16 b2 0b 7f
        E 0 92 30 7f
        E 64 82 30 00
        E 16 b2 0b 7f
        E 0 92 30 7f
        E 64 82 30 00
        E 16 b2 0b 7f
        E 0 92 30 7f
        E 144 82 30 00
        E 16 b2 0b 7f
        E 0 92 30 7f
        E 64 82 30 00
        E 16 b2 0b 7f
        E 0 92 30 7f
        E 64 82 30 00
        E 16 b2 0b 7f
        E 0 92 30 7f
        E 144 82 30 00
        E 16 b2 0b 7f
        E 0 92 30 7f
        E 64 82 30 00
        E 16 b2 0b 7f
        E 0 92 30 7f
        E 64 82 30 00
        E 16 b2 0b 7f
        E 0 92 30 7f
        E 144 82 30 00
        E 16 b2 0b 7f
        E 0 92 30 7f
        E 64 82 30 00
        E 16 b2 0b 7f
        E 0 92 30 7f
        E 64 82 30 00
        E 16 b2 0b 7f
        E 0 92 30 7f
        E 144 82 30 00
        E 16 b2 0b 7f
        E 0 92 30 7f
        E 64 82 30 00
        E 16 b2 0b 7f
        E 0 92 30 7f
        E 64 82 30 00
        E 16 b2 0b 7f
        E 0 92 30 7f
        E 144 82 30 00
        E 16 b2 0b 7f
        E 0 92 30 7f
        E 64 82 30 00
        E 16 b2 0b 7f
        E 0 92 30 7f
        E 64 82 30 00
        E 16 b2 0b 7f
        E 0 92 30 7f
        E 144 82 30 00
        E 16 b2 0b 7f
        E 0 92 30 7f
        E 64 82 30 00
        E 16 b2 0b 7f
        E 0 92 30 7f
        E 64 82 30 00
        E 16 b2 0b 7f
        E 0 92 30 7f
        E 144 82 30 00
        E 16 b2 0b 7f
        E 0 92 30 7f
        E 64 82 30 00
        E 16 b2 0b 7f
        E 0 92 30 7f
        E 64 82 30 00
        E 16 b2 0b 7f
        E 0 92 30 7f
        E 144 82 30 00
        E 16 b2 0b 7f
        E 0 92 30 7f
        E 64 82 30 00
        E 16 b2 0b 7f
        E 0 92 30 7f
        E 64 82 30 00
        E 16 b2 0b 7f
        E 0 92 30 7f
        E 144 82 30 00
        E 16 b2 0b 7f
        E 0 92 30 7f
        E 64 82 30 00
        E 16 b2 0b 7f
        E 0 92 30 7f
        E 48 82 30 00
        E 0 b2 7b 00
        E 0 ff 2f 00
      >
    >
  >
  <TRACK {32B63B03-71F6-4B4C-88E1-939B42DA8D58}
    NAME "NES - Noise / Drums [ch3]"
    PEAKCOL 11184810
    BEAT -1
    AUTOMODE 0
    PANLAWFLAGS 3
    VOLPAN 1 0 -1 -1 1
    MUTESOLO 0 0 0
    IPHASE 0
    PLAYOFFS 0 1
    ISBUS 0 0
    BUSCOMP 0 0 0 0 0
    SHOWINMIX 1 0.6667 0.5 1 0.5 0 0 0
    FIXEDLANES 9 0 0 0 0
    SEL 0
    REC 0 5088 1 0 0 0 0 0
    VU 2
    TRACKHEIGHT 0 0 0 0 0 0 0
    INQ 0 0 0 0.5 100 0 0 100
    NCHAN 2
    FX 1
    TRACKID {32B63B03-71F6-4B4C-88E1-939B42DA8D58}
    PERF 0
    MIDIOUT -1
    MAINSEND 1 0
    <FXCHAIN
      WNDRECT 24 52 700 560
      SHOW 0
      LASTSEL 0
      DOCKED 0
      BYPASS 0 0 0
      <JS "ReapNES Studio/ReapNES_Console.jsfx" ""
        2 15 1 10 80 10 100 2 1 15 1 5 60 10 80 1 1 0 50 0 0 15 1 0 80 0 0 0.500000 0.500000 0.400000 0.300000 0.800000 3 1 0 0 0 0 - - - - - - - - - - - - - - - - - - - - - - - - - -
      >
      FLOATPOS 0 0 0 0
      FXID {BA838FE0-2D60-400F-B086-6FB2DE9BFCB0}
      WAK 0 0
    >
    <ITEM
      POSITION 0
      LENGTH 70.2799399
      LOOP 0
      ALLTAKES 0
      FADEIN 0 0 0 0 0 0 0
      FADEOUT 0 0 0 0 0 0 0
      MUTE 0 0
      SEL 0
      IGUID {AFD08AE7-2FF1-43E7-922D-9F71C11ECC8A}
      <SOURCE MIDI
        HASDATA 1 480 QN
        CCINTERP 32
        E 1536 93 2a 66
        E 192 83 2a 00
        E 1856 93 2a 66
        E 192 83 2a 00
        E 1856 93 2a 66
        E 192 83 2a 00
        E 1856 93 2a 66
        E 192 83 2a 00
        E 1856 93 2a 66
        E 192 83 2a 00
        E 1856 93 2a 66
        E 192 83 2a 00
        E 1856 93 2a 66
        E 192 83 2a 00
        E 1856 93 2a 66
        E 192 83 2a 00
        E 1856 93 2a 66
        E 192 83 2a 00
        E 1856 93 2a 66
        E 192 83 2a 00
        E 1856 93 2a 66
        E 192 83 2a 00
        E 1856 93 2a 66
        E 192 83 2a 00
        E 320 93 2a 66
        E 16 83 2a 00
        E 208 93 2a 66
        E 16 83 2a 00
        E 208 93 2a 66
        E 16 83 2a 00
        E 208 93 2a 66
        E 16 83 2a 00
        E 208 93 2a 66
        E 16 83 2a 00
        E 208 93 2a 66
        E 16 83 2a 00
        E 208 93 2a 66
        E 128 83 2a 00
        E 320 93 2a 66
        E 16 83 2a 00
        E 208 93 2a 66
        E 16 83 2a 00
        E 208 93 2a 66
        E 16 83 2a 00
        E 208 93 2a 66
        E 16 83 2a 00
        E 208 93 2a 66
        E 16 83 2a 00
        E 208 93 2a 66
        E 16 83 2a 00
        E 208 93 2a 66
        E 128 83 2a 00
        E 320 93 2a 66
        E 16 83 2a 00
        E 208 93 2a 66
        E 16 83 2a 00
        E 208 93 2a 66
        E 16 83 2a 00
        E 208 93 2a 66
        E 16 83 2a 00
        E 208 93 2a 66
        E 16 83 2a 00
        E 208 93 2a 66
        E 16 83 2a 00
        E 208 93 2a 66
        E 128 83 2a 00
        E 320 93 2a 66
        E 16 83 2a 00
        E 208 93 2a 66
        E 16 83 2a 00
        E 208 93 2a 66
        E 16 83 2a 00
        E 208 93 2a 66
        E 16 83 2a 00
        E 208 93 2a 66
        E 16 83 2a 00
        E 208 93 2a 66
        E 16 83 2a 00
        E 208 93 2a 66
        E 128 83 2a 00
        E 320 93 2a 66
        E 16 83 2a 00
        E 176 93 2a 66
        E 16 83 2a 00
        E 176 93 2a 66
        E 16 83 2a 00
        E 176 93 2a 66
        E 16 83 2a 00
        E 176 93 2a 66
        E 16 83 2a 00
        E 176 93 2a 66
        E 16 83 2a 00
        E 176 93 2a 66
        E 128 83 2a 00
        E 256 93 2a 66
        E 16 83 2a 00
        E 176 93 2a 66
        E 16 83 2a 00
        E 176 93 2a 66
        E 16 83 2a 00
        E 176 93 2a 66
        E 16 83 2a 00
        E 176 93 2a 66
        E 16 83 2a 00
        E 176 93 2a 66
        E 16 83 2a 00
        E 176 93 2a 66
        E 128 83 2a 00
        E 256 93 2a 66
        E 16 83 2a 00
        E 176 93 2a 66
        E 16 83 2a 00
        E 176 93 2a 66
        E 16 83 2a 00
        E 176 93 2a 66
        E 16 83 2a 00
        E 176 93 2a 66
        E 16 83 2a 00
        E 176 93 2a 66
        E 16 83 2a 00
        E 176 93 2a 66
        E 128 83 2a 00
        E 2000 93 2a 7f
        E 48 83 2a 00
        E 112 93 2a 7f
        E 48 83 2a 00
        E 32 93 2a 7f
        E 48 83 2a 00
        E 32 93 2a 7f
        E 16 83 2a 00
        E 0 93 2a 7f
        E 16 83 2a 00
        E 0 93 2a 7f
        E 16 83 2a 00
        E 0 93 2a 3b
        E 16 83 2a 00
        E 0 93 2a 3b
        E 16 83 2a 00
        E 0 93 2a 3b
        E 16 83 2a 00
        E 0 93 2a 3b
        E 16 83 2a 00
        E 48 93 2a 7f
        E 48 83 2a 00
        E 32 93 2a 7f
        E 48 83 2a 00
        E 32 93 2a 7f
        E 48 83 2a 00
        E 112 93 2a 7f
        E 48 83 2a 00
        E 32 93 2a 7f
        E 48 83 2a 00
        E 32 93 2a 7f
        E 16 83 2a 00
        E 0 93 2a 7f
        E 16 83 2a 00
        E 0 93 2a 7f
        E 16 83 2a 00
        E 0 93 2a 3b
        E 16 83 2a 00
        E 0 93 2a 3b
        E 16 83 2a 00
        E 0 93 2a 3b
        E 16 83 2a 00
        E 0 93 2a 3b
        E 16 83 2a 00
        E 48 93 2a 7f
        E 48 83 2a 00
        E 32 93 2a 7f
        E 48 83 2a 00
        E 32 93 2a 7f
        E 48 83 2a 00
        E 112 93 2a 7f
        E 48 83 2a 00
        E 32 93 2a 7f
        E 48 83 2a 00
        E 32 93 2a 7f
        E 16 83 2a 00
        E 0 93 2a 7f
        E 16 83 2a 00
        E 0 93 2a 7f
        E 16 83 2a 00
        E 0 93 2a 3b
        E 16 83 2a 00
        E 0 93 2a 3b
        E 16 83 2a 00
        E 0 93 2a 3b
        E 16 83 2a 00
        E 0 93 2a 3b
        E 16 83 2a 00
        E 48 93 2a 7f
        E 48 83 2a 00
        E 32 93 2a 7f
        E 48 83 2a 00
        E 32 93 2a 7f
        E 48 83 2a 00
        E 112 93 2a 7f
        E 48 83 2a 00
        E 32 93 2a 7f
        E 48 83 2a 00
        E 32 93 2a 7f
        E 16 83 2a 00
        E 0 93 2a 7f
        E 16 83 2a 00
        E 0 93 2a 7f
        E 16 83 2a 00
        E 0 93 2a 3b
        E 16 83 2a 00
        E 0 93 2a 3b
        E 16 83 2a 00
        E 0 93 2a 3b
        E 16 83 2a 00
        E 0 93 2a 3b
        E 16 83 2a 00
        E 48 93 2a 7f
        E 48 83 2a 00
        E 32 93 2a 7f
        E 48 83 2a 00
        E 32 93 2a 7f
        E 48 83 2a 00
        E 112 93 2a 7f
        E 48 83 2a 00
        E 32 93 2a 7f
        E 48 83 2a 00
        E 32 93 2a 7f
        E 16 83 2a 00
        E 0 93 2a 7f
        E 16 83 2a 00
        E 0 93 2a 7f
        E 16 83 2a 00
        E 0 93 2a 3b
        E 16 83 2a 00
        E 0 93 2a 3b
        E 16 83 2a 00
        E 0 93 2a 3b
        E 16 83 2a 00
        E 0 93 2a 3b
        E 16 83 2a 00
        E 48 93 2a 7f
        E 48 83 2a 00
        E 32 93 2a 7f
        E 48 83 2a 00
        E 32 93 2a 7f
        E 48 83 2a 00
        E 112 93 2a 7f
        E 48 83 2a 00
        E 32 93 2a 7f
        E 48 83 2a 00
        E 32 93 2a 7f
        E 16 83 2a 00
        E 0 93 2a 7f
        E 16 83 2a 00
        E 0 93 2a 7f
        E 16 83 2a 00
        E 0 93 2a 3b
        E 16 83 2a 00
        E 0 93 2a 3b
        E 16 83 2a 00
        E 0 93 2a 3b
        E 16 83 2a 00
        E 0 93 2a 3b
        E 16 83 2a 00
        E 48 93 2a 7f
        E 48 83 2a 00
        E 32 93 2a 7f
        E 48 83 2a 00
        E 32 93 2a 7f
        E 48 83 2a 00
        E 112 93 2a 7f
        E 48 83 2a 00
        E 32 93 2a 7f
        E 48 83 2a 00
        E 32 93 2a 7f
        E 16 83 2a 00
        E 0 93 2a 7f
        E 16 83 2a 00
        E 0 93 2a 7f
        E 16 83 2a 00
        E 0 93 2a 3b
        E 16 83 2a 00
        E 0 93 2a 3b
        E 16 83 2a 00
        E 0 93 2a 3b
        E 16 83 2a 00
        E 0 93 2a 3b
        E 16 83 2a 00
        E 48 93 2a 7f
        E 48 83 2a 00
        E 32 93 2a 7f
        E 48 83 2a 00
        E 32 93 2a 7f
        E 48 83 2a 00
        E 112 93 2a 7f
        E 48 83 2a 00
        E 32 93 2a 7f
        E 48 83 2a 00
        E 32 93 2a 7f
        E 16 83 2a 00
        E 0 93 2a 7f
        E 16 83 2a 00
        E 0 93 2a 7f
        E 16 83 2a 00
        E 0 93 2a 3b
        E 16 83 2a 00
        E 0 93 2a 3b
        E 16 83 2a 00
        E 0 93 2a 3b
        E 16 83 2a 00
        E 0 93 2a 3b
        E 16 83 2a 00
        E 48 93 2a 7f
        E 48 83 2a 00
        E 32 93 2a 7f
        E 48 83 2a 00
        E 32 93 2a 7f
        E 48 83 2a 00
        E 112 93 2a 7f
        E 48 83 2a 00
        E 32 93 2a 7f
        E 48 83 2a 00
        E 32 93 2a 7f
        E 16 83 2a 00
        E 0 93 2a 7f
        E 16 83 2a 00
        E 0 93 2a 7f
        E 16 83 2a 00
        E 0 93 2a 3b
        E 16 83 2a 00
        E 0 93 2a 3b
        E 16 83 2a 00
        E 0 93 2a 3b
        E 16 83 2a 00
        E 0 93 2a 3b
        E 16 83 2a 00
        E 48 93 2a 7f
        E 48 83 2a 00
        E 32 93 2a 7f
        E 48 83 2a 00
        E 32 93 2a 7f
        E 48 83 2a 00
        E 112 93 2a 7f
        E 48 83 2a 00
        E 32 93 2a 7f
        E 48 83 2a 00
        E 32 93 2a 7f
        E 16 83 2a 00
        E 0 93 2a 7f
        E 16 83 2a 00
        E 0 93 2a 7f
        E 16 83 2a 00
        E 0 93 2a 3b
        E 16 83 2a 00
        E 0 93 2a 3b
        E 16 83 2a 00
        E 0 93 2a 3b
        E 16 83 2a 00
        E 0 93 2a 3b
        E 16 83 2a 00
        E 48 93 2a 7f
        E 48 83 2a 00
        E 32 93 2a 7f
        E 48 83 2a 00
        E 32 93 2a 7f
        E 48 83 2a 00
        E 112 93 2a 7f
        E 48 83 2a 00
        E 32 93 2a 7f
        E 48 83 2a 00
        E 32 93 2a 7f
        E 16 83 2a 00
        E 0 93 2a 7f
        E 16 83 2a 00
        E 0 93 2a 7f
        E 16 83 2a 00
        E 0 93 2a 3b
        E 16 83 2a 00
        E 0 93 2a 3b
        E 16 83 2a 00
        E 0 93 2a 3b
        E 16 83 2a 00
        E 0 93 2a 3b
        E 16 83 2a 00
        E 48 93 2a 7f
        E 48 83 2a 00
        E 32 93 2a 7f
        E 48 83 2a 00
        E 32 93 2a 7f
        E 48 83 2a 00
        E 112 93 2a 7f
        E 48 83 2a 00
        E 32 93 2a 7f
        E 48 83 2a 00
        E 32 93 2a 7f
        E 16 83 2a 00
        E 0 93 2a 7f
        E 16 83 2a 00
        E 0 93 2a 7f
        E 16 83 2a 00
        E 0 93 2a 3b
        E 16 83 2a 00
        E 0 93 2a 3b
        E 16 83 2a 00
        E 0 93 2a 3b
        E 16 83 2a 00
        E 0 93 2a 3b
        E 16 83 2a 00
        E 48 93 2a 7f
        E 48 83 2a 00
        E 32 93 2a 7f
        E 48 83 2a 00
        E 32 93 2a 7f
        E 48 83 2a 00
        E 112 93 2a 7f
        E 48 83 2a 00
        E 32 93 2a 7f
        E 48 83 2a 00
        E 32 93 2a 7f
        E 16 83 2a 00
        E 0 93 2a 7f
        E 16 83 2a 00
        E 0 93 2a 7f
        E 16 83 2a 00
        E 0 93 2a 3b
        E 16 83 2a 00
        E 0 93 2a 3b
        E 16 83 2a 00
        E 0 93 2a 3b
        E 16 83 2a 00
        E 0 93 2a 3b
        E 16 83 2a 00
        E 48 93 2a 7f
        E 48 83 2a 00
        E 32 93 2a 7f
        E 48 83 2a 00
        E 32 93 2a 7f
        E 48 83 2a 00
        E 112 93 2a 7f
        E 48 83 2a 00
        E 32 93 2a 7f
        E 48 83 2a 00
        E 32 93 2a 7f
        E 16 83 2a 00
        E 0 93 2a 7f
        E 16 83 2a 00
        E 0 93 2a 7f
        E 16 83 2a 00
        E 0 93 2a 3b
        E 16 83 2a 00
        E 0 93 2a 3b
        E 16 83 2a 00
        E 0 93 2a 3b
        E 16 83 2a 00
        E 0 93 2a 3b
        E 16 83 2a 00
        E 48 93 2a 7f
        E 48 83 2a 00
        E 32 93 2a 7f
        E 48 83 2a 00
        E 32 93 2a 7f
        E 48 83 2a 00
        E 112 93 2a 7f
        E 48 83 2a 00
        E 32 93 2a 7f
        E 48 83 2a 00
        E 32 93 2a 7f
        E 16 83 2a 00
        E 0 93 2a 7f
        E 16 83 2a 00
        E 0 93 2a 7f
        E 16 83 2a 00
        E 0 93 2a 3b
        E 16 83 2a 00
        E 0 93 2a 3b
        E 16 83 2a 00
        E 0 93 2a 3b
        E 16 83 2a 00
        E 0 93 2a 3b
        E 16 83 2a 00
        E 48 93 2a 7f
        E 48 83 2a 00
        E 32 93 2a 7f
        E 48 83 2a 00
        E 32 93 2a 7f
        E 48 83 2a 00
        E 112 93 2a 7f
        E 48 83 2a 00
        E 32 93 2a 7f
        E 48 83 2a 00
        E 32 93 2a 7f
        E 16 83 2a 00
        E 0 93 2a 7f
        E 16 83 2a 00
        E 0 93 2a 7f
        E 16 83 2a 00
        E 0 93 2a 3b
        E 16 83 2a 00
        E 0 93 2a 3b
        E 16 83 2a 00
        E 0 93 2a 3b
        E 16 83 2a 00
        E 0 93 2a 3b
        E 16 83 2a 00
        E 48 93 2a 7f
        E 48 83 2a 00
        E 32 93 2a 7f
        E 48 83 2a 00
        E 32 93 2a 7f
        E 48 83 2a 00
        E 112 93 2a 7f
        E 48 83 2a 00
        E 32 93 2a 7f
        E 48 83 2a 00
        E 32 93 2a 7f
        E 16 83 2a 00
        E 0 93 2a 7f
        E 16 83 2a 00
        E 0 93 2a 7f
        E 16 83 2a 00
        E 0 93 2a 3b
        E 16 83 2a 00
        E 0 93 2a 3b
        E 16 83 2a 00
        E 0 93 2a 3b
        E 16 83 2a 00
        E 0 93 2a 3b
        E 16 83 2a 00
        E 48 93 2a 7f
        E 48 83 2a 00
        E 32 93 2a 7f
        E 48 83 2a 00
        E 32 93 2a 7f
        E 48 83 2a 00
        E 112 93 2a 7f
        E 48 83 2a 00
        E 32 93 2a 7f
        E 48 83 2a 00
        E 32 93 2a 7f
        E 16 83 2a 00
        E 0 93 2a 7f
        E 16 83 2a 00
        E 0 93 2a 7f
        E 16 83 2a 00
        E 0 93 2a 3b
        E 16 83 2a 00
        E 0 93 2a 3b
        E 16 83 2a 00
        E 0 93 2a 3b
        E 16 83 2a 00
        E 0 93 2a 3b
        E 16 83 2a 00
        E 48 93 2a 7f
        E 48 83 2a 00
        E 32 93 2a 7f
        E 48 83 2a 00
        E 32 93 2a 7f
        E 48 83 2a 00
        E 112 93 2a 7f
        E 48 83 2a 00
        E 32 93 2a 7f
        E 48 83 2a 00
        E 32 93 2a 7f
        E 16 83 2a 00
        E 0 93 2a 7f
        E 16 83 2a 00
        E 0 93 2a 7f
        E 16 83 2a 00
        E 0 93 2a 3b
        E 16 83 2a 00
        E 0 93 2a 3b
        E 16 83 2a 00
        E 0 93 2a 3b
        E 16 83 2a 00
        E 0 93 2a 3b
        E 16 83 2a 00
        E 48 93 2a 7f
        E 48 83 2a 00
        E 32 93 2a 7f
        E 48 83 2a 00
        E 32 93 2a 7f
        E 48 83 2a 00
        E 112 93 2a 7f
        E 48 83 2a 00
        E 32 93 2a 7f
        E 48 83 2a 00
        E 32 93 2a 7f
        E 16 83 2a 00
        E 0 93 2a 7f
        E 16 83 2a 00
        E 0 93 2a 7f
        E 16 83 2a 00
        E 0 93 2a 3b
        E 16 83 2a 00
        E 0 93 2a 3b
        E 16 83 2a 00
        E 0 93 2a 3b
        E 16 83 2a 00
        E 0 93 2a 3b
        E 16 83 2a 00
        E 48 93 2a 7f
        E 48 83 2a 00
        E 32 93 2a 7f
        E 48 83 2a 00
        E 32 93 2a 7f
        E 48 83 2a 00
        E 112 93 2a 7f
        E 48 83 2a 00
        E 32 93 2a 7f
        E 48 83 2a 00
        E 32 93 2a 7f
        E 16 83 2a 00
        E 0 93 2a 7f
        E 16 83 2a 00
        E 0 93 2a 7f
        E 16 83 2a 00
        E 0 93 2a 3b
        E 16 83 2a 00
        E 0 93 2a 3b
        E 16 83 2a 00
        E 0 93 2a 3b
        E 16 83 2a 00
        E 0 93 2a 3b
        E 16 83 2a 00
        E 48 93 2a 7f
        E 48 83 2a 00
        E 32 93 2a 7f
        E 48 83 2a 00
        E 32 93 2a 7f
        E 48 83 2a 00
        E 112 93 2a 7f
        E 48 83 2a 00
        E 32 93 2a 7f
        E 48 83 2a 00
        E 32 93 2a 7f
        E 16 83 2a 00
        E 0 93 2a 7f
        E 16 83 2a 00
        E 0 93 2a 7f
        E 16 83 2a 00
        E 0 93 2a 3b
        E 16 83 2a 00
        E 0 93 2a 3b
        E 16 83 2a 00
        E 0 93 2a 3b
        E 16 83 2a 00
        E 0 93 2a 3b
        E 16 83 2a 00
        E 48 93 2a 7f
        E 48 83 2a 00
        E 32 93 2a 7f
        E 48 83 2a 00
        E 32 93 2a 7f
        E 48 83 2a 00
        E 112 93 2a 7f
        E 48 83 2a 00
        E 32 93 2a 7f
        E 48 83 2a 00
        E 32 93 2a 7f
        E 16 83 2a 00
        E 0 93 2a 7f
        E 16 83 2a 00
        E 0 93 2a 7f
        E 16 83 2a 00
        E 0 93 2a 3b
        E 16 83 2a 00
        E 0 93 2a 3b
        E 16 83 2a 00
        E 0 93 2a 3b
        E 16 83 2a 00
        E 0 93 2a 3b
        E 16 83 2a 00
        E 48 93 2a 7f
        E 48 83 2a 00
        E 32 93 2a 7f
        E 48 83 2a 00
        E 32 93 2a 7f
        E 48 83 2a 00
        E 112 93 2a 7f
        E 48 83 2a 00
        E 32 93 2a 7f
        E 48 83 2a 00
        E 32 93 2a 7f
        E 16 83 2a 00
        E 0 93 2a 7f
        E 16 83 2a 00
        E 0 93 2a 7f
        E 16 83 2a 00
        E 0 93 2a 3b
        E 16 83 2a 00
        E 0 93 2a 3b
        E 16 83 2a 00
        E 0 93 2a 3b
        E 16 83 2a 00
        E 0 93 2a 3b
        E 16 83 2a 00
        E 48 93 2a 7f
        E 48 83 2a 00
        E 32 93 2a 7f
        E 48 83 2a 00
        E 32 93 2a 7f
        E 48 83 2a 00
        E 112 93 2a 7f
        E 48 83 2a 00
        E 32 93 2a 7f
        E 48 83 2a 00
        E 32 93 2a 7f
        E 16 83 2a 00
        E 0 93 2a 7f
        E 16 83 2a 00
        E 0 93 2a 7f
        E 16 83 2a 00
        E 0 93 2a 3b
        E 16 83 2a 00
        E 0 93 2a 3b
        E 16 83 2a 00
        E 0 93 2a 3b
        E 16 83 2a 00
        E 0 93 2a 3b
        E 16 83 2a 00
        E 48 93 2a 7f
        E 48 83 2a 00
        E 32 93 2a 7f
        E 48 83 2a 00
        E 32 93 2a 7f
        E 48 83 2a 00
        E 112 93 2a 7f
        E 48 83 2a 00
        E 32 93 2a 7f
        E 48 83 2a 00
        E 32 93 2a 7f
        E 16 83 2a 00
        E 0 93 2a 7f
        E 16 83 2a 00
        E 0 93 2a 7f
        E 16 83 2a 00
        E 0 93 2a 3b
        E 16 83 2a 00
        E 0 93 2a 3b
        E 16 83 2a 00
        E 0 93 2a 3b
        E 16 83 2a 00
        E 0 93 2a 3b
        E 16 83 2a 00
        E 48 93 2a 7f
        E 48 83 2a 00
        E 32 93 2a 7f
        E 48 83 2a 00
        E 32 93 2a 7f
        E 48 83 2a 00
        E 112 93 2a 7f
        E 48 83 2a 00
        E 32 93 2a 7f
        E 48 83 2a 00
        E 32 93 2a 7f
        E 16 83 2a 00
        E 0 93 2a 7f
        E 16 83 2a 00
        E 0 93 2a 7f
        E 16 83 2a 00
        E 0 93 2a 3b
        E 16 83 2a 00
        E 0 93 2a 3b
        E 16 83 2a 00
        E 0 93 2a 3b
        E 16 83 2a 00
        E 0 93 2a 3b
        E 16 83 2a 00
        E 48 93 2a 7f
        E 48 83 2a 00
        E 32 93 2a 7f
        E 48 83 2a 00
        E 32 93 2a 7f
        E 48 83 2a 00
        E 112 93 2a 7f
        E 48 83 2a 00
        E 32 93 2a 7f
        E 48 83 2a 00
        E 32 93 2a 7f
        E 16 83 2a 00
        E 0 93 2a 7f
        E 16 83 2a 00
        E 0 93 2a 7f
        E 16 83 2a 00
        E 0 93 2a 3b
        E 16 83 2a 00
        E 0 93 2a 3b
        E 16 83 2a 00
        E 0 93 2a 3b
        E 16 83 2a 00
        E 0 93 2a 3b
        E 16 83 2a 00
        E 48 93 2a 7f
        E 48 83 2a 00
        E 32 93 2a 7f
        E 48 83 2a 00
        E 32 93 2a 7f
        E 48 83 2a 00
        E 112 93 2a 7f
        E 48 83 2a 00
        E 32 93 2a 7f
        E 48 83 2a 00
        E 32 93 2a 7f
        E 16 83 2a 00
        E 0 93 2a 7f
        E 16 83 2a 00
        E 0 93 2a 7f
        E 16 83 2a 00
        E 0 93 2a 3b
        E 16 83 2a 00
        E 0 93 2a 3b
        E 16 83 2a 00
        E 0 93 2a 3b
        E 16 83 2a 00
        E 0 93 2a 3b
        E 16 83 2a 00
        E 48 93 2a 7f
        E 48 83 2a 00
        E 32 93 2a 7f
        E 48 83 2a 00
        E 32 93 2a 7f
        E 48 83 2a 00
        E 112 93 2a 7f
        E 48 83 2a 00
        E 32 93 2a 7f
        E 48 83 2a 00
        E 32 93 2a 7f
        E 16 83 2a 00
        E 0 93 2a 7f
        E 16 83 2a 00
        E 0 93 2a 7f
        E 16 83 2a 00
        E 0 93 2a 3b
        E 16 83 2a 00
        E 0 93 2a 3b
        E 16 83 2a 00
        E 0 93 2a 3b
        E 16 83 2a 00
        E 0 93 2a 3b
        E 16 83 2a 00
        E 48 93 2a 7f
        E 48 83 2a 00
        E 32 93 2a 7f
        E 48 83 2a 00
        E 32 93 2a 7f
        E 48 83 2a 00
        E 112 93 2a 7f
        E 48 83 2a 00
        E 32 93 2a 7f
        E 48 83 2a 00
        E 32 93 2a 7f
        E 16 83 2a 00
        E 0 93 2a 7f
        E 16 83 2a 00
        E 0 93 2a 7f
        E 16 83 2a 00
        E 0 93 2a 3b
        E 16 83 2a 00
        E 0 93 2a 3b
        E 16 83 2a 00
        E 0 93 2a 3b
        E 16 83 2a 00
        E 0 93 2a 3b
        E 16 83 2a 00
        E 48 93 2a 7f
        E 48 83 2a 00
        E 32 93 2a 7f
        E 48 83 2a 00
        E 32 93 2a 7f
        E 48 83 2a 00
        E 112 93 2a 7f
        E 48 83 2a 00
        E 32 93 2a 7f
        E 48 83 2a 00
        E 32 93 2a 7f
        E 16 83 2a 00
        E 0 93 2a 7f
        E 16 83 2a 00
        E 0 93 2a 7f
        E 16 83 2a 00
        E 0 93 2a 3b
        E 16 83 2a 00
        E 0 93 2a 3b
        E 16 83 2a 00
        E 0 93 2a 3b
        E 16 83 2a 00
        E 0 93 2a 3b
        E 16 83 2a 00
        E 48 93 2a 7f
        E 48 83 2a 00
        E 32 93 2a 7f
        E 48 83 2a 00
        E 32 93 2a 7f
        E 48 83 2a 00
        E 112 93 2a 7f
        E 48 83 2a 00
        E 32 93 2a 7f
        E 48 83 2a 00
        E 32 93 2a 7f
        E 16 83 2a 00
        E 0 93 2a 7f
        E 16 83 2a 00
        E 0 93 2a 7f
        E 16 83 2a 00
        E 0 93 2a 3b
        E 16 83 2a 00
        E 0 93 2a 3b
        E 16 83 2a 00
        E 0 93 2a 3b
        E 16 83 2a 00
        E 0 93 2a 3b
        E 16 83 2a 00
        E 48 93 2a 7f
        E 48 83 2a 00
        E 32 93 2a 7f
        E 48 83 2a 00
        E 32 93 2a 7f
        E 48 83 2a 00
        E 112 93 2a 7f
        E 48 83 2a 00
        E 32 93 2a 7f
        E 48 83 2a 00
        E 32 93 2a 7f
        E 16 83 2a 00
        E 0 93 2a 7f
        E 16 83 2a 00
        E 0 93 2a 7f
        E 16 83 2a 00
        E 0 93 2a 3b
        E 16 83 2a 00
        E 0 93 2a 3b
        E 16 83 2a 00
        E 0 93 2a 3b
        E 16 83 2a 00
        E 0 93 2a 3b
        E 16 83 2a 00
        E 48 93 2a 7f
        E 48 83 2a 00
        E 32 93 2a 7f
        E 48 83 2a 00
        E 32 93 2a 7f
        E 48 83 2a 00
        E 112 93 2a 7f
        E 48 83 2a 00
        E 32 93 2a 7f
        E 48 83 2a 00
        E 32 93 2a 7f
        E 16 83 2a 00
        E 0 93 2a 7f
        E 16 83 2a 00
        E 0 93 2a 7f
        E 16 83 2a 00
        E 0 93 2a 3b
        E 16 83 2a 00
        E 0 93 2a 3b
        E 16 83 2a 00
        E 0 93 2a 3b
        E 16 83 2a 00
        E 0 93 2a 3b
        E 16 83 2a 00
        E 48 93 2a 7f
        E 48 83 2a 00
        E 32 93 2a 7f
        E 48 83 2a 00
        E 32 93 2a 7f
        E 48 83 2a 00
        E 112 93 2a 7f
        E 48 83 2a 00
        E 32 93 2a 7f
        E 48 83 2a 00
        E 32 93 2a 7f
        E 16 83 2a 00
        E 0 93 2a 7f
        E 16 83 2a 00
        E 0 93 2a 7f
        E 16 83 2a 00
        E 0 93 2a 3b
        E 16 83 2a 00
        E 0 93 2a 3b
        E 16 83 2a 00
        E 0 93 2a 3b
        E 16 83 2a 00
        E 0 93 2a 3b
        E 16 83 2a 00
        E 48 93 2a 7f
        E 48 83 2a 00
        E 32 93 2a 7f
        E 48 83 2a 00
        E 32 93 2a 7f
        E 48 83 2a 00
        E 112 93 2a 7f
        E 48 83 2a 00
        E 32 93 2a 7f
        E 48 83 2a 00
        E 32 93 2a 7f
        E 16 83 2a 00
        E 0 93 2a 7f
        E 16 83 2a 00
        E 0 93 2a 7f
        E 16 83 2a 00
        E 0 93 2a 3b
        E 16 83 2a 00
        E 0 93 2a 3b
        E 16 83 2a 00
        E 0 93 2a 3b
        E 16 83 2a 00
        E 0 93 2a 3b
        E 16 83 2a 00
        E 48 93 2a 7f
        E 48 83 2a 00
        E 32 93 2a 7f
        E 48 83 2a 00
        E 32 93 2a 7f
        E 48 83 2a 00
        E 112 93 2a 7f
        E 48 83 2a 00
        E 32 93 2a 7f
        E 48 83 2a 00
        E 32 93 2a 7f
        E 16 83 2a 00
        E 0 93 2a 7f
        E 16 83 2a 00
        E 0 93 2a 7f
        E 16 83 2a 00
        E 0 93 2a 3b
        E 16 83 2a 00
        E 0 93 2a 3b
        E 16 83 2a 00
        E 0 93 2a 3b
        E 16 83 2a 00
        E 0 93 2a 3b
        E 16 83 2a 00
        E 48 93 2a 7f
        E 48 83 2a 00
        E 32 93 2a 7f
        E 48 83 2a 00
        E 32 93 2a 7f
        E 48 83 2a 00
        E 112 93 2a 7f
        E 48 83 2a 00
        E 32 93 2a 7f
        E 48 83 2a 00
        E 32 93 2a 7f
        E 16 83 2a 00
        E 0 93 2a 7f
        E 16 83 2a 00
        E 0 93 2a 7f
        E 16 83 2a 00
        E 0 93 2a 3b
        E 16 83 2a 00
        E 0 93 2a 3b
        E 16 83 2a 00
        E 0 93 2a 3b
        E 16 83 2a 00
        E 0 93 2a 3b
        E 16 83 2a 00
        E 48 93 2a 7f
        E 48 83 2a 00
        E 32 93 2a 7f
        E 48 83 2a 00
        E 32 93 2a 7f
        E 48 83 2a 00
        E 112 93 2a 7f
        E 48 83 2a 00
        E 32 93 2a 7f
        E 48 83 2a 00
        E 32 93 2a 7f
        E 16 83 2a 00
        E 0 93 2a 7f
        E 16 83 2a 00
        E 0 93 2a 7f
        E 16 83 2a 00
        E 0 93 2a 3b
        E 16 83 2a 00
        E 0 93 2a 3b
        E 16 83 2a 00
        E 0 93 2a 3b
        E 16 83 2a 00
        E 0 93 2a 3b
        E 16 83 2a 00
        E 48 93 2a 7f
        E 48 83 2a 00
        E 32 93 2a 7f
        E 48 83 2a 00
        E 32 93 2a 7f
        E 48 83 2a 00
        E 112 93 2a 7f
        E 48 83 2a 00
        E 32 93 2a 7f
        E 48 83 2a 00
        E 32 93 2a 7f
        E 16 83 2a 00
        E 0 93 2a 7f
        E 16 83 2a 00
        E 0 93 2a 7f
        E 16 83 2a 00
        E 0 93 2a 3b
        E 16 83 2a 00
        E 0 93 2a 3b
        E 16 83 2a 00
        E 0 93 2a 3b
        E 16 83 2a 00
        E 0 93 2a 3b
        E 16 83 2a 00
        E 48 93 2a 7f
        E 48 83 2a 00
        E 32 93 2a 7f
        E 48 83 2a 00
        E 32 93 2a 7f
        E 48 83 2a 00
        E 112 93 2a 7f
        E 48 83 2a 00
        E 32 93 2a 7f
        E 48 83 2a 00
        E 32 93 2a 7f
        E 16 83 2a 00
        E 0 93 2a 7f
        E 16 83 2a 00
        E 0 93 2a 7f
        E 16 83 2a 00
        E 0 93 2a 3b
        E 16 83 2a 00
        E 0 93 2a 3b
        E 16 83 2a 00
        E 0 93 2a 3b
        E 16 83 2a 00
        E 0 93 2a 3b
        E 16 83 2a 00
        E 48 93 2a 7f
        E 48 83 2a 00
        E 32 93 2a 7f
        E 48 83 2a 00
        E 32 93 2a 7f
        E 48 83 2a 00
        E 112 93 2a 7f
        E 48 83 2a 00
        E 32 93 2a 7f
        E 48 83 2a 00
        E 32 93 2a 7f
        E 16 83 2a 00
        E 0 93 2a 7f
        E 16 83 2a 00
        E 0 93 2a 7f
        E 16 83 2a 00
        E 0 93 2a 3b
        E 16 83 2a 00
        E 0 93 2a 3b
        E 16 83 2a 00
        E 0 93 2a 3b
        E 16 83 2a 00
        E 0 93 2a 3b
        E 16 83 2a 00
        E 48 93 2a 7f
        E 48 83 2a 00
        E 32 93 2a 7f
        E 48 83 2a 00
        E 32 93 2a 7f
        E 48 83 2a 00
        E 112 93 2a 7f
        E 48 83 2a 00
        E 32 93 2a 7f
        E 48 83 2a 00
        E 32 93 2a 7f
        E 16 83 2a 00
        E 0 93 2a 7f
        E 16 83 2a 00
        E 0 93 2a 7f
        E 16 83 2a 00
        E 0 93 2a 3b
        E 16 83 2a 00
        E 0 93 2a 3b
        E 16 83 2a 00
        E 0 93 2a 3b
        E 16 83 2a 00
        E 0 93 2a 3b
        E 16 83 2a 00
        E 48 93 2a 7f
        E 48 83 2a 00
        E 32 93 2a 7f
        E 48 83 2a 00
        E 32 93 2a 7f
        E 48 83 2a 00
        E 112 93 2a 7f
        E 48 83 2a 00
        E 32 93 2a 7f
        E 48 83 2a 00
        E 32 93 2a 7f
        E 16 83 2a 00
        E 0 93 2a 7f
        E 16 83 2a 00
        E 0 93 2a 7f
        E 16 83 2a 00
        E 0 93 2a 3b
        E 16 83 2a 00
        E 0 93 2a 3b
        E 16 83 2a 00
        E 0 93 2a 3b
        E 16 83 2a 00
        E 0 93 2a 3b
        E 16 83 2a 00
        E 48 93 2a 7f
        E 48 83 2a 00
        E 32 93 2a 7f
        E 48 83 2a 00
        E 32 93 2a 7f
        E 48 83 2a 00
        E 112 93 2a 7f
        E 48 83 2a 00
        E 32 93 2a 7f
        E 48 83 2a 00
        E 32 93 2a 7f
        E 16 83 2a 00
        E 0 93 2a 7f
        E 16 83 2a 00
        E 0 93 2a 7f
        E 16 83 2a 00
        E 0 93 2a 3b
        E 16 83 2a 00
        E 0 93 2a 3b
        E 16 83 2a 00
        E 0 93 2a 3b
        E 16 83 2a 00
        E 0 93 2a 3b
        E 16 83 2a 00
        E 48 93 2a 7f
        E 48 83 2a 00
        E 32 93 2a 7f
        E 48 83 2a 00
        E 32 93 2a 7f
        E 48 83 2a 00
        E 112 93 2a 7f
        E 48 83 2a 00
        E 32 93 2a 7f
        E 48 83 2a 00
        E 32 93 2a 7f
        E 16 83 2a 00
        E 0 93 2a 7f
        E 16 83 2a 00
        E 0 93 2a 7f
        E 16 83 2a 00
        E 0 93 2a 3b
        E 16 83 2a 00
        E 0 93 2a 3b
        E 16 83 2a 00
        E 0 93 2a 3b
        E 16 83 2a 00
        E 0 93 2a 3b
        E 16 83 2a 00
        E 48 93 2a 7f
        E 48 83 2a 00
        E 32 93 2a 7f
        E 48 83 2a 00
        E 32 93 2a 7f
        E 48 83 2a 00
        E 112 93 2a 7f
        E 48 83 2a 00
        E 32 93 2a 7f
        E 48 83 2a 00
        E 32 93 2a 7f
        E 16 83 2a 00
        E 0 93 2a 7f
        E 16 83 2a 00
        E 0 93 2a 7f
        E 16 83 2a 00
        E 0 93 2a 3b
        E 16 83 2a 00
        E 0 93 2a 3b
        E 16 83 2a 00
        E 0 93 2a 3b
        E 16 83 2a 00
        E 0 93 2a 3b
        E 16 83 2a 00
        E 48 93 2a 7f
        E 48 83 2a 00
        E 32 93 2a 7f
        E 48 83 2a 00
        E 32 93 2a 7f
        E 48 83 2a 00
        E 112 93 2a 7f
        E 48 83 2a 00
        E 32 93 2a 7f
        E 48 83 2a 00
        E 32 93 2a 7f
        E 16 83 2a 00
        E 0 93 2a 7f
        E 16 83 2a 00
        E 0 93 2a 7f
        E 16 83 2a 00
        E 0 93 2a 3b
        E 16 83 2a 00
        E 0 93 2a 3b
        E 16 83 2a 00
        E 0 93 2a 3b
        E 16 83 2a 00
        E 0 93 2a 3b
        E 16 83 2a 00
        E 48 93 2a 7f
        E 48 83 2a 00
        E 32 93 2a 7f
        E 48 83 2a 00
        E 32 93 2a 7f
        E 48 83 2a 00
        E 112 93 2a 7f
        E 48 83 2a 00
        E 32 93 2a 7f
        E 48 83 2a 00
        E 32 93 2a 7f
        E 16 83 2a 00
        E 0 93 2a 7f
        E 16 83 2a 00
        E 0 93 2a 7f
        E 16 83 2a 00
        E 0 93 2a 3b
        E 16 83 2a 00
        E 0 93 2a 3b
        E 16 83 2a 00
        E 0 93 2a 3b
        E 16 83 2a 00
        E 0 93 2a 3b
        E 16 83 2a 00
        E 48 93 2a 7f
        E 48 83 2a 00
        E 32 93 2a 7f
        E 48 83 2a 00
        E 32 93 2a 7f
        E 48 83 2a 00
        E 112 93 2a 7f
        E 48 83 2a 00
        E 32 93 2a 7f
        E 48 83 2a 00
        E 32 93 2a 7f
        E 16 83 2a 00
        E 0 93 2a 7f
        E 16 83 2a 00
        E 0 93 2a 7f
        E 16 83 2a 00
        E 0 93 2a 3b
        E 16 83 2a 00
        E 0 93 2a 3b
        E 16 83 2a 00
        E 0 93 2a 3b
        E 16 83 2a 00
        E 0 93 2a 3b
        E 16 83 2a 00
        E 48 93 2a 7f
        E 48 83 2a 00
        E 32 93 2a 7f
        E 48 83 2a 00
        E 32 93 2a 7f
        E 48 83 2a 00
        E 112 93 2a 7f
        E 48 83 2a 00
        E 32 93 2a 7f
        E 48 83 2a 00
        E 32 93 2a 7f
        E 16 83 2a 00
        E 0 93 2a 7f
        E 16 83 2a 00
        E 0 93 2a 7f
        E 16 83 2a 00
        E 0 93 2a 3b
        E 16 83 2a 00
        E 0 93 2a 3b
        E 16 83 2a 00
        E 0 93 2a 3b
        E 16 83 2a 00
        E 0 93 2a 3b
        E 16 83 2a 00
        E 48 93 2a 7f
        E 48 83 2a 00
        E 32 93 2a 7f
        E 48 83 2a 00
        E 32 93 2a 7f
        E 48 83 2a 00
        E 112 93 2a 7f
        E 48 83 2a 00
        E 32 93 2a 7f
        E 48 83 2a 00
        E 32 93 2a 7f
        E 16 83 2a 00
        E 0 93 2a 7f
        E 16 83 2a 00
        E 0 93 2a 7f
        E 16 83 2a 00
        E 0 93 2a 3b
        E 16 83 2a 00
        E 0 93 2a 3b
        E 16 83 2a 00
        E 0 93 2a 3b
        E 16 83 2a 00
        E 0 93 2a 3b
        E 16 83 2a 00
        E 48 93 2a 7f
        E 48 83 2a 00
        E 32 93 2a 7f
        E 48 83 2a 00
        E 32 93 2a 7f
        E 48 83 2a 00
        E 112 93 2a 7f
        E 48 83 2a 00
        E 32 93 2a 7f
        E 48 83 2a 00
        E 0 b3 7b 00
        E 0 ff 2f 00
      >
    >
  >
>