<REAPER_PROJECT 0.1 "7.27/win64" 1707000000
  <NOTES 0 2
    |ReapNES Studio Project
    |MIDI Import - Battletoads_02_Song_2_v1
  >
  RIPPLE 0
  GROUPOVERRIDE 0 0 0
  AUTOXFADE 129
  ENVATTACH 3
  POOLEDENVATTACH 0
  MIXERUIFLAGS 11 48
  ENVFADESZ10 40
  PEAKGAIN 1
  FEEDBACK 0
  PANLAW 1
  PROJOFFS 0 0 0
  MAXPROJLEN 0 0
  GRID 3199 8 1 8 1 0 0 0
  TIMEMODE 1 5 -1 30 0 0 -1
  VIDEO_CONFIG 0 0 65792
  PANMODE 3
  PANLAWFLAGS 3
  CURSOR 0
  ZOOM 100 0 0
  VZOOMEX 6 0
  USE_REC_CFG 0
  RECMODE 1
  SMPTESYNC 0 30 100 40 1000 300 0 0 1 0 0
  LOOP 0
  LOOPGRAN 0 4
  RECORD_PATH "Media" ""
  <RECORD_CFG
    ZXZhdxgAAQ==
  >
  <APPLYFX_CFG
  >
  RENDER_FILE ""
  RENDER_PATTERN ""
  RENDER_FMT 0 2 0
  RENDER_1X 0
  RENDER_RANGE 1 0 0 18 1000
  RENDER_RESAMPLE 3 0 1
  RENDER_ADDTOPROJ 0
  RENDER_STEMS 0
  RENDER_DITHER 0
  TIMELOCKMODE 1
  TEMPOENVLOCKMODE 1
  ITEMMIX 1
  DEFPITCHMODE 589824 0
  TAKELANE 1
  SAMPLERATE 44100 0 0
  <RENDER_CFG
    ZXZhdxgAAQ==
  >
  LOCK 1
  <METRONOME 6 2
    VOL 0.25 0.125
    BEATLEN 4
    FREQ 1760 880 1
    SAMPLES "" ""
    SPLIGNORE 0 0
    SPLDEF 2 660 "" 0
    SPLDEF 3 440 "" 0
    PATTERN 0 169
    PATTERNSTR ABBB
    MULT 1
  >
  GLOBAL_AUTO -1
  TEMPO 128.59999614200012 4 4
  PLAYRATE 1 0 0.25 4
  SELECTION 0 0
  SELECTION2 0 0
  MASTERAUTOMODE 0
  MASTERTRACKHEIGHT 0 0
  MASTERPEAKCOL 16576
  MASTERMUTESOLO 0
  MASTERTRACKVIEW 0 0.6667 0.5 0.5 0 0 0 0 0 0 0 0 0 0
  MASTERHWOUT 0 0 1 0 0 0 0 -1
  MASTER_NCH 2 2
  MASTER_VOLUME 1 0 -1 -1 1
  MASTER_PANMODE 3
  MASTER_PANLAWFLAGS 3
  MASTER_FX 1
  MASTER_SEL 0
  <MASTERPLAYSPEEDENV
    EGUID {36B9DC41-EA7E-4ADF-AFC1-4BC3712BA307}
    ACT 0 -1
    VIS 0 1 1
    LANEHEIGHT 0 0
    ARM 0
    DEFSHAPE 0 -1 -1
  >
  <TEMPOENVEX
    EGUID {7A22F763-90F0-4519-AD6A-EDEC2C4E32E0}
    ACT 1 -1
    VIS 1 0 1
    LANEHEIGHT 0 0
    ARM 0
    DEFSHAPE 1 -1 -1
  >
  <PROJBAY
  >
  <TRACK {EB7765F9-0783-4F6E-AC8D-33802057C058}
    NAME "NES - Pulse 1 [ch0]"
    PEAKCOL 16576606
    BEAT -1
    AUTOMODE 0
    PANLAWFLAGS 3
    VOLPAN 1 0 -1 -1 1
    MUTESOLO 0 0 0
    IPHASE 0
    PLAYOFFS 0 1
    ISBUS 0 0
    BUSCOMP 0 0 0 0 0
    SHOWINMIX 1 0.6667 0.5 1 0.5 0 0 0
    FIXEDLANES 9 0 0 0 0
    SEL 1
    REC 1 5088 1 0 0 0 0 0
    VU 2
    TRACKHEIGHT 0 0 0 0 0 0 0
    INQ 0 0 0 0.5 100 0 0 100
    NCHAN 2
    FX 1
    TRACKID {EB7765F9-0783-4F6E-AC8D-33802057C058}
    PERF 0
    MIDIOUT -1
    MAINSEND 1 0
    <FXCHAIN
      WNDRECT 24 52 700 560
      SHOW 0
      LASTSEL 0
      DOCKED 0
      BYPASS 0 0 0
      <JS "ReapNES Studio/ReapNES_Console.jsfx" ""
        2 15 1 10 80 10 100 2 1 15 1 5 60 10 80 1 1 0 50 0 0 15 1 0 100 0 0 0.500000 0.500000 0.400000 0.300000 0.800000 0 1 0 0 0 0 - - - - - - - - - - - - - - - - - - - - - - - - - -
      >
      FLOATPOS 0 0 0 0
      FXID {4416BDA6-8472-4DAF-A5B0-6F61750F5FFD}
      WAK 0 0
    >
    <ITEM
      POSITION 0
      LENGTH 83.98134
      LOOP 0
      ALLTAKES 0
      FADEIN 0 0 0 0 0 0 0
      FADEOUT 0 0 0 0 0 0 0
      MUTE 0 0
      SEL 0
      IGUID {4AF26C17-F076-4F0F-8543-50C20F65AA4D}
      <SOURCE MIDI
        HASDATA 1 480 QN
        CCINTERP 32
        E 0 c0 50
        E 4320 b0 0c 10
        E 0 b0 0b 20
        E 0 90 40 20
        E 16 b0 0b 18
        E 32 b0 0b 10
        E 32 b0 0b 08
        E 32 80 40 00
        E 32 b0 0b 18
        E 0 90 40 18
        E 16 b0 0b 10
        E 32 b0 0b 08
        E 32 80 40 00
        E 48 b0 0b 10
        E 0 90 40 10
        E 48 b0 0b 08
        E 64 80 40 00
        E 16 90 40 08
        E 64 80 40 00
        E 80 b0 0b 20
        E 0 90 40 20
        E 16 b0 0b 18
        E 32 b0 0b 10
        E 32 b0 0b 08
        E 32 80 40 00
        E 16 b0 0b 18
        E 0 90 40 18
        E 16 b0 0b 10
        E 32 b0 0b 08
        E 32 80 40 00
        E 64 b0 0b 10
        E 0 90 40 10
        E 48 b0 0b 08
        E 64 80 40 00
        E 16 90 40 08
        E 80 80 40 00
        E 48 b0 0b 20
        E 0 90 40 20
        E 16 b0 0b 18
        E 32 b0 0b 10
        E 16 b0 0b 08
        E 32 80 40 00
        E 48 b0 0b 18
        E 0 90 40 18
        E 16 b0 0b 10
        E 32 b0 0b 08
        E 32 80 40 00
        E 48 b0 0b 10
        E 0 90 40 10
        E 48 b0 0b 08
        E 64 80 40 00
        E 32 90 40 08
        E 80 80 40 00
        E 48 b0 0b 20
        E 0 90 40 20
        E 16 b0 0b 18
        E 32 b0 0b 10
        E 32 b0 0b 08
        E 32 80 40 00
        E 16 b0 0b 18
        E 0 90 40 18
        E 16 b0 0b 10
        E 32 b0 0b 08
        E 32 80 40 00
        E 64 b0 0b 10
        E 0 90 40 10
        E 48 b0 0b 08
        E 64 80 40 00
        E 16 90 40 08
        E 80 80 40 00
        E 48 b0 0b 20
        E 0 90 40 20
        E 16 b0 0b 18
        E 16 b0 0b 10
        E 32 b0 0b 08
        E 32 80 40 00
        E 48 b0 0b 18
        E 0 90 40 18
        E 16 b0 0b 10
        E 32 b0 0b 08
        E 32 80 40 00
        E 48 b0 0b 10
        E 0 90 40 10
        E 48 b0 0b 08
        E 48 80 40 00
        E 48 90 40 08
        E 80 80 40 00
        E 48 b0 0b 20
        E 0 90 40 20
        E 16 b0 0b 18
        E 32 b0 0b 10
        E 32 b0 0b 08
        E 32 80 40 00
        E 16 b0 0b 18
        E 0 90 40 18
        E 16 b0 0b 10
        E 16 b0 0b 08
        E 32 80 40 00
        E 80 b0 0b 10
        E 0 90 40 10
        E 48 b0 0b 08
        E 64 80 40 00
        E 16 90 40 08
        E 80 80 40 00
        E 64 b0 0b 20
        E 0 90 40 20
        E 16 b0 0b 18
        E 32 b0 0b 10
        E 32 b0 0b 08
        E 32 80 40 00
        E 16 b0 0b 18
        E 0 90 40 18
        E 16 b0 0b 10
        E 32 b0 0b 08
        E 32 80 40 00
        E 48 b0 0b 10
        E 0 90 40 10
        E 32 b0 0b 08
        E 64 80 40 00
        E 48 90 40 08
        E 80 80 40 00
        E 48 b0 0b 20
        E 0 90 40 20
        E 16 b0 0b 18
        E 32 b0 0b 10
        E 32 b0 0b 08
        E 32 80 40 00
        E 32 b0 0b 18
        E 0 90 40 18
        E 16 b0 0b 10
        E 32 b0 0b 08
        E 32 80 40 00
        E 48 b0 0b 10
        E 0 90 40 10
        E 48 b0 0b 08
        E 64 80 40 00
        E 16 90 40 08
        E 64 80 40 00
        E 80 b0 0c 40
        E 0 b0 0b 38
        E 0 90 34 38
        E 16 b0 0b 30
        E 32 b0 0b 28
        E 32 b0 0b 20
        E 32 b0 0b 18
        E 16 b0 0b 20
        E 16 b0 0b 18
        E 32 b0 0b 10
        E 32 b0 0b 08
        E 32 80 34 00
        E 32 b0 0b 10
        E 0 90 34 10
        E 48 b0 0b 08
        E 64 80 34 00
        E 16 90 34 08
        E 80 80 34 00
        E 48 b0 0b 38
        E 0 90 34 38
        E 16 b0 0b 30
        E 32 b0 0b 28
        E 16 b0 0b 20
        E 32 b0 0b 18
        E 32 b0 0b 10
        E 16 b0 0b 38
        E 0 80 34 00
        E 0 90 32 38
        E 16 b0 0b 30
        E 32 b0 0b 28
        E 32 b0 0b 20
        E 32 b0 0b 18
        E 16 b0 0b 20
        E 16 b0 0b 18
        E 32 b0 0b 10
        E 32 b0 0b 08
        E 32 80 32 00
        E 32 b0 0b 10
        E 0 90 32 10
        E 48 b0 0b 08
        E 64 80 32 00
        E 16 b0 0b 58
        E 0 90 34 58
        E 16 b0 0b 50
        E 32 b0 0b 48
        E 32 b0 0b 40
        E 32 b0 0b 38
        E 32 b0 0b 30
        E 32 b0 0b 28
        E 16 b0 0b 20
        E 32 b0 0b 18
        E 32 b0 0b 10
        E 16 80 34 00
        E 0 90 3f 10
        E 144 b0 0b 18
        E 144 b0 0b 20
        E 32 80 3f 00
        E 0 90 40 20
        E 128 b0 0b 28
        E 160 b0 0b 30
        E 144 b0 0b 38
        E 48 b0 0c 60
        E 0 b0 0b 30
        E 0 80 40 00
        E 0 90 39 30
        E 128 80 39 00
        E 0 90 43 30
        E 16 b0 0b 28
        E 16 b0 0b 20
        E 32 b0 0b 18
        E 32 b0 0b 10
        E 32 b0 0b 08
        E 16 b0 0b 30
        E 16 b0 0b 28
        E 32 b0 0b 20
        E 32 b0 0b 18
        E 32 b0 0b 10
        E 16 b0 0b 30
        E 0 80 43 00
        E 0 90 39 30
        E 16 b0 0b 28
        E 32 b0 0b 20
        E 32 b0 0b 18
        E 16 b0 0b 10
        E 32 b0 0b 08
        E 16 b0 0b 30
        E 0 80 39 00
        E 0 90 40 30
        E 16 b0 0b 28
        E 32 b0 0b 20
        E 32 b0 0b 18
        E 32 b0 0b 10
        E 16 b0 0b 30
        E 0 80 40 00
        E 0 90 39 30
        E 16 b0 0b 28
        E 32 b0 0b 20
        E 32 b0 0b 18
        E 32 b0 0b 10
        E 16 b0 0b 30
        E 0 80 39 00
        E 0 90 40 30
        E 16 b0 0b 28
        E 16 b0 0b 20
        E 32 b0 0b 18
        E 32 b0 0b 10
        E 32 b0 0b 08
        E 16 b0 0b 30
        E 16 b0 0b 28
        E 32 b0 0b 20
        E 32 b0 0b 18
        E 32 b0 0b 10
        E 16 b0 0b 30
        E 0 80 40 00
        E 0 90 39 30
        E 16 b0 0b 28
        E 32 b0 0b 20
        E 32 b0 0b 18
        E 16 b0 0b 10
        E 32 b0 0b 08
        E 16 b0 0b 30
        E 0 80 39 00
        E 0 90 43 30
        E 16 b0 0b 28
        E 32 b0 0b 20
        E 32 b0 0b 18
        E 32 b0 0b 10
        E 16 b0 0b 30
        E 16 b0 0b 28
        E 32 b0 0b 20
        E 32 b0 0b 18
        E 32 b0 0b 10
        E 16 b0 0b 30
        E 0 80 43 00
        E 0 90 39 30
        E 16 b0 0b 28
        E 32 b0 0b 20
        E 16 b0 0b 18
        E 32 b0 0b 10
        E 32 b0 0b 08
        E 16 b0 0b 30
        E 0 80 39 00
        E 0 90 40 30
        E 16 b0 0b 28
        E 32 b0 0b 20
        E 32 b0 0b 18
        E 32 b0 0b 10
        E 16 b0 0b 30
        E 0 80 40 00
        E 0 90 39 30
        E 16 b0 0b 28
        E 32 b0 0b 20
        E 32 b0 0b 18
        E 32 b0 0b 10
        E 16 b0 0b 08
        E 16 b0 0b 30
        E 0 80 39 00
        E 0 90 40 30
        E 16 b0 0b 28
        E 32 b0 0b 20
        E 32 b0 0b 18
        E 32 b0 0b 10
        E 16 b0 0b 30
        E 16 b0 0b 28
        E 32 b0 0b 20
        E 32 b0 0b 18
        E 32 b0 0b 10
        E 16 b0 0c 20
        E 0 b0 0b 38
        E 0 80 40 00
        E 0 90 2f 38
        E 16 b0 0b 30
        E 32 b0 0b 28
        E 16 b0 0b 20
        E 32 b0 0b 18
        E 32 b0 0b 10
        E 32 b0 0b 08
        E 32 80 2f 00
        E 80 b0 0b 38
        E 0 90 2f 38
        E 16 b0 0b 30
        E 32 b0 0b 28
        E 32 b0 0b 20
        E 32 b0 0b 18
        E 16 b0 0b 10
        E 32 b0 0b 08
        E 32 80 2f 00
        E 80 b0 0b 38
        E 0 90 2f 38
        E 16 b0 0b 30
        E 32 b0 0b 28
        E 32 b0 0b 20
        E 32 b0 0b 18
        E 16 b0 0b 38
        E 0 80 2f 00
        E 0 90 2d 38
        E 48 b0 0b 30
        E 48 b0 0b 28
        E 64 b0 0b 20
        E 64 b0 0b 18
        E 48 b0 0b 38
        E 0 80 2d 00
        E 0 90 2f 38
        E 16 b0 0b 30
        E 32 b0 0b 28
        E 32 b0 0b 20
        E 32 b0 0b 18
        E 16 b0 0b 10
        E 32 b0 0b 08
        E 32 80 2f 00
        E 80 b0 0b 38
        E 0 90 2f 38
        E 16 b0 0b 30
        E 32 b0 0b 28
        E 32 b0 0b 20
        E 32 b0 0b 18
        E 16 b0 0b 38
        E 16 b0 0b 30
        E 32 b0 0b 28
        E 32 b0 0b 20
        E 16 b0 0b 18
        E 32 b0 0b 10
        E 32 b0 0b 08
        E 32 80 2f 00
        E 80 b0 0b 38
        E 0 90 2f 38
        E 16 b0 0b 30
        E 32 b0 0b 28
        E 32 b0 0b 20
        E 32 b0 0b 18
        E 16 b0 0b 38
        E 0 80 2f 00
        E 0 90 32 38
        E 32 b0 0b 30
        E 64 b0 0b 28
        E 64 b0 0b 20
        E 64 b0 0b 18
        E 64 b0 0b 10
        E 64 b0 0b 08
        E 48 80 32 00
        E 16 b0 0b 38
        E 0 90 2f 38
        E 16 b0 0b 30
        E 32 b0 0b 28
        E 32 b0 0b 20
        E 32 b0 0b 18
        E 32 b0 0b 10
        E 32 b0 0b 08
        E 32 80 2f 00
        E 48 b0 0b 38
        E 0 90 2f 38
        E 16 b0 0b 30
        E 16 b0 0b 28
        E 32 b0 0b 20
        E 32 b0 0b 18
        E 32 b0 0b 10
        E 32 b0 0b 08
        E 32 80 2f 00
        E 80 b0 0b 38
        E 0 90 2f 38
        E 16 b0 0b 30
        E 32 b0 0b 28
        E 32 b0 0b 20
        E 16 b0 0b 18
        E 32 b0 0b 10
        E 16 b0 0b 38
        E 0 80 2f 00
        E 0 90 2d 38
        E 48 b0 0b 30
        E 64 b0 0b 28
        E 64 b0 0b 20
        E 64 b0 0b 18
        E 16 b0 0b 38
        E 0 80 2d 00
        E 0 90 2f 38
        E 16 b0 0b 30
        E 16 b0 0b 28
        E 32 b0 0b 20
        E 32 b0 0b 18
        E 32 b0 0b 10
        E 32 b0 0b 08
        E 32 80 2f 00
        E 80 b0 0b 38
        E 0 90 2f 38
        E 16 b0 0b 30
        E 32 b0 0b 28
        E 32 b0 0b 20
        E 32 b0 0b 18
        E 16 b0 0b 10
        E 16 b0 0b 38
        E 16 b0 0b 30
        E 32 b0 0b 28
        E 32 b0 0b 20
        E 32 b0 0b 18
        E 32 b0 0b 10
        E 32 b0 0b 08
        E 32 80 2f 00
        E 48 b0 0b 38
        E 0 90 2f 38
        E 16 b0 0b 30
        E 32 b0 0b 28
        E 16 b0 0b 20
        E 32 b0 0b 18
        E 32 b0 0b 10
        E 16 b0 0b 38
        E 0 80 2f 00
        E 0 90 32 38
        E 48 b0 0b 30
        E 64 b0 0b 28
        E 64 b0 0b 20
        E 64 b0 0b 18
        E 48 b0 0b 10
        E 64 b0 0b 08
        E 48 b0 0c 60
        E 0 b0 0b 30
        E 0 80 32 00
        E 0 90 39 30
        E 16 b0 0b 28
        E 64 b0 0b 20
        E 48 b0 0b 30
        E 0 80 39 00
        E 0 90 43 30
        E 16 b0 0b 28
        E 32 b0 0b 20
        E 16 b0 0b 18
        E 32 b0 0b 10
        E 32 b0 0b 08
        E 16 b0 0b 30
        E 16 b0 0b 28
        E 32 b0 0b 20
        E 32 b0 0b 18
        E 32 b0 0b 10
        E 16 b0 0b 30
        E 0 80 43 00
        E 0 90 39 30
        E 16 b0 0b 28
        E 32 b0 0b 20
        E 32 b0 0b 18
        E 32 b0 0b 10
        E 16 b0 0b 08
        E 16 b0 0b 30
        E 0 80 39 00
        E 0 90 40 30
        E 16 b0 0b 28
        E 32 b0 0b 20
        E 32 b0 0b 18
        E 32 b0 0b 10
        E 16 b0 0b 30
        E 0 80 40 00
        E 0 90 39 30
        E 16 b0 0b 28
        E 32 b0 0b 20
        E 32 b0 0b 18
        E 32 b0 0b 10
        E 16 b0 0b 30
        E 0 80 39 00
        E 0 90 40 30
        E 16 b0 0b 28
        E 32 b0 0b 20
        E 16 b0 0b 18
        E 32 b0 0b 10
        E 32 b0 0b 08
        E 16 b0 0b 30
        E 16 b0 0b 28
        E 32 b0 0b 20
        E 32 b0 0b 18
        E 32 b0 0b 10
        E 16 b0 0b 30
        E 0 80 40 00
        E 0 90 39 30
        E 16 b0 0b 28
        E 32 b0 0b 20
        E 32 b0 0b 18
        E 32 b0 0b 10
        E 16 b0 0b 30
        E 0 80 39 00
        E 0 90 43 30
        E 16 b0 0b 28
        E 16 b0 0b 20
        E 32 b0 0b 18
        E 32 b0 0b 10
        E 32 b0 0b 08
        E 16 b0 0b 30
        E 16 b0 0b 28
        E 32 b0 0b 20
        E 32 b0 0b 18
        E 32 b0 0b 10
        E 16 b0 0b 30
        E 0 80 43 00
        E 0 90 39 30
        E 16 b0 0b 28
        E 32 b0 0b 20
        E 32 b0 0b 18
        E 16 b0 0b 10
        E 32 b0 0b 08
        E 16 b0 0b 30
        E 0 80 39 00
        E 0 90 40 30
        E 16 b0 0b 28
        E 32 b0 0b 20
        E 32 b0 0b 18
        E 32 b0 0b 10
        E 16 b0 0b 30
        E 0 80 40 00
        E 0 90 39 30
        E 16 b0 0b 28
        E 32 b0 0b 20
        E 32 b0 0b 18
        E 32 b0 0b 10
        E 16 b0 0b 30
        E 0 80 39 00
        E 0 90 40 30
        E 16 b0 0b 28
        E 16 b0 0b 20
        E 32 b0 0b 18
        E 32 b0 0b 10
        E 32 b0 0b 08
        E 16 b0 0b 30
        E 16 b0 0b 28
        E 32 b0 0b 20
        E 32 b0 0b 18
        E 32 b0 0b 10
        E 16 b0 0c 10
        E 0 b0 0b 38
        E 0 80 40 00
        E 0 90 3b 38
        E 16 b0 0b 30
        E 32 b0 0b 28
        E 32 b0 0b 20
        E 16 b0 0b 18
        E 32 b0 0b 10
        E 16 b0 0b 20
        E 128 b0 0b 38
        E 0 80 3b 00
        E 0 90 42 38
        E 144 b0 0b 30
        E 16 b0 0b 28
        E 32 b0 0b 20
        E 32 b0 0b 18
        E 32 b0 0b 10
        E 16 b0 0b 20
        E 128 b0 0b 38
        E 0 80 42 00
        E 0 90 43 38
        E 16 b0 0b 30
        E 32 b0 0b 28
        E 32 b0 0b 20
        E 16 b0 0b 18
        E 32 b0 0b 10
        E 16 b0 0b 20
        E 16 b0 0b 18
        E 32 b0 0b 10
        E 32 b0 0b 08
        E 32 80 43 00
        E 16 b0 0b 38
        E 0 90 45 38
        E 16 b0 0b 30
        E 32 b0 0b 28
        E 32 b0 0b 20
        E 32 b0 0b 18
        E 16 b0 0b 20
        E 16 b0 0b 18
        E 32 b0 0b 10
        E 16 b0 0b 08
        E 32 80 45 00
        E 48 b0 0b 10
        E 0 90 45 10
        E 128 b0 0b 38
        E 272 b0 0b 20
        E 128 b0 0b 38
        E 144 b0 0b 20
        E 128 b0 0b 10
        E 144 80 45 00
        E 12880 b0 0b 20
        E 0 90 40 20
        E 16 b0 0b 18
        E 32 b0 0b 10
        E 16 b0 0b 08
        E 32 80 40 00
        E 48 b0 0b 18
        E 0 90 40 18
        E 16 b0 0b 10
        E 32 b0 0b 08
        E 32 80 40 00
        E 48 b0 0b 10
        E 0 90 40 10
        E 48 b0 0b 08
        E 64 80 40 00
        E 16 90 40 08
        E 64 80 40 00
        E 80 b0 0b 20
        E 0 90 40 20
        E 16 b0 0b 18
        E 32 b0 0b 10
        E 32 b0 0b 08
        E 32 80 40 00
        E 16 b0 0b 18
        E 0 90 40 18
        E 16 b0 0b 10
        E 32 b0 0b 08
        E 32 80 40 00
        E 64 b0 0b 10
        E 0 90 40 10
        E 48 b0 0b 08
        E 64 80 40 00
        E 16 90 40 08
        E 80 80 40 00
        E 48 b0 0b 20
        E 0 90 40 20
        E 16 b0 0b 18
        E 16 b0 0b 10
        E 32 b0 0b 08
        E 32 80 40 00
        E 48 b0 0b 18
        E 0 90 40 18
        E 16 b0 0b 10
        E 32 b0 0b 08
        E 32 80 40 00
        E 48 b0 0b 10
        E 0 90 40 10
        E 48 b0 0b 08
        E 48 80 40 00
        E 48 90 40 08
        E 80 80 40 00
        E 48 b0 0b 20
        E 0 90 40 20
        E 16 b0 0b 18
        E 32 b0 0b 10
        E 32 b0 0b 08
        E 32 80 40 00
        E 16 b0 0b 18
        E 0 90 40 18
        E 16 b0 0b 10
        E 16 b0 0b 08
        E 32 80 40 00
        E 80 b0 0b 10
        E 0 90 40 10
        E 48 b0 0b 08
        E 64 80 40 00
        E 16 90 40 08
        E 80 80 40 00
        E 64 b0 0b 20
        E 0 90 40 20
        E 16 b0 0b 18
        E 32 b0 0b 10
        E 32 b0 0b 08
        E 32 80 40 00
        E 16 b0 0b 18
        E 0 90 40 18
        E 16 b0 0b 10
        E 32 b0 0b 08
        E 32 80 40 00
        E 48 b0 0b 10
        E 0 90 40 10
        E 48 b0 0b 08
        E 48 80 40 00
        E 48 90 40 08
        E 80 80 40 00
        E 48 b0 0b 20
        E 0 90 40 20
        E 16 b0 0b 18
        E 32 b0 0b 10
        E 32 b0 0b 08
        E 32 80 40 00
        E 32 b0 0b 18
        E 0 90 40 18
        E 16 b0 0b 10
        E 32 b0 0b 08
        E 32 80 40 00
        E 48 b0 0b 10
        E 0 90 40 10
        E 48 b0 0b 08
        E 64 80 40 00
        E 16 90 40 08
        E 64 80 40 00
        E 80 b0 0b 20
        E 0 90 40 20
        E 16 b0 0b 18
        E 32 b0 0b 10
        E 32 b0 0b 08
        E 32 80 40 00
        E 16 b0 0b 18
        E 0 90 40 18
        E 16 b0 0b 10
        E 32 b0 0b 08
        E 32 80 40 00
        E 64 b0 0b 10
        E 0 90 40 10
        E 48 b0 0b 08
        E 64 80 40 00
        E 16 90 40 08
        E 80 80 40 00
        E 48 b0 0b 20
        E 0 90 40 20
        E 16 b0 0b 18
        E 32 b0 0b 10
        E 16 b0 0b 08
        E 32 80 40 00
        E 48 b0 0b 18
        E 0 90 40 18
        E 16 b0 0b 10
        E 32 b0 0b 08
        E 32 80 40 00
        E 48 b0 0b 10
        E 0 90 40 10
        E 48 b0 0b 08
        E 64 80 40 00
        E 32 90 40 08
        E 80 80 40 00
        E 48 b0 0b 20
        E 0 90 47 20
        E 16 b0 0b 18
        E 32 b0 0b 10
        E 32 b0 0b 08
        E 32 80 47 00
        E 16 b0 0b 18
        E 0 90 47 18
        E 16 b0 0b 10
        E 32 b0 0b 08
        E 32 80 47 00
        E 64 b0 0b 10
        E 0 90 47 10
        E 48 b0 0b 08
        E 64 80 47 00
        E 16 90 47 08
        E 80 80 47 00
        E 48 b0 0b 20
        E 0 90 47 20
        E 16 b0 0b 18
        E 16 b0 0b 10
        E 32 b0 0b 08
        E 32 80 47 00
        E 48 b0 0b 18
        E 0 90 47 18
        E 16 b0 0b 10
        E 32 b0 0b 08
        E 32 80 47 00
        E 48 b0 0b 10
        E 0 90 47 10
        E 48 b0 0b 08
        E 48 80 47 00
        E 48 90 47 08
        E 80 80 47 00
        E 48 b0 0b 20
        E 0 90 47 20
        E 16 b0 0b 18
        E 32 b0 0b 10
        E 32 b0 0b 08
        E 32 80 47 00
        E 16 b0 0b 18
        E 0 90 47 18
        E 16 b0 0b 10
        E 16 b0 0b 08
        E 32 80 47 00
        E 80 b0 0b 10
        E 0 90 47 10
        E 48 b0 0b 08
        E 64 80 47 00
        E 16 90 47 08
        E 80 80 47 00
        E 64 b0 0b 20
        E 0 90 47 20
        E 16 b0 0b 18
        E 32 b0 0b 10
        E 32 b0 0b 08
        E 32 80 47 00
        E 16 b0 0b 18
        E 0 90 47 18
        E 16 b0 0b 10
        E 32 b0 0b 08
        E 32 80 47 00
        E 48 b0 0b 10
        E 0 90 47 10
        E 32 b0 0b 08
        E 64 80 47 00
        E 48 90 47 08
        E 80 80 47 00
        E 48 b0 0b 20
        E 0 90 47 20
        E 16 b0 0b 18
        E 32 b0 0b 10
        E 32 b0 0b 08
        E 32 80 47 00
        E 32 b0 0b 18
        E 0 90 47 18
        E 16 b0 0b 10
        E 32 b0 0b 08
        E 32 80 47 00
        E 48 b0 0b 10
        E 0 90 47 10
        E 48 b0 0b 08
        E 64 80 47 00
        E 16 90 47 08
        E 64 80 47 00
        E 80 b0 0b 20
        E 0 90 47 20
        E 16 b0 0b 18
        E 32 b0 0b 10
        E 32 b0 0b 08
        E 32 80 47 00
        E 16 b0 0b 18
        E 0 90 47 18
        E 16 b0 0b 10
        E 32 b0 0b 08
        E 32 80 47 00
        E 64 b0 0b 10
        E 0 90 47 10
        E 48 b0 0b 08
        E 64 80 47 00
        E 16 90 47 08
        E 80 80 47 00
        E 48 b0 0b 20
        E 0 90 47 20
        E 16 b0 0b 18
        E 32 b0 0b 10
        E 16 b0 0b 08
        E 32 80 47 00
        E 48 b0 0b 18
        E 0 90 47 18
        E 16 b0 0b 10
        E 32 b0 0b 08
        E 32 80 47 00
        E 48 b0 0b 10
        E 0 90 47 10
        E 48 b0 0b 08
        E 64 80 47 00
        E 32 90 47 08
        E 80 80 47 00
        E 48 b0 0b 20
        E 0 90 47 20
        E 16 b0 0b 18
        E 32 b0 0b 10
        E 32 b0 0b 08
        E 32 80 47 00
        E 16 b0 0b 18
        E 0 90 47 18
        E 16 b0 0b 10
        E 32 b0 0b 08
        E 16 80 47 00
        E 80 b0 0b 10
        E 0 90 47 10
        E 48 b0 0b 08
        E 64 80 47 00
        E 16 90 47 08
        E 80 80 47 00
        E 48 b0 0c 40
        E 0 b0 0b 30
        E 0 90 47 30
        E 64 b0 0b 28
        E 80 b0 0b 30
        E 0 80 47 00
        E 0 90 4f 30
        E 16 b0 0b 28
        E 48 b0 0b 18
        E 0 80 4f 00
        E 0 90 47 18
        E 64 b0 0b 30
        E 0 80 47 00
        E 0 90 4e 30
        E 48 b0 0b 28
        E 16 b0 0b 18
        E 0 80 4e 00
        E 0 90 4f 18
        E 64 b0 0b 10
        E 16 b0 0b 30
        E 0 80 4f 00
        E 0 90 4a 30
        E 64 b0 0b 18
        E 0 80 4a 00
        E 0 90 4e 18
        E 16 b0 0b 10
        E 48 b0 0b 30
        E 0 80 4e 00
        E 0 90 45 30
        E 48 b0 0b 28
        E 16 b0 0b 18
        E 0 80 45 00
        E 0 90 4a 18
        E 64 b0 0b 30
        E 16 b0 0b 28
        E 64 b0 0b 18
        E 0 80 4a 00
        E 0 90 45 18
        E 16 b0 0b 10
        E 48 b0 0b 30
        E 0 80 45 00
        E 0 90 47 30
        E 48 b0 0b 28
        E 16 b0 0b 18
        E 0 80 47 00
        E 0 90 4a 18
        E 64 b0 0b 30
        E 0 80 4a 00
        E 0 90 4c 30
        E 16 b0 0b 28
        E 48 b0 0b 18
        E 0 80 4c 00
        E 0 90 47 18
        E 32 b0 0b 10
        E 48 b0 0b 30
        E 0 80 47 00
        E 0 90 4c 30
        E 48 b0 0b 28
        E 16 b0 0b 18
        E 64 b0 0b 10
        E 64 b0 0b 08
        E 64 b0 0b 30
        E 0 80 4c 00
        E 0 90 4a 30
        E 80 b0 0b 18
        E 0 80 4a 00
        E 0 90 4c 18
        E 16 b0 0b 10
        E 48 b0 0b 30
        E 0 80 4c 00
        E 0 90 47 30
        E 48 b0 0b 28
        E 16 b0 0b 18
        E 0 80 47 00
        E 0 90 4a 18
        E 64 b0 0b 30
        E 0 80 4a 00
        E 0 90 45 30
        E 16 b0 0b 28
        E 48 b0 0b 18
        E 0 80 45 00
        E 0 90 47 18
        E 32 b0 0b 10
        E 48 b0 0b 30
        E 48 b0 0b 28
        E 16 b0 0b 18
        E 0 80 47 00
        E 0 90 45 18
        E 64 b0 0b 30
        E 0 80 45 00
        E 0 90 4a 30
        E 16 b0 0b 28
        E 48 b0 0b 18
        E 0 80 4a 00
        E 0 90 47 18
        E 48 b0 0b 10
        E 16 b0 0b 30
        E 0 80 47 00
        E 0 90 4c 30
        E 64 b0 0b 28
        E 16 b0 0b 18
        E 0 80 4c 00
        E 0 90 4a 18
        E 64 b0 0b 30
        E 0 80 4a 00
        E 0 90 47 30
        E 16 b0 0b 28
        E 96 b0 0b 20
        E 16 b0 0b 30
        E 0 80 47 00
        E 0 90 4f 30
        E 64 b0 0b 18
        E 0 80 4f 00
        E 0 90 47 18
        E 80 b0 0b 30
        E 0 80 47 00
        E 0 90 4e 30
        E 16 b0 0b 28
        E 48 b0 0b 18
        E 0 80 4e 00
        E 0 90 4f 18
        E 48 b0 0b 10
        E 16 b0 0b 30
        E 0 80 4f 00
        E 0 90 4a 30
        E 64 b0 0b 18
        E 0 80 4a 00
        E 0 90 4e 18
        E 16 b0 0b 10
        E 48 b0 0b 30
        E 0 80 4e 00
        E 0 90 45 30
        E 48 b0 0b 28
        E 32 b0 0b 18
        E 0 80 45 00
        E 0 90 4a 18
        E 48 b0 0b 10
        E 16 b0 0b 30
        E 64 b0 0b 18
        E 0 80 4a 00
        E 0 90 45 18
        E 16 b0 0b 10
        E 48 b0 0b 30
        E 0 80 45 00
        E 0 90 47 30
        E 48 b0 0b 28
        E 16 b0 0b 18
        E 0 80 47 00
        E 0 90 4a 18
        E 64 b0 0b 10
        E 16 b0 0b 30
        E 0 80 4a 00
        E 0 90 4c 30
        E 64 b0 0b 18
        E 0 80 4c 00
        E 0 90 47 18
        E 16 b0 0b 10
        E 48 b0 0b 30
        E 0 80 47 00
        E 0 90 4c 30
        E 48 b0 0b 28
        E 16 b0 0b 18
        E 64 b0 0b 10
        E 80 b0 0b 08
        E 64 b0 0b 30
        E 0 80 4c 00
        E 0 90 4a 30
        E 64 b0 0b 18
        E 0 80 4a 00
        E 0 90 4c 18
        E 16 b0 0b 10
        E 48 b0 0b 30
        E 0 80 4c 00
        E 0 90 47 30
        E 48 b0 0b 28
        E 16 b0 0b 18
        E 0 80 47 00
        E 0 90 4a 18
        E 64 b0 0b 10
        E 16 b0 0b 30
        E 0 80 4a 00
        E 0 90 45 30
        E 64 b0 0b 18
        E 0 80 45 00
        E 0 90 47 18
        E 16 b0 0b 10
        E 48 b0 0b 30
        E 48 b0 0b 28
        E 16 b0 0b 18
        E 0 80 47 00
        E 0 90 45 18
        E 64 b0 0b 30
        E 0 80 45 00
        E 0 90 4a 30
        E 16 b0 0b 28
        E 48 b0 0b 18
        E 0 80 4a 00
        E 0 90 47 18
        E 32 b0 0b 10
        E 48 b0 0b 30
        E 0 80 47 00
        E 0 90 4c 30
        E 48 b0 0b 28
        E 16 b0 0b 18
        E 0 80 4c 00
        E 0 90 4a 18
        E 64 b0 0b 30
        E 0 80 4a 00
        E 0 90 47 30
        E 16 b0 0b 28
        E 96 b0 0b 20
        E 16 b0 0b 30
        E 0 80 47 00
        E 0 90 4f 30
        E 64 b0 0b 28
        E 16 b0 0b 18
        E 0 80 4f 00
        E 0 90 47 18
        E 64 b0 0b 30
        E 0 80 47 00
        E 0 90 4e 30
        E 64 b0 0b 18
        E 0 80 4e 00
        E 0 90 4f 18
        E 16 b0 0b 10
        E 48 b0 0b 30
        E 0 80 4f 00
        E 0 90 4a 30
        E 48 b0 0b 28
        E 16 b0 0b 18
        E 0 80 4a 00
        E 0 90 4e 18
        E 64 b0 0b 10
        E 16 b0 0b 30
        E 0 80 4e 00
        E 0 90 45 30
        E 64 b0 0b 18
        E 0 80 45 00
        E 0 90 4a 18
        E 16 b0 0b 10
        E 48 b0 0b 30
        E 48 b0 0b 28
        E 16 b0 0b 18
        E 0 80 4a 00
        E 0 90 45 18
        E 64 b0 0b 30
        E 0 80 45 00
        E 0 90 47 30
        E 16 b0 0b 28
        E 64 b0 0b 18
        E 0 80 47 00
        E 0 90 4a 18
        E 16 b0 0b 10
        E 48 b0 0b 30
        E 0 80 4a 00
        E 0 90 4c 30
        E 48 b0 0b 28
        E 16 b0 0b 18
        E 0 80 4c 00
        E 0 90 47 18
        E 64 b0 0b 30
        E 0 80 47 00
        E 0 90 4c 30
        E 16 b0 0b 28
        E 48 b0 0b 18
        E 32 b0 0b 10
        E 112 b0 0b 08
        E 64 b0 0b 30
        E 0 80 4c 00
        E 0 90 4a 30
        E 64 b0 0b 18
        E 0 80 4a 00
        E 0 90 4c 18
        E 48 b0 0b 10
        E 16 b0 0b 30
        E 0 80 4c 00
        E 0 90 47 30
        E 64 b0 0b 28
        E 16 b0 0b 18
        E 0 80 47 00
        E 0 90 4a 18
        E 64 b0 0b 30
        E 0 80 4a 00
        E 0 90 45 30
        E 16 b0 0b 28
        E 48 b0 0b 18
        E 0 80 45 00
        E 0 90 47 18
        E 48 b0 0b 10
        E 16 b0 0b 30
        E 64 b0 0b 18
        E 0 80 47 00
        E 0 90 45 18
        E 16 b0 0b 10
        E 64 b0 0b 30
        E 0 80 45 00
        E 0 90 4a 30
        E 16 b0 0b 28
        E 48 b0 0b 18
        E 0 80 4a 00
        E 0 90 47 18
        E 48 b0 0b 10
        E 16 b0 0b 30
        E 0 80 47 00
        E 0 90 4c 30
        E 64 b0 0b 18
        E 0 80 4c 00
        E 0 90 4a 18
        E 16 b0 0b 10
        E 48 b0 0b 30
        E 0 80 4a 00
        E 0 90 47 30
        E 48 b0 0b 28
        E 80 b0 0b 20
        E 16 b0 0b 30
        E 0 80 47 00
        E 0 90 4f 30
        E 64 b0 0b 18
        E 0 80 4f 00
        E 0 90 47 18
        E 64 b0 0b 30
        E 0 80 47 00
        E 0 90 4e 30
        E 16 b0 0b 28
        E 48 b0 0b 18
        E 0 80 4e 00
        E 0 90 4f 18
        E 48 b0 0b 10
        E 32 b0 0b 30
        E 0 80 4f 00
        E 0 90 4a 30
        E 48 b0 0b 28
        E 16 b0 0b 18
        E 0 80 4a 00
        E 0 90 4e 18
        E 64 b0 0b 30
        E 0 80 4e 00
        E 0 90 45 30
        E 16 b0 0b 28
        E 48 b0 0b 18
        E 0 80 45 00
        E 0 90 4a 18
        E 48 b0 0b 10
        E 16 b0 0b 30
        E 64 b0 0b 28
        E 16 b0 0b 18
        E 0 80 4a 00
        E 0 90 45 18
        E 64 b0 0b 30
        E 0 80 45 00
        E 0 90 47 30
        E 16 b0 0b 28
        E 48 b0 0b 18
        E 0 80 47 00
        E 0 90 4a 18
        E 48 b0 0b 10
        E 16 b0 0b 30
        E 0 80 4a 00
        E 0 90 4c 30
        E 64 b0 0b 18
        E 0 80 4c 00
        E 0 90 47 18
        E 16 b0 0b 10
        E 64 b0 0b 30
        E 0 80 47 00
        E 0 90 4c 30
        E 16 b0 0b 28
        E 48 b0 0b 18
        E 48 b0 0b 10
        E 80 b0 0b 08
        E 64 b0 0b 30
        E 0 80 4c 00
        E 0 90 4a 30
        E 80 b0 0b 18
        E 0 80 4a 00
        E 0 90 4c 18
        E 64 b0 0b 30
        E 0 80 4c 00
        E 0 90 47 30
        E 16 b0 0b 28
        E 48 b0 0b 18
        E 0 80 47 00
        E 0 90 4a 18
        E 48 b0 0b 10
        E 16 b0 0b 30
        E 0 80 4a 00
        E 0 90 45 30
        E 64 b0 0b 18
        E 0 80 45 00
        E 0 90 47 18
        E 16 b0 0b 10
        E 48 b0 0b 30
        E 32 b0 0b 28
        E 48 b0 0b 18
        E 0 80 47 00
        E 0 90 45 18
        E 48 b0 0b 10
        E 16 b0 0b 30
        E 0 80 45 00
        E 0 90 4a 30
        E 64 b0 0b 18
        E 0 80 4a 00
        E 0 90 47 18
        E 16 b0 0b 10
        E 48 b0 0b 30
        E 0 80 47 00
        E 0 90 4c 30
        E 48 b0 0b 28
        E 16 b0 0b 18
        E 0 80 4c 00
        E 0 90 4a 18
        E 64 b0 0b 10
        E 16 b0 0b 48
        E 0 80 4a 00
        E 0 90 32 48
        E 16 b0 0b 40
        E 32 b0 0b 38
        E 32 b0 0b 30
        E 32 b0 0b 28
        E 16 b0 0b 48
        E 0 80 32 00
        E 0 90 34 48
        E 16 b0 0b 40
        E 32 b0 0b 38
        E 32 b0 0b 30
        E 32 b0 0b 28
        E 16 b0 0c 10
        E 0 b0 0b 38
        E 0 80 34 00
        E 0 90 42 38
        E 16 b0 0b 30
        E 16 b0 0b 28
        E 32 b0 0b 20
        E 32 b0 0b 18
        E 32 b0 0b 10
        E 16 b0 0b 38
        E 0 80 42 00
        E 0 90 43 38
        E 16 b0 0b 30
        E 32 b0 0b 28
        E 32 b0 0b 20
        E 32 b0 0b 18
        E 16 b0 0b 20
        E 144 b0 0b 38
        E 16 b0 0b 30
        E 32 b0 0b 28
        E 32 b0 0b 20
        E 32 b0 0b 18
        E 16 b0 0b 20
        E 16 b0 0b 18
        E 32 b0 0b 10
        E 32 b0 0b 08
        E 32 80 43 00
        E 16 b0 0b 38
        E 0 90 43 38
        E 16 b0 0b 30
        E 16 b0 0b 28
        E 32 b0 0b 20
        E 32 b0 0b 18
        E 32 b0 0b 10
        E 16 b0 0b 20
        E 16 b0 0b 18
        E 32 b0 0b 10
        E 32 b0 0b 08
        E 32 80 43 00
        E 16 b0 0b 10
        E 0 90 43 10
        E 144 b0 0b 38
        E 256 b0 0b 20
        E 16 b0 0b 18
        E 32 b0 0b 10
        E 16 b0 0b 08
        E 32 80 43 00
        E 48 b0 0b 38
        E 0 90 43 38
        E 16 b0 0b 30
        E 32 b0 0b 28
        E 32 b0 0b 20
        E 32 b0 0b 18
        E 16 b0 0b 20
        E 16 b0 0b 18
        E 32 b0 0b 10
        E 32 b0 0b 08
        E 32 80 43 00
        E 32 b0 0c 40
        E 0 b0 0b 48
        E 0 90 34 48
        E 16 b0 0b 40
        E 32 b0 0b 38
        E 32 b0 0b 30
        E 32 b0 0b 28
        E 16 b0 0b 48
        E 0 80 34 00
        E 0 90 32 48
        E 16 b0 0b 40
        E 32 b0 0b 38
        E 32 b0 0b 30
        E 32 b0 0b 28
        E 16 b0 0b 48
        E 0 80 32 00
        E 0 90 34 48
        E 16 b0 0b 40
        E 32 b0 0b 38
        E 16 b0 0b 30
        E 32 b0 0b 28
        E 32 b0 0b 20
        E 16 b0 0c 10
        E 0 b0 0b 38
        E 0 80 34 00
        E 0 90 42 38
        E 16 b0 0b 30
        E 32 b0 0b 28
        E 32 b0 0b 20
        E 32 b0 0b 18
        E 16 b0 0b 38
        E 0 80 42 00
        E 0 90 43 38
        E 16 b0 0b 30
        E 32 b0 0b 28
        E 32 b0 0b 20
        E 32 b0 0b 18
        E 16 b0 0b 10
        E 16 b0 0b 20
        E 128 b0 0b 38
        E 16 b0 0b 30
        E 32 b0 0b 28
        E 32 b0 0b 20
        E 32 b0 0b 18
        E 16 b0 0b 20
        E 16 b0 0b 18
        E 32 b0 0b 10
        E 16 b0 0b 08
        E 32 80 43 00
        E 48 b0 0b 38
        E 0 90 43 38
        E 16 b0 0b 30
        E 32 b0 0b 28
        E 32 b0 0b 20
        E 32 b0 0b 18
        E 16 b0 0b 20
        E 16 b0 0b 18
        E 32 b0 0b 10
        E 32 b0 0b 08
        E 32 80 43 00
        E 32 b0 0b 10
        E 0 90 43 10
        E 128 b0 0b 38
        E 272 b0 0b 20
        E 16 b0 0b 18
        E 32 b0 0b 10
        E 32 b0 0b 08
        E 32 80 43 00
        E 16 b0 0b 38
        E 0 90 43 38
        E 16 b0 0b 30
        E 32 b0 0b 28
        E 32 b0 0b 20
        E 32 b0 0b 18
        E 16 b0 0b 20
        E 16 b0 0b 18
        E 16 b0 0b 10
        E 32 b0 0b 08
        E 32 80 43 00
        E 48 b0 0c 40
        E 0 b0 0b 48
        E 0 90 34 48
        E 16 b0 0b 40
        E 32 b0 0b 38
        E 32 b0 0b 30
        E 32 b0 0b 28
        E 16 b0 0b 48
        E 0 80 34 00
        E 0 90 32 48
        E 16 b0 0b 40
        E 32 b0 0b 38
        E 32 b0 0b 30
        E 16 b0 0b 28
        E 32 b0 0b 20
        E 16 b0 0b 48
        E 0 80 32 00
        E 0 90 34 48
        E 16 b0 0b 40
        E 32 b0 0b 38
        E 32 b0 0b 30
        E 32 b0 0b 28
        E 16 b0 0c 10
        E 0 b0 0b 38
        E 0 80 34 00
        E 0 90 42 38
        E 16 b0 0b 30
        E 32 b0 0b 28
        E 32 b0 0b 20
        E 32 b0 0b 18
        E 16 b0 0b 38
        E 0 80 42 00
        E 0 90 43 38
        E 16 b0 0b 30
        E 16 b0 0b 28
        E 32 b0 0b 20
        E 32 b0 0b 18
        E 32 b0 0b 10
        E 16 b0 0b 20
        E 128 b0 0b 38
        E 16 b0 0b 30
        E 32 b0 0b 28
        E 32 b0 0b 20
        E 16 b0 0b 18
        E 32 b0 0b 10
        E 16 b0 0b 20
        E 16 b0 0b 18
        E 32 b0 0b 10
        E 32 b0 0b 08
        E 32 80 43 00
        E 16 b0 0b 38
        E 0 90 43 38
        E 16 b0 0b 30
        E 32 b0 0b 28
        E 32 b0 0b 20
        E 32 b0 0b 18
        E 16 b0 0b 20
        E 16 b0 0b 18
        E 16 b0 0b 10
        E 32 b0 0b 08
        E 32 80 43 00
        E 48 b0 0b 10
        E 0 90 43 10
        E 128 b0 0b 38
        E 272 b0 0b 20
        E 16 b0 0b 18
        E 32 b0 0b 10
        E 32 b0 0b 08
        E 32 80 43 00
        E 16 b0 0b 38
        E 0 90 43 38
        E 16 b0 0b 30
        E 32 b0 0b 28
        E 16 b0 0b 20
        E 32 b0 0b 18
        E 32 b0 0b 10
        E 16 b0 0b 20
        E 16 b0 0b 18
        E 32 b0 0b 10
        E 32 b0 0b 08
        E 32 80 43 00
        E 16 b0 0c 40
        E 0 b0 0b 48
        E 0 90 34 48
        E 16 b0 0b 40
        E 32 b0 0b 38
        E 32 b0 0b 30
        E 32 b0 0b 28
        E 16 b0 0b 20
        E 16 b0 0b 48
        E 0 80 34 00
        E 0 90 32 48
        E 16 b0 0b 40
        E 32 b0 0b 38
        E 32 b0 0b 30
        E 32 b0 0b 28
        E 16 b0 0b 48
        E 0 80 32 00
        E 0 90 34 48
        E 16 b0 0b 40
        E 32 b0 0b 38
        E 32 b0 0b 30
        E 32 b0 0b 28
        E 16 b0 0c 10
        E 0 b0 0b 38
        E 0 80 34 00
        E 0 90 42 38
        E 16 b0 0b 30
        E 32 b0 0b 28
        E 16 b0 0b 20
        E 32 b0 0b 18
        E 32 b0 0b 10
        E 16 b0 0b 38
        E 0 80 42 00
        E 0 90 43 38
        E 16 b0 0b 30
        E 32 b0 0b 28
        E 32 b0 0b 20
        E 32 b0 0b 18
        E 16 b0 0b 20
        E 144 b0 0b 38
        E 16 b0 0b 30
        E 32 b0 0b 28
        E 32 b0 0b 20
        E 32 b0 0b 18
        E 16 b0 0b 20
        E 16 b0 0b 18
        E 32 b0 0b 10
        E 32 b0 0b 08
        E 32 80 43 00
        E 16 b0 0b 38
        E 0 90 43 38
        E 16 b0 0b 30
        E 32 b0 0b 28
        E 16 b0 0b 20
        E 32 b0 0b 18
        E 32 b0 0b 10
        E 16 b0 0b 20
        E 16 b0 0b 18
        E 32 b0 0b 10
        E 32 b0 0b 08
        E 32 80 43 00
        E 16 b0 0b 10
        E 0 90 43 10
        E 128 b0 0b 38
        E 272 b0 0b 20
        E 16 b0 0b 18
        E 32 b0 0b 10
        E 32 b0 0b 08
        E 16 80 43 00
        E 48 b0 0b 38
        E 0 90 43 38
        E 16 b0 0b 30
        E 32 b0 0b 28
        E 32 b0 0b 20
        E 32 b0 0b 18
        E 16 b0 0b 20
        E 16 b0 0b 18
        E 32 b0 0b 10
        E 32 b0 0b 08
        E 32 80 43 00
        E 16 b0 0c 40
        E 0 b0 0b 48
        E 0 90 34 48
        E 16 b0 0b 40
        E 16 b0 0b 38
        E 32 b0 0b 30
        E 32 b0 0b 28
        E 32 b0 0b 20
        E 16 b0 0b 30
        E 0 80 34 00
        E 0 90 2d 30
        E 16 b0 0b 28
        E 32 b0 0b 20
        E 32 b0 0b 18
        E 32 b0 0b 10
        E 16 b0 0b 30
        E 0 80 2d 00
        E 0 90 30 30
        E 16 b0 0b 28
        E 32 b0 0b 20
        E 16 b0 0b 18
        E 0 80 30 00
        E 0 90 2d 18
        E 80 b0 0b 30
        E 0 80 2d 00
        E 0 90 34 30
        E 16 b0 0b 28
        E 32 b0 0b 20
        E 16 b0 0b 18
        E 0 80 34 00
        E 0 90 30 18
        E 16 b0 0b 10
        E 32 b0 0b 08
        E 16 b0 0b 30
        E 0 80 30 00
        E 0 90 37 30
        E 16 b0 0b 28
        E 32 b0 0b 20
        E 16 b0 0b 18
        E 0 80 37 00
        E 0 90 34 18
        E 16 b0 0b 10
        E 32 b0 0b 08
        E 16 b0 0b 30
        E 16 b0 0b 28
        E 16 b0 0b 20
        E 32 b0 0b 18
        E 16 80 34 00
        E 0 90 37 18
        E 16 b0 0b 10
        E 32 b0 0b 08
        E 16 b0 0b 30
        E 0 80 37 00
        E 0 90 30 30
        E 16 b0 0b 28
        E 32 b0 0b 20
        E 16 b0 0b 18
        E 0 80 30 00
        E 0 90 34 18
        E 16 b0 0b 10
        E 32 b0 0b 08
        E 16 b0 0b 30
        E 16 b0 0b 28
        E 32 b0 0b 20
        E 16 b0 0b 18
        E 0 80 34 00
        E 0 90 30 18
        E 16 b0 0b 10
        E 16 b0 0b 08
        E 32 80 30 00
        E 16 b0 0b 30
        E 0 90 37 30
        E 16 b0 0b 28
        E 32 b0 0b 20
        E 16 b0 0b 18
        E 0 80 37 00
        E 0 90 34 18
        E 16 b0 0b 10
        E 32 b0 0b 08
        E 16 b0 0b 30
        E 0 80 34 00
        E 0 90 39 30
        E 16 b0 0b 28
        E 32 b0 0b 20
        E 16 b0 0b 18
        E 0 80 39 00
        E 0 90 37 18
        E 16 b0 0b 10
        E 32 b0 0b 08
        E 16 b0 0b 30
        E 0 80 37 00
        E 0 90 3c 30
        E 16 b0 0b 28
        E 32 b0 0b 20
        E 16 b0 0b 18
        E 16 80 3c 00
        E 0 90 39 18
        E 16 b0 0b 10
        E 32 b0 0b 08
        E 16 b0 0b 30
        E 0 80 39 00
        E 0 90 40 30
        E 16 b0 0b 28
        E 32 b0 0b 20
        E 16 b0 0b 18
        E 0 80 40 00
        E 0 90 3c 18
        E 16 b0 0b 10
        E 32 b0 0b 08
        E 16 b0 0b 30
        E 0 80 3c 00
        E 0 90 43 30
        E 16 b0 0b 28
        E 32 b0 0b 20
        E 16 b0 0b 18
        E 0 80 43 00
        E 0 90 40 18
        E 16 b0 0b 10
        E 32 b0 0b 08
        E 16 80 40 00
        E 16 b0 0b 30
        E 0 90 45 30
        E 16 b0 0b 28
        E 32 b0 0b 20
        E 16 b0 0b 18
        E 0 80 45 00
        E 0 90 43 18
        E 16 b0 0b 10
        E 32 b0 0b 08
        E 16 b0 0b 30
        E 0 80 43 00
        E 0 90 48 30
        E 16 b0 0b 28
        E 32 b0 0b 20
        E 16 b0 0b 18
        E 0 80 48 00
        E 0 90 45 18
        E 16 b0 0b 10
        E 32 b0 0b 08
        E 16 b0 0b 30
        E 0 80 45 00
        E 0 90 4c 30
        E 16 b0 0b 28
        E 32 b0 0b 20
        E 16 b0 0b 18
        E 16 80 4c 00
        E 0 90 48 18
        E 16 b0 0b 10
        E 32 b0 0b 08
        E 16 b0 0b 30
        E 0 80 48 00
        E 0 90 4f 30
        E 16 b0 0b 28
        E 32 b0 0b 20
        E 16 b0 0b 18
        E 0 80 4f 00
        E 0 90 4c 18
        E 16 b0 0b 10
        E 32 b0 0b 08
        E 16 b0 0b 30
        E 0 80 4c 00
        E 0 90 2f 30
        E 16 b0 0b 28
        E 32 b0 0b 20
        E 16 b0 0b 18
        E 0 80 2f 00
        E 0 90 4f 18
        E 16 b0 0b 10
        E 32 b0 0b 08
        E 16 80 4f 00
        E 16 b0 0b 30
        E 0 90 33 30
        E 16 b0 0b 28
        E 32 b0 0b 20
        E 16 b0 0b 18
        E 0 80 33 00
        E 0 90 2f 18
        E 16 b0 0b 10
        E 32 b0 0b 08
        E 16 b0 0b 30
        E 0 80 2f 00
        E 0 90 36 30
        E 16 b0 0b 28
        E 32 b0 0b 20
        E 16 b0 0b 18
        E 0 80 36 00
        E 0 90 33 18
        E 16 b0 0b 10
        E 32 b0 0b 08
        E 16 b0 0b 30
        E 0 80 33 00
        E 0 90 39 30
        E 16 b0 0b 28
        E 32 b0 0b 20
        E 16 b0 0b 18
        E 16 80 39 00
        E 0 90 36 18
        E 16 b0 0b 10
        E 32 b0 0b 08
        E 16 b0 0b 30
        E 16 b0 0b 28
        E 32 b0 0b 20
        E 16 b0 0b 18
        E 0 80 36 00
        E 0 90 39 18
        E 16 b0 0b 10
        E 32 b0 0b 08
        E 16 b0 0b 30
        E 0 80 39 00
        E 0 90 33 30
        E 16 b0 0b 28
        E 32 b0 0b 20
        E 16 b0 0b 18
        E 0 80 33 00
        E 0 90 36 18
        E 16 b0 0b 10
        E 32 b0 0b 08
        E 16 80 36 00
        E 16 b0 0b 30
        E 0 90 36 30
        E 16 b0 0b 28
        E 32 b0 0b 20
        E 16 b0 0b 18
        E 0 80 36 00
        E 0 90 33 18
        E 16 b0 0b 10
        E 32 b0 0b 08
        E 16 b0 0b 30
        E 0 80 33 00
        E 0 90 39 30
        E 16 b0 0b 28
        E 32 b0 0b 20
        E 16 b0 0b 18
        E 0 80 39 00
        E 0 90 36 18
        E 16 b0 0b 10
        E 32 b0 0b 08
        E 16 b0 0b 30
        E 0 80 36 00
        E 0 90 3b 30
        E 16 b0 0b 28
        E 32 b0 0b 20
        E 16 b0 0b 18
        E 0 80 3b 00
        E 0 90 29 18
        E 16 b0 0b 10
        E 16 b0 0b 08
        E 32 80 29 00
        E 16 b0 0b 30
        E 0 90 3f 30
        E 16 b0 0b 28
        E 32 b0 0b 20
        E 16 b0 0b 18
        E 0 80 3f 00
        E 0 90 3b 18
        E 16 b0 0b 10
        E 32 b0 0b 08
        E 16 b0 0b 30
        E 0 80 3b 00
        E 0 90 42 30
        E 16 b0 0b 28
        E 32 b0 0b 20
        E 16 b0 0b 18
        E 0 80 42 00
        E 0 90 3f 18
        E 16 b0 0b 10
        E 32 b0 0b 08
        E 16 b0 0b 30
        E 0 80 3f 00
        E 0 90 45 30
        E 16 b0 0b 28
        E 16 b0 0b 20
        E 32 b0 0b 18
        E 16 80 45 00
        E 0 90 42 18
        E 16 b0 0b 10
        E 32 b0 0b 08
        E 16 b0 0b 30
        E 0 80 42 00
        E 0 90 47 30
        E 16 b0 0b 28
        E 32 b0 0b 20
        E 16 b0 0b 18
        E 0 80 47 00
        E 0 90 45 18
        E 16 b0 0b 10
        E 32 b0 0b 08
        E 16 b0 0b 30
        E 0 80 45 00
        E 0 90 4b 30
        E 16 b0 0b 28
        E 32 b0 0b 20
        E 16 b0 0b 18
        E 0 80 4b 00
        E 0 90 47 18
        E 16 b0 0b 10
        E 16 b0 0b 08
        E 32 80 47 00
        E 16 b0 0b 30
        E 0 90 4e 30
        E 16 b0 0b 28
        E 32 b0 0b 20
        E 16 b0 0b 18
        E 0 80 4e 00
        E 0 90 4b 18
        E 16 b0 0b 10
        E 32 b0 0b 08
        E 16 b0 0b 30
        E 0 80 4b 00
        E 0 90 51 30
        E 16 b0 0b 28
        E 32 b0 0b 20
        E 16 b0 0b 18
        E 0 80 51 00
        E 0 90 4e 18
        E 64 80 4e 00
        E 4304 b0 0c 10
        E 0 b0 0b 20
        E 0 90 40 20
        E 16 b0 0b 18
        E 32 b0 0b 10
        E 32 b0 0b 08
        E 32 80 40 00
        E 16 b0 0b 18
        E 0 90 40 18
        E 16 b0 0b 10
        E 16 b0 0b 08
        E 32 80 40 00
        E 80 b0 0b 10
        E 0 90 40 10
        E 48 b0 0b 08
        E 64 80 40 00
        E 16 90 40 08
        E 80 80 40 00
        E 64 b0 0b 20
        E 0 90 40 20
        E 16 b0 0b 18
        E 32 b0 0b 10
        E 32 b0 0b 08
        E 32 80 40 00
        E 16 b0 0b 18
        E 0 90 40 18
        E 16 b0 0b 10
        E 32 b0 0b 08
        E 32 80 40 00
        E 48 b0 0b 10
        E 0 90 40 10
        E 48 b0 0b 08
        E 48 80 40 00
        E 48 90 40 08
        E 80 80 40 00
        E 48 b0 0b 20
        E 0 90 40 20
        E 16 b0 0b 18
        E 32 b0 0b 10
        E 32 b0 0b 08
        E 32 80 40 00
        E 32 b0 0b 18
        E 0 90 40 18
        E 16 b0 0b 10
        E 32 b0 0b 08
        E 32 80 40 00
        E 48 b0 0b 10
        E 0 90 40 10
        E 48 b0 0b 08
        E 64 80 40 00
        E 16 90 40 08
        E 64 80 40 00
        E 80 b0 0b 20
        E 0 90 40 20
        E 16 b0 0b 18
        E 32 b0 0b 10
        E 32 b0 0b 08
        E 32 80 40 00
        E 16 b0 0b 18
        E 0 90 40 18
        E 16 b0 0b 10
        E 32 b0 0b 08
        E 32 80 40 00
        E 64 b0 0b 10
        E 0 90 40 10
        E 48 b0 0b 08
        E 64 80 40 00
        E 16 90 40 08
        E 80 80 40 00
        E 48 b0 0b 20
        E 0 90 40 20
        E 16 b0 0b 18
        E 32 b0 0b 10
        E 16 b0 0b 08
        E 32 80 40 00
        E 48 b0 0b 18
        E 0 90 40 18
        E 16 b0 0b 10
        E 32 b0 0b 08
        E 32 80 40 00
        E 48 b0 0b 10
        E 0 90 40 10
        E 48 b0 0b 08
        E 64 80 40 00
        E 32 90 40 08
        E 80 80 40 00
        E 48 b0 0b 20
        E 0 90 40 20
        E 16 b0 0b 18
        E 32 b0 0b 10
        E 32 b0 0b 08
        E 32 80 40 00
        E 16 b0 0b 18
        E 0 90 40 18
        E 16 b0 0b 10
        E 32 b0 0b 08
        E 32 80 40 00
        E 64 b0 0b 10
        E 0 90 40 10
        E 48 b0 0b 08
        E 64 80 40 00
        E 16 90 40 08
        E 80 80 40 00
        E 48 b0 0b 20
        E 0 90 40 20
        E 16 b0 0b 18
        E 16 b0 0b 10
        E 32 b0 0b 08
        E 32 80 40 00
        E 48 b0 0b 18
        E 0 90 40 18
        E 16 b0 0b 10
        E 32 b0 0b 08
        E 32 80 40 00
        E 48 b0 0b 10
        E 0 90 40 10
        E 48 b0 0b 08
        E 48 80 40 00
        E 48 90 40 08
        E 80 80 40 00
        E 48 b0 0b 20
        E 0 90 40 20
        E 16 b0 0b 18
        E 32 b0 0b 10
        E 32 b0 0b 08
        E 32 80 40 00
        E 16 b0 0b 18
        E 0 90 40 18
        E 16 b0 0b 10
        E 16 b0 0b 08
        E 32 80 40 00
        E 80 b0 0b 10
        E 0 90 40 10
        E 48 b0 0b 08
        E 64 80 40 00
        E 16 90 40 08
        E 80 80 40 00
        E 64 b0 0c 40
        E 0 b0 0b 38
        E 0 90 34 38
        E 16 b0 0b 30
        E 32 b0 0b 28
        E 32 b0 0b 20
        E 32 b0 0b 18
        E 16 b0 0b 20
        E 16 b0 0b 18
        E 32 b0 0b 10
        E 32 b0 0b 08
        E 32 80 34 00
        E 16 b0 0b 10
        E 0 90 34 10
        E 32 b0 0b 08
        E 64 80 34 00
        E 48 90 34 08
        E 80 80 34 00
        E 48 b0 0b 38
        E 0 90 34 38
        E 16 b0 0b 30
        E 32 b0 0b 28
        E 32 b0 0b 20
        E 32 b0 0b 18
        E 16 b0 0b 10
        E 16 b0 0b 38
        E 0 80 34 00
        E 0 90 32 38
        E 16 b0 0b 30
        E 32 b0 0b 28
        E 32 b0 0b 20
        E 32 b0 0b 18
        E 16 b0 0b 20
        E 16 b0 0b 18
        E 32 b0 0b 10
        E 32 b0 0b 08
        E 32 80 32 00
        E 16 b0 0b 10
        E 0 90 32 10
        E 48 b0 0b 08
        E 48 80 32 00
        E 48 b0 0b 58
        E 0 90 34 58
        E 16 b0 0b 50
        E 32 b0 0b 48
        E 32 b0 0b 40
        E 32 b0 0b 38
        E 32 b0 0b 30
        E 32 b0 0b 28
        E 32 b0 0b 20
        E 32 b0 0b 18
        E 16 b0 0b 10
        E 16 80 34 00
        E 0 90 3f 10
        E 144 b0 0b 18
        E 160 b0 0b 20
        E 16 80 3f 00
        E 0 90 40 20
        E 128 b0 0b 28
        E 160 b0 0b 30
        E 144 b0 0b 38
        E 48 b0 0c 60
        E 0 b0 0b 30
        E 0 80 40 00
        E 0 90 39 30
        E 128 80 39 00
        E 0 90 43 30
        E 16 b0 0b 28
        E 32 b0 0b 20
        E 16 b0 0b 18
        E 32 b0 0b 10
        E 32 b0 0b 08
        E 16 b0 0b 30
        E 16 b0 0b 28
        E 32 b0 0b 20
        E 32 b0 0b 18
        E 32 b0 0b 10
        E 16 b0 0b 30
        E 0 80 43 00
        E 0 90 39 30
        E 16 b0 0b 28
        E 32 b0 0b 20
        E 32 b0 0b 18
        E 32 b0 0b 10
        E 16 b0 0b 30
        E 0 80 39 00
        E 0 90 40 30
        E 16 b0 0b 28
        E 16 b0 0b 20
        E 32 b0 0b 18
        E 32 b0 0b 10
        E 32 b0 0b 08
        E 16 b0 0b 30
        E 0 80 40 00
        E 0 90 39 30
        E 16 b0 0b 28
        E 32 b0 0b 20
        E 32 b0 0b 18
        E 32 b0 0b 10
        E 16 b0 0b 30
        E 0 80 39 00
        E 0 90 40 30
        E 16 b0 0b 28
        E 32 b0 0b 20
        E 32 b0 0b 18
        E 16 b0 0b 10
        E 32 b0 0b 08
        E 16 b0 0b 30
        E 16 b0 0b 28
        E 32 b0 0b 20
        E 32 b0 0b 18
        E 32 b0 0b 10
        E 16 b0 0b 30
        E 0 80 40 00
        E 0 90 39 30
        E 16 b0 0b 28
        E 32 b0 0b 20
        E 32 b0 0b 18
        E 32 b0 0b 10
        E 16 b0 0b 30
        E 0 80 39 00
        E 0 90 43 30
        E 16 b0 0b 28
        E 16 b0 0b 20
        E 32 b0 0b 18
        E 32 b0 0b 10
        E 32 b0 0b 08
        E 16 b0 0b 30
        E 16 b0 0b 28
        E 32 b0 0b 20
        E 32 b0 0b 18
        E 32 b0 0b 10
        E 16 b0 0b 30
        E 0 80 43 00
        E 0 90 39 30
        E 16 b0 0b 28
        E 32 b0 0b 20
        E 32 b0 0b 18
        E 16 b0 0b 10
        E 32 b0 0b 08
        E 16 b0 0b 30
        E 0 80 39 00
        E 0 90 40 30
        E 16 b0 0b 28
        E 32 b0 0b 20
        E 32 b0 0b 18
        E 32 b0 0b 10
        E 16 b0 0b 30
        E 0 80 40 00
        E 0 90 39 30
        E 16 b0 0b 28
        E 32 b0 0b 20
        E 32 b0 0b 18
        E 32 b0 0b 10
        E 16 b0 0b 30
        E 0 80 39 00
        E 0 90 40 30
        E 16 b0 0b 28
        E 16 b0 0b 20
        E 32 b0 0b 18
        E 32 b0 0b 10
        E 32 b0 0b 08
        E 16 b0 0b 30
        E 16 b0 0b 28
        E 32 b0 0b 20
        E 32 b0 0b 18
        E 32 b0 0b 10
        E 16 b0 0c 20
        E 0 b0 0b 38
        E 0 80 40 00
        E 0 90 2f 38
        E 16 b0 0b 30
        E 32 b0 0b 28
        E 32 b0 0b 20
        E 16 b0 0b 18
        E 32 b0 0b 10
        E 32 b0 0b 08
        E 32 80 2f 00
        E 80 b0 0b 38
        E 0 90 2f 38
        E 16 b0 0b 30
        E 32 b0 0b 28
        E 32 b0 0b 20
        E 32 b0 0b 18
        E 32 b0 0b 10
        E 32 b0 0b 08
        E 16 80 2f 00
        E 80 b0 0b 38
        E 0 90 2f 38
        E 16 b0 0b 30
        E 32 b0 0b 28
        E 32 b0 0b 20
        E 32 b0 0b 18
        E 16 b0 0b 38
        E 0 80 2f 00
        E 0 90 2d 38
        E 48 b0 0b 30
        E 64 b0 0b 28
        E 48 b0 0b 20
        E 64 b0 0b 18
        E 48 b0 0b 38
        E 0 80 2d 00
        E 0 90 2f 38
        E 16 b0 0b 30
        E 32 b0 0b 28
        E 32 b0 0b 20
        E 32 b0 0b 18
        E 32 b0 0b 10
        E 32 b0 0b 08
        E 16 80 2f 00
        E 80 b0 0b 38
        E 0 90 2f 38
        E 16 b0 0b 30
        E 32 b0 0b 28
        E 32 b0 0b 20
        E 32 b0 0b 18
        E 16 b0 0b 38
        E 16 b0 0b 30
        E 32 b0 0b 28
        E 32 b0 0b 20
        E 32 b0 0b 18
        E 16 b0 0b 10
        E 32 b0 0b 08
        E 32 80 2f 00
        E 80 b0 0b 38
        E 0 90 2f 38
        E 16 b0 0b 30
        E 32 b0 0b 28
        E 32 b0 0b 20
        E 32 b0 0b 18
        E 16 b0 0b 38
        E 0 80 2f 00
        E 0 90 32 38
        E 48 b0 0b 30
        E 48 b0 0b 28
        E 64 b0 0b 20
        E 64 b0 0b 18
        E 64 b0 0b 10
        E 64 b0 0b 08
        E 48 80 32 00
        E 16 b0 0b 38
        E 0 90 2f 38
        E 16 b0 0b 30
        E 32 b0 0b 28
        E 32 b0 0b 20
        E 32 b0 0b 18
        E 32 b0 0b 10
        E 32 b0 0b 08
        E 32 80 2f 00
        E 48 b0 0b 38
        E 0 90 2f 38
        E 16 b0 0b 30
        E 32 b0 0b 28
        E 32 b0 0b 20
        E 16 b0 0b 18
        E 32 b0 0b 10
        E 32 b0 0b 08
        E 32 80 2f 00
        E 80 b0 0b 38
        E 0 90 2f 38
        E 16 b0 0b 30
        E 32 b0 0b 28
        E 32 b0 0b 20
        E 32 b0 0b 18
        E 16 b0 0b 38
        E 0 80 2f 00
        E 0 90 2d 38
        E 32 b0 0b 30
        E 64 b0 0b 28
        E 64 b0 0b 20
        E 64 b0 0b 18
        E 48 b0 0b 38
        E 0 80 2d 00
        E 0 90 2f 38
        E 16 b0 0b 30
        E 32 b0 0b 28
        E 32 b0 0b 20
        E 16 b0 0b 18
        E 32 b0 0b 10
        E 32 b0 0b 08
        E 32 80 2f 00
        E 80 b0 0b 38
        E 0 90 2f 38
        E 16 b0 0b 30
        E 32 b0 0b 28
        E 32 b0 0b 20
        E 32 b0 0b 18
        E 16 b0 0b 38
        E 16 b0 0b 30
        E 16 b0 0b 28
        E 32 b0 0b 20
        E 32 b0 0b 18
        E 32 b0 0b 10
        E 32 b0 0b 08
        E 32 80 2f 00
        E 80 b0 0b 38
        E 0 90 2f 38
        E 16 b0 0b 30
        E 32 b0 0b 28
        E 32 b0 0b 20
        E 16 b0 0b 18
        E 32 b0 0b 10
        E 16 b0 0b 38
        E 0 80 2f 00
        E 0 90 32 38
        E 48 b0 0b 30
        E 64 b0 0b 28
        E 64 b0 0b 20
        E 64 b0 0b 18
        E 48 b0 0b 10
        E 64 b0 0b 08
        E 48 b0 0c 60
        E 0 b0 0b 30
        E 0 80 32 00
        E 0 90 39 30
        E 16 b0 0b 28
        E 64 b0 0b 20
        E 48 b0 0b 30
        E 0 80 39 00
        E 0 90 43 30
        E 16 b0 0b 28
        E 32 b0 0b 20
        E 32 b0 0b 18
        E 32 b0 0b 10
        E 16 b0 0b 08
        E 16 b0 0b 30
        E 16 b0 0b 28
        E 32 b0 0b 20
        E 32 b0 0b 18
        E 32 b0 0b 10
        E 16 b0 0b 30
        E 0 80 43 00
        E 0 90 39 30
        E 16 b0 0b 28
        E 32 b0 0b 20
        E 32 b0 0b 18
        E 32 b0 0b 10
        E 16 b0 0b 30
        E 0 80 39 00
        E 0 90 40 30
        E 16 b0 0b 28
        E 32 b0 0b 20
        E 16 b0 0b 18
        E 32 b0 0b 10
        E 32 b0 0b 08
        E 16 b0 0b 30
        E 0 80 40 00
        E 0 90 39 30
        E 16 b0 0b 28
        E 32 b0 0b 20
        E 32 b0 0b 18
        E 32 b0 0b 10
        E 16 b0 0b 30
        E 0 80 39 00
        E 0 90 40 30
        E 16 b0 0b 28
        E 32 b0 0b 20
        E 32 b0 0b 18
        E 32 b0 0b 10
        E 16 b0 0b 08
        E 16 b0 0b 30
        E 16 b0 0b 28
        E 32 b0 0b 20
        E 32 b0 0b 18
        E 32 b0 0b 10
        E 16 b0 0b 30
        E 0 80 40 00
        E 0 90 39 30
        E 16 b0 0b 28
        E 32 b0 0b 20
        E 32 b0 0b 18
        E 32 b0 0b 10
        E 16 b0 0b 30
        E 0 80 39 00
        E 0 90 43 30
        E 16 b0 0b 28
        E 32 b0 0b 20
        E 16 b0 0b 18
        E 32 b0 0b 10
        E 32 b0 0b 08
        E 16 b0 0b 30
        E 16 b0 0b 28
        E 32 b0 0b 20
        E 32 b0 0b 18
        E 32 b0 0b 10
        E 16 b0 0b 30
        E 0 80 43 00
        E 0 90 39 30
        E 16 b0 0b 28
        E 32 b0 0b 20
        E 32 b0 0b 18
        E 32 b0 0b 10
        E 16 b0 0b 08
        E 16 b0 0b 30
        E 0 80 39 00
        E 0 90 40 30
        E 16 b0 0b 28
        E 32 b0 0b 20
        E 32 b0 0b 18
        E 32 b0 0b 10
        E 16 b0 0b 30
        E 0 80 40 00
        E 0 90 39 30
        E 16 b0 0b 28
        E 32 b0 0b 20
        E 32 b0 0b 18
        E 32 b0 0b 10
        E 16 b0 0b 30
        E 0 80 39 00
        E 0 90 40 30
        E 16 b0 0b 28
        E 32 b0 0b 20
        E 16 b0 0b 18
        E 32 b0 0b 10
        E 32 b0 0b 08
        E 16 b0 0b 30
        E 16 b0 0b 28
        E 32 b0 0b 20
        E 32 b0 0b 18
        E 32 b0 0b 10
        E 16 b0 0c 10
        E 0 b0 0b 38
        E 0 80 40 00
        E 0 90 3b 38
        E 16 b0 0b 30
        E 32 b0 0b 28
        E 32 b0 0b 20
        E 32 b0 0b 18
        E 16 b0 0b 20
        E 144 b0 0b 38
        E 0 80 3b 00
        E 0 90 42 38
        E 144 b0 0b 30
        E 32 b0 0b 28
        E 32 b0 0b 20
        E 16 b0 0b 18
        E 32 b0 0b 10
        E 16 b0 0b 20
        E 128 b0 0b 38
        E 0 80 42 00
        E 0 90 43 38
        E 16 b0 0b 30
        E 32 b0 0b 28
        E 32 b0 0b 20
        E 32 b0 0b 18
        E 16 b0 0b 20
        E 16 b0 0b 18
        E 16 b0 0b 10
        E 32 b0 0b 08
        E 32 80 43 00
        E 48 b0 0b 38
        E 0 90 45 38
        E 16 b0 0b 30
        E 32 b0 0b 28
        E 32 b0 0b 20
        E 32 b0 0b 18
        E 16 b0 0b 20
        E 16 b0 0b 18
        E 32 b0 0b 10
        E 32 b0 0b 08
        E 16 80 45 00
        E 48 b0 0b 10
        E 0 90 45 10
        E 128 b0 0b 38
        E 272 b0 0b 20
        E 128 b0 0b 38
        E 144 b0 0b 20
        E 128 b0 0b 10
        E 128 80 45 00
        E 0 ff 2f 00
      >
    >
  >
  <TRACK {069053A7-C598-41F4-9B7F-AAB4AC5D09CF}
    NAME "NES - Pulse 2 [ch1]"
    PEAKCOL 10092441
    BEAT -1
    AUTOMODE 0
    PANLAWFLAGS 3
    VOLPAN 1 0 -1 -1 1
    MUTESOLO 0 0 0
    IPHASE 0
    PLAYOFFS 0 1
    ISBUS 0 0
    BUSCOMP 0 0 0 0 0
    SHOWINMIX 1 0.6667 0.5 1 0.5 0 0 0
    FIXEDLANES 9 0 0 0 0
    SEL 0
    REC 0 5088 1 0 0 0 0 0
    VU 2
    TRACKHEIGHT 0 0 0 0 0 0 0
    INQ 0 0 0 0.5 100 0 0 100
    NCHAN 2
    FX 1
    TRACKID {069053A7-C598-41F4-9B7F-AAB4AC5D09CF}
    PERF 0
    MIDIOUT -1
    MAINSEND 1 0
    <FXCHAIN
      WNDRECT 24 52 700 560
      SHOW 0
      LASTSEL 0
      DOCKED 0
      BYPASS 0 0 0
      <JS "ReapNES Studio/ReapNES_Console.jsfx" ""
        2 15 1 10 80 10 100 2 1 15 1 5 60 10 80 1 1 0 50 0 0 15 1 0 100 0 0 0.500000 0.500000 0.400000 0.300000 0.800000 1 1 0 0 0 0 - - - - - - - - - - - - - - - - - - - - - - - - - -
      >
      FLOATPOS 0 0 0 0
      FXID {22E1DFF3-EA13-4F1F-9BD5-53521546EC20}
      WAK 0 0
    >
    <ITEM
      POSITION 0
      LENGTH 83.98134
      LOOP 0
      ALLTAKES 0
      FADEIN 0 0 0 0 0 0 0
      FADEOUT 0 0 0 0 0 0 0
      MUTE 0 0
      SEL 0
      IGUID {1147C2FD-2644-4CC0-8CFA-4B2D6527F7F8}
      <SOURCE MIDI
        HASDATA 1 480 QN
        CCINTERP 32
        E 0 c1 51
        E 64 b1 0c 20
        E 0 b1 0b 30
        E 0 91 28 30
        E 80 b1 0b 28
        E 32 b1 0b 20
        E 32 b1 0b 18
        E 32 b1 0b 10
        E 32 b1 0b 08
        E 32 81 28 00
        E 16 b1 0b 30
        E 0 91 28 30
        E 16 b1 0b 28
        E 16 b1 0b 20
        E 32 b1 0b 18
        E 32 b1 0b 10
        E 32 b1 0b 08
        E 32 81 28 00
        E 112 b1 0b 30
        E 0 91 28 30
        E 16 b1 0b 28
        E 32 b1 0b 20
        E 32 b1 0b 18
        E 16 b1 0b 10
        E 32 b1 0b 08
        E 16 b1 0b 30
        E 0 81 28 00
        E 0 91 26 30
        E 48 b1 0b 28
        E 64 b1 0b 20
        E 64 b1 0b 18
        E 64 b1 0b 10
        E 16 b1 0b 30
        E 0 81 26 00
        E 0 91 28 30
        E 16 b1 0b 28
        E 16 b1 0b 20
        E 32 b1 0b 18
        E 32 b1 0b 10
        E 32 b1 0b 08
        E 32 81 28 00
        E 112 b1 0b 30
        E 0 91 28 30
        E 16 b1 0b 28
        E 32 b1 0b 20
        E 32 b1 0b 18
        E 16 b1 0b 10
        E 32 b1 0b 08
        E 16 b1 0b 30
        E 16 b1 0b 28
        E 32 b1 0b 20
        E 32 b1 0b 18
        E 32 b1 0b 10
        E 32 b1 0b 08
        E 32 81 28 00
        E 80 b1 0b 30
        E 0 91 28 30
        E 16 b1 0b 28
        E 16 b1 0b 20
        E 32 b1 0b 18
        E 32 b1 0b 10
        E 32 b1 0b 08
        E 16 b1 0b 30
        E 0 81 28 00
        E 0 91 2b 30
        E 48 b1 0b 28
        E 64 b1 0b 20
        E 64 b1 0b 18
        E 64 b1 0b 10
        E 48 b1 0b 08
        E 64 81 2b 00
        E 48 b1 0b 30
        E 0 91 28 30
        E 16 b1 0b 28
        E 32 b1 0b 20
        E 32 b1 0b 18
        E 32 b1 0b 10
        E 32 b1 0b 08
        E 32 81 28 00
        E 96 b1 0b 30
        E 0 91 28 30
        E 16 b1 0b 28
        E 32 b1 0b 20
        E 32 b1 0b 18
        E 32 b1 0b 10
        E 32 b1 0b 08
        E 32 81 28 00
        E 96 b1 0b 30
        E 0 91 28 30
        E 16 b1 0b 28
        E 32 b1 0b 20
        E 32 b1 0b 18
        E 32 b1 0b 10
        E 16 b1 0b 30
        E 0 81 28 00
        E 0 91 26 30
        E 48 b1 0b 28
        E 64 b1 0b 20
        E 64 b1 0b 18
        E 48 b1 0b 10
        E 48 b1 0b 30
        E 0 81 26 00
        E 0 91 28 30
        E 16 b1 0b 28
        E 32 b1 0b 20
        E 32 b1 0b 18
        E 32 b1 0b 10
        E 32 b1 0b 08
        E 32 81 28 00
        E 96 b1 0b 30
        E 0 91 28 30
        E 16 b1 0b 28
        E 32 b1 0b 20
        E 32 b1 0b 18
        E 32 b1 0b 10
        E 16 b1 0b 30
        E 16 b1 0b 28
        E 32 b1 0b 20
        E 32 b1 0b 18
        E 32 b1 0b 10
        E 32 b1 0b 08
        E 32 81 28 00
        E 96 b1 0b 30
        E 0 91 28 30
        E 16 b1 0b 28
        E 32 b1 0b 20
        E 32 b1 0b 18
        E 32 b1 0b 10
        E 16 b1 0b 30
        E 0 81 28 00
        E 0 91 2b 30
        E 48 b1 0b 28
        E 64 b1 0b 20
        E 48 b1 0b 18
        E 64 b1 0b 10
        E 64 b1 0b 08
        E 64 81 2b 00
        E 48 b1 0b 30
        E 0 91 28 30
        E 16 b1 0b 28
        E 32 b1 0b 20
        E 32 b1 0b 18
        E 16 b1 0b 10
        E 32 b1 0b 08
        E 32 81 28 00
        E 112 b1 0b 30
        E 0 91 28 30
        E 16 b1 0b 28
        E 32 b1 0b 20
        E 32 b1 0b 18
        E 32 b1 0b 10
        E 32 b1 0b 08
        E 16 81 28 00
        E 112 b1 0b 30
        E 0 91 28 30
        E 16 b1 0b 28
        E 32 b1 0b 20
        E 32 b1 0b 18
        E 32 b1 0b 10
        E 16 b1 0b 30
        E 0 81 28 00
        E 0 91 26 30
        E 48 b1 0b 28
        E 48 b1 0b 20
        E 64 b1 0b 18
        E 64 b1 0b 10
        E 48 b1 0b 30
        E 0 81 26 00
        E 0 91 28 30
        E 16 b1 0b 28
        E 32 b1 0b 20
        E 32 b1 0b 18
        E 32 b1 0b 10
        E 32 b1 0b 08
        E 16 81 28 00
        E 112 b1 0b 30
        E 0 91 28 30
        E 16 b1 0b 28
        E 32 b1 0b 20
        E 32 b1 0b 18
        E 32 b1 0b 10
        E 16 b1 0b 30
        E 16 b1 0b 28
        E 32 b1 0b 20
        E 32 b1 0b 18
        E 16 b1 0b 10
        E 32 b1 0b 08
        E 32 81 28 00
        E 112 b1 0b 30
        E 0 91 28 30
        E 16 b1 0b 28
        E 32 b1 0b 20
        E 32 b1 0b 18
        E 32 b1 0b 10
        E 16 b1 0b 30
        E 0 81 28 00
        E 0 91 2b 30
        E 48 b1 0b 28
        E 48 b1 0b 20
        E 64 b1 0b 18
        E 64 b1 0b 10
        E 64 b1 0b 08
        E 64 81 2b 00
        E 64 b1 0b 30
        E 0 91 28 30
        E 16 b1 0b 28
        E 32 b1 0b 20
        E 32 b1 0b 18
        E 32 b1 0b 10
        E 32 b1 0b 08
        E 32 81 28 00
        E 80 b1 0b 30
        E 0 91 28 30
        E 16 b1 0b 28
        E 32 b1 0b 20
        E 16 b1 0b 18
        E 32 b1 0b 10
        E 32 b1 0b 08
        E 32 81 28 00
        E 112 b1 0b 30
        E 0 91 28 30
        E 16 b1 0b 28
        E 32 b1 0b 20
        E 32 b1 0b 18
        E 32 b1 0b 10
        E 16 b1 0b 08
        E 16 b1 0b 30
        E 0 81 28 00
        E 0 91 26 30
        E 48 b1 0b 28
        E 64 b1 0b 20
        E 64 b1 0b 18
        E 64 b1 0b 10
        E 16 b1 0b 30
        E 0 81 26 00
        E 0 91 28 30
        E 16 b1 0b 28
        E 32 b1 0b 20
        E 16 b1 0b 18
        E 32 b1 0b 10
        E 32 b1 0b 08
        E 32 81 28 00
        E 112 b1 0b 30
        E 0 91 28 30
        E 16 b1 0b 28
        E 32 b1 0b 20
        E 32 b1 0b 18
        E 32 b1 0b 10
        E 16 b1 0b 08
        E 16 b1 0b 30
        E 16 b1 0b 28
        E 32 b1 0b 20
        E 32 b1 0b 18
        E 32 b1 0b 10
        E 32 b1 0b 08
        E 32 81 28 00
        E 80 b1 0b 30
        E 0 91 28 30
        E 16 b1 0b 28
        E 32 b1 0b 20
        E 32 b1 0b 18
        E 16 b1 0b 10
        E 32 b1 0b 08
        E 16 b1 0b 30
        E 0 81 28 00
        E 0 91 2b 30
        E 48 b1 0b 28
        E 64 b1 0b 20
        E 64 b1 0b 18
        E 64 b1 0b 10
        E 48 b1 0b 08
        E 64 81 2b 00
        E 48 b1 0c 40
        E 0 b1 0b 38
        E 0 91 2f 38
        E 16 b1 0b 30
        E 32 b1 0b 28
        E 32 b1 0b 20
        E 32 b1 0b 18
        E 16 b1 0b 20
        E 16 b1 0b 18
        E 32 b1 0b 10
        E 32 b1 0b 08
        E 16 81 2f 00
        E 48 b1 0b 10
        E 0 91 2f 10
        E 48 b1 0b 08
        E 64 81 2f 00
        E 16 91 2f 08
        E 80 81 2f 00
        E 48 b1 0b 38
        E 0 91 2f 38
        E 16 b1 0b 30
        E 16 b1 0b 28
        E 32 b1 0b 20
        E 32 b1 0b 18
        E 32 b1 0b 10
        E 16 b1 0b 38
        E 0 81 2f 00
        E 0 91 2d 38
        E 16 b1 0b 30
        E 32 b1 0b 28
        E 32 b1 0b 20
        E 32 b1 0b 18
        E 16 b1 0b 20
        E 16 b1 0b 18
        E 32 b1 0b 10
        E 32 b1 0b 08
        E 16 81 2d 00
        E 48 b1 0b 10
        E 0 91 2d 10
        E 48 b1 0b 08
        E 64 81 2d 00
        E 16 b1 0b 58
        E 0 91 2f 58
        E 16 b1 0b 50
        E 32 b1 0b 48
        E 32 b1 0b 40
        E 32 b1 0b 38
        E 32 b1 0b 30
        E 16 b1 0b 28
        E 32 b1 0b 20
        E 32 b1 0b 18
        E 32 b1 0b 10
        E 16 81 2f 00
        E 0 91 39 10
        E 144 b1 0b 18
        E 144 b1 0b 20
        E 160 b1 0b 28
        E 32 81 39 00
        E 0 91 3a 28
        E 112 b1 0b 30
        E 160 b1 0b 38
        E 48 b1 0c 60
        E 0 b1 0b 30
        E 0 81 3a 00
        E 0 91 2d 30
        E 128 b1 0b 38
        E 16 b1 0b 30
        E 0 81 2d 00
        E 0 91 40 30
        E 16 b1 0b 28
        E 32 b1 0b 20
        E 32 b1 0b 18
        E 32 b1 0b 10
        E 16 b1 0b 30
        E 16 b1 0b 28
        E 32 b1 0b 20
        E 32 b1 0b 18
        E 32 b1 0b 10
        E 16 b1 0b 30
        E 0 81 40 00
        E 0 91 2d 30
        E 16 b1 0b 28
        E 32 b1 0b 20
        E 16 b1 0b 18
        E 32 b1 0b 10
        E 32 b1 0b 08
        E 16 b1 0b 30
        E 0 81 2d 00
        E 0 91 3c 30
        E 16 b1 0b 28
        E 32 b1 0b 20
        E 32 b1 0b 18
        E 32 b1 0b 10
        E 16 b1 0b 30
        E 0 81 3c 00
        E 0 91 2d 30
        E 16 b1 0b 28
        E 32 b1 0b 20
        E 32 b1 0b 18
        E 32 b1 0b 10
        E 16 b1 0b 08
        E 16 b1 0b 30
        E 0 81 2d 00
        E 0 91 3c 30
        E 16 b1 0b 28
        E 32 b1 0b 20
        E 32 b1 0b 18
        E 32 b1 0b 10
        E 16 b1 0b 30
        E 16 b1 0b 28
        E 32 b1 0b 20
        E 32 b1 0b 18
        E 32 b1 0b 10
        E 16 b1 0b 30
        E 0 81 3c 00
        E 0 91 2d 30
        E 16 b1 0b 28
        E 32 b1 0b 20
        E 16 b1 0b 18
        E 32 b1 0b 10
        E 32 b1 0b 08
        E 16 b1 0b 30
        E 0 81 2d 00
        E 0 91 40 30
        E 16 b1 0b 28
        E 32 b1 0b 20
        E 32 b1 0b 18
        E 32 b1 0b 10
        E 16 b1 0b 30
        E 16 b1 0b 28
        E 32 b1 0b 20
        E 32 b1 0b 18
        E 32 b1 0b 10
        E 16 b1 0b 30
        E 0 81 40 00
        E 0 91 2d 30
        E 16 b1 0b 28
        E 16 b1 0b 20
        E 32 b1 0b 18
        E 32 b1 0b 10
        E 32 b1 0b 08
        E 16 b1 0b 30
        E 0 81 2d 00
        E 0 91 3c 30
        E 16 b1 0b 28
        E 32 b1 0b 20
        E 32 b1 0b 18
        E 32 b1 0b 10
        E 16 b1 0b 30
        E 0 81 3c 00
        E 0 91 2d 30
        E 16 b1 0b 28
        E 32 b1 0b 20
        E 32 b1 0b 18
        E 16 b1 0b 10
        E 32 b1 0b 08
        E 16 b1 0b 30
        E 0 81 2d 00
        E 0 91 3c 30
        E 16 b1 0b 28
        E 32 b1 0b 20
        E 32 b1 0b 18
        E 32 b1 0b 10
        E 16 b1 0b 30
        E 16 b1 0b 28
        E 32 b1 0b 20
        E 32 b1 0b 18
        E 32 b1 0b 10
        E 16 b1 0c 20
        E 0 b1 0b 38
        E 0 81 3c 00
        E 0 91 28 38
        E 16 b1 0b 30
        E 16 b1 0b 28
        E 32 b1 0b 20
        E 32 b1 0b 18
        E 32 b1 0b 10
        E 32 b1 0b 08
        E 32 81 28 00
        E 80 b1 0b 38
        E 0 91 28 38
        E 16 b1 0b 30
        E 32 b1 0b 28
        E 32 b1 0b 20
        E 16 b1 0b 18
        E 32 b1 0b 10
        E 32 b1 0b 08
        E 32 81 28 00
        E 80 b1 0b 38
        E 0 91 28 38
        E 16 b1 0b 30
        E 32 b1 0b 28
        E 32 b1 0b 20
        E 32 b1 0b 18
        E 16 b1 0b 38
        E 0 81 28 00
        E 0 91 26 38
        E 32 b1 0b 30
        E 64 b1 0b 28
        E 64 b1 0b 20
        E 64 b1 0b 18
        E 48 b1 0b 38
        E 0 81 26 00
        E 0 91 28 38
        E 16 b1 0b 30
        E 32 b1 0b 28
        E 32 b1 0b 20
        E 16 b1 0b 18
        E 32 b1 0b 10
        E 32 b1 0b 08
        E 32 81 28 00
        E 80 b1 0b 38
        E 0 91 28 38
        E 16 b1 0b 30
        E 32 b1 0b 28
        E 32 b1 0b 20
        E 32 b1 0b 18
        E 16 b1 0b 38
        E 16 b1 0b 30
        E 32 b1 0b 28
        E 16 b1 0b 20
        E 32 b1 0b 18
        E 32 b1 0b 10
        E 32 b1 0b 08
        E 32 81 28 00
        E 80 b1 0b 38
        E 0 91 28 38
        E 16 b1 0b 30
        E 32 b1 0b 28
        E 32 b1 0b 20
        E 32 b1 0b 18
        E 16 b1 0b 10
        E 16 b1 0b 38
        E 0 81 28 00
        E 0 91 2b 38
        E 48 b1 0b 30
        E 64 b1 0b 28
        E 64 b1 0b 20
        E 64 b1 0b 18
        E 64 b1 0b 10
        E 48 b1 0b 08
        E 48 b1 0b 38
        E 0 81 2b 00
        E 0 91 28 38
        E 16 b1 0b 30
        E 32 b1 0b 28
        E 32 b1 0b 20
        E 32 b1 0b 18
        E 32 b1 0b 10
        E 32 b1 0b 08
        E 32 81 28 00
        E 64 b1 0b 38
        E 0 91 28 38
        E 16 b1 0b 30
        E 32 b1 0b 28
        E 32 b1 0b 20
        E 32 b1 0b 18
        E 32 b1 0b 10
        E 32 b1 0b 08
        E 32 81 28 00
        E 48 b1 0b 38
        E 0 91 28 38
        E 16 b1 0b 30
        E 32 b1 0b 28
        E 16 b1 0b 20
        E 32 b1 0b 18
        E 32 b1 0b 10
        E 16 b1 0b 38
        E 0 81 28 00
        E 0 91 26 38
        E 48 b1 0b 30
        E 64 b1 0b 28
        E 64 b1 0b 20
        E 64 b1 0b 18
        E 32 b1 0b 38
        E 0 81 26 00
        E 0 91 28 38
        E 16 b1 0b 30
        E 32 b1 0b 28
        E 32 b1 0b 20
        E 32 b1 0b 18
        E 32 b1 0b 10
        E 32 b1 0b 08
        E 32 81 28 00
        E 48 b1 0b 38
        E 0 91 28 38
        E 16 b1 0b 30
        E 32 b1 0b 28
        E 32 b1 0b 20
        E 16 b1 0b 18
        E 32 b1 0b 10
        E 16 b1 0b 38
        E 16 b1 0b 30
        E 32 b1 0b 28
        E 32 b1 0b 20
        E 32 b1 0b 18
        E 32 b1 0b 10
        E 32 b1 0b 08
        E 32 81 28 00
        E 48 b1 0b 38
        E 0 91 28 38
        E 16 b1 0b 30
        E 16 b1 0b 28
        E 32 b1 0b 20
        E 32 b1 0b 18
        E 32 b1 0b 10
        E 16 b1 0b 38
        E 0 81 28 00
        E 0 91 2b 38
        E 48 b1 0b 30
        E 64 b1 0b 28
        E 64 b1 0b 20
        E 48 b1 0b 18
        E 64 b1 0b 10
        E 64 b1 0b 08
        E 48 b1 0c 60
        E 0 b1 0b 30
        E 0 81 2b 00
        E 0 91 2d 30
        E 16 b1 0b 28
        E 64 b1 0b 20
        E 48 b1 0b 30
        E 0 81 2d 00
        E 0 91 40 30
        E 16 b1 0b 28
        E 16 b1 0b 20
        E 32 b1 0b 18
        E 32 b1 0b 10
        E 32 b1 0b 08
        E 16 b1 0b 30
        E 16 b1 0b 28
        E 32 b1 0b 20
        E 32 b1 0b 18
        E 32 b1 0b 10
        E 16 b1 0b 30
        E 0 81 40 00
        E 0 91 2d 30
        E 16 b1 0b 28
        E 32 b1 0b 20
        E 32 b1 0b 18
        E 16 b1 0b 10
        E 32 b1 0b 08
        E 16 b1 0b 30
        E 0 81 2d 00
        E 0 91 3c 30
        E 16 b1 0b 28
        E 32 b1 0b 20
        E 32 b1 0b 18
        E 32 b1 0b 10
        E 16 b1 0b 30
        E 0 81 3c 00
        E 0 91 2d 30
        E 16 b1 0b 28
        E 32 b1 0b 20
        E 32 b1 0b 18
        E 32 b1 0b 10
        E 16 b1 0b 30
        E 0 81 2d 00
        E 0 91 3c 30
        E 16 b1 0b 28
        E 16 b1 0b 20
        E 32 b1 0b 18
        E 32 b1 0b 10
        E 32 b1 0b 08
        E 16 b1 0b 30
        E 16 b1 0b 28
        E 32 b1 0b 20
        E 32 b1 0b 18
        E 32 b1 0b 10
        E 16 b1 0b 30
        E 0 81 3c 00
        E 0 91 2d 30
        E 16 b1 0b 28
        E 32 b1 0b 20
        E 32 b1 0b 18
        E 32 b1 0b 10
        E 16 b1 0b 08
        E 16 b1 0b 30
        E 0 81 2d 00
        E 0 91 40 30
        E 16 b1 0b 28
        E 32 b1 0b 20
        E 32 b1 0b 18
        E 32 b1 0b 10
        E 16 b1 0b 30
        E 16 b1 0b 28
        E 32 b1 0b 20
        E 32 b1 0b 18
        E 32 b1 0b 10
        E 16 b1 0b 30
        E 0 81 40 00
        E 0 91 2d 30
        E 16 b1 0b 28
        E 32 b1 0b 20
        E 16 b1 0b 18
        E 32 b1 0b 10
        E 32 b1 0b 08
        E 16 b1 0b 30
        E 0 81 2d 00
        E 0 91 3c 30
        E 16 b1 0b 28
        E 32 b1 0b 20
        E 32 b1 0b 18
        E 32 b1 0b 10
        E 16 b1 0b 30
        E 0 81 3c 00
        E 0 91 2d 30
        E 16 b1 0b 28
        E 32 b1 0b 20
        E 32 b1 0b 18
        E 32 b1 0b 10
        E 16 b1 0b 08
        E 16 b1 0b 30
        E 0 81 2d 00
        E 0 91 3c 30
        E 16 b1 0b 28
        E 32 b1 0b 20
        E 32 b1 0b 18
        E 32 b1 0b 10
        E 16 b1 0b 30
        E 16 b1 0b 28
        E 32 b1 0b 20
        E 32 b1 0b 18
        E 32 b1 0b 10
        E 16 b1 0c 10
        E 0 b1 0b 38
        E 0 81 3c 00
        E 0 91 2f 38
        E 16 b1 0b 30
        E 32 b1 0b 28
        E 16 b1 0b 20
        E 32 b1 0b 18
        E 32 b1 0b 10
        E 16 b1 0b 20
        E 128 b1 0b 38
        E 0 81 2f 00
        E 0 91 3f 38
        E 160 b1 0b 30
        E 32 b1 0b 28
        E 32 b1 0b 20
        E 32 b1 0b 18
        E 16 b1 0b 20
        E 128 b1 0b 38
        E 0 81 3f 00
        E 0 91 42 38
        E 16 b1 0b 30
        E 32 b1 0b 28
        E 16 b1 0b 20
        E 32 b1 0b 18
        E 32 b1 0b 10
        E 16 b1 0b 20
        E 16 b1 0b 18
        E 32 b1 0b 10
        E 32 b1 0b 08
        E 32 81 42 00
        E 16 b1 0b 38
        E 0 91 42 38
        E 16 b1 0b 30
        E 32 b1 0b 28
        E 32 b1 0b 20
        E 32 b1 0b 18
        E 16 b1 0b 20
        E 16 b1 0b 18
        E 16 b1 0b 10
        E 32 b1 0b 08
        E 32 81 42 00
        E 48 b1 0b 10
        E 0 91 42 10
        E 128 b1 0b 38
        E 272 b1 0b 20
        E 128 b1 0b 38
        E 144 b1 0b 20
        E 128 b1 0b 10
        E 144 b1 0c 20
        E 0 b1 0b 30
        E 0 81 42 00
        E 0 91 28 30
        E 16 b1 0b 28
        E 32 b1 0b 20
        E 32 b1 0b 18
        E 32 b1 0b 10
        E 32 b1 0b 08
        E 32 81 28 00
        E 80 b1 0b 30
        E 0 91 28 30
        E 16 b1 0b 28
        E 16 b1 0b 20
        E 32 b1 0b 18
        E 32 b1 0b 10
        E 32 b1 0b 08
        E 32 81 28 00
        E 112 b1 0b 30
        E 0 91 28 30
        E 16 b1 0b 28
        E 32 b1 0b 20
        E 32 b1 0b 18
        E 16 b1 0b 10
        E 32 b1 0b 08
        E 16 b1 0b 30
        E 0 81 28 00
        E 0 91 26 30
        E 48 b1 0b 28
        E 64 b1 0b 20
        E 64 b1 0b 18
        E 64 b1 0b 10
        E 16 b1 0b 30
        E 0 81 26 00
        E 0 91 28 30
        E 16 b1 0b 28
        E 32 b1 0b 20
        E 16 b1 0b 18
        E 32 b1 0b 10
        E 32 b1 0b 08
        E 32 81 28 00
        E 112 b1 0b 30
        E 0 91 28 30
        E 16 b1 0b 28
        E 32 b1 0b 20
        E 32 b1 0b 18
        E 32 b1 0b 10
        E 16 b1 0b 08
        E 16 b1 0b 30
        E 16 b1 0b 28
        E 32 b1 0b 20
        E 32 b1 0b 18
        E 32 b1 0b 10
        E 32 b1 0b 08
        E 32 81 28 00
        E 80 b1 0b 30
        E 0 91 28 30
        E 16 b1 0b 28
        E 32 b1 0b 20
        E 16 b1 0b 18
        E 32 b1 0b 10
        E 32 b1 0b 08
        E 16 b1 0b 30
        E 0 81 28 00
        E 0 91 2b 30
        E 48 b1 0b 28
        E 64 b1 0b 20
        E 64 b1 0b 18
        E 64 b1 0b 10
        E 48 b1 0b 08
        E 64 81 2b 00
        E 48 b1 0b 30
        E 0 91 28 30
        E 16 b1 0b 28
        E 32 b1 0b 20
        E 32 b1 0b 18
        E 32 b1 0b 10
        E 32 b1 0b 08
        E 32 81 28 00
        E 96 b1 0b 30
        E 0 91 28 30
        E 16 b1 0b 28
        E 32 b1 0b 20
        E 32 b1 0b 18
        E 32 b1 0b 10
        E 32 b1 0b 08
        E 32 81 28 00
        E 96 b1 0b 30
        E 0 91 28 30
        E 16 b1 0b 28
        E 32 b1 0b 20
        E 32 b1 0b 18
        E 32 b1 0b 10
        E 16 b1 0b 30
        E 0 81 28 00
        E 0 91 26 30
        E 48 b1 0b 28
        E 64 b1 0b 20
        E 64 b1 0b 18
        E 48 b1 0b 10
        E 48 b1 0b 30
        E 0 81 26 00
        E 0 91 28 30
        E 16 b1 0b 28
        E 32 b1 0b 20
        E 32 b1 0b 18
        E 32 b1 0b 10
        E 32 b1 0b 08
        E 32 81 28 00
        E 80 b1 0b 30
        E 0 91 28 30
        E 16 b1 0b 28
        E 16 b1 0b 20
        E 32 b1 0b 18
        E 32 b1 0b 10
        E 32 b1 0b 08
        E 16 b1 0b 30
        E 16 b1 0b 28
        E 32 b1 0b 20
        E 32 b1 0b 18
        E 32 b1 0b 10
        E 32 b1 0b 08
        E 32 81 28 00
        E 96 b1 0b 30
        E 0 91 28 30
        E 16 b1 0b 28
        E 32 b1 0b 20
        E 32 b1 0b 18
        E 32 b1 0b 10
        E 16 b1 0b 30
        E 0 81 28 00
        E 0 91 2b 30
        E 48 b1 0b 28
        E 64 b1 0b 20
        E 48 b1 0b 18
        E 64 b1 0b 10
        E 64 b1 0b 08
        E 64 81 2b 00
        E 48 b1 0b 30
        E 0 91 28 30
        E 16 b1 0b 28
        E 32 b1 0b 20
        E 32 b1 0b 18
        E 16 b1 0b 10
        E 32 b1 0b 08
        E 32 81 28 00
        E 112 b1 0b 30
        E 0 91 28 30
        E 16 b1 0b 28
        E 32 b1 0b 20
        E 32 b1 0b 18
        E 32 b1 0b 10
        E 32 b1 0b 08
        E 16 81 28 00
        E 112 b1 0b 30
        E 0 91 28 30
        E 16 b1 0b 28
        E 32 b1 0b 20
        E 32 b1 0b 18
        E 32 b1 0b 10
        E 16 b1 0b 30
        E 0 81 28 00
        E 0 91 26 30
        E 48 b1 0b 28
        E 64 b1 0b 20
        E 48 b1 0b 18
        E 64 b1 0b 10
        E 48 b1 0b 30
        E 0 81 26 00
        E 0 91 28 30
        E 16 b1 0b 28
        E 32 b1 0b 20
        E 32 b1 0b 18
        E 32 b1 0b 10
        E 32 b1 0b 08
        E 32 81 28 00
        E 96 b1 0b 30
        E 0 91 28 30
        E 16 b1 0b 28
        E 32 b1 0b 20
        E 32 b1 0b 18
        E 32 b1 0b 10
        E 16 b1 0b 30
        E 16 b1 0b 28
        E 32 b1 0b 20
        E 32 b1 0b 18
        E 32 b1 0b 10
        E 16 b1 0b 08
        E 32 81 28 00
        E 112 b1 0b 30
        E 0 91 28 30
        E 16 b1 0b 28
        E 32 b1 0b 20
        E 32 b1 0b 18
        E 32 b1 0b 10
        E 16 b1 0b 30
        E 0 81 28 00
        E 0 91 2b 30
        E 48 b1 0b 28
        E 48 b1 0b 20
        E 64 b1 0b 18
        E 64 b1 0b 10
        E 64 b1 0b 08
        E 64 81 2b 00
        E 64 b1 0b 30
        E 0 91 28 30
        E 16 b1 0b 28
        E 32 b1 0b 20
        E 32 b1 0b 18
        E 32 b1 0b 10
        E 32 b1 0b 08
        E 32 81 28 00
        E 80 b1 0b 30
        E 0 91 28 30
        E 16 b1 0b 28
        E 32 b1 0b 20
        E 16 b1 0b 18
        E 32 b1 0b 10
        E 32 b1 0b 08
        E 32 81 28 00
        E 112 b1 0b 30
        E 0 91 28 30
        E 16 b1 0b 28
        E 32 b1 0b 20
        E 32 b1 0b 18
        E 32 b1 0b 10
        E 16 b1 0b 30
        E 0 81 28 00
        E 0 91 26 30
        E 32 b1 0b 28
        E 64 b1 0b 20
        E 64 b1 0b 18
        E 64 b1 0b 10
        E 48 b1 0b 30
        E 0 81 26 00
        E 0 91 28 30
        E 16 b1 0b 28
        E 32 b1 0b 20
        E 32 b1 0b 18
        E 16 b1 0b 10
        E 32 b1 0b 08
        E 32 81 28 00
        E 112 b1 0b 30
        E 0 91 28 30
        E 16 b1 0b 28
        E 32 b1 0b 20
        E 32 b1 0b 18
        E 32 b1 0b 10
        E 16 b1 0b 30
        E 16 b1 0b 28
        E 16 b1 0b 20
        E 32 b1 0b 18
        E 32 b1 0b 10
        E 32 b1 0b 08
        E 32 81 28 00
        E 112 b1 0b 30
        E 0 91 28 30
        E 16 b1 0b 28
        E 32 b1 0b 20
        E 32 b1 0b 18
        E 16 b1 0b 10
        E 32 b1 0b 08
        E 16 b1 0b 30
        E 0 81 28 00
        E 0 91 2b 30
        E 48 b1 0b 28
        E 64 b1 0b 20
        E 64 b1 0b 18
        E 64 b1 0b 10
        E 48 b1 0b 08
        E 64 81 2b 00
        E 48 b1 0b 30
        E 0 91 28 30
        E 16 b1 0b 28
        E 32 b1 0b 20
        E 32 b1 0b 18
        E 32 b1 0b 10
        E 32 b1 0b 08
        E 32 81 28 00
        E 96 b1 0b 30
        E 0 91 28 30
        E 16 b1 0b 28
        E 32 b1 0b 20
        E 32 b1 0b 18
        E 32 b1 0b 10
        E 32 b1 0b 08
        E 32 81 28 00
        E 80 b1 0b 30
        E 0 91 28 30
        E 16 b1 0b 28
        E 32 b1 0b 20
        E 16 b1 0b 18
        E 32 b1 0b 10
        E 32 b1 0b 08
        E 16 b1 0b 30
        E 0 81 28 00
        E 0 91 26 30
        E 48 b1 0b 28
        E 64 b1 0b 20
        E 64 b1 0b 18
        E 64 b1 0b 10
        E 32 b1 0b 30
        E 0 81 26 00
        E 0 91 28 30
        E 16 b1 0b 28
        E 32 b1 0b 20
        E 32 b1 0b 18
        E 32 b1 0b 10
        E 32 b1 0b 08
        E 32 81 28 00
        E 80 b1 0b 30
        E 0 91 28 30
        E 16 b1 0b 28
        E 32 b1 0b 20
        E 16 b1 0b 18
        E 32 b1 0b 10
        E 32 b1 0b 08
        E 16 b1 0b 30
        E 16 b1 0b 28
        E 32 b1 0b 20
        E 32 b1 0b 18
        E 32 b1 0b 10
        E 32 b1 0b 08
        E 32 81 28 00
        E 96 b1 0b 30
        E 0 91 28 30
        E 16 b1 0b 28
        E 32 b1 0b 20
        E 32 b1 0b 18
        E 32 b1 0b 10
        E 16 b1 0b 30
        E 0 81 28 00
        E 0 91 2b 30
        E 48 b1 0b 28
        E 64 b1 0b 20
        E 64 b1 0b 18
        E 48 b1 0b 10
        E 64 b1 0b 08
        E 64 81 2b 00
        E 48 b1 0b 30
        E 0 91 28 30
        E 16 b1 0b 28
        E 32 b1 0b 20
        E 32 b1 0b 18
        E 32 b1 0b 10
        E 16 b1 0b 08
        E 32 81 28 00
        E 112 b1 0b 30
        E 0 91 28 30
        E 16 b1 0b 28
        E 32 b1 0b 20
        E 32 b1 0b 18
        E 32 b1 0b 10
        E 32 b1 0b 08
        E 32 81 28 00
        E 96 b1 0b 30
        E 0 91 28 30
        E 16 b1 0b 28
        E 32 b1 0b 20
        E 32 b1 0b 18
        E 32 b1 0b 10
        E 16 b1 0b 30
        E 0 81 28 00
        E 0 91 26 30
        E 48 b1 0b 28
        E 64 b1 0b 20
        E 48 b1 0b 18
        E 64 b1 0b 10
        E 48 b1 0b 30
        E 0 81 26 00
        E 0 91 28 30
        E 16 b1 0b 28
        E 32 b1 0b 20
        E 32 b1 0b 18
        E 32 b1 0b 10
        E 32 b1 0b 08
        E 32 81 28 00
        E 96 b1 0b 30
        E 0 91 28 30
        E 16 b1 0b 28
        E 32 b1 0b 20
        E 32 b1 0b 18
        E 32 b1 0b 10
        E 16 b1 0b 30
        E 16 b1 0b 28
        E 32 b1 0b 20
        E 32 b1 0b 18
        E 32 b1 0b 10
        E 32 b1 0b 08
        E 16 81 28 00
        E 112 b1 0b 30
        E 0 91 28 30
        E 16 b1 0b 28
        E 32 b1 0b 20
        E 32 b1 0b 18
        E 32 b1 0b 10
        E 16 b1 0b 30
        E 0 81 28 00
        E 0 91 2b 30
        E 48 b1 0b 28
        E 48 b1 0b 20
        E 64 b1 0b 18
        E 64 b1 0b 10
        E 64 b1 0b 08
        E 64 81 2b 00
        E 48 b1 0b 30
        E 0 91 28 30
        E 16 b1 0b 28
        E 16 b1 0b 20
        E 32 b1 0b 18
        E 32 b1 0b 10
        E 32 b1 0b 08
        E 32 81 28 00
        E 112 b1 0b 30
        E 0 91 28 30
        E 16 b1 0b 28
        E 32 b1 0b 20
        E 32 b1 0b 18
        E 32 b1 0b 10
        E 16 b1 0b 08
        E 32 81 28 00
        E 112 b1 0b 30
        E 0 91 28 30
        E 16 b1 0b 28
        E 32 b1 0b 20
        E 32 b1 0b 18
        E 32 b1 0b 10
        E 16 b1 0b 30
        E 0 81 28 00
        E 0 91 26 30
        E 48 b1 0b 28
        E 48 b1 0b 20
        E 64 b1 0b 18
        E 64 b1 0b 10
        E 48 b1 0b 30
        E 0 81 26 00
        E 0 91 28 30
        E 16 b1 0b 28
        E 32 b1 0b 20
        E 32 b1 0b 18
        E 32 b1 0b 10
        E 16 b1 0b 08
        E 32 81 28 00
        E 112 b1 0b 30
        E 0 91 28 30
        E 16 b1 0b 28
        E 32 b1 0b 20
        E 32 b1 0b 18
        E 32 b1 0b 10
        E 16 b1 0b 30
        E 16 b1 0b 28
        E 32 b1 0b 20
        E 16 b1 0b 18
        E 32 b1 0b 10
        E 32 b1 0b 08
        E 32 81 28 00
        E 112 b1 0b 30
        E 0 91 28 30
        E 16 b1 0b 28
        E 32 b1 0b 20
        E 32 b1 0b 18
        E 32 b1 0b 10
        E 16 b1 0b 08
        E 16 b1 0b 30
        E 0 81 28 00
        E 0 91 2b 30
        E 48 b1 0b 28
        E 64 b1 0b 20
        E 64 b1 0b 18
        E 64 b1 0b 10
        E 64 b1 0b 08
        E 48 81 2b 00
        E 48 b1 0b 30
        E 0 91 28 30
        E 16 b1 0b 28
        E 32 b1 0b 20
        E 32 b1 0b 18
        E 32 b1 0b 10
        E 32 b1 0b 08
        E 32 81 28 00
        E 80 b1 0b 30
        E 0 91 28 30
        E 16 b1 0b 28
        E 16 b1 0b 20
        E 32 b1 0b 18
        E 32 b1 0b 10
        E 32 b1 0b 08
        E 32 81 28 00
        E 112 b1 0b 30
        E 0 91 28 30
        E 16 b1 0b 28
        E 32 b1 0b 20
        E 32 b1 0b 18
        E 16 b1 0b 10
        E 32 b1 0b 08
        E 16 b1 0b 30
        E 0 81 28 00
        E 0 91 26 30
        E 48 b1 0b 28
        E 64 b1 0b 20
        E 64 b1 0b 18
        E 64 b1 0b 10
        E 16 b1 0b 30
        E 0 81 26 00
        E 0 91 28 30
        E 16 b1 0b 28
        E 16 b1 0b 20
        E 32 b1 0b 18
        E 32 b1 0b 10
        E 32 b1 0b 08
        E 32 81 28 00
        E 112 b1 0b 30
        E 0 91 28 30
        E 16 b1 0b 28
        E 32 b1 0b 20
        E 32 b1 0b 18
        E 16 b1 0b 10
        E 32 b1 0b 08
        E 16 b1 0b 30
        E 16 b1 0b 28
        E 32 b1 0b 20
        E 32 b1 0b 18
        E 32 b1 0b 10
        E 32 b1 0b 08
        E 32 81 28 00
        E 80 b1 0b 30
        E 0 91 28 30
        E 16 b1 0b 28
        E 16 b1 0b 20
        E 32 b1 0b 18
        E 32 b1 0b 10
        E 32 b1 0b 08
        E 16 b1 0b 30
        E 0 81 28 00
        E 0 91 2b 30
        E 48 b1 0b 28
        E 64 b1 0b 20
        E 64 b1 0b 18
        E 48 b1 0b 10
        E 64 b1 0b 08
        E 64 81 2b 00
        E 48 b1 0b 30
        E 0 91 2f 30
        E 16 b1 0b 28
        E 32 b1 0b 20
        E 32 b1 0b 18
        E 32 b1 0b 10
        E 32 b1 0b 08
        E 32 81 2f 00
        E 96 b1 0b 30
        E 0 91 2f 30
        E 16 b1 0b 28
        E 32 b1 0b 20
        E 32 b1 0b 18
        E 32 b1 0b 10
        E 32 b1 0b 08
        E 32 81 2f 00
        E 96 b1 0b 30
        E 0 91 2f 30
        E 16 b1 0b 28
        E 32 b1 0b 20
        E 32 b1 0b 18
        E 32 b1 0b 10
        E 16 b1 0b 30
        E 0 81 2f 00
        E 0 91 2d 30
        E 48 b1 0b 28
        E 64 b1 0b 20
        E 64 b1 0b 18
        E 48 b1 0b 10
        E 48 b1 0b 30
        E 0 81 2d 00
        E 0 91 2f 30
        E 16 b1 0b 28
        E 32 b1 0b 20
        E 32 b1 0b 18
        E 32 b1 0b 10
        E 32 b1 0b 08
        E 32 81 2f 00
        E 96 b1 0b 30
        E 0 91 2f 30
        E 16 b1 0b 28
        E 32 b1 0b 20
        E 32 b1 0b 18
        E 32 b1 0b 10
        E 16 b1 0b 30
        E 16 b1 0b 28
        E 32 b1 0b 20
        E 32 b1 0b 18
        E 32 b1 0b 10
        E 32 b1 0b 08
        E 32 81 2f 00
        E 96 b1 0b 30
        E 0 91 2f 30
        E 16 b1 0b 28
        E 32 b1 0b 20
        E 32 b1 0b 18
        E 32 b1 0b 10
        E 16 b1 0b 30
        E 0 81 2f 00
        E 0 91 32 30
        E 48 b1 0b 28
        E 64 b1 0b 20
        E 48 b1 0b 18
        E 64 b1 0b 10
        E 64 b1 0b 08
        E 64 81 32 00
        E 48 b1 0b 30
        E 0 91 2f 30
        E 16 b1 0b 28
        E 32 b1 0b 20
        E 32 b1 0b 18
        E 16 b1 0b 10
        E 32 b1 0b 08
        E 32 81 2f 00
        E 112 b1 0b 30
        E 0 91 2f 30
        E 16 b1 0b 28
        E 32 b1 0b 20
        E 32 b1 0b 18
        E 32 b1 0b 10
        E 32 b1 0b 08
        E 16 81 2f 00
        E 112 b1 0b 30
        E 0 91 2f 30
        E 16 b1 0b 28
        E 32 b1 0b 20
        E 32 b1 0b 18
        E 32 b1 0b 10
        E 16 b1 0b 30
        E 0 81 2f 00
        E 0 91 2d 30
        E 48 b1 0b 28
        E 48 b1 0b 20
        E 64 b1 0b 18
        E 64 b1 0b 10
        E 48 b1 0b 30
        E 0 81 2d 00
        E 0 91 2f 30
        E 16 b1 0b 28
        E 32 b1 0b 20
        E 32 b1 0b 18
        E 32 b1 0b 10
        E 32 b1 0b 08
        E 16 81 2f 00
        E 112 b1 0b 30
        E 0 91 2f 30
        E 16 b1 0b 28
        E 32 b1 0b 20
        E 32 b1 0b 18
        E 32 b1 0b 10
        E 16 b1 0b 30
        E 16 b1 0b 28
        E 32 b1 0b 20
        E 32 b1 0b 18
        E 16 b1 0b 10
        E 32 b1 0b 08
        E 32 81 2f 00
        E 112 b1 0b 30
        E 0 91 2f 30
        E 16 b1 0b 28
        E 32 b1 0b 20
        E 32 b1 0b 18
        E 32 b1 0b 10
        E 16 b1 0b 30
        E 0 81 2f 00
        E 0 91 32 30
        E 32 b1 0b 28
        E 64 b1 0b 20
        E 64 b1 0b 18
        E 64 b1 0b 10
        E 64 b1 0b 08
        E 64 81 32 00
        E 64 b1 0b 30
        E 0 91 28 30
        E 16 b1 0b 28
        E 32 b1 0b 20
        E 32 b1 0b 18
        E 32 b1 0b 10
        E 32 b1 0b 08
        E 32 81 28 00
        E 80 b1 0b 30
        E 0 91 28 30
        E 16 b1 0b 28
        E 32 b1 0b 20
        E 16 b1 0b 18
        E 32 b1 0b 10
        E 32 b1 0b 08
        E 32 81 28 00
        E 112 b1 0b 30
        E 0 91 28 30
        E 16 b1 0b 28
        E 32 b1 0b 20
        E 32 b1 0b 18
        E 32 b1 0b 10
        E 16 b1 0b 08
        E 16 b1 0b 30
        E 0 81 28 00
        E 0 91 26 30
        E 48 b1 0b 28
        E 64 b1 0b 20
        E 64 b1 0b 18
        E 64 b1 0b 10
        E 16 b1 0b 30
        E 0 81 26 00
        E 0 91 28 30
        E 16 b1 0b 28
        E 32 b1 0b 20
        E 16 b1 0b 18
        E 32 b1 0b 10
        E 32 b1 0b 08
        E 32 81 28 00
        E 112 b1 0b 30
        E 0 91 28 30
        E 16 b1 0b 28
        E 32 b1 0b 20
        E 32 b1 0b 18
        E 32 b1 0b 10
        E 16 b1 0b 08
        E 16 b1 0b 30
        E 16 b1 0b 28
        E 32 b1 0b 20
        E 32 b1 0b 18
        E 32 b1 0b 10
        E 32 b1 0b 08
        E 32 81 28 00
        E 80 b1 0b 30
        E 0 91 28 30
        E 16 b1 0b 28
        E 32 b1 0b 20
        E 16 b1 0b 18
        E 32 b1 0b 10
        E 32 b1 0b 08
        E 16 b1 0b 30
        E 0 81 28 00
        E 0 91 2b 30
        E 48 b1 0b 28
        E 64 b1 0b 20
        E 64 b1 0b 18
        E 64 b1 0b 10
        E 48 b1 0b 08
        E 64 81 2b 00
        E 48 b1 0b 30
        E 0 91 28 30
        E 16 b1 0b 28
        E 32 b1 0b 20
        E 32 b1 0b 18
        E 32 b1 0b 10
        E 32 b1 0b 08
        E 32 81 28 00
        E 96 b1 0b 30
        E 0 91 28 30
        E 16 b1 0b 28
        E 32 b1 0b 20
        E 32 b1 0b 18
        E 32 b1 0b 10
        E 32 b1 0b 08
        E 32 81 28 00
        E 80 b1 0b 30
        E 0 91 28 30
        E 16 b1 0b 28
        E 16 b1 0b 20
        E 32 b1 0b 18
        E 32 b1 0b 10
        E 32 b1 0b 08
        E 16 b1 0b 30
        E 0 81 28 00
        E 0 91 26 30
        E 48 b1 0b 28
        E 64 b1 0b 20
        E 64 b1 0b 18
        E 48 b1 0b 10
        E 48 b1 0b 30
        E 0 81 26 00
        E 0 91 28 30
        E 16 b1 0b 28
        E 32 b1 0b 20
        E 32 b1 0b 18
        E 32 b1 0b 10
        E 32 b1 0b 08
        E 32 81 28 00
        E 80 b1 0b 30
        E 0 91 28 30
        E 16 b1 0b 28
        E 16 b1 0b 20
        E 32 b1 0b 18
        E 32 b1 0b 10
        E 32 b1 0b 08
        E 16 b1 0b 30
        E 16 b1 0b 28
        E 32 b1 0b 20
        E 32 b1 0b 18
        E 32 b1 0b 10
        E 32 b1 0b 08
        E 32 81 28 00
        E 96 b1 0b 30
        E 0 91 28 30
        E 16 b1 0b 28
        E 32 b1 0b 20
        E 32 b1 0b 18
        E 32 b1 0b 10
        E 16 b1 0b 30
        E 0 81 28 00
        E 0 91 2b 30
        E 48 b1 0b 28
        E 64 b1 0b 20
        E 64 b1 0b 18
        E 48 b1 0b 10
        E 64 b1 0b 08
        E 64 81 2b 00
        E 48 b1 0b 28
        E 0 91 2b 28
        E 224 b1 0b 20
        E 192 b1 0b 18
        E 1728 b1 0b 28
        E 0 81 2b 00
        E 0 91 2f 28
        E 224 b1 0b 20
        E 176 b1 0b 18
        E 1760 b1 0c 40
        E 0 b1 0b 48
        E 0 81 2f 00
        E 0 91 26 48
        E 16 b1 0b 40
        E 32 b1 0b 38
        E 32 b1 0b 30
        E 32 b1 0b 28
        E 16 b1 0b 48
        E 0 81 26 00
        E 0 91 28 48
        E 16 b1 0b 40
        E 32 b1 0b 38
        E 32 b1 0b 30
        E 32 b1 0b 28
        E 16 b1 0b 20
        E 16 b1 0c 10
        E 0 b1 0b 38
        E 0 81 28 00
        E 0 91 3f 38
        E 16 b1 0b 30
        E 32 b1 0b 28
        E 32 b1 0b 20
        E 32 b1 0b 18
        E 16 b1 0b 38
        E 0 81 3f 00
        E 0 91 40 38
        E 16 b1 0b 30
        E 32 b1 0b 28
        E 32 b1 0b 20
        E 32 b1 0b 18
        E 16 b1 0b 20
        E 144 b1 0b 38
        E 16 b1 0b 30
        E 32 b1 0b 28
        E 32 b1 0b 20
        E 32 b1 0b 18
        E 16 b1 0b 20
        E 16 b1 0b 18
        E 32 b1 0b 10
        E 32 b1 0b 08
        E 32 81 40 00
        E 32 b1 0b 38
        E 0 91 40 38
        E 16 b1 0b 30
        E 32 b1 0b 28
        E 32 b1 0b 20
        E 32 b1 0b 18
        E 16 b1 0b 20
        E 16 b1 0b 18
        E 32 b1 0b 10
        E 32 b1 0b 08
        E 32 81 40 00
        E 16 b1 0b 10
        E 0 91 40 10
        E 144 b1 0b 38
        E 256 b1 0b 20
        E 144 b1 0b 38
        E 128 b1 0b 20
        E 144 b1 0c 40
        E 0 b1 0b 48
        E 0 81 40 00
        E 0 91 28 48
        E 16 b1 0b 40
        E 32 b1 0b 38
        E 32 b1 0b 30
        E 32 b1 0b 28
        E 16 b1 0b 48
        E 0 81 28 00
        E 0 91 26 48
        E 16 b1 0b 40
        E 32 b1 0b 38
        E 32 b1 0b 30
        E 32 b1 0b 28
        E 16 b1 0b 48
        E 0 81 26 00
        E 0 91 28 48
        E 16 b1 0b 40
        E 16 b1 0b 38
        E 32 b1 0b 30
        E 32 b1 0b 28
        E 32 b1 0b 20
        E 16 b1 0c 10
        E 0 b1 0b 38
        E 0 81 28 00
        E 0 91 3f 38
        E 16 b1 0b 30
        E 32 b1 0b 28
        E 32 b1 0b 20
        E 32 b1 0b 18
        E 16 b1 0b 38
        E 0 81 3f 00
        E 0 91 40 38
        E 16 b1 0b 30
        E 32 b1 0b 28
        E 32 b1 0b 20
        E 16 b1 0b 18
        E 32 b1 0b 10
        E 16 b1 0b 20
        E 128 b1 0b 38
        E 16 b1 0b 30
        E 32 b1 0b 28
        E 32 b1 0b 20
        E 32 b1 0b 18
        E 16 b1 0b 20
        E 16 b1 0b 18
        E 16 b1 0b 10
        E 32 b1 0b 08
        E 32 81 40 00
        E 48 b1 0b 38
        E 0 91 40 38
        E 16 b1 0b 30
        E 32 b1 0b 28
        E 32 b1 0b 20
        E 32 b1 0b 18
        E 16 b1 0b 20
        E 16 b1 0b 18
        E 32 b1 0b 10
        E 32 b1 0b 08
        E 16 81 40 00
        E 48 b1 0b 10
        E 0 91 40 10
        E 128 b1 0b 38
        E 272 b1 0b 20
        E 128 b1 0b 38
        E 144 b1 0b 20
        E 128 b1 0c 40
        E 0 b1 0b 48
        E 0 81 40 00
        E 0 91 28 48
        E 16 b1 0b 40
        E 32 b1 0b 38
        E 32 b1 0b 30
        E 32 b1 0b 28
        E 16 b1 0b 48
        E 0 81 28 00
        E 0 91 26 48
        E 16 b1 0b 40
        E 32 b1 0b 38
        E 16 b1 0b 30
        E 32 b1 0b 28
        E 32 b1 0b 20
        E 16 b1 0b 48
        E 0 81 26 00
        E 0 91 28 48
        E 16 b1 0b 40
        E 32 b1 0b 38
        E 32 b1 0b 30
        E 32 b1 0b 28
        E 16 b1 0c 10
        E 0 b1 0b 38
        E 0 81 28 00
        E 0 91 3f 38
        E 16 b1 0b 30
        E 32 b1 0b 28
        E 32 b1 0b 20
        E 32 b1 0b 18
        E 16 b1 0b 10
        E 16 b1 0b 38
        E 0 81 3f 00
        E 0 91 40 38
        E 16 b1 0b 30
        E 32 b1 0b 28
        E 32 b1 0b 20
        E 32 b1 0b 18
        E 16 b1 0b 20
        E 128 b1 0b 38
        E 16 b1 0b 30
        E 32 b1 0b 28
        E 16 b1 0b 20
        E 32 b1 0b 18
        E 32 b1 0b 10
        E 16 b1 0b 20
        E 16 b1 0b 18
        E 32 b1 0b 10
        E 32 b1 0b 08
        E 32 81 40 00
        E 16 b1 0b 38
        E 0 91 40 38
        E 16 b1 0b 30
        E 32 b1 0b 28
        E 32 b1 0b 20
        E 32 b1 0b 18
        E 16 b1 0b 10
        E 16 b1 0b 20
        E 16 b1 0b 18
        E 32 b1 0b 10
        E 32 b1 0b 08
        E 32 81 40 00
        E 16 b1 0b 10
        E 0 91 40 10
        E 128 b1 0b 38
        E 272 b1 0b 20
        E 128 b1 0b 38
        E 144 b1 0b 20
        E 128 b1 0c 40
        E 0 b1 0b 48
        E 0 81 40 00
        E 0 91 28 48
        E 16 b1 0b 40
        E 32 b1 0b 38
        E 32 b1 0b 30
        E 16 b1 0b 28
        E 32 b1 0b 20
        E 16 b1 0b 48
        E 0 81 28 00
        E 0 91 26 48
        E 16 b1 0b 40
        E 32 b1 0b 38
        E 32 b1 0b 30
        E 32 b1 0b 28
        E 16 b1 0b 48
        E 0 81 26 00
        E 0 91 28 48
        E 16 b1 0b 40
        E 32 b1 0b 38
        E 32 b1 0b 30
        E 32 b1 0b 28
        E 16 b1 0c 10
        E 0 b1 0b 38
        E 0 81 28 00
        E 0 91 3f 38
        E 16 b1 0b 30
        E 16 b1 0b 28
        E 32 b1 0b 20
        E 32 b1 0b 18
        E 32 b1 0b 10
        E 16 b1 0b 38
        E 0 81 3f 00
        E 0 91 40 38
        E 16 b1 0b 30
        E 32 b1 0b 28
        E 32 b1 0b 20
        E 32 b1 0b 18
        E 16 b1 0b 20
        E 144 b1 0b 38
        E 16 b1 0b 30
        E 32 b1 0b 28
        E 32 b1 0b 20
        E 32 b1 0b 18
        E 16 b1 0b 20
        E 16 b1 0b 18
        E 32 b1 0b 10
        E 32 b1 0b 08
        E 32 81 40 00
        E 16 b1 0b 38
        E 0 91 40 38
        E 16 b1 0b 30
        E 16 b1 0b 28
        E 32 b1 0b 20
        E 32 b1 0b 18
        E 32 b1 0b 10
        E 16 b1 0b 20
        E 16 b1 0b 18
        E 32 b1 0b 10
        E 32 b1 0b 08
        E 32 81 40 00
        E 16 b1 0b 10
        E 0 91 40 10
        E 144 b1 0b 38
        E 256 b1 0b 20
        E 144 b1 0b 38
        E 128 b1 0b 20
        E 144 b1 0c 40
        E 0 b1 0b 48
        E 0 81 40 00
        E 0 91 28 48
        E 16 b1 0b 40
        E 32 b1 0b 38
        E 32 b1 0b 30
        E 32 b1 0b 28
        E 16 b1 0b 30
        E 0 81 28 00
        E 0 91 39 30
        E 16 b1 0b 28
        E 32 b1 0b 20
        E 32 b1 0b 18
        E 32 b1 0b 10
        E 16 b1 0b 30
        E 0 81 39 00
        E 0 91 3c 30
        E 16 b1 0b 28
        E 32 b1 0b 20
        E 16 b1 0b 18
        E 16 81 3c 00
        E 0 91 39 18
        E 64 b1 0b 30
        E 0 81 39 00
        E 0 91 40 30
        E 16 b1 0b 28
        E 32 b1 0b 20
        E 16 b1 0b 18
        E 0 81 40 00
        E 0 91 3c 18
        E 16 b1 0b 10
        E 32 b1 0b 08
        E 16 b1 0b 30
        E 0 81 3c 00
        E 0 91 43 30
        E 16 b1 0b 28
        E 32 b1 0b 20
        E 16 b1 0b 18
        E 0 81 43 00
        E 0 91 40 18
        E 16 b1 0b 10
        E 32 b1 0b 08
        E 16 81 40 00
        E 16 b1 0b 30
        E 0 91 40 30
        E 16 b1 0b 28
        E 32 b1 0b 20
        E 16 b1 0b 18
        E 0 81 40 00
        E 0 91 43 18
        E 16 b1 0b 10
        E 32 b1 0b 08
        E 16 b1 0b 30
        E 0 81 43 00
        E 0 91 3c 30
        E 16 b1 0b 28
        E 32 b1 0b 20
        E 16 b1 0b 18
        E 0 81 3c 00
        E 0 91 40 18
        E 16 b1 0b 10
        E 32 b1 0b 08
        E 16 b1 0b 30
        E 16 b1 0b 28
        E 32 b1 0b 20
        E 16 b1 0b 18
        E 16 81 40 00
        E 0 91 3c 18
        E 16 b1 0b 10
        E 32 b1 0b 08
        E 16 b1 0b 30
        E 0 81 3c 00
        E 0 91 43 30
        E 16 b1 0b 28
        E 32 b1 0b 20
        E 16 b1 0b 18
        E 0 81 43 00
        E 0 91 40 18
        E 16 b1 0b 10
        E 32 b1 0b 08
        E 16 b1 0b 30
        E 0 81 40 00
        E 0 91 45 30
        E 16 b1 0b 28
        E 32 b1 0b 20
        E 16 b1 0b 18
        E 0 81 45 00
        E 0 91 43 18
        E 16 b1 0b 10
        E 32 b1 0b 08
        E 16 b1 0b 30
        E 0 81 43 00
        E 0 91 48 30
        E 16 b1 0b 28
        E 16 b1 0b 20
        E 32 b1 0b 18
        E 16 81 48 00
        E 0 91 45 18
        E 16 b1 0b 10
        E 32 b1 0b 08
        E 16 b1 0b 30
        E 0 81 45 00
        E 0 91 4c 30
        E 16 b1 0b 28
        E 32 b1 0b 20
        E 16 b1 0b 18
        E 0 81 4c 00
        E 0 91 48 18
        E 16 b1 0b 10
        E 32 b1 0b 08
        E 16 b1 0b 30
        E 0 81 48 00
        E 0 91 4f 30
        E 16 b1 0b 28
        E 32 b1 0b 20
        E 16 b1 0b 18
        E 0 81 4f 00
        E 0 91 4c 18
        E 16 b1 0b 10
        E 16 b1 0b 08
        E 32 81 4c 00
        E 16 b1 0b 30
        E 0 91 51 30
        E 16 b1 0b 28
        E 32 b1 0b 20
        E 16 b1 0b 18
        E 0 81 51 00
        E 0 91 4f 18
        E 16 b1 0b 10
        E 32 b1 0b 08
        E 16 b1 0b 30
        E 0 81 4f 00
        E 0 91 54 30
        E 16 b1 0b 28
        E 32 b1 0b 20
        E 16 b1 0b 18
        E 0 81 54 00
        E 0 91 51 18
        E 16 b1 0b 10
        E 32 b1 0b 08
        E 16 b1 0b 30
        E 0 81 51 00
        E 0 91 58 30
        E 16 b1 0b 28
        E 16 b1 0b 20
        E 32 b1 0b 18
        E 16 81 58 00
        E 0 91 54 18
        E 16 b1 0b 10
        E 32 b1 0b 08
        E 16 b1 0b 30
        E 0 81 54 00
        E 0 91 5b 30
        E 16 b1 0b 28
        E 32 b1 0b 20
        E 16 b1 0b 18
        E 0 81 5b 00
        E 0 91 58 18
        E 16 b1 0b 10
        E 32 b1 0b 08
        E 16 b1 0b 30
        E 0 81 58 00
        E 0 91 3b 30
        E 16 b1 0b 28
        E 32 b1 0b 20
        E 16 b1 0b 18
        E 0 81 3b 00
        E 0 91 5b 18
        E 16 b1 0b 10
        E 0 81 5b 00
        E 0 91 5c 10
        E 16 b1 0b 08
        E 0 81 5c 00
        E 0 91 5b 08
        E 32 81 5b 00
        E 16 b1 0b 30
        E 0 91 3f 30
        E 16 b1 0b 28
        E 32 b1 0b 20
        E 16 b1 0b 18
        E 0 81 3f 00
        E 0 91 3b 18
        E 16 b1 0b 10
        E 32 b1 0b 08
        E 16 b1 0b 30
        E 0 81 3b 00
        E 0 91 42 30
        E 16 b1 0b 28
        E 32 b1 0b 20
        E 16 b1 0b 18
        E 0 81 42 00
        E 0 91 3f 18
        E 16 b1 0b 10
        E 32 b1 0b 08
        E 16 b1 0b 30
        E 0 81 3f 00
        E 0 91 45 30
        E 16 b1 0b 28
        E 16 b1 0b 20
        E 32 b1 0b 18
        E 16 81 45 00
        E 0 91 42 18
        E 16 b1 0b 10
        E 32 b1 0b 08
        E 16 b1 0b 30
        E 16 b1 0b 28
        E 32 b1 0b 20
        E 16 b1 0b 18
        E 0 81 42 00
        E 0 91 45 18
        E 16 b1 0b 10
        E 32 b1 0b 08
        E 16 b1 0b 30
        E 0 81 45 00
        E 0 91 3f 30
        E 16 b1 0b 28
        E 32 b1 0b 20
        E 16 b1 0b 18
        E 0 81 3f 00
        E 0 91 42 18
        E 16 b1 0b 10
        E 16 b1 0b 08
        E 32 81 42 00
        E 16 b1 0b 30
        E 0 91 42 30
        E 16 b1 0b 28
        E 32 b1 0b 20
        E 16 b1 0b 18
        E 0 81 42 00
        E 0 91 3f 18
        E 16 b1 0b 10
        E 32 b1 0b 08
        E 16 b1 0b 30
        E 0 81 3f 00
        E 0 91 45 30
        E 16 b1 0b 28
        E 32 b1 0b 20
        E 16 b1 0b 18
        E 0 81 45 00
        E 0 91 42 18
        E 16 b1 0b 10
        E 32 b1 0b 08
        E 16 b1 0b 30
        E 0 81 42 00
        E 0 91 47 30
        E 16 b1 0b 28
        E 32 b1 0b 20
        E 16 b1 0b 18
        E 16 81 47 00
        E 0 91 35 18
        E 16 b1 0b 10
        E 32 b1 0b 08
        E 16 b1 0b 30
        E 0 81 35 00
        E 0 91 4b 30
        E 16 b1 0b 28
        E 32 b1 0b 20
        E 16 b1 0b 18
        E 0 81 4b 00
        E 0 91 47 18
        E 16 b1 0b 10
        E 32 b1 0b 08
        E 16 b1 0b 30
        E 0 81 47 00
        E 0 91 4e 30
        E 16 b1 0b 28
        E 32 b1 0b 20
        E 16 b1 0b 18
        E 0 81 4e 00
        E 0 91 4b 18
        E 16 b1 0b 10
        E 32 b1 0b 08
        E 16 81 4b 00
        E 16 b1 0b 30
        E 0 91 51 30
        E 16 b1 0b 28
        E 32 b1 0b 20
        E 16 b1 0b 18
        E 0 81 51 00
        E 0 91 4e 18
        E 16 b1 0b 10
        E 32 b1 0b 08
        E 16 b1 0b 30
        E 0 81 4e 00
        E 0 91 53 30
        E 16 b1 0b 28
        E 32 b1 0b 20
        E 16 b1 0b 18
        E 0 81 53 00
        E 0 91 51 18
        E 16 b1 0b 10
        E 32 b1 0b 08
        E 16 b1 0b 30
        E 0 81 51 00
        E 0 91 57 30
        E 16 b1 0b 28
        E 32 b1 0b 20
        E 16 b1 0b 18
        E 16 81 57 00
        E 0 91 53 18
        E 16 b1 0b 10
        E 32 b1 0b 08
        E 16 b1 0b 30
        E 0 81 53 00
        E 0 91 5a 30
        E 16 b1 0b 28
        E 0 81 5a 00
        E 0 91 59 28
        E 32 b1 0b 20
        E 0 81 59 00
        E 0 91 5a 20
        E 16 b1 0b 18
        E 0 81 5a 00
        E 0 91 57 18
        E 16 b1 0b 10
        E 32 b1 0b 08
        E 16 b1 0b 30
        E 0 81 57 00
        E 0 91 5d 30
        E 16 b1 0b 28
        E 0 81 5d 00
        E 0 91 5c 28
        E 32 b1 0b 20
        E 0 81 5c 00
        E 0 91 5d 20
        E 16 b1 0b 18
        E 0 81 5d 00
        E 0 91 5a 18
        E 64 81 5a 00
        E 0 91 59 18
        E 16 b1 0c 20
        E 0 b1 0b 30
        E 0 81 59 00
        E 0 91 28 30
        E 16 b1 0b 28
        E 16 b1 0b 30
        E 16 b1 0b 28
        E 16 b1 0b 30
        E 16 b1 0b 28
        E 32 b1 0b 20
        E 32 b1 0b 18
        E 32 b1 0b 10
        E 32 b1 0b 08
        E 32 81 28 00
        E 16 b1 0b 30
        E 0 91 28 30
        E 16 b1 0b 28
        E 32 b1 0b 20
        E 16 b1 0b 18
        E 32 b1 0b 10
        E 32 b1 0b 08
        E 32 81 28 00
        E 112 b1 0b 30
        E 0 91 28 30
        E 16 b1 0b 28
        E 32 b1 0b 20
        E 32 b1 0b 18
        E 32 b1 0b 10
        E 16 b1 0b 08
        E 16 b1 0b 30
        E 0 81 28 00
        E 0 91 26 30
        E 48 b1 0b 28
        E 64 b1 0b 20
        E 64 b1 0b 18
        E 64 b1 0b 10
        E 16 b1 0b 30
        E 0 81 26 00
        E 0 91 28 30
        E 16 b1 0b 28
        E 32 b1 0b 20
        E 32 b1 0b 18
        E 16 b1 0b 10
        E 32 b1 0b 08
        E 32 81 28 00
        E 112 b1 0b 30
        E 0 91 28 30
        E 16 b1 0b 28
        E 32 b1 0b 20
        E 32 b1 0b 18
        E 32 b1 0b 10
        E 16 b1 0b 30
        E 16 b1 0b 28
        E 16 b1 0b 20
        E 32 b1 0b 18
        E 32 b1 0b 10
        E 32 b1 0b 08
        E 32 81 28 00
        E 112 b1 0b 30
        E 0 91 28 30
        E 16 b1 0b 28
        E 32 b1 0b 20
        E 32 b1 0b 18
        E 16 b1 0b 10
        E 32 b1 0b 08
        E 16 b1 0b 30
        E 0 81 28 00
        E 0 91 2b 30
        E 48 b1 0b 28
        E 64 b1 0b 20
        E 64 b1 0b 18
        E 64 b1 0b 10
        E 48 b1 0b 08
        E 64 81 2b 00
        E 48 b1 0b 30
        E 0 91 28 30
        E 16 b1 0b 28
        E 32 b1 0b 20
        E 32 b1 0b 18
        E 32 b1 0b 10
        E 32 b1 0b 08
        E 32 81 28 00
        E 96 b1 0b 30
        E 0 91 28 30
        E 16 b1 0b 28
        E 32 b1 0b 20
        E 32 b1 0b 18
        E 32 b1 0b 10
        E 32 b1 0b 08
        E 32 81 28 00
        E 80 b1 0b 30
        E 0 91 28 30
        E 16 b1 0b 28
        E 16 b1 0b 20
        E 32 b1 0b 18
        E 32 b1 0b 10
        E 32 b1 0b 08
        E 16 b1 0b 30
        E 0 81 28 00
        E 0 91 26 30
        E 48 b1 0b 28
        E 64 b1 0b 20
        E 64 b1 0b 18
        E 64 b1 0b 10
        E 32 b1 0b 30
        E 0 81 26 00
        E 0 91 28 30
        E 16 b1 0b 28
        E 32 b1 0b 20
        E 32 b1 0b 18
        E 32 b1 0b 10
        E 32 b1 0b 08
        E 32 81 28 00
        E 80 b1 0b 30
        E 0 91 28 30
        E 16 b1 0b 28
        E 32 b1 0b 20
        E 16 b1 0b 18
        E 32 b1 0b 10
        E 32 b1 0b 08
        E 16 b1 0b 30
        E 16 b1 0b 28
        E 32 b1 0b 20
        E 32 b1 0b 18
        E 32 b1 0b 10
        E 32 b1 0b 08
        E 32 81 28 00
        E 96 b1 0b 30
        E 0 91 28 30
        E 16 b1 0b 28
        E 32 b1 0b 20
        E 32 b1 0b 18
        E 32 b1 0b 10
        E 16 b1 0b 30
        E 0 81 28 00
        E 0 91 2b 30
        E 48 b1 0b 28
        E 64 b1 0b 20
        E 64 b1 0b 18
        E 48 b1 0b 10
        E 64 b1 0b 08
        E 64 81 2b 00
        E 48 b1 0b 30
        E 0 91 28 30
        E 16 b1 0b 28
        E 32 b1 0b 20
        E 32 b1 0b 18
        E 32 b1 0b 10
        E 16 b1 0b 08
        E 32 81 28 00
        E 112 b1 0b 30
        E 0 91 28 30
        E 16 b1 0b 28
        E 32 b1 0b 20
        E 32 b1 0b 18
        E 32 b1 0b 10
        E 32 b1 0b 08
        E 32 81 28 00
        E 96 b1 0b 30
        E 0 91 28 30
        E 16 b1 0b 28
        E 32 b1 0b 20
        E 32 b1 0b 18
        E 32 b1 0b 10
        E 16 b1 0b 30
        E 0 81 28 00
        E 0 91 26 30
        E 48 b1 0b 28
        E 64 b1 0b 20
        E 48 b1 0b 18
        E 64 b1 0b 10
        E 48 b1 0b 30
        E 0 81 26 00
        E 0 91 28 30
        E 16 b1 0b 28
        E 32 b1 0b 20
        E 32 b1 0b 18
        E 32 b1 0b 10
        E 32 b1 0b 08
        E 32 81 28 00
        E 96 b1 0b 30
        E 0 91 28 30
        E 16 b1 0b 28
        E 32 b1 0b 20
        E 32 b1 0b 18
        E 32 b1 0b 10
        E 16 b1 0b 30
        E 16 b1 0b 28
        E 32 b1 0b 20
        E 32 b1 0b 18
        E 32 b1 0b 10
        E 32 b1 0b 08
        E 16 81 28 00
        E 112 b1 0b 30
        E 0 91 28 30
        E 16 b1 0b 28
        E 32 b1 0b 20
        E 32 b1 0b 18
        E 32 b1 0b 10
        E 16 b1 0b 30
        E 0 81 28 00
        E 0 91 2b 30
        E 48 b1 0b 28
        E 48 b1 0b 20
        E 64 b1 0b 18
        E 64 b1 0b 10
        E 64 b1 0b 08
        E 64 81 2b 00
        E 48 b1 0b 30
        E 0 91 28 30
        E 16 b1 0b 28
        E 16 b1 0b 20
        E 32 b1 0b 18
        E 32 b1 0b 10
        E 32 b1 0b 08
        E 32 81 28 00
        E 112 b1 0b 30
        E 0 91 28 30
        E 16 b1 0b 28
        E 32 b1 0b 20
        E 32 b1 0b 18
        E 16 b1 0b 10
        E 32 b1 0b 08
        E 32 81 28 00
        E 112 b1 0b 30
        E 0 91 28 30
        E 16 b1 0b 28
        E 32 b1 0b 20
        E 32 b1 0b 18
        E 32 b1 0b 10
        E 16 b1 0b 30
        E 0 81 28 00
        E 0 91 26 30
        E 48 b1 0b 28
        E 48 b1 0b 20
        E 64 b1 0b 18
        E 64 b1 0b 10
        E 48 b1 0b 30
        E 0 81 26 00
        E 0 91 28 30
        E 16 b1 0b 28
        E 32 b1 0b 20
        E 32 b1 0b 18
        E 32 b1 0b 10
        E 16 b1 0b 08
        E 32 81 28 00
        E 112 b1 0b 30
        E 0 91 28 30
        E 16 b1 0b 28
        E 32 b1 0b 20
        E 32 b1 0b 18
        E 32 b1 0b 10
        E 16 b1 0b 30
        E 16 b1 0b 28
        E 32 b1 0b 20
        E 16 b1 0b 18
        E 32 b1 0b 10
        E 32 b1 0b 08
        E 32 81 28 00
        E 112 b1 0b 30
        E 0 91 28 30
        E 16 b1 0b 28
        E 32 b1 0b 20
        E 32 b1 0b 18
        E 32 b1 0b 10
        E 16 b1 0b 08
        E 16 b1 0b 30
        E 0 81 28 00
        E 0 91 2b 30
        E 48 b1 0b 28
        E 64 b1 0b 20
        E 64 b1 0b 18
        E 64 b1 0b 10
        E 64 b1 0b 08
        E 48 81 2b 00
        E 48 b1 0c 40
        E 0 b1 0b 38
        E 0 91 2f 38
        E 16 b1 0b 30
        E 32 b1 0b 28
        E 32 b1 0b 20
        E 32 b1 0b 18
        E 16 b1 0b 20
        E 16 b1 0b 18
        E 32 b1 0b 10
        E 32 b1 0b 08
        E 32 81 2f 00
        E 32 b1 0b 10
        E 0 91 2f 10
        E 48 b1 0b 08
        E 64 81 2f 00
        E 16 91 2f 08
        E 80 81 2f 00
        E 48 b1 0b 38
        E 0 91 2f 38
        E 16 b1 0b 30
        E 32 b1 0b 28
        E 32 b1 0b 20
        E 16 b1 0b 18
        E 32 b1 0b 10
        E 16 b1 0b 38
        E 0 81 2f 00
        E 0 91 2d 38
        E 16 b1 0b 30
        E 32 b1 0b 28
        E 32 b1 0b 20
        E 32 b1 0b 18
        E 16 b1 0b 20
        E 16 b1 0b 18
        E 32 b1 0b 10
        E 32 b1 0b 08
        E 32 81 2d 00
        E 16 b1 0b 10
        E 0 91 2d 10
        E 32 b1 0b 08
        E 64 81 2d 00
        E 48 b1 0b 58
        E 0 91 2f 58
        E 16 b1 0b 50
        E 32 b1 0b 48
        E 32 b1 0b 40
        E 32 b1 0b 38
        E 32 b1 0b 30
        E 32 b1 0b 28
        E 32 b1 0b 20
        E 16 b1 0b 18
        E 32 b1 0b 10
        E 16 81 2f 00
        E 0 91 39 10
        E 144 b1 0b 18
        E 144 b1 0b 20
        E 160 b1 0b 28
        E 32 81 39 00
        E 0 91 3a 28
        E 128 b1 0b 30
        E 144 b1 0b 38
        E 48 b1 0c 60
        E 0 b1 0b 30
        E 0 81 3a 00
        E 0 91 2d 30
        E 128 81 2d 00
        E 0 91 40 30
        E 16 b1 0b 28
        E 16 b1 0b 20
        E 32 b1 0b 18
        E 32 b1 0b 10
        E 32 b1 0b 08
        E 16 b1 0b 30
        E 16 b1 0b 28
        E 32 b1 0b 20
        E 32 b1 0b 18
        E 32 b1 0b 10
        E 16 b1 0b 30
        E 0 81 40 00
        E 0 91 2d 30
        E 16 b1 0b 28
        E 32 b1 0b 20
        E 32 b1 0b 18
        E 32 b1 0b 10
        E 16 b1 0b 08
        E 16 b1 0b 30
        E 0 81 2d 00
        E 0 91 3c 30
        E 16 b1 0b 28
        E 32 b1 0b 20
        E 32 b1 0b 18
        E 32 b1 0b 10
        E 16 b1 0b 30
        E 0 81 3c 00
        E 0 91 2d 30
        E 16 b1 0b 28
        E 32 b1 0b 20
        E 32 b1 0b 18
        E 32 b1 0b 10
        E 16 b1 0b 30
        E 0 81 2d 00
        E 0 91 3c 30
        E 16 b1 0b 28
        E 32 b1 0b 20
        E 16 b1 0b 18
        E 32 b1 0b 10
        E 32 b1 0b 08
        E 16 b1 0b 30
        E 16 b1 0b 28
        E 32 b1 0b 20
        E 32 b1 0b 18
        E 32 b1 0b 10
        E 16 b1 0b 30
        E 0 81 3c 00
        E 0 91 2d 30
        E 16 b1 0b 28
        E 32 b1 0b 20
        E 32 b1 0b 18
        E 32 b1 0b 10
        E 16 b1 0b 08
        E 16 b1 0b 30
        E 0 81 2d 00
        E 0 91 40 30
        E 16 b1 0b 28
        E 32 b1 0b 20
        E 32 b1 0b 18
        E 32 b1 0b 10
        E 16 b1 0b 30
        E 16 b1 0b 28
        E 32 b1 0b 20
        E 32 b1 0b 18
        E 32 b1 0b 10
        E 16 b1 0b 30
        E 0 81 40 00
        E 0 91 2d 30
        E 16 b1 0b 28
        E 32 b1 0b 20
        E 16 b1 0b 18
        E 32 b1 0b 10
        E 32 b1 0b 08
        E 16 b1 0b 30
        E 0 81 2d 00
        E 0 91 3c 30
        E 16 b1 0b 28
        E 32 b1 0b 20
        E 32 b1 0b 18
        E 32 b1 0b 10
        E 16 b1 0b 30
        E 0 81 3c 00
        E 0 91 2d 30
        E 16 b1 0b 28
        E 32 b1 0b 20
        E 32 b1 0b 18
        E 32 b1 0b 10
        E 16 b1 0b 08
        E 16 b1 0b 30
        E 0 81 2d 00
        E 0 91 3c 30
        E 16 b1 0b 28
        E 32 b1 0b 20
        E 32 b1 0b 18
        E 32 b1 0b 10
        E 16 b1 0b 30
        E 16 b1 0b 28
        E 32 b1 0b 20
        E 32 b1 0b 18
        E 32 b1 0b 10
        E 16 b1 0c 20
        E 0 b1 0b 38
        E 0 81 3c 00
        E 0 91 28 38
        E 16 b1 0b 30
        E 32 b1 0b 28
        E 16 b1 0b 20
        E 32 b1 0b 18
        E 32 b1 0b 10
        E 32 b1 0b 08
        E 32 81 28 00
        E 80 b1 0b 38
        E 0 91 28 38
        E 16 b1 0b 30
        E 32 b1 0b 28
        E 32 b1 0b 20
        E 32 b1 0b 18
        E 32 b1 0b 10
        E 16 b1 0b 08
        E 32 81 28 00
        E 80 b1 0b 38
        E 0 91 28 38
        E 16 b1 0b 30
        E 32 b1 0b 28
        E 32 b1 0b 20
        E 32 b1 0b 18
        E 16 b1 0b 38
        E 0 81 28 00
        E 0 91 26 38
        E 48 b1 0b 30
        E 48 b1 0b 28
        E 64 b1 0b 20
        E 64 b1 0b 18
        E 48 b1 0b 38
        E 0 81 26 00
        E 0 91 28 38
        E 16 b1 0b 30
        E 32 b1 0b 28
        E 32 b1 0b 20
        E 32 b1 0b 18
        E 32 b1 0b 10
        E 16 b1 0b 08
        E 32 81 28 00
        E 80 b1 0b 38
        E 0 91 28 38
        E 16 b1 0b 30
        E 32 b1 0b 28
        E 32 b1 0b 20
        E 32 b1 0b 18
        E 16 b1 0b 38
        E 16 b1 0b 30
        E 32 b1 0b 28
        E 32 b1 0b 20
        E 16 b1 0b 18
        E 32 b1 0b 10
        E 32 b1 0b 08
        E 32 81 28 00
        E 80 b1 0b 38
        E 0 91 28 38
        E 16 b1 0b 30
        E 32 b1 0b 28
        E 32 b1 0b 20
        E 32 b1 0b 18
        E 16 b1 0b 38
        E 0 81 28 00
        E 0 91 2b 38
        E 32 b1 0b 30
        E 64 b1 0b 28
        E 64 b1 0b 20
        E 64 b1 0b 18
        E 64 b1 0b 10
        E 64 b1 0b 08
        E 48 81 2b 00
        E 16 b1 0b 38
        E 0 91 28 38
        E 16 b1 0b 30
        E 32 b1 0b 28
        E 32 b1 0b 20
        E 32 b1 0b 18
        E 32 b1 0b 10
        E 32 b1 0b 08
        E 32 81 28 00
        E 48 b1 0b 38
        E 0 91 28 38
        E 16 b1 0b 30
        E 32 b1 0b 28
        E 16 b1 0b 20
        E 32 b1 0b 18
        E 32 b1 0b 10
        E 32 b1 0b 08
        E 32 81 28 00
        E 80 b1 0b 38
        E 0 91 28 38
        E 16 b1 0b 30
        E 32 b1 0b 28
        E 32 b1 0b 20
        E 32 b1 0b 18
        E 16 b1 0b 10
        E 16 b1 0b 38
        E 0 81 28 00
        E 0 91 26 38
        E 48 b1 0b 30
        E 64 b1 0b 28
        E 64 b1 0b 20
        E 64 b1 0b 18
        E 16 b1 0b 38
        E 0 81 26 00
        E 0 91 28 38
        E 16 b1 0b 30
        E 32 b1 0b 28
        E 16 b1 0b 20
        E 32 b1 0b 18
        E 32 b1 0b 10
        E 32 b1 0b 08
        E 32 81 28 00
        E 80 b1 0b 38
        E 0 91 28 38
        E 16 b1 0b 30
        E 32 b1 0b 28
        E 32 b1 0b 20
        E 32 b1 0b 18
        E 16 b1 0b 10
        E 16 b1 0b 38
        E 16 b1 0b 30
        E 32 b1 0b 28
        E 32 b1 0b 20
        E 32 b1 0b 18
        E 32 b1 0b 10
        E 32 b1 0b 08
        E 32 81 28 00
        E 48 b1 0b 38
        E 0 91 28 38
        E 16 b1 0b 30
        E 32 b1 0b 28
        E 16 b1 0b 20
        E 32 b1 0b 18
        E 32 b1 0b 10
        E 16 b1 0b 38
        E 0 81 28 00
        E 0 91 2b 38
        E 48 b1 0b 30
        E 64 b1 0b 28
        E 64 b1 0b 20
        E 64 b1 0b 18
        E 48 b1 0b 10
        E 64 b1 0b 08
        E 48 b1 0c 60
        E 0 b1 0b 30
        E 0 81 2b 00
        E 0 91 2d 30
        E 16 b1 0b 28
        E 64 b1 0b 20
        E 48 b1 0b 30
        E 0 81 2d 00
        E 0 91 40 30
        E 16 b1 0b 28
        E 32 b1 0b 20
        E 32 b1 0b 18
        E 16 b1 0b 10
        E 32 b1 0b 08
        E 16 b1 0b 30
        E 16 b1 0b 28
        E 32 b1 0b 20
        E 32 b1 0b 18
        E 32 b1 0b 10
        E 16 b1 0b 30
        E 0 81 40 00
        E 0 91 2d 30
        E 16 b1 0b 28
        E 32 b1 0b 20
        E 32 b1 0b 18
        E 32 b1 0b 10
        E 16 b1 0b 30
        E 0 81 2d 00
        E 0 91 3c 30
        E 16 b1 0b 28
        E 16 b1 0b 20
        E 32 b1 0b 18
        E 32 b1 0b 10
        E 32 b1 0b 08
        E 16 b1 0b 30
        E 0 81 3c 00
        E 0 91 2d 30
        E 16 b1 0b 28
        E 32 b1 0b 20
        E 32 b1 0b 18
        E 32 b1 0b 10
        E 16 b1 0b 30
        E 0 81 2d 00
        E 0 91 3c 30
        E 16 b1 0b 28
        E 32 b1 0b 20
        E 32 b1 0b 18
        E 16 b1 0b 10
        E 32 b1 0b 08
        E 16 b1 0b 30
        E 16 b1 0b 28
        E 32 b1 0b 20
        E 32 b1 0b 18
        E 32 b1 0b 10
        E 16 b1 0b 30
        E 0 81 3c 00
        E 0 91 2d 30
        E 16 b1 0b 28
        E 32 b1 0b 20
        E 32 b1 0b 18
        E 32 b1 0b 10
        E 16 b1 0b 30
        E 0 81 2d 00
        E 0 91 40 30
        E 16 b1 0b 28
        E 16 b1 0b 20
        E 32 b1 0b 18
        E 32 b1 0b 10
        E 32 b1 0b 08
        E 16 b1 0b 30
        E 16 b1 0b 28
        E 32 b1 0b 20
        E 32 b1 0b 18
        E 32 b1 0b 10
        E 16 b1 0b 30
        E 0 81 40 00
        E 0 91 2d 30
        E 16 b1 0b 28
        E 32 b1 0b 20
        E 32 b1 0b 18
        E 16 b1 0b 10
        E 32 b1 0b 08
        E 16 b1 0b 30
        E 0 81 2d 00
        E 0 91 3c 30
        E 16 b1 0b 28
        E 32 b1 0b 20
        E 32 b1 0b 18
        E 32 b1 0b 10
        E 16 b1 0b 30
        E 0 81 3c 00
        E 0 91 2d 30
        E 16 b1 0b 28
        E 32 b1 0b 20
        E 32 b1 0b 18
        E 32 b1 0b 10
        E 16 b1 0b 30
        E 0 81 2d 00
        E 0 91 3c 30
        E 16 b1 0b 28
        E 16 b1 0b 20
        E 32 b1 0b 18
        E 32 b1 0b 10
        E 32 b1 0b 08
        E 16 b1 0b 30
        E 16 b1 0b 28
        E 32 b1 0b 20
        E 32 b1 0b 18
        E 32 b1 0b 10
        E 16 b1 0c 10
        E 0 b1 0b 38
        E 0 81 3c 00
        E 0 91 2f 38
        E 16 b1 0b 30
        E 32 b1 0b 28
        E 32 b1 0b 20
        E 32 b1 0b 18
        E 16 b1 0b 10
        E 16 b1 0b 20
        E 128 b1 0b 38
        E 0 81 2f 00
        E 0 91 3f 38
        E 144 b1 0b 30
        E 32 b1 0b 28
        E 16 b1 0b 20
        E 32 b1 0b 18
        E 32 b1 0b 10
        E 16 b1 0b 20
        E 128 b1 0b 38
        E 0 81 3f 00
        E 0 91 42 38
        E 16 b1 0b 30
        E 32 b1 0b 28
        E 32 b1 0b 20
        E 32 b1 0b 18
        E 16 b1 0b 10
        E 16 b1 0b 20
        E 16 b1 0b 18
        E 32 b1 0b 10
        E 32 b1 0b 08
        E 32 81 42 00
        E 16 b1 0b 38
        E 0 91 42 38
        E 16 b1 0b 30
        E 32 b1 0b 28
        E 32 b1 0b 20
        E 32 b1 0b 18
        E 16 b1 0b 20
        E 16 b1 0b 18
        E 32 b1 0b 10
        E 16 b1 0b 08
        E 32 81 42 00
        E 48 b1 0b 10
        E 0 91 42 10
        E 128 b1 0b 38
        E 272 b1 0b 20
        E 128 b1 0b 38
        E 144 b1 0b 20
        E 128 b1 0b 10
        E 128 b1 0c 20
        E 0 b1 0b 30
        E 0 81 42 00
        E 0 91 28 30
        E 16 b1 0b 28
        E 16 b1 0b 20
        E 32 b1 0b 18
        E 32 b1 0b 10
        E 32 b1 0b 08
        E 32 81 28 00
        E 112 b1 0b 30
        E 0 91 28 30
        E 16 b1 0b 28
        E 32 b1 0b 20
        E 32 b1 0b 18
        E 16 b1 0b 10
        E 32 81 28 00
        E 0 ff 2f 00
      >
    >
  >
  <TRACK {7EC840AF-EE4F-44E1-8762-0DC9BDE1D316}
    NAME "NES - Triangle [ch2]"
    PEAKCOL 16744192
    BEAT -1
    AUTOMODE 0
    PANLAWFLAGS 3
    VOLPAN 1 0 -1 -1 1
    MUTESOLO 0 0 0
    IPHASE 0
    PLAYOFFS 0 1
    ISBUS 0 0
    BUSCOMP 0 0 0 0 0
    SHOWINMIX 1 0.6667 0.5 1 0.5 0 0 0
    FIXEDLANES 9 0 0 0 0
    SEL 0
    REC 0 5088 1 0 0 0 0 0
    VU 2
    TRACKHEIGHT 0 0 0 0 0 0 0
    INQ 0 0 0 0.5 100 0 0 100
    NCHAN 2
    FX 1
    TRACKID {7EC840AF-EE4F-44E1-8762-0DC9BDE1D316}
    PERF 0
    MIDIOUT -1
    MAINSEND 1 0
    <FXCHAIN
      WNDRECT 24 52 700 560
      SHOW 0
      LASTSEL 0
      DOCKED 0
      BYPASS 0 0 0
      <JS "ReapNES Studio/ReapNES_Console.jsfx" ""
        2 15 1 10 80 10 100 2 1 15 1 5 60 10 80 1 1 0 50 0 0 15 1 0 100 0 0 0.500000 0.500000 0.400000 0.300000 0.800000 2 1 0 0 0 0 - - - - - - - - - - - - - - - - - - - - - - - - - -
      >
      FLOATPOS 0 0 0 0
      FXID {3D1CBE5A-D689-4133-A489-54A857AE1449}
      WAK 0 0
    >
    <ITEM
      POSITION 0
      LENGTH 83.98134
      LOOP 0
      ALLTAKES 0
      FADEIN 0 0 0 0 0 0 0
      FADEOUT 0 0 0 0 0 0 0
      MUTE 0 0
      SEL 0
      IGUID {5BF401A9-BF48-4A18-92B2-646BBBF702A4}
      <SOURCE MIDI
        HASDATA 1 480 QN
        CCINTERP 32
        E 0 c2 26
        E 8624 b2 0b 7f
        E 0 92 28 7f
        E 672 82 28 00
        E 0 b2 0b 7f
        E 0 92 26 7f
        E 336 82 26 00
        E 64 b2 0b 7f
        E 0 92 28 7f
        E 1072 82 28 00
        E 0 b2 0b 7f
        E 0 92 2d 7f
        E 128 82 2d 00
        E 0 b2 0b 7f
        E 0 92 3c 7f
        E 272 82 3c 00
        E 0 b2 0b 7f
        E 0 92 2d 7f
        E 144 82 2d 00
        E 0 b2 0b 7f
        E 0 92 39 7f
        E 128 82 39 00
        E 0 b2 0b 7f
        E 0 92 2d 7f
        E 128 82 2d 00
        E 0 b2 0b 7f
        E 0 92 39 7f
        E 272 82 39 00
        E 0 b2 0b 7f
        E 0 92 2d 7f
        E 144 82 2d 00
        E 0 b2 0b 7f
        E 0 92 3c 7f
        E 256 82 3c 00
        E 0 b2 0b 7f
        E 0 92 2d 7f
        E 144 82 2d 00
        E 0 b2 0b 7f
        E 0 92 39 7f
        E 128 82 39 00
        E 0 b2 0b 7f
        E 0 92 2d 7f
        E 144 82 2d 00
        E 0 b2 0b 7f
        E 0 92 39 7f
        E 256 82 39 00
        E 4304 b2 0b 7f
        E 0 92 2d 7f
        E 128 82 2d 00
        E 0 b2 0b 7f
        E 0 92 3c 7f
        E 272 82 3c 00
        E 0 b2 0b 7f
        E 0 92 2d 7f
        E 144 82 2d 00
        E 0 b2 0b 7f
        E 0 92 39 7f
        E 128 82 39 00
        E 0 b2 0b 7f
        E 0 92 2d 7f
        E 128 82 2d 00
        E 0 b2 0b 7f
        E 0 92 39 7f
        E 272 82 39 00
        E 0 b2 0b 7f
        E 0 92 2d 7f
        E 128 82 2d 00
        E 0 b2 0b 7f
        E 0 92 3c 7f
        E 272 82 3c 00
        E 0 b2 0b 7f
        E 0 92 2d 7f
        E 144 82 2d 00
        E 0 b2 0b 7f
        E 0 92 39 7f
        E 128 82 39 00
        E 0 b2 0b 7f
        E 0 92 2d 7f
        E 128 82 2d 00
        E 0 b2 0b 7f
        E 0 92 39 7f
        E 272 82 39 00
        E 0 b2 0b 7f
        E 0 92 2f 7f
        E 272 82 2f 00
        E 0 b2 0b 7f
        E 0 92 3b 7f
        E 400 82 3b 00
        E 0 b2 0b 7f
        E 0 92 3f 7f
        E 1488 82 3f 00
        E 8656 b2 0b 7f
        E 0 92 34 7f
        E 144 82 34 00
        E 0 b2 0b 7f
        E 0 92 33 7f
        E 48 82 33 00
        E 0 b2 0b 7f
        E 0 92 32 7f
        E 64 82 32 00
        E 0 b2 0b 7f
        E 0 92 31 7f
        E 64 82 31 00
        E 0 b2 0b 7f
        E 0 92 30 7f
        E 96 82 30 00
        E 0 b2 0b 7f
        E 0 92 2f 7f
        E 112 82 2f 00
        E 80 b2 0b 7f
        E 0 92 32 7f
        E 256 82 32 00
        E 0 b2 0b 7f
        E 0 92 34 7f
        E 272 82 34 00
        E 0 b2 0b 7f
        E 0 92 28 7f
        E 544 82 28 00
        E 0 b2 0b 7f
        E 0 92 2b 7f
        E 128 82 2b 00
        E 0 b2 0b 7f
        E 0 92 2d 7f
        E 144 82 2d 00
        E 0 b2 0b 7f
        E 0 92 2f 7f
        E 128 82 2f 00
        E 64 b2 0b 7f
        E 0 92 34 7f
        E 160 82 34 00
        E 0 b2 0b 7f
        E 0 92 33 7f
        E 32 82 33 00
        E 0 b2 0b 7f
        E 0 92 32 7f
        E 64 82 32 00
        E 0 b2 0b 7f
        E 0 92 31 7f
        E 96 82 31 00
        E 0 b2 0b 7f
        E 0 92 30 7f
        E 64 82 30 00
        E 0 b2 0b 7f
        E 0 92 2f 7f
        E 128 82 2f 00
        E 64 b2 0b 7f
        E 0 92 32 7f
        E 272 82 32 00
        E 0 b2 0b 7f
        E 0 92 34 7f
        E 272 82 34 00
        E 0 b2 0b 7f
        E 0 92 28 7f
        E 528 82 28 00
        E 0 b2 0b 7f
        E 0 92 2b 7f
        E 144 82 2b 00
        E 0 b2 0b 7f
        E 0 92 2d 7f
        E 128 82 2d 00
        E 0 b2 0b 7f
        E 0 92 2f 7f
        E 128 82 2f 00
        E 80 b2 0b 7f
        E 0 92 34 7f
        E 176 82 34 00
        E 0 b2 0b 7f
        E 0 92 33 7f
        E 32 82 33 00
        E 0 b2 0b 7f
        E 0 92 32 7f
        E 64 82 32 00
        E 0 b2 0b 7f
        E 0 92 31 7f
        E 80 82 31 00
        E 0 b2 0b 7f
        E 0 92 30 7f
        E 64 82 30 00
        E 0 b2 0b 7f
        E 0 92 2f 7f
        E 112 82 2f 00
        E 64 b2 0b 7f
        E 0 92 32 7f
        E 272 82 32 00
        E 0 b2 0b 7f
        E 0 92 34 7f
        E 272 82 34 00
        E 0 b2 0b 7f
        E 0 92 28 7f
        E 528 82 28 00
        E 0 b2 0b 7f
        E 0 92 2b 7f
        E 144 82 2b 00
        E 0 b2 0b 7f
        E 0 92 2d 7f
        E 128 82 2d 00
        E 0 b2 0b 7f
        E 0 92 2f 7f
        E 144 82 2f 00
        E 64 b2 0b 7f
        E 0 92 34 7f
        E 176 82 34 00
        E 0 b2 0b 7f
        E 0 92 33 7f
        E 32 82 33 00
        E 0 b2 0b 7f
        E 0 92 32 7f
        E 48 82 32 00
        E 0 b2 0b 7f
        E 0 92 31 7f
        E 96 82 31 00
        E 0 b2 0b 7f
        E 0 92 30 7f
        E 64 82 30 00
        E 0 b2 0b 7f
        E 0 92 2f 7f
        E 112 82 2f 00
        E 80 b2 0b 7f
        E 0 92 32 7f
        E 256 82 32 00
        E 0 b2 0b 7f
        E 0 92 34 7f
        E 272 82 34 00
        E 0 b2 0b 7f
        E 0 92 28 7f
        E 544 82 28 00
        E 0 b2 0b 7f
        E 0 92 2b 7f
        E 128 82 2b 00
        E 0 b2 0b 7f
        E 0 92 2d 7f
        E 144 82 2d 00
        E 0 b2 0b 7f
        E 0 92 2f 7f
        E 128 82 2f 00
        E 64 b2 0b 7f
        E 0 92 2f 7f
        E 160 82 2f 00
        E 0 b2 0b 7f
        E 0 92 2e 7f
        E 64 82 2e 00
        E 0 b2 0b 7f
        E 0 92 2d 7f
        E 96 82 2d 00
        E 0 b2 0b 7f
        E 0 92 2c 7f
        E 96 82 2c 00
        E 0 b2 0b 7f
        E 0 92 2b 7f
        E 128 82 2b 00
        E 64 b2 0b 7f
        E 0 92 2d 7f
        E 272 82 2d 00
        E 0 b2 0b 7f
        E 0 92 2f 7f
        E 256 82 2f 00
        E 0 b2 0b 7f
        E 0 92 23 7f
        E 544 82 23 00
        E 0 b2 0b 7f
        E 0 92 26 7f
        E 128 82 26 00
        E 0 b2 0b 7f
        E 0 92 28 7f
        E 144 82 28 00
        E 0 b2 0b 7f
        E 0 92 2a 7f
        E 128 82 2a 00
        E 64 b2 0b 7f
        E 0 92 2f 7f
        E 160 82 2f 00
        E 0 b2 0b 7f
        E 0 92 2e 7f
        E 64 82 2e 00
        E 0 b2 0b 7f
        E 0 92 2d 7f
        E 96 82 2d 00
        E 0 b2 0b 7f
        E 0 92 2c 7f
        E 80 82 2c 00
        E 0 b2 0b 7f
        E 0 92 2b 7f
        E 144 82 2b 00
        E 64 b2 0b 7f
        E 0 92 2d 7f
        E 272 82 2d 00
        E 0 b2 0b 7f
        E 0 92 2f 7f
        E 272 82 2f 00
        E 0 b2 0b 7f
        E 0 92 23 7f
        E 528 82 23 00
        E 0 b2 0b 7f
        E 0 92 26 7f
        E 144 82 26 00
        E 0 b2 0b 7f
        E 0 92 28 7f
        E 128 82 28 00
        E 0 b2 0b 7f
        E 0 92 2a 7f
        E 128 82 2a 00
        E 80 b2 0b 7f
        E 0 92 34 7f
        E 144 82 34 00
        E 0 b2 0b 7f
        E 0 92 33 7f
        E 64 82 33 00
        E 0 b2 0b 7f
        E 0 92 32 7f
        E 64 82 32 00
        E 0 b2 0b 7f
        E 0 92 31 7f
        E 48 82 31 00
        E 0 b2 0b 7f
        E 0 92 30 7f
        E 96 82 30 00
        E 0 b2 0b 7f
        E 0 92 2f 7f
        E 112 82 2f 00
        E 64 b2 0b 7f
        E 0 92 32 7f
        E 272 82 32 00
        E 0 b2 0b 7f
        E 0 92 34 7f
        E 272 82 34 00
        E 0 b2 0b 7f
        E 0 92 28 7f
        E 544 82 28 00
        E 0 b2 0b 7f
        E 0 92 2b 7f
        E 128 82 2b 00
        E 0 b2 0b 7f
        E 0 92 2d 7f
        E 128 82 2d 00
        E 0 b2 0b 7f
        E 0 92 2f 7f
        E 144 82 2f 00
        E 64 b2 0b 7f
        E 0 92 34 7f
        E 144 82 34 00
        E 0 b2 0b 7f
        E 0 92 33 7f
        E 48 82 33 00
        E 0 b2 0b 7f
        E 0 92 32 7f
        E 64 82 32 00
        E 0 b2 0b 7f
        E 0 92 31 7f
        E 64 82 31 00
        E 0 b2 0b 7f
        E 0 92 30 7f
        E 96 82 30 00
        E 0 b2 0b 7f
        E 0 92 2f 7f
        E 128 82 2f 00
        E 64 b2 0b 7f
        E 0 92 32 7f
        E 272 82 32 00
        E 0 b2 0b 7f
        E 0 92 34 7f
        E 256 82 34 00
        E 0 b2 0b 7f
        E 0 92 28 7f
        E 544 82 28 00
        E 0 b2 0b 7f
        E 0 92 2b 7f
        E 128 82 2b 00
        E 0 b2 0b 7f
        E 0 92 2d 7f
        E 144 82 2d 00
        E 0 b2 0b 7f
        E 0 92 2f 7f
        E 128 82 2f 00
        E 0 b2 0b 7f
        E 0 92 24 7f
        E 2144 82 24 00
        E 0 b2 0b 7f
        E 0 92 2a 7f
        E 2160 82 2a 00
        E 0 b2 0b 7f
        E 0 92 26 7f
        E 128 82 26 00
        E 0 b2 0b 7f
        E 0 92 28 7f
        E 128 82 28 00
        E 0 b2 0b 7f
        E 0 92 3d 7f
        E 144 82 3d 00
        E 0 b2 0b 7f
        E 0 92 3e 7f
        E 1616 82 3e 00
        E 0 b2 0b 7f
        E 0 92 28 7f
        E 128 82 28 00
        E 0 b2 0b 7f
        E 0 92 26 7f
        E 128 82 26 00
        E 0 b2 0b 7f
        E 0 92 28 7f
        E 144 82 28 00
        E 0 b2 0b 7f
        E 0 92 3d 7f
        E 128 82 3d 00
        E 0 b2 0b 7f
        E 0 92 3e 7f
        E 1616 82 3e 00
        E 0 b2 0b 7f
        E 0 92 28 7f
        E 128 82 28 00
        E 0 b2 0b 7f
        E 0 92 26 7f
        E 144 82 26 00
        E 0 b2 0b 7f
        E 0 92 28 7f
        E 128 82 28 00
        E 0 b2 0b 7f
        E 0 92 3d 7f
        E 128 82 3d 00
        E 0 b2 0b 7f
        E 0 92 3e 7f
        E 1616 82 3e 00
        E 0 b2 0b 7f
        E 0 92 28 7f
        E 144 82 28 00
        E 0 b2 0b 7f
        E 0 92 26 7f
        E 128 82 26 00
        E 0 b2 0b 7f
        E 0 92 28 7f
        E 128 82 28 00
        E 0 b2 0b 7f
        E 0 92 3d 7f
        E 144 82 3d 00
        E 0 b2 0b 7f
        E 0 92 3e 7f
        E 1600 82 3e 00
        E 0 b2 0b 7f
        E 0 92 28 7f
        E 144 82 28 00
        E 0 b2 0b 7f
        E 0 92 2d 7f
        E 2144 82 2d 00
        E 0 b2 0b 7f
        E 0 92 2f 7f
        E 2144 82 2f 00
        E 8608 b2 0b 7f
        E 0 92 28 7f
        E 672 82 28 00
        E 0 b2 0b 7f
        E 0 92 26 7f
        E 336 82 26 00
        E 64 b2 0b 7f
        E 0 92 28 7f
        E 1072 82 28 00
        E 0 b2 0b 7f
        E 0 92 2d 7f
        E 128 82 2d 00
        E 0 b2 0b 7f
        E 0 92 3c 7f
        E 272 82 3c 00
        E 0 b2 0b 7f
        E 0 92 2d 7f
        E 128 82 2d 00
        E 0 b2 0b 7f
        E 0 92 39 7f
        E 144 82 39 00
        E 0 b2 0b 7f
        E 0 92 2d 7f
        E 128 82 2d 00
        E 0 b2 0b 7f
        E 0 92 39 7f
        E 272 82 39 00
        E 0 b2 0b 7f
        E 0 92 2d 7f
        E 128 82 2d 00
        E 0 b2 0b 7f
        E 0 92 3c 7f
        E 272 82 3c 00
        E 0 b2 0b 7f
        E 0 92 2d 7f
        E 144 82 2d 00
        E 0 b2 0b 7f
        E 0 92 39 7f
        E 128 82 39 00
        E 0 b2 0b 7f
        E 0 92 2d 7f
        E 128 82 2d 00
        E 0 b2 0b 7f
        E 0 92 39 7f
        E 272 82 39 00
        E 4304 b2 0b 7f
        E 0 92 2d 7f
        E 128 82 2d 00
        E 0 b2 0b 7f
        E 0 92 3c 7f
        E 272 82 3c 00
        E 0 b2 0b 7f
        E 0 92 2d 7f
        E 128 82 2d 00
        E 0 b2 0b 7f
        E 0 92 39 7f
        E 144 82 39 00
        E 0 b2 0b 7f
        E 0 92 2d 7f
        E 128 82 2d 00
        E 0 b2 0b 7f
        E 0 92 39 7f
        E 272 82 39 00
        E 0 b2 0b 7f
        E 0 92 2d 7f
        E 128 82 2d 00
        E 0 b2 0b 7f
        E 0 92 3c 7f
        E 272 82 3c 00
        E 0 b2 0b 7f
        E 0 92 2d 7f
        E 144 82 2d 00
        E 0 b2 0b 7f
        E 0 92 39 7f
        E 128 82 39 00
        E 0 b2 0b 7f
        E 0 92 2d 7f
        E 128 82 2d 00
        E 0 b2 0b 7f
        E 0 92 39 7f
        E 272 82 39 00
        E 0 b2 0b 7f
        E 0 92 2f 7f
        E 272 82 2f 00
        E 0 b2 0b 7f
        E 0 92 3b 7f
        E 400 82 3b 00
        E 0 b2 0b 7f
        E 0 92 3f 7f
        E 1472 82 3f 00
        E 0 ff 2f 00
      >
    >
  >
  <TRACK {E02B7691-2CF4-43D0-9039-53FACC18C2FD}
    NAME "NES - Noise / Drums [ch3]"
    PEAKCOL 11184810
    BEAT -1
    AUTOMODE 0
    PANLAWFLAGS 3
    VOLPAN 1 0 -1 -1 1
    MUTESOLO 0 0 0
    IPHASE 0
    PLAYOFFS 0 1
    ISBUS 0 0
    BUSCOMP 0 0 0 0 0
    SHOWINMIX 1 0.6667 0.5 1 0.5 0 0 0
    FIXEDLANES 9 0 0 0 0
    SEL 0
    REC 0 5088 1 0 0 0 0 0
    VU 2
    TRACKHEIGHT 0 0 0 0 0 0 0
    INQ 0 0 0 0.5 100 0 0 100
    NCHAN 2
    FX 1
    TRACKID {E02B7691-2CF4-43D0-9039-53FACC18C2FD}
    PERF 0
    MIDIOUT -1
    MAINSEND 1 0
    <FXCHAIN
      WNDRECT 24 52 700 560
      SHOW 0
      LASTSEL 0
      DOCKED 0
      BYPASS 0 0 0
      <JS "ReapNES Studio/ReapNES_Console.jsfx" ""
        2 15 1 10 80 10 100 2 1 15 1 5 60 10 80 1 1 0 50 0 0 15 1 0 100 0 0 0.500000 0.500000 0.400000 0.300000 0.800000 3 1 0 0 0 0 - - - - - - - - - - - - - - - - - - - - - - - - - -
      >
      FLOATPOS 0 0 0 0
      FXID {4E1157CE-1036-42D8-9070-FB35F4B483B8}
      WAK 0 0
    >
    <ITEM
      POSITION 0
      LENGTH 83.98134
      LOOP 0
      ALLTAKES 0
      FADEIN 0 0 0 0 0 0 0
      FADEOUT 0 0 0 0 0 0 0
      MUTE 0 0
      SEL 0
      IGUID {3C64BF63-F440-40C8-84D1-8A1273457E13}
      <SOURCE MIDI
        HASDATA 1 480 QN
        CCINTERP 32
        E 8656 93 24 38
        E 208 83 24 00
        E 16 83 24 00
        E 16 83 24 00
        E 16 83 24 00
        E 16 83 24 00
        E 16 83 24 00
        E 16 83 24 00
        E 16 83 24 00
        E 16 83 24 00
        E 16 83 24 00
        E 16 83 24 00
        E 16 83 24 00
        E 16 83 24 00
        E 16 83 24 00
        E 16 83 24 00
        E 16 83 24 00
        E 16 83 24 00
        E 16 83 24 00
        E 16 83 24 00
        E 16 83 24 00
        E 16 83 24 00
        E 16 83 24 00
        E 16 83 24 00
        E 16 83 24 00
        E 16 83 24 00
        E 16 83 24 00
        E 16 83 24 00
        E 16 83 24 00
        E 16 83 24 00
        E 16 83 24 00
        E 16 83 24 00
        E 16 83 24 00
        E 16 83 24 00
        E 16 83 24 00
        E 16 83 24 00
        E 16 83 24 00
        E 16 83 24 00
        E 16 83 24 00
        E 16 83 24 00
        E 16 83 24 00
        E 16 83 24 00
        E 16 83 24 00
        E 16 83 24 00
        E 16 83 24 00
        E 16 83 24 00
        E 16 83 24 00
        E 16 83 24 00
        E 16 83 24 00
        E 16 83 24 00
        E 16 83 24 00
        E 16 83 24 00
        E 16 83 24 00
        E 16 83 24 00
        E 16 83 24 00
        E 16 83 24 00
        E 16 83 24 00
        E 16 83 24 00
        E 16 83 24 00
        E 16 83 24 00
        E 16 83 24 00
        E 16 83 24 00
        E 16 83 24 00
        E 16 83 24 00
        E 16 83 24 00
        E 16 83 24 00
        E 16 83 24 00
        E 16 83 24 00
        E 16 83 24 00
        E 16 83 24 00
        E 16 83 24 00
        E 16 83 24 00
        E 16 83 24 00
        E 16 83 24 00
        E 16 83 24 00
        E 16 83 24 00
        E 16 83 24 00
        E 16 83 24 00
        E 16 83 24 00
        E 16 83 24 00
        E 16 83 24 00
        E 16 83 24 00
        E 16 83 24 00
        E 16 83 24 00
        E 16 83 24 00
        E 16 83 24 00
        E 16 83 24 00
        E 16 83 24 00
        E 16 83 24 00
        E 16 83 24 00
        E 16 83 24 00
        E 16 83 24 00
        E 16 83 24 00
        E 16 83 24 00
        E 16 83 24 00
        E 16 83 24 00
        E 16 83 24 00
        E 16 83 24 00
        E 16 83 24 00
        E 16 83 24 00
        E 16 83 24 00
        E 16 83 24 00
        E 16 83 24 00
        E 16 83 24 00
        E 16 83 24 00
        E 16 83 24 00
        E 16 83 24 00
        E 16 83 24 00
        E 16 83 24 00
        E 16 83 24 00
        E 16 83 24 00
        E 16 83 24 00
        E 16 83 24 00
        E 16 83 24 00
        E 16 83 24 00
        E 16 83 24 00
        E 16 83 24 00
        E 16 83 24 00
        E 16 83 24 00
        E 16 83 24 00
        E 16 83 24 00
        E 16 83 24 00
        E 16 83 24 00
        E 16 83 24 00
        E 16 83 24 00
        E 16 83 24 00
        E 16 83 24 00
        E 16 83 24 00
        E 16 83 24 00
        E 16 83 24 00
        E 16 83 24 00
        E 16 83 24 00
        E 16 83 24 00
        E 16 83 24 00
        E 16 83 24 00
        E 80 93 2a 38
        E 176 83 2a 00
        E 16 83 2a 00
        E 80 93 26 38
        E 176 83 26 00
        E 16 83 26 00
        E 16 83 26 00
        E 64 93 2a 38
        E 176 83 2a 00
        E 16 83 2a 00
        E 16 83 2a 00
        E 48 93 24 38
        E 160 83 24 00
        E 16 83 24 00
        E 16 83 24 00
        E 80 93 2a 38
        E 160 83 2a 00
        E 16 83 2a 00
        E 16 83 2a 00
        E 80 93 26 38
        E 176 83 26 00
        E 16 83 26 00
        E 16 83 26 00
        E 64 93 2a 38
        E 176 83 2a 00
        E 16 83 2a 00
        E 16 83 2a 00
        E 48 93 24 38
        E 160 83 24 00
        E 16 83 24 00
        E 16 83 24 00
        E 80 93 2a 38
        E 160 83 2a 00
        E 16 83 2a 00
        E 16 83 2a 00
        E 80 93 26 38
        E 160 83 26 00
        E 16 83 26 00
        E 16 83 26 00
        E 80 93 2a 38
        E 176 83 2a 00
        E 16 83 2a 00
        E 16 83 2a 00
        E 64 93 24 38
        E 176 83 24 00
        E 16 83 24 00
        E 16 83 24 00
        E 48 93 2a 38
        E 160 83 2a 00
        E 16 83 2a 00
        E 16 83 2a 00
        E 80 93 26 38
        E 160 83 26 00
        E 16 83 26 00
        E 16 83 26 00
        E 80 93 2a 38
        E 176 83 2a 00
        E 16 83 2a 00
        E 80 93 24 38
        E 176 83 24 00
        E 16 83 24 00
        E 16 83 24 00
        E 64 93 2a 38
        E 176 83 2a 00
        E 16 83 2a 00
        E 16 83 2a 00
        E 48 93 26 38
        E 160 83 26 00
        E 16 83 26 00
        E 16 83 26 00
        E 80 93 2a 38
        E 160 83 2a 00
        E 16 83 2a 00
        E 16 83 2a 00
        E 80 93 24 38
        E 176 83 24 00
        E 16 83 24 00
        E 16 83 24 00
        E 64 93 2a 38
        E 176 83 2a 00
        E 16 83 2a 00
        E 16 83 2a 00
        E 48 93 26 38
        E 160 83 26 00
        E 16 83 26 00
        E 16 83 26 00
        E 80 93 2a 38
        E 160 83 2a 00
        E 16 83 2a 00
        E 16 83 2a 00
        E 80 93 24 38
        E 160 83 24 00
        E 16 83 24 00
        E 16 83 24 00
        E 80 93 2a 38
        E 176 83 2a 00
        E 16 83 2a 00
        E 16 83 2a 00
        E 64 93 26 38
        E 176 83 26 00
        E 16 83 26 00
        E 16 83 26 00
        E 48 93 2a 38
        E 160 83 2a 00
        E 16 83 2a 00
        E 16 83 2a 00
        E 80 93 24 38
        E 160 83 24 00
        E 16 83 24 00
        E 16 83 24 00
        E 80 93 2a 38
        E 176 83 2a 00
        E 16 83 2a 00
        E 80 93 26 38
        E 176 83 26 00
        E 16 83 26 00
        E 16 83 26 00
        E 64 93 2a 38
        E 176 83 2a 00
        E 16 83 2a 00
        E 16 83 2a 00
        E 48 93 24 58
        E 208 83 24 00
        E 16 83 24 00
        E 16 83 24 00
        E 16 83 24 00
        E 16 83 24 00
        E 16 83 24 00
        E 16 83 24 00
        E 16 83 24 00
        E 16 83 24 00
        E 16 83 24 00
        E 16 83 24 00
        E 16 83 24 00
        E 16 83 24 00
        E 16 83 24 00
        E 16 83 24 00
        E 16 83 24 00
        E 16 83 24 00
        E 16 83 24 00
        E 16 83 24 00
        E 16 83 24 00
        E 16 83 24 00
        E 16 83 24 00
        E 16 83 24 00
        E 16 83 24 00
        E 16 83 24 00
        E 16 83 24 00
        E 16 83 24 00
        E 16 83 24 00
        E 16 83 24 00
        E 16 83 24 00
        E 16 83 24 00
        E 16 83 24 00
        E 16 83 24 00
        E 16 83 24 00
        E 16 83 24 00
        E 16 83 24 00
        E 16 83 24 00
        E 16 83 24 00
        E 16 83 24 00
        E 16 83 24 00
        E 16 83 24 00
        E 16 83 24 00
        E 16 83 24 00
        E 16 83 24 00
        E 16 83 24 00
        E 16 83 24 00
        E 16 83 24 00
        E 16 83 24 00
        E 16 83 24 00
        E 16 83 24 00
        E 16 83 24 00
        E 16 83 24 00
        E 16 83 24 00
        E 16 83 24 00
        E 16 83 24 00
        E 16 83 24 00
        E 16 83 24 00
        E 16 83 24 00
        E 16 83 24 00
        E 16 83 24 00
        E 16 83 24 00
        E 16 83 24 00
        E 16 83 24 00
        E 16 83 24 00
        E 16 83 24 00
        E 16 83 24 00
        E 16 83 24 00
        E 16 83 24 00
        E 16 83 24 00
        E 16 83 24 00
        E 16 83 24 00
        E 16 83 24 00
        E 16 83 24 00
        E 16 83 24 00
        E 16 83 24 00
        E 16 83 24 00
        E 16 83 24 00
        E 16 83 24 00
        E 16 83 24 00
        E 16 83 24 00
        E 16 83 24 00
        E 16 83 24 00
        E 16 83 24 00
        E 16 83 24 00
        E 16 83 24 00
        E 16 83 24 00
        E 16 83 24 00
        E 16 83 24 00
        E 16 83 24 00
        E 16 83 24 00
        E 16 83 24 00
        E 16 83 24 00
        E 16 83 24 00
        E 16 83 24 00
        E 16 83 24 00
        E 16 83 24 00
        E 16 83 24 00
        E 16 83 24 00
        E 16 83 24 00
        E 16 83 24 00
        E 16 83 24 00
        E 16 83 24 00
        E 16 83 24 00
        E 16 83 24 00
        E 16 83 24 00
        E 16 83 24 00
        E 16 83 24 00
        E 16 83 24 00
        E 16 83 24 00
        E 16 83 24 00
        E 16 83 24 00
        E 16 83 24 00
        E 16 83 24 00
        E 16 83 24 00
        E 16 83 24 00
        E 16 83 24 00
        E 16 83 24 00
        E 16 83 24 00
        E 16 83 24 00
        E 16 83 24 00
        E 16 83 24 00
        E 16 83 24 00
        E 16 83 24 00
        E 16 83 24 00
        E 16 83 24 00
        E 16 83 24 00
        E 16 83 24 00
        E 16 83 24 00
        E 16 83 24 00
        E 16 83 24 00
        E 16 83 24 00
        E 16 83 24 00
        E 16 83 24 00
        E 16 83 24 00
        E 16 83 24 00
        E 16 83 24 00
        E 16 83 24 00
        E 16 83 24 00
        E 16 83 24 00
        E 16 83 24 00
        E 16 83 24 00
        E 16 83 24 00
        E 16 83 24 00
        E 16 83 24 00
        E 16 83 24 00
        E 16 83 24 00
        E 16 83 24 00
        E 16 83 24 00
        E 16 83 24 00
        E 16 83 24 00
        E 16 83 24 00
        E 16 83 24 00
        E 16 83 24 00
        E 16 83 24 00
        E 16 83 24 00
        E 16 83 24 00
        E 16 83 24 00
        E 16 83 24 00
        E 16 83 24 00
        E 16 83 24 00
        E 16 83 24 00
        E 16 83 24 00
        E 16 83 24 00
        E 16 83 24 00
        E 16 83 24 00
        E 16 83 24 00
        E 16 83 24 00
        E 16 83 24 00
        E 16 83 24 00
        E 16 83 24 00
        E 16 83 24 00
        E 16 83 24 00
        E 16 83 24 00
        E 16 83 24 00
        E 16 83 24 00
        E 16 83 24 00
        E 16 83 24 00
        E 16 83 24 00
        E 16 83 24 00
        E 16 83 24 00
        E 16 83 24 00
        E 16 83 24 00
        E 16 83 24 00
        E 16 83 24 00
        E 16 83 24 00
        E 16 83 24 00
        E 16 83 24 00
        E 16 83 24 00
        E 16 83 24 00
        E 16 83 24 00
        E 16 83 24 00
        E 16 83 24 00
        E 16 83 24 00
        E 16 83 24 00
        E 16 83 24 00
        E 16 83 24 00
        E 16 83 24 00
        E 16 83 24 00
        E 16 83 24 00
        E 16 83 24 00
        E 16 83 24 00
        E 16 83 24 00
        E 16 83 24 00
        E 16 83 24 00
        E 16 83 24 00
        E 16 83 24 00
        E 16 83 24 00
        E 16 83 24 00
        E 16 83 24 00
        E 16 83 24 00
        E 16 83 24 00
        E 16 83 24 00
        E 16 83 24 00
        E 16 83 24 00
        E 16 83 24 00
        E 16 83 24 00
        E 16 83 24 00
        E 16 83 24 00
        E 16 83 24 00
        E 16 83 24 00
        E 16 83 24 00
        E 16 83 24 00
        E 16 83 24 00
        E 16 83 24 00
        E 16 83 24 00
        E 16 83 24 00
        E 16 83 24 00
        E 16 83 24 00
        E 16 83 24 00
        E 16 83 24 00
        E 16 83 24 00
        E 16 83 24 00
        E 16 83 24 00
        E 16 83 24 00
        E 16 83 24 00
        E 16 83 24 00
        E 16 83 24 00
        E 16 83 24 00
        E 16 83 24 00
        E 16 83 24 00
        E 16 83 24 00
        E 16 83 24 00
        E 16 83 24 00
        E 16 83 24 00
        E 16 83 24 00
        E 16 83 24 00
        E 16 83 24 00
        E 16 83 24 00
        E 16 83 24 00
        E 16 83 24 00
        E 16 83 24 00
        E 16 83 24 00
        E 16 83 24 00
        E 16 83 24 00
        E 16 83 24 00
        E 16 83 24 00
        E 16 83 24 00
        E 16 83 24 00
        E 16 83 24 00
        E 16 83 24 00
        E 16 83 24 00
        E 16 83 24 00
        E 16 83 24 00
        E 16 83 24 00
        E 16 83 24 00
        E 16 83 24 00
        E 16 83 24 00
        E 16 83 24 00
        E 16 83 24 00
        E 16 83 24 00
        E 16 83 24 00
        E 16 83 24 00
        E 16 83 24 00
        E 16 83 24 00
        E 16 83 24 00
        E 16 83 24 00
        E 16 83 24 00
        E 16 83 24 00
        E 16 83 24 00
        E 16 83 24 00
        E 16 83 24 00
        E 16 83 24 00
        E 16 83 24 00
        E 16 83 24 00
        E 16 83 24 00
        E 16 83 24 00
        E 16 83 24 00
        E 16 83 24 00
        E 16 83 24 00
        E 16 83 24 00
        E 16 83 24 00
        E 16 83 24 00
        E 16 83 24 00
        E 16 83 24 00
        E 16 83 24 00
        E 16 83 24 00
        E 16 83 24 00
        E 16 83 24 00
        E 16 83 24 00
        E 16 83 24 00
        E 16 83 24 00
        E 16 83 24 00
        E 16 83 24 00
        E 16 83 24 00
        E 16 83 24 00
        E 16 83 24 00
        E 16 83 24 00
        E 16 83 24 00
        E 16 83 24 00
        E 16 83 24 00
        E 16 83 24 00
        E 16 83 24 00
        E 16 83 24 00
        E 16 83 24 00
        E 16 83 24 00
        E 16 83 24 00
        E 16 83 24 00
        E 16 83 24 00
        E 16 83 24 00
        E 16 83 24 00
        E 16 83 24 00
        E 16 83 24 00
        E 16 83 24 00
        E 16 83 24 00
        E 16 83 24 00
        E 16 83 24 00
        E 16 83 24 00
        E 16 83 24 00
        E 16 83 24 00
        E 16 83 24 00
        E 16 83 24 00
        E 16 83 24 00
        E 16 83 24 00
        E 16 83 24 00
        E 16 83 24 00
        E 16 83 24 00
        E 16 83 24 00
        E 16 83 24 00
        E 16 83 24 00
        E 16 83 24 00
        E 16 83 24 00
        E 16 83 24 00
        E 16 83 24 00
        E 16 83 24 00
        E 16 83 24 00
        E 16 83 24 00
        E 16 83 24 00
        E 16 83 24 00
        E 16 83 24 00
        E 16 83 24 00
        E 16 83 24 00
        E 16 83 24 00
        E 16 83 24 00
        E 16 83 24 00
        E 16 83 24 00
        E 16 83 24 00
        E 16 83 24 00
        E 16 83 24 00
        E 16 83 24 00
        E 16 83 24 00
        E 16 83 24 00
        E 16 83 24 00
        E 16 83 24 00
        E 16 83 24 00
        E 16 83 24 00
        E 16 83 24 00
        E 16 83 24 00
        E 16 83 24 00
        E 16 83 24 00
        E 16 83 24 00
        E 16 83 24 00
        E 16 83 24 00
        E 16 83 24 00
        E 16 83 24 00
        E 16 83 24 00
        E 16 83 24 00
        E 16 83 24 00
        E 16 83 24 00
        E 16 83 24 00
        E 16 83 24 00
        E 16 83 24 00
        E 16 83 24 00
        E 16 83 24 00
        E 16 83 24 00
        E 16 83 24 00
        E 16 83 24 00
        E 16 83 24 00
        E 16 83 24 00
        E 16 83 24 00
        E 16 83 24 00
        E 16 83 24 00
        E 16 83 24 00
        E 16 83 24 00
        E 16 83 24 00
        E 16 83 24 00
        E 16 83 24 00
        E 16 83 24 00
        E 16 83 24 00
        E 16 83 24 00
        E 16 83 24 00
        E 16 83 24 00
        E 16 83 24 00
        E 16 83 24 00
        E 16 83 24 00
        E 16 83 24 00
        E 16 83 24 00
        E 16 83 24 00
        E 16 83 24 00
        E 16 83 24 00
        E 16 83 24 00
        E 16 83 24 00
        E 16 83 24 00
        E 16 83 24 00
        E 16 83 24 00
        E 16 83 24 00
        E 16 83 24 00
        E 16 83 24 00
        E 16 83 24 00
        E 16 83 24 00
        E 16 83 24 00
        E 16 83 24 00
        E 16 83 24 00
        E 16 83 24 00
        E 16 83 24 00
        E 16 83 24 00
        E 16 83 24 00
        E 16 83 24 00
        E 16 83 24 00
        E 16 83 24 00
        E 16 83 24 00
        E 16 83 24 00
        E 16 83 24 00
        E 16 83 24 00
        E 16 83 24 00
        E 16 83 24 00
        E 16 83 24 00
        E 16 83 24 00
        E 16 83 24 00
        E 16 83 24 00
        E 16 83 24 00
        E 16 83 24 00
        E 16 83 24 00
        E 16 83 24 00
        E 16 83 24 00
        E 16 83 24 00
        E 16 83 24 00
        E 16 83 24 00
        E 16 83 24 00
        E 16 83 24 00
        E 16 83 24 00
        E 16 83 24 00
        E 16 83 24 00
        E 16 83 24 00
        E 16 83 24 00
        E 16 83 24 00
        E 16 83 24 00
        E 16 83 24 00
        E 16 83 24 00
        E 16 83 24 00
        E 16 83 24 00
        E 16 83 24 00
        E 16 83 24 00
        E 16 83 24 00
        E 16 83 24 00
        E 16 83 24 00
        E 16 83 24 00
        E 16 83 24 00
        E 16 83 24 00
        E 16 83 24 00
        E 16 83 24 00
        E 16 83 24 00
        E 16 83 24 00
        E 16 83 24 00
        E 16 83 24 00
        E 16 83 24 00
        E 16 83 24 00
        E 16 83 24 00
        E 16 83 24 00
        E 16 83 24 00
        E 16 83 24 00
        E 16 83 24 00
        E 16 83 24 00
        E 16 83 24 00
        E 16 83 24 00
        E 16 83 24 00
        E 16 83 24 00
        E 16 83 24 00
        E 16 83 24 00
        E 16 83 24 00
        E 16 83 24 00
        E 16 83 24 00
        E 16 83 24 00
        E 16 83 24 00
        E 16 83 24 00
        E 16 83 24 00
        E 16 83 24 00
        E 16 83 24 00
        E 16 83 24 00
        E 16 83 24 00
        E 16 83 24 00
        E 16 83 24 00
        E 16 83 24 00
        E 16 83 24 00
        E 16 83 24 00
        E 16 83 24 00
        E 16 83 24 00
        E 16 83 24 00
        E 16 83 24 00
        E 16 83 24 00
        E 16 83 24 00
        E 16 83 24 00
        E 16 83 24 00
        E 16 83 24 00
        E 16 83 24 00
        E 16 83 24 00
        E 16 83 24 00
        E 16 83 24 00
        E 16 83 24 00
        E 16 83 24 00
        E 16 83 24 00
        E 16 83 24 00
        E 16 83 24 00
        E 16 83 24 00
        E 16 83 24 00
        E 16 83 24 00
        E 16 83 24 00
        E 16 83 24 00
        E 16 83 24 00
        E 16 83 24 00
        E 16 83 24 00
        E 16 83 24 00
        E 16 83 24 00
        E 16 83 24 00
        E 16 83 24 00
        E 16 83 24 00
        E 16 83 24 00
        E 16 83 24 00
        E 16 83 24 00
        E 16 83 24 00
        E 16 83 24 00
        E 16 83 24 00
        E 16 83 24 00
        E 16 83 24 00
        E 16 83 24 00
        E 16 83 24 00
        E 16 83 24 00
        E 16 83 24 00
        E 16 83 24 00
        E 16 83 24 00
        E 16 83 24 00
        E 16 83 24 00
        E 16 83 24 00
        E 16 83 24 00
        E 16 83 24 00
        E 16 83 24 00
        E 16 83 24 00
        E 16 83 24 00
        E 16 83 24 00
        E 16 83 24 00
        E 16 83 24 00
        E 16 83 24 00
        E 16 83 24 00
        E 16 83 24 00
        E 16 83 24 00
        E 16 83 24 00
        E 16 83 24 00
        E 16 83 24 00
        E 16 83 24 00
        E 16 83 24 00
        E 16 83 24 00
        E 16 83 24 00
        E 16 83 24 00
        E 16 83 24 00
        E 16 83 24 00
        E 16 83 24 00
        E 16 83 24 00
        E 16 83 24 00
        E 16 83 24 00
        E 16 83 24 00
        E 16 83 24 00
        E 16 83 24 00
        E 16 83 24 00
        E 16 83 24 00
        E 16 83 24 00
        E 16 83 24 00
        E 16 83 24 00
        E 16 83 24 00
        E 16 83 24 00
        E 16 83 24 00
        E 16 83 24 00
        E 16 83 24 00
        E 16 83 24 00
        E 16 83 24 00
        E 16 83 24 00
        E 16 83 24 00
        E 16 83 24 00
        E 16 83 24 00
        E 16 83 24 00
        E 16 83 24 00
        E 16 83 24 00
        E 16 83 24 00
        E 16 83 24 00
        E 16 83 24 00
        E 16 83 24 00
        E 16 83 24 00
        E 16 83 24 00
        E 16 83 24 00
        E 16 83 24 00
        E 16 83 24 00
        E 16 83 24 00
        E 16 83 24 00
        E 16 83 24 00
        E 16 83 24 00
        E 16 83 24 00
        E 16 83 24 00
        E 16 83 24 00
        E 16 83 24 00
        E 16 83 24 00
        E 16 83 24 00
        E 16 83 24 00
        E 16 83 24 00
        E 16 83 24 00
        E 16 83 24 00
        E 16 83 24 00
        E 16 83 24 00
        E 16 83 24 00
        E 16 83 24 00
        E 16 83 24 00
        E 16 83 24 00
        E 16 83 24 00
        E 16 83 24 00
        E 16 83 24 00
        E 16 83 24 00
        E 16 83 24 00
        E 16 83 24 00
        E 16 83 24 00
        E 16 83 24 00
        E 16 83 24 00
        E 16 83 24 00
        E 16 83 24 00
        E 16 83 24 00
        E 16 83 24 00
        E 16 83 24 00
        E 16 83 24 00
        E 16 83 24 00
        E 16 83 24 00
        E 16 83 24 00
        E 16 83 24 00
        E 16 83 24 00
        E 16 83 24 00
        E 16 83 24 00
        E 16 83 24 00
        E 16 83 24 00
        E 16 83 24 00
        E 16 83 24 00
        E 16 83 24 00
        E 16 83 24 00
        E 16 83 24 00
        E 16 83 24 00
        E 16 83 24 00
        E 16 83 24 00
        E 16 83 24 00
        E 16 83 24 00
        E 16 83 24 00
        E 16 83 24 00
        E 16 83 24 00
        E 16 83 24 00
        E 16 83 24 00
        E 16 83 24 00
        E 16 83 24 00
        E 16 83 24 00
        E 16 83 24 00
        E 16 83 24 00
        E 16 83 24 00
        E 16 83 24 00
        E 16 83 24 00
        E 16 83 24 00
        E 16 83 24 00
        E 16 83 24 00
        E 16 83 24 00
        E 16 83 24 00
        E 16 83 24 00
        E 16 83 24 00
        E 16 83 24 00
        E 16 83 24 00
        E 16 83 24 00
        E 16 83 24 00
        E 16 83 24 00
        E 16 83 24 00
        E 16 83 24 00
        E 16 83 24 00
        E 16 83 24 00
        E 16 83 24 00
        E 16 83 24 00
        E 16 83 24 00
        E 16 83 24 00
        E 16 83 24 00
        E 16 83 24 00
        E 16 83 24 00
        E 16 83 24 00
        E 16 83 24 00
        E 16 83 24 00
        E 16 83 24 00
        E 16 83 24 00
        E 16 83 24 00
        E 16 83 24 00
        E 16 83 24 00
        E 16 83 24 00
        E 16 83 24 00
        E 16 83 24 00
        E 16 83 24 00
        E 16 83 24 00
        E 16 83 24 00
        E 16 83 24 00
        E 16 83 24 00
        E 16 83 24 00
        E 16 83 24 00
        E 16 83 24 00
        E 16 83 24 00
        E 16 83 24 00
        E 16 83 24 00
        E 16 83 24 00
        E 16 83 24 00
        E 16 83 24 00
        E 16 83 24 00
        E 16 83 24 00
        E 16 83 24 00
        E 16 83 24 00
        E 16 83 24 00
        E 16 83 24 00
        E 16 83 24 00
        E 16 83 24 00
        E 16 83 24 00
        E 16 83 24 00
        E 16 83 24 00
        E 16 83 24 00
        E 16 83 24 00
        E 16 83 24 00
        E 16 83 24 00
        E 16 83 24 00
        E 16 83 24 00
        E 16 83 24 00
        E 16 83 24 00
        E 16 83 24 00
        E 16 83 24 00
        E 16 83 24 00
        E 16 83 24 00
        E 16 83 24 00
        E 16 83 24 00
        E 16 83 24 00
        E 16 83 24 00
        E 16 83 24 00
        E 16 83 24 00
        E 16 83 24 00
        E 16 83 24 00
        E 16 83 24 00
        E 16 83 24 00
        E 16 83 24 00
        E 16 83 24 00
        E 16 83 24 00
        E 16 83 24 00
        E 16 83 24 00
        E 16 83 24 00
        E 16 83 24 00
        E 16 83 24 00
        E 16 83 24 00
        E 16 83 24 00
        E 16 83 24 00
        E 16 83 24 00
        E 16 83 24 00
        E 16 83 24 00
        E 16 83 24 00
        E 16 83 24 00
        E 16 83 24 00
        E 16 83 24 00
        E 16 83 24 00
        E 16 83 24 00
        E 16 83 24 00
        E 16 83 24 00
        E 16 83 24 00
        E 16 83 24 00
        E 16 83 24 00
        E 16 83 24 00
        E 16 83 24 00
        E 16 83 24 00
        E 16 83 24 00
        E 16 83 24 00
        E 16 83 24 00
        E 16 83 24 00
        E 16 83 24 00
        E 16 83 24 00
        E 16 83 24 00
        E 16 83 24 00
        E 16 83 24 00
        E 16 83 24 00
        E 16 83 24 00
        E 16 83 24 00
        E 16 83 24 00
        E 16 83 24 00
        E 16 83 24 00
        E 16 83 24 00
        E 16 83 24 00
        E 16 83 24 00
        E 16 83 24 00
        E 16 83 24 00
        E 16 83 24 00
        E 16 83 24 00
        E 16 83 24 00
        E 16 83 24 00
        E 16 83 24 00
        E 16 83 24 00
        E 16 83 24 00
        E 16 83 24 00
        E 16 83 24 00
        E 16 83 24 00
        E 16 83 24 00
        E 16 83 24 00
        E 16 83 24 00
        E 16 83 24 00
        E 16 83 24 00
        E 16 83 24 00
        E 16 83 24 00
        E 16 83 24 00
        E 16 83 24 00
        E 16 83 24 00
        E 16 83 24 00
        E 16 83 24 00
        E 16 83 24 00
        E 16 83 24 00
        E 16 83 24 00
        E 16 83 24 00
        E 16 83 24 00
        E 16 83 24 00
        E 16 83 24 00
        E 16 83 24 00
        E 16 83 24 00
        E 16 83 24 00
        E 16 83 24 00
        E 16 83 24 00
        E 16 83 24 00
        E 16 83 24 00
        E 16 83 24 00
        E 16 83 24 00
        E 16 83 24 00
        E 16 83 24 00
        E 16 83 24 00
        E 16 83 24 00
        E 16 83 24 00
        E 16 83 24 00
        E 16 83 24 00
        E 16 83 24 00
        E 16 83 24 00
        E 16 83 24 00
        E 16 83 24 00
        E 16 83 24 00
        E 16 83 24 00
        E 16 83 24 00
        E 16 83 24 00
        E 16 83 24 00
        E 16 83 24 00
        E 16 83 24 00
        E 16 83 24 00
        E 16 83 24 00
        E 16 83 24 00
        E 16 83 24 00
        E 16 83 24 00
        E 16 83 24 00
        E 16 83 24 00
        E 16 83 24 00
        E 16 83 24 00
        E 16 83 24 00
        E 16 83 24 00
        E 16 83 24 00
        E 16 83 24 00
        E 16 83 24 00
        E 16 83 24 00
        E 16 83 24 00
        E 16 83 24 00
        E 16 83 24 00
        E 16 83 24 00
        E 16 83 24 00
        E 16 83 24 00
        E 16 83 24 00
        E 16 83 24 00
        E 16 83 24 00
        E 16 83 24 00
        E 16 83 24 00
        E 16 83 24 00
        E 16 83 24 00
        E 16 83 24 00
        E 16 83 24 00
        E 16 83 24 00
        E 16 83 24 00
        E 16 83 24 00
        E 16 83 24 00
        E 16 83 24 00
        E 16 83 24 00
        E 16 83 24 00
        E 16 83 24 00
        E 16 83 24 00
        E 16 83 24 00
        E 16 83 24 00
        E 16 83 24 00
        E 16 83 24 00
        E 16 83 24 00
        E 16 83 24 00
        E 16 83 24 00
        E 16 83 24 00
        E 16 83 24 00
        E 16 83 24 00
        E 16 83 24 00
        E 16 83 24 00
        E 16 83 24 00
        E 16 83 24 00
        E 16 83 24 00
        E 16 83 24 00
        E 16 83 24 00
        E 16 83 24 00
        E 16 83 24 00
        E 16 83 24 00
        E 16 83 24 00
        E 16 83 24 00
        E 16 83 24 00
        E 16 83 24 00
        E 16 83 24 00
        E 16 83 24 00
        E 16 83 24 00
        E 16 83 24 00
        E 16 83 24 00
        E 16 83 24 00
        E 16 83 24 00
        E 16 83 24 00
        E 16 83 24 00
        E 16 83 24 00
        E 16 83 24 00
        E 16 83 24 00
        E 16 83 24 00
        E 16 83 24 00
        E 16 83 24 00
        E 16 83 24 00
        E 16 83 24 00
        E 16 83 24 00
        E 16 83 24 00
        E 16 83 24 00
        E 16 83 24 00
        E 16 83 24 00
        E 16 83 24 00
        E 16 83 24 00
        E 16 83 24 00
        E 16 83 24 00
        E 16 83 24 00
        E 16 83 24 00
        E 16 83 24 00
        E 16 83 24 00
        E 16 83 24 00
        E 16 83 24 00
        E 16 83 24 00
        E 16 83 24 00
        E 16 83 24 00
        E 16 83 24 00
        E 16 83 24 00
        E 16 83 24 00
        E 16 83 24 00
        E 16 83 24 00
        E 16 83 24 00
        E 16 83 24 00
        E 16 83 24 00
        E 16 83 24 00
        E 16 83 24 00
        E 16 83 24 00
        E 16 83 24 00
        E 16 83 24 00
        E 16 83 24 00
        E 16 83 24 00
        E 16 83 24 00
        E 16 83 24 00
        E 16 83 24 00
        E 16 83 24 00
        E 16 83 24 00
        E 16 83 24 00
        E 16 83 24 00
        E 16 83 24 00
        E 16 83 24 00
        E 16 83 24 00
        E 16 83 24 00
        E 16 83 24 00
        E 16 83 24 00
        E 16 83 24 00
        E 16 83 24 00
        E 16 83 24 00
        E 16 83 24 00
        E 16 83 24 00
        E 16 83 24 00
        E 16 83 24 00
        E 16 83 24 00
        E 16 83 24 00
        E 16 83 24 00
        E 16 83 24 00
        E 16 83 24 00
        E 16 83 24 00
        E 16 83 24 00
        E 16 83 24 00
        E 16 83 24 00
        E 16 83 24 00
        E 16 83 24 00
        E 16 83 24 00
        E 16 83 24 00
        E 16 83 24 00
        E 16 83 24 00
        E 16 83 24 00
        E 16 83 24 00
        E 16 83 24 00
        E 16 83 24 00
        E 16 83 24 00
        E 16 83 24 00
        E 16 83 24 00
        E 16 83 24 00
        E 16 83 24 00
        E 16 83 24 00
        E 16 83 24 00
        E 16 83 24 00
        E 16 83 24 00
        E 16 83 24 00
        E 16 83 24 00
        E 16 83 24 00
        E 16 83 24 00
        E 16 83 24 00
        E 16 83 24 00
        E 16 83 24 00
        E 16 83 24 00
        E 16 83 24 00
        E 16 83 24 00
        E 16 83 24 00
        E 16 83 24 00
        E 16 83 24 00
        E 16 83 24 00
        E 16 83 24 00
        E 16 83 24 00
        E 16 83 24 00
        E 16 83 24 00
        E 16 83 24 00
        E 16 83 24 00
        E 16 83 24 00
        E 16 83 24 00
        E 16 83 24 00
        E 16 83 24 00
        E 16 83 24 00
        E 16 83 24 00
        E 16 83 24 00
        E 16 83 24 00
        E 16 83 24 00
        E 16 83 24 00
        E 16 83 24 00
        E 16 83 24 00
        E 16 83 24 00
        E 16 83 24 00
        E 16 83 24 00
        E 16 83 24 00
        E 16 83 24 00
        E 16 83 24 00
        E 16 83 24 00
        E 16 83 24 00
        E 16 83 24 00
        E 16 83 24 00
        E 16 83 24 00
        E 16 83 24 00
        E 16 83 24 00
        E 16 83 24 00
        E 16 83 24 00
        E 16 83 24 00
        E 16 83 24 00
        E 16 83 24 00
        E 16 83 24 00
        E 16 83 24 00
        E 16 83 24 00
        E 16 83 24 00
        E 16 83 24 00
        E 16 83 24 00
        E 16 83 24 00
        E 16 83 24 00
        E 16 83 24 00
        E 16 83 24 00
        E 16 83 24 00
        E 16 83 24 00
        E 16 83 24 00
        E 16 83 24 00
        E 16 83 24 00
        E 16 83 24 00
        E 16 83 24 00
        E 16 83 24 00
        E 16 83 24 00
        E 16 83 24 00
        E 16 83 24 00
        E 16 83 24 00
        E 16 83 24 00
        E 16 83 24 00
        E 16 83 24 00
        E 16 83 24 00
        E 16 83 24 00
        E 16 83 24 00
        E 16 83 24 00
        E 16 83 24 00
        E 16 83 24 00
        E 16 83 24 00
        E 16 83 24 00
        E 16 83 24 00
        E 16 83 24 00
        E 16 83 24 00
        E 16 83 24 00
        E 16 83 24 00
        E 16 83 24 00
        E 16 83 24 00
        E 16 83 24 00
        E 16 83 24 00
        E 16 83 24 00
        E 16 83 24 00
        E 16 83 24 00
        E 16 83 24 00
        E 16 83 24 00
        E 16 83 24 00
        E 16 83 24 00
        E 16 83 24 00
        E 16 83 24 00
        E 16 83 24 00
        E 16 83 24 00
        E 16 83 24 00
        E 16 83 24 00
        E 16 83 24 00
        E 16 83 24 00
        E 16 83 24 00
        E 16 83 24 00
        E 16 83 24 00
        E 16 83 24 00
        E 16 83 24 00
        E 16 83 24 00
        E 16 83 24 00
        E 16 83 24 00
        E 16 83 24 00
        E 16 83 24 00
        E 16 83 24 00
        E 16 83 24 00
        E 16 83 24 00
        E 16 83 24 00
        E 16 83 24 00
        E 16 83 24 00
        E 16 83 24 00
        E 16 83 24 00
        E 16 83 24 00
        E 16 83 24 00
        E 16 83 24 00
        E 16 83 24 00
        E 16 83 24 00
        E 16 83 24 00
        E 16 83 24 00
        E 16 83 24 00
        E 16 83 24 00
        E 16 83 24 00
        E 16 83 24 00
        E 16 83 24 00
        E 16 83 24 00
        E 16 83 24 00
        E 16 83 24 00
        E 16 83 24 00
        E 16 83 24 00
        E 16 83 24 00
        E 16 83 24 00
        E 16 83 24 00
        E 16 83 24 00
        E 16 83 24 00
        E 16 83 24 00
        E 16 83 24 00
        E 16 83 24 00
        E 16 83 24 00
        E 16 83 24 00
        E 16 83 24 00
        E 16 83 24 00
        E 16 83 24 00
        E 16 83 24 00
        E 16 83 24 00
        E 16 83 24 00
        E 16 83 24 00
        E 16 83 24 00
        E 16 83 24 00
        E 16 83 24 00
        E 16 83 24 00
        E 16 83 24 00
        E 16 83 24 00
        E 16 83 24 00
        E 16 83 24 00
        E 16 83 24 00
        E 16 83 24 00
        E 16 83 24 00
        E 16 83 24 00
        E 16 83 24 00
        E 16 83 24 00
        E 16 83 24 00
        E 16 83 24 00
        E 16 83 24 00
        E 16 83 24 00
        E 16 83 24 00
        E 16 83 24 00
        E 16 83 24 00
        E 16 83 24 00
        E 16 83 24 00
        E 16 83 24 00
        E 16 83 24 00
        E 16 83 24 00
        E 16 83 24 00
        E 16 83 24 00
        E 16 83 24 00
        E 16 83 24 00
        E 16 83 24 00
        E 16 83 24 00
        E 16 83 24 00
        E 16 83 24 00
        E 16 83 24 00
        E 16 83 24 00
        E 16 83 24 00
        E 16 83 24 00
        E 16 83 24 00
        E 16 83 24 00
        E 16 83 24 00
        E 16 83 24 00
        E 16 83 24 00
        E 16 83 24 00
        E 16 83 24 00
        E 16 83 24 00
        E 16 83 24 00
        E 16 83 24 00
        E 16 83 24 00
        E 16 83 24 00
        E 16 83 24 00
        E 16 83 24 00
        E 16 83 24 00
        E 16 83 24 00
        E 16 83 24 00
        E 16 83 24 00
        E 16 83 24 00
        E 16 83 24 00
        E 16 83 24 00
        E 16 83 24 00
        E 16 83 24 00
        E 16 83 24 00
        E 16 83 24 00
        E 16 83 24 00
        E 16 83 24 00
        E 16 83 24 00
        E 16 83 24 00
        E 16 83 24 00
        E 16 83 24 00
        E 16 83 24 00
        E 16 83 24 00
        E 16 83 24 00
        E 16 83 24 00
        E 16 83 24 00
        E 16 83 24 00
        E 16 83 24 00
        E 16 83 24 00
        E 16 83 24 00
        E 16 83 24 00
        E 16 83 24 00
        E 16 83 24 00
        E 16 83 24 00
        E 16 83 24 00
        E 16 83 24 00
        E 16 83 24 00
        E 16 83 24 00
        E 16 83 24 00
        E 16 83 24 00
        E 16 83 24 00
        E 16 83 24 00
        E 16 83 24 00
        E 16 83 24 00
        E 16 83 24 00
        E 16 83 24 00
        E 16 83 24 00
        E 16 83 24 00
        E 16 83 24 00
        E 16 83 24 00
        E 16 83 24 00
        E 16 83 24 00
        E 16 83 24 00
        E 16 83 24 00
        E 16 83 24 00
        E 16 83 24 00
        E 16 83 24 00
        E 16 83 24 00
        E 16 83 24 00
        E 16 83 24 00
        E 16 83 24 00
        E 16 83 24 00
        E 16 83 24 00
        E 16 83 24 00
        E 16 83 24 00
        E 16 83 24 00
        E 16 83 24 00
        E 16 83 24 00
        E 16 83 24 00
        E 16 83 24 00
        E 16 83 24 00
        E 16 83 24 00
        E 16 83 24 00
        E 16 83 24 00
        E 16 83 24 00
        E 16 83 24 00
        E 16 83 24 00
        E 16 83 24 00
        E 16 83 24 00
        E 16 83 24 00
        E 16 83 24 00
        E 16 83 24 00
        E 16 83 24 00
        E 16 83 24 00
        E 16 83 24 00
        E 16 83 24 00
        E 16 83 24 00
        E 16 83 24 00
        E 16 83 24 00
        E 16 83 24 00
        E 16 83 24 00
        E 16 83 24 00
        E 16 83 24 00
        E 16 83 24 00
        E 16 83 24 00
        E 16 83 24 00
        E 16 83 24 00
        E 16 83 24 00
        E 16 83 24 00
        E 16 83 24 00
        E 16 83 24 00
        E 16 83 24 00
        E 16 83 24 00
        E 16 83 24 00
        E 16 83 24 00
        E 16 83 24 00
        E 16 83 24 00
        E 16 83 24 00
        E 16 83 24 00
        E 16 83 24 00
        E 16 83 24 00
        E 16 83 24 00
        E 16 83 24 00
        E 16 83 24 00
        E 16 83 24 00
        E 16 83 24 00
        E 16 83 24 00
        E 16 83 24 00
        E 16 83 24 00
        E 16 83 24 00
        E 16 83 24 00
        E 16 83 24 00
        E 16 83 24 00
        E 16 83 24 00
        E 16 83 24 00
        E 16 83 24 00
        E 16 83 24 00
        E 16 83 24 00
        E 16 83 24 00
        E 16 83 24 00
        E 16 83 24 00
        E 16 83 24 00
        E 16 83 24 00
        E 16 83 24 00
        E 16 83 24 00
        E 16 83 24 00
        E 16 83 24 00
        E 16 83 24 00
        E 16 83 24 00
        E 16 83 24 00
        E 16 83 24 00
        E 16 83 24 00
        E 16 83 24 00
        E 16 83 24 00
        E 16 83 24 00
        E 16 83 24 00
        E 16 83 24 00
        E 16 83 24 00
        E 16 83 24 00
        E 16 83 24 00
        E 16 83 24 00
        E 16 83 24 00
        E 16 83 24 00
        E 16 83 24 00
        E 16 83 24 00
        E 16 83 24 00
        E 16 83 24 00
        E 16 83 24 00
        E 16 83 24 00
        E 16 83 24 00
        E 16 83 24 00
        E 16 83 24 00
        E 16 83 24 00
        E 16 83 24 00
        E 16 83 24 00
        E 16 83 24 00
        E 16 83 24 00
        E 16 83 24 00
        E 16 83 24 00
        E 16 83 24 00
        E 16 83 24 00
        E 16 83 24 00
        E 16 83 24 00
        E 16 83 24 00
        E 16 83 24 00
        E 16 83 24 00
        E 16 83 24 00
        E 16 83 24 00
        E 16 83 24 00
        E 16 83 24 00
        E 16 83 24 00
        E 16 83 24 00
        E 16 83 24 00
        E 16 83 24 00
        E 16 83 24 00
        E 16 83 24 00
        E 16 83 24 00
        E 16 83 24 00
        E 16 83 24 00
        E 16 83 24 00
        E 16 83 24 00
        E 16 83 24 00
        E 16 83 24 00
        E 16 83 24 00
        E 16 83 24 00
        E 16 83 24 00
        E 16 83 24 00
        E 16 83 24 00
        E 16 83 24 00
        E 16 83 24 00
        E 16 83 24 00
        E 16 83 24 00
        E 16 83 24 00
        E 16 83 24 00
        E 16 83 24 00
        E 16 83 24 00
        E 16 83 24 00
        E 16 83 24 00
        E 16 83 24 00
        E 16 83 24 00
        E 16 83 24 00
        E 16 83 24 00
        E 16 83 24 00
        E 16 83 24 00
        E 16 83 24 00
        E 16 83 24 00
        E 16 83 24 00
        E 16 83 24 00
        E 16 83 24 00
        E 16 83 24 00
        E 16 83 24 00
        E 16 83 24 00
        E 16 83 24 00
        E 16 83 24 00
        E 16 83 24 00
        E 16 83 24 00
        E 16 83 24 00
        E 16 83 24 00
        E 16 83 24 00
        E 16 83 24 00
        E 16 83 24 00
        E 16 83 24 00
        E 16 83 24 00
        E 16 83 24 00
        E 16 83 24 00
        E 16 83 24 00
        E 16 83 24 00
        E 16 83 24 00
        E 16 83 24 00
        E 16 83 24 00
        E 16 83 24 00
        E 16 83 24 00
        E 16 83 24 00
        E 16 83 24 00
        E 16 83 24 00
        E 16 83 24 00
        E 16 83 24 00
        E 16 83 24 00
        E 16 83 24 00
        E 16 83 24 00
        E 16 83 24 00
        E 16 83 24 00
        E 16 83 24 00
        E 16 83 24 00
        E 16 83 24 00
        E 16 83 24 00
        E 16 83 24 00
        E 16 83 24 00
        E 16 83 24 00
        E 16 83 24 00
        E 16 83 24 00
        E 16 83 24 00
        E 16 83 24 00
        E 16 83 24 00
        E 16 83 24 00
        E 16 83 24 00
        E 16 83 24 00
        E 16 83 24 00
        E 16 83 24 00
        E 16 83 24 00
        E 16 83 24 00
        E 16 83 24 00
        E 16 83 24 00
        E 16 83 24 00
        E 16 83 24 00
        E 16 83 24 00
        E 16 83 24 00
        E 16 83 24 00
        E 16 83 24 00
        E 16 83 24 00
        E 16 83 24 00
        E 16 83 24 00
        E 16 83 24 00
        E 16 83 24 00
        E 16 83 24 00
        E 16 83 24 00
        E 16 83 24 00
        E 16 83 24 00
        E 16 83 24 00
        E 16 83 24 00
        E 16 83 24 00
        E 16 83 24 00
        E 16 83 24 00
        E 16 83 24 00
        E 16 83 24 00
        E 16 83 24 00
        E 16 83 24 00
        E 16 83 24 00
        E 16 83 24 00
        E 16 83 24 00
        E 16 83 24 00
        E 16 83 24 00
        E 16 83 24 00
        E 16 83 24 00
        E 16 83 24 00
        E 16 83 24 00
        E 16 83 24 00
        E 16 83 24 00
        E 16 83 24 00
        E 16 83 24 00
        E 16 83 24 00
        E 16 83 24 00
        E 16 83 24 00
        E 16 83 24 00
        E 16 83 24 00
        E 16 83 24 00
        E 16 83 24 00
        E 16 83 24 00
        E 16 83 24 00
        E 16 83 24 00
        E 16 83 24 00
        E 16 83 24 00
        E 16 83 24 00
        E 16 83 24 00
        E 16 83 24 00
        E 16 83 24 00
        E 16 83 24 00
        E 16 83 24 00
        E 16 83 24 00
        E 16 83 24 00
        E 16 83 24 00
        E 16 83 24 00
        E 16 83 24 00
        E 16 83 24 00
        E 16 83 24 00
        E 16 83 24 00
        E 16 83 24 00
        E 16 83 24 00
        E 16 83 24 00
        E 16 83 24 00
        E 16 83 24 00
        E 16 83 24 00
        E 16 83 24 00
        E 16 83 24 00
        E 16 83 24 00
        E 16 83 24 00
        E 16 83 24 00
        E 16 83 24 00
        E 16 83 24 00
        E 16 83 24 00
        E 16 83 24 00
        E 16 83 24 00
        E 16 83 24 00
        E 16 83 24 00
        E 16 83 24 00
        E 16 83 24 00
        E 16 83 24 00
        E 16 83 24 00
        E 16 83 24 00
        E 16 83 24 00
        E 16 83 24 00
        E 16 83 24 00
        E 16 83 24 00
        E 16 83 24 00
        E 16 83 24 00
        E 16 83 24 00
        E 16 83 24 00
        E 16 83 24 00
        E 16 83 24 00
        E 16 83 24 00
        E 16 83 24 00
        E 16 83 24 00
        E 16 83 24 00
        E 16 83 24 00
        E 16 83 24 00
        E 16 83 24 00
        E 16 83 24 00
        E 16 83 24 00
        E 16 83 24 00
        E 16 83 24 00
        E 16 83 24 00
        E 16 83 24 00
        E 16 83 24 00
        E 16 83 24 00
        E 16 83 24 00
        E 16 83 24 00
        E 16 83 24 00
        E 16 83 24 00
        E 16 83 24 00
        E 16 83 24 00
        E 16 83 24 00
        E 16 83 24 00
        E 16 83 24 00
        E 16 83 24 00
        E 16 83 24 00
        E 16 83 24 00
        E 16 83 24 00
        E 16 83 24 00
        E 16 83 24 00
        E 16 83 24 00
        E 16 83 24 00
        E 16 83 24 00
        E 16 83 24 00
        E 16 83 24 00
        E 16 83 24 00
        E 16 83 24 00
        E 16 83 24 00
        E 16 83 24 00
        E 16 83 24 00
        E 16 83 24 00
        E 16 83 24 00
        E 16 83 24 00
        E 16 83 24 00
        E 16 83 24 00
        E 16 83 24 00
        E 16 83 24 00
        E 16 83 24 00
        E 16 83 24 00
        E 16 83 24 00
        E 16 83 24 00
        E 16 83 24 00
        E 16 83 24 00
        E 16 83 24 00
        E 16 83 24 00
        E 16 83 24 00
        E 16 83 24 00
        E 16 83 24 00
        E 16 83 24 00
        E 16 83 24 00
        E 16 83 24 00
        E 16 83 24 00
        E 16 83 24 00
        E 16 83 24 00
        E 16 83 24 00
        E 16 83 24 00
        E 16 83 24 00
        E 16 83 24 00
        E 16 83 24 00
        E 16 83 24 00
        E 16 83 24 00
        E 16 83 24 00
        E 16 83 24 00
        E 16 83 24 00
        E 16 83 24 00
        E 16 83 24 00
        E 16 83 24 00
        E 16 83 24 00
        E 16 83 24 00
        E 16 83 24 00
        E 16 83 24 00
        E 16 83 24 00
        E 16 83 24 00
        E 16 83 24 00
        E 16 83 24 00
        E 16 83 24 00
        E 16 83 24 00
        E 16 83 24 00
        E 16 83 24 00
        E 16 83 24 00
        E 16 83 24 00
        E 16 83 24 00
        E 16 83 24 00
        E 16 83 24 00
        E 16 83 24 00
        E 16 83 24 00
        E 16 83 24 00
        E 16 83 24 00
        E 16 83 24 00
        E 16 83 24 00
        E 16 83 24 00
        E 16 83 24 00
        E 16 83 24 00
        E 16 83 24 00
        E 16 83 24 00
        E 16 83 24 00
        E 16 83 24 00
        E 16 83 24 00
        E 16 83 24 00
        E 16 83 24 00
        E 16 83 24 00
        E 16 83 24 00
        E 16 83 24 00
        E 16 83 24 00
        E 16 83 24 00
        E 16 83 24 00
        E 16 83 24 00
        E 16 83 24 00
        E 16 83 24 00
        E 16 83 24 00
        E 16 83 24 00
        E 16 83 24 00
        E 16 83 24 00
        E 16 83 24 00
        E 16 83 24 00
        E 16 83 24 00
        E 16 83 24 00
        E 16 83 24 00
        E 16 83 24 00
        E 16 83 24 00
        E 16 83 24 00
        E 16 83 24 00
        E 16 83 24 00
        E 16 83 24 00
        E 16 83 24 00
        E 16 83 24 00
        E 16 83 24 00
        E 16 83 24 00
        E 16 83 24 00
        E 16 83 24 00
        E 16 83 24 00
        E 16 83 24 00
        E 16 83 24 00
        E 16 83 24 00
        E 16 83 24 00
        E 16 83 24 00
        E 16 83 24 00
        E 16 83 24 00
        E 80 93 2a 38
        E 176 83 2a 00
        E 16 83 2a 00
        E 80 93 26 38
        E 176 83 26 00
        E 16 83 26 00
        E 16 83 26 00
        E 64 93 2a 38
        E 176 83 2a 00
        E 16 83 2a 00
        E 16 83 2a 00
        E 48 93 24 38
        E 160 83 24 00
        E 16 83 24 00
        E 16 83 24 00
        E 80 93 2a 38
        E 160 83 2a 00
        E 16 83 2a 00
        E 16 83 2a 00
        E 80 93 26 38
        E 176 83 26 00
        E 16 83 26 00
        E 16 83 26 00
        E 64 93 2a 38
        E 176 83 2a 00
        E 16 83 2a 00
        E 16 83 2a 00
        E 48 93 24 38
        E 160 83 24 00
        E 16 83 24 00
        E 16 83 24 00
        E 80 93 2a 38
        E 160 83 2a 00
        E 16 83 2a 00
        E 16 83 2a 00
        E 80 93 26 38
        E 160 83 26 00
        E 16 83 26 00
        E 16 83 26 00
        E 80 93 2a 38
        E 176 83 2a 00
        E 16 83 2a 00
        E 16 83 2a 00
        E 64 93 24 38
        E 176 83 24 00
        E 16 83 24 00
        E 16 83 24 00
        E 48 93 2a 38
        E 160 83 2a 00
        E 16 83 2a 00
        E 16 83 2a 00
        E 80 93 26 38
        E 160 83 26 00
        E 16 83 26 00
        E 16 83 26 00
        E 80 93 2a 38
        E 176 83 2a 00
        E 16 83 2a 00
        E 80 93 24 38
        E 176 83 24 00
        E 16 83 24 00
        E 16 83 24 00
        E 64 93 2a 38
        E 176 83 2a 00
        E 16 83 2a 00
        E 16 83 2a 00
        E 48 93 26 38
        E 160 83 26 00
        E 16 83 26 00
        E 16 83 26 00
        E 80 93 2a 38
        E 160 83 2a 00
        E 16 83 2a 00
        E 16 83 2a 00
        E 80 93 24 38
        E 176 83 24 00
        E 16 83 24 00
        E 80 93 2a 38
        E 176 83 2a 00
        E 16 83 2a 00
        E 16 83 2a 00
        E 48 93 26 38
        E 160 83 26 00
        E 16 83 26 00
        E 16 83 26 00
        E 80 93 2a 38
        E 160 83 2a 00
        E 16 83 2a 00
        E 16 83 2a 00
        E 80 93 24 38
        E 160 83 24 00
        E 16 83 24 00
        E 16 83 24 00
        E 80 93 2a 38
        E 176 83 2a 00
        E 16 83 2a 00
        E 16 83 2a 00
        E 64 93 26 38
        E 176 83 26 00
        E 16 83 26 00
        E 16 83 26 00
        E 48 93 2a 38
        E 160 83 2a 00
        E 16 83 2a 00
        E 16 83 2a 00
        E 80 93 24 38
        E 160 83 24 00
        E 16 83 24 00
        E 16 83 24 00
        E 80 93 2a 38
        E 176 83 2a 00
        E 16 83 2a 00
        E 80 93 26 38
        E 176 83 26 00
        E 16 83 26 00
        E 16 83 26 00
        E 64 93 2a 38
        E 176 83 2a 00
        E 16 83 2a 00
        E 16 83 2a 00
        E 48 93 24 38
        E 160 83 24 00
        E 16 83 24 00
        E 16 83 24 00
        E 80 93 2a 38
        E 160 83 2a 00
        E 16 83 2a 00
        E 16 83 2a 00
        E 80 93 26 38
        E 176 83 26 00
        E 16 83 26 00
        E 80 93 2a 38
        E 176 83 2a 00
        E 16 83 2a 00
        E 16 83 2a 00
        E 64 93 24 38
        E 176 83 24 00
        E 16 83 24 00
        E 16 83 24 00
        E 48 93 2a 38
        E 160 83 2a 00
        E 16 83 2a 00
        E 16 83 2a 00
        E 80 93 26 38
        E 160 83 26 00
        E 16 83 26 00
        E 16 83 26 00
        E 80 93 2a 38
        E 176 83 2a 00
        E 16 83 2a 00
        E 16 83 2a 00
        E 64 93 24 38
        E 176 83 24 00
        E 16 83 24 00
        E 16 83 24 00
        E 48 93 2a 38
        E 160 83 2a 00
        E 16 83 2a 00
        E 16 83 2a 00
        E 80 93 26 38
        E 160 83 26 00
        E 16 83 26 00
        E 16 83 26 00
        E 80 93 2a 38
        E 160 83 2a 00
        E 16 83 2a 00
        E 16 83 2a 00
        E 80 93 24 38
        E 176 83 24 00
        E 16 83 24 00
        E 16 83 24 00
        E 64 93 2a 38
        E 176 83 2a 00
        E 16 83 2a 00
        E 16 83 2a 00
        E 48 93 26 38
        E 160 83 26 00
        E 16 83 26 00
        E 16 83 26 00
        E 80 93 2a 38
        E 160 83 2a 00
        E 16 83 2a 00
        E 16 83 2a 00
        E 80 93 2a 40
        E 208 83 2a 00
        E 16 83 2a 00
        E 16 83 2a 00
        E 16 83 2a 00
        E 16 83 2a 00
        E 16 83 2a 00
        E 16 83 2a 00
        E 16 83 2a 00
        E 16 83 2a 00
        E 16 83 2a 00
        E 16 83 2a 00
        E 16 83 2a 00
        E 16 83 2a 00
        E 16 83 2a 00
        E 16 83 2a 00
        E 16 83 2a 00
        E 16 83 2a 00
        E 16 83 2a 00
        E 16 83 2a 00
        E 16 83 2a 00
        E 16 83 2a 00
        E 16 83 2a 00
        E 16 83 2a 00
        E 16 83 2a 00
        E 16 83 2a 00
        E 16 83 2a 00
        E 16 83 2a 00
        E 16 83 2a 00
        E 16 83 2a 00
        E 16 83 2a 00
        E 16 83 2a 00
        E 16 83 2a 00
        E 16 83 2a 00
        E 16 83 2a 00
        E 16 83 2a 00
        E 16 83 2a 00
        E 16 83 2a 00
        E 16 83 2a 00
        E 16 83 2a 00
        E 16 83 2a 00
        E 16 83 2a 00
        E 16 83 2a 00
        E 16 83 2a 00
        E 16 83 2a 00
        E 16 83 2a 00
        E 16 83 2a 00
        E 16 83 2a 00
        E 16 83 2a 00
        E 16 83 2a 00
        E 16 83 2a 00
        E 16 83 2a 00
        E 16 83 2a 00
        E 16 83 2a 00
        E 16 83 2a 00
        E 16 83 2a 00
        E 16 83 2a 00
        E 16 83 2a 00
        E 16 83 2a 00
        E 16 83 2a 00
        E 16 83 2a 00
        E 16 83 2a 00
        E 16 83 2a 00
        E 16 83 2a 00
        E 16 83 2a 00
        E 16 83 2a 00
        E 16 83 2a 00
        E 16 83 2a 00
        E 16 83 2a 00
        E 16 83 2a 00
        E 16 83 2a 00
        E 16 83 2a 00
        E 16 83 2a 00
        E 16 83 2a 00
        E 16 83 2a 00
        E 16 83 2a 00
        E 16 83 2a 00
        E 16 83 2a 00
        E 16 83 2a 00
        E 16 83 2a 00
        E 16 83 2a 00
        E 16 83 2a 00
        E 16 83 2a 00
        E 16 83 2a 00
        E 16 83 2a 00
        E 16 83 2a 00
        E 16 83 2a 00
        E 16 83 2a 00
        E 16 83 2a 00
        E 16 83 2a 00
        E 16 83 2a 00
        E 16 83 2a 00
        E 16 83 2a 00
        E 16 83 2a 00
        E 16 83 2a 00
        E 16 83 2a 00
        E 16 83 2a 00
        E 16 83 2a 00
        E 16 83 2a 00
        E 16 83 2a 00
        E 16 83 2a 00
        E 16 83 2a 00
        E 16 83 2a 00
        E 16 83 2a 00
        E 16 83 2a 00
        E 16 83 2a 00
        E 16 83 2a 00
        E 16 83 2a 00
        E 16 83 2a 00
        E 16 83 2a 00
        E 16 83 2a 00
        E 16 83 2a 00
        E 16 83 2a 00
        E 16 83 2a 00
        E 16 83 2a 00
        E 16 83 2a 00
        E 16 83 2a 00
        E 16 83 2a 00
        E 16 83 2a 00
        E 16 83 2a 00
        E 16 83 2a 00
        E 16 83 2a 00
        E 16 83 2a 00
        E 16 83 2a 00
        E 16 83 2a 00
        E 16 83 2a 00
        E 16 83 2a 00
        E 16 83 2a 00
        E 16 83 2a 00
        E 16 83 2a 00
        E 16 83 2a 00
        E 16 83 2a 00
        E 16 83 2a 00
        E 16 83 2a 00
        E 16 83 2a 00
        E 16 83 2a 00
        E 16 83 2a 00
        E 16 83 2a 00
        E 16 83 2a 00
        E 16 83 2a 00
        E 16 83 2a 00
        E 16 83 2a 00
        E 16 83 2a 00
        E 16 83 2a 00
        E 16 83 2a 00
        E 16 83 2a 00
        E 16 83 2a 00
        E 16 83 2a 00
        E 16 83 2a 00
        E 16 83 2a 00
        E 16 83 2a 00
        E 16 83 2a 00
        E 16 83 2a 00
        E 16 83 2a 00
        E 16 83 2a 00
        E 16 83 2a 00
        E 16 83 2a 00
        E 16 83 2a 00
        E 16 83 2a 00
        E 16 83 2a 00
        E 16 83 2a 00
        E 16 83 2a 00
        E 16 83 2a 00
        E 16 83 2a 00
        E 16 83 2a 00
        E 16 83 2a 00
        E 16 83 2a 00
        E 16 83 2a 00
        E 16 83 2a 00
        E 16 83 2a 00
        E 16 83 2a 00
        E 16 83 2a 00
        E 16 83 2a 00
        E 16 83 2a 00
        E 16 83 2a 00
        E 16 83 2a 00
        E 16 83 2a 00
        E 16 83 2a 00
        E 16 83 2a 00
        E 16 83 2a 00
        E 16 83 2a 00
        E 16 83 2a 00
        E 16 83 2a 00
        E 16 83 2a 00
        E 16 83 2a 00
        E 16 83 2a 00
        E 16 83 2a 00
        E 16 83 2a 00
        E 16 83 2a 00
        E 16 83 2a 00
        E 16 83 2a 00
        E 16 83 2a 00
        E 16 83 2a 00
        E 16 83 2a 00
        E 16 83 2a 00
        E 16 83 2a 00
        E 16 83 2a 00
        E 16 83 2a 00
        E 16 83 2a 00
        E 16 83 2a 00
        E 16 83 2a 00
        E 16 83 2a 00
        E 16 83 2a 00
        E 16 83 2a 00
        E 16 83 2a 00
        E 16 83 2a 00
        E 16 83 2a 00
        E 16 83 2a 00
        E 16 83 2a 00
        E 16 83 2a 00
        E 16 83 2a 00
        E 16 83 2a 00
        E 16 83 2a 00
        E 16 83 2a 00
        E 16 83 2a 00
        E 16 83 2a 00
        E 16 83 2a 00
        E 16 83 2a 00
        E 16 83 2a 00
        E 16 83 2a 00
        E 16 83 2a 00
        E 16 83 2a 00
        E 16 83 2a 00
        E 16 83 2a 00
        E 16 83 2a 00
        E 16 83 2a 00
        E 16 83 2a 00
        E 16 83 2a 00
        E 16 83 2a 00
        E 16 83 2a 00
        E 16 83 2a 00
        E 16 83 2a 00
        E 16 83 2a 00
        E 16 83 2a 00
        E 16 83 2a 00
        E 16 83 2a 00
        E 16 83 2a 00
        E 16 83 2a 00
        E 16 83 2a 00
        E 16 83 2a 00
        E 16 83 2a 00
        E 16 83 2a 00
        E 16 83 2a 00
        E 16 83 2a 00
        E 16 83 2a 00
        E 16 83 2a 00
        E 16 83 2a 00
        E 16 83 2a 00
        E 16 83 2a 00
        E 16 83 2a 00
        E 16 83 2a 00
        E 16 83 2a 00
        E 16 83 2a 00
        E 16 83 2a 00
        E 16 83 2a 00
        E 16 83 2a 00
        E 16 83 2a 00
        E 16 83 2a 00
        E 16 93 2a 78
        E 32 83 2a 00
        E 4256 93 2a 78
        E 32 83 2a 00
        E 4256 93 24 38
        E 208 83 24 00
        E 16 83 24 00
        E 16 83 24 00
        E 16 83 24 00
        E 16 83 24 00
        E 16 83 24 00
        E 16 83 24 00
        E 16 83 24 00
        E 16 83 24 00
        E 16 83 24 00
        E 16 83 24 00
        E 16 83 24 00
        E 16 83 24 00
        E 16 83 24 00
        E 16 83 24 00
        E 16 83 24 00
        E 16 83 24 00
        E 16 83 24 00
        E 16 83 24 00
        E 16 83 24 00
        E 16 83 24 00
        E 16 83 24 00
        E 16 83 24 00
        E 16 83 24 00
        E 16 83 24 00
        E 16 83 24 00
        E 16 83 24 00
        E 16 83 24 00
        E 16 83 24 00
        E 16 83 24 00
        E 16 83 24 00
        E 16 83 24 00
        E 16 83 24 00
        E 16 83 24 00
        E 16 83 24 00
        E 16 83 24 00
        E 16 83 24 00
        E 16 83 24 00
        E 16 83 24 00
        E 16 83 24 00
        E 16 83 24 00
        E 16 83 24 00
        E 16 83 24 00
        E 16 83 24 00
        E 16 83 24 00
        E 16 83 24 00
        E 16 83 24 00
        E 16 83 24 00
        E 16 83 24 00
        E 16 83 24 00
        E 16 83 24 00
        E 16 83 24 00
        E 16 83 24 00
        E 16 83 24 00
        E 16 83 24 00
        E 16 83 24 00
        E 16 83 24 00
        E 16 83 24 00
        E 16 83 24 00
        E 16 83 24 00
        E 16 83 24 00
        E 16 83 24 00
        E 16 83 24 00
        E 16 83 24 00
        E 16 83 24 00
        E 16 83 24 00
        E 16 83 24 00
        E 16 83 24 00
        E 16 83 24 00
        E 16 83 24 00
        E 16 83 24 00
        E 16 83 24 00
        E 16 83 24 00
        E 16 83 24 00
        E 16 83 24 00
        E 16 83 24 00
        E 16 83 24 00
        E 16 83 24 00
        E 16 83 24 00
        E 16 83 24 00
        E 16 83 24 00
        E 16 83 24 00
        E 16 83 24 00
        E 16 83 24 00
        E 16 83 24 00
        E 16 83 24 00
        E 16 83 24 00
        E 16 83 24 00
        E 16 83 24 00
        E 16 83 24 00
        E 16 83 24 00
        E 16 83 24 00
        E 16 83 24 00
        E 16 83 24 00
        E 16 83 24 00
        E 16 83 24 00
        E 16 83 24 00
        E 16 83 24 00
        E 16 83 24 00
        E 16 83 24 00
        E 16 83 24 00
        E 16 83 24 00
        E 16 83 24 00
        E 16 83 24 00
        E 16 83 24 00
        E 16 83 24 00
        E 16 83 24 00
        E 16 83 24 00
        E 16 83 24 00
        E 16 83 24 00
        E 16 83 24 00
        E 16 83 24 00
        E 16 83 24 00
        E 16 83 24 00
        E 16 83 24 00
        E 16 83 24 00
        E 16 83 24 00
        E 16 83 24 00
        E 16 83 24 00
        E 16 83 24 00
        E 16 83 24 00
        E 16 83 24 00
        E 16 83 24 00
        E 16 83 24 00
        E 16 83 24 00
        E 16 83 24 00
        E 16 83 24 00
        E 16 83 24 00
        E 16 83 24 00
        E 16 83 24 00
        E 16 83 24 00
        E 16 83 24 00
        E 16 83 24 00
        E 16 83 24 00
        E 80 93 2a 38
        E 176 83 2a 00
        E 16 83 2a 00
        E 16 83 2a 00
        E 64 93 26 38
        E 176 83 26 00
        E 16 83 26 00
        E 16 83 26 00
        E 48 93 2a 38
        E 160 83 2a 00
        E 16 83 2a 00
        E 16 83 2a 00
        E 80 93 24 38
        E 160 83 24 00
        E 16 83 24 00
        E 16 83 24 00
        E 80 93 2a 38
        E 176 83 2a 00
        E 16 83 2a 00
        E 80 93 26 38
        E 176 83 26 00
        E 16 83 26 00
        E 16 83 26 00
        E 64 93 2a 38
        E 176 83 2a 00
        E 16 83 2a 00
        E 16 83 2a 00
        E 48 93 24 38
        E 160 83 24 00
        E 16 83 24 00
        E 16 83 24 00
        E 80 93 2a 38
        E 160 83 2a 00
        E 16 83 2a 00
        E 16 83 2a 00
        E 80 93 26 38
        E 176 83 26 00
        E 16 83 26 00
        E 16 83 26 00
        E 64 93 2a 38
        E 176 83 2a 00
        E 16 83 2a 00
        E 16 83 2a 00
        E 48 93 24 38
        E 160 83 24 00
        E 16 83 24 00
        E 16 83 24 00
        E 80 93 2a 38
        E 160 83 2a 00
        E 16 83 2a 00
        E 16 83 2a 00
        E 80 93 26 38
        E 160 83 26 00
        E 16 83 26 00
        E 16 83 26 00
        E 80 93 2a 38
        E 176 83 2a 00
        E 16 83 2a 00
        E 16 83 2a 00
        E 64 93 24 38
        E 176 83 24 00
        E 16 83 24 00
        E 16 83 24 00
        E 48 93 2a 38
        E 160 83 2a 00
        E 16 83 2a 00
        E 16 83 2a 00
        E 80 93 26 38
        E 160 83 26 00
        E 16 83 26 00
        E 16 83 26 00
        E 80 93 2a 38
        E 176 83 2a 00
        E 16 83 2a 00
        E 80 93 24 38
        E 176 83 24 00
        E 16 83 24 00
        E 16 83 24 00
        E 64 93 2a 38
        E 176 83 2a 00
        E 16 83 2a 00
        E 16 83 2a 00
        E 48 93 26 38
        E 160 83 26 00
        E 16 83 26 00
        E 16 83 26 00
        E 80 93 2a 38
        E 160 83 2a 00
        E 16 83 2a 00
        E 16 83 2a 00
        E 80 93 24 38
        E 176 83 24 00
        E 16 83 24 00
        E 16 83 24 00
        E 64 93 2a 38
        E 176 83 2a 00
        E 16 83 2a 00
        E 16 83 2a 00
        E 48 93 26 38
        E 160 83 26 00
        E 16 83 26 00
        E 16 83 26 00
        E 80 93 2a 38
        E 160 83 2a 00
        E 16 83 2a 00
        E 16 83 2a 00
        E 80 93 24 38
        E 160 83 24 00
        E 16 83 24 00
        E 16 83 24 00
        E 80 93 2a 38
        E 176 83 2a 00
        E 16 83 2a 00
        E 16 83 2a 00
        E 64 93 26 38
        E 176 83 26 00
        E 16 83 26 00
        E 16 83 26 00
        E 48 93 2a 38
        E 160 83 2a 00
        E 16 83 2a 00
        E 16 83 2a 00
        E 80 93 24 58
        E 208 83 24 00
        E 16 83 24 00
        E 16 83 24 00
        E 16 83 24 00
        E 16 83 24 00
        E 16 83 24 00
        E 16 83 24 00
        E 16 83 24 00
        E 16 83 24 00
        E 16 83 24 00
        E 16 83 24 00
        E 16 83 24 00
        E 16 83 24 00
        E 16 83 24 00
        E 16 83 24 00
        E 16 83 24 00
        E 16 83 24 00
        E 16 83 24 00
        E 16 83 24 00
        E 16 83 24 00
        E 16 83 24 00
        E 16 83 24 00
        E 16 83 24 00
        E 16 83 24 00
        E 16 83 24 00
        E 16 83 24 00
        E 16 83 24 00
        E 16 83 24 00
        E 16 83 24 00
        E 16 83 24 00
        E 16 83 24 00
        E 16 83 24 00
        E 16 83 24 00
        E 16 83 24 00
        E 16 83 24 00
        E 16 83 24 00
        E 16 83 24 00
        E 16 83 24 00
        E 16 83 24 00
        E 16 83 24 00
        E 16 83 24 00
        E 16 83 24 00
        E 16 83 24 00
        E 16 83 24 00
        E 16 83 24 00
        E 16 83 24 00
        E 16 83 24 00
        E 16 83 24 00
        E 16 83 24 00
        E 16 83 24 00
        E 16 83 24 00
        E 16 83 24 00
        E 16 83 24 00
        E 16 83 24 00
        E 16 83 24 00
        E 16 83 24 00
        E 16 83 24 00
        E 16 83 24 00
        E 16 83 24 00
        E 16 83 24 00
        E 16 83 24 00
        E 16 83 24 00
        E 16 83 24 00
        E 16 83 24 00
        E 16 83 24 00
        E 16 83 24 00
        E 16 83 24 00
        E 16 83 24 00
        E 16 83 24 00
        E 16 83 24 00
        E 16 83 24 00
        E 16 83 24 00
        E 16 83 24 00
        E 16 83 24 00
        E 16 83 24 00
        E 16 83 24 00
        E 16 83 24 00
        E 16 83 24 00
        E 16 83 24 00
        E 16 83 24 00
        E 16 83 24 00
        E 16 83 24 00
        E 16 83 24 00
        E 16 83 24 00
        E 16 83 24 00
        E 16 83 24 00
        E 16 83 24 00
        E 16 83 24 00
        E 16 83 24 00
        E 16 83 24 00
        E 16 83 24 00
        E 16 83 24 00
        E 16 83 24 00
        E 16 83 24 00
        E 16 83 24 00
        E 16 83 24 00
        E 16 83 24 00
        E 16 83 24 00
        E 16 83 24 00
        E 16 83 24 00
        E 16 83 24 00
        E 16 83 24 00
        E 16 83 24 00
        E 16 83 24 00
        E 16 83 24 00
        E 16 83 24 00
        E 16 83 24 00
        E 16 83 24 00
        E 16 83 24 00
        E 16 83 24 00
        E 16 83 24 00
        E 16 83 24 00
        E 16 83 24 00
        E 16 83 24 00
        E 16 83 24 00
        E 16 83 24 00
        E 16 83 24 00
        E 16 83 24 00
        E 16 83 24 00
        E 16 83 24 00
        E 16 83 24 00
        E 16 83 24 00
        E 16 83 24 00
        E 16 83 24 00
        E 16 83 24 00
        E 16 83 24 00
        E 16 83 24 00
        E 16 83 24 00
        E 16 83 24 00
        E 16 83 24 00
        E 16 83 24 00
        E 16 83 24 00
        E 16 83 24 00
        E 16 83 24 00
        E 16 83 24 00
        E 16 83 24 00
        E 16 83 24 00
        E 16 83 24 00
        E 16 83 24 00
        E 16 83 24 00
        E 16 83 24 00
        E 16 83 24 00
        E 16 83 24 00
        E 16 83 24 00
        E 16 83 24 00
        E 16 83 24 00
        E 16 83 24 00
        E 0 ff 2f 00
      >
    >
  >
>