<REAPER_PROJECT 0.1 "7.27/win64" 1707000000
  <NOTES 0 2
    |ReapNES Studio Project
    |MIDI Import - Air_Fortress_title_rom_v1
  >
  RIPPLE 0
  GROUPOVERRIDE 0 0 0
  AUTOXFADE 129
  ENVATTACH 3
  POOLEDENVATTACH 0
  MIXERUIFLAGS 11 48
  ENVFADESZ10 40
  PEAKGAIN 1
  FEEDBACK 0
  PANLAW 1
  PROJOFFS 0 0 0
  MAXPROJLEN 0 0
  GRID 3199 8 1 8 1 0 0 0
  TIMEMODE 1 5 -1 30 0 0 -1
  VIDEO_CONFIG 0 0 65792
  PANMODE 3
  PANLAWFLAGS 3
  CURSOR 0
  ZOOM 100 0 0
  VZOOMEX 6 0
  USE_REC_CFG 0
  RECMODE 1
  SMPTESYNC 0 30 100 40 1000 300 0 0 1 0 0
  LOOP 0
  LOOPGRAN 0 4
  RECORD_PATH "Media" ""
  <RECORD_CFG
    ZXZhdxgAAQ==
  >
  <APPLYFX_CFG
  >
  RENDER_FILE ""
  RENDER_PATTERN ""
  RENDER_FMT 0 2 0
  RENDER_1X 0
  RENDER_RANGE 1 0 0 18 1000
  RENDER_RESAMPLE 3 0 1
  RENDER_ADDTOPROJ 0
  RENDER_STEMS 0
  RENDER_DITHER 0
  TIMELOCKMODE 1
  TEMPOENVLOCKMODE 1
  ITEMMIX 1
  DEFPITCHMODE 589824 0
  TAKELANE 1
  SAMPLERATE 44100 0 0
  <RENDER_CFG
    ZXZhdxgAAQ==
  >
  LOCK 1
  <METRONOME 6 2
    VOL 0.25 0.125
    BEATLEN 4
    FREQ 1760 880 1
    SAMPLES "" ""
    SPLIGNORE 0 0
    SPLDEF 2 660 "" 0
    SPLDEF 3 440 "" 0
    PATTERN 0 169
    PATTERNSTR ABBB
    MULT 1
  >
  GLOBAL_AUTO -1
  TEMPO 128.59999614200012 4 4
  PLAYRATE 1 0 0.25 4
  SELECTION 0 0
  SELECTION2 0 0
  MASTERAUTOMODE 0
  MASTERTRACKHEIGHT 0 0
  MASTERPEAKCOL 16576
  MASTERMUTESOLO 0
  MASTERTRACKVIEW 0 0.6667 0.5 0.5 0 0 0 0 0 0 0 0 0 0
  MASTERHWOUT 0 0 1 0 0 0 0 -1
  MASTER_NCH 2 2
  MASTER_VOLUME 1 0 -1 -1 1
  MASTER_PANMODE 3
  MASTER_PANLAWFLAGS 3
  MASTER_FX 1
  MASTER_SEL 0
  <MASTERPLAYSPEEDENV
    EGUID {BEF72EAE-A107-4229-8753-C569FA8063CB}
    ACT 0 -1
    VIS 0 1 1
    LANEHEIGHT 0 0
    ARM 0
    DEFSHAPE 0 -1 -1
  >
  <TEMPOENVEX
    EGUID {BC1F5CCE-87D3-4108-B850-C8C58F3E15FD}
    ACT 1 -1
    VIS 1 0 1
    LANEHEIGHT 0 0
    ARM 0
    DEFSHAPE 1 -1 -1
  >
  <PROJBAY
  >
  <TRACK {B73B38E3-78F7-4B7B-8213-FC55AFD65EC7}
    NAME "NES - Pulse 1 [ch0]"
    PEAKCOL 16576606
    BEAT -1
    AUTOMODE 0
    PANLAWFLAGS 3
    VOLPAN 1 0 -1 -1 1
    MUTESOLO 0 0 0
    IPHASE 0
    PLAYOFFS 0 1
    ISBUS 0 0
    BUSCOMP 0 0 0 0 0
    SHOWINMIX 1 0.6667 0.5 1 0.5 0 0 0
    FIXEDLANES 9 0 0 0 0
    SEL 1
    REC 1 5088 1 0 0 0 0 0
    VU 2
    TRACKHEIGHT 0 0 0 0 0 0 0
    INQ 0 0 0 0.5 100 0 0 100
    NCHAN 2
    FX 1
    TRACKID {B73B38E3-78F7-4B7B-8213-FC55AFD65EC7}
    PERF 0
    MIDIOUT -1
    MAINSEND 1 0
    <FXCHAIN
      WNDRECT 24 52 700 560
      SHOW 0
      LASTSEL 0
      DOCKED 0
      BYPASS 0 0 0
      <JS "ReapNES Studio/ReapNES_Console.jsfx" ""
        2 15 1 10 80 10 100 2 1 15 1 5 60 10 80 1 1 0 50 0 0 15 1 0 100 0 0 0.500000 0.500000 0.400000 0.300000 0.800000 0 1 0 0 0 0 - - - - - - - - - - - - - - - - - - - - - - - - - -
      >
      FLOATPOS 0 0 0 0
      FXID {30C730E6-E24F-4A0B-9852-4A4281F6E886}
      WAK 0 0
    >
    <ITEM
      POSITION 0
      LENGTH 8.522550800000001
      LOOP 0
      ALLTAKES 0
      FADEIN 0 0 0 0 0 0 0
      FADEOUT 0 0 0 0 0 0 0
      MUTE 0 0
      SEL 0
      IGUID {C639875A-0FAE-4F51-8739-8902A73D8DBC}
      <SOURCE MIDI
        HASDATA 1 480 QN
        CCINTERP 32
        E 0 c0 50
        E 0 b0 0c 40
        E 0 b0 0b 5d
        E 0 90 42 5d
        E 16 b0 0c 60
        E 0 b0 0b 44
        E 112 b0 0b 08
        E 208 b0 0c 40
        E 0 b0 0b 5d
        E 0 80 42 00
        E 0 90 40 5d
        E 16 b0 0c 60
        E 0 b0 0b 44
        E 64 b0 0b 08
        E 32 b0 0c 40
        E 0 b0 0b 5d
        E 0 80 40 00
        E 0 90 3b 5d
        E 16 b0 0c 60
        E 0 b0 0b 44
        E 1088 b0 0b 08
        E 16 b0 0c 40
        E 0 b0 0b 5d
        E 16 b0 0c 60
        E 0 b0 0b 44
        E 64 b0 0b 08
        E 32 b0 0c 40
        E 0 b0 0b 5d
        E 16 b0 0c 60
        E 0 b0 0b 44
        E 64 b0 0b 08
        E 32 b0 0c 40
        E 0 b0 0b 5d
        E 0 80 3b 00
        E 0 90 3d 5d
        E 16 b0 0c 60
        E 0 b0 0b 44
        E 640 b0 0b 08
        E 16 b0 0c 40
        E 0 b0 0b 5d
        E 0 80 3d 00
        E 0 90 3e 5d
        E 16 b0 0c 60
        E 0 b0 0b 44
        E 64 b0 0b 08
        E 32 b0 0c 40
        E 0 b0 0b 5d
        E 0 80 3e 00
        E 0 90 3a 5d
        E 16 b0 0c 60
        E 0 b0 0b 44
        E 64 b0 0b 08
        E 32 b0 0c 40
        E 0 b0 0b 5d
        E 0 80 3a 00
        E 0 90 3c 5d
        E 16 b0 0c 60
        E 0 b0 0b 44
        E 400 b0 0b 08
        E 32 b0 0c 40
        E 0 b0 0b 5d
        E 0 80 3c 00
        E 0 90 3e 5d
        E 16 b0 0c 60
        E 0 b0 0b 44
        E 64 b0 0b 08
        E 64 b0 0c 40
        E 0 b0 0b 5d
        E 0 80 3e 00
        E 0 90 30 5d
        E 16 b0 0c 60
        E 0 b0 0b 44
        E 64 b0 0b 08
        E 64 b0 0c 40
        E 0 b0 0b 5d
        E 0 80 30 00
        E 0 90 5e 5d
        E 16 b0 0c 60
        E 0 b0 0b 44
        E 80 b0 0b 08
        E 64 b0 0c 40
        E 0 b0 0b 5d
        E 0 80 5e 00
        E 0 90 40 5d
        E 16 b0 0c 60
        E 0 b0 0b 44
        E 160 b0 0b 08
        E 160 b0 0c 40
        E 0 b0 0b 5d
        E 0 80 40 00
        E 0 90 42 5d
        E 16 b0 0c 60
        E 0 b0 0b 44
        E 48 b0 0b 08
        E 48 b0 0c 40
        E 0 b0 0b 5d
        E 0 80 42 00
        E 0 90 39 5d
        E 16 b0 0c 60
        E 0 b0 0b 44
        E 752 b0 0b 08
        E 128 b0 0c 40
        E 0 b0 0b 5d
        E 16 b0 0c 60
        E 0 b0 0b 44
        E 240 b0 0b 08
        E 32 b0 0c 40
        E 0 b0 0b 5d
        E 16 b0 0c 60
        E 0 b0 0b 44
        E 48 b0 0b 08
        E 32 b0 0c 40
        E 0 b0 0b 5d
        E 16 b0 0c 60
        E 0 b0 0b 44
        E 16 b0 0b 08
        E 32 b0 0c 40
        E 0 b0 0b 5d
        E 16 b0 0c 60
        E 0 b0 0b 44
        E 592 b0 0b 08
        E 64 b0 0c 40
        E 0 b0 0b 5d
        E 0 80 39 00
        E 0 90 2d 5d
        E 16 b0 0c 60
        E 0 b0 0b 44
        E 64 b0 0b 08
        E 32 b0 0c 40
        E 0 b0 0b 5d
        E 0 80 2d 00
        E 0 90 56 5d
        E 16 b0 0c 60
        E 0 b0 0b 44
        E 64 b0 0b 08
        E 32 b0 0c 40
        E 0 b0 0b 5d
        E 0 80 56 00
        E 0 90 39 5d
        E 16 b0 0c 60
        E 0 b0 0b 44
        E 384 b0 0b 08
        E 48 b0 0c 40
        E 0 b0 0b 5d
        E 0 80 39 00
        E 0 90 3e 5d
        E 16 b0 0c 60
        E 0 b0 0b 44
        E 384 b0 0b 08
        E 48 b0 0c 40
        E 0 b0 0b 5d
        E 0 80 3e 00
        E 0 90 42 5d
        E 16 b0 0c 60
        E 0 b0 0b 44
        E 112 b0 0b 08
        E 208 b0 0c 40
        E 0 b0 0b 5d
        E 0 80 42 00
        E 0 90 40 5d
        E 16 b0 0c 60
        E 0 b0 0b 44
        E 64 b0 0b 08
        E 32 b0 0c 40
        E 0 b0 0b 5d
        E 0 80 40 00
        E 0 90 3b 5d
        E 16 b0 0c 60
        E 0 b0 0b 44
        E 1088 b0 0b 08
        E 16 b0 0c 40
        E 0 b0 0b 5d
        E 16 b0 0c 60
        E 0 b0 0b 44
        E 16 80 3b 00
        E 0 b0 7b 00
        E 0 ff 2f 00
      >
    >
  >
  <TRACK {C38B51D9-BA31-4797-9AA4-9037B2C3171F}
    NAME "NES - Pulse 2 [ch1]"
    PEAKCOL 10092441
    BEAT -1
    AUTOMODE 0
    PANLAWFLAGS 3
    VOLPAN 1 0 -1 -1 1
    MUTESOLO 0 0 0
    IPHASE 0
    PLAYOFFS 0 1
    ISBUS 0 0
    BUSCOMP 0 0 0 0 0
    SHOWINMIX 1 0.6667 0.5 1 0.5 0 0 0
    FIXEDLANES 9 0 0 0 0
    SEL 0
    REC 0 5088 1 0 0 0 0 0
    VU 2
    TRACKHEIGHT 0 0 0 0 0 0 0
    INQ 0 0 0 0.5 100 0 0 100
    NCHAN 2
    FX 1
    TRACKID {C38B51D9-BA31-4797-9AA4-9037B2C3171F}
    PERF 0
    MIDIOUT -1
    MAINSEND 1 0
    <FXCHAIN
      WNDRECT 24 52 700 560
      SHOW 0
      LASTSEL 0
      DOCKED 0
      BYPASS 0 0 0
      <JS "ReapNES Studio/ReapNES_Console.jsfx" ""
        2 15 1 10 80 10 100 2 1 15 1 5 60 10 80 1 1 0 50 0 0 15 1 0 100 0 0 0.500000 0.500000 0.400000 0.300000 0.800000 1 1 0 0 0 0 - - - - - - - - - - - - - - - - - - - - - - - - - -
      >
      FLOATPOS 0 0 0 0
      FXID {DB04095F-3DA2-42E0-99E8-5253929D5D5C}
      WAK 0 0
    >
    <ITEM
      POSITION 0
      LENGTH 8.522550800000001
      LOOP 0
      ALLTAKES 0
      FADEIN 0 0 0 0 0 0 0
      FADEOUT 0 0 0 0 0 0 0
      MUTE 0 0
      SEL 0
      IGUID {6B47246B-4CF2-4249-A959-3E01EC592D67}
      <SOURCE MIDI
        HASDATA 1 480 QN
        CCINTERP 32
        E 0 c1 51
        E 0 b1 0c 40
        E 0 b1 0b 2a
        E 0 91 26 2a
        E 128 b1 0c 10
        E 0 b1 0b 08
        E 208 b1 0c 40
        E 0 b1 0b 2a
        E 0 81 26 00
        E 0 91 2c 2a
        E 80 b1 0c 10
        E 0 b1 0b 08
        E 32 b1 0c 40
        E 0 b1 0b 2a
        E 0 81 2c 00
        E 0 91 37 2a
        E 416 b1 0c 10
        E 0 b1 0b 08
        E 32 b1 0c 40
        E 0 b1 0b 2a
        E 0 81 37 00
        E 0 91 38 2a
        E 416 b1 0c 10
        E 0 b1 0b 08
        E 32 b1 0c 40
        E 0 b1 0b 2a
        E 0 81 38 00
        E 0 91 2a 2a
        E 192 b1 0c 10
        E 0 b1 0b 08
        E 32 b1 0c 40
        E 0 b1 0b 2a
        E 0 81 2a 00
        E 0 91 2c 2a
        E 80 b1 0c 10
        E 0 b1 0b 08
        E 32 b1 0c 40
        E 0 b1 0b 2a
        E 0 81 2c 00
        E 0 91 37 2a
        E 80 b1 0c 10
        E 0 b1 0b 08
        E 32 b1 0c 40
        E 0 b1 0b 2a
        E 0 81 37 00
        E 0 91 2d 2a
        E 624 b1 0c 10
        E 0 b1 0b 08
        E 48 b1 0c 40
        E 0 b1 0b 2a
        E 0 81 2d 00
        E 0 91 2f 2a
        E 80 b1 0c 10
        E 0 b1 0b 08
        E 32 b1 0c 40
        E 0 b1 0b 2a
        E 0 81 2f 00
        E 0 91 32 2a
        E 80 b1 0c 10
        E 0 b1 0b 08
        E 32 b1 0c 40
        E 0 b1 0b 2a
        E 0 81 32 00
        E 0 91 34 2a
        E 416 b1 0c 10
        E 0 b1 0b 08
        E 32 b1 0c 40
        E 0 b1 0b 2a
        E 0 81 34 00
        E 0 91 35 2a
        E 80 b1 0c 10
        E 0 b1 0b 08
        E 64 b1 0c 40
        E 0 b1 0b 2a
        E 0 81 35 00
        E 0 91 37 2a
        E 80 b1 0c 10
        E 0 b1 0b 08
        E 64 b1 0c 40
        E 0 b1 0b 2a
        E 0 81 37 00
        E 0 91 34 2a
        E 96 b1 0c 10
        E 0 b1 0b 08
        E 64 b1 0c 40
        E 0 b1 0b 2a
        E 0 81 34 00
        E 0 91 5e 2a
        E 176 b1 0c 10
        E 0 b1 0b 08
        E 160 b1 0c 40
        E 0 b1 0b 2a
        E 0 81 5e 00
        E 0 91 2d 2a
        E 64 b1 0c 10
        E 0 b1 0b 08
        E 48 b1 0c 40
        E 0 b1 0b 2a
        E 0 81 2d 00
        E 0 91 36 2a
        E 768 b1 0c 10
        E 0 b1 0b 08
        E 128 b1 0c 40
        E 0 b1 0b 2a
        E 80 b1 0c 10
        E 0 b1 0b 08
        E 64 b1 0c 40
        E 0 b1 0b 2a
        E 0 81 36 00
        E 0 91 37 2a
        E 80 b1 0c 10
        E 0 b1 0b 08
        E 64 b1 0c 40
        E 0 b1 0b 2a
        E 0 81 37 00
        E 0 91 2d 2a
        E 96 b1 0c 10
        E 0 b1 0b 08
        E 64 b1 0c 40
        E 0 b1 0b 2a
        E 0 81 2d 00
        E 0 91 37 2a
        E 624 b1 0c 10
        E 0 b1 0b 08
        E 48 b1 0c 40
        E 0 b1 0b 2a
        E 0 81 37 00
        E 0 91 36 2a
        E 80 b1 0c 10
        E 0 b1 0b 08
        E 32 b1 0c 40
        E 0 b1 0b 2a
        E 0 81 36 00
        E 0 91 2d 2a
        E 80 b1 0c 10
        E 0 b1 0b 08
        E 32 b1 0c 40
        E 0 b1 0b 2a
        E 0 81 2d 00
        E 0 91 32 2a
        E 400 b1 0c 10
        E 0 b1 0b 08
        E 48 b1 0c 40
        E 0 b1 0b 2a
        E 0 81 32 00
        E 0 91 56 2a
        E 400 b1 0c 10
        E 0 b1 0b 08
        E 48 b1 0c 40
        E 0 b1 0b 2a
        E 0 81 56 00
        E 0 91 26 2a
        E 128 b1 0c 10
        E 0 b1 0b 08
        E 208 b1 0c 40
        E 0 b1 0b 2a
        E 0 81 26 00
        E 0 91 2c 2a
        E 80 b1 0c 10
        E 0 b1 0b 08
        E 32 b1 0c 40
        E 0 b1 0b 2a
        E 0 81 2c 00
        E 0 91 37 2a
        E 416 b1 0c 10
        E 0 b1 0b 08
        E 32 b1 0c 40
        E 0 b1 0b 2a
        E 0 81 37 00
        E 0 91 38 2a
        E 416 b1 0c 10
        E 0 b1 0b 08
        E 32 b1 0c 40
        E 0 b1 0b 2a
        E 0 81 38 00
        E 0 91 2a 2a
        E 192 b1 0c 10
        E 0 b1 0b 08
        E 32 b1 0c 40
        E 0 b1 0b 2a
        E 0 81 2a 00
        E 0 91 2c 2a
        E 32 81 2c 00
        E 0 b1 7b 00
        E 0 ff 2f 00
      >
    >
  >
  <TRACK {6BC380C6-3CBF-49CA-8C4B-D851716FFC06}
    NAME "NES - Triangle [ch2]"
    PEAKCOL 16744192
    BEAT -1
    AUTOMODE 0
    PANLAWFLAGS 3
    VOLPAN 1 0 -1 -1 1
    MUTESOLO 0 0 0
    IPHASE 0
    PLAYOFFS 0 1
    ISBUS 0 0
    BUSCOMP 0 0 0 0 0
    SHOWINMIX 1 0.6667 0.5 1 0.5 0 0 0
    FIXEDLANES 9 0 0 0 0
    SEL 0
    REC 0 5088 1 0 0 0 0 0
    VU 2
    TRACKHEIGHT 0 0 0 0 0 0 0
    INQ 0 0 0 0.5 100 0 0 100
    NCHAN 2
    FX 1
    TRACKID {6BC380C6-3CBF-49CA-8C4B-D851716FFC06}
    PERF 0
    MIDIOUT -1
    MAINSEND 1 0
    <FXCHAIN
      WNDRECT 24 52 700 560
      SHOW 0
      LASTSEL 0
      DOCKED 0
      BYPASS 0 0 0
      <JS "ReapNES Studio/ReapNES_Console.jsfx" ""
        2 15 1 10 80 10 100 2 1 15 1 5 60 10 80 1 1 0 50 0 0 15 1 0 100 0 0 0.500000 0.500000 0.400000 0.300000 0.800000 2 1 0 0 0 0 - - - - - - - - - - - - - - - - - - - - - - - - - -
      >
      FLOATPOS 0 0 0 0
      FXID {87986A7B-832C-4D9C-A5BF-9F42C42344F5}
      WAK 0 0
    >
    <ITEM
      POSITION 0
      LENGTH 8.522550800000001
      LOOP 0
      ALLTAKES 0
      FADEIN 0 0 0 0 0 0 0
      FADEOUT 0 0 0 0 0 0 0
      MUTE 0 0
      SEL 0
      IGUID {4277BFE7-8677-43EC-91D3-3D8602BD10DD}
      <SOURCE MIDI
        HASDATA 1 480 QN
        CCINTERP 32
        E 0 c2 26
        E 0 b2 0b 7f
        E 0 92 26 7f
        E 112 82 26 00
        E 224 b2 0b 7f
        E 0 92 26 7f
        E 96 82 26 00
        E 16 b2 0b 7f
        E 0 92 26 7f
        E 1120 82 26 00
        E 0 b2 0b 7f
        E 0 92 28 7f
        E 80 82 28 00
        E 32 b2 0b 7f
        E 0 92 2a 7f
        E 80 82 2a 00
        E 32 b2 0b 7f
        E 0 92 2b 7f
        E 672 82 2b 00
        E 0 b2 0b 7f
        E 0 92 1f 7f
        E 80 82 1f 00
        E 32 b2 0b 7f
        E 0 92 21 7f
        E 80 82 21 00
        E 32 b2 0b 7f
        E 0 92 22 7f
        E 448 82 22 00
        E 0 b2 0b 7f
        E 0 92 24 7f
        E 80 82 24 00
        E 64 b2 0b 7f
        E 0 92 24 7f
        E 80 82 24 00
        E 64 b2 0b 7f
        E 0 92 24 7f
        E 96 82 24 00
        E 64 b2 0b 7f
        E 0 92 26 7f
        E 224 82 26 00
        E 224 b2 0b 7f
        E 0 92 1a 7f
        E 784 82 1a 00
        E 112 b2 0b 7f
        E 0 92 21 7f
        E 400 82 21 00
        E 48 b2 0b 7f
        E 0 92 26 7f
        E 624 82 26 00
        E 48 b2 0b 7f
        E 0 92 26 7f
        E 80 82 26 00
        E 32 b2 0b 7f
        E 0 92 26 7f
        E 80 82 26 00
        E 32 b2 0b 7f
        E 0 92 1a 7f
        E 416 82 1a 00
        E 32 b2 0b 7f
        E 0 92 1a 7f
        E 416 82 1a 00
        E 32 b2 0b 7f
        E 0 92 26 7f
        E 112 82 26 00
        E 224 b2 0b 7f
        E 0 92 26 7f
        E 96 82 26 00
        E 16 b2 0b 7f
        E 0 92 26 7f
        E 1120 82 26 00
        E 0 b2 0b 7f
        E 0 92 28 7f
        E 32 82 28 00
        E 0 b2 7b 00
        E 0 ff 2f 00
      >
    >
  >
  <TRACK {3BE7945F-E78A-438B-B630-C5396955BE66}
    NAME "NES - Noise / Drums"
    PEAKCOL 11184810
    BEAT -1
    AUTOMODE 0
    PANLAWFLAGS 3
    VOLPAN 1 0 -1 -1 1
    MUTESOLO 0 0 0
    IPHASE 0
    PLAYOFFS 0 1
    ISBUS 0 0
    BUSCOMP 0 0 0 0 0
    SHOWINMIX 1 0.6667 0.5 1 0.5 0 0 0
    FIXEDLANES 9 0 0 0 0
    SEL 0
    REC 0 5088 1 0 0 0 0 0
    VU 2
    TRACKHEIGHT 0 0 0 0 0 0 0
    INQ 0 0 0 0.5 100 0 0 100
    NCHAN 2
    FX 1
    TRACKID {3BE7945F-E78A-438B-B630-C5396955BE66}
    PERF 0
    MIDIOUT -1
    MAINSEND 1 0
    <FXCHAIN
      WNDRECT 24 52 700 560
      SHOW 0
      LASTSEL 0
      DOCKED 0
      BYPASS 0 0 0
      <JS "ReapNES Studio/ReapNES_Console.jsfx" ""
        2 15 1 10 80 10 100 2 1 15 1 5 60 10 80 1 1 0 50 0 0 15 1 0 100 0 0 0.500000 0.500000 0.400000 0.300000 0.800000 3 1 0 0 0 0 - - - - - - - - - - - - - - - - - - - - - - - - - -
      >
      FLOATPOS 0 0 0 0
      FXID {FFBD3779-60BA-4507-9F69-88B4B26B8B46}
      WAK 0 0
    >
  >
>