<REAPER_PROJECT 0.1 "7.27/win64" 1707000000
  <NOTES 0 2
    |ReapNES Studio Project
    |MIDI Import - Kirbys_Adventure_title_rom_v1
  >
  RIPPLE 0
  GROUPOVERRIDE 0 0 0
  AUTOXFADE 129
  ENVATTACH 3
  POOLEDENVATTACH 0
  MIXERUIFLAGS 11 48
  ENVFADESZ10 40
  PEAKGAIN 1
  FEEDBACK 0
  PANLAW 1
  PROJOFFS 0 0 0
  MAXPROJLEN 0 0
  GRID 3199 8 1 8 1 0 0 0
  TIMEMODE 1 5 -1 30 0 0 -1
  VIDEO_CONFIG 0 0 65792
  PANMODE 3
  PANLAWFLAGS 3
  CURSOR 0
  ZOOM 100 0 0
  VZOOMEX 6 0
  USE_REC_CFG 0
  RECMODE 1
  SMPTESYNC 0 30 100 40 1000 300 0 0 1 0 0
  LOOP 0
  LOOPGRAN 0 4
  RECORD_PATH "Media" ""
  <RECORD_CFG
    ZXZhdxgAAQ==
  >
  <APPLYFX_CFG
  >
  RENDER_FILE ""
  RENDER_PATTERN ""
  RENDER_FMT 0 2 0
  RENDER_1X 0
  RENDER_RANGE 1 0 0 18 1000
  RENDER_RESAMPLE 3 0 1
  RENDER_ADDTOPROJ 0
  RENDER_STEMS 0
  RENDER_DITHER 0
  TIMELOCKMODE 1
  TEMPOENVLOCKMODE 1
  ITEMMIX 1
  DEFPITCHMODE 589824 0
  TAKELANE 1
  SAMPLERATE 44100 0 0
  <RENDER_CFG
    ZXZhdxgAAQ==
  >
  LOCK 1
  <METRONOME 6 2
    VOL 0.25 0.125
    BEATLEN 4
    FREQ 1760 880 1
    SAMPLES "" ""
    SPLIGNORE 0 0
    SPLDEF 2 660 "" 0
    SPLDEF 3 440 "" 0
    PATTERN 0 169
    PATTERNSTR ABBB
    MULT 1
  >
  GLOBAL_AUTO -1
  TEMPO 128.59999614200012 4 4
  PLAYRATE 1 0 0.25 4
  SELECTION 0 0
  SELECTION2 0 0
  MASTERAUTOMODE 0
  MASTERTRACKHEIGHT 0 0
  MASTERPEAKCOL 16576
  MASTERMUTESOLO 0
  MASTERTRACKVIEW 0 0.6667 0.5 0.5 0 0 0 0 0 0 0 0 0 0
  MASTERHWOUT 0 0 1 0 0 0 0 -1
  MASTER_NCH 2 2
  MASTER_VOLUME 1 0 -1 -1 1
  MASTER_PANMODE 3
  MASTER_PANLAWFLAGS 3
  MASTER_FX 1
  MASTER_SEL 0
  <MASTERPLAYSPEEDENV
    EGUID {E103F665-C7E9-4052-8DA8-C6AF07127B14}
    ACT 0 -1
    VIS 0 1 1
    LANEHEIGHT 0 0
    ARM 0
    DEFSHAPE 0 -1 -1
  >
  <TEMPOENVEX
    EGUID {C76252ED-C178-42B5-A9D7-6F263D38DB04}
    ACT 1 -1
    VIS 1 0 1
    LANEHEIGHT 0 0
    ARM 0
    DEFSHAPE 1 -1 -1
  >
  <PROJBAY
  >
  <TRACK {94B4E3CC-D766-4987-AA12-A74B01E451CF}
    NAME "NES - Pulse 1 [ch0]"
    PEAKCOL 16576606
    BEAT -1
    AUTOMODE 0
    PANLAWFLAGS 3
    VOLPAN 1 0 -1 -1 1
    MUTESOLO 0 0 0
    IPHASE 0
    PLAYOFFS 0 1
    ISBUS 0 0
    BUSCOMP 0 0 0 0 0
    SHOWINMIX 1 0.6667 0.5 1 0.5 0 0 0
    FIXEDLANES 9 0 0 0 0
    SEL 1
    REC 1 5088 1 0 0 0 0 0
    VU 2
    TRACKHEIGHT 0 0 0 0 0 0 0
    INQ 0 0 0 0.5 100 0 0 100
    NCHAN 2
    FX 1
    TRACKID {94B4E3CC-D766-4987-AA12-A74B01E451CF}
    PERF 0
    MIDIOUT -1
    MAINSEND 1 0
    <FXCHAIN
      WNDRECT 24 52 700 560
      SHOW 0
      LASTSEL 0
      DOCKED 0
      BYPASS 0 0 0
      <JS "ReapNES Studio/ReapNES_Console.jsfx" ""
        2 15 1 10 80 10 100 2 1 15 1 5 60 10 80 1 1 0 50 0 0 15 1 0 100 0 0 0.500000 0.500000 0.400000 0.300000 0.800000 0 1 0 0 0 0 - - - - - - - - - - - - - - - - - - - - - - - - - -
      >
      FLOATPOS 0 0 0 0
      FXID {29EAB076-E4F3-45CD-964B-DF6747327489}
      WAK 0 0
    >
    <ITEM
      POSITION 0
      LENGTH 74.5412153
      LOOP 0
      ALLTAKES 0
      FADEIN 0 0 0 0 0 0 0
      FADEOUT 0 0 0 0 0 0 0
      MUTE 0 0
      SEL 0
      IGUID {2DF74C5F-B8AE-40F1-96A6-613742EB614B}
      <SOURCE MIDI
        HASDATA 1 480 QN
        CCINTERP 32
        E 0 c0 50
        E 0 b0 0c 10
        E 0 b0 0b 77
        E 0 90 39 77
        E 16 b0 0c 60
        E 0 b0 0b 66
        E 16 b0 0b 5d
        E 16 b0 0b 55
        E 16 b0 0b 4c
        E 16 b0 0b 19
        E 32 80 39 00
        E 656 b0 0c 10
        E 0 b0 0b 77
        E 0 90 39 77
        E 16 b0 0c 60
        E 0 b0 0b 66
        E 16 b0 0b 5d
        E 16 b0 0b 55
        E 16 b0 0b 4c
        E 16 b0 0b 19
        E 32 80 39 00
        E 144 b0 0c 10
        E 0 b0 0b 77
        E 0 90 34 77
        E 16 b0 0c 60
        E 0 b0 0b 66
        E 16 b0 0b 5d
        E 16 b0 0b 55
        E 16 b0 0b 4c
        E 16 b0 0b 19
        E 32 80 34 00
        E 16 b0 0c 10
        E 0 b0 0b 77
        E 0 90 32 77
        E 16 b0 0c 60
        E 0 b0 0b 66
        E 16 b0 0b 5d
        E 16 b0 0b 55
        E 16 b0 0b 4c
        E 16 b0 0b 19
        E 32 80 32 00
        E 144 b0 0c 10
        E 0 b0 0b 77
        E 0 90 30 77
        E 16 b0 0c 60
        E 0 b0 0b 66
        E 16 b0 0b 5d
        E 16 b0 0b 55
        E 16 b0 0b 4c
        E 16 b0 0b 19
        E 32 80 30 00
        E 16 b0 0c 10
        E 0 b0 0b 77
        E 0 90 32 77
        E 16 b0 0c 60
        E 0 b0 0b 66
        E 16 b0 0b 5d
        E 16 b0 0b 55
        E 16 b0 0b 4c
        E 16 b0 0b 19
        E 32 80 32 00
        E 144 b0 0c 10
        E 0 b0 0b 77
        E 0 90 32 77
        E 16 b0 0c 60
        E 0 b0 0b 66
        E 16 b0 0b 5d
        E 16 b0 0b 55
        E 16 b0 0b 4c
        E 16 b0 0b 19
        E 32 80 32 00
        E 16 b0 0c 10
        E 0 b0 0b 77
        E 0 90 2d 77
        E 16 b0 0c 60
        E 0 b0 0b 66
        E 16 b0 0b 5d
        E 16 b0 0b 55
        E 16 b0 0b 4c
        E 16 b0 0b 19
        E 32 80 2d 00
        E 272 b0 0c 10
        E 0 b0 0b 77
        E 0 90 32 77
        E 16 b0 0c 60
        E 0 b0 0b 66
        E 16 b0 0b 5d
        E 16 b0 0b 55
        E 16 b0 0b 4c
        E 16 b0 0b 19
        E 32 80 32 00
        E 144 b0 0c 10
        E 0 b0 0b 77
        E 0 90 34 77
        E 16 b0 0c 60
        E 0 b0 0b 66
        E 16 b0 0b 5d
        E 16 b0 0b 55
        E 16 b0 0b 4c
        E 16 b0 0b 19
        E 32 80 34 00
        E 16 b0 0c 10
        E 0 b0 0b 77
        E 0 90 32 77
        E 16 b0 0c 60
        E 0 b0 0b 66
        E 16 b0 0b 5d
        E 16 b0 0b 55
        E 16 b0 0b 4c
        E 16 b0 0b 19
        E 32 80 32 00
        E 144 b0 0c 10
        E 0 b0 0b 77
        E 0 90 30 77
        E 16 b0 0c 60
        E 0 b0 0b 66
        E 16 b0 0b 5d
        E 16 b0 0b 55
        E 16 b0 0b 4c
        E 16 b0 0b 19
        E 32 80 30 00
        E 16 b0 0c 10
        E 0 b0 0b 77
        E 0 90 32 77
        E 16 b0 0c 60
        E 0 b0 0b 66
        E 16 b0 0b 5d
        E 16 b0 0b 55
        E 16 b0 0b 4c
        E 16 b0 0b 19
        E 32 80 32 00
        E 144 b0 0c 10
        E 0 b0 0b 77
        E 0 90 32 77
        E 16 b0 0c 60
        E 0 b0 0b 66
        E 16 b0 0b 5d
        E 16 b0 0b 55
        E 16 b0 0b 4c
        E 16 b0 0b 19
        E 32 80 32 00
        E 16 b0 0c 10
        E 0 b0 0b 77
        E 0 90 37 77
        E 16 b0 0c 60
        E 0 b0 0b 66
        E 16 b0 0b 5d
        E 16 b0 0b 55
        E 16 b0 0b 4c
        E 16 b0 0b 19
        E 32 80 37 00
        E 272 b0 0c 10
        E 0 b0 0b 77
        E 0 90 39 77
        E 16 b0 0c 60
        E 0 b0 0b 66
        E 16 b0 0b 5d
        E 16 b0 0b 55
        E 16 b0 0b 4c
        E 16 b0 0b 19
        E 32 80 39 00
        E 528 b0 0c 10
        E 0 b0 0b 77
        E 0 90 37 77
        E 16 b0 0c 60
        E 0 b0 0b 66
        E 16 b0 0b 5d
        E 16 b0 0b 55
        E 16 b0 0b 4c
        E 16 b0 0b 19
        E 32 80 37 00
        E 16 b0 0c 10
        E 0 b0 0b 77
        E 0 90 37 77
        E 16 b0 0c 60
        E 0 b0 0b 66
        E 16 b0 0b 5d
        E 16 b0 0b 55
        E 16 b0 0b 4c
        E 16 b0 0b 44
        E 16 b0 0b 3b
        E 96 b0 0b 19
        E 32 80 37 00
        E 160 b0 0c 10
        E 0 b0 0b 77
        E 0 90 37 77
        E 16 b0 0c 60
        E 0 b0 0b 66
        E 16 b0 0b 5d
        E 16 b0 0b 55
        E 16 b0 0b 4c
        E 16 b0 0b 19
        E 32 80 37 00
        E 144 b0 0c 10
        E 0 b0 0b 77
        E 0 90 37 77
        E 16 b0 0c 60
        E 0 b0 0b 66
        E 16 b0 0b 5d
        E 16 b0 0b 55
        E 16 b0 0b 4c
        E 16 b0 0b 19
        E 32 80 37 00
        E 2432 b0 0c 40
        E 0 b0 0b 7f
        E 0 90 25 7f
        E 16 b0 0c 60
        E 0 b0 0b 77
        E 16 b0 0b 6e
        E 16 b0 0b 22
        E 64 b0 0c 40
        E 0 b0 0b 55
        E 0 80 25 00
        E 0 90 31 55
        E 16 b0 0c 60
        E 0 b0 0b 4c
        E 16 b0 0b 44
        E 16 b0 0b 3b
        E 16 80 31 00
        E 160 b0 0c 40
        E 0 b0 0b 55
        E 0 90 31 55
        E 16 b0 0c 60
        E 0 b0 0b 4c
        E 16 b0 0b 44
        E 16 b0 0b 3b
        E 16 80 31 00
        E 48 b0 0c 40
        E 0 b0 0b 55
        E 0 90 33 55
        E 16 b0 0c 60
        E 0 b0 0b 4c
        E 16 b0 0b 44
        E 16 b0 0b 3b
        E 16 80 33 00
        E 160 b0 0c 40
        E 0 b0 0b 55
        E 0 90 34 55
        E 16 b0 0c 60
        E 0 b0 0b 4c
        E 16 b0 0b 44
        E 16 b0 0b 3b
        E 16 80 34 00
        E 160 b0 0c 40
        E 0 b0 0b 55
        E 0 90 35 55
        E 16 b0 0c 60
        E 0 b0 0b 4c
        E 16 b0 0b 44
        E 16 b0 0b 3b
        E 16 80 35 00
        E 160 b0 0c 40
        E 0 b0 0b 33
        E 0 90 4e 33
        E 32 b0 0c 20
        E 0 b0 0b 22
        E 16 b0 0c 10
        E 0 b0 0b 19
        E 16 80 4e 00
        E 48 b0 0c 40
        E 0 90 4e 19
        E 32 b0 0c 20
        E 0 b0 0b 08
        E 16 80 4e 00
        E 64 b0 0c 40
        E 0 b0 0b 33
        E 0 90 4d 33
        E 32 b0 0c 20
        E 0 b0 0b 22
        E 16 b0 0c 10
        E 0 b0 0b 19
        E 16 80 4d 00
        E 48 b0 0c 40
        E 0 90 4d 19
        E 32 b0 0c 20
        E 0 b0 0b 08
        E 16 80 4d 00
        E 288 b0 0c 60
        E 0 b0 0b 5d
        E 0 90 3a 5d
        E 48 b0 0b 44
        E 16 b0 0b 33
        E 16 80 3a 00
        E 144 b0 0b 4c
        E 0 90 3a 4c
        E 48 80 3a 00
        E 32 b0 0b 3b
        E 0 90 3a 3b
        E 48 80 3a 00
        E 32 b0 0b 2a
        E 0 90 3a 2a
        E 48 80 3a 00
        E 32 b0 0b 19
        E 0 90 3a 19
        E 48 80 3a 00
        E 32 b0 0b 08
        E 0 90 3a 08
        E 48 80 3a 00
        E 80 b0 0b 55
        E 0 90 3b 55
        E 48 b0 0b 3b
        E 16 b0 0b 2a
        E 16 80 3b 00
        E 32 b0 0b 55
        E 0 90 3c 55
        E 48 b0 0b 3b
        E 16 b0 0b 2a
        E 16 80 3c 00
        E 32 b0 0b 55
        E 0 90 3d 55
        E 48 b0 0b 3b
        E 16 b0 0b 2a
        E 16 80 3d 00
        E 32 b0 0b 55
        E 0 90 3f 55
        E 48 b0 0b 3b
        E 16 b0 0b 2a
        E 16 80 3f 00
        E 32 b0 0b 55
        E 0 90 3d 55
        E 48 b0 0b 3b
        E 16 b0 0b 2a
        E 16 80 3d 00
        E 32 b0 0b 55
        E 0 90 3f 55
        E 48 b0 0b 3b
        E 16 b0 0b 2a
        E 16 80 3f 00
        E 32 b0 0b 55
        E 0 90 3d 55
        E 48 b0 0b 3b
        E 16 b0 0b 2a
        E 16 80 3d 00
        E 32 b0 0b 55
        E 0 90 3a 55
        E 48 b0 0b 3b
        E 16 b0 0b 2a
        E 16 80 3a 00
        E 32 b0 0b 55
        E 0 90 36 55
        E 48 b0 0b 3b
        E 16 b0 0b 2a
        E 16 80 36 00
        E 32 b0 0b 55
        E 0 90 31 55
        E 48 b0 0b 3b
        E 16 b0 0b 2a
        E 16 80 31 00
        E 32 b0 0b 55
        E 0 90 3a 55
        E 48 b0 0b 3b
        E 16 b0 0b 2a
        E 16 80 3a 00
        E 32 b0 0b 55
        E 0 90 3b 55
        E 48 b0 0b 3b
        E 16 b0 0b 2a
        E 16 80 3b 00
        E 32 b0 0b 55
        E 0 90 3c 55
        E 48 b0 0b 3b
        E 16 b0 0b 2a
        E 16 80 3c 00
        E 32 b0 0b 55
        E 0 90 3d 55
        E 48 b0 0b 3b
        E 16 b0 0b 2a
        E 16 80 3d 00
        E 144 b0 0c 10
        E 0 b0 0b 3b
        E 0 90 57 3b
        E 32 b0 0b 2a
        E 32 80 57 00
        E 48 b0 0b 3b
        E 0 90 59 3b
        E 32 b0 0b 2a
        E 32 80 59 00
        E 48 b0 0b 3b
        E 0 90 5a 3b
        E 32 b0 0b 2a
        E 32 80 5a 00
        E 48 b0 0b 3b
        E 0 90 55 3b
        E 32 b0 0b 2a
        E 32 80 55 00
        E 832 b0 0c 60
        E 0 b0 0b 5d
        E 0 90 38 5d
        E 48 b0 0b 44
        E 16 b0 0b 33
        E 16 80 38 00
        E 144 b0 0b 4c
        E 0 90 38 4c
        E 48 80 38 00
        E 32 b0 0b 3b
        E 0 90 38 3b
        E 48 80 38 00
        E 32 b0 0b 2a
        E 0 90 38 2a
        E 48 80 38 00
        E 32 b0 0b 19
        E 0 90 38 19
        E 48 80 38 00
        E 32 b0 0b 08
        E 0 90 38 08
        E 48 80 38 00
        E 80 b0 0b 55
        E 0 90 39 55
        E 48 b0 0b 3b
        E 16 b0 0b 2a
        E 16 80 39 00
        E 32 b0 0b 55
        E 0 90 3a 55
        E 48 b0 0b 3b
        E 16 b0 0b 2a
        E 16 80 3a 00
        E 32 b0 0b 55
        E 0 90 3b 55
        E 48 b0 0b 3b
        E 16 b0 0b 2a
        E 16 80 3b 00
        E 32 b0 0b 55
        E 0 90 3d 55
        E 48 b0 0b 3b
        E 16 b0 0b 2a
        E 16 80 3d 00
        E 32 b0 0b 55
        E 0 90 3b 55
        E 48 b0 0b 3b
        E 16 b0 0b 2a
        E 16 80 3b 00
        E 32 b0 0b 55
        E 0 90 3d 55
        E 48 b0 0b 3b
        E 16 b0 0b 2a
        E 16 80 3d 00
        E 32 b0 0b 55
        E 0 90 3b 55
        E 48 b0 0b 3b
        E 16 b0 0b 2a
        E 16 80 3b 00
        E 32 b0 0b 55
        E 0 90 3d 55
        E 48 b0 0b 3b
        E 16 b0 0b 2a
        E 16 80 3d 00
        E 32 b0 0b 55
        E 0 90 41 55
        E 48 b0 0b 3b
        E 16 b0 0b 2a
        E 16 80 41 00
        E 32 b0 0b 55
        E 0 90 3f 55
        E 48 b0 0b 3b
        E 16 b0 0b 2a
        E 16 80 3f 00
        E 32 b0 0b 55
        E 0 90 3d 55
        E 48 b0 0b 3b
        E 16 b0 0b 2a
        E 16 80 3d 00
        E 32 b0 0b 55
        E 0 90 3b 55
        E 48 b0 0b 3b
        E 16 b0 0b 2a
        E 16 80 3b 00
        E 32 b0 0b 55
        E 0 90 38 55
        E 48 b0 0b 3b
        E 16 b0 0b 2a
        E 16 80 38 00
        E 32 b0 0b 55
        E 0 90 35 55
        E 48 b0 0b 3b
        E 16 b0 0b 2a
        E 16 80 35 00
        E 144 b0 0c 10
        E 0 b0 0b 6e
        E 0 90 31 6e
        E 32 b0 0b 5d
        E 48 b0 0b 11
        E 32 b0 0b 6e
        E 0 80 31 00
        E 0 90 2f 6e
        E 32 b0 0b 5d
        E 48 b0 0b 11
        E 32 b0 0b 6e
        E 0 80 2f 00
        E 0 90 2c 6e
        E 32 b0 0b 5d
        E 48 b0 0b 11
        E 32 b0 0b 6e
        E 0 80 2c 00
        E 0 90 29 6e
        E 32 b0 0b 5d
        E 48 b0 0b 11
        E 128 80 29 00
        E 128 b0 0b 6e
        E 0 90 25 6e
        E 32 b0 0b 5d
        E 48 b0 0b 11
        E 128 80 25 00
        E 16 b0 0b 6e
        E 0 90 25 6e
        E 32 b0 0b 5d
        E 48 b0 0b 11
        E 32 b0 0c 40
        E 0 b0 0b 2a
        E 0 80 25 00
        E 0 90 55 2a
        E 16 b0 0c 60
        E 0 b0 0b 22
        E 16 b0 0b 19
        E 16 b0 0b 11
        E 16 b0 0b 08
        E 16 80 55 00
        E 144 b0 0b 5d
        E 0 90 3a 5d
        E 48 b0 0b 44
        E 16 b0 0b 33
        E 16 80 3a 00
        E 144 b0 0b 4c
        E 0 90 3a 4c
        E 48 80 3a 00
        E 32 b0 0b 3b
        E 0 90 3a 3b
        E 48 80 3a 00
        E 32 b0 0b 2a
        E 0 90 3a 2a
        E 48 80 3a 00
        E 32 b0 0b 19
        E 0 90 3a 19
        E 48 80 3a 00
        E 32 b0 0b 08
        E 0 90 3a 08
        E 48 80 3a 00
        E 80 b0 0b 55
        E 0 90 3b 55
        E 48 b0 0b 3b
        E 16 b0 0b 2a
        E 16 80 3b 00
        E 32 b0 0b 55
        E 0 90 3c 55
        E 48 b0 0b 3b
        E 16 b0 0b 2a
        E 16 80 3c 00
        E 32 b0 0b 55
        E 0 90 3d 55
        E 48 b0 0b 3b
        E 16 b0 0b 2a
        E 16 80 3d 00
        E 32 b0 0b 55
        E 0 90 3f 55
        E 48 b0 0b 3b
        E 16 b0 0b 2a
        E 16 80 3f 00
        E 32 b0 0b 55
        E 0 90 3d 55
        E 48 b0 0b 3b
        E 16 b0 0b 2a
        E 16 80 3d 00
        E 32 b0 0b 55
        E 0 90 3f 55
        E 48 b0 0b 3b
        E 16 b0 0b 2a
        E 16 80 3f 00
        E 32 b0 0b 55
        E 0 90 3d 55
        E 48 b0 0b 3b
        E 16 b0 0b 2a
        E 16 80 3d 00
        E 32 b0 0b 55
        E 0 90 3a 55
        E 48 b0 0b 3b
        E 16 b0 0b 2a
        E 16 80 3a 00
        E 32 b0 0b 55
        E 0 90 36 55
        E 48 b0 0b 3b
        E 16 b0 0b 2a
        E 16 80 36 00
        E 32 b0 0b 55
        E 0 90 31 55
        E 48 b0 0b 3b
        E 16 b0 0b 2a
        E 16 80 31 00
        E 32 b0 0b 55
        E 0 90 3a 55
        E 48 b0 0b 3b
        E 16 b0 0b 2a
        E 16 80 3a 00
        E 32 b0 0b 55
        E 0 90 3b 55
        E 48 b0 0b 3b
        E 16 b0 0b 2a
        E 16 80 3b 00
        E 32 b0 0b 55
        E 0 90 3c 55
        E 48 b0 0b 3b
        E 16 b0 0b 2a
        E 16 80 3c 00
        E 32 b0 0b 55
        E 0 90 3d 55
        E 48 b0 0b 3b
        E 16 b0 0b 2a
        E 16 80 3d 00
        E 144 b0 0c 10
        E 0 b0 0b 3b
        E 0 90 57 3b
        E 32 b0 0b 2a
        E 32 80 57 00
        E 48 b0 0b 3b
        E 0 90 59 3b
        E 32 b0 0b 2a
        E 32 80 59 00
        E 48 b0 0b 3b
        E 0 90 5a 3b
        E 32 b0 0b 2a
        E 32 80 5a 00
        E 48 b0 0b 3b
        E 0 90 55 3b
        E 32 b0 0b 2a
        E 32 80 55 00
        E 832 b0 0c 60
        E 0 b0 0b 5d
        E 0 90 38 5d
        E 48 b0 0b 44
        E 16 b0 0b 33
        E 16 80 38 00
        E 144 b0 0b 4c
        E 0 90 38 4c
        E 48 80 38 00
        E 32 b0 0b 3b
        E 0 90 38 3b
        E 48 80 38 00
        E 32 b0 0b 2a
        E 0 90 38 2a
        E 48 80 38 00
        E 32 b0 0b 19
        E 0 90 38 19
        E 48 80 38 00
        E 32 b0 0b 08
        E 0 90 38 08
        E 48 80 38 00
        E 80 b0 0b 55
        E 0 90 39 55
        E 48 b0 0b 3b
        E 16 b0 0b 2a
        E 16 80 39 00
        E 32 b0 0b 55
        E 0 90 3a 55
        E 48 b0 0b 3b
        E 16 b0 0b 2a
        E 16 80 3a 00
        E 32 b0 0b 55
        E 0 90 3b 55
        E 48 b0 0b 3b
        E 16 b0 0b 2a
        E 16 80 3b 00
        E 32 b0 0b 55
        E 0 90 3d 55
        E 48 b0 0b 3b
        E 16 b0 0b 2a
        E 16 80 3d 00
        E 32 b0 0b 55
        E 0 90 3b 55
        E 48 b0 0b 3b
        E 16 b0 0b 2a
        E 16 80 3b 00
        E 32 b0 0b 55
        E 0 90 3d 55
        E 48 b0 0b 3b
        E 16 b0 0b 2a
        E 16 80 3d 00
        E 32 b0 0b 55
        E 0 90 3b 55
        E 48 b0 0b 3b
        E 16 b0 0b 2a
        E 16 80 3b 00
        E 32 b0 0b 55
        E 0 90 3d 55
        E 48 b0 0b 3b
        E 16 b0 0b 2a
        E 16 80 3d 00
        E 32 b0 0b 55
        E 0 90 41 55
        E 48 b0 0b 3b
        E 16 b0 0b 2a
        E 16 80 41 00
        E 32 b0 0b 55
        E 0 90 3f 55
        E 48 b0 0b 3b
        E 16 b0 0b 2a
        E 16 80 3f 00
        E 32 b0 0b 55
        E 0 90 3d 55
        E 48 b0 0b 3b
        E 16 b0 0b 2a
        E 16 80 3d 00
        E 32 b0 0b 55
        E 0 90 3b 55
        E 48 b0 0b 3b
        E 16 b0 0b 2a
        E 16 80 3b 00
        E 32 b0 0b 55
        E 0 90 38 55
        E 48 b0 0b 3b
        E 16 b0 0b 2a
        E 16 80 38 00
        E 32 b0 0b 55
        E 0 90 35 55
        E 48 b0 0b 3b
        E 16 b0 0b 2a
        E 16 80 35 00
        E 144 b0 0c 10
        E 0 b0 0b 55
        E 0 90 31 55
        E 32 b0 0b 44
        E 48 80 31 00
        E 144 b0 0b 55
        E 0 90 36 55
        E 32 b0 0b 44
        E 48 80 36 00
        E 144 b0 0b 7f
        E 0 90 2a 7f
        E 16 b0 0b 6e
        E 48 b0 0b 33
        E 32 b0 0b 08
        E 16 80 2a 00
        E 112 b0 0b 7f
        E 0 90 2a 7f
        E 16 b0 0b 33
        E 32 b0 0b 08
        E 16 80 2a 00
        E 48 b0 0b 7f
        E 0 90 2a 7f
        E 16 b0 0b 33
        E 32 b0 0b 08
        E 16 80 2a 00
        E 384 b0 0c 40
        E 0 b0 0b 22
        E 0 90 3f 22
        E 16 b0 0b 44
        E 16 b0 0b 55
        E 16 b0 0b 3b
        E 16 b0 0b 2a
        E 16 80 3f 00
        E 144 b0 0b 22
        E 0 90 3f 22
        E 16 b0 0b 44
        E 16 b0 0b 55
        E 16 b0 0b 3b
        E 16 b0 0b 2a
        E 80 b0 0b 33
        E 80 b0 0b 3b
        E 80 b0 0b 44
        E 80 b0 0b 4c
        E 32 80 3f 00
        E 32 b0 0b 22
        E 0 90 40 22
        E 16 b0 0b 44
        E 16 b0 0b 55
        E 16 b0 0b 3b
        E 16 b0 0b 2a
        E 16 80 40 00
        E 32 b0 0b 22
        E 0 90 41 22
        E 16 b0 0b 44
        E 16 b0 0b 55
        E 16 b0 0b 3b
        E 16 b0 0b 2a
        E 16 80 41 00
        E 32 b0 0b 22
        E 0 90 42 22
        E 16 b0 0b 44
        E 16 b0 0b 55
        E 16 b0 0b 3b
        E 16 b0 0b 2a
        E 16 80 42 00
        E 32 b0 0b 22
        E 0 90 3f 22
        E 16 b0 0b 44
        E 16 b0 0b 55
        E 16 b0 0b 3b
        E 16 b0 0b 2a
        E 16 80 3f 00
        E 144 b0 0b 22
        E 0 90 42 22
        E 16 b0 0b 44
        E 16 b0 0b 55
        E 16 b0 0b 3b
        E 16 b0 0b 2a
        E 16 80 42 00
        E 32 b0 0b 22
        E 0 90 4b 22
        E 16 b0 0b 44
        E 16 b0 0b 55
        E 16 b0 0b 3b
        E 16 b0 0b 2a
        E 16 80 4b 00
        E 32 b0 0b 22
        E 0 90 47 22
        E 16 b0 0b 44
        E 16 b0 0b 55
        E 16 b0 0b 3b
        E 16 b0 0b 2a
        E 16 80 47 00
        E 32 b0 0b 22
        E 0 90 42 22
        E 16 b0 0b 44
        E 16 b0 0b 55
        E 16 b0 0b 3b
        E 16 b0 0b 2a
        E 16 80 42 00
        E 32 b0 0b 22
        E 0 90 3f 22
        E 16 b0 0b 44
        E 16 b0 0b 55
        E 16 b0 0b 3b
        E 16 b0 0b 2a
        E 16 80 3f 00
        E 32 b0 0b 22
        E 0 90 3d 22
        E 16 b0 0b 44
        E 16 b0 0b 55
        E 16 b0 0b 3b
        E 16 b0 0b 2a
        E 16 80 3d 00
        E 144 b0 0b 22
        E 0 90 3d 22
        E 16 b0 0b 44
        E 16 b0 0b 55
        E 16 b0 0b 3b
        E 16 b0 0b 2a
        E 80 b0 0b 33
        E 80 b0 0b 3b
        E 80 80 3d 00
        E 32 b0 0b 22
        E 0 90 3a 22
        E 16 b0 0b 44
        E 16 b0 0b 55
        E 16 b0 0b 3b
        E 16 b0 0b 2a
        E 16 80 3a 00
        E 32 b0 0b 22
        E 0 90 41 22
        E 16 b0 0b 44
        E 16 b0 0b 55
        E 16 b0 0b 3b
        E 16 b0 0b 2a
        E 16 80 41 00
        E 32 b0 0b 22
        E 0 90 42 22
        E 16 b0 0b 44
        E 16 b0 0b 55
        E 16 b0 0b 3b
        E 16 b0 0b 2a
        E 16 80 42 00
        E 256 90 52 2a
        E 32 80 52 00
        E 80 90 50 2a
        E 32 80 50 00
        E 80 90 53 2a
        E 32 80 53 00
        E 80 90 52 2a
        E 32 80 52 00
        E 80 90 4e 2a
        E 32 80 4e 00
        E 80 90 49 2a
        E 32 80 49 00
        E 80 b0 0b 22
        E 0 90 3b 22
        E 16 b0 0b 44
        E 16 b0 0b 55
        E 16 b0 0b 3b
        E 16 b0 0b 2a
        E 16 80 3b 00
        E 144 b0 0b 22
        E 0 90 3b 22
        E 16 b0 0b 44
        E 16 b0 0b 55
        E 16 b0 0b 3b
        E 16 b0 0b 2a
        E 80 b0 0b 33
        E 80 b0 0b 3b
        E 80 80 3b 00
        E 32 b0 0b 22
        E 0 90 3b 22
        E 16 b0 0b 44
        E 16 b0 0b 55
        E 16 b0 0b 3b
        E 16 b0 0b 2a
        E 16 80 3b 00
        E 32 b0 0b 22
        E 0 90 3d 22
        E 16 b0 0b 44
        E 16 b0 0b 55
        E 16 b0 0b 3b
        E 16 b0 0b 2a
        E 16 80 3d 00
        E 32 b0 0b 22
        E 0 90 3e 22
        E 16 b0 0b 44
        E 16 b0 0b 55
        E 16 b0 0b 3b
        E 16 b0 0b 2a
        E 16 80 3e 00
        E 32 b0 0b 22
        E 0 90 3f 22
        E 16 b0 0b 44
        E 16 b0 0b 55
        E 16 b0 0b 3b
        E 16 b0 0b 2a
        E 16 80 3f 00
        E 32 b0 0b 22
        E 0 90 3b 22
        E 16 b0 0b 44
        E 16 b0 0b 55
        E 16 b0 0b 3b
        E 16 b0 0b 2a
        E 16 80 3b 00
        E 144 b0 0b 22
        E 0 90 3f 22
        E 16 b0 0b 44
        E 16 b0 0b 55
        E 16 b0 0b 3b
        E 16 b0 0b 2a
        E 16 80 3f 00
        E 32 b0 0b 22
        E 0 90 44 22
        E 16 b0 0b 44
        E 16 b0 0b 55
        E 16 b0 0b 3b
        E 16 b0 0b 2a
        E 16 80 44 00
        E 32 b0 0b 22
        E 0 90 3f 22
        E 16 b0 0b 44
        E 16 b0 0b 55
        E 16 b0 0b 3b
        E 16 b0 0b 2a
        E 16 80 3f 00
        E 32 b0 0b 22
        E 0 90 3b 22
        E 16 b0 0b 44
        E 16 b0 0b 55
        E 16 b0 0b 3b
        E 16 b0 0b 2a
        E 16 80 3b 00
        E 32 b0 0b 22
        E 0 90 38 22
        E 16 b0 0b 44
        E 16 b0 0b 55
        E 16 b0 0b 3b
        E 16 b0 0b 2a
        E 16 80 38 00
        E 32 b0 0b 4c
        E 0 90 31 4c
        E 16 b0 0b 3b
        E 64 80 31 00
        E 256 b0 0b 4c
        E 0 90 32 4c
        E 16 b0 0b 3b
        E 64 80 32 00
        E 256 b0 0b 4c
        E 0 90 33 4c
        E 16 b0 0b 3b
        E 64 80 33 00
        E 256 b0 0b 4c
        E 0 90 34 4c
        E 16 b0 0b 3b
        E 64 80 34 00
        E 144 b0 0b 4c
        E 0 90 31 4c
        E 16 b0 0b 3b
        E 32 80 31 00
        E 176 b0 0b 2a
        E 0 90 4c 2a
        E 16 80 4c 00
        E 96 90 4c 2a
        E 16 b0 0b 19
        E 48 80 4c 00
        E 160 b0 0b 22
        E 0 90 3f 22
        E 16 b0 0b 44
        E 16 b0 0b 55
        E 16 b0 0b 3b
        E 16 b0 0b 2a
        E 16 80 3f 00
        E 144 b0 0b 22
        E 0 90 3f 22
        E 16 b0 0b 44
        E 16 b0 0b 55
        E 16 b0 0b 3b
        E 16 b0 0b 2a
        E 80 b0 0b 33
        E 80 b0 0b 3b
        E 80 b0 0b 44
        E 80 b0 0b 4c
        E 32 80 3f 00
        E 32 b0 0b 22
        E 0 90 40 22
        E 16 b0 0b 44
        E 16 b0 0b 55
        E 16 b0 0b 3b
        E 16 b0 0b 2a
        E 16 80 40 00
        E 32 b0 0b 22
        E 0 90 41 22
        E 16 b0 0b 44
        E 16 b0 0b 55
        E 16 b0 0b 3b
        E 16 b0 0b 2a
        E 16 80 41 00
        E 32 b0 0b 22
        E 0 90 42 22
        E 16 b0 0b 44
        E 16 b0 0b 55
        E 16 b0 0b 3b
        E 16 b0 0b 2a
        E 16 80 42 00
        E 32 b0 0b 22
        E 0 90 3f 22
        E 16 b0 0b 44
        E 16 b0 0b 55
        E 16 b0 0b 3b
        E 16 b0 0b 2a
        E 16 80 3f 00
        E 144 b0 0b 22
        E 0 90 42 22
        E 16 b0 0b 44
        E 16 b0 0b 55
        E 16 b0 0b 3b
        E 16 b0 0b 2a
        E 16 80 42 00
        E 32 b0 0b 22
        E 0 90 4b 22
        E 16 b0 0b 44
        E 16 b0 0b 55
        E 16 b0 0b 3b
        E 16 b0 0b 2a
        E 16 80 4b 00
        E 32 b0 0b 22
        E 0 90 47 22
        E 16 b0 0b 44
        E 16 b0 0b 55
        E 16 b0 0b 3b
        E 16 b0 0b 2a
        E 16 80 47 00
        E 32 b0 0b 22
        E 0 90 42 22
        E 16 b0 0b 44
        E 16 b0 0b 55
        E 16 b0 0b 3b
        E 16 b0 0b 2a
        E 16 80 42 00
        E 32 b0 0b 22
        E 0 90 3f 22
        E 16 b0 0b 44
        E 16 b0 0b 55
        E 16 b0 0b 3b
        E 16 b0 0b 2a
        E 16 80 3f 00
        E 32 b0 0b 22
        E 0 90 3d 22
        E 16 b0 0b 44
        E 16 b0 0b 55
        E 16 b0 0b 3b
        E 16 b0 0b 2a
        E 16 80 3d 00
        E 144 b0 0b 22
        E 0 90 3d 22
        E 16 b0 0b 44
        E 16 b0 0b 55
        E 16 b0 0b 3b
        E 16 b0 0b 2a
        E 80 b0 0b 33
        E 80 b0 0b 3b
        E 80 80 3d 00
        E 32 b0 0b 22
        E 0 90 3a 22
        E 16 b0 0b 44
        E 16 b0 0b 55
        E 16 b0 0b 3b
        E 16 b0 0b 2a
        E 16 80 3a 00
        E 32 b0 0b 22
        E 0 90 41 22
        E 16 b0 0b 44
        E 16 b0 0b 55
        E 16 b0 0b 3b
        E 16 b0 0b 2a
        E 16 80 41 00
        E 32 b0 0b 22
        E 0 90 42 22
        E 16 b0 0b 44
        E 16 b0 0b 55
        E 16 b0 0b 3b
        E 16 b0 0b 2a
        E 16 80 42 00
        E 256 90 52 2a
        E 32 80 52 00
        E 80 90 50 2a
        E 32 80 50 00
        E 80 90 53 2a
        E 32 80 53 00
        E 80 90 52 2a
        E 32 80 52 00
        E 80 90 4e 2a
        E 32 80 4e 00
        E 80 90 49 2a
        E 32 80 49 00
        E 80 b0 0b 22
        E 0 90 3b 22
        E 16 b0 0b 44
        E 16 b0 0b 55
        E 16 b0 0b 3b
        E 16 b0 0b 2a
        E 16 80 3b 00
        E 144 b0 0b 22
        E 0 90 3b 22
        E 16 b0 0b 44
        E 16 b0 0b 55
        E 16 b0 0b 3b
        E 16 b0 0b 2a
        E 80 b0 0b 33
        E 80 b0 0b 3b
        E 80 80 3b 00
        E 32 b0 0b 22
        E 0 90 3b 22
        E 16 b0 0b 44
        E 16 b0 0b 55
        E 16 b0 0b 3b
        E 16 b0 0b 2a
        E 16 80 3b 00
        E 32 b0 0b 22
        E 0 90 3d 22
        E 16 b0 0b 44
        E 16 b0 0b 55
        E 16 b0 0b 3b
        E 16 b0 0b 2a
        E 16 80 3d 00
        E 32 b0 0b 22
        E 0 90 3e 22
        E 16 b0 0b 44
        E 16 b0 0b 55
        E 16 b0 0b 3b
        E 16 b0 0b 2a
        E 16 80 3e 00
        E 32 b0 0b 22
        E 0 90 3f 22
        E 16 b0 0b 44
        E 16 b0 0b 55
        E 16 b0 0b 3b
        E 16 b0 0b 2a
        E 16 80 3f 00
        E 32 b0 0b 22
        E 0 90 3b 22
        E 16 b0 0b 44
        E 16 b0 0b 55
        E 16 b0 0b 3b
        E 16 b0 0b 2a
        E 16 80 3b 00
        E 144 b0 0b 22
        E 0 90 3f 22
        E 16 b0 0b 44
        E 16 b0 0b 55
        E 16 b0 0b 3b
        E 16 b0 0b 2a
        E 16 80 3f 00
        E 32 b0 0b 22
        E 0 90 44 22
        E 16 b0 0b 44
        E 16 b0 0b 55
        E 16 b0 0b 3b
        E 16 b0 0b 2a
        E 16 80 44 00
        E 32 b0 0b 22
        E 0 90 3f 22
        E 16 b0 0b 44
        E 16 b0 0b 55
        E 16 b0 0b 3b
        E 16 b0 0b 2a
        E 16 80 3f 00
        E 32 b0 0b 22
        E 0 90 3b 22
        E 16 b0 0b 44
        E 16 b0 0b 55
        E 16 b0 0b 3b
        E 16 b0 0b 2a
        E 16 80 3b 00
        E 32 b0 0b 22
        E 0 90 38 22
        E 16 b0 0b 44
        E 16 b0 0b 55
        E 16 b0 0b 3b
        E 16 b0 0b 2a
        E 16 80 38 00
        E 32 b0 0b 22
        E 0 90 3d 22
        E 16 b0 0b 44
        E 16 b0 0b 55
        E 16 b0 0b 3b
        E 16 b0 0b 2a
        E 16 80 3d 00
        E 32 b0 0b 22
        E 0 90 3f 22
        E 16 b0 0b 44
        E 16 b0 0b 55
        E 16 b0 0b 3b
        E 16 b0 0b 2a
        E 16 80 3f 00
        E 144 b0 0b 22
        E 0 90 40 22
        E 16 b0 0b 44
        E 16 b0 0b 55
        E 16 b0 0b 3b
        E 16 b0 0b 2a
        E 16 80 40 00
        E 32 b0 0b 22
        E 0 90 41 22
        E 16 b0 0b 44
        E 16 b0 0b 55
        E 16 b0 0b 3b
        E 16 b0 0b 2a
        E 16 80 41 00
        E 32 b0 0b 22
        E 0 90 3f 22
        E 16 b0 0b 44
        E 16 b0 0b 55
        E 16 b0 0b 3b
        E 16 b0 0b 2a
        E 16 80 3f 00
        E 144 b0 0b 22
        E 0 90 3e 22
        E 16 b0 0b 44
        E 16 b0 0b 55
        E 16 b0 0b 3b
        E 16 b0 0b 2a
        E 16 80 3e 00
        E 32 b0 0b 22
        E 0 90 3d 22
        E 16 b0 0b 44
        E 16 b0 0b 55
        E 16 b0 0b 3b
        E 16 b0 0b 2a
        E 16 80 3d 00
        E 144 b0 0c 10
        E 0 b0 0b 7f
        E 0 90 19 7f
        E 32 b0 0b 6e
        E 16 b0 0b 22
        E 64 b0 0b 7f
        E 32 b0 0b 6e
        E 16 b0 0b 22
        E 128 80 19 00
        E 160 b0 0b 2a
        E 0 90 19 2a
        E 32 b0 0b 19
        E 80 80 19 00
        E 112 b0 0c 60
        E 0 b0 0b 5d
        E 0 90 3a 5d
        E 48 b0 0b 44
        E 16 b0 0b 33
        E 16 80 3a 00
        E 144 b0 0b 4c
        E 0 90 3a 4c
        E 48 80 3a 00
        E 32 b0 0b 3b
        E 0 90 3a 3b
        E 48 80 3a 00
        E 32 b0 0b 2a
        E 0 90 3a 2a
        E 48 80 3a 00
        E 32 b0 0b 19
        E 0 90 3a 19
        E 48 80 3a 00
        E 32 b0 0b 08
        E 0 90 3a 08
        E 48 80 3a 00
        E 80 b0 0b 55
        E 0 90 3b 55
        E 48 b0 0b 3b
        E 16 b0 0b 2a
        E 16 80 3b 00
        E 32 b0 0b 55
        E 0 90 3c 55
        E 48 b0 0b 3b
        E 16 b0 0b 2a
        E 16 80 3c 00
        E 32 b0 0b 55
        E 0 90 3d 55
        E 48 b0 0b 3b
        E 16 b0 0b 2a
        E 16 80 3d 00
        E 32 b0 0b 55
        E 0 90 3f 55
        E 48 b0 0b 3b
        E 16 b0 0b 2a
        E 16 80 3f 00
        E 32 b0 0b 55
        E 0 90 3d 55
        E 48 b0 0b 3b
        E 16 b0 0b 2a
        E 16 80 3d 00
        E 32 b0 0b 55
        E 0 90 3f 55
        E 48 b0 0b 3b
        E 16 b0 0b 2a
        E 16 80 3f 00
        E 32 b0 0b 55
        E 0 90 3d 55
        E 48 b0 0b 3b
        E 16 b0 0b 2a
        E 16 80 3d 00
        E 32 b0 0b 55
        E 0 90 3a 55
        E 48 b0 0b 3b
        E 16 b0 0b 2a
        E 16 80 3a 00
        E 32 b0 0b 55
        E 0 90 36 55
        E 48 b0 0b 3b
        E 16 b0 0b 2a
        E 16 80 36 00
        E 32 b0 0b 55
        E 0 90 31 55
        E 48 b0 0b 3b
        E 16 b0 0b 2a
        E 16 80 31 00
        E 32 b0 0b 55
        E 0 90 3a 55
        E 48 b0 0b 3b
        E 16 b0 0b 2a
        E 16 80 3a 00
        E 32 b0 0b 55
        E 0 90 3b 55
        E 48 b0 0b 3b
        E 16 b0 0b 2a
        E 16 80 3b 00
        E 32 b0 0b 55
        E 0 90 3c 55
        E 48 b0 0b 3b
        E 16 b0 0b 2a
        E 16 80 3c 00
        E 32 b0 0b 55
        E 0 90 3d 55
        E 48 b0 0b 3b
        E 16 b0 0b 2a
        E 16 80 3d 00
        E 144 b0 0c 10
        E 0 b0 0b 3b
        E 0 90 57 3b
        E 32 b0 0b 2a
        E 32 80 57 00
        E 48 b0 0b 3b
        E 0 90 59 3b
        E 32 b0 0b 2a
        E 32 80 59 00
        E 48 b0 0b 3b
        E 0 90 5a 3b
        E 32 b0 0b 2a
        E 32 80 5a 00
        E 48 b0 0b 3b
        E 0 90 55 3b
        E 32 b0 0b 2a
        E 32 80 55 00
        E 832 b0 0c 60
        E 0 b0 0b 5d
        E 0 90 38 5d
        E 48 b0 0b 44
        E 16 b0 0b 33
        E 16 80 38 00
        E 144 b0 0b 4c
        E 0 90 38 4c
        E 48 80 38 00
        E 32 b0 0b 3b
        E 0 90 38 3b
        E 48 80 38 00
        E 32 b0 0b 2a
        E 0 90 38 2a
        E 48 80 38 00
        E 32 b0 0b 19
        E 0 90 38 19
        E 48 80 38 00
        E 32 b0 0b 08
        E 0 90 38 08
        E 48 80 38 00
        E 80 b0 0b 55
        E 0 90 39 55
        E 48 b0 0b 3b
        E 16 b0 0b 2a
        E 16 80 39 00
        E 32 b0 0b 55
        E 0 90 3a 55
        E 48 b0 0b 3b
        E 16 b0 0b 2a
        E 16 80 3a 00
        E 32 b0 0b 55
        E 0 90 3b 55
        E 48 b0 0b 3b
        E 16 b0 0b 2a
        E 16 80 3b 00
        E 32 b0 0b 55
        E 0 90 3d 55
        E 48 b0 0b 3b
        E 16 b0 0b 2a
        E 16 80 3d 00
        E 32 b0 0b 55
        E 0 90 3b 55
        E 48 b0 0b 3b
        E 16 b0 0b 2a
        E 16 80 3b 00
        E 32 b0 0b 55
        E 0 90 3d 55
        E 48 b0 0b 3b
        E 16 b0 0b 2a
        E 16 80 3d 00
        E 32 b0 0b 55
        E 0 90 3b 55
        E 48 b0 0b 3b
        E 16 b0 0b 2a
        E 16 80 3b 00
        E 32 b0 0b 55
        E 0 90 3d 55
        E 48 b0 0b 3b
        E 16 b0 0b 2a
        E 16 80 3d 00
        E 32 b0 0b 55
        E 0 90 41 55
        E 48 b0 0b 3b
        E 16 b0 0b 2a
        E 16 80 41 00
        E 32 b0 0b 55
        E 0 90 3f 55
        E 48 b0 0b 3b
        E 16 b0 0b 2a
        E 16 80 3f 00
        E 32 b0 0b 55
        E 0 90 3d 55
        E 48 b0 0b 3b
        E 16 b0 0b 2a
        E 16 80 3d 00
        E 32 b0 0b 55
        E 0 90 3b 55
        E 48 b0 0b 3b
        E 16 b0 0b 2a
        E 16 80 3b 00
        E 32 b0 0b 55
        E 0 90 38 55
        E 48 b0 0b 3b
        E 16 b0 0b 2a
        E 16 80 38 00
        E 32 b0 0b 55
        E 0 90 35 55
        E 48 b0 0b 3b
        E 16 b0 0b 2a
        E 16 80 35 00
        E 144 b0 0c 10
        E 0 b0 0b 6e
        E 0 90 31 6e
        E 32 b0 0b 5d
        E 48 b0 0b 11
        E 32 b0 0b 6e
        E 0 80 31 00
        E 0 90 2f 6e
        E 32 b0 0b 5d
        E 48 b0 0b 11
        E 32 b0 0b 6e
        E 0 80 2f 00
        E 0 90 2c 6e
        E 32 b0 0b 5d
        E 48 b0 0b 11
        E 32 b0 0b 6e
        E 0 80 2c 00
        E 0 90 29 6e
        E 32 b0 0b 5d
        E 48 b0 0b 11
        E 128 80 29 00
        E 128 b0 0b 6e
        E 0 90 25 6e
        E 32 b0 0b 5d
        E 48 b0 0b 11
        E 128 80 25 00
        E 16 b0 0b 6e
        E 0 90 25 6e
        E 32 b0 0b 5d
        E 48 b0 0b 11
        E 32 b0 0c 40
        E 0 b0 0b 2a
        E 0 80 25 00
        E 0 90 55 2a
        E 16 b0 0c 60
        E 0 b0 0b 22
        E 16 b0 0b 19
        E 16 b0 0b 11
        E 16 b0 0b 08
        E 16 80 55 00
        E 144 b0 0b 5d
        E 0 90 3a 5d
        E 48 b0 0b 44
        E 16 b0 0b 33
        E 16 80 3a 00
        E 144 b0 0b 4c
        E 0 90 3a 4c
        E 48 80 3a 00
        E 32 b0 0b 3b
        E 0 90 3a 3b
        E 48 80 3a 00
        E 32 b0 0b 2a
        E 0 90 3a 2a
        E 48 80 3a 00
        E 32 b0 0b 19
        E 0 90 3a 19
        E 48 80 3a 00
        E 32 b0 0b 08
        E 0 90 3a 08
        E 48 80 3a 00
        E 80 b0 0b 55
        E 0 90 3b 55
        E 48 b0 0b 3b
        E 16 b0 0b 2a
        E 16 80 3b 00
        E 32 b0 0b 55
        E 0 90 3c 55
        E 48 b0 0b 3b
        E 16 b0 0b 2a
        E 16 80 3c 00
        E 32 b0 0b 55
        E 0 90 3d 55
        E 48 b0 0b 3b
        E 16 b0 0b 2a
        E 16 80 3d 00
        E 32 b0 0b 55
        E 0 90 3f 55
        E 48 b0 0b 3b
        E 16 b0 0b 2a
        E 16 80 3f 00
        E 32 b0 0b 55
        E 0 90 3d 55
        E 48 b0 0b 3b
        E 16 b0 0b 2a
        E 16 80 3d 00
        E 32 b0 0b 55
        E 0 90 3f 55
        E 48 b0 0b 3b
        E 16 b0 0b 2a
        E 16 80 3f 00
        E 32 b0 0b 55
        E 0 90 3d 55
        E 48 b0 0b 3b
        E 16 b0 0b 2a
        E 16 80 3d 00
        E 32 b0 0b 55
        E 0 90 3a 55
        E 48 b0 0b 3b
        E 16 b0 0b 2a
        E 16 80 3a 00
        E 32 b0 0b 55
        E 0 90 36 55
        E 48 b0 0b 3b
        E 16 b0 0b 2a
        E 16 80 36 00
        E 32 b0 0b 55
        E 0 90 31 55
        E 48 b0 0b 3b
        E 16 b0 0b 2a
        E 16 80 31 00
        E 32 b0 0b 55
        E 0 90 3a 55
        E 48 b0 0b 3b
        E 16 b0 0b 2a
        E 16 80 3a 00
        E 32 b0 0b 55
        E 0 90 3b 55
        E 48 b0 0b 3b
        E 16 b0 0b 2a
        E 16 80 3b 00
        E 32 b0 0b 55
        E 0 90 3c 55
        E 48 b0 0b 3b
        E 16 b0 0b 2a
        E 16 80 3c 00
        E 32 b0 0b 55
        E 0 90 3d 55
        E 48 b0 0b 3b
        E 16 b0 0b 2a
        E 16 80 3d 00
        E 144 b0 0c 10
        E 0 b0 0b 3b
        E 0 90 57 3b
        E 32 b0 0b 2a
        E 32 80 57 00
        E 48 b0 0b 3b
        E 0 90 59 3b
        E 32 b0 0b 2a
        E 32 80 59 00
        E 48 b0 0b 3b
        E 0 90 5a 3b
        E 32 b0 0b 2a
        E 32 80 5a 00
        E 48 b0 0b 3b
        E 0 90 55 3b
        E 32 b0 0b 2a
        E 32 80 55 00
        E 832 b0 0c 60
        E 0 b0 0b 5d
        E 0 90 38 5d
        E 48 b0 0b 44
        E 16 b0 0b 33
        E 16 80 38 00
        E 144 b0 0b 4c
        E 0 90 38 4c
        E 48 80 38 00
        E 32 b0 0b 3b
        E 0 90 38 3b
        E 48 80 38 00
        E 32 b0 0b 2a
        E 0 90 38 2a
        E 48 80 38 00
        E 32 b0 0b 19
        E 0 90 38 19
        E 48 80 38 00
        E 32 b0 0b 08
        E 0 90 38 08
        E 48 80 38 00
        E 80 b0 0b 55
        E 0 90 39 55
        E 48 b0 0c 20
        E 0 b0 0b 7f
        E 0 80 39 00
        E 0 90 3c 7f
        E 32 80 3c 00
        E 0 90 37 7f
        E 32 80 37 00
        E 0 90 2d 7f
        E 32 80 2d 00
        E 0 90 34 7f
        E 16 b0 0b 22
        E 32 b0 0b 7f
        E 0 80 34 00
        E 0 90 2d 7f
        E 16 b0 0b 22
        E 32 b0 0b 7f
        E 0 80 2d 00
        E 0 90 32 7f
        E 16 b0 0b 22
        E 32 b0 0b 6e
        E 0 80 32 00
        E 0 90 33 6e
        E 16 b0 0b 11
        E 32 80 33 00
        E 0 90 22 11
        E 32 b0 0c 60
        E 0 b0 0b 7f
        E 0 80 22 00
        E 0 90 15 7f
        E 16 b0 0b 66
        E 16 b0 0b 22
        E 32 b0 0b 7f
        E 0 80 15 00
        E 0 90 2b 7f
        E 16 80 2b 00
        E 0 90 31 7f
        E 16 80 31 00
        E 0 90 34 7f
        E 16 80 34 00
        E 0 90 38 7f
        E 16 80 38 00
        E 0 90 3b 7f
        E 16 80 3b 00
        E 0 90 3d 7f
        E 16 80 3d 00
        E 0 90 40 7f
        E 16 b0 0c 40
        E 0 b0 0b 3b
        E 128 b0 0b 22
        E 64 80 40 00
        E 64 90 40 22
        E 128 b0 0b 08
        E 64 80 40 00
        E 64 b0 0c 60
        E 0 b0 0b 3b
        E 0 90 3f 3b
        E 16 b0 0b 2a
        E 16 80 3f 00
        E 32 b0 0b 55
        E 0 90 3d 55
        E 48 b0 0b 3b
        E 16 b0 0b 2a
        E 16 80 3d 00
        E 32 b0 0b 55
        E 0 90 3b 55
        E 48 b0 0b 3b
        E 16 b0 0b 2a
        E 16 80 3b 00
        E 32 b0 0b 55
        E 0 90 38 55
        E 48 b0 0b 3b
        E 16 b0 0b 2a
        E 16 80 38 00
        E 32 b0 0b 55
        E 0 90 35 55
        E 48 b0 0b 3b
        E 16 b0 0b 2a
        E 16 80 35 00
        E 144 b0 0c 10
        E 0 b0 0b 55
        E 0 90 31 55
        E 32 b0 0b 44
        E 48 80 31 00
        E 144 b0 0b 55
        E 0 90 36 55
        E 32 b0 0b 44
        E 48 80 36 00
        E 144 b0 0b 7f
        E 0 90 2a 7f
        E 16 b0 0b 6e
        E 48 b0 0b 33
        E 32 b0 0b 08
        E 16 80 2a 00
        E 112 b0 0b 7f
        E 0 90 2a 7f
        E 16 b0 0b 33
        E 32 b0 0b 08
        E 16 80 2a 00
        E 48 b0 0b 7f
        E 0 90 2a 7f
        E 16 b0 0b 33
        E 32 b0 0b 08
        E 16 80 2a 00
        E 384 b0 0c 40
        E 0 b0 0b 22
        E 0 90 3f 22
        E 16 b0 0b 44
        E 16 b0 0b 55
        E 16 b0 0b 3b
        E 16 b0 0b 2a
        E 16 80 3f 00
        E 144 b0 0b 22
        E 0 90 3f 22
        E 16 b0 0b 44
        E 16 b0 0b 55
        E 16 b0 0b 3b
        E 16 b0 0b 2a
        E 80 b0 0b 33
        E 80 b0 0b 3b
        E 80 b0 0b 44
        E 80 b0 0b 4c
        E 32 80 3f 00
        E 32 b0 0b 22
        E 0 90 40 22
        E 16 b0 0b 44
        E 16 b0 0b 55
        E 16 b0 0b 3b
        E 16 b0 0b 2a
        E 16 80 40 00
        E 32 b0 0b 22
        E 0 90 41 22
        E 16 b0 0b 44
        E 16 b0 0b 55
        E 16 b0 0b 3b
        E 16 b0 0b 2a
        E 16 80 41 00
        E 32 b0 0b 22
        E 0 90 42 22
        E 16 b0 0b 44
        E 16 b0 0b 55
        E 16 b0 0b 3b
        E 16 b0 0b 2a
        E 16 80 42 00
        E 32 b0 0b 22
        E 0 90 3f 22
        E 16 b0 0b 44
        E 16 b0 0b 55
        E 16 b0 0b 3b
        E 16 b0 0b 2a
        E 16 80 3f 00
        E 144 b0 0b 22
        E 0 90 42 22
        E 16 b0 0b 44
        E 16 b0 0b 55
        E 16 b0 0b 3b
        E 16 b0 0b 2a
        E 16 80 42 00
        E 32 b0 0b 22
        E 0 90 4b 22
        E 16 b0 0b 44
        E 16 b0 0b 55
        E 16 b0 0b 3b
        E 16 b0 0b 2a
        E 16 80 4b 00
        E 32 b0 0b 22
        E 0 90 47 22
        E 16 b0 0b 44
        E 16 b0 0b 55
        E 16 b0 0b 3b
        E 16 b0 0b 2a
        E 16 80 47 00
        E 32 b0 0b 22
        E 0 90 42 22
        E 16 b0 0b 44
        E 16 b0 0b 55
        E 16 b0 0b 3b
        E 16 b0 0b 2a
        E 16 80 42 00
        E 32 b0 0b 22
        E 0 90 3f 22
        E 16 b0 0b 44
        E 16 b0 0b 55
        E 16 b0 0b 3b
        E 16 b0 0b 2a
        E 16 80 3f 00
        E 32 b0 0b 22
        E 0 90 3d 22
        E 16 b0 0b 44
        E 16 b0 0b 55
        E 16 b0 0b 3b
        E 16 b0 0b 2a
        E 16 80 3d 00
        E 144 b0 0b 22
        E 0 90 3d 22
        E 16 b0 0b 44
        E 16 b0 0b 55
        E 16 b0 0b 3b
        E 16 b0 0b 2a
        E 80 b0 0b 33
        E 80 b0 0b 3b
        E 80 80 3d 00
        E 32 b0 0b 22
        E 0 90 3a 22
        E 16 b0 0b 44
        E 16 b0 0b 55
        E 16 b0 0b 3b
        E 16 b0 0b 2a
        E 16 80 3a 00
        E 32 b0 0b 22
        E 0 90 41 22
        E 16 b0 0b 44
        E 16 b0 0b 55
        E 16 b0 0b 3b
        E 16 b0 0b 2a
        E 16 80 41 00
        E 32 b0 0b 22
        E 0 90 42 22
        E 16 b0 0b 44
        E 16 b0 0b 55
        E 16 b0 0b 3b
        E 16 b0 0b 2a
        E 16 80 42 00
        E 256 90 52 2a
        E 32 80 52 00
        E 80 90 50 2a
        E 32 80 50 00
        E 80 90 53 2a
        E 32 80 53 00
        E 80 90 52 2a
        E 32 80 52 00
        E 80 90 4e 2a
        E 32 80 4e 00
        E 80 90 49 2a
        E 32 80 49 00
        E 80 b0 0b 22
        E 0 90 3b 22
        E 16 b0 0b 44
        E 16 b0 0b 55
        E 16 b0 0b 3b
        E 16 b0 0b 2a
        E 16 80 3b 00
        E 144 b0 0b 22
        E 0 90 3b 22
        E 16 b0 0b 44
        E 16 b0 0b 55
        E 16 b0 0b 3b
        E 16 b0 0b 2a
        E 80 b0 0b 33
        E 80 b0 0b 3b
        E 80 80 3b 00
        E 32 b0 0b 22
        E 0 90 3b 22
        E 16 b0 0b 44
        E 16 b0 0b 55
        E 16 b0 0b 3b
        E 16 b0 0b 2a
        E 16 80 3b 00
        E 32 b0 0b 22
        E 0 90 3d 22
        E 16 b0 0b 44
        E 16 b0 0b 55
        E 16 b0 0b 3b
        E 16 b0 0b 2a
        E 16 80 3d 00
        E 32 b0 0b 22
        E 0 90 3e 22
        E 16 b0 0b 44
        E 16 b0 0b 55
        E 16 b0 0b 3b
        E 16 b0 0b 2a
        E 16 80 3e 00
        E 32 b0 0b 22
        E 0 90 3f 22
        E 16 b0 0b 44
        E 16 b0 0b 55
        E 16 b0 0b 3b
        E 16 b0 0b 2a
        E 16 80 3f 00
        E 32 b0 0b 22
        E 0 90 3b 22
        E 16 b0 0b 44
        E 16 b0 0b 55
        E 16 b0 0b 3b
        E 16 b0 0b 2a
        E 16 80 3b 00
        E 144 b0 0b 22
        E 0 90 3f 22
        E 16 b0 0b 44
        E 16 b0 0b 55
        E 16 b0 0b 11
        E 0 80 3f 00
        E 0 90 5f 11
        E 32 b0 0b 66
        E 0 80 5f 00
        E 0 90 17 66
        E 16 80 17 00
        E 32 b0 0b 55
        E 0 90 55 55
        E 16 80 55 00
        E 32 b0 0b 44
        E 0 90 50 44
        E 16 80 50 00
        E 32 b0 0b 33
        E 0 90 4a 33
        E 16 b0 0b 44
        E 0 80 4a 00
        E 0 90 3f 44
        E 16 b0 0b 55
        E 16 b0 0b 3b
        E 16 b0 0b 2a
        E 16 80 3f 00
        E 32 b0 0b 22
        E 0 90 3b 22
        E 16 b0 0b 44
        E 16 b0 0b 55
        E 16 b0 0b 3b
        E 16 b0 0b 2a
        E 16 80 3b 00
        E 32 b0 0b 22
        E 0 90 38 22
        E 16 b0 0b 44
        E 16 b0 0b 55
        E 16 b0 0b 3b
        E 16 b0 0b 2a
        E 16 80 38 00
        E 32 b0 0b 4c
        E 0 90 31 4c
        E 16 b0 0b 3b
        E 64 80 31 00
        E 256 b0 0b 4c
        E 0 90 32 4c
        E 16 b0 0b 3b
        E 64 80 32 00
        E 256 b0 0b 4c
        E 0 90 33 4c
        E 16 b0 0b 3b
        E 64 80 33 00
        E 96 b0 0b 33
        E 0 90 5f 33
        E 16 80 5f 00
        E 144 b0 0b 4c
        E 0 90 34 4c
        E 16 b0 0b 3b
        E 64 80 34 00
        E 144 b0 0b 4c
        E 0 90 31 4c
        E 16 b0 0b 3b
        E 32 80 31 00
        E 176 b0 0b 2a
        E 0 90 4c 2a
        E 16 80 4c 00
        E 96 90 4c 2a
        E 16 b0 0b 19
        E 48 80 4c 00
        E 160 b0 0b 22
        E 0 90 3f 22
        E 16 b0 0b 44
        E 16 b0 0b 55
        E 16 b0 0b 3b
        E 16 b0 0b 2a
        E 16 80 3f 00
        E 144 b0 0b 22
        E 0 90 3f 22
        E 16 b0 0b 44
        E 16 b0 0b 55
        E 16 b0 0b 3b
        E 16 b0 0b 2a
        E 80 b0 0b 33
        E 80 b0 0b 3b
        E 80 b0 0b 44
        E 80 b0 0b 4c
        E 32 80 3f 00
        E 32 b0 0b 22
        E 0 90 40 22
        E 16 b0 0b 44
        E 16 b0 0b 55
        E 16 b0 0b 3b
        E 16 b0 0b 2a
        E 16 80 40 00
        E 32 b0 0b 22
        E 0 90 41 22
        E 16 b0 0b 44
        E 16 b0 0b 55
        E 16 b0 0b 3b
        E 16 b0 0b 2a
        E 16 80 41 00
        E 32 b0 0b 22
        E 0 90 42 22
        E 16 b0 0b 44
        E 16 b0 0b 55
        E 16 b0 0b 3b
        E 16 b0 0b 2a
        E 16 80 42 00
        E 32 b0 0b 22
        E 0 90 3f 22
        E 16 b0 0b 44
        E 16 b0 0b 55
        E 16 b0 0b 3b
        E 16 b0 0b 2a
        E 16 80 3f 00
        E 144 b0 0b 22
        E 0 90 42 22
        E 16 b0 0b 44
        E 16 b0 0b 55
        E 16 b0 0b 3b
        E 16 b0 0b 2a
        E 16 80 42 00
        E 32 b0 0b 22
        E 0 90 4b 22
        E 16 b0 0b 44
        E 16 b0 0b 55
        E 16 b0 0b 3b
        E 16 b0 0b 2a
        E 16 80 4b 00
        E 32 b0 0b 22
        E 0 90 47 22
        E 16 b0 0b 44
        E 16 b0 0b 55
        E 16 b0 0b 3b
        E 16 b0 0b 2a
        E 16 80 47 00
        E 32 b0 0b 22
        E 0 90 42 22
        E 16 b0 0b 44
        E 16 b0 0b 55
        E 16 b0 0b 3b
        E 16 b0 0b 2a
        E 16 80 42 00
        E 32 b0 0b 22
        E 0 90 3f 22
        E 16 b0 0b 44
        E 16 b0 0b 55
        E 16 b0 0b 3b
        E 16 b0 0b 2a
        E 16 80 3f 00
        E 32 b0 0b 22
        E 0 90 3d 22
        E 16 b0 0b 44
        E 16 b0 0b 55
        E 16 b0 0b 3b
        E 16 b0 0b 2a
        E 16 80 3d 00
        E 144 b0 0b 22
        E 0 90 3d 22
        E 16 b0 0b 44
        E 16 b0 0b 55
        E 16 b0 0b 3b
        E 16 b0 0b 2a
        E 80 b0 0b 33
        E 80 b0 0b 3b
        E 80 80 3d 00
        E 32 b0 0b 22
        E 0 90 3a 22
        E 16 b0 0b 44
        E 16 b0 0b 55
        E 16 b0 0b 3b
        E 16 b0 0b 2a
        E 16 80 3a 00
        E 32 b0 0b 22
        E 0 90 41 22
        E 16 b0 0b 44
        E 16 b0 0b 55
        E 16 b0 0b 3b
        E 16 b0 0b 2a
        E 16 80 41 00
        E 32 b0 0b 22
        E 0 90 42 22
        E 16 b0 0b 44
        E 16 b0 0b 55
        E 16 b0 0b 3b
        E 16 b0 0c 20
        E 0 b0 0b 7f
        E 0 80 42 00
        E 0 90 3c 7f
        E 32 80 3c 00
        E 0 90 37 7f
        E 32 80 37 00
        E 0 90 2d 7f
        E 32 80 2d 00
        E 0 90 34 7f
        E 16 b0 0b 22
        E 32 b0 0b 7f
        E 0 80 34 00
        E 0 90 2d 7f
        E 16 b0 0b 22
        E 32 b0 0b 7f
        E 0 80 2d 00
        E 0 90 32 7f
        E 16 b0 0b 22
        E 32 b0 0b 6e
        E 0 80 32 00
        E 0 90 33 6e
        E 16 b0 0b 11
        E 32 80 33 00
        E 0 90 22 11
        E 32 b0 0c 60
        E 0 b0 0b 7f
        E 0 80 22 00
        E 0 90 15 7f
        E 16 b0 0b 66
        E 16 b0 0b 22
        E 32 b0 0b 7f
        E 0 80 15 00
        E 0 90 2b 7f
        E 16 80 2b 00
        E 0 90 31 7f
        E 16 80 31 00
        E 0 90 34 7f
        E 16 80 34 00
        E 0 90 38 7f
        E 16 80 38 00
        E 0 90 3b 7f
        E 16 80 3b 00
        E 0 90 3d 7f
        E 16 80 3d 00
        E 0 90 40 7f
        E 16 b0 0c 40
        E 0 b0 0b 3b
        E 128 b0 0b 22
        E 64 80 40 00
        E 64 90 40 22
        E 128 b0 0b 08
        E 64 80 40 00
        E 64 b0 0b 2a
        E 0 90 3b 2a
        E 16 80 3b 00
        E 144 b0 0b 22
        E 0 90 3b 22
        E 16 b0 0b 44
        E 16 b0 0b 55
        E 16 b0 0b 3b
        E 16 b0 0b 2a
        E 80 b0 0b 33
        E 80 b0 0b 3b
        E 80 80 3b 00
        E 32 b0 0b 22
        E 0 90 3b 22
        E 16 b0 0b 44
        E 16 b0 0b 55
        E 16 b0 0b 3b
        E 16 b0 0b 2a
        E 16 80 3b 00
        E 32 b0 0b 22
        E 0 90 3d 22
        E 16 b0 0b 44
        E 16 b0 0b 55
        E 16 b0 0b 3b
        E 16 b0 0b 2a
        E 16 80 3d 00
        E 32 b0 0b 22
        E 0 90 3e 22
        E 16 b0 0b 44
        E 16 b0 0b 55
        E 16 b0 0b 3b
        E 16 b0 0b 2a
        E 16 80 3e 00
        E 32 b0 0b 22
        E 0 90 3f 22
        E 16 b0 0b 44
        E 16 b0 0b 55
        E 16 b0 0b 3b
        E 16 b0 0b 2a
        E 16 80 3f 00
        E 32 b0 0b 22
        E 0 90 3b 22
        E 16 b0 0b 44
        E 16 b0 0b 55
        E 16 b0 0b 3b
        E 16 b0 0b 2a
        E 16 80 3b 00
        E 144 b0 0b 22
        E 0 90 3f 22
        E 16 b0 0b 44
        E 16 b0 0b 55
        E 16 b0 0b 3b
        E 16 b0 0b 2a
        E 16 80 3f 00
        E 32 b0 0b 22
        E 0 90 44 22
        E 16 b0 0b 44
        E 16 b0 0b 55
        E 16 b0 0b 3b
        E 16 b0 0b 2a
        E 16 80 44 00
        E 32 b0 0b 22
        E 0 90 3f 22
        E 16 b0 0b 44
        E 16 b0 0b 55
        E 16 b0 0b 3b
        E 16 b0 0b 2a
        E 16 80 3f 00
        E 32 b0 0b 22
        E 0 90 3b 22
        E 16 b0 0b 44
        E 16 b0 0b 55
        E 16 b0 0b 3b
        E 16 b0 0b 2a
        E 16 80 3b 00
        E 32 b0 0b 22
        E 0 90 38 22
        E 16 b0 0b 44
        E 16 b0 0b 55
        E 16 b0 0b 3b
        E 16 b0 0b 2a
        E 16 80 38 00
        E 32 b0 0b 22
        E 0 90 3d 22
        E 16 b0 0b 44
        E 16 b0 0b 55
        E 16 b0 0b 3b
        E 16 b0 0b 2a
        E 16 80 3d 00
        E 32 b0 0b 22
        E 0 90 3f 22
        E 16 b0 0b 44
        E 16 b0 0b 55
        E 16 b0 0b 3b
        E 16 b0 0b 2a
        E 16 80 3f 00
        E 144 b0 0b 22
        E 0 90 40 22
        E 16 b0 0b 44
        E 16 b0 0b 55
        E 16 b0 0b 3b
        E 16 b0 0b 2a
        E 16 80 40 00
        E 32 b0 0b 22
        E 0 90 41 22
        E 16 b0 0b 44
        E 16 b0 0b 55
        E 16 b0 0b 3b
        E 16 b0 0b 2a
        E 16 b0 0c 10
        E 0 b0 0b 11
        E 0 80 41 00
        E 0 90 5f 11
        E 32 b0 0c 40
        E 0 b0 0b 66
        E 0 80 5f 00
        E 0 90 17 66
        E 16 80 17 00
        E 32 b0 0b 55
        E 0 90 55 55
        E 16 80 55 00
        E 32 b0 0b 44
        E 0 90 50 44
        E 16 80 50 00
        E 32 b0 0b 33
        E 0 90 4a 33
        E 16 80 4a 00
        E 64 b0 0b 22
        E 0 90 3e 22
        E 16 b0 0b 44
        E 16 b0 0b 55
        E 16 b0 0b 3b
        E 16 b0 0b 2a
        E 16 80 3e 00
        E 32 b0 0b 22
        E 0 90 3d 22
        E 16 b0 0b 44
        E 16 b0 0b 55
        E 16 b0 0b 3b
        E 16 b0 0b 2a
        E 16 80 3d 00
        E 144 b0 0c 10
        E 0 b0 0b 7f
        E 0 90 19 7f
        E 32 b0 0b 6e
        E 16 b0 0b 22
        E 64 b0 0b 7f
        E 32 b0 0b 6e
        E 16 b0 0b 22
        E 128 80 19 00
        E 160 b0 0b 2a
        E 0 90 19 2a
        E 32 b0 0b 19
        E 80 80 19 00
        E 112 b0 0c 60
        E 0 b0 0b 5d
        E 0 90 3a 5d
        E 48 b0 0b 44
        E 16 b0 0b 33
        E 16 80 3a 00
        E 144 b0 0b 4c
        E 0 90 3a 4c
        E 48 80 3a 00
        E 32 b0 0b 3b
        E 0 90 3a 3b
        E 48 80 3a 00
        E 32 b0 0b 2a
        E 0 90 3a 2a
        E 48 80 3a 00
        E 32 b0 0b 19
        E 0 90 3a 19
        E 48 80 3a 00
        E 32 b0 0b 08
        E 0 90 3a 08
        E 48 b0 0c 20
        E 0 b0 0b 7f
        E 0 80 3a 00
        E 0 90 3c 7f
        E 32 80 3c 00
        E 0 90 37 7f
        E 32 80 37 00
        E 0 90 2d 7f
        E 32 80 2d 00
        E 0 90 34 7f
        E 16 b0 0b 22
        E 32 b0 0b 7f
        E 0 80 34 00
        E 0 90 2d 7f
        E 16 b0 0b 22
        E 32 b0 0b 7f
        E 0 80 2d 00
        E 0 90 32 7f
        E 16 b0 0b 22
        E 32 b0 0b 6e
        E 0 80 32 00
        E 0 90 33 6e
        E 16 b0 0b 11
        E 32 80 33 00
        E 0 90 22 11
        E 32 b0 0c 60
        E 0 b0 0b 7f
        E 0 80 22 00
        E 0 90 15 7f
        E 16 b0 0b 66
        E 16 b0 0b 22
        E 32 b0 0b 7f
        E 0 80 15 00
        E 0 90 2b 7f
        E 16 80 2b 00
        E 0 90 31 7f
        E 16 80 31 00
        E 0 90 34 7f
        E 16 80 34 00
        E 0 90 38 7f
        E 16 80 38 00
        E 0 90 3b 7f
        E 16 80 3b 00
        E 0 90 3d 7f
        E 16 80 3d 00
        E 0 90 40 7f
        E 16 b0 0c 40
        E 0 b0 0b 3b
        E 128 b0 0b 22
        E 64 80 40 00
        E 64 90 40 22
        E 128 b0 0b 08
        E 64 80 40 00
        E 64 b0 0c 60
        E 0 b0 0b 55
        E 0 90 36 55
        E 16 b0 0b 3b
        E 16 b0 0b 2a
        E 16 80 36 00
        E 32 b0 0b 55
        E 0 90 31 55
        E 48 b0 0b 3b
        E 16 b0 0b 2a
        E 16 80 31 00
        E 32 b0 0b 55
        E 0 90 3a 55
        E 48 b0 0b 3b
        E 16 b0 0b 2a
        E 16 80 3a 00
        E 32 b0 0b 55
        E 0 90 3b 55
        E 48 b0 0b 3b
        E 16 b0 0b 2a
        E 16 80 3b 00
        E 32 b0 0b 55
        E 0 90 3c 55
        E 48 b0 0b 3b
        E 16 b0 0b 2a
        E 16 80 3c 00
        E 32 b0 0b 55
        E 0 90 3d 55
        E 48 b0 0b 3b
        E 16 b0 0b 2a
        E 16 80 3d 00
        E 144 b0 0c 10
        E 0 b0 0b 3b
        E 0 90 57 3b
        E 32 b0 0b 2a
        E 32 80 57 00
        E 48 b0 0b 3b
        E 0 90 59 3b
        E 32 b0 0b 2a
        E 32 80 59 00
        E 48 b0 0b 3b
        E 0 90 5a 3b
        E 32 b0 0b 2a
        E 32 80 5a 00
        E 64 b0 0c 40
        E 0 b0 0b 44
        E 0 90 5d 44
        E 32 b0 0b 4c
        E 16 b0 0b 44
        E 0 80 5d 00
        E 0 90 55 44
        E 32 b0 0b 3b
        E 0 80 55 00
        E 0 90 5f 3b
        E 32 b0 0b 44
        E 0 80 5f 00
        E 0 90 58 44
        E 48 b0 0b 3b
        E 0 80 58 00
        E 0 90 5a 3b
        E 32 80 5a 00
        E 688 b0 0c 60
        E 0 b0 0b 5d
        E 0 90 38 5d
        E 48 b0 0b 44
        E 16 b0 0b 33
        E 16 80 38 00
        E 144 b0 0b 4c
        E 0 90 38 4c
        E 48 80 38 00
        E 32 b0 0b 3b
        E 0 90 38 3b
        E 48 80 38 00
        E 32 b0 0b 2a
        E 0 90 38 2a
        E 48 80 38 00
        E 32 b0 0b 19
        E 0 90 38 19
        E 48 80 38 00
        E 32 b0 0b 08
        E 0 90 38 08
        E 48 80 38 00
        E 80 b0 0b 55
        E 0 90 39 55
        E 48 b0 0b 3b
        E 16 b0 0b 2a
        E 16 80 39 00
        E 32 b0 0b 55
        E 0 90 3a 55
        E 48 b0 0b 3b
        E 16 b0 0b 2a
        E 16 80 3a 00
        E 32 b0 0b 55
        E 0 90 3b 55
        E 48 b0 0b 3b
        E 16 b0 0b 2a
        E 16 80 3b 00
        E 32 b0 0b 55
        E 0 90 3d 55
        E 48 b0 0b 3b
        E 16 b0 0b 2a
        E 16 80 3d 00
        E 32 b0 0b 55
        E 0 90 3b 55
        E 48 b0 0b 3b
        E 16 b0 0b 2a
        E 16 80 3b 00
        E 32 b0 0c 40
        E 0 b0 0b 11
        E 0 90 5f 11
        E 32 b0 0b 66
        E 0 80 5f 00
        E 0 90 17 66
        E 16 80 17 00
        E 32 b0 0b 55
        E 0 90 55 55
        E 16 80 55 00
        E 32 b0 0b 44
        E 0 90 50 44
        E 16 80 50 00
        E 32 b0 0b 33
        E 0 90 4a 33
        E 16 80 4a 00
        E 32 b0 0c 60
        E 0 b0 0b 55
        E 0 90 3d 55
        E 48 b0 0b 3b
        E 16 b0 0b 2a
        E 16 80 3d 00
        E 32 b0 0b 55
        E 0 90 41 55
        E 48 b0 0b 3b
        E 16 b0 0b 2a
        E 16 80 41 00
        E 32 b0 0b 55
        E 0 90 3f 55
        E 48 b0 0b 3b
        E 16 b0 0b 2a
        E 16 80 3f 00
        E 32 b0 0b 55
        E 0 90 3d 55
        E 48 b0 0b 3b
        E 16 b0 0b 2a
        E 16 80 3d 00
        E 32 b0 0b 55
        E 0 90 3b 55
        E 48 b0 0b 3b
        E 16 b0 0b 2a
        E 16 80 3b 00
        E 32 b0 0b 55
        E 0 90 38 55
        E 48 b0 0b 3b
        E 16 b0 0b 2a
        E 16 80 38 00
        E 32 b0 0b 55
        E 0 90 35 55
        E 48 b0 0b 3b
        E 16 b0 0b 2a
        E 16 80 35 00
        E 144 b0 0c 10
        E 0 b0 0b 6e
        E 0 90 31 6e
        E 32 b0 0b 5d
        E 48 b0 0b 11
        E 32 b0 0b 6e
        E 0 80 31 00
        E 0 90 2f 6e
        E 32 b0 0b 5d
        E 48 b0 0b 11
        E 32 b0 0b 6e
        E 0 80 2f 00
        E 0 90 2c 6e
        E 32 b0 0b 5d
        E 48 b0 0b 11
        E 32 b0 0b 6e
        E 0 80 2c 00
        E 0 90 29 6e
        E 32 b0 0b 5d
        E 48 b0 0b 11
        E 64 b0 0c 20
        E 0 b0 0b 7f
        E 0 80 29 00
        E 0 90 3c 7f
        E 32 80 3c 00
        E 0 90 37 7f
        E 32 80 37 00
        E 0 90 2d 7f
        E 32 80 2d 00
        E 0 90 34 7f
        E 16 b0 0b 22
        E 32 b0 0b 7f
        E 0 80 34 00
        E 0 90 2d 7f
        E 16 b0 0b 22
        E 32 b0 0b 7f
        E 0 80 2d 00
        E 0 90 32 7f
        E 16 b0 0b 22
        E 32 b0 0b 6e
        E 0 80 32 00
        E 0 90 33 6e
        E 16 b0 0b 11
        E 32 80 33 00
        E 0 90 22 11
        E 32 b0 0c 60
        E 0 b0 0b 7f
        E 0 80 22 00
        E 0 90 15 7f
        E 16 b0 0b 66
        E 16 b0 0b 22
        E 32 b0 0b 7f
        E 0 80 15 00
        E 0 90 2b 7f
        E 16 80 2b 00
        E 0 90 31 7f
        E 16 80 31 00
        E 0 90 34 7f
        E 16 80 34 00
        E 0 90 38 7f
        E 16 80 38 00
        E 0 90 3b 7f
        E 16 80 3b 00
        E 0 90 3d 7f
        E 16 80 3d 00
        E 0 90 40 7f
        E 16 b0 0c 40
        E 0 b0 0b 3b
        E 128 b0 0b 22
        E 64 80 40 00
        E 64 90 40 22
        E 128 b0 0b 08
        E 64 80 40 00
        E 64 b0 0c 60
        E 0 b0 0b 4c
        E 0 90 3a 4c
        E 16 80 3a 00
        E 32 b0 0b 3b
        E 0 90 3a 3b
        E 48 80 3a 00
        E 32 b0 0b 2a
        E 0 90 3a 2a
        E 48 80 3a 00
        E 32 b0 0b 19
        E 0 90 3a 19
        E 48 80 3a 00
        E 32 b0 0b 08
        E 0 90 3a 08
        E 48 80 3a 00
        E 80 b0 0b 55
        E 0 90 3b 55
        E 48 b0 0b 3b
        E 16 b0 0b 2a
        E 16 80 3b 00
        E 32 b0 0b 55
        E 0 90 3c 55
        E 48 b0 0b 3b
        E 16 b0 0b 2a
        E 16 80 3c 00
        E 32 b0 0b 55
        E 0 90 3d 55
        E 48 b0 0b 3b
        E 16 b0 0b 2a
        E 16 80 3d 00
        E 32 b0 0b 55
        E 0 90 3f 55
        E 48 b0 0b 3b
        E 16 b0 0b 2a
        E 16 80 3f 00
        E 32 b0 0b 55
        E 0 90 3d 55
        E 48 b0 0b 3b
        E 16 b0 0b 2a
        E 16 80 3d 00
        E 32 b0 0b 55
        E 0 90 3f 55
        E 48 b0 0b 3b
        E 16 b0 0b 2a
        E 16 80 3f 00
        E 32 b0 0b 55
        E 0 90 3d 55
        E 48 b0 0b 3b
        E 16 b0 0b 2a
        E 16 80 3d 00
        E 32 b0 0b 55
        E 0 90 3a 55
        E 48 b0 0b 3b
        E 16 b0 0b 2a
        E 16 80 3a 00
        E 32 b0 0b 55
        E 0 90 36 55
        E 48 b0 0b 3b
        E 16 b0 0b 2a
        E 16 80 36 00
        E 32 b0 0b 55
        E 0 90 31 55
        E 48 b0 0b 3b
        E 16 b0 0b 2a
        E 16 80 31 00
        E 32 b0 0b 55
        E 0 90 3a 55
        E 48 b0 0b 3b
        E 16 b0 0b 2a
        E 16 80 3a 00
        E 32 b0 0b 55
        E 0 90 3b 55
        E 48 b0 0b 3b
        E 16 b0 0b 2a
        E 16 80 3b 00
        E 32 b0 0b 55
        E 0 90 3c 55
        E 48 b0 0b 3b
        E 16 b0 0b 2a
        E 16 80 3c 00
        E 32 b0 0b 55
        E 0 90 3d 55
        E 48 b0 0b 3b
        E 16 b0 0b 2a
        E 16 80 3d 00
        E 144 b0 0c 10
        E 0 b0 0b 3b
        E 0 90 57 3b
        E 32 b0 0b 2a
        E 32 80 57 00
        E 48 b0 0b 3b
        E 0 90 59 3b
        E 32 b0 0b 2a
        E 32 80 59 00
        E 48 b0 0b 3b
        E 0 90 5a 3b
        E 16 80 5a 00
        E 0 b0 7b 00
        E 0 ff 2f 00
      >
    >
  >
  <TRACK {B3080E7B-20D6-4BE7-A9D7-21B7A0532AD0}
    NAME "NES - Pulse 2 [ch1]"
    PEAKCOL 10092441
    BEAT -1
    AUTOMODE 0
    PANLAWFLAGS 3
    VOLPAN 1 0 -1 -1 1
    MUTESOLO 0 0 0
    IPHASE 0
    PLAYOFFS 0 1
    ISBUS 0 0
    BUSCOMP 0 0 0 0 0
    SHOWINMIX 1 0.6667 0.5 1 0.5 0 0 0
    FIXEDLANES 9 0 0 0 0
    SEL 0
    REC 0 5088 1 0 0 0 0 0
    VU 2
    TRACKHEIGHT 0 0 0 0 0 0 0
    INQ 0 0 0 0.5 100 0 0 100
    NCHAN 2
    FX 1
    TRACKID {B3080E7B-20D6-4BE7-A9D7-21B7A0532AD0}
    PERF 0
    MIDIOUT -1
    MAINSEND 1 0
    <FXCHAIN
      WNDRECT 24 52 700 560
      SHOW 0
      LASTSEL 0
      DOCKED 0
      BYPASS 0 0 0
      <JS "ReapNES Studio/ReapNES_Console.jsfx" ""
        2 15 1 10 80 10 100 2 1 15 1 5 60 10 80 1 1 0 50 0 0 15 1 0 100 0 0 0.500000 0.500000 0.400000 0.300000 0.800000 1 1 0 0 0 0 - - - - - - - - - - - - - - - - - - - - - - - - - -
      >
      FLOATPOS 0 0 0 0
      FXID {0990F9F4-3B60-4E06-BCE1-6CBC55EE70C1}
      WAK 0 0
    >
    <ITEM
      POSITION 0
      LENGTH 74.5412153
      LOOP 0
      ALLTAKES 0
      FADEIN 0 0 0 0 0 0 0
      FADEOUT 0 0 0 0 0 0 0
      MUTE 0 0
      SEL 0
      IGUID {0EB14545-DB15-4417-9870-FD781C906847}
      <SOURCE MIDI
        HASDATA 1 480 QN
        CCINTERP 32
        E 0 c1 51
        E 0 b1 0c 40
        E 0 b1 0b 7f
        E 0 91 1a 7f
        E 16 b1 0c 60
        E 0 b1 0b 77
        E 16 b1 0b 6e
        E 16 b1 0b 66
        E 16 b1 0b 22
        E 64 81 1a 00
        E 128 b1 0c 40
        E 0 b1 0b 66
        E 0 91 2b 66
        E 16 b1 0b 55
        E 48 81 2b 00
        E 64 b1 0b 2a
        E 0 91 37 2a
        E 16 b1 0b 19
        E 48 81 37 00
        E 192 b1 0b 7f
        E 0 91 15 7f
        E 16 b1 0c 60
        E 0 b1 0b 77
        E 16 b1 0b 6e
        E 16 b1 0b 66
        E 16 b1 0b 22
        E 64 b1 0c 40
        E 0 b1 0b 7f
        E 0 81 15 00
        E 0 91 1a 7f
        E 16 b1 0c 60
        E 0 b1 0b 77
        E 16 b1 0b 6e
        E 16 b1 0b 66
        E 16 b1 0b 22
        E 64 81 1a 00
        E 128 b1 0c 40
        E 0 b1 0b 66
        E 0 91 2b 66
        E 16 b1 0b 55
        E 48 81 2b 00
        E 64 b1 0b 7f
        E 0 91 1a 7f
        E 16 b1 0c 60
        E 0 b1 0b 77
        E 16 b1 0b 6e
        E 16 b1 0b 66
        E 16 b1 0b 22
        E 64 81 1a 00
        E 128 b1 0c 40
        E 0 b1 0b 66
        E 0 91 2b 66
        E 16 b1 0b 55
        E 48 81 2b 00
        E 64 b1 0b 7f
        E 0 91 1a 7f
        E 16 b1 0c 60
        E 0 b1 0b 77
        E 16 b1 0b 6e
        E 16 b1 0b 66
        E 16 b1 0b 22
        E 64 81 1a 00
        E 128 b1 0c 40
        E 0 b1 0b 66
        E 0 91 2b 66
        E 16 b1 0b 55
        E 48 81 2b 00
        E 64 b1 0b 66
        E 0 91 2d 66
        E 16 b1 0b 55
        E 64 81 2d 00
        E 176 b1 0b 66
        E 0 91 2b 66
        E 16 b1 0b 55
        E 48 81 2b 00
        E 64 b1 0b 7f
        E 0 91 1a 7f
        E 16 b1 0c 60
        E 0 b1 0b 77
        E 16 b1 0b 6e
        E 16 b1 0b 66
        E 16 b1 0b 22
        E 64 81 1a 00
        E 128 b1 0c 40
        E 0 b1 0b 66
        E 0 91 26 66
        E 16 b1 0b 55
        E 48 81 26 00
        E 64 b1 0b 7f
        E 0 91 1a 7f
        E 16 b1 0c 60
        E 0 b1 0b 77
        E 16 b1 0b 6e
        E 16 b1 0b 66
        E 16 b1 0b 22
        E 64 81 1a 00
        E 128 b1 0c 40
        E 0 b1 0b 7f
        E 0 91 1a 7f
        E 16 b1 0c 60
        E 0 b1 0b 77
        E 16 b1 0b 6e
        E 16 b1 0b 66
        E 16 b1 0b 22
        E 64 b1 0c 40
        E 0 b1 0b 66
        E 0 81 1a 00
        E 0 91 26 66
        E 16 b1 0b 55
        E 64 81 26 00
        E 48 b1 0b 6e
        E 0 91 21 6e
        E 16 b1 0b 5d
        E 64 81 21 00
        E 48 b1 0b 77
        E 0 91 1a 77
        E 16 b1 0b 66
        E 64 81 1a 00
        E 48 b1 0b 7f
        E 0 91 1c 7f
        E 16 b1 0c 60
        E 0 b1 0b 77
        E 16 b1 0b 6e
        E 16 b1 0b 66
        E 16 b1 0b 22
        E 64 81 1c 00
        E 128 b1 0c 40
        E 0 b1 0b 7f
        E 0 91 17 7f
        E 16 b1 0c 60
        E 0 b1 0b 77
        E 16 b1 0b 6e
        E 16 b1 0b 66
        E 16 b1 0b 22
        E 64 b1 0c 40
        E 0 b1 0b 7f
        E 0 81 17 00
        E 0 91 21 7f
        E 16 b1 0c 60
        E 0 b1 0b 77
        E 16 b1 0b 6e
        E 16 b1 0b 66
        E 16 b1 0b 22
        E 64 b1 0c 40
        E 0 b1 0b 7f
        E 0 81 21 00
        E 0 91 15 7f
        E 16 b1 0c 60
        E 0 b1 0b 77
        E 16 b1 0b 6e
        E 16 b1 0b 66
        E 16 b1 0b 22
        E 64 b1 0c 40
        E 0 b1 0b 7f
        E 0 81 15 00
        E 0 91 1c 7f
        E 16 b1 0c 60
        E 0 b1 0b 77
        E 16 b1 0b 6e
        E 16 b1 0b 66
        E 16 b1 0b 22
        E 64 b1 0c 40
        E 0 b1 0b 7f
        E 0 81 1c 00
        E 0 91 21 7f
        E 16 b1 0c 60
        E 0 b1 0b 77
        E 16 b1 0b 6e
        E 16 b1 0b 66
        E 16 b1 0b 22
        E 64 81 21 00
        E 128 b1 0c 40
        E 0 b1 0b 77
        E 0 91 28 77
        E 16 b1 0c 60
        E 0 b1 0b 6e
        E 16 b1 0b 66
        E 16 b1 0b 5d
        E 16 b1 0b 19
        E 64 b1 0c 40
        E 0 b1 0b 77
        E 16 b1 0c 60
        E 0 b1 0b 6e
        E 16 b1 0b 66
        E 16 b1 0b 5d
        E 16 b1 0b 55
        E 16 b1 0b 4c
        E 16 b1 0b 44
        E 16 b1 0b 3b
        E 32 b1 0b 19
        E 64 81 28 00
        E 176 b1 0c 40
        E 0 b1 0b 7f
        E 0 91 1c 7f
        E 16 b1 0c 60
        E 0 b1 0b 77
        E 16 b1 0b 6e
        E 16 b1 0b 66
        E 16 b1 0b 5d
        E 16 b1 0b 55
        E 16 b1 0b 4c
        E 16 b1 0b 44
        E 32 b1 0b 22
        E 64 81 1c 00
        E 48 b1 0c 40
        E 0 b1 0b 7f
        E 0 91 1c 7f
        E 16 b1 0c 60
        E 0 b1 0b 77
        E 16 b1 0b 6e
        E 16 b1 0b 66
        E 16 b1 0b 22
        E 64 81 1c 00
        E 2416 b1 0c 40
        E 0 b1 0b 7f
        E 0 91 19 7f
        E 16 b1 0c 60
        E 0 b1 0b 77
        E 16 b1 0b 6e
        E 16 b1 0b 22
        E 64 b1 0c 40
        E 0 b1 0b 7f
        E 0 81 19 00
        E 0 91 25 7f
        E 16 b1 0c 60
        E 0 b1 0b 77
        E 16 b1 0b 6e
        E 16 b1 0b 22
        E 64 81 25 00
        E 112 b1 0c 40
        E 0 b1 0b 7f
        E 0 91 25 7f
        E 16 b1 0c 60
        E 0 b1 0b 77
        E 16 b1 0b 6e
        E 16 b1 0b 22
        E 64 b1 0c 40
        E 0 b1 0b 7f
        E 0 81 25 00
        E 0 91 23 7f
        E 16 b1 0c 60
        E 0 b1 0b 77
        E 16 b1 0b 6e
        E 16 b1 0b 22
        E 64 81 23 00
        E 112 b1 0c 40
        E 0 b1 0b 7f
        E 0 91 22 7f
        E 16 b1 0c 60
        E 0 b1 0b 77
        E 16 b1 0b 6e
        E 16 b1 0b 22
        E 64 81 22 00
        E 112 b1 0c 40
        E 0 b1 0b 7f
        E 0 91 20 7f
        E 16 b1 0c 60
        E 0 b1 0b 77
        E 16 b1 0b 6e
        E 16 b1 0b 22
        E 64 81 20 00
        E 112 b1 0c 40
        E 0 b1 0b 3b
        E 0 91 50 3b
        E 32 b1 0c 20
        E 0 b1 0b 2a
        E 16 b1 0c 10
        E 0 b1 0b 22
        E 16 81 50 00
        E 48 b1 0c 40
        E 0 b1 0b 19
        E 0 91 50 19
        E 32 b1 0c 20
        E 0 b1 0b 08
        E 16 81 50 00
        E 64 b1 0c 40
        E 0 b1 0b 3b
        E 0 91 55 3b
        E 32 b1 0c 20
        E 0 b1 0b 2a
        E 16 b1 0c 10
        E 0 b1 0b 22
        E 16 81 55 00
        E 48 b1 0c 40
        E 0 b1 0b 19
        E 0 91 55 19
        E 32 b1 0c 20
        E 0 b1 0b 08
        E 16 81 55 00
        E 64 b1 0c 40
        E 0 b1 0b 7f
        E 0 91 19 7f
        E 16 b1 0c 60
        E 0 b1 0b 77
        E 16 b1 0b 6e
        E 16 b1 0b 22
        E 64 b1 0c 40
        E 0 b1 0b 7f
        E 16 b1 0c 60
        E 0 b1 0b 77
        E 16 b1 0b 6e
        E 16 b1 0b 22
        E 64 b1 0c 40
        E 0 b1 0b 7f
        E 0 81 19 00
        E 0 91 1e 7f
        E 16 b1 0c 60
        E 0 b1 0b 77
        E 16 b1 0b 6e
        E 16 b1 0b 66
        E 16 b1 0b 5d
        E 16 b1 0b 55
        E 16 b1 0b 4c
        E 16 b1 0b 44
        E 32 b1 0b 3b
        E 16 b1 0b 22
        E 64 b1 0c 40
        E 0 b1 0b 55
        E 0 81 1e 00
        E 0 91 2a 55
        E 16 b1 0c 60
        E 0 b1 0b 4c
        E 16 b1 0b 44
        E 16 b1 0b 3b
        E 16 81 2a 00
        E 48 b1 0c 40
        E 0 b1 0b 66
        E 0 91 19 66
        E 16 b1 0c 60
        E 0 b1 0b 5d
        E 16 b1 0b 55
        E 16 b1 0b 4c
        E 16 b1 0b 44
        E 16 b1 0b 3b
        E 16 b1 0b 33
        E 16 b1 0b 2a
        E 32 b1 0b 22
        E 16 b1 0b 08
        E 64 b1 0c 40
        E 0 b1 0b 66
        E 16 b1 0c 60
        E 0 b1 0b 5d
        E 16 b1 0b 55
        E 16 b1 0b 4c
        E 16 b1 0b 44
        E 16 b1 0b 3b
        E 16 b1 0b 33
        E 16 b1 0b 2a
        E 32 b1 0b 22
        E 16 b1 0b 08
        E 64 b1 0c 40
        E 0 b1 0b 5d
        E 0 81 19 00
        E 0 91 2a 5d
        E 16 b1 0c 60
        E 0 b1 0b 55
        E 16 b1 0b 4c
        E 16 b1 0b 44
        E 16 81 2a 00
        E 48 b1 0c 40
        E 0 b1 0b 7f
        E 0 91 1e 7f
        E 16 b1 0c 60
        E 0 b1 0b 77
        E 16 b1 0b 6e
        E 16 b1 0b 66
        E 16 b1 0b 5d
        E 16 b1 0b 55
        E 16 b1 0b 4c
        E 16 b1 0b 44
        E 32 b1 0b 3b
        E 16 b1 0b 22
        E 64 b1 0c 40
        E 0 b1 0b 55
        E 0 81 1e 00
        E 0 91 2a 55
        E 16 b1 0c 60
        E 0 b1 0b 4c
        E 16 b1 0b 44
        E 16 b1 0b 3b
        E 16 81 2a 00
        E 48 b1 0c 40
        E 0 b1 0b 66
        E 0 91 19 66
        E 16 b1 0c 60
        E 0 b1 0b 5d
        E 16 b1 0b 55
        E 16 b1 0b 4c
        E 16 b1 0b 44
        E 16 b1 0b 3b
        E 16 b1 0b 33
        E 16 b1 0b 2a
        E 32 b1 0b 22
        E 16 b1 0b 08
        E 64 b1 0c 40
        E 0 b1 0b 66
        E 16 b1 0c 60
        E 0 b1 0b 5d
        E 16 b1 0b 55
        E 16 b1 0b 4c
        E 16 b1 0b 44
        E 16 b1 0b 3b
        E 16 b1 0b 33
        E 16 b1 0b 2a
        E 32 b1 0b 22
        E 16 b1 0b 08
        E 64 b1 0c 40
        E 0 b1 0b 5d
        E 0 81 19 00
        E 0 91 2a 5d
        E 16 b1 0c 60
        E 0 b1 0b 55
        E 16 b1 0b 4c
        E 16 b1 0b 44
        E 16 81 2a 00
        E 48 b1 0c 40
        E 0 b1 0b 7f
        E 0 91 1e 7f
        E 16 b1 0c 60
        E 0 b1 0b 77
        E 16 b1 0b 6e
        E 16 b1 0b 66
        E 16 b1 0b 5d
        E 16 b1 0b 55
        E 16 b1 0b 4c
        E 16 b1 0b 44
        E 32 b1 0b 3b
        E 16 b1 0b 22
        E 64 b1 0c 40
        E 0 b1 0b 55
        E 0 81 1e 00
        E 0 91 2a 55
        E 16 b1 0c 60
        E 0 b1 0b 4c
        E 16 b1 0b 44
        E 16 b1 0b 3b
        E 16 81 2a 00
        E 48 b1 0c 40
        E 0 b1 0b 66
        E 0 91 19 66
        E 16 b1 0c 60
        E 0 b1 0b 5d
        E 16 b1 0b 55
        E 16 b1 0b 4c
        E 16 b1 0b 44
        E 16 b1 0b 3b
        E 16 b1 0b 33
        E 16 b1 0b 2a
        E 32 b1 0b 22
        E 16 b1 0b 08
        E 64 b1 0c 40
        E 0 b1 0b 66
        E 16 b1 0c 60
        E 0 b1 0b 5d
        E 16 b1 0b 55
        E 16 b1 0b 4c
        E 16 b1 0b 44
        E 16 b1 0b 3b
        E 16 b1 0b 33
        E 16 b1 0b 2a
        E 32 b1 0b 22
        E 16 b1 0b 08
        E 64 b1 0c 40
        E 0 b1 0b 5d
        E 0 81 19 00
        E 0 91 2a 5d
        E 16 b1 0c 60
        E 0 b1 0b 55
        E 16 b1 0b 4c
        E 16 b1 0b 44
        E 16 81 2a 00
        E 48 b1 0c 40
        E 0 b1 0b 7f
        E 0 91 1e 7f
        E 16 b1 0c 60
        E 0 b1 0b 77
        E 16 b1 0b 6e
        E 16 b1 0b 66
        E 16 b1 0b 5d
        E 16 b1 0b 55
        E 16 b1 0b 4c
        E 16 b1 0b 44
        E 32 b1 0b 3b
        E 16 b1 0b 22
        E 64 b1 0c 40
        E 0 b1 0b 55
        E 0 81 1e 00
        E 0 91 2a 55
        E 16 b1 0c 60
        E 0 b1 0b 4c
        E 16 b1 0b 44
        E 16 b1 0b 3b
        E 16 81 2a 00
        E 48 b1 0c 40
        E 0 b1 0b 66
        E 0 91 19 66
        E 16 b1 0c 60
        E 0 b1 0b 5d
        E 16 b1 0b 55
        E 16 b1 0b 4c
        E 16 b1 0b 44
        E 16 b1 0b 3b
        E 16 b1 0b 33
        E 16 b1 0b 2a
        E 32 b1 0b 22
        E 16 b1 0b 08
        E 64 b1 0c 40
        E 0 b1 0b 66
        E 16 b1 0c 60
        E 0 b1 0b 5d
        E 16 b1 0b 55
        E 16 b1 0b 4c
        E 16 b1 0b 44
        E 16 b1 0b 3b
        E 16 b1 0b 33
        E 16 b1 0b 2a
        E 32 b1 0b 22
        E 16 b1 0b 08
        E 64 b1 0c 40
        E 0 b1 0b 5d
        E 0 81 19 00
        E 0 91 2a 5d
        E 16 b1 0c 60
        E 0 b1 0b 55
        E 16 b1 0b 4c
        E 16 b1 0b 44
        E 16 81 2a 00
        E 48 b1 0c 40
        E 0 b1 0b 7f
        E 0 91 20 7f
        E 16 b1 0c 60
        E 0 b1 0b 77
        E 16 b1 0b 6e
        E 16 b1 0b 66
        E 16 b1 0b 5d
        E 16 b1 0b 55
        E 16 b1 0b 4c
        E 16 b1 0b 44
        E 32 b1 0b 3b
        E 16 b1 0b 22
        E 64 b1 0c 40
        E 0 b1 0b 66
        E 0 81 20 00
        E 0 91 2c 66
        E 16 b1 0c 60
        E 0 b1 0b 5d
        E 16 b1 0b 55
        E 16 b1 0b 4c
        E 16 b1 0b 08
        E 48 b1 0c 40
        E 0 b1 0b 66
        E 0 81 2c 00
        E 0 91 1b 66
        E 16 b1 0c 60
        E 0 b1 0b 5d
        E 16 b1 0b 55
        E 16 b1 0b 4c
        E 16 b1 0b 44
        E 16 b1 0b 3b
        E 16 b1 0b 33
        E 16 b1 0b 2a
        E 32 b1 0b 22
        E 16 b1 0b 08
        E 64 b1 0c 40
        E 0 b1 0b 55
        E 16 b1 0c 60
        E 0 b1 0b 4c
        E 16 b1 0b 44
        E 16 b1 0b 3b
        E 16 b1 0b 33
        E 16 b1 0b 2a
        E 16 b1 0b 22
        E 16 b1 0b 19
        E 32 b1 0b 11
        E 16 81 1b 00
        E 64 b1 0c 40
        E 0 b1 0b 55
        E 0 91 2c 55
        E 16 b1 0c 60
        E 0 b1 0b 4c
        E 16 b1 0b 44
        E 16 b1 0b 3b
        E 16 81 2c 00
        E 48 b1 0c 40
        E 0 b1 0b 7f
        E 0 91 20 7f
        E 16 b1 0c 60
        E 0 b1 0b 77
        E 16 b1 0b 6e
        E 16 b1 0b 66
        E 16 b1 0b 5d
        E 16 b1 0b 55
        E 16 b1 0b 4c
        E 16 b1 0b 44
        E 32 b1 0b 3b
        E 16 b1 0b 22
        E 64 b1 0c 40
        E 0 b1 0b 66
        E 0 81 20 00
        E 0 91 2c 66
        E 16 b1 0c 60
        E 0 b1 0b 5d
        E 16 b1 0b 55
        E 16 b1 0b 4c
        E 16 b1 0b 08
        E 48 b1 0c 40
        E 0 b1 0b 66
        E 0 81 2c 00
        E 0 91 1b 66
        E 16 b1 0c 60
        E 0 b1 0b 5d
        E 16 b1 0b 55
        E 16 b1 0b 4c
        E 16 b1 0b 44
        E 16 b1 0b 3b
        E 16 b1 0b 33
        E 16 b1 0b 2a
        E 32 b1 0b 22
        E 16 b1 0b 08
        E 64 b1 0c 40
        E 0 b1 0b 55
        E 16 b1 0c 60
        E 0 b1 0b 4c
        E 16 b1 0b 44
        E 16 b1 0b 3b
        E 16 b1 0b 33
        E 16 b1 0b 2a
        E 16 b1 0b 22
        E 16 b1 0b 19
        E 32 b1 0b 11
        E 16 81 1b 00
        E 64 b1 0c 40
        E 0 b1 0b 55
        E 0 91 2c 55
        E 16 b1 0c 60
        E 0 b1 0b 4c
        E 16 b1 0b 44
        E 16 b1 0b 3b
        E 16 81 2c 00
        E 48 b1 0c 40
        E 0 b1 0b 7f
        E 0 91 20 7f
        E 16 b1 0c 60
        E 0 b1 0b 77
        E 16 b1 0b 6e
        E 16 b1 0b 66
        E 16 b1 0b 5d
        E 16 b1 0b 55
        E 16 b1 0b 4c
        E 16 b1 0b 44
        E 32 b1 0b 3b
        E 16 b1 0b 22
        E 64 b1 0c 40
        E 0 b1 0b 55
        E 0 81 20 00
        E 0 91 2c 55
        E 16 b1 0c 60
        E 0 b1 0b 4c
        E 16 b1 0b 44
        E 16 b1 0b 3b
        E 16 81 2c 00
        E 48 b1 0c 40
        E 0 b1 0b 55
        E 0 91 20 55
        E 16 b1 0c 60
        E 0 b1 0b 4c
        E 16 b1 0b 44
        E 16 b1 0b 3b
        E 16 b1 0b 33
        E 16 b1 0b 2a
        E 16 b1 0b 22
        E 16 b1 0b 19
        E 32 b1 0b 11
        E 16 81 20 00
        E 64 b1 0c 40
        E 0 b1 0b 6e
        E 0 91 25 6e
        E 16 b1 0c 60
        E 0 b1 0b 66
        E 16 b1 0b 5d
        E 16 b1 0b 55
        E 16 b1 0b 11
        E 48 b1 0c 40
        E 0 b1 0b 6e
        E 0 81 25 00
        E 0 91 23 6e
        E 16 b1 0c 60
        E 0 b1 0b 66
        E 16 b1 0b 5d
        E 16 b1 0b 55
        E 16 b1 0b 11
        E 48 b1 0c 40
        E 0 b1 0b 77
        E 0 81 23 00
        E 0 91 20 77
        E 16 b1 0c 60
        E 0 b1 0b 6e
        E 16 b1 0b 66
        E 16 b1 0b 5d
        E 16 b1 0b 19
        E 48 b1 0c 40
        E 0 b1 0b 77
        E 0 81 20 00
        E 0 91 1d 77
        E 16 b1 0c 60
        E 0 b1 0b 6e
        E 16 b1 0b 66
        E 16 b1 0b 5d
        E 16 b1 0b 19
        E 48 b1 0c 40
        E 0 b1 0b 7f
        E 0 81 1d 00
        E 0 91 19 7f
        E 16 b1 0c 60
        E 0 b1 0b 77
        E 16 b1 0b 6e
        E 16 b1 0b 66
        E 16 b1 0b 22
        E 64 81 19 00
        E 96 b1 0c 40
        E 0 b1 0b 7f
        E 0 91 19 7f
        E 16 b1 0c 60
        E 0 b1 0b 77
        E 16 b1 0b 6e
        E 16 b1 0b 66
        E 16 b1 0b 22
        E 64 81 19 00
        E 96 b1 0c 40
        E 0 b1 0b 7f
        E 0 91 19 7f
        E 16 b1 0c 60
        E 0 b1 0b 77
        E 16 b1 0b 22
        E 64 81 19 00
        E 16 b1 0c 40
        E 0 b1 0b 2a
        E 0 91 53 2a
        E 16 b1 0c 60
        E 0 b1 0b 22
        E 16 b1 0b 19
        E 16 b1 0b 11
        E 16 b1 0b 08
        E 16 81 53 00
        E 144 b1 0c 40
        E 0 b1 0b 7f
        E 0 91 1e 7f
        E 16 b1 0c 60
        E 0 b1 0b 77
        E 16 b1 0b 6e
        E 16 b1 0b 66
        E 16 b1 0b 5d
        E 16 b1 0b 55
        E 16 b1 0b 4c
        E 16 b1 0b 44
        E 32 b1 0b 3b
        E 16 b1 0b 22
        E 64 b1 0c 40
        E 0 b1 0b 55
        E 0 81 1e 00
        E 0 91 2a 55
        E 16 b1 0c 60
        E 0 b1 0b 4c
        E 16 b1 0b 44
        E 16 b1 0b 3b
        E 16 81 2a 00
        E 48 b1 0c 40
        E 0 b1 0b 66
        E 0 91 19 66
        E 16 b1 0c 60
        E 0 b1 0b 5d
        E 16 b1 0b 55
        E 16 b1 0b 4c
        E 16 b1 0b 44
        E 16 b1 0b 3b
        E 16 b1 0b 33
        E 16 b1 0b 2a
        E 32 b1 0b 22
        E 16 b1 0b 08
        E 64 b1 0c 40
        E 0 b1 0b 66
        E 16 b1 0c 60
        E 0 b1 0b 5d
        E 16 b1 0b 55
        E 16 b1 0b 4c
        E 16 b1 0b 44
        E 16 b1 0b 3b
        E 16 b1 0b 33
        E 16 b1 0b 2a
        E 32 b1 0b 22
        E 16 b1 0b 08
        E 64 b1 0c 40
        E 0 b1 0b 5d
        E 0 81 19 00
        E 0 91 2a 5d
        E 16 b1 0c 60
        E 0 b1 0b 55
        E 16 b1 0b 4c
        E 16 b1 0b 44
        E 16 81 2a 00
        E 48 b1 0c 40
        E 0 b1 0b 7f
        E 0 91 1e 7f
        E 16 b1 0c 60
        E 0 b1 0b 77
        E 16 b1 0b 6e
        E 16 b1 0b 66
        E 16 b1 0b 5d
        E 16 b1 0b 55
        E 16 b1 0b 4c
        E 16 b1 0b 44
        E 32 b1 0b 3b
        E 16 b1 0b 22
        E 64 b1 0c 40
        E 0 b1 0b 55
        E 0 81 1e 00
        E 0 91 2a 55
        E 16 b1 0c 60
        E 0 b1 0b 4c
        E 16 b1 0b 44
        E 16 b1 0b 3b
        E 16 81 2a 00
        E 48 b1 0c 40
        E 0 b1 0b 66
        E 0 91 19 66
        E 16 b1 0c 60
        E 0 b1 0b 5d
        E 16 b1 0b 55
        E 16 b1 0b 4c
        E 16 b1 0b 44
        E 16 b1 0b 3b
        E 16 b1 0b 33
        E 16 b1 0b 2a
        E 32 b1 0b 22
        E 16 b1 0b 08
        E 64 b1 0c 40
        E 0 b1 0b 66
        E 16 b1 0c 60
        E 0 b1 0b 5d
        E 16 b1 0b 55
        E 16 b1 0b 4c
        E 16 b1 0b 44
        E 16 b1 0b 3b
        E 16 b1 0b 33
        E 16 b1 0b 2a
        E 32 b1 0b 22
        E 16 b1 0b 08
        E 64 b1 0c 40
        E 0 b1 0b 5d
        E 0 81 19 00
        E 0 91 2a 5d
        E 16 b1 0c 60
        E 0 b1 0b 55
        E 16 b1 0b 4c
        E 16 b1 0b 44
        E 16 81 2a 00
        E 48 b1 0c 40
        E 0 b1 0b 7f
        E 0 91 1e 7f
        E 16 b1 0c 60
        E 0 b1 0b 77
        E 16 b1 0b 6e
        E 16 b1 0b 66
        E 16 b1 0b 5d
        E 16 b1 0b 55
        E 16 b1 0b 4c
        E 16 b1 0b 44
        E 32 b1 0b 3b
        E 16 b1 0b 22
        E 64 b1 0c 40
        E 0 b1 0b 55
        E 0 81 1e 00
        E 0 91 2a 55
        E 16 b1 0c 60
        E 0 b1 0b 4c
        E 16 b1 0b 44
        E 16 b1 0b 3b
        E 16 81 2a 00
        E 48 b1 0c 40
        E 0 b1 0b 66
        E 0 91 19 66
        E 16 b1 0c 60
        E 0 b1 0b 5d
        E 16 b1 0b 55
        E 16 b1 0b 4c
        E 16 b1 0b 44
        E 16 b1 0b 3b
        E 16 b1 0b 33
        E 16 b1 0b 2a
        E 32 b1 0b 22
        E 16 b1 0b 08
        E 64 b1 0c 40
        E 0 b1 0b 66
        E 16 b1 0c 60
        E 0 b1 0b 5d
        E 16 b1 0b 55
        E 16 b1 0b 4c
        E 16 b1 0b 44
        E 16 b1 0b 3b
        E 16 b1 0b 33
        E 16 b1 0b 2a
        E 32 b1 0b 22
        E 16 b1 0b 08
        E 64 b1 0c 40
        E 0 b1 0b 5d
        E 0 81 19 00
        E 0 91 2a 5d
        E 16 b1 0c 60
        E 0 b1 0b 55
        E 16 b1 0b 4c
        E 16 b1 0b 44
        E 16 81 2a 00
        E 48 b1 0c 40
        E 0 b1 0b 7f
        E 0 91 1e 7f
        E 16 b1 0c 60
        E 0 b1 0b 77
        E 16 b1 0b 6e
        E 16 b1 0b 66
        E 16 b1 0b 5d
        E 16 b1 0b 55
        E 16 b1 0b 4c
        E 16 b1 0b 44
        E 32 b1 0b 3b
        E 16 b1 0b 22
        E 64 b1 0c 40
        E 0 b1 0b 55
        E 0 81 1e 00
        E 0 91 2a 55
        E 16 b1 0c 60
        E 0 b1 0b 4c
        E 16 b1 0b 44
        E 16 b1 0b 3b
        E 16 81 2a 00
        E 48 b1 0c 40
        E 0 b1 0b 66
        E 0 91 19 66
        E 16 b1 0c 60
        E 0 b1 0b 5d
        E 16 b1 0b 55
        E 16 b1 0b 4c
        E 16 b1 0b 44
        E 16 b1 0b 3b
        E 16 b1 0b 33
        E 16 b1 0b 2a
        E 32 b1 0b 22
        E 16 b1 0b 08
        E 64 b1 0c 40
        E 0 b1 0b 66
        E 16 b1 0c 60
        E 0 b1 0b 5d
        E 16 b1 0b 55
        E 16 b1 0b 4c
        E 16 b1 0b 44
        E 16 b1 0b 3b
        E 16 b1 0b 33
        E 16 b1 0b 2a
        E 32 b1 0b 22
        E 16 b1 0b 08
        E 64 b1 0c 40
        E 0 b1 0b 5d
        E 0 81 19 00
        E 0 91 2a 5d
        E 16 b1 0c 60
        E 0 b1 0b 55
        E 16 b1 0b 4c
        E 16 b1 0b 44
        E 16 81 2a 00
        E 48 b1 0c 40
        E 0 b1 0b 7f
        E 0 91 20 7f
        E 16 b1 0c 60
        E 0 b1 0b 77
        E 16 b1 0b 6e
        E 16 b1 0b 66
        E 16 b1 0b 5d
        E 16 b1 0b 55
        E 16 b1 0b 4c
        E 16 b1 0b 44
        E 32 b1 0b 3b
        E 16 b1 0b 22
        E 64 b1 0c 40
        E 0 b1 0b 66
        E 0 81 20 00
        E 0 91 2c 66
        E 16 b1 0c 60
        E 0 b1 0b 5d
        E 16 b1 0b 55
        E 16 b1 0b 4c
        E 16 b1 0b 08
        E 48 b1 0c 40
        E 0 b1 0b 66
        E 0 81 2c 00
        E 0 91 1b 66
        E 16 b1 0c 60
        E 0 b1 0b 5d
        E 16 b1 0b 55
        E 16 b1 0b 4c
        E 16 b1 0b 44
        E 16 b1 0b 3b
        E 16 b1 0b 33
        E 16 b1 0b 2a
        E 32 b1 0b 22
        E 16 b1 0b 08
        E 64 b1 0c 40
        E 0 b1 0b 55
        E 16 b1 0c 60
        E 0 b1 0b 4c
        E 16 b1 0b 44
        E 16 b1 0b 3b
        E 16 b1 0b 33
        E 16 b1 0b 2a
        E 16 b1 0b 22
        E 16 b1 0b 19
        E 32 b1 0b 11
        E 16 81 1b 00
        E 64 b1 0c 40
        E 0 b1 0b 55
        E 0 91 2c 55
        E 16 b1 0c 60
        E 0 b1 0b 4c
        E 16 b1 0b 44
        E 16 b1 0b 3b
        E 16 81 2c 00
        E 48 b1 0c 40
        E 0 b1 0b 7f
        E 0 91 20 7f
        E 16 b1 0c 60
        E 0 b1 0b 77
        E 16 b1 0b 6e
        E 16 b1 0b 66
        E 16 b1 0b 5d
        E 16 b1 0b 55
        E 16 b1 0b 4c
        E 16 b1 0b 44
        E 32 b1 0b 3b
        E 16 b1 0b 22
        E 64 b1 0c 40
        E 0 b1 0b 66
        E 0 81 20 00
        E 0 91 2c 66
        E 16 b1 0c 60
        E 0 b1 0b 5d
        E 16 b1 0b 55
        E 16 b1 0b 4c
        E 16 b1 0b 08
        E 48 b1 0c 40
        E 0 b1 0b 66
        E 0 81 2c 00
        E 0 91 1b 66
        E 16 b1 0c 60
        E 0 b1 0b 5d
        E 16 b1 0b 55
        E 16 b1 0c 20
        E 0 b1 0b 08
        E 0 81 1b 00
        E 0 91 5a 08
        E 16 81 5a 00
        E 0 91 59 08
        E 16 b1 0b 19
        E 0 81 59 00
        E 0 91 5a 19
        E 16 81 5a 00
        E 16 b1 0b 08
        E 0 91 5a 08
        E 16 81 5a 00
        E 0 91 59 08
        E 16 b1 0b 19
        E 0 81 59 00
        E 0 91 5a 19
        E 16 81 5a 00
        E 96 b1 0c 60
        E 0 b1 0b 44
        E 0 91 1b 44
        E 16 b1 0b 3b
        E 16 b1 0b 33
        E 16 b1 0b 2a
        E 16 b1 0b 22
        E 16 b1 0b 19
        E 32 b1 0b 11
        E 16 81 1b 00
        E 64 b1 0c 40
        E 0 b1 0b 55
        E 0 91 2c 55
        E 16 b1 0c 60
        E 0 b1 0b 4c
        E 16 b1 0b 44
        E 16 b1 0b 3b
        E 16 81 2c 00
        E 48 b1 0c 40
        E 0 b1 0b 55
        E 0 91 31 55
        E 16 b1 0c 60
        E 0 b1 0b 4c
        E 16 b1 0b 44
        E 16 81 31 00
        E 176 b1 0c 40
        E 0 b1 0b 7f
        E 0 91 25 7f
        E 16 b1 0c 60
        E 0 b1 0b 77
        E 16 b1 0b 6e
        E 16 b1 0b 22
        E 64 b1 0c 40
        E 0 b1 0b 55
        E 0 81 25 00
        E 0 91 31 55
        E 16 b1 0c 60
        E 0 b1 0b 4c
        E 16 b1 0b 44
        E 16 81 31 00
        E 176 b1 0c 40
        E 0 b1 0b 7f
        E 0 91 25 7f
        E 16 b1 0c 60
        E 0 b1 0b 77
        E 16 b1 0b 6e
        E 16 b1 0b 22
        E 64 81 25 00
        E 112 b1 0b 7f
        E 0 91 1e 7f
        E 16 b1 0b 6e
        E 32 b1 0b 33
        E 32 b1 0b 08
        E 16 81 1e 00
        E 128 b1 0b 7f
        E 0 91 1e 7f
        E 16 b1 0b 6e
        E 48 b1 0c 20
        E 0 b1 0b 08
        E 0 81 1e 00
        E 0 91 5a 08
        E 16 81 5a 00
        E 0 91 59 08
        E 16 b1 0b 19
        E 0 81 59 00
        E 0 91 5a 19
        E 16 81 5a 00
        E 16 b1 0b 08
        E 0 91 5a 08
        E 16 81 5a 00
        E 0 91 59 08
        E 16 b1 0b 19
        E 0 81 59 00
        E 0 91 5a 19
        E 16 81 5a 00
        E 96 b1 0c 60
        E 0 b1 0b 33
        E 0 91 1e 33
        E 32 b1 0b 08
        E 16 81 1e 00
        E 16 b1 0b 7f
        E 0 91 1e 7f
        E 16 b1 0b 6e
        E 96 b1 0b 33
        E 32 b1 0b 08
        E 16 81 1e 00
        E 288 b1 0c 40
        E 0 b1 0b 7f
        E 0 91 23 7f
        E 16 b1 0c 60
        E 0 b1 0b 77
        E 16 b1 0b 6e
        E 16 b1 0b 66
        E 16 b1 0b 5d
        E 16 b1 0b 55
        E 16 b1 0b 4c
        E 16 b1 0b 44
        E 16 b1 0b 22
        E 64 81 23 00
        E 32 b1 0c 40
        E 0 b1 0b 5d
        E 0 91 2f 5d
        E 16 b1 0c 60
        E 0 b1 0b 55
        E 16 b1 0b 4c
        E 16 81 2f 00
        E 64 b1 0c 40
        E 0 b1 0b 6e
        E 0 91 1e 6e
        E 16 b1 0c 60
        E 0 b1 0b 66
        E 16 b1 0b 5d
        E 16 b1 0b 55
        E 16 b1 0b 4c
        E 16 b1 0b 44
        E 16 b1 0b 3b
        E 16 b1 0b 33
        E 16 b1 0b 11
        E 64 81 1e 00
        E 32 b1 0c 40
        E 0 b1 0b 6e
        E 0 91 1e 6e
        E 16 b1 0c 60
        E 0 b1 0b 66
        E 16 b1 0b 5d
        E 16 b1 0b 55
        E 16 b1 0b 4c
        E 16 b1 0b 44
        E 16 b1 0b 3b
        E 16 b1 0b 33
        E 16 b1 0b 11
        E 64 81 1e 00
        E 32 b1 0c 40
        E 0 b1 0b 66
        E 0 91 2f 66
        E 16 b1 0c 60
        E 0 b1 0b 5d
        E 16 b1 0b 55
        E 16 b1 0b 08
        E 64 b1 0c 40
        E 0 b1 0b 7f
        E 0 81 2f 00
        E 0 91 23 7f
        E 16 b1 0c 60
        E 0 b1 0b 77
        E 16 b1 0b 6e
        E 16 b1 0b 66
        E 16 b1 0b 5d
        E 16 b1 0b 55
        E 16 b1 0b 4c
        E 16 b1 0b 44
        E 16 b1 0b 22
        E 64 81 23 00
        E 32 b1 0c 40
        E 0 b1 0b 5d
        E 0 91 2f 5d
        E 16 b1 0c 60
        E 0 b1 0b 55
        E 16 b1 0b 4c
        E 16 81 2f 00
        E 64 b1 0c 40
        E 0 b1 0b 6e
        E 0 91 1e 6e
        E 16 b1 0c 60
        E 0 b1 0b 66
        E 16 b1 0b 5d
        E 16 b1 0b 55
        E 16 b1 0b 4c
        E 16 b1 0b 44
        E 16 b1 0b 3b
        E 16 b1 0b 33
        E 16 b1 0b 11
        E 64 81 1e 00
        E 32 b1 0c 40
        E 0 b1 0b 6e
        E 0 91 1e 6e
        E 16 b1 0c 60
        E 0 b1 0b 66
        E 16 b1 0b 5d
        E 16 b1 0b 55
        E 16 b1 0b 4c
        E 16 b1 0b 44
        E 16 b1 0b 3b
        E 16 b1 0b 33
        E 16 b1 0b 11
        E 64 81 1e 00
        E 32 b1 0c 40
        E 0 b1 0b 66
        E 0 91 2f 66
        E 16 b1 0c 60
        E 0 b1 0b 5d
        E 16 b1 0b 55
        E 16 b1 0b 08
        E 64 b1 0c 40
        E 0 b1 0b 7f
        E 0 81 2f 00
        E 0 91 22 7f
        E 16 b1 0c 60
        E 0 b1 0b 77
        E 16 b1 0b 6e
        E 16 b1 0b 66
        E 16 b1 0b 5d
        E 16 b1 0b 55
        E 16 b1 0b 4c
        E 16 b1 0b 44
        E 16 b1 0b 22
        E 64 81 22 00
        E 32 b1 0c 40
        E 0 b1 0b 5d
        E 0 91 2e 5d
        E 16 b1 0c 60
        E 0 b1 0b 55
        E 16 b1 0c 40
        E 0 b1 0b 33
        E 0 81 2e 00
        E 0 91 49 33
        E 16 b1 0b 4c
        E 16 b1 0b 66
        E 16 b1 0b 4c
        E 16 b1 0b 22
        E 16 b1 0b 6e
        E 0 81 49 00
        E 0 91 1e 6e
        E 16 b1 0c 60
        E 0 b1 0b 66
        E 16 b1 0b 5d
        E 16 b1 0b 55
        E 16 b1 0b 4c
        E 16 b1 0b 44
        E 16 b1 0b 3b
        E 16 b1 0b 33
        E 16 b1 0b 11
        E 64 81 1e 00
        E 32 b1 0c 40
        E 0 b1 0b 6e
        E 0 91 1e 6e
        E 16 b1 0c 60
        E 0 b1 0b 66
        E 16 b1 0b 5d
        E 16 b1 0b 55
        E 16 b1 0b 4c
        E 16 b1 0b 44
        E 16 b1 0b 3b
        E 16 b1 0b 33
        E 16 b1 0b 11
        E 64 81 1e 00
        E 32 b1 0c 40
        E 0 b1 0b 66
        E 0 91 2e 66
        E 16 b1 0c 60
        E 0 b1 0b 5d
        E 16 b1 0b 55
        E 16 b1 0b 08
        E 64 b1 0c 40
        E 0 b1 0b 7f
        E 0 81 2e 00
        E 0 91 22 7f
        E 16 b1 0c 60
        E 0 b1 0b 77
        E 16 b1 0b 6e
        E 16 b1 0b 66
        E 16 b1 0b 5d
        E 16 b1 0b 55
        E 16 b1 0b 4c
        E 16 b1 0b 44
        E 16 b1 0b 22
        E 64 81 22 00
        E 32 b1 0c 40
        E 0 b1 0b 5d
        E 0 91 2e 5d
        E 16 b1 0c 60
        E 0 b1 0b 55
        E 16 b1 0b 4c
        E 16 b1 0c 20
        E 0 b1 0b 5d
        E 0 81 2e 00
        E 0 91 2f 5d
        E 32 b1 0b 55
        E 0 81 2f 00
        E 0 91 2e 55
        E 16 b1 0b 3b
        E 0 81 2e 00
        E 0 91 35 3b
        E 16 b1 0b 33
        E 0 81 35 00
        E 0 91 36 33
        E 16 b1 0b 2a
        E 0 81 36 00
        E 0 91 37 2a
        E 16 b1 0b 22
        E 0 81 37 00
        E 0 91 39 22
        E 16 b1 0c 60
        E 0 b1 0b 55
        E 0 81 39 00
        E 0 91 1e 55
        E 16 b1 0c 40
        E 0 b1 0b 33
        E 0 81 1e 00
        E 0 91 49 33
        E 16 b1 0b 4c
        E 16 b1 0b 66
        E 16 b1 0b 4c
        E 16 b1 0b 22
        E 16 b1 0c 60
        E 0 b1 0b 11
        E 0 81 49 00
        E 0 91 1e 11
        E 48 81 1e 00
        E 32 b1 0c 40
        E 0 b1 0b 6e
        E 0 91 1e 6e
        E 16 b1 0c 60
        E 0 b1 0b 66
        E 16 b1 0b 5d
        E 16 b1 0b 55
        E 16 b1 0b 4c
        E 16 b1 0b 44
        E 16 b1 0b 3b
        E 16 b1 0b 33
        E 16 b1 0b 11
        E 64 81 1e 00
        E 32 b1 0c 40
        E 0 b1 0b 66
        E 0 91 2e 66
        E 16 b1 0c 60
        E 0 b1 0b 5d
        E 16 b1 0b 55
        E 16 b1 0b 08
        E 64 b1 0c 40
        E 0 b1 0b 7f
        E 0 81 2e 00
        E 0 91 20 7f
        E 16 b1 0c 60
        E 0 b1 0b 77
        E 16 b1 0b 6e
        E 16 b1 0b 66
        E 16 b1 0b 5d
        E 16 b1 0b 55
        E 16 b1 0b 4c
        E 16 b1 0b 44
        E 16 b1 0b 22
        E 64 81 20 00
        E 32 b1 0c 40
        E 0 b1 0b 5d
        E 0 91 2c 5d
        E 16 b1 0c 60
        E 0 b1 0b 55
        E 16 b1 0b 4c
        E 16 81 2c 00
        E 64 b1 0c 40
        E 0 b1 0b 6e
        E 0 91 19 6e
        E 16 b1 0c 60
        E 0 b1 0b 66
        E 16 b1 0b 5d
        E 16 b1 0b 55
        E 16 b1 0b 4c
        E 16 b1 0c 20
        E 0 b1 0b 5d
        E 0 81 19 00
        E 0 91 2f 5d
        E 32 b1 0b 55
        E 0 81 2f 00
        E 0 91 2e 55
        E 16 b1 0b 3b
        E 0 81 2e 00
        E 0 91 35 3b
        E 16 b1 0b 33
        E 0 81 35 00
        E 0 91 36 33
        E 16 b1 0b 2a
        E 0 81 36 00
        E 0 91 37 2a
        E 16 b1 0b 22
        E 0 81 37 00
        E 0 91 39 22
        E 16 81 39 00
        E 32 b1 0c 10
        E 0 b1 0b 2a
        E 0 91 3f 2a
        E 32 b1 0b 19
        E 32 b1 0c 60
        E 0 b1 0b 4c
        E 0 81 3f 00
        E 0 91 19 4c
        E 16 b1 0b 44
        E 16 b1 0b 3b
        E 16 b1 0b 33
        E 16 b1 0b 11
        E 64 81 19 00
        E 32 b1 0c 40
        E 0 b1 0b 66
        E 0 91 25 66
        E 16 b1 0c 60
        E 0 b1 0b 5d
        E 16 b1 0b 55
        E 16 b1 0b 08
        E 64 b1 0c 40
        E 0 b1 0b 7f
        E 0 81 25 00
        E 0 91 20 7f
        E 16 b1 0c 60
        E 0 b1 0b 77
        E 16 b1 0b 6e
        E 16 b1 0b 66
        E 16 b1 0b 5d
        E 16 b1 0b 55
        E 16 b1 0b 4c
        E 16 b1 0b 44
        E 16 b1 0b 22
        E 64 81 20 00
        E 32 b1 0c 40
        E 0 b1 0b 5d
        E 0 91 2c 5d
        E 16 b1 0c 60
        E 0 b1 0b 55
        E 16 b1 0b 4c
        E 16 81 2c 00
        E 64 b1 0c 40
        E 0 b1 0b 6e
        E 0 91 19 6e
        E 16 b1 0c 60
        E 0 b1 0b 66
        E 16 b1 0b 5d
        E 16 b1 0b 55
        E 16 b1 0b 4c
        E 16 b1 0c 10
        E 0 b1 0b 2a
        E 0 81 19 00
        E 0 91 3f 2a
        E 32 b1 0b 19
        E 32 b1 0c 60
        E 0 b1 0b 11
        E 0 81 3f 00
        E 0 91 19 11
        E 48 81 19 00
        E 32 b1 0c 40
        E 0 b1 0b 6e
        E 0 91 19 6e
        E 16 b1 0c 60
        E 0 b1 0b 66
        E 16 b1 0b 5d
        E 16 b1 0b 55
        E 16 b1 0b 4c
        E 16 b1 0b 44
        E 16 b1 0b 3b
        E 16 b1 0b 33
        E 16 b1 0b 11
        E 64 81 19 00
        E 32 b1 0c 40
        E 0 b1 0b 66
        E 0 91 25 66
        E 16 b1 0c 60
        E 0 b1 0b 5d
        E 16 b1 0b 55
        E 16 b1 0b 08
        E 64 b1 0c 40
        E 0 b1 0b 66
        E 0 81 25 00
        E 0 91 2a 66
        E 16 b1 0b 55
        E 64 81 2a 00
        E 32 b1 0b 7f
        E 0 91 1e 7f
        E 16 b1 0c 60
        E 0 b1 0b 77
        E 16 b1 0b 6e
        E 16 b1 0b 22
        E 64 b1 0c 40
        E 0 b1 0b 7f
        E 16 b1 0c 60
        E 0 b1 0b 77
        E 16 b1 0b 6e
        E 16 b1 0b 22
        E 64 b1 0c 40
        E 0 b1 0b 66
        E 0 81 1e 00
        E 0 91 2c 66
        E 16 b1 0b 55
        E 64 b1 0c 10
        E 0 b1 0b 2a
        E 0 81 2c 00
        E 0 91 3f 2a
        E 32 b1 0b 19
        E 32 b1 0c 60
        E 0 b1 0b 6e
        E 0 81 3f 00
        E 0 91 20 6e
        E 16 b1 0b 22
        E 64 b1 0c 40
        E 0 b1 0b 7f
        E 16 b1 0c 60
        E 0 b1 0b 77
        E 16 b1 0b 6e
        E 16 b1 0b 22
        E 64 b1 0c 40
        E 0 b1 0b 66
        E 0 81 20 00
        E 0 91 2d 66
        E 16 b1 0b 55
        E 64 81 2d 00
        E 32 b1 0b 7f
        E 0 91 21 7f
        E 16 b1 0c 60
        E 0 b1 0b 77
        E 16 b1 0b 6e
        E 16 b1 0b 22
        E 64 b1 0c 40
        E 0 b1 0b 7f
        E 16 b1 0c 60
        E 0 b1 0b 77
        E 16 b1 0b 6e
        E 16 b1 0b 22
        E 64 b1 0c 40
        E 0 b1 0b 66
        E 0 81 21 00
        E 0 91 2e 66
        E 16 b1 0b 55
        E 32 81 2e 00
        E 64 b1 0b 7f
        E 0 91 22 7f
        E 16 b1 0c 20
        E 0 b1 0b 5d
        E 0 81 22 00
        E 0 91 2f 5d
        E 32 b1 0b 55
        E 0 81 2f 00
        E 0 91 2e 55
        E 16 b1 0b 3b
        E 0 81 2e 00
        E 0 91 35 3b
        E 16 b1 0b 33
        E 0 81 35 00
        E 0 91 36 33
        E 16 b1 0b 2a
        E 0 81 36 00
        E 0 91 37 2a
        E 16 b1 0b 22
        E 0 81 37 00
        E 0 91 39 22
        E 16 b1 0c 60
        E 0 b1 0b 77
        E 0 81 39 00
        E 0 91 1e 77
        E 16 b1 0b 22
        E 64 81 1e 00
        E 128 b1 0c 40
        E 0 b1 0b 33
        E 0 91 47 33
        E 16 81 47 00
        E 96 91 46 33
        E 16 b1 0b 22
        E 48 81 46 00
        E 48 b1 0b 6e
        E 0 91 1e 6e
        E 16 b1 0c 60
        E 0 b1 0b 66
        E 16 b1 0b 5d
        E 16 b1 0b 55
        E 16 b1 0b 4c
        E 16 b1 0b 11
        E 32 b1 0c 40
        E 0 b1 0b 7f
        E 0 81 1e 00
        E 0 91 23 7f
        E 16 b1 0c 60
        E 0 b1 0b 77
        E 16 b1 0b 6e
        E 16 b1 0b 66
        E 16 b1 0b 5d
        E 16 b1 0b 55
        E 16 b1 0b 4c
        E 16 b1 0b 44
        E 16 b1 0b 22
        E 64 81 23 00
        E 32 b1 0c 40
        E 0 b1 0b 5d
        E 0 91 2f 5d
        E 16 b1 0c 60
        E 0 b1 0b 55
        E 16 b1 0b 4c
        E 16 81 2f 00
        E 64 b1 0c 40
        E 0 b1 0b 6e
        E 0 91 1e 6e
        E 16 b1 0c 60
        E 0 b1 0b 66
        E 16 b1 0b 5d
        E 16 b1 0b 55
        E 16 b1 0b 4c
        E 16 b1 0b 44
        E 16 b1 0b 3b
        E 16 b1 0b 33
        E 16 b1 0b 11
        E 64 81 1e 00
        E 32 b1 0c 40
        E 0 b1 0b 6e
        E 0 91 1e 6e
        E 16 b1 0c 60
        E 0 b1 0b 66
        E 16 b1 0b 5d
        E 16 b1 0b 55
        E 16 b1 0b 4c
        E 16 b1 0b 44
        E 16 b1 0b 3b
        E 16 b1 0b 33
        E 16 b1 0b 11
        E 64 81 1e 00
        E 32 b1 0c 40
        E 0 b1 0b 66
        E 0 91 2f 66
        E 16 b1 0c 60
        E 0 b1 0b 5d
        E 16 b1 0b 55
        E 16 b1 0b 08
        E 64 b1 0c 40
        E 0 b1 0b 7f
        E 0 81 2f 00
        E 0 91 23 7f
        E 16 b1 0c 60
        E 0 b1 0b 77
        E 16 b1 0b 6e
        E 16 b1 0b 66
        E 16 b1 0b 5d
        E 16 b1 0b 55
        E 16 b1 0b 4c
        E 16 b1 0b 44
        E 16 b1 0b 22
        E 64 81 23 00
        E 32 b1 0c 40
        E 0 b1 0b 5d
        E 0 91 2f 5d
        E 16 b1 0b 22
        E 0 81 2f 00
        E 0 91 38 22
        E 64 b1 0b 19
        E 16 b1 0b 11
        E 16 b1 0b 08
        E 16 81 38 00
        E 16 b1 0b 2a
        E 0 91 38 2a
        E 32 81 38 00
        E 0 91 39 2a
        E 32 b1 0b 19
        E 0 81 39 00
        E 0 91 36 19
        E 32 81 36 00
        E 0 91 3a 19
        E 32 b1 0b 08
        E 0 81 3a 00
        E 0 91 37 08
        E 16 81 37 00
        E 0 91 39 08
        E 48 b1 0b 6e
        E 0 81 39 00
        E 0 91 1e 6e
        E 16 b1 0c 60
        E 0 b1 0b 66
        E 16 b1 0b 5d
        E 16 b1 0b 55
        E 16 b1 0b 4c
        E 16 b1 0b 44
        E 16 b1 0b 3b
        E 16 b1 0b 33
        E 16 b1 0b 11
        E 64 81 1e 00
        E 32 b1 0c 40
        E 0 b1 0b 66
        E 0 91 2f 66
        E 16 b1 0c 60
        E 0 b1 0b 5d
        E 16 b1 0b 55
        E 16 b1 0b 08
        E 64 b1 0c 40
        E 0 b1 0b 7f
        E 0 81 2f 00
        E 0 91 22 7f
        E 16 b1 0c 60
        E 0 b1 0b 77
        E 16 b1 0b 6e
        E 16 b1 0b 66
        E 16 b1 0b 5d
        E 16 b1 0b 55
        E 16 b1 0b 4c
        E 16 b1 0b 44
        E 16 b1 0b 22
        E 64 81 22 00
        E 32 b1 0c 40
        E 0 b1 0b 5d
        E 0 91 2e 5d
        E 16 b1 0c 60
        E 0 b1 0b 55
        E 16 b1 0b 4c
        E 16 81 2e 00
        E 64 b1 0c 40
        E 0 b1 0b 6e
        E 0 91 1e 6e
        E 16 b1 0c 60
        E 0 b1 0b 66
        E 16 b1 0b 5d
        E 16 b1 0b 55
        E 16 b1 0b 4c
        E 16 b1 0b 44
        E 16 b1 0b 3b
        E 16 b1 0b 33
        E 16 b1 0b 11
        E 64 81 1e 00
        E 32 b1 0c 40
        E 0 b1 0b 6e
        E 0 91 1e 6e
        E 16 b1 0c 60
        E 0 b1 0b 66
        E 16 b1 0b 5d
        E 16 b1 0b 55
        E 16 b1 0b 4c
        E 16 b1 0b 44
        E 16 b1 0b 3b
        E 16 b1 0b 33
        E 16 b1 0b 11
        E 64 81 1e 00
        E 32 b1 0c 40
        E 0 b1 0b 66
        E 0 91 2e 66
        E 16 b1 0c 60
        E 0 b1 0b 5d
        E 16 b1 0b 55
        E 16 b1 0b 08
        E 64 b1 0c 40
        E 0 b1 0b 7f
        E 0 81 2e 00
        E 0 91 22 7f
        E 16 b1 0c 60
        E 0 b1 0b 77
        E 16 b1 0b 6e
        E 16 b1 0b 66
        E 16 b1 0b 5d
        E 16 b1 0b 55
        E 16 b1 0b 4c
        E 16 b1 0b 44
        E 16 b1 0b 22
        E 64 81 22 00
        E 32 b1 0c 40
        E 0 b1 0b 5d
        E 0 91 2e 5d
        E 16 b1 0c 60
        E 0 b1 0b 55
        E 16 b1 0b 4c
        E 16 81 2e 00
        E 64 b1 0c 40
        E 0 b1 0b 6e
        E 0 91 1e 6e
        E 16 b1 0c 60
        E 0 b1 0b 66
        E 16 b1 0b 5d
        E 16 b1 0b 55
        E 16 b1 0b 4c
        E 16 b1 0b 44
        E 16 b1 0b 3b
        E 16 b1 0b 33
        E 16 b1 0b 11
        E 64 81 1e 00
        E 32 b1 0c 40
        E 0 b1 0b 6e
        E 0 91 1e 6e
        E 16 b1 0c 60
        E 0 b1 0b 66
        E 16 b1 0b 5d
        E 16 b1 0b 55
        E 16 b1 0b 4c
        E 16 b1 0b 44
        E 16 b1 0b 3b
        E 16 b1 0b 33
        E 16 b1 0b 11
        E 64 b1 0c 40
        E 0 b1 0b 7f
        E 0 81 1e 00
        E 0 91 41 7f
        E 16 81 41 00
        E 0 91 44 7f
        E 16 b1 0b 33
        E 0 81 44 00
        E 0 91 40 33
        E 16 81 40 00
        E 0 91 3c 33
        E 16 81 3c 00
        E 0 91 39 33
        E 16 81 39 00
        E 0 91 36 33
        E 16 81 36 00
        E 0 91 33 33
        E 16 b1 0c 60
        E 0 b1 0b 08
        E 0 81 33 00
        E 0 91 2e 08
        E 32 b1 0c 40
        E 0 b1 0b 7f
        E 0 81 2e 00
        E 0 91 20 7f
        E 16 b1 0c 60
        E 0 b1 0b 77
        E 16 b1 0b 6e
        E 16 b1 0b 66
        E 16 b1 0b 5d
        E 16 b1 0b 55
        E 16 b1 0b 4c
        E 16 b1 0b 44
        E 16 b1 0b 22
        E 64 81 20 00
        E 32 b1 0c 40
        E 0 b1 0b 5d
        E 0 91 2c 5d
        E 16 b1 0c 60
        E 0 b1 0b 55
        E 16 b1 0b 4c
        E 16 81 2c 00
        E 64 b1 0c 40
        E 0 b1 0b 6e
        E 0 91 19 6e
        E 16 b1 0c 60
        E 0 b1 0b 66
        E 16 b1 0b 5d
        E 16 b1 0b 55
        E 16 b1 0c 20
        E 0 b1 0b 5d
        E 0 81 19 00
        E 0 91 2f 5d
        E 32 b1 0b 55
        E 0 81 2f 00
        E 0 91 2e 55
        E 16 b1 0b 3b
        E 0 81 2e 00
        E 0 91 35 3b
        E 16 b1 0b 33
        E 0 81 35 00
        E 0 91 36 33
        E 16 b1 0b 2a
        E 0 81 36 00
        E 0 91 37 2a
        E 16 b1 0b 22
        E 0 81 37 00
        E 0 91 39 22
        E 16 b1 0c 60
        E 0 b1 0b 11
        E 0 81 39 00
        E 0 91 19 11
        E 16 81 19 00
        E 32 b1 0c 40
        E 0 b1 0b 6e
        E 0 91 19 6e
        E 16 b1 0c 60
        E 0 b1 0b 66
        E 16 b1 0b 5d
        E 16 b1 0b 55
        E 16 b1 0b 4c
        E 16 b1 0b 44
        E 16 b1 0b 3b
        E 16 b1 0b 33
        E 16 b1 0b 11
        E 64 81 19 00
        E 32 b1 0c 40
        E 0 b1 0b 66
        E 0 91 25 66
        E 16 b1 0c 60
        E 0 b1 0b 5d
        E 16 b1 0b 55
        E 16 b1 0b 08
        E 64 b1 0c 40
        E 0 b1 0b 7f
        E 0 81 25 00
        E 0 91 20 7f
        E 16 b1 0c 60
        E 0 b1 0b 77
        E 16 b1 0b 6e
        E 16 b1 0b 66
        E 16 b1 0b 5d
        E 16 b1 0b 55
        E 16 b1 0b 4c
        E 16 b1 0b 44
        E 16 b1 0b 22
        E 64 81 20 00
        E 32 b1 0c 40
        E 0 b1 0b 5d
        E 0 91 2c 5d
        E 16 b1 0c 60
        E 0 b1 0b 55
        E 16 b1 0b 4c
        E 16 81 2c 00
        E 64 b1 0c 40
        E 0 b1 0b 6e
        E 0 91 19 6e
        E 16 b1 0c 60
        E 0 b1 0b 66
        E 16 b1 0b 5d
        E 16 b1 0b 55
        E 16 b1 0b 4c
        E 16 b1 0b 44
        E 16 b1 0b 3b
        E 16 b1 0b 33
        E 16 b1 0b 11
        E 16 b1 0c 40
        E 0 b1 0b 33
        E 0 81 19 00
        E 0 91 49 33
        E 16 b1 0b 4c
        E 16 b1 0b 66
        E 16 b1 0b 4c
        E 16 b1 0b 22
        E 16 b1 0b 6e
        E 0 81 49 00
        E 0 91 19 6e
        E 16 b1 0c 60
        E 0 b1 0b 66
        E 16 b1 0b 5d
        E 16 b1 0b 55
        E 16 b1 0b 4c
        E 16 b1 0b 44
        E 16 b1 0b 3b
        E 16 b1 0b 33
        E 16 b1 0b 11
        E 64 81 19 00
        E 32 b1 0c 40
        E 0 b1 0b 66
        E 0 91 25 66
        E 16 b1 0c 60
        E 0 b1 0b 5d
        E 16 b1 0b 55
        E 16 b1 0b 08
        E 64 b1 0c 40
        E 0 b1 0b 7f
        E 0 81 25 00
        E 0 91 19 7f
        E 16 b1 0c 60
        E 0 b1 0b 77
        E 16 b1 0b 6e
        E 16 b1 0b 66
        E 16 b1 0b 5d
        E 16 b1 0b 22
        E 32 b1 0c 40
        E 0 b1 0b 7f
        E 0 81 19 00
        E 0 91 1b 7f
        E 16 b1 0c 60
        E 0 b1 0b 77
        E 16 b1 0b 6e
        E 16 b1 0b 66
        E 16 b1 0b 5d
        E 16 b1 0b 22
        E 64 81 1b 00
        E 80 b1 0c 40
        E 0 b1 0b 7f
        E 0 91 1c 7f
        E 16 b1 0c 60
        E 0 b1 0b 77
        E 16 b1 0b 6e
        E 16 b1 0b 66
        E 16 b1 0b 5d
        E 16 b1 0b 22
        E 32 b1 0c 40
        E 0 b1 0b 7f
        E 0 81 1c 00
        E 0 91 1d 7f
        E 16 b1 0c 60
        E 0 b1 0b 77
        E 16 b1 0b 6e
        E 16 b1 0b 66
        E 16 b1 0b 5d
        E 16 b1 0b 22
        E 32 b1 0c 40
        E 0 b1 0b 7f
        E 0 81 1d 00
        E 0 91 1b 7f
        E 16 b1 0c 60
        E 0 b1 0b 77
        E 16 b1 0b 6e
        E 16 b1 0b 66
        E 16 b1 0b 5d
        E 16 b1 0b 22
        E 64 b1 0c 40
        E 0 b1 0b 77
        E 0 81 1b 00
        E 0 91 30 77
        E 16 b1 0b 22
        E 0 81 30 00
        E 0 91 2f 22
        E 16 b1 0b 08
        E 32 b1 0b 4c
        E 0 81 2f 00
        E 0 91 48 4c
        E 16 b1 0b 2a
        E 0 81 48 00
        E 0 91 49 2a
        E 16 81 49 00
        E 0 91 4a 2a
        E 16 b1 0c 60
        E 0 b1 0b 6e
        E 0 81 4a 00
        E 0 91 1a 6e
        E 16 b1 0b 66
        E 16 b1 0b 5d
        E 16 b1 0b 22
        E 32 b1 0c 40
        E 0 b1 0b 7f
        E 0 81 1a 00
        E 0 91 19 7f
        E 16 b1 0c 60
        E 0 b1 0b 77
        E 16 b1 0b 6e
        E 16 b1 0b 66
        E 16 b1 0b 5d
        E 16 b1 0b 22
        E 64 b1 0c 20
        E 0 b1 0b 5d
        E 0 81 19 00
        E 0 91 2f 5d
        E 32 b1 0b 55
        E 0 81 2f 00
        E 0 91 2e 55
        E 16 b1 0b 3b
        E 0 81 2e 00
        E 0 91 35 3b
        E 16 b1 0b 33
        E 0 81 35 00
        E 0 91 36 33
        E 16 b1 0b 2a
        E 0 81 36 00
        E 0 91 37 2a
        E 16 b1 0b 22
        E 0 81 37 00
        E 0 91 39 22
        E 16 b1 0c 60
        E 0 b1 0b 6e
        E 0 81 39 00
        E 0 91 19 6e
        E 16 b1 0b 66
        E 16 b1 0b 5d
        E 16 b1 0b 22
        E 32 b1 0c 40
        E 0 b1 0b 7f
        E 16 b1 0c 60
        E 0 b1 0b 77
        E 16 b1 0b 6e
        E 16 b1 0b 66
        E 16 b1 0b 5d
        E 16 b1 0b 22
        E 64 81 19 00
        E 192 b1 0c 40
        E 0 b1 0b 55
        E 0 91 25 55
        E 16 b1 0c 60
        E 0 b1 0b 4c
        E 16 b1 0b 44
        E 16 b1 0b 3b
        E 16 b1 0b 33
        E 16 b1 0b 2a
        E 16 b1 0b 22
        E 16 b1 0b 19
        E 32 b1 0b 11
        E 32 81 25 00
        E 48 b1 0c 40
        E 0 b1 0b 7f
        E 0 91 1e 7f
        E 16 b1 0c 60
        E 0 b1 0b 77
        E 16 b1 0b 6e
        E 16 b1 0b 66
        E 16 b1 0b 5d
        E 16 b1 0b 55
        E 16 b1 0b 4c
        E 16 b1 0b 44
        E 32 b1 0b 3b
        E 16 b1 0b 22
        E 64 b1 0c 40
        E 0 b1 0b 55
        E 0 81 1e 00
        E 0 91 2a 55
        E 16 b1 0c 60
        E 0 b1 0b 4c
        E 16 b1 0b 44
        E 16 b1 0b 3b
        E 16 81 2a 00
        E 48 b1 0c 40
        E 0 b1 0b 66
        E 0 91 19 66
        E 16 b1 0c 60
        E 0 b1 0b 5d
        E 16 b1 0b 55
        E 16 b1 0b 4c
        E 16 b1 0b 44
        E 16 b1 0b 3b
        E 16 b1 0c 20
        E 0 b1 0b 22
        E 0 81 19 00
        E 0 91 40 22
        E 96 b1 0b 2a
        E 128 b1 0b 33
        E 80 b1 0c 60
        E 0 b1 0b 7f
        E 0 81 40 00
        E 0 91 32 7f
        E 16 81 32 00
        E 0 91 2c 7f
        E 16 81 2c 00
        E 0 91 27 7f
        E 16 b1 0b 33
        E 0 81 27 00
        E 0 91 3a 33
        E 16 81 3a 00
        E 0 91 3b 33
        E 16 81 3b 00
        E 0 91 3d 33
        E 16 b1 0b 44
        E 0 81 3d 00
        E 0 91 2a 44
        E 16 81 2a 00
        E 48 b1 0c 40
        E 0 b1 0b 7f
        E 0 91 1e 7f
        E 16 b1 0c 60
        E 0 b1 0b 77
        E 16 b1 0b 6e
        E 16 b1 0b 66
        E 16 b1 0b 5d
        E 16 b1 0b 55
        E 16 b1 0b 4c
        E 16 b1 0b 44
        E 32 b1 0b 3b
        E 16 b1 0b 22
        E 64 b1 0c 40
        E 0 b1 0b 55
        E 0 81 1e 00
        E 0 91 2a 55
        E 16 b1 0c 60
        E 0 b1 0b 4c
        E 16 b1 0b 44
        E 16 b1 0b 3b
        E 16 81 2a 00
        E 48 b1 0c 40
        E 0 b1 0b 66
        E 0 91 19 66
        E 16 b1 0c 60
        E 0 b1 0b 5d
        E 16 b1 0b 55
        E 16 b1 0b 4c
        E 16 b1 0b 44
        E 16 b1 0b 3b
        E 16 b1 0b 33
        E 16 b1 0b 2a
        E 32 b1 0b 22
        E 16 b1 0b 08
        E 64 b1 0c 40
        E 0 b1 0b 66
        E 16 b1 0c 60
        E 0 b1 0b 5d
        E 16 b1 0b 55
        E 16 b1 0b 4c
        E 16 b1 0b 44
        E 16 b1 0b 3b
        E 16 b1 0b 33
        E 16 b1 0b 2a
        E 32 b1 0b 22
        E 16 b1 0b 08
        E 64 b1 0c 40
        E 0 b1 0b 5d
        E 0 81 19 00
        E 0 91 2a 5d
        E 16 b1 0c 60
        E 0 b1 0b 55
        E 16 b1 0b 4c
        E 16 b1 0b 44
        E 16 81 2a 00
        E 48 b1 0c 40
        E 0 b1 0b 7f
        E 0 91 1e 7f
        E 16 b1 0c 60
        E 0 b1 0b 77
        E 16 b1 0b 6e
        E 16 b1 0b 66
        E 16 b1 0b 5d
        E 16 b1 0b 55
        E 16 b1 0b 4c
        E 16 b1 0b 44
        E 32 b1 0b 3b
        E 16 b1 0b 22
        E 64 b1 0c 40
        E 0 b1 0b 55
        E 0 81 1e 00
        E 0 91 2a 55
        E 16 b1 0c 60
        E 0 b1 0b 4c
        E 16 b1 0b 44
        E 16 b1 0b 3b
        E 16 81 2a 00
        E 48 b1 0c 40
        E 0 b1 0b 66
        E 0 91 19 66
        E 16 b1 0c 60
        E 0 b1 0b 5d
        E 16 b1 0b 55
        E 16 b1 0b 4c
        E 16 b1 0b 44
        E 16 b1 0b 3b
        E 16 b1 0b 33
        E 16 b1 0b 2a
        E 32 b1 0b 22
        E 16 b1 0b 08
        E 64 b1 0c 40
        E 0 b1 0b 66
        E 16 b1 0c 60
        E 0 b1 0b 5d
        E 16 b1 0b 55
        E 16 b1 0b 4c
        E 16 b1 0b 44
        E 16 b1 0b 3b
        E 16 b1 0b 33
        E 16 b1 0b 2a
        E 32 b1 0b 22
        E 16 b1 0b 08
        E 64 b1 0c 40
        E 0 b1 0b 5d
        E 0 81 19 00
        E 0 91 2a 5d
        E 16 b1 0c 60
        E 0 b1 0b 55
        E 16 b1 0b 4c
        E 16 b1 0b 44
        E 16 81 2a 00
        E 48 b1 0c 40
        E 0 b1 0b 7f
        E 0 91 1e 7f
        E 16 b1 0c 60
        E 0 b1 0b 77
        E 16 b1 0b 6e
        E 16 b1 0b 66
        E 16 b1 0b 5d
        E 16 b1 0b 55
        E 16 b1 0b 4c
        E 16 b1 0b 44
        E 32 b1 0b 3b
        E 16 b1 0b 22
        E 64 b1 0c 40
        E 0 b1 0b 55
        E 0 81 1e 00
        E 0 91 2a 55
        E 16 b1 0c 60
        E 0 b1 0b 4c
        E 16 b1 0b 44
        E 16 b1 0b 3b
        E 16 81 2a 00
        E 32 b1 0c 40
        E 0 b1 0b 7f
        E 0 91 58 7f
        E 16 b1 0b 22
        E 16 b1 0b 7f
        E 0 81 58 00
        E 0 91 57 7f
        E 16 b1 0b 22
        E 16 b1 0b 7f
        E 0 81 57 00
        E 0 91 56 7f
        E 16 b1 0b 6e
        E 0 81 56 00
        E 0 91 53 6e
        E 16 b1 0b 5d
        E 0 81 53 00
        E 0 91 50 5d
        E 16 b1 0b 4c
        E 0 81 50 00
        E 0 91 4d 4c
        E 16 b1 0b 3b
        E 0 81 4d 00
        E 0 91 4a 3b
        E 16 b1 0b 2a
        E 0 81 4a 00
        E 0 91 47 2a
        E 16 b1 0b 22
        E 0 81 47 00
        E 0 91 44 22
        E 16 b1 0b 19
        E 0 81 44 00
        E 0 91 42 19
        E 16 81 42 00
        E 0 91 40 19
        E 16 b1 0b 11
        E 0 81 40 00
        E 0 91 3e 11
        E 16 81 3e 00
        E 0 91 3c 11
        E 16 b1 0b 08
        E 0 81 3c 00
        E 0 91 3b 08
        E 16 b1 0c 60
        E 0 b1 0b 5d
        E 0 81 3b 00
        E 0 91 19 5d
        E 16 b1 0b 55
        E 16 b1 0b 4c
        E 16 b1 0c 40
        E 0 b1 0b 33
        E 0 81 19 00
        E 0 91 5f 33
        E 16 b1 0b 2a
        E 0 81 5f 00
        E 0 91 52 2a
        E 16 b1 0b 22
        E 0 81 52 00
        E 0 91 54 22
        E 16 81 54 00
        E 304 b1 0c 60
        E 0 b1 0b 55
        E 0 91 20 55
        E 16 b1 0b 4c
        E 16 b1 0b 44
        E 32 b1 0b 3b
        E 16 b1 0b 22
        E 64 b1 0c 40
        E 0 b1 0b 66
        E 0 81 20 00
        E 0 91 2c 66
        E 16 b1 0c 60
        E 0 b1 0b 5d
        E 16 b1 0b 55
        E 16 b1 0b 4c
        E 16 b1 0b 08
        E 48 b1 0c 40
        E 0 b1 0b 66
        E 0 81 2c 00
        E 0 91 1b 66
        E 16 b1 0c 60
        E 0 b1 0b 5d
        E 16 b1 0b 55
        E 16 b1 0b 4c
        E 16 b1 0b 44
        E 16 b1 0b 3b
        E 16 b1 0b 33
        E 16 b1 0b 2a
        E 32 b1 0b 22
        E 16 b1 0b 08
        E 64 b1 0c 40
        E 0 b1 0b 55
        E 16 b1 0c 60
        E 0 b1 0b 4c
        E 16 b1 0b 44
        E 16 b1 0b 3b
        E 16 b1 0b 33
        E 16 b1 0b 2a
        E 16 b1 0b 22
        E 16 b1 0b 19
        E 32 b1 0b 11
        E 16 81 1b 00
        E 64 b1 0c 40
        E 0 b1 0b 55
        E 0 91 2c 55
        E 16 b1 0c 60
        E 0 b1 0b 4c
        E 16 b1 0b 44
        E 16 b1 0b 3b
        E 16 81 2c 00
        E 48 b1 0c 40
        E 0 b1 0b 7f
        E 0 91 20 7f
        E 16 b1 0c 60
        E 0 b1 0b 77
        E 16 b1 0b 6e
        E 16 b1 0b 66
        E 16 b1 0b 5d
        E 16 b1 0b 55
        E 16 b1 0b 4c
        E 16 b1 0b 44
        E 32 b1 0b 3b
        E 16 b1 0b 22
        E 64 b1 0c 40
        E 0 b1 0b 66
        E 0 81 20 00
        E 0 91 2c 66
        E 16 b1 0c 60
        E 0 b1 0b 5d
        E 16 b1 0b 55
        E 16 b1 0b 4c
        E 16 b1 0b 08
        E 48 b1 0c 40
        E 0 b1 0b 66
        E 0 81 2c 00
        E 0 91 1b 66
        E 16 b1 0c 60
        E 0 b1 0b 5d
        E 16 b1 0b 55
        E 16 b1 0b 4c
        E 16 b1 0b 44
        E 16 b1 0b 3b
        E 16 b1 0b 33
        E 16 b1 0b 2a
        E 32 b1 0b 22
        E 16 b1 0b 08
        E 64 b1 0c 40
        E 0 b1 0b 55
        E 16 b1 0c 60
        E 0 b1 0b 4c
        E 16 b1 0b 44
        E 16 b1 0b 3b
        E 16 b1 0b 33
        E 16 b1 0b 2a
        E 16 b1 0b 22
        E 16 b1 0b 19
        E 32 b1 0b 11
        E 16 81 1b 00
        E 64 b1 0c 40
        E 0 b1 0b 55
        E 0 91 2c 55
        E 16 b1 0c 60
        E 0 b1 0b 4c
        E 16 b1 0b 44
        E 16 b1 0b 3b
        E 16 81 2c 00
        E 48 b1 0c 40
        E 0 b1 0b 7f
        E 0 91 20 7f
        E 16 b1 0c 60
        E 0 b1 0b 77
        E 16 b1 0b 6e
        E 16 b1 0b 66
        E 16 b1 0b 5d
        E 16 b1 0b 55
        E 16 b1 0b 4c
        E 16 b1 0b 44
        E 32 b1 0b 3b
        E 16 b1 0b 22
        E 64 b1 0c 40
        E 0 b1 0b 55
        E 0 81 20 00
        E 0 91 2c 55
        E 16 b1 0c 60
        E 0 b1 0b 4c
        E 16 b1 0b 44
        E 16 b1 0b 3b
        E 16 81 2c 00
        E 48 b1 0c 40
        E 0 b1 0b 55
        E 0 91 20 55
        E 16 b1 0c 60
        E 0 b1 0b 4c
        E 16 b1 0b 44
        E 16 b1 0b 3b
        E 16 b1 0b 33
        E 16 b1 0b 2a
        E 16 b1 0b 22
        E 16 b1 0b 19
        E 32 b1 0b 11
        E 16 81 20 00
        E 64 b1 0c 40
        E 0 b1 0b 6e
        E 0 91 25 6e
        E 16 b1 0c 60
        E 0 b1 0b 66
        E 16 b1 0b 5d
        E 16 b1 0b 55
        E 16 b1 0b 11
        E 48 b1 0c 40
        E 0 b1 0b 6e
        E 0 81 25 00
        E 0 91 23 6e
        E 16 b1 0c 60
        E 0 b1 0b 66
        E 16 b1 0b 5d
        E 16 b1 0b 55
        E 16 b1 0b 11
        E 48 b1 0c 40
        E 0 b1 0b 77
        E 0 81 23 00
        E 0 91 20 77
        E 16 b1 0c 60
        E 0 b1 0b 6e
        E 16 b1 0b 66
        E 16 b1 0b 5d
        E 16 b1 0b 19
        E 48 b1 0c 40
        E 0 b1 0b 77
        E 0 81 20 00
        E 0 91 1d 77
        E 16 b1 0c 60
        E 0 b1 0b 6e
        E 16 b1 0b 66
        E 16 b1 0b 5d
        E 16 b1 0b 19
        E 48 b1 0c 40
        E 0 b1 0b 7f
        E 0 81 1d 00
        E 0 91 19 7f
        E 16 b1 0c 60
        E 0 b1 0b 77
        E 16 b1 0b 6e
        E 16 b1 0b 66
        E 16 b1 0b 22
        E 64 81 19 00
        E 96 b1 0c 40
        E 0 b1 0b 7f
        E 0 91 19 7f
        E 16 b1 0c 60
        E 0 b1 0b 77
        E 16 b1 0b 6e
        E 16 b1 0b 66
        E 16 b1 0b 22
        E 64 81 19 00
        E 96 b1 0c 40
        E 0 b1 0b 7f
        E 0 91 19 7f
        E 16 b1 0c 60
        E 0 b1 0b 77
        E 16 b1 0b 22
        E 64 81 19 00
        E 16 b1 0c 40
        E 0 b1 0b 2a
        E 0 91 53 2a
        E 16 b1 0c 60
        E 0 b1 0b 22
        E 16 b1 0b 19
        E 16 b1 0b 11
        E 16 b1 0b 08
        E 16 81 53 00
        E 144 b1 0c 40
        E 0 b1 0b 7f
        E 0 91 1e 7f
        E 16 b1 0c 60
        E 0 b1 0b 77
        E 16 b1 0b 6e
        E 16 b1 0b 66
        E 16 b1 0b 5d
        E 16 b1 0b 55
        E 16 b1 0b 4c
        E 16 b1 0b 44
        E 32 b1 0b 3b
        E 16 b1 0b 22
        E 64 b1 0c 40
        E 0 b1 0b 55
        E 0 81 1e 00
        E 0 91 2a 55
        E 16 b1 0c 60
        E 0 b1 0b 4c
        E 16 b1 0b 44
        E 16 b1 0b 3b
        E 16 81 2a 00
        E 48 b1 0c 40
        E 0 b1 0b 66
        E 0 91 19 66
        E 16 b1 0c 60
        E 0 b1 0b 5d
        E 16 b1 0b 55
        E 16 b1 0b 4c
        E 16 b1 0b 44
        E 16 b1 0b 3b
        E 16 b1 0b 33
        E 16 b1 0b 2a
        E 32 b1 0b 22
        E 16 b1 0b 08
        E 64 b1 0c 40
        E 0 b1 0b 66
        E 16 b1 0c 60
        E 0 b1 0b 5d
        E 16 b1 0b 55
        E 16 b1 0b 4c
        E 16 b1 0b 44
        E 16 b1 0b 3b
        E 16 b1 0b 33
        E 16 b1 0b 2a
        E 32 b1 0b 22
        E 16 b1 0b 08
        E 64 b1 0c 40
        E 0 b1 0b 5d
        E 0 81 19 00
        E 0 91 2a 5d
        E 16 b1 0c 60
        E 0 b1 0b 55
        E 16 b1 0c 40
        E 0 b1 0b 33
        E 0 81 2a 00
        E 0 91 49 33
        E 16 b1 0b 4c
        E 16 b1 0b 66
        E 16 b1 0b 4c
        E 16 b1 0b 22
        E 16 b1 0b 7f
        E 0 81 49 00
        E 0 91 1e 7f
        E 16 b1 0c 60
        E 0 b1 0b 77
        E 16 b1 0b 6e
        E 16 b1 0b 66
        E 16 b1 0b 5d
        E 16 b1 0b 55
        E 16 b1 0b 4c
        E 16 b1 0b 44
        E 32 b1 0b 3b
        E 16 b1 0b 22
        E 64 b1 0c 40
        E 0 b1 0b 55
        E 0 81 1e 00
        E 0 91 2a 55
        E 16 b1 0c 60
        E 0 b1 0b 4c
        E 16 b1 0b 44
        E 16 b1 0b 3b
        E 16 81 2a 00
        E 48 b1 0c 40
        E 0 b1 0b 66
        E 0 91 19 66
        E 16 b1 0c 60
        E 0 b1 0b 5d
        E 16 b1 0b 55
        E 16 b1 0b 4c
        E 16 b1 0b 44
        E 16 b1 0b 3b
        E 16 b1 0b 33
        E 16 b1 0b 2a
        E 32 b1 0b 22
        E 16 b1 0b 08
        E 64 b1 0c 40
        E 0 b1 0b 66
        E 16 b1 0c 60
        E 0 b1 0b 5d
        E 16 b1 0b 55
        E 16 b1 0b 4c
        E 16 b1 0b 44
        E 16 b1 0b 3b
        E 16 b1 0b 33
        E 16 b1 0b 2a
        E 32 b1 0b 22
        E 16 b1 0b 08
        E 64 b1 0c 40
        E 0 b1 0b 5d
        E 0 81 19 00
        E 0 91 2a 5d
        E 16 b1 0c 60
        E 0 b1 0b 55
        E 16 b1 0b 4c
        E 16 b1 0c 20
        E 0 b1 0b 5d
        E 0 81 2a 00
        E 0 91 2f 5d
        E 32 b1 0b 55
        E 0 81 2f 00
        E 0 91 2e 55
        E 16 b1 0b 3b
        E 0 81 2e 00
        E 0 91 35 3b
        E 16 b1 0b 33
        E 0 81 35 00
        E 0 91 36 33
        E 16 b1 0b 2a
        E 0 81 36 00
        E 0 91 37 2a
        E 16 b1 0b 22
        E 0 81 37 00
        E 0 91 39 22
        E 16 b1 0c 60
        E 0 b1 0b 66
        E 0 81 39 00
        E 0 91 1e 66
        E 16 b1 0b 5d
        E 16 b1 0b 55
        E 16 b1 0b 4c
        E 16 b1 0b 44
        E 32 b1 0b 3b
        E 16 b1 0b 22
        E 64 b1 0c 40
        E 0 b1 0b 55
        E 0 81 1e 00
        E 0 91 2a 55
        E 16 b1 0c 60
        E 0 b1 0b 4c
        E 16 b1 0b 44
        E 16 b1 0b 3b
        E 16 81 2a 00
        E 48 b1 0c 40
        E 0 b1 0b 66
        E 0 91 19 66
        E 16 b1 0c 60
        E 0 b1 0b 5d
        E 16 b1 0b 55
        E 16 b1 0b 4c
        E 16 b1 0b 44
        E 16 b1 0b 3b
        E 16 b1 0b 33
        E 16 b1 0b 2a
        E 32 b1 0b 22
        E 16 b1 0b 08
        E 64 b1 0b 7f
        E 0 81 19 00
        E 0 91 32 7f
        E 16 81 32 00
        E 0 91 2c 7f
        E 16 81 2c 00
        E 0 91 27 7f
        E 16 b1 0b 33
        E 0 81 27 00
        E 0 91 3a 33
        E 16 81 3a 00
        E 0 91 3b 33
        E 16 81 3b 00
        E 0 91 3d 33
        E 16 81 3d 00
        E 0 91 19 33
        E 16 b1 0b 2a
        E 32 b1 0b 22
        E 16 b1 0b 08
        E 64 b1 0c 40
        E 0 b1 0b 5d
        E 0 81 19 00
        E 0 91 2a 5d
        E 16 b1 0c 60
        E 0 b1 0b 55
        E 16 b1 0b 4c
        E 16 b1 0b 44
        E 16 81 2a 00
        E 48 b1 0c 40
        E 0 b1 0b 7f
        E 0 91 1e 7f
        E 16 b1 0c 60
        E 0 b1 0b 77
        E 16 b1 0b 6e
        E 16 b1 0b 66
        E 16 b1 0b 5d
        E 16 b1 0b 55
        E 16 b1 0b 4c
        E 16 b1 0b 44
        E 32 b1 0b 3b
        E 16 b1 0b 22
        E 64 b1 0c 40
        E 0 b1 0b 55
        E 0 81 1e 00
        E 0 91 2a 55
        E 16 b1 0c 60
        E 0 b1 0b 4c
        E 16 b1 0b 44
        E 16 b1 0b 3b
        E 16 81 2a 00
        E 48 b1 0c 40
        E 0 b1 0b 66
        E 0 91 19 66
        E 16 b1 0c 60
        E 0 b1 0b 5d
        E 16 b1 0b 55
        E 16 b1 0b 4c
        E 16 b1 0b 44
        E 16 b1 0b 3b
        E 16 b1 0b 33
        E 16 b1 0b 2a
        E 32 b1 0b 22
        E 16 b1 0b 08
        E 64 b1 0c 40
        E 0 b1 0b 66
        E 16 b1 0c 60
        E 0 b1 0b 5d
        E 16 b1 0b 55
        E 16 b1 0b 4c
        E 16 b1 0b 44
        E 16 b1 0b 3b
        E 16 b1 0b 33
        E 16 b1 0b 2a
        E 32 b1 0b 22
        E 16 b1 0b 08
        E 64 b1 0c 40
        E 0 b1 0b 5d
        E 0 81 19 00
        E 0 91 2a 5d
        E 16 b1 0c 60
        E 0 b1 0b 55
        E 16 b1 0b 4c
        E 16 b1 0b 44
        E 16 81 2a 00
        E 48 b1 0c 40
        E 0 b1 0b 7f
        E 0 91 20 7f
        E 16 b1 0c 60
        E 0 b1 0b 77
        E 16 b1 0b 6e
        E 16 b1 0b 66
        E 16 b1 0b 5d
        E 16 b1 0b 55
        E 16 b1 0b 4c
        E 16 b1 0b 44
        E 32 b1 0b 3b
        E 16 b1 0b 22
        E 64 b1 0c 40
        E 0 b1 0b 66
        E 0 81 20 00
        E 0 91 2c 66
        E 16 b1 0c 60
        E 0 b1 0b 5d
        E 16 b1 0b 55
        E 16 b1 0b 4c
        E 16 b1 0b 08
        E 48 b1 0c 40
        E 0 b1 0b 66
        E 0 81 2c 00
        E 0 91 1b 66
        E 16 b1 0c 60
        E 0 b1 0b 5d
        E 16 b1 0b 55
        E 16 b1 0b 4c
        E 16 b1 0b 44
        E 16 b1 0b 3b
        E 16 b1 0b 33
        E 16 b1 0b 2a
        E 32 b1 0b 22
        E 16 b1 0b 08
        E 64 b1 0c 40
        E 0 b1 0b 55
        E 16 b1 0c 60
        E 0 b1 0b 4c
        E 16 b1 0b 44
        E 16 b1 0b 3b
        E 16 b1 0b 33
        E 16 b1 0b 2a
        E 16 b1 0b 22
        E 16 b1 0b 19
        E 32 b1 0b 11
        E 16 b1 0b 7f
        E 0 81 1b 00
        E 0 91 38 7f
        E 16 81 38 00
        E 0 91 24 7f
        E 16 81 24 00
        E 0 91 2b 7f
        E 16 81 2b 00
        E 0 91 24 7f
        E 16 81 24 00
        E 0 91 37 7f
        E 16 b1 0c 40
        E 0 81 37 00
        E 0 91 28 7f
        E 16 81 28 00
        E 0 91 24 7f
        E 16 81 24 00
        E 0 91 15 7f
        E 16 b1 0b 22
        E 16 b1 0b 7f
        E 16 b1 0b 22
        E 16 b1 0b 7f
        E 16 b1 0b 22
        E 16 b1 0b 7f
        E 16 b1 0b 22
        E 16 b1 0b 7f
        E 16 b1 0b 22
        E 16 b1 0b 7f
        E 16 b1 0b 22
        E 16 b1 0b 7f
        E 0 81 15 00
        E 0 91 1f 7f
        E 16 81 1f 00
        E 0 91 1d 7f
        E 64 b1 0b 6e
        E 0 81 1d 00
        E 0 91 2d 6e
        E 16 81 2d 00
        E 0 91 30 6e
        E 16 81 30 00
        E 0 91 36 6e
        E 16 81 36 00
        E 0 91 3e 6e
        E 16 81 3e 00
        E 0 91 41 6e
        E 16 81 41 00
        E 0 91 4a 6e
        E 16 b1 0b 2a
        E 128 b1 0b 08
        E 80 81 4a 00
        E 32 91 4a 08
        E 208 81 4a 00
        E 80 b1 0c 60
        E 0 b1 0b 3b
        E 0 91 2c 3b
        E 16 81 2c 00
        E 48 b1 0c 40
        E 0 b1 0b 55
        E 0 91 31 55
        E 16 b1 0c 60
        E 0 b1 0b 4c
        E 16 b1 0b 44
        E 16 81 31 00
        E 176 b1 0c 40
        E 0 b1 0b 7f
        E 0 91 25 7f
        E 16 b1 0c 60
        E 0 b1 0b 77
        E 16 b1 0b 6e
        E 16 b1 0b 22
        E 64 b1 0c 40
        E 0 b1 0b 55
        E 0 81 25 00
        E 0 91 31 55
        E 16 b1 0c 60
        E 0 b1 0b 4c
        E 16 b1 0b 44
        E 16 81 31 00
        E 176 b1 0c 40
        E 0 b1 0b 7f
        E 0 91 25 7f
        E 16 b1 0c 60
        E 0 b1 0b 77
        E 16 b1 0b 6e
        E 16 b1 0b 22
        E 64 81 25 00
        E 112 b1 0b 7f
        E 0 91 1e 7f
        E 16 b1 0b 6e
        E 32 b1 0b 33
        E 32 b1 0b 08
        E 16 81 1e 00
        E 128 b1 0b 7f
        E 0 91 1e 7f
        E 16 b1 0b 6e
        E 96 b1 0b 33
        E 32 b1 0b 08
        E 16 81 1e 00
        E 64 b1 0b 7f
        E 0 91 1e 7f
        E 16 b1 0b 6e
        E 32 b1 0b 33
        E 32 b1 0b 08
        E 16 81 1e 00
        E 16 b1 0b 7f
        E 0 91 1e 7f
        E 16 b1 0b 6e
        E 96 b1 0b 33
        E 32 b1 0b 08
        E 16 81 1e 00
        E 288 b1 0c 40
        E 0 b1 0b 7f
        E 0 91 23 7f
        E 16 b1 0c 60
        E 0 b1 0b 77
        E 16 b1 0b 6e
        E 16 b1 0b 66
        E 16 b1 0b 5d
        E 16 b1 0b 55
        E 16 b1 0b 4c
        E 16 b1 0b 44
        E 16 b1 0b 22
        E 64 81 23 00
        E 32 b1 0c 40
        E 0 b1 0b 5d
        E 0 91 2f 5d
        E 16 b1 0c 60
        E 0 b1 0b 55
        E 16 b1 0b 4c
        E 16 81 2f 00
        E 64 b1 0c 40
        E 0 b1 0b 6e
        E 0 91 1e 6e
        E 16 b1 0c 60
        E 0 b1 0b 66
        E 16 b1 0b 5d
        E 16 b1 0b 55
        E 16 b1 0b 4c
        E 16 b1 0b 44
        E 16 b1 0b 3b
        E 16 b1 0b 33
        E 16 b1 0b 11
        E 64 81 1e 00
        E 32 b1 0c 40
        E 0 b1 0b 6e
        E 0 91 1e 6e
        E 16 b1 0c 60
        E 0 b1 0b 66
        E 16 b1 0b 5d
        E 16 b1 0b 55
        E 16 b1 0b 4c
        E 16 b1 0b 44
        E 16 b1 0b 3b
        E 16 b1 0b 33
        E 16 b1 0b 11
        E 64 81 1e 00
        E 32 b1 0c 40
        E 0 b1 0b 66
        E 0 91 2f 66
        E 16 b1 0c 60
        E 0 b1 0b 5d
        E 16 b1 0b 55
        E 16 b1 0b 08
        E 64 b1 0c 40
        E 0 b1 0b 7f
        E 0 81 2f 00
        E 0 91 23 7f
        E 16 b1 0c 60
        E 0 b1 0b 77
        E 16 b1 0b 6e
        E 16 b1 0b 66
        E 16 b1 0b 5d
        E 16 b1 0b 55
        E 16 b1 0b 4c
        E 16 b1 0b 44
        E 16 b1 0b 22
        E 64 81 23 00
        E 32 b1 0c 40
        E 0 b1 0b 5d
        E 0 91 2f 5d
        E 16 b1 0c 60
        E 0 b1 0b 55
        E 16 b1 0b 4c
        E 16 81 2f 00
        E 64 b1 0c 40
        E 0 b1 0b 6e
        E 0 91 1e 6e
        E 16 b1 0c 60
        E 0 b1 0b 66
        E 16 b1 0b 5d
        E 16 b1 0b 55
        E 16 b1 0b 4c
        E 16 b1 0b 44
        E 16 b1 0b 3b
        E 16 b1 0b 33
        E 16 b1 0b 11
        E 64 81 1e 00
        E 32 b1 0c 40
        E 0 b1 0b 6e
        E 0 91 1e 6e
        E 16 b1 0c 60
        E 0 b1 0b 66
        E 16 b1 0b 5d
        E 16 b1 0b 55
        E 16 b1 0b 4c
        E 16 b1 0b 44
        E 16 b1 0b 3b
        E 16 b1 0b 33
        E 16 b1 0b 11
        E 64 81 1e 00
        E 32 b1 0c 40
        E 0 b1 0b 66
        E 0 91 2f 66
        E 16 b1 0c 60
        E 0 b1 0b 5d
        E 16 b1 0b 55
        E 16 b1 0b 08
        E 64 b1 0c 40
        E 0 b1 0b 7f
        E 0 81 2f 00
        E 0 91 22 7f
        E 16 b1 0c 60
        E 0 b1 0b 77
        E 16 b1 0b 6e
        E 16 b1 0b 66
        E 16 b1 0b 5d
        E 16 b1 0b 55
        E 16 b1 0b 4c
        E 16 b1 0b 44
        E 16 b1 0b 22
        E 64 81 22 00
        E 32 b1 0c 40
        E 0 b1 0b 5d
        E 0 91 2e 5d
        E 16 b1 0c 60
        E 0 b1 0b 55
        E 16 b1 0b 4c
        E 16 81 2e 00
        E 64 b1 0c 40
        E 0 b1 0b 6e
        E 0 91 1e 6e
        E 16 b1 0c 60
        E 0 b1 0b 66
        E 16 b1 0b 5d
        E 16 b1 0b 55
        E 16 b1 0b 4c
        E 16 b1 0b 44
        E 16 b1 0b 3b
        E 16 b1 0b 33
        E 16 b1 0b 11
        E 64 81 1e 00
        E 32 b1 0c 40
        E 0 b1 0b 6e
        E 0 91 1e 6e
        E 16 b1 0c 60
        E 0 b1 0b 66
        E 16 b1 0b 5d
        E 16 b1 0b 55
        E 16 b1 0b 4c
        E 16 b1 0b 44
        E 16 b1 0b 3b
        E 16 b1 0b 33
        E 16 b1 0b 11
        E 64 81 1e 00
        E 32 b1 0c 40
        E 0 b1 0b 66
        E 0 91 2e 66
        E 16 b1 0c 60
        E 0 b1 0b 5d
        E 16 b1 0b 55
        E 16 b1 0b 08
        E 64 b1 0c 40
        E 0 b1 0b 7f
        E 0 81 2e 00
        E 0 91 22 7f
        E 16 b1 0c 60
        E 0 b1 0b 77
        E 16 b1 0b 6e
        E 16 b1 0b 66
        E 16 b1 0b 5d
        E 16 b1 0b 55
        E 16 b1 0b 4c
        E 16 b1 0b 44
        E 16 b1 0b 22
        E 64 81 22 00
        E 32 b1 0c 40
        E 0 b1 0b 5d
        E 0 91 2e 5d
        E 16 b1 0c 60
        E 0 b1 0b 55
        E 16 b1 0b 4c
        E 16 81 2e 00
        E 64 b1 0c 40
        E 0 b1 0b 6e
        E 0 91 1e 6e
        E 16 b1 0c 60
        E 0 b1 0b 66
        E 16 b1 0b 5d
        E 16 b1 0b 55
        E 16 b1 0b 4c
        E 16 b1 0b 44
        E 16 b1 0b 3b
        E 16 b1 0b 33
        E 16 b1 0b 11
        E 64 81 1e 00
        E 32 b1 0c 40
        E 0 b1 0b 6e
        E 0 91 1e 6e
        E 16 b1 0c 60
        E 0 b1 0b 66
        E 16 b1 0b 5d
        E 16 b1 0b 55
        E 16 b1 0b 4c
        E 16 b1 0b 44
        E 16 b1 0b 3b
        E 16 b1 0b 33
        E 16 b1 0b 11
        E 64 81 1e 00
        E 32 b1 0c 40
        E 0 b1 0b 66
        E 0 91 2e 66
        E 16 b1 0c 60
        E 0 b1 0b 5d
        E 16 b1 0b 55
        E 16 b1 0b 08
        E 64 b1 0c 40
        E 0 b1 0b 7f
        E 0 81 2e 00
        E 0 91 20 7f
        E 16 b1 0c 60
        E 0 b1 0b 77
        E 16 b1 0b 6e
        E 16 b1 0b 66
        E 16 b1 0b 5d
        E 16 b1 0b 55
        E 16 b1 0b 4c
        E 16 b1 0b 44
        E 16 b1 0b 22
        E 64 81 20 00
        E 32 b1 0c 40
        E 0 b1 0b 5d
        E 0 91 2c 5d
        E 16 b1 0c 60
        E 0 b1 0b 55
        E 16 b1 0b 4c
        E 16 81 2c 00
        E 64 b1 0c 40
        E 0 b1 0b 6e
        E 0 91 19 6e
        E 16 b1 0c 60
        E 0 b1 0b 66
        E 16 b1 0b 5d
        E 16 b1 0b 55
        E 16 b1 0b 4c
        E 16 b1 0b 44
        E 16 b1 0b 3b
        E 16 b1 0b 33
        E 16 b1 0b 11
        E 64 81 19 00
        E 32 b1 0c 40
        E 0 b1 0b 6e
        E 0 91 19 6e
        E 16 b1 0c 60
        E 0 b1 0b 66
        E 16 b1 0b 5d
        E 16 b1 0b 55
        E 16 b1 0b 4c
        E 16 b1 0b 44
        E 16 b1 0b 3b
        E 16 b1 0b 33
        E 16 b1 0b 11
        E 64 81 19 00
        E 32 b1 0c 40
        E 0 b1 0b 66
        E 0 91 25 66
        E 16 b1 0c 60
        E 0 b1 0b 5d
        E 16 b1 0b 55
        E 16 b1 0b 08
        E 64 b1 0c 40
        E 0 b1 0b 7f
        E 0 81 25 00
        E 0 91 20 7f
        E 16 b1 0c 60
        E 0 b1 0b 77
        E 16 b1 0b 6e
        E 16 b1 0b 66
        E 16 b1 0b 5d
        E 16 b1 0b 55
        E 16 b1 0b 4c
        E 16 b1 0b 44
        E 16 b1 0b 22
        E 64 81 20 00
        E 32 b1 0c 40
        E 0 b1 0b 5d
        E 0 91 2c 5d
        E 16 b1 0c 60
        E 0 b1 0b 55
        E 16 b1 0b 4c
        E 16 81 2c 00
        E 64 b1 0c 40
        E 0 b1 0b 6e
        E 0 91 19 6e
        E 16 b1 0c 60
        E 0 b1 0b 66
        E 16 b1 0b 5d
        E 16 b1 0c 40
        E 0 b1 0b 11
        E 0 81 19 00
        E 0 91 5f 11
        E 32 b1 0b 66
        E 0 81 5f 00
        E 0 91 17 66
        E 16 81 17 00
        E 32 b1 0b 55
        E 0 91 55 55
        E 16 81 55 00
        E 32 b1 0b 44
        E 0 91 50 44
        E 16 81 50 00
        E 32 b1 0b 33
        E 0 91 4a 33
        E 16 b1 0c 60
        E 0 b1 0b 66
        E 0 81 4a 00
        E 0 91 19 66
        E 16 b1 0b 5d
        E 16 b1 0b 55
        E 16 b1 0b 4c
        E 16 b1 0b 44
        E 16 b1 0b 3b
        E 16 b1 0b 33
        E 16 b1 0b 11
        E 64 81 19 00
        E 32 b1 0c 40
        E 0 b1 0b 66
        E 0 91 25 66
        E 16 b1 0c 60
        E 0 b1 0b 5d
        E 16 b1 0b 55
        E 16 b1 0b 08
        E 64 b1 0c 40
        E 0 b1 0b 66
        E 0 81 25 00
        E 0 91 2a 66
        E 16 b1 0b 55
        E 64 81 2a 00
        E 32 b1 0b 7f
        E 0 91 1e 7f
        E 16 b1 0c 60
        E 0 b1 0b 77
        E 16 b1 0b 6e
        E 16 b1 0b 22
        E 64 b1 0c 40
        E 0 b1 0b 7f
        E 16 b1 0c 60
        E 0 b1 0b 77
        E 16 b1 0b 6e
        E 16 b1 0b 22
        E 64 b1 0c 40
        E 0 b1 0b 66
        E 0 81 1e 00
        E 0 91 2c 66
        E 16 b1 0b 55
        E 64 81 2c 00
        E 32 b1 0b 7f
        E 0 91 20 7f
        E 16 b1 0c 60
        E 0 b1 0b 77
        E 16 b1 0b 6e
        E 16 b1 0b 22
        E 64 b1 0c 40
        E 0 b1 0b 7f
        E 16 b1 0c 60
        E 0 b1 0b 77
        E 16 b1 0b 6e
        E 16 b1 0b 22
        E 64 b1 0c 40
        E 0 b1 0b 66
        E 0 81 20 00
        E 0 91 2d 66
        E 16 b1 0b 55
        E 64 81 2d 00
        E 32 b1 0b 7f
        E 0 91 21 7f
        E 16 b1 0c 60
        E 0 b1 0b 77
        E 16 b1 0b 6e
        E 16 b1 0b 22
        E 16 b1 0c 40
        E 0 81 21 00
        E 0 91 4d 22
        E 32 b1 0c 60
        E 0 81 4d 00
        E 0 91 21 22
        E 16 b1 0c 40
        E 0 b1 0b 7f
        E 16 b1 0c 60
        E 0 b1 0b 77
        E 16 b1 0b 6e
        E 16 b1 0b 22
        E 64 b1 0c 40
        E 0 b1 0b 66
        E 0 81 21 00
        E 0 91 2e 66
        E 16 b1 0b 55
        E 32 81 2e 00
        E 64 b1 0b 7f
        E 0 91 22 7f
        E 16 b1 0c 60
        E 0 b1 0b 77
        E 16 b1 0b 6e
        E 16 b1 0b 22
        E 64 b1 0c 40
        E 0 b1 0b 7f
        E 0 81 22 00
        E 0 91 1e 7f
        E 16 b1 0c 60
        E 0 b1 0b 77
        E 16 b1 0b 22
        E 64 81 1e 00
        E 128 b1 0c 40
        E 0 b1 0b 33
        E 0 91 47 33
        E 16 81 47 00
        E 96 91 46 33
        E 16 b1 0b 22
        E 48 81 46 00
        E 48 b1 0b 6e
        E 0 91 1e 6e
        E 16 b1 0c 60
        E 0 b1 0b 66
        E 16 b1 0b 5d
        E 16 b1 0b 55
        E 16 b1 0b 4c
        E 16 b1 0b 11
        E 32 b1 0c 40
        E 0 b1 0b 7f
        E 0 81 1e 00
        E 0 91 23 7f
        E 16 b1 0c 60
        E 0 b1 0b 77
        E 16 b1 0b 6e
        E 16 b1 0b 66
        E 16 b1 0b 5d
        E 16 b1 0b 55
        E 16 b1 0b 4c
        E 16 b1 0b 44
        E 16 b1 0b 22
        E 64 81 23 00
        E 32 b1 0c 40
        E 0 b1 0b 5d
        E 0 91 2f 5d
        E 16 b1 0c 60
        E 0 b1 0b 55
        E 16 b1 0b 4c
        E 16 81 2f 00
        E 64 b1 0c 40
        E 0 b1 0b 6e
        E 0 91 1e 6e
        E 16 b1 0c 60
        E 0 b1 0b 66
        E 16 b1 0b 5d
        E 16 b1 0b 55
        E 16 b1 0b 4c
        E 16 b1 0b 44
        E 16 b1 0b 3b
        E 16 b1 0b 33
        E 16 b1 0b 11
        E 64 81 1e 00
        E 32 b1 0c 40
        E 0 b1 0b 6e
        E 0 91 1e 6e
        E 16 b1 0c 60
        E 0 b1 0b 66
        E 16 b1 0b 5d
        E 16 b1 0b 55
        E 16 b1 0b 4c
        E 16 b1 0b 44
        E 16 b1 0b 3b
        E 16 b1 0b 33
        E 16 b1 0b 11
        E 64 81 1e 00
        E 32 b1 0c 40
        E 0 b1 0b 66
        E 0 91 2f 66
        E 16 b1 0c 60
        E 0 b1 0b 5d
        E 16 b1 0b 55
        E 16 b1 0b 08
        E 64 b1 0c 40
        E 0 b1 0b 7f
        E 0 81 2f 00
        E 0 91 23 7f
        E 16 b1 0c 60
        E 0 b1 0b 77
        E 16 b1 0b 6e
        E 16 b1 0b 66
        E 16 b1 0b 5d
        E 16 b1 0b 55
        E 16 b1 0b 4c
        E 16 b1 0b 44
        E 16 b1 0b 22
        E 64 81 23 00
        E 32 b1 0c 10
        E 0 b1 0b 2a
        E 0 91 3f 2a
        E 32 b1 0b 19
        E 32 81 3f 00
        E 48 b1 0c 40
        E 0 b1 0b 6e
        E 0 91 1e 6e
        E 16 b1 0c 60
        E 0 b1 0b 66
        E 16 b1 0b 5d
        E 16 b1 0b 55
        E 16 b1 0b 4c
        E 16 b1 0b 44
        E 16 b1 0b 3b
        E 16 b1 0b 33
        E 16 b1 0b 11
        E 64 81 1e 00
        E 32 b1 0c 40
        E 0 b1 0b 6e
        E 0 91 1e 6e
        E 16 b1 0c 60
        E 0 b1 0b 66
        E 16 b1 0b 5d
        E 16 b1 0b 55
        E 16 b1 0b 4c
        E 16 b1 0b 44
        E 16 b1 0b 3b
        E 16 b1 0b 33
        E 16 b1 0b 11
        E 64 81 1e 00
        E 32 b1 0c 40
        E 0 b1 0b 66
        E 0 91 2f 66
        E 16 b1 0c 60
        E 0 b1 0b 5d
        E 16 b1 0b 55
        E 16 b1 0b 08
        E 64 b1 0c 40
        E 0 b1 0b 7f
        E 0 81 2f 00
        E 0 91 22 7f
        E 16 b1 0c 60
        E 0 b1 0b 77
        E 16 b1 0b 6e
        E 16 b1 0b 66
        E 16 b1 0b 5d
        E 16 b1 0b 55
        E 16 b1 0b 4c
        E 16 b1 0b 44
        E 16 b1 0b 22
        E 64 81 22 00
        E 32 b1 0c 40
        E 0 b1 0b 5d
        E 0 91 2e 5d
        E 16 b1 0c 60
        E 0 b1 0b 55
        E 16 b1 0b 4c
        E 16 81 2e 00
        E 32 b1 0c 20
        E 0 b1 0b 22
        E 0 91 40 22
        E 96 b1 0b 2a
        E 128 b1 0b 33
        E 128 b1 0c 60
        E 0 b1 0b 7f
        E 0 81 40 00
        E 0 91 32 7f
        E 16 81 32 00
        E 0 91 2c 7f
        E 16 81 2c 00
        E 0 91 27 7f
        E 16 b1 0b 33
        E 0 81 27 00
        E 0 91 3a 33
        E 16 81 3a 00
        E 0 91 3b 33
        E 16 81 3b 00
        E 0 91 3d 33
        E 16 81 3d 00
        E 32 b1 0c 40
        E 0 b1 0b 66
        E 0 91 2e 66
        E 16 b1 0c 60
        E 0 b1 0b 5d
        E 16 b1 0b 55
        E 16 b1 0b 08
        E 16 b1 0b 7f
        E 0 81 2e 00
        E 0 91 38 7f
        E 16 81 38 00
        E 0 91 24 7f
        E 16 81 24 00
        E 0 91 2b 7f
        E 16 81 2b 00
        E 0 91 24 7f
        E 16 81 24 00
        E 0 91 37 7f
        E 16 b1 0c 40
        E 0 81 37 00
        E 0 91 28 7f
        E 16 81 28 00
        E 0 91 24 7f
        E 16 81 24 00
        E 0 91 15 7f
        E 16 b1 0b 22
        E 16 b1 0b 7f
        E 16 b1 0b 22
        E 16 b1 0b 7f
        E 16 b1 0b 22
        E 16 b1 0b 7f
        E 16 b1 0b 22
        E 16 b1 0b 7f
        E 16 b1 0b 22
        E 16 b1 0b 7f
        E 16 b1 0b 22
        E 16 b1 0b 7f
        E 0 81 15 00
        E 0 91 1f 7f
        E 16 81 1f 00
        E 0 91 1d 7f
        E 64 b1 0b 6e
        E 0 81 1d 00
        E 0 91 2d 6e
        E 16 81 2d 00
        E 0 91 30 6e
        E 16 81 30 00
        E 0 91 36 6e
        E 16 81 36 00
        E 0 91 3e 6e
        E 16 81 3e 00
        E 0 91 41 6e
        E 16 81 41 00
        E 0 91 4a 6e
        E 16 b1 0b 2a
        E 128 b1 0b 08
        E 80 81 4a 00
        E 32 91 4a 08
        E 208 81 4a 00
        E 80 b1 0c 60
        E 0 b1 0b 5d
        E 0 91 20 5d
        E 16 b1 0b 44
        E 0 81 20 00
        E 0 91 2a 44
        E 16 b1 0b 33
        E 32 b1 0b 22
        E 16 b1 0b 44
        E 16 b1 0b 33
        E 32 b1 0b 22
        E 16 b1 0b 44
        E 16 b1 0b 33
        E 32 b1 0b 22
        E 16 b1 0b 44
        E 16 b1 0b 33
        E 32 b1 0b 22
        E 16 b1 0c 40
        E 0 b1 0b 6e
        E 0 81 2a 00
        E 0 91 19 6e
        E 16 b1 0c 60
        E 0 b1 0b 66
        E 16 b1 0b 5d
        E 16 b1 0b 55
        E 16 b1 0b 4c
        E 16 b1 0b 44
        E 16 b1 0b 3b
        E 16 b1 0b 33
        E 16 b1 0b 11
        E 64 81 19 00
        E 32 b1 0c 40
        E 0 b1 0b 6e
        E 0 91 19 6e
        E 16 b1 0c 60
        E 0 b1 0b 66
        E 16 b1 0b 5d
        E 16 b1 0b 55
        E 16 b1 0b 4c
        E 16 b1 0b 44
        E 16 b1 0b 3b
        E 16 b1 0b 33
        E 16 b1 0b 11
        E 64 81 19 00
        E 32 b1 0c 40
        E 0 b1 0b 66
        E 0 91 25 66
        E 16 b1 0c 60
        E 0 b1 0b 5d
        E 16 b1 0b 55
        E 16 b1 0b 08
        E 64 b1 0c 40
        E 0 b1 0b 7f
        E 0 81 25 00
        E 0 91 20 7f
        E 16 b1 0c 60
        E 0 b1 0b 77
        E 16 b1 0b 6e
        E 16 b1 0b 66
        E 16 b1 0b 5d
        E 16 b1 0b 55
        E 16 b1 0b 4c
        E 16 b1 0b 44
        E 16 b1 0b 22
        E 16 b1 0b 44
        E 0 81 20 00
        E 0 91 2a 44
        E 16 b1 0b 33
        E 32 b1 0b 22
        E 16 b1 0b 44
        E 16 b1 0b 33
        E 32 b1 0b 22
        E 16 b1 0b 44
        E 16 b1 0b 33
        E 32 b1 0b 22
        E 16 b1 0b 44
        E 16 b1 0b 33
        E 32 b1 0b 22
        E 16 b1 0b 44
        E 16 b1 0b 33
        E 32 b1 0b 22
        E 16 b1 0b 44
        E 16 b1 0b 33
        E 32 b1 0b 22
        E 16 b1 0b 44
        E 16 b1 0b 33
        E 32 b1 0b 22
        E 16 b1 0b 44
        E 16 b1 0b 33
        E 32 b1 0b 22
        E 16 b1 0b 44
        E 16 b1 0b 33
        E 32 b1 0b 22
        E 16 b1 0b 44
        E 16 b1 0b 33
        E 32 b1 0b 22
        E 16 b1 0b 44
        E 16 b1 0b 33
        E 32 b1 0b 22
        E 16 b1 0b 44
        E 16 b1 0b 33
        E 32 b1 0b 22
        E 16 b1 0b 44
        E 16 b1 0b 33
        E 32 b1 0b 22
        E 16 b1 0b 44
        E 16 b1 0b 22
        E 0 81 2a 00
        E 0 91 19 22
        E 16 b1 0c 40
        E 0 b1 0b 7f
        E 0 81 19 00
        E 0 91 1b 7f
        E 16 b1 0c 60
        E 0 b1 0b 77
        E 16 b1 0b 6e
        E 16 b1 0b 66
        E 16 b1 0b 5d
        E 16 b1 0b 22
        E 64 81 1b 00
        E 80 b1 0c 40
        E 0 b1 0b 7f
        E 0 91 1c 7f
        E 16 b1 0c 60
        E 0 b1 0b 77
        E 16 b1 0b 6e
        E 16 b1 0b 66
        E 16 b1 0b 5d
        E 16 b1 0b 22
        E 32 b1 0c 40
        E 0 b1 0b 7f
        E 0 81 1c 00
        E 0 91 1d 7f
        E 16 b1 0c 60
        E 0 b1 0b 77
        E 16 b1 0b 6e
        E 16 b1 0b 66
        E 16 b1 0b 5d
        E 16 b1 0c 10
        E 0 b1 0b 11
        E 0 81 1d 00
        E 0 91 5f 11
        E 32 b1 0c 40
        E 0 b1 0b 66
        E 0 81 5f 00
        E 0 91 17 66
        E 16 81 17 00
        E 32 b1 0b 55
        E 0 91 55 55
        E 16 81 55 00
        E 32 b1 0b 44
        E 0 91 50 44
        E 16 81 50 00
        E 32 b1 0b 33
        E 0 91 4a 33
        E 16 81 4a 00
        E 64 b1 0b 7f
        E 0 91 1a 7f
        E 16 b1 0c 60
        E 0 b1 0b 77
        E 16 b1 0b 6e
        E 16 b1 0b 66
        E 16 b1 0b 5d
        E 16 b1 0b 22
        E 32 b1 0c 40
        E 0 b1 0b 7f
        E 0 81 1a 00
        E 0 91 19 7f
        E 16 b1 0c 60
        E 0 b1 0b 77
        E 16 b1 0b 6e
        E 16 b1 0b 66
        E 16 b1 0b 5d
        E 16 b1 0b 22
        E 64 81 19 00
        E 80 b1 0c 40
        E 0 b1 0b 7f
        E 0 91 19 7f
        E 16 b1 0c 60
        E 0 b1 0b 77
        E 16 b1 0b 6e
        E 16 b1 0b 66
        E 16 b1 0b 5d
        E 16 b1 0b 22
        E 32 b1 0c 40
        E 0 b1 0b 7f
        E 16 b1 0c 60
        E 0 b1 0b 77
        E 16 b1 0b 6e
        E 16 b1 0b 66
        E 16 b1 0b 5d
        E 16 b1 0b 22
        E 64 81 19 00
        E 192 b1 0c 40
        E 0 b1 0b 55
        E 0 91 25 55
        E 16 b1 0c 60
        E 0 b1 0b 4c
        E 16 b1 0b 44
        E 16 b1 0b 3b
        E 16 b1 0b 33
        E 16 b1 0b 2a
        E 16 b1 0b 22
        E 16 b1 0b 19
        E 32 b1 0b 11
        E 32 81 25 00
        E 16 b1 0c 20
        E 0 b1 0b 22
        E 0 91 40 22
        E 96 b1 0b 2a
        E 128 b1 0b 33
        E 128 b1 0b 3b
        E 32 b1 0c 60
        E 0 b1 0b 7f
        E 0 81 40 00
        E 0 91 32 7f
        E 16 81 32 00
        E 0 91 2c 7f
        E 16 81 2c 00
        E 0 91 27 7f
        E 16 b1 0b 33
        E 0 81 27 00
        E 0 91 3a 33
        E 16 81 3a 00
        E 0 91 3b 33
        E 16 81 3b 00
        E 0 91 3d 33
        E 16 b1 0b 2a
        E 0 81 3d 00
        E 0 91 19 2a
        E 32 b1 0b 22
        E 16 b1 0b 08
        E 64 b1 0c 40
        E 0 b1 0b 66
        E 16 b1 0c 60
        E 0 b1 0b 5d
        E 16 b1 0b 7f
        E 0 81 19 00
        E 0 91 38 7f
        E 16 81 38 00
        E 0 91 24 7f
        E 16 81 24 00
        E 0 91 2b 7f
        E 16 81 2b 00
        E 0 91 24 7f
        E 16 81 24 00
        E 0 91 37 7f
        E 16 b1 0c 40
        E 0 81 37 00
        E 0 91 28 7f
        E 16 81 28 00
        E 0 91 24 7f
        E 16 81 24 00
        E 0 91 15 7f
        E 16 b1 0b 22
        E 16 b1 0b 7f
        E 16 b1 0b 22
        E 16 b1 0b 7f
        E 16 b1 0b 22
        E 16 b1 0b 7f
        E 16 b1 0b 22
        E 16 b1 0b 7f
        E 16 b1 0b 22
        E 16 b1 0b 7f
        E 16 b1 0b 22
        E 16 b1 0b 7f
        E 0 81 15 00
        E 0 91 1f 7f
        E 16 81 1f 00
        E 0 91 1d 7f
        E 64 b1 0b 6e
        E 0 81 1d 00
        E 0 91 2d 6e
        E 16 81 2d 00
        E 0 91 30 6e
        E 16 81 30 00
        E 0 91 36 6e
        E 16 81 36 00
        E 0 91 3e 6e
        E 16 81 3e 00
        E 0 91 41 6e
        E 16 81 41 00
        E 0 91 4a 6e
        E 16 b1 0b 2a
        E 128 b1 0b 08
        E 80 81 4a 00
        E 32 91 4a 08
        E 208 81 4a 00
        E 80 b1 0c 60
        E 0 b1 0b 22
        E 0 91 19 22
        E 16 b1 0b 08
        E 64 b1 0c 40
        E 0 b1 0b 5d
        E 0 81 19 00
        E 0 91 2a 5d
        E 16 b1 0c 60
        E 0 b1 0b 55
        E 16 b1 0b 4c
        E 16 b1 0b 44
        E 16 81 2a 00
        E 48 b1 0c 40
        E 0 b1 0b 7f
        E 0 91 1e 7f
        E 16 b1 0c 60
        E 0 b1 0b 77
        E 16 b1 0b 6e
        E 16 b1 0b 66
        E 16 b1 0b 5d
        E 16 b1 0b 55
        E 16 b1 0b 4c
        E 16 b1 0b 44
        E 32 b1 0b 3b
        E 16 b1 0b 22
        E 64 b1 0c 40
        E 0 b1 0b 55
        E 0 81 1e 00
        E 0 91 2a 55
        E 16 b1 0c 60
        E 0 b1 0b 4c
        E 16 b1 0b 44
        E 16 b1 0b 3b
        E 16 81 2a 00
        E 48 b1 0c 40
        E 0 b1 0b 66
        E 0 91 19 66
        E 16 b1 0c 60
        E 0 b1 0b 5d
        E 16 b1 0b 55
        E 16 b1 0b 4c
        E 16 b1 0b 44
        E 16 b1 0b 3b
        E 16 b1 0b 33
        E 16 b1 0b 2a
        E 32 b1 0b 22
        E 16 b1 0b 08
        E 64 b1 0c 40
        E 0 b1 0b 66
        E 16 b1 0c 60
        E 0 b1 0b 5d
        E 16 b1 0b 55
        E 16 b1 0b 4c
        E 16 b1 0b 44
        E 16 b1 0b 3b
        E 16 b1 0b 33
        E 16 b1 0b 2a
        E 32 b1 0c 40
        E 0 b1 0b 33
        E 0 81 19 00
        E 0 91 49 33
        E 16 b1 0b 4c
        E 16 b1 0b 66
        E 16 b1 0b 4c
        E 16 b1 0b 22
        E 16 b1 0b 5d
        E 0 81 49 00
        E 0 91 2a 5d
        E 16 b1 0c 60
        E 0 b1 0b 55
        E 16 b1 0b 4c
        E 16 b1 0b 44
        E 16 81 2a 00
        E 112 b1 0c 40
        E 0 b1 0b 33
        E 0 91 5d 33
        E 32 b1 0b 3b
        E 16 b1 0b 33
        E 0 81 5d 00
        E 0 91 55 33
        E 32 b1 0b 2a
        E 0 81 55 00
        E 0 91 5f 2a
        E 32 b1 0b 33
        E 0 81 5f 00
        E 0 91 58 33
        E 48 b1 0b 2a
        E 0 81 58 00
        E 0 91 5a 2a
        E 32 b1 0b 22
        E 0 81 5a 00
        E 0 91 5d 22
        E 32 b1 0b 2a
        E 16 b1 0b 22
        E 0 81 5d 00
        E 0 91 55 22
        E 32 b1 0b 19
        E 0 81 55 00
        E 0 91 5f 19
        E 32 b1 0b 22
        E 0 81 5f 00
        E 0 91 58 22
        E 16 b1 0c 20
        E 0 b1 0b 5d
        E 0 81 58 00
        E 0 91 2f 5d
        E 32 b1 0b 55
        E 0 81 2f 00
        E 0 91 2e 55
        E 16 b1 0b 3b
        E 0 81 2e 00
        E 0 91 35 3b
        E 16 b1 0b 33
        E 0 81 35 00
        E 0 91 36 33
        E 16 b1 0b 2a
        E 0 81 36 00
        E 0 91 37 2a
        E 16 b1 0b 22
        E 0 81 37 00
        E 0 91 39 22
        E 16 b1 0c 60
        E 0 b1 0b 08
        E 0 81 39 00
        E 0 91 19 08
        E 32 b1 0c 40
        E 0 b1 0b 33
        E 0 81 19 00
        E 0 91 49 33
        E 16 b1 0b 4c
        E 16 b1 0b 66
        E 16 b1 0b 4c
        E 16 b1 0b 22
        E 16 b1 0c 60
        E 0 b1 0b 4c
        E 0 81 49 00
        E 0 91 19 4c
        E 16 b1 0b 44
        E 16 b1 0b 3b
        E 16 b1 0b 33
        E 16 b1 0b 2a
        E 32 b1 0b 22
        E 16 b1 0b 08
        E 32 b1 0c 40
        E 0 b1 0b 22
        E 0 81 19 00
        E 0 91 51 22
        E 16 b1 0b 19
        E 0 81 51 00
        E 0 91 4f 19
        E 16 81 4f 00
        E 0 91 4d 19
        E 16 b1 0b 33
        E 0 81 4d 00
        E 0 91 4c 33
        E 16 b1 0b 55
        E 0 81 4c 00
        E 0 91 4b 55
        E 16 81 4b 00
        E 0 91 4a 55
        E 16 b1 0b 5d
        E 0 81 4a 00
        E 0 91 49 5d
        E 32 b1 0b 55
        E 16 b1 0b 4c
        E 16 b1 0b 44
        E 16 b1 0b 3b
        E 16 b1 0b 33
        E 16 b1 0b 2a
        E 16 b1 0b 22
        E 16 b1 0b 19
        E 16 b1 0b 11
        E 16 b1 0b 08
        E 16 81 49 00
        E 80 b1 0b 66
        E 0 91 2c 66
        E 16 b1 0c 60
        E 0 b1 0b 5d
        E 16 b1 0b 55
        E 16 b1 0b 4c
        E 16 b1 0b 08
        E 48 b1 0c 40
        E 0 b1 0b 66
        E 0 81 2c 00
        E 0 91 1b 66
        E 16 b1 0c 60
        E 0 b1 0b 5d
        E 16 b1 0b 55
        E 16 b1 0b 4c
        E 16 b1 0b 44
        E 16 b1 0c 20
        E 0 b1 0b 5d
        E 0 81 1b 00
        E 0 91 2f 5d
        E 32 b1 0b 55
        E 0 81 2f 00
        E 0 91 2e 55
        E 16 b1 0b 3b
        E 0 81 2e 00
        E 0 91 35 3b
        E 16 b1 0b 33
        E 0 81 35 00
        E 0 91 36 33
        E 16 b1 0b 2a
        E 0 81 36 00
        E 0 91 37 2a
        E 16 b1 0b 22
        E 0 81 37 00
        E 0 91 39 22
        E 16 b1 0c 60
        E 0 b1 0b 08
        E 0 81 39 00
        E 0 91 1b 08
        E 32 b1 0c 40
        E 0 b1 0b 55
        E 16 b1 0c 60
        E 0 b1 0b 4c
        E 16 b1 0b 44
        E 16 b1 0b 3b
        E 16 b1 0b 33
        E 16 b1 0b 2a
        E 16 b1 0b 22
        E 16 b1 0b 19
        E 32 b1 0b 11
        E 16 81 1b 00
        E 64 b1 0c 40
        E 0 b1 0b 55
        E 0 91 2c 55
        E 16 b1 0c 60
        E 0 b1 0b 4c
        E 16 b1 0b 44
        E 16 b1 0b 3b
        E 16 81 2c 00
        E 48 b1 0c 40
        E 0 b1 0b 7f
        E 0 91 20 7f
        E 16 b1 0c 60
        E 0 b1 0b 77
        E 16 b1 0b 6e
        E 16 b1 0b 66
        E 16 b1 0b 5d
        E 16 b1 0b 55
        E 16 b1 0b 4c
        E 16 b1 0b 44
        E 32 b1 0b 3b
        E 16 b1 0b 22
        E 64 b1 0c 40
        E 0 b1 0b 66
        E 0 81 20 00
        E 0 91 2c 66
        E 16 b1 0c 60
        E 0 b1 0b 5d
        E 16 b1 0b 55
        E 16 b1 0b 4c
        E 16 b1 0b 08
        E 48 b1 0c 20
        E 0 b1 0b 11
        E 0 81 2c 00
        E 0 91 5f 11
        E 32 b1 0c 40
        E 0 b1 0b 66
        E 0 81 5f 00
        E 0 91 17 66
        E 16 81 17 00
        E 32 b1 0b 55
        E 0 91 55 55
        E 16 81 55 00
        E 32 b1 0b 44
        E 0 91 50 44
        E 16 81 50 00
        E 32 b1 0b 33
        E 0 91 4a 33
        E 16 b1 0c 60
        E 0 b1 0b 08
        E 0 81 4a 00
        E 0 91 1b 08
        E 32 b1 0c 40
        E 0 b1 0b 55
        E 16 b1 0c 60
        E 0 b1 0b 4c
        E 16 b1 0b 44
        E 16 b1 0b 3b
        E 16 b1 0b 33
        E 16 b1 0b 2a
        E 16 b1 0b 22
        E 16 b1 0b 19
        E 32 b1 0b 11
        E 16 81 1b 00
        E 64 b1 0c 40
        E 0 b1 0b 55
        E 0 91 2c 55
        E 16 b1 0c 60
        E 0 b1 0b 4c
        E 16 b1 0b 44
        E 16 b1 0b 3b
        E 16 81 2c 00
        E 48 b1 0c 40
        E 0 b1 0b 7f
        E 0 91 20 7f
        E 16 b1 0c 60
        E 0 b1 0b 77
        E 16 b1 0b 6e
        E 16 b1 0b 66
        E 16 b1 0b 5d
        E 16 b1 0b 55
        E 16 b1 0b 4c
        E 16 b1 0b 44
        E 32 b1 0b 3b
        E 16 b1 0b 22
        E 64 b1 0c 40
        E 0 b1 0b 55
        E 0 81 20 00
        E 0 91 2c 55
        E 16 b1 0c 60
        E 0 b1 0b 4c
        E 16 b1 0b 44
        E 16 b1 0b 3b
        E 16 81 2c 00
        E 48 b1 0c 40
        E 0 b1 0b 55
        E 0 91 20 55
        E 16 b1 0c 60
        E 0 b1 0b 4c
        E 16 b1 0c 20
        E 0 b1 0b 22
        E 0 81 20 00
        E 0 91 40 22
        E 96 b1 0b 2a
        E 128 b1 0b 33
        E 128 b1 0b 3b
        E 16 b1 0c 60
        E 0 b1 0b 7f
        E 0 81 40 00
        E 0 91 32 7f
        E 16 81 32 00
        E 0 91 2c 7f
        E 16 81 2c 00
        E 0 91 27 7f
        E 16 b1 0b 33
        E 0 81 27 00
        E 0 91 3a 33
        E 16 81 3a 00
        E 0 91 3b 33
        E 16 81 3b 00
        E 0 91 3d 33
        E 16 b1 0b 5d
        E 0 81 3d 00
        E 0 91 20 5d
        E 16 b1 0b 19
        E 48 b1 0c 40
        E 0 b1 0b 77
        E 0 81 20 00
        E 0 91 1d 77
        E 16 b1 0c 60
        E 0 b1 0b 6e
        E 16 b1 0b 66
        E 16 b1 0b 5d
        E 16 b1 0b 19
        E 48 b1 0c 40
        E 0 b1 0b 7f
        E 0 81 1d 00
        E 0 91 19 7f
        E 16 b1 0c 60
        E 0 b1 0b 77
        E 16 b1 0b 7f
        E 0 81 19 00
        E 0 91 38 7f
        E 16 81 38 00
        E 0 91 24 7f
        E 16 81 24 00
        E 0 91 2b 7f
        E 16 81 2b 00
        E 0 91 24 7f
        E 16 81 24 00
        E 0 91 37 7f
        E 16 b1 0c 40
        E 0 81 37 00
        E 0 91 28 7f
        E 16 81 28 00
        E 0 91 24 7f
        E 16 81 24 00
        E 0 91 15 7f
        E 16 b1 0b 22
        E 16 b1 0b 7f
        E 16 b1 0b 22
        E 16 b1 0b 7f
        E 16 b1 0b 22
        E 16 b1 0b 7f
        E 16 b1 0b 22
        E 16 b1 0b 7f
        E 16 b1 0b 22
        E 16 b1 0b 7f
        E 16 b1 0b 22
        E 16 b1 0b 7f
        E 0 81 15 00
        E 0 91 1f 7f
        E 16 81 1f 00
        E 0 91 1d 7f
        E 64 b1 0b 6e
        E 0 81 1d 00
        E 0 91 2d 6e
        E 16 81 2d 00
        E 0 91 30 6e
        E 16 81 30 00
        E 0 91 36 6e
        E 16 81 36 00
        E 0 91 3e 6e
        E 16 81 3e 00
        E 0 91 41 6e
        E 16 81 41 00
        E 0 91 4a 6e
        E 16 b1 0b 2a
        E 128 b1 0b 08
        E 80 81 4a 00
        E 32 91 4a 08
        E 208 81 4a 00
        E 80 b1 0c 60
        E 0 b1 0b 44
        E 0 91 2a 44
        E 16 b1 0b 3b
        E 16 81 2a 00
        E 48 b1 0c 40
        E 0 b1 0b 66
        E 0 91 19 66
        E 16 b1 0c 60
        E 0 b1 0b 5d
        E 16 b1 0b 55
        E 16 b1 0b 4c
        E 16 b1 0b 44
        E 16 b1 0b 3b
        E 16 b1 0b 33
        E 16 b1 0b 2a
        E 32 b1 0b 22
        E 16 b1 0b 08
        E 64 b1 0c 40
        E 0 b1 0b 66
        E 16 b1 0c 60
        E 0 b1 0b 5d
        E 16 b1 0b 55
        E 16 b1 0b 4c
        E 16 b1 0b 44
        E 16 b1 0b 3b
        E 16 b1 0b 33
        E 16 b1 0b 2a
        E 32 b1 0b 22
        E 16 b1 0b 08
        E 64 b1 0c 40
        E 0 b1 0b 5d
        E 0 81 19 00
        E 0 91 2a 5d
        E 16 b1 0c 60
        E 0 b1 0b 55
        E 16 b1 0b 4c
        E 16 b1 0b 44
        E 16 81 2a 00
        E 80 b1 0c 40
        E 0 b1 0b 11
        E 0 91 5f 11
        E 32 b1 0b 08
        E 32 81 5f 00
        E 48 b1 0c 60
        E 0 b1 0b 3b
        E 0 91 1e 3b
        E 16 b1 0b 22
        E 64 b1 0c 40
        E 0 b1 0b 55
        E 0 81 1e 00
        E 0 91 2a 55
        E 16 b1 0c 60
        E 0 b1 0b 4c
        E 16 b1 0b 44
        E 16 b1 0b 3b
        E 16 81 2a 00
        E 48 b1 0c 40
        E 0 b1 0b 66
        E 0 91 19 66
        E 16 b1 0c 60
        E 0 b1 0b 5d
        E 16 b1 0b 55
        E 16 b1 0b 4c
        E 16 b1 0b 44
        E 16 b1 0b 3b
        E 16 b1 0b 33
        E 16 81 19 00
        E 32 b1 0c 40
        E 0 b1 0b 11
        E 0 91 5f 11
        E 32 b1 0b 08
        E 32 81 5f 00
        E 48 b1 0c 60
        E 0 b1 0b 55
        E 0 91 19 55
        E 16 b1 0b 4c
        E 16 b1 0b 44
        E 16 b1 0b 3b
        E 16 b1 0b 33
        E 16 b1 0b 2a
        E 32 b1 0b 22
        E 16 b1 0b 08
        E 64 b1 0c 40
        E 0 b1 0b 5d
        E 0 81 19 00
        E 0 91 2a 5d
        E 16 b1 0c 60
        E 0 b1 0b 55
        E 16 b1 0b 4c
        E 16 b1 0b 44
        E 16 81 2a 00
        E 48 b1 0c 40
        E 0 b1 0b 7f
        E 0 91 1e 7f
        E 16 b1 0c 60
        E 0 b1 0b 77
        E 16 b1 0b 6e
        E 16 b1 0b 66
        E 16 b1 0b 5d
        E 16 b1 0b 55
        E 16 b1 0b 4c
        E 16 b1 0b 44
        E 32 b1 0b 3b
        E 16 b1 0c 40
        E 0 b1 0b 33
        E 0 81 1e 00
        E 0 91 49 33
        E 16 b1 0b 4c
        E 16 b1 0b 66
        E 16 b1 0b 4c
        E 16 b1 0b 22
        E 16 b1 0c 60
        E 0 b1 0b 4c
        E 0 81 49 00
        E 0 91 2a 4c
        E 16 b1 0b 44
        E 16 b1 0b 3b
        E 16 81 2a 00
        E 48 b1 0c 40
        E 0 b1 0b 66
        E 0 91 19 66
        E 16 b1 0c 60
        E 0 b1 0b 5d
        E 16 b1 0b 55
        E 16 b1 0b 4c
        E 16 b1 0b 44
        E 16 b1 0b 3b
        E 16 b1 0b 33
        E 16 b1 0b 2a
        E 32 b1 0b 22
        E 16 b1 0b 08
        E 64 b1 0c 40
        E 0 b1 0b 66
        E 16 b1 0c 60
        E 0 b1 0b 5d
        E 16 b1 0b 55
        E 16 b1 0b 4c
        E 16 b1 0b 44
        E 16 b1 0b 3b
        E 16 b1 0b 33
        E 16 b1 0b 2a
        E 32 b1 0b 22
        E 16 b1 0b 08
        E 64 b1 0c 40
        E 0 b1 0b 5d
        E 0 81 19 00
        E 0 91 2a 5d
        E 16 81 2a 00
        E 0 b1 7b 00
        E 0 ff 2f 00
      >
    >
  >
  <TRACK {02073957-6A0B-4999-A9ED-422238519BBA}
    NAME "NES - Triangle [ch2]"
    PEAKCOL 16744192
    BEAT -1
    AUTOMODE 0
    PANLAWFLAGS 3
    VOLPAN 1 0 -1 -1 1
    MUTESOLO 0 0 0
    IPHASE 0
    PLAYOFFS 0 1
    ISBUS 0 0
    BUSCOMP 0 0 0 0 0
    SHOWINMIX 1 0.6667 0.5 1 0.5 0 0 0
    FIXEDLANES 9 0 0 0 0
    SEL 0
    REC 0 5088 1 0 0 0 0 0
    VU 2
    TRACKHEIGHT 0 0 0 0 0 0 0
    INQ 0 0 0 0.5 100 0 0 100
    NCHAN 2
    FX 1
    TRACKID {02073957-6A0B-4999-A9ED-422238519BBA}
    PERF 0
    MIDIOUT -1
    MAINSEND 1 0
    <FXCHAIN
      WNDRECT 24 52 700 560
      SHOW 0
      LASTSEL 0
      DOCKED 0
      BYPASS 0 0 0
      <JS "ReapNES Studio/ReapNES_Console.jsfx" ""
        2 15 1 10 80 10 100 2 1 15 1 5 60 10 80 1 1 0 50 0 0 15 1 0 100 0 0 0.500000 0.500000 0.400000 0.300000 0.800000 2 1 0 0 0 0 - - - - - - - - - - - - - - - - - - - - - - - - - -
      >
      FLOATPOS 0 0 0 0
      FXID {9510B5DE-0389-43D0-93D3-4898AC9064EA}
      WAK 0 0
    >
    <ITEM
      POSITION 0
      LENGTH 74.5412153
      LOOP 0
      ALLTAKES 0
      FADEIN 0 0 0 0 0 0 0
      FADEOUT 0 0 0 0 0 0 0
      MUTE 0 0
      SEL 0
      IGUID {A555AD72-3ECE-4AD7-B385-9B127DEE3E7A}
      <SOURCE MIDI
        HASDATA 1 480 QN
        CCINTERP 32
        E 0 c2 26
        E 256 b2 0b 7f
        E 0 92 2d 7f
        E 48 82 2d 00
        E 80 b2 0b 7f
        E 0 92 39 7f
        E 48 82 39 00
        E 592 b2 0b 7f
        E 0 92 2d 7f
        E 48 82 2d 00
        E 336 b2 0b 7f
        E 0 92 2d 7f
        E 48 82 2d 00
        E 336 b2 0b 7f
        E 0 92 2f 7f
        E 64 82 2f 00
        E 64 b2 0b 7f
        E 0 92 30 7f
        E 80 82 30 00
        E 176 b2 0b 7f
        E 0 92 2f 7f
        E 32 82 2f 00
        E 96 b2 0b 7f
        E 0 92 2d 7f
        E 80 82 2d 00
        E 176 b2 0b 7f
        E 0 92 2f 7f
        E 80 82 2f 00
        E 48 b2 0b 7f
        E 0 92 2d 7f
        E 80 82 2d 00
        E 176 b2 0b 7f
        E 0 92 2b 7f
        E 80 82 2b 00
        E 48 b2 0b 7f
        E 0 92 2d 7f
        E 80 82 2d 00
        E 176 b2 0b 7f
        E 0 92 2d 7f
        E 80 82 2d 00
        E 48 b2 0b 7f
        E 0 92 32 7f
        E 80 82 32 00
        E 176 b2 0b 7f
        E 0 92 26 7f
        E 32 82 26 00
        E 96 b2 0b 7f
        E 0 92 30 7f
        E 80 82 30 00
        E 560 b2 0b 7f
        E 0 92 2f 7f
        E 80 82 2f 00
        E 48 b2 0b 7f
        E 0 92 2f 7f
        E 192 82 2f 00
        E 192 b2 0b 7f
        E 0 92 2f 7f
        E 80 82 2f 00
        E 176 b2 0b 7f
        E 0 92 2f 7f
        E 80 82 2f 00
        E 4256 b2 0b 7f
        E 0 92 46 7f
        E 16 82 46 00
        E 96 b2 0b 7f
        E 0 92 42 7f
        E 16 82 42 00
        E 96 b2 0b 7f
        E 0 92 4e 7f
        E 16 82 4e 00
        E 96 b2 0b 7f
        E 0 92 42 7f
        E 16 82 42 00
        E 96 b2 0b 7f
        E 0 92 46 7f
        E 16 82 46 00
        E 96 b2 0b 7f
        E 0 92 42 7f
        E 16 82 42 00
        E 96 b2 0b 7f
        E 0 92 4e 7f
        E 16 82 4e 00
        E 96 b2 0b 7f
        E 0 92 42 7f
        E 16 82 42 00
        E 96 b2 0b 7f
        E 0 92 46 7f
        E 16 82 46 00
        E 96 b2 0b 7f
        E 0 92 42 7f
        E 16 82 42 00
        E 96 b2 0b 7f
        E 0 92 4e 7f
        E 16 82 4e 00
        E 96 b2 0b 7f
        E 0 92 42 7f
        E 16 82 42 00
        E 96 b2 0b 7f
        E 0 92 46 7f
        E 16 82 46 00
        E 96 b2 0b 7f
        E 0 92 42 7f
        E 16 82 42 00
        E 96 b2 0b 7f
        E 0 92 4e 7f
        E 16 82 4e 00
        E 96 b2 0b 7f
        E 0 92 42 7f
        E 16 82 42 00
        E 96 b2 0b 7f
        E 0 92 46 7f
        E 16 82 46 00
        E 96 b2 0b 7f
        E 0 92 42 7f
        E 16 82 42 00
        E 96 b2 0b 7f
        E 0 92 4e 7f
        E 16 82 4e 00
        E 96 b2 0b 7f
        E 0 92 42 7f
        E 16 82 42 00
        E 96 b2 0b 7f
        E 0 92 46 7f
        E 16 82 46 00
        E 96 b2 0b 7f
        E 0 92 42 7f
        E 16 82 42 00
        E 96 b2 0b 7f
        E 0 92 4e 7f
        E 16 82 4e 00
        E 96 b2 0b 7f
        E 0 92 42 7f
        E 16 82 42 00
        E 96 b2 0b 7f
        E 0 92 46 7f
        E 16 82 46 00
        E 96 b2 0b 7f
        E 0 92 42 7f
        E 16 82 42 00
        E 96 b2 0b 7f
        E 0 92 4e 7f
        E 16 82 4e 00
        E 96 b2 0b 7f
        E 0 92 42 7f
        E 16 82 42 00
        E 96 b2 0b 7f
        E 0 92 46 7f
        E 16 82 46 00
        E 96 b2 0b 7f
        E 0 92 42 7f
        E 16 82 42 00
        E 96 b2 0b 7f
        E 0 92 4e 7f
        E 16 82 4e 00
        E 96 b2 0b 7f
        E 0 92 42 7f
        E 16 82 42 00
        E 96 b2 0b 7f
        E 0 92 47 7f
        E 16 82 47 00
        E 96 b2 0b 7f
        E 0 92 44 7f
        E 16 82 44 00
        E 96 b2 0b 7f
        E 0 92 50 7f
        E 16 82 50 00
        E 96 b2 0b 7f
        E 0 92 44 7f
        E 16 82 44 00
        E 96 b2 0b 7f
        E 0 92 47 7f
        E 16 82 47 00
        E 96 b2 0b 7f
        E 0 92 44 7f
        E 16 82 44 00
        E 96 b2 0b 7f
        E 0 92 50 7f
        E 16 82 50 00
        E 96 b2 0b 7f
        E 0 92 44 7f
        E 16 82 44 00
        E 96 b2 0b 7f
        E 0 92 47 7f
        E 16 82 47 00
        E 96 b2 0b 7f
        E 0 92 44 7f
        E 16 82 44 00
        E 96 b2 0b 7f
        E 0 92 50 7f
        E 16 82 50 00
        E 96 b2 0b 7f
        E 0 92 44 7f
        E 16 82 44 00
        E 96 b2 0b 7f
        E 0 92 47 7f
        E 16 82 47 00
        E 96 b2 0b 7f
        E 0 92 44 7f
        E 16 82 44 00
        E 96 b2 0b 7f
        E 0 92 50 7f
        E 16 82 50 00
        E 96 b2 0b 7f
        E 0 92 44 7f
        E 16 82 44 00
        E 96 b2 0b 7f
        E 0 92 47 7f
        E 16 82 47 00
        E 96 b2 0b 7f
        E 0 92 44 7f
        E 16 82 44 00
        E 96 b2 0b 7f
        E 0 92 50 7f
        E 16 82 50 00
        E 96 b2 0b 7f
        E 0 92 44 7f
        E 16 82 44 00
        E 96 b2 0b 7f
        E 0 92 47 7f
        E 16 82 47 00
        E 96 b2 0b 7f
        E 0 92 49 7f
        E 16 82 49 00
        E 96 b2 0b 7f
        E 0 92 47 7f
        E 16 82 47 00
        E 96 b2 0b 7f
        E 0 92 44 7f
        E 16 82 44 00
        E 96 b2 0b 7f
        E 0 92 41 7f
        E 16 82 41 00
        E 96 b2 0b 7f
        E 0 92 3d 7f
        E 16 82 3d 00
        E 96 b2 0b 7f
        E 0 92 3d 7f
        E 16 82 3d 00
        E 96 b2 0b 7f
        E 0 92 3f 7f
        E 16 82 3f 00
        E 96 b2 0b 7f
        E 0 92 41 7f
        E 16 82 41 00
        E 96 b2 0b 7f
        E 0 92 42 7f
        E 16 82 42 00
        E 96 b2 0b 7f
        E 0 92 44 7f
        E 16 82 44 00
        E 96 b2 0b 7f
        E 0 92 49 7f
        E 16 82 49 00
        E 96 b2 0b 7f
        E 0 92 46 7f
        E 16 82 46 00
        E 96 b2 0b 7f
        E 0 92 42 7f
        E 16 82 42 00
        E 96 b2 0b 7f
        E 0 92 4e 7f
        E 16 82 4e 00
        E 96 b2 0b 7f
        E 0 92 42 7f
        E 16 82 42 00
        E 96 b2 0b 7f
        E 0 92 46 7f
        E 16 82 46 00
        E 96 b2 0b 7f
        E 0 92 42 7f
        E 16 82 42 00
        E 96 b2 0b 7f
        E 0 92 4e 7f
        E 16 82 4e 00
        E 96 b2 0b 7f
        E 0 92 42 7f
        E 16 82 42 00
        E 96 b2 0b 7f
        E 0 92 46 7f
        E 16 82 46 00
        E 96 b2 0b 7f
        E 0 92 42 7f
        E 16 82 42 00
        E 96 b2 0b 7f
        E 0 92 4e 7f
        E 16 82 4e 00
        E 96 b2 0b 7f
        E 0 92 42 7f
        E 16 82 42 00
        E 96 b2 0b 7f
        E 0 92 46 7f
        E 16 82 46 00
        E 96 b2 0b 7f
        E 0 92 42 7f
        E 16 82 42 00
        E 96 b2 0b 7f
        E 0 92 4e 7f
        E 16 82 4e 00
        E 96 b2 0b 7f
        E 0 92 42 7f
        E 16 82 42 00
        E 96 b2 0b 7f
        E 0 92 46 7f
        E 16 82 46 00
        E 96 b2 0b 7f
        E 0 92 42 7f
        E 16 82 42 00
        E 96 b2 0b 7f
        E 0 92 4e 7f
        E 16 82 4e 00
        E 96 b2 0b 7f
        E 0 92 42 7f
        E 16 82 42 00
        E 96 b2 0b 7f
        E 0 92 46 7f
        E 16 82 46 00
        E 96 b2 0b 7f
        E 0 92 42 7f
        E 16 82 42 00
        E 96 b2 0b 7f
        E 0 92 4e 7f
        E 16 82 4e 00
        E 96 b2 0b 7f
        E 0 92 42 7f
        E 16 82 42 00
        E 96 b2 0b 7f
        E 0 92 46 7f
        E 16 82 46 00
        E 96 b2 0b 7f
        E 0 92 42 7f
        E 16 82 42 00
        E 96 b2 0b 7f
        E 0 92 4e 7f
        E 16 82 4e 00
        E 96 b2 0b 7f
        E 0 92 42 7f
        E 16 82 42 00
        E 96 b2 0b 7f
        E 0 92 46 7f
        E 16 82 46 00
        E 96 b2 0b 7f
        E 0 92 42 7f
        E 16 82 42 00
        E 96 b2 0b 7f
        E 0 92 4e 7f
        E 16 82 4e 00
        E 96 b2 0b 7f
        E 0 92 42 7f
        E 16 82 42 00
        E 96 b2 0b 7f
        E 0 92 47 7f
        E 16 82 47 00
        E 96 b2 0b 7f
        E 0 92 44 7f
        E 16 82 44 00
        E 96 b2 0b 7f
        E 0 92 50 7f
        E 16 82 50 00
        E 96 b2 0b 7f
        E 0 92 44 7f
        E 16 82 44 00
        E 96 b2 0b 7f
        E 0 92 47 7f
        E 16 82 47 00
        E 96 b2 0b 7f
        E 0 92 44 7f
        E 16 82 44 00
        E 96 b2 0b 7f
        E 0 92 50 7f
        E 16 82 50 00
        E 96 b2 0b 7f
        E 0 92 44 7f
        E 16 82 44 00
        E 96 b2 0b 7f
        E 0 92 47 7f
        E 16 82 47 00
        E 96 b2 0b 7f
        E 0 92 44 7f
        E 16 82 44 00
        E 96 b2 0b 7f
        E 0 92 50 7f
        E 16 82 50 00
        E 96 b2 0b 7f
        E 0 92 44 7f
        E 16 82 44 00
        E 96 b2 0b 7f
        E 0 92 47 7f
        E 16 82 47 00
        E 96 b2 0b 7f
        E 0 92 44 7f
        E 16 82 44 00
        E 96 b2 0b 7f
        E 0 92 50 7f
        E 16 82 50 00
        E 96 b2 0b 7f
        E 0 92 44 7f
        E 16 82 44 00
        E 96 b2 0b 7f
        E 0 92 47 7f
        E 16 82 47 00
        E 96 b2 0b 7f
        E 0 92 44 7f
        E 16 82 44 00
        E 96 b2 0b 7f
        E 0 92 50 7f
        E 16 82 50 00
        E 96 b2 0b 7f
        E 0 92 44 7f
        E 16 82 44 00
        E 96 b2 0b 7f
        E 0 92 49 7f
        E 16 82 49 00
        E 96 b2 0b 7f
        E 0 92 3b 7f
        E 64 82 3b 00
        E 48 b2 0b 7f
        E 0 92 49 7f
        E 16 82 49 00
        E 96 b2 0b 7f
        E 0 92 3a 7f
        E 64 82 3a 00
        E 944 b2 0b 7f
        E 0 92 3b 7f
        E 80 82 3b 00
        E 144 b2 0b 7f
        E 0 92 3b 7f
        E 304 82 3b 00
        E 144 b2 0b 7f
        E 0 92 3d 7f
        E 80 82 3d 00
        E 32 b2 0b 7f
        E 0 92 3e 7f
        E 80 82 3e 00
        E 32 b2 0b 7f
        E 0 92 3f 7f
        E 80 82 3f 00
        E 32 b2 0b 7f
        E 0 92 3b 7f
        E 80 82 3b 00
        E 144 b2 0b 7f
        E 0 92 3f 7f
        E 80 82 3f 00
        E 32 b2 0b 7f
        E 0 92 47 7f
        E 80 82 47 00
        E 32 b2 0b 7f
        E 0 92 42 7f
        E 80 82 42 00
        E 32 b2 0b 7f
        E 0 92 3f 7f
        E 80 82 3f 00
        E 32 b2 0b 7f
        E 0 92 3b 7f
        E 80 82 3b 00
        E 32 b2 0b 7f
        E 0 92 3a 7f
        E 80 82 3a 00
        E 144 b2 0b 7f
        E 0 92 3a 7f
        E 304 82 3a 00
        E 32 b2 0b 7f
        E 0 92 36 7f
        E 80 82 36 00
        E 32 b2 0b 7f
        E 0 92 3a 7f
        E 80 82 3a 00
        E 32 b2 0b 7f
        E 0 92 3d 7f
        E 80 82 3d 00
        E 256 b2 0b 7f
        E 0 92 4e 7f
        E 16 82 4e 00
        E 96 b2 0b 7f
        E 0 92 49 7f
        E 16 82 49 00
        E 96 b2 0b 7f
        E 0 92 51 7f
        E 16 82 51 00
        E 96 b2 0b 7f
        E 0 92 4e 7f
        E 16 82 4e 00
        E 96 b2 0b 7f
        E 0 92 49 7f
        E 16 82 49 00
        E 96 b2 0b 7f
        E 0 92 46 7f
        E 16 82 46 00
        E 96 b2 0b 7f
        E 0 92 38 7f
        E 80 82 38 00
        E 144 b2 0b 7f
        E 0 92 38 7f
        E 304 82 38 00
        E 32 b2 0b 7f
        E 0 92 38 7f
        E 80 82 38 00
        E 32 b2 0b 7f
        E 0 92 39 7f
        E 80 82 39 00
        E 32 b2 0b 7f
        E 0 92 3a 7f
        E 80 82 3a 00
        E 32 b2 0b 7f
        E 0 92 3b 7f
        E 80 82 3b 00
        E 32 b2 0b 7f
        E 0 92 38 7f
        E 80 82 38 00
        E 144 b2 0b 7f
        E 0 92 3b 7f
        E 80 82 3b 00
        E 32 b2 0b 7f
        E 0 92 3f 7f
        E 80 82 3f 00
        E 32 b2 0b 7f
        E 0 92 3b 7f
        E 80 82 3b 00
        E 32 b2 0b 7f
        E 0 92 38 7f
        E 80 82 38 00
        E 32 b2 0b 7f
        E 0 92 35 7f
        E 80 82 35 00
        E 32 b2 0b 7f
        E 0 92 3a 7f
        E 80 82 3a 00
        E 256 b2 0b 7f
        E 0 92 3b 7f
        E 80 82 3b 00
        E 256 b2 0b 7f
        E 0 92 3c 7f
        E 80 82 3c 00
        E 256 b2 0b 7f
        E 0 92 3d 7f
        E 80 82 3d 00
        E 144 b2 0b 7f
        E 0 92 36 7f
        E 80 82 36 00
        E 144 b2 0b 7f
        E 0 92 4e 7f
        E 16 82 4e 00
        E 96 b2 0b 7f
        E 0 92 4e 7f
        E 64 82 4e 00
        E 160 b2 0b 7f
        E 0 92 3b 7f
        E 80 82 3b 00
        E 144 b2 0b 7f
        E 0 92 3b 7f
        E 304 82 3b 00
        E 144 b2 0b 7f
        E 0 92 3d 7f
        E 80 82 3d 00
        E 32 b2 0b 7f
        E 0 92 3e 7f
        E 80 82 3e 00
        E 32 b2 0b 7f
        E 0 92 3f 7f
        E 80 82 3f 00
        E 32 b2 0b 7f
        E 0 92 3b 7f
        E 80 82 3b 00
        E 144 b2 0b 7f
        E 0 92 3f 7f
        E 80 82 3f 00
        E 32 b2 0b 7f
        E 0 92 47 7f
        E 80 82 47 00
        E 32 b2 0b 7f
        E 0 92 42 7f
        E 80 82 42 00
        E 32 b2 0b 7f
        E 0 92 3f 7f
        E 80 82 3f 00
        E 32 b2 0b 7f
        E 0 92 3b 7f
        E 80 82 3b 00
        E 32 b2 0b 7f
        E 0 92 3a 7f
        E 80 82 3a 00
        E 144 b2 0b 7f
        E 0 92 3a 7f
        E 304 82 3a 00
        E 32 b2 0b 7f
        E 0 92 36 7f
        E 80 82 36 00
        E 32 b2 0b 7f
        E 0 92 3a 7f
        E 80 82 3a 00
        E 32 b2 0b 7f
        E 0 92 3d 7f
        E 80 82 3d 00
        E 256 b2 0b 7f
        E 0 92 4e 7f
        E 16 82 4e 00
        E 96 b2 0b 7f
        E 0 92 49 7f
        E 16 82 49 00
        E 96 b2 0b 7f
        E 0 92 51 7f
        E 16 82 51 00
        E 96 b2 0b 7f
        E 0 92 4e 7f
        E 16 82 4e 00
        E 96 b2 0b 7f
        E 0 92 49 7f
        E 16 82 49 00
        E 96 b2 0b 7f
        E 0 92 46 7f
        E 16 82 46 00
        E 96 b2 0b 7f
        E 0 92 38 7f
        E 80 82 38 00
        E 144 b2 0b 7f
        E 0 92 38 7f
        E 304 82 38 00
        E 32 b2 0b 7f
        E 0 92 38 7f
        E 80 82 38 00
        E 32 b2 0b 7f
        E 0 92 39 7f
        E 80 82 39 00
        E 32 b2 0b 7f
        E 0 92 3a 7f
        E 80 82 3a 00
        E 32 b2 0b 7f
        E 0 92 3b 7f
        E 80 82 3b 00
        E 32 b2 0b 7f
        E 0 92 38 7f
        E 80 82 38 00
        E 144 b2 0b 7f
        E 0 92 3b 7f
        E 80 82 3b 00
        E 32 b2 0b 7f
        E 0 92 3f 7f
        E 80 82 3f 00
        E 32 b2 0b 7f
        E 0 92 3b 7f
        E 80 82 3b 00
        E 32 b2 0b 7f
        E 0 92 38 7f
        E 80 82 38 00
        E 32 b2 0b 7f
        E 0 92 35 7f
        E 80 82 35 00
        E 32 b2 0b 7f
        E 0 92 31 7f
        E 80 82 31 00
        E 32 b2 0b 7f
        E 0 92 33 7f
        E 80 82 33 00
        E 144 b2 0b 7f
        E 0 92 34 7f
        E 80 82 34 00
        E 32 b2 0b 7f
        E 0 92 35 7f
        E 80 82 35 00
        E 32 b2 0b 7f
        E 0 92 33 7f
        E 80 82 33 00
        E 144 b2 0b 7f
        E 0 92 32 7f
        E 80 82 32 00
        E 32 b2 0b 7f
        E 0 92 31 7f
        E 80 82 31 00
        E 144 b2 0b 7f
        E 0 92 25 7f
        E 80 82 25 00
        E 32 b2 0b 7f
        E 0 92 25 7f
        E 80 82 25 00
        E 480 b2 0b 7f
        E 0 92 46 7f
        E 16 82 46 00
        E 96 b2 0b 7f
        E 0 92 42 7f
        E 16 82 42 00
        E 96 b2 0b 7f
        E 0 92 4e 7f
        E 16 82 4e 00
        E 96 b2 0b 7f
        E 0 92 42 7f
        E 16 82 42 00
        E 96 b2 0b 7f
        E 0 92 46 7f
        E 16 82 46 00
        E 96 b2 0b 7f
        E 0 92 42 7f
        E 16 82 42 00
        E 96 b2 0b 7f
        E 0 92 4e 7f
        E 16 82 4e 00
        E 96 b2 0b 7f
        E 0 92 42 7f
        E 16 82 42 00
        E 96 b2 0b 7f
        E 0 92 46 7f
        E 16 82 46 00
        E 96 b2 0b 7f
        E 0 92 42 7f
        E 16 82 42 00
        E 96 b2 0b 7f
        E 0 92 4e 7f
        E 16 82 4e 00
        E 96 b2 0b 7f
        E 0 92 42 7f
        E 16 82 42 00
        E 96 b2 0b 7f
        E 0 92 46 7f
        E 16 82 46 00
        E 96 b2 0b 7f
        E 0 92 42 7f
        E 16 82 42 00
        E 96 b2 0b 7f
        E 0 92 4e 7f
        E 16 82 4e 00
        E 96 b2 0b 7f
        E 0 92 42 7f
        E 16 82 42 00
        E 96 b2 0b 7f
        E 0 92 46 7f
        E 16 82 46 00
        E 96 b2 0b 7f
        E 0 92 42 7f
        E 16 82 42 00
        E 96 b2 0b 7f
        E 0 92 4e 7f
        E 16 82 4e 00
        E 96 b2 0b 7f
        E 0 92 42 7f
        E 16 82 42 00
        E 96 b2 0b 7f
        E 0 92 46 7f
        E 16 82 46 00
        E 96 b2 0b 7f
        E 0 92 42 7f
        E 16 82 42 00
        E 96 b2 0b 7f
        E 0 92 4e 7f
        E 16 82 4e 00
        E 96 b2 0b 7f
        E 0 92 42 7f
        E 16 82 42 00
        E 96 b2 0b 7f
        E 0 92 46 7f
        E 16 82 46 00
        E 96 b2 0b 7f
        E 0 92 42 7f
        E 16 82 42 00
        E 96 b2 0b 7f
        E 0 92 4e 7f
        E 16 82 4e 00
        E 96 b2 0b 7f
        E 0 92 42 7f
        E 16 82 42 00
        E 96 b2 0b 7f
        E 0 92 46 7f
        E 16 82 46 00
        E 96 b2 0b 7f
        E 0 92 42 7f
        E 16 82 42 00
        E 96 b2 0b 7f
        E 0 92 4e 7f
        E 16 82 4e 00
        E 96 b2 0b 7f
        E 0 92 42 7f
        E 16 82 42 00
        E 96 b2 0b 7f
        E 0 92 47 7f
        E 16 82 47 00
        E 96 b2 0b 7f
        E 0 92 44 7f
        E 16 82 44 00
        E 96 b2 0b 7f
        E 0 92 50 7f
        E 16 82 50 00
        E 96 b2 0b 7f
        E 0 92 44 7f
        E 16 82 44 00
        E 96 b2 0b 7f
        E 0 92 47 7f
        E 16 82 47 00
        E 96 b2 0b 7f
        E 0 92 44 7f
        E 16 82 44 00
        E 96 b2 0b 7f
        E 0 92 50 7f
        E 16 82 50 00
        E 96 b2 0b 7f
        E 0 92 44 7f
        E 16 82 44 00
        E 96 b2 0b 7f
        E 0 92 47 7f
        E 16 82 47 00
        E 96 b2 0b 7f
        E 0 92 44 7f
        E 16 82 44 00
        E 96 b2 0b 7f
        E 0 92 50 7f
        E 16 82 50 00
        E 96 b2 0b 7f
        E 0 92 44 7f
        E 16 82 44 00
        E 96 b2 0b 7f
        E 0 92 47 7f
        E 16 82 47 00
        E 96 b2 0b 7f
        E 0 92 44 7f
        E 16 82 44 00
        E 96 b2 0b 7f
        E 0 92 50 7f
        E 16 82 50 00
        E 96 b2 0b 7f
        E 0 92 44 7f
        E 16 82 44 00
        E 96 b2 0b 7f
        E 0 92 47 7f
        E 16 82 47 00
        E 96 b2 0b 7f
        E 0 92 44 7f
        E 16 82 44 00
        E 96 b2 0b 7f
        E 0 92 50 7f
        E 16 82 50 00
        E 96 b2 0b 7f
        E 0 92 44 7f
        E 16 82 44 00
        E 96 b2 0b 7f
        E 0 92 47 7f
        E 16 82 47 00
        E 96 b2 0b 7f
        E 0 92 49 7f
        E 16 82 49 00
        E 96 b2 0b 7f
        E 0 92 47 7f
        E 16 82 47 00
        E 96 b2 0b 7f
        E 0 92 44 7f
        E 16 82 44 00
        E 96 b2 0b 7f
        E 0 92 41 7f
        E 16 82 41 00
        E 96 b2 0b 7f
        E 0 92 3d 7f
        E 16 82 3d 00
        E 96 b2 0b 7f
        E 0 92 3d 7f
        E 16 82 3d 00
        E 96 b2 0b 7f
        E 0 92 3f 7f
        E 16 82 3f 00
        E 96 b2 0b 7f
        E 0 92 41 7f
        E 16 82 41 00
        E 96 b2 0b 7f
        E 0 92 42 7f
        E 16 82 42 00
        E 96 b2 0b 7f
        E 0 92 44 7f
        E 16 82 44 00
        E 96 b2 0b 7f
        E 0 92 49 7f
        E 16 82 49 00
        E 96 b2 0b 7f
        E 0 92 46 7f
        E 16 82 46 00
        E 96 b2 0b 7f
        E 0 92 42 7f
        E 16 82 42 00
        E 96 b2 0b 7f
        E 0 92 4e 7f
        E 16 82 4e 00
        E 96 b2 0b 7f
        E 0 92 42 7f
        E 16 82 42 00
        E 96 b2 0b 7f
        E 0 92 46 7f
        E 16 82 46 00
        E 96 b2 0b 7f
        E 0 92 42 7f
        E 16 82 42 00
        E 96 b2 0b 7f
        E 0 92 4e 7f
        E 16 82 4e 00
        E 96 b2 0b 7f
        E 0 92 42 7f
        E 16 82 42 00
        E 96 b2 0b 7f
        E 0 92 46 7f
        E 16 82 46 00
        E 96 b2 0b 7f
        E 0 92 42 7f
        E 16 82 42 00
        E 96 b2 0b 7f
        E 0 92 4e 7f
        E 16 82 4e 00
        E 96 b2 0b 7f
        E 0 92 42 7f
        E 16 82 42 00
        E 96 b2 0b 7f
        E 0 92 46 7f
        E 16 82 46 00
        E 96 b2 0b 7f
        E 0 92 42 7f
        E 16 82 42 00
        E 96 b2 0b 7f
        E 0 92 4e 7f
        E 16 82 4e 00
        E 96 b2 0b 7f
        E 0 92 42 7f
        E 16 82 42 00
        E 96 b2 0b 7f
        E 0 92 46 7f
        E 16 82 46 00
        E 96 b2 0b 7f
        E 0 92 42 7f
        E 16 82 42 00
        E 96 b2 0b 7f
        E 0 92 4e 7f
        E 16 82 4e 00
        E 96 b2 0b 7f
        E 0 92 42 7f
        E 16 82 42 00
        E 96 b2 0b 7f
        E 0 92 46 7f
        E 16 82 46 00
        E 96 b2 0b 7f
        E 0 92 42 7f
        E 16 82 42 00
        E 96 b2 0b 7f
        E 0 92 4e 7f
        E 16 82 4e 00
        E 96 b2 0b 7f
        E 0 92 42 7f
        E 16 82 42 00
        E 96 b2 0b 7f
        E 0 92 46 7f
        E 16 82 46 00
        E 96 b2 0b 7f
        E 0 92 42 7f
        E 16 82 42 00
        E 96 b2 0b 7f
        E 0 92 4e 7f
        E 16 82 4e 00
        E 96 b2 0b 7f
        E 0 92 42 7f
        E 16 82 42 00
        E 96 b2 0b 7f
        E 0 92 46 7f
        E 16 82 46 00
        E 96 b2 0b 7f
        E 0 92 42 7f
        E 16 82 42 00
        E 96 b2 0b 7f
        E 0 92 4e 7f
        E 16 82 4e 00
        E 96 b2 0b 7f
        E 0 92 42 7f
        E 16 82 42 00
        E 96 b2 0b 7f
        E 0 92 47 7f
        E 16 82 47 00
        E 96 b2 0b 7f
        E 0 92 44 7f
        E 16 82 44 00
        E 96 b2 0b 7f
        E 0 92 50 7f
        E 16 82 50 00
        E 96 b2 0b 7f
        E 0 92 44 7f
        E 16 82 44 00
        E 96 b2 0b 7f
        E 0 92 47 7f
        E 16 82 47 00
        E 96 b2 0b 7f
        E 0 92 44 7f
        E 16 82 44 00
        E 96 b2 0b 7f
        E 0 92 50 7f
        E 16 82 50 00
        E 368 b2 0b 7f
        E 0 92 3b 7f
        E 16 82 3b 00
        E 64 b2 0b 7f
        E 0 92 45 7f
        E 16 82 45 00
        E 64 b2 0b 7f
        E 0 92 4b 7f
        E 16 82 4b 00
        E 560 b2 0b 7f
        E 0 92 47 7f
        E 16 82 47 00
        E 96 b2 0b 7f
        E 0 92 44 7f
        E 16 82 44 00
        E 96 b2 0b 7f
        E 0 92 50 7f
        E 16 82 50 00
        E 96 b2 0b 7f
        E 0 92 44 7f
        E 16 82 44 00
        E 96 b2 0b 7f
        E 0 92 49 7f
        E 16 82 49 00
        E 96 b2 0b 7f
        E 0 92 3b 7f
        E 64 82 3b 00
        E 48 b2 0b 7f
        E 0 92 49 7f
        E 16 82 49 00
        E 96 b2 0b 7f
        E 0 92 3a 7f
        E 64 82 3a 00
        E 944 b2 0b 7f
        E 0 92 3b 7f
        E 80 82 3b 00
        E 144 b2 0b 7f
        E 0 92 3b 7f
        E 304 82 3b 00
        E 144 b2 0b 7f
        E 0 92 3d 7f
        E 80 82 3d 00
        E 32 b2 0b 7f
        E 0 92 3e 7f
        E 80 82 3e 00
        E 32 b2 0b 7f
        E 0 92 3f 7f
        E 80 82 3f 00
        E 32 b2 0b 7f
        E 0 92 3b 7f
        E 80 82 3b 00
        E 144 b2 0b 7f
        E 0 92 3f 7f
        E 80 82 3f 00
        E 32 b2 0b 7f
        E 0 92 47 7f
        E 80 82 47 00
        E 32 b2 0b 7f
        E 0 92 42 7f
        E 80 82 42 00
        E 32 b2 0b 7f
        E 0 92 3f 7f
        E 80 82 3f 00
        E 32 b2 0b 7f
        E 0 92 3b 7f
        E 80 82 3b 00
        E 32 b2 0b 7f
        E 0 92 3a 7f
        E 80 82 3a 00
        E 144 b2 0b 7f
        E 0 92 3a 7f
        E 304 82 3a 00
        E 32 b2 0b 7f
        E 0 92 36 7f
        E 80 82 36 00
        E 32 b2 0b 7f
        E 0 92 3a 7f
        E 80 82 3a 00
        E 32 b2 0b 7f
        E 0 92 3d 7f
        E 80 82 3d 00
        E 256 b2 0b 7f
        E 0 92 4e 7f
        E 16 82 4e 00
        E 96 b2 0b 7f
        E 0 92 49 7f
        E 16 82 49 00
        E 96 b2 0b 7f
        E 0 92 51 7f
        E 16 82 51 00
        E 96 b2 0b 7f
        E 0 92 4e 7f
        E 16 82 4e 00
        E 96 b2 0b 7f
        E 0 92 49 7f
        E 16 82 49 00
        E 96 b2 0b 7f
        E 0 92 46 7f
        E 16 82 46 00
        E 96 b2 0b 7f
        E 0 92 38 7f
        E 80 82 38 00
        E 144 b2 0b 7f
        E 0 92 38 7f
        E 304 82 38 00
        E 32 b2 0b 7f
        E 0 92 38 7f
        E 80 82 38 00
        E 32 b2 0b 7f
        E 0 92 39 7f
        E 80 82 39 00
        E 32 b2 0b 7f
        E 0 92 3a 7f
        E 80 82 3a 00
        E 32 b2 0b 7f
        E 0 92 3b 7f
        E 80 82 3b 00
        E 32 b2 0b 7f
        E 0 92 38 7f
        E 80 82 38 00
        E 144 b2 0b 7f
        E 0 92 3b 7f
        E 48 82 3b 00
        E 32 b2 0b 7f
        E 0 92 53 7f
        E 16 82 53 00
        E 32 b2 0b 7f
        E 0 92 47 7f
        E 16 82 47 00
        E 32 b2 0b 7f
        E 0 92 42 7f
        E 16 82 42 00
        E 32 b2 0b 7f
        E 0 92 3c 7f
        E 16 82 3c 00
        E 0 b2 0b 7f
        E 0 92 3b 7f
        E 64 82 3b 00
        E 32 b2 0b 7f
        E 0 92 38 7f
        E 80 82 38 00
        E 32 b2 0b 7f
        E 0 92 35 7f
        E 80 82 35 00
        E 32 b2 0b 7f
        E 0 92 3a 7f
        E 80 82 3a 00
        E 256 b2 0b 7f
        E 0 92 3b 7f
        E 80 82 3b 00
        E 256 b2 0b 7f
        E 0 92 3c 7f
        E 80 82 3c 00
        E 256 b2 0b 7f
        E 0 92 3d 7f
        E 80 82 3d 00
        E 144 b2 0b 7f
        E 0 92 36 7f
        E 80 82 36 00
        E 144 b2 0b 7f
        E 0 92 4e 7f
        E 16 82 4e 00
        E 96 b2 0b 7f
        E 0 92 4e 7f
        E 64 82 4e 00
        E 160 b2 0b 7f
        E 0 92 3b 7f
        E 80 82 3b 00
        E 144 b2 0b 7f
        E 0 92 3b 7f
        E 304 82 3b 00
        E 144 b2 0b 7f
        E 0 92 3d 7f
        E 80 82 3d 00
        E 32 b2 0b 7f
        E 0 92 3e 7f
        E 80 82 3e 00
        E 32 b2 0b 7f
        E 0 92 3f 7f
        E 80 82 3f 00
        E 32 b2 0b 7f
        E 0 92 3b 7f
        E 80 82 3b 00
        E 144 b2 0b 7f
        E 0 92 3f 7f
        E 80 82 3f 00
        E 32 b2 0b 7f
        E 0 92 47 7f
        E 80 82 47 00
        E 32 b2 0b 7f
        E 0 92 42 7f
        E 80 82 42 00
        E 32 b2 0b 7f
        E 0 92 3f 7f
        E 80 82 3f 00
        E 32 b2 0b 7f
        E 0 92 3b 7f
        E 80 82 3b 00
        E 32 b2 0b 7f
        E 0 92 3a 7f
        E 80 82 3a 00
        E 144 b2 0b 7f
        E 0 92 3a 7f
        E 304 82 3a 00
        E 32 b2 0b 7f
        E 0 92 36 7f
        E 80 82 36 00
        E 32 b2 0b 7f
        E 0 92 3a 7f
        E 80 82 3a 00
        E 32 b2 0b 7f
        E 0 92 3d 7f
        E 64 82 3d 00
        E 336 b2 0b 7f
        E 0 92 3b 7f
        E 16 82 3b 00
        E 64 b2 0b 7f
        E 0 92 45 7f
        E 16 82 45 00
        E 64 b2 0b 7f
        E 0 92 4b 7f
        E 16 82 4b 00
        E 496 b2 0b 7f
        E 0 92 38 7f
        E 16 82 38 00
        E 0 b2 0b 7f
        E 0 92 30 7f
        E 16 82 30 00
        E 0 b2 0b 7f
        E 0 92 32 7f
        E 16 82 32 00
        E 0 b2 0b 7f
        E 0 92 2e 7f
        E 16 82 2e 00
        E 0 b2 0b 7f
        E 0 92 38 7f
        E 16 82 38 00
        E 0 b2 0b 7f
        E 0 92 30 7f
        E 16 82 30 00
        E 0 b2 0b 7f
        E 0 92 32 7f
        E 16 82 32 00
        E 0 b2 0b 7f
        E 0 92 2e 7f
        E 16 82 2e 00
        E 0 b2 0b 7f
        E 0 92 38 7f
        E 16 82 38 00
        E 0 b2 0b 7f
        E 0 92 30 7f
        E 16 82 30 00
        E 0 b2 0b 7f
        E 0 92 32 7f
        E 16 82 32 00
        E 0 b2 0b 7f
        E 0 92 2e 7f
        E 16 82 2e 00
        E 0 b2 0b 7f
        E 0 92 38 7f
        E 16 82 38 00
        E 0 b2 0b 7f
        E 0 92 30 7f
        E 16 82 30 00
        E 0 b2 0b 7f
        E 0 92 32 7f
        E 16 82 32 00
        E 0 b2 0b 7f
        E 0 92 2e 7f
        E 16 82 2e 00
        E 0 b2 0b 7f
        E 0 92 38 7f
        E 208 82 38 00
        E 32 b2 0b 7f
        E 0 92 38 7f
        E 80 82 38 00
        E 32 b2 0b 7f
        E 0 92 39 7f
        E 80 82 39 00
        E 32 b2 0b 7f
        E 0 92 3a 7f
        E 80 82 3a 00
        E 32 b2 0b 7f
        E 0 92 3b 7f
        E 80 82 3b 00
        E 32 b2 0b 7f
        E 0 92 38 7f
        E 32 82 38 00
        E 0 b2 0b 7f
        E 0 92 30 7f
        E 16 82 30 00
        E 0 b2 0b 7f
        E 0 92 32 7f
        E 16 82 32 00
        E 0 b2 0b 7f
        E 0 92 2e 7f
        E 16 82 2e 00
        E 0 b2 0b 7f
        E 0 92 38 7f
        E 16 82 38 00
        E 0 b2 0b 7f
        E 0 92 30 7f
        E 16 82 30 00
        E 0 b2 0b 7f
        E 0 92 32 7f
        E 16 82 32 00
        E 0 b2 0b 7f
        E 0 92 2e 7f
        E 16 82 2e 00
        E 0 b2 0b 7f
        E 0 92 38 7f
        E 16 82 38 00
        E 0 b2 0b 7f
        E 0 92 30 7f
        E 16 82 30 00
        E 0 b2 0b 7f
        E 0 92 32 7f
        E 16 82 32 00
        E 0 b2 0b 7f
        E 0 92 2e 7f
        E 16 82 2e 00
        E 0 b2 0b 7f
        E 0 92 38 7f
        E 16 82 38 00
        E 0 b2 0b 7f
        E 0 92 30 7f
        E 16 82 30 00
        E 0 b2 0b 7f
        E 0 92 32 7f
        E 16 82 32 00
        E 0 b2 0b 7f
        E 0 92 2e 7f
        E 16 82 2e 00
        E 0 b2 0b 7f
        E 0 92 38 7f
        E 16 82 38 00
        E 0 b2 0b 7f
        E 0 92 30 7f
        E 16 82 30 00
        E 0 b2 0b 7f
        E 0 92 32 7f
        E 16 82 32 00
        E 0 b2 0b 7f
        E 0 92 2e 7f
        E 16 82 2e 00
        E 0 b2 0b 7f
        E 0 92 38 7f
        E 16 82 38 00
        E 0 b2 0b 7f
        E 0 92 30 7f
        E 16 82 30 00
        E 0 b2 0b 7f
        E 0 92 32 7f
        E 16 82 32 00
        E 0 b2 0b 7f
        E 0 92 2e 7f
        E 16 82 2e 00
        E 0 b2 0b 7f
        E 0 92 38 7f
        E 16 82 38 00
        E 0 b2 0b 7f
        E 0 92 30 7f
        E 16 82 30 00
        E 0 b2 0b 7f
        E 0 92 32 7f
        E 16 82 32 00
        E 0 b2 0b 7f
        E 0 92 2e 7f
        E 16 82 2e 00
        E 0 b2 0b 7f
        E 0 92 38 7f
        E 16 82 38 00
        E 0 b2 0b 7f
        E 0 92 30 7f
        E 16 82 30 00
        E 0 b2 0b 7f
        E 0 92 32 7f
        E 16 82 32 00
        E 0 b2 0b 7f
        E 0 92 2e 7f
        E 16 82 2e 00
        E 0 b2 0b 7f
        E 0 92 38 7f
        E 16 82 38 00
        E 0 b2 0b 7f
        E 0 92 30 7f
        E 16 82 30 00
        E 0 b2 0b 7f
        E 0 92 32 7f
        E 16 82 32 00
        E 0 b2 0b 7f
        E 0 92 2e 7f
        E 16 82 2e 00
        E 0 b2 0b 7f
        E 0 92 38 7f
        E 16 82 38 00
        E 0 b2 0b 7f
        E 0 92 30 7f
        E 16 82 30 00
        E 0 b2 0b 7f
        E 0 92 32 7f
        E 16 82 32 00
        E 0 b2 0b 7f
        E 0 92 2e 7f
        E 16 82 2e 00
        E 0 b2 0b 7f
        E 0 92 38 7f
        E 16 82 38 00
        E 0 b2 0b 7f
        E 0 92 30 7f
        E 16 82 30 00
        E 0 b2 0b 7f
        E 0 92 32 7f
        E 16 82 32 00
        E 0 b2 0b 7f
        E 0 92 2e 7f
        E 16 82 2e 00
        E 0 b2 0b 7f
        E 0 92 38 7f
        E 16 82 38 00
        E 0 b2 0b 7f
        E 0 92 30 7f
        E 16 82 30 00
        E 0 b2 0b 7f
        E 0 92 32 7f
        E 16 82 32 00
        E 0 b2 0b 7f
        E 0 92 2e 7f
        E 16 82 2e 00
        E 0 b2 0b 7f
        E 0 92 38 7f
        E 16 82 38 00
        E 0 b2 0b 7f
        E 0 92 30 7f
        E 16 82 30 00
        E 0 b2 0b 7f
        E 0 92 32 7f
        E 16 82 32 00
        E 0 b2 0b 7f
        E 0 92 2e 7f
        E 16 82 2e 00
        E 0 b2 0b 7f
        E 0 92 38 7f
        E 16 82 38 00
        E 0 b2 0b 7f
        E 0 92 30 7f
        E 16 82 30 00
        E 16 b2 0b 7f
        E 0 92 33 7f
        E 80 82 33 00
        E 144 b2 0b 7f
        E 0 92 34 7f
        E 80 82 34 00
        E 32 b2 0b 7f
        E 0 92 35 7f
        E 80 82 35 00
        E 32 b2 0b 7f
        E 0 92 53 7f
        E 16 82 53 00
        E 32 b2 0b 7f
        E 0 92 47 7f
        E 16 82 47 00
        E 32 b2 0b 7f
        E 0 92 42 7f
        E 16 82 42 00
        E 32 b2 0b 7f
        E 0 92 3c 7f
        E 16 82 3c 00
        E 64 b2 0b 7f
        E 0 92 32 7f
        E 80 82 32 00
        E 32 b2 0b 7f
        E 0 92 31 7f
        E 80 82 31 00
        E 144 b2 0b 7f
        E 0 92 25 7f
        E 80 82 25 00
        E 32 b2 0b 7f
        E 0 92 25 7f
        E 80 82 25 00
        E 480 b2 0b 7f
        E 0 92 46 7f
        E 16 82 46 00
        E 96 b2 0b 7f
        E 0 92 42 7f
        E 16 82 42 00
        E 96 b2 0b 7f
        E 0 92 4e 7f
        E 16 82 4e 00
        E 96 b2 0b 7f
        E 0 92 42 7f
        E 16 82 42 00
        E 96 b2 0b 7f
        E 0 92 46 7f
        E 16 82 46 00
        E 96 b2 0b 7f
        E 0 92 42 7f
        E 16 82 42 00
        E 352 b2 0b 7f
        E 0 92 3b 7f
        E 16 82 3b 00
        E 64 b2 0b 7f
        E 0 92 45 7f
        E 16 82 45 00
        E 64 b2 0b 7f
        E 0 92 4b 7f
        E 16 82 4b 00
        E 576 b2 0b 7f
        E 0 92 42 7f
        E 16 82 42 00
        E 96 b2 0b 7f
        E 0 92 46 7f
        E 16 82 46 00
        E 96 b2 0b 7f
        E 0 92 42 7f
        E 16 82 42 00
        E 96 b2 0b 7f
        E 0 92 4e 7f
        E 16 82 4e 00
        E 96 b2 0b 7f
        E 0 92 42 7f
        E 16 82 42 00
        E 96 b2 0b 7f
        E 0 92 46 7f
        E 16 82 46 00
        E 96 b2 0b 7f
        E 0 92 42 7f
        E 16 82 42 00
        E 96 b2 0b 7f
        E 0 92 4e 7f
        E 16 82 4e 00
        E 96 b2 0b 7f
        E 0 92 42 7f
        E 16 82 42 00
        E 96 b2 0b 7f
        E 0 92 46 7f
        E 16 82 46 00
        E 96 b2 0b 7f
        E 0 92 42 7f
        E 16 82 42 00
        E 96 b2 0b 7f
        E 0 92 4e 7f
        E 16 82 4e 00
        E 96 b2 0b 7f
        E 0 92 42 7f
        E 16 82 42 00
        E 96 b2 0b 7f
        E 0 92 46 7f
        E 16 82 46 00
        E 96 b2 0b 7f
        E 0 92 42 7f
        E 16 82 42 00
        E 96 b2 0b 7f
        E 0 92 4e 7f
        E 16 82 4e 00
        E 96 b2 0b 7f
        E 0 92 42 7f
        E 16 82 42 00
        E 96 b2 0b 7f
        E 0 92 47 7f
        E 16 82 47 00
        E 96 b2 0b 7f
        E 0 92 44 7f
        E 16 82 44 00
        E 96 b2 0b 7f
        E 0 92 50 7f
        E 16 82 50 00
        E 96 b2 0b 7f
        E 0 92 44 7f
        E 16 82 44 00
        E 96 b2 0b 7f
        E 0 92 47 7f
        E 16 82 47 00
        E 96 b2 0b 7f
        E 0 92 44 7f
        E 16 82 44 00
        E 96 b2 0b 7f
        E 0 92 50 7f
        E 16 82 50 00
        E 96 b2 0b 7f
        E 0 92 44 7f
        E 16 82 44 00
        E 96 b2 0b 7f
        E 0 92 47 7f
        E 16 82 47 00
        E 96 b2 0b 7f
        E 0 92 44 7f
        E 16 82 44 00
        E 96 b2 0b 7f
        E 0 92 50 7f
        E 16 82 50 00
        E 128 b2 0b 7f
        E 0 92 53 7f
        E 16 82 53 00
        E 32 b2 0b 7f
        E 0 92 47 7f
        E 16 82 47 00
        E 32 b2 0b 7f
        E 0 92 42 7f
        E 16 82 42 00
        E 32 b2 0b 7f
        E 0 92 3c 7f
        E 16 82 3c 00
        E 32 b2 0b 7f
        E 0 92 44 7f
        E 16 82 44 00
        E 96 b2 0b 7f
        E 0 92 50 7f
        E 16 82 50 00
        E 96 b2 0b 7f
        E 0 92 44 7f
        E 16 82 44 00
        E 96 b2 0b 7f
        E 0 92 47 7f
        E 16 82 47 00
        E 96 b2 0b 7f
        E 0 92 44 7f
        E 16 82 44 00
        E 96 b2 0b 7f
        E 0 92 50 7f
        E 16 82 50 00
        E 96 b2 0b 7f
        E 0 92 44 7f
        E 16 82 44 00
        E 96 b2 0b 7f
        E 0 92 47 7f
        E 16 82 47 00
        E 96 b2 0b 7f
        E 0 92 49 7f
        E 16 82 49 00
        E 96 b2 0b 7f
        E 0 92 47 7f
        E 16 82 47 00
        E 96 b2 0b 7f
        E 0 92 44 7f
        E 16 82 44 00
        E 96 b2 0b 7f
        E 0 92 41 7f
        E 16 82 41 00
        E 96 b2 0b 7f
        E 0 92 3d 7f
        E 16 82 3d 00
        E 352 b2 0b 7f
        E 0 92 3b 7f
        E 16 82 3b 00
        E 64 b2 0b 7f
        E 0 92 45 7f
        E 16 82 45 00
        E 64 b2 0b 7f
        E 0 92 4b 7f
        E 16 82 4b 00
        E 576 b2 0b 7f
        E 0 92 42 7f
        E 16 82 42 00
        E 96 b2 0b 7f
        E 0 92 46 7f
        E 16 82 46 00
        E 96 b2 0b 7f
        E 0 92 42 7f
        E 16 82 42 00
        E 96 b2 0b 7f
        E 0 92 4e 7f
        E 16 82 4e 00
        E 96 b2 0b 7f
        E 0 92 42 7f
        E 16 82 42 00
        E 96 b2 0b 7f
        E 0 92 46 7f
        E 16 82 46 00
        E 96 b2 0b 7f
        E 0 92 42 7f
        E 16 82 42 00
        E 96 b2 0b 7f
        E 0 92 4e 7f
        E 16 82 4e 00
        E 96 b2 0b 7f
        E 0 92 42 7f
        E 16 82 42 00
        E 96 b2 0b 7f
        E 0 92 46 7f
        E 16 82 46 00
        E 96 b2 0b 7f
        E 0 92 42 7f
        E 16 82 42 00
        E 96 b2 0b 7f
        E 0 92 4e 7f
        E 16 82 4e 00
        E 96 b2 0b 7f
        E 0 92 42 7f
        E 16 82 42 00
        E 96 b2 0b 7f
        E 0 92 46 7f
        E 16 82 46 00
        E 96 b2 0b 7f
        E 0 92 42 7f
        E 16 82 42 00
        E 96 b2 0b 7f
        E 0 92 4e 7f
        E 16 82 4e 00
        E 96 b2 0b 7f
        E 0 92 42 7f
        E 16 82 42 00
        E 96 b2 0b 7f
        E 0 92 46 7f
        E 16 82 46 00
        E 96 b2 0b 7f
        E 0 92 42 7f
        E 16 82 42 00
        E 96 b2 0b 7f
        E 0 92 4e 7f
        E 16 82 4e 00
        E 96 b2 0b 7f
        E 0 92 42 7f
        E 16 82 42 00
        E 0 b2 7b 00
        E 0 ff 2f 00
      >
    >
  >
  <TRACK {437BC8ED-00A6-4180-BA69-1C524D452536}
    NAME "NES - Noise / Drums [ch3]"
    PEAKCOL 11184810
    BEAT -1
    AUTOMODE 0
    PANLAWFLAGS 3
    VOLPAN 1 0 -1 -1 1
    MUTESOLO 0 0 0
    IPHASE 0
    PLAYOFFS 0 1
    ISBUS 0 0
    BUSCOMP 0 0 0 0 0
    SHOWINMIX 1 0.6667 0.5 1 0.5 0 0 0
    FIXEDLANES 9 0 0 0 0
    SEL 0
    REC 0 5088 1 0 0 0 0 0
    VU 2
    TRACKHEIGHT 0 0 0 0 0 0 0
    INQ 0 0 0 0.5 100 0 0 100
    NCHAN 2
    FX 1
    TRACKID {437BC8ED-00A6-4180-BA69-1C524D452536}
    PERF 0
    MIDIOUT -1
    MAINSEND 1 0
    <FXCHAIN
      WNDRECT 24 52 700 560
      SHOW 0
      LASTSEL 0
      DOCKED 0
      BYPASS 0 0 0
      <JS "ReapNES Studio/ReapNES_Console.jsfx" ""
        2 15 1 10 80 10 100 2 1 15 1 5 60 10 80 1 1 0 50 0 0 15 1 0 100 0 0 0.500000 0.500000 0.400000 0.300000 0.800000 3 1 0 0 0 0 - - - - - - - - - - - - - - - - - - - - - - - - - -
      >
      FLOATPOS 0 0 0 0
      FXID {FE9EC366-F326-49CA-8A2E-FBAD17AB317E}
      WAK 0 0
    >
    <ITEM
      POSITION 0
      LENGTH 74.5412153
      LOOP 0
      ALLTAKES 0
      FADEIN 0 0 0 0 0 0 0
      FADEOUT 0 0 0 0 0 0 0
      MUTE 0 0
      SEL 0
      IGUID {9FAB0CFC-95B1-480E-BD04-BC60CC7D78D0}
      <SOURCE MIDI
        HASDATA 1 480 QN
        CCINTERP 32
        E 0 93 2a 4c
        E 64 83 2a 00
        E 192 93 2a 22
        E 32 83 2a 00
        E 96 93 2a 4c
        E 64 83 2a 00
        E 192 93 2a 22
        E 32 83 2a 00
        E 96 93 2a 4c
        E 64 83 2a 00
        E 192 93 2a 22
        E 32 83 2a 00
        E 96 93 2a 4c
        E 64 83 2a 00
        E 192 93 2a 22
        E 32 83 2a 00
        E 96 93 2a 4c
        E 64 83 2a 00
        E 192 93 2a 22
        E 32 83 2a 00
        E 96 93 2a 4c
        E 64 83 2a 00
        E 192 93 2a 22
        E 32 83 2a 00
        E 96 93 2a 4c
        E 64 83 2a 00
        E 192 93 2a 22
        E 32 83 2a 00
        E 96 93 2a 4c
        E 64 83 2a 00
        E 192 93 2a 22
        E 32 83 2a 00
        E 96 93 2a 4c
        E 64 83 2a 00
        E 192 93 2a 22
        E 32 83 2a 00
        E 96 93 2a 4c
        E 64 83 2a 00
        E 192 93 2a 22
        E 32 83 2a 00
        E 96 93 2a 4c
        E 64 83 2a 00
        E 192 93 2a 22
        E 32 83 2a 00
        E 96 93 2a 4c
        E 64 83 2a 00
        E 192 93 2a 22
        E 32 83 2a 00
        E 96 93 2a 4c
        E 64 83 2a 00
        E 192 93 2a 22
        E 32 83 2a 00
        E 96 93 2a 4c
        E 64 83 2a 00
        E 192 93 2a 22
        E 32 83 2a 00
        E 4304 93 2a 55
        E 32 83 2a 00
        E 80 93 2a 44
        E 32 83 2a 00
        E 80 93 2a 44
        E 32 83 2a 00
        E 80 93 2a 44
        E 32 83 2a 00
        E 80 93 2a 55
        E 32 83 2a 00
        E 80 93 2a 44
        E 32 83 2a 00
        E 80 93 2a 44
        E 32 83 2a 00
        E 80 93 2a 44
        E 32 83 2a 00
        E 80 93 2a 55
        E 32 83 2a 00
        E 80 93 2a 44
        E 32 83 2a 00
        E 80 93 2a 44
        E 32 83 2a 00
        E 80 93 2a 44
        E 32 83 2a 00
        E 80 93 2a 55
        E 32 83 2a 00
        E 80 93 2a 44
        E 32 83 2a 00
        E 80 93 2a 44
        E 32 83 2a 00
        E 80 93 2a 44
        E 32 83 2a 00
        E 80 93 2a 55
        E 32 83 2a 00
        E 80 93 2a 44
        E 32 83 2a 00
        E 80 93 2a 44
        E 32 83 2a 00
        E 80 93 2a 44
        E 32 83 2a 00
        E 80 93 2a 55
        E 32 83 2a 00
        E 80 93 2a 44
        E 32 83 2a 00
        E 80 93 2a 44
        E 32 83 2a 00
        E 80 93 2a 44
        E 32 83 2a 00
        E 80 93 2a 55
        E 32 83 2a 00
        E 80 93 2a 44
        E 32 83 2a 00
        E 80 93 2a 44
        E 32 83 2a 00
        E 80 93 2a 44
        E 32 83 2a 00
        E 80 93 2a 55
        E 32 83 2a 00
        E 80 93 2a 44
        E 32 83 2a 00
        E 80 93 2a 44
        E 32 83 2a 00
        E 80 93 2a 44
        E 32 83 2a 00
        E 80 93 2a 55
        E 32 83 2a 00
        E 80 93 2a 44
        E 32 83 2a 00
        E 80 93 2a 44
        E 32 83 2a 00
        E 80 93 2a 44
        E 32 83 2a 00
        E 80 93 2a 55
        E 32 83 2a 00
        E 80 93 2a 44
        E 32 83 2a 00
        E 80 93 2a 44
        E 32 83 2a 00
        E 80 93 2a 44
        E 32 83 2a 00
        E 80 93 2a 55
        E 32 83 2a 00
        E 80 93 2a 44
        E 32 83 2a 00
        E 80 93 2a 44
        E 32 83 2a 00
        E 80 93 2a 44
        E 32 83 2a 00
        E 80 93 2a 55
        E 32 83 2a 00
        E 80 93 2a 44
        E 32 83 2a 00
        E 80 93 2a 44
        E 32 83 2a 00
        E 80 93 2a 44
        E 32 83 2a 00
        E 80 93 2a 55
        E 32 83 2a 00
        E 80 93 2a 44
        E 32 83 2a 00
        E 80 93 2a 44
        E 32 83 2a 00
        E 80 93 2a 44
        E 32 83 2a 00
        E 80 93 2a 55
        E 32 83 2a 00
        E 80 93 2a 44
        E 32 83 2a 00
        E 80 93 2a 44
        E 32 83 2a 00
        E 80 93 2a 44
        E 32 83 2a 00
        E 80 93 2a 77
        E 112 83 2a 00
        E 0 93 2a 11
        E 16 83 2a 00
        E 96 93 2a 22
        E 32 83 2a 00
        E 80 93 2a 77
        E 112 83 2a 00
        E 0 93 2a 11
        E 16 83 2a 00
        E 96 93 2a 22
        E 32 83 2a 00
        E 80 93 2a 5d
        E 32 83 2a 00
        E 80 93 2a 5d
        E 32 83 2a 00
        E 80 93 2a 55
        E 32 83 2a 00
        E 80 93 2a 44
        E 32 83 2a 00
        E 80 93 2a 44
        E 32 83 2a 00
        E 80 93 2a 44
        E 32 83 2a 00
        E 80 93 2a 55
        E 32 83 2a 00
        E 80 93 2a 44
        E 32 83 2a 00
        E 80 93 2a 44
        E 32 83 2a 00
        E 80 93 2a 44
        E 32 83 2a 00
        E 80 93 2a 55
        E 32 83 2a 00
        E 80 93 2a 44
        E 32 83 2a 00
        E 80 93 2a 44
        E 32 83 2a 00
        E 80 93 2a 44
        E 32 83 2a 00
        E 80 93 2a 55
        E 32 83 2a 00
        E 80 93 2a 44
        E 32 83 2a 00
        E 80 93 2a 44
        E 32 83 2a 00
        E 80 93 2a 44
        E 32 83 2a 00
        E 80 93 2a 55
        E 32 83 2a 00
        E 80 93 2a 44
        E 32 83 2a 00
        E 80 93 2a 44
        E 32 83 2a 00
        E 80 93 2a 44
        E 32 83 2a 00
        E 80 93 2a 55
        E 32 83 2a 00
        E 80 93 2a 44
        E 32 83 2a 00
        E 80 93 2a 44
        E 32 83 2a 00
        E 80 93 2a 44
        E 32 83 2a 00
        E 80 93 2a 55
        E 32 83 2a 00
        E 80 93 2a 44
        E 32 83 2a 00
        E 80 93 2a 44
        E 32 83 2a 00
        E 80 93 2a 44
        E 32 83 2a 00
        E 80 93 2a 55
        E 32 83 2a 00
        E 80 93 2a 44
        E 32 83 2a 00
        E 80 93 2a 44
        E 32 83 2a 00
        E 80 93 2a 44
        E 32 83 2a 00
        E 80 93 2a 55
        E 32 83 2a 00
        E 80 93 2a 44
        E 32 83 2a 00
        E 80 93 2a 44
        E 32 83 2a 00
        E 80 93 2a 44
        E 32 83 2a 00
        E 80 93 2a 55
        E 32 83 2a 00
        E 80 93 2a 44
        E 32 83 2a 00
        E 80 93 2a 44
        E 32 83 2a 00
        E 80 93 2a 44
        E 32 83 2a 00
        E 80 93 2a 55
        E 32 83 2a 00
        E 80 93 2a 44
        E 32 83 2a 00
        E 80 93 2a 44
        E 32 83 2a 00
        E 80 93 2a 44
        E 32 83 2a 00
        E 16 93 2a 7f
        E 32 83 2a 00
        E 0 93 2a 6e
        E 16 83 2a 00
        E 0 93 2a 66
        E 16 83 2a 00
        E 0 93 2a 5d
        E 32 83 2a 00
        E 0 93 2a 4c
        E 16 83 2a 00
        E 0 93 2a 44
        E 96 83 2a 00
        E 80 93 2a 44
        E 32 83 2a 00
        E 80 93 2a 44
        E 32 83 2a 00
        E 80 93 2a 55
        E 32 83 2a 00
        E 80 93 2a 44
        E 32 83 2a 00
        E 80 93 2a 44
        E 32 83 2a 00
        E 80 93 2a 44
        E 32 83 2a 00
        E 80 93 2a 55
        E 32 83 2a 00
        E 80 93 2a 44
        E 32 83 2a 00
        E 80 93 2a 44
        E 32 83 2a 00
        E 80 93 2a 44
        E 32 83 2a 00
        E 80 93 2a 77
        E 112 83 2a 00
        E 0 93 2a 11
        E 16 83 2a 00
        E 48 93 2a 7f
        E 32 83 2a 00
        E 0 93 2a 6e
        E 16 83 2a 00
        E 0 93 2a 66
        E 16 83 2a 00
        E 0 93 2a 5d
        E 32 83 2a 00
        E 0 93 2a 4c
        E 16 83 2a 00
        E 0 93 2a 44
        E 96 83 2a 00
        E 0 93 2a 19
        E 16 83 2a 00
        E 0 93 2a 22
        E 16 83 2a 00
        E 0 93 2a 55
        E 16 83 2a 00
        E 0 93 2a 7f
        E 16 83 2a 00
        E 0 93 2a 7f
        E 16 83 2a 00
        E 0 93 2a 7f
        E 16 83 2a 00
        E 0 93 2a 6e
        E 16 83 2a 00
        E 32 93 2a 6e
        E 16 83 2a 00
        E 0 93 2a 5d
        E 16 83 2a 00
        E 32 93 2a 5d
        E 16 83 2a 00
        E 0 93 2a 4c
        E 16 83 2a 00
        E 32 93 2a 4c
        E 16 83 2a 00
        E 0 93 2a 3b
        E 16 83 2a 00
        E 32 93 2a 3b
        E 16 83 2a 00
        E 0 93 2a 2a
        E 16 83 2a 00
        E 32 93 2a 2a
        E 16 83 2a 00
        E 96 93 2a 55
        E 32 83 2a 00
        E 80 93 2a 44
        E 32 83 2a 00
        E 80 93 2a 44
        E 32 83 2a 00
        E 80 93 2a 44
        E 32 83 2a 00
        E 80 93 2a 55
        E 32 83 2a 00
        E 80 93 2a 44
        E 32 83 2a 00
        E 80 93 2a 44
        E 32 83 2a 00
        E 80 93 2a 44
        E 32 83 2a 00
        E 80 93 2a 55
        E 32 83 2a 00
        E 80 93 2a 44
        E 32 83 2a 00
        E 80 93 2a 44
        E 32 83 2a 00
        E 80 93 2a 44
        E 32 83 2a 00
        E 80 93 2a 55
        E 32 83 2a 00
        E 80 93 2a 44
        E 32 83 2a 00
        E 80 93 2a 44
        E 32 83 2a 00
        E 80 93 2a 44
        E 32 83 2a 00
        E 80 93 2a 55
        E 32 83 2a 00
        E 80 93 2a 44
        E 32 83 2a 00
        E 80 93 2a 44
        E 32 83 2a 00
        E 80 93 2a 44
        E 32 83 2a 00
        E 80 93 2a 55
        E 32 83 2a 00
        E 80 93 2a 44
        E 32 83 2a 00
        E 80 93 2a 44
        E 32 83 2a 00
        E 80 93 2a 44
        E 32 83 2a 00
        E 80 93 2a 55
        E 32 83 2a 00
        E 80 93 2a 44
        E 32 83 2a 00
        E 80 93 2a 44
        E 32 83 2a 00
        E 80 93 2a 44
        E 32 83 2a 00
        E 80 93 2a 55
        E 32 83 2a 00
        E 80 93 2a 44
        E 32 83 2a 00
        E 80 93 2a 44
        E 32 83 2a 00
        E 80 93 2a 44
        E 32 83 2a 00
        E 80 93 2a 55
        E 32 83 2a 00
        E 80 93 2a 44
        E 32 83 2a 00
        E 80 93 2a 44
        E 32 83 2a 00
        E 80 93 2a 44
        E 32 83 2a 00
        E 80 93 2a 55
        E 32 83 2a 00
        E 80 93 2a 44
        E 32 83 2a 00
        E 80 93 2a 44
        E 32 83 2a 00
        E 16 93 2a 77
        E 16 83 2a 00
        E 0 93 2a 7f
        E 32 83 2a 00
        E 0 93 2a 7f
        E 16 83 2a 00
        E 0 93 2a 7f
        E 16 83 2a 00
        E 0 93 2a 7f
        E 32 83 2a 00
        E 0 93 2a 6e
        E 16 83 2a 00
        E 0 93 2a 77
        E 32 83 2a 00
        E 0 93 2a 66
        E 16 83 2a 00
        E 0 93 2a 6e
        E 32 83 2a 00
        E 0 93 2a 5d
        E 16 83 2a 00
        E 0 93 2a 7f
        E 48 83 2a 00
        E 16 93 2a 77
        E 48 83 2a 00
        E 16 93 2a 6e
        E 48 83 2a 00
        E 16 93 2a 3b
        E 32 83 2a 00
        E 0 93 2a 3b
        E 32 83 2a 00
        E 0 93 2a 3b
        E 32 83 2a 00
        E 16 93 2a 33
        E 32 83 2a 00
        E 16 93 2a 2a
        E 32 83 2a 00
        E 16 93 2a 22
        E 32 83 2a 00
        E 16 93 2a 19
        E 32 83 2a 00
        E 16 93 2a 11
        E 32 83 2a 00
        E 96 93 2a 44
        E 32 83 2a 00
        E 16 93 2a 77
        E 16 83 2a 00
        E 0 93 2a 7f
        E 32 83 2a 00
        E 0 93 2a 7f
        E 16 83 2a 00
        E 0 93 2a 7f
        E 16 83 2a 00
        E 0 93 2a 7f
        E 32 83 2a 00
        E 0 93 2a 6e
        E 16 83 2a 00
        E 0 93 2a 77
        E 32 83 2a 00
        E 0 93 2a 66
        E 16 83 2a 00
        E 0 93 2a 6e
        E 32 83 2a 00
        E 0 93 2a 5d
        E 16 83 2a 00
        E 0 93 2a 7f
        E 48 83 2a 00
        E 16 93 2a 77
        E 48 83 2a 00
        E 16 93 2a 6e
        E 48 83 2a 00
        E 16 93 2a 3b
        E 32 83 2a 00
        E 0 93 2a 3b
        E 32 83 2a 00
        E 0 93 2a 3b
        E 32 83 2a 00
        E 16 93 2a 33
        E 32 83 2a 00
        E 16 93 2a 2a
        E 32 83 2a 00
        E 16 93 2a 22
        E 32 83 2a 00
        E 16 93 2a 19
        E 32 83 2a 00
        E 16 93 2a 11
        E 32 83 2a 00
        E 96 93 2a 44
        E 32 83 2a 00
        E 32 93 2a 77
        E 16 83 2a 00
        E 0 93 2a 7f
        E 32 83 2a 00
        E 0 93 2a 7f
        E 16 83 2a 00
        E 0 93 2a 7f
        E 16 83 2a 00
        E 0 93 2a 7f
        E 32 83 2a 00
        E 0 93 2a 6e
        E 16 83 2a 00
        E 0 93 2a 77
        E 32 83 2a 00
        E 0 93 2a 66
        E 16 83 2a 00
        E 0 93 2a 6e
        E 32 83 2a 00
        E 0 93 2a 5d
        E 16 83 2a 00
        E 0 93 2a 7f
        E 48 83 2a 00
        E 16 93 2a 77
        E 48 83 2a 00
        E 16 93 2a 6e
        E 48 83 2a 00
        E 16 93 2a 3b
        E 32 83 2a 00
        E 0 93 2a 3b
        E 32 83 2a 00
        E 0 93 2a 3b
        E 32 83 2a 00
        E 16 93 2a 33
        E 32 83 2a 00
        E 16 93 2a 2a
        E 32 83 2a 00
        E 16 93 2a 22
        E 32 83 2a 00
        E 16 93 2a 19
        E 32 83 2a 00
        E 16 93 2a 11
        E 32 83 2a 00
        E 80 93 2a 5d
        E 32 83 2a 00
        E 80 93 2a 5d
        E 32 83 2a 00
        E 80 93 2a 55
        E 32 83 2a 00
        E 80 93 2a 44
        E 32 83 2a 00
        E 80 93 2a 44
        E 32 83 2a 00
        E 80 93 2a 44
        E 32 83 2a 00
        E 80 93 2a 55
        E 32 83 2a 00
        E 80 93 2a 44
        E 32 83 2a 00
        E 80 93 2a 44
        E 32 83 2a 00
        E 80 93 2a 44
        E 32 83 2a 00
        E 80 93 2a 55
        E 32 83 2a 00
        E 80 93 2a 44
        E 32 83 2a 00
        E 80 93 2a 44
        E 32 83 2a 00
        E 80 93 2a 44
        E 32 83 2a 00
        E 80 93 2a 55
        E 32 83 2a 00
        E 80 93 2a 44
        E 32 83 2a 00
        E 80 93 2a 44
        E 32 83 2a 00
        E 80 93 2a 44
        E 32 83 2a 00
        E 80 93 2a 55
        E 32 83 2a 00
        E 80 93 2a 44
        E 32 83 2a 00
        E 80 93 2a 44
        E 32 83 2a 00
        E 80 93 2a 44
        E 32 83 2a 00
        E 80 93 2a 55
        E 32 83 2a 00
        E 80 93 2a 44
        E 32 83 2a 00
        E 80 93 2a 44
        E 32 83 2a 00
        E 80 93 2a 44
        E 32 83 2a 00
        E 80 93 2a 55
        E 32 83 2a 00
        E 80 93 2a 44
        E 32 83 2a 00
        E 80 93 2a 44
        E 32 83 2a 00
        E 80 93 2a 44
        E 32 83 2a 00
        E 80 93 2a 55
        E 32 83 2a 00
        E 80 93 2a 44
        E 32 83 2a 00
        E 80 93 2a 44
        E 32 83 2a 00
        E 80 93 2a 44
        E 32 83 2a 00
        E 80 93 2a 55
        E 32 83 2a 00
        E 80 93 2a 44
        E 32 83 2a 00
        E 80 93 2a 44
        E 32 83 2a 00
        E 80 93 2a 44
        E 32 83 2a 00
        E 80 93 2a 55
        E 32 83 2a 00
        E 80 93 2a 44
        E 32 83 2a 00
        E 80 93 2a 44
        E 32 83 2a 00
        E 80 93 2a 44
        E 32 83 2a 00
        E 80 93 2a 55
        E 32 83 2a 00
        E 80 93 2a 44
        E 32 83 2a 00
        E 80 93 2a 44
        E 32 83 2a 00
        E 80 93 2a 44
        E 32 83 2a 00
        E 80 93 2a 55
        E 32 83 2a 00
        E 80 93 2a 44
        E 32 83 2a 00
        E 80 93 2a 44
        E 32 83 2a 00
        E 80 93 2a 44
        E 32 83 2a 00
        E 80 93 2a 55
        E 32 83 2a 00
        E 80 93 2a 44
        E 32 83 2a 00
        E 80 93 2a 44
        E 32 83 2a 00
        E 80 93 2a 44
        E 32 83 2a 00
        E 80 93 2a 55
        E 32 83 2a 00
        E 80 93 2a 44
        E 32 83 2a 00
        E 80 93 2a 44
        E 32 83 2a 00
        E 80 93 2a 44
        E 32 83 2a 00
        E 0 93 2a 7f
        E 16 83 2a 00
        E 64 93 2a 77
        E 112 83 2a 00
        E 0 93 2a 11
        E 16 83 2a 00
        E 96 93 2a 22
        E 32 83 2a 00
        E 80 93 2a 77
        E 112 83 2a 00
        E 0 93 2a 11
        E 16 83 2a 00
        E 96 93 2a 22
        E 32 83 2a 00
        E 80 93 2a 5d
        E 32 83 2a 00
        E 80 93 2a 5d
        E 32 83 2a 00
        E 80 93 2a 55
        E 32 83 2a 00
        E 80 93 2a 44
        E 32 83 2a 00
        E 80 93 2a 44
        E 32 83 2a 00
        E 80 93 2a 44
        E 32 83 2a 00
        E 64 93 2a 11
        E 128 83 2a 00
        E 0 93 2a 22
        E 128 83 2a 00
        E 0 93 2a 33
        E 48 83 2a 00
        E 48 93 2a 44
        E 32 83 2a 00
        E 80 93 2a 55
        E 32 83 2a 00
        E 80 93 2a 44
        E 32 83 2a 00
        E 80 93 2a 44
        E 32 83 2a 00
        E 80 93 2a 44
        E 32 83 2a 00
        E 80 93 2a 55
        E 32 83 2a 00
        E 80 93 2a 44
        E 32 83 2a 00
        E 80 93 2a 44
        E 32 83 2a 00
        E 80 93 2a 44
        E 32 83 2a 00
        E 80 93 2a 55
        E 32 83 2a 00
        E 80 93 2a 44
        E 32 83 2a 00
        E 80 93 2a 44
        E 32 83 2a 00
        E 80 93 2a 44
        E 32 83 2a 00
        E 80 93 2a 55
        E 32 83 2a 00
        E 80 93 2a 44
        E 32 83 2a 00
        E 80 93 2a 44
        E 32 83 2a 00
        E 80 93 2a 44
        E 32 83 2a 00
        E 80 93 2a 55
        E 32 83 2a 00
        E 64 93 2a 7f
        E 16 83 2a 00
        E 0 93 2a 44
        E 32 83 2a 00
        E 80 93 2a 44
        E 32 83 2a 00
        E 80 93 2a 44
        E 32 83 2a 00
        E 80 93 2a 55
        E 32 83 2a 00
        E 80 93 2a 44
        E 32 83 2a 00
        E 32 93 2a 7f
        E 32 83 2a 00
        E 0 93 2a 6e
        E 112 83 2a 00
        E 0 93 2a 3b
        E 112 83 2a 00
        E 0 93 2a 11
        E 48 83 2a 00
        E 80 93 2a 44
        E 32 83 2a 00
        E 80 93 2a 44
        E 32 83 2a 00
        E 80 93 2a 44
        E 32 83 2a 00
        E 80 93 2a 55
        E 32 83 2a 00
        E 80 93 2a 44
        E 32 83 2a 00
        E 80 93 2a 44
        E 32 83 2a 00
        E 80 93 2a 44
        E 32 83 2a 00
        E 80 93 2a 55
        E 32 83 2a 00
        E 80 93 2a 44
        E 32 83 2a 00
        E 80 93 2a 44
        E 32 83 2a 00
        E 80 93 2a 44
        E 32 83 2a 00
        E 80 93 2a 55
        E 32 83 2a 00
        E 80 93 2a 44
        E 32 83 2a 00
        E 80 93 2a 44
        E 32 83 2a 00
        E 80 93 2a 44
        E 32 83 2a 00
        E 80 93 2a 55
        E 32 83 2a 00
        E 80 93 2a 44
        E 32 83 2a 00
        E 80 93 2a 44
        E 32 83 2a 00
        E 80 93 2a 44
        E 32 83 2a 00
        E 80 93 2a 55
        E 32 83 2a 00
        E 80 93 2a 44
        E 32 83 2a 00
        E 80 93 2a 44
        E 32 83 2a 00
        E 80 93 2a 44
        E 32 83 2a 00
        E 80 93 2a 77
        E 112 83 2a 00
        E 0 93 2a 11
        E 16 83 2a 00
        E 96 93 2a 22
        E 32 83 2a 00
        E 80 93 2a 77
        E 112 83 2a 00
        E 0 93 2a 11
        E 16 83 2a 00
        E 96 93 2a 22
        E 32 83 2a 00
        E 80 93 2a 5d
        E 32 83 2a 00
        E 80 93 2a 5d
        E 32 83 2a 00
        E 80 93 2a 55
        E 32 83 2a 00
        E 80 93 2a 44
        E 32 83 2a 00
        E 80 93 2a 44
        E 32 83 2a 00
        E 80 93 2a 44
        E 32 83 2a 00
        E 80 93 2a 55
        E 32 83 2a 00
        E 80 93 2a 44
        E 32 83 2a 00
        E 80 93 2a 44
        E 32 83 2a 00
        E 80 93 2a 44
        E 32 83 2a 00
        E 48 93 2a 3b
        E 16 83 2a 00
        E 0 93 2a 3b
        E 16 83 2a 00
        E 0 93 2a 4c
        E 16 83 2a 00
        E 0 93 2a 4c
        E 16 83 2a 00
        E 0 93 2a 3b
        E 16 83 2a 00
        E 0 93 2a 3b
        E 16 83 2a 00
        E 0 93 2a 4c
        E 16 83 2a 00
        E 0 93 2a 4c
        E 16 83 2a 00
        E 0 93 2a 3b
        E 16 83 2a 00
        E 0 93 2a 3b
        E 16 83 2a 00
        E 0 93 2a 4c
        E 16 83 2a 00
        E 0 93 2a 4c
        E 16 83 2a 00
        E 0 93 2a 3b
        E 16 83 2a 00
        E 0 93 2a 3b
        E 16 83 2a 00
        E 0 93 2a 4c
        E 16 83 2a 00
        E 0 93 2a 4c
        E 16 83 2a 00
        E 0 93 2a 3b
        E 16 83 2a 00
        E 0 93 2a 3b
        E 16 83 2a 00
        E 0 93 2a 4c
        E 16 83 2a 00
        E 0 93 2a 4c
        E 16 83 2a 00
        E 0 93 2a 3b
        E 16 83 2a 00
        E 0 93 2a 3b
        E 16 83 2a 00
        E 0 93 2a 4c
        E 16 83 2a 00
        E 0 93 2a 4c
        E 16 83 2a 00
        E 0 93 2a 3b
        E 16 83 2a 00
        E 0 93 2a 3b
        E 16 83 2a 00
        E 0 93 2a 4c
        E 16 83 2a 00
        E 0 93 2a 4c
        E 16 83 2a 00
        E 0 93 2a 3b
        E 16 83 2a 00
        E 0 93 2a 3b
        E 16 83 2a 00
        E 0 93 2a 4c
        E 16 83 2a 00
        E 0 93 2a 4c
        E 16 83 2a 00
        E 0 93 2a 3b
        E 16 83 2a 00
        E 0 93 2a 3b
        E 16 83 2a 00
        E 0 93 2a 4c
        E 16 83 2a 00
        E 0 93 2a 4c
        E 16 83 2a 00
        E 0 93 2a 3b
        E 16 83 2a 00
        E 0 93 2a 3b
        E 16 83 2a 00
        E 0 93 2a 4c
        E 16 83 2a 00
        E 0 93 2a 4c
        E 16 83 2a 00
        E 0 93 2a 3b
        E 16 83 2a 00
        E 0 93 2a 3b
        E 16 83 2a 00
        E 0 93 2a 4c
        E 16 83 2a 00
        E 0 93 2a 4c
        E 16 83 2a 00
        E 0 93 2a 3b
        E 16 83 2a 00
        E 0 93 2a 3b
        E 16 83 2a 00
        E 0 93 2a 4c
        E 16 83 2a 00
        E 0 93 2a 4c
        E 16 83 2a 00
        E 0 93 2a 3b
        E 16 83 2a 00
        E 0 93 2a 3b
        E 16 83 2a 00
        E 0 93 2a 4c
        E 16 83 2a 00
        E 0 93 2a 4c
        E 16 83 2a 00
        E 0 93 2a 3b
        E 16 83 2a 00
        E 0 93 2a 3b
        E 16 83 2a 00
        E 0 93 2a 4c
        E 16 83 2a 00
        E 0 93 2a 4c
        E 16 83 2a 00
        E 0 93 2a 3b
        E 16 83 2a 00
        E 0 93 2a 3b
        E 16 83 2a 00
        E 0 93 2a 4c
        E 16 83 2a 00
        E 0 93 2a 4c
        E 16 83 2a 00
        E 0 93 2a 3b
        E 16 83 2a 00
        E 0 93 2a 3b
        E 16 83 2a 00
        E 0 93 2a 4c
        E 16 83 2a 00
        E 0 93 2a 4c
        E 16 83 2a 00
        E 0 93 2a 3b
        E 16 83 2a 00
        E 0 93 2a 3b
        E 16 83 2a 00
        E 0 93 2a 4c
        E 16 83 2a 00
        E 0 93 2a 4c
        E 16 83 2a 00
        E 0 93 2a 3b
        E 16 83 2a 00
        E 0 93 2a 3b
        E 16 83 2a 00
        E 0 93 2a 4c
        E 16 83 2a 00
        E 0 93 2a 4c
        E 16 83 2a 00
        E 0 93 2a 3b
        E 16 83 2a 00
        E 0 93 2a 3b
        E 16 83 2a 00
        E 0 93 2a 4c
        E 16 83 2a 00
        E 0 93 2a 4c
        E 16 83 2a 00
        E 0 93 2a 3b
        E 16 83 2a 00
        E 0 93 2a 3b
        E 16 83 2a 00
        E 0 93 2a 4c
        E 16 83 2a 00
        E 0 93 2a 4c
        E 16 83 2a 00
        E 0 93 2a 3b
        E 16 83 2a 00
        E 0 93 2a 3b
        E 16 83 2a 00
        E 0 93 2a 4c
        E 16 83 2a 00
        E 0 93 2a 4c
        E 16 83 2a 00
        E 0 93 2a 5d
        E 16 83 2a 00
        E 0 93 2a 5d
        E 16 83 2a 00
        E 0 93 2a 6e
        E 16 83 2a 00
        E 0 93 2a 6e
        E 16 83 2a 00
        E 0 93 2a 7f
        E 16 83 2a 00
        E 0 93 2a 7f
        E 16 83 2a 00
        E 0 93 2a 6e
        E 16 83 2a 00
        E 0 93 2a 6e
        E 16 83 2a 00
        E 0 93 2a 5d
        E 16 83 2a 00
        E 0 93 2a 5d
        E 16 83 2a 00
        E 0 93 2a 4c
        E 16 83 2a 00
        E 0 93 2a 4c
        E 16 83 2a 00
        E 0 93 2a 3b
        E 16 83 2a 00
        E 0 93 2a 3b
        E 16 83 2a 00
        E 0 93 2a 2a
        E 16 83 2a 00
        E 0 93 2a 2a
        E 16 83 2a 00
        E 0 93 2a 19
        E 16 83 2a 00
        E 0 93 2a 19
        E 16 83 2a 00
        E 0 93 2a 08
        E 16 83 2a 00
        E 0 93 2a 08
        E 16 83 2a 00
        E 48 93 2a 44
        E 32 83 2a 00
        E 80 93 2a 55
        E 32 83 2a 00
        E 80 93 2a 44
        E 32 83 2a 00
        E 80 93 2a 44
        E 32 83 2a 00
        E 80 93 2a 44
        E 32 83 2a 00
        E 80 93 2a 55
        E 32 83 2a 00
        E 80 93 2a 44
        E 32 83 2a 00
        E 80 93 2a 44
        E 32 83 2a 00
        E 80 93 2a 44
        E 32 83 2a 00
        E 80 93 2a 55
        E 32 83 2a 00
        E 80 93 2a 44
        E 32 83 2a 00
        E 80 93 2a 44
        E 32 83 2a 00
        E 80 93 2a 44
        E 32 83 2a 00
        E 80 93 2a 55
        E 32 83 2a 00
        E 80 93 2a 44
        E 32 83 2a 00
        E 80 93 2a 44
        E 32 83 2a 00
        E 16 93 2a 7f
        E 16 83 2a 00
        E 0 93 2a 7f
        E 16 83 2a 00
        E 0 93 2a 3b
        E 16 83 2a 00
        E 0 93 2a 3b
        E 16 83 2a 00
        E 160 93 2a 55
        E 128 83 2a 00
        E 32 93 2a 2a
        E 16 83 2a 00
        E 0 93 2a 22
        E 16 83 2a 00
        E 0 93 2a 19
        E 16 83 2a 00
        E 0 93 2a 11
        E 16 83 2a 00
        E 0 93 2a 08
        E 16 83 2a 00
        E 608 93 2a 55
        E 32 83 2a 00
        E 80 93 2a 44
        E 32 83 2a 00
        E 80 93 2a 44
        E 32 83 2a 00
        E 80 93 2a 44
        E 32 83 2a 00
        E 80 93 2a 55
        E 32 83 2a 00
        E 80 93 2a 44
        E 32 83 2a 00
        E 80 93 2a 44
        E 32 83 2a 00
        E 80 93 2a 44
        E 32 83 2a 00
        E 80 93 2a 77
        E 112 83 2a 00
        E 0 93 2a 11
        E 16 83 2a 00
        E 96 93 2a 22
        E 32 83 2a 00
        E 80 93 2a 77
        E 112 83 2a 00
        E 0 93 2a 11
        E 16 83 2a 00
        E 96 93 2a 22
        E 32 83 2a 00
        E 80 93 2a 5d
        E 32 83 2a 00
        E 80 93 2a 5d
        E 32 83 2a 00
        E 80 93 2a 55
        E 32 83 2a 00
        E 80 93 2a 44
        E 32 83 2a 00
        E 80 93 2a 44
        E 32 83 2a 00
        E 80 93 2a 44
        E 32 83 2a 00
        E 80 93 2a 55
        E 32 83 2a 00
        E 80 93 2a 44
        E 32 83 2a 00
        E 80 93 2a 44
        E 32 83 2a 00
        E 80 93 2a 44
        E 32 83 2a 00
        E 80 93 2a 55
        E 32 83 2a 00
        E 80 93 2a 44
        E 32 83 2a 00
        E 80 93 2a 3b
        E 16 83 2a 00
        E 0 93 2a 3b
        E 16 83 2a 00
        E 0 93 2a 4c
        E 16 83 2a 00
        E 0 93 2a 4c
        E 16 83 2a 00
        E 0 93 2a 3b
        E 16 83 2a 00
        E 0 93 2a 3b
        E 16 83 2a 00
        E 0 93 2a 4c
        E 16 83 2a 00
        E 0 93 2a 4c
        E 16 83 2a 00
        E 0 93 2a 3b
        E 16 83 2a 00
        E 0 93 2a 3b
        E 16 83 2a 00
        E 0 93 2a 4c
        E 16 83 2a 00
        E 0 93 2a 4c
        E 16 83 2a 00
        E 0 93 2a 3b
        E 16 83 2a 00
        E 0 93 2a 3b
        E 16 83 2a 00
        E 0 93 2a 4c
        E 16 83 2a 00
        E 0 93 2a 4c
        E 16 83 2a 00
        E 0 93 2a 3b
        E 16 83 2a 00
        E 0 93 2a 3b
        E 16 83 2a 00
        E 0 93 2a 4c
        E 16 83 2a 00
        E 0 93 2a 4c
        E 16 83 2a 00
        E 0 93 2a 3b
        E 16 83 2a 00
        E 0 93 2a 3b
        E 16 83 2a 00
        E 0 93 2a 4c
        E 16 83 2a 00
        E 0 93 2a 4c
        E 16 83 2a 00
        E 0 93 2a 3b
        E 16 83 2a 00
        E 0 93 2a 3b
        E 16 83 2a 00
        E 0 93 2a 4c
        E 16 83 2a 00
        E 0 93 2a 4c
        E 16 83 2a 00
        E 0 93 2a 3b
        E 16 83 2a 00
        E 0 93 2a 3b
        E 16 83 2a 00
        E 0 93 2a 4c
        E 16 83 2a 00
        E 0 93 2a 4c
        E 16 83 2a 00
        E 0 93 2a 3b
        E 16 83 2a 00
        E 0 93 2a 3b
        E 16 83 2a 00
        E 0 93 2a 4c
        E 16 83 2a 00
        E 0 93 2a 4c
        E 16 83 2a 00
        E 0 93 2a 3b
        E 16 83 2a 00
        E 0 93 2a 3b
        E 16 83 2a 00
        E 0 93 2a 4c
        E 16 83 2a 00
        E 0 93 2a 4c
        E 16 83 2a 00
        E 0 93 2a 3b
        E 16 83 2a 00
        E 0 93 2a 3b
        E 16 83 2a 00
        E 0 93 2a 4c
        E 16 83 2a 00
        E 0 93 2a 4c
        E 16 83 2a 00
        E 0 93 2a 3b
        E 16 83 2a 00
        E 0 93 2a 3b
        E 16 83 2a 00
        E 0 93 2a 4c
        E 16 83 2a 00
        E 0 93 2a 4c
        E 16 83 2a 00
        E 0 93 2a 3b
        E 16 83 2a 00
        E 0 93 2a 3b
        E 16 83 2a 00
        E 0 93 2a 4c
        E 16 83 2a 00
        E 0 93 2a 4c
        E 16 83 2a 00
        E 0 93 2a 3b
        E 16 83 2a 00
        E 0 93 2a 3b
        E 16 83 2a 00
        E 0 93 2a 4c
        E 16 83 2a 00
        E 0 93 2a 4c
        E 16 83 2a 00
        E 0 93 2a 3b
        E 16 83 2a 00
        E 0 93 2a 3b
        E 16 83 2a 00
        E 0 93 2a 4c
        E 16 83 2a 00
        E 0 93 2a 4c
        E 16 83 2a 00
        E 0 93 2a 3b
        E 16 83 2a 00
        E 0 93 2a 3b
        E 16 83 2a 00
        E 0 93 2a 4c
        E 16 83 2a 00
        E 0 93 2a 4c
        E 16 83 2a 00
        E 0 93 2a 3b
        E 16 83 2a 00
        E 0 93 2a 3b
        E 16 83 2a 00
        E 0 93 2a 4c
        E 16 83 2a 00
        E 0 93 2a 4c
        E 16 83 2a 00
        E 0 93 2a 3b
        E 16 83 2a 00
        E 0 93 2a 3b
        E 16 83 2a 00
        E 0 93 2a 4c
        E 16 83 2a 00
        E 0 93 2a 4c
        E 16 83 2a 00
        E 0 93 2a 3b
        E 16 83 2a 00
        E 0 93 2a 3b
        E 16 83 2a 00
        E 0 93 2a 4c
        E 16 83 2a 00
        E 0 93 2a 4c
        E 16 83 2a 00
        E 0 93 2a 3b
        E 16 83 2a 00
        E 0 93 2a 3b
        E 16 83 2a 00
        E 0 93 2a 4c
        E 16 83 2a 00
        E 0 93 2a 4c
        E 16 83 2a 00
        E 0 93 2a 3b
        E 16 83 2a 00
        E 0 93 2a 3b
        E 16 83 2a 00
        E 0 93 2a 4c
        E 16 83 2a 00
        E 0 93 2a 4c
        E 16 83 2a 00
        E 0 93 2a 3b
        E 16 83 2a 00
        E 0 93 2a 3b
        E 16 83 2a 00
        E 0 93 2a 4c
        E 16 83 2a 00
        E 0 93 2a 4c
        E 16 83 2a 00
        E 0 93 2a 3b
        E 16 83 2a 00
        E 0 93 2a 3b
        E 16 83 2a 00
        E 0 93 2a 4c
        E 16 83 2a 00
        E 0 93 2a 4c
        E 16 83 2a 00
        E 0 93 2a 3b
        E 16 83 2a 00
        E 0 93 2a 3b
        E 16 83 2a 00
        E 0 93 2a 4c
        E 16 83 2a 00
        E 0 93 2a 4c
        E 16 83 2a 00
        E 0 93 2a 3b
        E 16 83 2a 00
        E 0 93 2a 3b
        E 16 83 2a 00
        E 0 93 2a 4c
        E 16 83 2a 00
        E 0 93 2a 4c
        E 16 83 2a 00
        E 0 93 2a 3b
        E 16 83 2a 00
        E 0 93 2a 3b
        E 16 83 2a 00
        E 0 93 2a 4c
        E 16 83 2a 00
        E 0 93 2a 4c
        E 16 83 2a 00
        E 0 93 2a 3b
        E 16 83 2a 00
        E 0 93 2a 3b
        E 16 83 2a 00
        E 0 93 2a 4c
        E 16 83 2a 00
        E 0 93 2a 4c
        E 16 83 2a 00
        E 0 93 2a 3b
        E 16 83 2a 00
        E 0 93 2a 3b
        E 16 83 2a 00
        E 0 93 2a 4c
        E 16 83 2a 00
        E 0 93 2a 4c
        E 16 83 2a 00
        E 0 93 2a 3b
        E 16 83 2a 00
        E 0 93 2a 3b
        E 16 83 2a 00
        E 0 93 2a 4c
        E 16 83 2a 00
        E 0 93 2a 4c
        E 16 83 2a 00
        E 0 93 2a 3b
        E 16 83 2a 00
        E 0 93 2a 3b
        E 16 83 2a 00
        E 0 93 2a 4c
        E 16 83 2a 00
        E 0 93 2a 4c
        E 16 83 2a 00
        E 0 93 2a 3b
        E 16 83 2a 00
        E 0 93 2a 3b
        E 16 83 2a 00
        E 0 93 2a 4c
        E 16 83 2a 00
        E 0 93 2a 4c
        E 16 83 2a 00
        E 0 93 2a 3b
        E 16 83 2a 00
        E 0 93 2a 3b
        E 16 83 2a 00
        E 0 93 2a 4c
        E 16 83 2a 00
        E 0 93 2a 4c
        E 16 83 2a 00
        E 0 93 2a 3b
        E 16 83 2a 00
        E 0 93 2a 3b
        E 16 83 2a 00
        E 0 93 2a 4c
        E 16 83 2a 00
        E 0 93 2a 4c
        E 16 83 2a 00
        E 0 93 2a 3b
        E 16 83 2a 00
        E 0 93 2a 3b
        E 16 83 2a 00
        E 0 93 2a 4c
        E 16 83 2a 00
        E 0 93 2a 4c
        E 16 83 2a 00
        E 0 93 2a 3b
        E 16 83 2a 00
        E 0 93 2a 3b
        E 16 83 2a 00
        E 0 93 2a 4c
        E 16 83 2a 00
        E 0 93 2a 4c
        E 16 83 2a 00
        E 0 93 2a 3b
        E 16 83 2a 00
        E 0 93 2a 3b
        E 16 83 2a 00
        E 0 93 2a 4c
        E 16 83 2a 00
        E 0 93 2a 4c
        E 16 83 2a 00
        E 0 93 2a 3b
        E 16 83 2a 00
        E 0 93 2a 3b
        E 16 83 2a 00
        E 0 93 2a 4c
        E 16 83 2a 00
        E 0 93 2a 4c
        E 16 83 2a 00
        E 0 93 2a 3b
        E 16 83 2a 00
        E 0 93 2a 3b
        E 16 83 2a 00
        E 0 93 2a 4c
        E 16 83 2a 00
        E 0 93 2a 4c
        E 16 83 2a 00
        E 0 93 2a 3b
        E 16 83 2a 00
        E 0 93 2a 3b
        E 16 83 2a 00
        E 0 93 2a 4c
        E 16 83 2a 00
        E 0 93 2a 4c
        E 16 83 2a 00
        E 0 93 2a 3b
        E 16 83 2a 00
        E 0 93 2a 3b
        E 16 83 2a 00
        E 0 93 2a 4c
        E 16 83 2a 00
        E 0 93 2a 4c
        E 16 83 2a 00
        E 0 93 2a 3b
        E 16 83 2a 00
        E 0 93 2a 3b
        E 16 83 2a 00
        E 0 93 2a 4c
        E 16 83 2a 00
        E 0 93 2a 4c
        E 16 83 2a 00
        E 0 93 2a 3b
        E 16 83 2a 00
        E 0 93 2a 3b
        E 16 83 2a 00
        E 0 93 2a 4c
        E 16 83 2a 00
        E 0 93 2a 4c
        E 16 83 2a 00
        E 0 93 2a 3b
        E 16 83 2a 00
        E 0 93 2a 3b
        E 16 83 2a 00
        E 0 93 2a 4c
        E 16 83 2a 00
        E 0 93 2a 4c
        E 16 83 2a 00
        E 0 93 2a 3b
        E 16 83 2a 00
        E 0 93 2a 3b
        E 16 83 2a 00
        E 0 93 2a 4c
        E 16 83 2a 00
        E 0 93 2a 4c
        E 16 83 2a 00
        E 0 93 2a 3b
        E 16 83 2a 00
        E 0 93 2a 3b
        E 16 83 2a 00
        E 0 93 2a 4c
        E 16 83 2a 00
        E 0 93 2a 4c
        E 16 83 2a 00
        E 0 93 2a 5d
        E 16 83 2a 00
        E 0 93 2a 5d
        E 16 83 2a 00
        E 0 93 2a 6e
        E 16 83 2a 00
        E 0 93 2a 6e
        E 16 83 2a 00
        E 0 93 2a 7f
        E 16 83 2a 00
        E 0 93 2a 7f
        E 16 83 2a 00
        E 0 93 2a 6e
        E 16 83 2a 00
        E 0 93 2a 6e
        E 16 83 2a 00
        E 0 93 2a 5d
        E 16 83 2a 00
        E 0 93 2a 5d
        E 16 83 2a 00
        E 0 93 2a 4c
        E 16 83 2a 00
        E 0 93 2a 4c
        E 16 83 2a 00
        E 0 93 2a 3b
        E 16 83 2a 00
        E 0 93 2a 3b
        E 16 83 2a 00
        E 0 93 2a 2a
        E 16 83 2a 00
        E 0 93 2a 2a
        E 16 83 2a 00
        E 0 93 2a 19
        E 16 83 2a 00
        E 0 93 2a 19
        E 16 83 2a 00
        E 0 93 2a 08
        E 16 83 2a 00
        E 0 93 2a 08
        E 16 83 2a 00
        E 48 93 2a 44
        E 32 83 2a 00
        E 80 93 2a 55
        E 32 83 2a 00
        E 80 93 2a 44
        E 32 83 2a 00
        E 80 93 2a 44
        E 32 83 2a 00
        E 80 93 2a 44
        E 32 83 2a 00
        E 80 93 2a 55
        E 32 83 2a 00
        E 80 93 2a 44
        E 32 83 2a 00
        E 80 93 2a 44
        E 32 83 2a 00
        E 80 93 2a 44
        E 32 83 2a 00
        E 80 93 2a 55
        E 32 83 2a 00
        E 80 93 2a 44
        E 32 83 2a 00
        E 80 93 2a 44
        E 32 83 2a 00
        E 80 93 2a 44
        E 32 83 2a 00
        E 80 93 2a 55
        E 32 83 2a 00
        E 80 93 2a 44
        E 32 83 2a 00
        E 80 93 2a 44
        E 32 83 2a 00
        E 80 93 2a 44
        E 32 83 2a 00
        E 32 93 2a 7f
        E 16 83 2a 00
        E 0 93 2a 7f
        E 16 83 2a 00
        E 16 93 2a 77
        E 112 83 2a 00
        E 0 93 2a 11
        E 16 83 2a 00
        E 96 93 2a 22
        E 32 83 2a 00
        E 80 93 2a 77
        E 112 83 2a 00
        E 0 93 2a 11
        E 16 83 2a 00
        E 96 93 2a 22
        E 32 83 2a 00
        E 80 93 2a 5d
        E 32 83 2a 00
        E 80 93 2a 5d
        E 32 83 2a 00
        E 80 93 2a 55
        E 32 83 2a 00
        E 80 93 2a 44
        E 32 83 2a 00
        E 80 93 2a 44
        E 32 83 2a 00
        E 80 93 2a 44
        E 32 83 2a 00
        E 80 93 2a 55
        E 32 83 2a 00
        E 80 93 2a 44
        E 32 83 2a 00
        E 80 93 2a 44
        E 32 83 2a 00
        E 80 93 2a 44
        E 32 83 2a 00
        E 80 93 2a 55
        E 32 83 2a 00
        E 80 93 2a 44
        E 32 83 2a 00
        E 80 93 2a 44
        E 32 83 2a 00
        E 80 93 2a 44
        E 32 83 2a 00
        E 80 93 2a 55
        E 32 83 2a 00
        E 80 93 2a 44
        E 32 83 2a 00
        E 80 93 2a 44
        E 32 83 2a 00
        E 80 93 2a 44
        E 32 83 2a 00
        E 80 93 2a 55
        E 32 83 2a 00
        E 80 93 2a 44
        E 32 83 2a 00
        E 80 93 2a 44
        E 32 83 2a 00
        E 48 93 2a 11
        E 128 83 2a 00
        E 0 93 2a 22
        E 128 83 2a 00
        E 0 93 2a 33
        E 96 83 2a 00
        E 16 93 2a 44
        E 32 83 2a 00
        E 80 93 2a 44
        E 32 83 2a 00
        E 32 93 2a 7f
        E 16 83 2a 00
        E 0 93 2a 7f
        E 16 83 2a 00
        E 0 93 2a 3b
        E 16 83 2a 00
        E 0 93 2a 3b
        E 16 83 2a 00
        E 160 93 2a 55
        E 128 83 2a 00
        E 32 93 2a 2a
        E 16 83 2a 00
        E 0 93 2a 22
        E 16 83 2a 00
        E 0 93 2a 19
        E 16 83 2a 00
        E 0 93 2a 11
        E 16 83 2a 00
        E 0 93 2a 08
        E 16 83 2a 00
        E 560 93 2a 5d
        E 16 83 2a 00
        E 0 93 2a 7f
        E 16 83 2a 00
        E 0 93 2a 33
        E 16 83 2a 00
        E 0 93 2a 55
        E 16 83 2a 00
        E 0 93 2a 5d
        E 16 83 2a 00
        E 0 93 2a 7f
        E 16 83 2a 00
        E 0 93 2a 33
        E 16 83 2a 00
        E 0 93 2a 55
        E 16 83 2a 00
        E 0 93 2a 5d
        E 16 83 2a 00
        E 0 93 2a 7f
        E 16 83 2a 00
        E 0 93 2a 33
        E 16 83 2a 00
        E 0 93 2a 55
        E 16 83 2a 00
        E 0 93 2a 5d
        E 16 83 2a 00
        E 0 93 2a 7f
        E 16 83 2a 00
        E 0 93 2a 33
        E 16 83 2a 00
        E 0 93 2a 55
        E 16 83 2a 00
        E 0 93 2a 44
        E 32 83 2a 00
        E 80 93 2a 55
        E 32 83 2a 00
        E 80 93 2a 44
        E 32 83 2a 00
        E 80 93 2a 44
        E 32 83 2a 00
        E 80 93 2a 44
        E 32 83 2a 00
        E 80 93 2a 55
        E 32 83 2a 00
        E 80 93 2a 44
        E 32 83 2a 00
        E 0 93 2a 5d
        E 16 83 2a 00
        E 0 93 2a 7f
        E 16 83 2a 00
        E 0 93 2a 33
        E 16 83 2a 00
        E 0 93 2a 55
        E 16 83 2a 00
        E 0 93 2a 5d
        E 16 83 2a 00
        E 0 93 2a 7f
        E 16 83 2a 00
        E 0 93 2a 33
        E 16 83 2a 00
        E 0 93 2a 55
        E 16 83 2a 00
        E 0 93 2a 5d
        E 16 83 2a 00
        E 0 93 2a 7f
        E 16 83 2a 00
        E 0 93 2a 33
        E 16 83 2a 00
        E 0 93 2a 55
        E 16 83 2a 00
        E 0 93 2a 5d
        E 16 83 2a 00
        E 0 93 2a 7f
        E 16 83 2a 00
        E 0 93 2a 33
        E 16 83 2a 00
        E 0 93 2a 55
        E 16 83 2a 00
        E 0 93 2a 5d
        E 16 83 2a 00
        E 0 93 2a 7f
        E 16 83 2a 00
        E 0 93 2a 33
        E 16 83 2a 00
        E 0 93 2a 55
        E 16 83 2a 00
        E 0 93 2a 5d
        E 16 83 2a 00
        E 0 93 2a 7f
        E 16 83 2a 00
        E 0 93 2a 33
        E 16 83 2a 00
        E 0 93 2a 55
        E 16 83 2a 00
        E 0 93 2a 5d
        E 16 83 2a 00
        E 0 93 2a 7f
        E 16 83 2a 00
        E 0 93 2a 33
        E 16 83 2a 00
        E 0 93 2a 55
        E 16 83 2a 00
        E 0 93 2a 5d
        E 16 83 2a 00
        E 0 93 2a 7f
        E 16 83 2a 00
        E 0 93 2a 33
        E 16 83 2a 00
        E 0 93 2a 55
        E 16 83 2a 00
        E 0 93 2a 5d
        E 16 83 2a 00
        E 0 93 2a 7f
        E 16 83 2a 00
        E 0 93 2a 33
        E 16 83 2a 00
        E 0 93 2a 55
        E 16 83 2a 00
        E 0 93 2a 5d
        E 16 83 2a 00
        E 0 93 2a 7f
        E 16 83 2a 00
        E 0 93 2a 33
        E 16 83 2a 00
        E 0 93 2a 55
        E 16 83 2a 00
        E 0 93 2a 5d
        E 16 83 2a 00
        E 0 93 2a 7f
        E 16 83 2a 00
        E 0 93 2a 33
        E 16 83 2a 00
        E 0 93 2a 55
        E 16 83 2a 00
        E 0 93 2a 5d
        E 16 83 2a 00
        E 0 93 2a 7f
        E 16 83 2a 00
        E 0 93 2a 33
        E 16 83 2a 00
        E 0 93 2a 55
        E 16 83 2a 00
        E 0 93 2a 5d
        E 16 83 2a 00
        E 0 93 2a 7f
        E 16 83 2a 00
        E 0 93 2a 33
        E 16 83 2a 00
        E 0 93 2a 55
        E 16 83 2a 00
        E 0 93 2a 5d
        E 16 83 2a 00
        E 16 93 2a 44
        E 32 83 2a 00
        E 80 93 2a 44
        E 32 83 2a 00
        E 80 93 2a 44
        E 32 83 2a 00
        E 80 93 2a 55
        E 32 83 2a 00
        E 80 93 2a 44
        E 32 83 2a 00
        E 80 93 2a 44
        E 32 83 2a 00
        E 80 93 2a 44
        E 32 83 2a 00
        E 80 93 2a 77
        E 112 83 2a 00
        E 0 93 2a 11
        E 16 83 2a 00
        E 96 93 2a 22
        E 32 83 2a 00
        E 80 93 2a 77
        E 112 83 2a 00
        E 0 93 2a 11
        E 16 83 2a 00
        E 96 93 2a 22
        E 32 83 2a 00
        E 80 93 2a 5d
        E 32 83 2a 00
        E 80 93 2a 5d
        E 32 83 2a 00
        E 48 93 2a 11
        E 128 83 2a 00
        E 0 93 2a 22
        E 128 83 2a 00
        E 0 93 2a 33
        E 128 83 2a 00
        E 0 93 2a 2a
        E 16 83 2a 00
        E 80 93 2a 55
        E 32 83 2a 00
        E 80 93 2a 44
        E 32 83 2a 00
        E 0 93 2a 7f
        E 16 83 2a 00
        E 0 93 2a 7f
        E 16 83 2a 00
        E 0 93 2a 3b
        E 16 83 2a 00
        E 0 93 2a 3b
        E 16 83 2a 00
        E 160 93 2a 55
        E 128 83 2a 00
        E 32 93 2a 2a
        E 16 83 2a 00
        E 0 93 2a 22
        E 16 83 2a 00
        E 0 93 2a 19
        E 16 83 2a 00
        E 0 93 2a 11
        E 16 83 2a 00
        E 0 93 2a 08
        E 16 83 2a 00
        E 624 93 2a 44
        E 32 83 2a 00
        E 80 93 2a 55
        E 32 83 2a 00
        E 80 93 2a 44
        E 32 83 2a 00
        E 80 93 2a 44
        E 32 83 2a 00
        E 80 93 2a 44
        E 32 83 2a 00
        E 80 93 2a 55
        E 32 83 2a 00
        E 80 93 2a 44
        E 32 83 2a 00
        E 80 93 2a 44
        E 32 83 2a 00
        E 80 93 2a 44
        E 32 83 2a 00
        E 80 93 2a 55
        E 32 83 2a 00
        E 80 93 2a 44
        E 32 83 2a 00
        E 80 93 2a 44
        E 32 83 2a 00
        E 80 93 2a 44
        E 32 83 2a 00
        E 80 93 2a 55
        E 32 83 2a 00
        E 80 93 2a 44
        E 32 83 2a 00
        E 80 93 2a 44
        E 32 83 2a 00
        E 48 93 2a 7f
        E 16 83 2a 00
        E 0 93 2a 7f
        E 16 83 2a 00
        E 0 93 2a 7f
        E 16 83 2a 00
        E 0 93 2a 7f
        E 16 83 2a 00
        E 0 93 2a 7f
        E 16 83 2a 00
        E 0 93 2a 7f
        E 16 83 2a 00
        E 0 93 2a 7f
        E 16 83 2a 00
        E 0 93 2a 77
        E 16 83 2a 00
        E 0 93 2a 77
        E 16 83 2a 00
        E 0 93 2a 77
        E 16 83 2a 00
        E 0 93 2a 6e
        E 16 83 2a 00
        E 0 93 2a 66
        E 16 83 2a 00
        E 0 93 2a 5d
        E 16 83 2a 00
        E 0 93 2a 55
        E 16 83 2a 00
        E 0 93 2a 4c
        E 16 83 2a 00
        E 0 93 2a 44
        E 16 83 2a 00
        E 0 93 2a 3b
        E 16 83 2a 00
        E 0 93 2a 33
        E 16 83 2a 00
        E 0 93 2a 2a
        E 16 83 2a 00
        E 0 93 2a 22
        E 16 83 2a 00
        E 0 93 2a 19
        E 16 83 2a 00
        E 0 93 2a 11
        E 16 83 2a 00
        E 0 93 2a 08
        E 16 83 2a 00
        E 0 93 2a 44
        E 32 83 2a 00
        E 80 93 2a 44
        E 32 83 2a 00
        E 80 93 2a 55
        E 32 83 2a 00
        E 80 93 2a 44
        E 32 83 2a 00
        E 80 93 2a 44
        E 32 83 2a 00
        E 80 93 2a 44
        E 32 83 2a 00
        E 80 93 2a 55
        E 32 83 2a 00
        E 80 93 2a 44
        E 32 83 2a 00
        E 80 93 2a 44
        E 32 83 2a 00
        E 80 93 2a 44
        E 32 83 2a 00
        E 80 93 2a 55
        E 32 83 2a 00
        E 80 93 2a 44
        E 32 83 2a 00
        E 80 93 2a 44
        E 32 83 2a 00
        E 80 93 2a 44
        E 32 83 2a 00
        E 80 93 2a 55
        E 32 83 2a 00
        E 80 93 2a 44
        E 32 83 2a 00
        E 80 93 2a 44
        E 32 83 2a 00
        E 80 93 2a 44
        E 32 83 2a 00
        E 0 93 2a 11
        E 128 83 2a 00
        E 0 93 2a 22
        E 128 83 2a 00
        E 0 93 2a 33
        E 112 83 2a 00
        E 48 93 2a 44
        E 32 83 2a 00
        E 80 93 2a 77
        E 112 83 2a 00
        E 0 93 2a 11
        E 16 83 2a 00
        E 16 93 2a 7f
        E 16 83 2a 00
        E 0 93 2a 7f
        E 16 83 2a 00
        E 0 93 2a 3b
        E 16 83 2a 00
        E 0 93 2a 3b
        E 16 83 2a 00
        E 160 93 2a 55
        E 128 83 2a 00
        E 32 93 2a 2a
        E 16 83 2a 00
        E 0 93 2a 22
        E 16 83 2a 00
        E 0 93 2a 19
        E 16 83 2a 00
        E 0 93 2a 11
        E 16 83 2a 00
        E 0 93 2a 08
        E 16 83 2a 00
        E 624 93 2a 44
        E 32 83 2a 00
        E 80 93 2a 55
        E 32 83 2a 00
        E 80 93 2a 44
        E 32 83 2a 00
        E 80 93 2a 44
        E 32 83 2a 00
        E 80 93 2a 44
        E 32 83 2a 00
        E 80 93 2a 6e
        E 16 83 2a 00
        E 0 93 2a 6e
        E 16 83 2a 00
        E 0 93 2a 7f
        E 16 83 2a 00
        E 0 93 2a 7f
        E 32 83 2a 00
        E 0 93 2a 7f
        E 16 83 2a 00
        E 0 93 2a 5d
        E 16 83 2a 00
        E 0 93 2a 5d
        E 16 83 2a 00
        E 0 93 2a 3b
        E 16 83 2a 00
        E 80 93 2a 44
        E 32 83 2a 00
        E 80 93 2a 44
        E 32 83 2a 00
        E 80 93 2a 6e
        E 16 83 2a 00
        E 0 93 2a 6e
        E 16 83 2a 00
        E 0 93 2a 7f
        E 16 83 2a 00
        E 0 93 2a 7f
        E 32 83 2a 00
        E 0 93 2a 7f
        E 16 83 2a 00
        E 0 93 2a 5d
        E 16 83 2a 00
        E 0 93 2a 5d
        E 16 83 2a 00
        E 0 93 2a 3b
        E 16 83 2a 00
        E 80 93 2a 44
        E 32 83 2a 00
        E 80 93 2a 44
        E 32 83 2a 00
        E 80 93 2a 55
        E 32 83 2a 00
        E 80 93 2a 44
        E 32 83 2a 00
        E 80 93 2a 44
        E 32 83 2a 00
        E 16 93 2a 33
        E 16 83 2a 00
        E 0 93 2a 4c
        E 16 83 2a 00
        E 0 93 2a 7f
        E 16 83 2a 00
        E 0 93 2a 66
        E 16 83 2a 00
        E 0 93 2a 7f
        E 16 83 2a 00
        E 0 93 2a 7f
        E 16 83 2a 00
        E 0 93 2a 66
        E 16 83 2a 00
        E 0 93 2a 66
        E 16 83 2a 00
        E 0 93 2a 4c
        E 16 83 2a 00
        E 0 93 2a 4c
        E 16 83 2a 00
        E 0 93 2a 66
        E 16 83 2a 00
        E 0 93 2a 66
        E 16 83 2a 00
        E 0 93 2a 4c
        E 16 83 2a 00
        E 0 93 2a 4c
        E 16 83 2a 00
        E 0 93 2a 33
        E 16 83 2a 00
        E 0 93 2a 33
        E 16 83 2a 00
        E 0 93 2a 4c
        E 16 83 2a 00
        E 0 93 2a 4c
        E 16 83 2a 00
        E 0 93 2a 33
        E 16 83 2a 00
        E 0 93 2a 33
        E 16 83 2a 00
        E 0 93 2a 19
        E 16 83 2a 00
        E 0 93 2a 11
        E 16 83 2a 00
        E 48 93 2a 44
        E 32 83 2a 00
        E 0 93 2a 33
        E 16 83 2a 00
        E 0 93 2a 4c
        E 16 83 2a 00
        E 0 93 2a 7f
        E 16 83 2a 00
        E 0 93 2a 66
        E 16 83 2a 00
        E 0 93 2a 7f
        E 16 83 2a 00
        E 0 93 2a 7f
        E 16 83 2a 00
        E 0 b3 7b 00
        E 0 ff 2f 00
      >
    >
  >
>