<REAPER_PROJECT 0.1 "7.27/win64" 1707000000
  <NOTES 0 2
    |ReapNES Studio Project
    |MIDI Import - Wizards_&_Warriors_13_Castle_Ironspire_v1
  >
  RIPPLE 0
  GROUPOVERRIDE 0 0 0
  AUTOXFADE 129
  ENVATTACH 3
  POOLEDENVATTACH 0
  MIXERUIFLAGS 11 48
  ENVFADESZ10 40
  PEAKGAIN 1
  FEEDBACK 0
  PANLAW 1
  PROJOFFS 0 0 0
  MAXPROJLEN 0 0
  GRID 3199 8 1 8 1 0 0 0
  TIMEMODE 1 5 -1 30 0 0 -1
  VIDEO_CONFIG 0 0 65792
  PANMODE 3
  PANLAWFLAGS 3
  CURSOR 0
  ZOOM 100 0 0
  VZOOMEX 6 0
  USE_REC_CFG 0
  RECMODE 1
  SMPTESYNC 0 30 100 40 1000 300 0 0 1 0 0
  LOOP 0
  LOOPGRAN 0 4
  RECORD_PATH "Media" ""
  <RECORD_CFG
    ZXZhdxgAAQ==
  >
  <APPLYFX_CFG
  >
  RENDER_FILE ""
  RENDER_PATTERN ""
  RENDER_FMT 0 2 0
  RENDER_1X 0
  RENDER_RANGE 1 0 0 18 1000
  RENDER_RESAMPLE 3 0 1
  RENDER_ADDTOPROJ 0
  RENDER_STEMS 0
  RENDER_DITHER 0
  TIMELOCKMODE 1
  TEMPOENVLOCKMODE 1
  ITEMMIX 1
  DEFPITCHMODE 589824 0
  TAKELANE 1
  SAMPLERATE 44100 0 0
  <RENDER_CFG
    ZXZhdxgAAQ==
  >
  LOCK 1
  <METRONOME 6 2
    VOL 0.25 0.125
    BEATLEN 4
    FREQ 1760 880 1
    SAMPLES "" ""
    SPLIGNORE 0 0
    SPLDEF 2 660 "" 0
    SPLDEF 3 440 "" 0
    PATTERN 0 169
    PATTERNSTR ABBB
    MULT 1
  >
  GLOBAL_AUTO -1
  TEMPO 128.59999614200012 4 4
  PLAYRATE 1 0 0.25 4
  SELECTION 0 0
  SELECTION2 0 0
  MASTERAUTOMODE 0
  MASTERTRACKHEIGHT 0 0
  MASTERPEAKCOL 16576
  MASTERMUTESOLO 0
  MASTERTRACKVIEW 0 0.6667 0.5 0.5 0 0 0 0 0 0 0 0 0 0
  MASTERHWOUT 0 0 1 0 0 0 0 -1
  MASTER_NCH 2 2
  MASTER_VOLUME 1 0 -1 -1 1
  MASTER_PANMODE 3
  MASTER_PANLAWFLAGS 3
  MASTER_FX 1
  MASTER_SEL 0
  <MASTERPLAYSPEEDENV
    EGUID {B26109F6-5987-41FA-B7C8-6C594E2C12C4}
    ACT 0 -1
    VIS 0 1 1
    LANEHEIGHT 0 0
    ARM 0
    DEFSHAPE 0 -1 -1
  >
  <TEMPOENVEX
    EGUID {127257D3-2A90-4E61-AC5B-2044D9A63CB3}
    ACT 1 -1
    VIS 1 0 1
    LANEHEIGHT 0 0
    ARM 0
    DEFSHAPE 1 -1 -1
  >
  <PROJBAY
  >
  <TRACK {4EBD4A03-0626-4700-970F-69F79B640649}
    NAME "NES - Pulse 1 [ch0]"
    PEAKCOL 16576606
    BEAT -1
    AUTOMODE 0
    PANLAWFLAGS 3
    VOLPAN 1 0 -1 -1 1
    MUTESOLO 0 0 0
    IPHASE 0
    PLAYOFFS 0 1
    ISBUS 0 0
    BUSCOMP 0 0 0 0 0
    SHOWINMIX 1 0.6667 0.5 1 0.5 0 0 0
    FIXEDLANES 9 0 0 0 0
    SEL 1
    REC 1 5088 1 0 0 0 0 0
    VU 2
    TRACKHEIGHT 0 0 0 0 0 0 0
    INQ 0 0 0 0.5 100 0 0 100
    NCHAN 2
    FX 1
    TRACKID {4EBD4A03-0626-4700-970F-69F79B640649}
    PERF 0
    MIDIOUT -1
    MAINSEND 1 0
    <FXCHAIN
      WNDRECT 24 52 700 560
      SHOW 0
      LASTSEL 0
      DOCKED 0
      BYPASS 0 0 0
      <JS "ReapNES Studio/ReapNES_Console.jsfx" ""
        2 15 1 10 80 10 100 2 1 15 1 5 60 10 80 1 1 0 50 0 0 15 1 0 100 0 0 0.500000 0.500000 0.400000 0.300000 0.800000 0 1 0 0 0 0 - - - - - - - - - - - - - - - - - - - - - - - - - -
      >
      FLOATPOS 0 0 0 0
      FXID {081C0AAE-3B84-4B50-8F2A-27AAC11F0199}
      WAK 0 0
    >
    <ITEM
      POSITION 0
      LENGTH 83.98134
      LOOP 0
      ALLTAKES 0
      FADEIN 0 0 0 0 0 0 0
      FADEOUT 0 0 0 0 0 0 0
      MUTE 0 0
      SEL 0
      IGUID {95B07888-8188-44CD-AD39-A53CA34C0BAC}
      <SOURCE MIDI
        HASDATA 1 480 QN
        CCINTERP 32
        E 0 c0 50
        E 0 b0 0c 20
        E 0 b0 0b 08
        E 0 90 2e 08
        E 192 80 2e 00
        E 0 90 2f 08
        E 192 b0 0b 18
        E 0 80 2f 00
        E 0 90 2e 18
        E 192 80 2e 00
        E 0 90 2f 18
        E 192 b0 0b 20
        E 0 80 2f 00
        E 0 90 2e 20
        E 192 80 2e 00
        E 0 90 2f 20
        E 192 b0 0b 30
        E 0 80 2f 00
        E 0 90 2e 30
        E 192 80 2e 00
        E 0 90 2f 30
        E 192 b0 0b 38
        E 0 80 2f 00
        E 0 90 2e 38
        E 192 80 2e 00
        E 0 90 2f 38
        E 192 b0 0b 28
        E 0 80 2f 00
        E 0 90 2e 28
        E 192 80 2e 00
        E 0 90 2f 28
        E 192 b0 0b 18
        E 0 80 2f 00
        E 0 90 2e 18
        E 192 80 2e 00
        E 0 90 2f 18
        E 192 b0 0b 08
        E 0 80 2f 00
        E 0 90 2e 08
        E 192 80 2e 00
        E 0 90 2f 08
        E 192 80 2f 00
        E 0 90 2e 08
        E 192 80 2e 00
        E 0 90 2f 08
        E 192 b0 0b 18
        E 0 80 2f 00
        E 0 90 2e 18
        E 192 80 2e 00
        E 0 90 2f 18
        E 192 b0 0b 20
        E 0 80 2f 00
        E 0 90 2e 20
        E 192 80 2e 00
        E 0 90 2f 20
        E 192 b0 0b 30
        E 0 80 2f 00
        E 0 90 2e 30
        E 192 80 2e 00
        E 0 90 2f 30
        E 192 b0 0b 38
        E 0 80 2f 00
        E 0 90 2e 38
        E 192 80 2e 00
        E 0 90 2f 38
        E 192 b0 0b 28
        E 0 80 2f 00
        E 0 90 2e 28
        E 192 80 2e 00
        E 0 90 2f 28
        E 192 b0 0b 18
        E 0 80 2f 00
        E 0 90 2e 18
        E 192 80 2e 00
        E 0 90 2f 18
        E 192 b0 0b 08
        E 0 80 2f 00
        E 0 90 2e 08
        E 192 80 2e 00
        E 0 90 2f 08
        E 192 80 2f 00
        E 0 90 2e 08
        E 192 80 2e 00
        E 0 90 2f 08
        E 192 b0 0b 18
        E 0 80 2f 00
        E 0 90 2e 18
        E 192 80 2e 00
        E 0 90 2f 18
        E 192 b0 0b 20
        E 0 80 2f 00
        E 0 90 2e 20
        E 192 80 2e 00
        E 0 90 2f 20
        E 192 b0 0b 30
        E 0 80 2f 00
        E 0 90 2e 30
        E 192 80 2e 00
        E 0 90 2f 30
        E 192 b0 0b 38
        E 0 80 2f 00
        E 0 90 2e 38
        E 192 80 2e 00
        E 0 90 2f 38
        E 192 b0 0b 28
        E 0 80 2f 00
        E 0 90 2e 28
        E 192 80 2e 00
        E 0 90 2f 28
        E 192 b0 0b 18
        E 0 80 2f 00
        E 0 90 2e 18
        E 192 80 2e 00
        E 0 90 2f 18
        E 192 b0 0b 08
        E 0 80 2f 00
        E 0 90 2e 08
        E 192 80 2e 00
        E 0 90 2f 08
        E 192 80 2f 00
        E 0 90 2e 08
        E 192 80 2e 00
        E 0 90 2f 08
        E 192 b0 0b 18
        E 0 80 2f 00
        E 0 90 2e 18
        E 192 80 2e 00
        E 0 90 2f 18
        E 192 b0 0b 20
        E 0 80 2f 00
        E 0 90 2e 20
        E 192 80 2e 00
        E 0 90 2f 20
        E 192 b0 0b 30
        E 0 80 2f 00
        E 0 90 2e 30
        E 192 80 2e 00
        E 0 90 2f 30
        E 192 b0 0b 38
        E 0 80 2f 00
        E 0 90 2e 38
        E 192 80 2e 00
        E 0 90 2f 38
        E 192 b0 0b 48
        E 0 80 2f 00
        E 0 90 2e 48
        E 192 80 2e 00
        E 0 90 2f 48
        E 192 b0 0b 50
        E 0 80 2f 00
        E 0 90 2e 50
        E 192 80 2e 00
        E 0 90 2f 50
        E 192 b0 0b 60
        E 0 80 2f 00
        E 0 90 2e 60
        E 192 80 2e 00
        E 0 90 2f 60
        E 192 b0 0c 10
        E 0 b0 0b 30
        E 576 80 2f 00
        E 0 90 2b 30
        E 1152 80 2b 00
        E 0 90 2d 30
        E 576 80 2d 00
        E 0 90 2f 30
        E 384 80 2f 00
        E 0 90 2d 30
        E 384 80 2d 00
        E 0 90 2f 30
        E 576 80 2f 00
        E 0 90 2b 30
        E 1152 80 2b 00
        E 0 90 2d 30
        E 576 80 2d 00
        E 0 90 2f 30
        E 384 80 2f 00
        E 0 90 2d 30
        E 384 80 2d 00
        E 0 90 2f 30
        E 576 80 2f 00
        E 0 90 32 30
        E 1152 80 32 00
        E 0 90 31 30
        E 576 80 31 00
        E 0 90 2f 30
        E 384 80 2f 00
        E 0 90 2d 30
        E 384 80 2d 00
        E 0 90 2f 30
        E 576 80 2f 00
        E 0 90 32 30
        E 1152 80 32 00
        E 0 90 31 30
        E 576 80 31 00
        E 0 90 2f 30
        E 384 80 2f 00
        E 0 90 2d 30
        E 384 80 2d 00
        E 0 90 2f 30
        E 576 80 2f 00
        E 0 90 2b 30
        E 1152 80 2b 00
        E 0 90 2d 30
        E 576 80 2d 00
        E 0 90 2f 30
        E 384 80 2f 00
        E 0 90 2d 30
        E 384 80 2d 00
        E 0 90 2f 30
        E 576 80 2f 00
        E 0 90 2b 30
        E 1152 80 2b 00
        E 0 90 2d 30
        E 576 80 2d 00
        E 0 90 2f 30
        E 384 80 2f 00
        E 0 90 2d 30
        E 384 80 2d 00
        E 0 90 2f 30
        E 576 80 2f 00
        E 0 90 32 30
        E 1152 80 32 00
        E 0 90 31 30
        E 576 80 31 00
        E 0 90 2f 30
        E 384 80 2f 00
        E 0 90 2d 30
        E 384 80 2d 00
        E 0 90 40 30
        E 192 80 40 00
        E 0 90 41 30
        E 192 80 41 00
        E 0 90 42 30
        E 192 80 42 00
        E 0 90 43 30
        E 192 80 43 00
        E 0 90 44 30
        E 192 80 44 00
        E 0 90 45 30
        E 192 80 45 00
        E 0 90 46 30
        E 192 80 46 00
        E 0 90 47 30
        E 192 80 47 00
        E 0 90 48 30
        E 1536 b0 0c 20
        E 0 b0 0b 08
        E 0 80 48 00
        E 0 90 2e 08
        E 192 80 2e 00
        E 0 90 2f 08
        E 192 b0 0b 18
        E 0 80 2f 00
        E 0 90 2e 18
        E 192 80 2e 00
        E 0 90 2f 18
        E 192 b0 0b 20
        E 0 80 2f 00
        E 0 90 2e 20
        E 192 80 2e 00
        E 0 90 2f 20
        E 192 b0 0b 30
        E 0 80 2f 00
        E 0 90 2e 30
        E 192 80 2e 00
        E 0 90 2f 30
        E 192 b0 0b 38
        E 0 80 2f 00
        E 0 90 2e 38
        E 192 80 2e 00
        E 0 90 2f 38
        E 192 b0 0b 28
        E 0 80 2f 00
        E 0 90 2e 28
        E 192 80 2e 00
        E 0 90 2f 28
        E 192 b0 0b 18
        E 0 80 2f 00
        E 0 90 2e 18
        E 192 80 2e 00
        E 0 90 2f 18
        E 192 b0 0b 08
        E 0 80 2f 00
        E 0 90 2e 08
        E 192 80 2e 00
        E 0 90 2f 08
        E 192 80 2f 00
        E 0 90 2e 08
        E 192 80 2e 00
        E 0 90 2f 08
        E 192 b0 0b 18
        E 0 80 2f 00
        E 0 90 2e 18
        E 192 80 2e 00
        E 0 90 2f 18
        E 192 b0 0b 20
        E 0 80 2f 00
        E 0 90 2e 20
        E 192 80 2e 00
        E 0 90 2f 20
        E 192 b0 0b 30
        E 0 80 2f 00
        E 0 90 2e 30
        E 192 80 2e 00
        E 0 90 2f 30
        E 192 b0 0b 38
        E 0 80 2f 00
        E 0 90 2e 38
        E 192 80 2e 00
        E 0 90 2f 38
        E 192 b0 0b 28
        E 0 80 2f 00
        E 0 90 2e 28
        E 192 80 2e 00
        E 0 90 2f 28
        E 192 b0 0b 18
        E 0 80 2f 00
        E 0 90 2e 18
        E 192 80 2e 00
        E 0 90 2f 18
        E 192 b0 0b 08
        E 0 80 2f 00
        E 0 90 2e 08
        E 192 80 2e 00
        E 0 90 2f 08
        E 192 80 2f 00
        E 0 90 2e 08
        E 192 80 2e 00
        E 0 90 2f 08
        E 192 b0 0b 18
        E 0 80 2f 00
        E 0 90 2e 18
        E 192 80 2e 00
        E 0 90 2f 18
        E 192 b0 0b 20
        E 0 80 2f 00
        E 0 90 2e 20
        E 192 80 2e 00
        E 0 90 2f 20
        E 192 b0 0b 30
        E 0 80 2f 00
        E 0 90 2e 30
        E 192 80 2e 00
        E 0 90 2f 30
        E 192 b0 0b 38
        E 0 80 2f 00
        E 0 90 2e 38
        E 192 80 2e 00
        E 0 90 2f 38
        E 192 b0 0b 28
        E 0 80 2f 00
        E 0 90 2e 28
        E 192 80 2e 00
        E 0 90 2f 28
        E 192 b0 0b 18
        E 0 80 2f 00
        E 0 90 2e 18
        E 192 80 2e 00
        E 0 90 2f 18
        E 192 b0 0b 08
        E 0 80 2f 00
        E 0 90 2e 08
        E 192 80 2e 00
        E 0 90 2f 08
        E 192 80 2f 00
        E 0 90 2e 08
        E 192 80 2e 00
        E 0 90 2f 08
        E 192 b0 0b 18
        E 0 80 2f 00
        E 0 90 2e 18
        E 192 80 2e 00
        E 0 90 2f 18
        E 192 b0 0b 20
        E 0 80 2f 00
        E 0 90 2e 20
        E 192 80 2e 00
        E 0 90 2f 20
        E 192 b0 0b 30
        E 0 80 2f 00
        E 0 90 2e 30
        E 192 80 2e 00
        E 0 90 2f 30
        E 192 b0 0b 38
        E 0 80 2f 00
        E 0 90 2e 38
        E 192 80 2e 00
        E 0 90 2f 38
        E 192 b0 0b 48
        E 0 80 2f 00
        E 0 90 2e 48
        E 192 80 2e 00
        E 0 90 2f 48
        E 192 b0 0b 50
        E 0 80 2f 00
        E 0 90 2e 50
        E 192 80 2e 00
        E 0 90 2f 50
        E 192 b0 0b 60
        E 0 80 2f 00
        E 0 90 2e 60
        E 192 80 2e 00
        E 0 90 2f 60
        E 192 b0 0c 10
        E 0 b0 0b 30
        E 576 80 2f 00
        E 0 90 2b 30
        E 1152 80 2b 00
        E 0 90 2d 30
        E 576 80 2d 00
        E 0 90 2f 30
        E 384 80 2f 00
        E 0 90 2d 30
        E 384 80 2d 00
        E 0 90 2f 30
        E 576 80 2f 00
        E 0 90 2b 30
        E 1152 80 2b 00
        E 0 90 2d 30
        E 576 80 2d 00
        E 0 90 2f 30
        E 384 80 2f 00
        E 0 90 2d 30
        E 384 80 2d 00
        E 0 90 2f 30
        E 576 80 2f 00
        E 0 90 32 30
        E 1152 80 32 00
        E 0 90 31 30
        E 576 80 31 00
        E 0 90 2f 30
        E 384 80 2f 00
        E 0 90 2d 30
        E 384 80 2d 00
        E 0 90 2f 30
        E 576 80 2f 00
        E 0 90 32 30
        E 1152 80 32 00
        E 0 90 31 30
        E 576 80 31 00
        E 0 90 2f 30
        E 384 80 2f 00
        E 0 90 2d 30
        E 384 80 2d 00
        E 0 90 2f 30
        E 576 80 2f 00
        E 0 90 2b 30
        E 1152 80 2b 00
        E 0 90 2d 30
        E 576 80 2d 00
        E 0 90 2f 30
        E 384 80 2f 00
        E 0 90 2d 30
        E 384 80 2d 00
        E 0 90 2f 30
        E 576 80 2f 00
        E 0 90 2b 30
        E 1152 80 2b 00
        E 0 90 2d 30
        E 576 80 2d 00
        E 0 90 2f 30
        E 384 80 2f 00
        E 0 90 2d 30
        E 384 80 2d 00
        E 0 90 2f 30
        E 576 80 2f 00
        E 0 90 32 30
        E 1152 80 32 00
        E 0 90 31 30
        E 576 80 31 00
        E 0 90 2f 30
        E 384 80 2f 00
        E 0 90 2d 30
        E 384 80 2d 00
        E 0 90 40 30
        E 192 80 40 00
        E 0 90 41 30
        E 192 80 41 00
        E 0 90 42 30
        E 192 80 42 00
        E 0 90 43 30
        E 192 80 43 00
        E 0 90 44 30
        E 192 80 44 00
        E 0 90 45 30
        E 192 80 45 00
        E 0 90 46 30
        E 192 80 46 00
        E 0 90 47 30
        E 192 80 47 00
        E 0 90 48 30
        E 1536 b0 0c 20
        E 0 b0 0b 08
        E 0 80 48 00
        E 0 90 2e 08
        E 192 80 2e 00
        E 0 90 2f 08
        E 192 b0 0b 18
        E 0 80 2f 00
        E 0 90 2e 18
        E 192 80 2e 00
        E 0 90 2f 18
        E 192 b0 0b 20
        E 0 80 2f 00
        E 0 90 2e 20
        E 192 80 2e 00
        E 0 90 2f 20
        E 192 b0 0b 30
        E 0 80 2f 00
        E 0 90 2e 30
        E 192 80 2e 00
        E 0 90 2f 30
        E 192 b0 0b 38
        E 0 80 2f 00
        E 0 90 2e 38
        E 192 80 2e 00
        E 0 90 2f 38
        E 192 b0 0b 28
        E 0 80 2f 00
        E 0 90 2e 28
        E 192 80 2e 00
        E 0 90 2f 28
        E 192 b0 0b 18
        E 0 80 2f 00
        E 0 90 2e 18
        E 192 80 2e 00
        E 0 90 2f 18
        E 192 b0 0b 08
        E 0 80 2f 00
        E 0 90 2e 08
        E 192 80 2e 00
        E 0 90 2f 08
        E 192 80 2f 00
        E 0 90 2e 08
        E 192 80 2e 00
        E 0 90 2f 08
        E 192 b0 0b 18
        E 0 80 2f 00
        E 0 90 2e 18
        E 192 80 2e 00
        E 0 90 2f 18
        E 192 b0 0b 20
        E 0 80 2f 00
        E 0 90 2e 20
        E 192 80 2e 00
        E 0 90 2f 20
        E 192 b0 0b 30
        E 0 80 2f 00
        E 0 90 2e 30
        E 192 80 2e 00
        E 0 90 2f 30
        E 192 b0 0b 38
        E 0 80 2f 00
        E 0 90 2e 38
        E 192 80 2e 00
        E 0 90 2f 38
        E 192 b0 0b 28
        E 0 80 2f 00
        E 0 90 2e 28
        E 192 80 2e 00
        E 0 90 2f 28
        E 192 b0 0b 18
        E 0 80 2f 00
        E 0 90 2e 18
        E 192 80 2e 00
        E 0 90 2f 18
        E 192 b0 0b 08
        E 0 80 2f 00
        E 0 90 2e 08
        E 192 80 2e 00
        E 0 90 2f 08
        E 192 80 2f 00
        E 0 90 2e 08
        E 192 80 2e 00
        E 0 90 2f 08
        E 192 b0 0b 18
        E 0 80 2f 00
        E 0 90 2e 18
        E 192 80 2e 00
        E 0 90 2f 18
        E 192 b0 0b 20
        E 0 80 2f 00
        E 0 90 2e 20
        E 192 80 2e 00
        E 0 90 2f 20
        E 192 b0 0b 30
        E 0 80 2f 00
        E 0 90 2e 30
        E 192 80 2e 00
        E 0 90 2f 30
        E 192 b0 0b 38
        E 0 80 2f 00
        E 0 90 2e 38
        E 192 80 2e 00
        E 0 90 2f 38
        E 192 b0 0b 28
        E 0 80 2f 00
        E 0 90 2e 28
        E 192 80 2e 00
        E 0 90 2f 28
        E 192 b0 0b 18
        E 0 80 2f 00
        E 0 90 2e 18
        E 192 80 2e 00
        E 0 90 2f 18
        E 192 b0 0b 08
        E 0 80 2f 00
        E 0 90 2e 08
        E 192 80 2e 00
        E 0 90 2f 08
        E 192 80 2f 00
        E 0 90 2e 08
        E 192 80 2e 00
        E 0 90 2f 08
        E 192 b0 0b 18
        E 0 80 2f 00
        E 0 90 2e 18
        E 192 80 2e 00
        E 0 90 2f 18
        E 192 b0 0b 20
        E 0 80 2f 00
        E 0 90 2e 20
        E 192 80 2e 00
        E 0 90 2f 20
        E 192 b0 0b 30
        E 0 80 2f 00
        E 0 90 2e 30
        E 192 80 2e 00
        E 0 90 2f 30
        E 192 b0 0b 38
        E 0 80 2f 00
        E 0 90 2e 38
        E 192 80 2e 00
        E 0 90 2f 38
        E 192 b0 0b 48
        E 0 80 2f 00
        E 0 90 2e 48
        E 192 80 2e 00
        E 0 90 2f 48
        E 192 b0 0b 50
        E 0 80 2f 00
        E 0 90 2e 50
        E 192 80 2e 00
        E 0 90 2f 50
        E 192 b0 0b 60
        E 0 80 2f 00
        E 0 90 2e 60
        E 192 80 2e 00
        E 0 90 2f 60
        E 192 b0 0c 10
        E 0 b0 0b 30
        E 384 80 2f 00
        E 0 ff 2f 00
      >
    >
  >
  <TRACK {A4435699-8F08-44E9-B918-D05410DC9BC2}
    NAME "NES - Pulse 2 [ch1]"
    PEAKCOL 10092441
    BEAT -1
    AUTOMODE 0
    PANLAWFLAGS 3
    VOLPAN 1 0 -1 -1 1
    MUTESOLO 0 0 0
    IPHASE 0
    PLAYOFFS 0 1
    ISBUS 0 0
    BUSCOMP 0 0 0 0 0
    SHOWINMIX 1 0.6667 0.5 1 0.5 0 0 0
    FIXEDLANES 9 0 0 0 0
    SEL 0
    REC 0 5088 1 0 0 0 0 0
    VU 2
    TRACKHEIGHT 0 0 0 0 0 0 0
    INQ 0 0 0 0.5 100 0 0 100
    NCHAN 2
    FX 1
    TRACKID {A4435699-8F08-44E9-B918-D05410DC9BC2}
    PERF 0
    MIDIOUT -1
    MAINSEND 1 0
    <FXCHAIN
      WNDRECT 24 52 700 560
      SHOW 0
      LASTSEL 0
      DOCKED 0
      BYPASS 0 0 0
      <JS "ReapNES Studio/ReapNES_Console.jsfx" ""
        2 15 1 10 80 10 100 2 1 15 1 5 60 10 80 1 1 0 50 0 0 15 1 0 100 0 0 0.500000 0.500000 0.400000 0.300000 0.800000 1 1 0 0 0 0 - - - - - - - - - - - - - - - - - - - - - - - - - -
      >
      FLOATPOS 0 0 0 0
      FXID {4E1EE14D-1BD8-4F10-9D29-B4A56FB919A2}
      WAK 0 0
    >
    <ITEM
      POSITION 0
      LENGTH 83.98134
      LOOP 0
      ALLTAKES 0
      FADEIN 0 0 0 0 0 0 0
      FADEOUT 0 0 0 0 0 0 0
      MUTE 0 0
      SEL 0
      IGUID {3CF6E591-4ABB-401E-8656-4CEA79E5D48C}
      <SOURCE MIDI
        HASDATA 1 480 QN
        CCINTERP 32
        E 0 c1 51
        E 12288 b1 0c 20
        E 0 b1 0b 60
        E 0 91 3b 60
        E 576 81 3b 00
        E 0 91 3e 60
        E 1152 81 3e 00
        E 0 91 3d 60
        E 576 81 3d 00
        E 0 91 3b 60
        E 384 81 3b 00
        E 0 91 39 60
        E 384 81 39 00
        E 0 91 3b 60
        E 576 81 3b 00
        E 0 91 3e 60
        E 1152 81 3e 00
        E 0 91 3d 60
        E 576 81 3d 00
        E 0 91 3b 60
        E 384 81 3b 00
        E 0 91 39 60
        E 384 81 39 00
        E 0 91 3b 60
        E 576 81 3b 00
        E 0 91 3e 60
        E 1152 81 3e 00
        E 0 91 3d 60
        E 576 81 3d 00
        E 0 91 3b 60
        E 192 81 3b 00
        E 0 91 3e 60
        E 192 81 3e 00
        E 0 91 42 60
        E 384 81 42 00
        E 0 91 3b 60
        E 576 81 3b 00
        E 0 91 42 60
        E 1152 81 42 00
        E 0 91 40 60
        E 576 81 40 00
        E 0 91 3d 60
        E 192 81 3d 00
        E 0 91 40 60
        E 192 81 40 00
        E 0 91 45 60
        E 384 81 45 00
        E 0 91 56 60
        E 192 81 56 00
        E 0 91 53 60
        E 192 81 53 00
        E 0 91 4e 60
        E 192 81 4e 00
        E 0 91 4a 60
        E 192 81 4a 00
        E 0 91 47 60
        E 192 81 47 00
        E 0 91 42 60
        E 192 81 42 00
        E 0 91 3e 60
        E 192 81 3e 00
        E 0 91 56 60
        E 192 81 56 00
        E 0 91 55 60
        E 192 81 55 00
        E 0 91 51 60
        E 192 81 51 00
        E 0 91 4c 60
        E 192 81 4c 00
        E 0 91 49 60
        E 192 81 49 00
        E 0 91 45 60
        E 192 81 45 00
        E 0 91 40 60
        E 192 81 40 00
        E 0 91 3d 60
        E 192 81 3d 00
        E 0 91 55 60
        E 192 81 55 00
        E 0 91 56 60
        E 192 81 56 00
        E 0 91 53 60
        E 192 81 53 00
        E 0 91 4e 60
        E 192 81 4e 00
        E 0 91 4a 60
        E 192 81 4a 00
        E 0 91 47 60
        E 192 81 47 00
        E 0 91 42 60
        E 192 81 42 00
        E 0 91 3e 60
        E 192 81 3e 00
        E 0 91 56 60
        E 192 81 56 00
        E 0 91 55 60
        E 192 81 55 00
        E 0 91 51 60
        E 192 81 51 00
        E 0 91 4c 60
        E 192 81 4c 00
        E 0 91 49 60
        E 192 81 49 00
        E 0 91 45 60
        E 192 81 45 00
        E 0 91 40 60
        E 192 81 40 00
        E 0 91 3d 60
        E 192 81 3d 00
        E 0 91 55 60
        E 192 81 55 00
        E 0 91 53 60
        E 192 81 53 00
        E 0 91 52 60
        E 192 81 52 00
        E 0 91 51 60
        E 192 81 51 00
        E 0 91 50 60
        E 192 81 50 00
        E 0 91 4f 60
        E 192 81 4f 00
        E 0 91 4e 60
        E 192 81 4e 00
        E 0 91 4d 60
        E 192 81 4d 00
        E 0 91 4c 60
        E 192 81 4c 00
        E 0 91 4b 60
        E 192 81 4b 00
        E 0 91 4a 60
        E 192 81 4a 00
        E 0 91 49 60
        E 192 81 49 00
        E 0 91 48 60
        E 192 81 48 00
        E 0 91 47 60
        E 768 81 47 00
        E 0 91 46 60
        E 192 81 46 00
        E 0 91 47 60
        E 192 81 47 00
        E 0 91 48 60
        E 192 81 48 00
        E 0 91 49 60
        E 192 81 49 00
        E 0 91 4a 60
        E 192 81 4a 00
        E 0 91 4b 60
        E 192 81 4b 00
        E 0 91 4c 60
        E 192 81 4c 00
        E 0 91 4d 60
        E 192 81 4d 00
        E 0 91 4e 60
        E 13824 81 4e 00
        E 0 91 3b 60
        E 576 81 3b 00
        E 0 91 3e 60
        E 1152 81 3e 00
        E 0 91 3d 60
        E 576 81 3d 00
        E 0 91 3b 60
        E 384 81 3b 00
        E 0 91 39 60
        E 384 81 39 00
        E 0 91 3b 60
        E 576 81 3b 00
        E 0 91 3e 60
        E 1152 81 3e 00
        E 0 91 3d 60
        E 576 81 3d 00
        E 0 91 3b 60
        E 384 81 3b 00
        E 0 91 39 60
        E 384 81 39 00
        E 0 91 3b 60
        E 576 81 3b 00
        E 0 91 3e 60
        E 1152 81 3e 00
        E 0 91 3d 60
        E 576 81 3d 00
        E 0 91 3b 60
        E 192 81 3b 00
        E 0 91 3e 60
        E 192 81 3e 00
        E 0 91 42 60
        E 384 81 42 00
        E 0 91 3b 60
        E 576 81 3b 00
        E 0 91 42 60
        E 1152 81 42 00
        E 0 91 40 60
        E 576 81 40 00
        E 0 91 3d 60
        E 192 81 3d 00
        E 0 91 40 60
        E 192 81 40 00
        E 0 91 45 60
        E 384 81 45 00
        E 0 91 56 60
        E 192 81 56 00
        E 0 91 53 60
        E 192 81 53 00
        E 0 91 4e 60
        E 192 81 4e 00
        E 0 91 4a 60
        E 192 81 4a 00
        E 0 91 47 60
        E 192 81 47 00
        E 0 91 42 60
        E 192 81 42 00
        E 0 91 3e 60
        E 192 81 3e 00
        E 0 91 56 60
        E 192 81 56 00
        E 0 91 55 60
        E 192 81 55 00
        E 0 91 51 60
        E 192 81 51 00
        E 0 91 4c 60
        E 192 81 4c 00
        E 0 91 49 60
        E 192 81 49 00
        E 0 91 45 60
        E 192 81 45 00
        E 0 91 40 60
        E 192 81 40 00
        E 0 91 3d 60
        E 192 81 3d 00
        E 0 91 55 60
        E 192 81 55 00
        E 0 91 56 60
        E 192 81 56 00
        E 0 91 53 60
        E 192 81 53 00
        E 0 91 4e 60
        E 192 81 4e 00
        E 0 91 4a 60
        E 192 81 4a 00
        E 0 91 47 60
        E 192 81 47 00
        E 0 91 42 60
        E 192 81 42 00
        E 0 91 3e 60
        E 192 81 3e 00
        E 0 91 56 60
        E 192 81 56 00
        E 0 91 55 60
        E 192 81 55 00
        E 0 91 51 60
        E 192 81 51 00
        E 0 91 4c 60
        E 192 81 4c 00
        E 0 91 49 60
        E 192 81 49 00
        E 0 91 45 60
        E 192 81 45 00
        E 0 91 40 60
        E 192 81 40 00
        E 0 91 3d 60
        E 192 81 3d 00
        E 0 91 55 60
        E 192 81 55 00
        E 0 91 53 60
        E 192 81 53 00
        E 0 91 52 60
        E 192 81 52 00
        E 0 91 51 60
        E 192 81 51 00
        E 0 91 50 60
        E 192 81 50 00
        E 0 91 4f 60
        E 192 81 4f 00
        E 0 91 4e 60
        E 192 81 4e 00
        E 0 91 4d 60
        E 192 81 4d 00
        E 0 91 4c 60
        E 192 81 4c 00
        E 0 91 4b 60
        E 192 81 4b 00
        E 0 91 4a 60
        E 192 81 4a 00
        E 0 91 49 60
        E 192 81 49 00
        E 0 91 48 60
        E 192 81 48 00
        E 0 91 47 60
        E 768 81 47 00
        E 0 91 46 60
        E 192 81 46 00
        E 0 91 47 60
        E 192 81 47 00
        E 0 91 48 60
        E 192 81 48 00
        E 0 91 49 60
        E 192 81 49 00
        E 0 91 4a 60
        E 192 81 4a 00
        E 0 91 4b 60
        E 192 81 4b 00
        E 0 91 4c 60
        E 192 81 4c 00
        E 0 91 4d 60
        E 192 81 4d 00
        E 0 91 4e 60
        E 13824 81 4e 00
        E 0 91 3b 60
        E 384 81 3b 00
        E 0 ff 2f 00
      >
    >
  >
  <TRACK {AFC02412-97C2-4395-A83F-8BD6F9EE17C7}
    NAME "NES - Triangle [ch2]"
    PEAKCOL 16744192
    BEAT -1
    AUTOMODE 0
    PANLAWFLAGS 3
    VOLPAN 1 0 -1 -1 1
    MUTESOLO 0 0 0
    IPHASE 0
    PLAYOFFS 0 1
    ISBUS 0 0
    BUSCOMP 0 0 0 0 0
    SHOWINMIX 1 0.6667 0.5 1 0.5 0 0 0
    FIXEDLANES 9 0 0 0 0
    SEL 0
    REC 0 5088 1 0 0 0 0 0
    VU 2
    TRACKHEIGHT 0 0 0 0 0 0 0
    INQ 0 0 0 0.5 100 0 0 100
    NCHAN 2
    FX 1
    TRACKID {AFC02412-97C2-4395-A83F-8BD6F9EE17C7}
    PERF 0
    MIDIOUT -1
    MAINSEND 1 0
    <FXCHAIN
      WNDRECT 24 52 700 560
      SHOW 0
      LASTSEL 0
      DOCKED 0
      BYPASS 0 0 0
      <JS "ReapNES Studio/ReapNES_Console.jsfx" ""
        2 15 1 10 80 10 100 2 1 15 1 5 60 10 80 1 1 0 50 0 0 15 1 0 100 0 0 0.500000 0.500000 0.400000 0.300000 0.800000 2 1 0 0 0 0 - - - - - - - - - - - - - - - - - - - - - - - - - -
      >
      FLOATPOS 0 0 0 0
      FXID {2EA84196-7612-4963-9F60-D0C45A4DB6E6}
      WAK 0 0
    >
    <ITEM
      POSITION 0
      LENGTH 83.98134
      LOOP 0
      ALLTAKES 0
      FADEIN 0 0 0 0 0 0 0
      FADEOUT 0 0 0 0 0 0 0
      MUTE 0 0
      SEL 0
      IGUID {1CEB0D04-600A-40B4-A448-A84B5827D6AF}
      <SOURCE MIDI
        HASDATA 1 480 QN
        CCINTERP 32
        E 0 c2 26
        E 0 b2 0b 7f
        E 0 92 22 7f
        E 192 82 22 00
        E 0 b2 0b 7f
        E 0 92 23 7f
        E 192 82 23 00
        E 0 b2 0b 7f
        E 0 92 22 7f
        E 192 82 22 00
        E 0 b2 0b 7f
        E 0 92 23 7f
        E 192 82 23 00
        E 0 b2 0b 7f
        E 0 92 22 7f
        E 192 82 22 00
        E 0 b2 0b 7f
        E 0 92 23 7f
        E 192 82 23 00
        E 0 b2 0b 7f
        E 0 92 22 7f
        E 192 82 22 00
        E 0 b2 0b 7f
        E 0 92 23 7f
        E 192 82 23 00
        E 0 b2 0b 7f
        E 0 92 22 7f
        E 192 82 22 00
        E 0 b2 0b 7f
        E 0 92 23 7f
        E 192 82 23 00
        E 0 b2 0b 7f
        E 0 92 22 7f
        E 192 82 22 00
        E 0 b2 0b 7f
        E 0 92 23 7f
        E 192 82 23 00
        E 0 b2 0b 7f
        E 0 92 22 7f
        E 192 82 22 00
        E 0 b2 0b 7f
        E 0 92 23 7f
        E 192 82 23 00
        E 0 b2 0b 7f
        E 0 92 22 7f
        E 192 82 22 00
        E 0 b2 0b 7f
        E 0 92 23 7f
        E 192 82 23 00
        E 0 b2 0b 7f
        E 0 92 22 7f
        E 192 82 22 00
        E 0 b2 0b 7f
        E 0 92 23 7f
        E 192 82 23 00
        E 0 b2 0b 7f
        E 0 92 22 7f
        E 192 82 22 00
        E 0 b2 0b 7f
        E 0 92 23 7f
        E 192 82 23 00
        E 0 b2 0b 7f
        E 0 92 22 7f
        E 192 82 22 00
        E 0 b2 0b 7f
        E 0 92 23 7f
        E 192 82 23 00
        E 0 b2 0b 7f
        E 0 92 22 7f
        E 192 82 22 00
        E 0 b2 0b 7f
        E 0 92 23 7f
        E 192 82 23 00
        E 0 b2 0b 7f
        E 0 92 22 7f
        E 192 82 22 00
        E 0 b2 0b 7f
        E 0 92 23 7f
        E 192 82 23 00
        E 0 b2 0b 7f
        E 0 92 22 7f
        E 192 82 22 00
        E 0 b2 0b 7f
        E 0 92 23 7f
        E 192 82 23 00
        E 0 b2 0b 7f
        E 0 92 22 7f
        E 192 82 22 00
        E 0 b2 0b 7f
        E 0 92 23 7f
        E 192 82 23 00
        E 0 b2 0b 7f
        E 0 92 22 7f
        E 192 82 22 00
        E 0 b2 0b 7f
        E 0 92 23 7f
        E 192 82 23 00
        E 0 b2 0b 7f
        E 0 92 22 7f
        E 192 82 22 00
        E 0 b2 0b 7f
        E 0 92 23 7f
        E 192 82 23 00
        E 0 b2 0b 7f
        E 0 92 22 7f
        E 192 82 22 00
        E 0 b2 0b 7f
        E 0 92 23 7f
        E 192 82 23 00
        E 0 b2 0b 7f
        E 0 92 22 7f
        E 192 82 22 00
        E 0 b2 0b 7f
        E 0 92 23 7f
        E 192 82 23 00
        E 0 b2 0b 7f
        E 0 92 22 7f
        E 192 82 22 00
        E 0 b2 0b 7f
        E 0 92 23 7f
        E 192 82 23 00
        E 0 b2 0b 7f
        E 0 92 22 7f
        E 192 82 22 00
        E 0 b2 0b 7f
        E 0 92 23 7f
        E 192 82 23 00
        E 0 b2 0b 7f
        E 0 92 22 7f
        E 192 82 22 00
        E 0 b2 0b 7f
        E 0 92 23 7f
        E 192 82 23 00
        E 0 b2 0b 7f
        E 0 92 22 7f
        E 192 82 22 00
        E 0 b2 0b 7f
        E 0 92 23 7f
        E 192 82 23 00
        E 0 b2 0b 7f
        E 0 92 22 7f
        E 192 82 22 00
        E 0 b2 0b 7f
        E 0 92 23 7f
        E 192 82 23 00
        E 0 b2 0b 7f
        E 0 92 22 7f
        E 192 82 22 00
        E 0 b2 0b 7f
        E 0 92 23 7f
        E 192 82 23 00
        E 0 b2 0b 7f
        E 0 92 22 7f
        E 192 82 22 00
        E 0 b2 0b 7f
        E 0 92 23 7f
        E 192 82 23 00
        E 0 b2 0b 7f
        E 0 92 22 7f
        E 192 82 22 00
        E 0 b2 0b 7f
        E 0 92 23 7f
        E 192 82 23 00
        E 0 b2 0b 7f
        E 0 92 22 7f
        E 192 82 22 00
        E 0 b2 0b 7f
        E 0 92 23 7f
        E 192 82 23 00
        E 0 b2 0b 7f
        E 0 92 22 7f
        E 192 82 22 00
        E 0 b2 0b 7f
        E 0 92 23 7f
        E 192 82 23 00
        E 0 b2 0b 7f
        E 0 92 22 7f
        E 192 82 22 00
        E 0 b2 0b 7f
        E 0 92 23 7f
        E 192 82 23 00
        E 0 b2 0b 7f
        E 0 92 22 7f
        E 192 82 22 00
        E 0 b2 0b 7f
        E 0 92 23 7f
        E 192 82 23 00
        E 0 b2 0b 7f
        E 0 92 22 7f
        E 192 82 22 00
        E 0 b2 0b 7f
        E 0 92 23 7f
        E 192 82 23 00
        E 0 b2 0b 7f
        E 0 92 22 7f
        E 192 82 22 00
        E 0 b2 0b 7f
        E 0 92 23 7f
        E 192 82 23 00
        E 0 b2 0b 7f
        E 0 92 22 7f
        E 192 82 22 00
        E 0 b2 0b 7f
        E 0 92 23 7f
        E 192 82 23 00
        E 0 b2 0b 7f
        E 0 92 22 7f
        E 192 82 22 00
        E 0 b2 0b 7f
        E 0 92 23 7f
        E 192 82 23 00
        E 0 b2 0b 7f
        E 0 92 22 7f
        E 192 82 22 00
        E 0 b2 0b 7f
        E 0 92 23 7f
        E 192 82 23 00
        E 0 b2 0b 7f
        E 0 92 22 7f
        E 192 82 22 00
        E 0 b2 0b 7f
        E 0 92 23 7f
        E 192 82 23 00
        E 0 b2 0b 7f
        E 0 92 22 7f
        E 192 82 22 00
        E 0 b2 0b 7f
        E 0 92 23 7f
        E 192 82 23 00
        E 0 b2 0b 7f
        E 0 92 22 7f
        E 192 82 22 00
        E 0 b2 0b 7f
        E 0 92 23 7f
        E 192 82 23 00
        E 0 b2 0b 7f
        E 0 92 22 7f
        E 192 82 22 00
        E 0 b2 0b 7f
        E 0 92 23 7f
        E 192 82 23 00
        E 0 b2 0b 7f
        E 0 92 22 7f
        E 192 82 22 00
        E 0 b2 0b 7f
        E 0 92 23 7f
        E 192 82 23 00
        E 0 b2 0b 7f
        E 0 92 22 7f
        E 192 82 22 00
        E 0 b2 0b 7f
        E 0 92 23 7f
        E 192 82 23 00
        E 0 b2 0b 7f
        E 0 92 22 7f
        E 192 82 22 00
        E 0 b2 0b 7f
        E 0 92 23 7f
        E 192 82 23 00
        E 0 b2 0b 7f
        E 0 92 22 7f
        E 192 82 22 00
        E 0 b2 0b 7f
        E 0 92 23 7f
        E 192 82 23 00
        E 0 b2 0b 7f
        E 0 92 22 7f
        E 192 82 22 00
        E 0 b2 0b 7f
        E 0 92 23 7f
        E 192 82 23 00
        E 0 b2 0b 7f
        E 0 92 22 7f
        E 192 82 22 00
        E 0 b2 0b 7f
        E 0 92 23 7f
        E 192 82 23 00
        E 0 b2 0b 7f
        E 0 92 22 7f
        E 192 82 22 00
        E 0 b2 0b 7f
        E 0 92 23 7f
        E 192 82 23 00
        E 0 b2 0b 7f
        E 0 92 22 7f
        E 192 82 22 00
        E 0 b2 0b 7f
        E 0 92 23 7f
        E 192 82 23 00
        E 0 b2 0b 7f
        E 0 92 22 7f
        E 192 82 22 00
        E 0 b2 0b 7f
        E 0 92 23 7f
        E 192 82 23 00
        E 0 b2 0b 7f
        E 0 92 22 7f
        E 192 82 22 00
        E 0 b2 0b 7f
        E 0 92 23 7f
        E 192 82 23 00
        E 0 b2 0b 7f
        E 0 92 22 7f
        E 192 82 22 00
        E 0 b2 0b 7f
        E 0 92 23 7f
        E 192 82 23 00
        E 0 b2 0b 7f
        E 0 92 22 7f
        E 192 82 22 00
        E 0 b2 0b 7f
        E 0 92 23 7f
        E 192 82 23 00
        E 0 b2 0b 7f
        E 0 92 22 7f
        E 192 82 22 00
        E 0 b2 0b 7f
        E 0 92 23 7f
        E 192 82 23 00
        E 0 b2 0b 7f
        E 0 92 22 7f
        E 192 82 22 00
        E 0 b2 0b 7f
        E 0 92 23 7f
        E 192 82 23 00
        E 0 b2 0b 7f
        E 0 92 22 7f
        E 192 82 22 00
        E 0 b2 0b 7f
        E 0 92 23 7f
        E 192 82 23 00
        E 0 b2 0b 7f
        E 0 92 22 7f
        E 192 82 22 00
        E 0 b2 0b 7f
        E 0 92 23 7f
        E 192 82 23 00
        E 0 b2 0b 7f
        E 0 92 22 7f
        E 192 82 22 00
        E 0 b2 0b 7f
        E 0 92 23 7f
        E 192 82 23 00
        E 0 b2 0b 7f
        E 0 92 22 7f
        E 192 82 22 00
        E 0 b2 0b 7f
        E 0 92 23 7f
        E 192 82 23 00
        E 0 b2 0b 7f
        E 0 92 22 7f
        E 192 82 22 00
        E 0 b2 0b 7f
        E 0 92 23 7f
        E 192 82 23 00
        E 0 b2 0b 7f
        E 0 92 22 7f
        E 192 82 22 00
        E 0 b2 0b 7f
        E 0 92 23 7f
        E 192 82 23 00
        E 0 b2 0b 7f
        E 0 92 22 7f
        E 192 82 22 00
        E 0 b2 0b 7f
        E 0 92 23 7f
        E 192 82 23 00
        E 0 b2 0b 7f
        E 0 92 22 7f
        E 192 82 22 00
        E 0 b2 0b 7f
        E 0 92 23 7f
        E 192 82 23 00
        E 0 b2 0b 7f
        E 0 92 22 7f
        E 192 82 22 00
        E 0 b2 0b 7f
        E 0 92 23 7f
        E 192 82 23 00
        E 0 b2 0b 7f
        E 0 92 22 7f
        E 192 82 22 00
        E 0 b2 0b 7f
        E 0 92 23 7f
        E 192 82 23 00
        E 0 b2 0b 7f
        E 0 92 22 7f
        E 192 82 22 00
        E 0 b2 0b 7f
        E 0 92 23 7f
        E 192 82 23 00
        E 0 b2 0b 7f
        E 0 92 22 7f
        E 192 82 22 00
        E 0 b2 0b 7f
        E 0 92 23 7f
        E 192 82 23 00
        E 0 b2 0b 7f
        E 0 92 22 7f
        E 192 82 22 00
        E 0 b2 0b 7f
        E 0 92 23 7f
        E 192 82 23 00
        E 0 b2 0b 7f
        E 0 92 22 7f
        E 192 82 22 00
        E 0 b2 0b 7f
        E 0 92 23 7f
        E 192 82 23 00
        E 0 b2 0b 7f
        E 0 92 22 7f
        E 192 82 22 00
        E 0 b2 0b 7f
        E 0 92 23 7f
        E 192 82 23 00
        E 0 b2 0b 7f
        E 0 92 22 7f
        E 192 82 22 00
        E 0 b2 0b 7f
        E 0 92 23 7f
        E 192 82 23 00
        E 0 b2 0b 7f
        E 0 92 22 7f
        E 192 82 22 00
        E 0 b2 0b 7f
        E 0 92 23 7f
        E 192 82 23 00
        E 0 b2 0b 7f
        E 0 92 22 7f
        E 192 82 22 00
        E 0 b2 0b 7f
        E 0 92 23 7f
        E 192 82 23 00
        E 0 b2 0b 7f
        E 0 92 22 7f
        E 192 82 22 00
        E 0 b2 0b 7f
        E 0 92 23 7f
        E 192 82 23 00
        E 0 b2 0b 7f
        E 0 92 22 7f
        E 192 82 22 00
        E 0 b2 0b 7f
        E 0 92 23 7f
        E 192 82 23 00
        E 0 b2 0b 7f
        E 0 92 22 7f
        E 192 82 22 00
        E 0 b2 0b 7f
        E 0 92 23 7f
        E 192 82 23 00
        E 0 b2 0b 7f
        E 0 92 22 7f
        E 192 82 22 00
        E 0 b2 0b 7f
        E 0 92 23 7f
        E 192 82 23 00
        E 0 b2 0b 7f
        E 0 92 22 7f
        E 192 82 22 00
        E 0 b2 0b 7f
        E 0 92 23 7f
        E 192 82 23 00
        E 0 b2 0b 7f
        E 0 92 22 7f
        E 192 82 22 00
        E 0 b2 0b 7f
        E 0 92 23 7f
        E 192 82 23 00
        E 0 b2 0b 7f
        E 0 92 22 7f
        E 192 82 22 00
        E 0 b2 0b 7f
        E 0 92 23 7f
        E 192 82 23 00
        E 0 b2 0b 7f
        E 0 92 22 7f
        E 192 82 22 00
        E 0 b2 0b 7f
        E 0 92 23 7f
        E 192 82 23 00
        E 0 b2 0b 7f
        E 0 92 22 7f
        E 192 82 22 00
        E 0 b2 0b 7f
        E 0 92 23 7f
        E 192 82 23 00
        E 0 b2 0b 7f
        E 0 92 22 7f
        E 192 82 22 00
        E 0 b2 0b 7f
        E 0 92 23 7f
        E 192 82 23 00
        E 0 b2 0b 7f
        E 0 92 22 7f
        E 192 82 22 00
        E 0 b2 0b 7f
        E 0 92 23 7f
        E 192 82 23 00
        E 0 b2 0b 7f
        E 0 92 22 7f
        E 192 82 22 00
        E 0 b2 0b 7f
        E 0 92 23 7f
        E 192 82 23 00
        E 0 b2 0b 7f
        E 0 92 22 7f
        E 192 82 22 00
        E 0 b2 0b 7f
        E 0 92 23 7f
        E 192 82 23 00
        E 0 b2 0b 7f
        E 0 92 22 7f
        E 192 82 22 00
        E 0 b2 0b 7f
        E 0 92 23 7f
        E 192 82 23 00
        E 0 b2 0b 7f
        E 0 92 22 7f
        E 192 82 22 00
        E 0 b2 0b 7f
        E 0 92 23 7f
        E 192 82 23 00
        E 0 b2 0b 7f
        E 0 92 22 7f
        E 192 82 22 00
        E 0 b2 0b 7f
        E 0 92 23 7f
        E 192 82 23 00
        E 0 b2 0b 7f
        E 0 92 22 7f
        E 192 82 22 00
        E 0 b2 0b 7f
        E 0 92 23 7f
        E 192 82 23 00
        E 0 b2 0b 7f
        E 0 92 22 7f
        E 192 82 22 00
        E 0 b2 0b 7f
        E 0 92 23 7f
        E 192 82 23 00
        E 0 b2 0b 7f
        E 0 92 22 7f
        E 192 82 22 00
        E 0 b2 0b 7f
        E 0 92 23 7f
        E 192 82 23 00
        E 0 b2 0b 7f
        E 0 92 22 7f
        E 192 82 22 00
        E 0 b2 0b 7f
        E 0 92 23 7f
        E 192 82 23 00
        E 0 b2 0b 7f
        E 0 92 22 7f
        E 192 82 22 00
        E 0 b2 0b 7f
        E 0 92 23 7f
        E 192 82 23 00
        E 0 b2 0b 7f
        E 0 92 22 7f
        E 192 82 22 00
        E 0 b2 0b 7f
        E 0 92 23 7f
        E 192 82 23 00
        E 0 b2 0b 7f
        E 0 92 22 7f
        E 192 82 22 00
        E 0 b2 0b 7f
        E 0 92 23 7f
        E 192 82 23 00
        E 0 b2 0b 7f
        E 0 92 22 7f
        E 192 82 22 00
        E 0 b2 0b 7f
        E 0 92 23 7f
        E 192 82 23 00
        E 0 b2 0b 7f
        E 0 92 22 7f
        E 192 82 22 00
        E 0 b2 0b 7f
        E 0 92 23 7f
        E 192 82 23 00
        E 0 b2 0b 7f
        E 0 92 22 7f
        E 192 82 22 00
        E 0 b2 0b 7f
        E 0 92 23 7f
        E 192 82 23 00
        E 0 b2 0b 7f
        E 0 92 22 7f
        E 192 82 22 00
        E 0 b2 0b 7f
        E 0 92 23 7f
        E 192 82 23 00
        E 0 b2 0b 7f
        E 0 92 22 7f
        E 192 82 22 00
        E 0 b2 0b 7f
        E 0 92 23 7f
        E 192 82 23 00
        E 0 b2 0b 7f
        E 0 92 22 7f
        E 192 82 22 00
        E 0 b2 0b 7f
        E 0 92 23 7f
        E 192 82 23 00
        E 0 b2 0b 7f
        E 0 92 22 7f
        E 192 82 22 00
        E 0 b2 0b 7f
        E 0 92 23 7f
        E 192 82 23 00
        E 0 b2 0b 7f
        E 0 92 22 7f
        E 192 82 22 00
        E 0 b2 0b 7f
        E 0 92 23 7f
        E 192 82 23 00
        E 0 b2 0b 7f
        E 0 92 22 7f
        E 192 82 22 00
        E 0 b2 0b 7f
        E 0 92 23 7f
        E 192 82 23 00
        E 0 b2 0b 7f
        E 0 92 22 7f
        E 192 82 22 00
        E 0 b2 0b 7f
        E 0 92 23 7f
        E 192 82 23 00
        E 0 b2 0b 7f
        E 0 92 22 7f
        E 192 82 22 00
        E 0 b2 0b 7f
        E 0 92 23 7f
        E 192 82 23 00
        E 0 b2 0b 7f
        E 0 92 22 7f
        E 192 82 22 00
        E 0 b2 0b 7f
        E 0 92 23 7f
        E 192 82 23 00
        E 0 b2 0b 7f
        E 0 92 22 7f
        E 192 82 22 00
        E 0 b2 0b 7f
        E 0 92 23 7f
        E 192 82 23 00
        E 0 b2 0b 7f
        E 0 92 22 7f
        E 192 82 22 00
        E 0 b2 0b 7f
        E 0 92 23 7f
        E 192 82 23 00
        E 0 b2 0b 7f
        E 0 92 22 7f
        E 192 82 22 00
        E 0 b2 0b 7f
        E 0 92 23 7f
        E 192 82 23 00
        E 0 b2 0b 7f
        E 0 92 22 7f
        E 192 82 22 00
        E 0 b2 0b 7f
        E 0 92 23 7f
        E 192 82 23 00
        E 0 b2 0b 7f
        E 0 92 22 7f
        E 192 82 22 00
        E 0 b2 0b 7f
        E 0 92 23 7f
        E 192 82 23 00
        E 0 b2 0b 7f
        E 0 92 22 7f
        E 192 82 22 00
        E 0 b2 0b 7f
        E 0 92 23 7f
        E 192 82 23 00
        E 0 b2 0b 7f
        E 0 92 22 7f
        E 192 82 22 00
        E 0 b2 0b 7f
        E 0 92 23 7f
        E 192 82 23 00
        E 0 b2 0b 7f
        E 0 92 22 7f
        E 192 82 22 00
        E 0 b2 0b 7f
        E 0 92 23 7f
        E 192 82 23 00
        E 0 b2 0b 7f
        E 0 92 22 7f
        E 192 82 22 00
        E 0 b2 0b 7f
        E 0 92 23 7f
        E 192 82 23 00
        E 0 b2 0b 7f
        E 0 92 22 7f
        E 192 82 22 00
        E 0 b2 0b 7f
        E 0 92 23 7f
        E 192 82 23 00
        E 0 b2 0b 7f
        E 0 92 22 7f
        E 192 82 22 00
        E 0 b2 0b 7f
        E 0 92 23 7f
        E 192 82 23 00
        E 0 b2 0b 7f
        E 0 92 22 7f
        E 192 82 22 00
        E 0 b2 0b 7f
        E 0 92 23 7f
        E 192 82 23 00
        E 0 b2 0b 7f
        E 0 92 22 7f
        E 192 82 22 00
        E 0 b2 0b 7f
        E 0 92 23 7f
        E 192 82 23 00
        E 0 b2 0b 7f
        E 0 92 22 7f
        E 192 82 22 00
        E 0 b2 0b 7f
        E 0 92 23 7f
        E 192 82 23 00
        E 0 b2 0b 7f
        E 0 92 22 7f
        E 192 82 22 00
        E 0 b2 0b 7f
        E 0 92 23 7f
        E 192 82 23 00
        E 0 b2 0b 7f
        E 0 92 22 7f
        E 192 82 22 00
        E 0 b2 0b 7f
        E 0 92 23 7f
        E 192 82 23 00
        E 0 b2 0b 7f
        E 0 92 22 7f
        E 192 82 22 00
        E 0 b2 0b 7f
        E 0 92 23 7f
        E 192 82 23 00
        E 0 b2 0b 7f
        E 0 92 22 7f
        E 192 82 22 00
        E 0 b2 0b 7f
        E 0 92 23 7f
        E 192 82 23 00
        E 0 b2 0b 7f
        E 0 92 22 7f
        E 192 82 22 00
        E 0 b2 0b 7f
        E 0 92 23 7f
        E 192 82 23 00
        E 0 b2 0b 7f
        E 0 92 22 7f
        E 192 82 22 00
        E 0 b2 0b 7f
        E 0 92 23 7f
        E 192 82 23 00
        E 0 b2 0b 7f
        E 0 92 22 7f
        E 192 82 22 00
        E 0 b2 0b 7f
        E 0 92 23 7f
        E 192 82 23 00
        E 0 b2 0b 7f
        E 0 92 22 7f
        E 192 82 22 00
        E 0 b2 0b 7f
        E 0 92 23 7f
        E 192 82 23 00
        E 0 b2 0b 7f
        E 0 92 22 7f
        E 192 82 22 00
        E 0 b2 0b 7f
        E 0 92 23 7f
        E 192 82 23 00
        E 0 b2 0b 7f
        E 0 92 22 7f
        E 192 82 22 00
        E 0 b2 0b 7f
        E 0 92 23 7f
        E 192 82 23 00
        E 0 b2 0b 7f
        E 0 92 22 7f
        E 192 82 22 00
        E 0 b2 0b 7f
        E 0 92 23 7f
        E 192 82 23 00
        E 0 b2 0b 7f
        E 0 92 22 7f
        E 192 82 22 00
        E 0 b2 0b 7f
        E 0 92 23 7f
        E 192 82 23 00
        E 0 b2 0b 7f
        E 0 92 22 7f
        E 192 82 22 00
        E 0 b2 0b 7f
        E 0 92 23 7f
        E 192 82 23 00
        E 0 b2 0b 7f
        E 0 92 22 7f
        E 192 82 22 00
        E 0 b2 0b 7f
        E 0 92 23 7f
        E 192 82 23 00
        E 0 b2 0b 7f
        E 0 92 22 7f
        E 192 82 22 00
        E 0 b2 0b 7f
        E 0 92 23 7f
        E 192 82 23 00
        E 0 b2 0b 7f
        E 0 92 22 7f
        E 192 82 22 00
        E 0 b2 0b 7f
        E 0 92 23 7f
        E 192 82 23 00
        E 0 b2 0b 7f
        E 0 92 22 7f
        E 192 82 22 00
        E 0 b2 0b 7f
        E 0 92 23 7f
        E 192 82 23 00
        E 0 b2 0b 7f
        E 0 92 22 7f
        E 192 82 22 00
        E 0 b2 0b 7f
        E 0 92 23 7f
        E 192 82 23 00
        E 0 b2 0b 7f
        E 0 92 22 7f
        E 192 82 22 00
        E 0 b2 0b 7f
        E 0 92 23 7f
        E 192 82 23 00
        E 0 b2 0b 7f
        E 0 92 22 7f
        E 192 82 22 00
        E 0 b2 0b 7f
        E 0 92 23 7f
        E 192 82 23 00
        E 0 b2 0b 7f
        E 0 92 22 7f
        E 192 82 22 00
        E 0 b2 0b 7f
        E 0 92 23 7f
        E 192 82 23 00
        E 0 b2 0b 7f
        E 0 92 22 7f
        E 192 82 22 00
        E 0 b2 0b 7f
        E 0 92 23 7f
        E 192 82 23 00
        E 0 b2 0b 7f
        E 0 92 22 7f
        E 192 82 22 00
        E 0 b2 0b 7f
        E 0 92 23 7f
        E 192 82 23 00
        E 0 b2 0b 7f
        E 0 92 22 7f
        E 192 82 22 00
        E 0 b2 0b 7f
        E 0 92 23 7f
        E 192 82 23 00
        E 0 b2 0b 7f
        E 0 92 22 7f
        E 192 82 22 00
        E 0 b2 0b 7f
        E 0 92 23 7f
        E 192 82 23 00
        E 0 b2 0b 7f
        E 0 92 22 7f
        E 192 82 22 00
        E 0 b2 0b 7f
        E 0 92 23 7f
        E 192 82 23 00
        E 0 b2 0b 7f
        E 0 92 22 7f
        E 192 82 22 00
        E 0 b2 0b 7f
        E 0 92 23 7f
        E 192 82 23 00
        E 0 b2 0b 7f
        E 0 92 22 7f
        E 192 82 22 00
        E 0 b2 0b 7f
        E 0 92 23 7f
        E 192 82 23 00
        E 0 b2 0b 7f
        E 0 92 22 7f
        E 192 82 22 00
        E 0 b2 0b 7f
        E 0 92 23 7f
        E 192 82 23 00
        E 0 b2 0b 7f
        E 0 92 22 7f
        E 192 82 22 00
        E 0 b2 0b 7f
        E 0 92 23 7f
        E 192 82 23 00
        E 0 b2 0b 7f
        E 0 92 22 7f
        E 192 82 22 00
        E 0 b2 0b 7f
        E 0 92 23 7f
        E 192 82 23 00
        E 0 b2 0b 7f
        E 0 92 22 7f
        E 192 82 22 00
        E 0 b2 0b 7f
        E 0 92 23 7f
        E 192 82 23 00
        E 0 b2 0b 7f
        E 0 92 22 7f
        E 192 82 22 00
        E 0 b2 0b 7f
        E 0 92 23 7f
        E 192 82 23 00
        E 0 b2 0b 7f
        E 0 92 22 7f
        E 192 82 22 00
        E 0 b2 0b 7f
        E 0 92 23 7f
        E 192 82 23 00
        E 0 b2 0b 7f
        E 0 92 22 7f
        E 192 82 22 00
        E 0 b2 0b 7f
        E 0 92 23 7f
        E 192 82 23 00
        E 0 b2 0b 7f
        E 0 92 22 7f
        E 192 82 22 00
        E 0 b2 0b 7f
        E 0 92 23 7f
        E 192 82 23 00
        E 0 b2 0b 7f
        E 0 92 22 7f
        E 192 82 22 00
        E 0 b2 0b 7f
        E 0 92 23 7f
        E 192 82 23 00
        E 0 b2 0b 7f
        E 0 92 22 7f
        E 192 82 22 00
        E 0 b2 0b 7f
        E 0 92 23 7f
        E 192 82 23 00
        E 0 b2 0b 7f
        E 0 92 22 7f
        E 192 82 22 00
        E 0 b2 0b 7f
        E 0 92 23 7f
        E 192 82 23 00
        E 0 b2 0b 7f
        E 0 92 22 7f
        E 192 82 22 00
        E 0 b2 0b 7f
        E 0 92 23 7f
        E 192 82 23 00
        E 0 b2 0b 7f
        E 0 92 22 7f
        E 192 82 22 00
        E 0 b2 0b 7f
        E 0 92 23 7f
        E 192 82 23 00
        E 0 b2 0b 7f
        E 0 92 22 7f
        E 192 82 22 00
        E 0 b2 0b 7f
        E 0 92 23 7f
        E 192 82 23 00
        E 0 b2 0b 7f
        E 0 92 22 7f
        E 192 82 22 00
        E 0 b2 0b 7f
        E 0 92 23 7f
        E 192 82 23 00
        E 0 b2 0b 7f
        E 0 92 22 7f
        E 192 82 22 00
        E 0 b2 0b 7f
        E 0 92 23 7f
        E 192 82 23 00
        E 0 b2 0b 7f
        E 0 92 22 7f
        E 192 82 22 00
        E 0 b2 0b 7f
        E 0 92 23 7f
        E 192 82 23 00
        E 0 b2 0b 7f
        E 0 92 22 7f
        E 192 82 22 00
        E 0 b2 0b 7f
        E 0 92 23 7f
        E 192 82 23 00
        E 0 b2 0b 7f
        E 0 92 22 7f
        E 192 82 22 00
        E 0 b2 0b 7f
        E 0 92 23 7f
        E 192 82 23 00
        E 0 b2 0b 7f
        E 0 92 22 7f
        E 192 82 22 00
        E 0 b2 0b 7f
        E 0 92 23 7f
        E 192 82 23 00
        E 0 b2 0b 7f
        E 0 92 22 7f
        E 192 82 22 00
        E 0 b2 0b 7f
        E 0 92 23 7f
        E 192 82 23 00
        E 0 b2 0b 7f
        E 0 92 22 7f
        E 192 82 22 00
        E 0 b2 0b 7f
        E 0 92 23 7f
        E 192 82 23 00
        E 0 b2 0b 7f
        E 0 92 22 7f
        E 192 82 22 00
        E 0 b2 0b 7f
        E 0 92 23 7f
        E 192 82 23 00
        E 0 b2 0b 7f
        E 0 92 22 7f
        E 192 82 22 00
        E 0 b2 0b 7f
        E 0 92 23 7f
        E 192 82 23 00
        E 0 b2 0b 7f
        E 0 92 22 7f
        E 192 82 22 00
        E 0 b2 0b 7f
        E 0 92 23 7f
        E 192 82 23 00
        E 0 b2 0b 7f
        E 0 92 22 7f
        E 192 82 22 00
        E 0 b2 0b 7f
        E 0 92 23 7f
        E 192 82 23 00
        E 0 b2 0b 7f
        E 0 92 22 7f
        E 192 82 22 00
        E 0 b2 0b 7f
        E 0 92 23 7f
        E 192 82 23 00
        E 0 b2 0b 7f
        E 0 92 22 7f
        E 192 82 22 00
        E 0 b2 0b 7f
        E 0 92 23 7f
        E 192 82 23 00
        E 0 b2 0b 7f
        E 0 92 22 7f
        E 192 82 22 00
        E 0 b2 0b 7f
        E 0 92 23 7f
        E 192 82 23 00
        E 0 b2 0b 7f
        E 0 92 22 7f
        E 192 82 22 00
        E 0 b2 0b 7f
        E 0 92 23 7f
        E 192 82 23 00
        E 0 b2 0b 7f
        E 0 92 22 7f
        E 192 82 22 00
        E 0 b2 0b 7f
        E 0 92 23 7f
        E 192 82 23 00
        E 0 b2 0b 7f
        E 0 92 22 7f
        E 192 82 22 00
        E 0 b2 0b 7f
        E 0 92 23 7f
        E 192 82 23 00
        E 0 b2 0b 7f
        E 0 92 22 7f
        E 192 82 22 00
        E 0 b2 0b 7f
        E 0 92 23 7f
        E 192 82 23 00
        E 0 b2 0b 7f
        E 0 92 22 7f
        E 192 82 22 00
        E 0 b2 0b 7f
        E 0 92 23 7f
        E 192 82 23 00
        E 0 b2 0b 7f
        E 0 92 22 7f
        E 192 82 22 00
        E 0 b2 0b 7f
        E 0 92 23 7f
        E 192 82 23 00
        E 0 b2 0b 7f
        E 0 92 22 7f
        E 192 82 22 00
        E 0 b2 0b 7f
        E 0 92 23 7f
        E 192 82 23 00
        E 0 b2 0b 7f
        E 0 92 22 7f
        E 192 82 22 00
        E 0 b2 0b 7f
        E 0 92 23 7f
        E 192 82 23 00
        E 0 b2 0b 7f
        E 0 92 22 7f
        E 192 82 22 00
        E 0 b2 0b 7f
        E 0 92 23 7f
        E 192 82 23 00
        E 0 b2 0b 7f
        E 0 92 22 7f
        E 192 82 22 00
        E 0 b2 0b 7f
        E 0 92 23 7f
        E 192 82 23 00
        E 0 b2 0b 7f
        E 0 92 22 7f
        E 192 82 22 00
        E 0 b2 0b 7f
        E 0 92 23 7f
        E 192 82 23 00
        E 0 b2 0b 7f
        E 0 92 22 7f
        E 192 82 22 00
        E 0 b2 0b 7f
        E 0 92 23 7f
        E 192 82 23 00
        E 0 b2 0b 7f
        E 0 92 22 7f
        E 192 82 22 00
        E 0 b2 0b 7f
        E 0 92 23 7f
        E 192 82 23 00
        E 0 b2 0b 7f
        E 0 92 22 7f
        E 192 82 22 00
        E 0 b2 0b 7f
        E 0 92 23 7f
        E 192 82 23 00
        E 0 b2 0b 7f
        E 0 92 22 7f
        E 192 82 22 00
        E 0 b2 0b 7f
        E 0 92 23 7f
        E 192 82 23 00
        E 0 b2 0b 7f
        E 0 92 22 7f
        E 192 82 22 00
        E 0 b2 0b 7f
        E 0 92 23 7f
        E 192 82 23 00
        E 0 b2 0b 7f
        E 0 92 22 7f
        E 192 82 22 00
        E 0 b2 0b 7f
        E 0 92 23 7f
        E 192 82 23 00
        E 0 b2 0b 7f
        E 0 92 22 7f
        E 192 82 22 00
        E 0 b2 0b 7f
        E 0 92 23 7f
        E 192 82 23 00
        E 0 b2 0b 7f
        E 0 92 22 7f
        E 192 82 22 00
        E 0 b2 0b 7f
        E 0 92 23 7f
        E 192 82 23 00
        E 0 b2 0b 7f
        E 0 92 22 7f
        E 192 82 22 00
        E 0 b2 0b 7f
        E 0 92 23 7f
        E 192 82 23 00
        E 0 b2 0b 7f
        E 0 92 22 7f
        E 192 82 22 00
        E 0 b2 0b 7f
        E 0 92 23 7f
        E 192 82 23 00
        E 0 b2 0b 7f
        E 0 92 22 7f
        E 192 82 22 00
        E 0 b2 0b 7f
        E 0 92 23 7f
        E 192 82 23 00
        E 0 b2 0b 7f
        E 0 92 22 7f
        E 192 82 22 00
        E 0 b2 0b 7f
        E 0 92 23 7f
        E 192 82 23 00
        E 0 b2 0b 7f
        E 0 92 22 7f
        E 192 82 22 00
        E 0 b2 0b 7f
        E 0 92 23 7f
        E 192 82 23 00
        E 0 b2 0b 7f
        E 0 92 22 7f
        E 192 82 22 00
        E 0 b2 0b 7f
        E 0 92 23 7f
        E 192 82 23 00
        E 0 b2 0b 7f
        E 0 92 22 7f
        E 192 82 22 00
        E 0 b2 0b 7f
        E 0 92 23 7f
        E 192 82 23 00
        E 0 b2 0b 7f
        E 0 92 22 7f
        E 192 82 22 00
        E 0 b2 0b 7f
        E 0 92 23 7f
        E 192 82 23 00
        E 0 b2 0b 7f
        E 0 92 22 7f
        E 192 82 22 00
        E 0 b2 0b 7f
        E 0 92 23 7f
        E 192 82 23 00
        E 0 b2 0b 7f
        E 0 92 22 7f
        E 192 82 22 00
        E 0 b2 0b 7f
        E 0 92 23 7f
        E 192 82 23 00
        E 0 b2 0b 7f
        E 0 92 22 7f
        E 192 82 22 00
        E 0 b2 0b 7f
        E 0 92 23 7f
        E 192 82 23 00
        E 0 b2 0b 7f
        E 0 92 22 7f
        E 192 82 22 00
        E 0 b2 0b 7f
        E 0 92 23 7f
        E 192 82 23 00
        E 0 b2 0b 7f
        E 0 92 22 7f
        E 192 82 22 00
        E 0 b2 0b 7f
        E 0 92 23 7f
        E 192 82 23 00
        E 0 b2 0b 7f
        E 0 92 22 7f
        E 192 82 22 00
        E 0 b2 0b 7f
        E 0 92 23 7f
        E 192 82 23 00
        E 0 b2 0b 7f
        E 0 92 22 7f
        E 192 82 22 00
        E 0 b2 0b 7f
        E 0 92 23 7f
        E 192 82 23 00
        E 0 b2 0b 7f
        E 0 92 22 7f
        E 192 82 22 00
        E 0 b2 0b 7f
        E 0 92 23 7f
        E 192 82 23 00
        E 0 b2 0b 7f
        E 0 92 22 7f
        E 192 82 22 00
        E 0 b2 0b 7f
        E 0 92 23 7f
        E 192 82 23 00
        E 0 b2 0b 7f
        E 0 92 22 7f
        E 192 82 22 00
        E 0 b2 0b 7f
        E 0 92 23 7f
        E 192 82 23 00
        E 0 b2 0b 7f
        E 0 92 22 7f
        E 192 82 22 00
        E 0 b2 0b 7f
        E 0 92 23 7f
        E 192 82 23 00
        E 0 b2 0b 7f
        E 0 92 22 7f
        E 192 82 22 00
        E 0 b2 0b 7f
        E 0 92 23 7f
        E 192 82 23 00
        E 0 b2 0b 7f
        E 0 92 22 7f
        E 192 82 22 00
        E 0 b2 0b 7f
        E 0 92 23 7f
        E 192 82 23 00
        E 0 b2 0b 7f
        E 0 92 22 7f
        E 192 82 22 00
        E 0 b2 0b 7f
        E 0 92 23 7f
        E 192 82 23 00
        E 0 b2 0b 7f
        E 0 92 22 7f
        E 192 82 22 00
        E 0 b2 0b 7f
        E 0 92 23 7f
        E 192 82 23 00
        E 0 b2 0b 7f
        E 0 92 22 7f
        E 192 82 22 00
        E 0 b2 0b 7f
        E 0 92 23 7f
        E 192 82 23 00
        E 0 b2 0b 7f
        E 0 92 22 7f
        E 192 82 22 00
        E 0 b2 0b 7f
        E 0 92 23 7f
        E 192 82 23 00
        E 0 b2 0b 7f
        E 0 92 22 7f
        E 192 82 22 00
        E 0 b2 0b 7f
        E 0 92 23 7f
        E 192 82 23 00
        E 0 b2 0b 7f
        E 0 92 22 7f
        E 192 82 22 00
        E 0 b2 0b 7f
        E 0 92 23 7f
        E 192 82 23 00
        E 0 b2 0b 7f
        E 0 92 22 7f
        E 192 82 22 00
        E 0 b2 0b 7f
        E 0 92 23 7f
        E 192 82 23 00
        E 0 ff 2f 00
      >
    >
  >
  <TRACK {AE725C14-967C-4952-B824-DEA96465F660}
    NAME "NES - Noise / Drums"
    PEAKCOL 11184810
    BEAT -1
    AUTOMODE 0
    PANLAWFLAGS 3
    VOLPAN 1 0 -1 -1 1
    MUTESOLO 0 0 0
    IPHASE 0
    PLAYOFFS 0 1
    ISBUS 0 0
    BUSCOMP 0 0 0 0 0
    SHOWINMIX 1 0.6667 0.5 1 0.5 0 0 0
    FIXEDLANES 9 0 0 0 0
    SEL 0
    REC 0 5088 1 0 0 0 0 0
    VU 2
    TRACKHEIGHT 0 0 0 0 0 0 0
    INQ 0 0 0 0.5 100 0 0 100
    NCHAN 2
    FX 1
    TRACKID {AE725C14-967C-4952-B824-DEA96465F660}
    PERF 0
    MIDIOUT -1
    MAINSEND 1 0
    <FXCHAIN
      WNDRECT 24 52 700 560
      SHOW 0
      LASTSEL 0
      DOCKED 0
      BYPASS 0 0 0
      <JS "ReapNES Studio/ReapNES_Console.jsfx" ""
        2 15 1 10 80 10 100 2 1 15 1 5 60 10 80 1 1 0 50 0 0 15 1 0 100 0 0 0.500000 0.500000 0.400000 0.300000 0.800000 3 1 0 0 0 0 - - - - - - - - - - - - - - - - - - - - - - - - - -
      >
      FLOATPOS 0 0 0 0
      FXID {85074986-A9AD-45FD-ADC9-36533DF26BFB}
      WAK 0 0
    >
  >
>