<REAPER_PROJECT 0.1 "7.27/win64" 1707000000
  <NOTES 0 2
    |ReapNES Studio Project
    |MIDI Import - Wizards_&_Warriors_08_Outside_Castle_Ironspire_v1
  >
  RIPPLE 0
  GROUPOVERRIDE 0 0 0
  AUTOXFADE 129
  ENVATTACH 3
  POOLEDENVATTACH 0
  MIXERUIFLAGS 11 48
  ENVFADESZ10 40
  PEAKGAIN 1
  FEEDBACK 0
  PANLAW 1
  PROJOFFS 0 0 0
  MAXPROJLEN 0 0
  GRID 3199 8 1 8 1 0 0 0
  TIMEMODE 1 5 -1 30 0 0 -1
  VIDEO_CONFIG 0 0 65792
  PANMODE 3
  PANLAWFLAGS 3
  CURSOR 0
  ZOOM 100 0 0
  VZOOMEX 6 0
  USE_REC_CFG 0
  RECMODE 1
  SMPTESYNC 0 30 100 40 1000 300 0 0 1 0 0
  LOOP 0
  LOOPGRAN 0 4
  RECORD_PATH "Media" ""
  <RECORD_CFG
    ZXZhdxgAAQ==
  >
  <APPLYFX_CFG
  >
  RENDER_FILE ""
  RENDER_PATTERN ""
  RENDER_FMT 0 2 0
  RENDER_1X 0
  RENDER_RANGE 1 0 0 18 1000
  RENDER_RESAMPLE 3 0 1
  RENDER_ADDTOPROJ 0
  RENDER_STEMS 0
  RENDER_DITHER 0
  TIMELOCKMODE 1
  TEMPOENVLOCKMODE 1
  ITEMMIX 1
  DEFPITCHMODE 589824 0
  TAKELANE 1
  SAMPLERATE 44100 0 0
  <RENDER_CFG
    ZXZhdxgAAQ==
  >
  LOCK 1
  <METRONOME 6 2
    VOL 0.25 0.125
    BEATLEN 4
    FREQ 1760 880 1
    SAMPLES "" ""
    SPLIGNORE 0 0
    SPLDEF 2 660 "" 0
    SPLDEF 3 440 "" 0
    PATTERN 0 169
    PATTERNSTR ABBB
    MULT 1
  >
  GLOBAL_AUTO -1
  TEMPO 128.59999614200012 4 4
  PLAYRATE 1 0 0.25 4
  SELECTION 0 0
  SELECTION2 0 0
  MASTERAUTOMODE 0
  MASTERTRACKHEIGHT 0 0
  MASTERPEAKCOL 16576
  MASTERMUTESOLO 0
  MASTERTRACKVIEW 0 0.6667 0.5 0.5 0 0 0 0 0 0 0 0 0 0
  MASTERHWOUT 0 0 1 0 0 0 0 -1
  MASTER_NCH 2 2
  MASTER_VOLUME 1 0 -1 -1 1
  MASTER_PANMODE 3
  MASTER_PANLAWFLAGS 3
  MASTER_FX 1
  MASTER_SEL 0
  <MASTERPLAYSPEEDENV
    EGUID {260BEE7F-1B1A-4E2C-9560-117D1012144C}
    ACT 0 -1
    VIS 0 1 1
    LANEHEIGHT 0 0
    ARM 0
    DEFSHAPE 0 -1 -1
  >
  <TEMPOENVEX
    EGUID {986ECFF0-94B6-4ECB-B7E3-BA39FA75C65E}
    ACT 1 -1
    VIS 1 0 1
    LANEHEIGHT 0 0
    ARM 0
    DEFSHAPE 1 -1 -1
  >
  <PROJBAY
  >
  <TRACK {46B7AD43-3BD9-4648-810E-3E973CEE373F}
    NAME "NES - Pulse 1 [ch0]"
    PEAKCOL 16576606
    BEAT -1
    AUTOMODE 0
    PANLAWFLAGS 3
    VOLPAN 1 0 -1 -1 1
    MUTESOLO 0 0 0
    IPHASE 0
    PLAYOFFS 0 1
    ISBUS 0 0
    BUSCOMP 0 0 0 0 0
    SHOWINMIX 1 0.6667 0.5 1 0.5 0 0 0
    FIXEDLANES 9 0 0 0 0
    SEL 1
    REC 1 5088 1 0 0 0 0 0
    VU 2
    TRACKHEIGHT 0 0 0 0 0 0 0
    INQ 0 0 0 0.5 100 0 0 100
    NCHAN 2
    FX 1
    TRACKID {46B7AD43-3BD9-4648-810E-3E973CEE373F}
    PERF 0
    MIDIOUT -1
    MAINSEND 1 0
    <FXCHAIN
      WNDRECT 24 52 700 560
      SHOW 0
      LASTSEL 0
      DOCKED 0
      BYPASS 0 0 0
      <JS "ReapNES Studio/ReapNES_Console.jsfx" ""
        2 15 1 10 80 10 100 2 1 15 1 5 60 10 80 1 1 0 50 0 0 15 1 0 100 0 0 0.500000 0.500000 0.400000 0.300000 0.800000 0 1 0 0 0 0 - - - - - - - - - - - - - - - - - - - - - - - - - -
      >
      FLOATPOS 0 0 0 0
      FXID {B989557E-0531-492C-9C36-C5302D150735}
      WAK 0 0
    >
    <ITEM
      POSITION 0
      LENGTH 83.98134
      LOOP 0
      ALLTAKES 0
      FADEIN 0 0 0 0 0 0 0
      FADEOUT 0 0 0 0 0 0 0
      MUTE 0 0
      SEL 0
      IGUID {1683DD58-30FF-44F8-A16F-5957B118E490}
      <SOURCE MIDI
        HASDATA 1 480 QN
        CCINTERP 32
        E 0 c0 50
        E 0 b0 0c 40
        E 0 b0 0b 18
        E 0 90 35 18
        E 288 80 35 00
        E 0 90 38 18
        E 144 80 38 00
        E 0 90 3a 18
        E 144 80 3a 00
        E 0 90 3c 18
        E 288 80 3c 00
        E 0 90 3a 18
        E 288 80 3a 00
        E 0 90 37 18
        E 288 80 37 00
        E 0 90 33 18
        E 288 80 33 00
        E 0 90 30 18
        E 288 80 30 00
        E 0 90 37 18
        E 144 80 37 00
        E 0 90 35 18
        E 144 80 35 00
        E 0 90 37 18
        E 576 80 37 00
        E 0 90 38 18
        E 288 80 38 00
        E 0 90 35 18
        E 576 80 35 00
        E 0 90 38 18
        E 144 80 38 00
        E 0 90 3a 18
        E 144 80 3a 00
        E 0 90 3c 18
        E 288 80 3c 00
        E 0 90 3a 18
        E 288 80 3a 00
        E 0 90 37 18
        E 288 80 37 00
        E 0 90 33 18
        E 288 80 33 00
        E 0 90 30 18
        E 288 80 30 00
        E 0 90 37 18
        E 144 80 37 00
        E 0 90 35 18
        E 144 80 35 00
        E 0 90 37 18
        E 576 80 37 00
        E 0 90 38 18
        E 288 80 38 00
        E 0 90 35 18
        E 576 80 35 00
        E 0 90 38 18
        E 144 80 38 00
        E 0 90 3a 18
        E 144 80 3a 00
        E 0 90 3c 18
        E 288 80 3c 00
        E 0 90 3a 18
        E 288 80 3a 00
        E 0 90 37 18
        E 288 80 37 00
        E 0 90 33 18
        E 288 80 33 00
        E 0 90 30 18
        E 288 80 30 00
        E 0 90 37 18
        E 144 80 37 00
        E 0 90 35 18
        E 144 80 35 00
        E 0 90 37 18
        E 576 80 37 00
        E 0 90 38 18
        E 288 80 38 00
        E 0 90 35 18
        E 288 80 35 00
        E 0 90 3c 18
        E 432 80 3c 00
        E 0 90 3a 18
        E 144 80 3a 00
        E 0 90 38 18
        E 288 80 38 00
        E 0 90 3a 18
        E 288 80 3a 00
        E 0 90 37 18
        E 288 80 37 00
        E 0 90 33 18
        E 288 80 33 00
        E 0 90 30 18
        E 288 80 30 00
        E 0 90 37 18
        E 144 80 37 00
        E 0 90 35 18
        E 144 80 35 00
        E 0 90 37 18
        E 576 80 37 00
        E 0 90 38 18
        E 288 80 38 00
        E 0 90 35 18
        E 576 80 35 00
        E 0 90 38 18
        E 144 80 38 00
        E 0 90 3a 18
        E 144 80 3a 00
        E 0 90 3c 18
        E 288 80 3c 00
        E 0 90 3a 18
        E 288 80 3a 00
        E 0 90 37 18
        E 288 80 37 00
        E 0 90 33 18
        E 288 80 33 00
        E 0 90 30 18
        E 288 80 30 00
        E 0 90 37 18
        E 144 80 37 00
        E 0 90 35 18
        E 144 80 35 00
        E 0 90 37 18
        E 576 80 37 00
        E 0 90 38 18
        E 288 80 38 00
        E 0 90 35 18
        E 576 80 35 00
        E 0 90 38 18
        E 144 80 38 00
        E 0 90 3a 18
        E 144 80 3a 00
        E 0 90 3c 18
        E 288 80 3c 00
        E 0 90 3a 18
        E 288 80 3a 00
        E 0 90 37 18
        E 288 80 37 00
        E 0 90 33 18
        E 288 80 33 00
        E 0 90 30 18
        E 288 80 30 00
        E 0 90 37 18
        E 144 80 37 00
        E 0 90 35 18
        E 144 80 35 00
        E 0 90 37 18
        E 576 80 37 00
        E 0 90 38 18
        E 288 80 38 00
        E 0 90 35 18
        E 576 80 35 00
        E 0 90 38 18
        E 144 80 38 00
        E 0 90 3a 18
        E 144 80 3a 00
        E 0 90 3c 18
        E 288 80 3c 00
        E 0 90 3a 18
        E 288 80 3a 00
        E 0 90 37 18
        E 288 80 37 00
        E 0 90 33 18
        E 288 80 33 00
        E 0 90 30 18
        E 288 80 30 00
        E 0 90 37 18
        E 144 80 37 00
        E 0 90 35 18
        E 144 80 35 00
        E 0 90 37 18
        E 576 80 37 00
        E 0 90 38 18
        E 288 80 38 00
        E 0 90 35 18
        E 576 80 35 00
        E 0 90 38 18
        E 144 80 38 00
        E 0 90 3a 18
        E 144 80 3a 00
        E 0 90 3c 18
        E 288 80 3c 00
        E 0 90 3a 18
        E 288 80 3a 00
        E 0 90 37 18
        E 288 80 37 00
        E 0 90 33 18
        E 288 80 33 00
        E 0 90 30 18
        E 288 80 30 00
        E 0 90 37 18
        E 144 80 37 00
        E 0 90 35 18
        E 144 80 35 00
        E 0 90 37 18
        E 576 80 37 00
        E 0 90 38 18
        E 288 80 38 00
        E 0 90 35 18
        E 288 80 35 00
        E 0 90 3c 18
        E 432 80 3c 00
        E 0 90 3a 18
        E 144 80 3a 00
        E 0 90 38 18
        E 288 80 38 00
        E 0 90 3a 18
        E 288 80 3a 00
        E 0 90 37 18
        E 288 80 37 00
        E 0 90 33 18
        E 288 80 33 00
        E 0 90 30 18
        E 288 80 30 00
        E 0 90 37 18
        E 144 80 37 00
        E 0 90 35 18
        E 144 80 35 00
        E 0 90 37 18
        E 576 80 37 00
        E 0 90 38 18
        E 288 80 38 00
        E 0 90 35 18
        E 576 80 35 00
        E 0 90 38 18
        E 144 80 38 00
        E 0 90 3a 18
        E 144 80 3a 00
        E 0 90 3c 18
        E 288 80 3c 00
        E 0 90 3a 18
        E 288 80 3a 00
        E 0 90 37 18
        E 288 80 37 00
        E 0 90 33 18
        E 288 80 33 00
        E 0 90 30 18
        E 288 80 30 00
        E 0 90 37 18
        E 144 80 37 00
        E 0 90 35 18
        E 144 80 35 00
        E 0 90 37 18
        E 576 80 37 00
        E 0 90 38 18
        E 288 80 38 00
        E 0 90 35 18
        E 576 80 35 00
        E 0 90 38 18
        E 144 80 38 00
        E 0 90 3a 18
        E 144 80 3a 00
        E 0 90 3c 18
        E 288 80 3c 00
        E 0 90 3a 18
        E 288 80 3a 00
        E 0 90 37 18
        E 288 80 37 00
        E 0 90 33 18
        E 288 80 33 00
        E 0 90 30 18
        E 288 80 30 00
        E 0 90 37 18
        E 144 80 37 00
        E 0 90 35 18
        E 144 80 35 00
        E 0 90 37 18
        E 576 80 37 00
        E 0 90 38 18
        E 288 80 38 00
        E 0 90 35 18
        E 576 80 35 00
        E 0 90 38 18
        E 144 80 38 00
        E 0 90 3a 18
        E 144 80 3a 00
        E 0 90 3c 18
        E 288 80 3c 00
        E 0 90 3a 18
        E 288 80 3a 00
        E 0 90 37 18
        E 288 80 37 00
        E 0 90 33 18
        E 288 80 33 00
        E 0 90 30 18
        E 288 80 30 00
        E 0 90 37 18
        E 144 80 37 00
        E 0 90 35 18
        E 144 80 35 00
        E 0 90 37 18
        E 576 80 37 00
        E 0 90 38 18
        E 288 80 38 00
        E 0 90 35 18
        E 576 80 35 00
        E 0 90 38 18
        E 144 80 38 00
        E 0 90 3a 18
        E 144 80 3a 00
        E 0 90 3c 18
        E 288 80 3c 00
        E 0 90 3a 18
        E 288 80 3a 00
        E 0 90 37 18
        E 288 80 37 00
        E 0 90 33 18
        E 288 80 33 00
        E 0 90 30 18
        E 288 80 30 00
        E 0 90 37 18
        E 144 80 37 00
        E 0 90 35 18
        E 144 80 35 00
        E 0 90 37 18
        E 576 80 37 00
        E 0 90 38 18
        E 288 80 38 00
        E 0 90 35 18
        E 288 80 35 00
        E 0 90 3c 18
        E 432 80 3c 00
        E 0 90 3a 18
        E 144 80 3a 00
        E 0 90 38 18
        E 288 80 38 00
        E 0 90 3a 18
        E 288 80 3a 00
        E 0 90 37 18
        E 288 80 37 00
        E 0 90 33 18
        E 288 80 33 00
        E 0 90 30 18
        E 288 80 30 00
        E 0 90 37 18
        E 144 80 37 00
        E 0 90 35 18
        E 144 80 35 00
        E 0 90 37 18
        E 576 80 37 00
        E 0 90 38 18
        E 288 80 38 00
        E 0 90 35 18
        E 576 80 35 00
        E 0 90 38 18
        E 144 80 38 00
        E 0 90 3a 18
        E 144 80 3a 00
        E 0 90 3c 18
        E 288 80 3c 00
        E 0 90 3a 18
        E 288 80 3a 00
        E 0 90 37 18
        E 288 80 37 00
        E 0 90 33 18
        E 288 80 33 00
        E 0 90 30 18
        E 288 80 30 00
        E 0 90 37 18
        E 144 80 37 00
        E 0 90 35 18
        E 144 80 35 00
        E 0 90 37 18
        E 576 80 37 00
        E 0 90 38 18
        E 288 80 38 00
        E 0 90 35 18
        E 576 80 35 00
        E 0 90 38 18
        E 144 80 38 00
        E 0 90 3a 18
        E 144 80 3a 00
        E 0 90 3c 18
        E 288 80 3c 00
        E 0 90 3a 18
        E 288 80 3a 00
        E 0 90 37 18
        E 288 80 37 00
        E 0 90 33 18
        E 288 80 33 00
        E 0 90 30 18
        E 288 80 30 00
        E 0 90 37 18
        E 144 80 37 00
        E 0 90 35 18
        E 144 80 35 00
        E 0 90 37 18
        E 576 80 37 00
        E 0 90 38 18
        E 288 80 38 00
        E 0 90 35 18
        E 576 80 35 00
        E 0 90 38 18
        E 144 80 38 00
        E 0 90 3a 18
        E 144 80 3a 00
        E 0 90 3c 18
        E 288 80 3c 00
        E 0 90 3a 18
        E 288 80 3a 00
        E 0 90 37 18
        E 288 80 37 00
        E 0 90 33 18
        E 288 80 33 00
        E 0 90 30 18
        E 288 80 30 00
        E 0 90 37 18
        E 144 80 37 00
        E 0 90 35 18
        E 144 80 35 00
        E 0 90 37 18
        E 576 80 37 00
        E 0 90 38 18
        E 288 80 38 00
        E 0 90 35 18
        E 576 80 35 00
        E 0 90 38 18
        E 144 80 38 00
        E 0 90 3a 18
        E 144 80 3a 00
        E 0 90 3c 18
        E 288 80 3c 00
        E 0 90 3a 18
        E 288 80 3a 00
        E 0 90 37 18
        E 288 80 37 00
        E 0 90 33 18
        E 288 80 33 00
        E 0 90 30 18
        E 288 80 30 00
        E 0 90 37 18
        E 144 80 37 00
        E 0 90 35 18
        E 144 80 35 00
        E 0 90 37 18
        E 576 80 37 00
        E 0 90 38 18
        E 288 80 38 00
        E 0 90 35 18
        E 288 80 35 00
        E 0 90 3c 18
        E 432 80 3c 00
        E 0 90 3a 18
        E 144 80 3a 00
        E 0 90 38 18
        E 288 80 38 00
        E 0 90 3a 18
        E 288 80 3a 00
        E 0 90 37 18
        E 288 80 37 00
        E 0 90 33 18
        E 288 80 33 00
        E 0 90 30 18
        E 288 80 30 00
        E 0 90 37 18
        E 144 80 37 00
        E 0 90 35 18
        E 144 80 35 00
        E 0 90 37 18
        E 576 80 37 00
        E 0 90 38 18
        E 288 80 38 00
        E 0 90 35 18
        E 576 80 35 00
        E 0 90 38 18
        E 144 80 38 00
        E 0 90 3a 18
        E 144 80 3a 00
        E 0 90 3c 18
        E 288 80 3c 00
        E 0 90 3a 18
        E 288 80 3a 00
        E 0 90 37 18
        E 288 80 37 00
        E 0 90 33 18
        E 288 80 33 00
        E 0 90 30 18
        E 288 80 30 00
        E 0 90 37 18
        E 144 80 37 00
        E 0 90 35 18
        E 144 80 35 00
        E 0 90 37 18
        E 576 80 37 00
        E 0 90 38 18
        E 288 80 38 00
        E 0 90 35 18
        E 576 80 35 00
        E 0 90 38 18
        E 144 80 38 00
        E 0 90 3a 18
        E 144 80 3a 00
        E 0 90 3c 18
        E 288 80 3c 00
        E 0 90 3a 18
        E 288 80 3a 00
        E 0 90 37 18
        E 288 80 37 00
        E 0 90 33 18
        E 288 80 33 00
        E 0 90 30 18
        E 288 80 30 00
        E 0 90 37 18
        E 144 80 37 00
        E 0 90 35 18
        E 144 80 35 00
        E 0 90 37 18
        E 576 80 37 00
        E 0 90 38 18
        E 288 80 38 00
        E 0 90 35 18
        E 576 80 35 00
        E 0 90 38 18
        E 144 80 38 00
        E 0 90 3a 18
        E 144 80 3a 00
        E 0 90 3c 18
        E 288 80 3c 00
        E 0 90 3a 18
        E 288 80 3a 00
        E 0 90 37 18
        E 288 80 37 00
        E 0 90 33 18
        E 288 80 33 00
        E 0 90 30 18
        E 288 80 30 00
        E 0 90 37 18
        E 144 80 37 00
        E 0 90 35 18
        E 144 80 35 00
        E 0 90 37 18
        E 576 80 37 00
        E 0 90 38 18
        E 288 80 38 00
        E 0 90 35 18
        E 576 80 35 00
        E 0 90 38 18
        E 144 80 38 00
        E 0 90 3a 18
        E 144 80 3a 00
        E 0 90 3c 18
        E 288 80 3c 00
        E 0 90 3a 18
        E 288 80 3a 00
        E 0 90 37 18
        E 288 80 37 00
        E 0 90 33 18
        E 288 80 33 00
        E 0 90 30 18
        E 288 80 30 00
        E 0 90 37 18
        E 144 80 37 00
        E 0 90 35 18
        E 144 80 35 00
        E 0 90 37 18
        E 576 80 37 00
        E 0 90 38 18
        E 288 80 38 00
        E 0 90 35 18
        E 288 80 35 00
        E 0 90 3c 18
        E 432 80 3c 00
        E 0 90 3a 18
        E 144 80 3a 00
        E 0 90 38 18
        E 288 80 38 00
        E 0 90 3a 18
        E 288 80 3a 00
        E 0 90 37 18
        E 288 80 37 00
        E 0 90 33 18
        E 288 80 33 00
        E 0 90 30 18
        E 288 80 30 00
        E 0 90 37 18
        E 144 80 37 00
        E 0 90 35 18
        E 144 80 35 00
        E 0 90 37 18
        E 576 80 37 00
        E 0 90 38 18
        E 288 80 38 00
        E 0 90 35 18
        E 576 80 35 00
        E 0 90 38 18
        E 144 80 38 00
        E 0 90 3a 18
        E 144 80 3a 00
        E 0 90 3c 18
        E 288 80 3c 00
        E 0 90 3a 18
        E 288 80 3a 00
        E 0 90 37 18
        E 288 80 37 00
        E 0 90 33 18
        E 288 80 33 00
        E 0 90 30 18
        E 288 80 30 00
        E 0 90 37 18
        E 144 80 37 00
        E 0 90 35 18
        E 144 80 35 00
        E 0 90 37 18
        E 576 80 37 00
        E 0 90 38 18
        E 288 80 38 00
        E 0 90 35 18
        E 288 80 35 00
        E 0 ff 2f 00
      >
    >
  >
  <TRACK {8BB75952-71BD-4E0C-97CA-AA1C8B69C3F0}
    NAME "NES - Pulse 2 [ch1]"
    PEAKCOL 10092441
    BEAT -1
    AUTOMODE 0
    PANLAWFLAGS 3
    VOLPAN 1 0 -1 -1 1
    MUTESOLO 0 0 0
    IPHASE 0
    PLAYOFFS 0 1
    ISBUS 0 0
    BUSCOMP 0 0 0 0 0
    SHOWINMIX 1 0.6667 0.5 1 0.5 0 0 0
    FIXEDLANES 9 0 0 0 0
    SEL 0
    REC 0 5088 1 0 0 0 0 0
    VU 2
    TRACKHEIGHT 0 0 0 0 0 0 0
    INQ 0 0 0 0.5 100 0 0 100
    NCHAN 2
    FX 1
    TRACKID {8BB75952-71BD-4E0C-97CA-AA1C8B69C3F0}
    PERF 0
    MIDIOUT -1
    MAINSEND 1 0
    <FXCHAIN
      WNDRECT 24 52 700 560
      SHOW 0
      LASTSEL 0
      DOCKED 0
      BYPASS 0 0 0
      <JS "ReapNES Studio/ReapNES_Console.jsfx" ""
        2 15 1 10 80 10 100 2 1 15 1 5 60 10 80 1 1 0 50 0 0 15 1 0 100 0 0 0.500000 0.500000 0.400000 0.300000 0.800000 1 1 0 0 0 0 - - - - - - - - - - - - - - - - - - - - - - - - - -
      >
      FLOATPOS 0 0 0 0
      FXID {FE748D2E-8CAD-4C1E-9C34-A27F1901C92E}
      WAK 0 0
    >
    <ITEM
      POSITION 0
      LENGTH 83.98134
      LOOP 0
      ALLTAKES 0
      FADEIN 0 0 0 0 0 0 0
      FADEOUT 0 0 0 0 0 0 0
      MUTE 0 0
      SEL 0
      IGUID {DFCD8580-4F35-4341-A5F9-EEB4ED9F0905}
      <SOURCE MIDI
        HASDATA 1 480 QN
        CCINTERP 32
        E 0 c1 51
        E 0 b1 0c 40
        E 0 b1 0b 78
        E 0 91 29 78
        E 144 b1 0b 08
        E 0 81 29 00
        E 0 91 43 08
        E 144 81 43 00
        E 0 91 44 08
        E 144 81 44 00
        E 0 91 43 08
        E 144 b1 0b 18
        E 0 81 43 00
        E 0 91 44 18
        E 144 81 44 00
        E 0 91 43 18
        E 144 b1 0b 78
        E 0 81 43 00
        E 0 91 27 78
        E 144 b1 0b 28
        E 0 81 27 00
        E 0 91 43 28
        E 144 81 43 00
        E 0 91 44 28
        E 144 81 44 00
        E 0 91 43 28
        E 144 b1 0b 38
        E 0 81 43 00
        E 0 91 44 38
        E 144 81 44 00
        E 0 91 43 38
        E 144 b1 0b 78
        E 0 81 43 00
        E 0 91 24 78
        E 144 b1 0b 48
        E 0 81 24 00
        E 0 91 43 48
        E 144 81 43 00
        E 0 91 44 48
        E 144 81 44 00
        E 0 91 43 48
        E 144 b1 0b 58
        E 0 81 43 00
        E 0 91 44 58
        E 144 81 44 00
        E 0 91 43 58
        E 144 b1 0b 78
        E 0 81 43 00
        E 0 91 25 78
        E 144 b1 0b 68
        E 0 81 25 00
        E 0 91 43 68
        E 144 81 43 00
        E 0 91 44 68
        E 144 81 44 00
        E 0 91 43 68
        E 144 b1 0b 78
        E 0 81 43 00
        E 0 91 44 78
        E 144 81 44 00
        E 0 91 43 78
        E 144 b1 0b 18
        E 0 81 43 00
        E 0 91 29 18
        E 288 81 29 00
        E 0 91 2c 18
        E 144 81 2c 00
        E 0 91 2e 18
        E 144 81 2e 00
        E 0 91 30 18
        E 288 81 30 00
        E 0 91 27 18
        E 288 81 27 00
        E 0 91 2e 18
        E 288 81 2e 00
        E 0 91 2b 18
        E 288 81 2b 00
        E 0 91 24 18
        E 288 81 24 00
        E 0 91 2b 18
        E 144 81 2b 00
        E 0 91 29 18
        E 144 81 29 00
        E 0 91 2b 18
        E 288 81 2b 00
        E 0 91 25 18
        E 288 81 25 00
        E 0 91 2c 18
        E 576 81 2c 00
        E 0 91 29 18
        E 288 81 29 00
        E 0 91 2c 18
        E 144 81 2c 00
        E 0 91 2e 18
        E 144 81 2e 00
        E 0 91 30 18
        E 288 81 30 00
        E 0 91 27 18
        E 288 81 27 00
        E 0 91 2e 18
        E 288 81 2e 00
        E 0 91 2b 18
        E 288 81 2b 00
        E 0 91 24 18
        E 288 81 24 00
        E 0 91 2b 18
        E 144 81 2b 00
        E 0 91 29 18
        E 144 81 29 00
        E 0 91 2b 18
        E 288 81 2b 00
        E 0 91 25 18
        E 288 81 25 00
        E 0 91 2c 18
        E 576 81 2c 00
        E 0 91 29 18
        E 288 81 29 00
        E 0 91 2c 18
        E 144 81 2c 00
        E 0 91 2e 18
        E 144 81 2e 00
        E 0 91 30 18
        E 288 81 30 00
        E 0 91 27 18
        E 288 81 27 00
        E 0 91 2e 18
        E 288 81 2e 00
        E 0 91 2b 18
        E 288 81 2b 00
        E 0 91 24 18
        E 288 81 24 00
        E 0 91 2b 18
        E 144 81 2b 00
        E 0 91 29 18
        E 144 81 29 00
        E 0 91 2b 18
        E 288 81 2b 00
        E 0 91 25 18
        E 288 81 25 00
        E 0 91 2c 18
        E 576 81 2c 00
        E 0 91 29 18
        E 288 81 29 00
        E 0 91 2c 18
        E 144 81 2c 00
        E 0 91 2e 18
        E 144 81 2e 00
        E 0 91 30 18
        E 288 81 30 00
        E 0 91 27 18
        E 288 81 27 00
        E 0 91 2e 18
        E 288 81 2e 00
        E 0 91 2b 18
        E 288 81 2b 00
        E 0 91 24 18
        E 288 81 24 00
        E 0 91 2b 18
        E 144 81 2b 00
        E 0 91 29 18
        E 144 81 29 00
        E 0 91 2b 18
        E 288 81 2b 00
        E 0 91 25 18
        E 288 81 25 00
        E 0 91 2c 18
        E 576 b1 0b 78
        E 0 81 2c 00
        E 0 91 29 78
        E 144 b1 0b 08
        E 0 81 29 00
        E 0 91 43 08
        E 144 81 43 00
        E 0 91 44 08
        E 144 81 44 00
        E 0 91 43 08
        E 144 b1 0b 18
        E 0 81 43 00
        E 0 91 44 18
        E 144 81 44 00
        E 0 91 43 18
        E 144 b1 0b 78
        E 0 81 43 00
        E 0 91 27 78
        E 144 b1 0b 28
        E 0 81 27 00
        E 0 91 43 28
        E 144 81 43 00
        E 0 91 44 28
        E 144 81 44 00
        E 0 91 43 28
        E 144 b1 0b 38
        E 0 81 43 00
        E 0 91 44 38
        E 144 81 44 00
        E 0 91 43 38
        E 144 b1 0b 78
        E 0 81 43 00
        E 0 91 24 78
        E 144 b1 0b 48
        E 0 81 24 00
        E 0 91 43 48
        E 144 81 43 00
        E 0 91 44 48
        E 144 81 44 00
        E 0 91 43 48
        E 144 b1 0b 58
        E 0 81 43 00
        E 0 91 44 58
        E 144 81 44 00
        E 0 91 43 58
        E 144 b1 0b 78
        E 0 81 43 00
        E 0 91 25 78
        E 144 b1 0b 68
        E 0 81 25 00
        E 0 91 43 68
        E 144 81 43 00
        E 0 91 44 68
        E 144 81 44 00
        E 0 91 43 68
        E 144 b1 0b 78
        E 0 81 43 00
        E 0 91 44 78
        E 144 81 44 00
        E 0 91 43 78
        E 144 b1 0b 18
        E 0 81 43 00
        E 0 91 29 18
        E 288 81 29 00
        E 0 91 2c 18
        E 144 81 2c 00
        E 0 91 2e 18
        E 144 81 2e 00
        E 0 91 30 18
        E 288 81 30 00
        E 0 91 27 18
        E 288 81 27 00
        E 0 91 2e 18
        E 288 81 2e 00
        E 0 91 2b 18
        E 288 81 2b 00
        E 0 91 24 18
        E 288 81 24 00
        E 0 91 2b 18
        E 144 81 2b 00
        E 0 91 29 18
        E 144 81 29 00
        E 0 91 2b 18
        E 288 81 2b 00
        E 0 91 25 18
        E 288 81 25 00
        E 0 91 2c 18
        E 576 81 2c 00
        E 0 91 29 18
        E 288 81 29 00
        E 0 91 2c 18
        E 144 81 2c 00
        E 0 91 2e 18
        E 144 81 2e 00
        E 0 91 30 18
        E 288 81 30 00
        E 0 91 27 18
        E 288 81 27 00
        E 0 91 2e 18
        E 288 81 2e 00
        E 0 91 2b 18
        E 288 81 2b 00
        E 0 91 24 18
        E 288 81 24 00
        E 0 91 2b 18
        E 144 81 2b 00
        E 0 91 29 18
        E 144 81 29 00
        E 0 91 2b 18
        E 288 81 2b 00
        E 0 91 25 18
        E 288 81 25 00
        E 0 91 2c 18
        E 576 81 2c 00
        E 0 91 29 18
        E 288 81 29 00
        E 0 91 2c 18
        E 144 81 2c 00
        E 0 91 2e 18
        E 144 81 2e 00
        E 0 91 30 18
        E 288 81 30 00
        E 0 91 27 18
        E 288 81 27 00
        E 0 91 2e 18
        E 288 81 2e 00
        E 0 91 2b 18
        E 288 81 2b 00
        E 0 91 24 18
        E 288 81 24 00
        E 0 91 2b 18
        E 144 81 2b 00
        E 0 91 29 18
        E 144 81 29 00
        E 0 91 2b 18
        E 288 81 2b 00
        E 0 91 25 18
        E 288 81 25 00
        E 0 91 2c 18
        E 576 81 2c 00
        E 0 91 29 18
        E 288 81 29 00
        E 0 91 2c 18
        E 144 81 2c 00
        E 0 91 2e 18
        E 144 81 2e 00
        E 0 91 30 18
        E 288 81 30 00
        E 0 91 27 18
        E 288 81 27 00
        E 0 91 2e 18
        E 288 81 2e 00
        E 0 91 2b 18
        E 288 81 2b 00
        E 0 91 24 18
        E 288 81 24 00
        E 0 91 2b 18
        E 144 81 2b 00
        E 0 91 29 18
        E 144 81 29 00
        E 0 91 2b 18
        E 288 81 2b 00
        E 0 91 25 18
        E 288 81 25 00
        E 0 91 2c 18
        E 576 b1 0b 78
        E 0 81 2c 00
        E 0 91 29 78
        E 144 b1 0b 08
        E 0 81 29 00
        E 0 91 43 08
        E 144 81 43 00
        E 0 91 44 08
        E 144 81 44 00
        E 0 91 43 08
        E 144 b1 0b 18
        E 0 81 43 00
        E 0 91 44 18
        E 144 81 44 00
        E 0 91 43 18
        E 144 b1 0b 78
        E 0 81 43 00
        E 0 91 27 78
        E 144 b1 0b 28
        E 0 81 27 00
        E 0 91 43 28
        E 144 81 43 00
        E 0 91 44 28
        E 144 81 44 00
        E 0 91 43 28
        E 144 b1 0b 38
        E 0 81 43 00
        E 0 91 44 38
        E 144 81 44 00
        E 0 91 43 38
        E 144 b1 0b 78
        E 0 81 43 00
        E 0 91 24 78
        E 144 b1 0b 48
        E 0 81 24 00
        E 0 91 43 48
        E 144 81 43 00
        E 0 91 44 48
        E 144 81 44 00
        E 0 91 43 48
        E 144 b1 0b 58
        E 0 81 43 00
        E 0 91 44 58
        E 144 81 44 00
        E 0 91 43 58
        E 144 b1 0b 78
        E 0 81 43 00
        E 0 91 25 78
        E 144 b1 0b 68
        E 0 81 25 00
        E 0 91 43 68
        E 144 81 43 00
        E 0 91 44 68
        E 144 81 44 00
        E 0 91 43 68
        E 144 b1 0b 78
        E 0 81 43 00
        E 0 91 44 78
        E 144 81 44 00
        E 0 91 43 78
        E 144 b1 0b 18
        E 0 81 43 00
        E 0 91 29 18
        E 288 81 29 00
        E 0 91 2c 18
        E 144 81 2c 00
        E 0 91 2e 18
        E 144 81 2e 00
        E 0 91 30 18
        E 288 81 30 00
        E 0 91 27 18
        E 288 81 27 00
        E 0 91 2e 18
        E 288 81 2e 00
        E 0 91 2b 18
        E 288 81 2b 00
        E 0 91 24 18
        E 288 81 24 00
        E 0 91 2b 18
        E 144 81 2b 00
        E 0 91 29 18
        E 144 81 29 00
        E 0 91 2b 18
        E 288 81 2b 00
        E 0 91 25 18
        E 288 81 25 00
        E 0 91 2c 18
        E 576 81 2c 00
        E 0 91 29 18
        E 288 81 29 00
        E 0 91 2c 18
        E 144 81 2c 00
        E 0 91 2e 18
        E 144 81 2e 00
        E 0 91 30 18
        E 288 81 30 00
        E 0 91 27 18
        E 288 81 27 00
        E 0 91 2e 18
        E 288 81 2e 00
        E 0 91 2b 18
        E 288 81 2b 00
        E 0 91 24 18
        E 288 81 24 00
        E 0 91 2b 18
        E 144 81 2b 00
        E 0 91 29 18
        E 144 81 29 00
        E 0 91 2b 18
        E 288 81 2b 00
        E 0 91 25 18
        E 288 81 25 00
        E 0 91 2c 18
        E 576 81 2c 00
        E 0 91 29 18
        E 288 81 29 00
        E 0 91 2c 18
        E 144 81 2c 00
        E 0 91 2e 18
        E 144 81 2e 00
        E 0 91 30 18
        E 288 81 30 00
        E 0 91 27 18
        E 288 81 27 00
        E 0 91 2e 18
        E 288 81 2e 00
        E 0 91 2b 18
        E 288 81 2b 00
        E 0 91 24 18
        E 288 81 24 00
        E 0 91 2b 18
        E 144 81 2b 00
        E 0 91 29 18
        E 144 81 29 00
        E 0 91 2b 18
        E 288 81 2b 00
        E 0 91 25 18
        E 288 81 25 00
        E 0 91 2c 18
        E 576 81 2c 00
        E 0 91 29 18
        E 288 81 29 00
        E 0 91 2c 18
        E 144 81 2c 00
        E 0 91 2e 18
        E 144 81 2e 00
        E 0 91 30 18
        E 288 81 30 00
        E 0 91 27 18
        E 288 81 27 00
        E 0 91 2e 18
        E 288 81 2e 00
        E 0 91 2b 18
        E 288 81 2b 00
        E 0 91 24 18
        E 288 81 24 00
        E 0 91 2b 18
        E 144 81 2b 00
        E 0 91 29 18
        E 144 81 29 00
        E 0 91 2b 18
        E 288 81 2b 00
        E 0 91 25 18
        E 288 81 25 00
        E 0 91 2c 18
        E 576 b1 0b 78
        E 0 81 2c 00
        E 0 91 29 78
        E 144 b1 0b 08
        E 0 81 29 00
        E 0 91 43 08
        E 144 81 43 00
        E 0 91 44 08
        E 144 81 44 00
        E 0 91 43 08
        E 144 b1 0b 18
        E 0 81 43 00
        E 0 91 44 18
        E 144 81 44 00
        E 0 91 43 18
        E 144 b1 0b 78
        E 0 81 43 00
        E 0 91 27 78
        E 144 b1 0b 28
        E 0 81 27 00
        E 0 91 43 28
        E 144 81 43 00
        E 0 91 44 28
        E 144 81 44 00
        E 0 91 43 28
        E 144 b1 0b 38
        E 0 81 43 00
        E 0 91 44 38
        E 144 81 44 00
        E 0 91 43 38
        E 144 b1 0b 78
        E 0 81 43 00
        E 0 91 24 78
        E 144 b1 0b 48
        E 0 81 24 00
        E 0 91 43 48
        E 144 81 43 00
        E 0 91 44 48
        E 144 81 44 00
        E 0 91 43 48
        E 144 b1 0b 58
        E 0 81 43 00
        E 0 91 44 58
        E 144 81 44 00
        E 0 91 43 58
        E 144 b1 0b 78
        E 0 81 43 00
        E 0 91 25 78
        E 144 b1 0b 68
        E 0 81 25 00
        E 0 91 43 68
        E 144 81 43 00
        E 0 91 44 68
        E 144 81 44 00
        E 0 91 43 68
        E 144 b1 0b 78
        E 0 81 43 00
        E 0 91 44 78
        E 144 81 44 00
        E 0 91 43 78
        E 144 b1 0b 18
        E 0 81 43 00
        E 0 91 29 18
        E 288 81 29 00
        E 0 91 2c 18
        E 144 81 2c 00
        E 0 91 2e 18
        E 144 81 2e 00
        E 0 91 30 18
        E 288 81 30 00
        E 0 91 27 18
        E 288 81 27 00
        E 0 91 2e 18
        E 288 81 2e 00
        E 0 91 2b 18
        E 288 81 2b 00
        E 0 91 24 18
        E 288 81 24 00
        E 0 91 2b 18
        E 144 81 2b 00
        E 0 91 29 18
        E 144 81 29 00
        E 0 91 2b 18
        E 288 81 2b 00
        E 0 91 25 18
        E 288 81 25 00
        E 0 91 2c 18
        E 576 81 2c 00
        E 0 91 29 18
        E 288 81 29 00
        E 0 91 2c 18
        E 144 81 2c 00
        E 0 91 2e 18
        E 144 81 2e 00
        E 0 91 30 18
        E 288 81 30 00
        E 0 91 27 18
        E 288 81 27 00
        E 0 91 2e 18
        E 288 81 2e 00
        E 0 91 2b 18
        E 288 81 2b 00
        E 0 91 24 18
        E 288 81 24 00
        E 0 91 2b 18
        E 144 81 2b 00
        E 0 91 29 18
        E 144 81 29 00
        E 0 91 2b 18
        E 288 81 2b 00
        E 0 91 25 18
        E 288 81 25 00
        E 0 91 2c 18
        E 576 81 2c 00
        E 0 91 29 18
        E 288 81 29 00
        E 0 91 2c 18
        E 144 81 2c 00
        E 0 91 2e 18
        E 144 81 2e 00
        E 0 91 30 18
        E 288 81 30 00
        E 0 91 27 18
        E 288 81 27 00
        E 0 91 2e 18
        E 288 81 2e 00
        E 0 91 2b 18
        E 288 81 2b 00
        E 0 91 24 18
        E 288 81 24 00
        E 0 91 2b 18
        E 144 81 2b 00
        E 0 91 29 18
        E 144 81 29 00
        E 0 91 2b 18
        E 288 81 2b 00
        E 0 91 25 18
        E 288 81 25 00
        E 0 91 2c 18
        E 576 81 2c 00
        E 0 91 29 18
        E 288 81 29 00
        E 0 91 2c 18
        E 144 81 2c 00
        E 0 91 2e 18
        E 144 81 2e 00
        E 0 91 30 18
        E 288 81 30 00
        E 0 91 27 18
        E 288 81 27 00
        E 0 91 2e 18
        E 288 81 2e 00
        E 0 91 2b 18
        E 288 81 2b 00
        E 0 91 24 18
        E 288 81 24 00
        E 0 91 2b 18
        E 144 81 2b 00
        E 0 91 29 18
        E 144 81 29 00
        E 0 91 2b 18
        E 288 81 2b 00
        E 0 91 25 18
        E 288 81 25 00
        E 0 91 2c 18
        E 576 b1 0b 78
        E 0 81 2c 00
        E 0 91 29 78
        E 144 b1 0b 08
        E 0 81 29 00
        E 0 91 43 08
        E 144 81 43 00
        E 0 91 44 08
        E 144 81 44 00
        E 0 91 43 08
        E 144 b1 0b 18
        E 0 81 43 00
        E 0 91 44 18
        E 144 81 44 00
        E 0 91 43 18
        E 144 b1 0b 78
        E 0 81 43 00
        E 0 91 27 78
        E 144 b1 0b 28
        E 0 81 27 00
        E 0 91 43 28
        E 144 81 43 00
        E 0 91 44 28
        E 144 81 44 00
        E 0 91 43 28
        E 144 b1 0b 38
        E 0 81 43 00
        E 0 91 44 38
        E 144 81 44 00
        E 0 91 43 38
        E 144 b1 0b 78
        E 0 81 43 00
        E 0 91 24 78
        E 144 b1 0b 48
        E 0 81 24 00
        E 0 91 43 48
        E 144 81 43 00
        E 0 91 44 48
        E 144 81 44 00
        E 0 91 43 48
        E 144 b1 0b 58
        E 0 81 43 00
        E 0 91 44 58
        E 144 81 44 00
        E 0 91 43 58
        E 144 b1 0b 78
        E 0 81 43 00
        E 0 91 25 78
        E 144 b1 0b 68
        E 0 81 25 00
        E 0 91 43 68
        E 144 81 43 00
        E 0 91 44 68
        E 144 81 44 00
        E 0 91 43 68
        E 144 b1 0b 78
        E 0 81 43 00
        E 0 91 44 78
        E 144 81 44 00
        E 0 91 43 78
        E 144 b1 0b 18
        E 0 81 43 00
        E 0 91 29 18
        E 288 81 29 00
        E 0 91 2c 18
        E 144 81 2c 00
        E 0 91 2e 18
        E 144 81 2e 00
        E 0 91 30 18
        E 288 81 30 00
        E 0 91 27 18
        E 288 81 27 00
        E 0 91 2e 18
        E 288 81 2e 00
        E 0 91 2b 18
        E 288 81 2b 00
        E 0 91 24 18
        E 288 81 24 00
        E 0 91 2b 18
        E 144 81 2b 00
        E 0 91 29 18
        E 144 81 29 00
        E 0 91 2b 18
        E 288 81 2b 00
        E 0 91 25 18
        E 288 81 25 00
        E 0 91 2c 18
        E 576 81 2c 00
        E 0 91 29 18
        E 288 81 29 00
        E 0 91 2c 18
        E 144 81 2c 00
        E 0 91 2e 18
        E 144 81 2e 00
        E 0 91 30 18
        E 288 81 30 00
        E 0 91 27 18
        E 288 81 27 00
        E 0 91 2e 18
        E 288 81 2e 00
        E 0 91 2b 18
        E 288 81 2b 00
        E 0 91 24 18
        E 288 81 24 00
        E 0 91 2b 18
        E 144 81 2b 00
        E 0 91 29 18
        E 144 81 29 00
        E 0 91 2b 18
        E 288 81 2b 00
        E 0 91 25 18
        E 288 81 25 00
        E 0 91 2c 18
        E 576 81 2c 00
        E 0 91 29 18
        E 288 81 29 00
        E 0 91 2c 18
        E 144 81 2c 00
        E 0 91 2e 18
        E 144 81 2e 00
        E 0 91 30 18
        E 288 81 30 00
        E 0 91 27 18
        E 288 81 27 00
        E 0 91 2e 18
        E 288 81 2e 00
        E 0 91 2b 18
        E 288 81 2b 00
        E 0 91 24 18
        E 288 81 24 00
        E 0 91 2b 18
        E 144 81 2b 00
        E 0 91 29 18
        E 144 81 29 00
        E 0 91 2b 18
        E 288 81 2b 00
        E 0 91 25 18
        E 288 81 25 00
        E 0 91 2c 18
        E 576 81 2c 00
        E 0 91 29 18
        E 288 81 29 00
        E 0 91 2c 18
        E 144 81 2c 00
        E 0 91 2e 18
        E 144 81 2e 00
        E 0 91 30 18
        E 288 81 30 00
        E 0 91 27 18
        E 288 81 27 00
        E 0 91 2e 18
        E 288 81 2e 00
        E 0 91 2b 18
        E 288 81 2b 00
        E 0 91 24 18
        E 288 81 24 00
        E 0 91 2b 18
        E 144 81 2b 00
        E 0 91 29 18
        E 144 81 29 00
        E 0 91 2b 18
        E 288 81 2b 00
        E 0 91 25 18
        E 288 81 25 00
        E 0 91 2c 18
        E 576 81 2c 00
        E 0 ff 2f 00
      >
    >
  >
  <TRACK {C28F1407-2F56-46A5-909B-FDDDC1347F74}
    NAME "NES - Triangle [ch2]"
    PEAKCOL 16744192
    BEAT -1
    AUTOMODE 0
    PANLAWFLAGS 3
    VOLPAN 1 0 -1 -1 1
    MUTESOLO 0 0 0
    IPHASE 0
    PLAYOFFS 0 1
    ISBUS 0 0
    BUSCOMP 0 0 0 0 0
    SHOWINMIX 1 0.6667 0.5 1 0.5 0 0 0
    FIXEDLANES 9 0 0 0 0
    SEL 0
    REC 0 5088 1 0 0 0 0 0
    VU 2
    TRACKHEIGHT 0 0 0 0 0 0 0
    INQ 0 0 0 0.5 100 0 0 100
    NCHAN 2
    FX 1
    TRACKID {C28F1407-2F56-46A5-909B-FDDDC1347F74}
    PERF 0
    MIDIOUT -1
    MAINSEND 1 0
    <FXCHAIN
      WNDRECT 24 52 700 560
      SHOW 0
      LASTSEL 0
      DOCKED 0
      BYPASS 0 0 0
      <JS "ReapNES Studio/ReapNES_Console.jsfx" ""
        2 15 1 10 80 10 100 2 1 15 1 5 60 10 80 1 1 0 50 0 0 15 1 0 100 0 0 0.500000 0.500000 0.400000 0.300000 0.800000 2 1 0 0 0 0 - - - - - - - - - - - - - - - - - - - - - - - - - -
      >
      FLOATPOS 0 0 0 0
      FXID {A9082FFD-DD8A-4385-A6C6-0348AC45B3B2}
      WAK 0 0
    >
    <ITEM
      POSITION 0
      LENGTH 83.98134
      LOOP 0
      ALLTAKES 0
      FADEIN 0 0 0 0 0 0 0
      FADEOUT 0 0 0 0 0 0 0
      MUTE 0 0
      SEL 0
      IGUID {429B646A-52C3-4E34-918B-3E4ACF396774}
      <SOURCE MIDI
        HASDATA 1 480 QN
        CCINTERP 32
        E 0 c2 26
        E 0 b2 0b 7f
        E 0 92 3c 7f
        E 288 82 3c 00
        E 0 b2 0b 7f
        E 0 92 41 7f
        E 144 82 41 00
        E 0 b2 0b 7f
        E 0 92 43 7f
        E 144 82 43 00
        E 0 b2 0b 7f
        E 0 92 44 7f
        E 288 82 44 00
        E 0 b2 0b 7f
        E 0 92 43 7f
        E 288 82 43 00
        E 0 b2 0b 7f
        E 0 92 3f 7f
        E 288 82 3f 00
        E 0 b2 0b 7f
        E 0 92 3a 7f
        E 288 82 3a 00
        E 0 b2 0b 7f
        E 0 92 37 7f
        E 288 82 37 00
        E 0 b2 0b 7f
        E 0 92 3f 7f
        E 144 82 3f 00
        E 0 b2 0b 7f
        E 0 92 3e 7f
        E 144 82 3e 00
        E 0 b2 0b 7f
        E 0 92 3f 7f
        E 576 82 3f 00
        E 0 b2 0b 7f
        E 0 92 41 7f
        E 288 82 41 00
        E 0 b2 0b 7f
        E 0 92 3d 7f
        E 288 82 3d 00
        E 0 b2 0b 7f
        E 0 92 3c 7f
        E 288 82 3c 00
        E 0 b2 0b 7f
        E 0 92 41 7f
        E 144 82 41 00
        E 0 b2 0b 7f
        E 0 92 43 7f
        E 144 82 43 00
        E 0 b2 0b 7f
        E 0 92 44 7f
        E 288 82 44 00
        E 0 b2 0b 7f
        E 0 92 43 7f
        E 288 82 43 00
        E 0 b2 0b 7f
        E 0 92 3f 7f
        E 288 82 3f 00
        E 0 b2 0b 7f
        E 0 92 3a 7f
        E 288 82 3a 00
        E 0 b2 0b 7f
        E 0 92 37 7f
        E 288 82 37 00
        E 0 b2 0b 7f
        E 0 92 3f 7f
        E 144 82 3f 00
        E 0 b2 0b 7f
        E 0 92 3e 7f
        E 144 82 3e 00
        E 0 b2 0b 7f
        E 0 92 3f 7f
        E 576 82 3f 00
        E 0 b2 0b 7f
        E 0 92 41 7f
        E 288 82 41 00
        E 0 b2 0b 7f
        E 0 92 3d 7f
        E 288 82 3d 00
        E 0 b2 0b 7f
        E 0 92 3c 7f
        E 288 82 3c 00
        E 0 b2 0b 7f
        E 0 92 41 7f
        E 144 82 41 00
        E 0 b2 0b 7f
        E 0 92 43 7f
        E 144 82 43 00
        E 0 b2 0b 7f
        E 0 92 44 7f
        E 288 82 44 00
        E 0 b2 0b 7f
        E 0 92 43 7f
        E 288 82 43 00
        E 0 b2 0b 7f
        E 0 92 3f 7f
        E 288 82 3f 00
        E 0 b2 0b 7f
        E 0 92 3a 7f
        E 288 82 3a 00
        E 0 b2 0b 7f
        E 0 92 37 7f
        E 288 82 37 00
        E 0 b2 0b 7f
        E 0 92 3f 7f
        E 144 82 3f 00
        E 0 b2 0b 7f
        E 0 92 3e 7f
        E 144 82 3e 00
        E 0 b2 0b 7f
        E 0 92 3f 7f
        E 576 82 3f 00
        E 0 b2 0b 7f
        E 0 92 41 7f
        E 288 82 41 00
        E 0 b2 0b 7f
        E 0 92 3d 7f
        E 288 82 3d 00
        E 0 b2 0b 7f
        E 0 92 44 7f
        E 432 82 44 00
        E 0 b2 0b 7f
        E 0 92 43 7f
        E 144 82 43 00
        E 0 b2 0b 7f
        E 0 92 41 7f
        E 288 82 41 00
        E 0 b2 0b 7f
        E 0 92 43 7f
        E 288 82 43 00
        E 0 b2 0b 7f
        E 0 92 3f 7f
        E 288 82 3f 00
        E 0 b2 0b 7f
        E 0 92 3a 7f
        E 288 82 3a 00
        E 0 b2 0b 7f
        E 0 92 37 7f
        E 288 82 37 00
        E 0 b2 0b 7f
        E 0 92 3f 7f
        E 144 82 3f 00
        E 0 b2 0b 7f
        E 0 92 3e 7f
        E 144 82 3e 00
        E 0 b2 0b 7f
        E 0 92 3f 7f
        E 576 82 3f 00
        E 0 b2 0b 7f
        E 0 92 41 7f
        E 288 82 41 00
        E 0 b2 0b 7f
        E 0 92 3d 7f
        E 288 82 3d 00
        E 0 b2 0b 7f
        E 0 92 3c 7f
        E 288 82 3c 00
        E 0 b2 0b 7f
        E 0 92 41 7f
        E 144 82 41 00
        E 0 b2 0b 7f
        E 0 92 43 7f
        E 144 82 43 00
        E 0 b2 0b 7f
        E 0 92 44 7f
        E 288 82 44 00
        E 0 b2 0b 7f
        E 0 92 43 7f
        E 288 82 43 00
        E 0 b2 0b 7f
        E 0 92 3f 7f
        E 288 82 3f 00
        E 0 b2 0b 7f
        E 0 92 3a 7f
        E 288 82 3a 00
        E 0 b2 0b 7f
        E 0 92 37 7f
        E 288 82 37 00
        E 0 b2 0b 7f
        E 0 92 3f 7f
        E 144 82 3f 00
        E 0 b2 0b 7f
        E 0 92 3e 7f
        E 144 82 3e 00
        E 0 b2 0b 7f
        E 0 92 3f 7f
        E 576 82 3f 00
        E 0 b2 0b 7f
        E 0 92 41 7f
        E 288 82 41 00
        E 0 b2 0b 7f
        E 0 92 3d 7f
        E 288 82 3d 00
        E 0 b2 0b 7f
        E 0 92 3c 7f
        E 288 82 3c 00
        E 0 b2 0b 7f
        E 0 92 41 7f
        E 144 82 41 00
        E 0 b2 0b 7f
        E 0 92 43 7f
        E 144 82 43 00
        E 0 b2 0b 7f
        E 0 92 44 7f
        E 288 82 44 00
        E 0 b2 0b 7f
        E 0 92 43 7f
        E 288 82 43 00
        E 0 b2 0b 7f
        E 0 92 3f 7f
        E 288 82 3f 00
        E 0 b2 0b 7f
        E 0 92 3a 7f
        E 288 82 3a 00
        E 0 b2 0b 7f
        E 0 92 37 7f
        E 288 82 37 00
        E 0 b2 0b 7f
        E 0 92 3f 7f
        E 144 82 3f 00
        E 0 b2 0b 7f
        E 0 92 3e 7f
        E 144 82 3e 00
        E 0 b2 0b 7f
        E 0 92 3f 7f
        E 576 82 3f 00
        E 0 b2 0b 7f
        E 0 92 41 7f
        E 288 82 41 00
        E 0 b2 0b 7f
        E 0 92 3d 7f
        E 288 82 3d 00
        E 0 b2 0b 7f
        E 0 92 3c 7f
        E 288 82 3c 00
        E 0 b2 0b 7f
        E 0 92 41 7f
        E 144 82 41 00
        E 0 b2 0b 7f
        E 0 92 43 7f
        E 144 82 43 00
        E 0 b2 0b 7f
        E 0 92 44 7f
        E 288 82 44 00
        E 0 b2 0b 7f
        E 0 92 43 7f
        E 288 82 43 00
        E 0 b2 0b 7f
        E 0 92 3f 7f
        E 288 82 3f 00
        E 0 b2 0b 7f
        E 0 92 3a 7f
        E 288 82 3a 00
        E 0 b2 0b 7f
        E 0 92 37 7f
        E 288 82 37 00
        E 0 b2 0b 7f
        E 0 92 3f 7f
        E 144 82 3f 00
        E 0 b2 0b 7f
        E 0 92 3e 7f
        E 144 82 3e 00
        E 0 b2 0b 7f
        E 0 92 3f 7f
        E 576 82 3f 00
        E 0 b2 0b 7f
        E 0 92 41 7f
        E 288 82 41 00
        E 0 b2 0b 7f
        E 0 92 3d 7f
        E 288 82 3d 00
        E 0 b2 0b 7f
        E 0 92 3c 7f
        E 288 82 3c 00
        E 0 b2 0b 7f
        E 0 92 41 7f
        E 144 82 41 00
        E 0 b2 0b 7f
        E 0 92 43 7f
        E 144 82 43 00
        E 0 b2 0b 7f
        E 0 92 44 7f
        E 288 82 44 00
        E 0 b2 0b 7f
        E 0 92 43 7f
        E 288 82 43 00
        E 0 b2 0b 7f
        E 0 92 3f 7f
        E 288 82 3f 00
        E 0 b2 0b 7f
        E 0 92 3a 7f
        E 288 82 3a 00
        E 0 b2 0b 7f
        E 0 92 37 7f
        E 288 82 37 00
        E 0 b2 0b 7f
        E 0 92 3f 7f
        E 144 82 3f 00
        E 0 b2 0b 7f
        E 0 92 3e 7f
        E 144 82 3e 00
        E 0 b2 0b 7f
        E 0 92 3f 7f
        E 576 82 3f 00
        E 0 b2 0b 7f
        E 0 92 41 7f
        E 288 82 41 00
        E 0 b2 0b 7f
        E 0 92 3d 7f
        E 288 82 3d 00
        E 0 b2 0b 7f
        E 0 92 44 7f
        E 432 82 44 00
        E 0 b2 0b 7f
        E 0 92 43 7f
        E 144 82 43 00
        E 0 b2 0b 7f
        E 0 92 41 7f
        E 288 82 41 00
        E 0 b2 0b 7f
        E 0 92 43 7f
        E 288 82 43 00
        E 0 b2 0b 7f
        E 0 92 3f 7f
        E 288 82 3f 00
        E 0 b2 0b 7f
        E 0 92 3a 7f
        E 288 82 3a 00
        E 0 b2 0b 7f
        E 0 92 37 7f
        E 288 82 37 00
        E 0 b2 0b 7f
        E 0 92 3f 7f
        E 144 82 3f 00
        E 0 b2 0b 7f
        E 0 92 3e 7f
        E 144 82 3e 00
        E 0 b2 0b 7f
        E 0 92 3f 7f
        E 576 82 3f 00
        E 0 b2 0b 7f
        E 0 92 41 7f
        E 288 82 41 00
        E 0 b2 0b 7f
        E 0 92 3d 7f
        E 288 82 3d 00
        E 0 b2 0b 7f
        E 0 92 3c 7f
        E 288 82 3c 00
        E 0 b2 0b 7f
        E 0 92 41 7f
        E 144 82 41 00
        E 0 b2 0b 7f
        E 0 92 43 7f
        E 144 82 43 00
        E 0 b2 0b 7f
        E 0 92 44 7f
        E 288 82 44 00
        E 0 b2 0b 7f
        E 0 92 43 7f
        E 288 82 43 00
        E 0 b2 0b 7f
        E 0 92 3f 7f
        E 288 82 3f 00
        E 0 b2 0b 7f
        E 0 92 3a 7f
        E 288 82 3a 00
        E 0 b2 0b 7f
        E 0 92 37 7f
        E 288 82 37 00
        E 0 b2 0b 7f
        E 0 92 3f 7f
        E 144 82 3f 00
        E 0 b2 0b 7f
        E 0 92 3e 7f
        E 144 82 3e 00
        E 0 b2 0b 7f
        E 0 92 3f 7f
        E 576 82 3f 00
        E 0 b2 0b 7f
        E 0 92 41 7f
        E 288 82 41 00
        E 0 b2 0b 7f
        E 0 92 3d 7f
        E 288 82 3d 00
        E 0 b2 0b 7f
        E 0 92 3c 7f
        E 288 82 3c 00
        E 0 b2 0b 7f
        E 0 92 41 7f
        E 144 82 41 00
        E 0 b2 0b 7f
        E 0 92 43 7f
        E 144 82 43 00
        E 0 b2 0b 7f
        E 0 92 44 7f
        E 288 82 44 00
        E 0 b2 0b 7f
        E 0 92 43 7f
        E 288 82 43 00
        E 0 b2 0b 7f
        E 0 92 3f 7f
        E 288 82 3f 00
        E 0 b2 0b 7f
        E 0 92 3a 7f
        E 288 82 3a 00
        E 0 b2 0b 7f
        E 0 92 37 7f
        E 288 82 37 00
        E 0 b2 0b 7f
        E 0 92 3f 7f
        E 144 82 3f 00
        E 0 b2 0b 7f
        E 0 92 3e 7f
        E 144 82 3e 00
        E 0 b2 0b 7f
        E 0 92 3f 7f
        E 576 82 3f 00
        E 0 b2 0b 7f
        E 0 92 41 7f
        E 288 82 41 00
        E 0 b2 0b 7f
        E 0 92 3d 7f
        E 288 82 3d 00
        E 0 b2 0b 7f
        E 0 92 3c 7f
        E 288 82 3c 00
        E 0 b2 0b 7f
        E 0 92 41 7f
        E 144 82 41 00
        E 0 b2 0b 7f
        E 0 92 43 7f
        E 144 82 43 00
        E 0 b2 0b 7f
        E 0 92 44 7f
        E 288 82 44 00
        E 0 b2 0b 7f
        E 0 92 43 7f
        E 288 82 43 00
        E 0 b2 0b 7f
        E 0 92 3f 7f
        E 288 82 3f 00
        E 0 b2 0b 7f
        E 0 92 3a 7f
        E 288 82 3a 00
        E 0 b2 0b 7f
        E 0 92 37 7f
        E 288 82 37 00
        E 0 b2 0b 7f
        E 0 92 3f 7f
        E 144 82 3f 00
        E 0 b2 0b 7f
        E 0 92 3e 7f
        E 144 82 3e 00
        E 0 b2 0b 7f
        E 0 92 3f 7f
        E 576 82 3f 00
        E 0 b2 0b 7f
        E 0 92 41 7f
        E 288 82 41 00
        E 0 b2 0b 7f
        E 0 92 3d 7f
        E 288 82 3d 00
        E 0 b2 0b 7f
        E 0 92 3c 7f
        E 288 82 3c 00
        E 0 b2 0b 7f
        E 0 92 41 7f
        E 144 82 41 00
        E 0 b2 0b 7f
        E 0 92 43 7f
        E 144 82 43 00
        E 0 b2 0b 7f
        E 0 92 44 7f
        E 288 82 44 00
        E 0 b2 0b 7f
        E 0 92 43 7f
        E 288 82 43 00
        E 0 b2 0b 7f
        E 0 92 3f 7f
        E 288 82 3f 00
        E 0 b2 0b 7f
        E 0 92 3a 7f
        E 288 82 3a 00
        E 0 b2 0b 7f
        E 0 92 37 7f
        E 288 82 37 00
        E 0 b2 0b 7f
        E 0 92 3f 7f
        E 144 82 3f 00
        E 0 b2 0b 7f
        E 0 92 3e 7f
        E 144 82 3e 00
        E 0 b2 0b 7f
        E 0 92 3f 7f
        E 576 82 3f 00
        E 0 b2 0b 7f
        E 0 92 41 7f
        E 288 82 41 00
        E 0 b2 0b 7f
        E 0 92 3d 7f
        E 288 82 3d 00
        E 0 b2 0b 7f
        E 0 92 44 7f
        E 432 82 44 00
        E 0 b2 0b 7f
        E 0 92 43 7f
        E 144 82 43 00
        E 0 b2 0b 7f
        E 0 92 41 7f
        E 288 82 41 00
        E 0 b2 0b 7f
        E 0 92 43 7f
        E 288 82 43 00
        E 0 b2 0b 7f
        E 0 92 3f 7f
        E 288 82 3f 00
        E 0 b2 0b 7f
        E 0 92 3a 7f
        E 288 82 3a 00
        E 0 b2 0b 7f
        E 0 92 37 7f
        E 288 82 37 00
        E 0 b2 0b 7f
        E 0 92 3f 7f
        E 144 82 3f 00
        E 0 b2 0b 7f
        E 0 92 3e 7f
        E 144 82 3e 00
        E 0 b2 0b 7f
        E 0 92 3f 7f
        E 576 82 3f 00
        E 0 b2 0b 7f
        E 0 92 41 7f
        E 288 82 41 00
        E 0 b2 0b 7f
        E 0 92 3d 7f
        E 288 82 3d 00
        E 0 b2 0b 7f
        E 0 92 3c 7f
        E 288 82 3c 00
        E 0 b2 0b 7f
        E 0 92 41 7f
        E 144 82 41 00
        E 0 b2 0b 7f
        E 0 92 43 7f
        E 144 82 43 00
        E 0 b2 0b 7f
        E 0 92 44 7f
        E 288 82 44 00
        E 0 b2 0b 7f
        E 0 92 43 7f
        E 288 82 43 00
        E 0 b2 0b 7f
        E 0 92 3f 7f
        E 288 82 3f 00
        E 0 b2 0b 7f
        E 0 92 3a 7f
        E 288 82 3a 00
        E 0 b2 0b 7f
        E 0 92 37 7f
        E 288 82 37 00
        E 0 b2 0b 7f
        E 0 92 3f 7f
        E 144 82 3f 00
        E 0 b2 0b 7f
        E 0 92 3e 7f
        E 144 82 3e 00
        E 0 b2 0b 7f
        E 0 92 3f 7f
        E 576 82 3f 00
        E 0 b2 0b 7f
        E 0 92 41 7f
        E 288 82 41 00
        E 0 b2 0b 7f
        E 0 92 3d 7f
        E 288 82 3d 00
        E 0 b2 0b 7f
        E 0 92 3c 7f
        E 288 82 3c 00
        E 0 b2 0b 7f
        E 0 92 41 7f
        E 144 82 41 00
        E 0 b2 0b 7f
        E 0 92 43 7f
        E 144 82 43 00
        E 0 b2 0b 7f
        E 0 92 44 7f
        E 288 82 44 00
        E 0 b2 0b 7f
        E 0 92 43 7f
        E 288 82 43 00
        E 0 b2 0b 7f
        E 0 92 3f 7f
        E 288 82 3f 00
        E 0 b2 0b 7f
        E 0 92 3a 7f
        E 288 82 3a 00
        E 0 b2 0b 7f
        E 0 92 37 7f
        E 288 82 37 00
        E 0 b2 0b 7f
        E 0 92 3f 7f
        E 144 82 3f 00
        E 0 b2 0b 7f
        E 0 92 3e 7f
        E 144 82 3e 00
        E 0 b2 0b 7f
        E 0 92 3f 7f
        E 576 82 3f 00
        E 0 b2 0b 7f
        E 0 92 41 7f
        E 288 82 41 00
        E 0 b2 0b 7f
        E 0 92 3d 7f
        E 288 82 3d 00
        E 0 b2 0b 7f
        E 0 92 3c 7f
        E 288 82 3c 00
        E 0 b2 0b 7f
        E 0 92 41 7f
        E 144 82 41 00
        E 0 b2 0b 7f
        E 0 92 43 7f
        E 144 82 43 00
        E 0 b2 0b 7f
        E 0 92 44 7f
        E 288 82 44 00
        E 0 b2 0b 7f
        E 0 92 43 7f
        E 288 82 43 00
        E 0 b2 0b 7f
        E 0 92 3f 7f
        E 288 82 3f 00
        E 0 b2 0b 7f
        E 0 92 3a 7f
        E 288 82 3a 00
        E 0 b2 0b 7f
        E 0 92 37 7f
        E 288 82 37 00
        E 0 b2 0b 7f
        E 0 92 3f 7f
        E 144 82 3f 00
        E 0 b2 0b 7f
        E 0 92 3e 7f
        E 144 82 3e 00
        E 0 b2 0b 7f
        E 0 92 3f 7f
        E 576 82 3f 00
        E 0 b2 0b 7f
        E 0 92 41 7f
        E 288 82 41 00
        E 0 b2 0b 7f
        E 0 92 3d 7f
        E 288 82 3d 00
        E 0 b2 0b 7f
        E 0 92 3c 7f
        E 288 82 3c 00
        E 0 b2 0b 7f
        E 0 92 41 7f
        E 144 82 41 00
        E 0 b2 0b 7f
        E 0 92 43 7f
        E 144 82 43 00
        E 0 b2 0b 7f
        E 0 92 44 7f
        E 288 82 44 00
        E 0 b2 0b 7f
        E 0 92 43 7f
        E 288 82 43 00
        E 0 b2 0b 7f
        E 0 92 3f 7f
        E 288 82 3f 00
        E 0 b2 0b 7f
        E 0 92 3a 7f
        E 288 82 3a 00
        E 0 b2 0b 7f
        E 0 92 37 7f
        E 288 82 37 00
        E 0 b2 0b 7f
        E 0 92 3f 7f
        E 144 82 3f 00
        E 0 b2 0b 7f
        E 0 92 3e 7f
        E 144 82 3e 00
        E 0 b2 0b 7f
        E 0 92 3f 7f
        E 576 82 3f 00
        E 0 b2 0b 7f
        E 0 92 41 7f
        E 288 82 41 00
        E 0 b2 0b 7f
        E 0 92 3d 7f
        E 288 82 3d 00
        E 0 b2 0b 7f
        E 0 92 44 7f
        E 432 82 44 00
        E 0 b2 0b 7f
        E 0 92 43 7f
        E 144 82 43 00
        E 0 b2 0b 7f
        E 0 92 41 7f
        E 288 82 41 00
        E 0 b2 0b 7f
        E 0 92 43 7f
        E 288 82 43 00
        E 0 b2 0b 7f
        E 0 92 3f 7f
        E 288 82 3f 00
        E 0 b2 0b 7f
        E 0 92 3a 7f
        E 288 82 3a 00
        E 0 b2 0b 7f
        E 0 92 37 7f
        E 288 82 37 00
        E 0 b2 0b 7f
        E 0 92 3f 7f
        E 144 82 3f 00
        E 0 b2 0b 7f
        E 0 92 3e 7f
        E 144 82 3e 00
        E 0 b2 0b 7f
        E 0 92 3f 7f
        E 576 82 3f 00
        E 0 b2 0b 7f
        E 0 92 41 7f
        E 288 82 41 00
        E 0 b2 0b 7f
        E 0 92 3d 7f
        E 288 82 3d 00
        E 0 b2 0b 7f
        E 0 92 3c 7f
        E 288 82 3c 00
        E 0 b2 0b 7f
        E 0 92 41 7f
        E 144 82 41 00
        E 0 b2 0b 7f
        E 0 92 43 7f
        E 144 82 43 00
        E 0 b2 0b 7f
        E 0 92 44 7f
        E 288 82 44 00
        E 0 b2 0b 7f
        E 0 92 43 7f
        E 288 82 43 00
        E 0 b2 0b 7f
        E 0 92 3f 7f
        E 288 82 3f 00
        E 0 b2 0b 7f
        E 0 92 3a 7f
        E 288 82 3a 00
        E 0 b2 0b 7f
        E 0 92 37 7f
        E 288 82 37 00
        E 0 b2 0b 7f
        E 0 92 3f 7f
        E 144 82 3f 00
        E 0 b2 0b 7f
        E 0 92 3e 7f
        E 144 82 3e 00
        E 0 b2 0b 7f
        E 0 92 3f 7f
        E 576 82 3f 00
        E 0 b2 0b 7f
        E 0 92 41 7f
        E 288 82 41 00
        E 0 b2 0b 7f
        E 0 92 3d 7f
        E 288 82 3d 00
        E 0 b2 0b 7f
        E 0 92 3c 7f
        E 288 82 3c 00
        E 0 b2 0b 7f
        E 0 92 41 7f
        E 144 82 41 00
        E 0 b2 0b 7f
        E 0 92 43 7f
        E 144 82 43 00
        E 0 b2 0b 7f
        E 0 92 44 7f
        E 288 82 44 00
        E 0 b2 0b 7f
        E 0 92 43 7f
        E 288 82 43 00
        E 0 b2 0b 7f
        E 0 92 3f 7f
        E 288 82 3f 00
        E 0 b2 0b 7f
        E 0 92 3a 7f
        E 288 82 3a 00
        E 0 b2 0b 7f
        E 0 92 37 7f
        E 288 82 37 00
        E 0 b2 0b 7f
        E 0 92 3f 7f
        E 144 82 3f 00
        E 0 b2 0b 7f
        E 0 92 3e 7f
        E 144 82 3e 00
        E 0 b2 0b 7f
        E 0 92 3f 7f
        E 576 82 3f 00
        E 0 b2 0b 7f
        E 0 92 41 7f
        E 288 82 41 00
        E 0 b2 0b 7f
        E 0 92 3d 7f
        E 288 82 3d 00
        E 0 b2 0b 7f
        E 0 92 3c 7f
        E 288 82 3c 00
        E 0 b2 0b 7f
        E 0 92 41 7f
        E 144 82 41 00
        E 0 b2 0b 7f
        E 0 92 43 7f
        E 144 82 43 00
        E 0 b2 0b 7f
        E 0 92 44 7f
        E 288 82 44 00
        E 0 b2 0b 7f
        E 0 92 43 7f
        E 288 82 43 00
        E 0 b2 0b 7f
        E 0 92 3f 7f
        E 288 82 3f 00
        E 0 b2 0b 7f
        E 0 92 3a 7f
        E 288 82 3a 00
        E 0 b2 0b 7f
        E 0 92 37 7f
        E 288 82 37 00
        E 0 b2 0b 7f
        E 0 92 3f 7f
        E 144 82 3f 00
        E 0 b2 0b 7f
        E 0 92 3e 7f
        E 144 82 3e 00
        E 0 b2 0b 7f
        E 0 92 3f 7f
        E 576 82 3f 00
        E 0 b2 0b 7f
        E 0 92 41 7f
        E 288 82 41 00
        E 0 b2 0b 7f
        E 0 92 3d 7f
        E 288 82 3d 00
        E 0 b2 0b 7f
        E 0 92 3c 7f
        E 288 82 3c 00
        E 0 b2 0b 7f
        E 0 92 41 7f
        E 144 82 41 00
        E 0 b2 0b 7f
        E 0 92 43 7f
        E 144 82 43 00
        E 0 b2 0b 7f
        E 0 92 44 7f
        E 288 82 44 00
        E 0 b2 0b 7f
        E 0 92 43 7f
        E 288 82 43 00
        E 0 b2 0b 7f
        E 0 92 3f 7f
        E 288 82 3f 00
        E 0 b2 0b 7f
        E 0 92 3a 7f
        E 288 82 3a 00
        E 0 b2 0b 7f
        E 0 92 37 7f
        E 288 82 37 00
        E 0 b2 0b 7f
        E 0 92 3f 7f
        E 144 82 3f 00
        E 0 b2 0b 7f
        E 0 92 3e 7f
        E 144 82 3e 00
        E 0 b2 0b 7f
        E 0 92 3f 7f
        E 576 82 3f 00
        E 0 b2 0b 7f
        E 0 92 41 7f
        E 288 82 41 00
        E 0 b2 0b 7f
        E 0 92 3d 7f
        E 288 82 3d 00
        E 0 b2 0b 7f
        E 0 92 44 7f
        E 432 82 44 00
        E 0 b2 0b 7f
        E 0 92 43 7f
        E 144 82 43 00
        E 0 b2 0b 7f
        E 0 92 41 7f
        E 288 82 41 00
        E 0 b2 0b 7f
        E 0 92 43 7f
        E 288 82 43 00
        E 0 b2 0b 7f
        E 0 92 3f 7f
        E 288 82 3f 00
        E 0 b2 0b 7f
        E 0 92 3a 7f
        E 288 82 3a 00
        E 0 b2 0b 7f
        E 0 92 37 7f
        E 288 82 37 00
        E 0 b2 0b 7f
        E 0 92 3f 7f
        E 144 82 3f 00
        E 0 b2 0b 7f
        E 0 92 3e 7f
        E 144 82 3e 00
        E 0 b2 0b 7f
        E 0 92 3f 7f
        E 576 82 3f 00
        E 0 b2 0b 7f
        E 0 92 41 7f
        E 288 82 41 00
        E 0 b2 0b 7f
        E 0 92 3d 7f
        E 288 82 3d 00
        E 0 b2 0b 7f
        E 0 92 3c 7f
        E 288 82 3c 00
        E 0 b2 0b 7f
        E 0 92 41 7f
        E 144 82 41 00
        E 0 b2 0b 7f
        E 0 92 43 7f
        E 144 82 43 00
        E 0 b2 0b 7f
        E 0 92 44 7f
        E 288 82 44 00
        E 0 b2 0b 7f
        E 0 92 43 7f
        E 288 82 43 00
        E 0 b2 0b 7f
        E 0 92 3f 7f
        E 288 82 3f 00
        E 0 b2 0b 7f
        E 0 92 3a 7f
        E 288 82 3a 00
        E 0 b2 0b 7f
        E 0 92 37 7f
        E 288 82 37 00
        E 0 b2 0b 7f
        E 0 92 3f 7f
        E 144 82 3f 00
        E 0 b2 0b 7f
        E 0 92 3e 7f
        E 144 82 3e 00
        E 0 b2 0b 7f
        E 0 92 3f 7f
        E 576 82 3f 00
        E 0 b2 0b 7f
        E 0 92 41 7f
        E 288 82 41 00
        E 0 b2 0b 7f
        E 0 92 3d 7f
        E 288 82 3d 00
        E 0 ff 2f 00
      >
    >
  >
  <TRACK {0716DFA8-25CA-4E8A-BEB7-EBCE38D149C7}
    NAME "NES - Noise / Drums"
    PEAKCOL 11184810
    BEAT -1
    AUTOMODE 0
    PANLAWFLAGS 3
    VOLPAN 1 0 -1 -1 1
    MUTESOLO 0 0 0
    IPHASE 0
    PLAYOFFS 0 1
    ISBUS 0 0
    BUSCOMP 0 0 0 0 0
    SHOWINMIX 1 0.6667 0.5 1 0.5 0 0 0
    FIXEDLANES 9 0 0 0 0
    SEL 0
    REC 0 5088 1 0 0 0 0 0
    VU 2
    TRACKHEIGHT 0 0 0 0 0 0 0
    INQ 0 0 0 0.5 100 0 0 100
    NCHAN 2
    FX 1
    TRACKID {0716DFA8-25CA-4E8A-BEB7-EBCE38D149C7}
    PERF 0
    MIDIOUT -1
    MAINSEND 1 0
    <FXCHAIN
      WNDRECT 24 52 700 560
      SHOW 0
      LASTSEL 0
      DOCKED 0
      BYPASS 0 0 0
      <JS "ReapNES Studio/ReapNES_Console.jsfx" ""
        2 15 1 10 80 10 100 2 1 15 1 5 60 10 80 1 1 0 50 0 0 15 1 0 100 0 0 0.500000 0.500000 0.400000 0.300000 0.800000 3 1 0 0 0 0 - - - - - - - - - - - - - - - - - - - - - - - - - -
      >
      FLOATPOS 0 0 0 0
      FXID {F3BCA5BB-A2DE-44A7-BB20-C7550C7CD8E0}
      WAK 0 0
    >
  >
>