<REAPER_PROJECT 0.1 "7.27/win64" 1707000000
  <NOTES 0 2
    |ReapNES Studio Project
    |MIDI Import - Wizards_&_Warriors_01_Wizards_&_Warriors_Title_v1
  >
  RIPPLE 0
  GROUPOVERRIDE 0 0 0
  AUTOXFADE 129
  ENVATTACH 3
  POOLEDENVATTACH 0
  MIXERUIFLAGS 11 48
  ENVFADESZ10 40
  PEAKGAIN 1
  FEEDBACK 0
  PANLAW 1
  PROJOFFS 0 0 0
  MAXPROJLEN 0 0
  GRID 3199 8 1 8 1 0 0 0
  TIMEMODE 1 5 -1 30 0 0 -1
  VIDEO_CONFIG 0 0 65792
  PANMODE 3
  PANLAWFLAGS 3
  CURSOR 0
  ZOOM 100 0 0
  VZOOMEX 6 0
  USE_REC_CFG 0
  RECMODE 1
  SMPTESYNC 0 30 100 40 1000 300 0 0 1 0 0
  LOOP 0
  LOOPGRAN 0 4
  RECORD_PATH "Media" ""
  <RECORD_CFG
    ZXZhdxgAAQ==
  >
  <APPLYFX_CFG
  >
  RENDER_FILE ""
  RENDER_PATTERN ""
  RENDER_FMT 0 2 0
  RENDER_1X 0
  RENDER_RANGE 1 0 0 18 1000
  RENDER_RESAMPLE 3 0 1
  RENDER_ADDTOPROJ 0
  RENDER_STEMS 0
  RENDER_DITHER 0
  TIMELOCKMODE 1
  TEMPOENVLOCKMODE 1
  ITEMMIX 1
  DEFPITCHMODE 589824 0
  TAKELANE 1
  SAMPLERATE 44100 0 0
  <RENDER_CFG
    ZXZhdxgAAQ==
  >
  LOCK 1
  <METRONOME 6 2
    VOL 0.25 0.125
    BEATLEN 4
    FREQ 1760 880 1
    SAMPLES "" ""
    SPLIGNORE 0 0
    SPLDEF 2 660 "" 0
    SPLDEF 3 440 "" 0
    PATTERN 0 169
    PATTERNSTR ABBB
    MULT 1
  >
  GLOBAL_AUTO -1
  TEMPO 128.59999614200012 4 4
  PLAYRATE 1 0 0.25 4
  SELECTION 0 0
  SELECTION2 0 0
  MASTERAUTOMODE 0
  MASTERTRACKHEIGHT 0 0
  MASTERPEAKCOL 16576
  MASTERMUTESOLO 0
  MASTERTRACKVIEW 0 0.6667 0.5 0.5 0 0 0 0 0 0 0 0 0 0
  MASTERHWOUT 0 0 1 0 0 0 0 -1
  MASTER_NCH 2 2
  MASTER_VOLUME 1 0 -1 -1 1
  MASTER_PANMODE 3
  MASTER_PANLAWFLAGS 3
  MASTER_FX 1
  MASTER_SEL 0
  <MASTERPLAYSPEEDENV
    EGUID {25D925FA-99D5-4567-84A5-BE9494A876C8}
    ACT 0 -1
    VIS 0 1 1
    LANEHEIGHT 0 0
    ARM 0
    DEFSHAPE 0 -1 -1
  >
  <TEMPOENVEX
    EGUID {E63A84C7-FC8F-4F1C-BE93-4EEBD022F677}
    ACT 1 -1
    VIS 1 0 1
    LANEHEIGHT 0 0
    ARM 0
    DEFSHAPE 1 -1 -1
  >
  <PROJBAY
  >
  <TRACK {C2EF9D65-084E-498A-9ABE-393E92F3ADCD}
    NAME "NES - Pulse 1 [ch0]"
    PEAKCOL 16576606
    BEAT -1
    AUTOMODE 0
    PANLAWFLAGS 3
    VOLPAN 1 0 -1 -1 1
    MUTESOLO 0 0 0
    IPHASE 0
    PLAYOFFS 0 1
    ISBUS 0 0
    BUSCOMP 0 0 0 0 0
    SHOWINMIX 1 0.6667 0.5 1 0.5 0 0 0
    FIXEDLANES 9 0 0 0 0
    SEL 1
    REC 1 5088 1 0 0 0 0 0
    VU 2
    TRACKHEIGHT 0 0 0 0 0 0 0
    INQ 0 0 0 0.5 100 0 0 100
    NCHAN 2
    FX 1
    TRACKID {C2EF9D65-084E-498A-9ABE-393E92F3ADCD}
    PERF 0
    MIDIOUT -1
    MAINSEND 1 0
    <FXCHAIN
      WNDRECT 24 52 700 560
      SHOW 0
      LASTSEL 0
      DOCKED 0
      BYPASS 0 0 0
      <JS "ReapNES Studio/ReapNES_Console.jsfx" ""
        2 15 1 10 80 10 100 2 1 15 1 5 60 10 80 1 1 0 50 0 0 15 1 0 100 0 0 0.500000 0.500000 0.400000 0.300000 0.800000 0 1 0 0 0 0 - - - - - - - - - - - - - - - - - - - - - - - - - -
      >
      FLOATPOS 0 0 0 0
      FXID {910A5C43-03ED-4D05-9E64-E20B3F8BE993}
      WAK 0 0
    >
    <ITEM
      POSITION 0
      LENGTH 83.98134
      LOOP 0
      ALLTAKES 0
      FADEIN 0 0 0 0 0 0 0
      FADEOUT 0 0 0 0 0 0 0
      MUTE 0 0
      SEL 0
      IGUID {481DCE2B-7994-4DEF-9E29-2A13612FE67B}
      <SOURCE MIDI
        HASDATA 1 480 QN
        CCINTERP 32
        E 0 c0 50
        E 8192 b0 0c 20
        E 0 b0 0b 28
        E 0 90 32 28
        E 768 80 32 00
        E 0 90 34 28
        E 128 80 34 00
        E 0 90 35 28
        E 128 80 35 00
        E 0 90 37 28
        E 768 80 37 00
        E 0 90 39 28
        E 128 80 39 00
        E 0 90 3a 28
        E 128 80 3a 00
        E 0 90 3c 28
        E 640 80 3c 00
        E 0 90 3a 28
        E 128 80 3a 00
        E 0 90 39 28
        E 128 80 39 00
        E 0 90 37 28
        E 128 80 37 00
        E 0 90 35 28
        E 256 80 35 00
        E 0 90 37 28
        E 256 80 37 00
        E 0 90 39 28
        E 256 80 39 00
        E 0 90 35 28
        E 256 80 35 00
        E 0 90 3a 28
        E 640 80 3a 00
        E 0 90 3c 28
        E 128 80 3c 00
        E 0 90 3a 28
        E 128 80 3a 00
        E 0 90 39 28
        E 128 80 39 00
        E 0 90 37 28
        E 640 80 37 00
        E 0 90 39 28
        E 128 80 39 00
        E 0 90 3a 28
        E 128 80 3a 00
        E 0 90 37 28
        E 128 80 37 00
        E 0 90 39 28
        E 1280 80 39 00
        E 0 90 37 28
        E 256 80 37 00
        E 0 90 35 28
        E 256 80 35 00
        E 0 90 34 28
        E 256 80 34 00
        E 0 90 32 28
        E 768 80 32 00
        E 0 90 34 28
        E 128 80 34 00
        E 0 90 35 28
        E 128 80 35 00
        E 0 90 37 28
        E 768 80 37 00
        E 0 90 39 28
        E 128 80 39 00
        E 0 90 3a 28
        E 128 80 3a 00
        E 0 90 3c 28
        E 640 80 3c 00
        E 0 90 3a 28
        E 128 80 3a 00
        E 0 90 39 28
        E 128 80 39 00
        E 0 90 37 28
        E 128 80 37 00
        E 0 90 35 28
        E 256 80 35 00
        E 0 90 37 28
        E 256 80 37 00
        E 0 90 39 28
        E 256 80 39 00
        E 0 90 35 28
        E 256 80 35 00
        E 0 90 3a 28
        E 640 80 3a 00
        E 0 90 3c 28
        E 128 80 3c 00
        E 0 90 3a 28
        E 128 80 3a 00
        E 0 90 39 28
        E 128 80 39 00
        E 0 90 37 28
        E 640 80 37 00
        E 0 90 39 28
        E 128 80 39 00
        E 0 90 3a 28
        E 128 80 3a 00
        E 0 90 37 28
        E 128 80 37 00
        E 0 90 39 28
        E 1280 80 39 00
        E 0 90 37 28
        E 256 80 37 00
        E 0 90 35 28
        E 256 80 35 00
        E 0 90 34 28
        E 256 80 34 00
        E 0 90 32 28
        E 768 80 32 00
        E 0 90 34 28
        E 128 80 34 00
        E 0 90 35 28
        E 128 80 35 00
        E 0 90 37 28
        E 768 80 37 00
        E 0 90 39 28
        E 128 80 39 00
        E 0 90 3a 28
        E 128 80 3a 00
        E 0 90 3c 28
        E 640 80 3c 00
        E 0 90 3a 28
        E 128 80 3a 00
        E 0 90 39 28
        E 128 80 39 00
        E 0 90 37 28
        E 128 80 37 00
        E 0 90 35 28
        E 256 80 35 00
        E 0 90 37 28
        E 256 80 37 00
        E 0 90 39 28
        E 256 80 39 00
        E 0 90 35 28
        E 256 80 35 00
        E 0 90 3a 28
        E 640 80 3a 00
        E 0 90 3c 28
        E 128 80 3c 00
        E 0 90 3a 28
        E 128 80 3a 00
        E 0 90 39 28
        E 128 80 39 00
        E 0 90 37 28
        E 640 80 37 00
        E 0 90 39 28
        E 128 80 39 00
        E 0 90 3a 28
        E 128 80 3a 00
        E 0 90 37 28
        E 128 80 37 00
        E 0 90 39 28
        E 1280 80 39 00
        E 0 90 37 28
        E 256 80 37 00
        E 0 90 35 28
        E 256 80 35 00
        E 0 90 34 28
        E 2176 80 34 00
        E 0 ff 2f 00
      >
    >
  >
  <TRACK {A05C0CAC-36EB-48C9-B941-A2C5320A5450}
    NAME "NES - Pulse 2 [ch1]"
    PEAKCOL 10092441
    BEAT -1
    AUTOMODE 0
    PANLAWFLAGS 3
    VOLPAN 1 0 -1 -1 1
    MUTESOLO 0 0 0
    IPHASE 0
    PLAYOFFS 0 1
    ISBUS 0 0
    BUSCOMP 0 0 0 0 0
    SHOWINMIX 1 0.6667 0.5 1 0.5 0 0 0
    FIXEDLANES 9 0 0 0 0
    SEL 0
    REC 0 5088 1 0 0 0 0 0
    VU 2
    TRACKHEIGHT 0 0 0 0 0 0 0
    INQ 0 0 0 0.5 100 0 0 100
    NCHAN 2
    FX 1
    TRACKID {A05C0CAC-36EB-48C9-B941-A2C5320A5450}
    PERF 0
    MIDIOUT -1
    MAINSEND 1 0
    <FXCHAIN
      WNDRECT 24 52 700 560
      SHOW 0
      LASTSEL 0
      DOCKED 0
      BYPASS 0 0 0
      <JS "ReapNES Studio/ReapNES_Console.jsfx" ""
        2 15 1 10 80 10 100 2 1 15 1 5 60 10 80 1 1 0 50 0 0 15 1 0 100 0 0 0.500000 0.500000 0.400000 0.300000 0.800000 1 1 0 0 0 0 - - - - - - - - - - - - - - - - - - - - - - - - - -
      >
      FLOATPOS 0 0 0 0
      FXID {1ECB9CB8-41F6-4257-8D73-2F63DBB11893}
      WAK 0 0
    >
    <ITEM
      POSITION 0
      LENGTH 83.98134
      LOOP 0
      ALLTAKES 0
      FADEIN 0 0 0 0 0 0 0
      FADEOUT 0 0 0 0 0 0 0
      MUTE 0 0
      SEL 0
      IGUID {4FFC8598-4B4A-4306-AAFF-ED1B10512501}
      <SOURCE MIDI
        HASDATA 1 480 QN
        CCINTERP 32
        E 0 c1 51
        E 0 b1 0c 20
        E 0 b1 0b 18
        E 0 91 4a 18
        E 128 81 4a 00
        E 0 91 45 18
        E 128 81 45 00
        E 0 91 4c 18
        E 128 81 4c 00
        E 0 91 45 18
        E 128 81 45 00
        E 0 91 4d 18
        E 128 81 4d 00
        E 0 91 45 18
        E 128 81 45 00
        E 0 91 4f 18
        E 128 81 4f 00
        E 0 91 45 18
        E 128 81 45 00
        E 0 91 46 18
        E 128 81 46 00
        E 0 91 43 18
        E 128 81 43 00
        E 0 91 4a 18
        E 128 81 4a 00
        E 0 91 43 18
        E 128 81 43 00
        E 0 91 4f 18
        E 128 81 4f 00
        E 0 91 43 18
        E 128 81 43 00
        E 0 91 4d 18
        E 128 81 4d 00
        E 0 91 43 18
        E 128 81 43 00
        E 0 91 4c 18
        E 128 81 4c 00
        E 0 91 48 18
        E 128 81 48 00
        E 0 91 4d 18
        E 128 81 4d 00
        E 0 91 48 18
        E 128 81 48 00
        E 0 91 4f 18
        E 128 81 4f 00
        E 0 91 43 18
        E 128 81 43 00
        E 0 91 48 18
        E 128 81 48 00
        E 0 91 43 18
        E 128 81 43 00
        E 0 91 46 18
        E 128 81 46 00
        E 0 91 41 18
        E 128 81 41 00
        E 0 91 45 18
        E 128 81 45 00
        E 0 91 41 18
        E 128 81 41 00
        E 0 91 4d 18
        E 128 81 4d 00
        E 0 91 41 18
        E 128 81 41 00
        E 0 91 4c 18
        E 128 81 4c 00
        E 0 91 41 18
        E 128 81 41 00
        E 0 91 4a 18
        E 128 81 4a 00
        E 0 91 46 18
        E 128 81 46 00
        E 0 91 4c 18
        E 128 81 4c 00
        E 0 91 46 18
        E 128 81 46 00
        E 0 91 4d 18
        E 128 81 4d 00
        E 0 91 46 18
        E 128 81 46 00
        E 0 91 4a 18
        E 128 81 4a 00
        E 0 91 46 18
        E 128 81 46 00
        E 0 91 4a 18
        E 128 81 4a 00
        E 0 91 43 18
        E 128 81 43 00
        E 0 91 4c 18
        E 128 81 4c 00
        E 0 91 43 18
        E 128 81 43 00
        E 0 91 4d 18
        E 128 81 4d 00
        E 0 91 43 18
        E 128 81 43 00
        E 0 91 4a 18
        E 128 81 4a 00
        E 0 91 43 18
        E 128 81 43 00
        E 0 91 4c 18
        E 128 81 4c 00
        E 0 91 45 18
        E 128 81 45 00
        E 0 91 49 18
        E 128 81 49 00
        E 0 91 45 18
        E 128 81 45 00
        E 0 91 4c 18
        E 128 81 4c 00
        E 0 91 45 18
        E 128 81 45 00
        E 0 91 49 18
        E 128 81 49 00
        E 0 91 45 18
        E 128 81 45 00
        E 0 91 51 18
        E 128 81 51 00
        E 0 91 45 18
        E 128 81 45 00
        E 0 91 49 18
        E 128 81 49 00
        E 0 91 45 18
        E 128 81 45 00
        E 0 91 51 18
        E 128 81 51 00
        E 0 91 49 18
        E 128 81 49 00
        E 0 91 51 18
        E 128 81 51 00
        E 0 91 45 18
        E 128 81 45 00
        E 0 91 4a 18
        E 128 81 4a 00
        E 0 91 45 18
        E 128 81 45 00
        E 0 91 4c 18
        E 128 81 4c 00
        E 0 91 45 18
        E 128 81 45 00
        E 0 91 4d 18
        E 128 81 4d 00
        E 0 91 45 18
        E 128 81 45 00
        E 0 91 4f 18
        E 128 81 4f 00
        E 0 91 45 18
        E 128 81 45 00
        E 0 91 46 18
        E 128 81 46 00
        E 0 91 43 18
        E 128 81 43 00
        E 0 91 4a 18
        E 128 81 4a 00
        E 0 91 43 18
        E 128 81 43 00
        E 0 91 4f 18
        E 128 81 4f 00
        E 0 91 43 18
        E 128 81 43 00
        E 0 91 4d 18
        E 128 81 4d 00
        E 0 91 43 18
        E 128 81 43 00
        E 0 91 4c 18
        E 128 81 4c 00
        E 0 91 48 18
        E 128 81 48 00
        E 0 91 4d 18
        E 128 81 4d 00
        E 0 91 48 18
        E 128 81 48 00
        E 0 91 4f 18
        E 128 81 4f 00
        E 0 91 43 18
        E 128 81 43 00
        E 0 91 48 18
        E 128 81 48 00
        E 0 91 43 18
        E 128 81 43 00
        E 0 91 46 18
        E 128 81 46 00
        E 0 91 41 18
        E 128 81 41 00
        E 0 91 45 18
        E 128 81 45 00
        E 0 91 41 18
        E 128 81 41 00
        E 0 91 4d 18
        E 128 81 4d 00
        E 0 91 41 18
        E 128 81 41 00
        E 0 91 4c 18
        E 128 81 4c 00
        E 0 91 41 18
        E 128 81 41 00
        E 0 91 4a 18
        E 128 81 4a 00
        E 0 91 46 18
        E 128 81 46 00
        E 0 91 4c 18
        E 128 81 4c 00
        E 0 91 46 18
        E 128 81 46 00
        E 0 91 4d 18
        E 128 81 4d 00
        E 0 91 46 18
        E 128 81 46 00
        E 0 91 4a 18
        E 128 81 4a 00
        E 0 91 46 18
        E 128 81 46 00
        E 0 91 4a 18
        E 128 81 4a 00
        E 0 91 43 18
        E 128 81 43 00
        E 0 91 4c 18
        E 128 81 4c 00
        E 0 91 43 18
        E 128 81 43 00
        E 0 91 4d 18
        E 128 81 4d 00
        E 0 91 43 18
        E 128 81 43 00
        E 0 91 4a 18
        E 128 81 4a 00
        E 0 91 43 18
        E 128 81 43 00
        E 0 91 4c 18
        E 128 81 4c 00
        E 0 91 45 18
        E 128 81 45 00
        E 0 91 49 18
        E 128 81 49 00
        E 0 91 45 18
        E 128 81 45 00
        E 0 91 4c 18
        E 128 81 4c 00
        E 0 91 45 18
        E 128 81 45 00
        E 0 91 49 18
        E 128 81 49 00
        E 0 91 45 18
        E 128 81 45 00
        E 0 91 51 18
        E 128 81 51 00
        E 0 91 45 18
        E 128 81 45 00
        E 0 91 49 18
        E 128 81 49 00
        E 0 91 45 18
        E 128 81 45 00
        E 0 91 51 18
        E 128 81 51 00
        E 0 91 49 18
        E 128 81 49 00
        E 0 91 51 18
        E 128 81 51 00
        E 0 91 45 18
        E 128 81 45 00
        E 0 91 4d 18
        E 128 81 4d 00
        E 0 91 45 18
        E 128 81 45 00
        E 0 91 4a 18
        E 128 81 4a 00
        E 0 91 45 18
        E 128 81 45 00
        E 0 91 4d 18
        E 128 81 4d 00
        E 0 91 4f 18
        E 128 81 4f 00
        E 0 91 51 18
        E 128 81 51 00
        E 0 91 45 18
        E 128 81 45 00
        E 0 91 51 18
        E 128 81 51 00
        E 0 91 46 18
        E 128 81 46 00
        E 0 91 4a 18
        E 128 81 4a 00
        E 0 91 52 18
        E 128 81 52 00
        E 0 91 51 18
        E 128 81 51 00
        E 0 91 46 18
        E 128 81 46 00
        E 0 91 4a 18
        E 128 81 4a 00
        E 0 91 52 18
        E 128 81 52 00
        E 0 91 4f 18
        E 128 81 4f 00
        E 0 91 43 18
        E 128 81 43 00
        E 0 91 48 18
        E 128 81 48 00
        E 0 91 43 18
        E 128 81 43 00
        E 0 91 4c 18
        E 128 81 4c 00
        E 0 91 4d 18
        E 128 81 4d 00
        E 0 91 4f 18
        E 128 81 4f 00
        E 0 91 48 18
        E 128 81 48 00
        E 0 91 4f 18
        E 128 81 4f 00
        E 0 91 45 18
        E 128 81 45 00
        E 0 91 48 18
        E 128 81 48 00
        E 0 91 51 18
        E 128 81 51 00
        E 0 91 4d 18
        E 128 81 4d 00
        E 0 91 45 18
        E 128 81 45 00
        E 0 91 4c 18
        E 128 81 4c 00
        E 0 91 48 18
        E 128 81 48 00
        E 0 91 4d 18
        E 128 81 4d 00
        E 0 91 46 18
        E 128 81 46 00
        E 0 91 4a 18
        E 128 81 4a 00
        E 0 91 46 18
        E 128 81 46 00
        E 0 91 4a 18
        E 128 81 4a 00
        E 0 91 4c 18
        E 128 81 4c 00
        E 0 91 4d 18
        E 128 81 4d 00
        E 0 91 46 18
        E 128 81 46 00
        E 0 91 4d 18
        E 128 81 4d 00
        E 0 91 43 18
        E 128 81 43 00
        E 0 91 46 18
        E 128 81 46 00
        E 0 91 43 18
        E 128 81 43 00
        E 0 91 4a 18
        E 128 81 4a 00
        E 0 91 4c 18
        E 128 81 4c 00
        E 0 91 4d 18
        E 128 81 4d 00
        E 0 91 43 18
        E 128 81 43 00
        E 0 91 4d 18
        E 128 81 4d 00
        E 0 91 45 18
        E 128 81 45 00
        E 0 91 49 18
        E 128 81 49 00
        E 0 91 45 18
        E 128 81 45 00
        E 0 91 4c 18
        E 128 81 4c 00
        E 0 91 45 18
        E 128 81 45 00
        E 0 91 49 18
        E 128 81 49 00
        E 0 91 45 18
        E 128 81 45 00
        E 0 91 51 18
        E 128 81 51 00
        E 0 91 45 18
        E 128 81 45 00
        E 0 91 49 18
        E 128 81 49 00
        E 0 91 45 18
        E 128 81 45 00
        E 0 91 51 18
        E 128 81 51 00
        E 0 91 49 18
        E 128 81 49 00
        E 0 91 51 18
        E 128 81 51 00
        E 0 91 45 18
        E 128 81 45 00
        E 0 91 4d 18
        E 128 81 4d 00
        E 0 91 45 18
        E 128 81 45 00
        E 0 91 4a 18
        E 128 81 4a 00
        E 0 91 45 18
        E 128 81 45 00
        E 0 91 4d 18
        E 128 81 4d 00
        E 0 91 4f 18
        E 128 81 4f 00
        E 0 91 51 18
        E 128 81 51 00
        E 0 91 45 18
        E 128 81 45 00
        E 0 91 51 18
        E 128 81 51 00
        E 0 91 46 18
        E 128 81 46 00
        E 0 91 4a 18
        E 128 81 4a 00
        E 0 91 52 18
        E 128 81 52 00
        E 0 91 51 18
        E 128 81 51 00
        E 0 91 46 18
        E 128 81 46 00
        E 0 91 4a 18
        E 128 81 4a 00
        E 0 91 52 18
        E 128 81 52 00
        E 0 91 4f 18
        E 128 81 4f 00
        E 0 91 43 18
        E 128 81 43 00
        E 0 91 48 18
        E 128 81 48 00
        E 0 91 43 18
        E 128 81 43 00
        E 0 91 4c 18
        E 128 81 4c 00
        E 0 91 4d 18
        E 128 81 4d 00
        E 0 91 4f 18
        E 128 81 4f 00
        E 0 91 48 18
        E 128 81 48 00
        E 0 91 4f 18
        E 128 81 4f 00
        E 0 91 45 18
        E 128 81 45 00
        E 0 91 48 18
        E 128 81 48 00
        E 0 91 51 18
        E 128 81 51 00
        E 0 91 4d 18
        E 128 81 4d 00
        E 0 91 45 18
        E 128 81 45 00
        E 0 91 4c 18
        E 128 81 4c 00
        E 0 91 48 18
        E 128 81 48 00
        E 0 91 4d 18
        E 128 81 4d 00
        E 0 91 46 18
        E 128 81 46 00
        E 0 91 4a 18
        E 128 81 4a 00
        E 0 91 46 18
        E 128 81 46 00
        E 0 91 4a 18
        E 128 81 4a 00
        E 0 91 4c 18
        E 128 81 4c 00
        E 0 91 4d 18
        E 128 81 4d 00
        E 0 91 46 18
        E 128 81 46 00
        E 0 91 4d 18
        E 128 81 4d 00
        E 0 91 43 18
        E 128 81 43 00
        E 0 91 46 18
        E 128 81 46 00
        E 0 91 43 18
        E 128 81 43 00
        E 0 91 4a 18
        E 128 81 4a 00
        E 0 91 4c 18
        E 128 81 4c 00
        E 0 91 4d 18
        E 128 81 4d 00
        E 0 91 43 18
        E 128 81 43 00
        E 0 91 4d 18
        E 128 81 4d 00
        E 0 91 45 18
        E 128 81 45 00
        E 0 91 49 18
        E 128 81 49 00
        E 0 91 45 18
        E 128 81 45 00
        E 0 91 4c 18
        E 128 81 4c 00
        E 0 91 45 18
        E 128 81 45 00
        E 0 91 49 18
        E 128 81 49 00
        E 0 91 45 18
        E 128 81 45 00
        E 0 91 51 18
        E 128 81 51 00
        E 0 91 45 18
        E 128 81 45 00
        E 0 91 49 18
        E 128 81 49 00
        E 0 91 45 18
        E 128 81 45 00
        E 0 91 51 18
        E 128 81 51 00
        E 0 91 49 18
        E 128 81 49 00
        E 0 91 51 18
        E 128 81 51 00
        E 0 91 45 18
        E 128 b1 0c 40
        E 0 b1 0b 68
        E 0 81 45 00
        E 0 91 4a 68
        E 128 81 4a 00
        E 0 91 45 68
        E 128 81 45 00
        E 0 91 4c 68
        E 128 81 4c 00
        E 0 91 4d 68
        E 128 b1 0b 48
        E 0 81 4d 00
        E 0 91 4a 48
        E 128 81 4a 00
        E 0 91 45 48
        E 128 81 45 00
        E 0 91 4c 48
        E 128 81 4c 00
        E 0 91 4d 48
        E 128 b1 0b 30
        E 0 81 4d 00
        E 0 91 4a 30
        E 128 81 4a 00
        E 0 91 45 30
        E 128 81 45 00
        E 0 91 4c 30
        E 128 81 4c 00
        E 0 91 4d 30
        E 128 b1 0b 18
        E 0 81 4d 00
        E 0 91 4a 18
        E 384 81 4a 00
        E 0 ff 2f 00
      >
    >
  >
  <TRACK {799A45FD-1853-49E9-A507-859A6115481E}
    NAME "NES - Triangle [ch2]"
    PEAKCOL 16744192
    BEAT -1
    AUTOMODE 0
    PANLAWFLAGS 3
    VOLPAN 1 0 -1 -1 1
    MUTESOLO 0 0 0
    IPHASE 0
    PLAYOFFS 0 1
    ISBUS 0 0
    BUSCOMP 0 0 0 0 0
    SHOWINMIX 1 0.6667 0.5 1 0.5 0 0 0
    FIXEDLANES 9 0 0 0 0
    SEL 0
    REC 0 5088 1 0 0 0 0 0
    VU 2
    TRACKHEIGHT 0 0 0 0 0 0 0
    INQ 0 0 0 0.5 100 0 0 100
    NCHAN 2
    FX 1
    TRACKID {799A45FD-1853-49E9-A507-859A6115481E}
    PERF 0
    MIDIOUT -1
    MAINSEND 1 0
    <FXCHAIN
      WNDRECT 24 52 700 560
      SHOW 0
      LASTSEL 0
      DOCKED 0
      BYPASS 0 0 0
      <JS "ReapNES Studio/ReapNES_Console.jsfx" ""
        2 15 1 10 80 10 100 2 1 15 1 5 60 10 80 1 1 0 50 0 0 15 1 0 100 0 0 0.500000 0.500000 0.400000 0.300000 0.800000 2 1 0 0 0 0 - - - - - - - - - - - - - - - - - - - - - - - - - -
      >
      FLOATPOS 0 0 0 0
      FXID {4BAF0A3E-6E8A-4C1F-8A8B-59BAE47584E5}
      WAK 0 0
    >
    <ITEM
      POSITION 0
      LENGTH 83.98134
      LOOP 0
      ALLTAKES 0
      FADEIN 0 0 0 0 0 0 0
      FADEOUT 0 0 0 0 0 0 0
      MUTE 0 0
      SEL 0
      IGUID {817227FD-8CFE-4769-B1DD-DB756692E125}
      <SOURCE MIDI
        HASDATA 1 480 QN
        CCINTERP 32
        E 0 c2 26
        E 8192 b2 0b 7f
        E 0 92 26 7f
        E 512 82 26 00
        E 0 b2 0b 7f
        E 0 92 32 7f
        E 512 82 32 00
        E 0 b2 0b 7f
        E 0 92 37 7f
        E 512 82 37 00
        E 0 b2 0b 7f
        E 0 92 2b 7f
        E 512 82 2b 00
        E 0 b2 0b 7f
        E 0 92 24 7f
        E 512 82 24 00
        E 0 b2 0b 7f
        E 0 92 30 7f
        E 512 82 30 00
        E 0 b2 0b 7f
        E 0 92 35 7f
        E 512 82 35 00
        E 0 b2 0b 7f
        E 0 92 29 7f
        E 512 82 29 00
        E 0 b2 0b 7f
        E 0 92 22 7f
        E 512 82 22 00
        E 0 b2 0b 7f
        E 0 92 2e 7f
        E 512 82 2e 00
        E 0 b2 0b 7f
        E 0 92 37 7f
        E 512 82 37 00
        E 0 b2 0b 7f
        E 0 92 2b 7f
        E 512 82 2b 00
        E 0 b2 0b 7f
        E 0 92 2d 7f
        E 512 82 2d 00
        E 0 b2 0b 7f
        E 0 92 39 7f
        E 768 82 39 00
        E 0 b2 0b 7f
        E 0 92 37 7f
        E 256 82 37 00
        E 0 b2 0b 7f
        E 0 92 35 7f
        E 256 82 35 00
        E 0 b2 0b 7f
        E 0 92 34 7f
        E 256 82 34 00
        E 0 b2 0b 7f
        E 0 92 26 7f
        E 512 82 26 00
        E 0 b2 0b 7f
        E 0 92 32 7f
        E 512 82 32 00
        E 0 b2 0b 7f
        E 0 92 37 7f
        E 512 82 37 00
        E 0 b2 0b 7f
        E 0 92 2b 7f
        E 512 82 2b 00
        E 0 b2 0b 7f
        E 0 92 24 7f
        E 512 82 24 00
        E 0 b2 0b 7f
        E 0 92 30 7f
        E 512 82 30 00
        E 0 b2 0b 7f
        E 0 92 35 7f
        E 512 82 35 00
        E 0 b2 0b 7f
        E 0 92 29 7f
        E 512 82 29 00
        E 0 b2 0b 7f
        E 0 92 22 7f
        E 512 82 22 00
        E 0 b2 0b 7f
        E 0 92 2e 7f
        E 512 82 2e 00
        E 0 b2 0b 7f
        E 0 92 37 7f
        E 512 82 37 00
        E 0 b2 0b 7f
        E 0 92 2b 7f
        E 512 82 2b 00
        E 0 b2 0b 7f
        E 0 92 2d 7f
        E 512 82 2d 00
        E 0 b2 0b 7f
        E 0 92 39 7f
        E 768 82 39 00
        E 0 b2 0b 7f
        E 0 92 37 7f
        E 256 82 37 00
        E 0 b2 0b 7f
        E 0 92 35 7f
        E 256 82 35 00
        E 0 b2 0b 7f
        E 0 92 34 7f
        E 256 82 34 00
        E 0 b2 0b 7f
        E 0 92 26 7f
        E 512 82 26 00
        E 0 b2 0b 7f
        E 0 92 32 7f
        E 512 82 32 00
        E 0 b2 0b 7f
        E 0 92 37 7f
        E 512 82 37 00
        E 0 b2 0b 7f
        E 0 92 2b 7f
        E 512 82 2b 00
        E 0 b2 0b 7f
        E 0 92 24 7f
        E 512 82 24 00
        E 0 b2 0b 7f
        E 0 92 30 7f
        E 512 82 30 00
        E 0 b2 0b 7f
        E 0 92 35 7f
        E 512 82 35 00
        E 0 b2 0b 7f
        E 0 92 29 7f
        E 512 82 29 00
        E 0 b2 0b 7f
        E 0 92 22 7f
        E 512 82 22 00
        E 0 b2 0b 7f
        E 0 92 2e 7f
        E 512 82 2e 00
        E 0 b2 0b 7f
        E 0 92 37 7f
        E 512 82 37 00
        E 0 b2 0b 7f
        E 0 92 2b 7f
        E 512 82 2b 00
        E 0 b2 0b 7f
        E 0 92 2d 7f
        E 512 82 2d 00
        E 0 b2 0b 7f
        E 0 92 39 7f
        E 768 82 39 00
        E 0 b2 0b 7f
        E 0 92 37 7f
        E 256 82 37 00
        E 0 b2 0b 7f
        E 0 92 35 7f
        E 256 82 35 00
        E 0 b2 0b 7f
        E 0 92 34 7f
        E 256 82 34 00
        E 0 b2 0b 7f
        E 0 92 26 7f
        E 53632 82 26 00
        E 0 ff 2f 00
      >
    >
  >
  <TRACK {2A72205E-B37C-4554-86E6-6D6DA516AA92}
    NAME "NES - Noise / Drums"
    PEAKCOL 11184810
    BEAT -1
    AUTOMODE 0
    PANLAWFLAGS 3
    VOLPAN 1 0 -1 -1 1
    MUTESOLO 0 0 0
    IPHASE 0
    PLAYOFFS 0 1
    ISBUS 0 0
    BUSCOMP 0 0 0 0 0
    SHOWINMIX 1 0.6667 0.5 1 0.5 0 0 0
    FIXEDLANES 9 0 0 0 0
    SEL 0
    REC 0 5088 1 0 0 0 0 0
    VU 2
    TRACKHEIGHT 0 0 0 0 0 0 0
    INQ 0 0 0 0.5 100 0 0 100
    NCHAN 2
    FX 1
    TRACKID {2A72205E-B37C-4554-86E6-6D6DA516AA92}
    PERF 0
    MIDIOUT -1
    MAINSEND 1 0
    <FXCHAIN
      WNDRECT 24 52 700 560
      SHOW 0
      LASTSEL 0
      DOCKED 0
      BYPASS 0 0 0
      <JS "ReapNES Studio/ReapNES_Console.jsfx" ""
        2 15 1 10 80 10 100 2 1 15 1 5 60 10 80 1 1 0 50 0 0 15 1 0 100 0 0 0.500000 0.500000 0.400000 0.300000 0.800000 3 1 0 0 0 0 - - - - - - - - - - - - - - - - - - - - - - - - - -
      >
      FLOATPOS 0 0 0 0
      FXID {2491B497-CDA1-4466-9A9C-EB529CCA43A9}
      WAK 0 0
    >
  >
>