<REAPER_PROJECT 0.1 "7.27/win64" 1707000000
  <NOTES 0 2
    |ReapNES Studio Project
    |MIDI Import - Wizards_&_Warriors_06_Initial_Registration_v1
  >
  RIPPLE 0
  GROUPOVERRIDE 0 0 0
  AUTOXFADE 129
  ENVATTACH 3
  POOLEDENVATTACH 0
  MIXERUIFLAGS 11 48
  ENVFADESZ10 40
  PEAKGAIN 1
  FEEDBACK 0
  PANLAW 1
  PROJOFFS 0 0 0
  MAXPROJLEN 0 0
  GRID 3199 8 1 8 1 0 0 0
  TIMEMODE 1 5 -1 30 0 0 -1
  VIDEO_CONFIG 0 0 65792
  PANMODE 3
  PANLAWFLAGS 3
  CURSOR 0
  ZOOM 100 0 0
  VZOOMEX 6 0
  USE_REC_CFG 0
  RECMODE 1
  SMPTESYNC 0 30 100 40 1000 300 0 0 1 0 0
  LOOP 0
  LOOPGRAN 0 4
  RECORD_PATH "Media" ""
  <RECORD_CFG
    ZXZhdxgAAQ==
  >
  <APPLYFX_CFG
  >
  RENDER_FILE ""
  RENDER_PATTERN ""
  RENDER_FMT 0 2 0
  RENDER_1X 0
  RENDER_RANGE 1 0 0 18 1000
  RENDER_RESAMPLE 3 0 1
  RENDER_ADDTOPROJ 0
  RENDER_STEMS 0
  RENDER_DITHER 0
  TIMELOCKMODE 1
  TEMPOENVLOCKMODE 1
  ITEMMIX 1
  DEFPITCHMODE 589824 0
  TAKELANE 1
  SAMPLERATE 44100 0 0
  <RENDER_CFG
    ZXZhdxgAAQ==
  >
  LOCK 1
  <METRONOME 6 2
    VOL 0.25 0.125
    BEATLEN 4
    FREQ 1760 880 1
    SAMPLES "" ""
    SPLIGNORE 0 0
    SPLDEF 2 660 "" 0
    SPLDEF 3 440 "" 0
    PATTERN 0 169
    PATTERNSTR ABBB
    MULT 1
  >
  GLOBAL_AUTO -1
  TEMPO 128.59999614200012 4 4
  PLAYRATE 1 0 0.25 4
  SELECTION 0 0
  SELECTION2 0 0
  MASTERAUTOMODE 0
  MASTERTRACKHEIGHT 0 0
  MASTERPEAKCOL 16576
  MASTERMUTESOLO 0
  MASTERTRACKVIEW 0 0.6667 0.5 0.5 0 0 0 0 0 0 0 0 0 0
  MASTERHWOUT 0 0 1 0 0 0 0 -1
  MASTER_NCH 2 2
  MASTER_VOLUME 1 0 -1 -1 1
  MASTER_PANMODE 3
  MASTER_PANLAWFLAGS 3
  MASTER_FX 1
  MASTER_SEL 0
  <MASTERPLAYSPEEDENV
    EGUID {8641DF6C-4991-45CF-82A7-492B422BA0F7}
    ACT 0 -1
    VIS 0 1 1
    LANEHEIGHT 0 0
    ARM 0
    DEFSHAPE 0 -1 -1
  >
  <TEMPOENVEX
    EGUID {A23D96F0-5727-4682-814B-346D95A1BDE0}
    ACT 1 -1
    VIS 1 0 1
    LANEHEIGHT 0 0
    ARM 0
    DEFSHAPE 1 -1 -1
  >
  <PROJBAY
  >
  <TRACK {EB1519B0-D1DE-4FF2-A4B5-4CA1765C0D86}
    NAME "NES - Pulse 1 [ch0]"
    PEAKCOL 16576606
    BEAT -1
    AUTOMODE 0
    PANLAWFLAGS 3
    VOLPAN 1 0 -1 -1 1
    MUTESOLO 0 0 0
    IPHASE 0
    PLAYOFFS 0 1
    ISBUS 0 0
    BUSCOMP 0 0 0 0 0
    SHOWINMIX 1 0.6667 0.5 1 0.5 0 0 0
    FIXEDLANES 9 0 0 0 0
    SEL 1
    REC 1 5088 1 0 0 0 0 0
    VU 2
    TRACKHEIGHT 0 0 0 0 0 0 0
    INQ 0 0 0 0.5 100 0 0 100
    NCHAN 2
    FX 1
    TRACKID {EB1519B0-D1DE-4FF2-A4B5-4CA1765C0D86}
    PERF 0
    MIDIOUT -1
    MAINSEND 1 0
    <FXCHAIN
      WNDRECT 24 52 700 560
      SHOW 0
      LASTSEL 0
      DOCKED 0
      BYPASS 0 0 0
      <JS "ReapNES Studio/ReapNES_Console.jsfx" ""
        2 15 1 10 80 10 100 2 1 15 1 5 60 10 80 1 1 0 50 0 0 15 1 0 100 0 0 0.500000 0.500000 0.400000 0.300000 0.800000 0 1 0 0 0 0 - - - - - - - - - - - - - - - - - - - - - - - - - -
      >
      FLOATPOS 0 0 0 0
      FXID {5E489E5C-54F5-44F1-8E5C-38CF72C62433}
      WAK 0 0
    >
    <ITEM
      POSITION 0
      LENGTH 83.98134
      LOOP 0
      ALLTAKES 0
      FADEIN 0 0 0 0 0 0 0
      FADEOUT 0 0 0 0 0 0 0
      MUTE 0 0
      SEL 0
      IGUID {3A387E46-2453-4D1C-92CE-977B24E34B73}
      <SOURCE MIDI
        HASDATA 1 480 QN
        CCINTERP 32
        E 0 c0 50
        E 384 b0 0c 40
        E 0 b0 0b 18
        E 0 90 37 18
        E 384 80 37 00
        E 0 90 3a 18
        E 960 80 3a 00
        E 0 90 33 18
        E 384 80 33 00
        E 0 90 35 18
        E 1344 80 35 00
        E 0 90 37 18
        E 384 80 37 00
        E 0 90 3a 18
        E 960 80 3a 00
        E 0 90 39 18
        E 384 80 39 00
        E 0 90 3b 18
        E 1344 80 3b 00
        E 0 90 37 18
        E 384 80 37 00
        E 0 90 3a 18
        E 960 80 3a 00
        E 0 90 33 18
        E 384 80 33 00
        E 0 90 35 18
        E 1344 80 35 00
        E 0 90 37 18
        E 384 80 37 00
        E 0 90 3a 18
        E 960 80 3a 00
        E 0 90 39 18
        E 384 80 39 00
        E 0 90 3b 18
        E 1344 80 3b 00
        E 0 90 37 18
        E 384 80 37 00
        E 0 90 3a 18
        E 960 80 3a 00
        E 0 90 33 18
        E 384 80 33 00
        E 0 90 35 18
        E 1344 80 35 00
        E 0 90 37 18
        E 384 80 37 00
        E 0 90 3a 18
        E 960 80 3a 00
        E 0 90 39 18
        E 384 80 39 00
        E 0 90 3b 18
        E 1344 80 3b 00
        E 0 90 37 18
        E 384 80 37 00
        E 0 90 3a 18
        E 960 80 3a 00
        E 0 90 33 18
        E 384 80 33 00
        E 0 90 35 18
        E 1344 80 35 00
        E 0 90 37 18
        E 384 80 37 00
        E 0 90 3a 18
        E 960 80 3a 00
        E 0 90 39 18
        E 384 80 39 00
        E 0 90 3b 18
        E 960 80 3b 00
        E 0 ff 2f 00
      >
    >
  >
  <TRACK {D3138654-4AA7-442F-AB93-1B61C37D989A}
    NAME "NES - Pulse 2 [ch1]"
    PEAKCOL 10092441
    BEAT -1
    AUTOMODE 0
    PANLAWFLAGS 3
    VOLPAN 1 0 -1 -1 1
    MUTESOLO 0 0 0
    IPHASE 0
    PLAYOFFS 0 1
    ISBUS 0 0
    BUSCOMP 0 0 0 0 0
    SHOWINMIX 1 0.6667 0.5 1 0.5 0 0 0
    FIXEDLANES 9 0 0 0 0
    SEL 0
    REC 0 5088 1 0 0 0 0 0
    VU 2
    TRACKHEIGHT 0 0 0 0 0 0 0
    INQ 0 0 0 0.5 100 0 0 100
    NCHAN 2
    FX 1
    TRACKID {D3138654-4AA7-442F-AB93-1B61C37D989A}
    PERF 0
    MIDIOUT -1
    MAINSEND 1 0
    <FXCHAIN
      WNDRECT 24 52 700 560
      SHOW 0
      LASTSEL 0
      DOCKED 0
      BYPASS 0 0 0
      <JS "ReapNES Studio/ReapNES_Console.jsfx" ""
        2 15 1 10 80 10 100 2 1 15 1 5 60 10 80 1 1 0 50 0 0 15 1 0 100 0 0 0.500000 0.500000 0.400000 0.300000 0.800000 1 1 0 0 0 0 - - - - - - - - - - - - - - - - - - - - - - - - - -
      >
      FLOATPOS 0 0 0 0
      FXID {08E401D5-E14A-4D78-9CE1-FC3D77201CAA}
      WAK 0 0
    >
    <ITEM
      POSITION 0
      LENGTH 83.98134
      LOOP 0
      ALLTAKES 0
      FADEIN 0 0 0 0 0 0 0
      FADEOUT 0 0 0 0 0 0 0
      MUTE 0 0
      SEL 0
      IGUID {88479DCE-F07F-41A8-9CC9-CE587A6361FF}
      <SOURCE MIDI
        HASDATA 1 480 QN
        CCINTERP 32
        E 0 c1 51
        E 384 b1 0c 40
        E 0 b1 0b 18
        E 0 91 3f 18
        E 576 81 3f 00
        E 0 91 3c 18
        E 1152 81 3c 00
        E 0 91 3e 18
        E 1344 81 3e 00
        E 0 91 3f 18
        E 576 81 3f 00
        E 0 91 3c 18
        E 1152 81 3c 00
        E 0 91 3e 18
        E 1344 81 3e 00
        E 0 91 3f 18
        E 576 81 3f 00
        E 0 91 3c 18
        E 1152 81 3c 00
        E 0 91 3e 18
        E 1344 81 3e 00
        E 0 91 3f 18
        E 576 81 3f 00
        E 0 91 3c 18
        E 1152 81 3c 00
        E 0 91 3e 18
        E 960 81 3e 00
        E 0 91 3f 18
        E 192 81 3f 00
        E 0 91 41 18
        E 192 81 41 00
        E 0 91 3f 18
        E 192 81 3f 00
        E 0 91 3c 18
        E 192 81 3c 00
        E 0 91 3f 18
        E 192 81 3f 00
        E 0 91 3c 18
        E 192 81 3c 00
        E 0 91 3a 18
        E 192 81 3a 00
        E 0 91 37 18
        E 384 81 37 00
        E 0 91 3c 18
        E 384 81 3c 00
        E 0 91 3e 18
        E 960 81 3e 00
        E 0 91 3f 18
        E 192 81 3f 00
        E 0 91 41 18
        E 192 81 41 00
        E 0 91 43 18
        E 192 81 43 00
        E 0 91 3c 18
        E 192 81 3c 00
        E 0 91 3f 18
        E 192 81 3f 00
        E 0 91 3c 18
        E 192 81 3c 00
        E 0 91 3a 18
        E 192 81 3a 00
        E 0 91 3c 18
        E 768 81 3c 00
        E 0 91 3e 18
        E 960 81 3e 00
        E 0 ff 2f 00
      >
    >
  >
  <TRACK {3AEEE2A5-3442-4710-ABF4-CAF10EC87BFB}
    NAME "NES - Triangle [ch2]"
    PEAKCOL 16744192
    BEAT -1
    AUTOMODE 0
    PANLAWFLAGS 3
    VOLPAN 1 0 -1 -1 1
    MUTESOLO 0 0 0
    IPHASE 0
    PLAYOFFS 0 1
    ISBUS 0 0
    BUSCOMP 0 0 0 0 0
    SHOWINMIX 1 0.6667 0.5 1 0.5 0 0 0
    FIXEDLANES 9 0 0 0 0
    SEL 0
    REC 0 5088 1 0 0 0 0 0
    VU 2
    TRACKHEIGHT 0 0 0 0 0 0 0
    INQ 0 0 0 0.5 100 0 0 100
    NCHAN 2
    FX 1
    TRACKID {3AEEE2A5-3442-4710-ABF4-CAF10EC87BFB}
    PERF 0
    MIDIOUT -1
    MAINSEND 1 0
    <FXCHAIN
      WNDRECT 24 52 700 560
      SHOW 0
      LASTSEL 0
      DOCKED 0
      BYPASS 0 0 0
      <JS "ReapNES Studio/ReapNES_Console.jsfx" ""
        2 15 1 10 80 10 100 2 1 15 1 5 60 10 80 1 1 0 50 0 0 15 1 0 100 0 0 0.500000 0.500000 0.400000 0.300000 0.800000 2 1 0 0 0 0 - - - - - - - - - - - - - - - - - - - - - - - - - -
      >
      FLOATPOS 0 0 0 0
      FXID {0CBF3E21-AA92-4212-83B4-D4959FB82296}
      WAK 0 0
    >
    <ITEM
      POSITION 0
      LENGTH 83.98134
      LOOP 0
      ALLTAKES 0
      FADEIN 0 0 0 0 0 0 0
      FADEOUT 0 0 0 0 0 0 0
      MUTE 0 0
      SEL 0
      IGUID {25F99EEE-8E58-4709-AF9F-DB442000CDEF}
      <SOURCE MIDI
        HASDATA 1 480 QN
        CCINTERP 32
        E 0 c2 26
        E 0 b2 0b 7f
        E 0 92 30 7f
        E 192 82 30 00
        E 0 b2 0b 7f
        E 0 92 37 7f
        E 192 82 37 00
        E 0 b2 0b 7f
        E 0 92 3c 7f
        E 192 82 3c 00
        E 0 b2 0b 7f
        E 0 92 3a 7f
        E 192 82 3a 00
        E 0 b2 0b 7f
        E 0 92 37 7f
        E 192 82 37 00
        E 0 b2 0b 7f
        E 0 92 35 7f
        E 192 82 35 00
        E 0 b2 0b 7f
        E 0 92 33 7f
        E 192 82 33 00
        E 0 b2 0b 7f
        E 0 92 30 7f
        E 192 82 30 00
        E 0 b2 0b 7f
        E 0 92 29 7f
        E 192 82 29 00
        E 0 b2 0b 7f
        E 0 92 35 7f
        E 192 82 35 00
        E 0 b2 0b 7f
        E 0 92 2a 7f
        E 192 82 2a 00
        E 0 b2 0b 7f
        E 0 92 2b 7f
        E 384 82 2b 00
        E 0 b2 0b 7f
        E 0 92 37 7f
        E 192 82 37 00
        E 0 b2 0b 7f
        E 0 92 2e 7f
        E 192 82 2e 00
        E 0 b2 0b 7f
        E 0 92 2f 7f
        E 192 82 2f 00
        E 0 b2 0b 7f
        E 0 92 30 7f
        E 192 82 30 00
        E 0 b2 0b 7f
        E 0 92 3c 7f
        E 192 82 3c 00
        E 0 b2 0b 7f
        E 0 92 30 7f
        E 192 82 30 00
        E 0 b2 0b 7f
        E 0 92 32 7f
        E 192 82 32 00
        E 0 b2 0b 7f
        E 0 92 33 7f
        E 192 82 33 00
        E 0 b2 0b 7f
        E 0 92 3f 7f
        E 192 82 3f 00
        E 0 b2 0b 7f
        E 0 92 33 7f
        E 192 82 33 00
        E 0 b2 0b 7f
        E 0 92 34 7f
        E 192 82 34 00
        E 0 b2 0b 7f
        E 0 92 29 7f
        E 192 82 29 00
        E 0 b2 0b 7f
        E 0 92 35 7f
        E 192 82 35 00
        E 0 b2 0b 7f
        E 0 92 2a 7f
        E 192 82 2a 00
        E 0 b2 0b 7f
        E 0 92 2b 7f
        E 384 82 2b 00
        E 0 b2 0b 7f
        E 0 92 37 7f
        E 192 82 37 00
        E 0 b2 0b 7f
        E 0 92 2e 7f
        E 192 82 2e 00
        E 0 b2 0b 7f
        E 0 92 2f 7f
        E 192 82 2f 00
        E 0 b2 0b 7f
        E 0 92 30 7f
        E 192 82 30 00
        E 0 b2 0b 7f
        E 0 92 37 7f
        E 192 82 37 00
        E 0 b2 0b 7f
        E 0 92 3c 7f
        E 192 82 3c 00
        E 0 b2 0b 7f
        E 0 92 3a 7f
        E 192 82 3a 00
        E 0 b2 0b 7f
        E 0 92 37 7f
        E 192 82 37 00
        E 0 b2 0b 7f
        E 0 92 35 7f
        E 192 82 35 00
        E 0 b2 0b 7f
        E 0 92 33 7f
        E 192 82 33 00
        E 0 b2 0b 7f
        E 0 92 30 7f
        E 192 82 30 00
        E 0 b2 0b 7f
        E 0 92 29 7f
        E 192 82 29 00
        E 0 b2 0b 7f
        E 0 92 35 7f
        E 192 82 35 00
        E 0 b2 0b 7f
        E 0 92 2a 7f
        E 192 82 2a 00
        E 0 b2 0b 7f
        E 0 92 2b 7f
        E 384 82 2b 00
        E 0 b2 0b 7f
        E 0 92 37 7f
        E 192 82 37 00
        E 0 b2 0b 7f
        E 0 92 2e 7f
        E 192 82 2e 00
        E 0 b2 0b 7f
        E 0 92 2f 7f
        E 192 82 2f 00
        E 0 b2 0b 7f
        E 0 92 30 7f
        E 192 82 30 00
        E 0 b2 0b 7f
        E 0 92 3c 7f
        E 192 82 3c 00
        E 0 b2 0b 7f
        E 0 92 30 7f
        E 192 82 30 00
        E 0 b2 0b 7f
        E 0 92 32 7f
        E 192 82 32 00
        E 0 b2 0b 7f
        E 0 92 33 7f
        E 192 82 33 00
        E 0 b2 0b 7f
        E 0 92 3f 7f
        E 192 82 3f 00
        E 0 b2 0b 7f
        E 0 92 33 7f
        E 192 82 33 00
        E 0 b2 0b 7f
        E 0 92 34 7f
        E 192 82 34 00
        E 0 b2 0b 7f
        E 0 92 29 7f
        E 192 82 29 00
        E 0 b2 0b 7f
        E 0 92 35 7f
        E 192 82 35 00
        E 0 b2 0b 7f
        E 0 92 2a 7f
        E 192 82 2a 00
        E 0 b2 0b 7f
        E 0 92 2b 7f
        E 384 82 2b 00
        E 0 b2 0b 7f
        E 0 92 37 7f
        E 192 82 37 00
        E 0 b2 0b 7f
        E 0 92 2e 7f
        E 192 82 2e 00
        E 0 b2 0b 7f
        E 0 92 2f 7f
        E 192 82 2f 00
        E 0 b2 0b 7f
        E 0 92 30 7f
        E 192 82 30 00
        E 0 b2 0b 7f
        E 0 92 37 7f
        E 192 82 37 00
        E 0 b2 0b 7f
        E 0 92 3c 7f
        E 192 82 3c 00
        E 0 b2 0b 7f
        E 0 92 3a 7f
        E 192 82 3a 00
        E 0 b2 0b 7f
        E 0 92 37 7f
        E 192 82 37 00
        E 0 b2 0b 7f
        E 0 92 35 7f
        E 192 82 35 00
        E 0 b2 0b 7f
        E 0 92 33 7f
        E 192 82 33 00
        E 0 b2 0b 7f
        E 0 92 30 7f
        E 192 82 30 00
        E 0 b2 0b 7f
        E 0 92 29 7f
        E 192 82 29 00
        E 0 b2 0b 7f
        E 0 92 35 7f
        E 192 82 35 00
        E 0 b2 0b 7f
        E 0 92 2a 7f
        E 192 82 2a 00
        E 0 b2 0b 7f
        E 0 92 2b 7f
        E 384 82 2b 00
        E 0 b2 0b 7f
        E 0 92 37 7f
        E 192 82 37 00
        E 0 b2 0b 7f
        E 0 92 2e 7f
        E 192 82 2e 00
        E 0 b2 0b 7f
        E 0 92 2f 7f
        E 192 82 2f 00
        E 0 b2 0b 7f
        E 0 92 30 7f
        E 192 82 30 00
        E 0 b2 0b 7f
        E 0 92 3c 7f
        E 192 82 3c 00
        E 0 b2 0b 7f
        E 0 92 30 7f
        E 192 82 30 00
        E 0 b2 0b 7f
        E 0 92 32 7f
        E 192 82 32 00
        E 0 b2 0b 7f
        E 0 92 33 7f
        E 192 82 33 00
        E 0 b2 0b 7f
        E 0 92 3f 7f
        E 192 82 3f 00
        E 0 b2 0b 7f
        E 0 92 33 7f
        E 192 82 33 00
        E 0 b2 0b 7f
        E 0 92 34 7f
        E 192 82 34 00
        E 0 b2 0b 7f
        E 0 92 29 7f
        E 192 82 29 00
        E 0 b2 0b 7f
        E 0 92 35 7f
        E 192 82 35 00
        E 0 b2 0b 7f
        E 0 92 2a 7f
        E 192 82 2a 00
        E 0 b2 0b 7f
        E 0 92 2b 7f
        E 384 82 2b 00
        E 0 b2 0b 7f
        E 0 92 37 7f
        E 192 82 37 00
        E 0 b2 0b 7f
        E 0 92 2e 7f
        E 192 82 2e 00
        E 0 b2 0b 7f
        E 0 92 2f 7f
        E 192 82 2f 00
        E 0 b2 0b 7f
        E 0 92 30 7f
        E 192 82 30 00
        E 0 b2 0b 7f
        E 0 92 37 7f
        E 192 82 37 00
        E 0 b2 0b 7f
        E 0 92 3c 7f
        E 192 82 3c 00
        E 0 b2 0b 7f
        E 0 92 3a 7f
        E 192 82 3a 00
        E 0 b2 0b 7f
        E 0 92 37 7f
        E 192 82 37 00
        E 0 b2 0b 7f
        E 0 92 35 7f
        E 192 82 35 00
        E 0 b2 0b 7f
        E 0 92 33 7f
        E 192 82 33 00
        E 0 b2 0b 7f
        E 0 92 30 7f
        E 192 82 30 00
        E 0 b2 0b 7f
        E 0 92 29 7f
        E 192 82 29 00
        E 0 b2 0b 7f
        E 0 92 35 7f
        E 192 82 35 00
        E 0 b2 0b 7f
        E 0 92 2a 7f
        E 192 82 2a 00
        E 0 b2 0b 7f
        E 0 92 2b 7f
        E 384 82 2b 00
        E 0 b2 0b 7f
        E 0 92 37 7f
        E 192 82 37 00
        E 0 b2 0b 7f
        E 0 92 2e 7f
        E 192 82 2e 00
        E 0 b2 0b 7f
        E 0 92 2f 7f
        E 192 82 2f 00
        E 0 b2 0b 7f
        E 0 92 30 7f
        E 192 82 30 00
        E 0 b2 0b 7f
        E 0 92 3c 7f
        E 192 82 3c 00
        E 0 b2 0b 7f
        E 0 92 30 7f
        E 192 82 30 00
        E 0 b2 0b 7f
        E 0 92 32 7f
        E 192 82 32 00
        E 0 b2 0b 7f
        E 0 92 33 7f
        E 192 82 33 00
        E 0 b2 0b 7f
        E 0 92 3f 7f
        E 192 82 3f 00
        E 0 b2 0b 7f
        E 0 92 33 7f
        E 192 82 33 00
        E 0 b2 0b 7f
        E 0 92 34 7f
        E 192 82 34 00
        E 0 b2 0b 7f
        E 0 92 29 7f
        E 192 82 29 00
        E 0 b2 0b 7f
        E 0 92 35 7f
        E 192 82 35 00
        E 0 b2 0b 7f
        E 0 92 2a 7f
        E 192 82 2a 00
        E 0 b2 0b 7f
        E 0 92 2b 7f
        E 384 82 2b 00
        E 0 b2 0b 7f
        E 0 92 37 7f
        E 192 82 37 00
        E 0 b2 0b 7f
        E 0 92 2e 7f
        E 192 82 2e 00
        E 0 b2 0b 7f
        E 0 92 2f 7f
        E 62016 82 2f 00
        E 0 ff 2f 00
      >
    >
  >
  <TRACK {2DA482AC-2DCA-4C0F-9A7A-6487F25A1084}
    NAME "NES - Noise / Drums [ch3]"
    PEAKCOL 11184810
    BEAT -1
    AUTOMODE 0
    PANLAWFLAGS 3
    VOLPAN 1 0 -1 -1 1
    MUTESOLO 0 0 0
    IPHASE 0
    PLAYOFFS 0 1
    ISBUS 0 0
    BUSCOMP 0 0 0 0 0
    SHOWINMIX 1 0.6667 0.5 1 0.5 0 0 0
    FIXEDLANES 9 0 0 0 0
    SEL 0
    REC 0 5088 1 0 0 0 0 0
    VU 2
    TRACKHEIGHT 0 0 0 0 0 0 0
    INQ 0 0 0 0.5 100 0 0 100
    NCHAN 2
    FX 1
    TRACKID {2DA482AC-2DCA-4C0F-9A7A-6487F25A1084}
    PERF 0
    MIDIOUT -1
    MAINSEND 1 0
    <FXCHAIN
      WNDRECT 24 52 700 560
      SHOW 0
      LASTSEL 0
      DOCKED 0
      BYPASS 0 0 0
      <JS "ReapNES Studio/ReapNES_Console.jsfx" ""
        2 15 1 10 80 10 100 2 1 15 1 5 60 10 80 1 1 0 50 0 0 15 1 0 100 0 0 0.500000 0.500000 0.400000 0.300000 0.800000 3 1 0 0 0 0 - - - - - - - - - - - - - - - - - - - - - - - - - -
      >
      FLOATPOS 0 0 0 0
      FXID {7B75921D-57AC-43D0-97A1-C14334B2CE90}
      WAK 0 0
    >
    <ITEM
      POSITION 0
      LENGTH 83.98134
      LOOP 0
      ALLTAKES 0
      FADEIN 0 0 0 0 0 0 0
      FADEOUT 0 0 0 0 0 0 0
      MUTE 0 0
      SEL 0
      IGUID {17CCEA8B-B4FA-4801-9DD0-61155C75F6AD}
      <SOURCE MIDI
        HASDATA 1 480 QN
        CCINTERP 32
        E 0 93 2a 08
        E 16 83 2a 00
        E 16 83 2a 00
        E 16 83 2a 00
        E 16 83 2a 00
        E 16 83 2a 00
        E 16 83 2a 00
        E 16 83 2a 00
        E 16 83 2a 00
        E 16 83 2a 00
        E 16 83 2a 00
        E 16 83 2a 00
        E 16 83 2a 00
        E 16 83 2a 00
        E 16 83 2a 00
        E 16 83 2a 00
        E 16 83 2a 00
        E 16 83 2a 00
        E 16 83 2a 00
        E 16 83 2a 00
        E 16 83 2a 00
        E 16 83 2a 00
        E 16 83 2a 00
        E 16 83 2a 00
        E 16 83 2a 00
        E 16 83 2a 00
        E 16 83 2a 00
        E 16 83 2a 00
        E 16 83 2a 00
        E 16 83 2a 00
        E 16 83 2a 00
        E 16 83 2a 00
        E 16 83 2a 00
        E 16 83 2a 00
        E 16 83 2a 00
        E 16 83 2a 00
        E 16 83 2a 00
        E 16 83 2a 00
        E 16 83 2a 00
        E 16 83 2a 00
        E 16 83 2a 00
        E 16 83 2a 00
        E 16 83 2a 00
        E 16 83 2a 00
        E 16 83 2a 00
        E 16 83 2a 00
        E 16 83 2a 00
        E 16 83 2a 00
        E 16 83 2a 00
        E 16 83 2a 00
        E 16 83 2a 00
        E 16 83 2a 00
        E 16 83 2a 00
        E 16 83 2a 00
        E 16 83 2a 00
        E 16 83 2a 00
        E 16 83 2a 00
        E 16 83 2a 00
        E 16 83 2a 00
        E 16 83 2a 00
        E 16 83 2a 00
        E 16 83 2a 00
        E 16 83 2a 00
        E 16 83 2a 00
        E 16 83 2a 00
        E 16 83 2a 00
        E 16 83 2a 00
        E 16 83 2a 00
        E 16 83 2a 00
        E 16 83 2a 00
        E 16 83 2a 00
        E 16 83 2a 00
        E 16 83 2a 00
        E 16 83 2a 00
        E 16 83 2a 00
        E 16 83 2a 00
        E 16 83 2a 00
        E 16 83 2a 00
        E 16 83 2a 00
        E 16 83 2a 00
        E 16 83 2a 00
        E 16 83 2a 00
        E 16 83 2a 00
        E 16 83 2a 00
        E 16 83 2a 00
        E 16 83 2a 00
        E 16 83 2a 00
        E 16 83 2a 00
        E 16 83 2a 00
        E 16 83 2a 00
        E 16 83 2a 00
        E 16 83 2a 00
        E 16 83 2a 00
        E 16 83 2a 00
        E 16 83 2a 00
        E 16 83 2a 00
        E 16 83 2a 00
        E 16 83 2a 00
        E 16 83 2a 00
        E 16 83 2a 00
        E 16 83 2a 00
        E 16 83 2a 00
        E 16 83 2a 00
        E 16 83 2a 00
        E 16 83 2a 00
        E 16 83 2a 00
        E 16 83 2a 00
        E 16 83 2a 00
        E 16 83 2a 00
        E 16 83 2a 00
        E 16 83 2a 00
        E 16 83 2a 00
        E 16 83 2a 00
        E 16 83 2a 00
        E 16 83 2a 00
        E 16 83 2a 00
        E 16 83 2a 00
        E 16 83 2a 00
        E 16 83 2a 00
        E 16 83 2a 00
        E 16 83 2a 00
        E 16 83 2a 00
        E 16 83 2a 00
        E 16 83 2a 00
        E 16 83 2a 00
        E 16 83 2a 00
        E 16 83 2a 00
        E 16 83 2a 00
        E 16 83 2a 00
        E 16 83 2a 00
        E 16 83 2a 00
        E 16 83 2a 00
        E 16 83 2a 00
        E 16 83 2a 00
        E 16 83 2a 00
        E 16 83 2a 00
        E 16 83 2a 00
        E 16 83 2a 00
        E 16 83 2a 00
        E 16 83 2a 00
        E 16 83 2a 00
        E 16 83 2a 00
        E 16 83 2a 00
        E 16 83 2a 00
        E 16 83 2a 00
        E 16 83 2a 00
        E 16 83 2a 00
        E 16 83 2a 00
        E 16 83 2a 00
        E 16 83 2a 00
        E 16 83 2a 00
        E 16 83 2a 00
        E 16 83 2a 00
        E 16 83 2a 00
        E 16 83 2a 00
        E 16 83 2a 00
        E 16 83 2a 00
        E 16 83 2a 00
        E 16 83 2a 00
        E 16 83 2a 00
        E 16 83 2a 00
        E 16 83 2a 00
        E 16 83 2a 00
        E 16 83 2a 00
        E 16 83 2a 00
        E 16 83 2a 00
        E 16 83 2a 00
        E 16 83 2a 00
        E 16 83 2a 00
        E 16 83 2a 00
        E 16 83 2a 00
        E 16 83 2a 00
        E 16 83 2a 00
        E 16 83 2a 00
        E 16 83 2a 00
        E 16 83 2a 00
        E 16 83 2a 00
        E 16 83 2a 00
        E 16 83 2a 00
        E 16 83 2a 00
        E 16 83 2a 00
        E 16 83 2a 00
        E 16 83 2a 00
        E 16 83 2a 00
        E 16 83 2a 00
        E 16 83 2a 00
        E 16 83 2a 00
        E 16 83 2a 00
        E 16 83 2a 00
        E 16 83 2a 00
        E 16 83 2a 00
        E 16 83 2a 00
        E 16 83 2a 00
        E 16 83 2a 00
        E 16 83 2a 00
        E 16 83 2a 00
        E 16 83 2a 00
        E 16 83 2a 00
        E 16 83 2a 00
        E 16 83 2a 00
        E 16 83 2a 00
        E 16 83 2a 00
        E 16 83 2a 00
        E 16 83 2a 00
        E 16 83 2a 00
        E 16 83 2a 00
        E 16 83 2a 00
        E 16 83 2a 00
        E 16 83 2a 00
        E 16 83 2a 00
        E 16 83 2a 00
        E 16 83 2a 00
        E 16 83 2a 00
        E 16 83 2a 00
        E 16 83 2a 00
        E 16 83 2a 00
        E 16 83 2a 00
        E 16 83 2a 00
        E 16 83 2a 00
        E 16 83 2a 00
        E 16 83 2a 00
        E 16 83 2a 00
        E 16 83 2a 00
        E 16 83 2a 00
        E 16 83 2a 00
        E 16 83 2a 00
        E 16 83 2a 00
        E 16 83 2a 00
        E 16 83 2a 00
        E 16 83 2a 00
        E 16 83 2a 00
        E 16 83 2a 00
        E 16 83 2a 00
        E 16 83 2a 00
        E 16 83 2a 00
        E 16 83 2a 00
        E 16 83 2a 00
        E 16 83 2a 00
        E 16 83 2a 00
        E 16 83 2a 00
        E 16 83 2a 00
        E 16 83 2a 00
        E 16 83 2a 00
        E 16 83 2a 00
        E 16 83 2a 00
        E 16 83 2a 00
        E 16 83 2a 00
        E 16 83 2a 00
        E 16 83 2a 00
        E 16 83 2a 00
        E 16 83 2a 00
        E 16 83 2a 00
        E 16 83 2a 00
        E 16 83 2a 00
        E 16 83 2a 00
        E 16 83 2a 00
        E 16 83 2a 00
        E 16 83 2a 00
        E 16 83 2a 00
        E 16 83 2a 00
        E 16 83 2a 00
        E 16 83 2a 00
        E 16 83 2a 00
        E 16 83 2a 00
        E 16 83 2a 00
        E 16 83 2a 00
        E 16 83 2a 00
        E 16 83 2a 00
        E 16 83 2a 00
        E 16 83 2a 00
        E 16 83 2a 00
        E 16 83 2a 00
        E 16 83 2a 00
        E 16 83 2a 00
        E 16 83 2a 00
        E 16 83 2a 00
        E 16 83 2a 00
        E 16 83 2a 00
        E 16 83 2a 00
        E 16 83 2a 00
        E 16 83 2a 00
        E 16 83 2a 00
        E 16 83 2a 00
        E 16 83 2a 00
        E 16 83 2a 00
        E 16 83 2a 00
        E 16 83 2a 00
        E 16 83 2a 00
        E 16 83 2a 00
        E 16 83 2a 00
        E 16 83 2a 00
        E 16 83 2a 00
        E 16 83 2a 00
        E 16 83 2a 00
        E 16 83 2a 00
        E 16 83 2a 00
        E 16 83 2a 00
        E 16 83 2a 00
        E 16 83 2a 00
        E 16 83 2a 00
        E 16 83 2a 00
        E 16 83 2a 00
        E 16 83 2a 00
        E 16 83 2a 00
        E 16 83 2a 00
        E 16 83 2a 00
        E 16 83 2a 00
        E 16 83 2a 00
        E 16 83 2a 00
        E 16 83 2a 00
        E 16 83 2a 00
        E 16 83 2a 00
        E 16 83 2a 00
        E 16 83 2a 00
        E 16 83 2a 00
        E 16 83 2a 00
        E 16 83 2a 00
        E 16 83 2a 00
        E 16 83 2a 00
        E 16 83 2a 00
        E 16 83 2a 00
        E 16 83 2a 00
        E 16 83 2a 00
        E 16 83 2a 00
        E 16 83 2a 00
        E 16 83 2a 00
        E 16 83 2a 00
        E 16 83 2a 00
        E 16 83 2a 00
        E 16 83 2a 00
        E 16 83 2a 00
        E 16 83 2a 00
        E 16 83 2a 00
        E 16 83 2a 00
        E 16 83 2a 00
        E 16 83 2a 00
        E 16 83 2a 00
        E 16 83 2a 00
        E 16 83 2a 00
        E 16 83 2a 00
        E 16 83 2a 00
        E 16 83 2a 00
        E 16 83 2a 00
        E 16 83 2a 00
        E 16 83 2a 00
        E 16 83 2a 00
        E 16 83 2a 00
        E 16 83 2a 00
        E 16 83 2a 00
        E 16 83 2a 00
        E 16 83 2a 00
        E 16 83 2a 00
        E 16 83 2a 00
        E 16 83 2a 00
        E 16 83 2a 00
        E 16 83 2a 00
        E 16 83 2a 00
        E 16 83 2a 00
        E 16 83 2a 00
        E 16 83 2a 00
        E 16 83 2a 00
        E 16 83 2a 00
        E 16 83 2a 00
        E 16 83 2a 00
        E 16 83 2a 00
        E 16 83 2a 00
        E 16 83 2a 00
        E 16 83 2a 00
        E 16 83 2a 00
        E 16 83 2a 00
        E 16 83 2a 00
        E 16 83 2a 00
        E 16 83 2a 00
        E 16 83 2a 00
        E 16 83 2a 00
        E 16 83 2a 00
        E 16 83 2a 00
        E 16 83 2a 00
        E 16 83 2a 00
        E 16 83 2a 00
        E 16 83 2a 00
        E 16 83 2a 00
        E 16 83 2a 00
        E 16 83 2a 00
        E 16 83 2a 00
        E 16 83 2a 00
        E 16 83 2a 00
        E 16 83 2a 00
        E 16 83 2a 00
        E 16 83 2a 00
        E 16 83 2a 00
        E 16 83 2a 00
        E 16 83 2a 00
        E 16 83 2a 00
        E 16 83 2a 00
        E 16 83 2a 00
        E 16 83 2a 00
        E 16 83 2a 00
        E 16 83 2a 00
        E 16 83 2a 00
        E 16 83 2a 00
        E 16 83 2a 00
        E 16 83 2a 00
        E 16 83 2a 00
        E 16 83 2a 00
        E 16 83 2a 00
        E 16 83 2a 00
        E 16 83 2a 00
        E 16 83 2a 00
        E 16 83 2a 00
        E 16 83 2a 00
        E 16 83 2a 00
        E 16 83 2a 00
        E 16 83 2a 00
        E 16 83 2a 00
        E 16 83 2a 00
        E 16 83 2a 00
        E 16 83 2a 00
        E 16 83 2a 00
        E 16 83 2a 00
        E 16 83 2a 00
        E 16 83 2a 00
        E 16 83 2a 00
        E 16 83 2a 00
        E 16 83 2a 00
        E 16 83 2a 00
        E 16 83 2a 00
        E 16 83 2a 00
        E 16 83 2a 00
        E 16 83 2a 00
        E 16 83 2a 00
        E 16 83 2a 00
        E 16 83 2a 00
        E 16 83 2a 00
        E 16 83 2a 00
        E 16 83 2a 00
        E 16 83 2a 00
        E 16 83 2a 00
        E 16 83 2a 00
        E 16 83 2a 00
        E 16 83 2a 00
        E 16 83 2a 00
        E 16 83 2a 00
        E 16 83 2a 00
        E 16 83 2a 00
        E 16 83 2a 00
        E 16 83 2a 00
        E 16 83 2a 00
        E 16 83 2a 00
        E 16 83 2a 00
        E 16 83 2a 00
        E 16 83 2a 00
        E 16 83 2a 00
        E 16 83 2a 00
        E 16 83 2a 00
        E 16 83 2a 00
        E 16 83 2a 00
        E 16 83 2a 00
        E 16 83 2a 00
        E 16 83 2a 00
        E 16 83 2a 00
        E 16 83 2a 00
        E 16 83 2a 00
        E 16 83 2a 00
        E 16 83 2a 00
        E 16 83 2a 00
        E 16 83 2a 00
        E 16 83 2a 00
        E 16 83 2a 00
        E 16 83 2a 00
        E 16 83 2a 00
        E 16 83 2a 00
        E 16 83 2a 00
        E 16 83 2a 00
        E 16 83 2a 00
        E 16 83 2a 00
        E 16 83 2a 00
        E 16 83 2a 00
        E 16 83 2a 00
        E 16 83 2a 00
        E 16 83 2a 00
        E 16 83 2a 00
        E 16 83 2a 00
        E 16 83 2a 00
        E 16 83 2a 00
        E 16 83 2a 00
        E 16 83 2a 00
        E 16 83 2a 00
        E 16 83 2a 00
        E 16 83 2a 00
        E 16 83 2a 00
        E 16 83 2a 00
        E 16 83 2a 00
        E 16 83 2a 00
        E 16 83 2a 00
        E 16 83 2a 00
        E 16 83 2a 00
        E 16 83 2a 00
        E 16 83 2a 00
        E 16 83 2a 00
        E 16 83 2a 00
        E 16 83 2a 00
        E 16 83 2a 00
        E 16 83 2a 00
        E 16 83 2a 00
        E 16 83 2a 00
        E 16 83 2a 00
        E 16 83 2a 00
        E 16 83 2a 00
        E 16 83 2a 00
        E 16 83 2a 00
        E 16 83 2a 00
        E 16 83 2a 00
        E 16 83 2a 00
        E 16 83 2a 00
        E 16 83 2a 00
        E 16 83 2a 00
        E 16 83 2a 00
        E 16 83 2a 00
        E 16 83 2a 00
        E 16 83 2a 00
        E 16 83 2a 00
        E 16 83 2a 00
        E 16 83 2a 00
        E 16 83 2a 00
        E 16 83 2a 00
        E 16 83 2a 00
        E 16 83 2a 00
        E 16 83 2a 00
        E 16 83 2a 00
        E 16 83 2a 00
        E 16 83 2a 00
        E 16 83 2a 00
        E 16 83 2a 00
        E 16 83 2a 00
        E 16 83 2a 00
        E 16 83 2a 00
        E 16 83 2a 00
        E 16 83 2a 00
        E 16 83 2a 00
        E 16 83 2a 00
        E 16 83 2a 00
        E 16 83 2a 00
        E 16 83 2a 00
        E 16 83 2a 00
        E 16 83 2a 00
        E 16 83 2a 00
        E 16 83 2a 00
        E 16 83 2a 00
        E 16 83 2a 00
        E 16 83 2a 00
        E 16 83 2a 00
        E 16 83 2a 00
        E 16 83 2a 00
        E 16 83 2a 00
        E 16 83 2a 00
        E 16 83 2a 00
        E 16 83 2a 00
        E 16 83 2a 00
        E 16 83 2a 00
        E 16 83 2a 00
        E 16 83 2a 00
        E 16 83 2a 00
        E 16 83 2a 00
        E 16 83 2a 00
        E 16 83 2a 00
        E 16 83 2a 00
        E 16 83 2a 00
        E 16 83 2a 00
        E 16 83 2a 00
        E 16 83 2a 00
        E 16 83 2a 00
        E 16 83 2a 00
        E 16 83 2a 00
        E 16 83 2a 00
        E 16 83 2a 00
        E 16 83 2a 00
        E 16 83 2a 00
        E 16 83 2a 00
        E 16 83 2a 00
        E 16 83 2a 00
        E 16 83 2a 00
        E 16 83 2a 00
        E 16 83 2a 00
        E 16 83 2a 00
        E 16 83 2a 00
        E 16 83 2a 00
        E 16 83 2a 00
        E 16 83 2a 00
        E 16 83 2a 00
        E 16 83 2a 00
        E 16 83 2a 00
        E 16 83 2a 00
        E 16 83 2a 00
        E 16 83 2a 00
        E 16 83 2a 00
        E 16 83 2a 00
        E 16 83 2a 00
        E 16 83 2a 00
        E 16 83 2a 00
        E 16 83 2a 00
        E 16 83 2a 00
        E 16 83 2a 00
        E 16 83 2a 00
        E 16 83 2a 00
        E 16 83 2a 00
        E 16 83 2a 00
        E 16 83 2a 00
        E 16 83 2a 00
        E 16 83 2a 00
        E 16 83 2a 00
        E 16 83 2a 00
        E 16 83 2a 00
        E 16 83 2a 00
        E 16 83 2a 00
        E 16 83 2a 00
        E 16 83 2a 00
        E 16 83 2a 00
        E 16 83 2a 00
        E 16 83 2a 00
        E 16 83 2a 00
        E 16 83 2a 00
        E 16 83 2a 00
        E 16 83 2a 00
        E 16 83 2a 00
        E 16 83 2a 00
        E 16 83 2a 00
        E 16 83 2a 00
        E 16 83 2a 00
        E 16 83 2a 00
        E 16 83 2a 00
        E 16 83 2a 00
        E 16 83 2a 00
        E 16 83 2a 00
        E 16 83 2a 00
        E 16 83 2a 00
        E 16 83 2a 00
        E 16 83 2a 00
        E 16 83 2a 00
        E 16 83 2a 00
        E 16 83 2a 00
        E 16 83 2a 00
        E 16 83 2a 00
        E 16 83 2a 00
        E 16 83 2a 00
        E 16 83 2a 00
        E 16 83 2a 00
        E 16 83 2a 00
        E 16 83 2a 00
        E 16 83 2a 00
        E 16 83 2a 00
        E 16 83 2a 00
        E 16 83 2a 00
        E 16 83 2a 00
        E 16 83 2a 00
        E 16 83 2a 00
        E 16 83 2a 00
        E 16 83 2a 00
        E 16 83 2a 00
        E 16 83 2a 00
        E 16 83 2a 00
        E 16 83 2a 00
        E 16 83 2a 00
        E 16 83 2a 00
        E 16 83 2a 00
        E 16 83 2a 00
        E 16 83 2a 00
        E 16 83 2a 00
        E 16 83 2a 00
        E 16 83 2a 00
        E 16 83 2a 00
        E 16 83 2a 00
        E 16 83 2a 00
        E 16 83 2a 00
        E 16 83 2a 00
        E 16 83 2a 00
        E 16 83 2a 00
        E 16 83 2a 00
        E 16 83 2a 00
        E 16 83 2a 00
        E 16 83 2a 00
        E 16 83 2a 00
        E 16 83 2a 00
        E 16 83 2a 00
        E 16 83 2a 00
        E 16 83 2a 00
        E 16 83 2a 00
        E 16 83 2a 00
        E 16 83 2a 00
        E 16 83 2a 00
        E 16 83 2a 00
        E 16 83 2a 00
        E 16 83 2a 00
        E 16 83 2a 00
        E 16 83 2a 00
        E 16 83 2a 00
        E 16 83 2a 00
        E 16 83 2a 00
        E 16 83 2a 00
        E 16 83 2a 00
        E 16 83 2a 00
        E 16 83 2a 00
        E 16 83 2a 00
        E 16 83 2a 00
        E 16 83 2a 00
        E 16 83 2a 00
        E 16 83 2a 00
        E 16 83 2a 00
        E 16 83 2a 00
        E 16 83 2a 00
        E 16 83 2a 00
        E 16 83 2a 00
        E 16 83 2a 00
        E 16 83 2a 00
        E 16 83 2a 00
        E 16 83 2a 00
        E 16 83 2a 00
        E 16 83 2a 00
        E 16 83 2a 00
        E 16 83 2a 00
        E 16 83 2a 00
        E 16 83 2a 00
        E 16 83 2a 00
        E 16 83 2a 00
        E 16 83 2a 00
        E 16 83 2a 00
        E 16 83 2a 00
        E 16 83 2a 00
        E 16 83 2a 00
        E 16 83 2a 00
        E 16 83 2a 00
        E 16 83 2a 00
        E 16 83 2a 00
        E 16 83 2a 00
        E 16 83 2a 00
        E 16 83 2a 00
        E 16 83 2a 00
        E 16 83 2a 00
        E 16 83 2a 00
        E 16 83 2a 00
        E 16 83 2a 00
        E 16 83 2a 00
        E 16 83 2a 00
        E 16 83 2a 00
        E 16 83 2a 00
        E 16 83 2a 00
        E 16 83 2a 00
        E 16 83 2a 00
        E 16 83 2a 00
        E 16 83 2a 00
        E 16 83 2a 00
        E 16 83 2a 00
        E 16 83 2a 00
        E 16 83 2a 00
        E 16 83 2a 00
        E 16 83 2a 00
        E 16 83 2a 00
        E 16 83 2a 00
        E 16 83 2a 00
        E 16 83 2a 00
        E 16 83 2a 00
        E 16 83 2a 00
        E 16 83 2a 00
        E 16 83 2a 00
        E 16 83 2a 00
        E 16 83 2a 00
        E 16 83 2a 00
        E 16 83 2a 00
        E 16 83 2a 00
        E 16 83 2a 00
        E 16 83 2a 00
        E 16 83 2a 00
        E 16 83 2a 00
        E 16 83 2a 00
        E 16 83 2a 00
        E 16 83 2a 00
        E 16 83 2a 00
        E 16 83 2a 00
        E 16 83 2a 00
        E 16 83 2a 00
        E 16 83 2a 00
        E 16 83 2a 00
        E 16 83 2a 00
        E 16 83 2a 00
        E 16 83 2a 00
        E 16 83 2a 00
        E 16 83 2a 00
        E 16 83 2a 00
        E 16 83 2a 00
        E 16 83 2a 00
        E 16 83 2a 00
        E 16 83 2a 00
        E 16 83 2a 00
        E 16 83 2a 00
        E 16 83 2a 00
        E 16 83 2a 00
        E 16 83 2a 00
        E 16 83 2a 00
        E 16 83 2a 00
        E 16 83 2a 00
        E 16 83 2a 00
        E 16 83 2a 00
        E 16 83 2a 00
        E 16 83 2a 00
        E 16 83 2a 00
        E 16 83 2a 00
        E 16 83 2a 00
        E 16 83 2a 00
        E 16 83 2a 00
        E 16 83 2a 00
        E 16 83 2a 00
        E 16 83 2a 00
        E 16 83 2a 00
        E 16 83 2a 00
        E 16 83 2a 00
        E 16 83 2a 00
        E 16 83 2a 00
        E 16 83 2a 00
        E 16 83 2a 00
        E 16 83 2a 00
        E 16 83 2a 00
        E 16 83 2a 00
        E 16 83 2a 00
        E 16 83 2a 00
        E 16 83 2a 00
        E 16 83 2a 00
        E 16 83 2a 00
        E 16 83 2a 00
        E 16 83 2a 00
        E 16 83 2a 00
        E 16 83 2a 00
        E 16 83 2a 00
        E 16 83 2a 00
        E 16 83 2a 00
        E 16 83 2a 00
        E 16 83 2a 00
        E 16 83 2a 00
        E 16 83 2a 00
        E 16 83 2a 00
        E 16 83 2a 00
        E 16 83 2a 00
        E 16 83 2a 00
        E 16 83 2a 00
        E 16 83 2a 00
        E 16 83 2a 00
        E 16 83 2a 00
        E 16 83 2a 00
        E 16 83 2a 00
        E 16 83 2a 00
        E 16 83 2a 00
        E 16 83 2a 00
        E 16 83 2a 00
        E 16 83 2a 00
        E 16 83 2a 00
        E 16 83 2a 00
        E 16 83 2a 00
        E 16 83 2a 00
        E 16 83 2a 00
        E 16 83 2a 00
        E 16 83 2a 00
        E 16 83 2a 00
        E 16 83 2a 00
        E 16 83 2a 00
        E 16 83 2a 00
        E 16 83 2a 00
        E 16 83 2a 00
        E 16 83 2a 00
        E 16 83 2a 00
        E 16 83 2a 00
        E 16 83 2a 00
        E 16 83 2a 00
        E 16 83 2a 00
        E 16 83 2a 00
        E 16 83 2a 00
        E 16 83 2a 00
        E 16 83 2a 00
        E 16 83 2a 00
        E 16 83 2a 00
        E 16 83 2a 00
        E 16 83 2a 00
        E 16 83 2a 00
        E 16 83 2a 00
        E 16 83 2a 00
        E 16 83 2a 00
        E 16 83 2a 00
        E 16 83 2a 00
        E 16 83 2a 00
        E 16 83 2a 00
        E 16 83 2a 00
        E 16 83 2a 00
        E 16 83 2a 00
        E 16 83 2a 00
        E 16 83 2a 00
        E 16 83 2a 00
        E 16 83 2a 00
        E 16 83 2a 00
        E 16 83 2a 00
        E 16 83 2a 00
        E 16 83 2a 00
        E 16 83 2a 00
        E 16 83 2a 00
        E 16 83 2a 00
        E 16 83 2a 00
        E 16 83 2a 00
        E 16 83 2a 00
        E 16 83 2a 00
        E 16 83 2a 00
        E 16 83 2a 00
        E 16 83 2a 00
        E 16 83 2a 00
        E 16 83 2a 00
        E 16 83 2a 00
        E 16 83 2a 00
        E 16 83 2a 00
        E 16 83 2a 00
        E 16 83 2a 00
        E 16 83 2a 00
        E 16 83 2a 00
        E 16 83 2a 00
        E 16 83 2a 00
        E 16 83 2a 00
        E 16 83 2a 00
        E 16 83 2a 00
        E 16 83 2a 00
        E 16 83 2a 00
        E 16 83 2a 00
        E 16 83 2a 00
        E 16 83 2a 00
        E 16 83 2a 00
        E 16 83 2a 00
        E 16 83 2a 00
        E 16 83 2a 00
        E 16 83 2a 00
        E 16 83 2a 00
        E 16 83 2a 00
        E 16 83 2a 00
        E 16 83 2a 00
        E 16 83 2a 00
        E 16 83 2a 00
        E 16 83 2a 00
        E 16 83 2a 00
        E 16 83 2a 00
        E 16 83 2a 00
        E 16 83 2a 00
        E 16 83 2a 00
        E 16 83 2a 00
        E 16 83 2a 00
        E 16 83 2a 00
        E 16 83 2a 00
        E 16 83 2a 00
        E 16 83 2a 00
        E 16 83 2a 00
        E 16 83 2a 00
        E 16 83 2a 00
        E 16 83 2a 00
        E 16 83 2a 00
        E 16 83 2a 00
        E 16 83 2a 00
        E 16 83 2a 00
        E 16 83 2a 00
        E 16 83 2a 00
        E 16 83 2a 00
        E 16 83 2a 00
        E 16 83 2a 00
        E 16 83 2a 00
        E 16 83 2a 00
        E 16 83 2a 00
        E 16 83 2a 00
        E 16 83 2a 00
        E 16 83 2a 00
        E 16 83 2a 00
        E 16 83 2a 00
        E 16 83 2a 00
        E 16 83 2a 00
        E 16 83 2a 00
        E 16 83 2a 00
        E 16 83 2a 00
        E 16 83 2a 00
        E 16 83 2a 00
        E 16 83 2a 00
        E 16 83 2a 00
        E 16 83 2a 00
        E 16 83 2a 00
        E 16 83 2a 00
        E 16 83 2a 00
        E 16 83 2a 00
        E 16 83 2a 00
        E 16 83 2a 00
        E 16 83 2a 00
        E 16 83 2a 00
        E 16 83 2a 00
        E 16 83 2a 00
        E 16 83 2a 00
        E 16 83 2a 00
        E 16 83 2a 00
        E 16 83 2a 00
        E 16 83 2a 00
        E 16 83 2a 00
        E 16 83 2a 00
        E 16 83 2a 00
        E 16 83 2a 00
        E 16 83 2a 00
        E 16 83 2a 00
        E 16 83 2a 00
        E 16 83 2a 00
        E 16 83 2a 00
        E 16 83 2a 00
        E 16 83 2a 00
        E 16 83 2a 00
        E 16 83 2a 00
        E 16 83 2a 00
        E 16 83 2a 00
        E 16 83 2a 00
        E 16 83 2a 00
        E 16 83 2a 00
        E 16 83 2a 00
        E 16 83 2a 00
        E 16 83 2a 00
        E 16 83 2a 00
        E 16 83 2a 00
        E 16 83 2a 00
        E 16 83 2a 00
        E 16 83 2a 00
        E 16 83 2a 00
        E 16 83 2a 00
        E 16 83 2a 00
        E 16 83 2a 00
        E 16 83 2a 00
        E 16 83 2a 00
        E 16 83 2a 00
        E 16 83 2a 00
        E 16 83 2a 00
        E 16 83 2a 00
        E 16 83 2a 00
        E 16 83 2a 00
        E 16 83 2a 00
        E 16 83 2a 00
        E 16 83 2a 00
        E 16 83 2a 00
        E 16 83 2a 00
        E 16 83 2a 00
        E 16 83 2a 00
        E 16 83 2a 00
        E 16 83 2a 00
        E 16 83 2a 00
        E 16 83 2a 00
        E 16 83 2a 00
        E 16 83 2a 00
        E 16 83 2a 00
        E 16 83 2a 00
        E 16 83 2a 00
        E 16 83 2a 00
        E 16 83 2a 00
        E 16 83 2a 00
        E 16 83 2a 00
        E 16 83 2a 00
        E 16 83 2a 00
        E 16 83 2a 00
        E 16 83 2a 00
        E 16 83 2a 00
        E 16 83 2a 00
        E 16 83 2a 00
        E 16 83 2a 00
        E 16 83 2a 00
        E 16 83 2a 00
        E 16 83 2a 00
        E 16 83 2a 00
        E 16 83 2a 00
        E 16 83 2a 00
        E 16 83 2a 00
        E 16 83 2a 00
        E 16 83 2a 00
        E 16 83 2a 00
        E 16 83 2a 00
        E 16 83 2a 00
        E 16 83 2a 00
        E 16 83 2a 00
        E 16 83 2a 00
        E 16 83 2a 00
        E 16 83 2a 00
        E 16 83 2a 00
        E 16 83 2a 00
        E 16 83 2a 00
        E 16 83 2a 00
        E 16 83 2a 00
        E 16 83 2a 00
        E 16 83 2a 00
        E 16 83 2a 00
        E 16 83 2a 00
        E 16 83 2a 00
        E 16 83 2a 00
        E 16 83 2a 00
        E 16 83 2a 00
        E 16 83 2a 00
        E 16 83 2a 00
        E 16 83 2a 00
        E 16 83 2a 00
        E 16 83 2a 00
        E 16 83 2a 00
        E 16 83 2a 00
        E 16 83 2a 00
        E 16 83 2a 00
        E 16 83 2a 00
        E 16 83 2a 00
        E 16 83 2a 00
        E 16 83 2a 00
        E 16 83 2a 00
        E 16 83 2a 00
        E 16 83 2a 00
        E 16 83 2a 00
        E 16 83 2a 00
        E 16 83 2a 00
        E 16 83 2a 00
        E 16 83 2a 00
        E 16 83 2a 00
        E 16 83 2a 00
        E 16 83 2a 00
        E 16 83 2a 00
        E 16 83 2a 00
        E 16 83 2a 00
        E 16 83 2a 00
        E 16 83 2a 00
        E 16 83 2a 00
        E 16 83 2a 00
        E 16 83 2a 00
        E 16 83 2a 00
        E 16 83 2a 00
        E 16 83 2a 00
        E 16 83 2a 00
        E 16 83 2a 00
        E 16 83 2a 00
        E 16 83 2a 00
        E 16 83 2a 00
        E 16 83 2a 00
        E 16 83 2a 00
        E 16 83 2a 00
        E 16 83 2a 00
        E 16 83 2a 00
        E 16 83 2a 00
        E 16 83 2a 00
        E 16 83 2a 00
        E 16 83 2a 00
        E 16 83 2a 00
        E 16 83 2a 00
        E 16 83 2a 00
        E 16 83 2a 00
        E 16 83 2a 00
        E 16 83 2a 00
        E 16 83 2a 00
        E 16 83 2a 00
        E 16 83 2a 00
        E 16 83 2a 00
        E 16 83 2a 00
        E 16 83 2a 00
        E 16 83 2a 00
        E 16 83 2a 00
        E 16 83 2a 00
        E 16 83 2a 00
        E 16 83 2a 00
        E 16 83 2a 00
        E 16 83 2a 00
        E 16 83 2a 00
        E 16 83 2a 00
        E 16 83 2a 00
        E 16 83 2a 00
        E 16 83 2a 00
        E 16 83 2a 00
        E 16 83 2a 00
        E 16 83 2a 00
        E 16 83 2a 00
        E 16 83 2a 00
        E 16 83 2a 00
        E 16 83 2a 00
        E 16 83 2a 00
        E 16 83 2a 00
        E 16 83 2a 00
        E 16 83 2a 00
        E 16 83 2a 00
        E 16 83 2a 00
        E 16 83 2a 00
        E 16 83 2a 00
        E 16 83 2a 00
        E 16 83 2a 00
        E 16 83 2a 00
        E 16 83 2a 00
        E 16 83 2a 00
        E 16 83 2a 00
        E 16 83 2a 00
        E 16 83 2a 00
        E 16 83 2a 00
        E 16 83 2a 00
        E 16 83 2a 00
        E 16 83 2a 00
        E 16 83 2a 00
        E 16 83 2a 00
        E 16 83 2a 00
        E 16 83 2a 00
        E 16 83 2a 00
        E 16 83 2a 00
        E 16 83 2a 00
        E 16 83 2a 00
        E 16 83 2a 00
        E 16 83 2a 00
        E 16 83 2a 00
        E 16 83 2a 00
        E 16 83 2a 00
        E 16 83 2a 00
        E 16 83 2a 00
        E 16 83 2a 00
        E 16 83 2a 00
        E 16 83 2a 00
        E 16 83 2a 00
        E 16 83 2a 00
        E 16 83 2a 00
        E 16 83 2a 00
        E 16 83 2a 00
        E 16 83 2a 00
        E 16 83 2a 00
        E 16 83 2a 00
        E 16 83 2a 00
        E 16 83 2a 00
        E 16 83 2a 00
        E 16 83 2a 00
        E 16 83 2a 00
        E 16 83 2a 00
        E 16 83 2a 00
        E 16 83 2a 00
        E 16 83 2a 00
        E 16 83 2a 00
        E 16 83 2a 00
        E 16 83 2a 00
        E 16 83 2a 00
        E 16 83 2a 00
        E 16 83 2a 00
        E 16 83 2a 00
        E 16 83 2a 00
        E 16 83 2a 00
        E 16 83 2a 00
        E 16 83 2a 00
        E 16 83 2a 00
        E 16 83 2a 00
        E 16 83 2a 00
        E 16 83 2a 00
        E 16 83 2a 00
        E 16 83 2a 00
        E 16 83 2a 00
        E 16 83 2a 00
        E 16 83 2a 00
        E 16 83 2a 00
        E 16 83 2a 00
        E 16 83 2a 00
        E 16 83 2a 00
        E 16 83 2a 00
        E 16 83 2a 00
        E 16 83 2a 00
        E 16 83 2a 00
        E 16 83 2a 00
        E 16 83 2a 00
        E 16 83 2a 00
        E 16 83 2a 00
        E 16 83 2a 00
        E 16 83 2a 00
        E 16 83 2a 00
        E 16 83 2a 00
        E 16 83 2a 00
        E 16 83 2a 00
        E 16 83 2a 00
        E 16 83 2a 00
        E 16 83 2a 00
        E 16 83 2a 00
        E 16 83 2a 00
        E 16 83 2a 00
        E 16 83 2a 00
        E 16 83 2a 00
        E 16 83 2a 00
        E 16 83 2a 00
        E 16 83 2a 00
        E 16 83 2a 00
        E 16 83 2a 00
        E 16 83 2a 00
        E 16 83 2a 00
        E 16 83 2a 00
        E 16 83 2a 00
        E 16 83 2a 00
        E 16 83 2a 00
        E 16 83 2a 00
        E 16 83 2a 00
        E 16 83 2a 00
        E 16 83 2a 00
        E 16 83 2a 00
        E 16 83 2a 00
        E 16 83 2a 00
        E 16 83 2a 00
        E 16 83 2a 00
        E 16 83 2a 00
        E 16 83 2a 00
        E 16 83 2a 00
        E 16 83 2a 00
        E 16 83 2a 00
        E 16 83 2a 00
        E 16 83 2a 00
        E 16 83 2a 00
        E 16 83 2a 00
        E 16 83 2a 00
        E 16 83 2a 00
        E 16 83 2a 00
        E 16 83 2a 00
        E 16 83 2a 00
        E 16 83 2a 00
        E 16 83 2a 00
        E 16 83 2a 00
        E 16 83 2a 00
        E 16 83 2a 00
        E 16 83 2a 00
        E 16 83 2a 00
        E 16 83 2a 00
        E 16 83 2a 00
        E 16 83 2a 00
        E 16 83 2a 00
        E 16 83 2a 00
        E 16 83 2a 00
        E 16 83 2a 00
        E 16 83 2a 00
        E 16 83 2a 00
        E 16 83 2a 00
        E 16 83 2a 00
        E 16 83 2a 00
        E 16 83 2a 00
        E 16 83 2a 00
        E 16 83 2a 00
        E 16 83 2a 00
        E 16 83 2a 00
        E 16 83 2a 00
        E 16 83 2a 00
        E 16 83 2a 00
        E 16 83 2a 00
        E 16 83 2a 00
        E 16 83 2a 00
        E 16 83 2a 00
        E 16 83 2a 00
        E 16 83 2a 00
        E 16 83 2a 00
        E 16 83 2a 00
        E 16 83 2a 00
        E 16 83 2a 00
        E 16 83 2a 00
        E 16 83 2a 00
        E 16 83 2a 00
        E 16 83 2a 00
        E 16 83 2a 00
        E 16 83 2a 00
        E 16 83 2a 00
        E 16 83 2a 00
        E 16 83 2a 00
        E 16 83 2a 00
        E 16 83 2a 00
        E 16 83 2a 00
        E 16 83 2a 00
        E 16 83 2a 00
        E 16 83 2a 00
        E 16 83 2a 00
        E 16 83 2a 00
        E 16 83 2a 00
        E 16 83 2a 00
        E 16 83 2a 00
        E 16 83 2a 00
        E 16 83 2a 00
        E 16 83 2a 00
        E 16 83 2a 00
        E 16 83 2a 00
        E 16 83 2a 00
        E 16 83 2a 00
        E 16 83 2a 00
        E 16 83 2a 00
        E 16 83 2a 00
        E 16 83 2a 00
        E 16 83 2a 00
        E 16 83 2a 00
        E 16 83 2a 00
        E 16 83 2a 00
        E 16 83 2a 00
        E 16 83 2a 00
        E 16 83 2a 00
        E 16 83 2a 00
        E 16 83 2a 00
        E 16 83 2a 00
        E 16 83 2a 00
        E 16 83 2a 00
        E 16 83 2a 00
        E 16 83 2a 00
        E 16 83 2a 00
        E 16 83 2a 00
        E 16 83 2a 00
        E 16 83 2a 00
        E 16 83 2a 00
        E 16 83 2a 00
        E 16 83 2a 00
        E 16 83 2a 00
        E 16 83 2a 00
        E 16 83 2a 00
        E 16 83 2a 00
        E 16 83 2a 00
        E 16 83 2a 00
        E 16 83 2a 00
        E 16 83 2a 00
        E 16 83 2a 00
        E 16 83 2a 00
        E 16 83 2a 00
        E 16 83 2a 00
        E 16 83 2a 00
        E 16 83 2a 00
        E 16 83 2a 00
        E 16 83 2a 00
        E 16 83 2a 00
        E 16 83 2a 00
        E 16 83 2a 00
        E 16 83 2a 00
        E 16 83 2a 00
        E 16 83 2a 00
        E 16 83 2a 00
        E 16 83 2a 00
        E 16 83 2a 00
        E 16 83 2a 00
        E 16 83 2a 00
        E 16 83 2a 00
        E 16 83 2a 00
        E 16 83 2a 00
        E 16 83 2a 00
        E 16 83 2a 00
        E 16 83 2a 00
        E 16 83 2a 00
        E 16 83 2a 00
        E 16 83 2a 00
        E 16 83 2a 00
        E 16 83 2a 00
        E 16 83 2a 00
        E 16 83 2a 00
        E 16 83 2a 00
        E 16 83 2a 00
        E 16 83 2a 00
        E 16 83 2a 00
        E 16 83 2a 00
        E 16 83 2a 00
        E 16 83 2a 00
        E 16 83 2a 00
        E 16 83 2a 00
        E 16 83 2a 00
        E 16 83 2a 00
        E 16 83 2a 00
        E 16 83 2a 00
        E 16 83 2a 00
        E 16 83 2a 00
        E 16 83 2a 00
        E 16 83 2a 00
        E 16 83 2a 00
        E 16 83 2a 00
        E 16 83 2a 00
        E 16 83 2a 00
        E 16 83 2a 00
        E 16 83 2a 00
        E 16 83 2a 00
        E 16 83 2a 00
        E 16 83 2a 00
        E 16 83 2a 00
        E 16 83 2a 00
        E 16 83 2a 00
        E 16 83 2a 00
        E 16 83 2a 00
        E 16 83 2a 00
        E 16 83 2a 00
        E 16 83 2a 00
        E 16 83 2a 00
        E 16 83 2a 00
        E 16 83 2a 00
        E 16 83 2a 00
        E 16 83 2a 00
        E 16 83 2a 00
        E 16 83 2a 00
        E 16 83 2a 00
        E 16 83 2a 00
        E 16 83 2a 00
        E 16 83 2a 00
        E 16 83 2a 00
        E 16 83 2a 00
        E 16 83 2a 00
        E 16 83 2a 00
        E 16 83 2a 00
        E 16 83 2a 00
        E 16 83 2a 00
        E 16 83 2a 00
        E 16 83 2a 00
        E 16 83 2a 00
        E 16 83 2a 00
        E 16 83 2a 00
        E 16 83 2a 00
        E 16 83 2a 00
        E 16 83 2a 00
        E 16 83 2a 00
        E 16 83 2a 00
        E 16 83 2a 00
        E 16 83 2a 00
        E 16 83 2a 00
        E 16 83 2a 00
        E 16 83 2a 00
        E 16 83 2a 00
        E 16 83 2a 00
        E 16 83 2a 00
        E 16 83 2a 00
        E 16 83 2a 00
        E 16 83 2a 00
        E 16 83 2a 00
        E 16 83 2a 00
        E 16 83 2a 00
        E 16 83 2a 00
        E 16 83 2a 00
        E 16 83 2a 00
        E 16 83 2a 00
        E 16 83 2a 00
        E 16 83 2a 00
        E 16 83 2a 00
        E 16 83 2a 00
        E 16 83 2a 00
        E 16 83 2a 00
        E 16 83 2a 00
        E 16 83 2a 00
        E 16 83 2a 00
        E 16 83 2a 00
        E 16 83 2a 00
        E 16 83 2a 00
        E 16 83 2a 00
        E 16 83 2a 00
        E 16 83 2a 00
        E 16 83 2a 00
        E 16 83 2a 00
        E 16 83 2a 00
        E 16 83 2a 00
        E 16 83 2a 00
        E 0 ff 2f 00
      >
    >
  >
>