<REAPER_PROJECT 0.1 "7.27/win64" 1707000000
  <NOTES 0 2
    |ReapNES Studio Project
    |MIDI Import - Wizards_&_Warriors_04_Entering_a_Door_v1
  >
  RIPPLE 0
  GROUPOVERRIDE 0 0 0
  AUTOXFADE 129
  ENVATTACH 3
  POOLEDENVATTACH 0
  MIXERUIFLAGS 11 48
  ENVFADESZ10 40
  PEAKGAIN 1
  FEEDBACK 0
  PANLAW 1
  PROJOFFS 0 0 0
  MAXPROJLEN 0 0
  GRID 3199 8 1 8 1 0 0 0
  TIMEMODE 1 5 -1 30 0 0 -1
  VIDEO_CONFIG 0 0 65792
  PANMODE 3
  PANLAWFLAGS 3
  CURSOR 0
  ZOOM 100 0 0
  VZOOMEX 6 0
  USE_REC_CFG 0
  RECMODE 1
  SMPTESYNC 0 30 100 40 1000 300 0 0 1 0 0
  LOOP 0
  LOOPGRAN 0 4
  RECORD_PATH "Media" ""
  <RECORD_CFG
    ZXZhdxgAAQ==
  >
  <APPLYFX_CFG
  >
  RENDER_FILE ""
  RENDER_PATTERN ""
  RENDER_FMT 0 2 0
  RENDER_1X 0
  RENDER_RANGE 1 0 0 18 1000
  RENDER_RESAMPLE 3 0 1
  RENDER_ADDTOPROJ 0
  RENDER_STEMS 0
  RENDER_DITHER 0
  TIMELOCKMODE 1
  TEMPOENVLOCKMODE 1
  ITEMMIX 1
  DEFPITCHMODE 589824 0
  TAKELANE 1
  SAMPLERATE 44100 0 0
  <RENDER_CFG
    ZXZhdxgAAQ==
  >
  LOCK 1
  <METRONOME 6 2
    VOL 0.25 0.125
    BEATLEN 4
    FREQ 1760 880 1
    SAMPLES "" ""
    SPLIGNORE 0 0
    SPLDEF 2 660 "" 0
    SPLDEF 3 440 "" 0
    PATTERN 0 169
    PATTERNSTR ABBB
    MULT 1
  >
  GLOBAL_AUTO -1
  TEMPO 128.59999614200012 4 4
  PLAYRATE 1 0 0.25 4
  SELECTION 0 0
  SELECTION2 0 0
  MASTERAUTOMODE 0
  MASTERTRACKHEIGHT 0 0
  MASTERPEAKCOL 16576
  MASTERMUTESOLO 0
  MASTERTRACKVIEW 0 0.6667 0.5 0.5 0 0 0 0 0 0 0 0 0 0
  MASTERHWOUT 0 0 1 0 0 0 0 -1
  MASTER_NCH 2 2
  MASTER_VOLUME 1 0 -1 -1 1
  MASTER_PANMODE 3
  MASTER_PANLAWFLAGS 3
  MASTER_FX 1
  MASTER_SEL 0
  <MASTERPLAYSPEEDENV
    EGUID {2EF0DADA-F3E8-48CE-AA5A-E4DDFEFAC702}
    ACT 0 -1
    VIS 0 1 1
    LANEHEIGHT 0 0
    ARM 0
    DEFSHAPE 0 -1 -1
  >
  <TEMPOENVEX
    EGUID {8AE441AE-1409-4686-A043-7BEB448E41B6}
    ACT 1 -1
    VIS 1 0 1
    LANEHEIGHT 0 0
    ARM 0
    DEFSHAPE 1 -1 -1
  >
  <PROJBAY
  >
  <TRACK {127F30D5-BCFA-41C4-8729-1E50511370DF}
    NAME "NES - Pulse 1 [ch0]"
    PEAKCOL 16576606
    BEAT -1
    AUTOMODE 0
    PANLAWFLAGS 3
    VOLPAN 1 0 -1 -1 1
    MUTESOLO 0 0 0
    IPHASE 0
    PLAYOFFS 0 1
    ISBUS 0 0
    BUSCOMP 0 0 0 0 0
    SHOWINMIX 1 0.6667 0.5 1 0.5 0 0 0
    FIXEDLANES 9 0 0 0 0
    SEL 1
    REC 1 5088 1 0 0 0 0 0
    VU 2
    TRACKHEIGHT 0 0 0 0 0 0 0
    INQ 0 0 0 0.5 100 0 0 100
    NCHAN 2
    FX 1
    TRACKID {127F30D5-BCFA-41C4-8729-1E50511370DF}
    PERF 0
    MIDIOUT -1
    MAINSEND 1 0
    <FXCHAIN
      WNDRECT 24 52 700 560
      SHOW 0
      LASTSEL 0
      DOCKED 0
      BYPASS 0 0 0
      <JS "ReapNES Studio/ReapNES_Console.jsfx" ""
        2 15 1 10 80 10 100 2 1 15 1 5 60 10 80 1 1 0 50 0 0 15 1 0 100 0 0 0.500000 0.500000 0.400000 0.300000 0.800000 0 1 0 0 0 0 - - - - - - - - - - - - - - - - - - - - - - - - - -
      >
      FLOATPOS 0 0 0 0
      FXID {83F75FED-1E4B-4223-AEB4-09E9099377F5}
      WAK 0 0
    >
    <ITEM
      POSITION 0
      LENGTH 83.98134
      LOOP 0
      ALLTAKES 0
      FADEIN 0 0 0 0 0 0 0
      FADEOUT 0 0 0 0 0 0 0
      MUTE 0 0
      SEL 0
      IGUID {85931822-2D8A-4E33-93F3-6B1CCE1027A9}
      <SOURCE MIDI
        HASDATA 1 480 QN
        CCINTERP 32
        E 0 c0 50
        E 0 b0 0c 40
        E 0 b0 0b 20
        E 0 90 24 20
        E 576 80 24 00
        E 0 90 3c 20
        E 48 80 3c 00
        E 0 90 3e 20
        E 48 80 3e 00
        E 0 90 3f 20
        E 96 80 3f 00
        E 0 90 3e 20
        E 192 80 3e 00
        E 0 90 3d 20
        E 192 80 3d 00
        E 0 90 37 20
        E 192 b0 0b 78
        E 0 80 37 00
        E 0 90 38 78
        E 864 b0 0b 20
        E 0 80 38 00
        E 0 90 37 20
        E 48 80 37 00
        E 0 90 38 20
        E 48 80 38 00
        E 0 90 37 20
        E 192 80 37 00
        E 0 90 35 20
        E 192 80 35 00
        E 0 90 33 20
        E 192 80 33 00
        E 0 90 32 20
        E 192 80 32 00
        E 0 90 30 20
        E 576 80 30 00
        E 0 90 3c 20
        E 48 80 3c 00
        E 0 90 3e 20
        E 48 80 3e 00
        E 0 90 3f 20
        E 96 80 3f 00
        E 0 90 3e 20
        E 192 80 3e 00
        E 0 90 3d 20
        E 192 80 3d 00
        E 0 90 37 20
        E 576 b0 0b 78
        E 0 80 37 00
        E 0 90 3b 78
        E 384 b0 0b 20
        E 0 80 3b 00
        E 0 90 37 20
        E 192 80 37 00
        E 0 90 35 20
        E 384 80 35 00
        E 0 90 33 20
        E 192 80 33 00
        E 0 90 30 20
        E 1728 80 30 00
        E 0 90 24 20
        E 576 80 24 00
        E 0 90 3c 20
        E 48 80 3c 00
        E 0 90 3e 20
        E 48 80 3e 00
        E 0 90 3f 20
        E 96 80 3f 00
        E 0 90 3e 20
        E 192 80 3e 00
        E 0 90 3d 20
        E 192 80 3d 00
        E 0 90 37 20
        E 192 b0 0b 78
        E 0 80 37 00
        E 0 90 38 78
        E 864 b0 0b 20
        E 0 80 38 00
        E 0 90 37 20
        E 48 80 37 00
        E 0 90 38 20
        E 48 80 38 00
        E 0 90 37 20
        E 192 80 37 00
        E 0 90 35 20
        E 192 80 35 00
        E 0 90 33 20
        E 192 80 33 00
        E 0 90 32 20
        E 192 80 32 00
        E 0 90 30 20
        E 576 80 30 00
        E 0 90 3c 20
        E 48 80 3c 00
        E 0 90 3e 20
        E 48 80 3e 00
        E 0 90 3f 20
        E 96 80 3f 00
        E 0 90 3e 20
        E 192 80 3e 00
        E 0 90 3d 20
        E 192 80 3d 00
        E 0 90 37 20
        E 576 b0 0b 78
        E 0 80 37 00
        E 0 90 3b 78
        E 384 b0 0b 20
        E 0 80 3b 00
        E 0 90 37 20
        E 192 80 37 00
        E 0 90 35 20
        E 384 80 35 00
        E 0 90 33 20
        E 192 80 33 00
        E 0 90 30 20
        E 1728 80 30 00
        E 0 90 24 20
        E 576 80 24 00
        E 0 90 3c 20
        E 48 80 3c 00
        E 0 90 3e 20
        E 48 80 3e 00
        E 0 90 3f 20
        E 96 80 3f 00
        E 0 90 3e 20
        E 192 80 3e 00
        E 0 90 3d 20
        E 192 80 3d 00
        E 0 90 37 20
        E 192 b0 0b 78
        E 0 80 37 00
        E 0 90 38 78
        E 864 b0 0b 20
        E 0 80 38 00
        E 0 90 37 20
        E 48 80 37 00
        E 0 90 38 20
        E 48 80 38 00
        E 0 90 37 20
        E 192 80 37 00
        E 0 90 35 20
        E 192 80 35 00
        E 0 90 33 20
        E 192 80 33 00
        E 0 90 32 20
        E 192 80 32 00
        E 0 90 30 20
        E 576 80 30 00
        E 0 90 3c 20
        E 48 80 3c 00
        E 0 90 3e 20
        E 48 80 3e 00
        E 0 90 3f 20
        E 96 80 3f 00
        E 0 90 3e 20
        E 192 80 3e 00
        E 0 90 3d 20
        E 192 80 3d 00
        E 0 90 37 20
        E 576 b0 0b 78
        E 0 80 37 00
        E 0 90 3b 78
        E 384 b0 0b 20
        E 0 80 3b 00
        E 0 90 37 20
        E 192 80 37 00
        E 0 90 35 20
        E 384 80 35 00
        E 0 90 33 20
        E 192 80 33 00
        E 0 90 30 20
        E 1728 80 30 00
        E 0 90 24 20
        E 576 80 24 00
        E 0 90 3c 20
        E 48 80 3c 00
        E 0 90 3e 20
        E 48 80 3e 00
        E 0 90 3f 20
        E 96 80 3f 00
        E 0 90 3e 20
        E 192 80 3e 00
        E 0 90 3d 20
        E 192 80 3d 00
        E 0 90 37 20
        E 192 b0 0b 78
        E 0 80 37 00
        E 0 90 38 78
        E 864 b0 0b 20
        E 0 80 38 00
        E 0 90 37 20
        E 48 80 37 00
        E 0 90 38 20
        E 48 80 38 00
        E 0 90 37 20
        E 192 80 37 00
        E 0 90 35 20
        E 192 80 35 00
        E 0 90 33 20
        E 192 80 33 00
        E 0 90 32 20
        E 192 80 32 00
        E 0 90 30 20
        E 576 80 30 00
        E 0 90 3c 20
        E 48 80 3c 00
        E 0 90 3e 20
        E 48 80 3e 00
        E 0 90 3f 20
        E 96 80 3f 00
        E 0 90 3e 20
        E 192 80 3e 00
        E 0 90 3d 20
        E 192 80 3d 00
        E 0 90 37 20
        E 576 b0 0b 78
        E 0 80 37 00
        E 0 90 3b 78
        E 384 b0 0b 20
        E 0 80 3b 00
        E 0 90 37 20
        E 192 80 37 00
        E 0 90 35 20
        E 384 80 35 00
        E 0 90 33 20
        E 192 80 33 00
        E 0 90 30 20
        E 1728 b0 0c 10
        E 0 b0 0b 18
        E 384 80 30 00
        E 0 90 37 18
        E 192 80 37 00
        E 0 90 30 18
        E 384 b0 0b 60
        E 0 80 30 00
        E 0 90 32 60
        E 576 b0 0b 18
        E 0 80 32 00
        E 0 90 30 18
        E 384 80 30 00
        E 0 90 37 18
        E 192 80 37 00
        E 0 90 30 18
        E 384 b0 0b 60
        E 0 80 30 00
        E 0 90 3a 60
        E 576 b0 0b 18
        E 0 80 3a 00
        E 0 90 30 18
        E 384 80 30 00
        E 0 90 37 18
        E 192 80 37 00
        E 0 90 30 18
        E 384 b0 0b 60
        E 0 80 30 00
        E 0 90 32 60
        E 576 b0 0b 18
        E 0 80 32 00
        E 0 90 30 18
        E 384 80 30 00
        E 0 90 37 18
        E 192 80 37 00
        E 0 90 30 18
        E 384 b0 0b 60
        E 0 80 30 00
        E 0 90 3a 60
        E 576 b0 0b 18
        E 0 80 3a 00
        E 0 90 30 18
        E 384 80 30 00
        E 0 90 37 18
        E 192 80 37 00
        E 0 90 30 18
        E 384 b0 0b 60
        E 0 80 30 00
        E 0 90 32 60
        E 576 b0 0b 18
        E 0 80 32 00
        E 0 90 30 18
        E 384 80 30 00
        E 0 90 37 18
        E 192 80 37 00
        E 0 90 30 18
        E 384 b0 0b 60
        E 0 80 30 00
        E 0 90 3a 60
        E 576 b0 0b 18
        E 0 80 3a 00
        E 0 90 30 18
        E 384 80 30 00
        E 0 90 37 18
        E 192 80 37 00
        E 0 90 30 18
        E 384 b0 0b 60
        E 0 80 30 00
        E 0 90 32 60
        E 576 b0 0b 18
        E 0 80 32 00
        E 0 90 30 18
        E 384 80 30 00
        E 0 90 37 18
        E 192 80 37 00
        E 0 90 30 18
        E 384 b0 0b 60
        E 0 80 30 00
        E 0 90 3a 60
        E 576 b0 0c 40
        E 0 b0 0b 68
        E 0 80 3a 00
        E 0 90 40 68
        E 256 80 40 00
        E 0 90 41 68
        E 256 80 41 00
        E 0 90 42 68
        E 256 80 42 00
        E 0 90 43 68
        E 256 80 43 00
        E 0 90 44 68
        E 256 80 44 00
        E 0 90 45 68
        E 128 80 45 00
        E 0 90 46 68
        E 1152 b0 0b 18
        E 256 b0 0b 20
        E 0 80 46 00
        E 0 90 24 20
        E 576 80 24 00
        E 0 90 3c 20
        E 48 80 3c 00
        E 0 90 3e 20
        E 48 80 3e 00
        E 0 90 3f 20
        E 96 80 3f 00
        E 0 90 3e 20
        E 192 80 3e 00
        E 0 90 3d 20
        E 192 80 3d 00
        E 0 90 37 20
        E 192 b0 0b 78
        E 0 80 37 00
        E 0 90 38 78
        E 864 b0 0b 20
        E 0 80 38 00
        E 0 90 37 20
        E 48 80 37 00
        E 0 90 38 20
        E 48 80 38 00
        E 0 90 37 20
        E 192 80 37 00
        E 0 90 35 20
        E 192 80 35 00
        E 0 90 33 20
        E 192 80 33 00
        E 0 90 32 20
        E 192 80 32 00
        E 0 90 30 20
        E 576 80 30 00
        E 0 90 3c 20
        E 48 80 3c 00
        E 0 90 3e 20
        E 48 80 3e 00
        E 0 90 3f 20
        E 96 80 3f 00
        E 0 90 3e 20
        E 192 80 3e 00
        E 0 90 3d 20
        E 192 80 3d 00
        E 0 90 37 20
        E 576 b0 0b 78
        E 0 80 37 00
        E 0 90 3b 78
        E 384 b0 0b 20
        E 0 80 3b 00
        E 0 90 37 20
        E 192 80 37 00
        E 0 90 35 20
        E 384 80 35 00
        E 0 90 33 20
        E 192 80 33 00
        E 0 90 30 20
        E 1728 80 30 00
        E 0 90 24 20
        E 576 80 24 00
        E 0 90 3c 20
        E 48 80 3c 00
        E 0 90 3e 20
        E 48 80 3e 00
        E 0 90 3f 20
        E 96 80 3f 00
        E 0 90 3e 20
        E 192 80 3e 00
        E 0 90 3d 20
        E 192 80 3d 00
        E 0 90 37 20
        E 192 b0 0b 78
        E 0 80 37 00
        E 0 90 38 78
        E 864 b0 0b 20
        E 0 80 38 00
        E 0 90 37 20
        E 48 80 37 00
        E 0 90 38 20
        E 48 80 38 00
        E 0 90 37 20
        E 192 80 37 00
        E 0 90 35 20
        E 192 80 35 00
        E 0 90 33 20
        E 192 80 33 00
        E 0 90 32 20
        E 192 80 32 00
        E 0 90 30 20
        E 576 80 30 00
        E 0 90 3c 20
        E 48 80 3c 00
        E 0 90 3e 20
        E 48 80 3e 00
        E 0 90 3f 20
        E 96 80 3f 00
        E 0 90 3e 20
        E 192 80 3e 00
        E 0 90 3d 20
        E 192 80 3d 00
        E 0 90 37 20
        E 576 b0 0b 78
        E 0 80 37 00
        E 0 90 3b 78
        E 384 b0 0b 20
        E 0 80 3b 00
        E 0 90 37 20
        E 192 80 37 00
        E 0 90 35 20
        E 384 80 35 00
        E 0 90 33 20
        E 192 80 33 00
        E 0 90 30 20
        E 1728 80 30 00
        E 0 90 24 20
        E 576 80 24 00
        E 0 90 3c 20
        E 48 80 3c 00
        E 0 90 3e 20
        E 48 80 3e 00
        E 0 90 3f 20
        E 96 80 3f 00
        E 0 90 3e 20
        E 192 80 3e 00
        E 0 90 3d 20
        E 192 80 3d 00
        E 0 90 37 20
        E 192 b0 0b 78
        E 0 80 37 00
        E 0 90 38 78
        E 864 b0 0b 20
        E 0 80 38 00
        E 0 90 37 20
        E 48 80 37 00
        E 0 90 38 20
        E 48 80 38 00
        E 0 90 37 20
        E 192 80 37 00
        E 0 90 35 20
        E 192 80 35 00
        E 0 90 33 20
        E 192 80 33 00
        E 0 90 32 20
        E 192 80 32 00
        E 0 90 30 20
        E 576 80 30 00
        E 0 90 3c 20
        E 48 80 3c 00
        E 0 90 3e 20
        E 48 80 3e 00
        E 0 90 3f 20
        E 96 80 3f 00
        E 0 90 3e 20
        E 192 80 3e 00
        E 0 90 3d 20
        E 192 80 3d 00
        E 0 90 37 20
        E 576 b0 0b 78
        E 0 80 37 00
        E 0 90 3b 78
        E 384 b0 0b 20
        E 0 80 3b 00
        E 0 90 37 20
        E 192 80 37 00
        E 0 90 35 20
        E 384 80 35 00
        E 0 90 33 20
        E 192 80 33 00
        E 0 90 30 20
        E 1728 80 30 00
        E 0 90 24 20
        E 576 80 24 00
        E 0 90 3c 20
        E 48 80 3c 00
        E 0 90 3e 20
        E 48 80 3e 00
        E 0 90 3f 20
        E 96 80 3f 00
        E 0 90 3e 20
        E 192 80 3e 00
        E 0 90 3d 20
        E 192 80 3d 00
        E 0 90 37 20
        E 192 b0 0b 78
        E 0 80 37 00
        E 0 90 38 78
        E 864 b0 0b 20
        E 0 80 38 00
        E 0 90 37 20
        E 48 80 37 00
        E 0 90 38 20
        E 48 80 38 00
        E 0 90 37 20
        E 192 80 37 00
        E 0 90 35 20
        E 192 80 35 00
        E 0 90 33 20
        E 192 80 33 00
        E 0 90 32 20
        E 192 80 32 00
        E 0 90 30 20
        E 576 80 30 00
        E 0 90 3c 20
        E 48 80 3c 00
        E 0 90 3e 20
        E 48 80 3e 00
        E 0 90 3f 20
        E 96 80 3f 00
        E 0 90 3e 20
        E 192 80 3e 00
        E 0 90 3d 20
        E 192 80 3d 00
        E 0 90 37 20
        E 576 b0 0b 78
        E 0 80 37 00
        E 0 90 3b 78
        E 384 b0 0b 20
        E 0 80 3b 00
        E 0 90 37 20
        E 192 80 37 00
        E 0 90 35 20
        E 384 80 35 00
        E 0 90 33 20
        E 192 80 33 00
        E 0 90 30 20
        E 1728 b0 0c 10
        E 0 b0 0b 18
        E 384 80 30 00
        E 0 90 37 18
        E 192 80 37 00
        E 0 90 30 18
        E 384 b0 0b 60
        E 0 80 30 00
        E 0 90 32 60
        E 576 b0 0b 18
        E 0 80 32 00
        E 0 90 30 18
        E 384 80 30 00
        E 0 90 37 18
        E 192 80 37 00
        E 0 90 30 18
        E 384 b0 0b 60
        E 0 80 30 00
        E 0 90 3a 60
        E 576 b0 0b 18
        E 0 80 3a 00
        E 0 90 30 18
        E 384 80 30 00
        E 0 90 37 18
        E 192 80 37 00
        E 0 90 30 18
        E 384 b0 0b 60
        E 0 80 30 00
        E 0 90 32 60
        E 576 b0 0b 18
        E 0 80 32 00
        E 0 90 30 18
        E 384 80 30 00
        E 0 90 37 18
        E 192 80 37 00
        E 0 90 30 18
        E 384 b0 0b 60
        E 0 80 30 00
        E 0 90 3a 60
        E 576 b0 0b 18
        E 0 80 3a 00
        E 0 90 30 18
        E 384 80 30 00
        E 0 90 37 18
        E 192 80 37 00
        E 0 90 30 18
        E 384 b0 0b 60
        E 0 80 30 00
        E 0 90 32 60
        E 576 b0 0b 18
        E 0 80 32 00
        E 0 90 30 18
        E 384 80 30 00
        E 0 90 37 18
        E 192 80 37 00
        E 0 90 30 18
        E 384 b0 0b 60
        E 0 80 30 00
        E 0 90 3a 60
        E 576 b0 0b 18
        E 0 80 3a 00
        E 0 90 30 18
        E 384 80 30 00
        E 0 90 37 18
        E 192 80 37 00
        E 0 90 30 18
        E 64 80 30 00
        E 0 ff 2f 00
      >
    >
  >
  <TRACK {649CFABB-7D27-4101-8575-1A15C50E1E9E}
    NAME "NES - Pulse 2 [ch1]"
    PEAKCOL 10092441
    BEAT -1
    AUTOMODE 0
    PANLAWFLAGS 3
    VOLPAN 1 0 -1 -1 1
    MUTESOLO 0 0 0
    IPHASE 0
    PLAYOFFS 0 1
    ISBUS 0 0
    BUSCOMP 0 0 0 0 0
    SHOWINMIX 1 0.6667 0.5 1 0.5 0 0 0
    FIXEDLANES 9 0 0 0 0
    SEL 0
    REC 0 5088 1 0 0 0 0 0
    VU 2
    TRACKHEIGHT 0 0 0 0 0 0 0
    INQ 0 0 0 0.5 100 0 0 100
    NCHAN 2
    FX 1
    TRACKID {649CFABB-7D27-4101-8575-1A15C50E1E9E}
    PERF 0
    MIDIOUT -1
    MAINSEND 1 0
    <FXCHAIN
      WNDRECT 24 52 700 560
      SHOW 0
      LASTSEL 0
      DOCKED 0
      BYPASS 0 0 0
      <JS "ReapNES Studio/ReapNES_Console.jsfx" ""
        2 15 1 10 80 10 100 2 1 15 1 5 60 10 80 1 1 0 50 0 0 15 1 0 100 0 0 0.500000 0.500000 0.400000 0.300000 0.800000 1 1 0 0 0 0 - - - - - - - - - - - - - - - - - - - - - - - - - -
      >
      FLOATPOS 0 0 0 0
      FXID {BE6D24C0-A8FC-4A17-BCF3-765E0A36594E}
      WAK 0 0
    >
    <ITEM
      POSITION 0
      LENGTH 83.98134
      LOOP 0
      ALLTAKES 0
      FADEIN 0 0 0 0 0 0 0
      FADEOUT 0 0 0 0 0 0 0
      MUTE 0 0
      SEL 0
      IGUID {C5456296-4380-4936-9A47-77AAF072A80E}
      <SOURCE MIDI
        HASDATA 1 480 QN
        CCINTERP 32
        E 0 c1 51
        E 0 b1 0c 10
        E 0 b1 0b 20
        E 0 91 30 20
        E 624 81 30 00
        E 0 91 32 20
        E 48 81 32 00
        E 0 91 33 20
        E 96 81 33 00
        E 0 91 32 20
        E 192 81 32 00
        E 0 91 31 20
        E 192 81 31 00
        E 0 91 2b 20
        E 192 b1 0b 78
        E 0 81 2b 00
        E 0 91 2c 78
        E 864 b1 0b 20
        E 0 81 2c 00
        E 0 91 2b 20
        E 48 81 2b 00
        E 0 91 2c 20
        E 48 81 2c 00
        E 0 91 2b 20
        E 192 81 2b 00
        E 0 91 29 20
        E 192 81 29 00
        E 0 91 27 20
        E 192 81 27 00
        E 0 91 26 20
        E 192 81 26 00
        E 0 91 24 20
        E 576 81 24 00
        E 0 91 30 20
        E 48 81 30 00
        E 0 91 32 20
        E 48 81 32 00
        E 0 91 33 20
        E 96 81 33 00
        E 0 91 32 20
        E 192 81 32 00
        E 0 91 31 20
        E 192 81 31 00
        E 0 91 2b 20
        E 576 b1 0b 78
        E 0 81 2b 00
        E 0 91 2f 78
        E 384 b1 0b 20
        E 0 81 2f 00
        E 0 91 2b 20
        E 192 81 2b 00
        E 0 91 29 20
        E 384 81 29 00
        E 0 91 27 20
        E 192 81 27 00
        E 0 91 24 20
        E 1728 81 24 00
        E 0 91 30 20
        E 624 81 30 00
        E 0 91 32 20
        E 48 81 32 00
        E 0 91 33 20
        E 96 81 33 00
        E 0 91 32 20
        E 192 81 32 00
        E 0 91 31 20
        E 192 81 31 00
        E 0 91 2b 20
        E 192 b1 0b 78
        E 0 81 2b 00
        E 0 91 2c 78
        E 864 b1 0b 20
        E 0 81 2c 00
        E 0 91 2b 20
        E 48 81 2b 00
        E 0 91 2c 20
        E 48 81 2c 00
        E 0 91 2b 20
        E 192 81 2b 00
        E 0 91 29 20
        E 192 81 29 00
        E 0 91 27 20
        E 192 81 27 00
        E 0 91 26 20
        E 192 81 26 00
        E 0 91 24 20
        E 576 81 24 00
        E 0 91 30 20
        E 48 81 30 00
        E 0 91 32 20
        E 48 81 32 00
        E 0 91 33 20
        E 96 81 33 00
        E 0 91 32 20
        E 192 81 32 00
        E 0 91 31 20
        E 192 81 31 00
        E 0 91 2b 20
        E 576 b1 0b 78
        E 0 81 2b 00
        E 0 91 2f 78
        E 384 b1 0b 20
        E 0 81 2f 00
        E 0 91 2b 20
        E 192 81 2b 00
        E 0 91 29 20
        E 384 81 29 00
        E 0 91 27 20
        E 192 81 27 00
        E 0 91 24 20
        E 1728 81 24 00
        E 0 91 30 20
        E 624 81 30 00
        E 0 91 32 20
        E 48 81 32 00
        E 0 91 33 20
        E 96 81 33 00
        E 0 91 32 20
        E 192 81 32 00
        E 0 91 31 20
        E 192 81 31 00
        E 0 91 2b 20
        E 192 b1 0b 78
        E 0 81 2b 00
        E 0 91 2c 78
        E 864 b1 0b 20
        E 0 81 2c 00
        E 0 91 2b 20
        E 48 81 2b 00
        E 0 91 2c 20
        E 48 81 2c 00
        E 0 91 2b 20
        E 192 81 2b 00
        E 0 91 29 20
        E 192 81 29 00
        E 0 91 27 20
        E 192 81 27 00
        E 0 91 26 20
        E 192 81 26 00
        E 0 91 24 20
        E 576 81 24 00
        E 0 91 30 20
        E 48 81 30 00
        E 0 91 32 20
        E 48 81 32 00
        E 0 91 33 20
        E 96 81 33 00
        E 0 91 32 20
        E 192 81 32 00
        E 0 91 31 20
        E 192 81 31 00
        E 0 91 2b 20
        E 576 b1 0b 78
        E 0 81 2b 00
        E 0 91 2f 78
        E 384 b1 0b 20
        E 0 81 2f 00
        E 0 91 2b 20
        E 192 81 2b 00
        E 0 91 29 20
        E 384 81 29 00
        E 0 91 27 20
        E 192 81 27 00
        E 0 91 24 20
        E 1728 81 24 00
        E 0 91 30 20
        E 624 81 30 00
        E 0 91 32 20
        E 48 81 32 00
        E 0 91 33 20
        E 96 81 33 00
        E 0 91 32 20
        E 192 81 32 00
        E 0 91 31 20
        E 192 81 31 00
        E 0 91 2b 20
        E 192 b1 0b 78
        E 0 81 2b 00
        E 0 91 2c 78
        E 864 b1 0b 20
        E 0 81 2c 00
        E 0 91 2b 20
        E 48 81 2b 00
        E 0 91 2c 20
        E 48 81 2c 00
        E 0 91 2b 20
        E 192 81 2b 00
        E 0 91 29 20
        E 192 81 29 00
        E 0 91 27 20
        E 192 81 27 00
        E 0 91 26 20
        E 192 81 26 00
        E 0 91 24 20
        E 576 81 24 00
        E 0 91 30 20
        E 48 81 30 00
        E 0 91 32 20
        E 48 81 32 00
        E 0 91 33 20
        E 96 81 33 00
        E 0 91 32 20
        E 192 81 32 00
        E 0 91 31 20
        E 192 81 31 00
        E 0 91 2b 20
        E 576 b1 0b 78
        E 0 81 2b 00
        E 0 91 2f 78
        E 384 b1 0b 20
        E 0 81 2f 00
        E 0 91 2b 20
        E 192 81 2b 00
        E 0 91 29 20
        E 384 81 29 00
        E 0 91 27 20
        E 192 81 27 00
        E 0 91 24 20
        E 1728 b1 0b 18
        E 384 81 24 00
        E 0 91 3c 18
        E 192 81 3c 00
        E 0 91 24 18
        E 384 b1 0b 60
        E 0 81 24 00
        E 0 91 37 60
        E 576 b1 0b 18
        E 0 81 37 00
        E 0 91 24 18
        E 384 81 24 00
        E 0 91 3c 18
        E 192 81 3c 00
        E 0 91 24 18
        E 384 b1 0b 60
        E 0 81 24 00
        E 0 91 3f 60
        E 384 81 3f 00
        E 0 91 3e 60
        E 192 b1 0b 18
        E 0 81 3e 00
        E 0 91 24 18
        E 384 81 24 00
        E 0 91 3c 18
        E 192 81 3c 00
        E 0 91 24 18
        E 384 b1 0b 60
        E 0 81 24 00
        E 0 91 37 60
        E 576 b1 0b 18
        E 0 81 37 00
        E 0 91 24 18
        E 384 81 24 00
        E 0 91 3c 18
        E 192 81 3c 00
        E 0 91 24 18
        E 384 b1 0b 60
        E 0 81 24 00
        E 0 91 3f 60
        E 384 81 3f 00
        E 0 91 3e 60
        E 192 b1 0b 18
        E 0 81 3e 00
        E 0 91 24 18
        E 384 81 24 00
        E 0 91 3c 18
        E 192 81 3c 00
        E 0 91 24 18
        E 384 b1 0b 60
        E 0 81 24 00
        E 0 91 37 60
        E 576 b1 0b 18
        E 0 81 37 00
        E 0 91 24 18
        E 384 81 24 00
        E 0 91 3c 18
        E 192 81 3c 00
        E 0 91 24 18
        E 384 b1 0b 60
        E 0 81 24 00
        E 0 91 3f 60
        E 384 81 3f 00
        E 0 91 3e 60
        E 192 b1 0b 18
        E 0 81 3e 00
        E 0 91 24 18
        E 384 81 24 00
        E 0 91 3c 18
        E 192 81 3c 00
        E 0 91 24 18
        E 384 b1 0b 60
        E 0 81 24 00
        E 0 91 37 60
        E 576 b1 0b 18
        E 0 81 37 00
        E 0 91 24 18
        E 384 81 24 00
        E 0 91 3c 18
        E 192 81 3c 00
        E 0 91 24 18
        E 384 b1 0b 60
        E 0 81 24 00
        E 0 91 3f 60
        E 384 81 3f 00
        E 0 91 3e 60
        E 192 b1 0c 40
        E 0 b1 0b 68
        E 0 81 3e 00
        E 0 91 36 68
        E 256 81 36 00
        E 0 91 37 68
        E 256 81 37 00
        E 0 91 38 68
        E 256 81 38 00
        E 0 91 39 68
        E 256 81 39 00
        E 0 91 3a 68
        E 256 81 3a 00
        E 0 91 3b 68
        E 128 81 3b 00
        E 0 91 3c 68
        E 1152 b1 0b 18
        E 256 b1 0c 10
        E 0 b1 0b 20
        E 0 81 3c 00
        E 0 91 30 20
        E 624 81 30 00
        E 0 91 32 20
        E 48 81 32 00
        E 0 91 33 20
        E 96 81 33 00
        E 0 91 32 20
        E 192 81 32 00
        E 0 91 31 20
        E 192 81 31 00
        E 0 91 2b 20
        E 192 b1 0b 78
        E 0 81 2b 00
        E 0 91 2c 78
        E 864 b1 0b 20
        E 0 81 2c 00
        E 0 91 2b 20
        E 48 81 2b 00
        E 0 91 2c 20
        E 48 81 2c 00
        E 0 91 2b 20
        E 192 81 2b 00
        E 0 91 29 20
        E 192 81 29 00
        E 0 91 27 20
        E 192 81 27 00
        E 0 91 26 20
        E 192 81 26 00
        E 0 91 24 20
        E 576 81 24 00
        E 0 91 30 20
        E 48 81 30 00
        E 0 91 32 20
        E 48 81 32 00
        E 0 91 33 20
        E 96 81 33 00
        E 0 91 32 20
        E 192 81 32 00
        E 0 91 31 20
        E 192 81 31 00
        E 0 91 2b 20
        E 576 b1 0b 78
        E 0 81 2b 00
        E 0 91 2f 78
        E 384 b1 0b 20
        E 0 81 2f 00
        E 0 91 2b 20
        E 192 81 2b 00
        E 0 91 29 20
        E 384 81 29 00
        E 0 91 27 20
        E 192 81 27 00
        E 0 91 24 20
        E 1728 81 24 00
        E 0 91 30 20
        E 624 81 30 00
        E 0 91 32 20
        E 48 81 32 00
        E 0 91 33 20
        E 96 81 33 00
        E 0 91 32 20
        E 192 81 32 00
        E 0 91 31 20
        E 192 81 31 00
        E 0 91 2b 20
        E 192 b1 0b 78
        E 0 81 2b 00
        E 0 91 2c 78
        E 864 b1 0b 20
        E 0 81 2c 00
        E 0 91 2b 20
        E 48 81 2b 00
        E 0 91 2c 20
        E 48 81 2c 00
        E 0 91 2b 20
        E 192 81 2b 00
        E 0 91 29 20
        E 192 81 29 00
        E 0 91 27 20
        E 192 81 27 00
        E 0 91 26 20
        E 192 81 26 00
        E 0 91 24 20
        E 576 81 24 00
        E 0 91 30 20
        E 48 81 30 00
        E 0 91 32 20
        E 48 81 32 00
        E 0 91 33 20
        E 96 81 33 00
        E 0 91 32 20
        E 192 81 32 00
        E 0 91 31 20
        E 192 81 31 00
        E 0 91 2b 20
        E 576 b1 0b 78
        E 0 81 2b 00
        E 0 91 2f 78
        E 384 b1 0b 20
        E 0 81 2f 00
        E 0 91 2b 20
        E 192 81 2b 00
        E 0 91 29 20
        E 384 81 29 00
        E 0 91 27 20
        E 192 81 27 00
        E 0 91 24 20
        E 1728 81 24 00
        E 0 91 30 20
        E 624 81 30 00
        E 0 91 32 20
        E 48 81 32 00
        E 0 91 33 20
        E 96 81 33 00
        E 0 91 32 20
        E 192 81 32 00
        E 0 91 31 20
        E 192 81 31 00
        E 0 91 2b 20
        E 192 b1 0b 78
        E 0 81 2b 00
        E 0 91 2c 78
        E 864 b1 0b 20
        E 0 81 2c 00
        E 0 91 2b 20
        E 48 81 2b 00
        E 0 91 2c 20
        E 48 81 2c 00
        E 0 91 2b 20
        E 192 81 2b 00
        E 0 91 29 20
        E 192 81 29 00
        E 0 91 27 20
        E 192 81 27 00
        E 0 91 26 20
        E 192 81 26 00
        E 0 91 24 20
        E 576 81 24 00
        E 0 91 30 20
        E 48 81 30 00
        E 0 91 32 20
        E 48 81 32 00
        E 0 91 33 20
        E 96 81 33 00
        E 0 91 32 20
        E 192 81 32 00
        E 0 91 31 20
        E 192 81 31 00
        E 0 91 2b 20
        E 576 b1 0b 78
        E 0 81 2b 00
        E 0 91 2f 78
        E 384 b1 0b 20
        E 0 81 2f 00
        E 0 91 2b 20
        E 192 81 2b 00
        E 0 91 29 20
        E 384 81 29 00
        E 0 91 27 20
        E 192 81 27 00
        E 0 91 24 20
        E 1728 81 24 00
        E 0 91 30 20
        E 624 81 30 00
        E 0 91 32 20
        E 48 81 32 00
        E 0 91 33 20
        E 96 81 33 00
        E 0 91 32 20
        E 192 81 32 00
        E 0 91 31 20
        E 192 81 31 00
        E 0 91 2b 20
        E 192 b1 0b 78
        E 0 81 2b 00
        E 0 91 2c 78
        E 864 b1 0b 20
        E 0 81 2c 00
        E 0 91 2b 20
        E 48 81 2b 00
        E 0 91 2c 20
        E 48 81 2c 00
        E 0 91 2b 20
        E 192 81 2b 00
        E 0 91 29 20
        E 192 81 29 00
        E 0 91 27 20
        E 192 81 27 00
        E 0 91 26 20
        E 192 81 26 00
        E 0 91 24 20
        E 576 81 24 00
        E 0 91 30 20
        E 48 81 30 00
        E 0 91 32 20
        E 48 81 32 00
        E 0 91 33 20
        E 96 81 33 00
        E 0 91 32 20
        E 192 81 32 00
        E 0 91 31 20
        E 192 81 31 00
        E 0 91 2b 20
        E 576 b1 0b 78
        E 0 81 2b 00
        E 0 91 2f 78
        E 384 b1 0b 20
        E 0 81 2f 00
        E 0 91 2b 20
        E 192 81 2b 00
        E 0 91 29 20
        E 384 81 29 00
        E 0 91 27 20
        E 192 81 27 00
        E 0 91 24 20
        E 1728 b1 0b 18
        E 384 81 24 00
        E 0 91 3c 18
        E 192 81 3c 00
        E 0 91 24 18
        E 384 b1 0b 60
        E 0 81 24 00
        E 0 91 37 60
        E 576 b1 0b 18
        E 0 81 37 00
        E 0 91 24 18
        E 384 81 24 00
        E 0 91 3c 18
        E 192 81 3c 00
        E 0 91 24 18
        E 384 b1 0b 60
        E 0 81 24 00
        E 0 91 3f 60
        E 384 81 3f 00
        E 0 91 3e 60
        E 192 b1 0b 18
        E 0 81 3e 00
        E 0 91 24 18
        E 384 81 24 00
        E 0 91 3c 18
        E 192 81 3c 00
        E 0 91 24 18
        E 384 b1 0b 60
        E 0 81 24 00
        E 0 91 37 60
        E 576 b1 0b 18
        E 0 81 37 00
        E 0 91 24 18
        E 384 81 24 00
        E 0 91 3c 18
        E 192 81 3c 00
        E 0 91 24 18
        E 384 b1 0b 60
        E 0 81 24 00
        E 0 91 3f 60
        E 384 81 3f 00
        E 0 91 3e 60
        E 192 b1 0b 18
        E 0 81 3e 00
        E 0 91 24 18
        E 384 81 24 00
        E 0 91 3c 18
        E 192 81 3c 00
        E 0 91 24 18
        E 384 b1 0b 60
        E 0 81 24 00
        E 0 91 37 60
        E 576 b1 0b 18
        E 0 81 37 00
        E 0 91 24 18
        E 384 81 24 00
        E 0 91 3c 18
        E 192 81 3c 00
        E 0 91 24 18
        E 384 b1 0b 60
        E 0 81 24 00
        E 0 91 3f 60
        E 384 81 3f 00
        E 0 91 3e 60
        E 192 b1 0b 18
        E 0 81 3e 00
        E 0 91 24 18
        E 384 81 24 00
        E 0 91 3c 18
        E 192 81 3c 00
        E 0 91 24 18
        E 64 81 24 00
        E 0 ff 2f 00
      >
    >
  >
  <TRACK {2708EC3F-ABE2-4FDC-85F2-7734260C1D16}
    NAME "NES - Triangle [ch2]"
    PEAKCOL 16744192
    BEAT -1
    AUTOMODE 0
    PANLAWFLAGS 3
    VOLPAN 1 0 -1 -1 1
    MUTESOLO 0 0 0
    IPHASE 0
    PLAYOFFS 0 1
    ISBUS 0 0
    BUSCOMP 0 0 0 0 0
    SHOWINMIX 1 0.6667 0.5 1 0.5 0 0 0
    FIXEDLANES 9 0 0 0 0
    SEL 0
    REC 0 5088 1 0 0 0 0 0
    VU 2
    TRACKHEIGHT 0 0 0 0 0 0 0
    INQ 0 0 0 0.5 100 0 0 100
    NCHAN 2
    FX 1
    TRACKID {2708EC3F-ABE2-4FDC-85F2-7734260C1D16}
    PERF 0
    MIDIOUT -1
    MAINSEND 1 0
    <FXCHAIN
      WNDRECT 24 52 700 560
      SHOW 0
      LASTSEL 0
      DOCKED 0
      BYPASS 0 0 0
      <JS "ReapNES Studio/ReapNES_Console.jsfx" ""
        2 15 1 10 80 10 100 2 1 15 1 5 60 10 80 1 1 0 50 0 0 15 1 0 100 0 0 0.500000 0.500000 0.400000 0.300000 0.800000 2 1 0 0 0 0 - - - - - - - - - - - - - - - - - - - - - - - - - -
      >
      FLOATPOS 0 0 0 0
      FXID {9DCAB9D9-B706-4E6E-A62E-00FEE984D1C0}
      WAK 0 0
    >
    <ITEM
      POSITION 0
      LENGTH 83.98134
      LOOP 0
      ALLTAKES 0
      FADEIN 0 0 0 0 0 0 0
      FADEOUT 0 0 0 0 0 0 0
      MUTE 0 0
      SEL 0
      IGUID {5A4DA3C8-D95F-4DEA-B479-3777CB5B81DB}
      <SOURCE MIDI
        HASDATA 1 480 QN
        CCINTERP 32
        E 0 c2 26
        E 0 b2 0b 7f
        E 0 92 24 7f
        E 576 82 24 00
        E 0 b2 0b 7f
        E 0 92 30 7f
        E 48 82 30 00
        E 0 b2 0b 7f
        E 0 92 32 7f
        E 48 82 32 00
        E 0 b2 0b 7f
        E 0 92 33 7f
        E 96 82 33 00
        E 0 b2 0b 7f
        E 0 92 32 7f
        E 192 82 32 00
        E 0 b2 0b 7f
        E 0 92 31 7f
        E 192 82 31 00
        E 0 b2 0b 7f
        E 0 92 2b 7f
        E 192 82 2b 00
        E 0 b2 0b 7f
        E 0 92 2c 7f
        E 864 82 2c 00
        E 0 b2 0b 7f
        E 0 92 2b 7f
        E 48 82 2b 00
        E 0 b2 0b 7f
        E 0 92 2c 7f
        E 48 82 2c 00
        E 0 b2 0b 7f
        E 0 92 2b 7f
        E 192 82 2b 00
        E 0 b2 0b 7f
        E 0 92 29 7f
        E 192 82 29 00
        E 0 b2 0b 7f
        E 0 92 27 7f
        E 192 82 27 00
        E 0 b2 0b 7f
        E 0 92 26 7f
        E 192 82 26 00
        E 0 b2 0b 7f
        E 0 92 24 7f
        E 576 82 24 00
        E 0 b2 0b 7f
        E 0 92 30 7f
        E 48 82 30 00
        E 0 b2 0b 7f
        E 0 92 32 7f
        E 48 82 32 00
        E 0 b2 0b 7f
        E 0 92 33 7f
        E 96 82 33 00
        E 0 b2 0b 7f
        E 0 92 32 7f
        E 192 82 32 00
        E 0 b2 0b 7f
        E 0 92 31 7f
        E 192 82 31 00
        E 0 b2 0b 7f
        E 0 92 2b 7f
        E 576 82 2b 00
        E 0 b2 0b 7f
        E 0 92 2f 7f
        E 384 82 2f 00
        E 0 b2 0b 7f
        E 0 92 2b 7f
        E 192 82 2b 00
        E 0 b2 0b 7f
        E 0 92 29 7f
        E 384 82 29 00
        E 0 b2 0b 7f
        E 0 92 27 7f
        E 192 82 27 00
        E 0 b2 0b 7f
        E 0 92 24 7f
        E 2304 82 24 00
        E 0 b2 0b 7f
        E 0 92 30 7f
        E 48 82 30 00
        E 0 b2 0b 7f
        E 0 92 32 7f
        E 48 82 32 00
        E 0 b2 0b 7f
        E 0 92 33 7f
        E 96 82 33 00
        E 0 b2 0b 7f
        E 0 92 32 7f
        E 192 82 32 00
        E 0 b2 0b 7f
        E 0 92 31 7f
        E 192 82 31 00
        E 0 b2 0b 7f
        E 0 92 2b 7f
        E 192 82 2b 00
        E 0 b2 0b 7f
        E 0 92 2c 7f
        E 864 82 2c 00
        E 0 b2 0b 7f
        E 0 92 2b 7f
        E 48 82 2b 00
        E 0 b2 0b 7f
        E 0 92 2c 7f
        E 48 82 2c 00
        E 0 b2 0b 7f
        E 0 92 2b 7f
        E 192 82 2b 00
        E 0 b2 0b 7f
        E 0 92 29 7f
        E 192 82 29 00
        E 0 b2 0b 7f
        E 0 92 27 7f
        E 192 82 27 00
        E 0 b2 0b 7f
        E 0 92 26 7f
        E 192 82 26 00
        E 0 b2 0b 7f
        E 0 92 24 7f
        E 576 82 24 00
        E 0 b2 0b 7f
        E 0 92 30 7f
        E 48 82 30 00
        E 0 b2 0b 7f
        E 0 92 32 7f
        E 48 82 32 00
        E 0 b2 0b 7f
        E 0 92 33 7f
        E 96 82 33 00
        E 0 b2 0b 7f
        E 0 92 32 7f
        E 192 82 32 00
        E 0 b2 0b 7f
        E 0 92 31 7f
        E 192 82 31 00
        E 0 b2 0b 7f
        E 0 92 2b 7f
        E 576 82 2b 00
        E 0 b2 0b 7f
        E 0 92 2f 7f
        E 384 82 2f 00
        E 0 b2 0b 7f
        E 0 92 2b 7f
        E 192 82 2b 00
        E 0 b2 0b 7f
        E 0 92 29 7f
        E 384 82 29 00
        E 0 b2 0b 7f
        E 0 92 27 7f
        E 192 82 27 00
        E 0 b2 0b 7f
        E 0 92 24 7f
        E 2304 82 24 00
        E 0 b2 0b 7f
        E 0 92 30 7f
        E 48 82 30 00
        E 0 b2 0b 7f
        E 0 92 32 7f
        E 48 82 32 00
        E 0 b2 0b 7f
        E 0 92 33 7f
        E 96 82 33 00
        E 0 b2 0b 7f
        E 0 92 32 7f
        E 192 82 32 00
        E 0 b2 0b 7f
        E 0 92 31 7f
        E 192 82 31 00
        E 0 b2 0b 7f
        E 0 92 2b 7f
        E 192 82 2b 00
        E 0 b2 0b 7f
        E 0 92 2c 7f
        E 864 82 2c 00
        E 0 b2 0b 7f
        E 0 92 2b 7f
        E 48 82 2b 00
        E 0 b2 0b 7f
        E 0 92 2c 7f
        E 48 82 2c 00
        E 0 b2 0b 7f
        E 0 92 2b 7f
        E 192 82 2b 00
        E 0 b2 0b 7f
        E 0 92 29 7f
        E 192 82 29 00
        E 0 b2 0b 7f
        E 0 92 27 7f
        E 192 82 27 00
        E 0 b2 0b 7f
        E 0 92 26 7f
        E 192 82 26 00
        E 0 b2 0b 7f
        E 0 92 24 7f
        E 576 82 24 00
        E 0 b2 0b 7f
        E 0 92 30 7f
        E 48 82 30 00
        E 0 b2 0b 7f
        E 0 92 32 7f
        E 48 82 32 00
        E 0 b2 0b 7f
        E 0 92 33 7f
        E 96 82 33 00
        E 0 b2 0b 7f
        E 0 92 32 7f
        E 192 82 32 00
        E 0 b2 0b 7f
        E 0 92 31 7f
        E 192 82 31 00
        E 0 b2 0b 7f
        E 0 92 2b 7f
        E 576 82 2b 00
        E 0 b2 0b 7f
        E 0 92 2f 7f
        E 384 82 2f 00
        E 0 b2 0b 7f
        E 0 92 2b 7f
        E 192 82 2b 00
        E 0 b2 0b 7f
        E 0 92 29 7f
        E 384 82 29 00
        E 0 b2 0b 7f
        E 0 92 27 7f
        E 192 82 27 00
        E 0 b2 0b 7f
        E 0 92 24 7f
        E 2304 82 24 00
        E 0 b2 0b 7f
        E 0 92 30 7f
        E 48 82 30 00
        E 0 b2 0b 7f
        E 0 92 32 7f
        E 48 82 32 00
        E 0 b2 0b 7f
        E 0 92 33 7f
        E 96 82 33 00
        E 0 b2 0b 7f
        E 0 92 32 7f
        E 192 82 32 00
        E 0 b2 0b 7f
        E 0 92 31 7f
        E 192 82 31 00
        E 0 b2 0b 7f
        E 0 92 2b 7f
        E 192 82 2b 00
        E 0 b2 0b 7f
        E 0 92 2c 7f
        E 864 82 2c 00
        E 0 b2 0b 7f
        E 0 92 2b 7f
        E 48 82 2b 00
        E 0 b2 0b 7f
        E 0 92 2c 7f
        E 48 82 2c 00
        E 0 b2 0b 7f
        E 0 92 2b 7f
        E 192 82 2b 00
        E 0 b2 0b 7f
        E 0 92 29 7f
        E 192 82 29 00
        E 0 b2 0b 7f
        E 0 92 27 7f
        E 192 82 27 00
        E 0 b2 0b 7f
        E 0 92 26 7f
        E 192 82 26 00
        E 0 b2 0b 7f
        E 0 92 24 7f
        E 576 82 24 00
        E 0 b2 0b 7f
        E 0 92 30 7f
        E 48 82 30 00
        E 0 b2 0b 7f
        E 0 92 32 7f
        E 48 82 32 00
        E 0 b2 0b 7f
        E 0 92 33 7f
        E 96 82 33 00
        E 0 b2 0b 7f
        E 0 92 32 7f
        E 192 82 32 00
        E 0 b2 0b 7f
        E 0 92 31 7f
        E 192 82 31 00
        E 0 b2 0b 7f
        E 0 92 2b 7f
        E 576 82 2b 00
        E 0 b2 0b 7f
        E 0 92 2f 7f
        E 384 82 2f 00
        E 0 b2 0b 7f
        E 0 92 2b 7f
        E 192 82 2b 00
        E 0 b2 0b 7f
        E 0 92 29 7f
        E 384 82 29 00
        E 0 b2 0b 7f
        E 0 92 27 7f
        E 192 82 27 00
        E 0 b2 0b 7f
        E 0 92 24 7f
        E 1728 82 24 00
        E 0 b2 0b 7f
        E 0 92 30 7f
        E 384 82 30 00
        E 0 b2 0b 7f
        E 0 92 3a 7f
        E 576 82 3a 00
        E 0 b2 0b 7f
        E 0 92 35 7f
        E 576 82 35 00
        E 0 b2 0b 7f
        E 0 92 30 7f
        E 384 82 30 00
        E 0 b2 0b 7f
        E 0 92 3a 7f
        E 576 82 3a 00
        E 0 b2 0b 7f
        E 0 92 3c 7f
        E 576 82 3c 00
        E 0 b2 0b 7f
        E 0 92 30 7f
        E 384 82 30 00
        E 0 b2 0b 7f
        E 0 92 3a 7f
        E 576 82 3a 00
        E 0 b2 0b 7f
        E 0 92 35 7f
        E 576 82 35 00
        E 0 b2 0b 7f
        E 0 92 30 7f
        E 384 82 30 00
        E 0 b2 0b 7f
        E 0 92 3a 7f
        E 576 82 3a 00
        E 0 b2 0b 7f
        E 0 92 3c 7f
        E 576 82 3c 00
        E 0 b2 0b 7f
        E 0 92 30 7f
        E 384 82 30 00
        E 0 b2 0b 7f
        E 0 92 3a 7f
        E 576 82 3a 00
        E 0 b2 0b 7f
        E 0 92 35 7f
        E 576 82 35 00
        E 0 b2 0b 7f
        E 0 92 30 7f
        E 384 82 30 00
        E 0 b2 0b 7f
        E 0 92 3a 7f
        E 576 82 3a 00
        E 0 b2 0b 7f
        E 0 92 3c 7f
        E 576 82 3c 00
        E 0 b2 0b 7f
        E 0 92 30 7f
        E 384 82 30 00
        E 0 b2 0b 7f
        E 0 92 3a 7f
        E 576 82 3a 00
        E 0 b2 0b 7f
        E 0 92 35 7f
        E 576 82 35 00
        E 0 b2 0b 7f
        E 0 92 30 7f
        E 384 82 30 00
        E 0 b2 0b 7f
        E 0 92 3a 7f
        E 576 82 3a 00
        E 0 b2 0b 7f
        E 0 92 3c 7f
        E 832 82 3c 00
        E 0 b2 0b 7f
        E 0 92 3d 7f
        E 256 82 3d 00
        E 0 b2 0b 7f
        E 0 92 3e 7f
        E 256 82 3e 00
        E 0 b2 0b 7f
        E 0 92 3f 7f
        E 256 82 3f 00
        E 0 b2 0b 7f
        E 0 92 40 7f
        E 256 82 40 00
        E 0 b2 0b 7f
        E 0 92 41 7f
        E 128 82 41 00
        E 0 b2 0b 7f
        E 0 92 42 7f
        E 32 82 42 00
        E 0 b2 0b 7f
        E 0 92 41 7f
        E 32 82 41 00
        E 0 b2 0b 7f
        E 0 92 42 7f
        E 32 82 42 00
        E 0 b2 0b 7f
        E 0 92 41 7f
        E 32 82 41 00
        E 0 b2 0b 7f
        E 0 92 42 7f
        E 32 82 42 00
        E 0 b2 0b 7f
        E 0 92 41 7f
        E 32 82 41 00
        E 0 b2 0b 7f
        E 0 92 42 7f
        E 32 82 42 00
        E 0 b2 0b 7f
        E 0 92 41 7f
        E 32 82 41 00
        E 0 b2 0b 7f
        E 0 92 42 7f
        E 32 82 42 00
        E 0 b2 0b 7f
        E 0 92 41 7f
        E 32 82 41 00
        E 0 b2 0b 7f
        E 0 92 42 7f
        E 32 82 42 00
        E 0 b2 0b 7f
        E 0 92 41 7f
        E 32 82 41 00
        E 0 b2 0b 7f
        E 0 92 42 7f
        E 32 82 42 00
        E 0 b2 0b 7f
        E 0 92 41 7f
        E 32 82 41 00
        E 0 b2 0b 7f
        E 0 92 42 7f
        E 32 82 42 00
        E 0 b2 0b 7f
        E 0 92 41 7f
        E 32 82 41 00
        E 0 b2 0b 7f
        E 0 92 42 7f
        E 32 82 42 00
        E 0 b2 0b 7f
        E 0 92 41 7f
        E 32 82 41 00
        E 0 b2 0b 7f
        E 0 92 42 7f
        E 32 82 42 00
        E 0 b2 0b 7f
        E 0 92 41 7f
        E 32 82 41 00
        E 0 b2 0b 7f
        E 0 92 42 7f
        E 32 82 42 00
        E 0 b2 0b 7f
        E 0 92 41 7f
        E 32 82 41 00
        E 0 b2 0b 7f
        E 0 92 42 7f
        E 32 82 42 00
        E 0 b2 0b 7f
        E 0 92 41 7f
        E 32 82 41 00
        E 0 b2 0b 7f
        E 0 92 42 7f
        E 32 82 42 00
        E 0 b2 0b 7f
        E 0 92 41 7f
        E 32 82 41 00
        E 0 b2 0b 7f
        E 0 92 42 7f
        E 32 82 42 00
        E 0 b2 0b 7f
        E 0 92 41 7f
        E 32 82 41 00
        E 0 b2 0b 7f
        E 0 92 42 7f
        E 32 82 42 00
        E 0 b2 0b 7f
        E 0 92 41 7f
        E 32 82 41 00
        E 0 b2 0b 7f
        E 0 92 42 7f
        E 32 82 42 00
        E 0 b2 0b 7f
        E 0 92 41 7f
        E 32 82 41 00
        E 0 b2 0b 7f
        E 0 92 42 7f
        E 32 82 42 00
        E 0 b2 0b 7f
        E 0 92 41 7f
        E 32 82 41 00
        E 0 b2 0b 7f
        E 0 92 42 7f
        E 32 82 42 00
        E 0 b2 0b 7f
        E 0 92 41 7f
        E 32 82 41 00
        E 0 b2 0b 7f
        E 0 92 42 7f
        E 256 82 42 00
        E 0 b2 0b 7f
        E 0 92 24 7f
        E 576 82 24 00
        E 0 b2 0b 7f
        E 0 92 30 7f
        E 48 82 30 00
        E 0 b2 0b 7f
        E 0 92 32 7f
        E 48 82 32 00
        E 0 b2 0b 7f
        E 0 92 33 7f
        E 96 82 33 00
        E 0 b2 0b 7f
        E 0 92 32 7f
        E 192 82 32 00
        E 0 b2 0b 7f
        E 0 92 31 7f
        E 192 82 31 00
        E 0 b2 0b 7f
        E 0 92 2b 7f
        E 192 82 2b 00
        E 0 b2 0b 7f
        E 0 92 2c 7f
        E 864 82 2c 00
        E 0 b2 0b 7f
        E 0 92 2b 7f
        E 48 82 2b 00
        E 0 b2 0b 7f
        E 0 92 2c 7f
        E 48 82 2c 00
        E 0 b2 0b 7f
        E 0 92 2b 7f
        E 192 82 2b 00
        E 0 b2 0b 7f
        E 0 92 29 7f
        E 192 82 29 00
        E 0 b2 0b 7f
        E 0 92 27 7f
        E 192 82 27 00
        E 0 b2 0b 7f
        E 0 92 26 7f
        E 192 82 26 00
        E 0 b2 0b 7f
        E 0 92 24 7f
        E 576 82 24 00
        E 0 b2 0b 7f
        E 0 92 30 7f
        E 48 82 30 00
        E 0 b2 0b 7f
        E 0 92 32 7f
        E 48 82 32 00
        E 0 b2 0b 7f
        E 0 92 33 7f
        E 96 82 33 00
        E 0 b2 0b 7f
        E 0 92 32 7f
        E 192 82 32 00
        E 0 b2 0b 7f
        E 0 92 31 7f
        E 192 82 31 00
        E 0 b2 0b 7f
        E 0 92 2b 7f
        E 576 82 2b 00
        E 0 b2 0b 7f
        E 0 92 2f 7f
        E 384 82 2f 00
        E 0 b2 0b 7f
        E 0 92 2b 7f
        E 192 82 2b 00
        E 0 b2 0b 7f
        E 0 92 29 7f
        E 384 82 29 00
        E 0 b2 0b 7f
        E 0 92 27 7f
        E 192 82 27 00
        E 0 b2 0b 7f
        E 0 92 24 7f
        E 2304 82 24 00
        E 0 b2 0b 7f
        E 0 92 30 7f
        E 48 82 30 00
        E 0 b2 0b 7f
        E 0 92 32 7f
        E 48 82 32 00
        E 0 b2 0b 7f
        E 0 92 33 7f
        E 96 82 33 00
        E 0 b2 0b 7f
        E 0 92 32 7f
        E 192 82 32 00
        E 0 b2 0b 7f
        E 0 92 31 7f
        E 192 82 31 00
        E 0 b2 0b 7f
        E 0 92 2b 7f
        E 192 82 2b 00
        E 0 b2 0b 7f
        E 0 92 2c 7f
        E 864 82 2c 00
        E 0 b2 0b 7f
        E 0 92 2b 7f
        E 48 82 2b 00
        E 0 b2 0b 7f
        E 0 92 2c 7f
        E 48 82 2c 00
        E 0 b2 0b 7f
        E 0 92 2b 7f
        E 192 82 2b 00
        E 0 b2 0b 7f
        E 0 92 29 7f
        E 192 82 29 00
        E 0 b2 0b 7f
        E 0 92 27 7f
        E 192 82 27 00
        E 0 b2 0b 7f
        E 0 92 26 7f
        E 192 82 26 00
        E 0 b2 0b 7f
        E 0 92 24 7f
        E 576 82 24 00
        E 0 b2 0b 7f
        E 0 92 30 7f
        E 48 82 30 00
        E 0 b2 0b 7f
        E 0 92 32 7f
        E 48 82 32 00
        E 0 b2 0b 7f
        E 0 92 33 7f
        E 96 82 33 00
        E 0 b2 0b 7f
        E 0 92 32 7f
        E 192 82 32 00
        E 0 b2 0b 7f
        E 0 92 31 7f
        E 192 82 31 00
        E 0 b2 0b 7f
        E 0 92 2b 7f
        E 576 82 2b 00
        E 0 b2 0b 7f
        E 0 92 2f 7f
        E 384 82 2f 00
        E 0 b2 0b 7f
        E 0 92 2b 7f
        E 192 82 2b 00
        E 0 b2 0b 7f
        E 0 92 29 7f
        E 384 82 29 00
        E 0 b2 0b 7f
        E 0 92 27 7f
        E 192 82 27 00
        E 0 b2 0b 7f
        E 0 92 24 7f
        E 2304 82 24 00
        E 0 b2 0b 7f
        E 0 92 30 7f
        E 48 82 30 00
        E 0 b2 0b 7f
        E 0 92 32 7f
        E 48 82 32 00
        E 0 b2 0b 7f
        E 0 92 33 7f
        E 96 82 33 00
        E 0 b2 0b 7f
        E 0 92 32 7f
        E 192 82 32 00
        E 0 b2 0b 7f
        E 0 92 31 7f
        E 192 82 31 00
        E 0 b2 0b 7f
        E 0 92 2b 7f
        E 192 82 2b 00
        E 0 b2 0b 7f
        E 0 92 2c 7f
        E 864 82 2c 00
        E 0 b2 0b 7f
        E 0 92 2b 7f
        E 48 82 2b 00
        E 0 b2 0b 7f
        E 0 92 2c 7f
        E 48 82 2c 00
        E 0 b2 0b 7f
        E 0 92 2b 7f
        E 192 82 2b 00
        E 0 b2 0b 7f
        E 0 92 29 7f
        E 192 82 29 00
        E 0 b2 0b 7f
        E 0 92 27 7f
        E 192 82 27 00
        E 0 b2 0b 7f
        E 0 92 26 7f
        E 192 82 26 00
        E 0 b2 0b 7f
        E 0 92 24 7f
        E 576 82 24 00
        E 0 b2 0b 7f
        E 0 92 30 7f
        E 48 82 30 00
        E 0 b2 0b 7f
        E 0 92 32 7f
        E 48 82 32 00
        E 0 b2 0b 7f
        E 0 92 33 7f
        E 96 82 33 00
        E 0 b2 0b 7f
        E 0 92 32 7f
        E 192 82 32 00
        E 0 b2 0b 7f
        E 0 92 31 7f
        E 192 82 31 00
        E 0 b2 0b 7f
        E 0 92 2b 7f
        E 576 82 2b 00
        E 0 b2 0b 7f
        E 0 92 2f 7f
        E 384 82 2f 00
        E 0 b2 0b 7f
        E 0 92 2b 7f
        E 192 82 2b 00
        E 0 b2 0b 7f
        E 0 92 29 7f
        E 384 82 29 00
        E 0 b2 0b 7f
        E 0 92 27 7f
        E 192 82 27 00
        E 0 b2 0b 7f
        E 0 92 24 7f
        E 2304 82 24 00
        E 0 b2 0b 7f
        E 0 92 30 7f
        E 48 82 30 00
        E 0 b2 0b 7f
        E 0 92 32 7f
        E 48 82 32 00
        E 0 b2 0b 7f
        E 0 92 33 7f
        E 96 82 33 00
        E 0 b2 0b 7f
        E 0 92 32 7f
        E 192 82 32 00
        E 0 b2 0b 7f
        E 0 92 31 7f
        E 192 82 31 00
        E 0 b2 0b 7f
        E 0 92 2b 7f
        E 192 82 2b 00
        E 0 b2 0b 7f
        E 0 92 2c 7f
        E 864 82 2c 00
        E 0 b2 0b 7f
        E 0 92 2b 7f
        E 48 82 2b 00
        E 0 b2 0b 7f
        E 0 92 2c 7f
        E 48 82 2c 00
        E 0 b2 0b 7f
        E 0 92 2b 7f
        E 192 82 2b 00
        E 0 b2 0b 7f
        E 0 92 29 7f
        E 192 82 29 00
        E 0 b2 0b 7f
        E 0 92 27 7f
        E 192 82 27 00
        E 0 b2 0b 7f
        E 0 92 26 7f
        E 192 82 26 00
        E 0 b2 0b 7f
        E 0 92 24 7f
        E 576 82 24 00
        E 0 b2 0b 7f
        E 0 92 30 7f
        E 48 82 30 00
        E 0 b2 0b 7f
        E 0 92 32 7f
        E 48 82 32 00
        E 0 b2 0b 7f
        E 0 92 33 7f
        E 96 82 33 00
        E 0 b2 0b 7f
        E 0 92 32 7f
        E 192 82 32 00
        E 0 b2 0b 7f
        E 0 92 31 7f
        E 192 82 31 00
        E 0 b2 0b 7f
        E 0 92 2b 7f
        E 576 82 2b 00
        E 0 b2 0b 7f
        E 0 92 2f 7f
        E 384 82 2f 00
        E 0 b2 0b 7f
        E 0 92 2b 7f
        E 192 82 2b 00
        E 0 b2 0b 7f
        E 0 92 29 7f
        E 384 82 29 00
        E 0 b2 0b 7f
        E 0 92 27 7f
        E 192 82 27 00
        E 0 b2 0b 7f
        E 0 92 24 7f
        E 1728 82 24 00
        E 0 b2 0b 7f
        E 0 92 30 7f
        E 384 82 30 00
        E 0 b2 0b 7f
        E 0 92 3a 7f
        E 576 82 3a 00
        E 0 b2 0b 7f
        E 0 92 35 7f
        E 576 82 35 00
        E 0 b2 0b 7f
        E 0 92 30 7f
        E 384 82 30 00
        E 0 b2 0b 7f
        E 0 92 3a 7f
        E 576 82 3a 00
        E 0 b2 0b 7f
        E 0 92 3c 7f
        E 576 82 3c 00
        E 0 b2 0b 7f
        E 0 92 30 7f
        E 384 82 30 00
        E 0 b2 0b 7f
        E 0 92 3a 7f
        E 576 82 3a 00
        E 0 b2 0b 7f
        E 0 92 35 7f
        E 576 82 35 00
        E 0 b2 0b 7f
        E 0 92 30 7f
        E 384 82 30 00
        E 0 b2 0b 7f
        E 0 92 3a 7f
        E 576 82 3a 00
        E 0 b2 0b 7f
        E 0 92 3c 7f
        E 576 82 3c 00
        E 0 b2 0b 7f
        E 0 92 30 7f
        E 384 82 30 00
        E 0 b2 0b 7f
        E 0 92 3a 7f
        E 576 82 3a 00
        E 0 b2 0b 7f
        E 0 92 35 7f
        E 576 82 35 00
        E 0 b2 0b 7f
        E 0 92 30 7f
        E 384 82 30 00
        E 0 b2 0b 7f
        E 0 92 3a 7f
        E 576 82 3a 00
        E 0 b2 0b 7f
        E 0 92 3c 7f
        E 576 82 3c 00
        E 0 b2 0b 7f
        E 0 92 30 7f
        E 384 82 30 00
        E 0 b2 0b 7f
        E 0 92 3a 7f
        E 256 82 3a 00
        E 0 ff 2f 00
      >
    >
  >
  <TRACK {1BBEDC89-A5E1-476D-84F1-96CD4F213F50}
    NAME "NES - Noise / Drums"
    PEAKCOL 11184810
    BEAT -1
    AUTOMODE 0
    PANLAWFLAGS 3
    VOLPAN 1 0 -1 -1 1
    MUTESOLO 0 0 0
    IPHASE 0
    PLAYOFFS 0 1
    ISBUS 0 0
    BUSCOMP 0 0 0 0 0
    SHOWINMIX 1 0.6667 0.5 1 0.5 0 0 0
    FIXEDLANES 9 0 0 0 0
    SEL 0
    REC 0 5088 1 0 0 0 0 0
    VU 2
    TRACKHEIGHT 0 0 0 0 0 0 0
    INQ 0 0 0 0.5 100 0 0 100
    NCHAN 2
    FX 1
    TRACKID {1BBEDC89-A5E1-476D-84F1-96CD4F213F50}
    PERF 0
    MIDIOUT -1
    MAINSEND 1 0
    <FXCHAIN
      WNDRECT 24 52 700 560
      SHOW 0
      LASTSEL 0
      DOCKED 0
      BYPASS 0 0 0
      <JS "ReapNES Studio/ReapNES_Console.jsfx" ""
        2 15 1 10 80 10 100 2 1 15 1 5 60 10 80 1 1 0 50 0 0 15 1 0 100 0 0 0.500000 0.500000 0.400000 0.300000 0.800000 3 1 0 0 0 0 - - - - - - - - - - - - - - - - - - - - - - - - - -
      >
      FLOATPOS 0 0 0 0
      FXID {5543ADE9-C56A-480B-BA0C-88951DD31417}
      WAK 0 0
    >
  >
>