<REAPER_PROJECT 0.1 "7.27/win64" 1707000000
  <NOTES 0 2
    |ReapNES Studio Project
    |MIDI Import - Wizards_&_Warriors_16_Forest_of_Elrond_(alt)_v1
  >
  RIPPLE 0
  GROUPOVERRIDE 0 0 0
  AUTOXFADE 129
  ENVATTACH 3
  POOLEDENVATTACH 0
  MIXERUIFLAGS 11 48
  ENVFADESZ10 40
  PEAKGAIN 1
  FEEDBACK 0
  PANLAW 1
  PROJOFFS 0 0 0
  MAXPROJLEN 0 0
  GRID 3199 8 1 8 1 0 0 0
  TIMEMODE 1 5 -1 30 0 0 -1
  VIDEO_CONFIG 0 0 65792
  PANMODE 3
  PANLAWFLAGS 3
  CURSOR 0
  ZOOM 100 0 0
  VZOOMEX 6 0
  USE_REC_CFG 0
  RECMODE 1
  SMPTESYNC 0 30 100 40 1000 300 0 0 1 0 0
  LOOP 0
  LOOPGRAN 0 4
  RECORD_PATH "Media" ""
  <RECORD_CFG
    ZXZhdxgAAQ==
  >
  <APPLYFX_CFG
  >
  RENDER_FILE ""
  RENDER_PATTERN ""
  RENDER_FMT 0 2 0
  RENDER_1X 0
  RENDER_RANGE 1 0 0 18 1000
  RENDER_RESAMPLE 3 0 1
  RENDER_ADDTOPROJ 0
  RENDER_STEMS 0
  RENDER_DITHER 0
  TIMELOCKMODE 1
  TEMPOENVLOCKMODE 1
  ITEMMIX 1
  DEFPITCHMODE 589824 0
  TAKELANE 1
  SAMPLERATE 44100 0 0
  <RENDER_CFG
    ZXZhdxgAAQ==
  >
  LOCK 1
  <METRONOME 6 2
    VOL 0.25 0.125
    BEATLEN 4
    FREQ 1760 880 1
    SAMPLES "" ""
    SPLIGNORE 0 0
    SPLDEF 2 660 "" 0
    SPLDEF 3 440 "" 0
    PATTERN 0 169
    PATTERNSTR ABBB
    MULT 1
  >
  GLOBAL_AUTO -1
  TEMPO 128.59999614200012 4 4
  PLAYRATE 1 0 0.25 4
  SELECTION 0 0
  SELECTION2 0 0
  MASTERAUTOMODE 0
  MASTERTRACKHEIGHT 0 0
  MASTERPEAKCOL 16576
  MASTERMUTESOLO 0
  MASTERTRACKVIEW 0 0.6667 0.5 0.5 0 0 0 0 0 0 0 0 0 0
  MASTERHWOUT 0 0 1 0 0 0 0 -1
  MASTER_NCH 2 2
  MASTER_VOLUME 1 0 -1 -1 1
  MASTER_PANMODE 3
  MASTER_PANLAWFLAGS 3
  MASTER_FX 1
  MASTER_SEL 0
  <MASTERPLAYSPEEDENV
    EGUID {3553A424-4FF0-4B00-9867-DE3300D370A1}
    ACT 0 -1
    VIS 0 1 1
    LANEHEIGHT 0 0
    ARM 0
    DEFSHAPE 0 -1 -1
  >
  <TEMPOENVEX
    EGUID {D8FB2788-B09E-4009-BEAC-4895C2DF2CFE}
    ACT 1 -1
    VIS 1 0 1
    LANEHEIGHT 0 0
    ARM 0
    DEFSHAPE 1 -1 -1
  >
  <PROJBAY
  >
  <TRACK {D2E133D1-BDDD-4265-BD5C-0F4C4CF5D883}
    NAME "NES - Pulse 1"
    PEAKCOL 16576606
    BEAT -1
    AUTOMODE 0
    PANLAWFLAGS 3
    VOLPAN 1 0 -1 -1 1
    MUTESOLO 0 0 0
    IPHASE 0
    PLAYOFFS 0 1
    ISBUS 0 0
    BUSCOMP 0 0 0 0 0
    SHOWINMIX 1 0.6667 0.5 1 0.5 0 0 0
    FIXEDLANES 9 0 0 0 0
    SEL 1
    REC 1 5088 1 0 0 0 0 0
    VU 2
    TRACKHEIGHT 0 0 0 0 0 0 0
    INQ 0 0 0 0.5 100 0 0 100
    NCHAN 2
    FX 1
    TRACKID {D2E133D1-BDDD-4265-BD5C-0F4C4CF5D883}
    PERF 0
    MIDIOUT -1
    MAINSEND 1 0
    <FXCHAIN
      WNDRECT 24 52 700 560
      SHOW 0
      LASTSEL 0
      DOCKED 0
      BYPASS 0 0 0
      <JS "ReapNES Studio/ReapNES_Console.jsfx" ""
        2 15 1 10 80 10 100 2 1 15 1 5 60 10 80 1 1 0 50 0 0 15 1 0 100 0 0 0.500000 0.500000 0.400000 0.300000 0.800000 0 1 0 0 0 0 - - - - - - - - - - - - - - - - - - - - - - - - - -
      >
      FLOATPOS 0 0 0 0
      FXID {65B5F186-CEE0-43E4-AF8A-43B39B4D7324}
      WAK 0 0
    >
  >
  <TRACK {6045D7AB-0A09-4091-80FD-95E869C2473A}
    NAME "NES - Pulse 2 [ch1]"
    PEAKCOL 10092441
    BEAT -1
    AUTOMODE 0
    PANLAWFLAGS 3
    VOLPAN 1 0 -1 -1 1
    MUTESOLO 0 0 0
    IPHASE 0
    PLAYOFFS 0 1
    ISBUS 0 0
    BUSCOMP 0 0 0 0 0
    SHOWINMIX 1 0.6667 0.5 1 0.5 0 0 0
    FIXEDLANES 9 0 0 0 0
    SEL 0
    REC 0 5088 1 0 0 0 0 0
    VU 2
    TRACKHEIGHT 0 0 0 0 0 0 0
    INQ 0 0 0 0.5 100 0 0 100
    NCHAN 2
    FX 1
    TRACKID {6045D7AB-0A09-4091-80FD-95E869C2473A}
    PERF 0
    MIDIOUT -1
    MAINSEND 1 0
    <FXCHAIN
      WNDRECT 24 52 700 560
      SHOW 0
      LASTSEL 0
      DOCKED 0
      BYPASS 0 0 0
      <JS "ReapNES Studio/ReapNES_Console.jsfx" ""
        2 15 1 10 80 10 100 2 1 15 1 5 60 10 80 1 1 0 50 0 0 15 1 0 100 0 0 0.500000 0.500000 0.400000 0.300000 0.800000 1 1 0 0 0 0 - - - - - - - - - - - - - - - - - - - - - - - - - -
      >
      FLOATPOS 0 0 0 0
      FXID {5B610760-F3DE-414D-99B3-20614395D189}
      WAK 0 0
    >
    <ITEM
      POSITION 0
      LENGTH 83.98134
      LOOP 0
      ALLTAKES 0
      FADEIN 0 0 0 0 0 0 0
      FADEOUT 0 0 0 0 0 0 0
      MUTE 0 0
      SEL 0
      IGUID {64F65CFF-42FC-4C47-846B-0BAA86101B37}
      <SOURCE MIDI
        HASDATA 1 480 QN
        CCINTERP 32
        E 0 c1 51
        E 0 b1 0c 20
        E 0 b1 0b 20
        E 0 91 3c 20
        E 192 81 3c 00
        E 0 91 30 20
        E 576 81 30 00
        E 0 91 32 20
        E 192 81 32 00
        E 0 91 33 20
        E 576 81 33 00
        E 0 91 35 20
        E 768 81 35 00
        E 0 91 36 20
        E 192 81 36 00
        E 0 91 37 20
        E 576 81 37 00
        E 0 91 3c 20
        E 192 81 3c 00
        E 0 91 30 20
        E 576 81 30 00
        E 0 91 32 20
        E 192 81 32 00
        E 0 91 33 20
        E 576 81 33 00
        E 0 91 35 20
        E 768 81 35 00
        E 0 91 36 20
        E 192 81 36 00
        E 0 91 37 20
        E 576 81 37 00
        E 0 91 3c 20
        E 192 81 3c 00
        E 0 91 30 20
        E 576 81 30 00
        E 0 91 32 20
        E 192 81 32 00
        E 0 91 33 20
        E 576 81 33 00
        E 0 91 35 20
        E 768 81 35 00
        E 0 91 36 20
        E 192 81 36 00
        E 0 91 37 20
        E 576 81 37 00
        E 0 91 3c 20
        E 192 81 3c 00
        E 0 91 30 20
        E 576 81 30 00
        E 0 91 32 20
        E 192 81 32 00
        E 0 91 33 20
        E 576 81 33 00
        E 0 91 35 20
        E 768 81 35 00
        E 0 91 36 20
        E 192 81 36 00
        E 0 91 37 20
        E 576 81 37 00
        E 0 91 3c 20
        E 192 81 3c 00
        E 0 91 30 20
        E 576 81 30 00
        E 0 91 32 20
        E 192 81 32 00
        E 0 91 33 20
        E 576 81 33 00
        E 0 91 35 20
        E 768 81 35 00
        E 0 91 36 20
        E 192 81 36 00
        E 0 91 37 20
        E 576 81 37 00
        E 0 91 3c 20
        E 192 81 3c 00
        E 0 91 30 20
        E 576 81 30 00
        E 0 91 32 20
        E 192 81 32 00
        E 0 91 33 20
        E 576 81 33 00
        E 0 91 35 20
        E 768 81 35 00
        E 0 91 36 20
        E 192 81 36 00
        E 0 91 37 20
        E 576 81 37 00
        E 0 91 3c 20
        E 192 81 3c 00
        E 0 91 30 20
        E 576 81 30 00
        E 0 91 32 20
        E 192 81 32 00
        E 0 91 33 20
        E 576 81 33 00
        E 0 91 35 20
        E 768 81 35 00
        E 0 91 36 20
        E 192 81 36 00
        E 0 91 37 20
        E 576 81 37 00
        E 0 91 3c 20
        E 192 81 3c 00
        E 0 91 30 20
        E 576 81 30 00
        E 0 91 32 20
        E 192 81 32 00
        E 0 91 33 20
        E 576 81 33 00
        E 0 91 35 20
        E 768 81 35 00
        E 0 91 36 20
        E 192 81 36 00
        E 0 91 37 20
        E 576 81 37 00
        E 0 91 3c 20
        E 192 81 3c 00
        E 0 91 30 20
        E 576 81 30 00
        E 0 91 32 20
        E 192 81 32 00
        E 0 91 33 20
        E 576 81 33 00
        E 0 91 35 20
        E 768 81 35 00
        E 0 91 36 20
        E 192 81 36 00
        E 0 91 37 20
        E 576 81 37 00
        E 0 91 3c 20
        E 192 81 3c 00
        E 0 91 30 20
        E 576 81 30 00
        E 0 91 32 20
        E 192 81 32 00
        E 0 91 33 20
        E 576 81 33 00
        E 0 91 35 20
        E 768 81 35 00
        E 0 91 36 20
        E 192 81 36 00
        E 0 91 37 20
        E 576 81 37 00
        E 0 91 3c 20
        E 192 81 3c 00
        E 0 91 30 20
        E 576 81 30 00
        E 0 91 32 20
        E 192 81 32 00
        E 0 91 33 20
        E 576 81 33 00
        E 0 91 35 20
        E 768 81 35 00
        E 0 91 36 20
        E 192 81 36 00
        E 0 91 37 20
        E 576 81 37 00
        E 0 91 3c 20
        E 192 81 3c 00
        E 0 91 30 20
        E 576 81 30 00
        E 0 91 32 20
        E 192 81 32 00
        E 0 91 33 20
        E 576 81 33 00
        E 0 91 35 20
        E 768 81 35 00
        E 0 91 36 20
        E 192 81 36 00
        E 0 91 37 20
        E 576 81 37 00
        E 0 91 3c 20
        E 192 81 3c 00
        E 0 91 30 20
        E 576 81 30 00
        E 0 91 32 20
        E 192 81 32 00
        E 0 91 33 20
        E 576 81 33 00
        E 0 91 35 20
        E 768 81 35 00
        E 0 91 36 20
        E 192 81 36 00
        E 0 91 37 20
        E 576 81 37 00
        E 0 91 3c 20
        E 192 81 3c 00
        E 0 91 30 20
        E 576 81 30 00
        E 0 91 32 20
        E 192 81 32 00
        E 0 91 33 20
        E 576 81 33 00
        E 0 91 35 20
        E 768 81 35 00
        E 0 91 36 20
        E 192 81 36 00
        E 0 91 37 20
        E 576 81 37 00
        E 0 91 3c 20
        E 192 81 3c 00
        E 0 91 30 20
        E 576 81 30 00
        E 0 91 32 20
        E 192 81 32 00
        E 0 91 33 20
        E 576 81 33 00
        E 0 91 35 20
        E 768 81 35 00
        E 0 91 36 20
        E 192 81 36 00
        E 0 91 37 20
        E 576 81 37 00
        E 0 91 3c 20
        E 192 81 3c 00
        E 0 91 30 20
        E 576 81 30 00
        E 0 91 32 20
        E 192 81 32 00
        E 0 91 33 20
        E 576 81 33 00
        E 0 91 35 20
        E 768 81 35 00
        E 0 91 36 20
        E 192 81 36 00
        E 0 91 37 20
        E 576 81 37 00
        E 0 91 3c 20
        E 192 81 3c 00
        E 0 91 30 20
        E 576 81 30 00
        E 0 91 32 20
        E 192 81 32 00
        E 0 91 33 20
        E 576 81 33 00
        E 0 91 35 20
        E 768 81 35 00
        E 0 91 36 20
        E 192 81 36 00
        E 0 91 37 20
        E 576 81 37 00
        E 0 91 3c 20
        E 192 81 3c 00
        E 0 91 30 20
        E 576 81 30 00
        E 0 91 32 20
        E 192 81 32 00
        E 0 91 33 20
        E 576 81 33 00
        E 0 91 35 20
        E 768 81 35 00
        E 0 91 36 20
        E 192 81 36 00
        E 0 91 37 20
        E 576 81 37 00
        E 0 91 3c 20
        E 192 81 3c 00
        E 0 91 30 20
        E 576 81 30 00
        E 0 91 32 20
        E 192 81 32 00
        E 0 91 33 20
        E 576 81 33 00
        E 0 91 35 20
        E 768 81 35 00
        E 0 91 36 20
        E 192 81 36 00
        E 0 91 37 20
        E 576 81 37 00
        E 0 91 3c 20
        E 192 81 3c 00
        E 0 91 30 20
        E 576 81 30 00
        E 0 91 32 20
        E 192 81 32 00
        E 0 91 33 20
        E 576 81 33 00
        E 0 91 35 20
        E 768 81 35 00
        E 0 91 36 20
        E 192 81 36 00
        E 0 91 37 20
        E 576 81 37 00
        E 0 91 3c 20
        E 192 81 3c 00
        E 0 91 30 20
        E 576 81 30 00
        E 0 91 32 20
        E 192 81 32 00
        E 0 91 33 20
        E 576 81 33 00
        E 0 91 35 20
        E 768 81 35 00
        E 0 91 36 20
        E 192 81 36 00
        E 0 91 37 20
        E 576 81 37 00
        E 0 91 3c 20
        E 192 81 3c 00
        E 0 91 30 20
        E 576 81 30 00
        E 0 91 32 20
        E 192 81 32 00
        E 0 91 33 20
        E 576 81 33 00
        E 0 91 35 20
        E 768 81 35 00
        E 0 91 36 20
        E 192 81 36 00
        E 0 91 37 20
        E 576 81 37 00
        E 0 91 3c 20
        E 192 81 3c 00
        E 0 91 30 20
        E 576 81 30 00
        E 0 91 32 20
        E 192 81 32 00
        E 0 91 33 20
        E 576 81 33 00
        E 0 91 35 20
        E 768 81 35 00
        E 0 91 36 20
        E 192 81 36 00
        E 0 91 37 20
        E 576 81 37 00
        E 0 91 3c 20
        E 192 81 3c 00
        E 0 91 30 20
        E 576 81 30 00
        E 0 91 32 20
        E 192 81 32 00
        E 0 91 33 20
        E 576 81 33 00
        E 0 91 35 20
        E 768 81 35 00
        E 0 91 36 20
        E 192 81 36 00
        E 0 91 37 20
        E 576 81 37 00
        E 0 91 3c 20
        E 192 81 3c 00
        E 0 91 30 20
        E 576 81 30 00
        E 0 91 32 20
        E 192 81 32 00
        E 0 91 33 20
        E 576 81 33 00
        E 0 91 35 20
        E 768 81 35 00
        E 0 91 36 20
        E 192 81 36 00
        E 0 91 37 20
        E 576 81 37 00
        E 0 91 3c 20
        E 192 81 3c 00
        E 0 91 30 20
        E 576 81 30 00
        E 0 91 32 20
        E 192 81 32 00
        E 0 91 33 20
        E 576 81 33 00
        E 0 91 35 20
        E 768 81 35 00
        E 0 91 36 20
        E 192 81 36 00
        E 0 91 37 20
        E 576 81 37 00
        E 0 91 3c 20
        E 192 81 3c 00
        E 0 91 30 20
        E 576 81 30 00
        E 0 91 32 20
        E 192 81 32 00
        E 0 91 33 20
        E 576 81 33 00
        E 0 91 35 20
        E 768 81 35 00
        E 0 91 36 20
        E 192 81 36 00
        E 0 91 37 20
        E 576 81 37 00
        E 0 91 3c 20
        E 192 81 3c 00
        E 0 91 30 20
        E 576 81 30 00
        E 0 91 32 20
        E 192 81 32 00
        E 0 91 33 20
        E 576 81 33 00
        E 0 91 35 20
        E 768 81 35 00
        E 0 91 36 20
        E 192 81 36 00
        E 0 91 37 20
        E 576 81 37 00
        E 0 91 3c 20
        E 192 81 3c 00
        E 0 91 30 20
        E 192 81 30 00
        E 0 ff 2f 00
      >
    >
  >
  <TRACK {9CFEB811-F9A9-4687-A3E0-9E16DC83A17C}
    NAME "NES - Triangle [ch2]"
    PEAKCOL 16744192
    BEAT -1
    AUTOMODE 0
    PANLAWFLAGS 3
    VOLPAN 1 0 -1 -1 1
    MUTESOLO 0 0 0
    IPHASE 0
    PLAYOFFS 0 1
    ISBUS 0 0
    BUSCOMP 0 0 0 0 0
    SHOWINMIX 1 0.6667 0.5 1 0.5 0 0 0
    FIXEDLANES 9 0 0 0 0
    SEL 0
    REC 0 5088 1 0 0 0 0 0
    VU 2
    TRACKHEIGHT 0 0 0 0 0 0 0
    INQ 0 0 0 0.5 100 0 0 100
    NCHAN 2
    FX 1
    TRACKID {9CFEB811-F9A9-4687-A3E0-9E16DC83A17C}
    PERF 0
    MIDIOUT -1
    MAINSEND 1 0
    <FXCHAIN
      WNDRECT 24 52 700 560
      SHOW 0
      LASTSEL 0
      DOCKED 0
      BYPASS 0 0 0
      <JS "ReapNES Studio/ReapNES_Console.jsfx" ""
        2 15 1 10 80 10 100 2 1 15 1 5 60 10 80 1 1 0 50 0 0 15 1 0 100 0 0 0.500000 0.500000 0.400000 0.300000 0.800000 2 1 0 0 0 0 - - - - - - - - - - - - - - - - - - - - - - - - - -
      >
      FLOATPOS 0 0 0 0
      FXID {0AC00BA4-ACED-4E5A-A1AD-F5CF8DD3AFDC}
      WAK 0 0
    >
    <ITEM
      POSITION 0
      LENGTH 83.98134
      LOOP 0
      ALLTAKES 0
      FADEIN 0 0 0 0 0 0 0
      FADEOUT 0 0 0 0 0 0 0
      MUTE 0 0
      SEL 0
      IGUID {1B8CBA7A-BDF8-4FCA-A2E8-C2F70B59F68E}
      <SOURCE MIDI
        HASDATA 1 480 QN
        CCINTERP 32
        E 0 c2 26
        E 0 b2 0b 7f
        E 0 92 24 7f
        E 192 82 24 00
        E 0 b2 0b 7f
        E 0 92 18 7f
        E 576 82 18 00
        E 0 b2 0b 7f
        E 0 92 1a 7f
        E 192 82 1a 00
        E 0 b2 0b 7f
        E 0 92 1b 7f
        E 576 82 1b 00
        E 0 b2 0b 7f
        E 0 92 1d 7f
        E 768 82 1d 00
        E 0 b2 0b 7f
        E 0 92 1e 7f
        E 192 82 1e 00
        E 0 b2 0b 7f
        E 0 92 1f 7f
        E 576 82 1f 00
        E 0 b2 0b 7f
        E 0 92 24 7f
        E 192 82 24 00
        E 0 b2 0b 7f
        E 0 92 18 7f
        E 576 82 18 00
        E 0 b2 0b 7f
        E 0 92 1a 7f
        E 192 82 1a 00
        E 0 b2 0b 7f
        E 0 92 1b 7f
        E 576 82 1b 00
        E 0 b2 0b 7f
        E 0 92 1d 7f
        E 768 82 1d 00
        E 0 b2 0b 7f
        E 0 92 1e 7f
        E 192 82 1e 00
        E 0 b2 0b 7f
        E 0 92 1f 7f
        E 576 82 1f 00
        E 0 b2 0b 7f
        E 0 92 24 7f
        E 192 82 24 00
        E 0 b2 0b 7f
        E 0 92 18 7f
        E 576 82 18 00
        E 0 b2 0b 7f
        E 0 92 1a 7f
        E 192 82 1a 00
        E 0 b2 0b 7f
        E 0 92 1b 7f
        E 576 82 1b 00
        E 0 b2 0b 7f
        E 0 92 1d 7f
        E 768 82 1d 00
        E 0 b2 0b 7f
        E 0 92 1e 7f
        E 192 82 1e 00
        E 0 b2 0b 7f
        E 0 92 1f 7f
        E 576 82 1f 00
        E 0 b2 0b 7f
        E 0 92 24 7f
        E 192 82 24 00
        E 0 b2 0b 7f
        E 0 92 18 7f
        E 576 82 18 00
        E 0 b2 0b 7f
        E 0 92 1a 7f
        E 192 82 1a 00
        E 0 b2 0b 7f
        E 0 92 1b 7f
        E 576 82 1b 00
        E 0 b2 0b 7f
        E 0 92 1d 7f
        E 768 82 1d 00
        E 0 b2 0b 7f
        E 0 92 1e 7f
        E 192 82 1e 00
        E 0 b2 0b 7f
        E 0 92 1f 7f
        E 576 82 1f 00
        E 0 b2 0b 7f
        E 0 92 24 7f
        E 192 82 24 00
        E 0 b2 0b 7f
        E 0 92 18 7f
        E 576 82 18 00
        E 0 b2 0b 7f
        E 0 92 1a 7f
        E 192 82 1a 00
        E 0 b2 0b 7f
        E 0 92 1b 7f
        E 576 82 1b 00
        E 0 b2 0b 7f
        E 0 92 1d 7f
        E 768 82 1d 00
        E 0 b2 0b 7f
        E 0 92 1e 7f
        E 192 82 1e 00
        E 0 b2 0b 7f
        E 0 92 1f 7f
        E 576 82 1f 00
        E 0 b2 0b 7f
        E 0 92 24 7f
        E 192 82 24 00
        E 0 b2 0b 7f
        E 0 92 18 7f
        E 576 82 18 00
        E 0 b2 0b 7f
        E 0 92 1a 7f
        E 192 82 1a 00
        E 0 b2 0b 7f
        E 0 92 1b 7f
        E 576 82 1b 00
        E 0 b2 0b 7f
        E 0 92 1d 7f
        E 768 82 1d 00
        E 0 b2 0b 7f
        E 0 92 1e 7f
        E 192 82 1e 00
        E 0 b2 0b 7f
        E 0 92 1f 7f
        E 576 82 1f 00
        E 0 b2 0b 7f
        E 0 92 24 7f
        E 192 82 24 00
        E 0 b2 0b 7f
        E 0 92 18 7f
        E 576 82 18 00
        E 0 b2 0b 7f
        E 0 92 1a 7f
        E 192 82 1a 00
        E 0 b2 0b 7f
        E 0 92 1b 7f
        E 576 82 1b 00
        E 0 b2 0b 7f
        E 0 92 1d 7f
        E 768 82 1d 00
        E 0 b2 0b 7f
        E 0 92 1e 7f
        E 192 82 1e 00
        E 0 b2 0b 7f
        E 0 92 1f 7f
        E 576 82 1f 00
        E 0 b2 0b 7f
        E 0 92 24 7f
        E 192 82 24 00
        E 0 b2 0b 7f
        E 0 92 18 7f
        E 576 82 18 00
        E 0 b2 0b 7f
        E 0 92 1a 7f
        E 192 82 1a 00
        E 0 b2 0b 7f
        E 0 92 1b 7f
        E 576 82 1b 00
        E 0 b2 0b 7f
        E 0 92 1d 7f
        E 768 82 1d 00
        E 0 b2 0b 7f
        E 0 92 1e 7f
        E 192 82 1e 00
        E 0 b2 0b 7f
        E 0 92 1f 7f
        E 576 82 1f 00
        E 0 b2 0b 7f
        E 0 92 24 7f
        E 192 82 24 00
        E 0 b2 0b 7f
        E 0 92 18 7f
        E 576 82 18 00
        E 0 b2 0b 7f
        E 0 92 1a 7f
        E 192 82 1a 00
        E 0 b2 0b 7f
        E 0 92 1b 7f
        E 576 82 1b 00
        E 0 b2 0b 7f
        E 0 92 1d 7f
        E 768 82 1d 00
        E 0 b2 0b 7f
        E 0 92 1e 7f
        E 192 82 1e 00
        E 0 b2 0b 7f
        E 0 92 1f 7f
        E 576 82 1f 00
        E 0 b2 0b 7f
        E 0 92 24 7f
        E 192 82 24 00
        E 0 b2 0b 7f
        E 0 92 18 7f
        E 576 82 18 00
        E 0 b2 0b 7f
        E 0 92 1a 7f
        E 192 82 1a 00
        E 0 b2 0b 7f
        E 0 92 1b 7f
        E 576 82 1b 00
        E 0 b2 0b 7f
        E 0 92 1d 7f
        E 768 82 1d 00
        E 0 b2 0b 7f
        E 0 92 1e 7f
        E 192 82 1e 00
        E 0 b2 0b 7f
        E 0 92 1f 7f
        E 576 82 1f 00
        E 0 b2 0b 7f
        E 0 92 24 7f
        E 192 82 24 00
        E 0 b2 0b 7f
        E 0 92 18 7f
        E 576 82 18 00
        E 0 b2 0b 7f
        E 0 92 1a 7f
        E 192 82 1a 00
        E 0 b2 0b 7f
        E 0 92 1b 7f
        E 576 82 1b 00
        E 0 b2 0b 7f
        E 0 92 1d 7f
        E 768 82 1d 00
        E 0 b2 0b 7f
        E 0 92 1e 7f
        E 192 82 1e 00
        E 0 b2 0b 7f
        E 0 92 1f 7f
        E 576 82 1f 00
        E 0 b2 0b 7f
        E 0 92 24 7f
        E 192 82 24 00
        E 0 b2 0b 7f
        E 0 92 18 7f
        E 576 82 18 00
        E 0 b2 0b 7f
        E 0 92 1a 7f
        E 192 82 1a 00
        E 0 b2 0b 7f
        E 0 92 1b 7f
        E 576 82 1b 00
        E 0 b2 0b 7f
        E 0 92 1d 7f
        E 768 82 1d 00
        E 0 b2 0b 7f
        E 0 92 1e 7f
        E 192 82 1e 00
        E 0 b2 0b 7f
        E 0 92 1f 7f
        E 576 82 1f 00
        E 0 b2 0b 7f
        E 0 92 24 7f
        E 192 82 24 00
        E 0 b2 0b 7f
        E 0 92 18 7f
        E 576 82 18 00
        E 0 b2 0b 7f
        E 0 92 1a 7f
        E 192 82 1a 00
        E 0 b2 0b 7f
        E 0 92 1b 7f
        E 576 82 1b 00
        E 0 b2 0b 7f
        E 0 92 1d 7f
        E 768 82 1d 00
        E 0 b2 0b 7f
        E 0 92 1e 7f
        E 192 82 1e 00
        E 0 b2 0b 7f
        E 0 92 1f 7f
        E 576 82 1f 00
        E 0 b2 0b 7f
        E 0 92 24 7f
        E 192 82 24 00
        E 0 b2 0b 7f
        E 0 92 18 7f
        E 576 82 18 00
        E 0 b2 0b 7f
        E 0 92 1a 7f
        E 192 82 1a 00
        E 0 b2 0b 7f
        E 0 92 1b 7f
        E 576 82 1b 00
        E 0 b2 0b 7f
        E 0 92 1d 7f
        E 768 82 1d 00
        E 0 b2 0b 7f
        E 0 92 1e 7f
        E 192 82 1e 00
        E 0 b2 0b 7f
        E 0 92 1f 7f
        E 576 82 1f 00
        E 0 b2 0b 7f
        E 0 92 24 7f
        E 192 82 24 00
        E 0 b2 0b 7f
        E 0 92 18 7f
        E 576 82 18 00
        E 0 b2 0b 7f
        E 0 92 1a 7f
        E 192 82 1a 00
        E 0 b2 0b 7f
        E 0 92 1b 7f
        E 576 82 1b 00
        E 0 b2 0b 7f
        E 0 92 1d 7f
        E 768 82 1d 00
        E 0 b2 0b 7f
        E 0 92 1e 7f
        E 192 82 1e 00
        E 0 b2 0b 7f
        E 0 92 1f 7f
        E 576 82 1f 00
        E 0 b2 0b 7f
        E 0 92 24 7f
        E 192 82 24 00
        E 0 b2 0b 7f
        E 0 92 18 7f
        E 576 82 18 00
        E 0 b2 0b 7f
        E 0 92 1a 7f
        E 192 82 1a 00
        E 0 b2 0b 7f
        E 0 92 1b 7f
        E 576 82 1b 00
        E 0 b2 0b 7f
        E 0 92 1d 7f
        E 768 82 1d 00
        E 0 b2 0b 7f
        E 0 92 1e 7f
        E 192 82 1e 00
        E 0 b2 0b 7f
        E 0 92 1f 7f
        E 576 82 1f 00
        E 0 b2 0b 7f
        E 0 92 24 7f
        E 192 82 24 00
        E 0 b2 0b 7f
        E 0 92 18 7f
        E 576 82 18 00
        E 0 b2 0b 7f
        E 0 92 1a 7f
        E 192 82 1a 00
        E 0 b2 0b 7f
        E 0 92 1b 7f
        E 576 82 1b 00
        E 0 b2 0b 7f
        E 0 92 1d 7f
        E 768 82 1d 00
        E 0 b2 0b 7f
        E 0 92 1e 7f
        E 192 82 1e 00
        E 0 b2 0b 7f
        E 0 92 1f 7f
        E 576 82 1f 00
        E 0 b2 0b 7f
        E 0 92 24 7f
        E 192 82 24 00
        E 0 b2 0b 7f
        E 0 92 18 7f
        E 576 82 18 00
        E 0 b2 0b 7f
        E 0 92 1a 7f
        E 192 82 1a 00
        E 0 b2 0b 7f
        E 0 92 1b 7f
        E 576 82 1b 00
        E 0 b2 0b 7f
        E 0 92 1d 7f
        E 768 82 1d 00
        E 0 b2 0b 7f
        E 0 92 1e 7f
        E 192 82 1e 00
        E 0 b2 0b 7f
        E 0 92 1f 7f
        E 576 82 1f 00
        E 0 b2 0b 7f
        E 0 92 24 7f
        E 192 82 24 00
        E 0 b2 0b 7f
        E 0 92 18 7f
        E 576 82 18 00
        E 0 b2 0b 7f
        E 0 92 1a 7f
        E 192 82 1a 00
        E 0 b2 0b 7f
        E 0 92 1b 7f
        E 576 82 1b 00
        E 0 b2 0b 7f
        E 0 92 1d 7f
        E 768 82 1d 00
        E 0 b2 0b 7f
        E 0 92 1e 7f
        E 192 82 1e 00
        E 0 b2 0b 7f
        E 0 92 1f 7f
        E 576 82 1f 00
        E 0 b2 0b 7f
        E 0 92 24 7f
        E 192 82 24 00
        E 0 b2 0b 7f
        E 0 92 18 7f
        E 576 82 18 00
        E 0 b2 0b 7f
        E 0 92 1a 7f
        E 192 82 1a 00
        E 0 b2 0b 7f
        E 0 92 1b 7f
        E 576 82 1b 00
        E 0 b2 0b 7f
        E 0 92 1d 7f
        E 768 82 1d 00
        E 0 b2 0b 7f
        E 0 92 1e 7f
        E 192 82 1e 00
        E 0 b2 0b 7f
        E 0 92 1f 7f
        E 576 82 1f 00
        E 0 b2 0b 7f
        E 0 92 24 7f
        E 192 82 24 00
        E 0 b2 0b 7f
        E 0 92 18 7f
        E 576 82 18 00
        E 0 b2 0b 7f
        E 0 92 1a 7f
        E 192 82 1a 00
        E 0 b2 0b 7f
        E 0 92 1b 7f
        E 576 82 1b 00
        E 0 b2 0b 7f
        E 0 92 1d 7f
        E 768 82 1d 00
        E 0 b2 0b 7f
        E 0 92 1e 7f
        E 192 82 1e 00
        E 0 b2 0b 7f
        E 0 92 1f 7f
        E 576 82 1f 00
        E 0 b2 0b 7f
        E 0 92 24 7f
        E 192 82 24 00
        E 0 b2 0b 7f
        E 0 92 18 7f
        E 576 82 18 00
        E 0 b2 0b 7f
        E 0 92 1a 7f
        E 192 82 1a 00
        E 0 b2 0b 7f
        E 0 92 1b 7f
        E 576 82 1b 00
        E 0 b2 0b 7f
        E 0 92 1d 7f
        E 768 82 1d 00
        E 0 b2 0b 7f
        E 0 92 1e 7f
        E 192 82 1e 00
        E 0 b2 0b 7f
        E 0 92 1f 7f
        E 576 82 1f 00
        E 0 b2 0b 7f
        E 0 92 24 7f
        E 192 82 24 00
        E 0 b2 0b 7f
        E 0 92 18 7f
        E 576 82 18 00
        E 0 b2 0b 7f
        E 0 92 1a 7f
        E 192 82 1a 00
        E 0 b2 0b 7f
        E 0 92 1b 7f
        E 576 82 1b 00
        E 0 b2 0b 7f
        E 0 92 1d 7f
        E 768 82 1d 00
        E 0 b2 0b 7f
        E 0 92 1e 7f
        E 192 82 1e 00
        E 0 b2 0b 7f
        E 0 92 1f 7f
        E 576 82 1f 00
        E 0 b2 0b 7f
        E 0 92 24 7f
        E 192 82 24 00
        E 0 b2 0b 7f
        E 0 92 18 7f
        E 576 82 18 00
        E 0 b2 0b 7f
        E 0 92 1a 7f
        E 192 82 1a 00
        E 0 b2 0b 7f
        E 0 92 1b 7f
        E 576 82 1b 00
        E 0 b2 0b 7f
        E 0 92 1d 7f
        E 768 82 1d 00
        E 0 b2 0b 7f
        E 0 92 1e 7f
        E 192 82 1e 00
        E 0 b2 0b 7f
        E 0 92 1f 7f
        E 576 82 1f 00
        E 0 b2 0b 7f
        E 0 92 24 7f
        E 192 82 24 00
        E 0 b2 0b 7f
        E 0 92 18 7f
        E 576 82 18 00
        E 0 b2 0b 7f
        E 0 92 1a 7f
        E 192 82 1a 00
        E 0 b2 0b 7f
        E 0 92 1b 7f
        E 576 82 1b 00
        E 0 b2 0b 7f
        E 0 92 1d 7f
        E 768 82 1d 00
        E 0 b2 0b 7f
        E 0 92 1e 7f
        E 192 82 1e 00
        E 0 b2 0b 7f
        E 0 92 1f 7f
        E 576 82 1f 00
        E 0 b2 0b 7f
        E 0 92 24 7f
        E 192 82 24 00
        E 0 b2 0b 7f
        E 0 92 18 7f
        E 576 82 18 00
        E 0 b2 0b 7f
        E 0 92 1a 7f
        E 192 82 1a 00
        E 0 b2 0b 7f
        E 0 92 1b 7f
        E 576 82 1b 00
        E 0 b2 0b 7f
        E 0 92 1d 7f
        E 768 82 1d 00
        E 0 b2 0b 7f
        E 0 92 1e 7f
        E 192 82 1e 00
        E 0 b2 0b 7f
        E 0 92 1f 7f
        E 576 82 1f 00
        E 0 b2 0b 7f
        E 0 92 24 7f
        E 192 82 24 00
        E 0 b2 0b 7f
        E 0 92 18 7f
        E 576 82 18 00
        E 0 b2 0b 7f
        E 0 92 1a 7f
        E 192 82 1a 00
        E 0 b2 0b 7f
        E 0 92 1b 7f
        E 576 82 1b 00
        E 0 b2 0b 7f
        E 0 92 1d 7f
        E 768 82 1d 00
        E 0 b2 0b 7f
        E 0 92 1e 7f
        E 192 82 1e 00
        E 0 b2 0b 7f
        E 0 92 1f 7f
        E 576 82 1f 00
        E 0 b2 0b 7f
        E 0 92 24 7f
        E 192 82 24 00
        E 0 b2 0b 7f
        E 0 92 18 7f
        E 576 82 18 00
        E 0 b2 0b 7f
        E 0 92 1a 7f
        E 192 82 1a 00
        E 0 b2 0b 7f
        E 0 92 1b 7f
        E 576 82 1b 00
        E 0 b2 0b 7f
        E 0 92 1d 7f
        E 768 82 1d 00
        E 0 b2 0b 7f
        E 0 92 1e 7f
        E 192 82 1e 00
        E 0 b2 0b 7f
        E 0 92 1f 7f
        E 576 82 1f 00
        E 0 b2 0b 7f
        E 0 92 24 7f
        E 192 82 24 00
        E 0 b2 0b 7f
        E 0 92 18 7f
        E 192 82 18 00
        E 0 ff 2f 00
      >
    >
  >
  <TRACK {50FBE451-553F-404C-86EC-FCC8C5AE8593}
    NAME "NES - Noise / Drums [ch3]"
    PEAKCOL 11184810
    BEAT -1
    AUTOMODE 0
    PANLAWFLAGS 3
    VOLPAN 1 0 -1 -1 1
    MUTESOLO 0 0 0
    IPHASE 0
    PLAYOFFS 0 1
    ISBUS 0 0
    BUSCOMP 0 0 0 0 0
    SHOWINMIX 1 0.6667 0.5 1 0.5 0 0 0
    FIXEDLANES 9 0 0 0 0
    SEL 0
    REC 0 5088 1 0 0 0 0 0
    VU 2
    TRACKHEIGHT 0 0 0 0 0 0 0
    INQ 0 0 0 0.5 100 0 0 100
    NCHAN 2
    FX 1
    TRACKID {50FBE451-553F-404C-86EC-FCC8C5AE8593}
    PERF 0
    MIDIOUT -1
    MAINSEND 1 0
    <FXCHAIN
      WNDRECT 24 52 700 560
      SHOW 0
      LASTSEL 0
      DOCKED 0
      BYPASS 0 0 0
      <JS "ReapNES Studio/ReapNES_Console.jsfx" ""
        2 15 1 10 80 10 100 2 1 15 1 5 60 10 80 1 1 0 50 0 0 15 1 0 100 0 0 0.500000 0.500000 0.400000 0.300000 0.800000 3 1 0 0 0 0 - - - - - - - - - - - - - - - - - - - - - - - - - -
      >
      FLOATPOS 0 0 0 0
      FXID {166ED72F-14D8-49DF-BDA0-637D22E7611A}
      WAK 0 0
    >
    <ITEM
      POSITION 0
      LENGTH 83.98134
      LOOP 0
      ALLTAKES 0
      FADEIN 0 0 0 0 0 0 0
      FADEOUT 0 0 0 0 0 0 0
      MUTE 0 0
      SEL 0
      IGUID {7ED2CE0A-93F6-4265-978A-10DC5FC7149D}
      <SOURCE MIDI
        HASDATA 1 480 QN
        CCINTERP 32
        E 0 93 24 10
        E 208 83 24 00
        E 16 83 24 00
        E 16 83 24 00
        E 16 83 24 00
        E 16 83 24 00
        E 16 83 24 00
        E 16 83 24 00
        E 16 83 24 00
        E 16 83 24 00
        E 16 83 24 00
        E 16 83 24 00
        E 16 83 24 00
        E 16 83 24 00
        E 16 83 24 00
        E 16 83 24 00
        E 16 83 24 00
        E 16 83 24 00
        E 16 83 24 00
        E 16 83 24 00
        E 16 83 24 00
        E 16 83 24 00
        E 16 83 24 00
        E 16 83 24 00
        E 16 83 24 00
        E 16 83 24 00
        E 16 83 24 00
        E 16 83 24 00
        E 16 83 24 00
        E 16 83 24 00
        E 16 83 24 00
        E 16 83 24 00
        E 16 83 24 00
        E 16 83 24 00
        E 16 83 24 00
        E 16 83 24 00
        E 16 83 24 00
        E 16 83 24 00
        E 16 83 24 00
        E 16 83 24 00
        E 16 83 24 00
        E 16 83 24 00
        E 16 83 24 00
        E 16 83 24 00
        E 16 83 24 00
        E 16 83 24 00
        E 16 83 24 00
        E 16 83 24 00
        E 16 83 24 00
        E 16 83 24 00
        E 16 83 24 00
        E 16 83 24 00
        E 16 83 24 00
        E 16 83 24 00
        E 16 83 24 00
        E 16 83 24 00
        E 16 83 24 00
        E 16 83 24 00
        E 16 83 24 00
        E 16 83 24 00
        E 16 83 24 00
        E 16 83 24 00
        E 16 83 24 00
        E 16 83 24 00
        E 16 83 24 00
        E 16 83 24 00
        E 16 83 24 00
        E 16 83 24 00
        E 16 83 24 00
        E 16 83 24 00
        E 16 83 24 00
        E 16 83 24 00
        E 16 83 24 00
        E 16 83 24 00
        E 16 83 24 00
        E 16 83 24 00
        E 16 83 24 00
        E 16 83 24 00
        E 16 83 24 00
        E 16 83 24 00
        E 16 83 24 00
        E 16 83 24 00
        E 16 83 24 00
        E 16 83 24 00
        E 16 83 24 00
        E 16 83 24 00
        E 16 83 24 00
        E 16 83 24 00
        E 16 83 24 00
        E 16 83 24 00
        E 16 83 24 00
        E 16 83 24 00
        E 16 83 24 00
        E 16 83 24 00
        E 16 83 24 00
        E 16 83 24 00
        E 16 83 24 00
        E 16 83 24 00
        E 16 83 24 00
        E 16 83 24 00
        E 16 83 24 00
        E 16 83 24 00
        E 16 83 24 00
        E 16 83 24 00
        E 16 83 24 00
        E 16 83 24 00
        E 16 83 24 00
        E 16 83 24 00
        E 16 83 24 00
        E 16 83 24 00
        E 16 83 24 00
        E 16 83 24 00
        E 16 83 24 00
        E 16 83 24 00
        E 16 83 24 00
        E 16 83 24 00
        E 16 83 24 00
        E 16 83 24 00
        E 16 83 24 00
        E 16 83 24 00
        E 16 83 24 00
        E 16 83 24 00
        E 16 83 24 00
        E 16 83 24 00
        E 16 83 24 00
        E 16 83 24 00
        E 16 83 24 00
        E 16 83 24 00
        E 16 83 24 00
        E 16 83 24 00
        E 16 83 24 00
        E 16 83 24 00
        E 16 83 24 00
        E 16 83 24 00
        E 16 83 24 00
        E 16 83 24 00
        E 16 83 24 00
        E 16 83 24 00
        E 16 83 24 00
        E 16 83 24 00
        E 16 83 24 00
        E 16 83 24 00
        E 16 83 24 00
        E 16 83 24 00
        E 16 83 24 00
        E 16 83 24 00
        E 16 83 24 00
        E 16 83 24 00
        E 16 83 24 00
        E 16 83 24 00
        E 16 83 24 00
        E 16 83 24 00
        E 16 83 24 00
        E 16 83 24 00
        E 16 83 24 00
        E 16 83 24 00
        E 16 83 24 00
        E 16 83 24 00
        E 16 83 24 00
        E 16 83 24 00
        E 16 83 24 00
        E 16 83 24 00
        E 16 83 24 00
        E 16 83 24 00
        E 16 83 24 00
        E 16 83 24 00
        E 16 83 24 00
        E 16 83 24 00
        E 16 83 24 00
        E 16 83 24 00
        E 16 83 24 00
        E 16 83 24 00
        E 16 83 24 00
        E 16 83 24 00
        E 16 83 24 00
        E 16 83 24 00
        E 16 83 24 00
        E 16 83 24 00
        E 16 83 24 00
        E 16 83 24 00
        E 16 83 24 00
        E 16 83 24 00
        E 16 83 24 00
        E 16 83 24 00
        E 16 83 24 00
        E 16 83 24 00
        E 16 83 24 00
        E 16 83 24 00
        E 16 83 24 00
        E 16 83 24 00
        E 16 83 24 00
        E 16 83 24 00
        E 16 83 24 00
        E 16 83 24 00
        E 16 83 24 00
        E 16 83 24 00
        E 16 83 24 00
        E 16 83 24 00
        E 16 83 24 00
        E 16 83 24 00
        E 16 83 24 00
        E 16 83 24 00
        E 16 83 24 00
        E 16 83 24 00
        E 16 83 24 00
        E 16 83 24 00
        E 16 83 24 00
        E 16 83 24 00
        E 16 83 24 00
        E 16 83 24 00
        E 16 83 24 00
        E 16 83 24 00
        E 16 83 24 00
        E 16 83 24 00
        E 16 83 24 00
        E 16 83 24 00
        E 16 83 24 00
        E 16 83 24 00
        E 16 83 24 00
        E 16 83 24 00
        E 16 83 24 00
        E 16 83 24 00
        E 16 83 24 00
        E 16 83 24 00
        E 16 83 24 00
        E 16 83 24 00
        E 16 83 24 00
        E 16 83 24 00
        E 16 83 24 00
        E 16 83 24 00
        E 16 83 24 00
        E 16 83 24 00
        E 16 83 24 00
        E 16 83 24 00
        E 16 83 24 00
        E 16 83 24 00
        E 16 83 24 00
        E 16 83 24 00
        E 16 83 24 00
        E 16 83 24 00
        E 16 83 24 00
        E 16 83 24 00
        E 16 83 24 00
        E 16 83 24 00
        E 16 83 24 00
        E 16 83 24 00
        E 16 83 24 00
        E 16 83 24 00
        E 16 83 24 00
        E 16 83 24 00
        E 16 83 24 00
        E 16 83 24 00
        E 16 83 24 00
        E 16 83 24 00
        E 16 83 24 00
        E 16 83 24 00
        E 16 83 24 00
        E 16 83 24 00
        E 16 83 24 00
        E 16 83 24 00
        E 16 83 24 00
        E 16 83 24 00
        E 16 83 24 00
        E 16 83 24 00
        E 16 83 24 00
        E 16 83 24 00
        E 16 83 24 00
        E 16 83 24 00
        E 16 83 24 00
        E 16 83 24 00
        E 16 83 24 00
        E 16 83 24 00
        E 16 83 24 00
        E 16 83 24 00
        E 16 83 24 00
        E 16 83 24 00
        E 16 83 24 00
        E 16 83 24 00
        E 16 83 24 00
        E 16 83 24 00
        E 16 83 24 00
        E 16 83 24 00
        E 16 83 24 00
        E 16 83 24 00
        E 16 83 24 00
        E 16 83 24 00
        E 16 83 24 00
        E 16 83 24 00
        E 16 83 24 00
        E 16 83 24 00
        E 16 83 24 00
        E 16 83 24 00
        E 16 83 24 00
        E 16 83 24 00
        E 16 83 24 00
        E 16 83 24 00
        E 16 83 24 00
        E 16 83 24 00
        E 16 83 24 00
        E 16 83 24 00
        E 16 83 24 00
        E 16 83 24 00
        E 16 83 24 00
        E 16 83 24 00
        E 16 83 24 00
        E 16 83 24 00
        E 16 83 24 00
        E 16 83 24 00
        E 16 83 24 00
        E 16 83 24 00
        E 16 83 24 00
        E 16 83 24 00
        E 16 83 24 00
        E 16 83 24 00
        E 16 83 24 00
        E 16 83 24 00
        E 16 83 24 00
        E 16 83 24 00
        E 16 83 24 00
        E 16 83 24 00
        E 16 83 24 00
        E 16 83 24 00
        E 16 83 24 00
        E 16 83 24 00
        E 16 83 24 00
        E 16 83 24 00
        E 16 83 24 00
        E 16 83 24 00
        E 16 83 24 00
        E 16 83 24 00
        E 16 83 24 00
        E 16 83 24 00
        E 16 83 24 00
        E 16 83 24 00
        E 16 83 24 00
        E 16 83 24 00
        E 16 83 24 00
        E 16 83 24 00
        E 16 83 24 00
        E 16 83 24 00
        E 16 83 24 00
        E 16 83 24 00
        E 16 83 24 00
        E 16 83 24 00
        E 16 83 24 00
        E 16 83 24 00
        E 16 83 24 00
        E 16 83 24 00
        E 16 83 24 00
        E 16 83 24 00
        E 16 83 24 00
        E 16 83 24 00
        E 16 83 24 00
        E 16 83 24 00
        E 16 83 24 00
        E 16 83 24 00
        E 16 83 24 00
        E 16 83 24 00
        E 16 83 24 00
        E 16 83 24 00
        E 16 83 24 00
        E 16 83 24 00
        E 16 83 24 00
        E 16 83 24 00
        E 16 83 24 00
        E 16 83 24 00
        E 16 83 24 00
        E 16 83 24 00
        E 16 83 24 00
        E 16 83 24 00
        E 16 83 24 00
        E 16 83 24 00
        E 16 83 24 00
        E 16 83 24 00
        E 16 83 24 00
        E 16 83 24 00
        E 16 83 24 00
        E 16 83 24 00
        E 16 83 24 00
        E 16 83 24 00
        E 16 83 24 00
        E 16 83 24 00
        E 16 83 24 00
        E 16 83 24 00
        E 16 83 24 00
        E 16 83 24 00
        E 16 83 24 00
        E 16 83 24 00
        E 16 83 24 00
        E 16 83 24 00
        E 16 83 24 00
        E 16 83 24 00
        E 16 83 24 00
        E 16 83 24 00
        E 16 83 24 00
        E 16 83 24 00
        E 16 83 24 00
        E 16 83 24 00
        E 16 83 24 00
        E 16 83 24 00
        E 16 83 24 00
        E 16 83 24 00
        E 16 83 24 00
        E 16 83 24 00
        E 16 83 24 00
        E 16 83 24 00
        E 16 83 24 00
        E 16 83 24 00
        E 16 83 24 00
        E 16 83 24 00
        E 16 83 24 00
        E 16 83 24 00
        E 16 83 24 00
        E 16 83 24 00
        E 16 83 24 00
        E 16 83 24 00
        E 16 83 24 00
        E 16 83 24 00
        E 16 83 24 00
        E 16 83 24 00
        E 16 83 24 00
        E 16 83 24 00
        E 16 83 24 00
        E 16 83 24 00
        E 16 83 24 00
        E 16 83 24 00
        E 16 83 24 00
        E 16 83 24 00
        E 16 83 24 00
        E 16 83 24 00
        E 16 83 24 00
        E 16 83 24 00
        E 16 83 24 00
        E 16 83 24 00
        E 16 83 24 00
        E 16 83 24 00
        E 16 83 24 00
        E 16 83 24 00
        E 16 83 24 00
        E 16 83 24 00
        E 16 83 24 00
        E 16 83 24 00
        E 16 83 24 00
        E 16 83 24 00
        E 16 83 24 00
        E 16 83 24 00
        E 16 83 24 00
        E 16 83 24 00
        E 16 83 24 00
        E 16 83 24 00
        E 16 83 24 00
        E 16 83 24 00
        E 16 83 24 00
        E 16 83 24 00
        E 16 83 24 00
        E 16 83 24 00
        E 16 83 24 00
        E 16 83 24 00
        E 16 83 24 00
        E 16 83 24 00
        E 16 83 24 00
        E 16 83 24 00
        E 16 83 24 00
        E 16 83 24 00
        E 16 83 24 00
        E 16 83 24 00
        E 16 83 24 00
        E 16 83 24 00
        E 16 83 24 00
        E 16 83 24 00
        E 16 83 24 00
        E 16 83 24 00
        E 16 83 24 00
        E 16 83 24 00
        E 16 83 24 00
        E 16 83 24 00
        E 16 83 24 00
        E 16 83 24 00
        E 16 83 24 00
        E 16 83 24 00
        E 16 83 24 00
        E 16 83 24 00
        E 16 83 24 00
        E 16 83 24 00
        E 16 83 24 00
        E 16 83 24 00
        E 16 83 24 00
        E 16 83 24 00
        E 16 83 24 00
        E 16 83 24 00
        E 16 83 24 00
        E 16 83 24 00
        E 16 83 24 00
        E 16 83 24 00
        E 16 83 24 00
        E 16 83 24 00
        E 16 83 24 00
        E 16 83 24 00
        E 16 83 24 00
        E 16 83 24 00
        E 16 83 24 00
        E 16 83 24 00
        E 16 83 24 00
        E 16 83 24 00
        E 16 83 24 00
        E 16 83 24 00
        E 16 83 24 00
        E 16 83 24 00
        E 16 83 24 00
        E 16 83 24 00
        E 16 83 24 00
        E 16 83 24 00
        E 16 83 24 00
        E 16 83 24 00
        E 16 83 24 00
        E 16 83 24 00
        E 16 83 24 00
        E 16 83 24 00
        E 16 83 24 00
        E 16 83 24 00
        E 16 83 24 00
        E 16 83 24 00
        E 16 83 24 00
        E 16 83 24 00
        E 16 83 24 00
        E 16 83 24 00
        E 16 83 24 00
        E 16 83 24 00
        E 16 83 24 00
        E 16 83 24 00
        E 16 83 24 00
        E 16 83 24 00
        E 16 83 24 00
        E 16 83 24 00
        E 16 83 24 00
        E 16 83 24 00
        E 16 83 24 00
        E 16 83 24 00
        E 16 83 24 00
        E 16 83 24 00
        E 16 83 24 00
        E 16 83 24 00
        E 16 83 24 00
        E 16 83 24 00
        E 16 83 24 00
        E 16 83 24 00
        E 16 83 24 00
        E 16 83 24 00
        E 16 83 24 00
        E 16 83 24 00
        E 16 83 24 00
        E 16 83 24 00
        E 16 83 24 00
        E 16 83 24 00
        E 16 83 24 00
        E 16 83 24 00
        E 16 83 24 00
        E 16 83 24 00
        E 16 83 24 00
        E 16 83 24 00
        E 16 83 24 00
        E 16 83 24 00
        E 16 83 24 00
        E 16 83 24 00
        E 16 83 24 00
        E 16 83 24 00
        E 16 83 24 00
        E 16 83 24 00
        E 16 83 24 00
        E 16 83 24 00
        E 16 83 24 00
        E 16 83 24 00
        E 16 83 24 00
        E 16 83 24 00
        E 16 83 24 00
        E 16 83 24 00
        E 16 83 24 00
        E 16 83 24 00
        E 16 83 24 00
        E 16 83 24 00
        E 16 83 24 00
        E 16 83 24 00
        E 16 83 24 00
        E 16 83 24 00
        E 16 83 24 00
        E 16 83 24 00
        E 16 83 24 00
        E 16 83 24 00
        E 16 83 24 00
        E 16 83 24 00
        E 16 83 24 00
        E 16 83 24 00
        E 16 83 24 00
        E 16 83 24 00
        E 16 83 24 00
        E 16 83 24 00
        E 16 83 24 00
        E 16 83 24 00
        E 16 83 24 00
        E 16 83 24 00
        E 16 83 24 00
        E 16 83 24 00
        E 16 83 24 00
        E 16 83 24 00
        E 16 83 24 00
        E 16 83 24 00
        E 16 83 24 00
        E 16 83 24 00
        E 16 83 24 00
        E 16 83 24 00
        E 16 83 24 00
        E 16 83 24 00
        E 16 83 24 00
        E 16 83 24 00
        E 16 83 24 00
        E 16 83 24 00
        E 16 83 24 00
        E 16 83 24 00
        E 16 83 24 00
        E 16 83 24 00
        E 16 83 24 00
        E 16 83 24 00
        E 16 83 24 00
        E 16 83 24 00
        E 16 83 24 00
        E 16 83 24 00
        E 16 83 24 00
        E 16 83 24 00
        E 16 83 24 00
        E 16 83 24 00
        E 16 83 24 00
        E 16 83 24 00
        E 16 83 24 00
        E 16 83 24 00
        E 16 83 24 00
        E 16 83 24 00
        E 16 83 24 00
        E 16 83 24 00
        E 16 83 24 00
        E 16 83 24 00
        E 16 83 24 00
        E 16 83 24 00
        E 16 83 24 00
        E 16 83 24 00
        E 16 83 24 00
        E 16 83 24 00
        E 16 83 24 00
        E 16 83 24 00
        E 16 83 24 00
        E 16 83 24 00
        E 16 83 24 00
        E 16 83 24 00
        E 16 83 24 00
        E 16 83 24 00
        E 16 83 24 00
        E 16 83 24 00
        E 16 83 24 00
        E 16 83 24 00
        E 16 83 24 00
        E 16 83 24 00
        E 16 83 24 00
        E 16 83 24 00
        E 16 83 24 00
        E 16 83 24 00
        E 16 83 24 00
        E 16 83 24 00
        E 16 83 24 00
        E 16 83 24 00
        E 16 83 24 00
        E 16 83 24 00
        E 16 83 24 00
        E 16 83 24 00
        E 16 83 24 00
        E 16 83 24 00
        E 16 83 24 00
        E 16 83 24 00
        E 16 83 24 00
        E 16 83 24 00
        E 16 83 24 00
        E 16 83 24 00
        E 16 83 24 00
        E 16 83 24 00
        E 16 83 24 00
        E 16 83 24 00
        E 16 83 24 00
        E 16 83 24 00
        E 16 83 24 00
        E 16 83 24 00
        E 16 83 24 00
        E 16 83 24 00
        E 16 83 24 00
        E 16 83 24 00
        E 16 83 24 00
        E 16 83 24 00
        E 16 83 24 00
        E 16 83 24 00
        E 16 83 24 00
        E 16 83 24 00
        E 16 83 24 00
        E 16 83 24 00
        E 16 83 24 00
        E 16 83 24 00
        E 16 83 24 00
        E 16 83 24 00
        E 16 83 24 00
        E 16 83 24 00
        E 16 83 24 00
        E 16 83 24 00
        E 16 83 24 00
        E 16 83 24 00
        E 16 83 24 00
        E 16 83 24 00
        E 16 83 24 00
        E 16 83 24 00
        E 16 83 24 00
        E 16 83 24 00
        E 16 83 24 00
        E 16 83 24 00
        E 16 83 24 00
        E 16 83 24 00
        E 16 83 24 00
        E 16 83 24 00
        E 16 83 24 00
        E 16 83 24 00
        E 16 83 24 00
        E 16 83 24 00
        E 16 83 24 00
        E 16 83 24 00
        E 16 83 24 00
        E 16 83 24 00
        E 16 83 24 00
        E 16 83 24 00
        E 16 83 24 00
        E 16 83 24 00
        E 16 83 24 00
        E 16 83 24 00
        E 16 83 24 00
        E 16 83 24 00
        E 16 83 24 00
        E 16 83 24 00
        E 16 83 24 00
        E 16 83 24 00
        E 16 83 24 00
        E 16 83 24 00
        E 16 83 24 00
        E 16 83 24 00
        E 16 83 24 00
        E 16 83 24 00
        E 16 83 24 00
        E 16 83 24 00
        E 16 83 24 00
        E 16 83 24 00
        E 16 83 24 00
        E 16 83 24 00
        E 16 83 24 00
        E 16 83 24 00
        E 16 83 24 00
        E 16 83 24 00
        E 16 83 24 00
        E 16 83 24 00
        E 16 83 24 00
        E 16 83 24 00
        E 16 83 24 00
        E 16 83 24 00
        E 16 83 24 00
        E 16 83 24 00
        E 16 83 24 00
        E 16 83 24 00
        E 16 83 24 00
        E 16 83 24 00
        E 16 83 24 00
        E 16 83 24 00
        E 16 83 24 00
        E 16 83 24 00
        E 16 83 24 00
        E 16 83 24 00
        E 16 83 24 00
        E 16 83 24 00
        E 16 83 24 00
        E 16 83 24 00
        E 16 83 24 00
        E 16 83 24 00
        E 16 83 24 00
        E 16 83 24 00
        E 16 83 24 00
        E 16 83 24 00
        E 16 83 24 00
        E 16 83 24 00
        E 16 83 24 00
        E 16 83 24 00
        E 16 83 24 00
        E 16 83 24 00
        E 16 83 24 00
        E 16 83 24 00
        E 16 83 24 00
        E 16 83 24 00
        E 16 83 24 00
        E 16 83 24 00
        E 16 83 24 00
        E 16 83 24 00
        E 16 83 24 00
        E 16 83 24 00
        E 16 83 24 00
        E 16 83 24 00
        E 16 83 24 00
        E 16 83 24 00
        E 16 83 24 00
        E 16 83 24 00
        E 16 83 24 00
        E 16 83 24 00
        E 16 83 24 00
        E 16 83 24 00
        E 16 83 24 00
        E 16 83 24 00
        E 16 83 24 00
        E 16 83 24 00
        E 16 83 24 00
        E 16 83 24 00
        E 16 83 24 00
        E 16 83 24 00
        E 16 83 24 00
        E 16 83 24 00
        E 16 83 24 00
        E 16 83 24 00
        E 16 83 24 00
        E 16 83 24 00
        E 16 83 24 00
        E 16 83 24 00
        E 16 83 24 00
        E 16 83 24 00
        E 16 83 24 00
        E 16 83 24 00
        E 16 83 24 00
        E 16 83 24 00
        E 16 83 24 00
        E 16 83 24 00
        E 16 83 24 00
        E 16 83 24 00
        E 16 83 24 00
        E 16 83 24 00
        E 16 83 24 00
        E 16 83 24 00
        E 16 83 24 00
        E 16 83 24 00
        E 16 83 24 00
        E 16 83 24 00
        E 16 83 24 00
        E 16 83 24 00
        E 16 83 24 00
        E 16 83 24 00
        E 16 83 24 00
        E 16 83 24 00
        E 16 83 24 00
        E 16 83 24 00
        E 16 83 24 00
        E 16 83 24 00
        E 16 83 24 00
        E 16 83 24 00
        E 16 83 24 00
        E 16 83 24 00
        E 16 83 24 00
        E 16 83 24 00
        E 16 83 24 00
        E 16 83 24 00
        E 16 83 24 00
        E 16 83 24 00
        E 16 83 24 00
        E 16 83 24 00
        E 16 83 24 00
        E 16 83 24 00
        E 16 83 24 00
        E 16 83 24 00
        E 16 83 24 00
        E 16 83 24 00
        E 16 83 24 00
        E 16 83 24 00
        E 16 83 24 00
        E 16 83 24 00
        E 16 83 24 00
        E 16 83 24 00
        E 16 83 24 00
        E 16 83 24 00
        E 16 83 24 00
        E 16 83 24 00
        E 16 83 24 00
        E 16 83 24 00
        E 16 83 24 00
        E 16 83 24 00
        E 16 83 24 00
        E 16 83 24 00
        E 16 83 24 00
        E 16 83 24 00
        E 16 83 24 00
        E 16 83 24 00
        E 16 83 24 00
        E 16 83 24 00
        E 16 83 24 00
        E 16 83 24 00
        E 16 83 24 00
        E 16 83 24 00
        E 16 83 24 00
        E 16 83 24 00
        E 16 83 24 00
        E 16 83 24 00
        E 16 83 24 00
        E 16 83 24 00
        E 16 83 24 00
        E 16 83 24 00
        E 16 83 24 00
        E 16 83 24 00
        E 16 83 24 00
        E 16 83 24 00
        E 16 83 24 00
        E 16 83 24 00
        E 16 83 24 00
        E 16 83 24 00
        E 16 83 24 00
        E 16 83 24 00
        E 16 83 24 00
        E 16 83 24 00
        E 16 83 24 00
        E 16 83 24 00
        E 16 83 24 00
        E 16 83 24 00
        E 16 83 24 00
        E 16 83 24 00
        E 16 83 24 00
        E 16 83 24 00
        E 16 83 24 00
        E 16 83 24 00
        E 16 83 24 00
        E 16 83 24 00
        E 16 83 24 00
        E 16 83 24 00
        E 16 83 24 00
        E 16 83 24 00
        E 16 83 24 00
        E 16 83 24 00
        E 16 83 24 00
        E 16 83 24 00
        E 16 83 24 00
        E 16 83 24 00
        E 16 83 24 00
        E 16 83 24 00
        E 16 83 24 00
        E 16 83 24 00
        E 16 83 24 00
        E 16 83 24 00
        E 16 83 24 00
        E 16 83 24 00
        E 16 83 24 00
        E 16 83 24 00
        E 16 83 24 00
        E 16 83 24 00
        E 16 83 24 00
        E 16 83 24 00
        E 16 83 24 00
        E 16 83 24 00
        E 16 83 24 00
        E 16 83 24 00
        E 16 83 24 00
        E 16 83 24 00
        E 16 83 24 00
        E 16 83 24 00
        E 16 83 24 00
        E 16 83 24 00
        E 16 83 24 00
        E 16 83 24 00
        E 16 83 24 00
        E 16 83 24 00
        E 16 83 24 00
        E 16 83 24 00
        E 16 83 24 00
        E 16 83 24 00
        E 16 83 24 00
        E 16 83 24 00
        E 16 83 24 00
        E 16 83 24 00
        E 16 83 24 00
        E 16 83 24 00
        E 16 83 24 00
        E 16 83 24 00
        E 16 83 24 00
        E 16 83 24 00
        E 16 83 24 00
        E 16 83 24 00
        E 16 83 24 00
        E 16 83 24 00
        E 16 83 24 00
        E 16 83 24 00
        E 16 83 24 00
        E 16 83 24 00
        E 16 83 24 00
        E 16 83 24 00
        E 16 83 24 00
        E 16 83 24 00
        E 16 83 24 00
        E 16 83 24 00
        E 16 83 24 00
        E 16 83 24 00
        E 16 83 24 00
        E 16 83 24 00
        E 16 83 24 00
        E 16 83 24 00
        E 16 83 24 00
        E 16 83 24 00
        E 16 83 24 00
        E 16 83 24 00
        E 16 83 24 00
        E 16 83 24 00
        E 16 83 24 00
        E 16 83 24 00
        E 16 83 24 00
        E 16 83 24 00
        E 16 83 24 00
        E 16 83 24 00
        E 16 83 24 00
        E 16 83 24 00
        E 16 83 24 00
        E 16 83 24 00
        E 16 83 24 00
        E 16 83 24 00
        E 16 83 24 00
        E 16 83 24 00
        E 16 83 24 00
        E 16 83 24 00
        E 16 83 24 00
        E 16 83 24 00
        E 16 83 24 00
        E 16 83 24 00
        E 16 83 24 00
        E 16 83 24 00
        E 16 83 24 00
        E 16 83 24 00
        E 16 83 24 00
        E 16 83 24 00
        E 16 83 24 00
        E 16 83 24 00
        E 16 83 24 00
        E 16 83 24 00
        E 16 83 24 00
        E 16 83 24 00
        E 16 83 24 00
        E 16 83 24 00
        E 16 83 24 00
        E 16 83 24 00
        E 16 83 24 00
        E 16 83 24 00
        E 16 83 24 00
        E 16 83 24 00
        E 16 83 24 00
        E 16 83 24 00
        E 16 83 24 00
        E 16 83 24 00
        E 16 83 24 00
        E 16 83 24 00
        E 16 83 24 00
        E 16 83 24 00
        E 16 83 24 00
        E 16 83 24 00
        E 16 83 24 00
        E 16 83 24 00
        E 16 83 24 00
        E 16 83 24 00
        E 16 83 24 00
        E 16 83 24 00
        E 16 83 24 00
        E 16 83 24 00
        E 16 83 24 00
        E 16 83 24 00
        E 16 83 24 00
        E 16 83 24 00
        E 16 83 24 00
        E 16 83 24 00
        E 16 83 24 00
        E 16 83 24 00
        E 16 83 24 00
        E 16 83 24 00
        E 16 83 24 00
        E 16 83 24 00
        E 16 83 24 00
        E 16 83 24 00
        E 16 83 24 00
        E 16 83 24 00
        E 16 83 24 00
        E 16 83 24 00
        E 16 83 24 00
        E 16 83 24 00
        E 16 83 24 00
        E 16 83 24 00
        E 16 83 24 00
        E 16 83 24 00
        E 16 83 24 00
        E 16 83 24 00
        E 16 83 24 00
        E 16 83 24 00
        E 16 83 24 00
        E 16 83 24 00
        E 16 83 24 00
        E 16 83 24 00
        E 16 83 24 00
        E 16 83 24 00
        E 16 83 24 00
        E 16 83 24 00
        E 16 83 24 00
        E 16 83 24 00
        E 16 83 24 00
        E 16 83 24 00
        E 16 83 24 00
        E 16 83 24 00
        E 16 83 24 00
        E 16 83 24 00
        E 16 83 24 00
        E 16 83 24 00
        E 16 83 24 00
        E 16 83 24 00
        E 16 83 24 00
        E 16 83 24 00
        E 16 83 24 00
        E 16 83 24 00
        E 16 83 24 00
        E 16 83 24 00
        E 16 83 24 00
        E 16 83 24 00
        E 16 83 24 00
        E 16 83 24 00
        E 16 83 24 00
        E 16 83 24 00
        E 16 83 24 00
        E 16 83 24 00
        E 16 83 24 00
        E 16 83 24 00
        E 16 83 24 00
        E 16 83 24 00
        E 16 83 24 00
        E 16 83 24 00
        E 16 83 24 00
        E 16 83 24 00
        E 16 83 24 00
        E 16 83 24 00
        E 16 83 24 00
        E 16 83 24 00
        E 16 83 24 00
        E 16 83 24 00
        E 16 83 24 00
        E 16 83 24 00
        E 16 83 24 00
        E 16 83 24 00
        E 16 83 24 00
        E 16 83 24 00
        E 16 83 24 00
        E 16 83 24 00
        E 16 83 24 00
        E 16 83 24 00
        E 16 83 24 00
        E 16 83 24 00
        E 16 83 24 00
        E 16 83 24 00
        E 16 83 24 00
        E 16 83 24 00
        E 16 83 24 00
        E 16 83 24 00
        E 16 83 24 00
        E 16 83 24 00
        E 16 83 24 00
        E 16 83 24 00
        E 16 83 24 00
        E 16 83 24 00
        E 16 83 24 00
        E 16 83 24 00
        E 16 83 24 00
        E 16 83 24 00
        E 16 83 24 00
        E 16 83 24 00
        E 16 83 24 00
        E 16 83 24 00
        E 16 83 24 00
        E 16 83 24 00
        E 16 83 24 00
        E 16 83 24 00
        E 16 83 24 00
        E 16 83 24 00
        E 16 83 24 00
        E 16 83 24 00
        E 16 83 24 00
        E 16 83 24 00
        E 16 83 24 00
        E 16 83 24 00
        E 16 83 24 00
        E 16 83 24 00
        E 16 83 24 00
        E 16 83 24 00
        E 16 83 24 00
        E 16 83 24 00
        E 16 83 24 00
        E 16 83 24 00
        E 16 83 24 00
        E 16 83 24 00
        E 16 83 24 00
        E 16 83 24 00
        E 16 83 24 00
        E 16 83 24 00
        E 16 83 24 00
        E 16 83 24 00
        E 16 83 24 00
        E 16 83 24 00
        E 16 83 24 00
        E 16 83 24 00
        E 16 83 24 00
        E 16 83 24 00
        E 16 83 24 00
        E 16 83 24 00
        E 16 83 24 00
        E 16 83 24 00
        E 16 83 24 00
        E 16 83 24 00
        E 16 83 24 00
        E 16 83 24 00
        E 16 83 24 00
        E 16 83 24 00
        E 16 83 24 00
        E 16 83 24 00
        E 16 83 24 00
        E 16 83 24 00
        E 16 83 24 00
        E 16 83 24 00
        E 16 83 24 00
        E 16 83 24 00
        E 16 83 24 00
        E 16 83 24 00
        E 16 83 24 00
        E 16 83 24 00
        E 16 83 24 00
        E 16 83 24 00
        E 16 83 24 00
        E 16 83 24 00
        E 16 83 24 00
        E 16 83 24 00
        E 16 83 24 00
        E 16 83 24 00
        E 16 83 24 00
        E 16 83 24 00
        E 16 83 24 00
        E 16 83 24 00
        E 16 83 24 00
        E 16 83 24 00
        E 16 83 24 00
        E 16 83 24 00
        E 16 83 24 00
        E 16 83 24 00
        E 16 83 24 00
        E 16 83 24 00
        E 16 83 24 00
        E 16 83 24 00
        E 16 83 24 00
        E 16 83 24 00
        E 16 83 24 00
        E 16 83 24 00
        E 16 83 24 00
        E 16 83 24 00
        E 16 83 24 00
        E 16 83 24 00
        E 16 83 24 00
        E 16 83 24 00
        E 16 83 24 00
        E 16 83 24 00
        E 16 83 24 00
        E 16 83 24 00
        E 16 83 24 00
        E 16 83 24 00
        E 16 83 24 00
        E 16 83 24 00
        E 16 83 24 00
        E 16 83 24 00
        E 16 83 24 00
        E 16 83 24 00
        E 16 83 24 00
        E 16 83 24 00
        E 16 83 24 00
        E 16 83 24 00
        E 16 83 24 00
        E 16 83 24 00
        E 16 83 24 00
        E 16 83 24 00
        E 16 83 24 00
        E 16 83 24 00
        E 16 83 24 00
        E 16 83 24 00
        E 16 83 24 00
        E 16 83 24 00
        E 16 83 24 00
        E 16 83 24 00
        E 16 83 24 00
        E 16 83 24 00
        E 16 83 24 00
        E 16 83 24 00
        E 16 83 24 00
        E 16 83 24 00
        E 16 83 24 00
        E 16 83 24 00
        E 16 83 24 00
        E 16 83 24 00
        E 16 83 24 00
        E 16 83 24 00
        E 16 83 24 00
        E 16 83 24 00
        E 16 83 24 00
        E 16 83 24 00
        E 16 83 24 00
        E 16 83 24 00
        E 16 83 24 00
        E 16 83 24 00
        E 16 83 24 00
        E 16 83 24 00
        E 16 83 24 00
        E 16 83 24 00
        E 16 83 24 00
        E 16 83 24 00
        E 16 83 24 00
        E 16 83 24 00
        E 16 83 24 00
        E 16 83 24 00
        E 16 83 24 00
        E 16 83 24 00
        E 16 83 24 00
        E 16 83 24 00
        E 16 83 24 00
        E 16 83 24 00
        E 16 83 24 00
        E 16 83 24 00
        E 16 83 24 00
        E 16 83 24 00
        E 16 83 24 00
        E 16 83 24 00
        E 16 83 24 00
        E 16 83 24 00
        E 16 83 24 00
        E 16 83 24 00
        E 16 83 24 00
        E 16 83 24 00
        E 16 83 24 00
        E 16 83 24 00
        E 16 83 24 00
        E 16 83 24 00
        E 16 83 24 00
        E 16 83 24 00
        E 16 83 24 00
        E 16 83 24 00
        E 16 83 24 00
        E 16 83 24 00
        E 16 83 24 00
        E 16 83 24 00
        E 16 83 24 00
        E 16 83 24 00
        E 16 83 24 00
        E 16 83 24 00
        E 16 83 24 00
        E 16 83 24 00
        E 16 83 24 00
        E 16 83 24 00
        E 16 83 24 00
        E 16 83 24 00
        E 16 83 24 00
        E 16 83 24 00
        E 16 83 24 00
        E 16 83 24 00
        E 16 83 24 00
        E 16 83 24 00
        E 16 83 24 00
        E 16 83 24 00
        E 16 83 24 00
        E 16 83 24 00
        E 16 83 24 00
        E 16 83 24 00
        E 16 83 24 00
        E 16 83 24 00
        E 16 83 24 00
        E 16 83 24 00
        E 16 83 24 00
        E 16 83 24 00
        E 16 83 24 00
        E 16 83 24 00
        E 16 83 24 00
        E 16 83 24 00
        E 16 83 24 00
        E 16 83 24 00
        E 16 83 24 00
        E 16 83 24 00
        E 16 83 24 00
        E 16 83 24 00
        E 16 83 24 00
        E 16 83 24 00
        E 16 83 24 00
        E 16 83 24 00
        E 16 83 24 00
        E 16 83 24 00
        E 16 83 24 00
        E 16 83 24 00
        E 16 83 24 00
        E 16 83 24 00
        E 16 83 24 00
        E 16 83 24 00
        E 16 83 24 00
        E 16 83 24 00
        E 16 83 24 00
        E 16 83 24 00
        E 16 83 24 00
        E 16 83 24 00
        E 16 83 24 00
        E 16 83 24 00
        E 16 83 24 00
        E 16 83 24 00
        E 16 83 24 00
        E 16 83 24 00
        E 16 83 24 00
        E 16 83 24 00
        E 16 83 24 00
        E 16 83 24 00
        E 16 83 24 00
        E 16 83 24 00
        E 16 83 24 00
        E 16 83 24 00
        E 16 83 24 00
        E 16 83 24 00
        E 16 83 24 00
        E 16 83 24 00
        E 16 83 24 00
        E 16 83 24 00
        E 16 83 24 00
        E 16 83 24 00
        E 16 83 24 00
        E 16 83 24 00
        E 16 83 24 00
        E 16 83 24 00
        E 16 83 24 00
        E 16 83 24 00
        E 16 83 24 00
        E 16 83 24 00
        E 16 83 24 00
        E 16 83 24 00
        E 16 83 24 00
        E 16 83 24 00
        E 16 83 24 00
        E 16 83 24 00
        E 16 83 24 00
        E 16 83 24 00
        E 16 83 24 00
        E 16 83 24 00
        E 16 83 24 00
        E 16 83 24 00
        E 16 83 24 00
        E 16 83 24 00
        E 16 83 24 00
        E 16 83 24 00
        E 16 83 24 00
        E 16 83 24 00
        E 16 83 24 00
        E 16 83 24 00
        E 16 83 24 00
        E 16 83 24 00
        E 16 83 24 00
        E 16 83 24 00
        E 16 83 24 00
        E 16 83 24 00
        E 16 83 24 00
        E 16 83 24 00
        E 16 83 24 00
        E 16 83 24 00
        E 16 83 24 00
        E 16 83 24 00
        E 16 83 24 00
        E 16 83 24 00
        E 16 83 24 00
        E 16 83 24 00
        E 16 83 24 00
        E 16 83 24 00
        E 16 83 24 00
        E 16 83 24 00
        E 16 83 24 00
        E 16 83 24 00
        E 16 83 24 00
        E 16 83 24 00
        E 16 83 24 00
        E 16 83 24 00
        E 16 83 24 00
        E 16 83 24 00
        E 16 83 24 00
        E 16 83 24 00
        E 16 83 24 00
        E 16 83 24 00
        E 16 83 24 00
        E 16 83 24 00
        E 16 83 24 00
        E 16 83 24 00
        E 16 83 24 00
        E 16 83 24 00
        E 16 83 24 00
        E 16 83 24 00
        E 16 83 24 00
        E 16 83 24 00
        E 16 83 24 00
        E 16 83 24 00
        E 16 83 24 00
        E 16 83 24 00
        E 16 83 24 00
        E 16 83 24 00
        E 16 83 24 00
        E 16 83 24 00
        E 16 83 24 00
        E 16 83 24 00
        E 16 83 24 00
        E 16 83 24 00
        E 16 83 24 00
        E 16 83 24 00
        E 16 83 24 00
        E 16 83 24 00
        E 16 83 24 00
        E 16 83 24 00
        E 16 83 24 00
        E 16 83 24 00
        E 16 83 24 00
        E 16 83 24 00
        E 16 83 24 00
        E 16 83 24 00
        E 16 83 24 00
        E 16 83 24 00
        E 16 83 24 00
        E 16 83 24 00
        E 16 83 24 00
        E 16 83 24 00
        E 16 83 24 00
        E 16 83 24 00
        E 16 83 24 00
        E 16 83 24 00
        E 16 83 24 00
        E 16 83 24 00
        E 16 83 24 00
        E 16 83 24 00
        E 16 83 24 00
        E 16 83 24 00
        E 16 83 24 00
        E 16 83 24 00
        E 16 83 24 00
        E 16 83 24 00
        E 16 83 24 00
        E 16 83 24 00
        E 16 83 24 00
        E 16 83 24 00
        E 16 83 24 00
        E 16 83 24 00
        E 16 83 24 00
        E 16 83 24 00
        E 16 83 24 00
        E 16 83 24 00
        E 16 83 24 00
        E 16 83 24 00
        E 16 83 24 00
        E 16 83 24 00
        E 16 83 24 00
        E 16 83 24 00
        E 16 83 24 00
        E 16 83 24 00
        E 16 83 24 00
        E 16 83 24 00
        E 16 83 24 00
        E 16 83 24 00
        E 16 83 24 00
        E 16 83 24 00
        E 16 83 24 00
        E 16 83 24 00
        E 16 83 24 00
        E 16 83 24 00
        E 16 83 24 00
        E 16 83 24 00
        E 16 83 24 00
        E 16 83 24 00
        E 16 83 24 00
        E 16 83 24 00
        E 16 83 24 00
        E 16 83 24 00
        E 16 83 24 00
        E 16 83 24 00
        E 16 83 24 00
        E 16 83 24 00
        E 16 83 24 00
        E 16 83 24 00
        E 16 83 24 00
        E 16 83 24 00
        E 16 83 24 00
        E 16 83 24 00
        E 16 83 24 00
        E 16 83 24 00
        E 16 83 24 00
        E 16 83 24 00
        E 16 83 24 00
        E 16 83 24 00
        E 16 83 24 00
        E 16 83 24 00
        E 16 83 24 00
        E 16 83 24 00
        E 16 83 24 00
        E 16 83 24 00
        E 16 83 24 00
        E 16 83 24 00
        E 16 83 24 00
        E 16 83 24 00
        E 16 83 24 00
        E 16 83 24 00
        E 16 83 24 00
        E 16 83 24 00
        E 16 83 24 00
        E 16 83 24 00
        E 16 83 24 00
        E 16 83 24 00
        E 16 83 24 00
        E 16 83 24 00
        E 16 83 24 00
        E 16 83 24 00
        E 16 83 24 00
        E 16 83 24 00
        E 16 83 24 00
        E 16 83 24 00
        E 16 83 24 00
        E 16 83 24 00
        E 16 83 24 00
        E 16 83 24 00
        E 16 83 24 00
        E 16 83 24 00
        E 16 83 24 00
        E 16 83 24 00
        E 16 83 24 00
        E 16 83 24 00
        E 16 83 24 00
        E 16 83 24 00
        E 16 83 24 00
        E 16 83 24 00
        E 16 83 24 00
        E 16 83 24 00
        E 16 83 24 00
        E 16 83 24 00
        E 16 83 24 00
        E 16 83 24 00
        E 16 83 24 00
        E 16 83 24 00
        E 16 83 24 00
        E 16 83 24 00
        E 16 83 24 00
        E 16 83 24 00
        E 16 83 24 00
        E 16 83 24 00
        E 16 83 24 00
        E 16 83 24 00
        E 16 83 24 00
        E 16 83 24 00
        E 16 83 24 00
        E 16 83 24 00
        E 16 83 24 00
        E 16 83 24 00
        E 16 83 24 00
        E 16 83 24 00
        E 16 83 24 00
        E 16 83 24 00
        E 16 83 24 00
        E 16 83 24 00
        E 16 83 24 00
        E 16 83 24 00
        E 16 83 24 00
        E 16 83 24 00
        E 16 83 24 00
        E 16 83 24 00
        E 16 83 24 00
        E 16 83 24 00
        E 16 83 24 00
        E 16 83 24 00
        E 16 83 24 00
        E 16 83 24 00
        E 16 83 24 00
        E 16 83 24 00
        E 16 83 24 00
        E 16 83 24 00
        E 16 83 24 00
        E 16 83 24 00
        E 16 83 24 00
        E 16 83 24 00
        E 16 83 24 00
        E 16 83 24 00
        E 16 83 24 00
        E 16 83 24 00
        E 16 83 24 00
        E 16 83 24 00
        E 16 83 24 00
        E 16 83 24 00
        E 16 83 24 00
        E 16 83 24 00
        E 16 83 24 00
        E 16 83 24 00
        E 16 83 24 00
        E 16 83 24 00
        E 16 83 24 00
        E 16 83 24 00
        E 16 83 24 00
        E 16 83 24 00
        E 16 83 24 00
        E 16 83 24 00
        E 16 83 24 00
        E 16 83 24 00
        E 16 83 24 00
        E 16 83 24 00
        E 16 83 24 00
        E 16 83 24 00
        E 16 83 24 00
        E 16 83 24 00
        E 16 83 24 00
        E 16 83 24 00
        E 16 83 24 00
        E 16 83 24 00
        E 16 83 24 00
        E 16 83 24 00
        E 16 83 24 00
        E 16 83 24 00
        E 16 83 24 00
        E 16 83 24 00
        E 16 83 24 00
        E 16 83 24 00
        E 16 83 24 00
        E 16 83 24 00
        E 16 83 24 00
        E 16 83 24 00
        E 16 83 24 00
        E 16 83 24 00
        E 16 83 24 00
        E 16 83 24 00
        E 16 83 24 00
        E 16 83 24 00
        E 16 83 24 00
        E 16 83 24 00
        E 16 83 24 00
        E 16 83 24 00
        E 16 83 24 00
        E 16 83 24 00
        E 16 83 24 00
        E 16 83 24 00
        E 16 83 24 00
        E 16 83 24 00
        E 16 83 24 00
        E 16 83 24 00
        E 16 83 24 00
        E 16 83 24 00
        E 16 83 24 00
        E 16 83 24 00
        E 16 83 24 00
        E 16 83 24 00
        E 16 83 24 00
        E 16 83 24 00
        E 16 83 24 00
        E 16 83 24 00
        E 16 83 24 00
        E 16 83 24 00
        E 16 83 24 00
        E 16 83 24 00
        E 16 83 24 00
        E 16 83 24 00
        E 16 83 24 00
        E 16 83 24 00
        E 16 83 24 00
        E 16 83 24 00
        E 16 83 24 00
        E 16 83 24 00
        E 16 83 24 00
        E 16 83 24 00
        E 16 83 24 00
        E 16 83 24 00
        E 16 83 24 00
        E 16 83 24 00
        E 16 83 24 00
        E 16 83 24 00
        E 16 83 24 00
        E 16 83 24 00
        E 16 83 24 00
        E 16 83 24 00
        E 16 83 24 00
        E 16 83 24 00
        E 16 83 24 00
        E 16 83 24 00
        E 16 83 24 00
        E 16 83 24 00
        E 16 83 24 00
        E 16 83 24 00
        E 16 83 24 00
        E 16 83 24 00
        E 16 83 24 00
        E 16 83 24 00
        E 16 83 24 00
        E 16 83 24 00
        E 16 83 24 00
        E 16 83 24 00
        E 16 83 24 00
        E 16 83 24 00
        E 16 83 24 00
        E 16 83 24 00
        E 16 83 24 00
        E 16 83 24 00
        E 16 83 24 00
        E 16 83 24 00
        E 16 83 24 00
        E 16 83 24 00
        E 16 83 24 00
        E 16 83 24 00
        E 16 83 24 00
        E 16 83 24 00
        E 16 83 24 00
        E 16 83 24 00
        E 16 83 24 00
        E 16 83 24 00
        E 16 83 24 00
        E 16 83 24 00
        E 16 83 24 00
        E 16 83 24 00
        E 16 83 24 00
        E 16 83 24 00
        E 16 83 24 00
        E 16 83 24 00
        E 16 83 24 00
        E 16 83 24 00
        E 16 83 24 00
        E 16 83 24 00
        E 16 83 24 00
        E 16 83 24 00
        E 16 83 24 00
        E 16 83 24 00
        E 16 83 24 00
        E 16 83 24 00
        E 16 83 24 00
        E 16 83 24 00
        E 16 83 24 00
        E 16 83 24 00
        E 16 83 24 00
        E 16 83 24 00
        E 16 83 24 00
        E 16 83 24 00
        E 16 83 24 00
        E 16 83 24 00
        E 16 83 24 00
        E 16 83 24 00
        E 16 83 24 00
        E 16 83 24 00
        E 16 83 24 00
        E 16 83 24 00
        E 16 83 24 00
        E 16 83 24 00
        E 16 83 24 00
        E 16 83 24 00
        E 16 83 24 00
        E 16 83 24 00
        E 16 83 24 00
        E 16 83 24 00
        E 16 83 24 00
        E 16 83 24 00
        E 16 83 24 00
        E 16 83 24 00
        E 16 83 24 00
        E 16 83 24 00
        E 16 83 24 00
        E 16 83 24 00
        E 16 83 24 00
        E 16 83 24 00
        E 16 83 24 00
        E 16 83 24 00
        E 16 83 24 00
        E 16 83 24 00
        E 16 83 24 00
        E 16 83 24 00
        E 16 83 24 00
        E 16 83 24 00
        E 16 83 24 00
        E 16 83 24 00
        E 16 83 24 00
        E 16 83 24 00
        E 16 83 24 00
        E 16 83 24 00
        E 16 83 24 00
        E 16 83 24 00
        E 16 83 24 00
        E 16 83 24 00
        E 16 83 24 00
        E 16 83 24 00
        E 16 83 24 00
        E 16 83 24 00
        E 16 83 24 00
        E 16 83 24 00
        E 16 83 24 00
        E 16 83 24 00
        E 16 83 24 00
        E 16 83 24 00
        E 16 83 24 00
        E 16 83 24 00
        E 16 83 24 00
        E 16 83 24 00
        E 16 83 24 00
        E 16 83 24 00
        E 16 83 24 00
        E 16 83 24 00
        E 16 83 24 00
        E 16 83 24 00
        E 16 83 24 00
        E 16 83 24 00
        E 16 83 24 00
        E 16 83 24 00
        E 16 83 24 00
        E 16 83 24 00
        E 16 83 24 00
        E 16 83 24 00
        E 16 83 24 00
        E 16 83 24 00
        E 16 83 24 00
        E 16 83 24 00
        E 16 83 24 00
        E 16 83 24 00
        E 16 83 24 00
        E 16 83 24 00
        E 16 83 24 00
        E 16 83 24 00
        E 16 83 24 00
        E 16 83 24 00
        E 16 83 24 00
        E 16 83 24 00
        E 16 83 24 00
        E 16 83 24 00
        E 16 83 24 00
        E 16 83 24 00
        E 16 83 24 00
        E 16 83 24 00
        E 16 83 24 00
        E 16 83 24 00
        E 16 83 24 00
        E 16 83 24 00
        E 16 83 24 00
        E 16 83 24 00
        E 16 83 24 00
        E 16 83 24 00
        E 16 83 24 00
        E 16 83 24 00
        E 16 83 24 00
        E 16 83 24 00
        E 16 83 24 00
        E 16 83 24 00
        E 16 83 24 00
        E 16 83 24 00
        E 16 83 24 00
        E 16 83 24 00
        E 16 83 24 00
        E 16 83 24 00
        E 16 83 24 00
        E 16 83 24 00
        E 16 83 24 00
        E 16 83 24 00
        E 16 83 24 00
        E 16 83 24 00
        E 16 83 24 00
        E 16 83 24 00
        E 16 83 24 00
        E 16 83 24 00
        E 16 83 24 00
        E 16 83 24 00
        E 16 83 24 00
        E 16 83 24 00
        E 16 83 24 00
        E 16 83 24 00
        E 16 83 24 00
        E 16 83 24 00
        E 16 83 24 00
        E 16 83 24 00
        E 16 83 24 00
        E 16 83 24 00
        E 16 83 24 00
        E 16 83 24 00
        E 16 83 24 00
        E 16 83 24 00
        E 16 83 24 00
        E 16 83 24 00
        E 16 83 24 00
        E 16 83 24 00
        E 16 83 24 00
        E 16 83 24 00
        E 16 83 24 00
        E 16 83 24 00
        E 16 83 24 00
        E 16 83 24 00
        E 16 83 24 00
        E 16 83 24 00
        E 16 83 24 00
        E 16 83 24 00
        E 16 83 24 00
        E 16 83 24 00
        E 16 83 24 00
        E 16 83 24 00
        E 16 83 24 00
        E 16 83 24 00
        E 16 83 24 00
        E 16 83 24 00
        E 16 83 24 00
        E 16 83 24 00
        E 16 83 24 00
        E 16 83 24 00
        E 16 83 24 00
        E 16 83 24 00
        E 16 83 24 00
        E 16 83 24 00
        E 16 83 24 00
        E 16 83 24 00
        E 16 83 24 00
        E 16 83 24 00
        E 16 83 24 00
        E 16 83 24 00
        E 16 83 24 00
        E 16 83 24 00
        E 16 83 24 00
        E 16 83 24 00
        E 16 83 24 00
        E 16 83 24 00
        E 16 83 24 00
        E 16 83 24 00
        E 16 83 24 00
        E 16 83 24 00
        E 16 83 24 00
        E 16 83 24 00
        E 16 83 24 00
        E 16 83 24 00
        E 16 83 24 00
        E 16 83 24 00
        E 16 83 24 00
        E 16 83 24 00
        E 16 83 24 00
        E 16 83 24 00
        E 16 83 24 00
        E 16 83 24 00
        E 16 83 24 00
        E 16 83 24 00
        E 16 83 24 00
        E 16 83 24 00
        E 16 83 24 00
        E 16 83 24 00
        E 16 83 24 00
        E 16 83 24 00
        E 16 83 24 00
        E 16 83 24 00
        E 16 83 24 00
        E 16 83 24 00
        E 16 83 24 00
        E 16 83 24 00
        E 16 83 24 00
        E 16 83 24 00
        E 16 83 24 00
        E 16 83 24 00
        E 16 83 24 00
        E 16 83 24 00
        E 16 83 24 00
        E 16 83 24 00
        E 16 83 24 00
        E 16 83 24 00
        E 16 83 24 00
        E 16 83 24 00
        E 16 83 24 00
        E 16 83 24 00
        E 16 83 24 00
        E 16 83 24 00
        E 16 83 24 00
        E 16 83 24 00
        E 16 83 24 00
        E 16 83 24 00
        E 16 83 24 00
        E 16 83 24 00
        E 16 83 24 00
        E 16 83 24 00
        E 16 83 24 00
        E 16 83 24 00
        E 16 83 24 00
        E 16 83 24 00
        E 16 83 24 00
        E 16 83 24 00
        E 16 83 24 00
        E 16 83 24 00
        E 16 83 24 00
        E 16 83 24 00
        E 16 83 24 00
        E 16 83 24 00
        E 16 83 24 00
        E 16 83 24 00
        E 16 83 24 00
        E 16 83 24 00
        E 16 83 24 00
        E 16 83 24 00
        E 16 83 24 00
        E 16 83 24 00
        E 16 83 24 00
        E 16 83 24 00
        E 16 83 24 00
        E 16 83 24 00
        E 16 83 24 00
        E 16 83 24 00
        E 16 83 24 00
        E 16 83 24 00
        E 16 83 24 00
        E 16 83 24 00
        E 16 83 24 00
        E 16 83 24 00
        E 16 83 24 00
        E 16 83 24 00
        E 16 83 24 00
        E 16 83 24 00
        E 16 83 24 00
        E 16 83 24 00
        E 16 83 24 00
        E 16 83 24 00
        E 16 83 24 00
        E 16 83 24 00
        E 16 83 24 00
        E 16 83 24 00
        E 16 83 24 00
        E 16 83 24 00
        E 16 83 24 00
        E 16 83 24 00
        E 16 83 24 00
        E 16 83 24 00
        E 16 83 24 00
        E 16 83 24 00
        E 16 83 24 00
        E 16 83 24 00
        E 16 83 24 00
        E 16 83 24 00
        E 16 83 24 00
        E 16 83 24 00
        E 16 83 24 00
        E 16 83 24 00
        E 16 83 24 00
        E 16 83 24 00
        E 16 83 24 00
        E 16 83 24 00
        E 16 83 24 00
        E 16 83 24 00
        E 16 83 24 00
        E 16 83 24 00
        E 16 83 24 00
        E 16 83 24 00
        E 16 83 24 00
        E 16 83 24 00
        E 16 83 24 00
        E 16 83 24 00
        E 16 83 24 00
        E 16 83 24 00
        E 16 83 24 00
        E 16 83 24 00
        E 16 83 24 00
        E 16 83 24 00
        E 16 83 24 00
        E 16 83 24 00
        E 16 83 24 00
        E 16 83 24 00
        E 16 83 24 00
        E 16 83 24 00
        E 16 83 24 00
        E 16 83 24 00
        E 16 83 24 00
        E 16 83 24 00
        E 16 83 24 00
        E 16 83 24 00
        E 16 83 24 00
        E 16 83 24 00
        E 16 83 24 00
        E 16 83 24 00
        E 16 83 24 00
        E 16 83 24 00
        E 16 83 24 00
        E 16 83 24 00
        E 16 83 24 00
        E 16 83 24 00
        E 16 83 24 00
        E 16 83 24 00
        E 16 83 24 00
        E 16 83 24 00
        E 16 83 24 00
        E 16 83 24 00
        E 16 83 24 00
        E 16 83 24 00
        E 16 83 24 00
        E 16 83 24 00
        E 16 83 24 00
        E 16 83 24 00
        E 16 83 24 00
        E 16 83 24 00
        E 16 83 24 00
        E 16 83 24 00
        E 16 83 24 00
        E 16 83 24 00
        E 16 83 24 00
        E 16 83 24 00
        E 16 83 24 00
        E 16 83 24 00
        E 16 83 24 00
        E 16 83 24 00
        E 16 83 24 00
        E 16 83 24 00
        E 16 83 24 00
        E 16 83 24 00
        E 16 83 24 00
        E 16 83 24 00
        E 16 83 24 00
        E 16 83 24 00
        E 16 83 24 00
        E 16 83 24 00
        E 16 83 24 00
        E 16 83 24 00
        E 16 83 24 00
        E 16 83 24 00
        E 16 83 24 00
        E 16 83 24 00
        E 16 83 24 00
        E 16 83 24 00
        E 16 83 24 00
        E 16 83 24 00
        E 16 83 24 00
        E 16 83 24 00
        E 16 83 24 00
        E 16 83 24 00
        E 16 83 24 00
        E 16 83 24 00
        E 16 83 24 00
        E 16 83 24 00
        E 16 83 24 00
        E 16 83 24 00
        E 16 83 24 00
        E 16 83 24 00
        E 16 83 24 00
        E 16 83 24 00
        E 16 83 24 00
        E 16 83 24 00
        E 16 83 24 00
        E 16 83 24 00
        E 16 83 24 00
        E 16 83 24 00
        E 16 83 24 00
        E 16 83 24 00
        E 16 83 24 00
        E 16 83 24 00
        E 16 83 24 00
        E 16 83 24 00
        E 16 83 24 00
        E 16 83 24 00
        E 16 83 24 00
        E 16 83 24 00
        E 16 83 24 00
        E 16 83 24 00
        E 16 83 24 00
        E 16 83 24 00
        E 16 83 24 00
        E 16 83 24 00
        E 16 83 24 00
        E 16 83 24 00
        E 16 83 24 00
        E 16 83 24 00
        E 16 83 24 00
        E 16 83 24 00
        E 16 83 24 00
        E 16 83 24 00
        E 16 83 24 00
        E 16 83 24 00
        E 16 83 24 00
        E 16 83 24 00
        E 16 83 24 00
        E 16 83 24 00
        E 16 83 24 00
        E 16 83 24 00
        E 16 83 24 00
        E 16 83 24 00
        E 16 83 24 00
        E 16 83 24 00
        E 16 83 24 00
        E 16 83 24 00
        E 16 83 24 00
        E 16 83 24 00
        E 16 83 24 00
        E 16 83 24 00
        E 16 83 24 00
        E 16 83 24 00
        E 16 83 24 00
        E 16 83 24 00
        E 16 83 24 00
        E 16 83 24 00
        E 16 83 24 00
        E 16 83 24 00
        E 16 83 24 00
        E 16 83 24 00
        E 16 83 24 00
        E 16 83 24 00
        E 16 83 24 00
        E 16 83 24 00
        E 16 83 24 00
        E 16 83 24 00
        E 16 83 24 00
        E 16 83 24 00
        E 16 83 24 00
        E 16 83 24 00
        E 16 83 24 00
        E 16 83 24 00
        E 16 83 24 00
        E 16 83 24 00
        E 16 83 24 00
        E 16 83 24 00
        E 16 83 24 00
        E 16 83 24 00
        E 16 83 24 00
        E 16 83 24 00
        E 16 83 24 00
        E 16 83 24 00
        E 16 83 24 00
        E 16 83 24 00
        E 16 83 24 00
        E 16 83 24 00
        E 16 83 24 00
        E 16 83 24 00
        E 16 83 24 00
        E 16 83 24 00
        E 16 83 24 00
        E 16 83 24 00
        E 16 83 24 00
        E 16 83 24 00
        E 16 83 24 00
        E 16 83 24 00
        E 16 83 24 00
        E 16 83 24 00
        E 16 83 24 00
        E 16 83 24 00
        E 16 83 24 00
        E 16 83 24 00
        E 16 83 24 00
        E 16 83 24 00
        E 16 83 24 00
        E 16 83 24 00
        E 16 83 24 00
        E 16 83 24 00
        E 16 83 24 00
        E 16 83 24 00
        E 16 83 24 00
        E 16 83 24 00
        E 16 83 24 00
        E 16 83 24 00
        E 16 83 24 00
        E 16 83 24 00
        E 16 83 24 00
        E 16 83 24 00
        E 16 83 24 00
        E 16 83 24 00
        E 16 83 24 00
        E 16 83 24 00
        E 16 83 24 00
        E 16 83 24 00
        E 16 83 24 00
        E 16 83 24 00
        E 16 83 24 00
        E 16 83 24 00
        E 16 83 24 00
        E 16 83 24 00
        E 16 83 24 00
        E 16 83 24 00
        E 16 83 24 00
        E 16 83 24 00
        E 16 83 24 00
        E 16 83 24 00
        E 16 83 24 00
        E 16 83 24 00
        E 16 83 24 00
        E 16 83 24 00
        E 16 83 24 00
        E 16 83 24 00
        E 16 83 24 00
        E 16 83 24 00
        E 16 83 24 00
        E 16 83 24 00
        E 16 83 24 00
        E 16 83 24 00
        E 16 83 24 00
        E 16 83 24 00
        E 16 83 24 00
        E 16 83 24 00
        E 16 83 24 00
        E 16 83 24 00
        E 16 83 24 00
        E 16 83 24 00
        E 16 83 24 00
        E 16 83 24 00
        E 16 83 24 00
        E 16 83 24 00
        E 16 83 24 00
        E 16 83 24 00
        E 16 83 24 00
        E 16 83 24 00
        E 16 83 24 00
        E 16 83 24 00
        E 16 83 24 00
        E 16 83 24 00
        E 16 83 24 00
        E 16 83 24 00
        E 16 83 24 00
        E 16 83 24 00
        E 16 83 24 00
        E 16 83 24 00
        E 16 83 24 00
        E 16 83 24 00
        E 16 83 24 00
        E 16 83 24 00
        E 16 83 24 00
        E 16 83 24 00
        E 16 83 24 00
        E 16 83 24 00
        E 16 83 24 00
        E 16 83 24 00
        E 16 83 24 00
        E 16 83 24 00
        E 16 83 24 00
        E 16 83 24 00
        E 16 83 24 00
        E 16 83 24 00
        E 16 83 24 00
        E 16 83 24 00
        E 16 83 24 00
        E 16 83 24 00
        E 16 83 24 00
        E 16 83 24 00
        E 16 83 24 00
        E 16 83 24 00
        E 16 83 24 00
        E 16 83 24 00
        E 16 83 24 00
        E 16 83 24 00
        E 16 83 24 00
        E 16 83 24 00
        E 16 83 24 00
        E 16 83 24 00
        E 16 83 24 00
        E 16 83 24 00
        E 16 83 24 00
        E 16 83 24 00
        E 16 83 24 00
        E 16 83 24 00
        E 16 83 24 00
        E 16 83 24 00
        E 16 83 24 00
        E 16 83 24 00
        E 16 83 24 00
        E 16 83 24 00
        E 16 83 24 00
        E 16 83 24 00
        E 16 83 24 00
        E 16 83 24 00
        E 16 83 24 00
        E 16 83 24 00
        E 16 83 24 00
        E 16 83 24 00
        E 16 83 24 00
        E 16 83 24 00
        E 16 83 24 00
        E 16 83 24 00
        E 16 83 24 00
        E 16 83 24 00
        E 16 83 24 00
        E 16 83 24 00
        E 16 83 24 00
        E 16 83 24 00
        E 16 83 24 00
        E 16 83 24 00
        E 16 83 24 00
        E 16 83 24 00
        E 16 83 24 00
        E 16 83 24 00
        E 16 83 24 00
        E 16 83 24 00
        E 16 83 24 00
        E 16 83 24 00
        E 16 83 24 00
        E 16 83 24 00
        E 16 83 24 00
        E 16 83 24 00
        E 16 83 24 00
        E 16 83 24 00
        E 16 83 24 00
        E 16 83 24 00
        E 16 83 24 00
        E 16 83 24 00
        E 16 83 24 00
        E 16 83 24 00
        E 16 83 24 00
        E 16 83 24 00
        E 16 83 24 00
        E 16 83 24 00
        E 16 83 24 00
        E 16 83 24 00
        E 16 83 24 00
        E 16 83 24 00
        E 16 83 24 00
        E 16 83 24 00
        E 16 83 24 00
        E 16 83 24 00
        E 16 83 24 00
        E 16 83 24 00
        E 16 83 24 00
        E 16 83 24 00
        E 16 83 24 00
        E 16 83 24 00
        E 16 83 24 00
        E 16 83 24 00
        E 16 83 24 00
        E 16 83 24 00
        E 16 83 24 00
        E 16 83 24 00
        E 16 83 24 00
        E 16 83 24 00
        E 16 83 24 00
        E 16 83 24 00
        E 16 83 24 00
        E 16 83 24 00
        E 16 83 24 00
        E 16 83 24 00
        E 16 83 24 00
        E 16 83 24 00
        E 16 83 24 00
        E 16 83 24 00
        E 16 83 24 00
        E 16 83 24 00
        E 16 83 24 00
        E 16 83 24 00
        E 16 83 24 00
        E 16 83 24 00
        E 16 83 24 00
        E 16 83 24 00
        E 16 83 24 00
        E 16 83 24 00
        E 16 83 24 00
        E 16 83 24 00
        E 16 83 24 00
        E 16 83 24 00
        E 16 83 24 00
        E 16 83 24 00
        E 16 83 24 00
        E 16 83 24 00
        E 16 83 24 00
        E 16 83 24 00
        E 16 83 24 00
        E 16 83 24 00
        E 16 83 24 00
        E 16 83 24 00
        E 16 83 24 00
        E 16 83 24 00
        E 16 83 24 00
        E 16 83 24 00
        E 16 83 24 00
        E 16 83 24 00
        E 16 83 24 00
        E 16 83 24 00
        E 16 83 24 00
        E 16 83 24 00
        E 16 83 24 00
        E 16 83 24 00
        E 16 83 24 00
        E 16 83 24 00
        E 16 83 24 00
        E 16 83 24 00
        E 16 83 24 00
        E 16 83 24 00
        E 16 83 24 00
        E 16 83 24 00
        E 16 83 24 00
        E 16 83 24 00
        E 16 83 24 00
        E 16 83 24 00
        E 16 83 24 00
        E 16 83 24 00
        E 16 83 24 00
        E 16 83 24 00
        E 16 83 24 00
        E 16 83 24 00
        E 16 83 24 00
        E 16 83 24 00
        E 16 83 24 00
        E 16 83 24 00
        E 16 83 24 00
        E 16 83 24 00
        E 16 83 24 00
        E 16 83 24 00
        E 16 83 24 00
        E 16 83 24 00
        E 16 83 24 00
        E 16 83 24 00
        E 16 83 24 00
        E 16 83 24 00
        E 16 83 24 00
        E 16 83 24 00
        E 16 83 24 00
        E 16 83 24 00
        E 16 83 24 00
        E 16 83 24 00
        E 16 83 24 00
        E 16 83 24 00
        E 16 83 24 00
        E 16 83 24 00
        E 16 83 24 00
        E 16 83 24 00
        E 16 83 24 00
        E 16 83 24 00
        E 16 83 24 00
        E 16 83 24 00
        E 16 83 24 00
        E 16 83 24 00
        E 16 83 24 00
        E 16 83 24 00
        E 16 83 24 00
        E 16 83 24 00
        E 16 83 24 00
        E 16 83 24 00
        E 16 83 24 00
        E 16 83 24 00
        E 16 83 24 00
        E 16 83 24 00
        E 16 83 24 00
        E 16 83 24 00
        E 16 83 24 00
        E 16 83 24 00
        E 16 83 24 00
        E 16 83 24 00
        E 16 83 24 00
        E 16 83 24 00
        E 16 83 24 00
        E 16 83 24 00
        E 16 83 24 00
        E 16 83 24 00
        E 16 83 24 00
        E 16 83 24 00
        E 16 83 24 00
        E 16 83 24 00
        E 16 83 24 00
        E 16 83 24 00
        E 16 83 24 00
        E 16 83 24 00
        E 16 83 24 00
        E 16 83 24 00
        E 16 83 24 00
        E 16 83 24 00
        E 16 83 24 00
        E 16 83 24 00
        E 16 83 24 00
        E 16 83 24 00
        E 16 83 24 00
        E 16 83 24 00
        E 16 83 24 00
        E 16 83 24 00
        E 16 83 24 00
        E 16 83 24 00
        E 16 83 24 00
        E 16 83 24 00
        E 16 83 24 00
        E 16 83 24 00
        E 16 83 24 00
        E 16 83 24 00
        E 16 83 24 00
        E 16 83 24 00
        E 16 83 24 00
        E 16 83 24 00
        E 16 83 24 00
        E 16 83 24 00
        E 16 83 24 00
        E 16 83 24 00
        E 16 83 24 00
        E 16 83 24 00
        E 16 83 24 00
        E 16 83 24 00
        E 16 83 24 00
        E 16 83 24 00
        E 16 83 24 00
        E 16 83 24 00
        E 16 83 24 00
        E 16 83 24 00
        E 16 83 24 00
        E 16 83 24 00
        E 16 83 24 00
        E 16 83 24 00
        E 16 83 24 00
        E 16 83 24 00
        E 16 83 24 00
        E 16 83 24 00
        E 16 83 24 00
        E 16 83 24 00
        E 16 83 24 00
        E 16 83 24 00
        E 16 83 24 00
        E 16 83 24 00
        E 16 83 24 00
        E 16 83 24 00
        E 16 83 24 00
        E 16 83 24 00
        E 16 83 24 00
        E 16 83 24 00
        E 16 83 24 00
        E 16 83 24 00
        E 16 83 24 00
        E 16 83 24 00
        E 16 83 24 00
        E 16 83 24 00
        E 16 83 24 00
        E 16 83 24 00
        E 16 83 24 00
        E 16 83 24 00
        E 16 83 24 00
        E 16 83 24 00
        E 16 83 24 00
        E 16 83 24 00
        E 16 83 24 00
        E 16 83 24 00
        E 16 83 24 00
        E 16 83 24 00
        E 16 83 24 00
        E 16 83 24 00
        E 16 83 24 00
        E 16 83 24 00
        E 16 83 24 00
        E 16 83 24 00
        E 16 83 24 00
        E 16 83 24 00
        E 16 83 24 00
        E 16 83 24 00
        E 16 83 24 00
        E 16 83 24 00
        E 16 83 24 00
        E 16 83 24 00
        E 16 83 24 00
        E 16 83 24 00
        E 16 83 24 00
        E 16 83 24 00
        E 16 83 24 00
        E 16 83 24 00
        E 16 83 24 00
        E 16 83 24 00
        E 16 83 24 00
        E 16 83 24 00
        E 16 83 24 00
        E 16 83 24 00
        E 16 83 24 00
        E 16 83 24 00
        E 16 83 24 00
        E 16 83 24 00
        E 16 83 24 00
        E 16 83 24 00
        E 16 83 24 00
        E 16 83 24 00
        E 16 83 24 00
        E 16 83 24 00
        E 16 83 24 00
        E 16 83 24 00
        E 16 83 24 00
        E 16 83 24 00
        E 16 83 24 00
        E 16 83 24 00
        E 16 83 24 00
        E 16 83 24 00
        E 16 83 24 00
        E 16 83 24 00
        E 16 83 24 00
        E 16 83 24 00
        E 16 83 24 00
        E 16 83 24 00
        E 16 83 24 00
        E 16 83 24 00
        E 16 83 24 00
        E 16 83 24 00
        E 16 83 24 00
        E 16 83 24 00
        E 16 83 24 00
        E 16 83 24 00
        E 16 83 24 00
        E 16 83 24 00
        E 16 83 24 00
        E 16 83 24 00
        E 16 83 24 00
        E 16 83 24 00
        E 16 83 24 00
        E 16 83 24 00
        E 16 83 24 00
        E 16 83 24 00
        E 16 83 24 00
        E 16 83 24 00
        E 16 83 24 00
        E 16 83 24 00
        E 16 83 24 00
        E 16 83 24 00
        E 16 83 24 00
        E 16 83 24 00
        E 16 83 24 00
        E 16 83 24 00
        E 16 83 24 00
        E 16 83 24 00
        E 16 83 24 00
        E 16 83 24 00
        E 16 83 24 00
        E 16 83 24 00
        E 16 83 24 00
        E 16 83 24 00
        E 16 83 24 00
        E 16 83 24 00
        E 16 83 24 00
        E 16 83 24 00
        E 16 83 24 00
        E 16 83 24 00
        E 16 83 24 00
        E 16 83 24 00
        E 16 83 24 00
        E 16 83 24 00
        E 16 83 24 00
        E 16 83 24 00
        E 16 83 24 00
        E 16 83 24 00
        E 16 83 24 00
        E 16 83 24 00
        E 16 83 24 00
        E 16 83 24 00
        E 16 83 24 00
        E 16 83 24 00
        E 16 83 24 00
        E 16 83 24 00
        E 16 83 24 00
        E 16 83 24 00
        E 16 83 24 00
        E 16 83 24 00
        E 16 83 24 00
        E 16 83 24 00
        E 16 83 24 00
        E 16 83 24 00
        E 16 83 24 00
        E 16 83 24 00
        E 16 83 24 00
        E 16 83 24 00
        E 16 83 24 00
        E 16 83 24 00
        E 16 83 24 00
        E 16 83 24 00
        E 16 83 24 00
        E 16 83 24 00
        E 16 83 24 00
        E 16 83 24 00
        E 16 83 24 00
        E 16 83 24 00
        E 16 83 24 00
        E 16 83 24 00
        E 16 83 24 00
        E 16 83 24 00
        E 16 83 24 00
        E 16 83 24 00
        E 16 83 24 00
        E 16 83 24 00
        E 16 83 24 00
        E 16 83 24 00
        E 16 83 24 00
        E 16 83 24 00
        E 16 83 24 00
        E 16 83 24 00
        E 16 83 24 00
        E 16 83 24 00
        E 16 83 24 00
        E 16 83 24 00
        E 16 83 24 00
        E 16 83 24 00
        E 16 83 24 00
        E 16 83 24 00
        E 16 83 24 00
        E 16 83 24 00
        E 16 83 24 00
        E 16 83 24 00
        E 16 83 24 00
        E 16 83 24 00
        E 16 83 24 00
        E 16 83 24 00
        E 16 83 24 00
        E 16 83 24 00
        E 16 83 24 00
        E 16 83 24 00
        E 16 83 24 00
        E 16 83 24 00
        E 16 83 24 00
        E 16 83 24 00
        E 16 83 24 00
        E 16 83 24 00
        E 16 83 24 00
        E 16 83 24 00
        E 16 83 24 00
        E 16 83 24 00
        E 16 83 24 00
        E 16 83 24 00
        E 16 83 24 00
        E 16 83 24 00
        E 16 83 24 00
        E 16 83 24 00
        E 16 83 24 00
        E 16 83 24 00
        E 16 83 24 00
        E 16 83 24 00
        E 16 83 24 00
        E 16 83 24 00
        E 16 83 24 00
        E 16 83 24 00
        E 16 83 24 00
        E 16 83 24 00
        E 16 83 24 00
        E 16 83 24 00
        E 16 83 24 00
        E 16 83 24 00
        E 16 83 24 00
        E 16 83 24 00
        E 16 83 24 00
        E 16 83 24 00
        E 16 83 24 00
        E 16 83 24 00
        E 16 83 24 00
        E 16 83 24 00
        E 16 83 24 00
        E 16 83 24 00
        E 16 83 24 00
        E 16 83 24 00
        E 16 83 24 00
        E 16 83 24 00
        E 16 83 24 00
        E 16 83 24 00
        E 16 83 24 00
        E 16 83 24 00
        E 16 83 24 00
        E 16 83 24 00
        E 16 83 24 00
        E 16 83 24 00
        E 16 83 24 00
        E 16 83 24 00
        E 16 83 24 00
        E 16 83 24 00
        E 16 83 24 00
        E 16 83 24 00
        E 16 83 24 00
        E 16 83 24 00
        E 16 83 24 00
        E 16 83 24 00
        E 16 83 24 00
        E 16 83 24 00
        E 16 83 24 00
        E 16 83 24 00
        E 16 83 24 00
        E 16 83 24 00
        E 16 83 24 00
        E 16 83 24 00
        E 16 83 24 00
        E 16 83 24 00
        E 16 83 24 00
        E 16 83 24 00
        E 16 83 24 00
        E 16 83 24 00
        E 16 83 24 00
        E 16 83 24 00
        E 16 83 24 00
        E 16 83 24 00
        E 16 83 24 00
        E 16 83 24 00
        E 16 83 24 00
        E 16 83 24 00
        E 16 83 24 00
        E 16 83 24 00
        E 16 83 24 00
        E 16 83 24 00
        E 16 83 24 00
        E 16 83 24 00
        E 16 83 24 00
        E 16 83 24 00
        E 16 83 24 00
        E 16 83 24 00
        E 16 83 24 00
        E 16 83 24 00
        E 16 83 24 00
        E 16 83 24 00
        E 16 83 24 00
        E 16 83 24 00
        E 16 83 24 00
        E 16 83 24 00
        E 16 83 24 00
        E 16 83 24 00
        E 16 83 24 00
        E 16 83 24 00
        E 16 83 24 00
        E 16 83 24 00
        E 16 83 24 00
        E 16 83 24 00
        E 16 83 24 00
        E 16 83 24 00
        E 16 83 24 00
        E 16 83 24 00
        E 16 83 24 00
        E 16 83 24 00
        E 16 83 24 00
        E 16 83 24 00
        E 16 83 24 00
        E 16 83 24 00
        E 16 83 24 00
        E 16 83 24 00
        E 16 83 24 00
        E 16 83 24 00
        E 16 83 24 00
        E 16 83 24 00
        E 16 83 24 00
        E 16 83 24 00
        E 16 83 24 00
        E 16 83 24 00
        E 16 83 24 00
        E 16 83 24 00
        E 16 83 24 00
        E 16 83 24 00
        E 16 83 24 00
        E 16 83 24 00
        E 16 83 24 00
        E 16 83 24 00
        E 16 83 24 00
        E 16 83 24 00
        E 16 83 24 00
        E 16 83 24 00
        E 16 83 24 00
        E 16 83 24 00
        E 16 83 24 00
        E 16 83 24 00
        E 16 83 24 00
        E 16 83 24 00
        E 16 83 24 00
        E 16 83 24 00
        E 16 83 24 00
        E 16 83 24 00
        E 16 83 24 00
        E 16 83 24 00
        E 16 83 24 00
        E 16 83 24 00
        E 16 83 24 00
        E 16 83 24 00
        E 16 83 24 00
        E 16 83 24 00
        E 16 83 24 00
        E 16 83 24 00
        E 16 83 24 00
        E 16 83 24 00
        E 16 83 24 00
        E 16 83 24 00
        E 16 83 24 00
        E 16 83 24 00
        E 16 83 24 00
        E 16 83 24 00
        E 16 83 24 00
        E 16 83 24 00
        E 16 83 24 00
        E 16 83 24 00
        E 16 83 24 00
        E 16 83 24 00
        E 16 83 24 00
        E 16 83 24 00
        E 16 83 24 00
        E 16 83 24 00
        E 16 83 24 00
        E 16 83 24 00
        E 16 83 24 00
        E 16 83 24 00
        E 16 83 24 00
        E 16 83 24 00
        E 16 83 24 00
        E 16 83 24 00
        E 16 83 24 00
        E 16 83 24 00
        E 16 83 24 00
        E 16 83 24 00
        E 16 83 24 00
        E 16 83 24 00
        E 16 83 24 00
        E 16 83 24 00
        E 16 83 24 00
        E 16 83 24 00
        E 16 83 24 00
        E 16 83 24 00
        E 16 83 24 00
        E 16 83 24 00
        E 16 83 24 00
        E 16 83 24 00
        E 16 83 24 00
        E 16 83 24 00
        E 16 83 24 00
        E 16 83 24 00
        E 16 83 24 00
        E 16 83 24 00
        E 16 83 24 00
        E 16 83 24 00
        E 16 83 24 00
        E 16 83 24 00
        E 16 83 24 00
        E 16 83 24 00
        E 16 83 24 00
        E 16 83 24 00
        E 16 83 24 00
        E 16 83 24 00
        E 16 83 24 00
        E 16 83 24 00
        E 16 83 24 00
        E 16 83 24 00
        E 16 83 24 00
        E 16 83 24 00
        E 16 83 24 00
        E 16 83 24 00
        E 16 83 24 00
        E 16 83 24 00
        E 16 83 24 00
        E 16 83 24 00
        E 16 83 24 00
        E 16 83 24 00
        E 16 83 24 00
        E 16 83 24 00
        E 16 83 24 00
        E 16 83 24 00
        E 16 83 24 00
        E 16 83 24 00
        E 16 83 24 00
        E 16 83 24 00
        E 16 83 24 00
        E 16 83 24 00
        E 16 83 24 00
        E 16 83 24 00
        E 16 83 24 00
        E 16 83 24 00
        E 16 83 24 00
        E 16 83 24 00
        E 16 83 24 00
        E 16 83 24 00
        E 16 83 24 00
        E 16 83 24 00
        E 16 83 24 00
        E 16 83 24 00
        E 16 83 24 00
        E 16 83 24 00
        E 16 83 24 00
        E 16 83 24 00
        E 16 83 24 00
        E 16 83 24 00
        E 16 83 24 00
        E 16 83 24 00
        E 16 83 24 00
        E 16 83 24 00
        E 16 83 24 00
        E 16 83 24 00
        E 16 83 24 00
        E 16 83 24 00
        E 16 83 24 00
        E 16 83 24 00
        E 16 83 24 00
        E 16 83 24 00
        E 16 83 24 00
        E 16 83 24 00
        E 16 83 24 00
        E 16 83 24 00
        E 16 83 24 00
        E 16 83 24 00
        E 16 83 24 00
        E 16 83 24 00
        E 16 83 24 00
        E 16 83 24 00
        E 16 83 24 00
        E 16 83 24 00
        E 16 83 24 00
        E 16 83 24 00
        E 16 83 24 00
        E 16 83 24 00
        E 16 83 24 00
        E 16 83 24 00
        E 16 83 24 00
        E 16 83 24 00
        E 16 83 24 00
        E 16 83 24 00
        E 16 83 24 00
        E 16 83 24 00
        E 16 83 24 00
        E 16 83 24 00
        E 16 83 24 00
        E 16 83 24 00
        E 16 83 24 00
        E 16 83 24 00
        E 16 83 24 00
        E 16 83 24 00
        E 16 83 24 00
        E 16 83 24 00
        E 16 83 24 00
        E 16 83 24 00
        E 16 83 24 00
        E 16 83 24 00
        E 16 83 24 00
        E 16 83 24 00
        E 16 83 24 00
        E 16 83 24 00
        E 16 83 24 00
        E 16 83 24 00
        E 16 83 24 00
        E 16 83 24 00
        E 16 83 24 00
        E 16 83 24 00
        E 16 83 24 00
        E 16 83 24 00
        E 16 83 24 00
        E 16 83 24 00
        E 16 83 24 00
        E 16 83 24 00
        E 16 83 24 00
        E 16 83 24 00
        E 16 83 24 00
        E 16 83 24 00
        E 16 83 24 00
        E 16 83 24 00
        E 16 83 24 00
        E 16 83 24 00
        E 16 83 24 00
        E 16 83 24 00
        E 16 83 24 00
        E 16 83 24 00
        E 16 83 24 00
        E 16 83 24 00
        E 16 83 24 00
        E 16 83 24 00
        E 16 83 24 00
        E 16 83 24 00
        E 16 83 24 00
        E 16 83 24 00
        E 16 83 24 00
        E 16 83 24 00
        E 16 83 24 00
        E 16 83 24 00
        E 16 83 24 00
        E 16 83 24 00
        E 16 83 24 00
        E 16 83 24 00
        E 16 83 24 00
        E 16 83 24 00
        E 16 83 24 00
        E 16 83 24 00
        E 16 83 24 00
        E 16 83 24 00
        E 16 83 24 00
        E 16 83 24 00
        E 16 83 24 00
        E 16 83 24 00
        E 16 83 24 00
        E 16 83 24 00
        E 16 83 24 00
        E 16 83 24 00
        E 16 83 24 00
        E 16 83 24 00
        E 16 83 24 00
        E 16 83 24 00
        E 16 83 24 00
        E 16 83 24 00
        E 16 83 24 00
        E 16 83 24 00
        E 16 83 24 00
        E 16 83 24 00
        E 16 83 24 00
        E 16 83 24 00
        E 16 83 24 00
        E 16 83 24 00
        E 16 83 24 00
        E 16 83 24 00
        E 16 83 24 00
        E 16 83 24 00
        E 16 83 24 00
        E 16 83 24 00
        E 16 83 24 00
        E 16 83 24 00
        E 16 83 24 00
        E 16 83 24 00
        E 16 83 24 00
        E 16 83 24 00
        E 16 83 24 00
        E 16 83 24 00
        E 16 83 24 00
        E 16 83 24 00
        E 16 83 24 00
        E 16 83 24 00
        E 16 83 24 00
        E 16 83 24 00
        E 16 83 24 00
        E 16 83 24 00
        E 16 83 24 00
        E 16 83 24 00
        E 16 83 24 00
        E 16 83 24 00
        E 16 83 24 00
        E 16 83 24 00
        E 16 83 24 00
        E 16 83 24 00
        E 16 83 24 00
        E 16 83 24 00
        E 16 83 24 00
        E 16 83 24 00
        E 16 83 24 00
        E 16 83 24 00
        E 16 83 24 00
        E 16 83 24 00
        E 16 83 24 00
        E 16 83 24 00
        E 16 83 24 00
        E 16 83 24 00
        E 16 83 24 00
        E 16 83 24 00
        E 16 83 24 00
        E 16 83 24 00
        E 16 83 24 00
        E 16 83 24 00
        E 16 83 24 00
        E 16 83 24 00
        E 16 83 24 00
        E 16 83 24 00
        E 16 83 24 00
        E 16 83 24 00
        E 16 83 24 00
        E 16 83 24 00
        E 16 83 24 00
        E 16 83 24 00
        E 16 83 24 00
        E 16 83 24 00
        E 16 83 24 00
        E 16 83 24 00
        E 16 83 24 00
        E 16 83 24 00
        E 16 83 24 00
        E 16 83 24 00
        E 16 83 24 00
        E 16 83 24 00
        E 16 83 24 00
        E 16 83 24 00
        E 16 83 24 00
        E 16 83 24 00
        E 16 83 24 00
        E 16 83 24 00
        E 16 83 24 00
        E 16 83 24 00
        E 16 83 24 00
        E 16 83 24 00
        E 16 83 24 00
        E 16 83 24 00
        E 16 83 24 00
        E 16 83 24 00
        E 16 83 24 00
        E 16 83 24 00
        E 16 83 24 00
        E 16 83 24 00
        E 16 83 24 00
        E 16 83 24 00
        E 16 83 24 00
        E 16 83 24 00
        E 16 83 24 00
        E 16 83 24 00
        E 16 83 24 00
        E 16 83 24 00
        E 16 83 24 00
        E 16 83 24 00
        E 16 83 24 00
        E 16 83 24 00
        E 16 83 24 00
        E 16 83 24 00
        E 16 83 24 00
        E 16 83 24 00
        E 16 83 24 00
        E 16 83 24 00
        E 16 83 24 00
        E 16 83 24 00
        E 16 83 24 00
        E 16 83 24 00
        E 16 83 24 00
        E 16 83 24 00
        E 16 83 24 00
        E 16 83 24 00
        E 16 83 24 00
        E 16 83 24 00
        E 16 83 24 00
        E 16 83 24 00
        E 16 83 24 00
        E 16 83 24 00
        E 16 83 24 00
        E 16 83 24 00
        E 16 83 24 00
        E 16 83 24 00
        E 16 83 24 00
        E 16 83 24 00
        E 16 83 24 00
        E 16 83 24 00
        E 16 83 24 00
        E 16 83 24 00
        E 16 83 24 00
        E 16 83 24 00
        E 16 83 24 00
        E 16 83 24 00
        E 16 83 24 00
        E 16 83 24 00
        E 16 83 24 00
        E 16 83 24 00
        E 16 83 24 00
        E 16 83 24 00
        E 16 83 24 00
        E 16 83 24 00
        E 16 83 24 00
        E 16 83 24 00
        E 16 83 24 00
        E 16 83 24 00
        E 16 83 24 00
        E 16 83 24 00
        E 16 83 24 00
        E 16 83 24 00
        E 16 83 24 00
        E 16 83 24 00
        E 16 83 24 00
        E 16 83 24 00
        E 16 83 24 00
        E 16 83 24 00
        E 16 83 24 00
        E 16 83 24 00
        E 16 83 24 00
        E 16 83 24 00
        E 16 83 24 00
        E 16 83 24 00
        E 16 83 24 00
        E 16 83 24 00
        E 16 83 24 00
        E 16 83 24 00
        E 16 83 24 00
        E 16 83 24 00
        E 16 83 24 00
        E 16 83 24 00
        E 16 83 24 00
        E 16 83 24 00
        E 16 83 24 00
        E 16 83 24 00
        E 16 83 24 00
        E 16 83 24 00
        E 16 83 24 00
        E 16 83 24 00
        E 16 83 24 00
        E 16 83 24 00
        E 16 83 24 00
        E 16 83 24 00
        E 16 83 24 00
        E 16 83 24 00
        E 16 83 24 00
        E 16 83 24 00
        E 16 83 24 00
        E 16 83 24 00
        E 16 83 24 00
        E 16 83 24 00
        E 16 83 24 00
        E 16 83 24 00
        E 16 83 24 00
        E 16 83 24 00
        E 16 83 24 00
        E 16 83 24 00
        E 16 83 24 00
        E 16 83 24 00
        E 16 83 24 00
        E 16 83 24 00
        E 16 83 24 00
        E 16 83 24 00
        E 16 83 24 00
        E 16 83 24 00
        E 16 83 24 00
        E 16 83 24 00
        E 16 83 24 00
        E 16 83 24 00
        E 16 83 24 00
        E 16 83 24 00
        E 16 83 24 00
        E 16 83 24 00
        E 16 83 24 00
        E 16 83 24 00
        E 16 83 24 00
        E 16 83 24 00
        E 16 83 24 00
        E 16 83 24 00
        E 16 83 24 00
        E 16 83 24 00
        E 16 83 24 00
        E 16 83 24 00
        E 16 83 24 00
        E 16 83 24 00
        E 16 83 24 00
        E 16 83 24 00
        E 16 83 24 00
        E 16 83 24 00
        E 16 83 24 00
        E 16 83 24 00
        E 16 83 24 00
        E 16 83 24 00
        E 16 83 24 00
        E 16 83 24 00
        E 16 83 24 00
        E 16 83 24 00
        E 16 83 24 00
        E 16 83 24 00
        E 16 83 24 00
        E 16 83 24 00
        E 16 83 24 00
        E 16 83 24 00
        E 16 83 24 00
        E 16 83 24 00
        E 16 83 24 00
        E 16 83 24 00
        E 16 83 24 00
        E 16 83 24 00
        E 16 83 24 00
        E 16 83 24 00
        E 16 83 24 00
        E 16 83 24 00
        E 16 83 24 00
        E 16 83 24 00
        E 16 83 24 00
        E 16 83 24 00
        E 16 83 24 00
        E 16 83 24 00
        E 16 83 24 00
        E 16 83 24 00
        E 16 83 24 00
        E 16 83 24 00
        E 16 83 24 00
        E 16 83 24 00
        E 16 83 24 00
        E 16 83 24 00
        E 16 83 24 00
        E 16 83 24 00
        E 16 83 24 00
        E 16 83 24 00
        E 16 83 24 00
        E 16 83 24 00
        E 16 83 24 00
        E 16 83 24 00
        E 16 83 24 00
        E 16 83 24 00
        E 16 83 24 00
        E 16 83 24 00
        E 16 83 24 00
        E 16 83 24 00
        E 16 83 24 00
        E 16 83 24 00
        E 16 83 24 00
        E 16 83 24 00
        E 16 83 24 00
        E 16 83 24 00
        E 16 83 24 00
        E 16 83 24 00
        E 16 83 24 00
        E 16 83 24 00
        E 16 83 24 00
        E 16 83 24 00
        E 16 83 24 00
        E 16 83 24 00
        E 16 83 24 00
        E 16 83 24 00
        E 16 83 24 00
        E 16 83 24 00
        E 16 83 24 00
        E 16 83 24 00
        E 16 83 24 00
        E 16 83 24 00
        E 16 83 24 00
        E 16 83 24 00
        E 16 83 24 00
        E 16 83 24 00
        E 16 83 24 00
        E 16 83 24 00
        E 16 83 24 00
        E 16 83 24 00
        E 16 83 24 00
        E 16 83 24 00
        E 16 83 24 00
        E 16 83 24 00
        E 16 83 24 00
        E 16 83 24 00
        E 16 83 24 00
        E 16 83 24 00
        E 16 83 24 00
        E 16 83 24 00
        E 16 83 24 00
        E 16 83 24 00
        E 16 83 24 00
        E 16 83 24 00
        E 16 83 24 00
        E 16 83 24 00
        E 16 83 24 00
        E 16 83 24 00
        E 16 83 24 00
        E 16 83 24 00
        E 16 83 24 00
        E 16 83 24 00
        E 16 83 24 00
        E 16 83 24 00
        E 16 83 24 00
        E 16 83 24 00
        E 16 83 24 00
        E 16 83 24 00
        E 16 83 24 00
        E 16 83 24 00
        E 16 83 24 00
        E 16 83 24 00
        E 16 83 24 00
        E 16 83 24 00
        E 16 83 24 00
        E 16 83 24 00
        E 16 83 24 00
        E 16 83 24 00
        E 16 83 24 00
        E 16 83 24 00
        E 16 83 24 00
        E 16 83 24 00
        E 16 83 24 00
        E 16 83 24 00
        E 16 83 24 00
        E 16 83 24 00
        E 16 83 24 00
        E 16 83 24 00
        E 16 83 24 00
        E 16 83 24 00
        E 16 83 24 00
        E 16 83 24 00
        E 16 83 24 00
        E 16 83 24 00
        E 16 83 24 00
        E 16 83 24 00
        E 16 83 24 00
        E 16 83 24 00
        E 16 83 24 00
        E 16 83 24 00
        E 16 83 24 00
        E 16 83 24 00
        E 16 83 24 00
        E 16 83 24 00
        E 16 83 24 00
        E 16 83 24 00
        E 16 83 24 00
        E 16 83 24 00
        E 16 83 24 00
        E 16 83 24 00
        E 16 83 24 00
        E 16 83 24 00
        E 16 83 24 00
        E 16 83 24 00
        E 16 83 24 00
        E 16 83 24 00
        E 16 83 24 00
        E 16 83 24 00
        E 16 83 24 00
        E 16 83 24 00
        E 16 83 24 00
        E 16 83 24 00
        E 16 83 24 00
        E 16 83 24 00
        E 16 83 24 00
        E 16 83 24 00
        E 16 83 24 00
        E 16 83 24 00
        E 16 83 24 00
        E 16 83 24 00
        E 16 83 24 00
        E 16 83 24 00
        E 16 83 24 00
        E 16 83 24 00
        E 16 83 24 00
        E 16 83 24 00
        E 16 83 24 00
        E 16 83 24 00
        E 16 83 24 00
        E 16 83 24 00
        E 16 83 24 00
        E 16 83 24 00
        E 16 83 24 00
        E 16 83 24 00
        E 16 83 24 00
        E 16 83 24 00
        E 16 83 24 00
        E 16 83 24 00
        E 16 83 24 00
        E 16 83 24 00
        E 16 83 24 00
        E 16 83 24 00
        E 16 83 24 00
        E 16 83 24 00
        E 16 83 24 00
        E 16 83 24 00
        E 16 83 24 00
        E 16 83 24 00
        E 16 83 24 00
        E 16 83 24 00
        E 16 83 24 00
        E 16 83 24 00
        E 16 83 24 00
        E 16 83 24 00
        E 16 83 24 00
        E 16 83 24 00
        E 16 83 24 00
        E 16 83 24 00
        E 16 83 24 00
        E 16 83 24 00
        E 16 83 24 00
        E 16 83 24 00
        E 16 83 24 00
        E 16 83 24 00
        E 16 83 24 00
        E 16 83 24 00
        E 16 83 24 00
        E 16 83 24 00
        E 16 83 24 00
        E 16 83 24 00
        E 16 83 24 00
        E 16 83 24 00
        E 16 83 24 00
        E 16 83 24 00
        E 16 83 24 00
        E 16 83 24 00
        E 16 83 24 00
        E 16 83 24 00
        E 16 83 24 00
        E 16 83 24 00
        E 16 83 24 00
        E 16 83 24 00
        E 16 83 24 00
        E 16 83 24 00
        E 16 83 24 00
        E 16 83 24 00
        E 16 83 24 00
        E 16 83 24 00
        E 16 83 24 00
        E 16 83 24 00
        E 16 83 24 00
        E 16 83 24 00
        E 16 83 24 00
        E 16 83 24 00
        E 16 83 24 00
        E 16 83 24 00
        E 16 83 24 00
        E 16 83 24 00
        E 16 83 24 00
        E 16 83 24 00
        E 16 83 24 00
        E 16 83 24 00
        E 16 83 24 00
        E 16 83 24 00
        E 16 83 24 00
        E 16 83 24 00
        E 16 83 24 00
        E 16 83 24 00
        E 16 83 24 00
        E 16 83 24 00
        E 16 83 24 00
        E 16 83 24 00
        E 16 83 24 00
        E 16 83 24 00
        E 16 83 24 00
        E 16 83 24 00
        E 16 83 24 00
        E 16 83 24 00
        E 16 83 24 00
        E 16 83 24 00
        E 16 83 24 00
        E 16 83 24 00
        E 16 83 24 00
        E 16 83 24 00
        E 16 83 24 00
        E 16 83 24 00
        E 16 83 24 00
        E 16 83 24 00
        E 16 83 24 00
        E 16 83 24 00
        E 16 83 24 00
        E 16 83 24 00
        E 16 83 24 00
        E 16 83 24 00
        E 16 83 24 00
        E 16 83 24 00
        E 16 83 24 00
        E 16 83 24 00
        E 16 83 24 00
        E 16 83 24 00
        E 16 83 24 00
        E 16 83 24 00
        E 16 83 24 00
        E 16 83 24 00
        E 16 83 24 00
        E 16 83 24 00
        E 16 83 24 00
        E 16 83 24 00
        E 16 83 24 00
        E 16 83 24 00
        E 16 83 24 00
        E 16 83 24 00
        E 16 83 24 00
        E 16 83 24 00
        E 16 83 24 00
        E 16 83 24 00
        E 16 83 24 00
        E 16 83 24 00
        E 16 83 24 00
        E 16 83 24 00
        E 16 83 24 00
        E 16 83 24 00
        E 16 83 24 00
        E 16 83 24 00
        E 16 83 24 00
        E 16 83 24 00
        E 16 83 24 00
        E 16 83 24 00
        E 16 83 24 00
        E 16 83 24 00
        E 16 83 24 00
        E 16 83 24 00
        E 16 83 24 00
        E 16 83 24 00
        E 16 83 24 00
        E 16 83 24 00
        E 16 83 24 00
        E 16 83 24 00
        E 16 83 24 00
        E 16 83 24 00
        E 16 83 24 00
        E 16 83 24 00
        E 16 83 24 00
        E 16 83 24 00
        E 16 83 24 00
        E 16 83 24 00
        E 16 83 24 00
        E 16 83 24 00
        E 16 83 24 00
        E 16 83 24 00
        E 16 83 24 00
        E 16 83 24 00
        E 16 83 24 00
        E 16 83 24 00
        E 16 83 24 00
        E 16 83 24 00
        E 16 83 24 00
        E 16 83 24 00
        E 16 83 24 00
        E 16 83 24 00
        E 16 83 24 00
        E 16 83 24 00
        E 16 83 24 00
        E 16 83 24 00
        E 16 83 24 00
        E 16 83 24 00
        E 16 83 24 00
        E 16 83 24 00
        E 16 83 24 00
        E 16 83 24 00
        E 16 83 24 00
        E 16 83 24 00
        E 16 83 24 00
        E 16 83 24 00
        E 16 83 24 00
        E 16 83 24 00
        E 16 83 24 00
        E 16 83 24 00
        E 16 83 24 00
        E 16 83 24 00
        E 16 83 24 00
        E 16 83 24 00
        E 16 83 24 00
        E 16 83 24 00
        E 16 83 24 00
        E 16 83 24 00
        E 16 83 24 00
        E 16 83 24 00
        E 16 83 24 00
        E 16 83 24 00
        E 16 83 24 00
        E 16 83 24 00
        E 16 83 24 00
        E 16 83 24 00
        E 16 83 24 00
        E 16 83 24 00
        E 16 83 24 00
        E 16 83 24 00
        E 16 83 24 00
        E 16 83 24 00
        E 16 83 24 00
        E 16 83 24 00
        E 16 83 24 00
        E 16 83 24 00
        E 16 83 24 00
        E 16 83 24 00
        E 16 83 24 00
        E 16 83 24 00
        E 16 83 24 00
        E 16 83 24 00
        E 16 83 24 00
        E 16 83 24 00
        E 16 83 24 00
        E 16 83 24 00
        E 16 83 24 00
        E 16 83 24 00
        E 16 83 24 00
        E 16 83 24 00
        E 16 83 24 00
        E 16 83 24 00
        E 16 83 24 00
        E 16 83 24 00
        E 16 83 24 00
        E 16 83 24 00
        E 16 83 24 00
        E 16 83 24 00
        E 16 83 24 00
        E 16 83 24 00
        E 16 83 24 00
        E 16 83 24 00
        E 16 83 24 00
        E 16 83 24 00
        E 16 83 24 00
        E 16 83 24 00
        E 16 83 24 00
        E 16 83 24 00
        E 16 83 24 00
        E 16 83 24 00
        E 16 83 24 00
        E 16 83 24 00
        E 16 83 24 00
        E 16 83 24 00
        E 16 83 24 00
        E 16 83 24 00
        E 16 83 24 00
        E 16 83 24 00
        E 16 83 24 00
        E 16 83 24 00
        E 16 83 24 00
        E 16 83 24 00
        E 16 83 24 00
        E 16 83 24 00
        E 16 83 24 00
        E 16 83 24 00
        E 16 83 24 00
        E 16 83 24 00
        E 16 83 24 00
        E 16 83 24 00
        E 16 83 24 00
        E 16 83 24 00
        E 16 83 24 00
        E 16 83 24 00
        E 16 83 24 00
        E 16 83 24 00
        E 16 83 24 00
        E 16 83 24 00
        E 16 83 24 00
        E 16 83 24 00
        E 16 83 24 00
        E 16 83 24 00
        E 16 83 24 00
        E 16 83 24 00
        E 16 83 24 00
        E 16 83 24 00
        E 16 83 24 00
        E 16 83 24 00
        E 16 83 24 00
        E 16 83 24 00
        E 16 83 24 00
        E 16 83 24 00
        E 16 83 24 00
        E 16 83 24 00
        E 16 83 24 00
        E 16 83 24 00
        E 16 83 24 00
        E 16 83 24 00
        E 16 83 24 00
        E 16 83 24 00
        E 16 83 24 00
        E 16 83 24 00
        E 16 83 24 00
        E 16 83 24 00
        E 16 83 24 00
        E 16 83 24 00
        E 16 83 24 00
        E 16 83 24 00
        E 16 83 24 00
        E 16 83 24 00
        E 16 83 24 00
        E 16 83 24 00
        E 16 83 24 00
        E 16 83 24 00
        E 16 83 24 00
        E 16 83 24 00
        E 16 83 24 00
        E 16 83 24 00
        E 16 83 24 00
        E 16 83 24 00
        E 16 83 24 00
        E 16 83 24 00
        E 16 83 24 00
        E 16 83 24 00
        E 16 83 24 00
        E 16 83 24 00
        E 16 83 24 00
        E 16 83 24 00
        E 16 83 24 00
        E 16 83 24 00
        E 16 83 24 00
        E 16 83 24 00
        E 16 83 24 00
        E 16 83 24 00
        E 16 83 24 00
        E 16 83 24 00
        E 16 83 24 00
        E 16 83 24 00
        E 16 83 24 00
        E 16 83 24 00
        E 16 83 24 00
        E 16 83 24 00
        E 16 83 24 00
        E 16 83 24 00
        E 16 83 24 00
        E 16 83 24 00
        E 16 83 24 00
        E 16 83 24 00
        E 16 83 24 00
        E 16 83 24 00
        E 16 83 24 00
        E 16 83 24 00
        E 16 83 24 00
        E 16 83 24 00
        E 16 83 24 00
        E 16 83 24 00
        E 16 83 24 00
        E 16 83 24 00
        E 16 83 24 00
        E 16 83 24 00
        E 16 83 24 00
        E 16 83 24 00
        E 16 83 24 00
        E 16 83 24 00
        E 16 83 24 00
        E 16 83 24 00
        E 16 83 24 00
        E 16 83 24 00
        E 16 83 24 00
        E 16 83 24 00
        E 16 83 24 00
        E 16 83 24 00
        E 16 83 24 00
        E 16 83 24 00
        E 16 83 24 00
        E 16 83 24 00
        E 16 83 24 00
        E 16 83 24 00
        E 16 83 24 00
        E 16 83 24 00
        E 16 83 24 00
        E 16 83 24 00
        E 16 83 24 00
        E 16 83 24 00
        E 16 83 24 00
        E 16 83 24 00
        E 16 83 24 00
        E 16 83 24 00
        E 16 83 24 00
        E 16 83 24 00
        E 16 83 24 00
        E 16 83 24 00
        E 16 83 24 00
        E 16 83 24 00
        E 16 83 24 00
        E 16 83 24 00
        E 16 83 24 00
        E 16 83 24 00
        E 16 83 24 00
        E 16 83 24 00
        E 16 83 24 00
        E 16 83 24 00
        E 16 83 24 00
        E 16 83 24 00
        E 16 83 24 00
        E 16 83 24 00
        E 16 83 24 00
        E 16 83 24 00
        E 16 83 24 00
        E 16 83 24 00
        E 16 83 24 00
        E 16 83 24 00
        E 16 83 24 00
        E 16 83 24 00
        E 16 83 24 00
        E 16 83 24 00
        E 16 83 24 00
        E 16 83 24 00
        E 16 83 24 00
        E 16 83 24 00
        E 16 83 24 00
        E 16 83 24 00
        E 16 83 24 00
        E 16 83 24 00
        E 16 83 24 00
        E 16 83 24 00
        E 16 83 24 00
        E 16 83 24 00
        E 16 83 24 00
        E 16 83 24 00
        E 16 83 24 00
        E 16 83 24 00
        E 16 83 24 00
        E 16 83 24 00
        E 16 83 24 00
        E 16 83 24 00
        E 16 83 24 00
        E 16 83 24 00
        E 16 83 24 00
        E 16 83 24 00
        E 16 83 24 00
        E 16 83 24 00
        E 16 83 24 00
        E 16 83 24 00
        E 16 83 24 00
        E 16 83 24 00
        E 16 83 24 00
        E 16 83 24 00
        E 16 83 24 00
        E 16 83 24 00
        E 16 83 24 00
        E 16 83 24 00
        E 16 83 24 00
        E 16 83 24 00
        E 16 83 24 00
        E 16 83 24 00
        E 16 83 24 00
        E 16 83 24 00
        E 16 83 24 00
        E 16 83 24 00
        E 16 83 24 00
        E 16 83 24 00
        E 16 83 24 00
        E 16 83 24 00
        E 16 83 24 00
        E 16 83 24 00
        E 16 83 24 00
        E 16 83 24 00
        E 16 83 24 00
        E 16 83 24 00
        E 16 83 24 00
        E 16 83 24 00
        E 16 83 24 00
        E 16 83 24 00
        E 16 83 24 00
        E 16 83 24 00
        E 16 83 24 00
        E 16 83 24 00
        E 16 83 24 00
        E 16 83 24 00
        E 16 83 24 00
        E 16 83 24 00
        E 16 83 24 00
        E 16 83 24 00
        E 16 83 24 00
        E 16 83 24 00
        E 16 83 24 00
        E 16 83 24 00
        E 16 83 24 00
        E 16 83 24 00
        E 16 83 24 00
        E 16 83 24 00
        E 16 83 24 00
        E 16 83 24 00
        E 16 83 24 00
        E 16 83 24 00
        E 16 83 24 00
        E 16 83 24 00
        E 16 83 24 00
        E 16 83 24 00
        E 16 83 24 00
        E 16 83 24 00
        E 16 83 24 00
        E 16 83 24 00
        E 16 83 24 00
        E 16 83 24 00
        E 16 83 24 00
        E 16 83 24 00
        E 16 83 24 00
        E 16 83 24 00
        E 16 83 24 00
        E 16 83 24 00
        E 16 83 24 00
        E 16 83 24 00
        E 16 83 24 00
        E 16 83 24 00
        E 16 83 24 00
        E 16 83 24 00
        E 16 83 24 00
        E 16 83 24 00
        E 16 83 24 00
        E 16 83 24 00
        E 16 83 24 00
        E 16 83 24 00
        E 16 83 24 00
        E 16 83 24 00
        E 16 83 24 00
        E 16 83 24 00
        E 16 83 24 00
        E 16 83 24 00
        E 16 83 24 00
        E 16 83 24 00
        E 16 83 24 00
        E 16 83 24 00
        E 16 83 24 00
        E 16 83 24 00
        E 16 83 24 00
        E 16 83 24 00
        E 16 83 24 00
        E 16 83 24 00
        E 16 83 24 00
        E 16 83 24 00
        E 16 83 24 00
        E 16 83 24 00
        E 16 83 24 00
        E 16 83 24 00
        E 16 83 24 00
        E 16 83 24 00
        E 16 83 24 00
        E 16 83 24 00
        E 16 83 24 00
        E 16 83 24 00
        E 16 83 24 00
        E 16 83 24 00
        E 16 83 24 00
        E 16 83 24 00
        E 16 83 24 00
        E 16 83 24 00
        E 16 83 24 00
        E 16 83 24 00
        E 16 83 24 00
        E 16 83 24 00
        E 16 83 24 00
        E 16 83 24 00
        E 16 83 24 00
        E 16 83 24 00
        E 16 83 24 00
        E 16 83 24 00
        E 16 83 24 00
        E 16 83 24 00
        E 16 83 24 00
        E 16 83 24 00
        E 16 83 24 00
        E 16 83 24 00
        E 16 83 24 00
        E 16 83 24 00
        E 16 83 24 00
        E 16 83 24 00
        E 16 83 24 00
        E 16 83 24 00
        E 16 83 24 00
        E 16 83 24 00
        E 16 83 24 00
        E 16 83 24 00
        E 16 83 24 00
        E 16 83 24 00
        E 16 83 24 00
        E 16 83 24 00
        E 16 83 24 00
        E 16 83 24 00
        E 16 83 24 00
        E 16 83 24 00
        E 16 83 24 00
        E 16 83 24 00
        E 16 83 24 00
        E 16 83 24 00
        E 16 83 24 00
        E 16 83 24 00
        E 16 83 24 00
        E 16 83 24 00
        E 16 83 24 00
        E 16 83 24 00
        E 16 83 24 00
        E 16 83 24 00
        E 16 83 24 00
        E 16 83 24 00
        E 16 83 24 00
        E 16 83 24 00
        E 16 83 24 00
        E 16 83 24 00
        E 16 83 24 00
        E 16 83 24 00
        E 16 83 24 00
        E 16 83 24 00
        E 16 83 24 00
        E 16 83 24 00
        E 16 83 24 00
        E 16 83 24 00
        E 16 83 24 00
        E 16 83 24 00
        E 16 83 24 00
        E 16 83 24 00
        E 16 83 24 00
        E 16 83 24 00
        E 16 83 24 00
        E 16 83 24 00
        E 16 83 24 00
        E 16 83 24 00
        E 16 83 24 00
        E 16 83 24 00
        E 16 83 24 00
        E 16 83 24 00
        E 16 83 24 00
        E 16 83 24 00
        E 16 83 24 00
        E 16 83 24 00
        E 16 83 24 00
        E 16 83 24 00
        E 16 83 24 00
        E 16 83 24 00
        E 16 83 24 00
        E 16 83 24 00
        E 16 83 24 00
        E 16 83 24 00
        E 16 83 24 00
        E 16 83 24 00
        E 16 83 24 00
        E 16 83 24 00
        E 16 83 24 00
        E 16 83 24 00
        E 16 83 24 00
        E 16 83 24 00
        E 16 83 24 00
        E 16 83 24 00
        E 16 83 24 00
        E 16 83 24 00
        E 16 83 24 00
        E 16 83 24 00
        E 16 83 24 00
        E 16 83 24 00
        E 16 83 24 00
        E 16 83 24 00
        E 16 83 24 00
        E 16 83 24 00
        E 16 83 24 00
        E 16 83 24 00
        E 16 83 24 00
        E 16 83 24 00
        E 16 83 24 00
        E 16 83 24 00
        E 16 83 24 00
        E 16 83 24 00
        E 16 83 24 00
        E 16 83 24 00
        E 16 83 24 00
        E 16 83 24 00
        E 16 83 24 00
        E 16 83 24 00
        E 16 83 24 00
        E 16 83 24 00
        E 16 83 24 00
        E 16 83 24 00
        E 16 83 24 00
        E 16 83 24 00
        E 16 83 24 00
        E 16 83 24 00
        E 16 83 24 00
        E 16 83 24 00
        E 16 83 24 00
        E 16 83 24 00
        E 16 83 24 00
        E 16 83 24 00
        E 16 83 24 00
        E 16 83 24 00
        E 16 83 24 00
        E 16 83 24 00
        E 16 83 24 00
        E 16 83 24 00
        E 16 83 24 00
        E 16 83 24 00
        E 16 83 24 00
        E 16 83 24 00
        E 16 83 24 00
        E 16 83 24 00
        E 16 83 24 00
        E 16 83 24 00
        E 16 83 24 00
        E 16 83 24 00
        E 16 83 24 00
        E 16 83 24 00
        E 16 83 24 00
        E 16 83 24 00
        E 16 83 24 00
        E 16 83 24 00
        E 16 83 24 00
        E 16 83 24 00
        E 16 83 24 00
        E 16 83 24 00
        E 16 83 24 00
        E 16 83 24 00
        E 16 83 24 00
        E 16 83 24 00
        E 16 83 24 00
        E 16 83 24 00
        E 16 83 24 00
        E 16 83 24 00
        E 16 83 24 00
        E 16 83 24 00
        E 16 83 24 00
        E 16 83 24 00
        E 16 83 24 00
        E 16 83 24 00
        E 16 83 24 00
        E 16 83 24 00
        E 16 83 24 00
        E 16 83 24 00
        E 16 83 24 00
        E 16 83 24 00
        E 16 83 24 00
        E 16 83 24 00
        E 16 83 24 00
        E 16 83 24 00
        E 16 83 24 00
        E 16 83 24 00
        E 16 83 24 00
        E 16 83 24 00
        E 16 83 24 00
        E 16 83 24 00
        E 16 83 24 00
        E 16 83 24 00
        E 16 83 24 00
        E 16 83 24 00
        E 16 83 24 00
        E 16 83 24 00
        E 16 83 24 00
        E 16 83 24 00
        E 16 83 24 00
        E 16 83 24 00
        E 16 83 24 00
        E 16 83 24 00
        E 16 83 24 00
        E 16 83 24 00
        E 16 83 24 00
        E 16 83 24 00
        E 16 83 24 00
        E 16 83 24 00
        E 16 83 24 00
        E 16 83 24 00
        E 16 83 24 00
        E 16 83 24 00
        E 16 83 24 00
        E 16 83 24 00
        E 16 83 24 00
        E 16 83 24 00
        E 16 83 24 00
        E 16 83 24 00
        E 16 83 24 00
        E 16 83 24 00
        E 16 83 24 00
        E 16 83 24 00
        E 16 83 24 00
        E 16 83 24 00
        E 16 83 24 00
        E 16 83 24 00
        E 16 83 24 00
        E 16 83 24 00
        E 16 83 24 00
        E 16 83 24 00
        E 16 83 24 00
        E 16 83 24 00
        E 16 83 24 00
        E 16 83 24 00
        E 16 83 24 00
        E 16 83 24 00
        E 16 83 24 00
        E 16 83 24 00
        E 16 83 24 00
        E 16 83 24 00
        E 16 83 24 00
        E 16 83 24 00
        E 16 83 24 00
        E 16 83 24 00
        E 16 83 24 00
        E 16 83 24 00
        E 16 83 24 00
        E 16 83 24 00
        E 16 83 24 00
        E 16 83 24 00
        E 16 83 24 00
        E 16 83 24 00
        E 16 83 24 00
        E 16 83 24 00
        E 16 83 24 00
        E 16 83 24 00
        E 16 83 24 00
        E 16 83 24 00
        E 16 83 24 00
        E 16 83 24 00
        E 16 83 24 00
        E 16 83 24 00
        E 16 83 24 00
        E 16 83 24 00
        E 16 83 24 00
        E 16 83 24 00
        E 16 83 24 00
        E 16 83 24 00
        E 16 83 24 00
        E 16 83 24 00
        E 16 83 24 00
        E 16 83 24 00
        E 16 83 24 00
        E 16 83 24 00
        E 16 83 24 00
        E 16 83 24 00
        E 16 83 24 00
        E 16 83 24 00
        E 16 83 24 00
        E 16 83 24 00
        E 16 83 24 00
        E 16 83 24 00
        E 16 83 24 00
        E 16 83 24 00
        E 16 83 24 00
        E 16 83 24 00
        E 16 83 24 00
        E 16 83 24 00
        E 16 83 24 00
        E 16 83 24 00
        E 16 83 24 00
        E 16 83 24 00
        E 16 83 24 00
        E 16 83 24 00
        E 16 83 24 00
        E 16 83 24 00
        E 16 83 24 00
        E 16 83 24 00
        E 16 83 24 00
        E 16 83 24 00
        E 16 83 24 00
        E 16 83 24 00
        E 16 83 24 00
        E 16 83 24 00
        E 16 83 24 00
        E 16 83 24 00
        E 16 83 24 00
        E 16 83 24 00
        E 16 83 24 00
        E 16 83 24 00
        E 16 83 24 00
        E 16 83 24 00
        E 16 83 24 00
        E 16 83 24 00
        E 16 83 24 00
        E 16 83 24 00
        E 16 83 24 00
        E 16 83 24 00
        E 16 83 24 00
        E 16 83 24 00
        E 16 83 24 00
        E 16 83 24 00
        E 16 83 24 00
        E 16 83 24 00
        E 16 83 24 00
        E 16 83 24 00
        E 16 83 24 00
        E 16 83 24 00
        E 16 83 24 00
        E 16 83 24 00
        E 16 83 24 00
        E 16 83 24 00
        E 16 83 24 00
        E 16 83 24 00
        E 16 83 24 00
        E 16 83 24 00
        E 16 83 24 00
        E 16 83 24 00
        E 16 83 24 00
        E 16 83 24 00
        E 16 83 24 00
        E 16 83 24 00
        E 16 83 24 00
        E 16 83 24 00
        E 16 83 24 00
        E 16 83 24 00
        E 16 83 24 00
        E 16 83 24 00
        E 16 83 24 00
        E 16 83 24 00
        E 16 83 24 00
        E 16 83 24 00
        E 16 83 24 00
        E 16 83 24 00
        E 16 83 24 00
        E 16 83 24 00
        E 16 83 24 00
        E 16 83 24 00
        E 16 83 24 00
        E 16 83 24 00
        E 16 83 24 00
        E 16 83 24 00
        E 16 83 24 00
        E 16 83 24 00
        E 16 83 24 00
        E 16 83 24 00
        E 16 83 24 00
        E 16 83 24 00
        E 16 83 24 00
        E 16 83 24 00
        E 16 83 24 00
        E 16 83 24 00
        E 16 83 24 00
        E 16 83 24 00
        E 16 83 24 00
        E 16 83 24 00
        E 16 83 24 00
        E 16 83 24 00
        E 16 83 24 00
        E 16 83 24 00
        E 16 83 24 00
        E 16 83 24 00
        E 16 83 24 00
        E 16 83 24 00
        E 16 83 24 00
        E 16 83 24 00
        E 16 83 24 00
        E 16 83 24 00
        E 16 83 24 00
        E 16 83 24 00
        E 16 83 24 00
        E 16 83 24 00
        E 16 83 24 00
        E 16 83 24 00
        E 16 83 24 00
        E 16 83 24 00
        E 16 83 24 00
        E 16 83 24 00
        E 16 83 24 00
        E 16 83 24 00
        E 16 83 24 00
        E 16 83 24 00
        E 16 83 24 00
        E 16 83 24 00
        E 16 83 24 00
        E 16 83 24 00
        E 16 83 24 00
        E 16 83 24 00
        E 16 83 24 00
        E 16 83 24 00
        E 16 83 24 00
        E 16 83 24 00
        E 16 83 24 00
        E 16 83 24 00
        E 16 83 24 00
        E 16 83 24 00
        E 16 83 24 00
        E 16 83 24 00
        E 16 83 24 00
        E 16 83 24 00
        E 16 83 24 00
        E 16 83 24 00
        E 16 83 24 00
        E 16 83 24 00
        E 16 83 24 00
        E 16 83 24 00
        E 16 83 24 00
        E 16 83 24 00
        E 16 83 24 00
        E 16 83 24 00
        E 16 83 24 00
        E 16 83 24 00
        E 16 83 24 00
        E 16 83 24 00
        E 16 83 24 00
        E 16 83 24 00
        E 16 83 24 00
        E 16 83 24 00
        E 16 83 24 00
        E 16 83 24 00
        E 16 83 24 00
        E 16 83 24 00
        E 16 83 24 00
        E 16 83 24 00
        E 16 83 24 00
        E 16 83 24 00
        E 16 83 24 00
        E 16 83 24 00
        E 16 83 24 00
        E 16 83 24 00
        E 16 83 24 00
        E 16 83 24 00
        E 16 83 24 00
        E 16 83 24 00
        E 16 83 24 00
        E 16 83 24 00
        E 16 83 24 00
        E 16 83 24 00
        E 16 83 24 00
        E 16 83 24 00
        E 16 83 24 00
        E 16 83 24 00
        E 16 83 24 00
        E 16 83 24 00
        E 16 83 24 00
        E 16 83 24 00
        E 16 83 24 00
        E 16 83 24 00
        E 16 83 24 00
        E 16 83 24 00
        E 16 83 24 00
        E 16 83 24 00
        E 16 83 24 00
        E 16 83 24 00
        E 16 83 24 00
        E 16 83 24 00
        E 16 83 24 00
        E 16 83 24 00
        E 16 83 24 00
        E 16 83 24 00
        E 16 83 24 00
        E 16 83 24 00
        E 16 83 24 00
        E 16 83 24 00
        E 16 83 24 00
        E 16 83 24 00
        E 16 83 24 00
        E 16 83 24 00
        E 16 83 24 00
        E 16 83 24 00
        E 16 83 24 00
        E 16 83 24 00
        E 16 83 24 00
        E 16 83 24 00
        E 16 83 24 00
        E 16 83 24 00
        E 16 83 24 00
        E 16 83 24 00
        E 16 83 24 00
        E 16 83 24 00
        E 16 83 24 00
        E 16 83 24 00
        E 16 83 24 00
        E 16 83 24 00
        E 16 83 24 00
        E 16 83 24 00
        E 16 83 24 00
        E 16 83 24 00
        E 16 83 24 00
        E 16 83 24 00
        E 16 83 24 00
        E 16 83 24 00
        E 16 83 24 00
        E 16 83 24 00
        E 16 83 24 00
        E 16 83 24 00
        E 16 83 24 00
        E 16 83 24 00
        E 16 83 24 00
        E 16 83 24 00
        E 16 83 24 00
        E 16 83 24 00
        E 16 83 24 00
        E 16 83 24 00
        E 16 83 24 00
        E 16 83 24 00
        E 16 83 24 00
        E 16 83 24 00
        E 16 83 24 00
        E 16 83 24 00
        E 16 83 24 00
        E 16 83 24 00
        E 16 83 24 00
        E 16 83 24 00
        E 16 83 24 00
        E 16 83 24 00
        E 16 83 24 00
        E 16 83 24 00
        E 16 83 24 00
        E 16 83 24 00
        E 16 83 24 00
        E 16 83 24 00
        E 16 83 24 00
        E 16 83 24 00
        E 16 83 24 00
        E 16 83 24 00
        E 16 83 24 00
        E 16 83 24 00
        E 16 83 24 00
        E 16 83 24 00
        E 16 83 24 00
        E 16 83 24 00
        E 16 83 24 00
        E 16 83 24 00
        E 16 83 24 00
        E 16 83 24 00
        E 16 83 24 00
        E 16 83 24 00
        E 16 83 24 00
        E 16 83 24 00
        E 16 83 24 00
        E 16 83 24 00
        E 16 83 24 00
        E 16 83 24 00
        E 16 83 24 00
        E 16 83 24 00
        E 16 83 24 00
        E 16 83 24 00
        E 16 83 24 00
        E 16 83 24 00
        E 16 83 24 00
        E 16 83 24 00
        E 16 83 24 00
        E 16 83 24 00
        E 16 83 24 00
        E 16 83 24 00
        E 16 83 24 00
        E 16 83 24 00
        E 16 83 24 00
        E 16 83 24 00
        E 16 83 24 00
        E 16 83 24 00
        E 16 83 24 00
        E 16 83 24 00
        E 16 83 24 00
        E 16 83 24 00
        E 16 83 24 00
        E 16 83 24 00
        E 16 83 24 00
        E 16 83 24 00
        E 16 83 24 00
        E 16 83 24 00
        E 16 83 24 00
        E 16 83 24 00
        E 16 83 24 00
        E 16 83 24 00
        E 16 83 24 00
        E 16 83 24 00
        E 16 83 24 00
        E 16 83 24 00
        E 16 83 24 00
        E 16 83 24 00
        E 16 83 24 00
        E 16 83 24 00
        E 16 83 24 00
        E 16 83 24 00
        E 16 83 24 00
        E 16 83 24 00
        E 16 83 24 00
        E 16 83 24 00
        E 16 83 24 00
        E 16 83 24 00
        E 16 83 24 00
        E 16 83 24 00
        E 16 83 24 00
        E 16 83 24 00
        E 16 83 24 00
        E 16 83 24 00
        E 16 83 24 00
        E 16 83 24 00
        E 16 83 24 00
        E 16 83 24 00
        E 16 83 24 00
        E 16 83 24 00
        E 16 83 24 00
        E 16 83 24 00
        E 16 83 24 00
        E 16 83 24 00
        E 16 83 24 00
        E 16 83 24 00
        E 16 83 24 00
        E 16 83 24 00
        E 16 83 24 00
        E 16 83 24 00
        E 16 83 24 00
        E 16 83 24 00
        E 16 83 24 00
        E 16 83 24 00
        E 16 83 24 00
        E 16 83 24 00
        E 16 83 24 00
        E 16 83 24 00
        E 16 83 24 00
        E 16 83 24 00
        E 16 83 24 00
        E 16 83 24 00
        E 16 83 24 00
        E 16 83 24 00
        E 16 83 24 00
        E 16 83 24 00
        E 16 83 24 00
        E 16 83 24 00
        E 16 83 24 00
        E 16 83 24 00
        E 16 83 24 00
        E 16 83 24 00
        E 16 83 24 00
        E 16 83 24 00
        E 16 83 24 00
        E 16 83 24 00
        E 16 83 24 00
        E 16 83 24 00
        E 16 83 24 00
        E 16 83 24 00
        E 16 83 24 00
        E 16 83 24 00
        E 16 83 24 00
        E 16 83 24 00
        E 16 83 24 00
        E 16 83 24 00
        E 16 83 24 00
        E 16 83 24 00
        E 16 83 24 00
        E 16 83 24 00
        E 16 83 24 00
        E 16 83 24 00
        E 16 83 24 00
        E 16 83 24 00
        E 16 83 24 00
        E 16 83 24 00
        E 16 83 24 00
        E 16 83 24 00
        E 16 83 24 00
        E 16 83 24 00
        E 16 83 24 00
        E 16 83 24 00
        E 16 83 24 00
        E 16 83 24 00
        E 16 83 24 00
        E 16 83 24 00
        E 16 83 24 00
        E 16 83 24 00
        E 16 83 24 00
        E 16 83 24 00
        E 16 83 24 00
        E 16 83 24 00
        E 16 83 24 00
        E 16 83 24 00
        E 16 83 24 00
        E 16 83 24 00
        E 16 83 24 00
        E 16 83 24 00
        E 16 83 24 00
        E 16 83 24 00
        E 16 83 24 00
        E 16 83 24 00
        E 16 83 24 00
        E 16 83 24 00
        E 16 83 24 00
        E 16 83 24 00
        E 16 83 24 00
        E 16 83 24 00
        E 16 83 24 00
        E 16 83 24 00
        E 16 83 24 00
        E 16 83 24 00
        E 16 83 24 00
        E 16 83 24 00
        E 16 83 24 00
        E 16 83 24 00
        E 16 83 24 00
        E 16 83 24 00
        E 16 83 24 00
        E 16 83 24 00
        E 16 83 24 00
        E 16 83 24 00
        E 16 83 24 00
        E 16 83 24 00
        E 16 83 24 00
        E 16 83 24 00
        E 16 83 24 00
        E 16 83 24 00
        E 16 83 24 00
        E 16 83 24 00
        E 16 83 24 00
        E 16 83 24 00
        E 16 83 24 00
        E 16 83 24 00
        E 16 83 24 00
        E 16 83 24 00
        E 16 83 24 00
        E 16 83 24 00
        E 16 83 24 00
        E 16 83 24 00
        E 16 83 24 00
        E 16 83 24 00
        E 16 83 24 00
        E 16 83 24 00
        E 16 83 24 00
        E 16 83 24 00
        E 16 83 24 00
        E 16 83 24 00
        E 16 83 24 00
        E 16 83 24 00
        E 16 83 24 00
        E 16 83 24 00
        E 16 83 24 00
        E 16 83 24 00
        E 16 83 24 00
        E 16 83 24 00
        E 16 83 24 00
        E 16 83 24 00
        E 16 83 24 00
        E 16 83 24 00
        E 16 83 24 00
        E 16 83 24 00
        E 16 83 24 00
        E 16 83 24 00
        E 16 83 24 00
        E 16 83 24 00
        E 16 83 24 00
        E 16 83 24 00
        E 16 83 24 00
        E 16 83 24 00
        E 16 83 24 00
        E 16 83 24 00
        E 16 83 24 00
        E 16 83 24 00
        E 16 83 24 00
        E 16 83 24 00
        E 16 83 24 00
        E 16 83 24 00
        E 16 83 24 00
        E 16 83 24 00
        E 16 83 24 00
        E 16 83 24 00
        E 16 83 24 00
        E 16 83 24 00
        E 16 83 24 00
        E 16 83 24 00
        E 16 83 24 00
        E 16 83 24 00
        E 16 83 24 00
        E 16 83 24 00
        E 16 83 24 00
        E 16 83 24 00
        E 16 83 24 00
        E 16 83 24 00
        E 16 83 24 00
        E 16 83 24 00
        E 16 83 24 00
        E 16 83 24 00
        E 16 83 24 00
        E 16 83 24 00
        E 16 83 24 00
        E 16 83 24 00
        E 16 83 24 00
        E 16 83 24 00
        E 16 83 24 00
        E 16 83 24 00
        E 16 83 24 00
        E 16 83 24 00
        E 16 83 24 00
        E 16 83 24 00
        E 16 83 24 00
        E 16 83 24 00
        E 16 83 24 00
        E 16 83 24 00
        E 16 83 24 00
        E 16 83 24 00
        E 16 83 24 00
        E 16 83 24 00
        E 16 83 24 00
        E 16 83 24 00
        E 16 83 24 00
        E 16 83 24 00
        E 16 83 24 00
        E 16 83 24 00
        E 16 83 24 00
        E 16 83 24 00
        E 16 83 24 00
        E 16 83 24 00
        E 16 83 24 00
        E 16 83 24 00
        E 16 83 24 00
        E 16 83 24 00
        E 16 83 24 00
        E 16 83 24 00
        E 16 83 24 00
        E 16 83 24 00
        E 16 83 24 00
        E 16 83 24 00
        E 16 83 24 00
        E 16 83 24 00
        E 16 83 24 00
        E 16 83 24 00
        E 16 83 24 00
        E 16 83 24 00
        E 16 83 24 00
        E 16 83 24 00
        E 16 83 24 00
        E 16 83 24 00
        E 16 83 24 00
        E 16 83 24 00
        E 16 83 24 00
        E 16 83 24 00
        E 16 83 24 00
        E 16 83 24 00
        E 16 83 24 00
        E 16 83 24 00
        E 16 83 24 00
        E 16 83 24 00
        E 16 83 24 00
        E 16 83 24 00
        E 16 83 24 00
        E 16 83 24 00
        E 16 83 24 00
        E 16 83 24 00
        E 16 83 24 00
        E 16 83 24 00
        E 16 83 24 00
        E 16 83 24 00
        E 16 83 24 00
        E 16 83 24 00
        E 16 83 24 00
        E 16 83 24 00
        E 16 83 24 00
        E 16 83 24 00
        E 16 83 24 00
        E 16 83 24 00
        E 16 83 24 00
        E 16 83 24 00
        E 16 83 24 00
        E 16 83 24 00
        E 16 83 24 00
        E 16 83 24 00
        E 16 83 24 00
        E 16 83 24 00
        E 16 83 24 00
        E 16 83 24 00
        E 16 83 24 00
        E 16 83 24 00
        E 16 83 24 00
        E 16 83 24 00
        E 16 83 24 00
        E 16 83 24 00
        E 16 83 24 00
        E 16 83 24 00
        E 16 83 24 00
        E 16 83 24 00
        E 16 83 24 00
        E 16 83 24 00
        E 16 83 24 00
        E 16 83 24 00
        E 16 83 24 00
        E 16 83 24 00
        E 16 83 24 00
        E 16 83 24 00
        E 16 83 24 00
        E 16 83 24 00
        E 16 83 24 00
        E 16 83 24 00
        E 16 83 24 00
        E 16 83 24 00
        E 16 83 24 00
        E 16 83 24 00
        E 16 83 24 00
        E 16 83 24 00
        E 16 83 24 00
        E 16 83 24 00
        E 16 83 24 00
        E 16 83 24 00
        E 16 83 24 00
        E 16 83 24 00
        E 16 83 24 00
        E 16 83 24 00
        E 16 83 24 00
        E 16 83 24 00
        E 16 83 24 00
        E 16 83 24 00
        E 16 83 24 00
        E 16 83 24 00
        E 16 83 24 00
        E 16 83 24 00
        E 16 83 24 00
        E 16 83 24 00
        E 16 83 24 00
        E 16 83 24 00
        E 16 83 24 00
        E 16 83 24 00
        E 16 83 24 00
        E 16 83 24 00
        E 16 83 24 00
        E 16 83 24 00
        E 16 83 24 00
        E 16 83 24 00
        E 16 83 24 00
        E 16 83 24 00
        E 16 83 24 00
        E 16 83 24 00
        E 16 83 24 00
        E 16 83 24 00
        E 16 83 24 00
        E 16 83 24 00
        E 16 83 24 00
        E 16 83 24 00
        E 16 83 24 00
        E 16 83 24 00
        E 16 83 24 00
        E 16 83 24 00
        E 16 83 24 00
        E 16 83 24 00
        E 16 83 24 00
        E 16 83 24 00
        E 16 83 24 00
        E 16 83 24 00
        E 16 83 24 00
        E 16 83 24 00
        E 16 83 24 00
        E 16 83 24 00
        E 16 83 24 00
        E 16 83 24 00
        E 16 83 24 00
        E 16 83 24 00
        E 16 83 24 00
        E 16 83 24 00
        E 16 83 24 00
        E 16 83 24 00
        E 16 83 24 00
        E 16 83 24 00
        E 16 83 24 00
        E 16 83 24 00
        E 16 83 24 00
        E 16 83 24 00
        E 16 83 24 00
        E 16 83 24 00
        E 16 83 24 00
        E 16 83 24 00
        E 16 83 24 00
        E 16 83 24 00
        E 16 83 24 00
        E 16 83 24 00
        E 16 83 24 00
        E 16 83 24 00
        E 16 83 24 00
        E 16 83 24 00
        E 16 83 24 00
        E 16 83 24 00
        E 16 83 24 00
        E 16 83 24 00
        E 16 83 24 00
        E 16 83 24 00
        E 16 83 24 00
        E 16 83 24 00
        E 16 83 24 00
        E 16 83 24 00
        E 16 83 24 00
        E 16 83 24 00
        E 16 83 24 00
        E 16 83 24 00
        E 16 83 24 00
        E 16 83 24 00
        E 16 83 24 00
        E 16 83 24 00
        E 16 83 24 00
        E 16 83 24 00
        E 16 83 24 00
        E 16 83 24 00
        E 16 83 24 00
        E 16 83 24 00
        E 16 83 24 00
        E 16 83 24 00
        E 16 83 24 00
        E 16 83 24 00
        E 16 83 24 00
        E 16 83 24 00
        E 16 83 24 00
        E 16 83 24 00
        E 16 83 24 00
        E 16 83 24 00
        E 16 83 24 00
        E 16 83 24 00
        E 16 83 24 00
        E 16 83 24 00
        E 16 83 24 00
        E 16 83 24 00
        E 16 83 24 00
        E 16 83 24 00
        E 16 83 24 00
        E 16 83 24 00
        E 16 83 24 00
        E 16 83 24 00
        E 16 83 24 00
        E 16 83 24 00
        E 16 83 24 00
        E 16 83 24 00
        E 16 83 24 00
        E 16 83 24 00
        E 16 83 24 00
        E 16 83 24 00
        E 16 83 24 00
        E 16 83 24 00
        E 16 83 24 00
        E 16 83 24 00
        E 16 83 24 00
        E 16 83 24 00
        E 16 83 24 00
        E 16 83 24 00
        E 16 83 24 00
        E 16 83 24 00
        E 16 83 24 00
        E 16 83 24 00
        E 16 83 24 00
        E 16 83 24 00
        E 16 83 24 00
        E 16 83 24 00
        E 16 83 24 00
        E 16 83 24 00
        E 16 83 24 00
        E 16 83 24 00
        E 16 83 24 00
        E 16 83 24 00
        E 16 83 24 00
        E 16 83 24 00
        E 16 83 24 00
        E 16 83 24 00
        E 16 83 24 00
        E 16 83 24 00
        E 16 83 24 00
        E 16 83 24 00
        E 16 83 24 00
        E 16 83 24 00
        E 16 83 24 00
        E 16 83 24 00
        E 16 83 24 00
        E 16 83 24 00
        E 16 83 24 00
        E 16 83 24 00
        E 16 83 24 00
        E 16 83 24 00
        E 16 83 24 00
        E 16 83 24 00
        E 16 83 24 00
        E 16 83 24 00
        E 16 83 24 00
        E 16 83 24 00
        E 16 83 24 00
        E 16 83 24 00
        E 16 83 24 00
        E 16 83 24 00
        E 16 83 24 00
        E 16 83 24 00
        E 16 83 24 00
        E 16 83 24 00
        E 16 83 24 00
        E 16 83 24 00
        E 16 83 24 00
        E 16 83 24 00
        E 16 83 24 00
        E 16 83 24 00
        E 16 83 24 00
        E 16 83 24 00
        E 16 83 24 00
        E 16 83 24 00
        E 16 83 24 00
        E 16 83 24 00
        E 16 83 24 00
        E 16 83 24 00
        E 16 83 24 00
        E 16 83 24 00
        E 16 83 24 00
        E 16 83 24 00
        E 16 83 24 00
        E 16 83 24 00
        E 16 83 24 00
        E 16 83 24 00
        E 16 83 24 00
        E 16 83 24 00
        E 16 83 24 00
        E 16 83 24 00
        E 16 83 24 00
        E 16 83 24 00
        E 16 83 24 00
        E 16 83 24 00
        E 16 83 24 00
        E 16 83 24 00
        E 16 83 24 00
        E 16 83 24 00
        E 16 83 24 00
        E 16 83 24 00
        E 16 83 24 00
        E 16 83 24 00
        E 16 83 24 00
        E 16 83 24 00
        E 16 83 24 00
        E 16 83 24 00
        E 16 83 24 00
        E 16 83 24 00
        E 16 83 24 00
        E 16 83 24 00
        E 16 83 24 00
        E 16 83 24 00
        E 16 83 24 00
        E 16 83 24 00
        E 16 83 24 00
        E 16 83 24 00
        E 16 83 24 00
        E 16 83 24 00
        E 16 83 24 00
        E 0 ff 2f 00
      >
    >
  >
>