<REAPER_PROJECT 0.1 "7.27/win64" 1707000000
  <NOTES 0 2
    |ReapNES Studio Project
    |MIDI Import - Wizards_&_Warriors_03_Tree_v1
  >
  RIPPLE 0
  GROUPOVERRIDE 0 0 0
  AUTOXFADE 129
  ENVATTACH 3
  POOLEDENVATTACH 0
  MIXERUIFLAGS 11 48
  ENVFADESZ10 40
  PEAKGAIN 1
  FEEDBACK 0
  PANLAW 1
  PROJOFFS 0 0 0
  MAXPROJLEN 0 0
  GRID 3199 8 1 8 1 0 0 0
  TIMEMODE 1 5 -1 30 0 0 -1
  VIDEO_CONFIG 0 0 65792
  PANMODE 3
  PANLAWFLAGS 3
  CURSOR 0
  ZOOM 100 0 0
  VZOOMEX 6 0
  USE_REC_CFG 0
  RECMODE 1
  SMPTESYNC 0 30 100 40 1000 300 0 0 1 0 0
  LOOP 0
  LOOPGRAN 0 4
  RECORD_PATH "Media" ""
  <RECORD_CFG
    ZXZhdxgAAQ==
  >
  <APPLYFX_CFG
  >
  RENDER_FILE ""
  RENDER_PATTERN ""
  RENDER_FMT 0 2 0
  RENDER_1X 0
  RENDER_RANGE 1 0 0 18 1000
  RENDER_RESAMPLE 3 0 1
  RENDER_ADDTOPROJ 0
  RENDER_STEMS 0
  RENDER_DITHER 0
  TIMELOCKMODE 1
  TEMPOENVLOCKMODE 1
  ITEMMIX 1
  DEFPITCHMODE 589824 0
  TAKELANE 1
  SAMPLERATE 44100 0 0
  <RENDER_CFG
    ZXZhdxgAAQ==
  >
  LOCK 1
  <METRONOME 6 2
    VOL 0.25 0.125
    BEATLEN 4
    FREQ 1760 880 1
    SAMPLES "" ""
    SPLIGNORE 0 0
    SPLDEF 2 660 "" 0
    SPLDEF 3 440 "" 0
    PATTERN 0 169
    PATTERNSTR ABBB
    MULT 1
  >
  GLOBAL_AUTO -1
  TEMPO 128.59999614200012 4 4
  PLAYRATE 1 0 0.25 4
  SELECTION 0 0
  SELECTION2 0 0
  MASTERAUTOMODE 0
  MASTERTRACKHEIGHT 0 0
  MASTERPEAKCOL 16576
  MASTERMUTESOLO 0
  MASTERTRACKVIEW 0 0.6667 0.5 0.5 0 0 0 0 0 0 0 0 0 0
  MASTERHWOUT 0 0 1 0 0 0 0 -1
  MASTER_NCH 2 2
  MASTER_VOLUME 1 0 -1 -1 1
  MASTER_PANMODE 3
  MASTER_PANLAWFLAGS 3
  MASTER_FX 1
  MASTER_SEL 0
  <MASTERPLAYSPEEDENV
    EGUID {74D313CB-764D-4036-8D16-48FF487900E3}
    ACT 0 -1
    VIS 0 1 1
    LANEHEIGHT 0 0
    ARM 0
    DEFSHAPE 0 -1 -1
  >
  <TEMPOENVEX
    EGUID {18358E04-E120-4F05-BCDC-2BDE88573AD3}
    ACT 1 -1
    VIS 1 0 1
    LANEHEIGHT 0 0
    ARM 0
    DEFSHAPE 1 -1 -1
  >
  <PROJBAY
  >
  <TRACK {FBBF1566-8703-4EE7-839D-FF034E96BBDD}
    NAME "NES - Pulse 1 [ch0]"
    PEAKCOL 16576606
    BEAT -1
    AUTOMODE 0
    PANLAWFLAGS 3
    VOLPAN 1 0 -1 -1 1
    MUTESOLO 0 0 0
    IPHASE 0
    PLAYOFFS 0 1
    ISBUS 0 0
    BUSCOMP 0 0 0 0 0
    SHOWINMIX 1 0.6667 0.5 1 0.5 0 0 0
    FIXEDLANES 9 0 0 0 0
    SEL 1
    REC 1 5088 1 0 0 0 0 0
    VU 2
    TRACKHEIGHT 0 0 0 0 0 0 0
    INQ 0 0 0 0.5 100 0 0 100
    NCHAN 2
    FX 1
    TRACKID {FBBF1566-8703-4EE7-839D-FF034E96BBDD}
    PERF 0
    MIDIOUT -1
    MAINSEND 1 0
    <FXCHAIN
      WNDRECT 24 52 700 560
      SHOW 0
      LASTSEL 0
      DOCKED 0
      BYPASS 0 0 0
      <JS "ReapNES Studio/ReapNES_Console.jsfx" ""
        2 15 1 10 80 10 100 2 1 15 1 5 60 10 80 1 1 0 50 0 0 15 1 0 100 0 0 0.500000 0.500000 0.400000 0.300000 0.800000 0 1 0 0 0 0 - - - - - - - - - - - - - - - - - - - - - - - - - -
      >
      FLOATPOS 0 0 0 0
      FXID {0BE184EB-6069-429B-9918-A2D0CEFE89BD}
      WAK 0 0
    >
    <ITEM
      POSITION 0
      LENGTH 83.98134
      LOOP 0
      ALLTAKES 0
      FADEIN 0 0 0 0 0 0 0
      FADEOUT 0 0 0 0 0 0 0
      MUTE 0 0
      SEL 0
      IGUID {6C022517-BDBF-405C-88A4-61442CD2A474}
      <SOURCE MIDI
        HASDATA 1 480 QN
        CCINTERP 32
        E 0 c0 50
        E 0 b0 0c 40
        E 0 b0 0b 28
        E 0 90 35 28
        E 768 80 35 00
        E 0 90 2e 28
        E 1344 b0 0b 78
        E 0 80 2e 00
        E 0 90 29 78
        E 96 80 29 00
        E 0 90 2c 78
        E 96 80 2c 00
        E 0 90 33 78
        E 384 80 33 00
        E 0 90 31 78
        E 192 80 31 00
        E 192 b0 0b 28
        E 0 90 30 28
        E 192 80 30 00
        E 0 90 31 28
        E 192 80 31 00
        E 0 90 30 28
        E 384 80 30 00
        E 0 90 2c 28
        E 1152 80 2c 00
        E 0 90 30 28
        E 192 80 30 00
        E 0 90 31 28
        E 192 80 31 00
        E 0 90 30 28
        E 384 80 30 00
        E 0 90 2b 28
        E 1536 80 2b 00
        E 0 90 35 28
        E 768 80 35 00
        E 0 90 2e 28
        E 1344 b0 0b 78
        E 0 80 2e 00
        E 0 90 29 78
        E 96 80 29 00
        E 0 90 2c 78
        E 96 80 2c 00
        E 0 90 33 78
        E 384 80 33 00
        E 0 90 31 78
        E 192 80 31 00
        E 192 b0 0b 28
        E 0 90 30 28
        E 192 80 30 00
        E 0 90 31 28
        E 192 80 31 00
        E 0 90 30 28
        E 384 80 30 00
        E 0 90 2c 28
        E 1152 80 2c 00
        E 0 90 30 28
        E 192 80 30 00
        E 0 90 31 28
        E 192 80 31 00
        E 0 90 30 28
        E 384 80 30 00
        E 0 90 2b 28
        E 1536 80 2b 00
        E 0 90 35 28
        E 768 80 35 00
        E 0 90 2e 28
        E 1344 b0 0b 78
        E 0 80 2e 00
        E 0 90 29 78
        E 96 80 29 00
        E 0 90 2c 78
        E 96 80 2c 00
        E 0 90 33 78
        E 384 80 33 00
        E 0 90 31 78
        E 192 80 31 00
        E 192 b0 0b 28
        E 0 90 30 28
        E 192 80 30 00
        E 0 90 31 28
        E 192 80 31 00
        E 0 90 30 28
        E 384 80 30 00
        E 0 90 2c 28
        E 1152 80 2c 00
        E 0 90 30 28
        E 192 80 30 00
        E 0 90 31 28
        E 192 80 31 00
        E 0 90 30 28
        E 384 80 30 00
        E 0 90 2b 28
        E 1536 80 2b 00
        E 0 90 35 28
        E 768 80 35 00
        E 0 90 2e 28
        E 1344 b0 0b 78
        E 0 80 2e 00
        E 0 90 29 78
        E 96 80 29 00
        E 0 90 2c 78
        E 96 80 2c 00
        E 0 90 33 78
        E 384 80 33 00
        E 0 90 31 78
        E 192 80 31 00
        E 192 b0 0b 28
        E 0 90 30 28
        E 192 80 30 00
        E 0 90 31 28
        E 192 80 31 00
        E 0 90 30 28
        E 384 80 30 00
        E 0 90 2c 28
        E 1152 80 2c 00
        E 0 90 30 28
        E 192 80 30 00
        E 0 90 31 28
        E 192 80 31 00
        E 0 90 30 28
        E 384 80 30 00
        E 0 90 2b 28
        E 1536 80 2b 00
        E 0 90 35 28
        E 768 80 35 00
        E 0 90 2e 28
        E 1344 b0 0b 78
        E 0 80 2e 00
        E 0 90 29 78
        E 96 80 29 00
        E 0 90 2c 78
        E 96 80 2c 00
        E 0 90 33 78
        E 384 80 33 00
        E 0 90 31 78
        E 192 80 31 00
        E 192 b0 0b 28
        E 0 90 30 28
        E 192 80 30 00
        E 0 90 31 28
        E 192 80 31 00
        E 0 90 30 28
        E 384 80 30 00
        E 0 90 2c 28
        E 1152 80 2c 00
        E 0 90 30 28
        E 192 80 30 00
        E 0 90 31 28
        E 192 80 31 00
        E 0 90 30 28
        E 384 80 30 00
        E 0 90 2b 28
        E 1536 80 2b 00
        E 0 90 35 28
        E 768 80 35 00
        E 0 90 2e 28
        E 1344 b0 0b 78
        E 0 80 2e 00
        E 0 90 29 78
        E 96 80 29 00
        E 0 90 2c 78
        E 96 80 2c 00
        E 0 90 33 78
        E 384 80 33 00
        E 0 90 31 78
        E 192 80 31 00
        E 192 b0 0b 28
        E 0 90 30 28
        E 192 80 30 00
        E 0 90 31 28
        E 192 80 31 00
        E 0 90 30 28
        E 384 80 30 00
        E 0 90 2c 28
        E 1152 80 2c 00
        E 0 90 30 28
        E 192 80 30 00
        E 0 90 31 28
        E 192 80 31 00
        E 0 90 30 28
        E 384 80 30 00
        E 0 90 2b 28
        E 1536 80 2b 00
        E 0 90 35 28
        E 768 80 35 00
        E 0 90 2e 28
        E 1344 b0 0b 78
        E 0 80 2e 00
        E 0 90 29 78
        E 96 80 29 00
        E 0 90 2c 78
        E 96 80 2c 00
        E 0 90 33 78
        E 384 80 33 00
        E 0 90 31 78
        E 192 80 31 00
        E 192 b0 0b 28
        E 0 90 30 28
        E 192 80 30 00
        E 0 90 31 28
        E 192 80 31 00
        E 0 90 30 28
        E 384 80 30 00
        E 0 90 2c 28
        E 1152 80 2c 00
        E 0 90 30 28
        E 192 80 30 00
        E 0 90 31 28
        E 192 80 31 00
        E 0 90 30 28
        E 384 80 30 00
        E 0 90 2b 28
        E 1536 80 2b 00
        E 0 90 35 28
        E 768 80 35 00
        E 0 90 2e 28
        E 1344 b0 0b 78
        E 0 80 2e 00
        E 0 90 29 78
        E 96 80 29 00
        E 0 90 2c 78
        E 96 80 2c 00
        E 0 90 33 78
        E 384 80 33 00
        E 0 90 31 78
        E 192 80 31 00
        E 192 b0 0b 28
        E 0 90 30 28
        E 192 80 30 00
        E 0 90 31 28
        E 192 80 31 00
        E 0 90 30 28
        E 384 80 30 00
        E 0 90 2c 28
        E 1152 80 2c 00
        E 0 90 30 28
        E 192 80 30 00
        E 0 90 31 28
        E 192 80 31 00
        E 0 90 30 28
        E 384 80 30 00
        E 0 90 2b 28
        E 1536 80 2b 00
        E 0 90 35 28
        E 768 80 35 00
        E 0 90 2e 28
        E 1344 b0 0b 78
        E 0 80 2e 00
        E 0 90 29 78
        E 96 80 29 00
        E 0 90 2c 78
        E 96 80 2c 00
        E 0 90 33 78
        E 384 80 33 00
        E 0 90 31 78
        E 192 80 31 00
        E 192 b0 0b 28
        E 0 90 30 28
        E 192 80 30 00
        E 0 90 31 28
        E 192 80 31 00
        E 0 90 30 28
        E 384 80 30 00
        E 0 90 2c 28
        E 1152 80 2c 00
        E 0 90 30 28
        E 192 80 30 00
        E 0 90 31 28
        E 192 80 31 00
        E 0 90 30 28
        E 384 80 30 00
        E 0 90 2b 28
        E 1536 80 2b 00
        E 0 90 35 28
        E 768 80 35 00
        E 0 90 2e 28
        E 1344 b0 0b 78
        E 0 80 2e 00
        E 0 90 29 78
        E 96 80 29 00
        E 0 90 2c 78
        E 96 80 2c 00
        E 0 90 33 78
        E 384 80 33 00
        E 0 90 31 78
        E 192 80 31 00
        E 192 b0 0b 28
        E 0 90 30 28
        E 192 80 30 00
        E 0 90 31 28
        E 192 80 31 00
        E 0 90 30 28
        E 384 80 30 00
        E 0 90 2c 28
        E 1152 80 2c 00
        E 0 90 30 28
        E 192 80 30 00
        E 0 90 31 28
        E 192 80 31 00
        E 0 90 30 28
        E 384 80 30 00
        E 0 90 2b 28
        E 1536 80 2b 00
        E 0 90 35 28
        E 768 80 35 00
        E 0 90 2e 28
        E 1344 b0 0b 78
        E 0 80 2e 00
        E 0 90 29 78
        E 96 80 29 00
        E 0 90 2c 78
        E 96 80 2c 00
        E 0 90 33 78
        E 384 80 33 00
        E 0 90 31 78
        E 192 80 31 00
        E 192 b0 0b 28
        E 0 90 30 28
        E 192 80 30 00
        E 0 90 31 28
        E 192 80 31 00
        E 0 90 30 28
        E 384 80 30 00
        E 0 90 2c 28
        E 1152 80 2c 00
        E 0 90 30 28
        E 192 80 30 00
        E 0 90 31 28
        E 192 80 31 00
        E 0 90 30 28
        E 384 80 30 00
        E 0 90 2b 28
        E 1536 80 2b 00
        E 0 90 35 28
        E 768 80 35 00
        E 0 90 2e 28
        E 1344 b0 0b 78
        E 0 80 2e 00
        E 0 90 29 78
        E 96 80 29 00
        E 0 90 2c 78
        E 96 80 2c 00
        E 0 90 33 78
        E 384 80 33 00
        E 0 90 31 78
        E 192 80 31 00
        E 192 b0 0b 28
        E 0 90 30 28
        E 192 80 30 00
        E 0 90 31 28
        E 192 80 31 00
        E 0 90 30 28
        E 384 80 30 00
        E 0 90 2c 28
        E 1152 80 2c 00
        E 0 90 30 28
        E 192 80 30 00
        E 0 90 31 28
        E 192 80 31 00
        E 0 90 30 28
        E 384 80 30 00
        E 0 90 2b 28
        E 384 80 2b 00
        E 0 ff 2f 00
      >
    >
  >
  <TRACK {972C4E70-3A7A-45D6-94F6-7094EE595FCD}
    NAME "NES - Pulse 2 [ch1]"
    PEAKCOL 10092441
    BEAT -1
    AUTOMODE 0
    PANLAWFLAGS 3
    VOLPAN 1 0 -1 -1 1
    MUTESOLO 0 0 0
    IPHASE 0
    PLAYOFFS 0 1
    ISBUS 0 0
    BUSCOMP 0 0 0 0 0
    SHOWINMIX 1 0.6667 0.5 1 0.5 0 0 0
    FIXEDLANES 9 0 0 0 0
    SEL 0
    REC 0 5088 1 0 0 0 0 0
    VU 2
    TRACKHEIGHT 0 0 0 0 0 0 0
    INQ 0 0 0 0.5 100 0 0 100
    NCHAN 2
    FX 1
    TRACKID {972C4E70-3A7A-45D6-94F6-7094EE595FCD}
    PERF 0
    MIDIOUT -1
    MAINSEND 1 0
    <FXCHAIN
      WNDRECT 24 52 700 560
      SHOW 0
      LASTSEL 0
      DOCKED 0
      BYPASS 0 0 0
      <JS "ReapNES Studio/ReapNES_Console.jsfx" ""
        2 15 1 10 80 10 100 2 1 15 1 5 60 10 80 1 1 0 50 0 0 15 1 0 100 0 0 0.500000 0.500000 0.400000 0.300000 0.800000 1 1 0 0 0 0 - - - - - - - - - - - - - - - - - - - - - - - - - -
      >
      FLOATPOS 0 0 0 0
      FXID {6CA73B63-9EAE-460B-A672-F81C77E10A3C}
      WAK 0 0
    >
    <ITEM
      POSITION 0
      LENGTH 83.98134
      LOOP 0
      ALLTAKES 0
      FADEIN 0 0 0 0 0 0 0
      FADEOUT 0 0 0 0 0 0 0
      MUTE 0 0
      SEL 0
      IGUID {19F35598-01C8-4689-B80A-D6C3EEB9AA81}
      <SOURCE MIDI
        HASDATA 1 480 QN
        CCINTERP 32
        E 0 c1 51
        E 0 b1 0c 40
        E 0 b1 0b 28
        E 0 91 1d 28
        E 192 81 1d 00
        E 0 91 24 28
        E 192 81 24 00
        E 0 91 29 28
        E 192 81 29 00
        E 0 91 27 28
        E 192 81 27 00
        E 0 91 24 28
        E 1536 b1 0b 78
        E 0 81 24 00
        E 0 91 25 78
        E 576 81 25 00
        E 192 b1 0b 28
        E 0 91 24 28
        E 768 81 24 00
        E 0 91 1d 28
        E 1152 81 1d 00
        E 0 91 22 28
        E 768 81 22 00
        E 0 91 1c 28
        E 1536 81 1c 00
        E 0 91 1d 28
        E 192 81 1d 00
        E 0 91 24 28
        E 192 81 24 00
        E 0 91 29 28
        E 192 81 29 00
        E 0 91 27 28
        E 192 81 27 00
        E 0 91 24 28
        E 1536 b1 0b 78
        E 0 81 24 00
        E 0 91 25 78
        E 576 81 25 00
        E 192 b1 0b 28
        E 0 91 24 28
        E 768 81 24 00
        E 0 91 1d 28
        E 1152 81 1d 00
        E 0 91 22 28
        E 768 81 22 00
        E 0 91 1c 28
        E 1536 81 1c 00
        E 0 91 1d 28
        E 192 81 1d 00
        E 0 91 24 28
        E 192 81 24 00
        E 0 91 29 28
        E 192 81 29 00
        E 0 91 27 28
        E 192 81 27 00
        E 0 91 24 28
        E 1536 b1 0b 78
        E 0 81 24 00
        E 0 91 25 78
        E 576 81 25 00
        E 192 b1 0b 28
        E 0 91 24 28
        E 768 81 24 00
        E 0 91 1d 28
        E 1152 81 1d 00
        E 0 91 22 28
        E 768 81 22 00
        E 0 91 1c 28
        E 1536 81 1c 00
        E 0 91 1d 28
        E 192 81 1d 00
        E 0 91 24 28
        E 192 81 24 00
        E 0 91 29 28
        E 192 81 29 00
        E 0 91 27 28
        E 192 81 27 00
        E 0 91 24 28
        E 1536 b1 0b 78
        E 0 81 24 00
        E 0 91 25 78
        E 576 81 25 00
        E 192 b1 0b 28
        E 0 91 24 28
        E 768 81 24 00
        E 0 91 1d 28
        E 1152 81 1d 00
        E 0 91 22 28
        E 768 81 22 00
        E 0 91 1c 28
        E 1536 81 1c 00
        E 0 91 1d 28
        E 192 81 1d 00
        E 0 91 24 28
        E 192 81 24 00
        E 0 91 29 28
        E 192 81 29 00
        E 0 91 27 28
        E 192 81 27 00
        E 0 91 24 28
        E 1536 b1 0b 78
        E 0 81 24 00
        E 0 91 25 78
        E 576 81 25 00
        E 192 b1 0b 28
        E 0 91 24 28
        E 768 81 24 00
        E 0 91 1d 28
        E 1152 81 1d 00
        E 0 91 22 28
        E 768 81 22 00
        E 0 91 1c 28
        E 1536 81 1c 00
        E 0 91 1d 28
        E 192 81 1d 00
        E 0 91 24 28
        E 192 81 24 00
        E 0 91 29 28
        E 192 81 29 00
        E 0 91 27 28
        E 192 81 27 00
        E 0 91 24 28
        E 1536 b1 0b 78
        E 0 81 24 00
        E 0 91 25 78
        E 576 81 25 00
        E 192 b1 0b 28
        E 0 91 24 28
        E 768 81 24 00
        E 0 91 1d 28
        E 1152 81 1d 00
        E 0 91 22 28
        E 768 81 22 00
        E 0 91 1c 28
        E 1536 81 1c 00
        E 0 91 1d 28
        E 192 81 1d 00
        E 0 91 24 28
        E 192 81 24 00
        E 0 91 29 28
        E 192 81 29 00
        E 0 91 27 28
        E 192 81 27 00
        E 0 91 24 28
        E 1536 b1 0b 78
        E 0 81 24 00
        E 0 91 25 78
        E 576 81 25 00
        E 192 b1 0b 28
        E 0 91 24 28
        E 768 81 24 00
        E 0 91 1d 28
        E 1152 81 1d 00
        E 0 91 22 28
        E 768 81 22 00
        E 0 91 1c 28
        E 1536 81 1c 00
        E 0 91 1d 28
        E 192 81 1d 00
        E 0 91 24 28
        E 192 81 24 00
        E 0 91 29 28
        E 192 81 29 00
        E 0 91 27 28
        E 192 81 27 00
        E 0 91 24 28
        E 1536 b1 0b 78
        E 0 81 24 00
        E 0 91 25 78
        E 576 81 25 00
        E 192 b1 0b 28
        E 0 91 24 28
        E 768 81 24 00
        E 0 91 1d 28
        E 1152 81 1d 00
        E 0 91 22 28
        E 768 81 22 00
        E 0 91 1c 28
        E 1536 81 1c 00
        E 0 91 1d 28
        E 192 81 1d 00
        E 0 91 24 28
        E 192 81 24 00
        E 0 91 29 28
        E 192 81 29 00
        E 0 91 27 28
        E 192 81 27 00
        E 0 91 24 28
        E 1536 b1 0b 78
        E 0 81 24 00
        E 0 91 25 78
        E 576 81 25 00
        E 192 b1 0b 28
        E 0 91 24 28
        E 768 81 24 00
        E 0 91 1d 28
        E 1152 81 1d 00
        E 0 91 22 28
        E 768 81 22 00
        E 0 91 1c 28
        E 1536 81 1c 00
        E 0 91 1d 28
        E 192 81 1d 00
        E 0 91 24 28
        E 192 81 24 00
        E 0 91 29 28
        E 192 81 29 00
        E 0 91 27 28
        E 192 81 27 00
        E 0 91 24 28
        E 1536 b1 0b 78
        E 0 81 24 00
        E 0 91 25 78
        E 576 81 25 00
        E 192 b1 0b 28
        E 0 91 24 28
        E 768 81 24 00
        E 0 91 1d 28
        E 1152 81 1d 00
        E 0 91 22 28
        E 768 81 22 00
        E 0 91 1c 28
        E 1536 81 1c 00
        E 0 91 1d 28
        E 192 81 1d 00
        E 0 91 24 28
        E 192 81 24 00
        E 0 91 29 28
        E 192 81 29 00
        E 0 91 27 28
        E 192 81 27 00
        E 0 91 24 28
        E 1536 b1 0b 78
        E 0 81 24 00
        E 0 91 25 78
        E 576 81 25 00
        E 192 b1 0b 28
        E 0 91 24 28
        E 768 81 24 00
        E 0 91 1d 28
        E 1152 81 1d 00
        E 0 91 22 28
        E 768 81 22 00
        E 0 91 1c 28
        E 1536 81 1c 00
        E 0 91 1d 28
        E 192 81 1d 00
        E 0 91 24 28
        E 192 81 24 00
        E 0 91 29 28
        E 192 81 29 00
        E 0 91 27 28
        E 192 81 27 00
        E 0 91 24 28
        E 1536 b1 0b 78
        E 0 81 24 00
        E 0 91 25 78
        E 576 81 25 00
        E 192 b1 0b 28
        E 0 91 24 28
        E 768 81 24 00
        E 0 91 1d 28
        E 1152 81 1d 00
        E 0 91 22 28
        E 768 81 22 00
        E 0 91 1c 28
        E 384 81 1c 00
        E 0 ff 2f 00
      >
    >
  >
  <TRACK {3A029DEC-F9CF-4458-91E2-B59E6E93BEEA}
    NAME "NES - Triangle [ch2]"
    PEAKCOL 16744192
    BEAT -1
    AUTOMODE 0
    PANLAWFLAGS 3
    VOLPAN 1 0 -1 -1 1
    MUTESOLO 0 0 0
    IPHASE 0
    PLAYOFFS 0 1
    ISBUS 0 0
    BUSCOMP 0 0 0 0 0
    SHOWINMIX 1 0.6667 0.5 1 0.5 0 0 0
    FIXEDLANES 9 0 0 0 0
    SEL 0
    REC 0 5088 1 0 0 0 0 0
    VU 2
    TRACKHEIGHT 0 0 0 0 0 0 0
    INQ 0 0 0 0.5 100 0 0 100
    NCHAN 2
    FX 1
    TRACKID {3A029DEC-F9CF-4458-91E2-B59E6E93BEEA}
    PERF 0
    MIDIOUT -1
    MAINSEND 1 0
    <FXCHAIN
      WNDRECT 24 52 700 560
      SHOW 0
      LASTSEL 0
      DOCKED 0
      BYPASS 0 0 0
      <JS "ReapNES Studio/ReapNES_Console.jsfx" ""
        2 15 1 10 80 10 100 2 1 15 1 5 60 10 80 1 1 0 50 0 0 15 1 0 100 0 0 0.500000 0.500000 0.400000 0.300000 0.800000 2 1 0 0 0 0 - - - - - - - - - - - - - - - - - - - - - - - - - -
      >
      FLOATPOS 0 0 0 0
      FXID {A5AFFD74-3D81-4D93-B5D5-7A8687BC17CF}
      WAK 0 0
    >
    <ITEM
      POSITION 0
      LENGTH 83.98134
      LOOP 0
      ALLTAKES 0
      FADEIN 0 0 0 0 0 0 0
      FADEOUT 0 0 0 0 0 0 0
      MUTE 0 0
      SEL 0
      IGUID {D7EC1FE6-182F-40A6-8D15-9B72997F9253}
      <SOURCE MIDI
        HASDATA 1 480 QN
        CCINTERP 32
        E 0 c2 26
        E 0 b2 0b 7f
        E 0 92 3c 7f
        E 768 82 3c 00
        E 0 b2 0b 7f
        E 0 92 37 7f
        E 2304 82 37 00
        E 0 b2 0b 7f
        E 0 92 34 7f
        E 768 82 34 00
        E 0 b2 0b 7f
        E 0 92 30 7f
        E 1152 82 30 00
        E 0 b2 0b 7f
        E 0 92 31 7f
        E 768 82 31 00
        E 0 b2 0b 7f
        E 0 92 30 7f
        E 1536 82 30 00
        E 0 b2 0b 7f
        E 0 92 3c 7f
        E 768 82 3c 00
        E 0 b2 0b 7f
        E 0 92 37 7f
        E 2304 82 37 00
        E 0 b2 0b 7f
        E 0 92 34 7f
        E 768 82 34 00
        E 0 b2 0b 7f
        E 0 92 30 7f
        E 1152 82 30 00
        E 0 b2 0b 7f
        E 0 92 31 7f
        E 768 82 31 00
        E 0 b2 0b 7f
        E 0 92 30 7f
        E 1536 82 30 00
        E 0 b2 0b 7f
        E 0 92 3c 7f
        E 768 82 3c 00
        E 0 b2 0b 7f
        E 0 92 37 7f
        E 2304 82 37 00
        E 0 b2 0b 7f
        E 0 92 34 7f
        E 768 82 34 00
        E 0 b2 0b 7f
        E 0 92 30 7f
        E 1152 82 30 00
        E 0 b2 0b 7f
        E 0 92 31 7f
        E 768 82 31 00
        E 0 b2 0b 7f
        E 0 92 30 7f
        E 1536 82 30 00
        E 0 b2 0b 7f
        E 0 92 3c 7f
        E 768 82 3c 00
        E 0 b2 0b 7f
        E 0 92 37 7f
        E 2304 82 37 00
        E 0 b2 0b 7f
        E 0 92 34 7f
        E 768 82 34 00
        E 0 b2 0b 7f
        E 0 92 30 7f
        E 1152 82 30 00
        E 0 b2 0b 7f
        E 0 92 31 7f
        E 768 82 31 00
        E 0 b2 0b 7f
        E 0 92 30 7f
        E 1536 82 30 00
        E 0 b2 0b 7f
        E 0 92 3c 7f
        E 768 82 3c 00
        E 0 b2 0b 7f
        E 0 92 37 7f
        E 2304 82 37 00
        E 0 b2 0b 7f
        E 0 92 34 7f
        E 768 82 34 00
        E 0 b2 0b 7f
        E 0 92 30 7f
        E 1152 82 30 00
        E 0 b2 0b 7f
        E 0 92 31 7f
        E 768 82 31 00
        E 0 b2 0b 7f
        E 0 92 30 7f
        E 1536 82 30 00
        E 0 b2 0b 7f
        E 0 92 3c 7f
        E 768 82 3c 00
        E 0 b2 0b 7f
        E 0 92 37 7f
        E 2304 82 37 00
        E 0 b2 0b 7f
        E 0 92 34 7f
        E 768 82 34 00
        E 0 b2 0b 7f
        E 0 92 30 7f
        E 1152 82 30 00
        E 0 b2 0b 7f
        E 0 92 31 7f
        E 768 82 31 00
        E 0 b2 0b 7f
        E 0 92 30 7f
        E 1536 82 30 00
        E 0 b2 0b 7f
        E 0 92 3c 7f
        E 768 82 3c 00
        E 0 b2 0b 7f
        E 0 92 37 7f
        E 2304 82 37 00
        E 0 b2 0b 7f
        E 0 92 34 7f
        E 768 82 34 00
        E 0 b2 0b 7f
        E 0 92 30 7f
        E 1152 82 30 00
        E 0 b2 0b 7f
        E 0 92 31 7f
        E 768 82 31 00
        E 0 b2 0b 7f
        E 0 92 30 7f
        E 1536 82 30 00
        E 0 b2 0b 7f
        E 0 92 3c 7f
        E 768 82 3c 00
        E 0 b2 0b 7f
        E 0 92 37 7f
        E 2304 82 37 00
        E 0 b2 0b 7f
        E 0 92 34 7f
        E 768 82 34 00
        E 0 b2 0b 7f
        E 0 92 30 7f
        E 1152 82 30 00
        E 0 b2 0b 7f
        E 0 92 31 7f
        E 768 82 31 00
        E 0 b2 0b 7f
        E 0 92 30 7f
        E 1536 82 30 00
        E 0 b2 0b 7f
        E 0 92 3c 7f
        E 768 82 3c 00
        E 0 b2 0b 7f
        E 0 92 37 7f
        E 2304 82 37 00
        E 0 b2 0b 7f
        E 0 92 34 7f
        E 768 82 34 00
        E 0 b2 0b 7f
        E 0 92 30 7f
        E 1152 82 30 00
        E 0 b2 0b 7f
        E 0 92 31 7f
        E 768 82 31 00
        E 0 b2 0b 7f
        E 0 92 30 7f
        E 1536 82 30 00
        E 0 b2 0b 7f
        E 0 92 3c 7f
        E 768 82 3c 00
        E 0 b2 0b 7f
        E 0 92 37 7f
        E 2304 82 37 00
        E 0 b2 0b 7f
        E 0 92 34 7f
        E 768 82 34 00
        E 0 b2 0b 7f
        E 0 92 30 7f
        E 1152 82 30 00
        E 0 b2 0b 7f
        E 0 92 31 7f
        E 768 82 31 00
        E 0 b2 0b 7f
        E 0 92 30 7f
        E 1536 82 30 00
        E 0 b2 0b 7f
        E 0 92 3c 7f
        E 768 82 3c 00
        E 0 b2 0b 7f
        E 0 92 37 7f
        E 2304 82 37 00
        E 0 b2 0b 7f
        E 0 92 34 7f
        E 768 82 34 00
        E 0 b2 0b 7f
        E 0 92 30 7f
        E 1152 82 30 00
        E 0 b2 0b 7f
        E 0 92 31 7f
        E 768 82 31 00
        E 0 b2 0b 7f
        E 0 92 30 7f
        E 1536 82 30 00
        E 0 b2 0b 7f
        E 0 92 3c 7f
        E 768 82 3c 00
        E 0 b2 0b 7f
        E 0 92 37 7f
        E 2304 82 37 00
        E 0 b2 0b 7f
        E 0 92 34 7f
        E 768 82 34 00
        E 0 b2 0b 7f
        E 0 92 30 7f
        E 1152 82 30 00
        E 0 b2 0b 7f
        E 0 92 31 7f
        E 768 82 31 00
        E 0 b2 0b 7f
        E 0 92 30 7f
        E 384 82 30 00
        E 0 ff 2f 00
      >
    >
  >
  <TRACK {AB680313-AB99-4B98-8EA8-7FDB4B811633}
    NAME "NES - Noise / Drums"
    PEAKCOL 11184810
    BEAT -1
    AUTOMODE 0
    PANLAWFLAGS 3
    VOLPAN 1 0 -1 -1 1
    MUTESOLO 0 0 0
    IPHASE 0
    PLAYOFFS 0 1
    ISBUS 0 0
    BUSCOMP 0 0 0 0 0
    SHOWINMIX 1 0.6667 0.5 1 0.5 0 0 0
    FIXEDLANES 9 0 0 0 0
    SEL 0
    REC 0 5088 1 0 0 0 0 0
    VU 2
    TRACKHEIGHT 0 0 0 0 0 0 0
    INQ 0 0 0 0.5 100 0 0 100
    NCHAN 2
    FX 1
    TRACKID {AB680313-AB99-4B98-8EA8-7FDB4B811633}
    PERF 0
    MIDIOUT -1
    MAINSEND 1 0
    <FXCHAIN
      WNDRECT 24 52 700 560
      SHOW 0
      LASTSEL 0
      DOCKED 0
      BYPASS 0 0 0
      <JS "ReapNES Studio/ReapNES_Console.jsfx" ""
        2 15 1 10 80 10 100 2 1 15 1 5 60 10 80 1 1 0 50 0 0 15 1 0 100 0 0 0.500000 0.500000 0.400000 0.300000 0.800000 3 1 0 0 0 0 - - - - - - - - - - - - - - - - - - - - - - - - - -
      >
      FLOATPOS 0 0 0 0
      FXID {22CE7F6F-FB24-451F-A8E1-FC5A3EF08AA4}
      WAK 0 0
    >
  >
>