<REAPER_PROJECT 0.1 "7.27/win64" 1707000000
  <NOTES 0 2
    |ReapNES Studio Project
    |MIDI Import - Wizards_&_Warriors_08_Inside_the_Big_Tree_v1
  >
  RIPPLE 0
  GROUPOVERRIDE 0 0 0
  AUTOXFADE 129
  ENVATTACH 3
  POOLEDENVATTACH 0
  MIXERUIFLAGS 11 48
  ENVFADESZ10 40
  PEAKGAIN 1
  FEEDBACK 0
  PANLAW 1
  PROJOFFS 0 0 0
  MAXPROJLEN 0 0
  GRID 3199 8 1 8 1 0 0 0
  TIMEMODE 1 5 -1 30 0 0 -1
  VIDEO_CONFIG 0 0 65792
  PANMODE 3
  PANLAWFLAGS 3
  CURSOR 0
  ZOOM 100 0 0
  VZOOMEX 6 0
  USE_REC_CFG 0
  RECMODE 1
  SMPTESYNC 0 30 100 40 1000 300 0 0 1 0 0
  LOOP 0
  LOOPGRAN 0 4
  RECORD_PATH "Media" ""
  <RECORD_CFG
    ZXZhdxgAAQ==
  >
  <APPLYFX_CFG
  >
  RENDER_FILE ""
  RENDER_PATTERN ""
  RENDER_FMT 0 2 0
  RENDER_1X 0
  RENDER_RANGE 1 0 0 18 1000
  RENDER_RESAMPLE 3 0 1
  RENDER_ADDTOPROJ 0
  RENDER_STEMS 0
  RENDER_DITHER 0
  TIMELOCKMODE 1
  TEMPOENVLOCKMODE 1
  ITEMMIX 1
  DEFPITCHMODE 589824 0
  TAKELANE 1
  SAMPLERATE 44100 0 0
  <RENDER_CFG
    ZXZhdxgAAQ==
  >
  LOCK 1
  <METRONOME 6 2
    VOL 0.25 0.125
    BEATLEN 4
    FREQ 1760 880 1
    SAMPLES "" ""
    SPLIGNORE 0 0
    SPLDEF 2 660 "" 0
    SPLDEF 3 440 "" 0
    PATTERN 0 169
    PATTERNSTR ABBB
    MULT 1
  >
  GLOBAL_AUTO -1
  TEMPO 128.59999614200012 4 4
  PLAYRATE 1 0 0.25 4
  SELECTION 0 0
  SELECTION2 0 0
  MASTERAUTOMODE 0
  MASTERTRACKHEIGHT 0 0
  MASTERPEAKCOL 16576
  MASTERMUTESOLO 0
  MASTERTRACKVIEW 0 0.6667 0.5 0.5 0 0 0 0 0 0 0 0 0 0
  MASTERHWOUT 0 0 1 0 0 0 0 -1
  MASTER_NCH 2 2
  MASTER_VOLUME 1 0 -1 -1 1
  MASTER_PANMODE 3
  MASTER_PANLAWFLAGS 3
  MASTER_FX 1
  MASTER_SEL 0
  <MASTERPLAYSPEEDENV
    EGUID {C7A9E90F-CEBC-4A67-AFF2-035A72AD78FD}
    ACT 0 -1
    VIS 0 1 1
    LANEHEIGHT 0 0
    ARM 0
    DEFSHAPE 0 -1 -1
  >
  <TEMPOENVEX
    EGUID {49F4DBFC-E9AE-4F15-A646-95769B7A6EAB}
    ACT 1 -1
    VIS 1 0 1
    LANEHEIGHT 0 0
    ARM 0
    DEFSHAPE 1 -1 -1
  >
  <PROJBAY
  >
  <TRACK {46850D82-F5E3-4FE3-B9C9-DD94F1A1BB79}
    NAME "NES - Pulse 1 [ch0]"
    PEAKCOL 16576606
    BEAT -1
    AUTOMODE 0
    PANLAWFLAGS 3
    VOLPAN 1 0 -1 -1 1
    MUTESOLO 0 0 0
    IPHASE 0
    PLAYOFFS 0 1
    ISBUS 0 0
    BUSCOMP 0 0 0 0 0
    SHOWINMIX 1 0.6667 0.5 1 0.5 0 0 0
    FIXEDLANES 9 0 0 0 0
    SEL 1
    REC 1 5088 1 0 0 0 0 0
    VU 2
    TRACKHEIGHT 0 0 0 0 0 0 0
    INQ 0 0 0 0.5 100 0 0 100
    NCHAN 2
    FX 1
    TRACKID {46850D82-F5E3-4FE3-B9C9-DD94F1A1BB79}
    PERF 0
    MIDIOUT -1
    MAINSEND 1 0
    <FXCHAIN
      WNDRECT 24 52 700 560
      SHOW 0
      LASTSEL 0
      DOCKED 0
      BYPASS 0 0 0
      <JS "ReapNES Studio/ReapNES_Console.jsfx" ""
        2 15 1 10 80 10 100 2 1 15 1 5 60 10 80 1 1 0 50 0 0 15 1 0 100 0 0 0.500000 0.500000 0.400000 0.300000 0.800000 0 1 0 0 0 0 - - - - - - - - - - - - - - - - - - - - - - - - - -
      >
      FLOATPOS 0 0 0 0
      FXID {EB2BF39C-4C60-4479-81CF-E877FF69595F}
      WAK 0 0
    >
    <ITEM
      POSITION 0
      LENGTH 83.98134
      LOOP 0
      ALLTAKES 0
      FADEIN 0 0 0 0 0 0 0
      FADEOUT 0 0 0 0 0 0 0
      MUTE 0 0
      SEL 0
      IGUID {A6E4EA4E-623B-47EA-BF04-B735EEF31EDF}
      <SOURCE MIDI
        HASDATA 1 480 QN
        CCINTERP 32
        E 0 c0 50
        E 0 b0 0c 40
        E 0 b0 0b 18
        E 0 90 41 18
        E 288 80 41 00
        E 0 90 44 18
        E 144 80 44 00
        E 0 90 46 18
        E 144 80 46 00
        E 0 90 48 18
        E 288 80 48 00
        E 0 90 46 18
        E 288 80 46 00
        E 0 90 43 18
        E 288 80 43 00
        E 0 90 3f 18
        E 288 80 3f 00
        E 0 90 3c 18
        E 288 80 3c 00
        E 0 90 43 18
        E 144 80 43 00
        E 0 90 41 18
        E 144 80 41 00
        E 0 90 43 18
        E 576 80 43 00
        E 0 90 44 18
        E 288 80 44 00
        E 0 90 41 18
        E 576 80 41 00
        E 0 90 44 18
        E 144 80 44 00
        E 0 90 46 18
        E 144 80 46 00
        E 0 90 48 18
        E 288 80 48 00
        E 0 90 46 18
        E 288 80 46 00
        E 0 90 43 18
        E 288 80 43 00
        E 0 90 3f 18
        E 288 80 3f 00
        E 0 90 3c 18
        E 288 80 3c 00
        E 0 90 43 18
        E 144 80 43 00
        E 0 90 41 18
        E 144 80 41 00
        E 0 90 43 18
        E 576 80 43 00
        E 0 90 44 18
        E 288 80 44 00
        E 0 90 41 18
        E 576 80 41 00
        E 0 90 44 18
        E 144 80 44 00
        E 0 90 46 18
        E 144 80 46 00
        E 0 90 48 18
        E 288 80 48 00
        E 0 90 46 18
        E 288 80 46 00
        E 0 90 43 18
        E 288 80 43 00
        E 0 90 3f 18
        E 288 80 3f 00
        E 0 90 3c 18
        E 288 80 3c 00
        E 0 90 43 18
        E 144 80 43 00
        E 0 90 41 18
        E 144 80 41 00
        E 0 90 43 18
        E 576 80 43 00
        E 0 90 44 18
        E 288 80 44 00
        E 0 90 41 18
        E 288 80 41 00
        E 0 90 48 18
        E 432 80 48 00
        E 0 90 46 18
        E 144 80 46 00
        E 0 90 44 18
        E 288 80 44 00
        E 0 90 46 18
        E 288 80 46 00
        E 0 90 43 18
        E 288 80 43 00
        E 0 90 3f 18
        E 288 80 3f 00
        E 0 90 3c 18
        E 288 80 3c 00
        E 0 90 43 18
        E 144 80 43 00
        E 0 90 41 18
        E 144 80 41 00
        E 0 90 43 18
        E 576 80 43 00
        E 0 90 44 18
        E 288 80 44 00
        E 0 90 41 18
        E 576 80 41 00
        E 0 90 44 18
        E 144 80 44 00
        E 0 90 46 18
        E 144 80 46 00
        E 0 90 48 18
        E 288 80 48 00
        E 0 90 46 18
        E 288 80 46 00
        E 0 90 43 18
        E 288 80 43 00
        E 0 90 3f 18
        E 288 80 3f 00
        E 0 90 3c 18
        E 288 80 3c 00
        E 0 90 43 18
        E 144 80 43 00
        E 0 90 41 18
        E 144 80 41 00
        E 0 90 43 18
        E 576 80 43 00
        E 0 90 44 18
        E 288 80 44 00
        E 0 90 41 18
        E 576 80 41 00
        E 0 90 44 18
        E 144 80 44 00
        E 0 90 46 18
        E 144 80 46 00
        E 0 90 48 18
        E 288 80 48 00
        E 0 90 46 18
        E 288 80 46 00
        E 0 90 43 18
        E 288 80 43 00
        E 0 90 3f 18
        E 288 80 3f 00
        E 0 90 3c 18
        E 288 80 3c 00
        E 0 90 43 18
        E 144 80 43 00
        E 0 90 41 18
        E 144 80 41 00
        E 0 90 43 18
        E 576 80 43 00
        E 0 90 44 18
        E 288 80 44 00
        E 0 90 41 18
        E 576 80 41 00
        E 0 90 44 18
        E 144 80 44 00
        E 0 90 46 18
        E 144 80 46 00
        E 0 90 48 18
        E 288 80 48 00
        E 0 90 46 18
        E 288 80 46 00
        E 0 90 43 18
        E 288 80 43 00
        E 0 90 3f 18
        E 288 80 3f 00
        E 0 90 3c 18
        E 288 80 3c 00
        E 0 90 43 18
        E 144 80 43 00
        E 0 90 41 18
        E 144 80 41 00
        E 0 90 43 18
        E 576 80 43 00
        E 0 90 44 18
        E 288 80 44 00
        E 0 90 41 18
        E 576 80 41 00
        E 0 90 44 18
        E 144 80 44 00
        E 0 90 46 18
        E 144 80 46 00
        E 0 90 48 18
        E 288 80 48 00
        E 0 90 46 18
        E 288 80 46 00
        E 0 90 43 18
        E 288 80 43 00
        E 0 90 3f 18
        E 288 80 3f 00
        E 0 90 3c 18
        E 288 80 3c 00
        E 0 90 43 18
        E 144 80 43 00
        E 0 90 41 18
        E 144 80 41 00
        E 0 90 43 18
        E 576 80 43 00
        E 0 90 44 18
        E 288 80 44 00
        E 0 90 41 18
        E 288 80 41 00
        E 0 90 48 18
        E 432 80 48 00
        E 0 90 46 18
        E 144 80 46 00
        E 0 90 44 18
        E 288 80 44 00
        E 0 90 46 18
        E 288 80 46 00
        E 0 90 43 18
        E 288 80 43 00
        E 0 90 3f 18
        E 288 80 3f 00
        E 0 90 3c 18
        E 288 80 3c 00
        E 0 90 43 18
        E 144 80 43 00
        E 0 90 41 18
        E 144 80 41 00
        E 0 90 43 18
        E 576 80 43 00
        E 0 90 44 18
        E 288 80 44 00
        E 0 90 41 18
        E 576 80 41 00
        E 0 90 44 18
        E 144 80 44 00
        E 0 90 46 18
        E 144 80 46 00
        E 0 90 48 18
        E 288 80 48 00
        E 0 90 46 18
        E 288 80 46 00
        E 0 90 43 18
        E 288 80 43 00
        E 0 90 3f 18
        E 288 80 3f 00
        E 0 90 3c 18
        E 288 80 3c 00
        E 0 90 43 18
        E 144 80 43 00
        E 0 90 41 18
        E 144 80 41 00
        E 0 90 43 18
        E 576 80 43 00
        E 0 90 44 18
        E 288 80 44 00
        E 0 90 41 18
        E 576 80 41 00
        E 0 90 44 18
        E 144 80 44 00
        E 0 90 46 18
        E 144 80 46 00
        E 0 90 48 18
        E 288 80 48 00
        E 0 90 46 18
        E 288 80 46 00
        E 0 90 43 18
        E 288 80 43 00
        E 0 90 3f 18
        E 288 80 3f 00
        E 0 90 3c 18
        E 288 80 3c 00
        E 0 90 43 18
        E 144 80 43 00
        E 0 90 41 18
        E 144 80 41 00
        E 0 90 43 18
        E 576 80 43 00
        E 0 90 44 18
        E 288 80 44 00
        E 0 90 41 18
        E 576 80 41 00
        E 0 90 44 18
        E 144 80 44 00
        E 0 90 46 18
        E 144 80 46 00
        E 0 90 48 18
        E 288 80 48 00
        E 0 90 46 18
        E 288 80 46 00
        E 0 90 43 18
        E 288 80 43 00
        E 0 90 3f 18
        E 288 80 3f 00
        E 0 90 3c 18
        E 288 80 3c 00
        E 0 90 43 18
        E 144 80 43 00
        E 0 90 41 18
        E 144 80 41 00
        E 0 90 43 18
        E 576 80 43 00
        E 0 90 44 18
        E 288 80 44 00
        E 0 90 41 18
        E 576 80 41 00
        E 0 90 44 18
        E 144 80 44 00
        E 0 90 46 18
        E 144 80 46 00
        E 0 90 48 18
        E 288 80 48 00
        E 0 90 46 18
        E 288 80 46 00
        E 0 90 43 18
        E 288 80 43 00
        E 0 90 3f 18
        E 288 80 3f 00
        E 0 90 3c 18
        E 288 80 3c 00
        E 0 90 43 18
        E 144 80 43 00
        E 0 90 41 18
        E 144 80 41 00
        E 0 90 43 18
        E 576 80 43 00
        E 0 90 44 18
        E 288 80 44 00
        E 0 90 41 18
        E 288 80 41 00
        E 0 90 48 18
        E 432 80 48 00
        E 0 90 46 18
        E 144 80 46 00
        E 0 90 44 18
        E 288 80 44 00
        E 0 90 46 18
        E 288 80 46 00
        E 0 90 43 18
        E 288 80 43 00
        E 0 90 3f 18
        E 288 80 3f 00
        E 0 90 3c 18
        E 288 80 3c 00
        E 0 90 43 18
        E 144 80 43 00
        E 0 90 41 18
        E 144 80 41 00
        E 0 90 43 18
        E 576 80 43 00
        E 0 90 44 18
        E 288 80 44 00
        E 0 90 41 18
        E 576 80 41 00
        E 0 90 44 18
        E 144 80 44 00
        E 0 90 46 18
        E 144 80 46 00
        E 0 90 48 18
        E 288 80 48 00
        E 0 90 46 18
        E 288 80 46 00
        E 0 90 43 18
        E 288 80 43 00
        E 0 90 3f 18
        E 288 80 3f 00
        E 0 90 3c 18
        E 288 80 3c 00
        E 0 90 43 18
        E 144 80 43 00
        E 0 90 41 18
        E 144 80 41 00
        E 0 90 43 18
        E 576 80 43 00
        E 0 90 44 18
        E 288 80 44 00
        E 0 90 41 18
        E 576 80 41 00
        E 0 90 44 18
        E 144 80 44 00
        E 0 90 46 18
        E 144 80 46 00
        E 0 90 48 18
        E 288 80 48 00
        E 0 90 46 18
        E 288 80 46 00
        E 0 90 43 18
        E 288 80 43 00
        E 0 90 3f 18
        E 288 80 3f 00
        E 0 90 3c 18
        E 288 80 3c 00
        E 0 90 43 18
        E 144 80 43 00
        E 0 90 41 18
        E 144 80 41 00
        E 0 90 43 18
        E 576 80 43 00
        E 0 90 44 18
        E 288 80 44 00
        E 0 90 41 18
        E 576 80 41 00
        E 0 90 44 18
        E 144 80 44 00
        E 0 90 46 18
        E 144 80 46 00
        E 0 90 48 18
        E 288 80 48 00
        E 0 90 46 18
        E 288 80 46 00
        E 0 90 43 18
        E 288 80 43 00
        E 0 90 3f 18
        E 288 80 3f 00
        E 0 90 3c 18
        E 288 80 3c 00
        E 0 90 43 18
        E 144 80 43 00
        E 0 90 41 18
        E 144 80 41 00
        E 0 90 43 18
        E 576 80 43 00
        E 0 90 44 18
        E 288 80 44 00
        E 0 90 41 18
        E 576 80 41 00
        E 0 90 44 18
        E 144 80 44 00
        E 0 90 46 18
        E 144 80 46 00
        E 0 90 48 18
        E 288 80 48 00
        E 0 90 46 18
        E 288 80 46 00
        E 0 90 43 18
        E 288 80 43 00
        E 0 90 3f 18
        E 288 80 3f 00
        E 0 90 3c 18
        E 288 80 3c 00
        E 0 90 43 18
        E 144 80 43 00
        E 0 90 41 18
        E 144 80 41 00
        E 0 90 43 18
        E 576 80 43 00
        E 0 90 44 18
        E 288 80 44 00
        E 0 90 41 18
        E 288 80 41 00
        E 0 90 48 18
        E 432 80 48 00
        E 0 90 46 18
        E 144 80 46 00
        E 0 90 44 18
        E 288 80 44 00
        E 0 90 46 18
        E 288 80 46 00
        E 0 90 43 18
        E 288 80 43 00
        E 0 90 3f 18
        E 288 80 3f 00
        E 0 90 3c 18
        E 288 80 3c 00
        E 0 90 43 18
        E 144 80 43 00
        E 0 90 41 18
        E 144 80 41 00
        E 0 90 43 18
        E 576 80 43 00
        E 0 90 44 18
        E 288 80 44 00
        E 0 90 41 18
        E 576 80 41 00
        E 0 90 44 18
        E 144 80 44 00
        E 0 90 46 18
        E 144 80 46 00
        E 0 90 48 18
        E 288 80 48 00
        E 0 90 46 18
        E 288 80 46 00
        E 0 90 43 18
        E 288 80 43 00
        E 0 90 3f 18
        E 288 80 3f 00
        E 0 90 3c 18
        E 288 80 3c 00
        E 0 90 43 18
        E 144 80 43 00
        E 0 90 41 18
        E 144 80 41 00
        E 0 90 43 18
        E 576 80 43 00
        E 0 90 44 18
        E 288 80 44 00
        E 0 90 41 18
        E 576 80 41 00
        E 0 90 44 18
        E 144 80 44 00
        E 0 90 46 18
        E 144 80 46 00
        E 0 90 48 18
        E 288 80 48 00
        E 0 90 46 18
        E 288 80 46 00
        E 0 90 43 18
        E 288 80 43 00
        E 0 90 3f 18
        E 288 80 3f 00
        E 0 90 3c 18
        E 288 80 3c 00
        E 0 90 43 18
        E 144 80 43 00
        E 0 90 41 18
        E 144 80 41 00
        E 0 90 43 18
        E 576 80 43 00
        E 0 90 44 18
        E 288 80 44 00
        E 0 90 41 18
        E 576 80 41 00
        E 0 90 44 18
        E 144 80 44 00
        E 0 90 46 18
        E 144 80 46 00
        E 0 90 48 18
        E 288 80 48 00
        E 0 90 46 18
        E 288 80 46 00
        E 0 90 43 18
        E 288 80 43 00
        E 0 90 3f 18
        E 288 80 3f 00
        E 0 90 3c 18
        E 288 80 3c 00
        E 0 90 43 18
        E 144 80 43 00
        E 0 90 41 18
        E 144 80 41 00
        E 0 90 43 18
        E 576 80 43 00
        E 0 90 44 18
        E 288 80 44 00
        E 0 90 41 18
        E 576 80 41 00
        E 0 90 44 18
        E 144 80 44 00
        E 0 90 46 18
        E 144 80 46 00
        E 0 90 48 18
        E 288 80 48 00
        E 0 90 46 18
        E 288 80 46 00
        E 0 90 43 18
        E 288 80 43 00
        E 0 90 3f 18
        E 288 80 3f 00
        E 0 90 3c 18
        E 288 80 3c 00
        E 0 90 43 18
        E 144 80 43 00
        E 0 90 41 18
        E 144 80 41 00
        E 0 90 43 18
        E 576 80 43 00
        E 0 90 44 18
        E 288 80 44 00
        E 0 90 41 18
        E 288 80 41 00
        E 0 90 48 18
        E 432 80 48 00
        E 0 90 46 18
        E 144 80 46 00
        E 0 90 44 18
        E 288 80 44 00
        E 0 90 46 18
        E 288 80 46 00
        E 0 90 43 18
        E 288 80 43 00
        E 0 90 3f 18
        E 288 80 3f 00
        E 0 90 3c 18
        E 288 80 3c 00
        E 0 90 43 18
        E 144 80 43 00
        E 0 90 41 18
        E 144 80 41 00
        E 0 90 43 18
        E 576 80 43 00
        E 0 90 44 18
        E 288 80 44 00
        E 0 90 41 18
        E 576 80 41 00
        E 0 90 44 18
        E 144 80 44 00
        E 0 90 46 18
        E 144 80 46 00
        E 0 90 48 18
        E 288 80 48 00
        E 0 90 46 18
        E 288 80 46 00
        E 0 90 43 18
        E 288 80 43 00
        E 0 90 3f 18
        E 288 80 3f 00
        E 0 90 3c 18
        E 288 80 3c 00
        E 0 90 43 18
        E 144 80 43 00
        E 0 90 41 18
        E 144 80 41 00
        E 0 90 43 18
        E 576 80 43 00
        E 0 90 44 18
        E 288 80 44 00
        E 0 90 41 18
        E 288 80 41 00
        E 0 ff 2f 00
      >
    >
  >
  <TRACK {CBA66BA4-0DB9-4F02-A533-3ADF2EE179FA}
    NAME "NES - Pulse 2 [ch1]"
    PEAKCOL 10092441
    BEAT -1
    AUTOMODE 0
    PANLAWFLAGS 3
    VOLPAN 1 0 -1 -1 1
    MUTESOLO 0 0 0
    IPHASE 0
    PLAYOFFS 0 1
    ISBUS 0 0
    BUSCOMP 0 0 0 0 0
    SHOWINMIX 1 0.6667 0.5 1 0.5 0 0 0
    FIXEDLANES 9 0 0 0 0
    SEL 0
    REC 0 5088 1 0 0 0 0 0
    VU 2
    TRACKHEIGHT 0 0 0 0 0 0 0
    INQ 0 0 0 0.5 100 0 0 100
    NCHAN 2
    FX 1
    TRACKID {CBA66BA4-0DB9-4F02-A533-3ADF2EE179FA}
    PERF 0
    MIDIOUT -1
    MAINSEND 1 0
    <FXCHAIN
      WNDRECT 24 52 700 560
      SHOW 0
      LASTSEL 0
      DOCKED 0
      BYPASS 0 0 0
      <JS "ReapNES Studio/ReapNES_Console.jsfx" ""
        2 15 1 10 80 10 100 2 1 15 1 5 60 10 80 1 1 0 50 0 0 15 1 0 100 0 0 0.500000 0.500000 0.400000 0.300000 0.800000 1 1 0 0 0 0 - - - - - - - - - - - - - - - - - - - - - - - - - -
      >
      FLOATPOS 0 0 0 0
      FXID {8A799F51-72A8-4F37-BBF2-18B7FB721884}
      WAK 0 0
    >
    <ITEM
      POSITION 0
      LENGTH 83.98134
      LOOP 0
      ALLTAKES 0
      FADEIN 0 0 0 0 0 0 0
      FADEOUT 0 0 0 0 0 0 0
      MUTE 0 0
      SEL 0
      IGUID {3BA52243-276A-4319-9FA4-CCD2AFEED95F}
      <SOURCE MIDI
        HASDATA 1 480 QN
        CCINTERP 32
        E 0 c1 51
        E 0 b1 0c 40
        E 0 b1 0b 78
        E 0 91 35 78
        E 144 b1 0b 08
        E 0 81 35 00
        E 0 91 4f 08
        E 144 81 4f 00
        E 0 91 50 08
        E 144 81 50 00
        E 0 91 4f 08
        E 144 b1 0b 18
        E 0 81 4f 00
        E 0 91 50 18
        E 144 81 50 00
        E 0 91 4f 18
        E 144 b1 0b 78
        E 0 81 4f 00
        E 0 91 33 78
        E 144 b1 0b 28
        E 0 81 33 00
        E 0 91 4f 28
        E 144 81 4f 00
        E 0 91 50 28
        E 144 81 50 00
        E 0 91 4f 28
        E 144 b1 0b 38
        E 0 81 4f 00
        E 0 91 50 38
        E 144 81 50 00
        E 0 91 4f 38
        E 144 b1 0b 78
        E 0 81 4f 00
        E 0 91 30 78
        E 144 b1 0b 48
        E 0 81 30 00
        E 0 91 4f 48
        E 144 81 4f 00
        E 0 91 50 48
        E 144 81 50 00
        E 0 91 4f 48
        E 144 b1 0b 58
        E 0 81 4f 00
        E 0 91 50 58
        E 144 81 50 00
        E 0 91 4f 58
        E 144 b1 0b 78
        E 0 81 4f 00
        E 0 91 31 78
        E 144 b1 0b 68
        E 0 81 31 00
        E 0 91 4f 68
        E 144 81 4f 00
        E 0 91 50 68
        E 144 81 50 00
        E 0 91 4f 68
        E 144 b1 0b 78
        E 0 81 4f 00
        E 0 91 50 78
        E 144 81 50 00
        E 0 91 4f 78
        E 144 b1 0b 18
        E 0 81 4f 00
        E 0 91 35 18
        E 288 81 35 00
        E 0 91 38 18
        E 144 81 38 00
        E 0 91 3a 18
        E 144 81 3a 00
        E 0 91 3c 18
        E 288 81 3c 00
        E 0 91 33 18
        E 288 81 33 00
        E 0 91 3a 18
        E 288 81 3a 00
        E 0 91 37 18
        E 288 81 37 00
        E 0 91 30 18
        E 288 81 30 00
        E 0 91 37 18
        E 144 81 37 00
        E 0 91 35 18
        E 144 81 35 00
        E 0 91 37 18
        E 288 81 37 00
        E 0 91 31 18
        E 288 81 31 00
        E 0 91 38 18
        E 576 81 38 00
        E 0 91 35 18
        E 288 81 35 00
        E 0 91 38 18
        E 144 81 38 00
        E 0 91 3a 18
        E 144 81 3a 00
        E 0 91 3c 18
        E 288 81 3c 00
        E 0 91 33 18
        E 288 81 33 00
        E 0 91 3a 18
        E 288 81 3a 00
        E 0 91 37 18
        E 288 81 37 00
        E 0 91 30 18
        E 288 81 30 00
        E 0 91 37 18
        E 144 81 37 00
        E 0 91 35 18
        E 144 81 35 00
        E 0 91 37 18
        E 288 81 37 00
        E 0 91 31 18
        E 288 81 31 00
        E 0 91 38 18
        E 576 81 38 00
        E 0 91 35 18
        E 288 81 35 00
        E 0 91 38 18
        E 144 81 38 00
        E 0 91 3a 18
        E 144 81 3a 00
        E 0 91 3c 18
        E 288 81 3c 00
        E 0 91 33 18
        E 288 81 33 00
        E 0 91 3a 18
        E 288 81 3a 00
        E 0 91 37 18
        E 288 81 37 00
        E 0 91 30 18
        E 288 81 30 00
        E 0 91 37 18
        E 144 81 37 00
        E 0 91 35 18
        E 144 81 35 00
        E 0 91 37 18
        E 288 81 37 00
        E 0 91 31 18
        E 288 81 31 00
        E 0 91 38 18
        E 576 81 38 00
        E 0 91 35 18
        E 288 81 35 00
        E 0 91 38 18
        E 144 81 38 00
        E 0 91 3a 18
        E 144 81 3a 00
        E 0 91 3c 18
        E 288 81 3c 00
        E 0 91 33 18
        E 288 81 33 00
        E 0 91 3a 18
        E 288 81 3a 00
        E 0 91 37 18
        E 288 81 37 00
        E 0 91 30 18
        E 288 81 30 00
        E 0 91 37 18
        E 144 81 37 00
        E 0 91 35 18
        E 144 81 35 00
        E 0 91 37 18
        E 288 81 37 00
        E 0 91 31 18
        E 288 81 31 00
        E 0 91 38 18
        E 576 b1 0b 78
        E 0 81 38 00
        E 0 91 35 78
        E 144 b1 0b 08
        E 0 81 35 00
        E 0 91 4f 08
        E 144 81 4f 00
        E 0 91 50 08
        E 144 81 50 00
        E 0 91 4f 08
        E 144 b1 0b 18
        E 0 81 4f 00
        E 0 91 50 18
        E 144 81 50 00
        E 0 91 4f 18
        E 144 b1 0b 78
        E 0 81 4f 00
        E 0 91 33 78
        E 144 b1 0b 28
        E 0 81 33 00
        E 0 91 4f 28
        E 144 81 4f 00
        E 0 91 50 28
        E 144 81 50 00
        E 0 91 4f 28
        E 144 b1 0b 38
        E 0 81 4f 00
        E 0 91 50 38
        E 144 81 50 00
        E 0 91 4f 38
        E 144 b1 0b 78
        E 0 81 4f 00
        E 0 91 30 78
        E 144 b1 0b 48
        E 0 81 30 00
        E 0 91 4f 48
        E 144 81 4f 00
        E 0 91 50 48
        E 144 81 50 00
        E 0 91 4f 48
        E 144 b1 0b 58
        E 0 81 4f 00
        E 0 91 50 58
        E 144 81 50 00
        E 0 91 4f 58
        E 144 b1 0b 78
        E 0 81 4f 00
        E 0 91 31 78
        E 144 b1 0b 68
        E 0 81 31 00
        E 0 91 4f 68
        E 144 81 4f 00
        E 0 91 50 68
        E 144 81 50 00
        E 0 91 4f 68
        E 144 b1 0b 78
        E 0 81 4f 00
        E 0 91 50 78
        E 144 81 50 00
        E 0 91 4f 78
        E 144 b1 0b 18
        E 0 81 4f 00
        E 0 91 35 18
        E 288 81 35 00
        E 0 91 38 18
        E 144 81 38 00
        E 0 91 3a 18
        E 144 81 3a 00
        E 0 91 3c 18
        E 288 81 3c 00
        E 0 91 33 18
        E 288 81 33 00
        E 0 91 3a 18
        E 288 81 3a 00
        E 0 91 37 18
        E 288 81 37 00
        E 0 91 30 18
        E 288 81 30 00
        E 0 91 37 18
        E 144 81 37 00
        E 0 91 35 18
        E 144 81 35 00
        E 0 91 37 18
        E 288 81 37 00
        E 0 91 31 18
        E 288 81 31 00
        E 0 91 38 18
        E 576 81 38 00
        E 0 91 35 18
        E 288 81 35 00
        E 0 91 38 18
        E 144 81 38 00
        E 0 91 3a 18
        E 144 81 3a 00
        E 0 91 3c 18
        E 288 81 3c 00
        E 0 91 33 18
        E 288 81 33 00
        E 0 91 3a 18
        E 288 81 3a 00
        E 0 91 37 18
        E 288 81 37 00
        E 0 91 30 18
        E 288 81 30 00
        E 0 91 37 18
        E 144 81 37 00
        E 0 91 35 18
        E 144 81 35 00
        E 0 91 37 18
        E 288 81 37 00
        E 0 91 31 18
        E 288 81 31 00
        E 0 91 38 18
        E 576 81 38 00
        E 0 91 35 18
        E 288 81 35 00
        E 0 91 38 18
        E 144 81 38 00
        E 0 91 3a 18
        E 144 81 3a 00
        E 0 91 3c 18
        E 288 81 3c 00
        E 0 91 33 18
        E 288 81 33 00
        E 0 91 3a 18
        E 288 81 3a 00
        E 0 91 37 18
        E 288 81 37 00
        E 0 91 30 18
        E 288 81 30 00
        E 0 91 37 18
        E 144 81 37 00
        E 0 91 35 18
        E 144 81 35 00
        E 0 91 37 18
        E 288 81 37 00
        E 0 91 31 18
        E 288 81 31 00
        E 0 91 38 18
        E 576 81 38 00
        E 0 91 35 18
        E 288 81 35 00
        E 0 91 38 18
        E 144 81 38 00
        E 0 91 3a 18
        E 144 81 3a 00
        E 0 91 3c 18
        E 288 81 3c 00
        E 0 91 33 18
        E 288 81 33 00
        E 0 91 3a 18
        E 288 81 3a 00
        E 0 91 37 18
        E 288 81 37 00
        E 0 91 30 18
        E 288 81 30 00
        E 0 91 37 18
        E 144 81 37 00
        E 0 91 35 18
        E 144 81 35 00
        E 0 91 37 18
        E 288 81 37 00
        E 0 91 31 18
        E 288 81 31 00
        E 0 91 38 18
        E 576 b1 0b 78
        E 0 81 38 00
        E 0 91 35 78
        E 144 b1 0b 08
        E 0 81 35 00
        E 0 91 4f 08
        E 144 81 4f 00
        E 0 91 50 08
        E 144 81 50 00
        E 0 91 4f 08
        E 144 b1 0b 18
        E 0 81 4f 00
        E 0 91 50 18
        E 144 81 50 00
        E 0 91 4f 18
        E 144 b1 0b 78
        E 0 81 4f 00
        E 0 91 33 78
        E 144 b1 0b 28
        E 0 81 33 00
        E 0 91 4f 28
        E 144 81 4f 00
        E 0 91 50 28
        E 144 81 50 00
        E 0 91 4f 28
        E 144 b1 0b 38
        E 0 81 4f 00
        E 0 91 50 38
        E 144 81 50 00
        E 0 91 4f 38
        E 144 b1 0b 78
        E 0 81 4f 00
        E 0 91 30 78
        E 144 b1 0b 48
        E 0 81 30 00
        E 0 91 4f 48
        E 144 81 4f 00
        E 0 91 50 48
        E 144 81 50 00
        E 0 91 4f 48
        E 144 b1 0b 58
        E 0 81 4f 00
        E 0 91 50 58
        E 144 81 50 00
        E 0 91 4f 58
        E 144 b1 0b 78
        E 0 81 4f 00
        E 0 91 31 78
        E 144 b1 0b 68
        E 0 81 31 00
        E 0 91 4f 68
        E 144 81 4f 00
        E 0 91 50 68
        E 144 81 50 00
        E 0 91 4f 68
        E 144 b1 0b 78
        E 0 81 4f 00
        E 0 91 50 78
        E 144 81 50 00
        E 0 91 4f 78
        E 144 b1 0b 18
        E 0 81 4f 00
        E 0 91 35 18
        E 288 81 35 00
        E 0 91 38 18
        E 144 81 38 00
        E 0 91 3a 18
        E 144 81 3a 00
        E 0 91 3c 18
        E 288 81 3c 00
        E 0 91 33 18
        E 288 81 33 00
        E 0 91 3a 18
        E 288 81 3a 00
        E 0 91 37 18
        E 288 81 37 00
        E 0 91 30 18
        E 288 81 30 00
        E 0 91 37 18
        E 144 81 37 00
        E 0 91 35 18
        E 144 81 35 00
        E 0 91 37 18
        E 288 81 37 00
        E 0 91 31 18
        E 288 81 31 00
        E 0 91 38 18
        E 576 81 38 00
        E 0 91 35 18
        E 288 81 35 00
        E 0 91 38 18
        E 144 81 38 00
        E 0 91 3a 18
        E 144 81 3a 00
        E 0 91 3c 18
        E 288 81 3c 00
        E 0 91 33 18
        E 288 81 33 00
        E 0 91 3a 18
        E 288 81 3a 00
        E 0 91 37 18
        E 288 81 37 00
        E 0 91 30 18
        E 288 81 30 00
        E 0 91 37 18
        E 144 81 37 00
        E 0 91 35 18
        E 144 81 35 00
        E 0 91 37 18
        E 288 81 37 00
        E 0 91 31 18
        E 288 81 31 00
        E 0 91 38 18
        E 576 81 38 00
        E 0 91 35 18
        E 288 81 35 00
        E 0 91 38 18
        E 144 81 38 00
        E 0 91 3a 18
        E 144 81 3a 00
        E 0 91 3c 18
        E 288 81 3c 00
        E 0 91 33 18
        E 288 81 33 00
        E 0 91 3a 18
        E 288 81 3a 00
        E 0 91 37 18
        E 288 81 37 00
        E 0 91 30 18
        E 288 81 30 00
        E 0 91 37 18
        E 144 81 37 00
        E 0 91 35 18
        E 144 81 35 00
        E 0 91 37 18
        E 288 81 37 00
        E 0 91 31 18
        E 288 81 31 00
        E 0 91 38 18
        E 576 81 38 00
        E 0 91 35 18
        E 288 81 35 00
        E 0 91 38 18
        E 144 81 38 00
        E 0 91 3a 18
        E 144 81 3a 00
        E 0 91 3c 18
        E 288 81 3c 00
        E 0 91 33 18
        E 288 81 33 00
        E 0 91 3a 18
        E 288 81 3a 00
        E 0 91 37 18
        E 288 81 37 00
        E 0 91 30 18
        E 288 81 30 00
        E 0 91 37 18
        E 144 81 37 00
        E 0 91 35 18
        E 144 81 35 00
        E 0 91 37 18
        E 288 81 37 00
        E 0 91 31 18
        E 288 81 31 00
        E 0 91 38 18
        E 576 b1 0b 78
        E 0 81 38 00
        E 0 91 35 78
        E 144 b1 0b 08
        E 0 81 35 00
        E 0 91 4f 08
        E 144 81 4f 00
        E 0 91 50 08
        E 144 81 50 00
        E 0 91 4f 08
        E 144 b1 0b 18
        E 0 81 4f 00
        E 0 91 50 18
        E 144 81 50 00
        E 0 91 4f 18
        E 144 b1 0b 78
        E 0 81 4f 00
        E 0 91 33 78
        E 144 b1 0b 28
        E 0 81 33 00
        E 0 91 4f 28
        E 144 81 4f 00
        E 0 91 50 28
        E 144 81 50 00
        E 0 91 4f 28
        E 144 b1 0b 38
        E 0 81 4f 00
        E 0 91 50 38
        E 144 81 50 00
        E 0 91 4f 38
        E 144 b1 0b 78
        E 0 81 4f 00
        E 0 91 30 78
        E 144 b1 0b 48
        E 0 81 30 00
        E 0 91 4f 48
        E 144 81 4f 00
        E 0 91 50 48
        E 144 81 50 00
        E 0 91 4f 48
        E 144 b1 0b 58
        E 0 81 4f 00
        E 0 91 50 58
        E 144 81 50 00
        E 0 91 4f 58
        E 144 b1 0b 78
        E 0 81 4f 00
        E 0 91 31 78
        E 144 b1 0b 68
        E 0 81 31 00
        E 0 91 4f 68
        E 144 81 4f 00
        E 0 91 50 68
        E 144 81 50 00
        E 0 91 4f 68
        E 144 b1 0b 78
        E 0 81 4f 00
        E 0 91 50 78
        E 144 81 50 00
        E 0 91 4f 78
        E 144 b1 0b 18
        E 0 81 4f 00
        E 0 91 35 18
        E 288 81 35 00
        E 0 91 38 18
        E 144 81 38 00
        E 0 91 3a 18
        E 144 81 3a 00
        E 0 91 3c 18
        E 288 81 3c 00
        E 0 91 33 18
        E 288 81 33 00
        E 0 91 3a 18
        E 288 81 3a 00
        E 0 91 37 18
        E 288 81 37 00
        E 0 91 30 18
        E 288 81 30 00
        E 0 91 37 18
        E 144 81 37 00
        E 0 91 35 18
        E 144 81 35 00
        E 0 91 37 18
        E 288 81 37 00
        E 0 91 31 18
        E 288 81 31 00
        E 0 91 38 18
        E 576 81 38 00
        E 0 91 35 18
        E 288 81 35 00
        E 0 91 38 18
        E 144 81 38 00
        E 0 91 3a 18
        E 144 81 3a 00
        E 0 91 3c 18
        E 288 81 3c 00
        E 0 91 33 18
        E 288 81 33 00
        E 0 91 3a 18
        E 288 81 3a 00
        E 0 91 37 18
        E 288 81 37 00
        E 0 91 30 18
        E 288 81 30 00
        E 0 91 37 18
        E 144 81 37 00
        E 0 91 35 18
        E 144 81 35 00
        E 0 91 37 18
        E 288 81 37 00
        E 0 91 31 18
        E 288 81 31 00
        E 0 91 38 18
        E 576 81 38 00
        E 0 91 35 18
        E 288 81 35 00
        E 0 91 38 18
        E 144 81 38 00
        E 0 91 3a 18
        E 144 81 3a 00
        E 0 91 3c 18
        E 288 81 3c 00
        E 0 91 33 18
        E 288 81 33 00
        E 0 91 3a 18
        E 288 81 3a 00
        E 0 91 37 18
        E 288 81 37 00
        E 0 91 30 18
        E 288 81 30 00
        E 0 91 37 18
        E 144 81 37 00
        E 0 91 35 18
        E 144 81 35 00
        E 0 91 37 18
        E 288 81 37 00
        E 0 91 31 18
        E 288 81 31 00
        E 0 91 38 18
        E 576 81 38 00
        E 0 91 35 18
        E 288 81 35 00
        E 0 91 38 18
        E 144 81 38 00
        E 0 91 3a 18
        E 144 81 3a 00
        E 0 91 3c 18
        E 288 81 3c 00
        E 0 91 33 18
        E 288 81 33 00
        E 0 91 3a 18
        E 288 81 3a 00
        E 0 91 37 18
        E 288 81 37 00
        E 0 91 30 18
        E 288 81 30 00
        E 0 91 37 18
        E 144 81 37 00
        E 0 91 35 18
        E 144 81 35 00
        E 0 91 37 18
        E 288 81 37 00
        E 0 91 31 18
        E 288 81 31 00
        E 0 91 38 18
        E 576 b1 0b 78
        E 0 81 38 00
        E 0 91 35 78
        E 144 b1 0b 08
        E 0 81 35 00
        E 0 91 4f 08
        E 144 81 4f 00
        E 0 91 50 08
        E 144 81 50 00
        E 0 91 4f 08
        E 144 b1 0b 18
        E 0 81 4f 00
        E 0 91 50 18
        E 144 81 50 00
        E 0 91 4f 18
        E 144 b1 0b 78
        E 0 81 4f 00
        E 0 91 33 78
        E 144 b1 0b 28
        E 0 81 33 00
        E 0 91 4f 28
        E 144 81 4f 00
        E 0 91 50 28
        E 144 81 50 00
        E 0 91 4f 28
        E 144 b1 0b 38
        E 0 81 4f 00
        E 0 91 50 38
        E 144 81 50 00
        E 0 91 4f 38
        E 144 b1 0b 78
        E 0 81 4f 00
        E 0 91 30 78
        E 144 b1 0b 48
        E 0 81 30 00
        E 0 91 4f 48
        E 144 81 4f 00
        E 0 91 50 48
        E 144 81 50 00
        E 0 91 4f 48
        E 144 b1 0b 58
        E 0 81 4f 00
        E 0 91 50 58
        E 144 81 50 00
        E 0 91 4f 58
        E 144 b1 0b 78
        E 0 81 4f 00
        E 0 91 31 78
        E 144 b1 0b 68
        E 0 81 31 00
        E 0 91 4f 68
        E 144 81 4f 00
        E 0 91 50 68
        E 144 81 50 00
        E 0 91 4f 68
        E 144 b1 0b 78
        E 0 81 4f 00
        E 0 91 50 78
        E 144 81 50 00
        E 0 91 4f 78
        E 144 b1 0b 18
        E 0 81 4f 00
        E 0 91 35 18
        E 288 81 35 00
        E 0 91 38 18
        E 144 81 38 00
        E 0 91 3a 18
        E 144 81 3a 00
        E 0 91 3c 18
        E 288 81 3c 00
        E 0 91 33 18
        E 288 81 33 00
        E 0 91 3a 18
        E 288 81 3a 00
        E 0 91 37 18
        E 288 81 37 00
        E 0 91 30 18
        E 288 81 30 00
        E 0 91 37 18
        E 144 81 37 00
        E 0 91 35 18
        E 144 81 35 00
        E 0 91 37 18
        E 288 81 37 00
        E 0 91 31 18
        E 288 81 31 00
        E 0 91 38 18
        E 576 81 38 00
        E 0 91 35 18
        E 288 81 35 00
        E 0 91 38 18
        E 144 81 38 00
        E 0 91 3a 18
        E 144 81 3a 00
        E 0 91 3c 18
        E 288 81 3c 00
        E 0 91 33 18
        E 288 81 33 00
        E 0 91 3a 18
        E 288 81 3a 00
        E 0 91 37 18
        E 288 81 37 00
        E 0 91 30 18
        E 288 81 30 00
        E 0 91 37 18
        E 144 81 37 00
        E 0 91 35 18
        E 144 81 35 00
        E 0 91 37 18
        E 288 81 37 00
        E 0 91 31 18
        E 288 81 31 00
        E 0 91 38 18
        E 576 81 38 00
        E 0 91 35 18
        E 288 81 35 00
        E 0 91 38 18
        E 144 81 38 00
        E 0 91 3a 18
        E 144 81 3a 00
        E 0 91 3c 18
        E 288 81 3c 00
        E 0 91 33 18
        E 288 81 33 00
        E 0 91 3a 18
        E 288 81 3a 00
        E 0 91 37 18
        E 288 81 37 00
        E 0 91 30 18
        E 288 81 30 00
        E 0 91 37 18
        E 144 81 37 00
        E 0 91 35 18
        E 144 81 35 00
        E 0 91 37 18
        E 288 81 37 00
        E 0 91 31 18
        E 288 81 31 00
        E 0 91 38 18
        E 576 81 38 00
        E 0 91 35 18
        E 288 81 35 00
        E 0 91 38 18
        E 144 81 38 00
        E 0 91 3a 18
        E 144 81 3a 00
        E 0 91 3c 18
        E 288 81 3c 00
        E 0 91 33 18
        E 288 81 33 00
        E 0 91 3a 18
        E 288 81 3a 00
        E 0 91 37 18
        E 288 81 37 00
        E 0 91 30 18
        E 288 81 30 00
        E 0 91 37 18
        E 144 81 37 00
        E 0 91 35 18
        E 144 81 35 00
        E 0 91 37 18
        E 288 81 37 00
        E 0 91 31 18
        E 288 81 31 00
        E 0 91 38 18
        E 576 81 38 00
        E 0 ff 2f 00
      >
    >
  >
  <TRACK {58FAA20B-584A-414E-BBF3-78A57413552F}
    NAME "NES - Triangle [ch2]"
    PEAKCOL 16744192
    BEAT -1
    AUTOMODE 0
    PANLAWFLAGS 3
    VOLPAN 1 0 -1 -1 1
    MUTESOLO 0 0 0
    IPHASE 0
    PLAYOFFS 0 1
    ISBUS 0 0
    BUSCOMP 0 0 0 0 0
    SHOWINMIX 1 0.6667 0.5 1 0.5 0 0 0
    FIXEDLANES 9 0 0 0 0
    SEL 0
    REC 0 5088 1 0 0 0 0 0
    VU 2
    TRACKHEIGHT 0 0 0 0 0 0 0
    INQ 0 0 0 0.5 100 0 0 100
    NCHAN 2
    FX 1
    TRACKID {58FAA20B-584A-414E-BBF3-78A57413552F}
    PERF 0
    MIDIOUT -1
    MAINSEND 1 0
    <FXCHAIN
      WNDRECT 24 52 700 560
      SHOW 0
      LASTSEL 0
      DOCKED 0
      BYPASS 0 0 0
      <JS "ReapNES Studio/ReapNES_Console.jsfx" ""
        2 15 1 10 80 10 100 2 1 15 1 5 60 10 80 1 1 0 50 0 0 15 1 0 100 0 0 0.500000 0.500000 0.400000 0.300000 0.800000 2 1 0 0 0 0 - - - - - - - - - - - - - - - - - - - - - - - - - -
      >
      FLOATPOS 0 0 0 0
      FXID {7CD98737-8321-4689-90DA-B43EA2901932}
      WAK 0 0
    >
    <ITEM
      POSITION 0
      LENGTH 83.98134
      LOOP 0
      ALLTAKES 0
      FADEIN 0 0 0 0 0 0 0
      FADEOUT 0 0 0 0 0 0 0
      MUTE 0 0
      SEL 0
      IGUID {53C65542-1174-4AE9-B52A-BA33795607D4}
      <SOURCE MIDI
        HASDATA 1 480 QN
        CCINTERP 32
        E 0 c2 26
        E 0 b2 0b 7f
        E 0 92 3c 7f
        E 288 82 3c 00
        E 0 b2 0b 7f
        E 0 92 41 7f
        E 144 82 41 00
        E 0 b2 0b 7f
        E 0 92 43 7f
        E 144 82 43 00
        E 0 b2 0b 7f
        E 0 92 44 7f
        E 288 82 44 00
        E 0 b2 0b 7f
        E 0 92 43 7f
        E 288 82 43 00
        E 0 b2 0b 7f
        E 0 92 3f 7f
        E 288 82 3f 00
        E 0 b2 0b 7f
        E 0 92 3a 7f
        E 288 82 3a 00
        E 0 b2 0b 7f
        E 0 92 37 7f
        E 288 82 37 00
        E 0 b2 0b 7f
        E 0 92 3f 7f
        E 144 82 3f 00
        E 0 b2 0b 7f
        E 0 92 3e 7f
        E 144 82 3e 00
        E 0 b2 0b 7f
        E 0 92 3f 7f
        E 576 82 3f 00
        E 0 b2 0b 7f
        E 0 92 41 7f
        E 288 82 41 00
        E 0 b2 0b 7f
        E 0 92 3d 7f
        E 288 82 3d 00
        E 0 b2 0b 7f
        E 0 92 3c 7f
        E 288 82 3c 00
        E 0 b2 0b 7f
        E 0 92 41 7f
        E 144 82 41 00
        E 0 b2 0b 7f
        E 0 92 43 7f
        E 144 82 43 00
        E 0 b2 0b 7f
        E 0 92 44 7f
        E 288 82 44 00
        E 0 b2 0b 7f
        E 0 92 43 7f
        E 288 82 43 00
        E 0 b2 0b 7f
        E 0 92 3f 7f
        E 288 82 3f 00
        E 0 b2 0b 7f
        E 0 92 3a 7f
        E 288 82 3a 00
        E 0 b2 0b 7f
        E 0 92 37 7f
        E 288 82 37 00
        E 0 b2 0b 7f
        E 0 92 3f 7f
        E 144 82 3f 00
        E 0 b2 0b 7f
        E 0 92 3e 7f
        E 144 82 3e 00
        E 0 b2 0b 7f
        E 0 92 3f 7f
        E 576 82 3f 00
        E 0 b2 0b 7f
        E 0 92 41 7f
        E 288 82 41 00
        E 0 b2 0b 7f
        E 0 92 3d 7f
        E 288 82 3d 00
        E 0 b2 0b 7f
        E 0 92 3c 7f
        E 288 82 3c 00
        E 0 b2 0b 7f
        E 0 92 41 7f
        E 144 82 41 00
        E 0 b2 0b 7f
        E 0 92 43 7f
        E 144 82 43 00
        E 0 b2 0b 7f
        E 0 92 44 7f
        E 288 82 44 00
        E 0 b2 0b 7f
        E 0 92 43 7f
        E 288 82 43 00
        E 0 b2 0b 7f
        E 0 92 3f 7f
        E 288 82 3f 00
        E 0 b2 0b 7f
        E 0 92 3a 7f
        E 288 82 3a 00
        E 0 b2 0b 7f
        E 0 92 37 7f
        E 288 82 37 00
        E 0 b2 0b 7f
        E 0 92 3f 7f
        E 144 82 3f 00
        E 0 b2 0b 7f
        E 0 92 3e 7f
        E 144 82 3e 00
        E 0 b2 0b 7f
        E 0 92 3f 7f
        E 576 82 3f 00
        E 0 b2 0b 7f
        E 0 92 41 7f
        E 288 82 41 00
        E 0 b2 0b 7f
        E 0 92 3d 7f
        E 288 82 3d 00
        E 0 b2 0b 7f
        E 0 92 44 7f
        E 432 82 44 00
        E 0 b2 0b 7f
        E 0 92 43 7f
        E 144 82 43 00
        E 0 b2 0b 7f
        E 0 92 41 7f
        E 288 82 41 00
        E 0 b2 0b 7f
        E 0 92 43 7f
        E 288 82 43 00
        E 0 b2 0b 7f
        E 0 92 3f 7f
        E 288 82 3f 00
        E 0 b2 0b 7f
        E 0 92 3a 7f
        E 288 82 3a 00
        E 0 b2 0b 7f
        E 0 92 37 7f
        E 288 82 37 00
        E 0 b2 0b 7f
        E 0 92 3f 7f
        E 144 82 3f 00
        E 0 b2 0b 7f
        E 0 92 3e 7f
        E 144 82 3e 00
        E 0 b2 0b 7f
        E 0 92 3f 7f
        E 576 82 3f 00
        E 0 b2 0b 7f
        E 0 92 41 7f
        E 288 82 41 00
        E 0 b2 0b 7f
        E 0 92 3d 7f
        E 288 82 3d 00
        E 0 b2 0b 7f
        E 0 92 3c 7f
        E 288 82 3c 00
        E 0 b2 0b 7f
        E 0 92 41 7f
        E 144 82 41 00
        E 0 b2 0b 7f
        E 0 92 43 7f
        E 144 82 43 00
        E 0 b2 0b 7f
        E 0 92 44 7f
        E 288 82 44 00
        E 0 b2 0b 7f
        E 0 92 43 7f
        E 288 82 43 00
        E 0 b2 0b 7f
        E 0 92 3f 7f
        E 288 82 3f 00
        E 0 b2 0b 7f
        E 0 92 3a 7f
        E 288 82 3a 00
        E 0 b2 0b 7f
        E 0 92 37 7f
        E 288 82 37 00
        E 0 b2 0b 7f
        E 0 92 3f 7f
        E 144 82 3f 00
        E 0 b2 0b 7f
        E 0 92 3e 7f
        E 144 82 3e 00
        E 0 b2 0b 7f
        E 0 92 3f 7f
        E 576 82 3f 00
        E 0 b2 0b 7f
        E 0 92 41 7f
        E 288 82 41 00
        E 0 b2 0b 7f
        E 0 92 3d 7f
        E 288 82 3d 00
        E 0 b2 0b 7f
        E 0 92 3c 7f
        E 288 82 3c 00
        E 0 b2 0b 7f
        E 0 92 41 7f
        E 144 82 41 00
        E 0 b2 0b 7f
        E 0 92 43 7f
        E 144 82 43 00
        E 0 b2 0b 7f
        E 0 92 44 7f
        E 288 82 44 00
        E 0 b2 0b 7f
        E 0 92 43 7f
        E 288 82 43 00
        E 0 b2 0b 7f
        E 0 92 3f 7f
        E 288 82 3f 00
        E 0 b2 0b 7f
        E 0 92 3a 7f
        E 288 82 3a 00
        E 0 b2 0b 7f
        E 0 92 37 7f
        E 288 82 37 00
        E 0 b2 0b 7f
        E 0 92 3f 7f
        E 144 82 3f 00
        E 0 b2 0b 7f
        E 0 92 3e 7f
        E 144 82 3e 00
        E 0 b2 0b 7f
        E 0 92 3f 7f
        E 576 82 3f 00
        E 0 b2 0b 7f
        E 0 92 41 7f
        E 288 82 41 00
        E 0 b2 0b 7f
        E 0 92 3d 7f
        E 288 82 3d 00
        E 0 b2 0b 7f
        E 0 92 3c 7f
        E 288 82 3c 00
        E 0 b2 0b 7f
        E 0 92 41 7f
        E 144 82 41 00
        E 0 b2 0b 7f
        E 0 92 43 7f
        E 144 82 43 00
        E 0 b2 0b 7f
        E 0 92 44 7f
        E 288 82 44 00
        E 0 b2 0b 7f
        E 0 92 43 7f
        E 288 82 43 00
        E 0 b2 0b 7f
        E 0 92 3f 7f
        E 288 82 3f 00
        E 0 b2 0b 7f
        E 0 92 3a 7f
        E 288 82 3a 00
        E 0 b2 0b 7f
        E 0 92 37 7f
        E 288 82 37 00
        E 0 b2 0b 7f
        E 0 92 3f 7f
        E 144 82 3f 00
        E 0 b2 0b 7f
        E 0 92 3e 7f
        E 144 82 3e 00
        E 0 b2 0b 7f
        E 0 92 3f 7f
        E 576 82 3f 00
        E 0 b2 0b 7f
        E 0 92 41 7f
        E 288 82 41 00
        E 0 b2 0b 7f
        E 0 92 3d 7f
        E 288 82 3d 00
        E 0 b2 0b 7f
        E 0 92 3c 7f
        E 288 82 3c 00
        E 0 b2 0b 7f
        E 0 92 41 7f
        E 144 82 41 00
        E 0 b2 0b 7f
        E 0 92 43 7f
        E 144 82 43 00
        E 0 b2 0b 7f
        E 0 92 44 7f
        E 288 82 44 00
        E 0 b2 0b 7f
        E 0 92 43 7f
        E 288 82 43 00
        E 0 b2 0b 7f
        E 0 92 3f 7f
        E 288 82 3f 00
        E 0 b2 0b 7f
        E 0 92 3a 7f
        E 288 82 3a 00
        E 0 b2 0b 7f
        E 0 92 37 7f
        E 288 82 37 00
        E 0 b2 0b 7f
        E 0 92 3f 7f
        E 144 82 3f 00
        E 0 b2 0b 7f
        E 0 92 3e 7f
        E 144 82 3e 00
        E 0 b2 0b 7f
        E 0 92 3f 7f
        E 576 82 3f 00
        E 0 b2 0b 7f
        E 0 92 41 7f
        E 288 82 41 00
        E 0 b2 0b 7f
        E 0 92 3d 7f
        E 288 82 3d 00
        E 0 b2 0b 7f
        E 0 92 44 7f
        E 432 82 44 00
        E 0 b2 0b 7f
        E 0 92 43 7f
        E 144 82 43 00
        E 0 b2 0b 7f
        E 0 92 41 7f
        E 288 82 41 00
        E 0 b2 0b 7f
        E 0 92 43 7f
        E 288 82 43 00
        E 0 b2 0b 7f
        E 0 92 3f 7f
        E 288 82 3f 00
        E 0 b2 0b 7f
        E 0 92 3a 7f
        E 288 82 3a 00
        E 0 b2 0b 7f
        E 0 92 37 7f
        E 288 82 37 00
        E 0 b2 0b 7f
        E 0 92 3f 7f
        E 144 82 3f 00
        E 0 b2 0b 7f
        E 0 92 3e 7f
        E 144 82 3e 00
        E 0 b2 0b 7f
        E 0 92 3f 7f
        E 576 82 3f 00
        E 0 b2 0b 7f
        E 0 92 41 7f
        E 288 82 41 00
        E 0 b2 0b 7f
        E 0 92 3d 7f
        E 288 82 3d 00
        E 0 b2 0b 7f
        E 0 92 3c 7f
        E 288 82 3c 00
        E 0 b2 0b 7f
        E 0 92 41 7f
        E 144 82 41 00
        E 0 b2 0b 7f
        E 0 92 43 7f
        E 144 82 43 00
        E 0 b2 0b 7f
        E 0 92 44 7f
        E 288 82 44 00
        E 0 b2 0b 7f
        E 0 92 43 7f
        E 288 82 43 00
        E 0 b2 0b 7f
        E 0 92 3f 7f
        E 288 82 3f 00
        E 0 b2 0b 7f
        E 0 92 3a 7f
        E 288 82 3a 00
        E 0 b2 0b 7f
        E 0 92 37 7f
        E 288 82 37 00
        E 0 b2 0b 7f
        E 0 92 3f 7f
        E 144 82 3f 00
        E 0 b2 0b 7f
        E 0 92 3e 7f
        E 144 82 3e 00
        E 0 b2 0b 7f
        E 0 92 3f 7f
        E 576 82 3f 00
        E 0 b2 0b 7f
        E 0 92 41 7f
        E 288 82 41 00
        E 0 b2 0b 7f
        E 0 92 3d 7f
        E 288 82 3d 00
        E 0 b2 0b 7f
        E 0 92 3c 7f
        E 288 82 3c 00
        E 0 b2 0b 7f
        E 0 92 41 7f
        E 144 82 41 00
        E 0 b2 0b 7f
        E 0 92 43 7f
        E 144 82 43 00
        E 0 b2 0b 7f
        E 0 92 44 7f
        E 288 82 44 00
        E 0 b2 0b 7f
        E 0 92 43 7f
        E 288 82 43 00
        E 0 b2 0b 7f
        E 0 92 3f 7f
        E 288 82 3f 00
        E 0 b2 0b 7f
        E 0 92 3a 7f
        E 288 82 3a 00
        E 0 b2 0b 7f
        E 0 92 37 7f
        E 288 82 37 00
        E 0 b2 0b 7f
        E 0 92 3f 7f
        E 144 82 3f 00
        E 0 b2 0b 7f
        E 0 92 3e 7f
        E 144 82 3e 00
        E 0 b2 0b 7f
        E 0 92 3f 7f
        E 576 82 3f 00
        E 0 b2 0b 7f
        E 0 92 41 7f
        E 288 82 41 00
        E 0 b2 0b 7f
        E 0 92 3d 7f
        E 288 82 3d 00
        E 0 b2 0b 7f
        E 0 92 3c 7f
        E 288 82 3c 00
        E 0 b2 0b 7f
        E 0 92 41 7f
        E 144 82 41 00
        E 0 b2 0b 7f
        E 0 92 43 7f
        E 144 82 43 00
        E 0 b2 0b 7f
        E 0 92 44 7f
        E 288 82 44 00
        E 0 b2 0b 7f
        E 0 92 43 7f
        E 288 82 43 00
        E 0 b2 0b 7f
        E 0 92 3f 7f
        E 288 82 3f 00
        E 0 b2 0b 7f
        E 0 92 3a 7f
        E 288 82 3a 00
        E 0 b2 0b 7f
        E 0 92 37 7f
        E 288 82 37 00
        E 0 b2 0b 7f
        E 0 92 3f 7f
        E 144 82 3f 00
        E 0 b2 0b 7f
        E 0 92 3e 7f
        E 144 82 3e 00
        E 0 b2 0b 7f
        E 0 92 3f 7f
        E 576 82 3f 00
        E 0 b2 0b 7f
        E 0 92 41 7f
        E 288 82 41 00
        E 0 b2 0b 7f
        E 0 92 3d 7f
        E 288 82 3d 00
        E 0 b2 0b 7f
        E 0 92 3c 7f
        E 288 82 3c 00
        E 0 b2 0b 7f
        E 0 92 41 7f
        E 144 82 41 00
        E 0 b2 0b 7f
        E 0 92 43 7f
        E 144 82 43 00
        E 0 b2 0b 7f
        E 0 92 44 7f
        E 288 82 44 00
        E 0 b2 0b 7f
        E 0 92 43 7f
        E 288 82 43 00
        E 0 b2 0b 7f
        E 0 92 3f 7f
        E 288 82 3f 00
        E 0 b2 0b 7f
        E 0 92 3a 7f
        E 288 82 3a 00
        E 0 b2 0b 7f
        E 0 92 37 7f
        E 288 82 37 00
        E 0 b2 0b 7f
        E 0 92 3f 7f
        E 144 82 3f 00
        E 0 b2 0b 7f
        E 0 92 3e 7f
        E 144 82 3e 00
        E 0 b2 0b 7f
        E 0 92 3f 7f
        E 576 82 3f 00
        E 0 b2 0b 7f
        E 0 92 41 7f
        E 288 82 41 00
        E 0 b2 0b 7f
        E 0 92 3d 7f
        E 288 82 3d 00
        E 0 b2 0b 7f
        E 0 92 44 7f
        E 432 82 44 00
        E 0 b2 0b 7f
        E 0 92 43 7f
        E 144 82 43 00
        E 0 b2 0b 7f
        E 0 92 41 7f
        E 288 82 41 00
        E 0 b2 0b 7f
        E 0 92 43 7f
        E 288 82 43 00
        E 0 b2 0b 7f
        E 0 92 3f 7f
        E 288 82 3f 00
        E 0 b2 0b 7f
        E 0 92 3a 7f
        E 288 82 3a 00
        E 0 b2 0b 7f
        E 0 92 37 7f
        E 288 82 37 00
        E 0 b2 0b 7f
        E 0 92 3f 7f
        E 144 82 3f 00
        E 0 b2 0b 7f
        E 0 92 3e 7f
        E 144 82 3e 00
        E 0 b2 0b 7f
        E 0 92 3f 7f
        E 576 82 3f 00
        E 0 b2 0b 7f
        E 0 92 41 7f
        E 288 82 41 00
        E 0 b2 0b 7f
        E 0 92 3d 7f
        E 288 82 3d 00
        E 0 b2 0b 7f
        E 0 92 3c 7f
        E 288 82 3c 00
        E 0 b2 0b 7f
        E 0 92 41 7f
        E 144 82 41 00
        E 0 b2 0b 7f
        E 0 92 43 7f
        E 144 82 43 00
        E 0 b2 0b 7f
        E 0 92 44 7f
        E 288 82 44 00
        E 0 b2 0b 7f
        E 0 92 43 7f
        E 288 82 43 00
        E 0 b2 0b 7f
        E 0 92 3f 7f
        E 288 82 3f 00
        E 0 b2 0b 7f
        E 0 92 3a 7f
        E 288 82 3a 00
        E 0 b2 0b 7f
        E 0 92 37 7f
        E 288 82 37 00
        E 0 b2 0b 7f
        E 0 92 3f 7f
        E 144 82 3f 00
        E 0 b2 0b 7f
        E 0 92 3e 7f
        E 144 82 3e 00
        E 0 b2 0b 7f
        E 0 92 3f 7f
        E 576 82 3f 00
        E 0 b2 0b 7f
        E 0 92 41 7f
        E 288 82 41 00
        E 0 b2 0b 7f
        E 0 92 3d 7f
        E 288 82 3d 00
        E 0 b2 0b 7f
        E 0 92 3c 7f
        E 288 82 3c 00
        E 0 b2 0b 7f
        E 0 92 41 7f
        E 144 82 41 00
        E 0 b2 0b 7f
        E 0 92 43 7f
        E 144 82 43 00
        E 0 b2 0b 7f
        E 0 92 44 7f
        E 288 82 44 00
        E 0 b2 0b 7f
        E 0 92 43 7f
        E 288 82 43 00
        E 0 b2 0b 7f
        E 0 92 3f 7f
        E 288 82 3f 00
        E 0 b2 0b 7f
        E 0 92 3a 7f
        E 288 82 3a 00
        E 0 b2 0b 7f
        E 0 92 37 7f
        E 288 82 37 00
        E 0 b2 0b 7f
        E 0 92 3f 7f
        E 144 82 3f 00
        E 0 b2 0b 7f
        E 0 92 3e 7f
        E 144 82 3e 00
        E 0 b2 0b 7f
        E 0 92 3f 7f
        E 576 82 3f 00
        E 0 b2 0b 7f
        E 0 92 41 7f
        E 288 82 41 00
        E 0 b2 0b 7f
        E 0 92 3d 7f
        E 288 82 3d 00
        E 0 b2 0b 7f
        E 0 92 3c 7f
        E 288 82 3c 00
        E 0 b2 0b 7f
        E 0 92 41 7f
        E 144 82 41 00
        E 0 b2 0b 7f
        E 0 92 43 7f
        E 144 82 43 00
        E 0 b2 0b 7f
        E 0 92 44 7f
        E 288 82 44 00
        E 0 b2 0b 7f
        E 0 92 43 7f
        E 288 82 43 00
        E 0 b2 0b 7f
        E 0 92 3f 7f
        E 288 82 3f 00
        E 0 b2 0b 7f
        E 0 92 3a 7f
        E 288 82 3a 00
        E 0 b2 0b 7f
        E 0 92 37 7f
        E 288 82 37 00
        E 0 b2 0b 7f
        E 0 92 3f 7f
        E 144 82 3f 00
        E 0 b2 0b 7f
        E 0 92 3e 7f
        E 144 82 3e 00
        E 0 b2 0b 7f
        E 0 92 3f 7f
        E 576 82 3f 00
        E 0 b2 0b 7f
        E 0 92 41 7f
        E 288 82 41 00
        E 0 b2 0b 7f
        E 0 92 3d 7f
        E 288 82 3d 00
        E 0 b2 0b 7f
        E 0 92 3c 7f
        E 288 82 3c 00
        E 0 b2 0b 7f
        E 0 92 41 7f
        E 144 82 41 00
        E 0 b2 0b 7f
        E 0 92 43 7f
        E 144 82 43 00
        E 0 b2 0b 7f
        E 0 92 44 7f
        E 288 82 44 00
        E 0 b2 0b 7f
        E 0 92 43 7f
        E 288 82 43 00
        E 0 b2 0b 7f
        E 0 92 3f 7f
        E 288 82 3f 00
        E 0 b2 0b 7f
        E 0 92 3a 7f
        E 288 82 3a 00
        E 0 b2 0b 7f
        E 0 92 37 7f
        E 288 82 37 00
        E 0 b2 0b 7f
        E 0 92 3f 7f
        E 144 82 3f 00
        E 0 b2 0b 7f
        E 0 92 3e 7f
        E 144 82 3e 00
        E 0 b2 0b 7f
        E 0 92 3f 7f
        E 576 82 3f 00
        E 0 b2 0b 7f
        E 0 92 41 7f
        E 288 82 41 00
        E 0 b2 0b 7f
        E 0 92 3d 7f
        E 288 82 3d 00
        E 0 b2 0b 7f
        E 0 92 44 7f
        E 432 82 44 00
        E 0 b2 0b 7f
        E 0 92 43 7f
        E 144 82 43 00
        E 0 b2 0b 7f
        E 0 92 41 7f
        E 288 82 41 00
        E 0 b2 0b 7f
        E 0 92 43 7f
        E 288 82 43 00
        E 0 b2 0b 7f
        E 0 92 3f 7f
        E 288 82 3f 00
        E 0 b2 0b 7f
        E 0 92 3a 7f
        E 288 82 3a 00
        E 0 b2 0b 7f
        E 0 92 37 7f
        E 288 82 37 00
        E 0 b2 0b 7f
        E 0 92 3f 7f
        E 144 82 3f 00
        E 0 b2 0b 7f
        E 0 92 3e 7f
        E 144 82 3e 00
        E 0 b2 0b 7f
        E 0 92 3f 7f
        E 576 82 3f 00
        E 0 b2 0b 7f
        E 0 92 41 7f
        E 288 82 41 00
        E 0 b2 0b 7f
        E 0 92 3d 7f
        E 288 82 3d 00
        E 0 b2 0b 7f
        E 0 92 3c 7f
        E 288 82 3c 00
        E 0 b2 0b 7f
        E 0 92 41 7f
        E 144 82 41 00
        E 0 b2 0b 7f
        E 0 92 43 7f
        E 144 82 43 00
        E 0 b2 0b 7f
        E 0 92 44 7f
        E 288 82 44 00
        E 0 b2 0b 7f
        E 0 92 43 7f
        E 288 82 43 00
        E 0 b2 0b 7f
        E 0 92 3f 7f
        E 288 82 3f 00
        E 0 b2 0b 7f
        E 0 92 3a 7f
        E 288 82 3a 00
        E 0 b2 0b 7f
        E 0 92 37 7f
        E 288 82 37 00
        E 0 b2 0b 7f
        E 0 92 3f 7f
        E 144 82 3f 00
        E 0 b2 0b 7f
        E 0 92 3e 7f
        E 144 82 3e 00
        E 0 b2 0b 7f
        E 0 92 3f 7f
        E 576 82 3f 00
        E 0 b2 0b 7f
        E 0 92 41 7f
        E 288 82 41 00
        E 0 b2 0b 7f
        E 0 92 3d 7f
        E 288 82 3d 00
        E 0 b2 0b 7f
        E 0 92 3c 7f
        E 288 82 3c 00
        E 0 b2 0b 7f
        E 0 92 41 7f
        E 144 82 41 00
        E 0 b2 0b 7f
        E 0 92 43 7f
        E 144 82 43 00
        E 0 b2 0b 7f
        E 0 92 44 7f
        E 288 82 44 00
        E 0 b2 0b 7f
        E 0 92 43 7f
        E 288 82 43 00
        E 0 b2 0b 7f
        E 0 92 3f 7f
        E 288 82 3f 00
        E 0 b2 0b 7f
        E 0 92 3a 7f
        E 288 82 3a 00
        E 0 b2 0b 7f
        E 0 92 37 7f
        E 288 82 37 00
        E 0 b2 0b 7f
        E 0 92 3f 7f
        E 144 82 3f 00
        E 0 b2 0b 7f
        E 0 92 3e 7f
        E 144 82 3e 00
        E 0 b2 0b 7f
        E 0 92 3f 7f
        E 576 82 3f 00
        E 0 b2 0b 7f
        E 0 92 41 7f
        E 288 82 41 00
        E 0 b2 0b 7f
        E 0 92 3d 7f
        E 288 82 3d 00
        E 0 b2 0b 7f
        E 0 92 3c 7f
        E 288 82 3c 00
        E 0 b2 0b 7f
        E 0 92 41 7f
        E 144 82 41 00
        E 0 b2 0b 7f
        E 0 92 43 7f
        E 144 82 43 00
        E 0 b2 0b 7f
        E 0 92 44 7f
        E 288 82 44 00
        E 0 b2 0b 7f
        E 0 92 43 7f
        E 288 82 43 00
        E 0 b2 0b 7f
        E 0 92 3f 7f
        E 288 82 3f 00
        E 0 b2 0b 7f
        E 0 92 3a 7f
        E 288 82 3a 00
        E 0 b2 0b 7f
        E 0 92 37 7f
        E 288 82 37 00
        E 0 b2 0b 7f
        E 0 92 3f 7f
        E 144 82 3f 00
        E 0 b2 0b 7f
        E 0 92 3e 7f
        E 144 82 3e 00
        E 0 b2 0b 7f
        E 0 92 3f 7f
        E 576 82 3f 00
        E 0 b2 0b 7f
        E 0 92 41 7f
        E 288 82 41 00
        E 0 b2 0b 7f
        E 0 92 3d 7f
        E 288 82 3d 00
        E 0 b2 0b 7f
        E 0 92 3c 7f
        E 288 82 3c 00
        E 0 b2 0b 7f
        E 0 92 41 7f
        E 144 82 41 00
        E 0 b2 0b 7f
        E 0 92 43 7f
        E 144 82 43 00
        E 0 b2 0b 7f
        E 0 92 44 7f
        E 288 82 44 00
        E 0 b2 0b 7f
        E 0 92 43 7f
        E 288 82 43 00
        E 0 b2 0b 7f
        E 0 92 3f 7f
        E 288 82 3f 00
        E 0 b2 0b 7f
        E 0 92 3a 7f
        E 288 82 3a 00
        E 0 b2 0b 7f
        E 0 92 37 7f
        E 288 82 37 00
        E 0 b2 0b 7f
        E 0 92 3f 7f
        E 144 82 3f 00
        E 0 b2 0b 7f
        E 0 92 3e 7f
        E 144 82 3e 00
        E 0 b2 0b 7f
        E 0 92 3f 7f
        E 576 82 3f 00
        E 0 b2 0b 7f
        E 0 92 41 7f
        E 288 82 41 00
        E 0 b2 0b 7f
        E 0 92 3d 7f
        E 288 82 3d 00
        E 0 b2 0b 7f
        E 0 92 44 7f
        E 432 82 44 00
        E 0 b2 0b 7f
        E 0 92 43 7f
        E 144 82 43 00
        E 0 b2 0b 7f
        E 0 92 41 7f
        E 288 82 41 00
        E 0 b2 0b 7f
        E 0 92 43 7f
        E 288 82 43 00
        E 0 b2 0b 7f
        E 0 92 3f 7f
        E 288 82 3f 00
        E 0 b2 0b 7f
        E 0 92 3a 7f
        E 288 82 3a 00
        E 0 b2 0b 7f
        E 0 92 37 7f
        E 288 82 37 00
        E 0 b2 0b 7f
        E 0 92 3f 7f
        E 144 82 3f 00
        E 0 b2 0b 7f
        E 0 92 3e 7f
        E 144 82 3e 00
        E 0 b2 0b 7f
        E 0 92 3f 7f
        E 576 82 3f 00
        E 0 b2 0b 7f
        E 0 92 41 7f
        E 288 82 41 00
        E 0 b2 0b 7f
        E 0 92 3d 7f
        E 288 82 3d 00
        E 0 b2 0b 7f
        E 0 92 3c 7f
        E 288 82 3c 00
        E 0 b2 0b 7f
        E 0 92 41 7f
        E 144 82 41 00
        E 0 b2 0b 7f
        E 0 92 43 7f
        E 144 82 43 00
        E 0 b2 0b 7f
        E 0 92 44 7f
        E 288 82 44 00
        E 0 b2 0b 7f
        E 0 92 43 7f
        E 288 82 43 00
        E 0 b2 0b 7f
        E 0 92 3f 7f
        E 288 82 3f 00
        E 0 b2 0b 7f
        E 0 92 3a 7f
        E 288 82 3a 00
        E 0 b2 0b 7f
        E 0 92 37 7f
        E 288 82 37 00
        E 0 b2 0b 7f
        E 0 92 3f 7f
        E 144 82 3f 00
        E 0 b2 0b 7f
        E 0 92 3e 7f
        E 144 82 3e 00
        E 0 b2 0b 7f
        E 0 92 3f 7f
        E 576 82 3f 00
        E 0 b2 0b 7f
        E 0 92 41 7f
        E 288 82 41 00
        E 0 b2 0b 7f
        E 0 92 3d 7f
        E 288 82 3d 00
        E 0 ff 2f 00
      >
    >
  >
  <TRACK {D6F3C185-1A87-4E1A-97E9-35891C5C9516}
    NAME "NES - Noise / Drums"
    PEAKCOL 11184810
    BEAT -1
    AUTOMODE 0
    PANLAWFLAGS 3
    VOLPAN 1 0 -1 -1 1
    MUTESOLO 0 0 0
    IPHASE 0
    PLAYOFFS 0 1
    ISBUS 0 0
    BUSCOMP 0 0 0 0 0
    SHOWINMIX 1 0.6667 0.5 1 0.5 0 0 0
    FIXEDLANES 9 0 0 0 0
    SEL 0
    REC 0 5088 1 0 0 0 0 0
    VU 2
    TRACKHEIGHT 0 0 0 0 0 0 0
    INQ 0 0 0 0.5 100 0 0 100
    NCHAN 2
    FX 1
    TRACKID {D6F3C185-1A87-4E1A-97E9-35891C5C9516}
    PERF 0
    MIDIOUT -1
    MAINSEND 1 0
    <FXCHAIN
      WNDRECT 24 52 700 560
      SHOW 0
      LASTSEL 0
      DOCKED 0
      BYPASS 0 0 0
      <JS "ReapNES Studio/ReapNES_Console.jsfx" ""
        2 15 1 10 80 10 100 2 1 15 1 5 60 10 80 1 1 0 50 0 0 15 1 0 100 0 0 0.500000 0.500000 0.400000 0.300000 0.800000 3 1 0 0 0 0 - - - - - - - - - - - - - - - - - - - - - - - - - -
      >
      FLOATPOS 0 0 0 0
      FXID {B4842B2D-1C16-44B9-9BCD-720F8A753A62}
      WAK 0 0
    >
  >
>