<REAPER_PROJECT 0.1 "7.27/win64" 1707000000
  <NOTES 0 2
    |ReapNES Studio Project
    |MIDI Import - Mighty_Final_Fight_title_rom_v1
  >
  RIPPLE 0
  GROUPOVERRIDE 0 0 0
  AUTOXFADE 129
  ENVATTACH 3
  POOLEDENVATTACH 0
  MIXERUIFLAGS 11 48
  ENVFADESZ10 40
  PEAKGAIN 1
  FEEDBACK 0
  PANLAW 1
  PROJOFFS 0 0 0
  MAXPROJLEN 0 0
  GRID 3199 8 1 8 1 0 0 0
  TIMEMODE 1 5 -1 30 0 0 -1
  VIDEO_CONFIG 0 0 65792
  PANMODE 3
  PANLAWFLAGS 3
  CURSOR 0
  ZOOM 100 0 0
  VZOOMEX 6 0
  USE_REC_CFG 0
  RECMODE 1
  SMPTESYNC 0 30 100 40 1000 300 0 0 1 0 0
  LOOP 0
  LOOPGRAN 0 4
  RECORD_PATH "Media" ""
  <RECORD_CFG
    ZXZhdxgAAQ==
  >
  <APPLYFX_CFG
  >
  RENDER_FILE ""
  RENDER_PATTERN ""
  RENDER_FMT 0 2 0
  RENDER_1X 0
  RENDER_RANGE 1 0 0 18 1000
  RENDER_RESAMPLE 3 0 1
  RENDER_ADDTOPROJ 0
  RENDER_STEMS 0
  RENDER_DITHER 0
  TIMELOCKMODE 1
  TEMPOENVLOCKMODE 1
  ITEMMIX 1
  DEFPITCHMODE 589824 0
  TAKELANE 1
  SAMPLERATE 44100 0 0
  <RENDER_CFG
    ZXZhdxgAAQ==
  >
  LOCK 1
  <METRONOME 6 2
    VOL 0.25 0.125
    BEATLEN 4
    FREQ 1760 880 1
    SAMPLES "" ""
    SPLIGNORE 0 0
    SPLDEF 2 660 "" 0
    SPLDEF 3 440 "" 0
    PATTERN 0 169
    PATTERNSTR ABBB
    MULT 1
  >
  GLOBAL_AUTO -1
  TEMPO 128.59999614200012 4 4
  PLAYRATE 1 0 0.25 4
  SELECTION 0 0
  SELECTION2 0 0
  MASTERAUTOMODE 0
  MASTERTRACKHEIGHT 0 0
  MASTERPEAKCOL 16576
  MASTERMUTESOLO 0
  MASTERTRACKVIEW 0 0.6667 0.5 0.5 0 0 0 0 0 0 0 0 0 0
  MASTERHWOUT 0 0 1 0 0 0 0 -1
  MASTER_NCH 2 2
  MASTER_VOLUME 1 0 -1 -1 1
  MASTER_PANMODE 3
  MASTER_PANLAWFLAGS 3
  MASTER_FX 1
  MASTER_SEL 0
  <MASTERPLAYSPEEDENV
    EGUID {DEEBD72A-D740-40EB-A3CA-E05A980D9DC6}
    ACT 0 -1
    VIS 0 1 1
    LANEHEIGHT 0 0
    ARM 0
    DEFSHAPE 0 -1 -1
  >
  <TEMPOENVEX
    EGUID {DC8517E5-FE7D-4BAF-ABBD-65F5FAB9B484}
    ACT 1 -1
    VIS 1 0 1
    LANEHEIGHT 0 0
    ARM 0
    DEFSHAPE 1 -1 -1
  >
  <PROJBAY
  >
  <TRACK {2312C5D7-C851-4904-B982-639533D553C7}
    NAME "NES - Pulse 1 [ch0]"
    PEAKCOL 16576606
    BEAT -1
    AUTOMODE 0
    PANLAWFLAGS 3
    VOLPAN 1 0 -1 -1 1
    MUTESOLO 0 0 0
    IPHASE 0
    PLAYOFFS 0 1
    ISBUS 0 0
    BUSCOMP 0 0 0 0 0
    SHOWINMIX 1 0.6667 0.5 1 0.5 0 0 0
    FIXEDLANES 9 0 0 0 0
    SEL 1
    REC 1 5088 1 0 0 0 0 0
    VU 2
    TRACKHEIGHT 0 0 0 0 0 0 0
    INQ 0 0 0 0.5 100 0 0 100
    NCHAN 2
    FX 1
    TRACKID {2312C5D7-C851-4904-B982-639533D553C7}
    PERF 0
    MIDIOUT -1
    MAINSEND 1 0
    <FXCHAIN
      WNDRECT 24 52 700 560
      SHOW 0
      LASTSEL 0
      DOCKED 0
      BYPASS 0 0 0
      <JS "ReapNES Studio/ReapNES_Console.jsfx" ""
        2 15 1 10 80 10 100 2 1 15 1 5 60 10 80 1 1 0 50 0 0 15 1 0 100 0 0 0.500000 0.500000 0.400000 0.300000 0.800000 0 1 0 0 0 0 - - - - - - - - - - - - - - - - - - - - - - - - - -
      >
      FLOATPOS 0 0 0 0
      FXID {B8615FD6-89D8-4A6D-8C68-171B8854E592}
      WAK 0 0
    >
    <ITEM
      POSITION 0
      LENGTH 68.8491467
      LOOP 0
      ALLTAKES 0
      FADEIN 0 0 0 0 0 0 0
      FADEOUT 0 0 0 0 0 0 0
      MUTE 0 0
      SEL 0
      IGUID {6967ADFB-1ADA-4120-855A-EB78C456721E}
      <SOURCE MIDI
        HASDATA 1 480 QN
        CCINTERP 32
        E 0 c0 50
        E 26688 b0 0c 20
        E 0 b0 0b 19
        E 0 90 46 19
        E 16 b0 0b 5d
        E 16 b0 0b 4c
        E 16 b0 0b 44
        E 192 b0 0b 33
        E 16 b0 0b 2a
        E 16 b0 0b 19
        E 0 80 46 00
        E 0 90 41 19
        E 16 b0 0b 5d
        E 16 b0 0b 4c
        E 16 b0 0b 44
        E 192 b0 0b 33
        E 16 b0 0b 2a
        E 16 b0 0b 19
        E 0 80 41 00
        E 0 90 3d 19
        E 16 b0 0b 5d
        E 16 b0 0b 4c
        E 16 b0 0b 44
        E 112 b0 0b 33
        E 16 b0 0b 2a
        E 16 b0 0b 19
        E 0 80 3d 00
        E 0 90 3a 19
        E 16 b0 0b 5d
        E 16 b0 0b 4c
        E 16 b0 0b 44
        E 1344 b0 0b 33
        E 16 b0 0b 2a
        E 16 b0 0b 22
        E 16 b0 0b 19
        E 16 b0 0b 08
        E 16 b0 0b 19
        E 0 80 3a 00
        E 0 90 3c 19
        E 16 b0 0b 5d
        E 16 b0 0b 4c
        E 16 b0 0b 44
        E 1344 b0 0b 33
        E 16 b0 0b 2a
        E 16 b0 0b 22
        E 16 b0 0b 19
        E 16 b0 0b 08
        E 16 b0 0b 19
        E 0 80 3c 00
        E 0 90 3d 19
        E 16 b0 0b 5d
        E 16 b0 0b 4c
        E 16 b0 0b 44
        E 1344 b0 0b 33
        E 16 b0 0b 2a
        E 16 b0 0b 22
        E 16 b0 0b 19
        E 16 b0 0b 08
        E 16 b0 0b 19
        E 0 80 3d 00
        E 0 90 3c 19
        E 16 b0 0b 5d
        E 16 b0 0b 4c
        E 16 b0 0b 44
        E 1344 b0 0b 33
        E 16 b0 0b 2a
        E 16 b0 0b 22
        E 16 b0 0b 19
        E 16 b0 0b 08
        E 16 b0 0b 19
        E 0 80 3c 00
        E 0 90 3a 19
        E 16 b0 0b 5d
        E 16 b0 0b 4c
        E 16 b0 0b 44
        E 1344 b0 0b 33
        E 16 b0 0b 2a
        E 16 b0 0b 22
        E 16 b0 0b 19
        E 16 b0 0b 08
        E 16 b0 0b 19
        E 0 80 3a 00
        E 0 90 3c 19
        E 16 b0 0b 5d
        E 16 b0 0b 4c
        E 16 b0 0b 44
        E 1344 b0 0b 33
        E 16 b0 0b 2a
        E 16 b0 0b 22
        E 16 b0 0b 19
        E 16 b0 0b 08
        E 16 b0 0b 19
        E 0 80 3c 00
        E 0 90 3d 19
        E 16 b0 0b 5d
        E 16 b0 0b 4c
        E 16 b0 0b 44
        E 1344 b0 0b 33
        E 16 b0 0b 2a
        E 16 b0 0b 22
        E 16 b0 0b 19
        E 16 b0 0b 08
        E 16 b0 0b 19
        E 0 80 3d 00
        E 0 90 41 19
        E 16 b0 0b 5d
        E 16 b0 0b 4c
        E 16 b0 0b 44
        E 1344 b0 0b 33
        E 16 b0 0b 2a
        E 16 b0 0b 22
        E 16 b0 0b 19
        E 16 b0 0b 08
        E 16 b0 0b 19
        E 0 80 41 00
        E 0 90 39 19
        E 16 b0 0b 5d
        E 16 b0 0b 4c
        E 16 b0 0b 44
        E 80 b0 0b 33
        E 16 b0 0b 2a
        E 16 b0 0b 22
        E 16 b0 0b 19
        E 16 80 39 00
        E 0 90 3a 19
        E 16 b0 0b 5d
        E 16 b0 0b 4c
        E 16 b0 0b 44
        E 112 b0 0b 33
        E 16 b0 0b 2a
        E 16 b0 0b 19
        E 0 80 3a 00
        E 0 90 3d 19
        E 16 b0 0b 5d
        E 16 b0 0b 4c
        E 16 b0 0b 44
        E 32 b0 0b 33
        E 16 b0 0b 19
        E 0 80 3d 00
        E 0 90 3a 19
        E 16 b0 0b 5d
        E 16 b0 0b 4c
        E 16 b0 0b 44
        E 112 b0 0b 33
        E 16 b0 0b 2a
        E 16 b0 0b 19
        E 0 80 3a 00
        E 0 90 3f 19
        E 16 b0 0b 5d
        E 16 b0 0b 4c
        E 16 b0 0b 44
        E 224 b0 0b 33
        E 16 b0 0b 19
        E 0 80 3f 00
        E 0 90 41 19
        E 16 b0 0b 5d
        E 16 b0 0b 4c
        E 16 b0 0b 44
        E 112 b0 0b 33
        E 16 b0 0b 2a
        E 16 b0 0b 19
        E 0 80 41 00
        E 0 90 3f 19
        E 16 b0 0b 5d
        E 16 b0 0b 4c
        E 16 b0 0b 44
        E 112 b0 0b 33
        E 16 b0 0b 2a
        E 16 b0 0b 19
        E 0 80 3f 00
        E 0 90 3d 19
        E 16 b0 0b 5d
        E 16 b0 0b 4c
        E 16 b0 0b 44
        E 112 b0 0b 33
        E 16 b0 0b 2a
        E 16 b0 0b 19
        E 0 80 3d 00
        E 0 90 39 19
        E 16 b0 0b 5d
        E 16 b0 0b 4c
        E 16 b0 0b 44
        E 80 b0 0b 33
        E 16 b0 0b 2a
        E 16 b0 0b 22
        E 16 b0 0b 19
        E 16 80 39 00
        E 0 90 3a 19
        E 16 b0 0b 5d
        E 16 b0 0b 4c
        E 16 b0 0b 44
        E 112 b0 0b 33
        E 16 b0 0b 2a
        E 16 b0 0b 19
        E 0 80 3a 00
        E 0 90 3d 19
        E 16 b0 0b 5d
        E 16 b0 0b 4c
        E 16 b0 0b 44
        E 32 b0 0b 33
        E 16 b0 0b 19
        E 0 80 3d 00
        E 0 90 3a 19
        E 16 b0 0b 5d
        E 16 b0 0b 4c
        E 16 b0 0b 44
        E 112 b0 0b 33
        E 16 b0 0b 2a
        E 16 b0 0b 19
        E 0 80 3a 00
        E 0 90 38 19
        E 16 b0 0b 5d
        E 16 b0 0b 4c
        E 16 b0 0b 44
        E 112 b0 0b 33
        E 16 b0 0b 2a
        E 16 b0 0b 19
        E 0 80 38 00
        E 0 90 39 19
        E 16 b0 0b 5d
        E 16 b0 0b 4c
        E 16 b0 0b 44
        E 32 b0 0b 33
        E 16 b0 0b 19
        E 0 80 39 00
        E 0 90 3a 19
        E 16 b0 0b 5d
        E 16 b0 0b 4c
        E 16 b0 0b 44
        E 480 b0 0b 33
        E 16 b0 0b 2a
        E 16 b0 0b 22
        E 16 b0 0b 19
        E 0 80 3a 00
        E 0 90 39 19
        E 16 b0 0b 5d
        E 16 b0 0b 4c
        E 16 b0 0b 44
        E 80 b0 0b 33
        E 16 b0 0b 2a
        E 16 b0 0b 22
        E 16 b0 0b 19
        E 16 80 39 00
        E 0 90 3a 19
        E 16 b0 0b 5d
        E 16 b0 0b 4c
        E 16 b0 0b 44
        E 112 b0 0b 33
        E 16 b0 0b 2a
        E 16 b0 0b 19
        E 0 80 3a 00
        E 0 90 3d 19
        E 16 b0 0b 5d
        E 16 b0 0b 4c
        E 16 b0 0b 44
        E 32 b0 0b 33
        E 16 b0 0b 19
        E 0 80 3d 00
        E 0 90 3a 19
        E 16 b0 0b 5d
        E 16 b0 0b 4c
        E 16 b0 0b 44
        E 112 b0 0b 33
        E 16 b0 0b 2a
        E 16 b0 0b 19
        E 0 80 3a 00
        E 0 90 3f 19
        E 16 b0 0b 5d
        E 16 b0 0b 4c
        E 16 b0 0b 44
        E 224 b0 0b 33
        E 16 b0 0b 19
        E 0 80 3f 00
        E 0 90 41 19
        E 16 b0 0b 5d
        E 16 b0 0b 4c
        E 16 b0 0b 44
        E 112 b0 0b 33
        E 16 b0 0b 2a
        E 16 b0 0b 19
        E 0 80 41 00
        E 0 90 3f 19
        E 16 b0 0b 5d
        E 16 b0 0b 4c
        E 16 b0 0b 44
        E 112 b0 0b 33
        E 16 b0 0b 2a
        E 16 b0 0b 19
        E 0 80 3f 00
        E 0 90 3d 19
        E 16 b0 0b 5d
        E 16 b0 0b 4c
        E 16 b0 0b 44
        E 112 b0 0b 33
        E 16 b0 0b 2a
        E 16 b0 0b 19
        E 0 80 3d 00
        E 0 90 39 19
        E 16 b0 0b 5d
        E 16 b0 0b 4c
        E 16 b0 0b 44
        E 80 b0 0b 33
        E 16 b0 0b 2a
        E 16 b0 0b 22
        E 16 b0 0b 19
        E 16 80 39 00
        E 0 90 3a 19
        E 16 b0 0b 5d
        E 16 b0 0b 4c
        E 16 b0 0b 44
        E 112 b0 0b 33
        E 16 b0 0b 2a
        E 16 b0 0b 19
        E 0 80 3a 00
        E 0 90 3d 19
        E 16 b0 0b 5d
        E 16 b0 0b 4c
        E 16 b0 0b 44
        E 32 b0 0b 33
        E 16 b0 0b 19
        E 0 80 3d 00
        E 0 90 3a 19
        E 16 b0 0b 5d
        E 16 b0 0b 4c
        E 16 b0 0b 44
        E 112 b0 0b 33
        E 16 b0 0b 2a
        E 16 b0 0b 19
        E 0 80 3a 00
        E 0 90 3f 19
        E 16 b0 0b 5d
        E 16 b0 0b 4c
        E 16 b0 0b 44
        E 224 b0 0b 33
        E 16 b0 0b 19
        E 0 80 3f 00
        E 0 90 41 19
        E 16 b0 0b 5d
        E 16 b0 0b 4c
        E 16 b0 0b 44
        E 480 b0 0b 33
        E 16 b0 0b 2a
        E 16 b0 0b 22
        E 16 b0 0b 19
        E 0 80 41 00
        E 0 90 39 19
        E 16 b0 0b 5d
        E 16 b0 0b 4c
        E 16 b0 0b 44
        E 80 b0 0b 33
        E 16 b0 0b 2a
        E 16 b0 0b 22
        E 16 b0 0b 19
        E 16 80 39 00
        E 0 90 3a 19
        E 16 b0 0b 5d
        E 16 b0 0b 4c
        E 16 b0 0b 44
        E 112 b0 0b 33
        E 16 b0 0b 2a
        E 16 b0 0b 19
        E 0 80 3a 00
        E 0 90 3d 19
        E 16 b0 0b 5d
        E 16 b0 0b 4c
        E 16 b0 0b 44
        E 32 b0 0b 33
        E 16 b0 0b 19
        E 0 80 3d 00
        E 0 90 3a 19
        E 16 b0 0b 5d
        E 16 b0 0b 4c
        E 16 b0 0b 44
        E 112 b0 0b 33
        E 16 b0 0b 2a
        E 16 b0 0b 19
        E 0 80 3a 00
        E 0 90 3f 19
        E 16 b0 0b 5d
        E 16 b0 0b 4c
        E 16 b0 0b 44
        E 224 b0 0b 33
        E 16 b0 0b 19
        E 0 80 3f 00
        E 0 90 41 19
        E 16 b0 0b 5d
        E 16 b0 0b 4c
        E 16 b0 0b 44
        E 112 b0 0b 33
        E 16 b0 0b 2a
        E 16 b0 0b 19
        E 0 80 41 00
        E 0 90 3f 19
        E 16 b0 0b 5d
        E 16 b0 0b 4c
        E 16 b0 0b 44
        E 112 b0 0b 33
        E 16 b0 0b 2a
        E 16 b0 0b 19
        E 0 80 3f 00
        E 0 90 3d 19
        E 16 b0 0b 5d
        E 16 b0 0b 4c
        E 16 b0 0b 44
        E 112 b0 0b 33
        E 16 b0 0b 2a
        E 16 b0 0b 19
        E 0 80 3d 00
        E 0 90 39 19
        E 16 b0 0b 5d
        E 16 b0 0b 4c
        E 16 b0 0b 44
        E 80 b0 0b 33
        E 16 b0 0b 2a
        E 16 b0 0b 22
        E 16 b0 0b 19
        E 16 80 39 00
        E 0 90 3a 19
        E 16 b0 0b 5d
        E 16 b0 0b 4c
        E 16 b0 0b 44
        E 112 b0 0b 33
        E 16 b0 0b 2a
        E 16 b0 0b 19
        E 0 80 3a 00
        E 0 90 3d 19
        E 16 b0 0b 5d
        E 16 b0 0b 4c
        E 16 b0 0b 44
        E 32 b0 0b 33
        E 16 b0 0b 19
        E 0 80 3d 00
        E 0 90 3a 19
        E 16 b0 0b 5d
        E 16 b0 0b 4c
        E 16 b0 0b 44
        E 112 b0 0b 33
        E 16 b0 0b 2a
        E 16 b0 0b 19
        E 0 80 3a 00
        E 0 90 38 19
        E 16 b0 0b 5d
        E 16 b0 0b 4c
        E 16 b0 0b 44
        E 112 b0 0b 33
        E 16 b0 0b 2a
        E 16 b0 0b 19
        E 0 80 38 00
        E 0 90 39 19
        E 16 b0 0b 5d
        E 16 b0 0b 4c
        E 16 b0 0b 44
        E 32 b0 0b 33
        E 16 b0 0b 19
        E 0 80 39 00
        E 0 90 3a 19
        E 16 b0 0b 5d
        E 16 b0 0b 4c
        E 16 b0 0b 44
        E 480 b0 0b 33
        E 16 b0 0b 2a
        E 16 b0 0b 22
        E 16 b0 0b 19
        E 0 80 3a 00
        E 0 90 39 19
        E 16 b0 0b 5d
        E 16 b0 0b 4c
        E 16 b0 0b 44
        E 80 b0 0b 33
        E 16 b0 0b 2a
        E 16 b0 0b 22
        E 16 b0 0b 19
        E 16 80 39 00
        E 0 90 3a 19
        E 16 b0 0b 5d
        E 16 b0 0b 4c
        E 16 b0 0b 44
        E 112 b0 0b 33
        E 16 b0 0b 2a
        E 16 b0 0b 19
        E 0 80 3a 00
        E 0 90 3d 19
        E 16 b0 0b 5d
        E 16 b0 0b 4c
        E 16 b0 0b 44
        E 32 b0 0b 33
        E 16 b0 0b 19
        E 0 80 3d 00
        E 0 90 3a 19
        E 16 b0 0b 5d
        E 16 b0 0b 4c
        E 16 b0 0b 44
        E 112 b0 0b 33
        E 16 b0 0b 2a
        E 16 b0 0b 19
        E 0 80 3a 00
        E 0 90 3f 19
        E 16 b0 0b 5d
        E 16 b0 0b 4c
        E 16 b0 0b 44
        E 224 b0 0b 33
        E 16 b0 0b 19
        E 0 80 3f 00
        E 0 90 41 19
        E 16 b0 0b 5d
        E 16 b0 0b 4c
        E 16 b0 0b 44
        E 112 b0 0b 33
        E 16 b0 0b 2a
        E 16 b0 0b 19
        E 0 80 41 00
        E 0 90 3f 19
        E 16 b0 0b 5d
        E 16 b0 0b 4c
        E 16 b0 0b 44
        E 112 b0 0b 33
        E 16 b0 0b 2a
        E 16 b0 0b 19
        E 0 80 3f 00
        E 0 90 3d 19
        E 16 b0 0b 5d
        E 16 b0 0b 4c
        E 16 b0 0b 44
        E 112 b0 0b 33
        E 16 b0 0b 2a
        E 16 b0 0b 19
        E 0 80 3d 00
        E 0 90 41 19
        E 16 b0 0b 5d
        E 16 b0 0b 4c
        E 16 b0 0b 44
        E 976 b0 0b 33
        E 16 b0 0b 2a
        E 16 b0 0b 22
        E 16 b0 0b 19
        E 16 b0 0b 08
        E 16 80 41 00
        E 48 b0 0b 19
        E 0 90 3c 19
        E 16 b0 0b 5d
        E 16 b0 0b 4c
        E 16 b0 0b 44
        E 288 b0 0b 33
        E 16 b0 0b 2a
        E 16 b0 0b 22
        E 16 b0 0b 19
        E 0 80 3c 00
        E 0 90 39 19
        E 16 b0 0b 5d
        E 16 b0 0b 4c
        E 16 b0 0b 44
        E 80 b0 0b 33
        E 16 b0 0b 2a
        E 16 b0 0b 22
        E 16 b0 0b 19
        E 16 80 39 00
        E 0 90 3a 19
        E 16 b0 0b 5d
        E 16 b0 0b 4c
        E 16 b0 0b 44
        E 112 b0 0b 33
        E 16 b0 0b 2a
        E 16 b0 0b 19
        E 0 80 3a 00
        E 0 90 3d 19
        E 16 b0 0b 5d
        E 16 b0 0b 4c
        E 16 b0 0b 44
        E 32 b0 0b 33
        E 16 b0 0b 19
        E 0 80 3d 00
        E 0 90 3a 19
        E 16 b0 0b 5d
        E 16 b0 0b 4c
        E 16 b0 0b 44
        E 112 b0 0b 33
        E 16 b0 0b 2a
        E 16 b0 0b 19
        E 0 80 3a 00
        E 0 90 3f 19
        E 16 b0 0b 5d
        E 16 b0 0b 4c
        E 16 b0 0b 44
        E 224 b0 0b 33
        E 16 b0 0b 19
        E 0 80 3f 00
        E 0 90 41 19
        E 16 b0 0b 5d
        E 16 b0 0b 4c
        E 16 b0 0b 44
        E 112 b0 0b 33
        E 16 b0 0b 2a
        E 16 b0 0b 19
        E 0 80 41 00
        E 0 90 3f 19
        E 16 b0 0b 5d
        E 16 b0 0b 4c
        E 16 b0 0b 44
        E 112 b0 0b 33
        E 16 b0 0b 2a
        E 16 b0 0b 19
        E 0 80 3f 00
        E 0 90 3d 19
        E 16 b0 0b 5d
        E 16 b0 0b 4c
        E 16 b0 0b 44
        E 112 b0 0b 33
        E 16 b0 0b 2a
        E 16 b0 0b 19
        E 0 80 3d 00
        E 0 90 39 19
        E 16 b0 0b 5d
        E 16 b0 0b 4c
        E 16 b0 0b 44
        E 80 b0 0b 33
        E 16 b0 0b 2a
        E 16 b0 0b 22
        E 16 b0 0b 19
        E 16 80 39 00
        E 0 90 3a 19
        E 16 b0 0b 5d
        E 16 b0 0b 4c
        E 16 b0 0b 44
        E 112 b0 0b 33
        E 16 b0 0b 2a
        E 16 b0 0b 19
        E 0 80 3a 00
        E 0 90 3d 19
        E 16 b0 0b 5d
        E 16 b0 0b 4c
        E 16 b0 0b 44
        E 32 b0 0b 33
        E 16 b0 0b 19
        E 0 80 3d 00
        E 0 90 3a 19
        E 16 b0 0b 5d
        E 16 b0 0b 4c
        E 16 b0 0b 44
        E 112 b0 0b 33
        E 16 b0 0b 2a
        E 16 b0 0b 19
        E 0 80 3a 00
        E 0 90 38 19
        E 16 b0 0b 5d
        E 16 b0 0b 4c
        E 16 b0 0b 44
        E 112 b0 0b 33
        E 16 b0 0b 2a
        E 16 b0 0b 19
        E 0 80 38 00
        E 0 90 39 19
        E 16 b0 0b 5d
        E 16 b0 0b 4c
        E 16 b0 0b 44
        E 32 b0 0b 33
        E 16 b0 0b 19
        E 0 80 39 00
        E 0 90 3a 19
        E 16 b0 0b 5d
        E 16 b0 0b 4c
        E 16 b0 0b 44
        E 480 b0 0b 33
        E 16 b0 0b 2a
        E 16 b0 0b 22
        E 16 b0 0b 19
        E 0 80 3a 00
        E 0 90 39 19
        E 16 b0 0b 5d
        E 16 b0 0b 4c
        E 16 b0 0b 44
        E 80 b0 0b 33
        E 16 b0 0b 2a
        E 16 b0 0b 22
        E 16 b0 0b 19
        E 16 80 39 00
        E 0 90 3a 19
        E 16 b0 0b 5d
        E 16 b0 0b 4c
        E 16 b0 0b 44
        E 112 b0 0b 33
        E 16 b0 0b 2a
        E 16 b0 0b 19
        E 0 80 3a 00
        E 0 90 3d 19
        E 16 b0 0b 5d
        E 16 b0 0b 4c
        E 16 b0 0b 44
        E 32 b0 0b 33
        E 16 b0 0b 19
        E 0 80 3d 00
        E 0 90 3a 19
        E 16 b0 0b 5d
        E 16 b0 0b 4c
        E 16 b0 0b 44
        E 112 b0 0b 33
        E 16 b0 0b 2a
        E 16 b0 0b 19
        E 0 80 3a 00
        E 0 90 3f 19
        E 16 b0 0b 5d
        E 16 b0 0b 4c
        E 16 b0 0b 44
        E 224 b0 0b 33
        E 16 b0 0b 19
        E 0 80 3f 00
        E 0 90 41 19
        E 16 b0 0b 5d
        E 16 b0 0b 4c
        E 16 b0 0b 44
        E 112 b0 0b 33
        E 16 b0 0b 2a
        E 16 b0 0b 19
        E 0 80 41 00
        E 0 90 3f 19
        E 16 b0 0b 5d
        E 16 b0 0b 4c
        E 16 b0 0b 44
        E 112 b0 0b 33
        E 16 b0 0b 2a
        E 16 b0 0b 19
        E 0 80 3f 00
        E 0 90 3d 19
        E 16 b0 0b 5d
        E 16 b0 0b 4c
        E 16 b0 0b 44
        E 112 b0 0b 33
        E 16 b0 0b 2a
        E 16 b0 0b 19
        E 0 80 3d 00
        E 0 90 39 19
        E 16 b0 0b 5d
        E 16 b0 0b 4c
        E 16 b0 0b 44
        E 80 b0 0b 33
        E 16 b0 0b 2a
        E 16 b0 0b 22
        E 16 b0 0b 19
        E 16 80 39 00
        E 0 90 3a 19
        E 16 b0 0b 5d
        E 16 b0 0b 4c
        E 16 b0 0b 44
        E 112 b0 0b 33
        E 16 b0 0b 2a
        E 16 b0 0b 19
        E 0 80 3a 00
        E 0 90 3d 19
        E 16 b0 0b 5d
        E 16 b0 0b 4c
        E 16 b0 0b 44
        E 32 b0 0b 33
        E 16 b0 0b 19
        E 0 80 3d 00
        E 0 90 3a 19
        E 16 b0 0b 5d
        E 16 b0 0b 4c
        E 16 b0 0b 44
        E 112 b0 0b 33
        E 16 b0 0b 2a
        E 16 b0 0b 19
        E 0 80 3a 00
        E 0 90 3f 19
        E 16 b0 0b 5d
        E 16 b0 0b 4c
        E 16 b0 0b 44
        E 224 b0 0b 33
        E 16 b0 0b 19
        E 0 80 3f 00
        E 0 90 41 19
        E 16 b0 0b 5d
        E 16 b0 0b 4c
        E 16 b0 0b 44
        E 480 b0 0b 33
        E 16 b0 0b 2a
        E 16 b0 0b 22
        E 16 b0 0b 19
        E 0 80 41 00
        E 0 90 39 19
        E 16 b0 0b 5d
        E 16 b0 0b 4c
        E 16 b0 0b 44
        E 80 b0 0b 33
        E 16 b0 0b 2a
        E 16 b0 0b 22
        E 16 b0 0b 19
        E 16 80 39 00
        E 0 90 3a 19
        E 16 b0 0b 5d
        E 16 b0 0b 4c
        E 16 b0 0b 44
        E 112 b0 0b 33
        E 16 b0 0b 2a
        E 16 b0 0b 19
        E 0 80 3a 00
        E 0 90 3d 19
        E 16 b0 0b 5d
        E 16 b0 0b 4c
        E 16 b0 0b 44
        E 32 b0 0b 33
        E 16 b0 0b 19
        E 0 80 3d 00
        E 0 90 3a 19
        E 16 b0 0b 5d
        E 16 b0 0b 4c
        E 16 b0 0b 44
        E 112 b0 0b 33
        E 16 b0 0b 2a
        E 16 b0 0b 19
        E 0 80 3a 00
        E 0 90 3f 19
        E 16 b0 0b 5d
        E 16 b0 0b 4c
        E 16 b0 0b 44
        E 224 b0 0b 33
        E 16 b0 0b 19
        E 0 80 3f 00
        E 0 90 41 19
        E 16 b0 0b 5d
        E 16 b0 0b 4c
        E 16 b0 0b 44
        E 112 b0 0b 33
        E 16 b0 0b 2a
        E 16 b0 0b 19
        E 0 80 41 00
        E 0 90 3f 19
        E 16 b0 0b 5d
        E 16 b0 0b 4c
        E 16 b0 0b 44
        E 112 b0 0b 33
        E 16 b0 0b 2a
        E 16 b0 0b 19
        E 0 80 3f 00
        E 0 90 3d 19
        E 16 b0 0b 5d
        E 16 b0 0b 4c
        E 16 b0 0b 44
        E 112 b0 0b 33
        E 16 b0 0b 2a
        E 16 b0 0b 19
        E 0 80 3d 00
        E 0 90 39 19
        E 16 b0 0b 5d
        E 16 b0 0b 4c
        E 16 b0 0b 44
        E 80 b0 0b 33
        E 16 b0 0b 2a
        E 16 b0 0b 22
        E 16 b0 0b 19
        E 16 80 39 00
        E 0 90 3a 19
        E 16 b0 0b 5d
        E 16 b0 0b 4c
        E 16 b0 0b 44
        E 112 b0 0b 33
        E 16 b0 0b 2a
        E 16 b0 0b 19
        E 0 80 3a 00
        E 0 90 3d 19
        E 16 b0 0b 5d
        E 16 b0 0b 4c
        E 16 b0 0b 44
        E 32 b0 0b 33
        E 16 b0 0b 19
        E 0 80 3d 00
        E 0 90 3a 19
        E 16 b0 0b 5d
        E 16 b0 0b 4c
        E 16 b0 0b 44
        E 112 b0 0b 33
        E 16 b0 0b 2a
        E 16 b0 0b 19
        E 0 80 3a 00
        E 0 90 38 19
        E 16 b0 0b 5d
        E 16 b0 0b 4c
        E 16 b0 0b 44
        E 112 b0 0b 33
        E 16 b0 0b 2a
        E 16 b0 0b 19
        E 0 80 38 00
        E 0 90 39 19
        E 16 b0 0b 5d
        E 16 b0 0b 4c
        E 16 b0 0b 44
        E 32 b0 0b 33
        E 16 b0 0b 19
        E 0 80 39 00
        E 0 90 3a 19
        E 16 b0 0b 5d
        E 16 b0 0b 4c
        E 16 b0 0b 44
        E 480 b0 0b 33
        E 16 b0 0b 2a
        E 16 b0 0b 22
        E 16 b0 0b 19
        E 0 80 3a 00
        E 0 90 39 19
        E 16 b0 0b 5d
        E 16 b0 0b 4c
        E 16 b0 0b 44
        E 80 b0 0b 33
        E 16 b0 0b 2a
        E 16 b0 0b 22
        E 16 b0 0b 19
        E 16 80 39 00
        E 0 90 3a 19
        E 16 b0 0b 5d
        E 16 b0 0b 4c
        E 16 b0 0b 44
        E 112 b0 0b 33
        E 16 b0 0b 2a
        E 16 b0 0b 19
        E 0 80 3a 00
        E 0 90 3d 19
        E 16 b0 0b 5d
        E 16 b0 0b 4c
        E 16 b0 0b 44
        E 32 b0 0b 33
        E 16 b0 0b 19
        E 0 80 3d 00
        E 0 90 3a 19
        E 16 b0 0b 5d
        E 16 b0 0b 4c
        E 16 b0 0b 44
        E 112 b0 0b 33
        E 16 b0 0b 2a
        E 16 b0 0b 19
        E 0 80 3a 00
        E 0 90 3f 19
        E 16 b0 0b 5d
        E 16 b0 0b 4c
        E 16 b0 0b 44
        E 224 b0 0b 33
        E 16 b0 0b 19
        E 0 80 3f 00
        E 0 90 41 19
        E 16 b0 0b 5d
        E 16 b0 0b 4c
        E 16 b0 0b 44
        E 112 b0 0b 33
        E 16 b0 0b 2a
        E 16 b0 0b 19
        E 0 80 41 00
        E 0 90 3f 19
        E 16 b0 0b 5d
        E 16 b0 0b 4c
        E 16 b0 0b 44
        E 112 b0 0b 33
        E 16 b0 0b 2a
        E 16 b0 0b 19
        E 0 80 3f 00
        E 0 90 3d 19
        E 16 b0 0b 5d
        E 16 b0 0b 4c
        E 16 b0 0b 44
        E 112 b0 0b 33
        E 16 b0 0b 2a
        E 16 b0 0b 22
        E 16 b0 0b 19
        E 16 b0 0b 08
        E 16 80 3d 00
        E 144 b0 0b 19
        E 0 90 46 19
        E 16 b0 0b 5d
        E 16 b0 0b 4c
        E 16 b0 0b 44
        E 112 b0 0b 33
        E 16 b0 0b 2a
        E 16 b0 0b 22
        E 16 b0 0b 19
        E 16 b0 0b 08
        E 16 80 46 00
        E 32 b0 0b 19
        E 0 90 41 19
        E 16 b0 0b 5d
        E 16 b0 0b 4c
        E 16 b0 0b 44
        E 112 b0 0b 33
        E 16 b0 0b 2a
        E 16 b0 0b 22
        E 16 b0 0b 19
        E 16 b0 0b 08
        E 16 80 41 00
        E 48 b0 0b 19
        E 0 90 3a 19
        E 16 b0 0b 5d
        E 16 b0 0b 4c
        E 16 b0 0b 44
        E 112 b0 0b 33
        E 16 b0 0b 2a
        E 16 b0 0b 22
        E 16 b0 0b 19
        E 16 b0 0b 08
        E 16 80 3a 00
        E 576 b0 0c 60
        E 0 b0 0b 11
        E 0 90 35 11
        E 16 b0 0b 55
        E 16 b0 0b 44
        E 16 b0 0b 3b
        E 128 b0 0b 2a
        E 16 b0 0b 22
        E 16 b0 0b 19
        E 16 b0 0b 11
        E 16 80 35 00
        E 32 90 38 11
        E 16 b0 0b 55
        E 16 b0 0b 44
        E 16 b0 0b 3b
        E 32 b0 0b 2a
        E 16 b0 0b 22
        E 16 b0 0b 19
        E 16 b0 0b 11
        E 16 80 38 00
        E 128 90 3a 11
        E 16 b0 0b 55
        E 16 b0 0b 44
        E 16 b0 0b 3b
        E 16 80 3a 00
        E 16 b0 0c 40
        E 0 b0 0b 19
        E 0 90 52 19
        E 16 b0 0b 33
        E 16 b0 0b 4c
        E 16 b0 0b 66
        E 16 b0 0b 7f
        E 16 b0 0b 77
        E 32 b0 0b 6e
        E 16 b0 0b 66
        E 16 b0 0b 5d
        E 16 b0 0b 55
        E 16 b0 0b 4c
        E 16 b0 0b 44
        E 16 b0 0c 60
        E 0 b0 0b 3b
        E 0 80 52 00
        E 0 90 3a 3b
        E 32 b0 0b 2a
        E 16 b0 0b 22
        E 16 b0 0b 11
        E 0 80 3a 00
        E 0 90 35 11
        E 16 b0 0b 55
        E 16 b0 0b 44
        E 16 b0 0b 3b
        E 112 b0 0b 2a
        E 16 b0 0b 11
        E 0 80 35 00
        E 0 90 38 11
        E 16 b0 0b 55
        E 16 b0 0b 44
        E 16 b0 0b 3b
        E 112 b0 0b 2a
        E 16 b0 0b 11
        E 0 80 38 00
        E 0 90 3a 11
        E 16 b0 0b 55
        E 16 b0 0b 44
        E 16 b0 0b 3b
        E 112 b0 0b 2a
        E 16 b0 0b 11
        E 0 80 3a 00
        E 0 90 3d 11
        E 16 b0 0b 55
        E 16 b0 0b 44
        E 16 b0 0b 3b
        E 112 b0 0b 2a
        E 16 b0 0b 22
        E 16 b0 0b 19
        E 16 b0 0b 11
        E 16 80 3d 00
        E 32 90 3f 11
        E 16 b0 0b 55
        E 16 b0 0b 44
        E 16 b0 0b 3b
        E 32 b0 0b 2a
        E 16 b0 0b 22
        E 16 b0 0b 19
        E 16 b0 0b 11
        E 16 80 3f 00
        E 128 90 3c 11
        E 16 b0 0b 55
        E 16 b0 0b 44
        E 16 b0 0b 3b
        E 272 b0 0b 2a
        E 16 b0 0b 22
        E 16 b0 0b 11
        E 0 80 3c 00
        E 0 90 3a 11
        E 16 b0 0b 55
        E 16 b0 0b 44
        E 16 b0 0b 3b
        E 112 b0 0b 2a
        E 16 b0 0b 11
        E 0 80 3a 00
        E 0 90 38 11
        E 16 b0 0b 55
        E 16 b0 0b 44
        E 16 b0 0b 3b
        E 112 b0 0b 2a
        E 16 b0 0b 11
        E 0 80 38 00
        E 0 90 33 11
        E 16 b0 0b 55
        E 16 b0 0b 44
        E 16 b0 0b 3b
        E 112 b0 0b 2a
        E 16 b0 0b 11
        E 0 80 33 00
        E 0 90 35 11
        E 16 b0 0b 55
        E 16 b0 0b 44
        E 16 b0 0b 3b
        E 112 b0 0b 2a
        E 16 b0 0b 22
        E 16 b0 0b 19
        E 16 b0 0b 11
        E 16 80 35 00
        E 32 90 38 11
        E 16 b0 0b 55
        E 16 b0 0b 44
        E 16 b0 0b 3b
        E 32 b0 0b 2a
        E 16 b0 0b 22
        E 16 b0 0b 19
        E 16 b0 0b 11
        E 16 80 38 00
        E 128 90 3a 11
        E 16 b0 0b 55
        E 16 b0 0b 44
        E 16 b0 0b 3b
        E 272 b0 0b 2a
        E 16 b0 0b 22
        E 16 b0 0b 11
        E 0 80 3a 00
        E 0 90 35 11
        E 16 b0 0b 55
        E 16 b0 0b 44
        E 16 b0 0b 3b
        E 112 b0 0b 2a
        E 16 b0 0b 11
        E 0 80 35 00
        E 0 90 38 11
        E 16 b0 0b 55
        E 16 b0 0b 44
        E 16 b0 0b 3b
        E 112 b0 0b 2a
        E 16 b0 0b 11
        E 0 80 38 00
        E 0 90 3a 11
        E 16 b0 0b 55
        E 16 b0 0b 44
        E 16 b0 0b 3b
        E 112 b0 0b 2a
        E 16 b0 0b 11
        E 0 80 3a 00
        E 0 90 3f 11
        E 16 b0 0b 55
        E 16 b0 0b 44
        E 16 b0 0b 3b
        E 112 b0 0b 2a
        E 16 b0 0b 22
        E 16 b0 0b 19
        E 16 b0 0b 11
        E 16 80 3f 00
        E 32 90 40 11
        E 16 b0 0b 55
        E 16 b0 0b 44
        E 16 b0 0b 3b
        E 32 b0 0b 2a
        E 16 b0 0b 22
        E 16 b0 0b 19
        E 16 b0 0b 11
        E 16 80 40 00
        E 128 90 41 11
        E 16 b0 0b 55
        E 16 b0 0b 44
        E 16 b0 0b 3b
        E 448 b0 0b 2a
        E 16 b0 0b 22
        E 16 b0 0b 11
        E 16 b0 0b 55
        E 16 b0 0b 44
        E 16 b0 0b 3b
        E 32 b0 0b 11
        E 0 80 41 00
        E 0 90 3f 11
        E 16 b0 0b 55
        E 16 b0 0b 44
        E 16 b0 0b 3b
        E 32 b0 0b 2a
        E 16 b0 0b 11
        E 0 80 3f 00
        E 0 90 3c 11
        E 16 b0 0b 55
        E 16 b0 0b 44
        E 16 b0 0b 3b
        E 32 b0 0b 11
        E 0 80 3c 00
        E 0 90 38 11
        E 16 b0 0b 55
        E 16 b0 0b 44
        E 16 b0 0b 3b
        E 32 b0 0b 2a
        E 16 b0 0b 11
        E 0 80 38 00
        E 0 90 35 11
        E 16 b0 0b 55
        E 16 b0 0b 44
        E 16 b0 0b 3b
        E 112 b0 0b 2a
        E 16 b0 0b 22
        E 16 b0 0b 19
        E 16 b0 0b 11
        E 16 80 35 00
        E 32 90 38 11
        E 16 b0 0b 55
        E 16 b0 0b 44
        E 16 b0 0b 3b
        E 32 b0 0b 2a
        E 16 b0 0b 22
        E 16 b0 0b 19
        E 16 b0 0b 11
        E 16 80 38 00
        E 128 90 3a 11
        E 16 b0 0b 55
        E 16 b0 0b 44
        E 16 b0 0b 3b
        E 288 b0 0b 2a
        E 16 b0 0b 11
        E 0 80 3a 00
        E 0 90 35 11
        E 16 b0 0b 55
        E 16 b0 0b 44
        E 16 b0 0b 3b
        E 112 b0 0b 2a
        E 16 b0 0b 11
        E 0 80 35 00
        E 0 90 38 11
        E 16 b0 0b 55
        E 16 b0 0b 44
        E 16 b0 0b 3b
        E 112 b0 0b 2a
        E 16 b0 0b 11
        E 0 80 38 00
        E 0 90 3a 11
        E 16 b0 0b 55
        E 16 b0 0b 44
        E 16 b0 0b 3b
        E 96 80 3a 00
        E 0 b0 7b 00
        E 0 ff 2f 00
      >
    >
  >
  <TRACK {5F1AC375-16E7-4C67-91F6-508B327F20E9}
    NAME "NES - Pulse 2 [ch1]"
    PEAKCOL 10092441
    BEAT -1
    AUTOMODE 0
    PANLAWFLAGS 3
    VOLPAN 1 0 -1 -1 1
    MUTESOLO 0 0 0
    IPHASE 0
    PLAYOFFS 0 1
    ISBUS 0 0
    BUSCOMP 0 0 0 0 0
    SHOWINMIX 1 0.6667 0.5 1 0.5 0 0 0
    FIXEDLANES 9 0 0 0 0
    SEL 0
    REC 0 5088 1 0 0 0 0 0
    VU 2
    TRACKHEIGHT 0 0 0 0 0 0 0
    INQ 0 0 0 0.5 100 0 0 100
    NCHAN 2
    FX 1
    TRACKID {5F1AC375-16E7-4C67-91F6-508B327F20E9}
    PERF 0
    MIDIOUT -1
    MAINSEND 1 0
    <FXCHAIN
      WNDRECT 24 52 700 560
      SHOW 0
      LASTSEL 0
      DOCKED 0
      BYPASS 0 0 0
      <JS "ReapNES Studio/ReapNES_Console.jsfx" ""
        2 15 1 10 80 10 100 2 1 15 1 5 60 10 80 1 1 0 50 0 0 15 1 0 100 0 0 0.500000 0.500000 0.400000 0.300000 0.800000 1 1 0 0 0 0 - - - - - - - - - - - - - - - - - - - - - - - - - -
      >
      FLOATPOS 0 0 0 0
      FXID {7F9A14C3-C16B-410A-A4A2-D21E42035EF7}
      WAK 0 0
    >
    <ITEM
      POSITION 0
      LENGTH 68.8491467
      LOOP 0
      ALLTAKES 0
      FADEIN 0 0 0 0 0 0 0
      FADEOUT 0 0 0 0 0 0 0
      MUTE 0 0
      SEL 0
      IGUID {D1C7D773-9629-46C6-9D12-CE205E09A9F8}
      <SOURCE MIDI
        HASDATA 1 480 QN
        CCINTERP 32
        E 0 c1 51
        E 0 b1 0c 10
        E 0 b1 0b 7f
        E 0 91 39 7f
        E 16 b1 0b 66
        E 16 b1 0b 4c
        E 16 b1 0b 33
        E 16 81 39 00
        E 32 b1 0b 7f
        E 0 91 39 7f
        E 16 b1 0b 66
        E 16 b1 0b 4c
        E 16 b1 0b 33
        E 16 81 39 00
        E 32 b1 0b 7f
        E 0 91 39 7f
        E 16 b1 0b 66
        E 16 b1 0b 4c
        E 16 b1 0b 33
        E 16 81 39 00
        E 32 b1 0b 7f
        E 0 91 39 7f
        E 16 b1 0b 66
        E 16 b1 0b 4c
        E 16 b1 0b 33
        E 16 81 39 00
        E 32 b1 0b 7f
        E 0 91 39 7f
        E 16 b1 0b 66
        E 16 b1 0b 4c
        E 16 b1 0b 33
        E 16 81 39 00
        E 32 b1 0b 7f
        E 0 91 39 7f
        E 16 b1 0b 66
        E 16 b1 0b 4c
        E 16 b1 0b 33
        E 16 81 39 00
        E 32 b1 0b 7f
        E 0 91 39 7f
        E 16 b1 0b 66
        E 16 b1 0b 4c
        E 16 b1 0b 33
        E 16 81 39 00
        E 32 b1 0b 7f
        E 0 91 39 7f
        E 16 b1 0b 66
        E 16 b1 0b 4c
        E 16 b1 0b 33
        E 16 81 39 00
        E 32 b1 0b 7f
        E 0 91 39 7f
        E 16 b1 0b 66
        E 16 b1 0b 4c
        E 16 b1 0b 33
        E 16 81 39 00
        E 32 b1 0b 7f
        E 0 91 39 7f
        E 16 b1 0b 66
        E 16 b1 0b 4c
        E 16 b1 0b 33
        E 16 81 39 00
        E 32 b1 0b 7f
        E 0 91 39 7f
        E 16 b1 0b 66
        E 16 b1 0b 4c
        E 16 b1 0b 33
        E 16 81 39 00
        E 32 b1 0b 7f
        E 0 91 39 7f
        E 16 b1 0b 66
        E 16 b1 0b 4c
        E 16 b1 0b 33
        E 16 81 39 00
        E 32 b1 0b 7f
        E 0 91 39 7f
        E 16 b1 0b 66
        E 16 b1 0b 4c
        E 16 b1 0b 33
        E 16 81 39 00
        E 32 b1 0b 7f
        E 0 91 39 7f
        E 16 b1 0b 66
        E 16 b1 0b 4c
        E 16 b1 0b 33
        E 16 81 39 00
        E 32 b1 0b 7f
        E 0 91 39 7f
        E 16 b1 0b 66
        E 16 b1 0b 4c
        E 16 b1 0b 33
        E 16 81 39 00
        E 32 b1 0b 7f
        E 0 91 39 7f
        E 16 b1 0b 66
        E 16 b1 0b 4c
        E 16 b1 0b 33
        E 16 81 39 00
        E 32 b1 0b 7f
        E 0 91 39 7f
        E 16 b1 0b 66
        E 16 b1 0b 4c
        E 16 b1 0b 33
        E 16 81 39 00
        E 32 b1 0b 7f
        E 0 91 39 7f
        E 16 b1 0b 66
        E 16 b1 0b 4c
        E 16 b1 0b 33
        E 16 81 39 00
        E 32 b1 0b 7f
        E 0 91 39 7f
        E 16 b1 0b 66
        E 16 b1 0b 4c
        E 16 b1 0b 33
        E 16 81 39 00
        E 32 b1 0b 7f
        E 0 91 39 7f
        E 16 b1 0b 66
        E 16 b1 0b 4c
        E 16 b1 0b 33
        E 16 81 39 00
        E 32 b1 0b 7f
        E 0 91 39 7f
        E 16 b1 0b 66
        E 16 b1 0b 4c
        E 16 b1 0b 33
        E 16 81 39 00
        E 32 b1 0b 7f
        E 0 91 39 7f
        E 16 b1 0b 66
        E 16 b1 0b 4c
        E 16 b1 0b 33
        E 16 81 39 00
        E 32 b1 0b 7f
        E 0 91 39 7f
        E 16 b1 0b 66
        E 16 b1 0b 4c
        E 16 b1 0b 33
        E 16 81 39 00
        E 32 b1 0b 7f
        E 0 91 39 7f
        E 16 b1 0b 66
        E 16 b1 0b 4c
        E 16 b1 0b 33
        E 16 81 39 00
        E 32 b1 0b 7f
        E 0 91 39 7f
        E 16 b1 0b 66
        E 16 b1 0b 4c
        E 16 b1 0b 33
        E 16 81 39 00
        E 32 b1 0b 7f
        E 0 91 39 7f
        E 16 b1 0b 66
        E 16 b1 0b 4c
        E 16 b1 0b 33
        E 16 81 39 00
        E 2976 b1 0b 7f
        E 0 91 39 7f
        E 16 b1 0b 66
        E 16 b1 0b 4c
        E 16 b1 0b 33
        E 16 81 39 00
        E 32 b1 0b 7f
        E 0 91 39 7f
        E 16 b1 0b 66
        E 16 b1 0b 4c
        E 16 b1 0b 33
        E 16 81 39 00
        E 32 b1 0b 7f
        E 0 91 39 7f
        E 16 b1 0b 66
        E 16 b1 0b 4c
        E 16 b1 0b 33
        E 16 81 39 00
        E 32 b1 0b 7f
        E 0 91 39 7f
        E 16 b1 0b 66
        E 16 b1 0b 4c
        E 16 b1 0b 33
        E 16 81 39 00
        E 32 b1 0b 7f
        E 0 91 39 7f
        E 16 b1 0b 66
        E 16 b1 0b 4c
        E 16 b1 0b 33
        E 16 81 39 00
        E 32 b1 0b 7f
        E 0 91 39 7f
        E 16 b1 0b 66
        E 16 b1 0b 4c
        E 16 b1 0b 33
        E 16 81 39 00
        E 32 b1 0b 7f
        E 0 91 39 7f
        E 16 b1 0b 66
        E 16 b1 0b 4c
        E 16 b1 0b 33
        E 16 81 39 00
        E 32 b1 0b 7f
        E 0 91 39 7f
        E 16 b1 0b 66
        E 16 b1 0b 4c
        E 16 b1 0b 33
        E 16 81 39 00
        E 32 b1 0b 7f
        E 0 91 39 7f
        E 16 b1 0b 66
        E 16 b1 0b 4c
        E 16 b1 0b 33
        E 16 81 39 00
        E 32 b1 0b 7f
        E 0 91 39 7f
        E 16 b1 0b 66
        E 16 b1 0b 4c
        E 16 b1 0b 33
        E 16 81 39 00
        E 32 b1 0b 7f
        E 0 91 39 7f
        E 16 b1 0b 66
        E 16 b1 0b 4c
        E 16 b1 0b 33
        E 16 81 39 00
        E 32 b1 0b 7f
        E 0 91 39 7f
        E 16 b1 0b 66
        E 16 b1 0b 4c
        E 16 b1 0b 33
        E 16 81 39 00
        E 32 b1 0b 7f
        E 0 91 39 7f
        E 16 b1 0b 66
        E 16 b1 0b 4c
        E 16 b1 0b 33
        E 16 81 39 00
        E 32 b1 0b 7f
        E 0 91 39 7f
        E 16 b1 0b 66
        E 16 b1 0b 4c
        E 16 b1 0b 33
        E 16 81 39 00
        E 32 b1 0b 7f
        E 0 91 39 7f
        E 16 b1 0b 66
        E 16 b1 0b 4c
        E 16 b1 0b 33
        E 16 81 39 00
        E 32 b1 0b 7f
        E 0 91 39 7f
        E 16 b1 0b 66
        E 16 b1 0b 4c
        E 16 b1 0b 33
        E 16 81 39 00
        E 32 b1 0b 7f
        E 0 91 39 7f
        E 16 b1 0b 66
        E 16 b1 0b 4c
        E 16 b1 0b 33
        E 16 81 39 00
        E 32 b1 0b 7f
        E 0 91 39 7f
        E 16 b1 0b 66
        E 16 b1 0b 4c
        E 16 b1 0b 33
        E 16 81 39 00
        E 32 b1 0b 7f
        E 0 91 39 7f
        E 16 b1 0b 66
        E 16 b1 0b 4c
        E 16 b1 0b 33
        E 16 81 39 00
        E 32 b1 0b 7f
        E 0 91 39 7f
        E 16 b1 0b 66
        E 16 b1 0b 4c
        E 16 b1 0b 33
        E 16 81 39 00
        E 32 b1 0b 7f
        E 0 91 39 7f
        E 16 b1 0b 66
        E 16 b1 0b 4c
        E 16 b1 0b 33
        E 16 81 39 00
        E 32 b1 0b 7f
        E 0 91 39 7f
        E 16 b1 0b 66
        E 16 b1 0b 4c
        E 16 b1 0b 33
        E 16 81 39 00
        E 32 b1 0b 7f
        E 0 91 39 7f
        E 16 b1 0b 66
        E 16 b1 0b 4c
        E 16 b1 0b 33
        E 16 81 39 00
        E 32 b1 0b 7f
        E 0 91 39 7f
        E 16 b1 0b 66
        E 16 b1 0b 4c
        E 16 b1 0b 33
        E 16 81 39 00
        E 32 b1 0b 7f
        E 0 91 39 7f
        E 16 b1 0b 66
        E 16 b1 0b 4c
        E 16 b1 0b 33
        E 16 81 39 00
        E 2976 b1 0b 7f
        E 0 91 39 7f
        E 16 b1 0b 66
        E 16 b1 0b 4c
        E 16 b1 0b 33
        E 16 81 39 00
        E 32 b1 0b 7f
        E 0 91 39 7f
        E 16 b1 0b 66
        E 16 b1 0b 4c
        E 16 b1 0b 33
        E 16 81 39 00
        E 32 b1 0b 7f
        E 0 91 39 7f
        E 16 b1 0b 66
        E 16 b1 0b 4c
        E 16 b1 0b 33
        E 16 81 39 00
        E 32 b1 0b 7f
        E 0 91 39 7f
        E 16 b1 0b 66
        E 16 b1 0b 4c
        E 16 b1 0b 33
        E 16 81 39 00
        E 32 b1 0b 7f
        E 0 91 39 7f
        E 16 b1 0b 66
        E 16 b1 0b 4c
        E 16 b1 0b 33
        E 16 81 39 00
        E 32 b1 0b 7f
        E 0 91 39 7f
        E 16 b1 0b 66
        E 16 b1 0b 4c
        E 16 b1 0b 33
        E 16 81 39 00
        E 32 b1 0b 7f
        E 0 91 39 7f
        E 16 b1 0b 66
        E 16 b1 0b 4c
        E 16 b1 0b 33
        E 16 81 39 00
        E 32 b1 0b 7f
        E 0 91 39 7f
        E 16 b1 0b 66
        E 16 b1 0b 4c
        E 16 b1 0b 33
        E 16 81 39 00
        E 32 b1 0b 7f
        E 0 91 39 7f
        E 16 b1 0b 66
        E 16 b1 0b 4c
        E 16 b1 0b 33
        E 16 81 39 00
        E 32 b1 0b 7f
        E 0 91 39 7f
        E 16 b1 0b 66
        E 16 b1 0b 4c
        E 16 b1 0b 33
        E 16 81 39 00
        E 32 b1 0b 7f
        E 0 91 39 7f
        E 16 b1 0b 66
        E 16 b1 0b 4c
        E 16 b1 0b 33
        E 16 81 39 00
        E 32 b1 0b 7f
        E 0 91 39 7f
        E 16 b1 0b 66
        E 16 b1 0b 4c
        E 16 b1 0b 33
        E 16 81 39 00
        E 32 b1 0b 7f
        E 0 91 39 7f
        E 16 b1 0b 66
        E 16 b1 0b 4c
        E 16 b1 0b 33
        E 16 81 39 00
        E 32 b1 0b 7f
        E 0 91 39 7f
        E 16 b1 0b 66
        E 16 b1 0b 4c
        E 16 b1 0b 33
        E 16 81 39 00
        E 32 b1 0b 7f
        E 0 91 39 7f
        E 16 b1 0b 66
        E 16 b1 0b 4c
        E 16 b1 0b 33
        E 16 81 39 00
        E 32 b1 0b 7f
        E 0 91 39 7f
        E 16 b1 0b 66
        E 16 b1 0b 4c
        E 16 b1 0b 33
        E 16 81 39 00
        E 32 b1 0b 7f
        E 0 91 39 7f
        E 16 b1 0b 66
        E 16 b1 0b 4c
        E 16 b1 0b 33
        E 16 81 39 00
        E 32 b1 0b 7f
        E 0 91 39 7f
        E 16 b1 0b 66
        E 16 b1 0b 4c
        E 16 b1 0b 33
        E 16 81 39 00
        E 32 b1 0b 7f
        E 0 91 39 7f
        E 16 b1 0b 66
        E 16 b1 0b 4c
        E 16 b1 0b 33
        E 16 81 39 00
        E 32 b1 0b 7f
        E 0 91 39 7f
        E 16 b1 0b 66
        E 16 b1 0b 4c
        E 16 b1 0b 33
        E 16 81 39 00
        E 32 b1 0b 7f
        E 0 91 39 7f
        E 16 b1 0b 66
        E 16 b1 0b 4c
        E 16 b1 0b 33
        E 16 81 39 00
        E 32 b1 0b 7f
        E 0 91 39 7f
        E 16 b1 0b 66
        E 16 b1 0b 4c
        E 16 b1 0b 33
        E 16 81 39 00
        E 32 b1 0b 7f
        E 0 91 39 7f
        E 16 b1 0b 66
        E 16 b1 0b 4c
        E 16 b1 0b 33
        E 16 81 39 00
        E 32 b1 0b 7f
        E 0 91 39 7f
        E 16 b1 0b 66
        E 16 b1 0b 4c
        E 16 b1 0b 33
        E 16 81 39 00
        E 32 b1 0b 7f
        E 0 91 39 7f
        E 16 b1 0b 66
        E 16 b1 0b 4c
        E 16 b1 0b 33
        E 16 81 39 00
        E 2976 b1 0b 7f
        E 0 91 39 7f
        E 16 b1 0b 66
        E 16 b1 0b 4c
        E 16 b1 0b 33
        E 16 81 39 00
        E 32 b1 0b 7f
        E 0 91 39 7f
        E 16 b1 0b 66
        E 16 b1 0b 4c
        E 16 b1 0b 33
        E 16 81 39 00
        E 32 b1 0b 7f
        E 0 91 39 7f
        E 16 b1 0b 66
        E 16 b1 0b 4c
        E 16 b1 0b 33
        E 16 81 39 00
        E 32 b1 0b 7f
        E 0 91 39 7f
        E 16 b1 0b 66
        E 16 b1 0b 4c
        E 16 b1 0b 33
        E 16 81 39 00
        E 32 b1 0b 7f
        E 0 91 39 7f
        E 16 b1 0b 66
        E 16 b1 0b 4c
        E 16 b1 0b 33
        E 16 81 39 00
        E 32 b1 0b 7f
        E 0 91 39 7f
        E 16 b1 0b 66
        E 16 b1 0b 4c
        E 16 b1 0b 33
        E 16 81 39 00
        E 32 b1 0b 7f
        E 0 91 39 7f
        E 16 b1 0b 66
        E 16 b1 0b 4c
        E 16 b1 0b 33
        E 16 81 39 00
        E 32 b1 0b 7f
        E 0 91 39 7f
        E 16 b1 0b 66
        E 16 b1 0b 4c
        E 16 b1 0b 33
        E 16 81 39 00
        E 32 b1 0b 7f
        E 0 91 39 7f
        E 16 b1 0b 66
        E 16 b1 0b 4c
        E 16 b1 0b 33
        E 16 81 39 00
        E 32 b1 0b 7f
        E 0 91 39 7f
        E 16 b1 0b 66
        E 16 b1 0b 4c
        E 16 b1 0b 33
        E 16 81 39 00
        E 32 b1 0b 7f
        E 0 91 39 7f
        E 16 b1 0b 66
        E 16 b1 0b 4c
        E 16 b1 0b 33
        E 16 81 39 00
        E 32 b1 0b 7f
        E 0 91 39 7f
        E 16 b1 0b 66
        E 16 b1 0b 4c
        E 16 b1 0b 33
        E 16 81 39 00
        E 32 b1 0b 7f
        E 0 91 39 7f
        E 16 b1 0b 66
        E 16 b1 0b 4c
        E 16 b1 0b 33
        E 16 81 39 00
        E 32 b1 0b 7f
        E 0 91 39 7f
        E 16 b1 0b 66
        E 16 b1 0b 4c
        E 16 b1 0b 33
        E 16 81 39 00
        E 32 b1 0b 7f
        E 0 91 39 7f
        E 16 b1 0b 66
        E 16 b1 0b 4c
        E 16 b1 0b 33
        E 16 81 39 00
        E 32 b1 0b 7f
        E 0 91 39 7f
        E 16 b1 0b 66
        E 16 b1 0b 4c
        E 16 b1 0b 33
        E 16 81 39 00
        E 32 b1 0b 7f
        E 0 91 39 7f
        E 16 b1 0b 66
        E 16 b1 0b 4c
        E 16 b1 0b 33
        E 16 81 39 00
        E 32 b1 0b 7f
        E 0 91 39 7f
        E 16 b1 0b 66
        E 16 b1 0b 4c
        E 16 b1 0b 33
        E 16 81 39 00
        E 32 b1 0b 7f
        E 0 91 39 7f
        E 16 b1 0b 66
        E 16 b1 0b 4c
        E 16 b1 0b 33
        E 16 81 39 00
        E 32 b1 0b 7f
        E 0 91 39 7f
        E 16 b1 0b 66
        E 16 b1 0b 4c
        E 16 b1 0b 33
        E 16 81 39 00
        E 32 b1 0b 7f
        E 0 91 39 7f
        E 16 b1 0b 66
        E 16 b1 0b 4c
        E 16 b1 0b 33
        E 16 81 39 00
        E 32 b1 0b 7f
        E 0 91 39 7f
        E 16 b1 0b 66
        E 16 b1 0b 4c
        E 16 b1 0b 33
        E 16 81 39 00
        E 32 b1 0b 7f
        E 0 91 39 7f
        E 16 b1 0b 66
        E 16 b1 0b 4c
        E 16 b1 0b 33
        E 16 81 39 00
        E 32 b1 0b 7f
        E 0 91 39 7f
        E 16 b1 0b 66
        E 16 b1 0b 4c
        E 16 b1 0b 33
        E 16 81 39 00
        E 32 b1 0b 7f
        E 0 91 39 7f
        E 16 b1 0b 66
        E 16 b1 0b 4c
        E 16 b1 0b 33
        E 16 81 39 00
        E 2976 b1 0b 7f
        E 0 91 39 7f
        E 16 b1 0b 66
        E 16 b1 0b 4c
        E 16 b1 0b 33
        E 16 81 39 00
        E 32 b1 0b 7f
        E 0 91 39 7f
        E 16 b1 0b 66
        E 16 b1 0b 4c
        E 16 b1 0b 33
        E 16 81 39 00
        E 32 b1 0b 7f
        E 0 91 39 7f
        E 16 b1 0b 66
        E 16 b1 0b 4c
        E 16 b1 0b 33
        E 16 81 39 00
        E 32 b1 0b 7f
        E 0 91 39 7f
        E 16 b1 0b 66
        E 16 b1 0b 4c
        E 16 b1 0b 33
        E 16 81 39 00
        E 32 b1 0b 7f
        E 0 91 39 7f
        E 16 b1 0b 66
        E 16 b1 0b 4c
        E 16 b1 0b 33
        E 16 81 39 00
        E 32 b1 0b 7f
        E 0 91 39 7f
        E 16 b1 0b 66
        E 16 b1 0b 4c
        E 16 b1 0b 33
        E 16 81 39 00
        E 32 b1 0b 7f
        E 0 91 39 7f
        E 16 b1 0b 66
        E 16 b1 0b 4c
        E 16 b1 0b 33
        E 16 81 39 00
        E 32 b1 0b 7f
        E 0 91 39 7f
        E 16 b1 0b 66
        E 16 b1 0b 4c
        E 16 b1 0b 33
        E 16 81 39 00
        E 32 b1 0b 7f
        E 0 91 39 7f
        E 16 b1 0b 66
        E 16 b1 0b 4c
        E 16 b1 0b 33
        E 16 81 39 00
        E 32 b1 0b 7f
        E 0 91 39 7f
        E 16 b1 0b 66
        E 16 b1 0b 4c
        E 16 b1 0b 33
        E 16 81 39 00
        E 32 b1 0b 7f
        E 0 91 39 7f
        E 16 b1 0b 66
        E 16 b1 0b 4c
        E 16 b1 0b 33
        E 16 81 39 00
        E 32 b1 0b 7f
        E 0 91 39 7f
        E 16 b1 0b 66
        E 16 b1 0b 4c
        E 16 b1 0b 33
        E 16 81 39 00
        E 32 b1 0b 7f
        E 0 91 39 7f
        E 16 b1 0b 66
        E 16 b1 0b 4c
        E 16 b1 0b 33
        E 16 81 39 00
        E 32 b1 0b 7f
        E 0 91 39 7f
        E 16 b1 0b 66
        E 16 b1 0b 4c
        E 16 b1 0b 33
        E 16 81 39 00
        E 32 b1 0b 7f
        E 0 91 39 7f
        E 16 b1 0b 66
        E 16 b1 0b 4c
        E 16 b1 0b 33
        E 16 81 39 00
        E 32 b1 0b 7f
        E 0 91 39 7f
        E 16 b1 0b 66
        E 16 b1 0b 4c
        E 16 b1 0b 33
        E 16 81 39 00
        E 32 b1 0b 7f
        E 0 91 39 7f
        E 16 b1 0b 66
        E 16 b1 0b 4c
        E 16 b1 0b 33
        E 16 81 39 00
        E 3616 b1 0c 20
        E 0 b1 0b 11
        E 0 91 41 11
        E 16 b1 0b 55
        E 16 b1 0b 44
        E 16 b1 0b 3b
        E 192 b1 0b 2a
        E 16 b1 0b 22
        E 16 b1 0b 11
        E 0 81 41 00
        E 0 91 3c 11
        E 16 b1 0b 55
        E 16 b1 0b 44
        E 16 b1 0b 3b
        E 192 b1 0b 2a
        E 16 b1 0b 22
        E 16 b1 0b 11
        E 0 81 3c 00
        E 0 91 38 11
        E 16 b1 0b 55
        E 16 b1 0b 44
        E 16 b1 0b 3b
        E 112 b1 0b 2a
        E 16 b1 0b 22
        E 16 b1 0b 11
        E 0 81 38 00
        E 0 91 35 11
        E 16 b1 0b 55
        E 16 b1 0b 44
        E 16 b1 0b 3b
        E 608 b1 0b 2a
        E 16 b1 0b 22
        E 16 b1 0b 19
        E 16 b1 0b 11
        E 16 81 35 00
        E 16 91 3d 11
        E 16 b1 0b 55
        E 16 b1 0b 44
        E 16 b1 0b 3b
        E 272 b1 0b 2a
        E 16 b1 0b 22
        E 16 b1 0b 19
        E 16 b1 0b 11
        E 0 81 3d 00
        E 0 91 41 11
        E 16 b1 0b 55
        E 16 b1 0b 44
        E 16 b1 0b 3b
        E 16 b1 0b 33
        E 16 b1 0b 11
        E 0 81 41 00
        E 0 91 3d 11
        E 16 b1 0b 55
        E 16 b1 0b 44
        E 16 b1 0b 3b
        E 32 b1 0b 2a
        E 16 b1 0b 11
        E 0 81 3d 00
        E 0 91 3a 11
        E 16 b1 0b 55
        E 16 b1 0b 44
        E 16 b1 0b 3b
        E 32 b1 0b 2a
        E 16 b1 0b 11
        E 0 81 3a 00
        E 0 91 41 11
        E 16 b1 0b 55
        E 16 b1 0b 44
        E 16 b1 0b 3b
        E 32 b1 0b 2a
        E 16 b1 0b 11
        E 0 81 41 00
        E 0 91 33 11
        E 16 b1 0b 55
        E 16 b1 0b 44
        E 16 b1 0b 3b
        E 608 b1 0b 2a
        E 16 b1 0b 22
        E 16 b1 0b 19
        E 16 b1 0b 11
        E 16 81 33 00
        E 16 91 38 11
        E 16 b1 0b 55
        E 16 b1 0b 44
        E 16 b1 0b 3b
        E 272 b1 0b 2a
        E 16 b1 0b 22
        E 16 b1 0b 19
        E 16 b1 0b 11
        E 0 81 38 00
        E 0 91 44 11
        E 16 b1 0b 55
        E 16 b1 0b 44
        E 16 b1 0b 3b
        E 16 b1 0b 33
        E 16 b1 0b 11
        E 0 81 44 00
        E 0 91 3f 11
        E 16 b1 0b 55
        E 16 b1 0b 44
        E 16 b1 0b 3b
        E 112 b1 0b 2a
        E 16 b1 0b 22
        E 16 b1 0b 11
        E 0 81 3f 00
        E 0 91 3c 11
        E 16 b1 0b 55
        E 16 b1 0b 44
        E 16 b1 0b 3b
        E 32 b1 0b 2a
        E 16 b1 0b 11
        E 0 81 3c 00
        E 0 91 36 11
        E 16 b1 0b 55
        E 16 b1 0b 44
        E 16 b1 0b 3b
        E 608 b1 0b 2a
        E 16 b1 0b 22
        E 16 b1 0b 19
        E 16 b1 0b 11
        E 16 81 36 00
        E 16 91 3a 11
        E 16 b1 0b 55
        E 16 b1 0b 44
        E 16 b1 0b 3b
        E 272 b1 0b 2a
        E 16 b1 0b 22
        E 16 b1 0b 19
        E 16 b1 0b 11
        E 0 81 3a 00
        E 0 91 3f 11
        E 16 b1 0b 55
        E 16 b1 0b 44
        E 16 b1 0b 3b
        E 16 b1 0b 33
        E 16 b1 0b 11
        E 0 81 3f 00
        E 0 91 41 11
        E 16 b1 0b 55
        E 16 b1 0b 44
        E 16 b1 0b 3b
        E 32 b1 0b 2a
        E 16 b1 0b 11
        E 0 81 41 00
        E 0 91 42 11
        E 16 b1 0b 55
        E 16 b1 0b 44
        E 16 b1 0b 3b
        E 32 b1 0b 2a
        E 16 b1 0b 11
        E 0 81 42 00
        E 0 91 46 11
        E 16 b1 0b 55
        E 16 b1 0b 44
        E 16 b1 0b 3b
        E 32 b1 0b 2a
        E 16 b1 0b 11
        E 0 81 46 00
        E 0 91 38 11
        E 16 b1 0b 55
        E 16 b1 0b 44
        E 16 b1 0b 3b
        E 112 b1 0b 2a
        E 16 b1 0b 11
        E 0 81 38 00
        E 0 91 43 11
        E 16 b1 0b 55
        E 16 b1 0b 44
        E 16 b1 0b 3b
        E 32 b1 0b 2a
        E 16 b1 0b 11
        E 0 81 43 00
        E 0 91 3f 11
        E 16 b1 0b 55
        E 16 b1 0b 44
        E 16 b1 0b 3b
        E 32 b1 0b 2a
        E 16 b1 0b 11
        E 0 81 3f 00
        E 0 91 41 11
        E 16 b1 0b 55
        E 16 b1 0b 44
        E 16 b1 0b 3b
        E 16 b1 0b 33
        E 16 b1 0b 11
        E 0 81 41 00
        E 0 91 3d 11
        E 16 b1 0b 55
        E 16 b1 0b 44
        E 16 b1 0b 3b
        E 32 b1 0b 2a
        E 16 b1 0b 11
        E 0 81 3d 00
        E 0 91 3f 11
        E 16 b1 0b 55
        E 16 b1 0b 44
        E 16 b1 0b 3b
        E 32 b1 0b 2a
        E 16 b1 0b 11
        E 0 81 3f 00
        E 0 91 3c 11
        E 16 b1 0b 55
        E 16 b1 0b 44
        E 16 b1 0b 3b
        E 32 b1 0b 2a
        E 16 b1 0b 11
        E 0 81 3c 00
        E 0 91 3d 11
        E 16 b1 0b 55
        E 16 b1 0b 44
        E 16 b1 0b 3b
        E 16 b1 0b 33
        E 16 b1 0b 11
        E 0 81 3d 00
        E 0 91 3a 11
        E 16 b1 0b 55
        E 16 b1 0b 44
        E 16 b1 0b 3b
        E 32 b1 0b 2a
        E 16 b1 0b 11
        E 0 81 3a 00
        E 0 91 3c 11
        E 16 b1 0b 55
        E 16 b1 0b 44
        E 16 b1 0b 3b
        E 32 b1 0b 2a
        E 16 b1 0b 11
        E 0 81 3c 00
        E 0 91 38 11
        E 16 b1 0b 55
        E 16 b1 0b 44
        E 16 b1 0b 3b
        E 32 b1 0b 2a
        E 16 b1 0b 11
        E 0 81 38 00
        E 0 91 3a 11
        E 16 b1 0b 55
        E 16 b1 0b 44
        E 16 b1 0b 3b
        E 32 b1 0b 11
        E 0 81 3a 00
        E 0 91 3d 11
        E 16 b1 0b 55
        E 16 b1 0b 44
        E 16 b1 0b 3b
        E 32 b1 0b 2a
        E 16 b1 0b 11
        E 0 81 3d 00
        E 0 91 3c 11
        E 16 b1 0b 55
        E 16 b1 0b 44
        E 16 b1 0b 3b
        E 32 b1 0b 2a
        E 16 b1 0b 11
        E 0 81 3c 00
        E 0 91 38 11
        E 16 b1 0b 55
        E 16 b1 0b 44
        E 16 b1 0b 3b
        E 32 b1 0b 2a
        E 16 b1 0b 11
        E 0 81 38 00
        E 0 91 35 11
        E 16 b1 0b 55
        E 16 b1 0b 44
        E 16 b1 0b 3b
        E 608 b1 0b 2a
        E 16 b1 0b 22
        E 16 b1 0b 19
        E 16 b1 0b 11
        E 16 81 35 00
        E 16 91 3d 11
        E 16 b1 0b 55
        E 16 b1 0b 44
        E 16 b1 0b 3b
        E 272 b1 0b 2a
        E 16 b1 0b 22
        E 16 b1 0b 19
        E 16 b1 0b 11
        E 0 81 3d 00
        E 0 91 41 11
        E 16 b1 0b 55
        E 16 b1 0b 44
        E 16 b1 0b 3b
        E 32 b1 0b 2a
        E 16 b1 0b 11
        E 0 81 41 00
        E 0 91 3d 11
        E 16 b1 0b 55
        E 16 b1 0b 44
        E 16 b1 0b 3b
        E 16 b1 0b 33
        E 16 b1 0b 11
        E 0 81 3d 00
        E 0 91 3a 11
        E 16 b1 0b 55
        E 16 b1 0b 44
        E 16 b1 0b 3b
        E 32 b1 0b 2a
        E 16 b1 0b 11
        E 0 81 3a 00
        E 0 91 41 11
        E 16 b1 0b 55
        E 16 b1 0b 44
        E 16 b1 0b 3b
        E 32 b1 0b 2a
        E 16 b1 0b 11
        E 0 81 41 00
        E 0 91 33 11
        E 16 b1 0b 55
        E 16 b1 0b 44
        E 16 b1 0b 3b
        E 608 b1 0b 2a
        E 16 b1 0b 22
        E 16 b1 0b 19
        E 16 b1 0b 11
        E 16 81 33 00
        E 16 91 38 11
        E 16 b1 0b 55
        E 16 b1 0b 44
        E 16 b1 0b 3b
        E 272 b1 0b 2a
        E 16 b1 0b 22
        E 16 b1 0b 19
        E 16 b1 0b 11
        E 0 81 38 00
        E 0 91 44 11
        E 16 b1 0b 55
        E 16 b1 0b 44
        E 16 b1 0b 3b
        E 32 b1 0b 2a
        E 16 b1 0b 11
        E 0 81 44 00
        E 0 91 3f 11
        E 16 b1 0b 55
        E 16 b1 0b 44
        E 16 b1 0b 3b
        E 112 b1 0b 2a
        E 16 b1 0b 11
        E 0 81 3f 00
        E 0 91 3c 11
        E 16 b1 0b 55
        E 16 b1 0b 44
        E 16 b1 0b 3b
        E 32 b1 0b 2a
        E 16 b1 0b 11
        E 0 81 3c 00
        E 0 91 36 11
        E 16 b1 0b 55
        E 16 b1 0b 44
        E 16 b1 0b 3b
        E 608 b1 0b 2a
        E 16 b1 0b 22
        E 16 b1 0b 19
        E 16 b1 0b 11
        E 16 81 36 00
        E 16 91 3a 11
        E 16 b1 0b 55
        E 16 b1 0b 44
        E 16 b1 0b 3b
        E 272 b1 0b 2a
        E 16 b1 0b 22
        E 16 b1 0b 19
        E 16 b1 0b 11
        E 0 81 3a 00
        E 0 91 3f 11
        E 16 b1 0b 55
        E 16 b1 0b 44
        E 16 b1 0b 3b
        E 32 b1 0b 2a
        E 16 b1 0b 11
        E 0 81 3f 00
        E 0 91 41 11
        E 16 b1 0b 55
        E 16 b1 0b 44
        E 16 b1 0b 3b
        E 16 b1 0b 33
        E 16 b1 0b 11
        E 0 81 41 00
        E 0 91 42 11
        E 16 b1 0b 55
        E 16 b1 0b 44
        E 16 b1 0b 3b
        E 32 b1 0b 2a
        E 16 b1 0b 11
        E 0 81 42 00
        E 0 91 46 11
        E 16 b1 0b 55
        E 16 b1 0b 44
        E 16 b1 0b 3b
        E 32 b1 0b 2a
        E 16 b1 0b 11
        E 0 81 46 00
        E 0 91 38 11
        E 16 b1 0b 55
        E 16 b1 0b 44
        E 16 b1 0b 3b
        E 32 b1 0b 2a
        E 16 b1 0b 11
        E 0 81 38 00
        E 0 91 3c 11
        E 16 b1 0b 55
        E 16 b1 0b 44
        E 16 b1 0b 3b
        E 16 b1 0b 33
        E 16 b1 0b 11
        E 0 81 3c 00
        E 0 91 3a 11
        E 16 b1 0b 55
        E 16 b1 0b 44
        E 16 b1 0b 3b
        E 32 b1 0b 2a
        E 16 b1 0b 11
        E 0 81 3a 00
        E 0 91 35 11
        E 16 b1 0b 55
        E 16 b1 0b 44
        E 16 b1 0b 3b
        E 32 b1 0b 2a
        E 16 b1 0b 11
        E 0 81 35 00
        E 0 91 38 11
        E 16 b1 0b 55
        E 16 b1 0b 44
        E 16 b1 0b 3b
        E 32 b1 0b 2a
        E 16 b1 0b 11
        E 0 81 38 00
        E 0 91 36 11
        E 16 b1 0b 55
        E 16 b1 0b 44
        E 16 b1 0b 3b
        E 16 b1 0b 33
        E 16 b1 0b 11
        E 0 81 36 00
        E 0 91 3a 11
        E 16 b1 0b 55
        E 16 b1 0b 44
        E 16 b1 0b 3b
        E 32 b1 0b 2a
        E 16 b1 0b 11
        E 0 81 3a 00
        E 0 91 33 11
        E 16 b1 0b 55
        E 16 b1 0b 44
        E 16 b1 0b 3b
        E 32 b1 0b 2a
        E 16 b1 0b 11
        E 0 81 33 00
        E 0 91 35 11
        E 16 b1 0b 55
        E 16 b1 0b 44
        E 16 b1 0b 3b
        E 32 b1 0b 2a
        E 16 b1 0b 11
        E 0 81 35 00
        E 0 91 36 11
        E 16 b1 0b 55
        E 16 b1 0b 44
        E 16 b1 0b 3b
        E 16 b1 0b 33
        E 16 b1 0b 11
        E 0 81 36 00
        E 0 91 31 11
        E 16 b1 0b 55
        E 16 b1 0b 44
        E 16 b1 0b 3b
        E 32 b1 0b 2a
        E 16 b1 0b 11
        E 0 81 31 00
        E 0 91 33 11
        E 16 b1 0b 55
        E 16 b1 0b 44
        E 16 b1 0b 3b
        E 32 b1 0b 2a
        E 16 b1 0b 11
        E 0 81 33 00
        E 0 91 35 11
        E 16 b1 0b 55
        E 16 b1 0b 44
        E 16 b1 0b 3b
        E 32 b1 0b 2a
        E 16 b1 0b 11
        E 0 81 35 00
        E 0 91 30 11
        E 16 b1 0b 55
        E 16 b1 0b 44
        E 16 b1 0b 3b
        E 16 b1 0b 33
        E 16 b1 0b 11
        E 0 81 30 00
        E 0 91 33 11
        E 16 b1 0b 55
        E 16 b1 0b 44
        E 16 b1 0b 3b
        E 32 b1 0b 2a
        E 16 b1 0b 11
        E 0 81 33 00
        E 0 91 38 11
        E 16 b1 0b 55
        E 16 b1 0b 44
        E 16 b1 0b 3b
        E 32 b1 0b 2a
        E 16 b1 0c 60
        E 0 b1 0b 11
        E 0 81 38 00
        E 0 91 34 11
        E 16 b1 0b 55
        E 16 b1 0b 44
        E 16 b1 0b 3b
        E 80 b1 0b 2a
        E 16 b1 0b 22
        E 16 b1 0b 19
        E 16 b1 0b 11
        E 16 81 34 00
        E 0 91 35 11
        E 16 b1 0b 55
        E 16 b1 0b 44
        E 16 b1 0b 3b
        E 112 b1 0b 2a
        E 16 b1 0b 22
        E 16 b1 0b 11
        E 0 81 35 00
        E 0 91 38 11
        E 16 b1 0b 55
        E 16 b1 0b 44
        E 16 b1 0b 3b
        E 32 b1 0b 2a
        E 16 b1 0b 11
        E 0 81 38 00
        E 0 91 35 11
        E 16 b1 0b 55
        E 16 b1 0b 44
        E 16 b1 0b 3b
        E 112 b1 0b 2a
        E 16 b1 0b 22
        E 16 b1 0b 11
        E 0 81 35 00
        E 0 91 3a 11
        E 16 b1 0b 55
        E 16 b1 0b 44
        E 16 b1 0b 3b
        E 208 b1 0b 2a
        E 16 b1 0b 22
        E 16 b1 0b 11
        E 0 81 3a 00
        E 0 91 3c 11
        E 16 b1 0b 55
        E 16 b1 0b 44
        E 16 b1 0b 3b
        E 112 b1 0b 2a
        E 16 b1 0b 22
        E 16 b1 0b 11
        E 0 81 3c 00
        E 0 91 3a 11
        E 16 b1 0b 55
        E 16 b1 0b 44
        E 16 b1 0b 3b
        E 112 b1 0b 2a
        E 16 b1 0b 22
        E 16 b1 0b 11
        E 0 81 3a 00
        E 0 91 38 11
        E 16 b1 0b 55
        E 16 b1 0b 44
        E 16 b1 0b 3b
        E 112 b1 0b 2a
        E 16 b1 0b 22
        E 16 b1 0b 11
        E 0 81 38 00
        E 0 91 34 11
        E 16 b1 0b 55
        E 16 b1 0b 44
        E 16 b1 0b 3b
        E 80 b1 0b 2a
        E 16 b1 0b 22
        E 16 b1 0b 19
        E 16 b1 0b 11
        E 16 81 34 00
        E 0 91 35 11
        E 16 b1 0b 55
        E 16 b1 0b 44
        E 16 b1 0b 3b
        E 112 b1 0b 2a
        E 16 b1 0b 22
        E 16 b1 0b 11
        E 0 81 35 00
        E 0 91 38 11
        E 16 b1 0b 55
        E 16 b1 0b 44
        E 16 b1 0b 3b
        E 32 b1 0b 2a
        E 16 b1 0b 11
        E 0 81 38 00
        E 0 91 35 11
        E 16 b1 0b 55
        E 16 b1 0b 44
        E 16 b1 0b 3b
        E 112 b1 0b 2a
        E 16 b1 0b 22
        E 16 b1 0b 19
        E 16 b1 0b 11
        E 16 81 35 00
        E 64 b1 0c 40
        E 0 b1 0b 55
        E 0 91 3f 55
        E 80 b1 0b 4c
        E 16 b1 0b 55
        E 0 81 3f 00
        E 0 91 3d 55
        E 80 b1 0b 4c
        E 16 b1 0b 55
        E 0 81 3d 00
        E 0 91 3f 55
        E 80 b1 0b 4c
        E 16 b1 0b 55
        E 0 81 3f 00
        E 0 91 3d 55
        E 80 b1 0b 4c
        E 16 b1 0b 55
        E 0 81 3d 00
        E 0 91 3f 55
        E 80 b1 0b 4c
        E 16 b1 0b 55
        E 0 81 3f 00
        E 0 91 3d 55
        E 80 b1 0b 4c
        E 16 b1 0b 55
        E 0 81 3d 00
        E 0 91 3f 55
        E 80 b1 0b 4c
        E 16 b1 0b 55
        E 0 81 3f 00
        E 0 91 3d 55
        E 80 b1 0b 4c
        E 16 b1 0c 60
        E 0 b1 0b 11
        E 0 81 3d 00
        E 0 91 34 11
        E 16 b1 0b 55
        E 16 b1 0b 44
        E 16 b1 0b 3b
        E 80 b1 0b 2a
        E 16 b1 0b 22
        E 16 b1 0b 19
        E 16 b1 0b 11
        E 16 81 34 00
        E 0 91 35 11
        E 16 b1 0b 55
        E 16 b1 0b 44
        E 16 b1 0b 3b
        E 112 b1 0b 2a
        E 16 b1 0b 22
        E 16 b1 0b 11
        E 0 81 35 00
        E 0 91 38 11
        E 16 b1 0b 55
        E 16 b1 0b 44
        E 16 b1 0b 3b
        E 32 b1 0b 2a
        E 16 b1 0b 11
        E 0 81 38 00
        E 0 91 35 11
        E 16 b1 0b 55
        E 16 b1 0b 44
        E 16 b1 0b 3b
        E 112 b1 0b 2a
        E 16 b1 0b 22
        E 16 b1 0b 11
        E 0 81 35 00
        E 0 91 3a 11
        E 16 b1 0b 55
        E 16 b1 0b 44
        E 16 b1 0b 3b
        E 208 b1 0b 2a
        E 16 b1 0b 22
        E 16 b1 0b 11
        E 0 81 3a 00
        E 0 91 3c 11
        E 16 b1 0b 55
        E 16 b1 0b 44
        E 16 b1 0b 3b
        E 112 b1 0b 2a
        E 16 b1 0b 22
        E 16 b1 0b 11
        E 0 81 3c 00
        E 0 91 3a 11
        E 16 b1 0b 55
        E 16 b1 0b 44
        E 16 b1 0b 3b
        E 112 b1 0b 2a
        E 16 b1 0b 22
        E 16 b1 0b 11
        E 0 81 3a 00
        E 0 91 38 11
        E 16 b1 0b 55
        E 16 b1 0b 44
        E 16 b1 0b 3b
        E 112 b1 0b 2a
        E 16 b1 0b 22
        E 16 b1 0b 11
        E 0 81 38 00
        E 0 91 34 11
        E 16 b1 0b 55
        E 16 b1 0b 44
        E 16 b1 0b 3b
        E 80 b1 0b 2a
        E 16 b1 0b 22
        E 16 b1 0b 19
        E 16 b1 0b 11
        E 16 81 34 00
        E 0 91 35 11
        E 16 b1 0b 55
        E 16 b1 0b 44
        E 16 b1 0b 3b
        E 112 b1 0b 2a
        E 16 b1 0b 22
        E 16 b1 0b 11
        E 0 81 35 00
        E 0 91 38 11
        E 16 b1 0b 55
        E 16 b1 0b 44
        E 16 b1 0b 3b
        E 32 b1 0b 2a
        E 16 b1 0b 11
        E 0 81 38 00
        E 0 91 35 11
        E 16 b1 0b 55
        E 16 b1 0b 44
        E 16 b1 0b 3b
        E 112 b1 0b 2a
        E 16 b1 0b 22
        E 16 b1 0b 19
        E 16 b1 0b 11
        E 16 81 35 00
        E 64 b1 0c 40
        E 0 b1 0b 55
        E 0 91 44 55
        E 112 b1 0b 4c
        E 16 b1 0b 55
        E 0 81 44 00
        E 0 91 42 55
        E 112 b1 0b 4c
        E 16 b1 0b 55
        E 0 81 42 00
        E 0 91 3f 55
        E 112 b1 0b 4c
        E 16 b1 0b 55
        E 0 81 3f 00
        E 0 91 41 55
        E 112 b1 0b 4c
        E 16 b1 0b 55
        E 0 81 41 00
        E 0 91 3c 55
        E 112 b1 0b 4c
        E 16 b1 0b 55
        E 0 81 3c 00
        E 0 91 3d 55
        E 112 b1 0b 4c
        E 16 b1 0c 60
        E 0 b1 0b 11
        E 0 81 3d 00
        E 0 91 34 11
        E 16 b1 0b 55
        E 16 b1 0b 44
        E 16 b1 0b 3b
        E 80 b1 0b 2a
        E 16 b1 0b 22
        E 16 b1 0b 19
        E 16 b1 0b 11
        E 16 81 34 00
        E 0 91 35 11
        E 16 b1 0b 55
        E 16 b1 0b 44
        E 16 b1 0b 3b
        E 112 b1 0b 2a
        E 16 b1 0b 22
        E 16 b1 0b 11
        E 0 81 35 00
        E 0 91 38 11
        E 16 b1 0b 55
        E 16 b1 0b 44
        E 16 b1 0b 3b
        E 32 b1 0b 2a
        E 16 b1 0b 11
        E 0 81 38 00
        E 0 91 35 11
        E 16 b1 0b 55
        E 16 b1 0b 44
        E 16 b1 0b 3b
        E 112 b1 0b 2a
        E 16 b1 0b 22
        E 16 b1 0b 11
        E 0 81 35 00
        E 0 91 3a 11
        E 16 b1 0b 55
        E 16 b1 0b 44
        E 16 b1 0b 3b
        E 208 b1 0b 2a
        E 16 b1 0b 22
        E 16 b1 0b 11
        E 0 81 3a 00
        E 0 91 3c 11
        E 16 b1 0b 55
        E 16 b1 0b 44
        E 16 b1 0b 3b
        E 112 b1 0b 2a
        E 16 b1 0b 22
        E 16 b1 0b 11
        E 0 81 3c 00
        E 0 91 3a 11
        E 16 b1 0b 55
        E 16 b1 0b 44
        E 16 b1 0b 3b
        E 112 b1 0b 2a
        E 16 b1 0b 22
        E 16 b1 0b 11
        E 0 81 3a 00
        E 0 91 38 11
        E 16 b1 0b 55
        E 16 b1 0b 44
        E 16 b1 0b 3b
        E 112 b1 0b 2a
        E 16 b1 0b 22
        E 16 b1 0b 11
        E 0 81 38 00
        E 0 91 34 11
        E 16 b1 0b 55
        E 16 b1 0b 44
        E 16 b1 0b 3b
        E 80 b1 0b 2a
        E 16 b1 0b 22
        E 16 b1 0b 19
        E 16 b1 0b 11
        E 16 81 34 00
        E 0 91 35 11
        E 16 b1 0b 55
        E 16 b1 0b 44
        E 16 b1 0b 3b
        E 112 b1 0b 2a
        E 16 b1 0b 22
        E 16 b1 0b 11
        E 0 81 35 00
        E 0 91 38 11
        E 16 b1 0b 55
        E 16 b1 0b 44
        E 16 b1 0b 3b
        E 32 b1 0b 2a
        E 16 b1 0b 11
        E 0 81 38 00
        E 0 91 35 11
        E 16 b1 0b 55
        E 16 b1 0b 44
        E 16 b1 0b 3b
        E 112 b1 0b 2a
        E 16 b1 0b 22
        E 16 b1 0b 19
        E 16 b1 0b 11
        E 16 81 35 00
        E 160 b1 0c 40
        E 0 b1 0b 55
        E 0 91 44 55
        E 80 b1 0b 4c
        E 16 b1 0b 55
        E 0 81 44 00
        E 0 91 45 55
        E 80 b1 0b 4c
        E 16 b1 0b 55
        E 0 81 45 00
        E 0 91 46 55
        E 80 b1 0b 4c
        E 16 b1 0b 55
        E 0 81 46 00
        E 0 91 49 55
        E 80 b1 0b 4c
        E 16 b1 0b 55
        E 0 81 49 00
        E 0 91 48 55
        E 80 b1 0b 4c
        E 16 b1 0b 55
        E 0 81 48 00
        E 0 91 44 55
        E 80 b1 0b 4c
        E 16 b1 0b 55
        E 0 81 44 00
        E 0 91 46 55
        E 80 b1 0b 4c
        E 16 b1 0c 60
        E 0 b1 0b 11
        E 0 81 46 00
        E 0 91 34 11
        E 16 b1 0b 55
        E 16 b1 0b 44
        E 16 b1 0b 3b
        E 80 b1 0b 2a
        E 16 b1 0b 22
        E 16 b1 0b 19
        E 16 b1 0b 11
        E 16 81 34 00
        E 0 91 35 11
        E 16 b1 0b 55
        E 16 b1 0b 44
        E 16 b1 0b 3b
        E 112 b1 0b 2a
        E 16 b1 0b 22
        E 16 b1 0b 11
        E 0 81 35 00
        E 0 91 38 11
        E 16 b1 0b 55
        E 16 b1 0b 44
        E 16 b1 0b 3b
        E 32 b1 0b 2a
        E 16 b1 0b 11
        E 0 81 38 00
        E 0 91 35 11
        E 16 b1 0b 55
        E 16 b1 0b 44
        E 16 b1 0b 3b
        E 112 b1 0b 2a
        E 16 b1 0b 22
        E 16 b1 0b 11
        E 0 81 35 00
        E 0 91 3a 11
        E 16 b1 0b 55
        E 16 b1 0b 44
        E 16 b1 0b 3b
        E 208 b1 0b 2a
        E 16 b1 0b 22
        E 16 b1 0b 11
        E 0 81 3a 00
        E 0 91 3c 11
        E 16 b1 0b 55
        E 16 b1 0b 44
        E 16 b1 0b 3b
        E 112 b1 0b 2a
        E 16 b1 0b 22
        E 16 b1 0b 11
        E 0 81 3c 00
        E 0 91 3a 11
        E 16 b1 0b 55
        E 16 b1 0b 44
        E 16 b1 0b 3b
        E 112 b1 0b 2a
        E 16 b1 0b 22
        E 16 b1 0b 11
        E 0 81 3a 00
        E 0 91 38 11
        E 16 b1 0b 55
        E 16 b1 0b 44
        E 16 b1 0b 3b
        E 112 b1 0b 2a
        E 16 b1 0b 22
        E 16 b1 0c 40
        E 0 b1 0b 55
        E 0 81 38 00
        E 0 91 41 55
        E 80 b1 0b 4c
        E 16 b1 0b 55
        E 0 81 41 00
        E 0 91 3f 55
        E 80 b1 0b 4c
        E 16 b1 0b 55
        E 0 81 3f 00
        E 0 91 3c 55
        E 80 b1 0b 4c
        E 16 b1 0b 55
        E 0 81 3c 00
        E 0 91 3d 55
        E 160 b1 0b 4c
        E 16 b1 0b 44
        E 16 b1 0b 55
        E 0 81 3d 00
        E 0 91 41 55
        E 160 b1 0b 4c
        E 16 b1 0b 44
        E 16 b1 0b 55
        E 0 81 41 00
        E 0 91 3f 55
        E 160 b1 0b 4c
        E 16 b1 0b 44
        E 16 b1 0b 55
        E 0 81 3f 00
        E 0 91 3c 55
        E 160 b1 0b 4c
        E 16 b1 0b 44
        E 16 b1 0b 55
        E 0 81 3c 00
        E 0 91 3d 55
        E 80 b1 0b 4c
        E 16 b1 0b 55
        E 0 81 3d 00
        E 0 91 41 55
        E 336 b1 0b 4c
        E 16 b1 0b 44
        E 16 b1 0b 3b
        E 16 b1 0c 60
        E 0 b1 0b 11
        E 0 81 41 00
        E 0 91 34 11
        E 16 b1 0b 55
        E 16 b1 0b 44
        E 16 b1 0b 3b
        E 80 b1 0b 2a
        E 16 b1 0b 22
        E 16 b1 0b 19
        E 16 b1 0b 11
        E 16 81 34 00
        E 0 91 35 11
        E 16 b1 0b 55
        E 16 b1 0b 44
        E 16 b1 0b 3b
        E 112 b1 0b 2a
        E 16 b1 0b 22
        E 16 b1 0b 11
        E 0 81 35 00
        E 0 91 38 11
        E 16 b1 0b 55
        E 16 b1 0b 44
        E 16 b1 0b 3b
        E 32 b1 0b 2a
        E 16 b1 0b 11
        E 0 81 38 00
        E 0 91 35 11
        E 16 b1 0b 55
        E 16 b1 0b 44
        E 16 b1 0b 3b
        E 112 b1 0b 2a
        E 16 b1 0b 22
        E 16 b1 0b 11
        E 0 81 35 00
        E 0 91 3a 11
        E 16 b1 0b 55
        E 16 b1 0b 44
        E 16 b1 0b 3b
        E 208 b1 0b 2a
        E 16 b1 0b 22
        E 16 b1 0b 11
        E 0 81 3a 00
        E 0 91 3c 11
        E 16 b1 0b 55
        E 16 b1 0b 44
        E 16 b1 0b 3b
        E 112 b1 0b 2a
        E 16 b1 0b 22
        E 16 b1 0b 11
        E 0 81 3c 00
        E 0 91 3a 11
        E 16 b1 0b 55
        E 16 b1 0b 44
        E 16 b1 0b 3b
        E 112 b1 0b 2a
        E 16 b1 0b 22
        E 16 b1 0b 11
        E 0 81 3a 00
        E 0 91 38 11
        E 16 b1 0b 55
        E 16 b1 0b 44
        E 16 b1 0b 3b
        E 112 b1 0b 2a
        E 16 b1 0b 22
        E 16 b1 0b 11
        E 0 81 38 00
        E 0 91 34 11
        E 16 b1 0b 55
        E 16 b1 0b 44
        E 16 b1 0b 3b
        E 80 b1 0b 2a
        E 16 b1 0b 22
        E 16 b1 0b 19
        E 16 b1 0b 11
        E 16 81 34 00
        E 0 91 35 11
        E 16 b1 0b 55
        E 16 b1 0b 44
        E 16 b1 0b 3b
        E 112 b1 0b 2a
        E 16 b1 0b 22
        E 16 b1 0b 11
        E 0 81 35 00
        E 0 91 38 11
        E 16 b1 0b 55
        E 16 b1 0b 44
        E 16 b1 0b 3b
        E 32 b1 0b 2a
        E 16 b1 0b 11
        E 0 81 38 00
        E 0 91 35 11
        E 16 b1 0b 55
        E 16 b1 0b 44
        E 16 b1 0b 3b
        E 112 b1 0b 2a
        E 16 b1 0b 22
        E 16 b1 0b 19
        E 16 b1 0b 11
        E 16 81 35 00
        E 64 b1 0c 40
        E 0 b1 0b 55
        E 0 91 3f 55
        E 80 b1 0b 4c
        E 16 b1 0b 55
        E 0 81 3f 00
        E 0 91 3d 55
        E 80 b1 0b 4c
        E 16 b1 0b 55
        E 0 81 3d 00
        E 0 91 3f 55
        E 80 b1 0b 4c
        E 16 b1 0b 55
        E 0 81 3f 00
        E 0 91 3d 55
        E 80 b1 0b 4c
        E 16 b1 0b 55
        E 0 81 3d 00
        E 0 91 3f 55
        E 80 b1 0b 4c
        E 16 b1 0b 55
        E 0 81 3f 00
        E 0 91 3d 55
        E 80 b1 0b 4c
        E 16 b1 0b 55
        E 0 81 3d 00
        E 0 91 3f 55
        E 80 b1 0b 4c
        E 16 b1 0b 55
        E 0 81 3f 00
        E 0 91 3d 55
        E 80 b1 0b 4c
        E 16 b1 0c 60
        E 0 b1 0b 11
        E 0 81 3d 00
        E 0 91 34 11
        E 16 b1 0b 55
        E 16 b1 0b 44
        E 16 b1 0b 3b
        E 80 b1 0b 2a
        E 16 b1 0b 22
        E 16 b1 0b 19
        E 16 b1 0b 11
        E 16 81 34 00
        E 0 91 35 11
        E 16 b1 0b 55
        E 16 b1 0b 44
        E 16 b1 0b 3b
        E 112 b1 0b 2a
        E 16 b1 0b 22
        E 16 b1 0b 11
        E 0 81 35 00
        E 0 91 38 11
        E 16 b1 0b 55
        E 16 b1 0b 44
        E 16 b1 0b 3b
        E 32 b1 0b 2a
        E 16 b1 0b 11
        E 0 81 38 00
        E 0 91 35 11
        E 16 b1 0b 55
        E 16 b1 0b 44
        E 16 b1 0b 3b
        E 112 b1 0b 2a
        E 16 b1 0b 22
        E 16 b1 0b 11
        E 0 81 35 00
        E 0 91 3a 11
        E 16 b1 0b 55
        E 16 b1 0b 44
        E 16 b1 0b 3b
        E 208 b1 0b 2a
        E 16 b1 0b 22
        E 16 b1 0b 11
        E 0 81 3a 00
        E 0 91 3c 11
        E 16 b1 0b 55
        E 16 b1 0b 44
        E 16 b1 0b 3b
        E 112 b1 0b 2a
        E 16 b1 0b 22
        E 16 b1 0b 11
        E 0 81 3c 00
        E 0 91 3a 11
        E 16 b1 0b 55
        E 16 b1 0b 44
        E 16 b1 0b 3b
        E 112 b1 0b 2a
        E 16 b1 0b 22
        E 16 b1 0b 11
        E 0 81 3a 00
        E 0 91 38 11
        E 16 b1 0b 55
        E 16 b1 0b 44
        E 16 b1 0b 3b
        E 112 b1 0b 2a
        E 16 b1 0b 22
        E 16 b1 0b 11
        E 0 81 38 00
        E 0 91 34 11
        E 16 b1 0b 55
        E 16 b1 0b 44
        E 16 b1 0b 3b
        E 80 b1 0b 2a
        E 16 b1 0b 22
        E 16 b1 0b 19
        E 16 b1 0b 11
        E 16 81 34 00
        E 0 91 35 11
        E 16 b1 0b 55
        E 16 b1 0b 44
        E 16 b1 0b 3b
        E 112 b1 0b 2a
        E 16 b1 0b 22
        E 16 b1 0b 11
        E 0 81 35 00
        E 0 91 38 11
        E 16 b1 0b 55
        E 16 b1 0b 44
        E 16 b1 0b 3b
        E 32 b1 0b 2a
        E 16 b1 0b 11
        E 0 81 38 00
        E 0 91 35 11
        E 16 b1 0b 55
        E 16 b1 0b 44
        E 16 b1 0b 3b
        E 112 b1 0b 2a
        E 16 b1 0b 22
        E 16 b1 0b 19
        E 16 b1 0b 11
        E 16 81 35 00
        E 64 b1 0c 40
        E 0 b1 0b 55
        E 0 91 44 55
        E 112 b1 0b 4c
        E 16 b1 0b 55
        E 0 81 44 00
        E 0 91 42 55
        E 112 b1 0b 4c
        E 16 b1 0b 55
        E 0 81 42 00
        E 0 91 3f 55
        E 112 b1 0b 4c
        E 16 b1 0b 55
        E 0 81 3f 00
        E 0 91 41 55
        E 112 b1 0b 4c
        E 16 b1 0b 55
        E 0 81 41 00
        E 0 91 3c 55
        E 112 b1 0b 4c
        E 16 b1 0b 55
        E 0 81 3c 00
        E 0 91 3d 55
        E 112 b1 0b 4c
        E 16 b1 0c 60
        E 0 b1 0b 11
        E 0 81 3d 00
        E 0 91 34 11
        E 16 b1 0b 55
        E 16 b1 0b 44
        E 16 b1 0b 3b
        E 80 b1 0b 2a
        E 16 b1 0b 22
        E 16 b1 0b 19
        E 16 b1 0b 11
        E 16 81 34 00
        E 0 91 35 11
        E 16 b1 0b 55
        E 16 b1 0b 44
        E 16 b1 0b 3b
        E 112 b1 0b 2a
        E 16 b1 0b 22
        E 16 b1 0b 11
        E 0 81 35 00
        E 0 91 38 11
        E 16 b1 0b 55
        E 16 b1 0b 44
        E 16 b1 0b 3b
        E 32 b1 0b 2a
        E 16 b1 0b 11
        E 0 81 38 00
        E 0 91 35 11
        E 16 b1 0b 55
        E 16 b1 0b 44
        E 16 b1 0b 3b
        E 112 b1 0b 2a
        E 16 b1 0b 22
        E 16 b1 0b 11
        E 0 81 35 00
        E 0 91 3a 11
        E 16 b1 0b 55
        E 16 b1 0b 44
        E 16 b1 0b 3b
        E 208 b1 0b 2a
        E 16 b1 0b 22
        E 16 b1 0b 11
        E 0 81 3a 00
        E 0 91 3c 11
        E 16 b1 0b 55
        E 16 b1 0b 44
        E 16 b1 0b 3b
        E 112 b1 0b 2a
        E 16 b1 0b 22
        E 16 b1 0b 11
        E 0 81 3c 00
        E 0 91 3a 11
        E 16 b1 0b 55
        E 16 b1 0b 44
        E 16 b1 0b 3b
        E 112 b1 0b 2a
        E 16 b1 0b 22
        E 16 b1 0b 11
        E 0 81 3a 00
        E 0 91 38 11
        E 16 b1 0b 55
        E 16 b1 0b 44
        E 16 b1 0b 3b
        E 112 b1 0b 2a
        E 16 b1 0b 22
        E 16 b1 0b 11
        E 0 81 38 00
        E 0 91 34 11
        E 16 b1 0b 55
        E 16 b1 0b 44
        E 16 b1 0b 3b
        E 80 b1 0b 2a
        E 16 b1 0b 22
        E 16 b1 0b 19
        E 16 b1 0b 11
        E 16 81 34 00
        E 0 91 35 11
        E 16 b1 0b 55
        E 16 b1 0b 44
        E 16 b1 0b 3b
        E 112 b1 0b 2a
        E 16 b1 0b 22
        E 16 b1 0b 11
        E 0 81 35 00
        E 0 91 38 11
        E 16 b1 0b 55
        E 16 b1 0b 44
        E 16 b1 0b 3b
        E 32 b1 0b 2a
        E 16 b1 0b 11
        E 0 81 38 00
        E 0 91 35 11
        E 16 b1 0b 55
        E 16 b1 0b 44
        E 16 b1 0b 3b
        E 112 b1 0b 2a
        E 16 b1 0b 22
        E 16 b1 0b 19
        E 16 b1 0b 11
        E 16 81 35 00
        E 160 b1 0c 40
        E 0 b1 0b 55
        E 0 91 44 55
        E 80 b1 0b 4c
        E 16 b1 0b 55
        E 0 81 44 00
        E 0 91 45 55
        E 80 b1 0b 4c
        E 16 b1 0b 55
        E 0 81 45 00
        E 0 91 46 55
        E 80 b1 0b 4c
        E 16 b1 0b 55
        E 0 81 46 00
        E 0 91 49 55
        E 80 b1 0b 4c
        E 16 b1 0b 55
        E 0 81 49 00
        E 0 91 48 55
        E 80 b1 0b 4c
        E 16 b1 0b 55
        E 0 81 48 00
        E 0 91 44 55
        E 80 b1 0b 4c
        E 16 b1 0b 55
        E 0 81 44 00
        E 0 91 46 55
        E 80 b1 0b 4c
        E 16 b1 0c 60
        E 0 b1 0b 11
        E 0 81 46 00
        E 0 91 34 11
        E 16 b1 0b 55
        E 16 b1 0b 44
        E 16 b1 0b 3b
        E 80 b1 0b 2a
        E 16 b1 0b 22
        E 16 b1 0b 19
        E 16 b1 0b 11
        E 16 81 34 00
        E 0 91 35 11
        E 16 b1 0b 55
        E 16 b1 0b 44
        E 16 b1 0b 3b
        E 112 b1 0b 2a
        E 16 b1 0b 22
        E 16 b1 0b 11
        E 0 81 35 00
        E 0 91 38 11
        E 16 b1 0b 55
        E 16 b1 0b 44
        E 16 b1 0b 3b
        E 32 b1 0b 2a
        E 16 b1 0b 11
        E 0 81 38 00
        E 0 91 35 11
        E 16 b1 0b 55
        E 16 b1 0b 44
        E 16 b1 0b 3b
        E 112 b1 0b 2a
        E 16 b1 0b 22
        E 16 b1 0b 11
        E 0 81 35 00
        E 0 91 3a 11
        E 16 b1 0b 55
        E 16 b1 0b 44
        E 16 b1 0b 3b
        E 208 b1 0b 2a
        E 16 b1 0b 22
        E 16 b1 0b 11
        E 0 81 3a 00
        E 0 91 3c 11
        E 16 b1 0b 55
        E 16 b1 0b 44
        E 16 b1 0b 3b
        E 112 b1 0b 2a
        E 16 b1 0b 22
        E 16 b1 0b 11
        E 0 81 3c 00
        E 0 91 3a 11
        E 16 b1 0b 55
        E 16 b1 0b 44
        E 16 b1 0b 3b
        E 112 b1 0b 2a
        E 16 b1 0b 22
        E 16 b1 0b 11
        E 0 81 3a 00
        E 0 91 38 11
        E 16 b1 0b 55
        E 16 b1 0b 44
        E 16 b1 0b 3b
        E 112 b1 0b 2a
        E 16 b1 0b 22
        E 16 b1 0b 19
        E 16 b1 0b 11
        E 16 81 38 00
        E 160 91 4d 11
        E 16 b1 0b 55
        E 16 b1 0b 44
        E 16 b1 0b 3b
        E 112 b1 0b 2a
        E 16 b1 0b 22
        E 16 b1 0b 19
        E 16 b1 0b 11
        E 16 81 4d 00
        E 48 91 48 11
        E 16 b1 0b 55
        E 16 b1 0b 44
        E 16 b1 0b 3b
        E 112 b1 0b 2a
        E 16 b1 0b 22
        E 16 b1 0b 19
        E 16 b1 0b 11
        E 16 81 48 00
        E 64 91 41 11
        E 16 b1 0b 55
        E 16 b1 0b 44
        E 16 b1 0b 3b
        E 112 81 41 00
        E 656 b1 0b 08
        E 0 91 2e 08
        E 16 b1 0b 4c
        E 16 b1 0b 3b
        E 16 b1 0b 33
        E 128 b1 0b 22
        E 16 b1 0b 19
        E 16 b1 0b 11
        E 16 b1 0b 08
        E 16 81 2e 00
        E 32 91 33 08
        E 16 b1 0b 4c
        E 16 b1 0b 3b
        E 16 b1 0b 33
        E 32 b1 0b 22
        E 16 b1 0b 19
        E 16 b1 0b 11
        E 16 b1 0b 08
        E 16 81 33 00
        E 128 91 35 08
        E 16 b1 0b 4c
        E 16 b1 0b 3b
        E 16 b1 0b 33
        E 16 81 35 00
        E 16 b1 0b 19
        E 0 91 54 19
        E 16 b1 0b 33
        E 16 b1 0b 4c
        E 16 b1 0b 66
        E 16 b1 0b 7f
        E 16 b1 0b 77
        E 32 b1 0b 6e
        E 16 b1 0b 66
        E 16 b1 0b 5d
        E 16 b1 0b 55
        E 16 b1 0b 4c
        E 16 b1 0b 44
        E 32 b1 0b 3b
        E 16 b1 0b 33
        E 16 b1 0b 2a
        E 16 b1 0b 22
        E 0 81 54 00
        E 0 91 38 22
        E 16 b1 0b 19
        E 16 b1 0b 11
        E 16 b1 0b 08
        E 16 81 38 00
        E 80 b1 0b 33
        E 0 91 2e 33
        E 16 b1 0b 22
        E 16 b1 0b 08
        E 0 81 2e 00
        E 0 91 33 08
        E 16 b1 0b 4c
        E 16 b1 0b 3b
        E 16 b1 0b 33
        E 112 b1 0b 22
        E 16 b1 0b 08
        E 0 81 33 00
        E 0 91 35 08
        E 16 b1 0b 4c
        E 16 b1 0b 3b
        E 16 b1 0b 33
        E 112 b1 0b 22
        E 16 b1 0b 08
        E 0 81 35 00
        E 0 91 36 08
        E 16 b1 0b 4c
        E 16 b1 0b 3b
        E 16 b1 0b 33
        E 432 b1 0b 22
        E 16 b1 0b 19
        E 16 b1 0b 11
        E 16 b1 0b 08
        E 0 81 36 00
        E 0 91 38 08
        E 16 b1 0b 4c
        E 16 b1 0b 3b
        E 16 b1 0b 33
        E 432 b1 0b 22
        E 16 b1 0b 19
        E 16 b1 0b 11
        E 16 b1 0b 08
        E 0 81 38 00
        E 0 91 30 08
        E 16 b1 0b 4c
        E 16 b1 0b 3b
        E 16 b1 0b 33
        E 272 b1 0b 22
        E 16 b1 0b 19
        E 16 b1 0b 08
        E 0 81 30 00
        E 0 91 2e 08
        E 16 b1 0b 4c
        E 16 b1 0b 3b
        E 16 b1 0b 33
        E 112 b1 0b 22
        E 16 b1 0b 19
        E 16 b1 0b 11
        E 16 b1 0b 08
        E 16 81 2e 00
        E 32 91 33 08
        E 16 b1 0b 4c
        E 16 b1 0b 3b
        E 16 b1 0b 33
        E 32 b1 0b 22
        E 16 b1 0b 19
        E 16 b1 0b 11
        E 16 b1 0b 08
        E 16 81 33 00
        E 128 91 35 08
        E 16 b1 0b 4c
        E 16 b1 0b 3b
        E 16 b1 0b 33
        E 272 b1 0b 22
        E 16 b1 0b 19
        E 16 b1 0b 08
        E 0 81 35 00
        E 0 91 2e 08
        E 16 b1 0b 4c
        E 16 b1 0b 3b
        E 16 b1 0b 33
        E 112 b1 0b 22
        E 16 b1 0b 08
        E 0 81 2e 00
        E 0 91 33 08
        E 16 b1 0b 4c
        E 16 b1 0b 3b
        E 16 b1 0b 33
        E 112 b1 0b 22
        E 16 b1 0b 08
        E 0 81 33 00
        E 0 91 35 08
        E 16 b1 0b 4c
        E 16 b1 0b 3b
        E 16 b1 0b 33
        E 112 b1 0b 22
        E 16 b1 0b 08
        E 0 81 35 00
        E 0 91 3a 08
        E 16 b1 0b 4c
        E 16 b1 0b 3b
        E 16 b1 0b 33
        E 112 b1 0b 22
        E 16 b1 0b 19
        E 16 b1 0b 11
        E 16 b1 0b 08
        E 16 81 3a 00
        E 32 91 3b 08
        E 16 b1 0b 4c
        E 16 b1 0b 3b
        E 16 b1 0b 33
        E 32 b1 0b 22
        E 16 b1 0b 19
        E 16 b1 0b 11
        E 16 b1 0b 08
        E 16 81 3b 00
        E 128 91 3c 08
        E 16 b1 0b 4c
        E 16 b1 0b 3b
        E 16 b1 0b 33
        E 448 b1 0b 22
        E 16 b1 0b 19
        E 16 b1 0b 08
        E 0 81 3c 00
        E 0 91 35 08
        E 16 b1 0b 4c
        E 16 b1 0b 3b
        E 16 b1 0b 33
        E 272 b1 0b 22
        E 16 b1 0b 19
        E 16 b1 0b 08
        E 0 81 35 00
        E 0 91 2e 08
        E 16 b1 0b 4c
        E 16 b1 0b 3b
        E 16 b1 0b 33
        E 112 b1 0b 22
        E 16 b1 0b 19
        E 16 b1 0b 11
        E 16 b1 0b 08
        E 16 81 2e 00
        E 32 91 33 08
        E 16 b1 0b 4c
        E 16 b1 0b 3b
        E 16 b1 0b 33
        E 32 b1 0b 22
        E 16 b1 0b 19
        E 16 b1 0b 11
        E 16 b1 0b 08
        E 16 81 33 00
        E 128 91 35 08
        E 16 b1 0b 4c
        E 16 b1 0b 3b
        E 16 b1 0b 33
        E 288 b1 0b 22
        E 16 b1 0b 08
        E 0 81 35 00
        E 0 91 2e 08
        E 16 b1 0b 4c
        E 16 b1 0b 3b
        E 16 b1 0b 33
        E 112 b1 0b 22
        E 16 b1 0b 08
        E 0 81 2e 00
        E 0 91 33 08
        E 16 b1 0b 4c
        E 16 b1 0b 3b
        E 16 b1 0b 33
        E 112 b1 0b 22
        E 16 b1 0b 08
        E 0 81 33 00
        E 0 91 35 08
        E 16 b1 0b 4c
        E 16 b1 0b 3b
        E 16 b1 0b 33
        E 96 81 35 00
        E 0 b1 7b 00
        E 0 ff 2f 00
      >
    >
  >
  <TRACK {927A1001-C552-401D-80EA-806F1724D7FF}
    NAME "NES - Triangle [ch2]"
    PEAKCOL 16744192
    BEAT -1
    AUTOMODE 0
    PANLAWFLAGS 3
    VOLPAN 1 0 -1 -1 1
    MUTESOLO 0 0 0
    IPHASE 0
    PLAYOFFS 0 1
    ISBUS 0 0
    BUSCOMP 0 0 0 0 0
    SHOWINMIX 1 0.6667 0.5 1 0.5 0 0 0
    FIXEDLANES 9 0 0 0 0
    SEL 0
    REC 0 5088 1 0 0 0 0 0
    VU 2
    TRACKHEIGHT 0 0 0 0 0 0 0
    INQ 0 0 0 0.5 100 0 0 100
    NCHAN 2
    FX 1
    TRACKID {927A1001-C552-401D-80EA-806F1724D7FF}
    PERF 0
    MIDIOUT -1
    MAINSEND 1 0
    <FXCHAIN
      WNDRECT 24 52 700 560
      SHOW 0
      LASTSEL 0
      DOCKED 0
      BYPASS 0 0 0
      <JS "ReapNES Studio/ReapNES_Console.jsfx" ""
        2 15 1 10 80 10 100 2 1 15 1 5 60 10 80 1 1 0 50 0 0 15 1 0 100 0 0 0.500000 0.500000 0.400000 0.300000 0.800000 2 1 0 0 0 0 - - - - - - - - - - - - - - - - - - - - - - - - - -
      >
      FLOATPOS 0 0 0 0
      FXID {249428B0-90C4-4B0C-A264-E33262602BD9}
      WAK 0 0
    >
    <ITEM
      POSITION 0
      LENGTH 68.8491467
      LOOP 0
      ALLTAKES 0
      FADEIN 0 0 0 0 0 0 0
      FADEOUT 0 0 0 0 0 0 0
      MUTE 0 0
      SEL 0
      IGUID {C6C7A8F7-7272-40A5-9284-A9D70977BF45}
      <SOURCE MIDI
        HASDATA 1 480 QN
        CCINTERP 32
        E 0 c2 26
        E 25936 b2 0b 7f
        E 0 92 2c 7f
        E 64 82 2c 00
        E 0 b2 0b 7f
        E 0 92 1e 7f
        E 16 82 1e 00
        E 304 b2 0b 7f
        E 0 92 31 7f
        E 32 82 31 00
        E 0 b2 0b 7f
        E 0 92 2a 7f
        E 32 82 2a 00
        E 112 b2 0b 7f
        E 0 92 34 7f
        E 80 82 34 00
        E 16 b2 0b 7f
        E 0 92 35 7f
        E 80 82 35 00
        E 16 b2 0b 7f
        E 0 92 31 7f
        E 144 82 31 00
        E 32 b2 0b 7f
        E 0 92 2e 7f
        E 160 82 2e 00
        E 32 b2 0b 7f
        E 0 92 2c 7f
        E 144 82 2c 00
        E 32 b2 0b 7f
        E 0 92 2c 7f
        E 80 82 2c 00
        E 16 b2 0b 7f
        E 0 92 2d 7f
        E 80 82 2d 00
        E 16 b2 0b 7f
        E 0 92 2e 7f
        E 1040 82 2e 00
        E 64 b2 0b 7f
        E 0 92 35 7f
        E 336 82 35 00
        E 32 b2 0b 7f
        E 0 92 38 7f
        E 448 82 38 00
        E 96 b2 0b 7f
        E 0 92 37 7f
        E 864 82 37 00
        E 64 b2 0b 7f
        E 0 92 33 7f
        E 928 82 33 00
        E 176 b2 0b 7f
        E 0 92 31 7f
        E 144 82 31 00
        E 32 b2 0b 7f
        E 0 92 33 7f
        E 640 82 33 00
        E 96 b2 0b 7f
        E 0 92 2c 7f
        E 624 82 2c 00
        E 112 b2 0b 7f
        E 0 92 2c 7f
        E 80 82 2c 00
        E 16 b2 0b 7f
        E 0 92 2d 7f
        E 80 82 2d 00
        E 16 b2 0b 7f
        E 0 92 2e 7f
        E 1040 82 2e 00
        E 64 b2 0b 7f
        E 0 92 35 7f
        E 336 82 35 00
        E 32 b2 0b 7f
        E 0 92 38 7f
        E 464 82 38 00
        E 80 b2 0b 7f
        E 0 92 37 7f
        E 464 82 37 00
        E 96 b2 0b 7f
        E 0 92 38 7f
        E 304 82 38 00
        E 64 b2 0b 7f
        E 0 92 3a 7f
        E 1408 82 3a 00
        E 64 b2 0b 7f
        E 0 92 3a 7f
        E 464 82 3a 00
        E 80 b2 0b 7f
        E 0 92 3c 7f
        E 912 82 3c 00
        E 16 b2 0b 7f
        E 0 92 22 7f
        E 80 82 22 00
        E 112 b2 0b 7f
        E 0 92 22 7f
        E 160 82 22 00
        E 32 b2 0b 7f
        E 0 92 29 7f
        E 160 82 29 00
        E 32 b2 0b 7f
        E 0 92 22 7f
        E 80 82 22 00
        E 16 b2 0b 7f
        E 0 92 29 7f
        E 80 82 29 00
        E 112 b2 0b 7f
        E 0 92 29 7f
        E 160 82 29 00
        E 32 b2 0b 7f
        E 0 92 22 7f
        E 80 82 22 00
        E 16 b2 0b 7f
        E 0 92 29 7f
        E 160 82 29 00
        E 32 b2 0b 7f
        E 0 92 22 7f
        E 160 82 22 00
        E 32 b2 0b 7f
        E 0 92 2a 7f
        E 80 82 2a 00
        E 112 b2 0b 7f
        E 0 92 2a 7f
        E 160 82 2a 00
        E 32 b2 0b 7f
        E 0 92 25 7f
        E 160 82 25 00
        E 32 b2 0b 7f
        E 0 92 22 7f
        E 80 82 22 00
        E 16 b2 0b 7f
        E 0 92 2c 7f
        E 80 82 2c 00
        E 112 b2 0b 7f
        E 0 92 2c 7f
        E 160 82 2c 00
        E 32 b2 0b 7f
        E 0 92 27 7f
        E 80 82 27 00
        E 112 b2 0b 7f
        E 0 92 24 7f
        E 80 82 24 00
        E 16 b2 0b 7f
        E 0 92 2a 7f
        E 80 82 2a 00
        E 16 b2 0b 7f
        E 0 92 27 7f
        E 80 82 27 00
        E 16 b2 0b 7f
        E 0 92 22 7f
        E 80 82 22 00
        E 112 b2 0b 7f
        E 0 92 22 7f
        E 160 82 22 00
        E 32 b2 0b 7f
        E 0 92 29 7f
        E 160 82 29 00
        E 32 b2 0b 7f
        E 0 92 22 7f
        E 80 82 22 00
        E 16 b2 0b 7f
        E 0 92 29 7f
        E 80 82 29 00
        E 112 b2 0b 7f
        E 0 92 29 7f
        E 160 82 29 00
        E 32 b2 0b 7f
        E 0 92 22 7f
        E 80 82 22 00
        E 16 b2 0b 7f
        E 0 92 29 7f
        E 160 82 29 00
        E 32 b2 0b 7f
        E 0 92 22 7f
        E 160 82 22 00
        E 32 b2 0b 7f
        E 0 92 2a 7f
        E 80 82 2a 00
        E 112 b2 0b 7f
        E 0 92 2a 7f
        E 160 82 2a 00
        E 32 b2 0b 7f
        E 0 92 25 7f
        E 160 82 25 00
        E 32 b2 0b 7f
        E 0 92 22 7f
        E 80 82 22 00
        E 16 b2 0b 7f
        E 0 92 2c 7f
        E 80 82 2c 00
        E 112 b2 0b 7f
        E 0 92 2c 7f
        E 160 82 2c 00
        E 32 b2 0b 7f
        E 0 92 27 7f
        E 80 82 27 00
        E 112 b2 0b 7f
        E 0 92 24 7f
        E 80 82 24 00
        E 16 b2 0b 7f
        E 0 92 2a 7f
        E 80 82 2a 00
        E 16 b2 0b 7f
        E 0 92 27 7f
        E 80 82 27 00
        E 16 b2 0b 7f
        E 0 92 22 7f
        E 80 82 22 00
        E 112 b2 0b 7f
        E 0 92 22 7f
        E 160 82 22 00
        E 32 b2 0b 7f
        E 0 92 29 7f
        E 160 82 29 00
        E 32 b2 0b 7f
        E 0 92 22 7f
        E 80 82 22 00
        E 16 b2 0b 7f
        E 0 92 29 7f
        E 80 82 29 00
        E 112 b2 0b 7f
        E 0 92 29 7f
        E 160 82 29 00
        E 32 b2 0b 7f
        E 0 92 22 7f
        E 80 82 22 00
        E 16 b2 0b 7f
        E 0 92 29 7f
        E 160 82 29 00
        E 32 b2 0b 7f
        E 0 92 22 7f
        E 160 82 22 00
        E 32 b2 0b 7f
        E 0 92 2a 7f
        E 80 82 2a 00
        E 112 b2 0b 7f
        E 0 92 2a 7f
        E 160 82 2a 00
        E 32 b2 0b 7f
        E 0 92 25 7f
        E 160 82 25 00
        E 32 b2 0b 7f
        E 0 92 22 7f
        E 80 82 22 00
        E 16 b2 0b 7f
        E 0 92 2c 7f
        E 80 82 2c 00
        E 112 b2 0b 7f
        E 0 92 2c 7f
        E 160 82 2c 00
        E 32 b2 0b 7f
        E 0 92 27 7f
        E 80 82 27 00
        E 112 b2 0b 7f
        E 0 92 24 7f
        E 80 82 24 00
        E 16 b2 0b 7f
        E 0 92 2a 7f
        E 80 82 2a 00
        E 16 b2 0b 7f
        E 0 92 27 7f
        E 80 82 27 00
        E 16 b2 0b 7f
        E 0 92 22 7f
        E 80 82 22 00
        E 112 b2 0b 7f
        E 0 92 22 7f
        E 160 82 22 00
        E 32 b2 0b 7f
        E 0 92 29 7f
        E 160 82 29 00
        E 32 b2 0b 7f
        E 0 92 22 7f
        E 80 82 22 00
        E 16 b2 0b 7f
        E 0 92 29 7f
        E 80 82 29 00
        E 112 b2 0b 7f
        E 0 92 29 7f
        E 160 82 29 00
        E 32 b2 0b 7f
        E 0 92 22 7f
        E 80 82 22 00
        E 16 b2 0b 7f
        E 0 92 29 7f
        E 160 82 29 00
        E 32 b2 0b 7f
        E 0 92 22 7f
        E 160 82 22 00
        E 32 b2 0b 7f
        E 0 92 29 7f
        E 160 82 29 00
        E 32 b2 0b 7f
        E 0 92 25 7f
        E 80 82 25 00
        E 16 b2 0b 7f
        E 0 92 22 7f
        E 160 82 22 00
        E 128 b2 0b 7f
        E 0 92 27 7f
        E 160 82 27 00
        E 32 b2 0b 7f
        E 0 92 25 7f
        E 80 82 25 00
        E 16 b2 0b 7f
        E 0 92 20 7f
        E 160 82 20 00
        E 128 b2 0b 7f
        E 0 92 22 7f
        E 80 82 22 00
        E 16 b2 0b 7f
        E 0 92 24 7f
        E 80 82 24 00
        E 16 b2 0b 7f
        E 0 92 25 7f
        E 80 82 25 00
        E 16 b2 0b 7f
        E 0 92 24 7f
        E 80 82 24 00
        E 16 b2 0b 7f
        E 0 92 22 7f
        E 80 82 22 00
        E 112 b2 0b 7f
        E 0 92 22 7f
        E 160 82 22 00
        E 32 b2 0b 7f
        E 0 92 29 7f
        E 160 82 29 00
        E 32 b2 0b 7f
        E 0 92 22 7f
        E 80 82 22 00
        E 16 b2 0b 7f
        E 0 92 29 7f
        E 80 82 29 00
        E 112 b2 0b 7f
        E 0 92 29 7f
        E 160 82 29 00
        E 32 b2 0b 7f
        E 0 92 22 7f
        E 80 82 22 00
        E 16 b2 0b 7f
        E 0 92 29 7f
        E 160 82 29 00
        E 32 b2 0b 7f
        E 0 92 22 7f
        E 160 82 22 00
        E 32 b2 0b 7f
        E 0 92 2a 7f
        E 80 82 2a 00
        E 112 b2 0b 7f
        E 0 92 2a 7f
        E 160 82 2a 00
        E 32 b2 0b 7f
        E 0 92 25 7f
        E 160 82 25 00
        E 32 b2 0b 7f
        E 0 92 22 7f
        E 80 82 22 00
        E 16 b2 0b 7f
        E 0 92 2c 7f
        E 80 82 2c 00
        E 112 b2 0b 7f
        E 0 92 2c 7f
        E 160 82 2c 00
        E 32 b2 0b 7f
        E 0 92 27 7f
        E 80 82 27 00
        E 112 b2 0b 7f
        E 0 92 24 7f
        E 80 82 24 00
        E 16 b2 0b 7f
        E 0 92 2a 7f
        E 80 82 2a 00
        E 16 b2 0b 7f
        E 0 92 27 7f
        E 80 82 27 00
        E 16 b2 0b 7f
        E 0 92 22 7f
        E 80 82 22 00
        E 112 b2 0b 7f
        E 0 92 22 7f
        E 160 82 22 00
        E 32 b2 0b 7f
        E 0 92 29 7f
        E 160 82 29 00
        E 32 b2 0b 7f
        E 0 92 22 7f
        E 80 82 22 00
        E 16 b2 0b 7f
        E 0 92 29 7f
        E 80 82 29 00
        E 112 b2 0b 7f
        E 0 92 29 7f
        E 160 82 29 00
        E 32 b2 0b 7f
        E 0 92 22 7f
        E 80 82 22 00
        E 16 b2 0b 7f
        E 0 92 29 7f
        E 160 82 29 00
        E 32 b2 0b 7f
        E 0 92 22 7f
        E 160 82 22 00
        E 32 b2 0b 7f
        E 0 92 2a 7f
        E 80 82 2a 00
        E 112 b2 0b 7f
        E 0 92 2a 7f
        E 160 82 2a 00
        E 32 b2 0b 7f
        E 0 92 25 7f
        E 160 82 25 00
        E 32 b2 0b 7f
        E 0 92 22 7f
        E 80 82 22 00
        E 16 b2 0b 7f
        E 0 92 2c 7f
        E 80 82 2c 00
        E 112 b2 0b 7f
        E 0 92 2c 7f
        E 160 82 2c 00
        E 32 b2 0b 7f
        E 0 92 27 7f
        E 80 82 27 00
        E 112 b2 0b 7f
        E 0 92 24 7f
        E 80 82 24 00
        E 16 b2 0b 7f
        E 0 92 2a 7f
        E 80 82 2a 00
        E 16 b2 0b 7f
        E 0 92 27 7f
        E 80 82 27 00
        E 16 b2 0b 7f
        E 0 92 22 7f
        E 80 82 22 00
        E 112 b2 0b 7f
        E 0 92 22 7f
        E 160 82 22 00
        E 32 b2 0b 7f
        E 0 92 29 7f
        E 160 82 29 00
        E 32 b2 0b 7f
        E 0 92 22 7f
        E 80 82 22 00
        E 16 b2 0b 7f
        E 0 92 29 7f
        E 80 82 29 00
        E 112 b2 0b 7f
        E 0 92 29 7f
        E 160 82 29 00
        E 32 b2 0b 7f
        E 0 92 22 7f
        E 80 82 22 00
        E 16 b2 0b 7f
        E 0 92 29 7f
        E 160 82 29 00
        E 32 b2 0b 7f
        E 0 92 22 7f
        E 160 82 22 00
        E 32 b2 0b 7f
        E 0 92 2a 7f
        E 80 82 2a 00
        E 112 b2 0b 7f
        E 0 92 2a 7f
        E 160 82 2a 00
        E 32 b2 0b 7f
        E 0 92 25 7f
        E 160 82 25 00
        E 32 b2 0b 7f
        E 0 92 22 7f
        E 80 82 22 00
        E 16 b2 0b 7f
        E 0 92 2c 7f
        E 80 82 2c 00
        E 112 b2 0b 7f
        E 0 92 2c 7f
        E 160 82 2c 00
        E 32 b2 0b 7f
        E 0 92 27 7f
        E 80 82 27 00
        E 112 b2 0b 7f
        E 0 92 24 7f
        E 80 82 24 00
        E 16 b2 0b 7f
        E 0 92 2a 7f
        E 80 82 2a 00
        E 16 b2 0b 7f
        E 0 92 27 7f
        E 80 82 27 00
        E 16 b2 0b 7f
        E 0 92 22 7f
        E 80 82 22 00
        E 112 b2 0b 7f
        E 0 92 22 7f
        E 160 82 22 00
        E 32 b2 0b 7f
        E 0 92 29 7f
        E 160 82 29 00
        E 32 b2 0b 7f
        E 0 92 22 7f
        E 80 82 22 00
        E 16 b2 0b 7f
        E 0 92 29 7f
        E 80 82 29 00
        E 112 b2 0b 7f
        E 0 92 29 7f
        E 160 82 29 00
        E 32 b2 0b 7f
        E 0 92 22 7f
        E 80 82 22 00
        E 16 b2 0b 7f
        E 0 92 29 7f
        E 160 82 29 00
        E 32 b2 0b 7f
        E 0 92 22 7f
        E 160 82 22 00
        E 224 b2 0b 7f
        E 0 92 22 7f
        E 160 82 22 00
        E 112 b2 0b 7f
        E 0 92 22 7f
        E 160 82 22 00
        E 128 b2 0b 7f
        E 0 92 22 7f
        E 144 82 22 00
        E 224 b2 0b 7f
        E 0 92 30 7f
        E 16 82 30 00
        E 0 b2 0b 7f
        E 0 92 2c 7f
        E 48 82 2c 00
        E 16 b2 0b 7f
        E 0 92 30 7f
        E 16 82 30 00
        E 0 b2 0b 7f
        E 0 92 2c 7f
        E 64 82 2c 00
        E 16 b2 0b 7f
        E 0 92 2c 7f
        E 64 82 2c 00
        E 0 b2 0b 7f
        E 0 92 1e 7f
        E 16 82 1e 00
        E 16 b2 0b 7f
        E 0 92 2c 7f
        E 64 82 2c 00
        E 0 b2 0b 7f
        E 0 92 1e 7f
        E 16 82 1e 00
        E 96 b2 0b 7f
        E 0 92 22 7f
        E 80 82 22 00
        E 112 b2 0b 7f
        E 0 92 22 7f
        E 64 82 22 00
        E 112 b2 0b 7f
        E 0 92 29 7f
        E 144 82 29 00
        E 32 b2 0b 7f
        E 0 92 22 7f
        E 64 82 22 00
        E 16 b2 0b 7f
        E 0 92 29 7f
        E 80 82 29 00
        E 96 b2 0b 7f
        E 0 92 29 7f
        E 80 82 29 00
        E 96 b2 0b 7f
        E 0 92 22 7f
        E 80 82 22 00
        E 16 b2 0b 7f
        E 0 92 29 7f
        E 144 82 29 00
        E 32 b2 0b 7f
        E 0 92 22 7f
        E 144 82 22 00
        E 32 b2 0b 7f
        E 0 92 1e 7f
        E 64 82 1e 00
        E 112 b2 0b 7f
        E 0 92 1e 7f
        E 64 82 1e 00
        E 112 b2 0b 7f
        E 0 92 25 7f
        E 144 82 25 00
        E 32 b2 0b 7f
        E 0 92 20 7f
        E 144 82 20 00
        E 112 b2 0b 7f
        E 0 92 27 7f
        E 80 82 27 00
        E 96 b2 0b 7f
        E 0 92 20 7f
        E 144 82 20 00
        E 32 b2 0b 7f
        E 0 92 1d 7f
        E 144 82 1d 00
        E 32 b2 0b 7f
        E 0 92 1d 7f
        E 80 82 1d 00
        E 16 b2 0b 7f
        E 0 92 22 7f
        E 64 82 22 00
        E 112 b2 0b 7f
        E 0 92 22 7f
        E 64 82 22 00
        E 112 b2 0b 7f
        E 0 92 29 7f
        E 144 82 29 00
        E 32 b2 0b 7f
        E 0 92 22 7f
        E 64 82 22 00
        E 16 b2 0b 7f
        E 0 92 29 7f
        E 80 82 29 00
        E 96 b2 0b 7f
        E 0 92 29 7f
        E 80 82 29 00
        E 96 b2 0b 7f
        E 0 92 22 7f
        E 80 82 22 00
        E 16 b2 0b 7f
        E 0 92 29 7f
        E 144 82 29 00
        E 32 b2 0b 7f
        E 0 92 22 7f
        E 144 82 22 00
        E 32 b2 0b 7f
        E 0 92 1e 7f
        E 144 82 1e 00
        E 112 b2 0b 7f
        E 0 92 1e 7f
        E 80 82 1e 00
        E 192 b2 0b 7f
        E 0 92 1d 7f
        E 304 82 1d 00
        E 224 b2 0b 7f
        E 0 92 1d 7f
        E 64 82 1d 00
        E 16 b2 0b 7f
        E 0 92 1e 7f
        E 80 82 1e 00
        E 16 b2 0b 7f
        E 0 92 1f 7f
        E 64 82 1f 00
        E 16 b2 0b 7f
        E 0 92 20 7f
        E 80 82 20 00
        E 16 b2 0b 7f
        E 0 92 22 7f
        E 64 82 22 00
        E 112 b2 0b 7f
        E 0 92 22 7f
        E 64 82 22 00
        E 112 b2 0b 7f
        E 0 92 29 7f
        E 144 82 29 00
        E 32 b2 0b 7f
        E 0 92 22 7f
        E 64 82 22 00
        E 16 b2 0b 7f
        E 0 92 29 7f
        E 80 82 29 00
        E 96 b2 0b 7f
        E 0 92 29 7f
        E 80 82 29 00
        E 96 b2 0b 7f
        E 0 92 22 7f
        E 80 82 22 00
        E 16 b2 0b 7f
        E 0 92 29 7f
        E 144 82 29 00
        E 32 b2 0b 7f
        E 0 92 22 7f
        E 144 82 22 00
        E 0 b2 7b 00
        E 0 ff 2f 00
      >
    >
  >
  <TRACK {0328862F-894D-42D4-9811-133B738606B3}
    NAME "NES - Noise / Drums [ch3]"
    PEAKCOL 11184810
    BEAT -1
    AUTOMODE 0
    PANLAWFLAGS 3
    VOLPAN 1 0 -1 -1 1
    MUTESOLO 0 0 0
    IPHASE 0
    PLAYOFFS 0 1
    ISBUS 0 0
    BUSCOMP 0 0 0 0 0
    SHOWINMIX 1 0.6667 0.5 1 0.5 0 0 0
    FIXEDLANES 9 0 0 0 0
    SEL 0
    REC 0 5088 1 0 0 0 0 0
    VU 2
    TRACKHEIGHT 0 0 0 0 0 0 0
    INQ 0 0 0 0.5 100 0 0 100
    NCHAN 2
    FX 1
    TRACKID {0328862F-894D-42D4-9811-133B738606B3}
    PERF 0
    MIDIOUT -1
    MAINSEND 1 0
    <FXCHAIN
      WNDRECT 24 52 700 560
      SHOW 0
      LASTSEL 0
      DOCKED 0
      BYPASS 0 0 0
      <JS "ReapNES Studio/ReapNES_Console.jsfx" ""
        2 15 1 10 80 10 100 2 1 15 1 5 60 10 80 1 1 0 50 0 0 15 1 0 100 0 0 0.500000 0.500000 0.400000 0.300000 0.800000 3 1 0 0 0 0 - - - - - - - - - - - - - - - - - - - - - - - - - -
      >
      FLOATPOS 0 0 0 0
      FXID {97F86ADF-7D70-445D-AB55-2AD52AB822B9}
      WAK 0 0
    >
    <ITEM
      POSITION 0
      LENGTH 68.8491467
      LOOP 0
      ALLTAKES 0
      FADEIN 0 0 0 0 0 0 0
      FADEOUT 0 0 0 0 0 0 0
      MUTE 0 0
      SEL 0
      IGUID {86B43B5D-10B4-431E-AADD-82A3A17A496B}
      <SOURCE MIDI
        HASDATA 1 480 QN
        CCINTERP 32
        E 25936 93 2a 55
        E 192 83 2a 00
        E 0 93 2a 55
        E 112 83 2a 00
        E 80 93 2a 55
        E 208 83 2a 00
        E 160 93 2a 55
        E 80 83 2a 00
        E 0 93 2a 55
        E 96 83 2a 00
        E 0 93 2a 55
        E 96 83 2a 00
        E 0 93 2a 55
        E 96 83 2a 00
        E 0 93 2a 55
        E 80 83 2a 00
        E 0 93 2a 55
        E 96 83 2a 00
        E 0 93 2a 55
        E 96 83 2a 00
        E 0 93 2a 55
        E 96 83 2a 00
        E 0 93 2a 3b
        E 96 83 2a 00
        E 80 93 2a 3b
        E 48 83 2a 00
        E 48 93 2a 3b
        E 48 83 2a 00
        E 48 93 2a 3b
        E 96 83 2a 00
        E 80 93 2a 3b
        E 48 83 2a 00
        E 48 93 2a 3b
        E 48 83 2a 00
        E 48 93 2a 3b
        E 96 83 2a 00
        E 80 93 2a 3b
        E 48 83 2a 00
        E 48 93 2a 3b
        E 48 83 2a 00
        E 48 93 2a 3b
        E 96 83 2a 00
        E 80 93 2a 3b
        E 48 83 2a 00
        E 48 93 2a 3b
        E 48 83 2a 00
        E 48 93 2a 3b
        E 96 83 2a 00
        E 80 93 2a 3b
        E 48 83 2a 00
        E 48 93 2a 3b
        E 48 83 2a 00
        E 48 93 2a 3b
        E 96 83 2a 00
        E 80 93 2a 3b
        E 48 83 2a 00
        E 48 93 2a 3b
        E 48 83 2a 00
        E 48 93 2a 3b
        E 96 83 2a 00
        E 80 93 2a 3b
        E 48 83 2a 00
        E 48 93 2a 3b
        E 48 83 2a 00
        E 48 93 2a 3b
        E 96 83 2a 00
        E 80 93 2a 3b
        E 48 83 2a 00
        E 48 93 2a 3b
        E 48 83 2a 00
        E 48 93 2a 3b
        E 96 83 2a 00
        E 80 93 2a 3b
        E 48 83 2a 00
        E 48 93 2a 3b
        E 48 83 2a 00
        E 48 93 2a 3b
        E 96 83 2a 00
        E 80 93 2a 3b
        E 64 83 2a 00
        E 32 93 2a 3b
        E 48 83 2a 00
        E 48 93 2a 3b
        E 96 83 2a 00
        E 80 93 2a 3b
        E 64 83 2a 00
        E 32 93 2a 3b
        E 48 83 2a 00
        E 48 93 2a 3b
        E 96 83 2a 00
        E 80 93 2a 3b
        E 64 83 2a 00
        E 32 93 2a 3b
        E 48 83 2a 00
        E 48 93 2a 3b
        E 96 83 2a 00
        E 80 93 2a 3b
        E 64 83 2a 00
        E 32 93 2a 3b
        E 48 83 2a 00
        E 48 93 2a 3b
        E 96 83 2a 00
        E 80 93 2a 3b
        E 64 83 2a 00
        E 32 93 2a 3b
        E 48 83 2a 00
        E 48 93 2a 3b
        E 96 83 2a 00
        E 80 93 2a 3b
        E 64 83 2a 00
        E 32 93 2a 3b
        E 48 83 2a 00
        E 48 93 2a 3b
        E 96 83 2a 00
        E 80 93 2a 3b
        E 64 83 2a 00
        E 32 93 2a 3b
        E 48 83 2a 00
        E 48 93 2a 5d
        E 112 83 2a 00
        E 64 93 2a 5d
        E 192 83 2a 00
        E 0 93 2a 2a
        E 272 83 2a 00
        E 0 93 2a 2a
        E 64 83 2a 00
        E 32 93 2a 5d
        E 112 83 2a 00
        E 64 93 2a 5d
        E 128 83 2a 00
        E 64 93 2a 5d
        E 112 83 2a 00
        E 64 93 2a 5d
        E 80 83 2a 00
        E 16 93 2a 5d
        E 64 83 2a 00
        E 32 93 2a 5d
        E 64 83 2a 00
        E 32 93 2a 5d
        E 64 83 2a 00
        E 16 93 2a 5d
        E 192 83 2a 00
        E 0 93 2a 2a
        E 272 83 2a 00
        E 0 93 2a 2a
        E 64 83 2a 00
        E 32 93 2a 5d
        E 64 83 2a 00
        E 32 93 2a 5d
        E 64 83 2a 00
        E 16 93 2a 5d
        E 192 83 2a 00
        E 0 93 2a 2a
        E 272 83 2a 00
        E 0 93 2a 2a
        E 64 83 2a 00
        E 32 93 2a 5d
        E 128 83 2a 00
        E 48 93 2a 5d
        E 80 83 2a 00
        E 16 93 2a 5d
        E 64 83 2a 00
        E 32 93 2a 5d
        E 64 83 2a 00
        E 32 93 2a 5d
        E 64 83 2a 00
        E 16 93 2a 5d
        E 80 83 2a 00
        E 16 93 2a 5d
        E 64 83 2a 00
        E 32 93 2a 5d
        E 64 83 2a 00
        E 32 93 2a 5d
        E 64 83 2a 00
        E 16 93 2a 5d
        E 80 83 2a 00
        E 16 93 2a 5d
        E 240 83 2a 00
        E 128 93 2a 5d
        E 64 83 2a 00
        E 32 93 2a 5d
        E 224 83 2a 00
        E 144 93 2a 5d
        E 224 83 2a 00
        E 144 93 2a 5d
        E 224 83 2a 00
        E 144 93 2a 5d
        E 64 83 2a 00
        E 32 93 2a 5d
        E 64 83 2a 00
        E 16 93 2a 5d
        E 80 83 2a 00
        E 16 93 2a 5d
        E 80 83 2a 00
        E 16 93 2a 5d
        E 64 83 2a 00
        E 32 93 2a 5d
        E 64 83 2a 00
        E 32 93 2a 5d
        E 64 83 2a 00
        E 32 93 2a 5d
        E 64 83 2a 00
        E 32 93 2a 5d
        E 64 83 2a 00
        E 32 93 2a 5d
        E 64 83 2a 00
        E 32 93 2a 5d
        E 64 83 2a 00
        E 32 93 2a 5d
        E 64 83 2a 00
        E 32 93 2a 5d
        E 64 83 2a 00
        E 32 93 2a 5d
        E 128 83 2a 00
        E 64 93 2a 5d
        E 64 83 2a 00
        E 32 93 2a 5d
        E 64 83 2a 00
        E 32 93 2a 5d
        E 64 83 2a 00
        E 32 93 2a 5d
        E 64 83 2a 00
        E 32 93 2a 5d
        E 64 83 2a 00
        E 32 93 2a 5d
        E 64 83 2a 00
        E 32 93 2a 5d
        E 64 83 2a 00
        E 32 93 2a 5d
        E 64 83 2a 00
        E 32 93 2a 5d
        E 64 83 2a 00
        E 32 93 2a 5d
        E 64 83 2a 00
        E 32 93 2a 5d
        E 64 83 2a 00
        E 32 93 2a 5d
        E 64 83 2a 00
        E 32 93 2a 5d
        E 64 83 2a 00
        E 32 93 2a 5d
        E 64 83 2a 00
        E 32 93 2a 5d
        E 128 83 2a 00
        E 64 93 2a 5d
        E 64 83 2a 00
        E 32 93 2a 5d
        E 64 83 2a 00
        E 32 93 2a 5d
        E 64 83 2a 00
        E 32 93 2a 5d
        E 64 83 2a 00
        E 32 93 2a 5d
        E 64 83 2a 00
        E 32 93 2a 5d
        E 64 83 2a 00
        E 32 93 2a 5d
        E 64 83 2a 00
        E 32 93 2a 5d
        E 64 83 2a 00
        E 32 93 2a 5d
        E 64 83 2a 00
        E 32 93 2a 5d
        E 64 83 2a 00
        E 32 93 2a 5d
        E 64 83 2a 00
        E 32 93 2a 5d
        E 64 83 2a 00
        E 32 93 2a 5d
        E 64 83 2a 00
        E 32 93 2a 5d
        E 64 83 2a 00
        E 32 93 2a 5d
        E 128 83 2a 00
        E 64 93 2a 5d
        E 64 83 2a 00
        E 32 93 2a 5d
        E 64 83 2a 00
        E 32 93 2a 5d
        E 64 83 2a 00
        E 32 93 2a 5d
        E 64 83 2a 00
        E 32 93 2a 5d
        E 64 83 2a 00
        E 32 93 2a 5d
        E 64 83 2a 00
        E 32 93 2a 5d
        E 64 83 2a 00
        E 32 93 2a 5d
        E 64 83 2a 00
        E 32 93 2a 5d
        E 64 83 2a 00
        E 32 93 2a 5d
        E 64 83 2a 00
        E 32 93 2a 5d
        E 64 83 2a 00
        E 32 93 2a 5d
        E 64 83 2a 00
        E 32 93 2a 5d
        E 64 83 2a 00
        E 32 93 2a 5d
        E 64 83 2a 00
        E 32 93 2a 5d
        E 128 83 2a 00
        E 64 93 2a 5d
        E 64 83 2a 00
        E 32 93 2a 5d
        E 64 83 2a 00
        E 32 93 2a 5d
        E 64 83 2a 00
        E 32 93 2a 5d
        E 64 83 2a 00
        E 32 93 2a 5d
        E 64 83 2a 00
        E 32 93 2a 5d
        E 64 83 2a 00
        E 32 93 2a 5d
        E 64 83 2a 00
        E 32 93 2a 5d
        E 64 83 2a 00
        E 32 93 2a 5d
        E 64 83 2a 00
        E 32 93 2a 5d
        E 64 83 2a 00
        E 32 93 2a 5d
        E 64 83 2a 00
        E 32 93 2a 5d
        E 64 83 2a 00
        E 32 93 2a 5d
        E 64 83 2a 00
        E 32 93 2a 5d
        E 64 83 2a 00
        E 32 93 2a 5d
        E 128 83 2a 00
        E 64 93 2a 5d
        E 64 83 2a 00
        E 32 93 2a 5d
        E 64 83 2a 00
        E 32 93 2a 5d
        E 64 83 2a 00
        E 32 93 2a 5d
        E 64 83 2a 00
        E 32 93 2a 5d
        E 64 83 2a 00
        E 32 93 2a 5d
        E 64 83 2a 00
        E 32 93 2a 5d
        E 64 83 2a 00
        E 32 93 2a 5d
        E 64 83 2a 00
        E 32 93 2a 5d
        E 64 83 2a 00
        E 32 93 2a 5d
        E 64 83 2a 00
        E 32 93 2a 5d
        E 64 83 2a 00
        E 32 93 2a 5d
        E 64 83 2a 00
        E 32 93 2a 5d
        E 64 83 2a 00
        E 32 93 2a 5d
        E 64 83 2a 00
        E 32 93 2a 5d
        E 128 83 2a 00
        E 64 93 2a 5d
        E 64 83 2a 00
        E 32 93 2a 5d
        E 64 83 2a 00
        E 32 93 2a 5d
        E 64 83 2a 00
        E 32 93 2a 5d
        E 64 83 2a 00
        E 32 93 2a 5d
        E 64 83 2a 00
        E 32 93 2a 5d
        E 64 83 2a 00
        E 32 93 2a 5d
        E 64 83 2a 00
        E 32 93 2a 5d
        E 64 83 2a 00
        E 32 93 2a 5d
        E 64 83 2a 00
        E 32 93 2a 5d
        E 64 83 2a 00
        E 32 93 2a 5d
        E 64 83 2a 00
        E 32 93 2a 5d
        E 64 83 2a 00
        E 32 93 2a 5d
        E 64 83 2a 00
        E 32 93 2a 5d
        E 64 83 2a 00
        E 32 93 2a 5d
        E 128 83 2a 00
        E 64 93 2a 5d
        E 64 83 2a 00
        E 32 93 2a 5d
        E 64 83 2a 00
        E 32 93 2a 5d
        E 64 83 2a 00
        E 32 93 2a 5d
        E 64 83 2a 00
        E 32 93 2a 5d
        E 64 83 2a 00
        E 32 93 2a 5d
        E 64 83 2a 00
        E 32 93 2a 5d
        E 64 83 2a 00
        E 32 93 2a 5d
        E 64 83 2a 00
        E 32 93 2a 5d
        E 64 83 2a 00
        E 32 93 2a 5d
        E 64 83 2a 00
        E 32 93 2a 5d
        E 64 83 2a 00
        E 32 93 2a 5d
        E 64 83 2a 00
        E 32 93 2a 5d
        E 64 83 2a 00
        E 32 93 2a 5d
        E 64 83 2a 00
        E 32 93 2a 5d
        E 128 83 2a 00
        E 64 93 2a 5d
        E 64 83 2a 00
        E 32 93 2a 5d
        E 64 83 2a 00
        E 32 93 2a 5d
        E 64 83 2a 00
        E 32 93 2a 5d
        E 64 83 2a 00
        E 32 93 2a 5d
        E 64 83 2a 00
        E 32 93 2a 5d
        E 64 83 2a 00
        E 32 93 2a 5d
        E 64 83 2a 00
        E 32 93 2a 5d
        E 64 83 2a 00
        E 32 93 2a 5d
        E 64 83 2a 00
        E 32 93 2a 5d
        E 64 83 2a 00
        E 32 93 2a 5d
        E 64 83 2a 00
        E 32 93 2a 5d
        E 64 83 2a 00
        E 32 93 2a 5d
        E 64 83 2a 00
        E 32 93 2a 5d
        E 64 83 2a 00
        E 32 93 2a 5d
        E 128 83 2a 00
        E 64 93 2a 5d
        E 64 83 2a 00
        E 32 93 2a 5d
        E 64 83 2a 00
        E 32 93 2a 5d
        E 64 83 2a 00
        E 32 93 2a 5d
        E 64 83 2a 00
        E 32 93 2a 5d
        E 64 83 2a 00
        E 32 93 2a 5d
        E 64 83 2a 00
        E 32 93 2a 5d
        E 64 83 2a 00
        E 32 93 2a 5d
        E 64 83 2a 00
        E 32 93 2a 5d
        E 64 83 2a 00
        E 32 93 2a 5d
        E 64 83 2a 00
        E 32 93 2a 5d
        E 64 83 2a 00
        E 32 93 2a 5d
        E 64 83 2a 00
        E 32 93 2a 5d
        E 64 83 2a 00
        E 32 93 2a 5d
        E 64 83 2a 00
        E 32 93 2a 5d
        E 128 83 2a 00
        E 64 93 2a 5d
        E 64 83 2a 00
        E 32 93 2a 5d
        E 64 83 2a 00
        E 32 93 2a 5d
        E 64 83 2a 00
        E 32 93 2a 5d
        E 64 83 2a 00
        E 32 93 2a 5d
        E 64 83 2a 00
        E 32 93 2a 5d
        E 64 83 2a 00
        E 32 93 2a 5d
        E 64 83 2a 00
        E 32 93 2a 5d
        E 64 83 2a 00
        E 32 93 2a 5d
        E 64 83 2a 00
        E 32 93 2a 5d
        E 64 83 2a 00
        E 32 93 2a 5d
        E 64 83 2a 00
        E 32 93 2a 5d
        E 64 83 2a 00
        E 32 93 2a 5d
        E 64 83 2a 00
        E 32 93 2a 5d
        E 64 83 2a 00
        E 32 93 2a 5d
        E 128 83 2a 00
        E 64 93 2a 5d
        E 64 83 2a 00
        E 32 93 2a 5d
        E 64 83 2a 00
        E 32 93 2a 5d
        E 64 83 2a 00
        E 32 93 2a 5d
        E 64 83 2a 00
        E 32 93 2a 5d
        E 64 83 2a 00
        E 32 93 2a 5d
        E 64 83 2a 00
        E 32 93 2a 5d
        E 64 83 2a 00
        E 32 93 2a 5d
        E 64 83 2a 00
        E 32 93 2a 5d
        E 64 83 2a 00
        E 32 93 2a 5d
        E 64 83 2a 00
        E 32 93 2a 5d
        E 64 83 2a 00
        E 32 93 2a 5d
        E 64 83 2a 00
        E 32 93 2a 5d
        E 64 83 2a 00
        E 32 93 2a 5d
        E 64 83 2a 00
        E 32 93 2a 5d
        E 128 83 2a 00
        E 64 93 2a 5d
        E 64 83 2a 00
        E 32 93 2a 5d
        E 64 83 2a 00
        E 32 93 2a 5d
        E 64 83 2a 00
        E 32 93 2a 5d
        E 64 83 2a 00
        E 32 93 2a 5d
        E 64 83 2a 00
        E 32 93 2a 5d
        E 64 83 2a 00
        E 32 93 2a 5d
        E 64 83 2a 00
        E 32 93 2a 5d
        E 64 83 2a 00
        E 32 93 2a 5d
        E 64 83 2a 00
        E 32 93 2a 5d
        E 64 83 2a 00
        E 32 93 2a 5d
        E 64 83 2a 00
        E 32 93 2a 5d
        E 64 83 2a 00
        E 32 93 2a 5d
        E 64 83 2a 00
        E 32 93 2a 5d
        E 64 83 2a 00
        E 32 93 2a 5d
        E 128 83 2a 00
        E 64 93 2a 5d
        E 64 83 2a 00
        E 32 93 2a 5d
        E 64 83 2a 00
        E 32 93 2a 5d
        E 64 83 2a 00
        E 32 93 2a 5d
        E 64 83 2a 00
        E 32 93 2a 5d
        E 64 83 2a 00
        E 32 93 2a 5d
        E 64 83 2a 00
        E 32 93 2a 5d
        E 64 83 2a 00
        E 32 93 2a 5d
        E 64 83 2a 00
        E 32 93 2a 5d
        E 64 83 2a 00
        E 32 93 2a 5d
        E 64 83 2a 00
        E 32 93 2a 5d
        E 64 83 2a 00
        E 32 93 2a 5d
        E 64 83 2a 00
        E 32 93 2a 5d
        E 64 83 2a 00
        E 32 93 2a 5d
        E 64 83 2a 00
        E 32 93 2a 5d
        E 128 83 2a 00
        E 64 93 2a 5d
        E 64 83 2a 00
        E 32 93 2a 5d
        E 64 83 2a 00
        E 32 93 2a 5d
        E 64 83 2a 00
        E 32 93 2a 5d
        E 64 83 2a 00
        E 32 93 2a 5d
        E 64 83 2a 00
        E 32 93 2a 5d
        E 64 83 2a 00
        E 32 93 2a 5d
        E 64 83 2a 00
        E 32 93 2a 5d
        E 64 83 2a 00
        E 32 93 2a 5d
        E 64 83 2a 00
        E 32 93 2a 5d
        E 64 83 2a 00
        E 32 93 2a 5d
        E 64 83 2a 00
        E 32 93 2a 5d
        E 64 83 2a 00
        E 32 93 2a 5d
        E 64 83 2a 00
        E 32 93 2a 5d
        E 64 83 2a 00
        E 32 93 2a 5d
        E 128 83 2a 00
        E 64 93 2a 5d
        E 64 83 2a 00
        E 32 93 2a 5d
        E 64 83 2a 00
        E 32 93 2a 5d
        E 64 83 2a 00
        E 32 93 2a 5d
        E 64 83 2a 00
        E 32 93 2a 5d
        E 64 83 2a 00
        E 32 93 2a 5d
        E 128 83 2a 00
        E 64 93 2a 5d
        E 128 83 2a 00
        E 64 93 2a 5d
        E 64 83 2a 00
        E 16 93 2a 5d
        E 176 83 2a 00
        E 112 93 2a 5d
        E 176 83 2a 00
        E 192 93 2a 5d
        E 64 83 2a 00
        E 16 93 2a 5d
        E 80 83 2a 00
        E 16 93 2a 5d
        E 64 83 2a 00
        E 32 93 2a 5d
        E 64 83 2a 00
        E 112 93 2a 55
        E 128 83 2a 00
        E 64 93 2a 55
        E 112 83 2a 00
        E 64 93 2a 55
        E 112 83 2a 00
        E 64 93 2a 55
        E 32 83 2a 00
        E 16 93 2a 7f
        E 80 83 2a 00
        E 0 93 2a 7f
        E 48 83 2a 00
        E 0 93 2a 7f
        E 32 83 2a 00
        E 0 93 2a 6e
        E 48 83 2a 00
        E 0 93 2a 55
        E 48 83 2a 00
        E 0 93 2a 44
        E 48 83 2a 00
        E 0 93 2a 2a
        E 32 83 2a 00
        E 0 93 2a 19
        E 48 83 2a 00
        E 96 93 2a 55
        E 176 83 2a 00
        E 0 93 2a 22
        E 112 83 2a 00
        E 64 93 2a 55
        E 112 83 2a 00
        E 64 93 2a 55
        E 112 83 2a 00
        E 64 93 2a 55
        E 112 83 2a 00
        E 64 93 2a 55
        E 48 83 2a 00
        E 32 93 2a 55
        E 112 83 2a 00
        E 64 93 2a 55
        E 112 83 2a 00
        E 64 93 2a 55
        E 64 83 2a 00
        E 32 93 2a 55
        E 176 83 2a 00
        E 0 93 2a 22
        E 112 83 2a 00
        E 64 93 2a 55
        E 112 83 2a 00
        E 64 93 2a 55
        E 112 83 2a 00
        E 64 93 2a 55
        E 112 83 2a 00
        E 64 93 2a 55
        E 48 83 2a 00
        E 32 93 2a 55
        E 128 83 2a 00
        E 48 93 2a 55
        E 128 83 2a 00
        E 48 93 2a 55
        E 64 83 2a 00
        E 32 93 2a 55
        E 48 83 2a 00
        E 32 93 2a 55
        E 64 83 2a 00
        E 32 93 2a 55
        E 48 83 2a 00
        E 32 93 2a 55
        E 64 83 2a 00
        E 32 93 2a 55
        E 128 83 2a 00
        E 48 93 2a 55
        E 48 83 2a 00
        E 32 93 2a 55
        E 128 83 2a 00
        E 48 93 2a 55
        E 64 83 2a 00
        E 32 93 2a 55
        E 176 83 2a 00
        E 0 93 2a 22
        E 128 83 2a 00
        E 48 93 2a 55
        E 128 83 2a 00
        E 48 93 2a 55
        E 48 83 2a 00
        E 32 93 2a 55
        E 64 83 2a 00
        E 32 93 2a 55
        E 64 83 2a 00
        E 16 93 2a 55
        E 64 83 2a 00
        E 32 93 2a 55
        E 128 83 2a 00
        E 48 93 2a 55
        E 128 83 2a 00
        E 48 93 2a 55
        E 128 83 2a 00
        E 48 93 2a 55
        E 64 83 2a 00
        E 16 93 2a 55
        E 128 83 2a 00
        E 48 93 2a 55
        E 128 83 2a 00
        E 48 93 2a 55
        E 64 83 2a 00
        E 32 93 2a 55
        E 176 83 2a 00
        E 0 93 2a 22
        E 128 83 2a 00
        E 16 b3 7b 00
        E 0 ff 2f 00
      >
    >
  >
>