<REAPER_PROJECT 0.1 "7.27/win64" 1707000000
  <NOTES 0 2
    |ReapNES Studio Project
    |MIDI Import - Shatterhand_title_rom_v1
  >
  RIPPLE 0
  GROUPOVERRIDE 0 0 0
  AUTOXFADE 129
  ENVATTACH 3
  POOLEDENVATTACH 0
  MIXERUIFLAGS 11 48
  ENVFADESZ10 40
  PEAKGAIN 1
  FEEDBACK 0
  PANLAW 1
  PROJOFFS 0 0 0
  MAXPROJLEN 0 0
  GRID 3199 8 1 8 1 0 0 0
  TIMEMODE 1 5 -1 30 0 0 -1
  VIDEO_CONFIG 0 0 65792
  PANMODE 3
  PANLAWFLAGS 3
  CURSOR 0
  ZOOM 100 0 0
  VZOOMEX 6 0
  USE_REC_CFG 0
  RECMODE 1
  SMPTESYNC 0 30 100 40 1000 300 0 0 1 0 0
  LOOP 0
  LOOPGRAN 0 4
  RECORD_PATH "Media" ""
  <RECORD_CFG
    ZXZhdxgAAQ==
  >
  <APPLYFX_CFG
  >
  RENDER_FILE ""
  RENDER_PATTERN ""
  RENDER_FMT 0 2 0
  RENDER_1X 0
  RENDER_RANGE 1 0 0 18 1000
  RENDER_RESAMPLE 3 0 1
  RENDER_ADDTOPROJ 0
  RENDER_STEMS 0
  RENDER_DITHER 0
  TIMELOCKMODE 1
  TEMPOENVLOCKMODE 1
  ITEMMIX 1
  DEFPITCHMODE 589824 0
  TAKELANE 1
  SAMPLERATE 44100 0 0
  <RENDER_CFG
    ZXZhdxgAAQ==
  >
  LOCK 1
  <METRONOME 6 2
    VOL 0.25 0.125
    BEATLEN 4
    FREQ 1760 880 1
    SAMPLES "" ""
    SPLIGNORE 0 0
    SPLDEF 2 660 "" 0
    SPLDEF 3 440 "" 0
    PATTERN 0 169
    PATTERNSTR ABBB
    MULT 1
  >
  GLOBAL_AUTO -1
  TEMPO 128.59999614200012 4 4
  PLAYRATE 1 0 0.25 4
  SELECTION 0 0
  SELECTION2 0 0
  MASTERAUTOMODE 0
  MASTERTRACKHEIGHT 0 0
  MASTERPEAKCOL 16576
  MASTERMUTESOLO 0
  MASTERTRACKVIEW 0 0.6667 0.5 0.5 0 0 0 0 0 0 0 0 0 0
  MASTERHWOUT 0 0 1 0 0 0 0 -1
  MASTER_NCH 2 2
  MASTER_VOLUME 1 0 -1 -1 1
  MASTER_PANMODE 3
  MASTER_PANLAWFLAGS 3
  MASTER_FX 1
  MASTER_SEL 0
  <MASTERPLAYSPEEDENV
    EGUID {98D1C45B-0E8F-4DCF-A3AA-1EF3272FD8C2}
    ACT 0 -1
    VIS 0 1 1
    LANEHEIGHT 0 0
    ARM 0
    DEFSHAPE 0 -1 -1
  >
  <TEMPOENVEX
    EGUID {9137D008-94A8-49A1-B3BE-9A4B889A0C77}
    ACT 1 -1
    VIS 1 0 1
    LANEHEIGHT 0 0
    ARM 0
    DEFSHAPE 1 -1 -1
  >
  <PROJBAY
  >
  <TRACK {27658156-3738-4178-9723-9EB40C3A839A}
    NAME "NES - Pulse 1 [ch0]"
    PEAKCOL 16576606
    BEAT -1
    AUTOMODE 0
    PANLAWFLAGS 3
    VOLPAN 1 0 -1 -1 1
    MUTESOLO 0 0 0
    IPHASE 0
    PLAYOFFS 0 1
    ISBUS 0 0
    BUSCOMP 0 0 0 0 0
    SHOWINMIX 1 0.6667 0.5 1 0.5 0 0 0
    FIXEDLANES 9 0 0 0 0
    SEL 1
    REC 1 5088 1 0 0 0 0 0
    VU 2
    TRACKHEIGHT 0 0 0 0 0 0 0
    INQ 0 0 0 0.5 100 0 0 100
    NCHAN 2
    FX 1
    TRACKID {27658156-3738-4178-9723-9EB40C3A839A}
    PERF 0
    MIDIOUT -1
    MAINSEND 1 0
    <FXCHAIN
      WNDRECT 24 52 700 560
      SHOW 0
      LASTSEL 0
      DOCKED 0
      BYPASS 0 0 0
      <JS "ReapNES Studio/ReapNES_Console.jsfx" ""
        2 15 1 10 80 10 100 2 1 15 1 5 60 10 80 1 1 0 50 0 0 15 1 0 100 0 0 0.500000 0.500000 0.400000 0.300000 0.800000 0 1 0 0 0 0 - - - - - - - - - - - - - - - - - - - - - - - - - -
      >
      FLOATPOS 0 0 0 0
      FXID {E1D7AD37-6177-4175-88EE-AC15D0B60A6E}
      WAK 0 0
    >
    <ITEM
      POSITION 0
      LENGTH 71.57076420000001
      LOOP 0
      ALLTAKES 0
      FADEIN 0 0 0 0 0 0 0
      FADEOUT 0 0 0 0 0 0 0
      MUTE 0 0
      SEL 0
      IGUID {C6B8871A-BD39-4CC9-BDF1-7C5BEFF62B6F}
      <SOURCE MIDI
        HASDATA 1 480 QN
        CCINTERP 32
        E 0 c0 50
        E 0 b0 0c 20
        E 0 b0 0b 44
        E 0 90 18 44
        E 16 b0 0b 4c
        E 16 b0 0b 2a
        E 512 b0 0b 22
        E 16 80 18 00
        E 16 b0 0b 44
        E 0 90 18 44
        E 16 b0 0b 4c
        E 16 b0 0b 2a
        E 80 b0 0b 22
        E 16 80 18 00
        E 16 b0 0b 44
        E 0 90 18 44
        E 16 b0 0b 4c
        E 16 b0 0b 2a
        E 368 b0 0b 22
        E 16 80 18 00
        E 16 b0 0b 44
        E 0 90 18 44
        E 16 b0 0b 4c
        E 16 b0 0b 2a
        E 512 b0 0b 22
        E 16 80 18 00
        E 16 b0 0b 44
        E 0 90 18 44
        E 16 b0 0b 4c
        E 16 b0 0b 2a
        E 80 b0 0b 22
        E 16 80 18 00
        E 16 b0 0b 44
        E 0 90 18 44
        E 16 b0 0b 4c
        E 16 b0 0b 2a
        E 368 b0 0b 22
        E 16 80 18 00
        E 16 b0 0b 44
        E 0 90 1b 44
        E 16 b0 0b 4c
        E 16 b0 0b 2a
        E 512 b0 0b 22
        E 16 80 1b 00
        E 16 b0 0b 44
        E 0 90 1b 44
        E 16 b0 0b 4c
        E 16 b0 0b 2a
        E 80 b0 0b 22
        E 16 80 1b 00
        E 16 b0 0b 44
        E 0 90 1b 44
        E 16 b0 0b 4c
        E 16 b0 0b 2a
        E 368 b0 0b 22
        E 16 80 1b 00
        E 16 b0 0b 44
        E 0 90 37 44
        E 16 b0 0b 4c
        E 16 b0 0b 2a
        E 80 b0 0b 22
        E 16 b0 0b 11
        E 0 80 37 00
        E 0 90 1b 11
        E 16 b0 0b 44
        E 0 80 1b 00
        E 0 90 37 44
        E 16 b0 0b 4c
        E 16 b0 0b 2a
        E 80 b0 0b 22
        E 16 b0 0b 11
        E 16 b0 0b 44
        E 16 b0 0b 4c
        E 16 b0 0b 2a
        E 80 b0 0b 22
        E 16 b0 0b 11
        E 16 b0 0b 44
        E 16 b0 0b 4c
        E 16 b0 0b 2a
        E 80 b0 0b 22
        E 16 b0 0b 11
        E 16 80 37 00
        E 16 90 35 11
        E 128 b0 0b 44
        E 0 80 35 00
        E 0 90 3a 44
        E 16 b0 0b 4c
        E 16 b0 0b 2a
        E 80 b0 0b 22
        E 16 b0 0b 11
        E 0 80 3a 00
        E 0 90 37 11
        E 16 80 37 00
        E 16 90 37 11
        E 128 b0 0b 44
        E 0 80 37 00
        E 0 90 3c 44
        E 96 b0 0b 33
        E 48 80 3c 00
        E 0 90 38 33
        E 144 80 38 00
        E 16 b0 0b 11
        E 0 90 3a 11
        E 160 80 3a 00
        E 0 90 38 11
        E 256 b0 0b 33
        E 16 b0 0b 3b
        E 16 b0 0b 22
        E 80 b0 0b 19
        E 16 b0 0b 11
        E 16 b0 0b 33
        E 16 b0 0b 3b
        E 16 b0 0b 22
        E 80 b0 0b 19
        E 16 b0 0b 11
        E 16 b0 0b 33
        E 16 b0 0b 3b
        E 16 b0 0b 22
        E 80 b0 0b 19
        E 16 b0 0b 11
        E 16 80 38 00
        E 16 90 30 11
        E 128 b0 0b 33
        E 16 b0 0b 3b
        E 16 b0 0b 22
        E 80 b0 0b 19
        E 16 b0 0b 11
        E 16 b0 0b 33
        E 16 b0 0b 3b
        E 16 b0 0b 22
        E 80 b0 0b 19
        E 16 b0 0b 11
        E 16 b0 0b 33
        E 16 b0 0b 3b
        E 16 b0 0b 22
        E 80 b0 0b 19
        E 16 b0 0b 11
        E 16 80 30 00
        E 16 90 2e 11
        E 128 b0 0b 33
        E 16 b0 0b 3b
        E 16 b0 0b 22
        E 80 b0 0b 19
        E 16 b0 0b 11
        E 16 b0 0b 33
        E 16 b0 0b 3b
        E 16 b0 0b 22
        E 80 b0 0b 19
        E 16 b0 0b 11
        E 16 b0 0b 33
        E 16 b0 0b 3b
        E 16 b0 0b 22
        E 80 b0 0b 19
        E 16 b0 0b 11
        E 16 80 2e 00
        E 16 90 33 11
        E 128 b0 0b 33
        E 16 b0 0b 3b
        E 16 b0 0b 22
        E 80 b0 0b 19
        E 16 b0 0b 11
        E 16 b0 0b 33
        E 0 80 33 00
        E 0 90 2c 33
        E 16 b0 0b 3b
        E 16 b0 0b 22
        E 80 b0 0b 19
        E 16 b0 0b 11
        E 0 80 2c 00
        E 0 90 37 11
        E 16 b0 0b 33
        E 16 b0 0b 3b
        E 16 b0 0b 22
        E 80 b0 0b 19
        E 16 b0 0b 11
        E 16 80 37 00
        E 16 90 2c 11
        E 128 b0 0b 33
        E 16 b0 0b 3b
        E 16 b0 0b 22
        E 80 b0 0b 19
        E 16 b0 0b 11
        E 0 80 2c 00
        E 0 90 35 11
        E 16 b0 0b 33
        E 16 b0 0b 3b
        E 16 b0 0b 22
        E 80 b0 0b 19
        E 16 b0 0b 11
        E 16 b0 0b 33
        E 16 b0 0b 3b
        E 16 b0 0b 22
        E 80 b0 0b 19
        E 16 b0 0b 11
        E 0 80 35 00
        E 0 90 2c 11
        E 16 80 2c 00
        E 16 90 31 11
        E 128 b0 0b 33
        E 0 80 31 00
        E 0 90 43 33
        E 16 b0 0b 3b
        E 16 b0 0b 22
        E 224 b0 0b 19
        E 16 b0 0b 11
        E 0 80 43 00
        E 0 90 35 11
        E 16 b0 0b 33
        E 0 80 35 00
        E 0 90 41 33
        E 16 b0 0b 3b
        E 16 b0 0b 22
        E 224 b0 0b 19
        E 16 b0 0b 11
        E 16 b0 0b 33
        E 16 b0 0b 3b
        E 16 b0 0b 22
        E 80 b0 0b 19
        E 16 b0 0b 11
        E 16 b0 0b 33
        E 16 b0 0b 3b
        E 16 b0 0b 22
        E 80 b0 0b 19
        E 16 b0 0b 11
        E 16 80 41 00
        E 16 90 3e 11
        E 128 b0 0b 33
        E 16 b0 0b 3b
        E 16 b0 0b 22
        E 80 b0 0b 19
        E 16 b0 0b 11
        E 16 b0 0b 33
        E 0 80 3e 00
        E 0 90 35 33
        E 16 b0 0b 3b
        E 16 b0 0b 22
        E 80 b0 0b 19
        E 16 b0 0b 11
        E 0 80 35 00
        E 0 90 3a 11
        E 16 b0 0b 33
        E 0 80 3a 00
        E 0 90 30 33
        E 16 b0 0b 3b
        E 16 b0 0b 22
        E 80 b0 0b 19
        E 16 b0 0b 11
        E 0 80 30 00
        E 0 90 3c 11
        E 16 b0 0b 33
        E 0 80 3c 00
        E 0 90 38 33
        E 16 b0 0b 3b
        E 16 b0 0b 22
        E 80 b0 0b 19
        E 16 b0 0b 11
        E 16 80 38 00
        E 16 90 30 11
        E 128 b0 0b 33
        E 16 b0 0b 3b
        E 16 b0 0b 22
        E 80 b0 0b 19
        E 16 b0 0b 11
        E 16 b0 0b 33
        E 16 b0 0b 3b
        E 16 b0 0b 22
        E 80 b0 0b 19
        E 16 b0 0b 11
        E 16 b0 0b 33
        E 16 b0 0b 3b
        E 16 b0 0b 22
        E 80 b0 0b 19
        E 16 b0 0b 11
        E 16 80 30 00
        E 16 90 35 11
        E 128 b0 0b 33
        E 16 b0 0b 3b
        E 16 b0 0b 22
        E 80 b0 0b 19
        E 16 b0 0b 11
        E 16 b0 0b 33
        E 16 b0 0b 3b
        E 16 b0 0b 22
        E 80 b0 0b 19
        E 16 b0 0b 11
        E 16 b0 0b 33
        E 16 b0 0b 3b
        E 16 b0 0b 22
        E 80 b0 0b 19
        E 16 b0 0b 11
        E 16 80 35 00
        E 16 90 2e 11
        E 128 b0 0b 33
        E 16 b0 0b 3b
        E 16 b0 0b 22
        E 80 b0 0b 19
        E 16 b0 0b 11
        E 16 b0 0b 33
        E 16 b0 0b 3b
        E 16 b0 0b 22
        E 80 b0 0b 19
        E 16 b0 0b 11
        E 16 b0 0b 33
        E 16 b0 0b 3b
        E 16 b0 0b 22
        E 80 b0 0b 19
        E 16 b0 0b 11
        E 16 80 2e 00
        E 16 90 33 11
        E 128 b0 0b 33
        E 16 b0 0b 3b
        E 16 b0 0b 22
        E 80 b0 0b 19
        E 16 b0 0b 11
        E 16 b0 0b 33
        E 0 80 33 00
        E 0 90 2c 33
        E 16 b0 0b 3b
        E 16 b0 0b 22
        E 80 b0 0b 19
        E 16 b0 0b 11
        E 0 80 2c 00
        E 0 90 37 11
        E 16 b0 0b 33
        E 16 b0 0b 3b
        E 16 b0 0b 22
        E 80 b0 0b 19
        E 16 b0 0b 11
        E 16 80 37 00
        E 16 90 2c 11
        E 128 b0 0b 33
        E 16 b0 0b 3b
        E 16 b0 0b 22
        E 80 b0 0b 19
        E 16 b0 0b 11
        E 0 80 2c 00
        E 0 90 35 11
        E 16 b0 0b 33
        E 16 b0 0b 3b
        E 16 b0 0b 22
        E 80 b0 0b 19
        E 16 b0 0b 11
        E 16 b0 0b 33
        E 16 b0 0b 3b
        E 16 b0 0b 22
        E 80 b0 0b 19
        E 16 b0 0b 11
        E 0 80 35 00
        E 0 90 2c 11
        E 16 80 2c 00
        E 16 90 31 11
        E 128 b0 0b 33
        E 0 80 31 00
        E 0 90 43 33
        E 16 b0 0b 3b
        E 16 b0 0b 22
        E 80 b0 0b 19
        E 16 b0 0b 11
        E 0 80 43 00
        E 0 90 35 11
        E 16 b0 0b 33
        E 0 80 35 00
        E 0 90 43 33
        E 16 b0 0b 3b
        E 16 b0 0b 22
        E 80 b0 0b 19
        E 16 b0 0b 11
        E 0 80 43 00
        E 0 90 35 11
        E 16 b0 0b 33
        E 0 80 35 00
        E 0 90 41 33
        E 16 b0 0b 3b
        E 16 b0 0b 22
        E 80 b0 0b 19
        E 16 b0 0b 11
        E 16 b0 0b 33
        E 16 b0 0b 3b
        E 16 b0 0b 22
        E 80 b0 0b 19
        E 16 b0 0b 11
        E 16 80 41 00
        E 16 90 41 11
        E 128 b0 0b 33
        E 16 b0 0b 3b
        E 16 b0 0b 22
        E 80 b0 0b 19
        E 16 b0 0b 11
        E 16 80 41 00
        E 16 90 43 11
        E 128 b0 0b 33
        E 16 b0 0b 3b
        E 16 b0 0b 22
        E 80 b0 0b 19
        E 16 b0 0b 11
        E 16 b0 0b 44
        E 16 b0 0b 4c
        E 16 b0 0b 2a
        E 32 b0 0b 22
        E 16 b0 0b 11
        E 64 b0 0b 44
        E 16 b0 0b 4c
        E 16 b0 0b 2a
        E 32 b0 0b 22
        E 16 b0 0b 11
        E 64 b0 0b 44
        E 16 b0 0b 4c
        E 16 b0 0b 2a
        E 32 b0 0b 22
        E 16 b0 0b 11
        E 64 b0 0b 44
        E 16 b0 0b 4c
        E 16 b0 0b 2a
        E 32 b0 0b 22
        E 16 b0 0b 11
        E 64 b0 0b 44
        E 16 b0 0b 4c
        E 16 b0 0b 2a
        E 32 b0 0b 22
        E 16 b0 0b 11
        E 64 b0 0b 44
        E 16 b0 0b 4c
        E 16 b0 0b 2a
        E 32 b0 0b 22
        E 16 b0 0b 11
        E 64 b0 0b 44
        E 16 b0 0b 4c
        E 16 b0 0b 2a
        E 32 b0 0b 22
        E 16 b0 0b 11
        E 64 b0 0b 44
        E 16 b0 0b 4c
        E 16 b0 0b 2a
        E 32 b0 0b 22
        E 16 b0 0b 11
        E 64 b0 0b 44
        E 16 b0 0b 4c
        E 16 b0 0b 2a
        E 32 b0 0b 22
        E 16 b0 0b 11
        E 64 b0 0b 44
        E 16 b0 0b 4c
        E 16 b0 0b 2a
        E 32 b0 0b 22
        E 16 b0 0b 11
        E 64 b0 0b 44
        E 16 b0 0b 4c
        E 16 b0 0b 2a
        E 32 b0 0b 22
        E 16 b0 0b 11
        E 64 b0 0b 44
        E 16 b0 0b 4c
        E 16 b0 0b 2a
        E 32 b0 0b 22
        E 16 b0 0b 11
        E 64 b0 0b 44
        E 16 b0 0b 4c
        E 16 b0 0b 2a
        E 32 b0 0b 22
        E 16 b0 0b 11
        E 64 b0 0b 44
        E 16 b0 0b 4c
        E 16 b0 0b 2a
        E 32 b0 0b 22
        E 16 b0 0b 11
        E 64 b0 0b 44
        E 16 b0 0b 4c
        E 16 b0 0b 2a
        E 32 b0 0b 22
        E 16 b0 0b 11
        E 64 b0 0b 44
        E 16 b0 0b 4c
        E 16 b0 0b 2a
        E 32 b0 0b 22
        E 16 b0 0b 11
        E 64 b0 0b 44
        E 16 b0 0b 4c
        E 16 b0 0b 2a
        E 32 b0 0b 22
        E 16 b0 0b 11
        E 64 b0 0b 44
        E 16 b0 0b 4c
        E 16 b0 0b 2a
        E 32 b0 0b 22
        E 16 b0 0b 11
        E 64 b0 0b 44
        E 16 b0 0b 4c
        E 16 b0 0b 2a
        E 32 b0 0b 22
        E 16 b0 0b 11
        E 64 b0 0b 44
        E 16 b0 0b 4c
        E 16 b0 0b 2a
        E 32 b0 0b 22
        E 16 b0 0b 11
        E 64 b0 0b 44
        E 16 b0 0b 4c
        E 16 b0 0b 2a
        E 32 b0 0b 22
        E 16 b0 0b 11
        E 64 b0 0b 44
        E 16 b0 0b 4c
        E 16 b0 0b 2a
        E 32 b0 0b 22
        E 16 b0 0b 11
        E 64 b0 0b 44
        E 16 b0 0b 4c
        E 16 b0 0b 2a
        E 32 b0 0b 22
        E 16 b0 0b 11
        E 64 b0 0b 44
        E 16 b0 0b 4c
        E 16 b0 0b 2a
        E 32 b0 0b 22
        E 16 b0 0b 11
        E 64 b0 0b 44
        E 0 80 43 00
        E 0 90 37 44
        E 16 b0 0b 4c
        E 16 b0 0b 2a
        E 80 b0 0b 22
        E 16 b0 0b 11
        E 0 80 37 00
        E 0 90 41 11
        E 16 b0 0b 44
        E 0 80 41 00
        E 0 90 37 44
        E 16 b0 0b 4c
        E 16 b0 0b 2a
        E 80 b0 0b 22
        E 16 b0 0b 11
        E 0 80 37 00
        E 0 90 3f 11
        E 16 b0 0b 44
        E 0 80 3f 00
        E 0 90 35 44
        E 16 b0 0b 4c
        E 16 b0 0b 2a
        E 80 b0 0b 22
        E 16 b0 0b 11
        E 16 b0 0b 44
        E 16 b0 0b 4c
        E 16 b0 0b 2a
        E 80 b0 0b 22
        E 16 b0 0b 11
        E 16 80 35 00
        E 16 90 35 11
        E 128 b0 0b 44
        E 0 80 35 00
        E 0 90 3a 44
        E 16 b0 0b 4c
        E 16 b0 0b 2a
        E 224 b0 0b 22
        E 16 b0 0b 11
        E 0 80 3a 00
        E 0 90 37 11
        E 16 b0 0b 44
        E 16 b0 0b 4c
        E 16 b0 0b 2a
        E 80 b0 0b 22
        E 16 b0 0b 11
        E 0 80 37 00
        E 0 90 3a 11
        E 16 b0 0b 44
        E 16 b0 0b 4c
        E 16 b0 0b 2a
        E 80 b0 0b 22
        E 16 b0 0b 11
        E 16 b0 0b 44
        E 16 b0 0b 4c
        E 16 b0 0b 2a
        E 80 b0 0b 22
        E 16 b0 0b 11
        E 0 80 3a 00
        E 0 90 37 11
        E 16 b0 0b 44
        E 0 80 37 00
        E 0 90 3a 44
        E 16 b0 0b 4c
        E 16 b0 0b 2a
        E 80 b0 0b 22
        E 16 b0 0b 11
        E 16 b0 0b 44
        E 16 b0 0b 4c
        E 16 b0 0b 2a
        E 80 b0 0b 22
        E 16 b0 0b 11
        E 16 80 3a 00
        E 16 90 3a 11
        E 128 b0 0b 44
        E 16 b0 0b 4c
        E 16 b0 0b 2a
        E 80 b0 0b 22
        E 16 b0 0b 11
        E 16 80 3a 00
        E 16 90 3c 11
        E 128 b0 0b 44
        E 16 b0 0b 4c
        E 16 b0 0b 2a
        E 224 b0 0b 22
        E 16 b0 0b 11
        E 16 b0 0b 44
        E 16 b0 0b 4c
        E 16 b0 0b 2a
        E 80 b0 0b 22
        E 16 b0 0b 11
        E 16 b0 0b 44
        E 16 b0 0b 4c
        E 16 b0 0b 2a
        E 512 b0 0b 22
        E 16 b0 0b 11
        E 16 80 3c 00
        E 49936 b0 0b 44
        E 0 90 18 44
        E 16 b0 0b 4c
        E 16 b0 0b 2a
        E 512 b0 0b 22
        E 16 80 18 00
        E 16 b0 0b 44
        E 0 90 18 44
        E 16 b0 0b 4c
        E 16 b0 0b 2a
        E 80 b0 0b 22
        E 16 80 18 00
        E 16 b0 0b 44
        E 0 90 18 44
        E 16 b0 0b 4c
        E 16 b0 0b 2a
        E 368 b0 0b 22
        E 16 80 18 00
        E 16 b0 0b 44
        E 0 90 18 44
        E 16 b0 0b 4c
        E 16 b0 0b 2a
        E 512 b0 0b 22
        E 16 80 18 00
        E 16 b0 0b 44
        E 0 90 18 44
        E 16 b0 0b 4c
        E 16 b0 0b 2a
        E 80 b0 0b 22
        E 16 80 18 00
        E 16 b0 0b 44
        E 0 90 18 44
        E 16 b0 0b 4c
        E 16 b0 0b 2a
        E 368 b0 0b 22
        E 16 80 18 00
        E 16 b0 0b 44
        E 0 90 1b 44
        E 16 b0 0b 4c
        E 16 b0 0b 2a
        E 512 b0 0b 22
        E 16 80 1b 00
        E 16 b0 0b 44
        E 0 90 1b 44
        E 16 b0 0b 4c
        E 16 b0 0b 2a
        E 80 b0 0b 22
        E 16 80 1b 00
        E 16 b0 0b 44
        E 0 90 1b 44
        E 16 b0 0b 4c
        E 16 b0 0b 2a
        E 192 80 1b 00
        E 0 b0 7b 00
        E 0 ff 2f 00
      >
    >
  >
  <TRACK {CD75E12F-6502-42E4-9EF5-F0D1E5B436A3}
    NAME "NES - Pulse 2 [ch1]"
    PEAKCOL 10092441
    BEAT -1
    AUTOMODE 0
    PANLAWFLAGS 3
    VOLPAN 1 0 -1 -1 1
    MUTESOLO 0 0 0
    IPHASE 0
    PLAYOFFS 0 1
    ISBUS 0 0
    BUSCOMP 0 0 0 0 0
    SHOWINMIX 1 0.6667 0.5 1 0.5 0 0 0
    FIXEDLANES 9 0 0 0 0
    SEL 0
    REC 0 5088 1 0 0 0 0 0
    VU 2
    TRACKHEIGHT 0 0 0 0 0 0 0
    INQ 0 0 0 0.5 100 0 0 100
    NCHAN 2
    FX 1
    TRACKID {CD75E12F-6502-42E4-9EF5-F0D1E5B436A3}
    PERF 0
    MIDIOUT -1
    MAINSEND 1 0
    <FXCHAIN
      WNDRECT 24 52 700 560
      SHOW 0
      LASTSEL 0
      DOCKED 0
      BYPASS 0 0 0
      <JS "ReapNES Studio/ReapNES_Console.jsfx" ""
        2 15 1 10 80 10 100 2 1 15 1 5 60 10 80 1 1 0 50 0 0 15 1 0 100 0 0 0.500000 0.500000 0.400000 0.300000 0.800000 1 1 0 0 0 0 - - - - - - - - - - - - - - - - - - - - - - - - - -
      >
      FLOATPOS 0 0 0 0
      FXID {EE58A699-3555-406A-B823-86E6F9C2F061}
      WAK 0 0
    >
    <ITEM
      POSITION 0
      LENGTH 71.57076420000001
      LOOP 0
      ALLTAKES 0
      FADEIN 0 0 0 0 0 0 0
      FADEOUT 0 0 0 0 0 0 0
      MUTE 0 0
      SEL 0
      IGUID {298DA6A9-7B12-4B7B-9BEC-6372F62130DD}
      <SOURCE MIDI
        HASDATA 1 480 QN
        CCINTERP 32
        E 0 c1 51
        E 0 b1 0c 20
        E 0 b1 0b 44
        E 0 91 3c 44
        E 16 b1 0b 4c
        E 16 b1 0b 2a
        E 32 b1 0b 22
        E 16 b1 0b 11
        E 64 b1 0b 44
        E 16 b1 0b 4c
        E 16 b1 0b 2a
        E 32 b1 0b 22
        E 16 b1 0b 11
        E 64 b1 0b 44
        E 16 b1 0b 4c
        E 16 b1 0b 2a
        E 32 b1 0b 22
        E 16 b1 0b 11
        E 64 b1 0b 44
        E 16 b1 0b 4c
        E 16 b1 0b 2a
        E 32 b1 0b 22
        E 16 b1 0b 11
        E 64 b1 0b 44
        E 16 b1 0b 4c
        E 16 b1 0b 2a
        E 32 b1 0b 22
        E 16 b1 0b 11
        E 64 b1 0b 44
        E 16 b1 0b 4c
        E 16 b1 0b 2a
        E 32 b1 0b 22
        E 16 b1 0b 11
        E 64 b1 0b 44
        E 16 b1 0b 4c
        E 16 b1 0b 2a
        E 32 b1 0b 22
        E 16 b1 0b 11
        E 64 b1 0b 44
        E 16 b1 0b 4c
        E 16 b1 0b 2a
        E 32 b1 0b 22
        E 16 b1 0b 11
        E 64 b1 0b 44
        E 16 b1 0b 4c
        E 16 b1 0b 2a
        E 32 b1 0b 22
        E 16 b1 0b 11
        E 64 b1 0b 44
        E 16 b1 0b 4c
        E 16 b1 0b 2a
        E 32 b1 0b 22
        E 16 b1 0b 11
        E 64 b1 0b 44
        E 16 b1 0b 4c
        E 16 b1 0b 2a
        E 32 b1 0b 22
        E 16 b1 0b 11
        E 64 b1 0b 44
        E 16 b1 0b 4c
        E 16 b1 0b 2a
        E 32 b1 0b 22
        E 16 b1 0b 11
        E 64 b1 0b 44
        E 16 b1 0b 4c
        E 16 b1 0b 2a
        E 32 b1 0b 22
        E 16 b1 0b 11
        E 64 b1 0b 44
        E 16 b1 0b 4c
        E 16 b1 0b 2a
        E 32 b1 0b 22
        E 16 b1 0b 11
        E 64 b1 0b 44
        E 16 b1 0b 4c
        E 16 b1 0b 2a
        E 32 b1 0b 22
        E 16 b1 0b 11
        E 64 b1 0b 44
        E 16 b1 0b 4c
        E 16 b1 0b 2a
        E 32 b1 0b 22
        E 16 b1 0b 11
        E 64 b1 0b 44
        E 16 b1 0b 4c
        E 16 b1 0b 2a
        E 32 b1 0b 22
        E 16 b1 0b 11
        E 64 b1 0b 44
        E 16 b1 0b 4c
        E 16 b1 0b 2a
        E 32 b1 0b 22
        E 16 b1 0b 11
        E 64 b1 0b 44
        E 16 b1 0b 4c
        E 16 b1 0b 2a
        E 32 b1 0b 22
        E 16 b1 0b 11
        E 64 b1 0b 44
        E 16 b1 0b 4c
        E 16 b1 0b 2a
        E 32 b1 0b 22
        E 16 b1 0b 11
        E 64 b1 0b 44
        E 16 b1 0b 4c
        E 16 b1 0b 2a
        E 32 b1 0b 22
        E 16 b1 0b 11
        E 64 b1 0b 44
        E 16 b1 0b 4c
        E 16 b1 0b 2a
        E 32 b1 0b 22
        E 16 b1 0b 11
        E 64 b1 0b 44
        E 16 b1 0b 4c
        E 16 b1 0b 2a
        E 32 b1 0b 22
        E 16 b1 0b 11
        E 64 b1 0b 44
        E 16 b1 0b 4c
        E 16 b1 0b 2a
        E 32 b1 0b 22
        E 16 b1 0b 11
        E 64 b1 0b 44
        E 16 b1 0b 4c
        E 16 b1 0b 2a
        E 80 b1 0b 22
        E 16 b1 0b 11
        E 16 b1 0b 44
        E 16 b1 0b 4c
        E 16 b1 0b 2a
        E 80 b1 0b 22
        E 16 b1 0b 11
        E 16 b1 0b 44
        E 16 b1 0b 4c
        E 16 b1 0b 2a
        E 80 b1 0b 22
        E 16 b1 0b 11
        E 16 b1 0b 44
        E 16 b1 0b 4c
        E 16 b1 0b 2a
        E 80 b1 0b 22
        E 16 b1 0b 11
        E 16 81 3c 00
        E 16 91 3a 11
        E 128 b1 0b 44
        E 16 b1 0b 4c
        E 16 b1 0b 2a
        E 80 b1 0b 22
        E 16 b1 0b 11
        E 16 81 3a 00
        E 16 91 3c 11
        E 128 b1 0b 44
        E 96 b1 0b 33
        E 128 81 3c 00
        E 0 91 38 33
        E 64 81 38 00
        E 16 b1 0b 11
        E 0 91 41 11
        E 208 81 41 00
        E 0 91 38 11
        E 208 b1 0b 44
        E 0 81 38 00
        E 0 91 41 44
        E 16 b1 0b 4c
        E 16 b1 0b 2a
        E 80 b1 0b 22
        E 16 b1 0b 11
        E 0 81 41 00
        E 0 91 35 11
        E 16 b1 0b 44
        E 0 81 35 00
        E 0 91 43 44
        E 16 b1 0b 4c
        E 16 b1 0b 2a
        E 80 b1 0b 22
        E 16 b1 0b 11
        E 16 b1 0b 44
        E 16 b1 0b 4c
        E 16 b1 0b 2a
        E 80 b1 0b 22
        E 16 b1 0b 11
        E 16 b1 0b 44
        E 16 b1 0b 4c
        E 16 b1 0b 2a
        E 368 b1 0b 22
        E 16 b1 0b 11
        E 16 b1 0b 44
        E 16 b1 0b 4c
        E 16 b1 0b 2a
        E 80 b1 0b 22
        E 16 b1 0b 11
        E 16 b1 0b 44
        E 16 b1 0b 4c
        E 16 b1 0b 2a
        E 80 b1 0b 22
        E 16 b1 0b 11
        E 16 81 43 00
        E 16 91 48 11
        E 128 b1 0b 44
        E 16 b1 0b 4c
        E 16 b1 0b 2a
        E 80 b1 0b 22
        E 16 b1 0b 11
        E 16 81 48 00
        E 16 91 46 11
        E 128 b1 0b 44
        E 16 b1 0b 4c
        E 16 b1 0b 2a
        E 800 b1 0b 22
        E 16 b1 0b 11
        E 16 b1 0b 44
        E 16 b1 0b 4c
        E 16 b1 0b 2a
        E 80 b1 0b 22
        E 16 b1 0b 11
        E 16 b1 0b 44
        E 16 b1 0b 4c
        E 16 b1 0b 2a
        E 80 b1 0b 22
        E 16 b1 0b 11
        E 16 b1 0b 44
        E 16 b1 0b 4c
        E 16 b1 0b 2a
        E 80 b1 0b 22
        E 16 b1 0b 11
        E 16 b1 0b 44
        E 16 b1 0b 4c
        E 16 b1 0b 2a
        E 224 b1 0b 22
        E 16 b1 0b 11
        E 16 b1 0b 44
        E 16 b1 0b 4c
        E 16 b1 0b 2a
        E 224 b1 0b 22
        E 16 b1 0b 11
        E 16 b1 0b 44
        E 16 b1 0b 4c
        E 16 b1 0b 2a
        E 80 b1 0b 22
        E 16 b1 0b 11
        E 16 b1 0b 44
        E 16 b1 0b 4c
        E 16 b1 0b 2a
        E 80 b1 0b 22
        E 16 b1 0b 11
        E 16 81 46 00
        E 16 91 43 11
        E 128 b1 0b 44
        E 16 b1 0b 4c
        E 16 b1 0b 2a
        E 656 b1 0b 22
        E 16 b1 0b 11
        E 16 b1 0b 44
        E 16 b1 0b 4c
        E 16 b1 0b 2a
        E 80 b1 0b 22
        E 16 b1 0b 11
        E 16 b1 0b 44
        E 16 b1 0b 4c
        E 16 b1 0b 2a
        E 80 b1 0b 22
        E 16 b1 0b 11
        E 16 b1 0b 44
        E 16 b1 0b 4c
        E 16 b1 0b 2a
        E 80 b1 0b 22
        E 16 b1 0b 11
        E 16 b1 0b 44
        E 16 b1 0b 4c
        E 16 b1 0b 2a
        E 368 b1 0b 22
        E 16 b1 0b 11
        E 16 b1 0b 44
        E 16 b1 0b 4c
        E 16 b1 0b 2a
        E 80 b1 0b 22
        E 16 b1 0b 11
        E 16 b1 0b 44
        E 16 b1 0b 4c
        E 16 b1 0b 2a
        E 80 b1 0b 22
        E 16 b1 0b 11
        E 16 81 43 00
        E 16 91 48 11
        E 128 b1 0b 44
        E 16 b1 0b 4c
        E 16 b1 0b 2a
        E 80 b1 0b 22
        E 16 b1 0b 11
        E 16 81 48 00
        E 16 91 46 11
        E 128 b1 0b 44
        E 16 b1 0b 4c
        E 16 b1 0b 2a
        E 800 b1 0b 22
        E 16 b1 0b 11
        E 16 b1 0b 44
        E 16 b1 0b 4c
        E 16 b1 0b 2a
        E 80 b1 0b 22
        E 16 b1 0b 11
        E 16 b1 0b 44
        E 16 b1 0b 4c
        E 16 b1 0b 2a
        E 80 b1 0b 22
        E 16 b1 0b 11
        E 16 b1 0b 44
        E 16 b1 0b 4c
        E 16 b1 0b 2a
        E 80 b1 0b 22
        E 16 b1 0b 11
        E 16 b1 0b 44
        E 16 b1 0b 4c
        E 16 b1 0b 2a
        E 80 b1 0b 22
        E 16 b1 0b 11
        E 16 b1 0b 44
        E 16 b1 0b 4c
        E 16 b1 0b 2a
        E 80 b1 0b 22
        E 16 b1 0b 11
        E 16 b1 0b 44
        E 16 b1 0b 4c
        E 16 b1 0b 2a
        E 80 b1 0b 22
        E 16 b1 0b 11
        E 16 b1 0b 44
        E 16 b1 0b 4c
        E 16 b1 0b 2a
        E 80 b1 0b 22
        E 16 b1 0b 11
        E 16 81 46 00
        E 16 91 46 11
        E 128 b1 0b 44
        E 16 b1 0b 4c
        E 16 b1 0b 2a
        E 80 b1 0b 22
        E 16 b1 0b 11
        E 16 81 46 00
        E 16 91 48 11
        E 128 b1 0b 44
        E 16 b1 0b 4c
        E 16 b1 0b 2a
        E 80 b1 0b 22
        E 16 b1 0b 11
        E 16 b1 0b 44
        E 16 b1 0b 4c
        E 16 b1 0b 33
        E 1312 b1 0b 2a
        E 64 b1 0b 22
        E 64 b1 0b 19
        E 64 b1 0b 11
        E 64 b1 0b 08
        E 704 b1 0b 3b
        E 0 81 48 00
        E 0 91 38 3b
        E 16 b1 0b 44
        E 16 b1 0b 22
        E 32 b1 0b 19
        E 16 b1 0b 11
        E 0 81 38 00
        E 0 91 4d 11
        E 64 b1 0b 3b
        E 0 81 4d 00
        E 0 91 37 3b
        E 16 b1 0b 44
        E 16 b1 0b 22
        E 32 b1 0b 19
        E 16 b1 0b 11
        E 0 81 37 00
        E 0 91 4d 11
        E 48 81 4d 00
        E 0 91 38 11
        E 16 b1 0b 3b
        E 16 b1 0b 44
        E 16 b1 0b 22
        E 32 b1 0b 19
        E 16 b1 0b 11
        E 64 b1 0b 3b
        E 16 b1 0b 44
        E 16 b1 0b 22
        E 32 b1 0b 19
        E 16 b1 0b 11
        E 64 b1 0b 3b
        E 16 b1 0b 44
        E 16 b1 0b 22
        E 32 b1 0b 19
        E 16 b1 0b 11
        E 64 b1 0b 3b
        E 16 b1 0b 44
        E 16 b1 0b 22
        E 32 b1 0b 19
        E 16 b1 0b 11
        E 64 b1 0b 3b
        E 16 b1 0b 44
        E 16 b1 0b 22
        E 32 b1 0b 19
        E 16 b1 0b 11
        E 64 b1 0b 3b
        E 16 b1 0b 44
        E 16 b1 0b 22
        E 32 b1 0b 19
        E 16 b1 0b 11
        E 64 b1 0b 44
        E 0 81 38 00
        E 0 91 3c 44
        E 16 b1 0b 4c
        E 16 b1 0b 33
        E 80 b1 0b 2a
        E 16 b1 0b 11
        E 0 81 3c 00
        E 0 91 37 11
        E 16 b1 0b 44
        E 0 81 37 00
        E 0 91 3c 44
        E 16 b1 0b 4c
        E 16 b1 0b 33
        E 80 b1 0b 2a
        E 16 b1 0b 11
        E 16 b1 0b 44
        E 16 b1 0b 4c
        E 16 b1 0b 33
        E 80 b1 0b 2a
        E 16 b1 0b 11
        E 16 b1 0b 44
        E 16 b1 0b 4c
        E 16 b1 0b 33
        E 80 b1 0b 2a
        E 16 b1 0b 11
        E 16 81 3c 00
        E 16 91 3a 11
        E 128 b1 0b 44
        E 16 b1 0b 4c
        E 16 b1 0b 33
        E 224 b1 0b 2a
        E 16 b1 0b 11
        E 16 b1 0b 44
        E 16 b1 0b 4c
        E 16 b1 0b 33
        E 80 b1 0b 2a
        E 16 b1 0b 11
        E 16 b1 0b 44
        E 16 b1 0b 4c
        E 16 b1 0b 33
        E 80 b1 0b 2a
        E 16 b1 0b 11
        E 16 b1 0b 44
        E 16 b1 0b 4c
        E 16 b1 0b 33
        E 80 b1 0b 2a
        E 16 b1 0b 11
        E 16 b1 0b 44
        E 16 b1 0b 4c
        E 16 b1 0b 33
        E 80 b1 0b 2a
        E 16 b1 0b 11
        E 16 b1 0b 44
        E 16 b1 0b 4c
        E 16 b1 0b 33
        E 80 b1 0b 2a
        E 16 b1 0b 11
        E 16 81 3a 00
        E 16 91 3f 11
        E 128 b1 0b 44
        E 16 b1 0b 4c
        E 16 b1 0b 33
        E 80 b1 0b 2a
        E 16 b1 0b 11
        E 16 81 3f 00
        E 16 91 41 11
        E 128 b1 0b 44
        E 16 b1 0b 4c
        E 16 b1 0b 33
        E 224 b1 0b 2a
        E 16 b1 0b 11
        E 16 b1 0b 44
        E 16 b1 0b 4c
        E 16 b1 0b 33
        E 80 b1 0b 2a
        E 16 b1 0b 11
        E 16 b1 0b 44
        E 16 b1 0b 4c
        E 16 b1 0b 33
        E 512 b1 0b 2a
        E 16 b1 0b 11
        E 16 81 41 00
        E 49936 b1 0b 44
        E 0 91 3c 44
        E 16 b1 0b 4c
        E 16 b1 0b 2a
        E 32 b1 0b 22
        E 16 b1 0b 11
        E 64 b1 0b 44
        E 16 b1 0b 4c
        E 16 b1 0b 2a
        E 32 b1 0b 22
        E 16 b1 0b 11
        E 64 b1 0b 44
        E 16 b1 0b 4c
        E 16 b1 0b 2a
        E 32 b1 0b 22
        E 16 b1 0b 11
        E 64 b1 0b 44
        E 16 b1 0b 4c
        E 16 b1 0b 2a
        E 32 b1 0b 22
        E 16 b1 0b 11
        E 64 b1 0b 44
        E 16 b1 0b 4c
        E 16 b1 0b 2a
        E 32 b1 0b 22
        E 16 b1 0b 11
        E 64 b1 0b 44
        E 16 b1 0b 4c
        E 16 b1 0b 2a
        E 32 b1 0b 22
        E 16 b1 0b 11
        E 64 b1 0b 44
        E 16 b1 0b 4c
        E 16 b1 0b 2a
        E 32 b1 0b 22
        E 16 b1 0b 11
        E 64 b1 0b 44
        E 16 b1 0b 4c
        E 16 b1 0b 2a
        E 32 b1 0b 22
        E 16 b1 0b 11
        E 64 b1 0b 44
        E 16 b1 0b 4c
        E 16 b1 0b 2a
        E 32 b1 0b 22
        E 16 b1 0b 11
        E 64 b1 0b 44
        E 16 b1 0b 4c
        E 16 b1 0b 2a
        E 32 b1 0b 22
        E 16 b1 0b 11
        E 64 b1 0b 44
        E 16 b1 0b 4c
        E 16 b1 0b 2a
        E 32 b1 0b 22
        E 16 b1 0b 11
        E 64 b1 0b 44
        E 16 b1 0b 4c
        E 16 b1 0b 2a
        E 32 b1 0b 22
        E 16 b1 0b 11
        E 64 b1 0b 44
        E 16 b1 0b 4c
        E 16 b1 0b 2a
        E 32 b1 0b 22
        E 16 b1 0b 11
        E 64 b1 0b 44
        E 16 b1 0b 4c
        E 16 b1 0b 2a
        E 32 b1 0b 22
        E 16 b1 0b 11
        E 64 b1 0b 44
        E 16 b1 0b 4c
        E 16 b1 0b 2a
        E 32 b1 0b 22
        E 16 b1 0b 11
        E 64 b1 0b 44
        E 16 b1 0b 4c
        E 16 b1 0b 2a
        E 32 b1 0b 22
        E 16 b1 0b 11
        E 64 b1 0b 44
        E 16 b1 0b 4c
        E 16 b1 0b 2a
        E 32 b1 0b 22
        E 16 b1 0b 11
        E 64 b1 0b 44
        E 16 b1 0b 4c
        E 16 b1 0b 2a
        E 32 b1 0b 22
        E 16 b1 0b 11
        E 64 b1 0b 44
        E 16 b1 0b 4c
        E 16 b1 0b 2a
        E 32 b1 0b 22
        E 16 b1 0b 11
        E 64 b1 0b 44
        E 16 b1 0b 4c
        E 16 b1 0b 2a
        E 32 b1 0b 22
        E 16 b1 0b 11
        E 64 b1 0b 44
        E 16 b1 0b 4c
        E 16 b1 0b 2a
        E 32 b1 0b 22
        E 16 b1 0b 11
        E 64 b1 0b 44
        E 16 b1 0b 4c
        E 16 b1 0b 2a
        E 32 b1 0b 22
        E 16 b1 0b 11
        E 64 b1 0b 44
        E 16 b1 0b 4c
        E 16 b1 0b 2a
        E 32 b1 0b 22
        E 16 81 3c 00
        E 0 b1 7b 00
        E 0 ff 2f 00
      >
    >
  >
  <TRACK {A6CE5A24-5CE9-42B3-B054-1248F10CAA15}
    NAME "NES - Triangle [ch2]"
    PEAKCOL 16744192
    BEAT -1
    AUTOMODE 0
    PANLAWFLAGS 3
    VOLPAN 1 0 -1 -1 1
    MUTESOLO 0 0 0
    IPHASE 0
    PLAYOFFS 0 1
    ISBUS 0 0
    BUSCOMP 0 0 0 0 0
    SHOWINMIX 1 0.6667 0.5 1 0.5 0 0 0
    FIXEDLANES 9 0 0 0 0
    SEL 0
    REC 0 5088 1 0 0 0 0 0
    VU 2
    TRACKHEIGHT 0 0 0 0 0 0 0
    INQ 0 0 0 0.5 100 0 0 100
    NCHAN 2
    FX 1
    TRACKID {A6CE5A24-5CE9-42B3-B054-1248F10CAA15}
    PERF 0
    MIDIOUT -1
    MAINSEND 1 0
    <FXCHAIN
      WNDRECT 24 52 700 560
      SHOW 0
      LASTSEL 0
      DOCKED 0
      BYPASS 0 0 0
      <JS "ReapNES Studio/ReapNES_Console.jsfx" ""
        2 15 1 10 80 10 100 2 1 15 1 5 60 10 80 1 1 0 50 0 0 15 1 0 100 0 0 0.500000 0.500000 0.400000 0.300000 0.800000 2 1 0 0 0 0 - - - - - - - - - - - - - - - - - - - - - - - - - -
      >
      FLOATPOS 0 0 0 0
      FXID {3A6255F9-CF28-4F94-A3CF-716C8A340D79}
      WAK 0 0
    >
    <ITEM
      POSITION 0
      LENGTH 71.57076420000001
      LOOP 0
      ALLTAKES 0
      FADEIN 0 0 0 0 0 0 0
      FADEOUT 0 0 0 0 0 0 0
      MUTE 0 0
      SEL 0
      IGUID {F58FF088-05EC-4C4D-AE45-3BB0A2D995E8}
      <SOURCE MIDI
        HASDATA 1 480 QN
        CCINTERP 32
        E 0 c2 26
        E 0 b2 0b 7f
        E 0 92 24 7f
        E 544 82 24 00
        E 32 b2 0b 7f
        E 0 92 24 7f
        E 112 82 24 00
        E 32 b2 0b 7f
        E 0 92 24 7f
        E 400 82 24 00
        E 32 b2 0b 7f
        E 0 92 25 7f
        E 544 82 25 00
        E 32 b2 0b 7f
        E 0 92 25 7f
        E 112 82 25 00
        E 32 b2 0b 7f
        E 0 92 25 7f
        E 400 82 25 00
        E 32 b2 0b 7f
        E 0 92 27 7f
        E 544 82 27 00
        E 32 b2 0b 7f
        E 0 92 27 7f
        E 112 82 27 00
        E 32 b2 0b 7f
        E 0 92 27 7f
        E 400 82 27 00
        E 32 b2 0b 7f
        E 0 92 24 7f
        E 112 82 24 00
        E 32 b2 0b 7f
        E 0 92 24 7f
        E 112 82 24 00
        E 32 b2 0b 7f
        E 0 92 22 7f
        E 112 82 22 00
        E 32 b2 0b 7f
        E 0 92 24 7f
        E 112 82 24 00
        E 176 b2 0b 7f
        E 0 92 27 7f
        E 112 82 27 00
        E 32 b2 0b 7f
        E 0 92 24 7f
        E 112 82 24 00
        E 32 b2 0b 7f
        E 0 92 2b 7f
        E 112 82 2b 00
        E 32 b2 0b 7f
        E 0 92 29 7f
        E 112 82 29 00
        E 32 b2 0b 7f
        E 0 92 29 7f
        E 112 82 29 00
        E 32 b2 0b 7f
        E 0 92 24 7f
        E 112 82 24 00
        E 32 b2 0b 7f
        E 0 92 29 7f
        E 112 82 29 00
        E 176 b2 0b 7f
        E 0 92 29 7f
        E 112 82 29 00
        E 32 b2 0b 7f
        E 0 92 24 7f
        E 112 82 24 00
        E 32 b2 0b 7f
        E 0 92 29 7f
        E 112 82 29 00
        E 32 b2 0b 7f
        E 0 92 27 7f
        E 112 82 27 00
        E 32 b2 0b 7f
        E 0 92 27 7f
        E 112 82 27 00
        E 32 b2 0b 7f
        E 0 92 22 7f
        E 112 82 22 00
        E 32 b2 0b 7f
        E 0 92 27 7f
        E 112 82 27 00
        E 176 b2 0b 7f
        E 0 92 27 7f
        E 112 82 27 00
        E 32 b2 0b 7f
        E 0 92 22 7f
        E 112 82 22 00
        E 32 b2 0b 7f
        E 0 92 27 7f
        E 112 82 27 00
        E 32 b2 0b 7f
        E 0 92 25 7f
        E 112 82 25 00
        E 32 b2 0b 7f
        E 0 92 25 7f
        E 112 82 25 00
        E 32 b2 0b 7f
        E 0 92 20 7f
        E 112 82 20 00
        E 32 b2 0b 7f
        E 0 92 25 7f
        E 112 82 25 00
        E 176 b2 0b 7f
        E 0 92 25 7f
        E 112 82 25 00
        E 32 b2 0b 7f
        E 0 92 20 7f
        E 112 82 20 00
        E 32 b2 0b 7f
        E 0 92 25 7f
        E 112 82 25 00
        E 32 b2 0b 7f
        E 0 92 24 7f
        E 112 82 24 00
        E 32 b2 0b 7f
        E 0 92 24 7f
        E 112 82 24 00
        E 32 b2 0b 7f
        E 0 92 22 7f
        E 112 82 22 00
        E 32 b2 0b 7f
        E 0 92 24 7f
        E 112 82 24 00
        E 176 b2 0b 7f
        E 0 92 27 7f
        E 112 82 27 00
        E 32 b2 0b 7f
        E 0 92 24 7f
        E 112 82 24 00
        E 32 b2 0b 7f
        E 0 92 2b 7f
        E 112 82 2b 00
        E 32 b2 0b 7f
        E 0 92 29 7f
        E 112 82 29 00
        E 32 b2 0b 7f
        E 0 92 29 7f
        E 112 82 29 00
        E 32 b2 0b 7f
        E 0 92 24 7f
        E 112 82 24 00
        E 32 b2 0b 7f
        E 0 92 29 7f
        E 112 82 29 00
        E 176 b2 0b 7f
        E 0 92 29 7f
        E 112 82 29 00
        E 32 b2 0b 7f
        E 0 92 24 7f
        E 112 82 24 00
        E 32 b2 0b 7f
        E 0 92 29 7f
        E 112 82 29 00
        E 32 b2 0b 7f
        E 0 92 27 7f
        E 112 82 27 00
        E 32 b2 0b 7f
        E 0 92 27 7f
        E 112 82 27 00
        E 32 b2 0b 7f
        E 0 92 22 7f
        E 112 82 22 00
        E 32 b2 0b 7f
        E 0 92 27 7f
        E 112 82 27 00
        E 176 b2 0b 7f
        E 0 92 27 7f
        E 112 82 27 00
        E 32 b2 0b 7f
        E 0 92 22 7f
        E 112 82 22 00
        E 32 b2 0b 7f
        E 0 92 27 7f
        E 112 82 27 00
        E 32 b2 0b 7f
        E 0 92 25 7f
        E 112 82 25 00
        E 32 b2 0b 7f
        E 0 92 25 7f
        E 112 82 25 00
        E 32 b2 0b 7f
        E 0 92 20 7f
        E 112 82 20 00
        E 32 b2 0b 7f
        E 0 92 25 7f
        E 112 82 25 00
        E 176 b2 0b 7f
        E 0 92 25 7f
        E 112 82 25 00
        E 32 b2 0b 7f
        E 0 92 20 7f
        E 112 82 20 00
        E 32 b2 0b 7f
        E 0 92 25 7f
        E 112 82 25 00
        E 32 b2 0b 7f
        E 0 92 24 7f
        E 112 82 24 00
        E 32 b2 0b 7f
        E 0 92 24 7f
        E 112 82 24 00
        E 32 b2 0b 7f
        E 0 92 22 7f
        E 112 82 22 00
        E 32 b2 0b 7f
        E 0 92 24 7f
        E 112 82 24 00
        E 176 b2 0b 7f
        E 0 92 27 7f
        E 112 82 27 00
        E 32 b2 0b 7f
        E 0 92 24 7f
        E 112 82 24 00
        E 32 b2 0b 7f
        E 0 92 2b 7f
        E 112 82 2b 00
        E 32 b2 0b 7f
        E 0 92 29 7f
        E 544 82 29 00
        E 32 b2 0b 7f
        E 0 92 29 7f
        E 112 82 29 00
        E 32 b2 0b 7f
        E 0 92 29 7f
        E 400 82 29 00
        E 32 b2 0b 7f
        E 0 92 27 7f
        E 544 82 27 00
        E 32 b2 0b 7f
        E 0 92 27 7f
        E 112 82 27 00
        E 32 b2 0b 7f
        E 0 92 27 7f
        E 400 82 27 00
        E 32 b2 0b 7f
        E 0 92 25 7f
        E 544 82 25 00
        E 32 b2 0b 7f
        E 0 92 25 7f
        E 112 82 25 00
        E 32 b2 0b 7f
        E 0 92 25 7f
        E 400 82 25 00
        E 32 b2 0b 7f
        E 0 92 24 7f
        E 112 82 24 00
        E 32 b2 0b 7f
        E 0 92 24 7f
        E 112 82 24 00
        E 32 b2 0b 7f
        E 0 92 22 7f
        E 112 82 22 00
        E 32 b2 0b 7f
        E 0 92 24 7f
        E 112 82 24 00
        E 176 b2 0b 7f
        E 0 92 27 7f
        E 112 82 27 00
        E 32 b2 0b 7f
        E 0 92 24 7f
        E 112 82 24 00
        E 32 b2 0b 7f
        E 0 92 2b 7f
        E 112 82 2b 00
        E 32 b2 0b 7f
        E 0 92 29 7f
        E 112 82 29 00
        E 32 b2 0b 7f
        E 0 92 29 7f
        E 112 82 29 00
        E 32 b2 0b 7f
        E 0 92 27 7f
        E 112 82 27 00
        E 32 b2 0b 7f
        E 0 92 29 7f
        E 112 82 29 00
        E 176 b2 0b 7f
        E 0 92 27 7f
        E 112 82 27 00
        E 176 b2 0b 7f
        E 0 92 27 7f
        E 256 82 27 00
        E 32 b2 0b 7f
        E 0 92 29 7f
        E 112 82 29 00
        E 32 b2 0b 7f
        E 0 92 29 7f
        E 544 82 29 00
        E 49968 b2 0b 7f
        E 0 92 24 7f
        E 544 82 24 00
        E 32 b2 0b 7f
        E 0 92 24 7f
        E 112 82 24 00
        E 32 b2 0b 7f
        E 0 92 24 7f
        E 400 82 24 00
        E 32 b2 0b 7f
        E 0 92 25 7f
        E 544 82 25 00
        E 32 b2 0b 7f
        E 0 92 25 7f
        E 112 82 25 00
        E 32 b2 0b 7f
        E 0 92 25 7f
        E 400 82 25 00
        E 32 b2 0b 7f
        E 0 92 27 7f
        E 544 82 27 00
        E 32 b2 0b 7f
        E 0 92 27 7f
        E 112 82 27 00
        E 32 b2 0b 7f
        E 0 92 27 7f
        E 224 82 27 00
        E 0 b2 7b 00
        E 0 ff 2f 00
      >
    >
  >
  <TRACK {75E0C88C-4667-4D7F-9901-BAFE16D6AC8B}
    NAME "NES - Noise / Drums [ch3]"
    PEAKCOL 11184810
    BEAT -1
    AUTOMODE 0
    PANLAWFLAGS 3
    VOLPAN 1 0 -1 -1 1
    MUTESOLO 0 0 0
    IPHASE 0
    PLAYOFFS 0 1
    ISBUS 0 0
    BUSCOMP 0 0 0 0 0
    SHOWINMIX 1 0.6667 0.5 1 0.5 0 0 0
    FIXEDLANES 9 0 0 0 0
    SEL 0
    REC 0 5088 1 0 0 0 0 0
    VU 2
    TRACKHEIGHT 0 0 0 0 0 0 0
    INQ 0 0 0 0.5 100 0 0 100
    NCHAN 2
    FX 1
    TRACKID {75E0C88C-4667-4D7F-9901-BAFE16D6AC8B}
    PERF 0
    MIDIOUT -1
    MAINSEND 1 0
    <FXCHAIN
      WNDRECT 24 52 700 560
      SHOW 0
      LASTSEL 0
      DOCKED 0
      BYPASS 0 0 0
      <JS "ReapNES Studio/ReapNES_Console.jsfx" ""
        2 15 1 10 80 10 100 2 1 15 1 5 60 10 80 1 1 0 50 0 0 15 1 0 100 0 0 0.500000 0.500000 0.400000 0.300000 0.800000 3 1 0 0 0 0 - - - - - - - - - - - - - - - - - - - - - - - - - -
      >
      FLOATPOS 0 0 0 0
      FXID {892FFC4E-A1D5-4F20-94B2-A849E1A8A31E}
      WAK 0 0
    >
    <ITEM
      POSITION 0
      LENGTH 71.57076420000001
      LOOP 0
      ALLTAKES 0
      FADEIN 0 0 0 0 0 0 0
      FADEOUT 0 0 0 0 0 0 0
      MUTE 0 0
      SEL 0
      IGUID {ECE7C715-A4A3-4D80-90F9-30A2A3B063DF}
      <SOURCE MIDI
        HASDATA 1 480 QN
        CCINTERP 32
        E 0 93 2a 7f
        E 16 83 2a 00
        E 0 93 2a 55
        E 16 83 2a 00
        E 0 93 2a 19
        E 32 83 2a 00
        E 224 93 2a 55
        E 16 83 2a 00
        E 0 93 2a 33
        E 16 83 2a 00
        E 0 93 2a 19
        E 16 83 2a 00
        E 240 93 2a 5d
        E 16 83 2a 00
        E 0 93 2a 5d
        E 16 83 2a 00
        E 0 93 2a 2a
        E 112 83 2a 00
        E 0 93 2a 5d
        E 16 83 2a 00
        E 0 93 2a 5d
        E 16 83 2a 00
        E 0 93 2a 2a
        E 256 83 2a 00
        E 144 93 2a 7f
        E 16 83 2a 00
        E 0 93 2a 55
        E 16 83 2a 00
        E 0 93 2a 19
        E 32 83 2a 00
        E 224 93 2a 55
        E 16 83 2a 00
        E 0 93 2a 33
        E 16 83 2a 00
        E 0 93 2a 19
        E 16 83 2a 00
        E 240 93 2a 5d
        E 16 83 2a 00
        E 0 93 2a 5d
        E 16 83 2a 00
        E 0 93 2a 2a
        E 112 83 2a 00
        E 0 93 2a 5d
        E 16 83 2a 00
        E 0 93 2a 5d
        E 16 83 2a 00
        E 0 93 2a 2a
        E 256 83 2a 00
        E 144 93 2a 7f
        E 16 83 2a 00
        E 0 93 2a 55
        E 16 83 2a 00
        E 0 93 2a 19
        E 32 83 2a 00
        E 224 93 2a 55
        E 16 83 2a 00
        E 0 93 2a 33
        E 16 83 2a 00
        E 0 93 2a 19
        E 16 83 2a 00
        E 240 93 2a 5d
        E 16 83 2a 00
        E 0 93 2a 5d
        E 16 83 2a 00
        E 0 93 2a 2a
        E 112 83 2a 00
        E 0 93 2a 5d
        E 16 83 2a 00
        E 0 93 2a 5d
        E 16 83 2a 00
        E 0 93 2a 2a
        E 256 83 2a 00
        E 144 93 2a 5d
        E 16 83 2a 00
        E 0 93 2a 5d
        E 16 83 2a 00
        E 0 93 2a 2a
        E 112 83 2a 00
        E 0 93 2a 5d
        E 16 83 2a 00
        E 0 93 2a 5d
        E 16 83 2a 00
        E 0 93 2a 2a
        E 112 83 2a 00
        E 0 93 2a 7f
        E 16 83 2a 00
        E 0 93 2a 55
        E 16 83 2a 00
        E 0 93 2a 19
        E 32 83 2a 00
        E 80 93 2a 5d
        E 16 83 2a 00
        E 0 93 2a 5d
        E 16 83 2a 00
        E 0 93 2a 2a
        E 112 83 2a 00
        E 0 93 2a 7f
        E 16 83 2a 00
        E 0 93 2a 55
        E 16 83 2a 00
        E 0 93 2a 19
        E 32 83 2a 00
        E 80 93 2a 77
        E 16 83 2a 00
        E 0 93 2a 6e
        E 16 83 2a 00
        E 0 93 2a 66
        E 256 83 2a 00
        E 0 93 2a 7f
        E 16 83 2a 00
        E 0 93 2a 55
        E 16 83 2a 00
        E 0 93 2a 19
        E 32 83 2a 00
        E 80 93 2a 7f
        E 16 83 2a 00
        E 0 93 2a 55
        E 16 83 2a 00
        E 0 93 2a 19
        E 32 83 2a 00
        E 80 93 2a 55
        E 16 83 2a 00
        E 0 93 2a 33
        E 16 83 2a 00
        E 0 93 2a 19
        E 16 83 2a 00
        E 96 93 2a 5d
        E 16 83 2a 00
        E 0 93 2a 5d
        E 16 83 2a 00
        E 0 93 2a 2a
        E 112 83 2a 00
        E 0 93 2a 55
        E 16 83 2a 00
        E 0 93 2a 33
        E 16 83 2a 00
        E 0 93 2a 19
        E 16 83 2a 00
        E 96 93 2a 7f
        E 16 83 2a 00
        E 0 93 2a 55
        E 16 83 2a 00
        E 0 93 2a 19
        E 32 83 2a 00
        E 80 93 2a 7f
        E 16 83 2a 00
        E 0 93 2a 55
        E 16 83 2a 00
        E 0 93 2a 19
        E 32 83 2a 00
        E 80 93 2a 5d
        E 16 83 2a 00
        E 0 93 2a 5d
        E 16 83 2a 00
        E 0 93 2a 2a
        E 112 83 2a 00
        E 0 93 2a 55
        E 16 83 2a 00
        E 0 93 2a 33
        E 16 83 2a 00
        E 0 93 2a 19
        E 16 83 2a 00
        E 96 93 2a 7f
        E 16 83 2a 00
        E 0 93 2a 55
        E 16 83 2a 00
        E 0 93 2a 19
        E 32 83 2a 00
        E 80 93 2a 55
        E 16 83 2a 00
        E 0 93 2a 33
        E 16 83 2a 00
        E 0 93 2a 19
        E 16 83 2a 00
        E 96 93 2a 5d
        E 16 83 2a 00
        E 0 93 2a 5d
        E 16 83 2a 00
        E 0 93 2a 2a
        E 112 83 2a 00
        E 0 93 2a 55
        E 16 83 2a 00
        E 0 93 2a 33
        E 16 83 2a 00
        E 0 93 2a 19
        E 16 83 2a 00
        E 96 93 2a 7f
        E 16 83 2a 00
        E 0 93 2a 55
        E 16 83 2a 00
        E 0 93 2a 19
        E 32 83 2a 00
        E 80 93 2a 7f
        E 16 83 2a 00
        E 0 93 2a 55
        E 16 83 2a 00
        E 0 93 2a 19
        E 32 83 2a 00
        E 80 93 2a 5d
        E 16 83 2a 00
        E 0 93 2a 5d
        E 16 83 2a 00
        E 0 93 2a 2a
        E 112 83 2a 00
        E 0 93 2a 55
        E 16 83 2a 00
        E 0 93 2a 33
        E 16 83 2a 00
        E 0 93 2a 19
        E 16 83 2a 00
        E 96 93 2a 7f
        E 16 83 2a 00
        E 0 93 2a 55
        E 16 83 2a 00
        E 0 93 2a 19
        E 32 83 2a 00
        E 80 93 2a 55
        E 16 83 2a 00
        E 0 93 2a 33
        E 16 83 2a 00
        E 0 93 2a 19
        E 16 83 2a 00
        E 96 93 2a 5d
        E 16 83 2a 00
        E 0 93 2a 5d
        E 16 83 2a 00
        E 0 93 2a 2a
        E 112 83 2a 00
        E 0 93 2a 55
        E 16 83 2a 00
        E 0 93 2a 33
        E 16 83 2a 00
        E 0 93 2a 19
        E 16 83 2a 00
        E 96 93 2a 7f
        E 16 83 2a 00
        E 0 93 2a 55
        E 16 83 2a 00
        E 0 93 2a 19
        E 32 83 2a 00
        E 80 93 2a 7f
        E 16 83 2a 00
        E 0 93 2a 55
        E 16 83 2a 00
        E 0 93 2a 19
        E 32 83 2a 00
        E 80 93 2a 5d
        E 16 83 2a 00
        E 0 93 2a 5d
        E 16 83 2a 00
        E 0 93 2a 2a
        E 112 83 2a 00
        E 0 93 2a 55
        E 16 83 2a 00
        E 0 93 2a 33
        E 16 83 2a 00
        E 0 93 2a 19
        E 16 83 2a 00
        E 96 93 2a 5d
        E 16 83 2a 00
        E 0 93 2a 5d
        E 16 83 2a 00
        E 0 93 2a 2a
        E 112 83 2a 00
        E 0 93 2a 55
        E 16 83 2a 00
        E 0 93 2a 33
        E 16 83 2a 00
        E 0 93 2a 19
        E 16 83 2a 00
        E 96 93 2a 5d
        E 16 83 2a 00
        E 0 93 2a 5d
        E 16 83 2a 00
        E 0 93 2a 2a
        E 112 83 2a 00
        E 0 93 2a 55
        E 16 83 2a 00
        E 0 93 2a 33
        E 16 83 2a 00
        E 0 93 2a 19
        E 16 83 2a 00
        E 96 93 2a 5d
        E 16 83 2a 00
        E 0 93 2a 5d
        E 16 83 2a 00
        E 0 93 2a 2a
        E 112 83 2a 00
        E 0 93 2a 5d
        E 16 83 2a 00
        E 0 93 2a 5d
        E 16 83 2a 00
        E 0 93 2a 2a
        E 112 83 2a 00
        E 0 93 2a 7f
        E 16 83 2a 00
        E 0 93 2a 55
        E 16 83 2a 00
        E 0 93 2a 19
        E 32 83 2a 00
        E 80 93 2a 5d
        E 16 83 2a 00
        E 0 93 2a 5d
        E 16 83 2a 00
        E 0 93 2a 2a
        E 112 83 2a 00
        E 0 93 2a 7f
        E 16 83 2a 00
        E 0 93 2a 55
        E 16 83 2a 00
        E 0 93 2a 19
        E 32 83 2a 00
        E 80 93 2a 55
        E 16 83 2a 00
        E 0 93 2a 33
        E 16 83 2a 00
        E 0 93 2a 19
        E 16 83 2a 00
        E 96 93 2a 5d
        E 16 83 2a 00
        E 0 93 2a 5d
        E 16 83 2a 00
        E 0 93 2a 2a
        E 112 83 2a 00
        E 0 93 2a 55
        E 16 83 2a 00
        E 0 93 2a 33
        E 16 83 2a 00
        E 0 93 2a 19
        E 16 83 2a 00
        E 96 93 2a 7f
        E 16 83 2a 00
        E 0 93 2a 55
        E 16 83 2a 00
        E 0 93 2a 19
        E 32 83 2a 00
        E 80 93 2a 7f
        E 16 83 2a 00
        E 0 93 2a 55
        E 16 83 2a 00
        E 0 93 2a 19
        E 32 83 2a 00
        E 80 93 2a 5d
        E 16 83 2a 00
        E 0 93 2a 5d
        E 16 83 2a 00
        E 0 93 2a 2a
        E 112 83 2a 00
        E 0 93 2a 55
        E 16 83 2a 00
        E 0 93 2a 33
        E 16 83 2a 00
        E 0 93 2a 19
        E 16 83 2a 00
        E 96 93 2a 7f
        E 16 83 2a 00
        E 0 93 2a 55
        E 16 83 2a 00
        E 0 93 2a 19
        E 32 83 2a 00
        E 80 93 2a 55
        E 16 83 2a 00
        E 0 93 2a 33
        E 16 83 2a 00
        E 0 93 2a 19
        E 16 83 2a 00
        E 96 93 2a 5d
        E 16 83 2a 00
        E 0 93 2a 5d
        E 16 83 2a 00
        E 0 93 2a 2a
        E 112 83 2a 00
        E 0 93 2a 55
        E 16 83 2a 00
        E 0 93 2a 33
        E 16 83 2a 00
        E 0 93 2a 19
        E 16 83 2a 00
        E 96 93 2a 7f
        E 16 83 2a 00
        E 0 93 2a 55
        E 16 83 2a 00
        E 0 93 2a 19
        E 32 83 2a 00
        E 80 93 2a 7f
        E 16 83 2a 00
        E 0 93 2a 55
        E 16 83 2a 00
        E 0 93 2a 19
        E 32 83 2a 00
        E 80 93 2a 5d
        E 16 83 2a 00
        E 0 93 2a 5d
        E 16 83 2a 00
        E 0 93 2a 2a
        E 112 83 2a 00
        E 0 93 2a 55
        E 16 83 2a 00
        E 0 93 2a 33
        E 16 83 2a 00
        E 0 93 2a 19
        E 16 83 2a 00
        E 96 93 2a 7f
        E 16 83 2a 00
        E 0 93 2a 55
        E 16 83 2a 00
        E 0 93 2a 19
        E 32 83 2a 00
        E 80 93 2a 55
        E 16 83 2a 00
        E 0 93 2a 33
        E 16 83 2a 00
        E 0 93 2a 19
        E 16 83 2a 00
        E 96 93 2a 5d
        E 16 83 2a 00
        E 0 93 2a 5d
        E 16 83 2a 00
        E 0 93 2a 2a
        E 112 83 2a 00
        E 0 93 2a 55
        E 16 83 2a 00
        E 0 93 2a 33
        E 16 83 2a 00
        E 0 93 2a 19
        E 16 83 2a 00
        E 96 93 2a 7f
        E 16 83 2a 00
        E 0 93 2a 55
        E 16 83 2a 00
        E 0 93 2a 19
        E 32 83 2a 00
        E 80 93 2a 7f
        E 16 83 2a 00
        E 0 93 2a 55
        E 16 83 2a 00
        E 0 93 2a 19
        E 32 83 2a 00
        E 80 93 2a 5d
        E 16 83 2a 00
        E 0 93 2a 5d
        E 16 83 2a 00
        E 0 93 2a 2a
        E 112 83 2a 00
        E 0 93 2a 55
        E 16 83 2a 00
        E 0 93 2a 33
        E 16 83 2a 00
        E 0 93 2a 19
        E 16 83 2a 00
        E 96 93 2a 5d
        E 16 83 2a 00
        E 0 93 2a 5d
        E 16 83 2a 00
        E 0 93 2a 2a
        E 112 83 2a 00
        E 0 93 2a 55
        E 16 83 2a 00
        E 0 93 2a 33
        E 16 83 2a 00
        E 0 93 2a 19
        E 16 83 2a 00
        E 96 93 2a 5d
        E 16 83 2a 00
        E 0 93 2a 5d
        E 16 83 2a 00
        E 0 93 2a 2a
        E 112 83 2a 00
        E 0 93 2a 55
        E 16 83 2a 00
        E 0 93 2a 33
        E 16 83 2a 00
        E 0 93 2a 19
        E 16 83 2a 00
        E 96 93 2a 5d
        E 16 83 2a 00
        E 0 93 2a 5d
        E 16 83 2a 00
        E 0 93 2a 2a
        E 112 83 2a 00
        E 0 93 2a 5d
        E 16 83 2a 00
        E 0 93 2a 5d
        E 16 83 2a 00
        E 0 93 2a 2a
        E 112 83 2a 00
        E 0 93 2a 7f
        E 16 83 2a 00
        E 0 93 2a 55
        E 16 83 2a 00
        E 0 93 2a 19
        E 32 83 2a 00
        E 80 93 2a 5d
        E 16 83 2a 00
        E 0 93 2a 5d
        E 16 83 2a 00
        E 0 93 2a 2a
        E 112 83 2a 00
        E 0 93 2a 7f
        E 16 83 2a 00
        E 0 93 2a 55
        E 16 83 2a 00
        E 0 93 2a 19
        E 32 83 2a 00
        E 80 93 2a 55
        E 16 83 2a 00
        E 0 93 2a 33
        E 16 83 2a 00
        E 0 93 2a 19
        E 16 83 2a 00
        E 96 93 2a 6e
        E 16 83 2a 00
        E 0 93 2a 4c
        E 16 83 2a 00
        E 0 93 2a 22
        E 16 83 2a 00
        E 96 93 2a 55
        E 16 83 2a 00
        E 0 93 2a 33
        E 16 83 2a 00
        E 0 93 2a 19
        E 16 83 2a 00
        E 96 93 2a 5d
        E 16 83 2a 00
        E 0 93 2a 5d
        E 16 83 2a 00
        E 0 93 2a 2a
        E 112 83 2a 00
        E 0 93 2a 5d
        E 16 83 2a 00
        E 0 93 2a 5d
        E 16 83 2a 00
        E 0 93 2a 2a
        E 256 83 2a 00
        E 0 93 2a 55
        E 16 83 2a 00
        E 0 93 2a 33
        E 16 83 2a 00
        E 0 93 2a 19
        E 16 83 2a 00
        E 96 93 2a 7f
        E 16 83 2a 00
        E 0 93 2a 55
        E 16 83 2a 00
        E 0 93 2a 19
        E 32 83 2a 00
        E 80 93 2a 55
        E 16 83 2a 00
        E 0 93 2a 33
        E 16 83 2a 00
        E 0 93 2a 19
        E 16 83 2a 00
        E 96 93 2a 6e
        E 16 83 2a 00
        E 0 93 2a 4c
        E 16 83 2a 00
        E 0 93 2a 22
        E 16 83 2a 00
        E 96 93 2a 55
        E 16 83 2a 00
        E 0 93 2a 33
        E 16 83 2a 00
        E 0 93 2a 19
        E 16 83 2a 00
        E 96 93 2a 5d
        E 16 83 2a 00
        E 0 93 2a 5d
        E 16 83 2a 00
        E 0 93 2a 2a
        E 112 83 2a 00
        E 0 93 2a 5d
        E 16 83 2a 00
        E 0 93 2a 5d
        E 16 83 2a 00
        E 0 93 2a 2a
        E 256 83 2a 00
        E 0 93 2a 55
        E 16 83 2a 00
        E 0 93 2a 33
        E 16 83 2a 00
        E 0 93 2a 19
        E 16 83 2a 00
        E 96 93 2a 7f
        E 16 83 2a 00
        E 0 93 2a 55
        E 16 83 2a 00
        E 0 93 2a 19
        E 32 83 2a 00
        E 80 93 2a 55
        E 16 83 2a 00
        E 0 93 2a 33
        E 16 83 2a 00
        E 0 93 2a 19
        E 16 83 2a 00
        E 96 93 2a 6e
        E 16 83 2a 00
        E 0 93 2a 4c
        E 16 83 2a 00
        E 0 93 2a 22
        E 16 83 2a 00
        E 96 93 2a 55
        E 16 83 2a 00
        E 0 93 2a 33
        E 16 83 2a 00
        E 0 93 2a 19
        E 16 83 2a 00
        E 96 93 2a 5d
        E 16 83 2a 00
        E 0 93 2a 5d
        E 16 83 2a 00
        E 0 93 2a 2a
        E 112 83 2a 00
        E 0 93 2a 5d
        E 16 83 2a 00
        E 0 93 2a 5d
        E 16 83 2a 00
        E 0 93 2a 2a
        E 256 83 2a 00
        E 0 93 2a 55
        E 16 83 2a 00
        E 0 93 2a 33
        E 16 83 2a 00
        E 0 93 2a 19
        E 16 83 2a 00
        E 96 93 2a 5d
        E 16 83 2a 00
        E 0 93 2a 5d
        E 16 83 2a 00
        E 0 93 2a 2a
        E 112 83 2a 00
        E 0 93 2a 5d
        E 16 83 2a 00
        E 0 93 2a 5d
        E 16 83 2a 00
        E 0 93 2a 2a
        E 112 83 2a 00
        E 0 93 2a 7f
        E 16 83 2a 00
        E 0 93 2a 55
        E 16 83 2a 00
        E 0 93 2a 19
        E 32 83 2a 00
        E 80 93 2a 5d
        E 16 83 2a 00
        E 0 93 2a 5d
        E 16 83 2a 00
        E 0 93 2a 2a
        E 112 83 2a 00
        E 0 93 2a 55
        E 16 83 2a 00
        E 0 93 2a 33
        E 16 83 2a 00
        E 0 93 2a 19
        E 16 83 2a 00
        E 96 93 2a 5d
        E 16 83 2a 00
        E 0 93 2a 5d
        E 16 83 2a 00
        E 0 93 2a 2a
        E 112 83 2a 00
        E 0 93 2a 55
        E 16 83 2a 00
        E 0 93 2a 33
        E 16 83 2a 00
        E 0 93 2a 19
        E 16 83 2a 00
        E 96 93 2a 5d
        E 16 83 2a 00
        E 0 93 2a 5d
        E 16 83 2a 00
        E 0 93 2a 2a
        E 112 83 2a 00
        E 0 93 2a 5d
        E 16 83 2a 00
        E 0 93 2a 5d
        E 16 83 2a 00
        E 0 93 2a 2a
        E 112 83 2a 00
        E 0 93 2a 5d
        E 16 83 2a 00
        E 0 93 2a 5d
        E 16 83 2a 00
        E 0 93 2a 2a
        E 112 83 2a 00
        E 0 93 2a 5d
        E 16 83 2a 00
        E 0 93 2a 5d
        E 16 83 2a 00
        E 0 93 2a 2a
        E 112 83 2a 00
        E 0 93 2a 5d
        E 16 83 2a 00
        E 0 93 2a 5d
        E 16 83 2a 00
        E 0 93 2a 2a
        E 112 83 2a 00
        E 0 93 2a 55
        E 16 83 2a 00
        E 0 93 2a 33
        E 16 83 2a 00
        E 0 93 2a 19
        E 16 83 2a 00
        E 96 93 2a 5d
        E 16 83 2a 00
        E 0 93 2a 5d
        E 16 83 2a 00
        E 0 93 2a 2a
        E 112 83 2a 00
        E 0 93 2a 55
        E 16 83 2a 00
        E 0 93 2a 33
        E 16 83 2a 00
        E 0 93 2a 19
        E 16 83 2a 00
        E 96 93 2a 5d
        E 16 83 2a 00
        E 0 93 2a 5d
        E 16 83 2a 00
        E 0 93 2a 2a
        E 256 83 2a 00
        E 0 93 2a 5d
        E 16 83 2a 00
        E 0 93 2a 5d
        E 16 83 2a 00
        E 0 93 2a 2a
        E 112 83 2a 00
        E 0 93 2a 5d
        E 16 83 2a 00
        E 0 93 2a 5d
        E 16 83 2a 00
        E 0 93 2a 2a
        E 256 83 2a 00
        E 50224 93 2a 7f
        E 16 83 2a 00
        E 0 93 2a 55
        E 16 83 2a 00
        E 0 93 2a 19
        E 32 83 2a 00
        E 224 93 2a 55
        E 16 83 2a 00
        E 0 93 2a 33
        E 16 83 2a 00
        E 0 93 2a 19
        E 16 83 2a 00
        E 240 93 2a 5d
        E 16 83 2a 00
        E 0 93 2a 5d
        E 16 83 2a 00
        E 0 93 2a 2a
        E 112 83 2a 00
        E 0 93 2a 5d
        E 16 83 2a 00
        E 0 93 2a 5d
        E 16 83 2a 00
        E 0 93 2a 2a
        E 256 83 2a 00
        E 144 93 2a 7f
        E 16 83 2a 00
        E 0 93 2a 55
        E 16 83 2a 00
        E 0 93 2a 19
        E 32 83 2a 00
        E 224 93 2a 55
        E 16 83 2a 00
        E 0 93 2a 33
        E 16 83 2a 00
        E 0 93 2a 19
        E 16 83 2a 00
        E 240 93 2a 5d
        E 16 83 2a 00
        E 0 93 2a 5d
        E 16 83 2a 00
        E 0 93 2a 2a
        E 112 83 2a 00
        E 0 93 2a 5d
        E 16 83 2a 00
        E 0 93 2a 5d
        E 16 83 2a 00
        E 0 93 2a 2a
        E 256 83 2a 00
        E 144 93 2a 7f
        E 16 83 2a 00
        E 0 93 2a 55
        E 16 83 2a 00
        E 0 93 2a 19
        E 32 83 2a 00
        E 224 93 2a 55
        E 16 83 2a 00
        E 0 93 2a 33
        E 16 83 2a 00
        E 0 93 2a 19
        E 16 83 2a 00
        E 240 93 2a 5d
        E 16 83 2a 00
        E 0 93 2a 5d
        E 16 83 2a 00
        E 0 93 2a 2a
        E 112 83 2a 00
        E 0 93 2a 5d
        E 16 83 2a 00
        E 0 93 2a 5d
        E 16 83 2a 00
        E 0 93 2a 2a
        E 192 83 2a 00
        E 0 b3 7b 00
        E 0 ff 2f 00
      >
    >
  >
>