<REAPER_PROJECT 0.1 "7.27/win64" 1707000000
  <NOTES 0 2
    |ReapNES Studio Project
    |MIDI Import - Tetris_title_rom_v1
  >
  RIPPLE 0
  GROUPOVERRIDE 0 0 0
  AUTOXFADE 129
  ENVATTACH 3
  POOLEDENVATTACH 0
  MIXERUIFLAGS 11 48
  ENVFADESZ10 40
  PEAKGAIN 1
  FEEDBACK 0
  PANLAW 1
  PROJOFFS 0 0 0
  MAXPROJLEN 0 0
  GRID 3199 8 1 8 1 0 0 0
  TIMEMODE 1 5 -1 30 0 0 -1
  VIDEO_CONFIG 0 0 65792
  PANMODE 3
  PANLAWFLAGS 3
  CURSOR 0
  ZOOM 100 0 0
  VZOOMEX 6 0
  USE_REC_CFG 0
  RECMODE 1
  SMPTESYNC 0 30 100 40 1000 300 0 0 1 0 0
  LOOP 0
  LOOPGRAN 0 4
  RECORD_PATH "Media" ""
  <RECORD_CFG
    ZXZhdxgAAQ==
  >
  <APPLYFX_CFG
  >
  RENDER_FILE ""
  RENDER_PATTERN ""
  RENDER_FMT 0 2 0
  RENDER_1X 0
  RENDER_RANGE 1 0 0 18 1000
  RENDER_RESAMPLE 3 0 1
  RENDER_ADDTOPROJ 0
  RENDER_STEMS 0
  RENDER_DITHER 0
  TIMELOCKMODE 1
  TEMPOENVLOCKMODE 1
  ITEMMIX 1
  DEFPITCHMODE 589824 0
  TAKELANE 1
  SAMPLERATE 44100 0 0
  <RENDER_CFG
    ZXZhdxgAAQ==
  >
  LOCK 1
  <METRONOME 6 2
    VOL 0.25 0.125
    BEATLEN 4
    FREQ 1760 880 1
    SAMPLES "" ""
    SPLIGNORE 0 0
    SPLDEF 2 660 "" 0
    SPLDEF 3 440 "" 0
    PATTERN 0 169
    PATTERNSTR ABBB
    MULT 1
  >
  GLOBAL_AUTO -1
  TEMPO 128.59999614200012 4 4
  PLAYRATE 1 0 0.25 4
  SELECTION 0 0
  SELECTION2 0 0
  MASTERAUTOMODE 0
  MASTERTRACKHEIGHT 0 0
  MASTERPEAKCOL 16576
  MASTERMUTESOLO 0
  MASTERTRACKVIEW 0 0.6667 0.5 0.5 0 0 0 0 0 0 0 0 0 0
  MASTERHWOUT 0 0 1 0 0 0 0 -1
  MASTER_NCH 2 2
  MASTER_VOLUME 1 0 -1 -1 1
  MASTER_PANMODE 3
  MASTER_PANLAWFLAGS 3
  MASTER_FX 1
  MASTER_SEL 0
  <MASTERPLAYSPEEDENV
    EGUID {89E8B2D6-0EB9-44E1-B0BD-EBBC2F8A0495}
    ACT 0 -1
    VIS 0 1 1
    LANEHEIGHT 0 0
    ARM 0
    DEFSHAPE 0 -1 -1
  >
  <TEMPOENVEX
    EGUID {E59BE5DA-DB2B-4F25-821C-8C2F4590546F}
    ACT 1 -1
    VIS 1 0 1
    LANEHEIGHT 0 0
    ARM 0
    DEFSHAPE 1 -1 -1
  >
  <PROJBAY
  >
  <TRACK {C87BB8E6-2274-48B6-915F-60B8276D6981}
    NAME "NES - Pulse 1 [ch0]"
    PEAKCOL 16576606
    BEAT -1
    AUTOMODE 0
    PANLAWFLAGS 3
    VOLPAN 1 0 -1 -1 1
    MUTESOLO 0 0 0
    IPHASE 0
    PLAYOFFS 0 1
    ISBUS 0 0
    BUSCOMP 0 0 0 0 0
    SHOWINMIX 1 0.6667 0.5 1 0.5 0 0 0
    FIXEDLANES 9 0 0 0 0
    SEL 1
    REC 1 5088 1 0 0 0 0 0
    VU 2
    TRACKHEIGHT 0 0 0 0 0 0 0
    INQ 0 0 0 0.5 100 0 0 100
    NCHAN 2
    FX 1
    TRACKID {C87BB8E6-2274-48B6-915F-60B8276D6981}
    PERF 0
    MIDIOUT -1
    MAINSEND 1 0
    <FXCHAIN
      WNDRECT 24 52 700 560
      SHOW 0
      LASTSEL 0
      DOCKED 0
      BYPASS 0 0 0
      <JS "ReapNES Studio/ReapNES_Console.jsfx" ""
        2 15 1 10 80 10 100 2 1 15 1 5 60 10 80 1 1 0 50 0 0 15 1 0 100 0 0 0.500000 0.500000 0.400000 0.300000 0.800000 0 1 0 0 0 0 - - - - - - - - - - - - - - - - - - - - - - - - - -
      >
      FLOATPOS 0 0 0 0
      FXID {F94F4DB2-1CDE-4189-8023-6F99A12BCF8E}
      WAK 0 0
    >
    <ITEM
      POSITION 0
      LENGTH 47.807155400000006
      LOOP 0
      ALLTAKES 0
      FADEIN 0 0 0 0 0 0 0
      FADEOUT 0 0 0 0 0 0 0
      MUTE 0 0
      SEL 0
      IGUID {D7D4EC64-17A1-4F0F-AAD9-728E33AE0330}
      <SOURCE MIDI
        HASDATA 1 480 QN
        CCINTERP 32
        E 0 c0 50
        E 0 b0 0c 60
        E 0 b0 0b 4c
        E 0 90 44 4c
        E 48 80 44 00
        E 0 90 45 4c
        E 32 80 45 00
        E 800 b0 0c 40
        E 0 b0 0b 77
        E 0 90 3e 77
        E 176 b0 0b 11
        E 16 b0 0b 77
        E 176 b0 0b 11
        E 64 80 3e 00
        E 2048 b0 0b 7f
        E 0 90 21 7f
        E 192 b0 0b 44
        E 0 80 21 00
        E 0 90 45 44
        E 32 80 45 00
        E 112 b0 0b 77
        E 0 90 3e 77
        E 176 b0 0b 11
        E 16 b0 0b 77
        E 80 b0 0b 44
        E 0 80 3e 00
        E 0 90 45 44
        E 32 80 45 00
        E 224 90 45 44
        E 32 80 45 00
        E 912 b0 0b 7f
        E 0 90 21 7f
        E 160 b0 0b 44
        E 0 80 21 00
        E 0 90 45 44
        E 32 80 45 00
        E 16 b0 0b 77
        E 0 90 3e 77
        E 176 b0 0b 11
        E 16 b0 0b 77
        E 16 b0 0b 44
        E 0 80 3e 00
        E 0 90 45 44
        E 32 80 45 00
        E 480 90 45 44
        E 32 80 45 00
        E 384 90 45 44
        E 32 80 45 00
        E 912 b0 0b 7f
        E 0 90 21 7f
        E 128 b0 0b 44
        E 0 80 21 00
        E 0 90 45 44
        E 32 80 45 00
        E 48 b0 0b 77
        E 0 90 3e 77
        E 176 b0 0b 44
        E 0 80 3e 00
        E 0 90 45 44
        E 32 80 45 00
        E 64 90 45 44
        E 32 80 45 00
        E 976 b0 0b 66
        E 0 90 30 66
        E 80 b0 0b 77
        E 80 b0 0b 5d
        E 80 b0 0b 4c
        E 80 b0 0b 33
        E 80 b0 0b 22
        E 80 b0 0b 19
        E 80 b0 0b 11
        E 80 b0 0b 08
        E 80 80 30 00
        E 480 b0 0b 44
        E 0 90 45 44
        E 32 80 45 00
        E 64 b0 0b 77
        E 0 90 3e 77
        E 160 b0 0b 44
        E 0 80 3e 00
        E 0 90 45 44
        E 32 80 45 00
        E 64 90 45 44
        E 32 80 45 00
        E 64 90 45 44
        E 32 80 45 00
        E 64 90 45 44
        E 32 80 45 00
        E 752 b0 0b 7f
        E 0 90 21 7f
        E 128 b0 0b 44
        E 0 80 21 00
        E 0 90 45 44
        E 32 80 45 00
        E 80 b0 0b 77
        E 0 90 3e 77
        E 144 b0 0b 44
        E 0 80 3e 00
        E 0 90 45 44
        E 32 80 45 00
        E 64 90 45 44
        E 32 80 45 00
        E 64 90 45 44
        E 32 80 45 00
        E 848 b0 0b 7f
        E 0 90 21 7f
        E 192 b0 0b 44
        E 0 80 21 00
        E 0 90 45 44
        E 32 80 45 00
        E 224 90 45 44
        E 32 80 45 00
        E 1456 90 45 44
        E 32 80 45 00
        E 448 b0 0b 7f
        E 0 90 21 7f
        E 240 80 21 00
        E 160 b0 0b 44
        E 0 90 45 44
        E 32 80 45 00
        E 32 b0 0b 77
        E 0 90 3e 77
        E 176 b0 0b 11
        E 16 b0 0b 44
        E 0 80 3e 00
        E 0 90 45 44
        E 32 80 45 00
        E 960 b0 0b 66
        E 0 90 30 66
        E 80 b0 0b 77
        E 80 b0 0b 5d
        E 80 b0 0b 4c
        E 80 b0 0b 33
        E 80 b0 0b 22
        E 80 b0 0b 19
        E 96 b0 0b 11
        E 80 b0 0b 08
        E 80 80 30 00
        E 64 b0 0b 44
        E 0 90 45 44
        E 32 80 45 00
        E 16 b0 0b 77
        E 0 90 3e 77
        E 48 b0 0b 44
        E 0 80 3e 00
        E 0 90 45 44
        E 32 80 45 00
        E 64 90 45 44
        E 32 80 45 00
        E 64 90 45 44
        E 32 80 45 00
        E 912 b0 0b 7f
        E 0 90 21 7f
        E 128 b0 0b 44
        E 0 80 21 00
        E 0 90 45 44
        E 32 80 45 00
        E 368 90 45 44
        E 32 80 45 00
        E 912 b0 0b 66
        E 0 90 30 66
        E 80 b0 0b 77
        E 80 b0 0b 5d
        E 80 b0 0b 4c
        E 80 b0 0b 33
        E 80 b0 0b 22
        E 80 b0 0b 19
        E 80 b0 0b 11
        E 80 b0 0b 08
        E 80 80 30 00
        E 1024 b0 0b 7f
        E 0 90 21 7f
        E 112 b0 0b 44
        E 0 80 21 00
        E 0 90 45 44
        E 32 80 45 00
        E 32 b0 0b 77
        E 0 90 3e 77
        E 176 b0 0b 11
        E 16 b0 0b 44
        E 0 80 3e 00
        E 0 90 45 44
        E 32 80 45 00
        E 304 90 45 44
        E 32 80 45 00
        E 800 b0 0b 66
        E 0 90 30 66
        E 80 b0 0b 77
        E 80 b0 0b 5d
        E 80 b0 0b 4c
        E 80 b0 0b 33
        E 80 b0 0b 22
        E 80 b0 0b 19
        E 80 b0 0b 11
        E 80 b0 0b 08
        E 80 80 30 00
        E 1984 b0 0b 7f
        E 0 90 21 7f
        E 144 b0 0b 44
        E 0 80 21 00
        E 0 90 45 44
        E 32 80 45 00
        E 144 b0 0b 77
        E 0 90 3e 77
        E 80 b0 0b 44
        E 0 80 3e 00
        E 0 90 45 44
        E 32 80 45 00
        E 64 90 45 44
        E 32 80 45 00
        E 64 90 45 44
        E 32 80 45 00
        E 64 90 45 44
        E 32 80 45 00
        E 768 b0 0b 7f
        E 0 90 21 7f
        E 112 b0 0b 44
        E 0 80 21 00
        E 0 90 45 44
        E 32 80 45 00
        E 64 b0 0b 77
        E 0 90 3e 77
        E 272 b0 0b 11
        E 64 80 3e 00
        E 784 b0 0b 77
        E 0 90 3e 77
        E 176 b0 0b 11
        E 64 80 3e 00
        E 656 b0 0b 7f
        E 0 90 21 7f
        E 192 b0 0b 44
        E 0 80 21 00
        E 0 90 45 44
        E 32 80 45 00
        E 272 90 45 44
        E 32 80 45 00
        E 192 b0 0b 77
        E 0 90 3e 77
        E 32 b0 0b 44
        E 0 80 3e 00
        E 0 90 45 44
        E 32 80 45 00
        E 64 90 45 44
        E 32 80 45 00
        E 976 b0 0b 7f
        E 0 90 21 7f
        E 112 b0 0b 44
        E 0 80 21 00
        E 0 90 45 44
        E 32 80 45 00
        E 32 b0 0b 77
        E 0 90 3e 77
        E 176 b0 0b 11
        E 16 b0 0b 44
        E 0 80 3e 00
        E 0 90 45 44
        E 32 80 45 00
        E 64 90 45 44
        E 32 80 45 00
        E 976 b0 0b 7f
        E 0 90 21 7f
        E 240 80 21 00
        E 1040 90 21 7f
        E 240 80 21 00
        E 160 b0 0b 44
        E 0 90 45 44
        E 32 80 45 00
        E 48 b0 0b 77
        E 0 90 3e 77
        E 176 b0 0b 44
        E 0 80 3e 00
        E 0 90 45 44
        E 32 80 45 00
        E 64 90 45 44
        E 32 80 45 00
        E 64 90 45 44
        E 32 80 45 00
        E 64 90 45 44
        E 32 80 45 00
        E 976 b0 0b 7f
        E 0 90 21 7f
        E 128 b0 0b 44
        E 0 80 21 00
        E 0 90 45 44
        E 32 80 45 00
        E 80 b0 0b 77
        E 0 90 3e 77
        E 176 b0 0b 11
        E 64 80 3e 00
        E 240 b0 0b 44
        E 0 90 45 44
        E 32 80 45 00
        E 608 90 45 44
        E 32 80 45 00
        E 736 b0 0b 7f
        E 0 90 21 7f
        E 128 b0 0b 44
        E 0 80 21 00
        E 0 90 45 44
        E 32 80 45 00
        E 1056 b0 0b 7f
        E 0 90 21 7f
        E 240 80 21 00
        E 1472 b0 0b 77
        E 0 90 3e 77
        E 176 b0 0b 11
        E 64 80 3e 00
        E 800 b0 0b 7f
        E 0 90 21 7f
        E 208 b0 0b 44
        E 0 80 21 00
        E 0 90 45 44
        E 32 80 45 00
        E 64 90 45 44
        E 32 80 45 00
        E 288 90 45 44
        E 32 80 45 00
        E 976 b0 0b 7f
        E 0 90 21 7f
        E 240 80 21 00
        E 288 b0 0b 44
        E 0 90 45 44
        E 32 80 45 00
        E 1424 b0 0b 7f
        E 0 90 21 7f
        E 240 80 21 00
        E 784 b0 0b 44
        E 0 90 45 44
        E 32 80 45 00
        E 16 b0 0b 77
        E 0 90 3e 77
        E 176 b0 0b 11
        E 64 80 3e 00
        E 64 b0 0b 44
        E 0 90 45 44
        E 32 80 45 00
        E 880 b0 0b 7f
        E 0 90 21 7f
        E 160 b0 0b 44
        E 0 80 21 00
        E 0 90 45 44
        E 32 80 45 00
        E 32 b0 0b 77
        E 0 90 3e 77
        E 176 b0 0b 11
        E 16 b0 0b 44
        E 0 80 3e 00
        E 0 90 45 44
        E 16 80 45 00
        E 0 b0 7b 00
        E 0 ff 2f 00
      >
    >
  >
  <TRACK {BC902322-367D-4ED9-9E5E-E60898F27C7F}
    NAME "NES - Pulse 2"
    PEAKCOL 10092441
    BEAT -1
    AUTOMODE 0
    PANLAWFLAGS 3
    VOLPAN 1 0 -1 -1 1
    MUTESOLO 0 0 0
    IPHASE 0
    PLAYOFFS 0 1
    ISBUS 0 0
    BUSCOMP 0 0 0 0 0
    SHOWINMIX 1 0.6667 0.5 1 0.5 0 0 0
    FIXEDLANES 9 0 0 0 0
    SEL 0
    REC 0 5088 1 0 0 0 0 0
    VU 2
    TRACKHEIGHT 0 0 0 0 0 0 0
    INQ 0 0 0 0.5 100 0 0 100
    NCHAN 2
    FX 1
    TRACKID {BC902322-367D-4ED9-9E5E-E60898F27C7F}
    PERF 0
    MIDIOUT -1
    MAINSEND 1 0
    <FXCHAIN
      WNDRECT 24 52 700 560
      SHOW 0
      LASTSEL 0
      DOCKED 0
      BYPASS 0 0 0
      <JS "ReapNES Studio/ReapNES_Console.jsfx" ""
        2 15 1 10 80 10 100 2 1 15 1 5 60 10 80 1 1 0 50 0 0 15 1 0 100 0 0 0.500000 0.500000 0.400000 0.300000 0.800000 1 1 0 0 0 0 - - - - - - - - - - - - - - - - - - - - - - - - - -
      >
      FLOATPOS 0 0 0 0
      FXID {EC40D706-7141-4979-AEA4-B2786105BE4D}
      WAK 0 0
    >
  >
  <TRACK {5DBB9EB7-8B6F-4EB0-8048-8C6375FD53D7}
    NAME "NES - Triangle"
    PEAKCOL 16744192
    BEAT -1
    AUTOMODE 0
    PANLAWFLAGS 3
    VOLPAN 1 0 -1 -1 1
    MUTESOLO 0 0 0
    IPHASE 0
    PLAYOFFS 0 1
    ISBUS 0 0
    BUSCOMP 0 0 0 0 0
    SHOWINMIX 1 0.6667 0.5 1 0.5 0 0 0
    FIXEDLANES 9 0 0 0 0
    SEL 0
    REC 0 5088 1 0 0 0 0 0
    VU 2
    TRACKHEIGHT 0 0 0 0 0 0 0
    INQ 0 0 0 0.5 100 0 0 100
    NCHAN 2
    FX 1
    TRACKID {5DBB9EB7-8B6F-4EB0-8048-8C6375FD53D7}
    PERF 0
    MIDIOUT -1
    MAINSEND 1 0
    <FXCHAIN
      WNDRECT 24 52 700 560
      SHOW 0
      LASTSEL 0
      DOCKED 0
      BYPASS 0 0 0
      <JS "ReapNES Studio/ReapNES_Console.jsfx" ""
        2 15 1 10 80 10 100 2 1 15 1 5 60 10 80 1 1 0 50 0 0 15 1 0 100 0 0 0.500000 0.500000 0.400000 0.300000 0.800000 2 1 0 0 0 0 - - - - - - - - - - - - - - - - - - - - - - - - - -
      >
      FLOATPOS 0 0 0 0
      FXID {A8ECA251-E7CC-4BF7-9A11-B3AFF6BCB6CE}
      WAK 0 0
    >
  >
  <TRACK {580982E4-A4A5-4827-8409-BE9362DCB998}
    NAME "NES - Noise / Drums"
    PEAKCOL 11184810
    BEAT -1
    AUTOMODE 0
    PANLAWFLAGS 3
    VOLPAN 1 0 -1 -1 1
    MUTESOLO 0 0 0
    IPHASE 0
    PLAYOFFS 0 1
    ISBUS 0 0
    BUSCOMP 0 0 0 0 0
    SHOWINMIX 1 0.6667 0.5 1 0.5 0 0 0
    FIXEDLANES 9 0 0 0 0
    SEL 0
    REC 0 5088 1 0 0 0 0 0
    VU 2
    TRACKHEIGHT 0 0 0 0 0 0 0
    INQ 0 0 0 0.5 100 0 0 100
    NCHAN 2
    FX 1
    TRACKID {580982E4-A4A5-4827-8409-BE9362DCB998}
    PERF 0
    MIDIOUT -1
    MAINSEND 1 0
    <FXCHAIN
      WNDRECT 24 52 700 560
      SHOW 0
      LASTSEL 0
      DOCKED 0
      BYPASS 0 0 0
      <JS "ReapNES Studio/ReapNES_Console.jsfx" ""
        2 15 1 10 80 10 100 2 1 15 1 5 60 10 80 1 1 0 50 0 0 15 1 0 100 0 0 0.500000 0.500000 0.400000 0.300000 0.800000 3 1 0 0 0 0 - - - - - - - - - - - - - - - - - - - - - - - - - -
      >
      FLOATPOS 0 0 0 0
      FXID {AE3151AF-603D-4CB2-BC97-AB62416BCBF4}
      WAK 0 0
    >
  >
>