<REAPER_PROJECT 0.1 "7.27/win64" 1707000000
  <NOTES 0 2
    |ReapNES Studio Project
    |MIDI Import - Advanced_Dungeons_and_Dragons__Heroes_of_the_Lance_title_rom_v1
  >
  RIPPLE 0
  GROUPOVERRIDE 0 0 0
  AUTOXFADE 129
  ENVATTACH 3
  POOLEDENVATTACH 0
  MIXERUIFLAGS 11 48
  ENVFADESZ10 40
  PEAKGAIN 1
  FEEDBACK 0
  PANLAW 1
  PROJOFFS 0 0 0
  MAXPROJLEN 0 0
  GRID 3199 8 1 8 1 0 0 0
  TIMEMODE 1 5 -1 30 0 0 -1
  VIDEO_CONFIG 0 0 65792
  PANMODE 3
  PANLAWFLAGS 3
  CURSOR 0
  ZOOM 100 0 0
  VZOOMEX 6 0
  USE_REC_CFG 0
  RECMODE 1
  SMPTESYNC 0 30 100 40 1000 300 0 0 1 0 0
  LOOP 0
  LOOPGRAN 0 4
  RECORD_PATH "Media" ""
  <RECORD_CFG
    ZXZhdxgAAQ==
  >
  <APPLYFX_CFG
  >
  RENDER_FILE ""
  RENDER_PATTERN ""
  RENDER_FMT 0 2 0
  RENDER_1X 0
  RENDER_RANGE 1 0 0 18 1000
  RENDER_RESAMPLE 3 0 1
  RENDER_ADDTOPROJ 0
  RENDER_STEMS 0
  RENDER_DITHER 0
  TIMELOCKMODE 1
  TEMPOENVLOCKMODE 1
  ITEMMIX 1
  DEFPITCHMODE 589824 0
  TAKELANE 1
  SAMPLERATE 44100 0 0
  <RENDER_CFG
    ZXZhdxgAAQ==
  >
  LOCK 1
  <METRONOME 6 2
    VOL 0.25 0.125
    BEATLEN 4
    FREQ 1760 880 1
    SAMPLES "" ""
    SPLIGNORE 0 0
    SPLDEF 2 660 "" 0
    SPLDEF 3 440 "" 0
    PATTERN 0 169
    PATTERNSTR ABBB
    MULT 1
  >
  GLOBAL_AUTO -1
  TEMPO 128.59999614200012 4 4
  PLAYRATE 1 0 0.25 4
  SELECTION 0 0
  SELECTION2 0 0
  MASTERAUTOMODE 0
  MASTERTRACKHEIGHT 0 0
  MASTERPEAKCOL 16576
  MASTERMUTESOLO 0
  MASTERTRACKVIEW 0 0.6667 0.5 0.5 0 0 0 0 0 0 0 0 0 0
  MASTERHWOUT 0 0 1 0 0 0 0 -1
  MASTER_NCH 2 2
  MASTER_VOLUME 1 0 -1 -1 1
  MASTER_PANMODE 3
  MASTER_PANLAWFLAGS 3
  MASTER_FX 1
  MASTER_SEL 0
  <MASTERPLAYSPEEDENV
    EGUID {11CA5B22-3320-4773-8F56-E872EB581485}
    ACT 0 -1
    VIS 0 1 1
    LANEHEIGHT 0 0
    ARM 0
    DEFSHAPE 0 -1 -1
  >
  <TEMPOENVEX
    EGUID {0C5C3941-AEAF-4312-97D9-0D5B9107F0F8}
    ACT 1 -1
    VIS 1 0 1
    LANEHEIGHT 0 0
    ARM 0
    DEFSHAPE 1 -1 -1
  >
  <PROJBAY
  >
  <TRACK {8DAA3EA2-9D8B-437F-9171-3B8841BD5F63}
    NAME "NES - Pulse 1 [ch0]"
    PEAKCOL 16576606
    BEAT -1
    AUTOMODE 0
    PANLAWFLAGS 3
    VOLPAN 1 0 -1 -1 1
    MUTESOLO 0 0 0
    IPHASE 0
    PLAYOFFS 0 1
    ISBUS 0 0
    BUSCOMP 0 0 0 0 0
    SHOWINMIX 1 0.6667 0.5 1 0.5 0 0 0
    FIXEDLANES 9 0 0 0 0
    SEL 1
    REC 1 5088 1 0 0 0 0 0
    VU 2
    TRACKHEIGHT 0 0 0 0 0 0 0
    INQ 0 0 0 0.5 100 0 0 100
    NCHAN 2
    FX 1
    TRACKID {8DAA3EA2-9D8B-437F-9171-3B8841BD5F63}
    PERF 0
    MIDIOUT -1
    MAINSEND 1 0
    <FXCHAIN
      WNDRECT 24 52 700 560
      SHOW 0
      LASTSEL 0
      DOCKED 0
      BYPASS 0 0 0
      <JS "ReapNES Studio/ReapNES_Console.jsfx" ""
        2 15 1 10 80 10 100 2 1 15 1 5 60 10 80 1 1 0 50 0 0 15 1 0 100 0 0 0.500000 0.500000 0.400000 0.300000 0.800000 0 1 0 0 0 0 - - - - - - - - - - - - - - - - - - - - - - - - - -
      >
      FLOATPOS 0 0 0 0
      FXID {A696B2CE-85A2-4C91-B618-E79C6FDD080B}
      WAK 0 0
    >
    <ITEM
      POSITION 0
      LENGTH 70.6687424
      LOOP 0
      ALLTAKES 0
      FADEIN 0 0 0 0 0 0 0
      FADEOUT 0 0 0 0 0 0 0
      MUTE 0 0
      SEL 0
      IGUID {B2AC6E30-CD7A-4A75-861E-6BB13E6AC4AB}
      <SOURCE MIDI
        HASDATA 1 480 QN
        CCINTERP 32
        E 0 c0 50
        E 16 b0 0c 40
        E 0 b0 0b 19
        E 0 90 35 19
        E 16 b0 0b 22
        E 16 b0 0b 2a
        E 16 b0 0b 22
        E 16 b0 0b 19
        E 16 b0 0b 11
        E 64 b0 0b 19
        E 16 b0 0b 22
        E 16 b0 0b 2a
        E 16 b0 0b 22
        E 16 b0 0b 19
        E 16 b0 0b 11
        E 64 b0 0b 19
        E 16 b0 0b 22
        E 16 b0 0b 2a
        E 16 b0 0b 22
        E 16 b0 0b 19
        E 16 b0 0b 11
        E 64 b0 0b 19
        E 16 b0 0b 22
        E 16 b0 0b 2a
        E 16 b0 0b 22
        E 16 b0 0b 19
        E 16 b0 0b 11
        E 64 b0 0b 19
        E 16 b0 0b 22
        E 16 b0 0b 2a
        E 16 b0 0b 22
        E 16 b0 0b 19
        E 16 b0 0b 11
        E 64 b0 0b 19
        E 16 b0 0b 22
        E 16 b0 0b 2a
        E 16 b0 0b 22
        E 16 b0 0b 19
        E 16 b0 0b 11
        E 64 b0 0b 19
        E 16 b0 0b 22
        E 16 b0 0b 2a
        E 16 b0 0b 22
        E 16 b0 0b 19
        E 16 b0 0b 11
        E 64 b0 0b 19
        E 16 b0 0b 22
        E 16 b0 0b 2a
        E 16 b0 0b 22
        E 16 b0 0b 19
        E 16 b0 0b 11
        E 64 b0 0b 19
        E 16 b0 0b 22
        E 16 b0 0b 2a
        E 16 b0 0b 22
        E 16 b0 0b 19
        E 16 b0 0b 11
        E 64 b0 0b 19
        E 16 b0 0b 22
        E 16 b0 0b 2a
        E 16 b0 0b 22
        E 16 b0 0b 19
        E 16 b0 0b 11
        E 64 b0 0b 19
        E 16 b0 0b 22
        E 16 b0 0b 2a
        E 16 b0 0b 22
        E 16 b0 0b 19
        E 16 b0 0b 11
        E 64 b0 0b 19
        E 16 b0 0b 22
        E 16 b0 0b 2a
        E 16 b0 0b 22
        E 16 b0 0b 19
        E 16 b0 0b 11
        E 64 b0 0b 19
        E 16 b0 0b 22
        E 16 b0 0b 2a
        E 16 b0 0b 22
        E 16 b0 0b 19
        E 16 b0 0b 11
        E 64 b0 0b 19
        E 16 b0 0b 22
        E 16 b0 0b 2a
        E 16 b0 0b 22
        E 16 b0 0b 19
        E 16 b0 0b 11
        E 64 b0 0b 19
        E 16 b0 0b 22
        E 16 b0 0b 2a
        E 16 b0 0b 22
        E 16 b0 0b 19
        E 16 b0 0b 11
        E 64 b0 0b 19
        E 16 b0 0b 22
        E 16 b0 0b 2a
        E 16 b0 0b 22
        E 16 b0 0b 19
        E 16 b0 0b 11
        E 64 b0 0b 19
        E 16 b0 0b 22
        E 16 b0 0b 2a
        E 16 b0 0b 22
        E 16 b0 0b 19
        E 16 b0 0b 11
        E 64 b0 0b 19
        E 16 b0 0b 22
        E 16 b0 0b 2a
        E 16 b0 0b 22
        E 16 b0 0b 19
        E 16 b0 0b 11
        E 64 b0 0b 19
        E 16 b0 0b 22
        E 16 b0 0b 2a
        E 16 b0 0b 22
        E 16 b0 0b 19
        E 16 b0 0b 11
        E 64 b0 0b 19
        E 16 b0 0b 22
        E 16 b0 0b 2a
        E 16 b0 0b 22
        E 16 b0 0b 19
        E 16 b0 0b 11
        E 64 b0 0b 19
        E 16 b0 0b 22
        E 16 b0 0b 2a
        E 16 b0 0b 22
        E 16 b0 0b 19
        E 16 b0 0b 11
        E 64 b0 0b 19
        E 16 b0 0b 22
        E 16 b0 0b 2a
        E 16 b0 0b 22
        E 16 b0 0b 19
        E 16 b0 0b 11
        E 64 b0 0b 19
        E 16 b0 0b 22
        E 16 b0 0b 2a
        E 16 b0 0b 22
        E 16 b0 0b 19
        E 16 b0 0b 11
        E 64 b0 0b 19
        E 16 b0 0b 22
        E 16 b0 0b 2a
        E 16 b0 0b 22
        E 16 b0 0b 19
        E 16 b0 0b 11
        E 64 b0 0b 19
        E 16 b0 0b 22
        E 16 b0 0b 2a
        E 16 b0 0b 22
        E 16 b0 0b 19
        E 16 b0 0b 11
        E 64 b0 0b 19
        E 16 b0 0b 22
        E 16 b0 0b 2a
        E 16 b0 0b 22
        E 16 b0 0b 19
        E 16 b0 0b 11
        E 64 b0 0b 19
        E 16 b0 0b 22
        E 16 b0 0b 2a
        E 16 b0 0b 22
        E 16 b0 0b 19
        E 16 b0 0b 11
        E 64 b0 0b 19
        E 16 b0 0b 22
        E 16 b0 0b 2a
        E 16 b0 0b 22
        E 16 b0 0b 19
        E 16 b0 0b 11
        E 64 b0 0b 19
        E 16 b0 0b 22
        E 16 b0 0b 2a
        E 16 b0 0b 22
        E 16 b0 0b 19
        E 16 b0 0b 11
        E 64 b0 0b 19
        E 16 b0 0b 22
        E 16 b0 0b 2a
        E 16 b0 0b 22
        E 16 b0 0b 19
        E 16 b0 0b 11
        E 64 b0 0b 19
        E 16 b0 0b 22
        E 16 b0 0b 2a
        E 16 b0 0b 22
        E 16 b0 0b 19
        E 16 b0 0b 11
        E 64 b0 0b 19
        E 16 b0 0b 22
        E 16 b0 0b 2a
        E 16 b0 0b 22
        E 16 b0 0b 19
        E 16 b0 0b 11
        E 64 b0 0b 19
        E 16 b0 0b 22
        E 16 b0 0b 2a
        E 16 b0 0b 22
        E 16 b0 0b 19
        E 16 b0 0b 11
        E 64 b0 0b 19
        E 16 b0 0b 22
        E 16 b0 0b 2a
        E 16 b0 0b 22
        E 16 b0 0b 19
        E 16 b0 0b 11
        E 64 b0 0b 19
        E 16 b0 0b 22
        E 16 b0 0b 2a
        E 16 b0 0b 22
        E 16 b0 0b 19
        E 16 b0 0b 11
        E 64 b0 0b 19
        E 16 b0 0b 22
        E 16 b0 0b 2a
        E 16 b0 0b 22
        E 16 b0 0b 19
        E 16 b0 0b 11
        E 64 b0 0b 19
        E 16 b0 0b 22
        E 16 b0 0b 2a
        E 16 b0 0b 22
        E 16 b0 0b 19
        E 16 b0 0b 11
        E 64 b0 0b 19
        E 16 b0 0b 22
        E 16 b0 0b 2a
        E 16 b0 0b 22
        E 16 b0 0b 19
        E 16 b0 0b 11
        E 64 b0 0b 19
        E 16 b0 0b 22
        E 16 b0 0b 2a
        E 16 b0 0b 22
        E 16 b0 0b 19
        E 16 b0 0b 11
        E 64 b0 0b 19
        E 16 b0 0b 22
        E 16 b0 0b 2a
        E 16 b0 0b 22
        E 16 b0 0b 19
        E 16 b0 0b 11
        E 64 b0 0b 19
        E 16 b0 0b 22
        E 16 b0 0b 2a
        E 16 b0 0b 22
        E 16 b0 0b 19
        E 16 b0 0b 11
        E 64 b0 0b 19
        E 16 b0 0b 22
        E 16 b0 0b 2a
        E 16 b0 0b 22
        E 16 b0 0b 19
        E 16 b0 0b 11
        E 64 b0 0b 19
        E 16 b0 0b 22
        E 16 b0 0b 2a
        E 16 b0 0b 22
        E 16 b0 0b 19
        E 16 b0 0b 11
        E 64 b0 0b 19
        E 16 b0 0b 22
        E 16 b0 0b 2a
        E 16 b0 0b 22
        E 16 b0 0b 19
        E 16 b0 0b 11
        E 64 b0 0b 19
        E 16 b0 0b 22
        E 16 b0 0b 2a
        E 16 b0 0b 22
        E 16 b0 0b 19
        E 16 b0 0b 11
        E 64 b0 0b 19
        E 16 b0 0b 22
        E 16 b0 0b 2a
        E 16 b0 0b 22
        E 16 b0 0b 19
        E 16 b0 0b 11
        E 64 b0 0b 19
        E 16 b0 0b 22
        E 16 b0 0b 2a
        E 16 b0 0b 22
        E 16 b0 0b 19
        E 16 b0 0b 11
        E 64 b0 0b 19
        E 16 b0 0b 22
        E 16 b0 0b 2a
        E 16 b0 0b 22
        E 16 b0 0b 19
        E 16 b0 0b 11
        E 64 b0 0b 19
        E 16 b0 0b 22
        E 16 b0 0b 2a
        E 16 b0 0b 22
        E 16 b0 0b 19
        E 16 b0 0b 11
        E 64 b0 0b 19
        E 16 b0 0b 22
        E 16 b0 0b 2a
        E 16 b0 0b 22
        E 16 b0 0b 19
        E 16 b0 0b 11
        E 64 b0 0b 19
        E 16 b0 0b 22
        E 16 b0 0b 2a
        E 16 b0 0b 22
        E 16 b0 0b 19
        E 16 b0 0b 11
        E 64 b0 0b 19
        E 16 b0 0b 22
        E 16 b0 0b 2a
        E 16 b0 0b 22
        E 16 b0 0b 19
        E 16 b0 0b 11
        E 64 b0 0b 19
        E 16 b0 0b 22
        E 16 b0 0b 2a
        E 16 b0 0b 22
        E 16 b0 0b 19
        E 16 b0 0b 11
        E 64 b0 0b 19
        E 16 b0 0b 22
        E 16 b0 0b 2a
        E 16 b0 0b 22
        E 16 b0 0b 19
        E 16 b0 0b 11
        E 64 b0 0b 19
        E 16 b0 0b 22
        E 16 b0 0b 2a
        E 16 b0 0b 22
        E 16 b0 0b 19
        E 16 b0 0b 11
        E 64 b0 0b 19
        E 16 b0 0b 22
        E 16 b0 0b 2a
        E 16 b0 0b 22
        E 16 b0 0b 19
        E 16 b0 0b 11
        E 64 b0 0b 19
        E 16 b0 0b 22
        E 16 b0 0b 2a
        E 16 b0 0b 22
        E 16 b0 0b 19
        E 16 b0 0b 11
        E 64 b0 0b 19
        E 16 b0 0b 22
        E 16 b0 0b 2a
        E 16 b0 0b 22
        E 16 b0 0b 19
        E 16 b0 0b 11
        E 64 b0 0b 19
        E 16 b0 0b 22
        E 16 b0 0b 2a
        E 16 b0 0b 22
        E 16 b0 0b 19
        E 16 b0 0b 11
        E 64 b0 0b 19
        E 16 b0 0b 22
        E 16 b0 0b 2a
        E 16 b0 0b 22
        E 16 b0 0b 19
        E 16 b0 0b 11
        E 64 b0 0b 19
        E 16 b0 0b 22
        E 16 b0 0b 2a
        E 16 b0 0b 22
        E 16 b0 0b 19
        E 16 b0 0b 11
        E 64 b0 0b 19
        E 16 b0 0b 22
        E 16 b0 0b 2a
        E 16 b0 0b 22
        E 16 b0 0b 19
        E 16 b0 0b 11
        E 64 b0 0b 19
        E 16 b0 0b 22
        E 16 b0 0b 2a
        E 16 b0 0b 22
        E 16 b0 0b 19
        E 16 b0 0b 11
        E 64 b0 0b 19
        E 16 b0 0b 22
        E 16 b0 0b 2a
        E 16 b0 0b 22
        E 16 b0 0b 19
        E 16 b0 0b 11
        E 64 b0 0b 19
        E 16 b0 0b 22
        E 16 b0 0b 2a
        E 16 b0 0b 22
        E 16 b0 0b 19
        E 16 b0 0b 11
        E 64 b0 0b 19
        E 16 b0 0b 22
        E 16 b0 0b 2a
        E 16 b0 0b 22
        E 16 b0 0b 19
        E 16 b0 0b 11
        E 64 b0 0b 19
        E 16 b0 0b 22
        E 16 b0 0b 2a
        E 16 b0 0b 22
        E 16 b0 0b 19
        E 16 b0 0b 11
        E 64 b0 0b 19
        E 16 b0 0b 22
        E 16 b0 0b 2a
        E 16 b0 0b 22
        E 16 b0 0b 19
        E 16 b0 0b 11
        E 64 b0 0b 19
        E 16 b0 0b 22
        E 16 b0 0b 2a
        E 16 b0 0b 22
        E 16 b0 0b 19
        E 16 b0 0b 11
        E 64 b0 0b 19
        E 16 b0 0b 22
        E 16 b0 0b 2a
        E 16 b0 0b 22
        E 16 b0 0b 19
        E 16 b0 0b 11
        E 64 b0 0b 19
        E 16 b0 0b 22
        E 16 b0 0b 2a
        E 16 b0 0b 22
        E 16 b0 0b 19
        E 16 b0 0b 11
        E 64 b0 0b 19
        E 16 b0 0b 22
        E 16 b0 0b 2a
        E 16 b0 0b 22
        E 16 b0 0b 19
        E 16 b0 0b 11
        E 64 b0 0b 19
        E 16 b0 0b 22
        E 16 b0 0b 2a
        E 16 b0 0b 22
        E 16 b0 0b 19
        E 16 b0 0b 11
        E 64 b0 0b 19
        E 16 b0 0b 22
        E 16 b0 0b 2a
        E 16 b0 0b 22
        E 16 b0 0b 19
        E 16 b0 0b 11
        E 64 b0 0b 19
        E 16 b0 0b 22
        E 16 b0 0b 2a
        E 16 b0 0b 22
        E 16 b0 0b 19
        E 16 b0 0b 11
        E 64 b0 0b 19
        E 16 b0 0b 22
        E 16 b0 0b 2a
        E 16 b0 0b 22
        E 16 b0 0b 19
        E 16 b0 0b 11
        E 64 b0 0b 19
        E 16 b0 0b 22
        E 16 b0 0b 2a
        E 16 b0 0b 22
        E 16 b0 0b 19
        E 16 b0 0b 11
        E 64 b0 0b 19
        E 16 b0 0b 22
        E 16 b0 0b 2a
        E 16 b0 0b 22
        E 16 b0 0b 19
        E 16 b0 0b 11
        E 64 b0 0b 19
        E 16 b0 0b 22
        E 16 b0 0b 2a
        E 16 b0 0b 22
        E 16 b0 0b 19
        E 16 b0 0b 11
        E 64 b0 0b 19
        E 16 b0 0b 22
        E 16 b0 0b 2a
        E 16 b0 0b 22
        E 16 b0 0b 19
        E 16 b0 0b 11
        E 64 b0 0b 19
        E 16 b0 0b 22
        E 16 b0 0b 2a
        E 16 b0 0b 22
        E 16 b0 0b 19
        E 16 b0 0b 11
        E 64 b0 0b 19
        E 16 b0 0b 22
        E 16 b0 0b 2a
        E 16 b0 0b 22
        E 16 b0 0b 19
        E 16 b0 0b 11
        E 64 b0 0b 19
        E 16 b0 0b 22
        E 16 b0 0b 2a
        E 16 b0 0b 22
        E 16 b0 0b 19
        E 16 b0 0b 11
        E 64 b0 0b 19
        E 16 b0 0b 22
        E 16 b0 0b 2a
        E 16 b0 0b 22
        E 16 b0 0b 19
        E 16 b0 0b 11
        E 64 b0 0b 19
        E 16 b0 0b 22
        E 16 b0 0b 2a
        E 16 b0 0b 22
        E 16 b0 0b 19
        E 16 b0 0b 11
        E 64 b0 0b 19
        E 16 b0 0b 22
        E 16 b0 0b 2a
        E 16 b0 0b 22
        E 16 b0 0b 19
        E 16 b0 0b 11
        E 64 b0 0b 19
        E 16 b0 0b 22
        E 16 b0 0b 2a
        E 16 b0 0b 22
        E 16 b0 0b 19
        E 16 b0 0b 11
        E 64 b0 0b 19
        E 16 b0 0b 22
        E 16 b0 0b 2a
        E 16 b0 0b 22
        E 16 b0 0b 19
        E 16 b0 0b 11
        E 64 b0 0b 19
        E 16 b0 0b 22
        E 16 b0 0b 2a
        E 16 b0 0b 22
        E 16 b0 0b 19
        E 16 b0 0b 11
        E 64 b0 0b 19
        E 16 b0 0b 22
        E 16 b0 0b 2a
        E 16 b0 0b 22
        E 16 b0 0b 19
        E 16 b0 0b 11
        E 64 b0 0b 19
        E 16 b0 0b 22
        E 16 b0 0b 2a
        E 16 b0 0b 22
        E 16 b0 0b 19
        E 16 b0 0b 11
        E 64 b0 0b 19
        E 16 b0 0b 22
        E 16 b0 0b 2a
        E 16 b0 0b 22
        E 16 b0 0b 19
        E 16 b0 0b 11
        E 64 b0 0b 19
        E 16 b0 0b 22
        E 16 b0 0b 2a
        E 16 b0 0b 22
        E 16 b0 0b 19
        E 16 b0 0b 11
        E 64 b0 0b 19
        E 16 b0 0b 22
        E 16 b0 0b 2a
        E 16 b0 0b 22
        E 16 b0 0b 19
        E 16 b0 0b 11
        E 64 b0 0b 19
        E 16 b0 0b 22
        E 16 b0 0b 2a
        E 16 b0 0b 22
        E 16 b0 0b 19
        E 16 b0 0b 11
        E 64 b0 0b 19
        E 16 b0 0b 22
        E 16 b0 0b 2a
        E 16 b0 0b 22
        E 16 b0 0b 19
        E 16 b0 0b 11
        E 64 b0 0b 19
        E 16 b0 0b 22
        E 16 b0 0b 2a
        E 16 b0 0b 22
        E 16 b0 0b 19
        E 16 b0 0b 11
        E 64 b0 0b 19
        E 16 b0 0b 22
        E 16 b0 0b 2a
        E 16 b0 0b 22
        E 16 b0 0b 19
        E 16 b0 0b 11
        E 64 b0 0b 19
        E 16 b0 0b 22
        E 16 b0 0b 2a
        E 16 b0 0b 22
        E 16 b0 0b 19
        E 16 b0 0b 11
        E 64 b0 0b 19
        E 16 b0 0b 22
        E 16 b0 0b 2a
        E 16 b0 0b 22
        E 16 b0 0b 19
        E 16 b0 0b 11
        E 64 b0 0b 19
        E 16 b0 0b 22
        E 16 b0 0b 2a
        E 16 b0 0b 22
        E 16 b0 0b 19
        E 16 b0 0b 11
        E 64 b0 0b 19
        E 16 b0 0b 22
        E 16 b0 0b 2a
        E 16 b0 0b 22
        E 16 b0 0b 19
        E 16 b0 0b 11
        E 64 b0 0b 19
        E 16 b0 0b 22
        E 16 b0 0b 2a
        E 16 b0 0b 22
        E 16 b0 0b 19
        E 16 b0 0b 11
        E 64 b0 0b 19
        E 16 b0 0b 22
        E 16 b0 0b 2a
        E 16 b0 0b 22
        E 16 b0 0b 19
        E 16 b0 0b 11
        E 64 b0 0b 19
        E 16 b0 0b 22
        E 16 b0 0b 2a
        E 16 b0 0b 22
        E 16 b0 0b 19
        E 16 b0 0b 11
        E 64 b0 0b 19
        E 16 b0 0b 22
        E 16 b0 0b 2a
        E 16 b0 0b 22
        E 16 b0 0b 19
        E 16 b0 0b 11
        E 64 b0 0b 19
        E 16 b0 0b 22
        E 16 b0 0b 2a
        E 16 b0 0b 22
        E 16 b0 0b 19
        E 16 b0 0b 11
        E 64 b0 0b 19
        E 16 b0 0b 22
        E 16 b0 0b 2a
        E 16 b0 0b 22
        E 16 b0 0b 19
        E 16 b0 0b 11
        E 64 b0 0b 19
        E 16 b0 0b 22
        E 16 b0 0b 2a
        E 16 b0 0b 22
        E 16 b0 0b 19
        E 16 b0 0b 11
        E 64 b0 0b 19
        E 16 b0 0b 22
        E 16 b0 0b 2a
        E 16 b0 0b 22
        E 16 b0 0b 19
        E 16 b0 0b 11
        E 64 b0 0b 19
        E 16 b0 0b 22
        E 16 b0 0b 2a
        E 16 b0 0b 22
        E 16 b0 0b 19
        E 16 b0 0b 11
        E 64 b0 0b 19
        E 16 b0 0b 22
        E 16 b0 0b 2a
        E 16 b0 0b 22
        E 16 b0 0b 19
        E 16 b0 0b 11
        E 64 b0 0b 19
        E 16 b0 0b 22
        E 16 b0 0b 2a
        E 16 b0 0b 22
        E 16 b0 0b 19
        E 16 b0 0b 11
        E 64 b0 0b 19
        E 16 b0 0b 22
        E 16 b0 0b 2a
        E 16 b0 0b 22
        E 16 b0 0b 19
        E 16 b0 0b 11
        E 64 b0 0b 19
        E 16 b0 0b 22
        E 16 b0 0b 2a
        E 16 b0 0b 22
        E 16 b0 0b 19
        E 16 b0 0b 11
        E 64 b0 0b 19
        E 16 b0 0b 22
        E 16 b0 0b 2a
        E 16 b0 0b 22
        E 16 b0 0b 19
        E 16 b0 0b 11
        E 64 b0 0b 19
        E 16 b0 0b 22
        E 16 b0 0b 2a
        E 16 b0 0b 22
        E 16 b0 0b 19
        E 16 b0 0b 11
        E 64 b0 0b 19
        E 16 b0 0b 22
        E 16 b0 0b 2a
        E 16 b0 0b 22
        E 16 b0 0b 19
        E 16 b0 0b 11
        E 64 b0 0b 19
        E 16 b0 0b 22
        E 16 b0 0b 2a
        E 16 b0 0b 22
        E 16 b0 0b 19
        E 16 b0 0b 11
        E 64 b0 0b 19
        E 16 b0 0b 22
        E 16 b0 0b 2a
        E 16 b0 0b 22
        E 16 b0 0b 19
        E 16 b0 0b 11
        E 64 b0 0b 19
        E 16 b0 0b 22
        E 16 b0 0b 2a
        E 16 b0 0b 22
        E 16 b0 0b 19
        E 16 b0 0b 11
        E 64 b0 0b 19
        E 16 b0 0b 22
        E 16 b0 0b 2a
        E 16 b0 0b 22
        E 16 b0 0b 19
        E 16 b0 0b 11
        E 64 b0 0b 19
        E 16 b0 0b 22
        E 16 b0 0b 2a
        E 16 b0 0b 22
        E 16 b0 0b 19
        E 16 b0 0b 11
        E 64 b0 0b 19
        E 16 b0 0b 22
        E 16 b0 0b 2a
        E 16 b0 0b 22
        E 16 b0 0b 19
        E 16 b0 0b 11
        E 64 b0 0b 19
        E 16 b0 0b 22
        E 16 b0 0b 2a
        E 16 b0 0b 22
        E 16 b0 0b 19
        E 16 b0 0b 11
        E 64 b0 0b 19
        E 16 b0 0b 22
        E 16 b0 0b 2a
        E 16 b0 0b 22
        E 16 b0 0b 19
        E 16 b0 0b 11
        E 64 b0 0b 19
        E 16 b0 0b 22
        E 16 b0 0b 2a
        E 16 b0 0b 22
        E 16 b0 0b 19
        E 16 b0 0b 11
        E 64 b0 0b 19
        E 16 b0 0b 22
        E 16 b0 0b 2a
        E 16 b0 0b 22
        E 16 b0 0b 19
        E 16 b0 0b 11
        E 64 b0 0b 19
        E 0 80 35 00
        E 0 90 43 19
        E 192 b0 0b 22
        E 192 b0 0b 2a
        E 192 b0 0b 33
        E 192 b0 0b 3b
        E 192 b0 0b 44
        E 192 b0 0b 3b
        E 192 b0 0b 33
        E 192 b0 0b 2a
        E 192 b0 0b 22
        E 192 b0 0b 19
        E 576 b0 0b 22
        E 192 b0 0b 2a
        E 192 b0 0b 33
        E 192 b0 0b 3b
        E 192 b0 0b 44
        E 192 b0 0b 3b
        E 192 b0 0b 33
        E 192 b0 0b 2a
        E 192 b0 0b 22
        E 192 b0 0b 19
        E 576 b0 0b 22
        E 192 b0 0b 2a
        E 192 b0 0b 33
        E 192 b0 0b 3b
        E 192 b0 0b 44
        E 192 b0 0b 3b
        E 192 b0 0b 33
        E 192 b0 0b 2a
        E 192 b0 0b 22
        E 192 b0 0b 19
        E 576 b0 0b 22
        E 192 b0 0b 2a
        E 192 b0 0b 33
        E 192 b0 0b 3b
        E 192 b0 0b 44
        E 192 b0 0b 3b
        E 192 b0 0b 33
        E 192 b0 0b 2a
        E 192 b0 0b 22
        E 192 b0 0b 19
        E 384 80 43 00
        E 0 90 35 19
        E 16 b0 0b 22
        E 16 b0 0b 2a
        E 16 b0 0b 22
        E 16 b0 0b 19
        E 16 b0 0b 11
        E 64 b0 0b 19
        E 16 b0 0b 22
        E 16 b0 0b 2a
        E 16 b0 0b 22
        E 16 b0 0b 19
        E 16 b0 0b 11
        E 64 b0 0b 19
        E 16 b0 0b 22
        E 16 b0 0b 2a
        E 16 b0 0b 22
        E 16 b0 0b 19
        E 16 b0 0b 11
        E 64 b0 0b 19
        E 16 b0 0b 22
        E 16 b0 0b 2a
        E 16 b0 0b 22
        E 16 b0 0b 19
        E 16 b0 0b 11
        E 64 b0 0b 19
        E 16 b0 0b 22
        E 16 b0 0b 2a
        E 16 b0 0b 22
        E 16 b0 0b 19
        E 16 b0 0b 11
        E 64 b0 0b 19
        E 16 b0 0b 22
        E 16 b0 0b 2a
        E 16 b0 0b 22
        E 16 b0 0b 19
        E 16 b0 0b 11
        E 64 b0 0b 19
        E 16 b0 0b 22
        E 16 b0 0b 2a
        E 16 b0 0b 22
        E 16 b0 0b 19
        E 16 b0 0b 11
        E 64 b0 0b 19
        E 16 b0 0b 22
        E 16 b0 0b 2a
        E 16 b0 0b 22
        E 16 b0 0b 19
        E 16 b0 0b 11
        E 64 b0 0b 19
        E 16 b0 0b 22
        E 16 b0 0b 2a
        E 16 b0 0b 22
        E 16 b0 0b 19
        E 16 b0 0b 11
        E 64 b0 0b 19
        E 16 b0 0b 22
        E 16 b0 0b 2a
        E 16 b0 0b 22
        E 16 b0 0b 19
        E 16 b0 0b 11
        E 64 b0 0b 19
        E 16 b0 0b 22
        E 16 b0 0b 2a
        E 16 b0 0b 22
        E 16 b0 0b 19
        E 16 b0 0b 11
        E 64 b0 0b 19
        E 16 b0 0b 22
        E 16 b0 0b 2a
        E 16 b0 0b 22
        E 16 b0 0b 19
        E 16 b0 0b 11
        E 64 b0 0b 19
        E 16 b0 0b 22
        E 16 b0 0b 2a
        E 16 b0 0b 22
        E 16 b0 0b 19
        E 16 b0 0b 11
        E 64 b0 0b 19
        E 16 b0 0b 22
        E 16 b0 0b 2a
        E 16 b0 0b 22
        E 16 b0 0b 19
        E 16 b0 0b 11
        E 64 b0 0b 19
        E 16 b0 0b 22
        E 16 b0 0b 2a
        E 16 b0 0b 22
        E 16 b0 0b 19
        E 16 b0 0b 11
        E 64 b0 0b 19
        E 16 b0 0b 22
        E 16 b0 0b 2a
        E 16 b0 0b 22
        E 16 b0 0b 19
        E 16 b0 0b 11
        E 64 b0 0b 19
        E 16 b0 0b 22
        E 16 b0 0b 2a
        E 16 b0 0b 22
        E 16 b0 0b 19
        E 16 b0 0b 11
        E 64 b0 0b 19
        E 16 b0 0b 22
        E 16 b0 0b 2a
        E 16 b0 0b 22
        E 16 b0 0b 19
        E 16 b0 0b 11
        E 64 b0 0b 19
        E 16 b0 0b 22
        E 16 b0 0b 2a
        E 16 b0 0b 22
        E 16 b0 0b 19
        E 16 b0 0b 11
        E 64 b0 0b 19
        E 16 b0 0b 22
        E 16 b0 0b 2a
        E 16 b0 0b 22
        E 16 b0 0b 19
        E 16 b0 0b 11
        E 64 b0 0b 19
        E 16 b0 0b 22
        E 16 b0 0b 2a
        E 16 b0 0b 22
        E 16 b0 0b 19
        E 16 b0 0b 11
        E 64 b0 0b 19
        E 16 b0 0b 22
        E 16 b0 0b 2a
        E 16 b0 0b 22
        E 16 b0 0b 19
        E 16 b0 0b 11
        E 64 b0 0b 19
        E 16 b0 0b 22
        E 16 b0 0b 2a
        E 16 b0 0b 22
        E 16 b0 0b 19
        E 16 b0 0b 11
        E 64 b0 0b 19
        E 16 b0 0b 22
        E 16 b0 0b 2a
        E 16 b0 0b 22
        E 16 b0 0b 19
        E 16 b0 0b 11
        E 64 b0 0b 19
        E 16 b0 0b 22
        E 16 b0 0b 2a
        E 16 b0 0b 22
        E 16 b0 0b 19
        E 16 b0 0b 11
        E 64 b0 0b 19
        E 16 b0 0b 22
        E 16 b0 0b 2a
        E 16 b0 0b 22
        E 16 b0 0b 19
        E 16 b0 0b 11
        E 64 b0 0b 19
        E 16 b0 0b 22
        E 16 b0 0b 2a
        E 16 b0 0b 22
        E 16 b0 0b 19
        E 16 b0 0b 11
        E 64 b0 0b 19
        E 16 b0 0b 22
        E 16 b0 0b 2a
        E 16 b0 0b 22
        E 16 b0 0b 19
        E 16 b0 0b 11
        E 64 b0 0b 19
        E 16 b0 0b 22
        E 16 b0 0b 2a
        E 16 b0 0b 22
        E 16 b0 0b 19
        E 16 b0 0b 11
        E 64 b0 0b 19
        E 16 b0 0b 22
        E 16 b0 0b 2a
        E 16 b0 0b 22
        E 16 b0 0b 19
        E 16 b0 0b 11
        E 64 b0 0b 19
        E 16 b0 0b 22
        E 16 b0 0b 2a
        E 16 b0 0b 22
        E 16 b0 0b 19
        E 16 b0 0b 11
        E 64 b0 0b 19
        E 16 b0 0b 22
        E 16 b0 0b 2a
        E 16 b0 0b 22
        E 16 b0 0b 19
        E 16 b0 0b 11
        E 64 b0 0b 19
        E 16 b0 0b 22
        E 16 b0 0b 2a
        E 16 b0 0b 22
        E 16 b0 0b 19
        E 16 b0 0b 11
        E 64 b0 0b 19
        E 16 b0 0b 22
        E 16 b0 0b 2a
        E 16 b0 0b 22
        E 16 b0 0b 19
        E 16 b0 0b 11
        E 64 b0 0b 19
        E 16 b0 0b 22
        E 16 b0 0b 2a
        E 16 b0 0b 22
        E 16 b0 0b 19
        E 16 b0 0b 11
        E 64 b0 0b 19
        E 16 b0 0b 22
        E 16 b0 0b 2a
        E 16 b0 0b 22
        E 16 b0 0b 19
        E 16 b0 0b 11
        E 64 b0 0b 19
        E 16 b0 0b 22
        E 16 b0 0b 2a
        E 16 b0 0b 22
        E 16 b0 0b 19
        E 16 b0 0b 11
        E 64 b0 0b 19
        E 16 b0 0b 22
        E 16 b0 0b 2a
        E 16 b0 0b 22
        E 16 b0 0b 19
        E 16 b0 0b 11
        E 64 b0 0b 19
        E 16 b0 0b 22
        E 16 b0 0b 2a
        E 16 b0 0b 22
        E 16 b0 0b 19
        E 16 b0 0b 11
        E 64 b0 0b 19
        E 16 b0 0b 22
        E 16 b0 0b 2a
        E 16 b0 0b 22
        E 16 b0 0b 19
        E 16 b0 0b 11
        E 64 b0 0b 19
        E 16 b0 0b 22
        E 16 b0 0b 2a
        E 16 b0 0b 22
        E 16 b0 0b 19
        E 16 b0 0b 11
        E 64 b0 0b 19
        E 16 b0 0b 22
        E 16 b0 0b 2a
        E 16 b0 0b 22
        E 16 b0 0b 19
        E 16 b0 0b 11
        E 64 b0 0b 19
        E 16 b0 0b 22
        E 16 b0 0b 2a
        E 16 b0 0b 22
        E 16 b0 0b 19
        E 16 b0 0b 11
        E 64 b0 0b 19
        E 16 b0 0b 22
        E 16 b0 0b 2a
        E 16 b0 0b 22
        E 16 b0 0b 19
        E 16 b0 0b 11
        E 64 b0 0b 19
        E 16 b0 0b 22
        E 16 b0 0b 2a
        E 16 b0 0b 22
        E 16 b0 0b 19
        E 16 b0 0b 11
        E 64 b0 0b 19
        E 16 b0 0b 22
        E 16 b0 0b 2a
        E 16 b0 0b 22
        E 16 b0 0b 19
        E 16 b0 0b 11
        E 64 b0 0b 19
        E 16 b0 0b 22
        E 16 b0 0b 2a
        E 16 b0 0b 22
        E 16 b0 0b 19
        E 16 b0 0b 11
        E 64 b0 0b 19
        E 16 b0 0b 22
        E 16 b0 0b 2a
        E 16 b0 0b 22
        E 16 b0 0b 19
        E 16 b0 0b 11
        E 64 b0 0b 19
        E 16 b0 0b 22
        E 16 b0 0b 2a
        E 16 b0 0b 22
        E 16 b0 0b 19
        E 16 b0 0b 11
        E 64 b0 0b 19
        E 16 b0 0b 22
        E 16 b0 0b 2a
        E 16 b0 0b 22
        E 16 b0 0b 19
        E 16 b0 0b 11
        E 64 b0 0b 19
        E 16 b0 0b 22
        E 16 b0 0b 2a
        E 16 b0 0b 22
        E 16 b0 0b 19
        E 16 b0 0b 11
        E 64 b0 0b 19
        E 16 b0 0b 22
        E 16 b0 0b 2a
        E 16 b0 0b 22
        E 16 b0 0b 19
        E 16 b0 0b 11
        E 64 b0 0b 19
        E 16 b0 0b 22
        E 16 b0 0b 2a
        E 16 b0 0b 22
        E 16 b0 0b 19
        E 16 b0 0b 11
        E 64 b0 0b 19
        E 16 b0 0b 22
        E 16 b0 0b 2a
        E 16 b0 0b 22
        E 16 b0 0b 19
        E 16 b0 0b 11
        E 64 b0 0b 19
        E 16 b0 0b 22
        E 16 b0 0b 2a
        E 16 b0 0b 22
        E 16 b0 0b 19
        E 16 b0 0b 11
        E 64 b0 0b 19
        E 16 b0 0b 22
        E 16 b0 0b 2a
        E 16 b0 0b 22
        E 16 b0 0b 19
        E 16 b0 0b 11
        E 64 b0 0b 19
        E 16 b0 0b 22
        E 16 b0 0b 2a
        E 16 b0 0b 22
        E 16 b0 0b 19
        E 16 b0 0b 11
        E 64 b0 0b 19
        E 16 b0 0b 22
        E 16 b0 0b 2a
        E 16 b0 0b 22
        E 16 b0 0b 19
        E 16 b0 0b 11
        E 64 b0 0b 19
        E 16 b0 0b 22
        E 16 b0 0b 2a
        E 16 b0 0b 22
        E 16 b0 0b 19
        E 16 b0 0b 11
        E 64 b0 0b 19
        E 16 b0 0b 22
        E 16 b0 0b 2a
        E 16 b0 0b 22
        E 16 b0 0b 19
        E 16 b0 0b 11
        E 64 b0 0b 19
        E 16 b0 0b 22
        E 16 b0 0b 2a
        E 16 b0 0b 22
        E 16 b0 0b 19
        E 16 b0 0b 11
        E 64 b0 0b 19
        E 16 b0 0b 22
        E 16 b0 0b 2a
        E 16 b0 0b 22
        E 16 b0 0b 19
        E 16 b0 0b 11
        E 64 b0 0b 19
        E 16 b0 0b 22
        E 16 b0 0b 2a
        E 16 b0 0b 22
        E 16 b0 0b 19
        E 16 b0 0b 11
        E 64 b0 0b 19
        E 16 b0 0b 22
        E 16 b0 0b 2a
        E 16 b0 0b 22
        E 16 b0 0b 19
        E 16 b0 0b 11
        E 64 b0 0b 19
        E 16 b0 0b 22
        E 16 b0 0b 2a
        E 16 b0 0b 22
        E 16 b0 0b 19
        E 16 b0 0b 11
        E 64 b0 0b 19
        E 16 b0 0b 22
        E 16 b0 0b 2a
        E 16 b0 0b 22
        E 16 b0 0b 19
        E 16 b0 0b 11
        E 64 b0 0b 19
        E 16 b0 0b 22
        E 16 b0 0b 2a
        E 16 b0 0b 22
        E 16 b0 0b 19
        E 16 b0 0b 11
        E 64 b0 0b 19
        E 16 b0 0b 22
        E 16 b0 0b 2a
        E 16 b0 0b 22
        E 16 b0 0b 19
        E 16 b0 0b 11
        E 64 b0 0b 19
        E 16 b0 0b 22
        E 16 b0 0b 2a
        E 16 b0 0b 22
        E 16 b0 0b 19
        E 16 b0 0b 11
        E 64 b0 0b 19
        E 16 b0 0b 22
        E 16 b0 0b 2a
        E 16 b0 0b 22
        E 16 b0 0b 19
        E 16 b0 0b 11
        E 64 b0 0b 19
        E 16 b0 0b 22
        E 16 b0 0b 2a
        E 16 b0 0b 22
        E 16 b0 0b 19
        E 16 b0 0b 11
        E 64 b0 0b 19
        E 16 b0 0b 22
        E 16 b0 0b 2a
        E 16 b0 0b 22
        E 16 b0 0b 19
        E 16 b0 0b 11
        E 64 b0 0b 19
        E 16 b0 0b 22
        E 16 b0 0b 2a
        E 16 b0 0b 22
        E 16 b0 0b 19
        E 16 b0 0b 11
        E 64 b0 0b 19
        E 16 b0 0b 22
        E 16 b0 0b 2a
        E 16 b0 0b 22
        E 16 b0 0b 19
        E 16 b0 0b 11
        E 64 b0 0b 19
        E 16 b0 0b 22
        E 16 b0 0b 2a
        E 16 b0 0b 22
        E 16 b0 0b 19
        E 16 b0 0b 11
        E 64 b0 0b 19
        E 16 b0 0b 22
        E 16 b0 0b 2a
        E 16 b0 0b 22
        E 16 b0 0b 19
        E 16 b0 0b 11
        E 64 b0 0b 19
        E 16 b0 0b 22
        E 16 b0 0b 2a
        E 16 b0 0b 22
        E 16 b0 0b 19
        E 16 b0 0b 11
        E 64 b0 0b 19
        E 16 b0 0b 22
        E 16 b0 0b 2a
        E 16 b0 0b 22
        E 16 b0 0b 19
        E 16 b0 0b 11
        E 64 b0 0b 19
        E 16 b0 0b 22
        E 16 b0 0b 2a
        E 16 b0 0b 22
        E 16 b0 0b 19
        E 16 b0 0b 11
        E 64 b0 0b 19
        E 16 b0 0b 22
        E 16 b0 0b 2a
        E 16 b0 0b 22
        E 16 b0 0b 19
        E 16 b0 0b 11
        E 64 b0 0b 19
        E 16 b0 0b 22
        E 16 b0 0b 2a
        E 16 b0 0b 22
        E 16 b0 0b 19
        E 16 b0 0b 11
        E 64 b0 0b 19
        E 16 b0 0b 22
        E 16 b0 0b 2a
        E 16 b0 0b 22
        E 16 b0 0b 19
        E 16 b0 0b 11
        E 64 b0 0b 19
        E 16 b0 0b 22
        E 16 b0 0b 2a
        E 16 b0 0b 22
        E 16 b0 0b 19
        E 16 b0 0b 11
        E 64 b0 0b 19
        E 16 b0 0b 22
        E 16 b0 0b 2a
        E 16 b0 0b 22
        E 16 b0 0b 19
        E 16 b0 0b 11
        E 64 b0 0b 19
        E 16 b0 0b 22
        E 16 b0 0b 2a
        E 16 b0 0b 22
        E 16 b0 0b 19
        E 16 b0 0b 11
        E 64 b0 0b 19
        E 16 b0 0b 22
        E 16 b0 0b 2a
        E 16 b0 0b 22
        E 16 b0 0b 19
        E 16 b0 0b 11
        E 64 b0 0b 19
        E 16 b0 0b 22
        E 16 b0 0b 2a
        E 16 b0 0b 22
        E 16 b0 0b 19
        E 16 b0 0b 11
        E 64 b0 0b 19
        E 16 b0 0b 22
        E 16 b0 0b 2a
        E 16 b0 0b 22
        E 16 b0 0b 19
        E 16 b0 0b 11
        E 64 b0 0b 19
        E 16 b0 0b 22
        E 16 b0 0b 2a
        E 16 b0 0b 22
        E 16 b0 0b 19
        E 16 b0 0b 11
        E 64 b0 0b 19
        E 16 b0 0b 22
        E 16 b0 0b 2a
        E 16 b0 0b 22
        E 16 b0 0b 19
        E 16 b0 0b 11
        E 64 b0 0b 19
        E 16 b0 0b 22
        E 16 b0 0b 2a
        E 16 b0 0b 22
        E 16 b0 0b 19
        E 16 b0 0b 11
        E 64 b0 0b 19
        E 16 b0 0b 22
        E 16 b0 0b 2a
        E 16 b0 0b 22
        E 16 b0 0b 19
        E 16 b0 0b 11
        E 64 b0 0b 19
        E 16 b0 0b 22
        E 16 b0 0b 2a
        E 16 b0 0b 22
        E 16 b0 0b 19
        E 16 b0 0b 11
        E 64 b0 0b 19
        E 16 b0 0b 22
        E 16 b0 0b 2a
        E 16 b0 0b 22
        E 16 b0 0b 19
        E 16 b0 0b 11
        E 64 b0 0b 19
        E 16 b0 0b 22
        E 16 b0 0b 2a
        E 16 b0 0b 22
        E 16 b0 0b 19
        E 16 b0 0b 11
        E 64 b0 0b 19
        E 16 b0 0b 22
        E 16 b0 0b 2a
        E 16 b0 0b 22
        E 16 b0 0b 19
        E 16 b0 0b 11
        E 64 b0 0b 19
        E 16 b0 0b 22
        E 16 b0 0b 2a
        E 16 b0 0b 22
        E 16 b0 0b 19
        E 16 b0 0b 11
        E 64 b0 0b 19
        E 16 b0 0b 22
        E 16 b0 0b 2a
        E 16 b0 0b 22
        E 16 b0 0b 19
        E 16 b0 0b 11
        E 64 b0 0b 19
        E 16 b0 0b 22
        E 16 b0 0b 2a
        E 16 b0 0b 22
        E 16 b0 0b 19
        E 16 b0 0b 11
        E 64 b0 0b 19
        E 16 b0 0b 22
        E 16 b0 0b 2a
        E 16 b0 0b 22
        E 16 b0 0b 19
        E 16 b0 0b 11
        E 64 b0 0b 19
        E 16 b0 0b 22
        E 16 b0 0b 2a
        E 16 b0 0b 22
        E 16 b0 0b 19
        E 16 b0 0b 11
        E 64 b0 0b 19
        E 16 b0 0b 22
        E 16 b0 0b 2a
        E 16 b0 0b 22
        E 16 b0 0b 19
        E 16 b0 0b 11
        E 64 b0 0b 19
        E 16 b0 0b 22
        E 16 b0 0b 2a
        E 16 b0 0b 22
        E 16 b0 0b 19
        E 16 b0 0b 11
        E 64 b0 0b 19
        E 16 b0 0b 22
        E 16 b0 0b 2a
        E 16 b0 0b 22
        E 16 b0 0b 19
        E 16 b0 0b 11
        E 64 b0 0b 19
        E 16 b0 0b 22
        E 16 b0 0b 2a
        E 16 b0 0b 22
        E 16 b0 0b 19
        E 16 b0 0b 11
        E 64 b0 0b 19
        E 16 b0 0b 22
        E 16 b0 0b 2a
        E 16 b0 0b 22
        E 16 b0 0b 19
        E 16 b0 0b 11
        E 64 b0 0b 19
        E 16 b0 0b 22
        E 16 b0 0b 2a
        E 16 b0 0b 22
        E 16 b0 0b 19
        E 16 b0 0b 11
        E 64 b0 0b 19
        E 16 b0 0b 22
        E 16 b0 0b 2a
        E 16 b0 0b 22
        E 16 b0 0b 19
        E 16 b0 0b 11
        E 64 b0 0b 19
        E 16 b0 0b 22
        E 16 b0 0b 2a
        E 16 b0 0b 22
        E 16 b0 0b 19
        E 16 b0 0b 11
        E 64 b0 0b 19
        E 16 b0 0b 22
        E 16 b0 0b 2a
        E 16 b0 0b 22
        E 16 b0 0b 19
        E 16 b0 0b 11
        E 64 b0 0b 19
        E 16 b0 0b 22
        E 16 b0 0b 2a
        E 16 b0 0b 22
        E 16 b0 0b 19
        E 16 b0 0b 11
        E 64 b0 0b 19
        E 16 b0 0b 22
        E 16 b0 0b 2a
        E 16 b0 0b 22
        E 16 b0 0b 19
        E 16 b0 0b 11
        E 64 b0 0b 19
        E 16 b0 0b 22
        E 16 b0 0b 2a
        E 16 b0 0b 22
        E 16 b0 0b 19
        E 16 b0 0b 11
        E 64 b0 0b 19
        E 16 b0 0b 22
        E 16 b0 0b 2a
        E 16 b0 0b 22
        E 16 b0 0b 19
        E 16 b0 0b 11
        E 64 b0 0b 19
        E 16 b0 0b 22
        E 16 b0 0b 2a
        E 16 b0 0b 22
        E 16 b0 0b 19
        E 16 b0 0b 11
        E 64 b0 0b 19
        E 16 b0 0b 22
        E 16 b0 0b 2a
        E 16 b0 0b 22
        E 16 b0 0b 19
        E 16 b0 0b 11
        E 64 b0 0b 19
        E 16 b0 0b 22
        E 16 b0 0b 2a
        E 16 b0 0b 22
        E 16 b0 0b 19
        E 16 b0 0b 11
        E 64 b0 0b 19
        E 16 b0 0b 22
        E 16 b0 0b 2a
        E 16 b0 0b 22
        E 16 b0 0b 19
        E 16 b0 0b 11
        E 64 b0 0b 19
        E 16 b0 0b 22
        E 16 b0 0b 2a
        E 16 b0 0b 22
        E 16 b0 0b 19
        E 16 b0 0b 11
        E 64 b0 0b 19
        E 16 b0 0b 22
        E 16 b0 0b 2a
        E 16 b0 0b 22
        E 16 b0 0b 19
        E 16 b0 0b 11
        E 64 b0 0b 19
        E 16 b0 0b 22
        E 16 b0 0b 2a
        E 16 b0 0b 22
        E 16 b0 0b 19
        E 16 b0 0b 11
        E 64 b0 0b 19
        E 16 b0 0b 22
        E 16 b0 0b 2a
        E 16 b0 0b 22
        E 16 b0 0b 19
        E 16 b0 0b 11
        E 64 b0 0b 19
        E 16 b0 0b 22
        E 16 b0 0b 2a
        E 16 b0 0b 22
        E 16 b0 0b 19
        E 16 b0 0b 11
        E 64 b0 0b 19
        E 16 b0 0b 22
        E 16 b0 0b 2a
        E 16 b0 0b 22
        E 16 b0 0b 19
        E 16 b0 0b 11
        E 64 b0 0b 19
        E 16 b0 0b 22
        E 16 b0 0b 2a
        E 16 b0 0b 22
        E 16 b0 0b 19
        E 16 b0 0b 11
        E 64 b0 0b 19
        E 16 b0 0b 22
        E 16 b0 0b 2a
        E 16 b0 0b 22
        E 16 b0 0b 19
        E 16 b0 0b 11
        E 64 b0 0b 19
        E 16 b0 0b 22
        E 16 b0 0b 2a
        E 16 b0 0b 22
        E 16 b0 0b 19
        E 16 b0 0b 11
        E 64 b0 0b 19
        E 16 b0 0b 22
        E 16 b0 0b 2a
        E 16 b0 0b 22
        E 16 b0 0b 19
        E 16 b0 0b 11
        E 64 b0 0b 19
        E 0 80 35 00
        E 0 90 43 19
        E 192 b0 0b 22
        E 192 b0 0b 2a
        E 192 b0 0b 33
        E 192 b0 0b 3b
        E 192 b0 0b 44
        E 192 b0 0b 3b
        E 192 b0 0b 33
        E 192 b0 0b 2a
        E 192 b0 0b 22
        E 192 b0 0b 19
        E 576 b0 0b 22
        E 192 b0 0b 2a
        E 192 b0 0b 33
        E 192 b0 0b 3b
        E 192 b0 0b 44
        E 192 b0 0b 3b
        E 192 b0 0b 33
        E 192 b0 0b 2a
        E 192 b0 0b 22
        E 192 b0 0b 19
        E 576 b0 0b 22
        E 192 b0 0b 2a
        E 192 b0 0b 33
        E 192 b0 0b 3b
        E 192 b0 0b 44
        E 192 b0 0b 3b
        E 192 b0 0b 33
        E 192 b0 0b 2a
        E 192 b0 0b 22
        E 192 b0 0b 19
        E 576 b0 0b 22
        E 192 b0 0b 2a
        E 192 b0 0b 33
        E 192 b0 0b 3b
        E 192 b0 0b 44
        E 192 b0 0b 3b
        E 192 b0 0b 33
        E 192 b0 0b 2a
        E 192 b0 0b 22
        E 192 b0 0b 19
        E 384 80 43 00
        E 0 90 35 19
        E 16 b0 0b 22
        E 16 b0 0b 2a
        E 16 b0 0b 22
        E 16 b0 0b 19
        E 16 b0 0b 11
        E 64 b0 0b 19
        E 16 b0 0b 22
        E 16 b0 0b 2a
        E 16 b0 0b 22
        E 16 b0 0b 19
        E 16 b0 0b 11
        E 64 b0 0b 19
        E 16 b0 0b 22
        E 16 b0 0b 2a
        E 16 b0 0b 22
        E 16 b0 0b 19
        E 16 b0 0b 11
        E 64 b0 0b 19
        E 16 b0 0b 22
        E 16 b0 0b 2a
        E 16 b0 0b 22
        E 16 b0 0b 19
        E 16 b0 0b 11
        E 64 b0 0b 19
        E 16 b0 0b 22
        E 16 b0 0b 2a
        E 16 b0 0b 22
        E 16 b0 0b 19
        E 16 b0 0b 11
        E 64 b0 0b 19
        E 16 b0 0b 22
        E 16 b0 0b 2a
        E 16 b0 0b 22
        E 16 b0 0b 19
        E 16 b0 0b 11
        E 64 b0 0b 19
        E 16 b0 0b 22
        E 16 b0 0b 2a
        E 16 b0 0b 22
        E 16 b0 0b 19
        E 16 b0 0b 11
        E 64 b0 0b 19
        E 16 b0 0b 22
        E 16 b0 0b 2a
        E 16 b0 0b 22
        E 16 b0 0b 19
        E 16 b0 0b 11
        E 64 b0 0b 19
        E 16 b0 0b 22
        E 16 b0 0b 2a
        E 16 b0 0b 22
        E 16 b0 0b 19
        E 16 b0 0b 11
        E 64 b0 0b 19
        E 16 b0 0b 22
        E 16 b0 0b 2a
        E 16 b0 0b 22
        E 16 b0 0b 19
        E 16 b0 0b 11
        E 64 b0 0b 19
        E 16 b0 0b 22
        E 16 b0 0b 2a
        E 16 b0 0b 22
        E 16 b0 0b 19
        E 16 b0 0b 11
        E 64 b0 0b 19
        E 16 b0 0b 22
        E 16 b0 0b 2a
        E 16 b0 0b 22
        E 16 b0 0b 19
        E 16 b0 0b 11
        E 64 b0 0b 19
        E 16 b0 0b 22
        E 16 b0 0b 2a
        E 16 b0 0b 22
        E 16 b0 0b 19
        E 16 b0 0b 11
        E 64 b0 0b 19
        E 16 b0 0b 22
        E 16 b0 0b 2a
        E 16 b0 0b 22
        E 16 b0 0b 19
        E 16 b0 0b 11
        E 64 b0 0b 19
        E 16 b0 0b 22
        E 16 b0 0b 2a
        E 16 b0 0b 22
        E 16 b0 0b 19
        E 16 b0 0b 11
        E 64 b0 0b 19
        E 16 b0 0b 22
        E 16 b0 0b 2a
        E 16 b0 0b 22
        E 16 b0 0b 19
        E 16 b0 0b 11
        E 64 b0 0b 19
        E 16 b0 0b 22
        E 16 b0 0b 2a
        E 16 b0 0b 22
        E 16 b0 0b 19
        E 16 b0 0b 11
        E 64 b0 0b 19
        E 16 b0 0b 22
        E 16 b0 0b 2a
        E 16 b0 0b 22
        E 16 b0 0b 19
        E 16 b0 0b 11
        E 64 b0 0b 19
        E 16 b0 0b 22
        E 16 b0 0b 2a
        E 16 b0 0b 22
        E 16 b0 0b 19
        E 16 b0 0b 11
        E 64 b0 0b 19
        E 16 b0 0b 22
        E 16 b0 0b 2a
        E 16 b0 0b 22
        E 16 b0 0b 19
        E 16 b0 0b 11
        E 64 b0 0b 19
        E 16 b0 0b 22
        E 16 b0 0b 2a
        E 16 b0 0b 22
        E 16 b0 0b 19
        E 16 b0 0b 11
        E 64 b0 0b 19
        E 16 b0 0b 22
        E 16 b0 0b 2a
        E 16 b0 0b 22
        E 16 b0 0b 19
        E 16 b0 0b 11
        E 64 b0 0b 19
        E 16 b0 0b 22
        E 16 b0 0b 2a
        E 16 b0 0b 22
        E 16 b0 0b 19
        E 16 b0 0b 11
        E 64 b0 0b 19
        E 16 b0 0b 22
        E 16 b0 0b 2a
        E 16 b0 0b 22
        E 16 b0 0b 19
        E 16 b0 0b 11
        E 64 b0 0b 19
        E 16 b0 0b 22
        E 16 b0 0b 2a
        E 16 b0 0b 22
        E 16 b0 0b 19
        E 16 b0 0b 11
        E 64 b0 0b 19
        E 16 b0 0b 22
        E 16 b0 0b 2a
        E 16 b0 0b 22
        E 16 b0 0b 19
        E 16 b0 0b 11
        E 64 b0 0b 19
        E 16 b0 0b 22
        E 16 b0 0b 2a
        E 16 b0 0b 22
        E 16 b0 0b 19
        E 16 b0 0b 11
        E 64 b0 0b 19
        E 16 b0 0b 22
        E 16 b0 0b 2a
        E 16 b0 0b 22
        E 16 b0 0b 19
        E 16 b0 0b 11
        E 64 b0 0b 19
        E 16 b0 0b 22
        E 16 b0 0b 2a
        E 16 b0 0b 22
        E 16 b0 0b 19
        E 16 b0 0b 11
        E 64 b0 0b 19
        E 16 b0 0b 22
        E 16 b0 0b 2a
        E 16 b0 0b 22
        E 16 b0 0b 19
        E 16 b0 0b 11
        E 64 b0 0b 19
        E 16 b0 0b 22
        E 16 b0 0b 2a
        E 16 b0 0b 22
        E 16 b0 0b 19
        E 16 b0 0b 11
        E 64 b0 0b 19
        E 16 b0 0b 22
        E 16 b0 0b 2a
        E 16 b0 0b 22
        E 16 b0 0b 19
        E 16 b0 0b 11
        E 64 b0 0b 19
        E 16 b0 0b 22
        E 16 b0 0b 2a
        E 16 b0 0b 22
        E 16 b0 0b 19
        E 16 b0 0b 11
        E 64 b0 0b 19
        E 16 b0 0b 22
        E 16 b0 0b 2a
        E 16 b0 0b 22
        E 16 b0 0b 19
        E 16 b0 0b 11
        E 64 b0 0b 19
        E 16 b0 0b 22
        E 16 b0 0b 2a
        E 16 b0 0b 22
        E 16 b0 0b 19
        E 16 b0 0b 11
        E 64 b0 0b 19
        E 16 b0 0b 22
        E 16 b0 0b 2a
        E 16 b0 0b 22
        E 16 b0 0b 19
        E 16 b0 0b 11
        E 64 b0 0b 19
        E 16 b0 0b 22
        E 16 b0 0b 2a
        E 16 b0 0b 22
        E 16 b0 0b 19
        E 16 b0 0b 11
        E 64 b0 0b 19
        E 16 b0 0b 22
        E 16 b0 0b 2a
        E 16 b0 0b 22
        E 16 b0 0b 19
        E 16 b0 0b 11
        E 64 b0 0b 19
        E 16 b0 0b 22
        E 16 b0 0b 2a
        E 16 b0 0b 22
        E 16 b0 0b 19
        E 16 b0 0b 11
        E 64 b0 0b 19
        E 16 b0 0b 22
        E 16 b0 0b 2a
        E 16 b0 0b 22
        E 16 b0 0b 19
        E 16 b0 0b 11
        E 64 b0 0b 19
        E 16 b0 0b 22
        E 16 b0 0b 2a
        E 16 b0 0b 22
        E 16 b0 0b 19
        E 16 b0 0b 11
        E 64 b0 0b 19
        E 16 b0 0b 22
        E 16 b0 0b 2a
        E 16 b0 0b 22
        E 16 b0 0b 19
        E 16 b0 0b 11
        E 64 b0 0b 19
        E 16 b0 0b 22
        E 16 b0 0b 2a
        E 16 b0 0b 22
        E 16 b0 0b 19
        E 16 b0 0b 11
        E 64 b0 0b 19
        E 16 b0 0b 22
        E 16 b0 0b 2a
        E 16 b0 0b 22
        E 16 b0 0b 19
        E 16 b0 0b 11
        E 64 b0 0b 19
        E 16 b0 0b 22
        E 16 b0 0b 2a
        E 16 b0 0b 22
        E 16 b0 0b 19
        E 16 b0 0b 11
        E 64 b0 0b 19
        E 16 b0 0b 22
        E 16 b0 0b 2a
        E 16 b0 0b 22
        E 16 b0 0b 19
        E 16 b0 0b 11
        E 64 b0 0b 19
        E 16 b0 0b 22
        E 16 b0 0b 2a
        E 16 b0 0b 22
        E 16 b0 0b 19
        E 16 b0 0b 11
        E 64 b0 0b 19
        E 16 b0 0b 22
        E 16 b0 0b 2a
        E 16 b0 0b 22
        E 16 b0 0b 19
        E 16 b0 0b 11
        E 64 b0 0b 19
        E 16 b0 0b 22
        E 16 b0 0b 2a
        E 16 b0 0b 22
        E 16 b0 0b 19
        E 16 b0 0b 11
        E 64 b0 0b 19
        E 16 b0 0b 22
        E 16 b0 0b 2a
        E 16 b0 0b 22
        E 16 b0 0b 19
        E 16 b0 0b 11
        E 64 b0 0b 19
        E 16 b0 0b 22
        E 16 b0 0b 2a
        E 16 b0 0b 22
        E 16 b0 0b 19
        E 16 b0 0b 11
        E 64 b0 0b 19
        E 16 b0 0b 22
        E 16 b0 0b 2a
        E 16 b0 0b 22
        E 16 b0 0b 19
        E 16 b0 0b 11
        E 64 b0 0b 19
        E 16 b0 0b 22
        E 16 b0 0b 2a
        E 16 b0 0b 22
        E 16 b0 0b 19
        E 16 b0 0b 11
        E 64 b0 0b 19
        E 16 b0 0b 22
        E 16 b0 0b 2a
        E 16 b0 0b 22
        E 16 b0 0b 19
        E 16 b0 0b 11
        E 64 b0 0b 19
        E 16 b0 0b 22
        E 16 b0 0b 2a
        E 16 b0 0b 22
        E 16 b0 0b 19
        E 16 b0 0b 11
        E 64 b0 0b 19
        E 16 b0 0b 22
        E 16 b0 0b 2a
        E 16 b0 0b 22
        E 16 b0 0b 19
        E 16 b0 0b 11
        E 64 b0 0b 19
        E 16 b0 0b 22
        E 16 b0 0b 2a
        E 16 b0 0b 22
        E 16 b0 0b 19
        E 16 b0 0b 11
        E 64 b0 0b 19
        E 16 b0 0b 22
        E 16 b0 0b 2a
        E 16 b0 0b 22
        E 16 b0 0b 19
        E 16 b0 0b 11
        E 64 b0 0b 19
        E 16 b0 0b 22
        E 16 b0 0b 2a
        E 16 b0 0b 22
        E 16 b0 0b 19
        E 16 b0 0b 11
        E 64 b0 0b 19
        E 16 b0 0b 22
        E 16 b0 0b 2a
        E 16 b0 0b 22
        E 16 b0 0b 19
        E 16 b0 0b 11
        E 64 b0 0b 19
        E 16 b0 0b 22
        E 16 b0 0b 2a
        E 16 b0 0b 22
        E 16 b0 0b 19
        E 16 b0 0b 11
        E 64 b0 0b 19
        E 16 b0 0b 22
        E 16 b0 0b 2a
        E 16 b0 0b 22
        E 16 b0 0b 19
        E 16 b0 0b 11
        E 64 b0 0b 19
        E 16 b0 0b 22
        E 16 b0 0b 2a
        E 16 b0 0b 22
        E 16 b0 0b 19
        E 16 b0 0b 11
        E 64 b0 0b 19
        E 16 b0 0b 22
        E 16 b0 0b 2a
        E 16 b0 0b 22
        E 16 b0 0b 19
        E 16 b0 0b 11
        E 64 b0 0b 19
        E 16 b0 0b 22
        E 16 b0 0b 2a
        E 16 b0 0b 22
        E 16 b0 0b 19
        E 16 b0 0b 11
        E 64 b0 0b 19
        E 16 b0 0b 22
        E 16 b0 0b 2a
        E 16 b0 0b 22
        E 16 b0 0b 19
        E 16 b0 0b 11
        E 64 b0 0b 19
        E 16 b0 0b 22
        E 16 b0 0b 2a
        E 16 b0 0b 22
        E 16 b0 0b 19
        E 16 b0 0b 11
        E 64 b0 0b 19
        E 16 b0 0b 22
        E 16 b0 0b 2a
        E 16 b0 0b 22
        E 16 b0 0b 19
        E 16 b0 0b 11
        E 64 b0 0b 19
        E 16 b0 0b 22
        E 16 b0 0b 2a
        E 16 b0 0b 22
        E 16 b0 0b 19
        E 16 b0 0b 11
        E 64 b0 0b 19
        E 16 b0 0b 22
        E 16 b0 0b 2a
        E 16 b0 0b 22
        E 16 b0 0b 19
        E 16 b0 0b 11
        E 64 b0 0b 19
        E 16 b0 0b 22
        E 16 b0 0b 2a
        E 16 b0 0b 22
        E 16 b0 0b 19
        E 16 b0 0b 11
        E 64 b0 0b 19
        E 16 b0 0b 22
        E 16 b0 0b 2a
        E 16 b0 0b 22
        E 16 b0 0b 19
        E 16 b0 0b 11
        E 64 b0 0b 19
        E 16 b0 0b 22
        E 16 b0 0b 2a
        E 16 b0 0b 22
        E 16 b0 0b 19
        E 16 b0 0b 11
        E 64 b0 0b 19
        E 16 b0 0b 22
        E 16 b0 0b 2a
        E 16 b0 0b 22
        E 16 b0 0b 19
        E 16 b0 0b 11
        E 64 b0 0b 19
        E 16 b0 0b 22
        E 16 b0 0b 2a
        E 16 b0 0b 22
        E 16 b0 0b 19
        E 16 b0 0b 11
        E 64 b0 0b 19
        E 16 b0 0b 22
        E 16 b0 0b 2a
        E 16 b0 0b 22
        E 16 b0 0b 19
        E 16 b0 0b 11
        E 64 b0 0b 19
        E 16 b0 0b 22
        E 16 b0 0b 2a
        E 16 b0 0b 22
        E 16 b0 0b 19
        E 16 b0 0b 11
        E 64 b0 0b 19
        E 16 b0 0b 22
        E 16 b0 0b 2a
        E 16 b0 0b 22
        E 16 b0 0b 19
        E 16 b0 0b 11
        E 64 b0 0b 19
        E 16 b0 0b 22
        E 16 b0 0b 2a
        E 16 b0 0b 22
        E 16 b0 0b 19
        E 16 b0 0b 11
        E 64 b0 0b 19
        E 16 b0 0b 22
        E 16 b0 0b 2a
        E 16 b0 0b 22
        E 16 b0 0b 19
        E 16 b0 0b 11
        E 64 b0 0b 19
        E 16 b0 0b 22
        E 16 b0 0b 2a
        E 16 b0 0b 22
        E 16 b0 0b 19
        E 16 b0 0b 11
        E 64 b0 0b 19
        E 16 b0 0b 22
        E 16 b0 0b 2a
        E 16 b0 0b 22
        E 16 b0 0b 19
        E 16 b0 0b 11
        E 64 b0 0b 19
        E 16 b0 0b 22
        E 16 b0 0b 2a
        E 16 b0 0b 22
        E 16 b0 0b 19
        E 16 b0 0b 11
        E 64 b0 0b 19
        E 16 b0 0b 22
        E 16 b0 0b 2a
        E 16 b0 0b 22
        E 16 b0 0b 19
        E 16 b0 0b 11
        E 64 b0 0b 19
        E 16 b0 0b 22
        E 16 b0 0b 2a
        E 16 b0 0b 22
        E 16 b0 0b 19
        E 16 b0 0b 11
        E 64 b0 0b 19
        E 16 b0 0b 22
        E 16 b0 0b 2a
        E 16 b0 0b 22
        E 16 b0 0b 19
        E 16 b0 0b 11
        E 64 b0 0b 19
        E 16 b0 0b 22
        E 16 b0 0b 2a
        E 16 b0 0b 22
        E 16 b0 0b 19
        E 16 b0 0b 11
        E 64 b0 0b 19
        E 16 b0 0b 22
        E 16 b0 0b 2a
        E 16 b0 0b 22
        E 16 b0 0b 19
        E 16 b0 0b 11
        E 64 b0 0b 19
        E 16 b0 0b 22
        E 16 b0 0b 2a
        E 16 b0 0b 22
        E 16 b0 0b 19
        E 16 b0 0b 11
        E 64 b0 0b 19
        E 16 b0 0b 22
        E 16 b0 0b 2a
        E 16 b0 0b 22
        E 16 b0 0b 19
        E 16 b0 0b 11
        E 64 b0 0b 19
        E 16 b0 0b 22
        E 16 b0 0b 2a
        E 16 b0 0b 22
        E 16 b0 0b 19
        E 16 b0 0b 11
        E 64 b0 0b 19
        E 16 b0 0b 22
        E 16 b0 0b 2a
        E 16 b0 0b 22
        E 16 b0 0b 19
        E 16 b0 0b 11
        E 64 b0 0b 19
        E 16 b0 0b 22
        E 16 b0 0b 2a
        E 16 b0 0b 22
        E 16 b0 0b 19
        E 16 b0 0b 11
        E 64 b0 0b 19
        E 16 b0 0b 22
        E 16 b0 0b 2a
        E 16 b0 0b 22
        E 16 b0 0b 19
        E 16 b0 0b 11
        E 64 b0 0b 19
        E 16 b0 0b 22
        E 16 b0 0b 2a
        E 16 b0 0b 22
        E 16 b0 0b 19
        E 16 b0 0b 11
        E 64 b0 0b 19
        E 16 b0 0b 22
        E 16 b0 0b 2a
        E 16 b0 0b 22
        E 16 b0 0b 19
        E 16 b0 0b 11
        E 64 b0 0b 19
        E 16 b0 0b 22
        E 16 b0 0b 2a
        E 16 b0 0b 22
        E 16 b0 0b 19
        E 16 b0 0b 11
        E 64 b0 0b 19
        E 16 b0 0b 22
        E 16 b0 0b 2a
        E 16 b0 0b 22
        E 16 b0 0b 19
        E 16 b0 0b 11
        E 64 b0 0b 19
        E 16 b0 0b 22
        E 16 b0 0b 2a
        E 16 b0 0b 22
        E 16 b0 0b 19
        E 16 b0 0b 11
        E 64 b0 0b 19
        E 16 b0 0b 22
        E 16 b0 0b 2a
        E 16 b0 0b 22
        E 16 b0 0b 19
        E 16 b0 0b 11
        E 64 b0 0b 19
        E 16 b0 0b 22
        E 16 b0 0b 2a
        E 16 b0 0b 22
        E 16 b0 0b 19
        E 16 b0 0b 11
        E 64 b0 0b 19
        E 16 b0 0b 22
        E 16 b0 0b 2a
        E 16 b0 0b 22
        E 16 b0 0b 19
        E 16 b0 0b 11
        E 64 b0 0b 19
        E 16 b0 0b 22
        E 16 b0 0b 2a
        E 16 b0 0b 22
        E 16 b0 0b 19
        E 16 b0 0b 11
        E 64 b0 0b 19
        E 16 b0 0b 22
        E 16 b0 0b 2a
        E 16 b0 0b 22
        E 16 b0 0b 19
        E 16 b0 0b 11
        E 64 b0 0b 19
        E 16 b0 0b 22
        E 16 b0 0b 2a
        E 16 b0 0b 22
        E 16 b0 0b 19
        E 16 b0 0b 11
        E 64 b0 0b 19
        E 16 b0 0b 22
        E 16 b0 0b 2a
        E 16 b0 0b 22
        E 16 b0 0b 19
        E 16 b0 0b 11
        E 64 b0 0b 19
        E 16 b0 0b 22
        E 16 b0 0b 2a
        E 16 b0 0b 22
        E 16 b0 0b 19
        E 16 b0 0b 11
        E 64 b0 0b 19
        E 16 b0 0b 22
        E 16 b0 0b 2a
        E 16 b0 0b 22
        E 16 b0 0b 19
        E 16 b0 0b 11
        E 64 b0 0b 19
        E 16 b0 0b 22
        E 16 b0 0b 2a
        E 16 b0 0b 22
        E 16 b0 0b 19
        E 16 b0 0b 11
        E 64 b0 0b 19
        E 16 b0 0b 22
        E 16 b0 0b 2a
        E 16 b0 0b 22
        E 16 b0 0b 19
        E 16 b0 0b 11
        E 64 b0 0b 19
        E 16 b0 0b 22
        E 16 b0 0b 2a
        E 16 b0 0b 22
        E 16 b0 0b 19
        E 16 b0 0b 11
        E 64 b0 0b 19
        E 16 b0 0b 22
        E 16 b0 0b 2a
        E 16 b0 0b 22
        E 16 b0 0b 19
        E 16 b0 0b 11
        E 64 b0 0b 19
        E 16 b0 0b 22
        E 16 b0 0b 2a
        E 16 b0 0b 22
        E 16 b0 0b 19
        E 16 b0 0b 11
        E 64 b0 0b 19
        E 16 b0 0b 22
        E 16 b0 0b 2a
        E 16 b0 0b 22
        E 16 b0 0b 19
        E 16 b0 0b 11
        E 64 b0 0b 19
        E 16 b0 0b 22
        E 16 b0 0b 2a
        E 16 b0 0b 22
        E 16 b0 0b 19
        E 16 b0 0b 11
        E 64 b0 0b 19
        E 16 b0 0b 22
        E 16 b0 0b 2a
        E 16 b0 0b 22
        E 16 b0 0b 19
        E 16 b0 0b 11
        E 64 b0 0b 19
        E 16 b0 0b 22
        E 16 b0 0b 2a
        E 16 b0 0b 22
        E 16 b0 0b 19
        E 16 b0 0b 11
        E 64 b0 0b 19
        E 16 b0 0b 22
        E 16 b0 0b 2a
        E 16 b0 0b 22
        E 16 b0 0b 19
        E 16 b0 0b 11
        E 64 b0 0b 19
        E 16 b0 0b 22
        E 16 b0 0b 2a
        E 16 b0 0b 22
        E 16 b0 0b 19
        E 16 b0 0b 11
        E 64 b0 0b 19
        E 16 b0 0b 22
        E 16 b0 0b 2a
        E 16 b0 0b 22
        E 16 b0 0b 19
        E 16 b0 0b 11
        E 64 b0 0b 19
        E 16 b0 0b 22
        E 16 b0 0b 2a
        E 16 b0 0b 22
        E 16 b0 0b 19
        E 16 b0 0b 11
        E 32 80 35 00
        E 0 b0 7b 00
        E 0 ff 2f 00
      >
    >
  >
  <TRACK {8281CB30-4B7C-463E-AA0B-BFDAACDE3AB4}
    NAME "NES - Pulse 2 [ch1]"
    PEAKCOL 10092441
    BEAT -1
    AUTOMODE 0
    PANLAWFLAGS 3
    VOLPAN 1 0 -1 -1 1
    MUTESOLO 0 0 0
    IPHASE 0
    PLAYOFFS 0 1
    ISBUS 0 0
    BUSCOMP 0 0 0 0 0
    SHOWINMIX 1 0.6667 0.5 1 0.5 0 0 0
    FIXEDLANES 9 0 0 0 0
    SEL 0
    REC 0 5088 1 0 0 0 0 0
    VU 2
    TRACKHEIGHT 0 0 0 0 0 0 0
    INQ 0 0 0 0.5 100 0 0 100
    NCHAN 2
    FX 1
    TRACKID {8281CB30-4B7C-463E-AA0B-BFDAACDE3AB4}
    PERF 0
    MIDIOUT -1
    MAINSEND 1 0
    <FXCHAIN
      WNDRECT 24 52 700 560
      SHOW 0
      LASTSEL 0
      DOCKED 0
      BYPASS 0 0 0
      <JS "ReapNES Studio/ReapNES_Console.jsfx" ""
        2 15 1 10 80 10 100 2 1 15 1 5 60 10 80 1 1 0 50 0 0 15 1 0 100 0 0 0.500000 0.500000 0.400000 0.300000 0.800000 1 1 0 0 0 0 - - - - - - - - - - - - - - - - - - - - - - - - - -
      >
      FLOATPOS 0 0 0 0
      FXID {F6F1BEAF-C1AB-42A5-99EE-194D17FDDB75}
      WAK 0 0
    >
    <ITEM
      POSITION 0
      LENGTH 70.6687424
      LOOP 0
      ALLTAKES 0
      FADEIN 0 0 0 0 0 0 0
      FADEOUT 0 0 0 0 0 0 0
      MUTE 0 0
      SEL 0
      IGUID {71F965E8-7174-4B7C-A0C3-34803DB15A57}
      <SOURCE MIDI
        HASDATA 1 480 QN
        CCINTERP 32
        E 0 c1 51
        E 0 b1 0c 40
        E 0 b1 0b 2a
        E 0 91 3c 2a
        E 16 b1 0b 33
        E 16 b1 0b 3b
        E 16 b1 0b 44
        E 16 b1 0b 4c
        E 16 b1 0b 55
        E 16 b1 0b 5d
        E 16 b1 0b 55
        E 16 b1 0b 4c
        E 16 b1 0b 44
        E 944 b1 0b 3b
        E 32 b1 0b 33
        E 32 b1 0b 2a
        E 16 b1 0b 33
        E 16 b1 0b 3b
        E 16 b1 0b 44
        E 16 b1 0b 4c
        E 16 b1 0b 55
        E 16 b1 0b 5d
        E 16 b1 0b 55
        E 16 b1 0b 4c
        E 16 b1 0b 44
        E 944 b1 0b 3b
        E 32 b1 0b 33
        E 32 b1 0b 2a
        E 16 b1 0b 33
        E 16 b1 0b 3b
        E 16 b1 0b 44
        E 16 b1 0b 4c
        E 16 b1 0b 55
        E 16 b1 0b 5d
        E 16 b1 0b 55
        E 16 b1 0b 4c
        E 16 b1 0b 44
        E 368 b1 0b 3b
        E 32 b1 0b 33
        E 32 b1 0b 2a
        E 16 b1 0b 33
        E 16 b1 0b 3b
        E 16 b1 0b 44
        E 16 b1 0b 4c
        E 16 b1 0b 55
        E 16 b1 0b 5d
        E 16 b1 0b 55
        E 16 b1 0b 4c
        E 16 b1 0b 44
        E 80 b1 0b 3b
        E 32 b1 0b 33
        E 32 b1 0b 2a
        E 16 b1 0b 33
        E 16 b1 0b 3b
        E 16 b1 0b 44
        E 16 b1 0b 4c
        E 16 b1 0b 55
        E 16 b1 0b 5d
        E 16 b1 0b 55
        E 16 b1 0b 4c
        E 16 b1 0b 44
        E 80 b1 0b 3b
        E 32 b1 0b 33
        E 32 b1 0b 2a
        E 16 b1 0b 33
        E 16 b1 0b 3b
        E 16 b1 0b 44
        E 16 b1 0b 4c
        E 16 b1 0b 55
        E 16 b1 0b 5d
        E 16 b1 0b 55
        E 16 b1 0b 4c
        E 16 b1 0b 44
        E 80 b1 0b 3b
        E 32 b1 0b 33
        E 32 b1 0b 2a
        E 16 b1 0b 33
        E 16 b1 0b 3b
        E 16 b1 0b 44
        E 16 b1 0b 4c
        E 16 b1 0b 55
        E 16 b1 0b 5d
        E 16 b1 0b 55
        E 16 b1 0b 4c
        E 16 b1 0b 44
        E 80 b1 0b 3b
        E 32 b1 0b 33
        E 32 b1 0b 2a
        E 16 b1 0b 33
        E 16 b1 0b 3b
        E 16 b1 0b 44
        E 16 b1 0b 4c
        E 16 b1 0b 55
        E 16 b1 0b 5d
        E 16 b1 0b 55
        E 16 b1 0b 4c
        E 16 b1 0b 44
        E 80 b1 0b 3b
        E 32 b1 0b 33
        E 32 b1 0b 2a
        E 16 b1 0b 33
        E 16 b1 0b 3b
        E 16 b1 0b 44
        E 16 b1 0b 4c
        E 16 b1 0b 55
        E 16 b1 0b 5d
        E 16 b1 0b 55
        E 16 b1 0b 4c
        E 16 b1 0b 44
        E 80 b1 0b 3b
        E 32 b1 0b 33
        E 32 b1 0b 2a
        E 16 b1 0b 33
        E 16 b1 0b 3b
        E 16 b1 0b 44
        E 16 b1 0b 4c
        E 16 b1 0b 55
        E 16 b1 0b 5d
        E 16 b1 0b 55
        E 16 b1 0b 4c
        E 16 b1 0b 44
        E 944 b1 0b 3b
        E 32 b1 0b 33
        E 32 b1 0b 2a
        E 16 b1 0b 33
        E 16 b1 0b 3b
        E 16 b1 0b 44
        E 16 b1 0b 4c
        E 16 b1 0b 55
        E 16 b1 0b 5d
        E 16 b1 0b 55
        E 16 b1 0b 4c
        E 16 b1 0b 44
        E 944 b1 0b 3b
        E 32 b1 0b 33
        E 32 b1 0b 2a
        E 16 b1 0b 33
        E 16 b1 0b 3b
        E 16 b1 0b 44
        E 16 b1 0b 4c
        E 16 b1 0b 55
        E 16 b1 0b 5d
        E 16 b1 0b 55
        E 16 b1 0b 4c
        E 16 b1 0b 44
        E 368 b1 0b 3b
        E 32 b1 0b 33
        E 32 b1 0b 2a
        E 16 b1 0b 33
        E 16 b1 0b 3b
        E 16 b1 0b 44
        E 16 b1 0b 4c
        E 16 b1 0b 55
        E 16 b1 0b 5d
        E 16 b1 0b 55
        E 16 b1 0b 4c
        E 16 b1 0b 44
        E 80 b1 0b 3b
        E 32 b1 0b 33
        E 32 b1 0b 2a
        E 16 b1 0b 33
        E 16 b1 0b 3b
        E 16 b1 0b 44
        E 16 b1 0b 4c
        E 16 b1 0b 55
        E 16 b1 0b 5d
        E 16 b1 0b 55
        E 16 b1 0b 4c
        E 16 b1 0b 44
        E 80 b1 0b 3b
        E 32 b1 0b 33
        E 32 b1 0b 2a
        E 16 b1 0b 33
        E 16 b1 0b 3b
        E 16 b1 0b 44
        E 16 b1 0b 4c
        E 16 b1 0b 55
        E 16 b1 0b 5d
        E 16 b1 0b 55
        E 16 b1 0b 4c
        E 16 b1 0b 44
        E 80 b1 0b 3b
        E 32 b1 0b 33
        E 32 b1 0b 2a
        E 16 b1 0b 33
        E 16 b1 0b 3b
        E 16 b1 0b 44
        E 16 b1 0b 4c
        E 16 b1 0b 55
        E 16 b1 0b 5d
        E 16 b1 0b 55
        E 16 b1 0b 4c
        E 16 b1 0b 44
        E 80 b1 0b 3b
        E 32 b1 0b 33
        E 32 b1 0b 2a
        E 16 b1 0b 33
        E 16 b1 0b 3b
        E 16 b1 0b 44
        E 16 b1 0b 4c
        E 16 b1 0b 55
        E 16 b1 0b 5d
        E 16 b1 0b 55
        E 16 b1 0b 4c
        E 16 b1 0b 44
        E 80 b1 0b 3b
        E 32 b1 0b 33
        E 32 b1 0b 2a
        E 16 b1 0b 33
        E 16 b1 0b 3b
        E 16 b1 0b 44
        E 16 b1 0b 4c
        E 16 b1 0b 55
        E 16 b1 0b 5d
        E 16 b1 0b 55
        E 16 b1 0b 4c
        E 16 b1 0b 44
        E 80 b1 0b 3b
        E 32 b1 0b 33
        E 32 b1 0b 2a
        E 16 b1 0b 33
        E 16 b1 0b 3b
        E 16 b1 0b 44
        E 16 b1 0b 4c
        E 16 b1 0b 55
        E 16 b1 0b 5d
        E 16 b1 0b 55
        E 16 b1 0b 4c
        E 16 b1 0b 44
        E 944 b1 0b 3b
        E 32 b1 0b 33
        E 32 b1 0b 2a
        E 16 b1 0b 33
        E 16 b1 0b 3b
        E 16 b1 0b 44
        E 16 b1 0b 4c
        E 16 b1 0b 55
        E 16 b1 0b 5d
        E 16 b1 0b 55
        E 16 b1 0b 4c
        E 16 b1 0b 44
        E 944 b1 0b 3b
        E 32 b1 0b 33
        E 32 b1 0b 2a
        E 16 b1 0b 33
        E 16 b1 0b 3b
        E 16 b1 0b 44
        E 16 b1 0b 4c
        E 16 b1 0b 55
        E 16 b1 0b 5d
        E 16 b1 0b 55
        E 16 b1 0b 4c
        E 16 b1 0b 44
        E 368 b1 0b 3b
        E 32 b1 0b 33
        E 32 b1 0b 2a
        E 16 b1 0b 33
        E 16 b1 0b 3b
        E 16 b1 0b 44
        E 16 b1 0b 4c
        E 16 b1 0b 55
        E 16 b1 0b 5d
        E 16 b1 0b 55
        E 16 b1 0b 4c
        E 16 b1 0b 44
        E 80 b1 0b 3b
        E 32 b1 0b 33
        E 32 b1 0b 2a
        E 16 b1 0b 33
        E 16 b1 0b 3b
        E 16 b1 0b 44
        E 16 b1 0b 4c
        E 16 b1 0b 55
        E 16 b1 0b 5d
        E 16 b1 0b 55
        E 16 b1 0b 4c
        E 16 b1 0b 44
        E 80 b1 0b 3b
        E 32 b1 0b 33
        E 32 b1 0b 2a
        E 16 b1 0b 33
        E 16 b1 0b 3b
        E 16 b1 0b 44
        E 16 b1 0b 4c
        E 16 b1 0b 55
        E 16 b1 0b 5d
        E 16 b1 0b 55
        E 16 b1 0b 4c
        E 16 b1 0b 44
        E 80 b1 0b 3b
        E 32 b1 0b 33
        E 32 b1 0b 2a
        E 16 b1 0b 33
        E 16 b1 0b 3b
        E 16 b1 0b 44
        E 16 b1 0b 4c
        E 16 b1 0b 55
        E 16 b1 0b 5d
        E 16 b1 0b 55
        E 16 b1 0b 4c
        E 16 b1 0b 44
        E 80 b1 0b 3b
        E 32 b1 0b 33
        E 32 b1 0b 2a
        E 16 b1 0b 33
        E 16 b1 0b 3b
        E 16 b1 0b 44
        E 16 b1 0b 4c
        E 16 b1 0b 55
        E 16 b1 0b 5d
        E 16 b1 0b 55
        E 16 b1 0b 4c
        E 16 b1 0b 44
        E 80 b1 0b 3b
        E 32 b1 0b 33
        E 32 b1 0b 2a
        E 16 b1 0b 33
        E 16 b1 0b 3b
        E 16 b1 0b 44
        E 16 b1 0b 4c
        E 16 b1 0b 55
        E 16 b1 0b 5d
        E 16 b1 0b 55
        E 16 b1 0b 4c
        E 16 b1 0b 44
        E 80 b1 0b 3b
        E 32 b1 0b 33
        E 32 b1 0b 2a
        E 16 b1 0b 33
        E 16 b1 0b 3b
        E 16 b1 0b 44
        E 16 b1 0b 4c
        E 16 b1 0b 55
        E 16 b1 0b 5d
        E 16 b1 0b 55
        E 16 b1 0b 4c
        E 16 b1 0b 44
        E 944 b1 0b 3b
        E 32 b1 0b 33
        E 32 b1 0b 2a
        E 16 b1 0b 33
        E 16 b1 0b 3b
        E 16 b1 0b 44
        E 16 b1 0b 4c
        E 16 b1 0b 55
        E 16 b1 0b 5d
        E 16 b1 0b 55
        E 16 b1 0b 4c
        E 16 b1 0b 44
        E 944 b1 0b 3b
        E 32 b1 0b 33
        E 32 b1 0b 2a
        E 16 b1 0b 33
        E 16 b1 0b 3b
        E 16 b1 0b 44
        E 16 b1 0b 4c
        E 16 b1 0b 55
        E 16 b1 0b 5d
        E 16 b1 0b 55
        E 16 b1 0b 4c
        E 16 b1 0b 44
        E 368 b1 0b 3b
        E 32 b1 0b 33
        E 32 b1 0b 2a
        E 16 b1 0b 33
        E 16 b1 0b 3b
        E 16 b1 0b 44
        E 16 b1 0b 4c
        E 16 b1 0b 55
        E 16 b1 0b 5d
        E 16 b1 0b 55
        E 16 b1 0b 4c
        E 16 b1 0b 44
        E 80 b1 0b 3b
        E 32 b1 0b 33
        E 32 b1 0b 2a
        E 16 b1 0b 33
        E 16 b1 0b 3b
        E 16 b1 0b 44
        E 16 b1 0b 4c
        E 16 b1 0b 55
        E 16 b1 0b 5d
        E 16 b1 0b 55
        E 16 b1 0b 4c
        E 16 b1 0b 44
        E 80 b1 0b 3b
        E 32 b1 0b 33
        E 32 b1 0b 2a
        E 16 b1 0b 33
        E 16 b1 0b 3b
        E 16 b1 0b 44
        E 16 b1 0b 4c
        E 16 b1 0b 55
        E 16 b1 0b 5d
        E 16 b1 0b 55
        E 16 b1 0b 4c
        E 16 b1 0b 44
        E 80 b1 0b 3b
        E 32 b1 0b 33
        E 32 b1 0b 2a
        E 16 b1 0b 33
        E 16 b1 0b 3b
        E 16 b1 0b 44
        E 16 b1 0b 4c
        E 16 b1 0b 55
        E 16 b1 0b 5d
        E 16 b1 0b 55
        E 16 b1 0b 4c
        E 16 b1 0b 44
        E 80 b1 0b 3b
        E 32 b1 0b 33
        E 32 b1 0b 2a
        E 16 b1 0b 33
        E 16 b1 0b 3b
        E 16 b1 0b 44
        E 16 b1 0b 4c
        E 16 b1 0b 55
        E 16 b1 0b 5d
        E 16 b1 0b 55
        E 16 b1 0b 4c
        E 16 b1 0b 44
        E 80 b1 0b 3b
        E 32 b1 0b 33
        E 32 b1 0b 2a
        E 16 b1 0b 33
        E 16 b1 0b 3b
        E 16 b1 0b 44
        E 16 b1 0b 4c
        E 16 b1 0b 55
        E 16 b1 0b 5d
        E 16 b1 0b 55
        E 16 b1 0b 4c
        E 16 b1 0b 44
        E 80 b1 0b 3b
        E 32 b1 0b 33
        E 32 b1 0c 20
        E 0 b1 0b 55
        E 16 b1 0b 5d
        E 16 b1 0b 55
        E 16 b1 0b 4c
        E 16 b1 0b 44
        E 16 b1 0b 3b
        E 1888 b1 0b 33
        E 48 b1 0b 55
        E 0 81 3c 00
        E 0 91 38 55
        E 16 b1 0b 5d
        E 16 b1 0b 55
        E 64 b1 0b 4c
        E 48 b1 0b 55
        E 16 b1 0b 5d
        E 16 b1 0b 55
        E 64 b1 0b 4c
        E 48 b1 0b 55
        E 16 b1 0b 5d
        E 16 b1 0b 55
        E 16 b1 0b 4c
        E 16 b1 0b 44
        E 16 b1 0b 3b
        E 736 b1 0b 33
        E 48 b1 0b 55
        E 16 b1 0b 5d
        E 16 b1 0b 55
        E 64 b1 0b 4c
        E 48 b1 0b 55
        E 16 b1 0b 5d
        E 16 b1 0b 55
        E 64 b1 0b 4c
        E 48 b1 0b 55
        E 0 81 38 00
        E 0 91 3a 55
        E 16 b1 0b 5d
        E 16 b1 0b 55
        E 16 b1 0b 4c
        E 16 b1 0b 44
        E 16 b1 0b 3b
        E 736 b1 0b 33
        E 48 b1 0b 55
        E 0 81 3a 00
        E 0 91 38 55
        E 16 b1 0b 5d
        E 16 b1 0b 55
        E 64 b1 0b 4c
        E 48 b1 0b 55
        E 16 b1 0b 5d
        E 16 b1 0b 55
        E 64 b1 0b 4c
        E 48 b1 0b 55
        E 16 b1 0b 5d
        E 16 b1 0b 55
        E 16 b1 0b 4c
        E 16 b1 0b 44
        E 16 b1 0b 3b
        E 736 b1 0b 33
        E 48 b1 0b 55
        E 16 b1 0b 5d
        E 16 b1 0b 55
        E 64 b1 0b 4c
        E 48 b1 0b 55
        E 16 b1 0b 5d
        E 16 b1 0b 55
        E 64 b1 0b 4c
        E 48 b1 0b 55
        E 16 b1 0b 5d
        E 16 b1 0b 55
        E 16 b1 0b 4c
        E 16 b1 0b 44
        E 16 b1 0b 3b
        E 736 b1 0b 33
        E 48 b1 0b 55
        E 16 b1 0b 5d
        E 16 b1 0b 55
        E 64 b1 0b 4c
        E 48 b1 0b 55
        E 16 b1 0b 5d
        E 16 b1 0b 55
        E 64 b1 0b 4c
        E 48 b1 0b 55
        E 16 b1 0b 5d
        E 16 b1 0b 55
        E 16 b1 0b 4c
        E 16 b1 0b 44
        E 16 b1 0b 3b
        E 736 b1 0b 33
        E 48 b1 0b 55
        E 16 b1 0b 5d
        E 16 b1 0b 55
        E 64 b1 0b 4c
        E 48 b1 0b 55
        E 16 b1 0b 5d
        E 16 b1 0b 55
        E 64 b1 0b 4c
        E 48 b1 0b 55
        E 16 b1 0b 5d
        E 16 b1 0b 55
        E 16 b1 0b 4c
        E 16 b1 0b 44
        E 16 b1 0b 3b
        E 736 b1 0b 33
        E 48 b1 0b 55
        E 16 b1 0b 5d
        E 16 b1 0b 55
        E 64 b1 0b 4c
        E 48 b1 0b 55
        E 16 b1 0b 5d
        E 16 b1 0b 55
        E 64 b1 0b 4c
        E 48 b1 0c 40
        E 0 b1 0b 2a
        E 0 81 38 00
        E 0 91 3c 2a
        E 16 b1 0b 33
        E 16 b1 0b 3b
        E 16 b1 0b 44
        E 16 b1 0b 4c
        E 16 b1 0b 55
        E 16 b1 0b 5d
        E 16 b1 0b 55
        E 16 b1 0b 4c
        E 16 b1 0b 44
        E 944 b1 0b 3b
        E 32 b1 0b 33
        E 32 b1 0b 2a
        E 16 b1 0b 33
        E 16 b1 0b 3b
        E 16 b1 0b 44
        E 16 b1 0b 4c
        E 16 b1 0b 55
        E 16 b1 0b 5d
        E 16 b1 0b 55
        E 16 b1 0b 4c
        E 16 b1 0b 44
        E 944 b1 0b 3b
        E 32 b1 0b 33
        E 32 b1 0b 2a
        E 16 b1 0b 33
        E 16 b1 0b 3b
        E 16 b1 0b 44
        E 16 b1 0b 4c
        E 16 b1 0b 55
        E 16 b1 0b 5d
        E 16 b1 0b 55
        E 16 b1 0b 4c
        E 16 b1 0b 44
        E 368 b1 0b 3b
        E 32 b1 0b 33
        E 32 b1 0b 2a
        E 16 b1 0b 33
        E 16 b1 0b 3b
        E 16 b1 0b 44
        E 16 b1 0b 4c
        E 16 b1 0b 55
        E 16 b1 0b 5d
        E 16 b1 0b 55
        E 16 b1 0b 4c
        E 16 b1 0b 44
        E 80 b1 0b 3b
        E 32 b1 0b 33
        E 32 b1 0b 2a
        E 16 b1 0b 33
        E 16 b1 0b 3b
        E 16 b1 0b 44
        E 16 b1 0b 4c
        E 16 b1 0b 55
        E 16 b1 0b 5d
        E 16 b1 0b 55
        E 16 b1 0b 4c
        E 16 b1 0b 44
        E 80 b1 0b 3b
        E 32 b1 0b 33
        E 32 b1 0b 2a
        E 16 b1 0b 33
        E 16 b1 0b 3b
        E 16 b1 0b 44
        E 16 b1 0b 4c
        E 16 b1 0b 55
        E 16 b1 0b 5d
        E 16 b1 0b 55
        E 16 b1 0b 4c
        E 16 b1 0b 44
        E 80 b1 0b 3b
        E 32 b1 0b 33
        E 32 b1 0b 2a
        E 16 b1 0b 33
        E 16 b1 0b 3b
        E 16 b1 0b 44
        E 16 b1 0b 4c
        E 16 b1 0b 55
        E 16 b1 0b 5d
        E 16 b1 0b 55
        E 16 b1 0b 4c
        E 16 b1 0b 44
        E 80 b1 0b 3b
        E 32 b1 0b 33
        E 32 b1 0b 2a
        E 16 b1 0b 33
        E 16 b1 0b 3b
        E 16 b1 0b 44
        E 16 b1 0b 4c
        E 16 b1 0b 55
        E 16 b1 0b 5d
        E 16 b1 0b 55
        E 16 b1 0b 4c
        E 16 b1 0b 44
        E 80 b1 0b 3b
        E 32 b1 0b 33
        E 32 b1 0b 2a
        E 16 b1 0b 33
        E 16 b1 0b 3b
        E 16 b1 0b 44
        E 16 b1 0b 4c
        E 16 b1 0b 55
        E 16 b1 0b 5d
        E 16 b1 0b 55
        E 16 b1 0b 4c
        E 16 b1 0b 44
        E 80 b1 0b 3b
        E 32 b1 0b 33
        E 32 b1 0b 2a
        E 16 b1 0b 33
        E 16 b1 0b 3b
        E 16 b1 0b 44
        E 16 b1 0b 4c
        E 16 b1 0b 55
        E 16 b1 0b 5d
        E 16 b1 0b 55
        E 16 b1 0b 4c
        E 16 b1 0b 44
        E 944 b1 0b 3b
        E 32 b1 0b 33
        E 32 b1 0b 2a
        E 16 b1 0b 33
        E 16 b1 0b 3b
        E 16 b1 0b 44
        E 16 b1 0b 4c
        E 16 b1 0b 55
        E 16 b1 0b 5d
        E 16 b1 0b 55
        E 16 b1 0b 4c
        E 16 b1 0b 44
        E 944 b1 0b 3b
        E 32 b1 0b 33
        E 32 b1 0b 2a
        E 16 b1 0b 33
        E 16 b1 0b 3b
        E 16 b1 0b 44
        E 16 b1 0b 4c
        E 16 b1 0b 55
        E 16 b1 0b 5d
        E 16 b1 0b 55
        E 16 b1 0b 4c
        E 16 b1 0b 44
        E 368 b1 0b 3b
        E 32 b1 0b 33
        E 32 b1 0b 2a
        E 16 b1 0b 33
        E 16 b1 0b 3b
        E 16 b1 0b 44
        E 16 b1 0b 4c
        E 16 b1 0b 55
        E 16 b1 0b 5d
        E 16 b1 0b 55
        E 16 b1 0b 4c
        E 16 b1 0b 44
        E 80 b1 0b 3b
        E 32 b1 0b 33
        E 32 b1 0b 2a
        E 16 b1 0b 33
        E 16 b1 0b 3b
        E 16 b1 0b 44
        E 16 b1 0b 4c
        E 16 b1 0b 55
        E 16 b1 0b 5d
        E 16 b1 0b 55
        E 16 b1 0b 4c
        E 16 b1 0b 44
        E 80 b1 0b 3b
        E 32 b1 0b 33
        E 32 b1 0b 2a
        E 16 b1 0b 33
        E 16 b1 0b 3b
        E 16 b1 0b 44
        E 16 b1 0b 4c
        E 16 b1 0b 55
        E 16 b1 0b 5d
        E 16 b1 0b 55
        E 16 b1 0b 4c
        E 16 b1 0b 44
        E 80 b1 0b 3b
        E 32 b1 0b 33
        E 32 b1 0b 2a
        E 16 b1 0b 33
        E 16 b1 0b 3b
        E 16 b1 0b 44
        E 16 b1 0b 4c
        E 16 b1 0b 55
        E 16 b1 0b 5d
        E 16 b1 0b 55
        E 16 b1 0b 4c
        E 16 b1 0b 44
        E 80 b1 0b 3b
        E 32 b1 0b 33
        E 32 b1 0b 2a
        E 16 b1 0b 33
        E 16 b1 0b 3b
        E 16 b1 0b 44
        E 16 b1 0b 4c
        E 16 b1 0b 55
        E 16 b1 0b 5d
        E 16 b1 0b 55
        E 16 b1 0b 4c
        E 16 b1 0b 44
        E 80 b1 0b 3b
        E 32 b1 0b 33
        E 32 b1 0b 2a
        E 16 b1 0b 33
        E 16 b1 0b 3b
        E 16 b1 0b 44
        E 16 b1 0b 4c
        E 16 b1 0b 55
        E 16 b1 0b 5d
        E 16 b1 0b 55
        E 16 b1 0b 4c
        E 16 b1 0b 44
        E 80 b1 0b 3b
        E 32 b1 0b 33
        E 32 b1 0b 2a
        E 16 b1 0b 33
        E 16 b1 0b 3b
        E 16 b1 0b 44
        E 16 b1 0b 4c
        E 16 b1 0b 55
        E 16 b1 0b 5d
        E 16 b1 0b 55
        E 16 b1 0b 4c
        E 16 b1 0b 44
        E 944 b1 0b 3b
        E 32 b1 0b 33
        E 32 b1 0b 2a
        E 16 b1 0b 33
        E 16 b1 0b 3b
        E 16 b1 0b 44
        E 16 b1 0b 4c
        E 16 b1 0b 55
        E 16 b1 0b 5d
        E 16 b1 0b 55
        E 16 b1 0b 4c
        E 16 b1 0b 44
        E 944 b1 0b 3b
        E 32 b1 0b 33
        E 32 b1 0b 2a
        E 16 b1 0b 33
        E 16 b1 0b 3b
        E 16 b1 0b 44
        E 16 b1 0b 4c
        E 16 b1 0b 55
        E 16 b1 0b 5d
        E 16 b1 0b 55
        E 16 b1 0b 4c
        E 16 b1 0b 44
        E 368 b1 0b 3b
        E 32 b1 0b 33
        E 32 b1 0b 2a
        E 16 b1 0b 33
        E 16 b1 0b 3b
        E 16 b1 0b 44
        E 16 b1 0b 4c
        E 16 b1 0b 55
        E 16 b1 0b 5d
        E 16 b1 0b 55
        E 16 b1 0b 4c
        E 16 b1 0b 44
        E 80 b1 0b 3b
        E 32 b1 0b 33
        E 32 b1 0b 2a
        E 16 b1 0b 33
        E 16 b1 0b 3b
        E 16 b1 0b 44
        E 16 b1 0b 4c
        E 16 b1 0b 55
        E 16 b1 0b 5d
        E 16 b1 0b 55
        E 16 b1 0b 4c
        E 16 b1 0b 44
        E 80 b1 0b 3b
        E 32 b1 0b 33
        E 32 b1 0b 2a
        E 16 b1 0b 33
        E 16 b1 0b 3b
        E 16 b1 0b 44
        E 16 b1 0b 4c
        E 16 b1 0b 55
        E 16 b1 0b 5d
        E 16 b1 0b 55
        E 16 b1 0b 4c
        E 16 b1 0b 44
        E 80 b1 0b 3b
        E 32 b1 0b 33
        E 32 b1 0b 2a
        E 16 b1 0b 33
        E 16 b1 0b 3b
        E 16 b1 0b 44
        E 16 b1 0b 4c
        E 16 b1 0b 55
        E 16 b1 0b 5d
        E 16 b1 0b 55
        E 16 b1 0b 4c
        E 16 b1 0b 44
        E 80 b1 0b 3b
        E 32 b1 0b 33
        E 32 b1 0b 2a
        E 16 b1 0b 33
        E 16 b1 0b 3b
        E 16 b1 0b 44
        E 16 b1 0b 4c
        E 16 b1 0b 55
        E 16 b1 0b 5d
        E 16 b1 0b 55
        E 16 b1 0b 4c
        E 16 b1 0b 44
        E 80 b1 0b 3b
        E 32 b1 0b 33
        E 32 b1 0b 2a
        E 16 b1 0b 33
        E 16 b1 0b 3b
        E 16 b1 0b 44
        E 16 b1 0b 4c
        E 16 b1 0b 55
        E 16 b1 0b 5d
        E 16 b1 0b 55
        E 16 b1 0b 4c
        E 16 b1 0b 44
        E 80 b1 0b 3b
        E 32 b1 0b 33
        E 32 b1 0b 2a
        E 16 b1 0b 33
        E 16 b1 0b 3b
        E 16 b1 0b 44
        E 16 b1 0b 4c
        E 16 b1 0b 55
        E 16 b1 0b 5d
        E 16 b1 0b 55
        E 16 b1 0b 4c
        E 16 b1 0b 44
        E 944 b1 0b 3b
        E 32 b1 0b 33
        E 32 b1 0b 2a
        E 16 b1 0b 33
        E 16 b1 0b 3b
        E 16 b1 0b 44
        E 16 b1 0b 4c
        E 16 b1 0b 55
        E 16 b1 0b 5d
        E 16 b1 0b 55
        E 16 b1 0b 4c
        E 16 b1 0b 44
        E 944 b1 0b 3b
        E 32 b1 0b 33
        E 32 b1 0b 2a
        E 16 b1 0b 33
        E 16 b1 0b 3b
        E 16 b1 0b 44
        E 16 b1 0b 4c
        E 16 b1 0b 55
        E 16 b1 0b 5d
        E 16 b1 0b 55
        E 16 b1 0b 4c
        E 16 b1 0b 44
        E 368 b1 0b 3b
        E 32 b1 0b 33
        E 32 b1 0b 2a
        E 16 b1 0b 33
        E 16 b1 0b 3b
        E 16 b1 0b 44
        E 16 b1 0b 4c
        E 16 b1 0b 55
        E 16 b1 0b 5d
        E 16 b1 0b 55
        E 16 b1 0b 4c
        E 16 b1 0b 44
        E 80 b1 0b 3b
        E 32 b1 0b 33
        E 32 b1 0b 2a
        E 16 b1 0b 33
        E 16 b1 0b 3b
        E 16 b1 0b 44
        E 16 b1 0b 4c
        E 16 b1 0b 55
        E 16 b1 0b 5d
        E 16 b1 0b 55
        E 16 b1 0b 4c
        E 16 b1 0b 44
        E 80 b1 0b 3b
        E 32 b1 0b 33
        E 32 b1 0b 2a
        E 16 b1 0b 33
        E 16 b1 0b 3b
        E 16 b1 0b 44
        E 16 b1 0b 4c
        E 16 b1 0b 55
        E 16 b1 0b 5d
        E 16 b1 0b 55
        E 16 b1 0b 4c
        E 16 b1 0b 44
        E 80 b1 0b 3b
        E 32 b1 0b 33
        E 32 b1 0b 2a
        E 16 b1 0b 33
        E 16 b1 0b 3b
        E 16 b1 0b 44
        E 16 b1 0b 4c
        E 16 b1 0b 55
        E 16 b1 0b 5d
        E 16 b1 0b 55
        E 16 b1 0b 4c
        E 16 b1 0b 44
        E 80 b1 0b 3b
        E 32 b1 0b 33
        E 32 b1 0b 2a
        E 16 b1 0b 33
        E 16 b1 0b 3b
        E 16 b1 0b 44
        E 16 b1 0b 4c
        E 16 b1 0b 55
        E 16 b1 0b 5d
        E 16 b1 0b 55
        E 16 b1 0b 4c
        E 16 b1 0b 44
        E 80 b1 0b 3b
        E 32 b1 0b 33
        E 32 b1 0b 2a
        E 16 b1 0b 33
        E 16 b1 0b 3b
        E 16 b1 0b 44
        E 16 b1 0b 4c
        E 16 b1 0b 55
        E 16 b1 0b 5d
        E 16 b1 0b 55
        E 16 b1 0b 4c
        E 16 b1 0b 44
        E 80 b1 0b 3b
        E 32 b1 0b 33
        E 32 b1 0c 20
        E 0 b1 0b 55
        E 16 b1 0b 5d
        E 16 b1 0b 55
        E 16 b1 0b 4c
        E 16 b1 0b 44
        E 16 b1 0b 3b
        E 1888 b1 0b 33
        E 48 b1 0b 55
        E 0 81 3c 00
        E 0 91 38 55
        E 16 b1 0b 5d
        E 16 b1 0b 55
        E 64 b1 0b 4c
        E 48 b1 0b 55
        E 16 b1 0b 5d
        E 16 b1 0b 55
        E 64 b1 0b 4c
        E 48 b1 0b 55
        E 16 b1 0b 5d
        E 16 b1 0b 55
        E 16 b1 0b 4c
        E 16 b1 0b 44
        E 16 b1 0b 3b
        E 736 b1 0b 33
        E 48 b1 0b 55
        E 16 b1 0b 5d
        E 16 b1 0b 55
        E 64 b1 0b 4c
        E 48 b1 0b 55
        E 16 b1 0b 5d
        E 16 b1 0b 55
        E 64 b1 0b 4c
        E 48 b1 0b 55
        E 0 81 38 00
        E 0 91 3a 55
        E 16 b1 0b 5d
        E 16 b1 0b 55
        E 16 b1 0b 4c
        E 16 b1 0b 44
        E 16 b1 0b 3b
        E 736 b1 0b 33
        E 48 b1 0b 55
        E 0 81 3a 00
        E 0 91 38 55
        E 16 b1 0b 5d
        E 16 b1 0b 55
        E 64 b1 0b 4c
        E 48 b1 0b 55
        E 16 b1 0b 5d
        E 16 b1 0b 55
        E 64 b1 0b 4c
        E 48 b1 0b 55
        E 16 b1 0b 5d
        E 16 b1 0b 55
        E 16 b1 0b 4c
        E 16 b1 0b 44
        E 16 b1 0b 3b
        E 736 b1 0b 33
        E 48 b1 0b 55
        E 16 b1 0b 5d
        E 16 b1 0b 55
        E 64 b1 0b 4c
        E 48 b1 0b 55
        E 16 b1 0b 5d
        E 16 b1 0b 55
        E 64 b1 0b 4c
        E 48 b1 0b 55
        E 16 b1 0b 5d
        E 16 b1 0b 55
        E 16 b1 0b 4c
        E 16 b1 0b 44
        E 16 b1 0b 3b
        E 736 b1 0b 33
        E 48 b1 0b 55
        E 16 b1 0b 5d
        E 16 b1 0b 55
        E 64 b1 0b 4c
        E 48 b1 0b 55
        E 16 b1 0b 5d
        E 16 b1 0b 55
        E 64 b1 0b 4c
        E 48 b1 0b 55
        E 16 b1 0b 5d
        E 16 b1 0b 55
        E 16 b1 0b 4c
        E 16 b1 0b 44
        E 16 b1 0b 3b
        E 736 b1 0b 33
        E 48 b1 0b 55
        E 16 b1 0b 5d
        E 16 b1 0b 55
        E 64 b1 0b 4c
        E 48 b1 0b 55
        E 16 b1 0b 5d
        E 16 b1 0b 55
        E 64 b1 0b 4c
        E 48 b1 0b 55
        E 16 b1 0b 5d
        E 16 b1 0b 55
        E 16 b1 0b 4c
        E 16 b1 0b 44
        E 16 b1 0b 3b
        E 736 b1 0b 33
        E 48 b1 0b 55
        E 16 b1 0b 5d
        E 16 b1 0b 55
        E 64 b1 0b 4c
        E 48 b1 0b 55
        E 16 b1 0b 5d
        E 16 b1 0b 55
        E 64 b1 0b 4c
        E 48 b1 0c 40
        E 0 b1 0b 2a
        E 0 81 38 00
        E 0 91 3c 2a
        E 16 b1 0b 33
        E 16 b1 0b 3b
        E 16 b1 0b 44
        E 16 b1 0b 4c
        E 16 b1 0b 55
        E 16 b1 0b 5d
        E 16 b1 0b 55
        E 16 b1 0b 4c
        E 16 b1 0b 44
        E 944 b1 0b 3b
        E 32 b1 0b 33
        E 32 b1 0b 2a
        E 16 b1 0b 33
        E 16 b1 0b 3b
        E 16 b1 0b 44
        E 16 b1 0b 4c
        E 16 b1 0b 55
        E 16 b1 0b 5d
        E 16 b1 0b 55
        E 16 b1 0b 4c
        E 16 b1 0b 44
        E 944 b1 0b 3b
        E 32 b1 0b 33
        E 32 b1 0b 2a
        E 16 b1 0b 33
        E 16 b1 0b 3b
        E 16 b1 0b 44
        E 16 b1 0b 4c
        E 16 b1 0b 55
        E 16 b1 0b 5d
        E 16 b1 0b 55
        E 16 b1 0b 4c
        E 16 b1 0b 44
        E 368 b1 0b 3b
        E 32 b1 0b 33
        E 32 b1 0b 2a
        E 16 b1 0b 33
        E 16 b1 0b 3b
        E 16 b1 0b 44
        E 16 b1 0b 4c
        E 16 b1 0b 55
        E 16 b1 0b 5d
        E 16 b1 0b 55
        E 16 b1 0b 4c
        E 16 b1 0b 44
        E 80 b1 0b 3b
        E 32 b1 0b 33
        E 32 b1 0b 2a
        E 16 b1 0b 33
        E 16 b1 0b 3b
        E 16 b1 0b 44
        E 16 b1 0b 4c
        E 16 b1 0b 55
        E 16 b1 0b 5d
        E 16 b1 0b 55
        E 16 b1 0b 4c
        E 16 b1 0b 44
        E 80 b1 0b 3b
        E 32 b1 0b 33
        E 32 b1 0b 2a
        E 16 b1 0b 33
        E 16 b1 0b 3b
        E 16 b1 0b 44
        E 16 b1 0b 4c
        E 16 b1 0b 55
        E 16 b1 0b 5d
        E 16 b1 0b 55
        E 16 b1 0b 4c
        E 16 b1 0b 44
        E 80 b1 0b 3b
        E 32 b1 0b 33
        E 32 b1 0b 2a
        E 16 b1 0b 33
        E 16 b1 0b 3b
        E 16 b1 0b 44
        E 16 b1 0b 4c
        E 16 b1 0b 55
        E 16 b1 0b 5d
        E 16 b1 0b 55
        E 16 b1 0b 4c
        E 16 b1 0b 44
        E 80 b1 0b 3b
        E 32 b1 0b 33
        E 32 b1 0b 2a
        E 16 b1 0b 33
        E 16 b1 0b 3b
        E 16 b1 0b 44
        E 16 b1 0b 4c
        E 16 b1 0b 55
        E 16 b1 0b 5d
        E 16 b1 0b 55
        E 16 b1 0b 4c
        E 16 b1 0b 44
        E 80 b1 0b 3b
        E 32 b1 0b 33
        E 32 b1 0b 2a
        E 16 b1 0b 33
        E 16 b1 0b 3b
        E 16 b1 0b 44
        E 16 b1 0b 4c
        E 16 b1 0b 55
        E 16 b1 0b 5d
        E 16 b1 0b 55
        E 16 b1 0b 4c
        E 16 b1 0b 44
        E 80 b1 0b 3b
        E 32 b1 0b 33
        E 32 b1 0b 2a
        E 16 b1 0b 33
        E 16 b1 0b 3b
        E 16 b1 0b 44
        E 16 b1 0b 4c
        E 16 b1 0b 55
        E 16 b1 0b 5d
        E 16 b1 0b 55
        E 16 b1 0b 4c
        E 16 b1 0b 44
        E 944 b1 0b 3b
        E 32 b1 0b 33
        E 32 b1 0b 2a
        E 16 b1 0b 33
        E 16 b1 0b 3b
        E 16 b1 0b 44
        E 16 b1 0b 4c
        E 16 b1 0b 55
        E 16 b1 0b 5d
        E 16 b1 0b 55
        E 16 b1 0b 4c
        E 16 b1 0b 44
        E 944 b1 0b 3b
        E 32 b1 0b 33
        E 32 b1 0b 2a
        E 16 b1 0b 33
        E 16 b1 0b 3b
        E 16 b1 0b 44
        E 16 b1 0b 4c
        E 16 b1 0b 55
        E 16 b1 0b 5d
        E 16 b1 0b 55
        E 16 b1 0b 4c
        E 16 b1 0b 44
        E 368 b1 0b 3b
        E 32 b1 0b 33
        E 32 b1 0b 2a
        E 16 b1 0b 33
        E 16 b1 0b 3b
        E 16 b1 0b 44
        E 16 b1 0b 4c
        E 16 b1 0b 55
        E 16 b1 0b 5d
        E 16 b1 0b 55
        E 16 b1 0b 4c
        E 16 b1 0b 44
        E 80 b1 0b 3b
        E 32 b1 0b 33
        E 32 b1 0b 2a
        E 16 b1 0b 33
        E 16 b1 0b 3b
        E 16 b1 0b 44
        E 16 b1 0b 4c
        E 16 b1 0b 55
        E 16 b1 0b 5d
        E 16 b1 0b 55
        E 16 b1 0b 4c
        E 16 b1 0b 44
        E 80 b1 0b 3b
        E 32 b1 0b 33
        E 32 b1 0b 2a
        E 16 b1 0b 33
        E 16 b1 0b 3b
        E 16 b1 0b 44
        E 16 b1 0b 4c
        E 16 b1 0b 55
        E 16 b1 0b 5d
        E 16 b1 0b 55
        E 16 b1 0b 4c
        E 16 b1 0b 44
        E 80 b1 0b 3b
        E 32 b1 0b 33
        E 32 b1 0b 2a
        E 16 b1 0b 33
        E 16 b1 0b 3b
        E 16 b1 0b 44
        E 16 b1 0b 4c
        E 16 b1 0b 55
        E 16 b1 0b 5d
        E 16 b1 0b 55
        E 16 b1 0b 4c
        E 16 b1 0b 44
        E 80 b1 0b 3b
        E 32 b1 0b 33
        E 32 b1 0b 2a
        E 16 b1 0b 33
        E 16 b1 0b 3b
        E 16 b1 0b 44
        E 16 b1 0b 4c
        E 16 b1 0b 55
        E 16 b1 0b 5d
        E 16 b1 0b 55
        E 16 b1 0b 4c
        E 16 b1 0b 44
        E 80 b1 0b 3b
        E 32 b1 0b 33
        E 32 b1 0b 2a
        E 16 b1 0b 33
        E 16 b1 0b 3b
        E 16 b1 0b 44
        E 16 b1 0b 4c
        E 16 b1 0b 55
        E 16 b1 0b 5d
        E 16 b1 0b 55
        E 16 b1 0b 4c
        E 16 b1 0b 44
        E 80 b1 0b 3b
        E 32 b1 0b 33
        E 32 b1 0b 2a
        E 16 b1 0b 33
        E 16 b1 0b 3b
        E 16 b1 0b 44
        E 16 b1 0b 4c
        E 16 b1 0b 55
        E 16 b1 0b 5d
        E 16 b1 0b 55
        E 16 b1 0b 4c
        E 16 b1 0b 44
        E 944 b1 0b 3b
        E 32 b1 0b 33
        E 32 b1 0b 2a
        E 16 b1 0b 33
        E 16 b1 0b 3b
        E 16 b1 0b 44
        E 16 b1 0b 4c
        E 16 b1 0b 55
        E 16 b1 0b 5d
        E 16 b1 0b 55
        E 16 b1 0b 4c
        E 16 b1 0b 44
        E 944 b1 0b 3b
        E 32 b1 0b 33
        E 32 b1 0b 2a
        E 16 b1 0b 33
        E 16 b1 0b 3b
        E 16 b1 0b 44
        E 16 b1 0b 4c
        E 16 b1 0b 55
        E 16 b1 0b 5d
        E 16 b1 0b 55
        E 16 b1 0b 4c
        E 16 b1 0b 44
        E 368 b1 0b 3b
        E 32 b1 0b 33
        E 32 b1 0b 2a
        E 16 b1 0b 33
        E 16 b1 0b 3b
        E 16 b1 0b 44
        E 16 b1 0b 4c
        E 16 b1 0b 55
        E 16 b1 0b 5d
        E 16 b1 0b 55
        E 16 b1 0b 4c
        E 16 b1 0b 44
        E 80 b1 0b 3b
        E 32 b1 0b 33
        E 32 b1 0b 2a
        E 16 b1 0b 33
        E 16 b1 0b 3b
        E 16 b1 0b 44
        E 16 b1 0b 4c
        E 16 b1 0b 55
        E 16 b1 0b 5d
        E 16 b1 0b 55
        E 16 b1 0b 4c
        E 16 b1 0b 44
        E 80 b1 0b 3b
        E 32 b1 0b 33
        E 32 b1 0b 2a
        E 16 b1 0b 33
        E 16 b1 0b 3b
        E 16 b1 0b 44
        E 16 b1 0b 4c
        E 16 b1 0b 55
        E 16 b1 0b 5d
        E 16 b1 0b 55
        E 16 b1 0b 4c
        E 16 b1 0b 44
        E 80 b1 0b 3b
        E 32 b1 0b 33
        E 32 b1 0b 2a
        E 16 b1 0b 33
        E 16 b1 0b 3b
        E 16 b1 0b 44
        E 16 b1 0b 4c
        E 16 b1 0b 55
        E 16 b1 0b 5d
        E 16 b1 0b 55
        E 16 b1 0b 4c
        E 16 b1 0b 44
        E 80 b1 0b 3b
        E 32 b1 0b 33
        E 32 b1 0b 2a
        E 16 b1 0b 33
        E 16 b1 0b 3b
        E 16 b1 0b 44
        E 16 b1 0b 4c
        E 16 b1 0b 55
        E 16 b1 0b 5d
        E 16 b1 0b 55
        E 16 b1 0b 4c
        E 16 b1 0b 44
        E 80 b1 0b 3b
        E 32 b1 0b 33
        E 32 b1 0b 2a
        E 16 b1 0b 33
        E 16 b1 0b 3b
        E 16 b1 0b 44
        E 16 b1 0b 4c
        E 16 b1 0b 55
        E 16 b1 0b 5d
        E 16 b1 0b 55
        E 16 b1 0b 4c
        E 16 b1 0b 44
        E 80 b1 0b 3b
        E 32 b1 0b 33
        E 32 b1 0b 2a
        E 16 b1 0b 33
        E 16 b1 0b 3b
        E 16 b1 0b 44
        E 16 b1 0b 4c
        E 16 b1 0b 55
        E 16 b1 0b 5d
        E 16 b1 0b 55
        E 16 b1 0b 4c
        E 16 b1 0b 44
        E 944 b1 0b 3b
        E 32 b1 0b 33
        E 32 b1 0b 2a
        E 16 b1 0b 33
        E 16 b1 0b 3b
        E 16 b1 0b 44
        E 16 b1 0b 4c
        E 16 b1 0b 55
        E 16 b1 0b 5d
        E 16 b1 0b 55
        E 16 b1 0b 4c
        E 16 b1 0b 44
        E 944 b1 0b 3b
        E 32 b1 0b 33
        E 32 b1 0b 2a
        E 16 b1 0b 33
        E 16 b1 0b 3b
        E 16 b1 0b 44
        E 16 b1 0b 4c
        E 16 b1 0b 55
        E 16 b1 0b 5d
        E 16 b1 0b 55
        E 16 b1 0b 4c
        E 16 b1 0b 44
        E 368 b1 0b 3b
        E 32 b1 0b 33
        E 32 b1 0b 2a
        E 16 b1 0b 33
        E 16 b1 0b 3b
        E 16 b1 0b 44
        E 16 b1 0b 4c
        E 16 b1 0b 55
        E 16 b1 0b 5d
        E 16 b1 0b 55
        E 16 b1 0b 4c
        E 16 b1 0b 44
        E 80 b1 0b 3b
        E 32 b1 0b 33
        E 32 b1 0b 2a
        E 16 b1 0b 33
        E 16 b1 0b 3b
        E 16 b1 0b 44
        E 16 b1 0b 4c
        E 16 b1 0b 55
        E 16 b1 0b 5d
        E 16 b1 0b 55
        E 16 b1 0b 4c
        E 16 b1 0b 44
        E 80 b1 0b 3b
        E 32 b1 0b 33
        E 32 b1 0b 2a
        E 16 b1 0b 33
        E 16 b1 0b 3b
        E 16 b1 0b 44
        E 16 b1 0b 4c
        E 16 b1 0b 55
        E 16 b1 0b 5d
        E 16 b1 0b 55
        E 16 81 3c 00
        E 0 b1 7b 00
        E 0 ff 2f 00
      >
    >
  >
  <TRACK {BF0CFC1F-D3C0-4D96-8595-608FA0AC4ED1}
    NAME "NES - Triangle [ch2]"
    PEAKCOL 16744192
    BEAT -1
    AUTOMODE 0
    PANLAWFLAGS 3
    VOLPAN 1 0 -1 -1 1
    MUTESOLO 0 0 0
    IPHASE 0
    PLAYOFFS 0 1
    ISBUS 0 0
    BUSCOMP 0 0 0 0 0
    SHOWINMIX 1 0.6667 0.5 1 0.5 0 0 0
    FIXEDLANES 9 0 0 0 0
    SEL 0
    REC 0 5088 1 0 0 0 0 0
    VU 2
    TRACKHEIGHT 0 0 0 0 0 0 0
    INQ 0 0 0 0.5 100 0 0 100
    NCHAN 2
    FX 1
    TRACKID {BF0CFC1F-D3C0-4D96-8595-608FA0AC4ED1}
    PERF 0
    MIDIOUT -1
    MAINSEND 1 0
    <FXCHAIN
      WNDRECT 24 52 700 560
      SHOW 0
      LASTSEL 0
      DOCKED 0
      BYPASS 0 0 0
      <JS "ReapNES Studio/ReapNES_Console.jsfx" ""
        2 15 1 10 80 10 100 2 1 15 1 5 60 10 80 1 1 0 50 0 0 15 1 0 100 0 0 0.500000 0.500000 0.400000 0.300000 0.800000 2 1 0 0 0 0 - - - - - - - - - - - - - - - - - - - - - - - - - -
      >
      FLOATPOS 0 0 0 0
      FXID {267009AE-D819-4461-8A0C-87F5C8FEF79D}
      WAK 0 0
    >
    <ITEM
      POSITION 0
      LENGTH 70.6687424
      LOOP 0
      ALLTAKES 0
      FADEIN 0 0 0 0 0 0 0
      FADEOUT 0 0 0 0 0 0 0
      MUTE 0 0
      SEL 0
      IGUID {8FBF9580-CBC8-4713-BF64-42F91B2E0814}
      <SOURCE MIDI
        HASDATA 1 480 QN
        CCINTERP 32
        E 0 c2 26
        E 0 b2 0b 7f
        E 0 92 1c 7f
        E 1152 82 1c 00
        E 0 b2 0b 7f
        E 0 92 1d 7f
        E 1152 82 1d 00
        E 0 b2 0b 7f
        E 0 92 1f 7f
        E 1152 82 1f 00
        E 0 b2 0b 7f
        E 0 92 21 7f
        E 1152 82 21 00
        E 0 b2 0b 7f
        E 0 92 1c 7f
        E 1152 82 1c 00
        E 0 b2 0b 7f
        E 0 92 1d 7f
        E 1152 82 1d 00
        E 0 b2 0b 7f
        E 0 92 1f 7f
        E 1152 82 1f 00
        E 0 b2 0b 7f
        E 0 92 21 7f
        E 1152 82 21 00
        E 0 b2 0b 7f
        E 0 92 1f 7f
        E 1152 82 1f 00
        E 0 b2 0b 7f
        E 0 92 20 7f
        E 1152 82 20 00
        E 0 b2 0b 7f
        E 0 92 22 7f
        E 1152 82 22 00
        E 0 b2 0b 7f
        E 0 92 24 7f
        E 1152 82 24 00
        E 0 b2 0b 7f
        E 0 92 1f 7f
        E 1152 82 1f 00
        E 0 b2 0b 7f
        E 0 92 20 7f
        E 1152 82 20 00
        E 0 b2 0b 7f
        E 0 92 22 7f
        E 1152 82 22 00
        E 0 b2 0b 7f
        E 0 92 24 7f
        E 1152 82 24 00
        E 0 b2 0b 7f
        E 0 92 20 7f
        E 8640 82 20 00
        E 0 b2 0b 7f
        E 0 92 22 7f
        E 576 82 22 00
        E 0 b2 0b 7f
        E 0 92 1c 7f
        E 1152 82 1c 00
        E 0 b2 0b 7f
        E 0 92 1d 7f
        E 1152 82 1d 00
        E 0 b2 0b 7f
        E 0 92 1f 7f
        E 1152 82 1f 00
        E 0 b2 0b 7f
        E 0 92 21 7f
        E 1152 82 21 00
        E 0 b2 0b 7f
        E 0 92 1c 7f
        E 1152 82 1c 00
        E 0 b2 0b 7f
        E 0 92 1d 7f
        E 1152 82 1d 00
        E 0 b2 0b 7f
        E 0 92 1f 7f
        E 1152 82 1f 00
        E 0 b2 0b 7f
        E 0 92 21 7f
        E 1152 82 21 00
        E 0 b2 0b 7f
        E 0 92 1f 7f
        E 1152 82 1f 00
        E 0 b2 0b 7f
        E 0 92 20 7f
        E 1152 82 20 00
        E 0 b2 0b 7f
        E 0 92 22 7f
        E 1152 82 22 00
        E 0 b2 0b 7f
        E 0 92 24 7f
        E 1152 82 24 00
        E 0 b2 0b 7f
        E 0 92 1f 7f
        E 1152 82 1f 00
        E 0 b2 0b 7f
        E 0 92 20 7f
        E 1152 82 20 00
        E 0 b2 0b 7f
        E 0 92 22 7f
        E 1152 82 22 00
        E 0 b2 0b 7f
        E 0 92 24 7f
        E 1152 82 24 00
        E 0 b2 0b 7f
        E 0 92 20 7f
        E 8640 82 20 00
        E 0 b2 0b 7f
        E 0 92 22 7f
        E 576 82 22 00
        E 0 b2 0b 7f
        E 0 92 1c 7f
        E 1152 82 1c 00
        E 0 b2 0b 7f
        E 0 92 1d 7f
        E 1152 82 1d 00
        E 0 b2 0b 7f
        E 0 92 1f 7f
        E 1152 82 1f 00
        E 0 b2 0b 7f
        E 0 92 21 7f
        E 1152 82 21 00
        E 0 b2 0b 7f
        E 0 92 1c 7f
        E 1152 82 1c 00
        E 0 b2 0b 7f
        E 0 92 1d 7f
        E 1152 82 1d 00
        E 0 b2 0b 7f
        E 0 92 1f 7f
        E 1152 82 1f 00
        E 0 b2 0b 7f
        E 0 92 21 7f
        E 1152 82 21 00
        E 0 b2 0b 7f
        E 0 92 1f 7f
        E 1152 82 1f 00
        E 0 b2 0b 7f
        E 0 92 20 7f
        E 1152 82 20 00
        E 0 b2 0b 7f
        E 0 92 22 7f
        E 1152 82 22 00
        E 0 b2 0b 7f
        E 0 92 24 7f
        E 1152 82 24 00
        E 0 b2 0b 7f
        E 0 92 1f 7f
        E 1152 82 1f 00
        E 0 b2 0b 7f
        E 0 92 20 7f
        E 1152 82 20 00
        E 0 b2 0b 7f
        E 0 92 22 7f
        E 1152 82 22 00
        E 0 b2 0b 7f
        E 0 92 24 7f
        E 128 82 24 00
        E 0 b2 7b 00
        E 0 ff 2f 00
      >
    >
  >
  <TRACK {5C93AA4A-7BC4-49BF-9969-7B791571D8B8}
    NAME "NES - Noise / Drums [ch3]"
    PEAKCOL 11184810
    BEAT -1
    AUTOMODE 0
    PANLAWFLAGS 3
    VOLPAN 1 0 -1 -1 1
    MUTESOLO 0 0 0
    IPHASE 0
    PLAYOFFS 0 1
    ISBUS 0 0
    BUSCOMP 0 0 0 0 0
    SHOWINMIX 1 0.6667 0.5 1 0.5 0 0 0
    FIXEDLANES 9 0 0 0 0
    SEL 0
    REC 0 5088 1 0 0 0 0 0
    VU 2
    TRACKHEIGHT 0 0 0 0 0 0 0
    INQ 0 0 0 0.5 100 0 0 100
    NCHAN 2
    FX 1
    TRACKID {5C93AA4A-7BC4-49BF-9969-7B791571D8B8}
    PERF 0
    MIDIOUT -1
    MAINSEND 1 0
    <FXCHAIN
      WNDRECT 24 52 700 560
      SHOW 0
      LASTSEL 0
      DOCKED 0
      BYPASS 0 0 0
      <JS "ReapNES Studio/ReapNES_Console.jsfx" ""
        2 15 1 10 80 10 100 2 1 15 1 5 60 10 80 1 1 0 50 0 0 15 1 0 100 0 0 0.500000 0.500000 0.400000 0.300000 0.800000 3 1 0 0 0 0 - - - - - - - - - - - - - - - - - - - - - - - - - -
      >
      FLOATPOS 0 0 0 0
      FXID {77794D51-8DF8-4931-BEF0-8770BAC831B4}
      WAK 0 0
    >
    <ITEM
      POSITION 0
      LENGTH 70.6687424
      LOOP 0
      ALLTAKES 0
      FADEIN 0 0 0 0 0 0 0
      FADEOUT 0 0 0 0 0 0 0
      MUTE 0 0
      SEL 0
      IGUID {A10D08F3-A8B9-4193-8592-4E511BAF8375}
      <SOURCE MIDI
        HASDATA 1 480 QN
        CCINTERP 32
        E 0 93 2a 66
        E 32 83 2a 00
        E 256 93 2a 55
        E 16 83 2a 00
        E 128 93 2a 55
        E 16 83 2a 00
        E 128 93 2a 5d
        E 16 83 2a 00
        E 0 93 2a 2a
        E 144 83 2a 00
        E 128 93 2a 55
        E 16 83 2a 00
        E 128 93 2a 55
        E 16 83 2a 00
        E 128 93 2a 66
        E 32 83 2a 00
        E 256 93 2a 55
        E 16 83 2a 00
        E 128 93 2a 55
        E 16 83 2a 00
        E 128 93 2a 5d
        E 16 83 2a 00
        E 0 93 2a 2a
        E 144 83 2a 00
        E 128 93 2a 55
        E 16 83 2a 00
        E 128 93 2a 55
        E 16 83 2a 00
        E 128 93 2a 66
        E 32 83 2a 00
        E 256 93 2a 55
        E 16 83 2a 00
        E 128 93 2a 55
        E 16 83 2a 00
        E 128 93 2a 5d
        E 16 83 2a 00
        E 0 93 2a 2a
        E 144 83 2a 00
        E 128 93 2a 55
        E 16 83 2a 00
        E 128 93 2a 55
        E 16 83 2a 00
        E 128 93 2a 66
        E 32 83 2a 00
        E 256 93 2a 55
        E 16 83 2a 00
        E 128 93 2a 55
        E 16 83 2a 00
        E 128 93 2a 5d
        E 16 83 2a 00
        E 0 93 2a 2a
        E 144 83 2a 00
        E 128 93 2a 55
        E 16 83 2a 00
        E 128 93 2a 55
        E 16 83 2a 00
        E 128 93 2a 66
        E 32 83 2a 00
        E 256 93 2a 55
        E 16 83 2a 00
        E 128 93 2a 55
        E 16 83 2a 00
        E 128 93 2a 5d
        E 16 83 2a 00
        E 0 93 2a 2a
        E 144 83 2a 00
        E 128 93 2a 55
        E 16 83 2a 00
        E 128 93 2a 55
        E 16 83 2a 00
        E 128 93 2a 66
        E 32 83 2a 00
        E 256 93 2a 55
        E 16 83 2a 00
        E 128 93 2a 55
        E 16 83 2a 00
        E 128 93 2a 5d
        E 16 83 2a 00
        E 0 93 2a 2a
        E 144 83 2a 00
        E 128 93 2a 55
        E 16 83 2a 00
        E 128 93 2a 55
        E 16 83 2a 00
        E 128 93 2a 66
        E 32 83 2a 00
        E 256 93 2a 55
        E 16 83 2a 00
        E 128 93 2a 55
        E 16 83 2a 00
        E 128 93 2a 5d
        E 16 83 2a 00
        E 0 93 2a 2a
        E 144 83 2a 00
        E 128 93 2a 55
        E 16 83 2a 00
        E 128 93 2a 55
        E 16 83 2a 00
        E 128 93 2a 66
        E 32 83 2a 00
        E 256 93 2a 55
        E 16 83 2a 00
        E 128 93 2a 66
        E 32 83 2a 00
        E 112 93 2a 66
        E 16 83 2a 00
        E 0 93 2a 2a
        E 128 83 2a 00
        E 0 93 2a 66
        E 16 83 2a 00
        E 0 93 2a 2a
        E 128 83 2a 00
        E 0 93 2a 66
        E 16 83 2a 00
        E 0 93 2a 2a
        E 128 83 2a 00
        E 0 93 2a 66
        E 16 83 2a 00
        E 0 93 2a 2a
        E 128 83 2a 00
        E 0 93 2a 66
        E 32 83 2a 00
        E 256 93 2a 55
        E 16 83 2a 00
        E 128 93 2a 55
        E 16 83 2a 00
        E 128 93 2a 5d
        E 16 83 2a 00
        E 0 93 2a 2a
        E 144 83 2a 00
        E 128 93 2a 55
        E 16 83 2a 00
        E 128 93 2a 55
        E 16 83 2a 00
        E 128 93 2a 66
        E 32 83 2a 00
        E 256 93 2a 55
        E 16 83 2a 00
        E 128 93 2a 55
        E 16 83 2a 00
        E 128 93 2a 5d
        E 16 83 2a 00
        E 0 93 2a 2a
        E 144 83 2a 00
        E 128 93 2a 55
        E 16 83 2a 00
        E 128 93 2a 55
        E 16 83 2a 00
        E 128 93 2a 66
        E 32 83 2a 00
        E 256 93 2a 55
        E 16 83 2a 00
        E 128 93 2a 55
        E 16 83 2a 00
        E 128 93 2a 5d
        E 16 83 2a 00
        E 0 93 2a 2a
        E 144 83 2a 00
        E 128 93 2a 55
        E 16 83 2a 00
        E 128 93 2a 55
        E 16 83 2a 00
        E 128 93 2a 66
        E 32 83 2a 00
        E 256 93 2a 55
        E 16 83 2a 00
        E 128 93 2a 55
        E 16 83 2a 00
        E 128 93 2a 5d
        E 16 83 2a 00
        E 0 93 2a 2a
        E 144 83 2a 00
        E 128 93 2a 55
        E 16 83 2a 00
        E 128 93 2a 55
        E 16 83 2a 00
        E 128 93 2a 66
        E 32 83 2a 00
        E 256 93 2a 55
        E 16 83 2a 00
        E 128 93 2a 55
        E 16 83 2a 00
        E 128 93 2a 5d
        E 16 83 2a 00
        E 0 93 2a 2a
        E 144 83 2a 00
        E 128 93 2a 55
        E 16 83 2a 00
        E 128 93 2a 55
        E 16 83 2a 00
        E 128 93 2a 66
        E 32 83 2a 00
        E 256 93 2a 55
        E 16 83 2a 00
        E 128 93 2a 55
        E 16 83 2a 00
        E 128 93 2a 5d
        E 16 83 2a 00
        E 0 93 2a 2a
        E 144 83 2a 00
        E 128 93 2a 55
        E 16 83 2a 00
        E 128 93 2a 55
        E 16 83 2a 00
        E 128 93 2a 66
        E 32 83 2a 00
        E 256 93 2a 55
        E 16 83 2a 00
        E 128 93 2a 55
        E 16 83 2a 00
        E 128 93 2a 5d
        E 16 83 2a 00
        E 0 93 2a 2a
        E 144 83 2a 00
        E 128 93 2a 55
        E 16 83 2a 00
        E 128 93 2a 55
        E 16 83 2a 00
        E 128 93 2a 66
        E 32 83 2a 00
        E 256 93 2a 55
        E 16 83 2a 00
        E 128 93 2a 66
        E 32 83 2a 00
        E 112 93 2a 66
        E 16 83 2a 00
        E 0 93 2a 2a
        E 128 83 2a 00
        E 0 93 2a 66
        E 16 83 2a 00
        E 0 93 2a 2a
        E 128 83 2a 00
        E 0 93 2a 66
        E 16 83 2a 00
        E 0 93 2a 2a
        E 128 83 2a 00
        E 0 93 2a 66
        E 16 83 2a 00
        E 0 93 2a 2a
        E 128 83 2a 00
        E 0 93 2a 55
        E 16 83 2a 00
        E 272 93 2a 55
        E 16 83 2a 00
        E 128 93 2a 55
        E 16 83 2a 00
        E 128 93 2a 5d
        E 16 83 2a 00
        E 0 93 2a 2a
        E 144 83 2a 00
        E 128 93 2a 55
        E 16 83 2a 00
        E 128 93 2a 66
        E 32 83 2a 00
        E 112 93 2a 66
        E 32 83 2a 00
        E 256 93 2a 55
        E 16 83 2a 00
        E 128 93 2a 55
        E 16 83 2a 00
        E 128 93 2a 5d
        E 16 83 2a 00
        E 0 93 2a 2a
        E 144 83 2a 00
        E 128 93 2a 55
        E 16 83 2a 00
        E 128 93 2a 66
        E 32 83 2a 00
        E 112 93 2a 66
        E 32 83 2a 00
        E 256 93 2a 55
        E 16 83 2a 00
        E 128 93 2a 55
        E 16 83 2a 00
        E 128 93 2a 5d
        E 16 83 2a 00
        E 0 93 2a 2a
        E 144 83 2a 00
        E 128 93 2a 55
        E 16 83 2a 00
        E 128 93 2a 66
        E 32 83 2a 00
        E 112 93 2a 66
        E 32 83 2a 00
        E 256 93 2a 55
        E 16 83 2a 00
        E 128 93 2a 55
        E 16 83 2a 00
        E 128 93 2a 66
        E 16 83 2a 00
        E 0 93 2a 2a
        E 16 83 2a 00
        E 0 93 2a 66
        E 16 83 2a 00
        E 0 93 2a 2a
        E 96 83 2a 00
        E 0 93 2a 66
        E 16 83 2a 00
        E 0 93 2a 2a
        E 128 83 2a 00
        E 0 93 2a 66
        E 16 83 2a 00
        E 0 93 2a 2a
        E 128 83 2a 00
        E 0 93 2a 66
        E 16 83 2a 00
        E 0 93 2a 2a
        E 128 83 2a 00
        E 0 93 2a 55
        E 16 83 2a 00
        E 272 93 2a 55
        E 16 83 2a 00
        E 128 93 2a 55
        E 16 83 2a 00
        E 128 93 2a 5d
        E 16 83 2a 00
        E 0 93 2a 2a
        E 144 83 2a 00
        E 128 93 2a 55
        E 16 83 2a 00
        E 128 93 2a 66
        E 32 83 2a 00
        E 112 93 2a 66
        E 32 83 2a 00
        E 256 93 2a 55
        E 16 83 2a 00
        E 128 93 2a 55
        E 16 83 2a 00
        E 128 93 2a 5d
        E 16 83 2a 00
        E 0 93 2a 2a
        E 144 83 2a 00
        E 128 93 2a 55
        E 16 83 2a 00
        E 128 93 2a 66
        E 32 83 2a 00
        E 112 93 2a 66
        E 32 83 2a 00
        E 256 93 2a 55
        E 16 83 2a 00
        E 128 93 2a 55
        E 16 83 2a 00
        E 128 93 2a 5d
        E 16 83 2a 00
        E 0 93 2a 2a
        E 144 83 2a 00
        E 128 93 2a 55
        E 16 83 2a 00
        E 128 93 2a 66
        E 32 83 2a 00
        E 112 93 2a 66
        E 32 83 2a 00
        E 256 93 2a 55
        E 16 83 2a 00
        E 128 93 2a 55
        E 16 83 2a 00
        E 128 93 2a 66
        E 16 83 2a 00
        E 0 93 2a 2a
        E 16 83 2a 00
        E 0 93 2a 66
        E 16 83 2a 00
        E 0 93 2a 2a
        E 96 83 2a 00
        E 0 93 2a 66
        E 16 83 2a 00
        E 0 93 2a 2a
        E 128 83 2a 00
        E 0 93 2a 66
        E 16 83 2a 00
        E 0 93 2a 2a
        E 128 83 2a 00
        E 0 93 2a 66
        E 16 83 2a 00
        E 0 93 2a 2a
        E 128 83 2a 00
        E 0 93 2a 66
        E 32 83 2a 00
        E 256 93 2a 55
        E 16 83 2a 00
        E 128 93 2a 55
        E 16 83 2a 00
        E 128 93 2a 5d
        E 16 83 2a 00
        E 0 93 2a 2a
        E 144 83 2a 00
        E 128 93 2a 55
        E 16 83 2a 00
        E 128 93 2a 55
        E 16 83 2a 00
        E 128 93 2a 66
        E 32 83 2a 00
        E 256 93 2a 55
        E 16 83 2a 00
        E 128 93 2a 55
        E 16 83 2a 00
        E 128 93 2a 5d
        E 16 83 2a 00
        E 0 93 2a 2a
        E 144 83 2a 00
        E 128 93 2a 55
        E 16 83 2a 00
        E 128 93 2a 55
        E 16 83 2a 00
        E 128 93 2a 66
        E 32 83 2a 00
        E 256 93 2a 55
        E 16 83 2a 00
        E 128 93 2a 55
        E 16 83 2a 00
        E 128 93 2a 5d
        E 16 83 2a 00
        E 0 93 2a 2a
        E 144 83 2a 00
        E 128 93 2a 55
        E 16 83 2a 00
        E 128 93 2a 55
        E 16 83 2a 00
        E 128 93 2a 66
        E 32 83 2a 00
        E 256 93 2a 55
        E 16 83 2a 00
        E 128 93 2a 55
        E 16 83 2a 00
        E 128 93 2a 5d
        E 16 83 2a 00
        E 0 93 2a 2a
        E 144 83 2a 00
        E 128 93 2a 55
        E 16 83 2a 00
        E 128 93 2a 55
        E 16 83 2a 00
        E 128 93 2a 66
        E 32 83 2a 00
        E 256 93 2a 55
        E 16 83 2a 00
        E 128 93 2a 55
        E 16 83 2a 00
        E 128 93 2a 5d
        E 16 83 2a 00
        E 0 93 2a 2a
        E 144 83 2a 00
        E 128 93 2a 55
        E 16 83 2a 00
        E 128 93 2a 55
        E 16 83 2a 00
        E 128 93 2a 66
        E 32 83 2a 00
        E 256 93 2a 55
        E 16 83 2a 00
        E 128 93 2a 55
        E 16 83 2a 00
        E 128 93 2a 5d
        E 16 83 2a 00
        E 0 93 2a 2a
        E 144 83 2a 00
        E 128 93 2a 55
        E 16 83 2a 00
        E 128 93 2a 55
        E 16 83 2a 00
        E 128 93 2a 66
        E 32 83 2a 00
        E 256 93 2a 55
        E 16 83 2a 00
        E 128 93 2a 55
        E 16 83 2a 00
        E 128 93 2a 5d
        E 16 83 2a 00
        E 0 93 2a 2a
        E 144 83 2a 00
        E 128 93 2a 55
        E 16 83 2a 00
        E 128 93 2a 55
        E 16 83 2a 00
        E 128 93 2a 66
        E 32 83 2a 00
        E 256 93 2a 55
        E 16 83 2a 00
        E 128 93 2a 66
        E 32 83 2a 00
        E 112 93 2a 66
        E 16 83 2a 00
        E 0 93 2a 2a
        E 128 83 2a 00
        E 0 93 2a 66
        E 16 83 2a 00
        E 0 93 2a 2a
        E 128 83 2a 00
        E 0 93 2a 66
        E 16 83 2a 00
        E 0 93 2a 2a
        E 128 83 2a 00
        E 0 93 2a 66
        E 16 83 2a 00
        E 0 93 2a 2a
        E 128 83 2a 00
        E 0 93 2a 66
        E 32 83 2a 00
        E 256 93 2a 55
        E 16 83 2a 00
        E 128 93 2a 55
        E 16 83 2a 00
        E 128 93 2a 5d
        E 16 83 2a 00
        E 0 93 2a 2a
        E 144 83 2a 00
        E 128 93 2a 55
        E 16 83 2a 00
        E 128 93 2a 55
        E 16 83 2a 00
        E 128 93 2a 66
        E 32 83 2a 00
        E 256 93 2a 55
        E 16 83 2a 00
        E 128 93 2a 55
        E 16 83 2a 00
        E 128 93 2a 5d
        E 16 83 2a 00
        E 0 93 2a 2a
        E 144 83 2a 00
        E 128 93 2a 55
        E 16 83 2a 00
        E 128 93 2a 55
        E 16 83 2a 00
        E 128 93 2a 66
        E 32 83 2a 00
        E 256 93 2a 55
        E 16 83 2a 00
        E 128 93 2a 55
        E 16 83 2a 00
        E 128 93 2a 5d
        E 16 83 2a 00
        E 0 93 2a 2a
        E 144 83 2a 00
        E 128 93 2a 55
        E 16 83 2a 00
        E 128 93 2a 55
        E 16 83 2a 00
        E 128 93 2a 66
        E 32 83 2a 00
        E 256 93 2a 55
        E 16 83 2a 00
        E 128 93 2a 55
        E 16 83 2a 00
        E 128 93 2a 5d
        E 16 83 2a 00
        E 0 93 2a 2a
        E 144 83 2a 00
        E 128 93 2a 55
        E 16 83 2a 00
        E 128 93 2a 55
        E 16 83 2a 00
        E 128 93 2a 66
        E 32 83 2a 00
        E 256 93 2a 55
        E 16 83 2a 00
        E 128 93 2a 55
        E 16 83 2a 00
        E 128 93 2a 5d
        E 16 83 2a 00
        E 0 93 2a 2a
        E 144 83 2a 00
        E 128 93 2a 55
        E 16 83 2a 00
        E 128 93 2a 55
        E 16 83 2a 00
        E 128 93 2a 66
        E 32 83 2a 00
        E 256 93 2a 55
        E 16 83 2a 00
        E 128 93 2a 55
        E 16 83 2a 00
        E 128 93 2a 5d
        E 16 83 2a 00
        E 0 93 2a 2a
        E 144 83 2a 00
        E 128 93 2a 55
        E 16 83 2a 00
        E 128 93 2a 55
        E 16 83 2a 00
        E 128 93 2a 66
        E 32 83 2a 00
        E 256 93 2a 55
        E 16 83 2a 00
        E 128 93 2a 55
        E 16 83 2a 00
        E 128 93 2a 5d
        E 16 83 2a 00
        E 0 93 2a 2a
        E 144 83 2a 00
        E 128 93 2a 55
        E 16 83 2a 00
        E 128 93 2a 55
        E 16 83 2a 00
        E 128 93 2a 66
        E 32 83 2a 00
        E 256 93 2a 55
        E 16 83 2a 00
        E 128 93 2a 66
        E 32 83 2a 00
        E 112 93 2a 66
        E 16 83 2a 00
        E 0 93 2a 2a
        E 128 83 2a 00
        E 0 93 2a 66
        E 16 83 2a 00
        E 0 93 2a 2a
        E 128 83 2a 00
        E 0 93 2a 66
        E 16 83 2a 00
        E 0 93 2a 2a
        E 128 83 2a 00
        E 0 93 2a 66
        E 16 83 2a 00
        E 0 93 2a 2a
        E 128 83 2a 00
        E 0 93 2a 55
        E 16 83 2a 00
        E 272 93 2a 55
        E 16 83 2a 00
        E 128 93 2a 55
        E 16 83 2a 00
        E 128 93 2a 5d
        E 16 83 2a 00
        E 0 93 2a 2a
        E 144 83 2a 00
        E 128 93 2a 55
        E 16 83 2a 00
        E 128 93 2a 66
        E 32 83 2a 00
        E 112 93 2a 66
        E 32 83 2a 00
        E 256 93 2a 55
        E 16 83 2a 00
        E 128 93 2a 55
        E 16 83 2a 00
        E 128 93 2a 5d
        E 16 83 2a 00
        E 0 93 2a 2a
        E 144 83 2a 00
        E 128 93 2a 55
        E 16 83 2a 00
        E 128 93 2a 66
        E 32 83 2a 00
        E 112 93 2a 66
        E 32 83 2a 00
        E 256 93 2a 55
        E 16 83 2a 00
        E 128 93 2a 55
        E 16 83 2a 00
        E 128 93 2a 5d
        E 16 83 2a 00
        E 0 93 2a 2a
        E 144 83 2a 00
        E 128 93 2a 55
        E 16 83 2a 00
        E 128 93 2a 66
        E 32 83 2a 00
        E 112 93 2a 66
        E 32 83 2a 00
        E 256 93 2a 55
        E 16 83 2a 00
        E 128 93 2a 55
        E 16 83 2a 00
        E 128 93 2a 66
        E 16 83 2a 00
        E 0 93 2a 2a
        E 16 83 2a 00
        E 0 93 2a 66
        E 16 83 2a 00
        E 0 93 2a 2a
        E 96 83 2a 00
        E 0 93 2a 66
        E 16 83 2a 00
        E 0 93 2a 2a
        E 128 83 2a 00
        E 0 93 2a 66
        E 16 83 2a 00
        E 0 93 2a 2a
        E 128 83 2a 00
        E 0 93 2a 66
        E 16 83 2a 00
        E 0 93 2a 2a
        E 128 83 2a 00
        E 0 93 2a 55
        E 16 83 2a 00
        E 272 93 2a 55
        E 16 83 2a 00
        E 128 93 2a 55
        E 16 83 2a 00
        E 128 93 2a 5d
        E 16 83 2a 00
        E 0 93 2a 2a
        E 144 83 2a 00
        E 128 93 2a 55
        E 16 83 2a 00
        E 128 93 2a 66
        E 32 83 2a 00
        E 112 93 2a 66
        E 32 83 2a 00
        E 256 93 2a 55
        E 16 83 2a 00
        E 128 93 2a 55
        E 16 83 2a 00
        E 128 93 2a 5d
        E 16 83 2a 00
        E 0 93 2a 2a
        E 144 83 2a 00
        E 128 93 2a 55
        E 16 83 2a 00
        E 128 93 2a 66
        E 32 83 2a 00
        E 112 93 2a 66
        E 32 83 2a 00
        E 256 93 2a 55
        E 16 83 2a 00
        E 128 93 2a 55
        E 16 83 2a 00
        E 128 93 2a 5d
        E 16 83 2a 00
        E 0 93 2a 2a
        E 144 83 2a 00
        E 128 93 2a 55
        E 16 83 2a 00
        E 128 93 2a 66
        E 32 83 2a 00
        E 112 93 2a 66
        E 32 83 2a 00
        E 256 93 2a 55
        E 16 83 2a 00
        E 128 93 2a 55
        E 16 83 2a 00
        E 128 93 2a 66
        E 16 83 2a 00
        E 0 93 2a 2a
        E 16 83 2a 00
        E 0 93 2a 66
        E 16 83 2a 00
        E 0 93 2a 2a
        E 96 83 2a 00
        E 0 93 2a 66
        E 16 83 2a 00
        E 0 93 2a 2a
        E 128 83 2a 00
        E 0 93 2a 66
        E 16 83 2a 00
        E 0 93 2a 2a
        E 128 83 2a 00
        E 0 93 2a 66
        E 16 83 2a 00
        E 0 93 2a 2a
        E 128 83 2a 00
        E 0 93 2a 66
        E 32 83 2a 00
        E 256 93 2a 55
        E 16 83 2a 00
        E 128 93 2a 55
        E 16 83 2a 00
        E 128 93 2a 5d
        E 16 83 2a 00
        E 0 93 2a 2a
        E 144 83 2a 00
        E 128 93 2a 55
        E 16 83 2a 00
        E 128 93 2a 55
        E 16 83 2a 00
        E 128 93 2a 66
        E 32 83 2a 00
        E 256 93 2a 55
        E 16 83 2a 00
        E 128 93 2a 55
        E 16 83 2a 00
        E 128 93 2a 5d
        E 16 83 2a 00
        E 0 93 2a 2a
        E 144 83 2a 00
        E 128 93 2a 55
        E 16 83 2a 00
        E 128 93 2a 55
        E 16 83 2a 00
        E 128 93 2a 66
        E 32 83 2a 00
        E 256 93 2a 55
        E 16 83 2a 00
        E 128 93 2a 55
        E 16 83 2a 00
        E 128 93 2a 5d
        E 16 83 2a 00
        E 0 93 2a 2a
        E 144 83 2a 00
        E 128 93 2a 55
        E 16 83 2a 00
        E 128 93 2a 55
        E 16 83 2a 00
        E 128 93 2a 66
        E 32 83 2a 00
        E 256 93 2a 55
        E 16 83 2a 00
        E 128 93 2a 55
        E 16 83 2a 00
        E 128 93 2a 5d
        E 16 83 2a 00
        E 0 93 2a 2a
        E 144 83 2a 00
        E 128 93 2a 55
        E 16 83 2a 00
        E 128 93 2a 55
        E 16 83 2a 00
        E 128 93 2a 66
        E 32 83 2a 00
        E 256 93 2a 55
        E 16 83 2a 00
        E 128 93 2a 55
        E 16 83 2a 00
        E 128 93 2a 5d
        E 16 83 2a 00
        E 0 93 2a 2a
        E 144 83 2a 00
        E 128 93 2a 55
        E 16 83 2a 00
        E 128 93 2a 55
        E 16 83 2a 00
        E 128 93 2a 66
        E 32 83 2a 00
        E 256 93 2a 55
        E 16 83 2a 00
        E 128 93 2a 55
        E 16 83 2a 00
        E 128 93 2a 5d
        E 16 83 2a 00
        E 0 93 2a 2a
        E 144 83 2a 00
        E 128 93 2a 55
        E 16 83 2a 00
        E 128 93 2a 55
        E 16 83 2a 00
        E 128 93 2a 66
        E 32 83 2a 00
        E 256 93 2a 55
        E 16 83 2a 00
        E 128 93 2a 55
        E 16 83 2a 00
        E 128 93 2a 5d
        E 16 83 2a 00
        E 0 93 2a 2a
        E 144 83 2a 00
        E 128 93 2a 55
        E 16 83 2a 00
        E 128 93 2a 55
        E 16 83 2a 00
        E 128 93 2a 66
        E 32 83 2a 00
        E 256 93 2a 55
        E 16 83 2a 00
        E 128 93 2a 66
        E 32 83 2a 00
        E 112 93 2a 66
        E 16 83 2a 00
        E 0 93 2a 2a
        E 128 83 2a 00
        E 0 93 2a 66
        E 16 83 2a 00
        E 0 93 2a 2a
        E 128 83 2a 00
        E 0 93 2a 66
        E 16 83 2a 00
        E 0 93 2a 2a
        E 128 83 2a 00
        E 0 93 2a 66
        E 16 83 2a 00
        E 0 93 2a 2a
        E 128 83 2a 00
        E 0 93 2a 66
        E 32 83 2a 00
        E 256 93 2a 55
        E 16 83 2a 00
        E 128 93 2a 55
        E 16 83 2a 00
        E 128 93 2a 5d
        E 16 83 2a 00
        E 0 93 2a 2a
        E 144 83 2a 00
        E 128 93 2a 55
        E 16 83 2a 00
        E 128 93 2a 55
        E 16 83 2a 00
        E 128 93 2a 66
        E 32 83 2a 00
        E 256 93 2a 55
        E 16 83 2a 00
        E 128 93 2a 55
        E 16 83 2a 00
        E 128 93 2a 5d
        E 16 83 2a 00
        E 0 93 2a 2a
        E 144 83 2a 00
        E 128 93 2a 55
        E 16 83 2a 00
        E 128 93 2a 55
        E 16 83 2a 00
        E 128 93 2a 66
        E 32 83 2a 00
        E 256 93 2a 55
        E 16 83 2a 00
        E 128 93 2a 55
        E 16 83 2a 00
        E 128 93 2a 5d
        E 16 83 2a 00
        E 0 93 2a 2a
        E 144 83 2a 00
        E 128 93 2a 55
        E 16 83 2a 00
        E 128 93 2a 55
        E 16 83 2a 00
        E 128 93 2a 66
        E 32 83 2a 00
        E 256 93 2a 55
        E 16 83 2a 00
        E 128 93 2a 55
        E 16 83 2a 00
        E 128 93 2a 5d
        E 16 83 2a 00
        E 0 93 2a 2a
        E 144 83 2a 00
        E 128 93 2a 55
        E 16 83 2a 00
        E 128 93 2a 55
        E 16 83 2a 00
        E 128 93 2a 66
        E 32 83 2a 00
        E 256 93 2a 55
        E 16 83 2a 00
        E 128 93 2a 55
        E 16 83 2a 00
        E 128 93 2a 5d
        E 16 83 2a 00
        E 0 93 2a 2a
        E 144 83 2a 00
        E 128 93 2a 55
        E 16 83 2a 00
        E 128 93 2a 55
        E 16 83 2a 00
        E 128 93 2a 66
        E 32 83 2a 00
        E 256 93 2a 55
        E 16 83 2a 00
        E 128 93 2a 55
        E 16 83 2a 00
        E 128 93 2a 5d
        E 16 83 2a 00
        E 0 93 2a 2a
        E 144 83 2a 00
        E 128 93 2a 55
        E 16 83 2a 00
        E 128 93 2a 55
        E 16 83 2a 00
        E 128 93 2a 66
        E 32 83 2a 00
        E 256 93 2a 55
        E 16 83 2a 00
        E 128 93 2a 55
        E 16 83 2a 00
        E 128 93 2a 5d
        E 16 83 2a 00
        E 0 93 2a 2a
        E 144 83 2a 00
        E 128 93 2a 55
        E 16 83 2a 00
        E 128 93 2a 55
        E 16 83 2a 00
        E 128 93 2a 66
        E 32 83 2a 00
        E 96 b3 7b 00
        E 0 ff 2f 00
      >
    >
  >
>