<REAPER_PROJECT 0.1 "7.27/win64" 1707000000
  <NOTES 0 2
    |ReapNES Studio Project
    |MIDI Import - Bowling_title_rom_v1
  >
  RIPPLE 0
  GROUPOVERRIDE 0 0 0
  AUTOXFADE 129
  ENVATTACH 3
  POOLEDENVATTACH 0
  MIXERUIFLAGS 11 48
  ENVFADESZ10 40
  PEAKGAIN 1
  FEEDBACK 0
  PANLAW 1
  PROJOFFS 0 0 0
  MAXPROJLEN 0 0
  GRID 3199 8 1 8 1 0 0 0
  TIMEMODE 1 5 -1 30 0 0 -1
  VIDEO_CONFIG 0 0 65792
  PANMODE 3
  PANLAWFLAGS 3
  CURSOR 0
  ZOOM 100 0 0
  VZOOMEX 6 0
  USE_REC_CFG 0
  RECMODE 1
  SMPTESYNC 0 30 100 40 1000 300 0 0 1 0 0
  LOOP 0
  LOOPGRAN 0 4
  RECORD_PATH "Media" ""
  <RECORD_CFG
    ZXZhdxgAAQ==
  >
  <APPLYFX_CFG
  >
  RENDER_FILE ""
  RENDER_PATTERN ""
  RENDER_FMT 0 2 0
  RENDER_1X 0
  RENDER_RANGE 1 0 0 18 1000
  RENDER_RESAMPLE 3 0 1
  RENDER_ADDTOPROJ 0
  RENDER_STEMS 0
  RENDER_DITHER 0
  TIMELOCKMODE 1
  TEMPOENVLOCKMODE 1
  ITEMMIX 1
  DEFPITCHMODE 589824 0
  TAKELANE 1
  SAMPLERATE 44100 0 0
  <RENDER_CFG
    ZXZhdxgAAQ==
  >
  LOCK 1
  <METRONOME 6 2
    VOL 0.25 0.125
    BEATLEN 4
    FREQ 1760 880 1
    SAMPLES "" ""
    SPLIGNORE 0 0
    SPLDEF 2 660 "" 0
    SPLDEF 3 440 "" 0
    PATTERN 0 169
    PATTERNSTR ABBB
    MULT 1
  >
  GLOBAL_AUTO -1
  TEMPO 128.59999614200012 4 4
  PLAYRATE 1 0 0.25 4
  SELECTION 0 0
  SELECTION2 0 0
  MASTERAUTOMODE 0
  MASTERTRACKHEIGHT 0 0
  MASTERPEAKCOL 16576
  MASTERMUTESOLO 0
  MASTERTRACKVIEW 0 0.6667 0.5 0.5 0 0 0 0 0 0 0 0 0 0
  MASTERHWOUT 0 0 1 0 0 0 0 -1
  MASTER_NCH 2 2
  MASTER_VOLUME 1 0 -1 -1 1
  MASTER_PANMODE 3
  MASTER_PANLAWFLAGS 3
  MASTER_FX 1
  MASTER_SEL 0
  <MASTERPLAYSPEEDENV
    EGUID {BCA2A2F7-2DCA-4B52-941D-BB1EE8490287}
    ACT 0 -1
    VIS 0 1 1
    LANEHEIGHT 0 0
    ARM 0
    DEFSHAPE 0 -1 -1
  >
  <TEMPOENVEX
    EGUID {01A53AC8-62B6-4507-8591-454AA0062DD3}
    ACT 1 -1
    VIS 1 0 1
    LANEHEIGHT 0 0
    ARM 0
    DEFSHAPE 1 -1 -1
  >
  <PROJBAY
  >
  <TRACK {E14CE80D-2B7F-458C-8E61-1F287EC022D4}
    NAME "NES - Pulse 1 [ch0]"
    PEAKCOL 16576606
    BEAT -1
    AUTOMODE 0
    PANLAWFLAGS 3
    VOLPAN 1 0 -1 -1 1
    MUTESOLO 0 0 0
    IPHASE 0
    PLAYOFFS 0 1
    ISBUS 0 0
    BUSCOMP 0 0 0 0 0
    SHOWINMIX 1 0.6667 0.5 1 0.5 0 0 0
    FIXEDLANES 9 0 0 0 0
    SEL 1
    REC 1 5088 1 0 0 0 0 0
    VU 2
    TRACKHEIGHT 0 0 0 0 0 0 0
    INQ 0 0 0 0.5 100 0 0 100
    NCHAN 2
    FX 1
    TRACKID {E14CE80D-2B7F-458C-8E61-1F287EC022D4}
    PERF 0
    MIDIOUT -1
    MAINSEND 1 0
    <FXCHAIN
      WNDRECT 24 52 700 560
      SHOW 0
      LASTSEL 0
      DOCKED 0
      BYPASS 0 0 0
      <JS "ReapNES Studio/ReapNES_Console.jsfx" ""
        2 15 1 10 80 10 100 2 1 15 1 5 60 10 80 1 1 0 50 0 0 15 1 0 100 0 0 0.500000 0.500000 0.400000 0.300000 0.800000 0 1 0 0 0 0 - - - - - - - - - - - - - - - - - - - - - - - - - -
      >
      FLOATPOS 0 0 0 0
      FXID {A2692235-7129-4327-AC77-B5524718A2ED}
      WAK 0 0
    >
    <ITEM
      POSITION 0
      LENGTH 9.1912911
      LOOP 0
      ALLTAKES 0
      FADEIN 0 0 0 0 0 0 0
      FADEOUT 0 0 0 0 0 0 0
      MUTE 0 0
      SEL 0
      IGUID {86DA0E9E-CB9B-45C4-A0F4-5F183FB115EC}
      <SOURCE MIDI
        HASDATA 1 480 QN
        CCINTERP 32
        E 0 c0 50
        E 0 b0 0c 40
        E 0 b0 0b 5d
        E 0 90 3e 5d
        E 16 b0 0b 44
        E 16 b0 0b 66
        E 16 b0 0b 7f
        E 48 b0 0b 55
        E 16 b0 0b 2a
        E 16 b0 0b 44
        E 16 b0 0b 55
        E 16 b0 0b 7f
        E 32 b0 0b 5d
        E 0 80 3e 00
        E 0 90 3c 5d
        E 16 b0 0b 44
        E 16 b0 0b 66
        E 16 b0 0b 7f
        E 48 b0 0b 55
        E 16 b0 0b 2a
        E 16 b0 0b 44
        E 16 b0 0b 55
        E 16 b0 0b 7f
        E 32 b0 0b 4c
        E 16 b0 0b 44
        E 16 b0 0b 3b
        E 16 b0 0b 33
        E 16 b0 0b 2a
        E 16 b0 0b 22
        E 16 b0 0b 19
        E 16 b0 0b 11
        E 16 b0 0b 08
        E 1408 b0 0b 5d
        E 0 80 3c 00
        E 0 90 3b 5d
        E 16 b0 0b 44
        E 16 b0 0b 66
        E 16 b0 0b 7f
        E 48 b0 0b 55
        E 16 b0 0b 2a
        E 16 b0 0b 44
        E 16 b0 0b 55
        E 16 b0 0b 7f
        E 32 b0 0b 4c
        E 16 b0 0b 44
        E 16 b0 0b 3b
        E 16 b0 0b 33
        E 16 b0 0b 2a
        E 16 b0 0b 22
        E 16 b0 0b 19
        E 16 b0 0b 11
        E 16 b0 0b 08
        E 256 b0 0b 5d
        E 16 b0 0b 44
        E 16 b0 0b 66
        E 16 b0 0b 7f
        E 48 b0 0b 55
        E 16 b0 0b 2a
        E 16 b0 0b 44
        E 16 b0 0b 55
        E 16 b0 0b 7f
        E 32 b0 0b 4c
        E 16 b0 0b 44
        E 16 b0 0b 3b
        E 16 b0 0b 33
        E 16 b0 0b 2a
        E 16 b0 0b 22
        E 16 b0 0b 19
        E 16 b0 0b 11
        E 16 b0 0b 08
        E 640 b0 0b 5d
        E 0 80 3b 00
        E 0 90 39 5d
        E 16 b0 0b 44
        E 16 b0 0b 66
        E 16 b0 0b 7f
        E 48 b0 0b 55
        E 16 b0 0b 2a
        E 16 b0 0b 44
        E 16 b0 0b 55
        E 16 b0 0b 7f
        E 32 b0 0b 4c
        E 16 b0 0b 44
        E 16 b0 0b 3b
        E 16 b0 0b 33
        E 16 b0 0b 2a
        E 16 b0 0b 22
        E 16 b0 0b 19
        E 16 b0 0b 11
        E 16 b0 0b 08
        E 64 b0 0b 5d
        E 16 b0 0b 44
        E 16 b0 0b 66
        E 16 b0 0b 7f
        E 48 b0 0b 55
        E 16 b0 0b 2a
        E 16 b0 0b 44
        E 16 b0 0b 55
        E 16 b0 0b 7f
        E 32 b0 0b 5d
        E 0 80 39 00
        E 0 90 37 5d
        E 16 b0 0b 44
        E 16 b0 0b 66
        E 16 b0 0b 7f
        E 48 b0 0b 55
        E 16 b0 0b 2a
        E 16 b0 0b 44
        E 16 b0 0b 55
        E 16 b0 0b 7f
        E 32 b0 0b 4c
        E 16 b0 0b 44
        E 16 b0 0b 3b
        E 16 b0 0b 33
        E 16 b0 0b 2a
        E 16 b0 0b 22
        E 16 b0 0b 19
        E 16 b0 0b 11
        E 16 b0 0b 08
        E 640 b0 0b 5d
        E 0 80 37 00
        E 0 90 32 5d
        E 16 b0 0b 44
        E 16 b0 0b 66
        E 16 b0 0b 7f
        E 48 b0 0b 55
        E 16 b0 0b 2a
        E 16 b0 0b 44
        E 16 b0 0b 55
        E 16 b0 0b 7f
        E 32 b0 0b 4c
        E 16 b0 0b 44
        E 16 b0 0b 3b
        E 16 b0 0b 33
        E 16 b0 0b 2a
        E 16 b0 0b 22
        E 16 b0 0b 19
        E 16 b0 0b 11
        E 16 b0 0b 08
        E 64 80 32 00
        E 192 b0 0b 5d
        E 0 90 39 5d
        E 16 b0 0b 44
        E 16 b0 0b 66
        E 16 b0 0b 7f
        E 48 b0 0b 55
        E 16 b0 0b 2a
        E 16 b0 0b 44
        E 16 b0 0b 55
        E 16 b0 0b 7f
        E 32 b0 0b 4c
        E 16 b0 0b 44
        E 16 b0 0b 3b
        E 16 b0 0b 33
        E 16 b0 0b 2a
        E 16 b0 0b 22
        E 16 b0 0b 19
        E 16 b0 0b 11
        E 16 b0 0b 08
        E 256 b0 0b 5d
        E 0 80 39 00
        E 0 90 3e 5d
        E 16 b0 0b 44
        E 16 b0 0b 66
        E 16 b0 0b 7f
        E 48 b0 0b 55
        E 16 b0 0b 2a
        E 16 b0 0b 44
        E 16 b0 0b 55
        E 16 b0 0b 7f
        E 32 b0 0b 5d
        E 0 80 3e 00
        E 0 90 3c 5d
        E 16 b0 0b 44
        E 16 b0 0b 66
        E 16 b0 0b 7f
        E 48 b0 0b 55
        E 16 b0 0b 2a
        E 16 b0 0b 44
        E 16 b0 0b 55
        E 16 b0 0b 7f
        E 32 b0 0b 4c
        E 16 b0 0b 44
        E 16 b0 0b 3b
        E 16 b0 0b 33
        E 16 b0 0b 2a
        E 16 b0 0b 22
        E 16 b0 0b 19
        E 16 b0 0b 11
        E 16 b0 0b 08
        E 1408 b0 0b 5d
        E 0 80 3c 00
        E 0 90 3e 5d
        E 16 b0 0b 44
        E 16 b0 0b 66
        E 16 b0 0b 7f
        E 48 b0 0b 55
        E 16 b0 0b 2a
        E 16 b0 0b 44
        E 16 b0 0b 55
        E 16 b0 0b 7f
        E 32 b0 0b 4c
        E 16 b0 0b 44
        E 16 b0 0b 3b
        E 16 b0 0b 33
        E 16 b0 0b 2a
        E 16 b0 0b 22
        E 16 b0 0b 19
        E 16 b0 0b 11
        E 16 b0 0b 08
        E 256 b0 0b 5d
        E 16 b0 0b 44
        E 16 b0 0b 66
        E 16 b0 0b 7f
        E 48 b0 0b 55
        E 16 b0 0b 2a
        E 16 b0 0b 44
        E 16 b0 0b 55
        E 16 b0 0b 7f
        E 32 b0 0b 4c
        E 16 b0 0b 44
        E 16 b0 0b 3b
        E 16 b0 0b 33
        E 16 b0 0b 2a
        E 16 b0 0b 22
        E 16 b0 0b 19
        E 16 b0 0b 11
        E 16 b0 0b 08
        E 496 80 3e 00
        E 0 b0 7b 00
        E 0 ff 2f 00
      >
    >
  >
  <TRACK {DAD118A4-08A1-44C2-8B04-F8092D980949}
    NAME "NES - Pulse 2 [ch1]"
    PEAKCOL 10092441
    BEAT -1
    AUTOMODE 0
    PANLAWFLAGS 3
    VOLPAN 1 0 -1 -1 1
    MUTESOLO 0 0 0
    IPHASE 0
    PLAYOFFS 0 1
    ISBUS 0 0
    BUSCOMP 0 0 0 0 0
    SHOWINMIX 1 0.6667 0.5 1 0.5 0 0 0
    FIXEDLANES 9 0 0 0 0
    SEL 0
    REC 0 5088 1 0 0 0 0 0
    VU 2
    TRACKHEIGHT 0 0 0 0 0 0 0
    INQ 0 0 0 0.5 100 0 0 100
    NCHAN 2
    FX 1
    TRACKID {DAD118A4-08A1-44C2-8B04-F8092D980949}
    PERF 0
    MIDIOUT -1
    MAINSEND 1 0
    <FXCHAIN
      WNDRECT 24 52 700 560
      SHOW 0
      LASTSEL 0
      DOCKED 0
      BYPASS 0 0 0
      <JS "ReapNES Studio/ReapNES_Console.jsfx" ""
        2 15 1 10 80 10 100 2 1 15 1 5 60 10 80 1 1 0 50 0 0 15 1 0 100 0 0 0.500000 0.500000 0.400000 0.300000 0.800000 1 1 0 0 0 0 - - - - - - - - - - - - - - - - - - - - - - - - - -
      >
      FLOATPOS 0 0 0 0
      FXID {71A356D1-79F5-4EFF-A291-4219B7AEBB0C}
      WAK 0 0
    >
    <ITEM
      POSITION 0
      LENGTH 9.1912911
      LOOP 0
      ALLTAKES 0
      FADEIN 0 0 0 0 0 0 0
      FADEOUT 0 0 0 0 0 0 0
      MUTE 0 0
      SEL 0
      IGUID {92028C2F-7CAB-489A-AE87-4C9DF59C7346}
      <SOURCE MIDI
        HASDATA 1 480 QN
        CCINTERP 32
        E 0 c1 51
        E 0 b1 0c 10
        E 0 b1 0b 08
        E 0 91 32 08
        E 16 b1 0b 22
        E 16 b1 0b 44
        E 16 b1 0b 55
        E 16 b1 0b 4c
        E 16 b1 0b 33
        E 16 b1 0b 4c
        E 16 b1 0b 55
        E 48 b1 0b 44
        E 16 b1 0b 22
        E 16 b1 0b 44
        E 16 b1 0b 3b
        E 16 b1 0b 33
        E 16 b1 0b 2a
        E 16 b1 0b 22
        E 16 b1 0b 19
        E 16 b1 0b 11
        E 16 b1 0b 08
        E 96 b1 0b 22
        E 16 b1 0b 44
        E 16 b1 0b 55
        E 16 b1 0b 4c
        E 16 b1 0b 33
        E 16 b1 0b 4c
        E 16 b1 0b 55
        E 48 b1 0b 44
        E 16 b1 0b 22
        E 16 b1 0b 44
        E 16 b1 0b 3b
        E 16 b1 0b 33
        E 16 b1 0b 2a
        E 16 b1 0b 22
        E 16 b1 0b 19
        E 16 b1 0b 11
        E 16 b1 0b 08
        E 96 b1 0b 22
        E 16 b1 0b 44
        E 16 b1 0b 55
        E 16 b1 0b 4c
        E 16 b1 0b 33
        E 16 b1 0b 4c
        E 16 b1 0b 55
        E 48 b1 0b 44
        E 16 b1 0b 22
        E 16 b1 0b 44
        E 16 b1 0b 3b
        E 16 b1 0b 33
        E 16 b1 0b 2a
        E 16 b1 0b 22
        E 16 b1 0b 19
        E 16 b1 0b 11
        E 16 b1 0b 08
        E 96 b1 0b 22
        E 16 b1 0b 44
        E 16 b1 0b 55
        E 16 b1 0b 4c
        E 16 b1 0b 33
        E 16 b1 0b 4c
        E 16 b1 0b 55
        E 48 b1 0b 44
        E 16 b1 0b 22
        E 16 b1 0b 08
        E 16 b1 0b 22
        E 16 b1 0b 44
        E 16 b1 0b 55
        E 16 b1 0b 4c
        E 16 b1 0b 33
        E 16 b1 0b 4c
        E 16 b1 0b 55
        E 48 b1 0b 44
        E 16 b1 0b 22
        E 16 b1 0b 08
        E 16 b1 0b 22
        E 16 b1 0b 44
        E 16 b1 0b 55
        E 16 b1 0b 4c
        E 16 b1 0b 33
        E 16 b1 0b 4c
        E 16 b1 0b 55
        E 48 b1 0b 44
        E 16 b1 0b 22
        E 16 b1 0b 08
        E 16 b1 0b 22
        E 16 b1 0b 44
        E 16 b1 0b 55
        E 16 b1 0b 4c
        E 16 b1 0b 33
        E 16 b1 0b 4c
        E 16 b1 0b 55
        E 48 b1 0b 44
        E 16 b1 0b 22
        E 16 b1 0b 08
        E 16 b1 0b 22
        E 16 b1 0b 44
        E 16 b1 0b 55
        E 16 b1 0b 4c
        E 16 b1 0b 33
        E 16 b1 0b 4c
        E 16 b1 0b 55
        E 48 b1 0b 44
        E 16 b1 0b 22
        E 16 b1 0b 44
        E 16 b1 0b 3b
        E 16 b1 0b 33
        E 16 b1 0b 2a
        E 16 b1 0b 22
        E 16 b1 0b 19
        E 16 b1 0b 11
        E 16 b1 0b 08
        E 96 b1 0b 22
        E 16 b1 0b 44
        E 16 b1 0b 55
        E 16 b1 0b 4c
        E 16 b1 0b 33
        E 16 b1 0b 4c
        E 16 b1 0b 55
        E 48 b1 0b 44
        E 16 b1 0b 22
        E 16 b1 0b 44
        E 16 b1 0b 3b
        E 16 b1 0b 33
        E 16 b1 0b 2a
        E 16 b1 0b 22
        E 16 b1 0b 19
        E 16 b1 0b 11
        E 16 b1 0b 08
        E 96 b1 0b 22
        E 16 b1 0b 44
        E 16 b1 0b 55
        E 16 b1 0b 4c
        E 16 b1 0b 33
        E 16 b1 0b 4c
        E 16 b1 0b 55
        E 48 b1 0b 44
        E 16 b1 0b 22
        E 16 b1 0b 44
        E 16 b1 0b 3b
        E 16 b1 0b 33
        E 16 b1 0b 2a
        E 16 b1 0b 22
        E 16 b1 0b 19
        E 16 b1 0b 11
        E 16 b1 0b 08
        E 96 b1 0b 22
        E 16 b1 0b 44
        E 16 b1 0b 55
        E 16 b1 0b 4c
        E 16 b1 0b 33
        E 16 b1 0b 4c
        E 16 b1 0b 55
        E 48 b1 0b 44
        E 16 b1 0b 22
        E 16 b1 0b 44
        E 16 b1 0b 3b
        E 16 b1 0b 33
        E 16 b1 0b 2a
        E 16 b1 0b 22
        E 16 b1 0b 19
        E 16 b1 0b 11
        E 16 b1 0b 08
        E 96 b1 0b 22
        E 16 b1 0b 44
        E 16 b1 0b 55
        E 16 b1 0b 4c
        E 16 b1 0b 33
        E 16 b1 0b 4c
        E 16 b1 0b 55
        E 48 b1 0b 44
        E 16 b1 0b 22
        E 16 b1 0b 44
        E 16 b1 0b 3b
        E 16 b1 0b 33
        E 16 b1 0b 2a
        E 16 b1 0b 22
        E 16 b1 0b 19
        E 16 b1 0b 11
        E 16 b1 0b 08
        E 96 b1 0b 22
        E 16 b1 0b 44
        E 16 b1 0b 55
        E 16 b1 0b 4c
        E 16 b1 0b 33
        E 16 b1 0b 4c
        E 16 b1 0b 55
        E 48 b1 0b 44
        E 16 b1 0b 22
        E 16 b1 0b 44
        E 16 b1 0b 3b
        E 16 b1 0b 33
        E 16 b1 0b 2a
        E 16 b1 0b 22
        E 16 b1 0b 19
        E 16 b1 0b 11
        E 16 b1 0b 08
        E 96 b1 0b 22
        E 16 b1 0b 44
        E 16 b1 0b 55
        E 16 b1 0b 4c
        E 16 b1 0b 33
        E 16 b1 0b 4c
        E 16 b1 0b 55
        E 48 b1 0b 44
        E 16 b1 0b 22
        E 16 b1 0b 08
        E 16 b1 0b 22
        E 16 b1 0b 44
        E 16 b1 0b 55
        E 16 b1 0b 4c
        E 16 b1 0b 33
        E 16 b1 0b 4c
        E 16 b1 0b 55
        E 48 b1 0b 44
        E 16 b1 0b 22
        E 16 b1 0b 08
        E 16 b1 0b 22
        E 16 b1 0b 44
        E 16 b1 0b 55
        E 16 b1 0b 4c
        E 16 b1 0b 33
        E 16 b1 0b 4c
        E 16 b1 0b 55
        E 48 b1 0b 44
        E 16 b1 0b 22
        E 16 b1 0b 08
        E 16 b1 0b 22
        E 16 b1 0b 44
        E 16 b1 0b 55
        E 16 b1 0b 4c
        E 16 b1 0b 33
        E 16 b1 0b 4c
        E 16 b1 0b 55
        E 48 b1 0b 44
        E 16 b1 0b 22
        E 16 b1 0b 08
        E 16 b1 0b 22
        E 16 b1 0b 44
        E 16 b1 0b 55
        E 16 b1 0b 4c
        E 16 b1 0b 33
        E 16 b1 0b 4c
        E 16 b1 0b 55
        E 48 b1 0b 44
        E 16 b1 0b 22
        E 16 b1 0b 44
        E 16 b1 0b 3b
        E 16 b1 0b 33
        E 16 b1 0b 2a
        E 16 b1 0b 22
        E 16 b1 0b 19
        E 16 b1 0b 11
        E 16 b1 0b 08
        E 96 b1 0b 22
        E 16 b1 0b 44
        E 16 b1 0b 55
        E 16 b1 0b 4c
        E 16 b1 0b 33
        E 16 b1 0b 4c
        E 16 b1 0b 55
        E 48 b1 0b 44
        E 16 b1 0b 22
        E 16 b1 0b 44
        E 16 b1 0b 3b
        E 16 b1 0b 33
        E 16 b1 0b 2a
        E 16 b1 0b 22
        E 16 b1 0b 19
        E 16 b1 0b 11
        E 16 b1 0b 08
        E 96 b1 0b 22
        E 16 b1 0b 44
        E 16 b1 0b 55
        E 16 b1 0b 4c
        E 16 b1 0b 33
        E 16 b1 0b 4c
        E 16 b1 0b 55
        E 48 b1 0b 44
        E 16 b1 0b 22
        E 16 b1 0b 44
        E 16 b1 0b 3b
        E 16 b1 0b 33
        E 16 b1 0b 2a
        E 16 b1 0b 22
        E 16 b1 0b 19
        E 16 b1 0b 11
        E 16 b1 0b 08
        E 96 b1 0b 22
        E 16 b1 0b 44
        E 16 b1 0b 55
        E 16 b1 0b 4c
        E 16 b1 0b 33
        E 16 b1 0b 4c
        E 16 b1 0b 55
        E 48 b1 0b 44
        E 16 b1 0b 22
        E 16 b1 0b 44
        E 16 b1 0b 3b
        E 16 b1 0b 33
        E 16 b1 0b 2a
        E 16 b1 0b 22
        E 16 b1 0b 19
        E 16 b1 0b 11
        E 16 b1 0b 08
        E 96 b1 0b 22
        E 16 b1 0b 44
        E 16 b1 0b 55
        E 16 b1 0b 4c
        E 16 b1 0b 33
        E 16 b1 0b 4c
        E 16 b1 0b 55
        E 48 b1 0b 44
        E 16 b1 0b 22
        E 16 b1 0b 44
        E 16 b1 0b 3b
        E 16 b1 0b 33
        E 16 b1 0b 2a
        E 16 b1 0b 22
        E 16 b1 0b 19
        E 16 b1 0b 11
        E 16 b1 0b 08
        E 96 b1 0b 22
        E 16 b1 0b 44
        E 16 b1 0b 55
        E 16 b1 0b 4c
        E 16 b1 0b 33
        E 16 b1 0b 4c
        E 16 b1 0b 55
        E 48 b1 0b 44
        E 16 b1 0b 22
        E 16 b1 0b 44
        E 16 b1 0b 3b
        E 16 b1 0b 33
        E 16 b1 0b 2a
        E 16 b1 0b 22
        E 16 b1 0b 19
        E 16 b1 0b 11
        E 16 b1 0b 08
        E 96 b1 0b 22
        E 16 b1 0b 44
        E 16 b1 0b 55
        E 16 b1 0b 4c
        E 16 b1 0b 33
        E 16 b1 0b 4c
        E 16 b1 0b 55
        E 48 b1 0b 44
        E 16 b1 0b 22
        E 16 b1 0b 08
        E 16 b1 0b 22
        E 16 b1 0b 44
        E 16 b1 0b 55
        E 16 b1 0b 4c
        E 16 b1 0b 33
        E 16 b1 0b 4c
        E 16 b1 0b 55
        E 48 b1 0b 44
        E 16 b1 0b 22
        E 16 b1 0b 08
        E 16 b1 0b 22
        E 16 b1 0b 44
        E 16 b1 0b 55
        E 16 b1 0b 4c
        E 16 b1 0b 33
        E 16 b1 0b 4c
        E 16 b1 0b 55
        E 48 b1 0b 44
        E 16 b1 0b 22
        E 16 b1 0b 08
        E 16 b1 0b 22
        E 16 b1 0b 44
        E 16 b1 0b 55
        E 16 b1 0b 4c
        E 16 b1 0b 33
        E 16 b1 0b 4c
        E 16 b1 0b 55
        E 48 b1 0b 44
        E 16 b1 0b 22
        E 16 b1 0b 08
        E 16 b1 0b 22
        E 16 b1 0b 44
        E 16 b1 0b 55
        E 16 b1 0b 4c
        E 16 b1 0b 33
        E 16 b1 0b 4c
        E 16 b1 0b 55
        E 48 b1 0b 44
        E 16 b1 0b 22
        E 16 b1 0b 44
        E 16 b1 0b 3b
        E 16 b1 0b 33
        E 16 b1 0b 2a
        E 16 b1 0b 22
        E 16 b1 0b 19
        E 16 b1 0b 11
        E 16 b1 0b 08
        E 96 b1 0b 22
        E 16 b1 0b 44
        E 16 b1 0b 55
        E 16 b1 0b 4c
        E 16 b1 0b 33
        E 16 b1 0b 4c
        E 16 b1 0b 55
        E 48 b1 0b 44
        E 16 b1 0b 22
        E 16 b1 0b 44
        E 16 b1 0b 3b
        E 16 b1 0b 33
        E 16 b1 0b 2a
        E 16 b1 0b 22
        E 16 b1 0b 19
        E 16 b1 0b 11
        E 16 b1 0b 08
        E 96 b1 0b 22
        E 16 b1 0b 44
        E 16 b1 0b 55
        E 16 b1 0b 4c
        E 16 b1 0b 33
        E 16 b1 0b 4c
        E 16 b1 0b 55
        E 48 b1 0b 44
        E 16 b1 0b 22
        E 16 b1 0b 44
        E 16 b1 0b 3b
        E 16 b1 0b 33
        E 16 b1 0b 2a
        E 16 b1 0b 22
        E 16 b1 0b 19
        E 16 b1 0b 11
        E 16 b1 0b 08
        E 96 b1 0b 22
        E 16 b1 0b 44
        E 16 b1 0b 55
        E 16 b1 0b 4c
        E 16 b1 0b 33
        E 16 b1 0b 4c
        E 16 b1 0b 55
        E 48 b1 0b 44
        E 16 b1 0b 22
        E 16 b1 0b 44
        E 16 b1 0b 3b
        E 16 b1 0b 33
        E 16 81 32 00
        E 0 b1 7b 00
        E 0 ff 2f 00
      >
    >
  >
  <TRACK {D2AB49EF-0C5B-47AF-BE69-BAD56271F979}
    NAME "NES - Triangle [ch2]"
    PEAKCOL 16744192
    BEAT -1
    AUTOMODE 0
    PANLAWFLAGS 3
    VOLPAN 1 0 -1 -1 1
    MUTESOLO 0 0 0
    IPHASE 0
    PLAYOFFS 0 1
    ISBUS 0 0
    BUSCOMP 0 0 0 0 0
    SHOWINMIX 1 0.6667 0.5 1 0.5 0 0 0
    FIXEDLANES 9 0 0 0 0
    SEL 0
    REC 0 5088 1 0 0 0 0 0
    VU 2
    TRACKHEIGHT 0 0 0 0 0 0 0
    INQ 0 0 0 0.5 100 0 0 100
    NCHAN 2
    FX 1
    TRACKID {D2AB49EF-0C5B-47AF-BE69-BAD56271F979}
    PERF 0
    MIDIOUT -1
    MAINSEND 1 0
    <FXCHAIN
      WNDRECT 24 52 700 560
      SHOW 0
      LASTSEL 0
      DOCKED 0
      BYPASS 0 0 0
      <JS "ReapNES Studio/ReapNES_Console.jsfx" ""
        2 15 1 10 80 10 100 2 1 15 1 5 60 10 80 1 1 0 50 0 0 15 1 0 100 0 0 0.500000 0.500000 0.400000 0.300000 0.800000 2 1 0 0 0 0 - - - - - - - - - - - - - - - - - - - - - - - - - -
      >
      FLOATPOS 0 0 0 0
      FXID {EDCD2EA2-F007-4E6D-931F-F0C4CD528A80}
      WAK 0 0
    >
    <ITEM
      POSITION 0
      LENGTH 9.1912911
      LOOP 0
      ALLTAKES 0
      FADEIN 0 0 0 0 0 0 0
      FADEOUT 0 0 0 0 0 0 0
      MUTE 0 0
      SEL 0
      IGUID {91686670-620D-4AA8-92A5-5A90902D6CFA}
      <SOURCE MIDI
        HASDATA 1 480 QN
        CCINTERP 32
        E 0 c2 26
        E 0 b2 0b 7f
        E 0 92 3e 7f
        E 192 82 3e 00
        E 0 b2 0b 7f
        E 0 92 3c 7f
        E 1728 82 3c 00
        E 0 b2 0b 7f
        E 0 92 37 7f
        E 1536 82 37 00
        E 0 b2 0b 7f
        E 0 92 35 7f
        E 576 82 35 00
        E 0 b2 0b 7f
        E 0 92 34 7f
        E 960 82 34 00
        E 0 b2 0b 7f
        E 0 92 42 7f
        E 1536 82 42 00
        E 0 b2 0b 7f
        E 0 92 40 7f
        E 1536 82 40 00
        E 0 b2 0b 7f
        E 0 92 3b 7f
        E 1392 82 3b 00
        E 0 b2 7b 00
        E 0 ff 2f 00
      >
    >
  >
  <TRACK {9435EA06-8E87-4FB7-8CD0-1EBB4643C9AA}
    NAME "NES - Noise / Drums [ch3]"
    PEAKCOL 11184810
    BEAT -1
    AUTOMODE 0
    PANLAWFLAGS 3
    VOLPAN 1 0 -1 -1 1
    MUTESOLO 0 0 0
    IPHASE 0
    PLAYOFFS 0 1
    ISBUS 0 0
    BUSCOMP 0 0 0 0 0
    SHOWINMIX 1 0.6667 0.5 1 0.5 0 0 0
    FIXEDLANES 9 0 0 0 0
    SEL 0
    REC 0 5088 1 0 0 0 0 0
    VU 2
    TRACKHEIGHT 0 0 0 0 0 0 0
    INQ 0 0 0 0.5 100 0 0 100
    NCHAN 2
    FX 1
    TRACKID {9435EA06-8E87-4FB7-8CD0-1EBB4643C9AA}
    PERF 0
    MIDIOUT -1
    MAINSEND 1 0
    <FXCHAIN
      WNDRECT 24 52 700 560
      SHOW 0
      LASTSEL 0
      DOCKED 0
      BYPASS 0 0 0
      <JS "ReapNES Studio/ReapNES_Console.jsfx" ""
        2 15 1 10 80 10 100 2 1 15 1 5 60 10 80 1 1 0 50 0 0 15 1 0 100 0 0 0.500000 0.500000 0.400000 0.300000 0.800000 3 1 0 0 0 0 - - - - - - - - - - - - - - - - - - - - - - - - - -
      >
      FLOATPOS 0 0 0 0
      FXID {CBD5F9B0-6ED8-4FED-83DE-C7B87190E7B7}
      WAK 0 0
    >
    <ITEM
      POSITION 0
      LENGTH 9.1912911
      LOOP 0
      ALLTAKES 0
      FADEIN 0 0 0 0 0 0 0
      FADEOUT 0 0 0 0 0 0 0
      MUTE 0 0
      SEL 0
      IGUID {A35A7249-A764-4F2C-B82A-43053957F953}
      <SOURCE MIDI
        HASDATA 1 480 QN
        CCINTERP 32
        E 0 93 2a 7f
        E 384 83 2a 00
        E 0 93 2a 7f
        E 384 83 2a 00
        E 0 93 2a 7f
        E 384 83 2a 00
        E 0 93 2a 7f
        E 384 83 2a 00
        E 0 93 2a 7f
        E 384 83 2a 00
        E 0 93 2a 7f
        E 384 83 2a 00
        E 0 93 2a 7f
        E 384 83 2a 00
        E 0 93 2a 7f
        E 384 83 2a 00
        E 0 93 2a 7f
        E 384 83 2a 00
        E 0 93 2a 7f
        E 384 83 2a 00
        E 0 93 2a 7f
        E 384 83 2a 00
        E 0 93 2a 7f
        E 384 83 2a 00
        E 0 93 2a 7f
        E 384 83 2a 00
        E 0 93 2a 7f
        E 384 83 2a 00
        E 0 93 2a 7f
        E 384 83 2a 00
        E 0 93 2a 7f
        E 384 83 2a 00
        E 0 93 2a 7f
        E 384 83 2a 00
        E 0 93 2a 7f
        E 384 83 2a 00
        E 0 93 2a 7f
        E 384 83 2a 00
        E 0 93 2a 7f
        E 384 83 2a 00
        E 0 93 2a 7f
        E 384 83 2a 00
        E 0 93 2a 7f
        E 384 83 2a 00
        E 0 93 2a 7f
        E 384 83 2a 00
        E 0 93 2a 7f
        E 384 83 2a 00
        E 0 93 2a 7f
        E 240 83 2a 00
        E 0 b3 7b 00
        E 0 ff 2f 00
      >
    >
  >
>