<REAPER_PROJECT 0.1 "7.27/win64" 1707000000
  <NOTES 0 2
    |ReapNES Studio Project
    |MIDI Import - Shadow_of_Ninja_title_rom_v1
  >
  RIPPLE 0
  GROUPOVERRIDE 0 0 0
  AUTOXFADE 129
  ENVATTACH 3
  POOLEDENVATTACH 0
  MIXERUIFLAGS 11 48
  ENVFADESZ10 40
  PEAKGAIN 1
  FEEDBACK 0
  PANLAW 1
  PROJOFFS 0 0 0
  MAXPROJLEN 0 0
  GRID 3199 8 1 8 1 0 0 0
  TIMEMODE 1 5 -1 30 0 0 -1
  VIDEO_CONFIG 0 0 65792
  PANMODE 3
  PANLAWFLAGS 3
  CURSOR 0
  ZOOM 100 0 0
  VZOOMEX 6 0
  USE_REC_CFG 0
  RECMODE 1
  SMPTESYNC 0 30 100 40 1000 300 0 0 1 0 0
  LOOP 0
  LOOPGRAN 0 4
  RECORD_PATH "Media" ""
  <RECORD_CFG
    ZXZhdxgAAQ==
  >
  <APPLYFX_CFG
  >
  RENDER_FILE ""
  RENDER_PATTERN ""
  RENDER_FMT 0 2 0
  RENDER_1X 0
  RENDER_RANGE 1 0 0 18 1000
  RENDER_RESAMPLE 3 0 1
  RENDER_ADDTOPROJ 0
  RENDER_STEMS 0
  RENDER_DITHER 0
  TIMELOCKMODE 1
  TEMPOENVLOCKMODE 1
  ITEMMIX 1
  DEFPITCHMODE 589824 0
  TAKELANE 1
  SAMPLERATE 44100 0 0
  <RENDER_CFG
    ZXZhdxgAAQ==
  >
  LOCK 1
  <METRONOME 6 2
    VOL 0.25 0.125
    BEATLEN 4
    FREQ 1760 880 1
    SAMPLES "" ""
    SPLIGNORE 0 0
    SPLDEF 2 660 "" 0
    SPLDEF 3 440 "" 0
    PATTERN 0 169
    PATTERNSTR ABBB
    MULT 1
  >
  GLOBAL_AUTO -1
  TEMPO 128.59999614200012 4 4
  PLAYRATE 1 0 0.25 4
  SELECTION 0 0
  SELECTION2 0 0
  MASTERAUTOMODE 0
  MASTERTRACKHEIGHT 0 0
  MASTERPEAKCOL 16576
  MASTERMUTESOLO 0
  MASTERTRACKVIEW 0 0.6667 0.5 0.5 0 0 0 0 0 0 0 0 0 0
  MASTERHWOUT 0 0 1 0 0 0 0 -1
  MASTER_NCH 2 2
  MASTER_VOLUME 1 0 -1 -1 1
  MASTER_PANMODE 3
  MASTER_PANLAWFLAGS 3
  MASTER_FX 1
  MASTER_SEL 0
  <MASTERPLAYSPEEDENV
    EGUID {8E5F8154-0D14-4FAE-8EFB-958AD93AA727}
    ACT 0 -1
    VIS 0 1 1
    LANEHEIGHT 0 0
    ARM 0
    DEFSHAPE 0 -1 -1
  >
  <TEMPOENVEX
    EGUID {596A28E8-F39A-4891-AFA5-A56D3A6E1E78}
    ACT 1 -1
    VIS 1 0 1
    LANEHEIGHT 0 0
    ARM 0
    DEFSHAPE 1 -1 -1
  >
  <PROJBAY
  >
  <TRACK {DE36441D-A083-4555-87E8-7F3011D52A8E}
    NAME "NES - Pulse 1 [ch0]"
    PEAKCOL 16576606
    BEAT -1
    AUTOMODE 0
    PANLAWFLAGS 3
    VOLPAN 1 0 -1 -1 1
    MUTESOLO 0 0 0
    IPHASE 0
    PLAYOFFS 0 1
    ISBUS 0 0
    BUSCOMP 0 0 0 0 0
    SHOWINMIX 1 0.6667 0.5 1 0.5 0 0 0
    FIXEDLANES 9 0 0 0 0
    SEL 1
    REC 1 5088 1 0 0 0 0 0
    VU 2
    TRACKHEIGHT 0 0 0 0 0 0 0
    INQ 0 0 0 0.5 100 0 0 100
    NCHAN 2
    FX 1
    TRACKID {DE36441D-A083-4555-87E8-7F3011D52A8E}
    PERF 0
    MIDIOUT -1
    MAINSEND 1 0
    <FXCHAIN
      WNDRECT 24 52 700 560
      SHOW 0
      LASTSEL 0
      DOCKED 0
      BYPASS 0 0 0
      <JS "ReapNES Studio/ReapNES_Console.jsfx" ""
        2 15 1 10 80 10 100 2 1 15 1 5 60 10 80 1 1 0 50 0 0 15 1 0 100 0 0 0.500000 0.500000 0.400000 0.300000 0.800000 0 1 0 0 0 0 - - - - - - - - - - - - - - - - - - - - - - - - - -
      >
      FLOATPOS 0 0 0 0
      FXID {67D6C380-DF44-477C-8DF0-94337C8A17D6}
      WAK 0 0
    >
    <ITEM
      POSITION 0
      LENGTH 72.1461919
      LOOP 0
      ALLTAKES 0
      FADEIN 0 0 0 0 0 0 0
      FADEOUT 0 0 0 0 0 0 0
      MUTE 0 0
      SEL 0
      IGUID {6A007217-4472-44F3-9EE0-3B2353B44C7D}
      <SOURCE MIDI
        HASDATA 1 480 QN
        CCINTERP 32
        E 0 c0 50
        E 0 b0 0c 20
        E 0 b0 0b 7f
        E 0 90 25 7f
        E 16 80 25 00
        E 0 90 26 7f
        E 16 80 26 00
        E 0 90 27 7f
        E 32 80 27 00
        E 0 90 28 7f
        E 16 80 28 00
        E 0 90 29 7f
        E 16 80 29 00
        E 0 90 2a 7f
        E 16 80 2a 00
        E 0 90 2b 7f
        E 16 80 2b 00
        E 0 90 2c 7f
        E 16 80 2c 00
        E 0 90 2d 7f
        E 16 80 2d 00
        E 0 90 2e 7f
        E 16 80 2e 00
        E 0 90 2f 7f
        E 16 80 2f 00
        E 0 90 30 7f
        E 16 80 30 00
        E 0 90 32 7f
        E 16 80 32 00
        E 0 90 33 7f
        E 16 80 33 00
        E 0 90 35 7f
        E 16 80 35 00
        E 0 90 37 7f
        E 16 80 37 00
        E 0 90 38 7f
        E 16 80 38 00
        E 0 90 39 7f
        E 16 80 39 00
        E 0 90 3a 7f
        E 16 80 3a 00
        E 0 90 3b 7f
        E 16 80 3b 00
        E 0 90 3c 7f
        E 16 80 3c 00
        E 0 90 3e 7f
        E 16 80 3e 00
        E 0 90 3f 7f
        E 16 80 3f 00
        E 0 90 41 7f
        E 16 80 41 00
        E 0 90 43 7f
        E 16 80 43 00
        E 0 90 45 7f
        E 16 b0 0b 2a
        E 0 80 45 00
        E 0 90 3a 2a
        E 16 80 3a 00
        E 0 90 3b 2a
        E 16 80 3b 00
        E 0 90 3c 2a
        E 16 80 3c 00
        E 0 90 3e 2a
        E 16 80 3e 00
        E 0 90 3f 2a
        E 16 80 3f 00
        E 0 90 41 2a
        E 16 80 41 00
        E 0 90 43 2a
        E 16 80 43 00
        E 0 90 45 2a
        E 16 b0 0c 40
        E 0 b0 0b 7f
        E 0 80 45 00
        E 0 90 56 7f
        E 64 b0 0b 3b
        E 64 80 56 00
        E 8960 b0 0c 20
        E 0 b0 0b 44
        E 0 90 21 44
        E 16 b0 0b 4c
        E 16 b0 0b 33
        E 144 80 21 00
        E 16 b0 0b 44
        E 0 90 2d 44
        E 16 b0 0b 4c
        E 16 b0 0b 33
        E 144 80 2d 00
        E 16 b0 0b 44
        E 0 90 2d 44
        E 16 b0 0b 4c
        E 16 b0 0b 33
        E 144 80 2d 00
        E 208 b0 0b 44
        E 0 90 2d 44
        E 16 b0 0b 4c
        E 16 b0 0b 33
        E 240 80 2d 00
        E 16 b0 0b 44
        E 0 90 2b 44
        E 16 b0 0b 4c
        E 16 b0 0b 33
        E 48 80 2b 00
        E 16 b0 0b 11
        E 0 90 30 11
        E 192 b0 0b 44
        E 16 b0 0b 4c
        E 16 b0 0b 33
        E 336 80 30 00
        E 16 b0 0b 44
        E 0 90 30 44
        E 16 b0 0b 4c
        E 16 b0 0b 33
        E 48 80 30 00
        E 112 b0 0b 44
        E 0 90 30 44
        E 16 b0 0b 4c
        E 16 b0 0b 33
        E 528 80 30 00
        E 16 b0 0b 44
        E 0 90 29 44
        E 16 b0 0b 4c
        E 16 b0 0b 33
        E 48 80 29 00
        E 16 b0 0b 11
        E 0 90 2e 11
        E 96 b0 0b 44
        E 0 80 2e 00
        E 0 90 2b 44
        E 16 b0 0b 4c
        E 16 b0 0b 33
        E 336 80 2b 00
        E 16 b0 0b 44
        E 0 90 2d 44
        E 16 b0 0b 4c
        E 16 b0 0b 33
        E 48 80 2d 00
        E 16 b0 0b 11
        E 0 90 2b 11
        E 96 b0 0b 44
        E 0 80 2b 00
        E 0 90 2d 44
        E 16 b0 0b 4c
        E 16 b0 0b 33
        E 48 80 2d 00
        E 16 b0 0b 11
        E 0 90 2d 11
        E 96 b0 0b 44
        E 16 b0 0b 4c
        E 16 b0 0b 33
        E 144 80 2d 00
        E 16 b0 0b 44
        E 0 90 2d 44
        E 16 b0 0b 4c
        E 16 b0 0b 33
        E 48 80 2d 00
        E 16 b0 0b 11
        E 0 90 2d 11
        E 96 b0 0b 44
        E 16 b0 0b 4c
        E 16 b0 0b 33
        E 240 80 2d 00
        E 16 b0 0b 44
        E 0 90 2b 44
        E 16 b0 0b 4c
        E 16 b0 0b 33
        E 48 80 2b 00
        E 16 b0 0b 11
        E 0 90 30 11
        E 192 b0 0b 44
        E 0 80 30 00
        E 0 90 39 44
        E 16 b0 0b 4c
        E 16 b0 0b 33
        E 48 80 39 00
        E 16 b0 0b 44
        E 0 90 37 44
        E 16 b0 0b 4c
        E 16 b0 0b 33
        E 48 80 37 00
        E 16 b0 0b 44
        E 0 90 37 44
        E 16 b0 0b 4c
        E 16 b0 0b 33
        E 736 b0 0b 44
        E 16 b0 0b 4c
        E 16 b0 0b 33
        E 720 80 37 00
        E 16 b0 0b 44
        E 0 90 21 44
        E 16 b0 0b 4c
        E 16 b0 0b 33
        E 144 80 21 00
        E 16 b0 0b 44
        E 0 90 35 44
        E 16 b0 0b 4c
        E 16 b0 0b 33
        E 144 80 35 00
        E 16 b0 0b 44
        E 0 90 39 44
        E 16 b0 0b 4c
        E 16 b0 0b 33
        E 144 80 39 00
        E 16 b0 0b 11
        E 0 90 35 11
        E 192 b0 0b 44
        E 16 b0 0b 4c
        E 16 b0 0b 33
        E 240 80 35 00
        E 16 b0 0b 44
        E 0 90 35 44
        E 16 b0 0b 4c
        E 16 b0 0b 33
        E 48 80 35 00
        E 16 b0 0b 11
        E 0 90 35 11
        E 192 b0 0b 44
        E 16 b0 0b 4c
        E 16 b0 0b 33
        E 336 80 35 00
        E 16 b0 0b 44
        E 0 90 35 44
        E 16 b0 0b 4c
        E 16 b0 0b 33
        E 48 80 35 00
        E 16 b0 0b 11
        E 0 90 35 11
        E 96 b0 0b 44
        E 16 b0 0b 4c
        E 16 b0 0b 33
        E 528 80 35 00
        E 16 b0 0b 44
        E 0 90 29 44
        E 16 b0 0b 4c
        E 16 b0 0b 33
        E 48 80 29 00
        E 16 b0 0b 11
        E 0 90 29 11
        E 96 b0 0b 44
        E 0 80 29 00
        E 0 90 2e 44
        E 16 b0 0b 4c
        E 16 b0 0b 33
        E 336 80 2e 00
        E 16 b0 0b 44
        E 0 90 2b 44
        E 16 b0 0b 4c
        E 16 b0 0b 33
        E 48 80 2b 00
        E 16 b0 0b 44
        E 0 90 2d 44
        E 16 b0 0b 4c
        E 16 b0 0b 33
        E 48 80 2d 00
        E 16 b0 0b 44
        E 0 90 2d 44
        E 16 b0 0b 4c
        E 16 b0 0b 33
        E 144 80 2d 00
        E 16 b0 0b 2a
        E 0 90 2d 2a
        E 16 b0 0b 33
        E 16 b0 0b 19
        E 48 80 2d 00
        E 16 b0 0b 2a
        E 0 90 2d 2a
        E 16 b0 0b 33
        E 16 b0 0b 19
        E 48 80 2d 00
        E 16 b0 0b 2a
        E 0 90 2d 2a
        E 16 b0 0b 33
        E 16 b0 0b 19
        E 144 80 2d 00
        E 16 b0 0b 44
        E 0 90 2d 44
        E 16 b0 0b 4c
        E 16 b0 0b 33
        E 48 80 2d 00
        E 16 b0 0b 44
        E 0 90 2d 44
        E 16 b0 0b 4c
        E 16 b0 0b 33
        E 48 80 2d 00
        E 16 b0 0b 44
        E 0 90 2d 44
        E 16 b0 0b 4c
        E 16 b0 0b 33
        E 144 80 2d 00
        E 16 b0 0b 2a
        E 0 90 2d 2a
        E 16 b0 0b 33
        E 16 b0 0b 19
        E 48 80 2d 00
        E 16 b0 0b 2a
        E 0 90 2d 2a
        E 16 b0 0b 33
        E 16 b0 0b 19
        E 48 80 2d 00
        E 16 b0 0b 2a
        E 0 90 3c 2a
        E 16 b0 0b 33
        E 16 b0 0b 19
        E 144 80 3c 00
        E 16 b0 0b 44
        E 0 90 34 44
        E 16 b0 0b 4c
        E 16 b0 0b 33
        E 48 80 34 00
        E 16 b0 0b 44
        E 0 90 34 44
        E 16 b0 0b 4c
        E 16 b0 0b 33
        E 48 80 34 00
        E 16 b0 0b 44
        E 0 90 39 44
        E 16 b0 0b 4c
        E 16 b0 0b 33
        E 144 80 39 00
        E 16 b0 0b 44
        E 0 90 39 44
        E 16 b0 0b 4c
        E 16 b0 0b 33
        E 48 80 39 00
        E 16 b0 0b 44
        E 0 90 39 44
        E 16 b0 0b 4c
        E 16 b0 0b 33
        E 48 80 39 00
        E 16 b0 0b 44
        E 0 90 39 44
        E 16 b0 0b 4c
        E 16 b0 0b 33
        E 144 80 39 00
        E 16 b0 0b 44
        E 0 90 39 44
        E 16 b0 0b 4c
        E 16 b0 0b 33
        E 48 80 39 00
        E 16 b0 0b 44
        E 0 90 39 44
        E 16 b0 0b 4c
        E 16 b0 0b 33
        E 48 80 39 00
        E 16 b0 0b 44
        E 0 90 39 44
        E 16 b0 0b 4c
        E 16 b0 0b 33
        E 144 80 39 00
        E 16 b0 0b 44
        E 0 90 39 44
        E 16 b0 0b 4c
        E 16 b0 0b 33
        E 48 80 39 00
        E 16 b0 0b 44
        E 0 90 39 44
        E 16 b0 0b 4c
        E 16 b0 0b 33
        E 48 80 39 00
        E 16 b0 0b 44
        E 0 90 39 44
        E 16 b0 0b 4c
        E 16 b0 0b 33
        E 48 80 39 00
        E 16 b0 0b 44
        E 0 90 39 44
        E 16 b0 0b 4c
        E 16 b0 0b 33
        E 48 80 39 00
        E 16 b0 0b 44
        E 0 90 39 44
        E 400 80 39 00
        E 144 b0 0b 33
        E 0 90 39 33
        E 240 80 39 00
        E 144 b0 0b 22
        E 0 90 39 22
        E 240 80 39 00
        E 144 b0 0b 19
        E 0 90 39 19
        E 240 80 39 00
        E 144 b0 0b 11
        E 0 90 39 11
        E 240 80 39 00
        E 144 b0 0b 08
        E 0 90 39 08
        E 240 80 39 00
        E 144 90 39 08
        E 224 b0 0b 44
        E 16 b0 0b 4c
        E 16 b0 0b 33
        E 48 80 39 00
        E 16 b0 0b 44
        E 0 90 39 44
        E 16 b0 0b 4c
        E 16 b0 0b 33
        E 48 80 39 00
        E 16 b0 0b 44
        E 0 90 39 44
        E 16 b0 0b 4c
        E 16 b0 0b 33
        E 48 80 39 00
        E 16 b0 0b 44
        E 0 90 39 44
        E 16 b0 0b 4c
        E 16 b0 0b 33
        E 48 80 39 00
        E 16 b0 0b 44
        E 0 90 35 44
        E 16 b0 0b 4c
        E 16 b0 0b 33
        E 240 80 35 00
        E 16 b0 0b 44
        E 0 90 35 44
        E 16 b0 0b 4c
        E 16 b0 0b 33
        E 48 80 35 00
        E 16 b0 0b 11
        E 0 90 35 11
        E 384 b0 0b 44
        E 16 b0 0b 4c
        E 16 b0 0b 33
        E 48 80 35 00
        E 16 b0 0b 44
        E 0 90 35 44
        E 16 b0 0b 4c
        E 16 b0 0b 33
        E 48 80 35 00
        E 16 b0 0b 44
        E 0 90 35 44
        E 16 b0 0b 4c
        E 16 b0 0b 33
        E 48 80 35 00
        E 16 b0 0b 44
        E 0 90 39 44
        E 16 b0 0b 4c
        E 16 b0 0b 33
        E 432 80 39 00
        E 16 b0 0b 44
        E 0 90 32 44
        E 16 b0 0b 4c
        E 16 b0 0b 33
        E 240 80 32 00
        E 16 b0 0b 44
        E 0 90 32 44
        E 16 b0 0b 4c
        E 16 b0 0b 33
        E 48 80 32 00
        E 16 b0 0b 11
        E 0 90 32 11
        E 192 b0 0b 44
        E 0 80 32 00
        E 0 90 2b 44
        E 16 b0 0b 4c
        E 16 b0 0b 33
        E 48 80 2b 00
        E 16 b0 0b 44
        E 0 90 2d 44
        E 16 b0 0b 4c
        E 16 b0 0b 33
        E 48 80 2d 00
        E 16 b0 0b 44
        E 0 90 2d 44
        E 16 b0 0b 4c
        E 16 b0 0b 33
        E 48 80 2d 00
        E 16 b0 0b 44
        E 0 90 2d 44
        E 16 b0 0b 4c
        E 16 b0 0b 33
        E 48 80 2d 00
        E 16 b0 0b 44
        E 0 90 2d 44
        E 16 b0 0b 4c
        E 16 b0 0b 33
        E 48 80 2d 00
        E 16 b0 0b 44
        E 0 90 3b 44
        E 16 b0 0b 4c
        E 16 b0 0b 33
        E 432 80 3b 00
        E 16 b0 0b 44
        E 0 90 32 44
        E 16 b0 0b 4c
        E 16 b0 0b 33
        E 240 80 32 00
        E 16 b0 0b 44
        E 0 90 32 44
        E 16 b0 0b 4c
        E 16 b0 0b 33
        E 48 80 32 00
        E 16 b0 0b 11
        E 0 90 32 11
        E 96 b0 0b 44
        E 16 b0 0b 4c
        E 16 b0 0b 33
        E 48 80 32 00
        E 16 b0 0b 44
        E 0 90 32 44
        E 16 b0 0b 4c
        E 16 b0 0b 33
        E 48 80 32 00
        E 16 b0 0b 44
        E 0 90 32 44
        E 16 b0 0b 4c
        E 16 b0 0b 33
        E 48 80 32 00
        E 16 b0 0b 44
        E 0 90 32 44
        E 16 b0 0b 4c
        E 16 b0 0b 33
        E 240 80 32 00
        E 16 b0 0b 44
        E 0 90 32 44
        E 16 b0 0b 4c
        E 16 b0 0b 33
        E 48 80 32 00
        E 16 b0 0b 11
        E 0 90 32 11
        E 96 b0 0b 44
        E 16 b0 0b 4c
        E 16 b0 0b 33
        E 48 80 32 00
        E 16 b0 0b 44
        E 0 90 32 44
        E 16 b0 0b 4c
        E 16 b0 0b 33
        E 48 80 32 00
        E 16 b0 0b 44
        E 0 90 32 44
        E 16 b0 0b 4c
        E 16 b0 0b 33
        E 48 80 32 00
        E 16 b0 0b 44
        E 0 90 32 44
        E 16 b0 0b 4c
        E 16 b0 0b 33
        E 48 80 32 00
        E 16 b0 0b 44
        E 0 90 32 44
        E 16 b0 0b 4c
        E 16 b0 0b 33
        E 48 80 32 00
        E 16 b0 0b 11
        E 0 90 32 11
        E 96 b0 0b 44
        E 16 b0 0b 4c
        E 16 b0 0b 33
        E 48 80 32 00
        E 16 b0 0b 11
        E 0 90 32 11
        E 96 b0 0b 44
        E 16 b0 0b 4c
        E 16 b0 0b 33
        E 48 80 32 00
        E 16 b0 0b 44
        E 0 90 32 44
        E 16 b0 0b 4c
        E 16 b0 0b 33
        E 144 80 32 00
        E 16 b0 0b 44
        E 0 90 32 44
        E 16 b0 0b 4c
        E 16 b0 0b 33
        E 336 80 32 00
        E 16 b0 0b 44
        E 0 90 3d 44
        E 16 b0 0b 4c
        E 16 b0 0b 33
        E 48 80 3d 00
        E 16 b0 0b 44
        E 0 90 3d 44
        E 16 b0 0b 4c
        E 16 b0 0b 33
        E 48 80 3d 00
        E 16 b0 0b 44
        E 0 90 3d 44
        E 16 b0 0b 4c
        E 16 b0 0b 33
        E 48 80 3d 00
        E 16 b0 0b 44
        E 0 90 3d 44
        E 16 b0 0b 4c
        E 16 b0 0b 33
        E 48 80 3d 00
        E 16 b0 0b 44
        E 0 90 35 44
        E 16 b0 0b 4c
        E 16 b0 0b 33
        E 240 80 35 00
        E 16 b0 0b 44
        E 0 90 35 44
        E 16 b0 0b 4c
        E 16 b0 0b 33
        E 48 80 35 00
        E 16 b0 0b 11
        E 0 90 35 11
        E 384 b0 0b 44
        E 16 b0 0b 4c
        E 16 b0 0b 33
        E 48 80 35 00
        E 16 b0 0b 44
        E 0 90 35 44
        E 16 b0 0b 4c
        E 16 b0 0b 33
        E 48 80 35 00
        E 16 b0 0b 44
        E 0 90 35 44
        E 16 b0 0b 4c
        E 16 b0 0b 33
        E 48 80 35 00
        E 16 b0 0b 44
        E 0 90 39 44
        E 16 b0 0b 4c
        E 16 b0 0b 33
        E 432 80 39 00
        E 16 b0 0b 44
        E 0 90 32 44
        E 16 b0 0b 4c
        E 16 b0 0b 33
        E 240 80 32 00
        E 16 b0 0b 44
        E 0 90 32 44
        E 16 b0 0b 4c
        E 16 b0 0b 33
        E 48 80 32 00
        E 16 b0 0b 11
        E 0 90 32 11
        E 192 b0 0b 44
        E 0 80 32 00
        E 0 90 2b 44
        E 16 b0 0b 4c
        E 16 b0 0b 33
        E 48 80 2b 00
        E 16 b0 0b 44
        E 0 90 2d 44
        E 16 b0 0b 4c
        E 16 b0 0b 33
        E 48 80 2d 00
        E 16 b0 0b 44
        E 0 90 2d 44
        E 16 b0 0b 4c
        E 16 b0 0b 33
        E 48 80 2d 00
        E 16 b0 0b 44
        E 0 90 2d 44
        E 16 b0 0b 4c
        E 16 b0 0b 33
        E 48 80 2d 00
        E 16 b0 0b 44
        E 0 90 2d 44
        E 16 b0 0b 4c
        E 16 b0 0b 33
        E 48 80 2d 00
        E 16 b0 0b 44
        E 0 90 3b 44
        E 16 b0 0b 4c
        E 16 b0 0b 33
        E 432 80 3b 00
        E 16 b0 0b 44
        E 0 90 32 44
        E 16 b0 0b 4c
        E 16 b0 0b 33
        E 240 80 32 00
        E 16 b0 0b 44
        E 0 90 32 44
        E 16 b0 0b 4c
        E 16 b0 0b 33
        E 48 80 32 00
        E 16 b0 0b 11
        E 0 90 32 11
        E 96 b0 0b 44
        E 16 b0 0b 4c
        E 16 b0 0b 33
        E 48 80 32 00
        E 16 b0 0b 44
        E 0 90 32 44
        E 16 b0 0b 4c
        E 16 b0 0b 33
        E 48 80 32 00
        E 16 b0 0b 44
        E 0 90 32 44
        E 16 b0 0b 4c
        E 16 b0 0b 33
        E 48 80 32 00
        E 16 b0 0b 44
        E 0 90 32 44
        E 16 b0 0b 4c
        E 16 b0 0b 33
        E 240 80 32 00
        E 16 b0 0b 44
        E 0 90 32 44
        E 16 b0 0b 4c
        E 16 b0 0b 33
        E 48 80 32 00
        E 16 b0 0b 11
        E 0 90 32 11
        E 96 b0 0b 44
        E 16 b0 0b 4c
        E 16 b0 0b 33
        E 48 80 32 00
        E 16 b0 0b 44
        E 0 90 32 44
        E 16 b0 0b 4c
        E 16 b0 0b 33
        E 48 80 32 00
        E 16 b0 0b 44
        E 0 90 32 44
        E 16 b0 0b 4c
        E 16 b0 0b 33
        E 48 80 32 00
        E 16 b0 0b 44
        E 0 90 32 44
        E 16 b0 0b 4c
        E 16 b0 0b 33
        E 48 80 32 00
        E 16 b0 0b 44
        E 0 90 32 44
        E 16 b0 0b 4c
        E 16 b0 0b 33
        E 48 80 32 00
        E 16 b0 0b 11
        E 0 90 32 11
        E 96 b0 0b 44
        E 16 b0 0b 4c
        E 16 b0 0b 33
        E 48 80 32 00
        E 16 b0 0b 11
        E 0 90 32 11
        E 96 b0 0b 44
        E 16 b0 0b 4c
        E 16 b0 0b 33
        E 48 80 32 00
        E 16 b0 0b 44
        E 0 90 32 44
        E 16 b0 0b 4c
        E 16 b0 0b 33
        E 144 80 32 00
        E 16 b0 0b 44
        E 0 90 32 44
        E 16 b0 0b 4c
        E 16 b0 0b 33
        E 336 80 32 00
        E 16 b0 0b 44
        E 0 90 39 44
        E 16 b0 0b 4c
        E 16 b0 0b 33
        E 48 80 39 00
        E 16 b0 0b 44
        E 0 90 37 44
        E 16 b0 0b 4c
        E 16 b0 0b 33
        E 48 80 37 00
        E 16 b0 0b 44
        E 0 90 37 44
        E 16 b0 0b 4c
        E 16 b0 0b 33
        E 48 80 37 00
        E 16 b0 0b 44
        E 0 90 37 44
        E 16 b0 0b 4c
        E 16 b0 0b 33
        E 48 80 37 00
        E 16 b0 0b 44
        E 0 90 37 44
        E 16 b0 0b 4c
        E 16 b0 0b 33
        E 144 80 37 00
        E 16 b0 0b 44
        E 0 90 37 44
        E 16 b0 0b 4c
        E 16 b0 0b 33
        E 48 80 37 00
        E 16 b0 0b 44
        E 0 90 37 44
        E 16 b0 0b 4c
        E 16 b0 0b 33
        E 48 80 37 00
        E 16 b0 0b 44
        E 0 90 37 44
        E 16 b0 0b 4c
        E 16 b0 0b 33
        E 144 80 37 00
        E 16 b0 0b 44
        E 0 90 37 44
        E 16 b0 0b 4c
        E 16 b0 0b 33
        E 48 80 37 00
        E 16 b0 0b 44
        E 0 90 37 44
        E 16 b0 0b 4c
        E 16 b0 0b 33
        E 48 80 37 00
        E 16 b0 0b 44
        E 0 90 3a 44
        E 16 b0 0b 4c
        E 16 b0 0b 33
        E 144 80 3a 00
        E 16 b0 0b 44
        E 0 90 35 44
        E 16 b0 0b 4c
        E 16 b0 0b 33
        E 48 80 35 00
        E 16 b0 0b 44
        E 0 90 3a 44
        E 16 b0 0b 4c
        E 16 b0 0b 33
        E 48 80 3a 00
        E 16 b0 0b 44
        E 0 90 3a 44
        E 16 b0 0b 4c
        E 16 b0 0b 33
        E 144 80 3a 00
        E 16 b0 0b 44
        E 0 90 3a 44
        E 16 b0 0b 4c
        E 16 b0 0b 33
        E 48 80 3a 00
        E 16 b0 0b 44
        E 0 90 3a 44
        E 16 b0 0b 4c
        E 16 b0 0b 33
        E 48 80 3a 00
        E 16 b0 0b 44
        E 0 90 3a 44
        E 16 b0 0b 4c
        E 16 b0 0b 33
        E 144 80 3a 00
        E 16 b0 0b 44
        E 0 90 37 44
        E 16 b0 0b 4c
        E 16 b0 0b 33
        E 48 80 37 00
        E 16 b0 0b 44
        E 0 90 3c 44
        E 16 b0 0b 4c
        E 16 b0 0b 33
        E 48 80 3c 00
        E 16 b0 0b 44
        E 0 90 37 44
        E 16 b0 0b 4c
        E 16 b0 0b 33
        E 144 80 37 00
        E 16 b0 0b 44
        E 0 90 37 44
        E 16 b0 0b 4c
        E 16 b0 0b 33
        E 48 80 37 00
        E 16 b0 0b 44
        E 0 90 37 44
        E 16 b0 0b 4c
        E 16 b0 0b 33
        E 48 80 37 00
        E 16 b0 0b 44
        E 0 90 37 44
        E 16 b0 0b 4c
        E 16 b0 0b 33
        E 144 80 37 00
        E 16 b0 0b 44
        E 0 90 37 44
        E 16 b0 0b 4c
        E 16 b0 0b 33
        E 48 80 37 00
        E 16 b0 0b 44
        E 0 90 37 44
        E 16 b0 0b 4c
        E 16 b0 0b 33
        E 48 80 37 00
        E 16 b0 0b 44
        E 0 90 37 44
        E 16 b0 0b 4c
        E 16 b0 0b 33
        E 144 80 37 00
        E 16 b0 0b 44
        E 0 90 2b 44
        E 16 b0 0b 4c
        E 16 b0 0b 33
        E 48 80 2b 00
        E 16 b0 0b 44
        E 0 90 30 44
        E 16 b0 0b 4c
        E 16 b0 0b 33
        E 48 80 30 00
        E 16 b0 0b 44
        E 0 90 30 44
        E 16 b0 0b 4c
        E 16 b0 0b 33
        E 48 80 30 00
        E 16 b0 0b 44
        E 0 90 30 44
        E 16 b0 0b 4c
        E 16 b0 0b 33
        E 48 80 30 00
        E 16 b0 0b 44
        E 0 90 30 44
        E 16 b0 0b 4c
        E 16 b0 0b 33
        E 48 80 30 00
        E 16 b0 0b 44
        E 0 90 2a 44
        E 16 b0 0b 4c
        E 16 b0 0b 33
        E 48 80 2a 00
        E 16 b0 0b 44
        E 0 90 32 44
        E 16 b0 0b 4c
        E 16 b0 0b 33
        E 48 80 32 00
        E 16 b0 0b 44
        E 0 90 2a 44
        E 16 b0 0b 4c
        E 16 b0 0b 33
        E 48 80 2a 00
        E 16 b0 0b 44
        E 0 90 2d 44
        E 16 b0 0b 4c
        E 16 b0 0b 33
        E 48 80 2d 00
        E 16 b0 0b 44
        E 0 90 2d 44
        E 16 b0 0b 4c
        E 16 b0 0b 33
        E 48 80 2d 00
        E 16 b0 0b 44
        E 0 90 2d 44
        E 16 b0 0b 4c
        E 16 b0 0b 33
        E 48 80 2d 00
        E 16 b0 0b 44
        E 0 90 2d 44
        E 16 b0 0b 4c
        E 16 b0 0b 33
        E 48 80 2d 00
        E 16 b0 0b 44
        E 0 90 2d 44
        E 16 b0 0b 4c
        E 16 b0 0b 33
        E 48 80 2d 00
        E 16 b0 0b 44
        E 0 90 2d 44
        E 16 b0 0b 4c
        E 16 b0 0b 33
        E 48 80 2d 00
        E 16 b0 0b 44
        E 0 90 39 44
        E 16 b0 0b 4c
        E 16 b0 0b 33
        E 48 80 39 00
        E 16 b0 0b 44
        E 0 90 32 44
        E 16 b0 0b 4c
        E 16 b0 0b 33
        E 48 80 32 00
        E 16 b0 0b 44
        E 0 90 32 44
        E 16 b0 0b 4c
        E 16 b0 0b 33
        E 48 80 32 00
        E 16 b0 0b 44
        E 0 90 39 44
        E 16 b0 0b 4c
        E 16 b0 0b 33
        E 48 80 39 00
        E 16 b0 0b 44
        E 0 90 39 44
        E 16 b0 0b 4c
        E 16 b0 0b 33
        E 48 80 39 00
        E 16 b0 0b 44
        E 0 90 36 44
        E 16 b0 0b 4c
        E 16 b0 0b 33
        E 48 80 36 00
        E 16 b0 0b 44
        E 0 90 39 44
        E 16 b0 0b 4c
        E 16 b0 0b 33
        E 48 80 39 00
        E 16 b0 0b 44
        E 0 90 39 44
        E 16 b0 0b 4c
        E 16 b0 0b 33
        E 48 80 39 00
        E 16 b0 0b 44
        E 0 90 39 44
        E 16 b0 0b 4c
        E 16 b0 0b 33
        E 48 80 39 00
        E 16 b0 0b 44
        E 0 90 39 44
        E 16 b0 0b 4c
        E 16 b0 0b 33
        E 48 80 39 00
        E 16 b0 0b 44
        E 0 90 39 44
        E 16 b0 0b 4c
        E 16 b0 0b 33
        E 48 80 39 00
        E 16 b0 0b 44
        E 0 90 39 44
        E 16 b0 0b 4c
        E 16 b0 0b 33
        E 48 80 39 00
        E 16 b0 0b 44
        E 0 90 39 44
        E 16 b0 0b 4c
        E 16 b0 0b 33
        E 48 80 39 00
        E 16 b0 0b 44
        E 0 90 39 44
        E 16 b0 0b 4c
        E 16 b0 0b 33
        E 48 80 39 00
        E 16 b0 0b 44
        E 0 90 39 44
        E 16 b0 0b 4c
        E 16 b0 0b 33
        E 48 80 39 00
        E 16 b0 0b 44
        E 0 90 36 44
        E 16 b0 0b 4c
        E 16 b0 0b 33
        E 48 80 36 00
        E 16 b0 0b 44
        E 0 90 3e 44
        E 16 b0 0b 4c
        E 16 b0 0b 33
        E 48 80 3e 00
        E 16 b0 0b 44
        E 0 90 3e 44
        E 16 b0 0b 4c
        E 16 b0 0b 33
        E 48 80 3e 00
        E 16 b0 0b 44
        E 0 90 36 44
        E 16 b0 0b 4c
        E 16 b0 0b 33
        E 48 80 36 00
        E 16 b0 0b 44
        E 0 90 39 44
        E 16 b0 0b 4c
        E 16 b0 0b 33
        E 48 80 39 00
        E 16 b0 0b 44
        E 0 90 32 44
        E 16 b0 0b 4c
        E 16 b0 0b 33
        E 144 80 32 00
        E 16 b0 0b 44
        E 0 90 32 44
        E 16 b0 0b 4c
        E 16 b0 0b 33
        E 48 80 32 00
        E 16 b0 0b 44
        E 0 90 32 44
        E 16 b0 0b 4c
        E 16 b0 0b 33
        E 48 80 32 00
        E 16 b0 0b 44
        E 0 90 32 44
        E 16 b0 0b 4c
        E 16 b0 0b 33
        E 144 80 32 00
        E 16 b0 0b 44
        E 0 90 32 44
        E 16 b0 0b 4c
        E 16 b0 0b 33
        E 48 80 32 00
        E 16 b0 0b 44
        E 0 90 32 44
        E 16 b0 0b 4c
        E 16 b0 0b 33
        E 48 80 32 00
        E 16 b0 0b 44
        E 0 90 3a 44
        E 16 b0 0b 4c
        E 16 b0 0b 33
        E 144 80 3a 00
        E 16 b0 0b 44
        E 0 90 35 44
        E 16 b0 0b 4c
        E 16 b0 0b 33
        E 48 80 35 00
        E 16 b0 0b 44
        E 0 90 3a 44
        E 16 b0 0b 4c
        E 16 b0 0b 33
        E 48 80 3a 00
        E 16 b0 0b 44
        E 0 90 3a 44
        E 16 b0 0b 4c
        E 16 b0 0b 33
        E 144 80 3a 00
        E 16 b0 0b 44
        E 0 90 3a 44
        E 16 b0 0b 4c
        E 16 b0 0b 33
        E 48 80 3a 00
        E 16 b0 0b 44
        E 0 90 3a 44
        E 16 b0 0b 4c
        E 16 b0 0b 33
        E 48 80 3a 00
        E 16 b0 0b 44
        E 0 90 3a 44
        E 16 b0 0b 4c
        E 16 b0 0b 33
        E 144 80 3a 00
        E 16 b0 0b 44
        E 0 90 37 44
        E 16 b0 0b 4c
        E 16 b0 0b 33
        E 48 80 37 00
        E 16 b0 0b 44
        E 0 90 3c 44
        E 16 b0 0b 4c
        E 16 b0 0b 33
        E 48 80 3c 00
        E 16 b0 0b 44
        E 0 90 37 44
        E 16 b0 0b 4c
        E 16 b0 0b 33
        E 144 80 37 00
        E 16 b0 0b 44
        E 0 90 37 44
        E 16 b0 0b 4c
        E 16 b0 0b 33
        E 48 80 37 00
        E 16 b0 0b 44
        E 0 90 37 44
        E 16 b0 0b 4c
        E 16 b0 0b 33
        E 48 80 37 00
        E 16 b0 0b 44
        E 0 90 37 44
        E 16 b0 0b 4c
        E 16 b0 0b 33
        E 144 80 37 00
        E 16 b0 0b 44
        E 0 90 37 44
        E 16 b0 0b 4c
        E 16 b0 0b 33
        E 48 80 37 00
        E 16 b0 0b 44
        E 0 90 37 44
        E 16 b0 0b 4c
        E 16 b0 0b 33
        E 48 80 37 00
        E 16 b0 0b 44
        E 0 90 37 44
        E 16 b0 0b 4c
        E 16 b0 0b 33
        E 144 80 37 00
        E 16 b0 0b 44
        E 0 90 2b 44
        E 16 b0 0b 4c
        E 16 b0 0b 33
        E 48 80 2b 00
        E 16 b0 0b 44
        E 0 90 30 44
        E 16 b0 0b 4c
        E 16 b0 0b 33
        E 48 80 30 00
        E 16 b0 0b 44
        E 0 90 30 44
        E 16 b0 0b 4c
        E 16 b0 0b 33
        E 1488 80 30 00
        E 16 b0 0b 44
        E 0 90 30 44
        E 16 b0 0b 4c
        E 16 b0 0b 33
        E 240 80 30 00
        E 16 b0 0b 44
        E 0 90 30 44
        E 16 b0 0b 4c
        E 16 b0 0b 33
        E 240 80 30 00
        E 16 b0 0b 44
        E 0 90 30 44
        E 16 b0 0b 4c
        E 16 b0 0b 33
        E 144 80 30 00
        E 112 90 30 33
        E 16 b0 0b 3b
        E 16 b0 0b 22
        E 144 80 30 00
        E 112 90 30 22
        E 16 b0 0b 2a
        E 16 b0 0b 11
        E 144 80 30 00
        E 112 b0 0b 08
        E 0 90 30 08
        E 192 80 30 00
        E 960 b0 0b 7f
        E 0 90 25 7f
        E 16 80 25 00
        E 0 90 26 7f
        E 16 80 26 00
        E 0 90 27 7f
        E 32 80 27 00
        E 0 90 28 7f
        E 16 80 28 00
        E 0 90 29 7f
        E 16 80 29 00
        E 0 90 2a 7f
        E 16 80 2a 00
        E 0 90 2b 7f
        E 16 80 2b 00
        E 0 90 2c 7f
        E 16 80 2c 00
        E 0 90 2d 7f
        E 16 80 2d 00
        E 0 90 2e 7f
        E 16 80 2e 00
        E 0 90 2f 7f
        E 16 80 2f 00
        E 0 90 30 7f
        E 16 80 30 00
        E 0 90 32 7f
        E 16 80 32 00
        E 0 90 33 7f
        E 16 80 33 00
        E 0 90 35 7f
        E 16 80 35 00
        E 0 90 37 7f
        E 16 80 37 00
        E 0 90 38 7f
        E 16 80 38 00
        E 0 90 39 7f
        E 16 80 39 00
        E 0 90 3a 7f
        E 16 80 3a 00
        E 0 90 3b 7f
        E 16 80 3b 00
        E 0 90 3c 7f
        E 16 80 3c 00
        E 0 90 3e 7f
        E 16 80 3e 00
        E 0 90 3f 7f
        E 16 80 3f 00
        E 0 90 41 7f
        E 16 80 41 00
        E 0 90 43 7f
        E 16 80 43 00
        E 0 90 45 7f
        E 16 b0 0b 2a
        E 0 80 45 00
        E 0 90 3a 2a
        E 16 80 3a 00
        E 0 90 3b 2a
        E 16 80 3b 00
        E 0 90 3c 2a
        E 16 80 3c 00
        E 0 90 3e 2a
        E 16 80 3e 00
        E 0 90 3f 2a
        E 16 80 3f 00
        E 0 90 41 2a
        E 16 80 41 00
        E 0 90 43 2a
        E 16 80 43 00
        E 0 90 45 2a
        E 16 b0 0c 40
        E 0 b0 0b 7f
        E 0 80 45 00
        E 0 90 56 7f
        E 64 b0 0b 3b
        E 64 80 56 00
        E 8944 b0 0c 20
        E 0 b0 0b 44
        E 0 90 21 44
        E 16 b0 0b 4c
        E 16 b0 0b 33
        E 144 80 21 00
        E 16 b0 0b 44
        E 0 90 2d 44
        E 16 b0 0b 4c
        E 16 b0 0b 33
        E 144 80 2d 00
        E 16 b0 0b 44
        E 0 90 2d 44
        E 16 b0 0b 4c
        E 16 b0 0b 33
        E 144 80 2d 00
        E 208 b0 0b 44
        E 0 90 2d 44
        E 16 b0 0b 4c
        E 16 b0 0b 33
        E 240 80 2d 00
        E 16 b0 0b 44
        E 0 90 2b 44
        E 16 b0 0b 4c
        E 16 b0 0b 33
        E 48 80 2b 00
        E 16 b0 0b 11
        E 0 90 30 11
        E 192 b0 0b 44
        E 16 b0 0b 4c
        E 16 b0 0b 33
        E 336 80 30 00
        E 16 b0 0b 44
        E 0 90 30 44
        E 16 b0 0b 4c
        E 16 b0 0b 33
        E 48 80 30 00
        E 112 b0 0b 44
        E 0 90 30 44
        E 16 b0 0b 4c
        E 16 b0 0b 33
        E 528 80 30 00
        E 16 b0 0b 44
        E 0 90 29 44
        E 16 b0 0b 4c
        E 16 b0 0b 33
        E 48 80 29 00
        E 16 b0 0b 11
        E 0 90 2e 11
        E 96 b0 0b 44
        E 0 80 2e 00
        E 0 90 2b 44
        E 16 b0 0b 4c
        E 16 b0 0b 33
        E 336 80 2b 00
        E 16 b0 0b 44
        E 0 90 2d 44
        E 16 b0 0b 4c
        E 16 b0 0b 33
        E 48 80 2d 00
        E 16 b0 0b 11
        E 0 90 2b 11
        E 96 b0 0b 44
        E 0 80 2b 00
        E 0 90 2d 44
        E 16 b0 0b 4c
        E 16 b0 0b 33
        E 48 80 2d 00
        E 16 b0 0b 11
        E 0 90 2d 11
        E 96 b0 0b 44
        E 16 b0 0b 4c
        E 16 b0 0b 33
        E 144 80 2d 00
        E 16 b0 0b 44
        E 0 90 2d 44
        E 16 b0 0b 4c
        E 16 b0 0b 33
        E 48 80 2d 00
        E 16 b0 0b 11
        E 0 90 2d 11
        E 96 b0 0b 44
        E 16 b0 0b 4c
        E 16 b0 0b 33
        E 240 80 2d 00
        E 16 b0 0b 44
        E 0 90 2b 44
        E 16 b0 0b 4c
        E 16 b0 0b 33
        E 48 80 2b 00
        E 16 b0 0b 11
        E 0 90 30 11
        E 192 b0 0b 44
        E 0 80 30 00
        E 0 90 39 44
        E 16 b0 0b 4c
        E 16 b0 0b 33
        E 48 80 39 00
        E 16 b0 0b 44
        E 0 90 37 44
        E 16 b0 0b 4c
        E 16 b0 0b 33
        E 48 80 37 00
        E 16 b0 0b 44
        E 0 90 37 44
        E 16 b0 0b 4c
        E 16 b0 0b 33
        E 736 b0 0b 44
        E 16 b0 0b 4c
        E 16 b0 0b 33
        E 720 80 37 00
        E 16 b0 0b 44
        E 0 90 21 44
        E 16 b0 0b 4c
        E 16 b0 0b 33
        E 144 80 21 00
        E 16 b0 0b 44
        E 0 90 35 44
        E 16 b0 0b 4c
        E 16 b0 0b 33
        E 144 80 35 00
        E 16 b0 0b 44
        E 0 90 39 44
        E 16 b0 0b 4c
        E 16 b0 0b 33
        E 144 80 39 00
        E 16 b0 0b 11
        E 0 90 35 11
        E 192 b0 0b 44
        E 16 b0 0b 4c
        E 16 b0 0b 33
        E 240 80 35 00
        E 16 b0 0b 44
        E 0 90 35 44
        E 16 b0 0b 4c
        E 16 b0 0b 33
        E 48 80 35 00
        E 16 b0 0b 11
        E 0 90 35 11
        E 192 b0 0b 44
        E 16 b0 0b 4c
        E 16 b0 0b 33
        E 336 80 35 00
        E 16 b0 0b 44
        E 0 90 35 44
        E 16 b0 0b 4c
        E 16 b0 0b 33
        E 48 80 35 00
        E 16 b0 0b 11
        E 0 90 35 11
        E 96 b0 0b 44
        E 16 b0 0b 4c
        E 16 b0 0b 33
        E 528 80 35 00
        E 16 b0 0b 44
        E 0 90 29 44
        E 16 b0 0b 4c
        E 16 b0 0b 33
        E 48 80 29 00
        E 16 b0 0b 11
        E 0 90 29 11
        E 96 b0 0b 44
        E 0 80 29 00
        E 0 90 2e 44
        E 16 b0 0b 4c
        E 16 b0 0b 33
        E 336 80 2e 00
        E 16 b0 0b 44
        E 0 90 2b 44
        E 16 b0 0b 4c
        E 16 b0 0b 33
        E 48 80 2b 00
        E 16 b0 0b 44
        E 0 90 2d 44
        E 16 b0 0b 4c
        E 16 b0 0b 33
        E 48 80 2d 00
        E 16 b0 0b 44
        E 0 90 2d 44
        E 16 b0 0b 4c
        E 16 b0 0b 33
        E 144 80 2d 00
        E 16 b0 0b 2a
        E 0 90 2d 2a
        E 16 b0 0b 33
        E 16 b0 0b 19
        E 48 80 2d 00
        E 16 b0 0b 2a
        E 0 90 2d 2a
        E 16 b0 0b 33
        E 16 b0 0b 19
        E 48 80 2d 00
        E 16 b0 0b 2a
        E 0 90 2d 2a
        E 16 b0 0b 33
        E 16 b0 0b 19
        E 144 80 2d 00
        E 16 b0 0b 44
        E 0 90 2d 44
        E 16 b0 0b 4c
        E 16 b0 0b 33
        E 48 80 2d 00
        E 16 b0 0b 44
        E 0 90 2d 44
        E 16 b0 0b 4c
        E 16 b0 0b 33
        E 48 80 2d 00
        E 16 b0 0b 44
        E 0 90 2d 44
        E 16 b0 0b 4c
        E 16 b0 0b 33
        E 144 80 2d 00
        E 16 b0 0b 2a
        E 0 90 2d 2a
        E 16 b0 0b 33
        E 16 b0 0b 19
        E 48 80 2d 00
        E 16 b0 0b 2a
        E 0 90 2d 2a
        E 16 b0 0b 33
        E 16 b0 0b 19
        E 48 80 2d 00
        E 16 b0 0b 2a
        E 0 90 3c 2a
        E 16 b0 0b 33
        E 16 b0 0b 19
        E 144 80 3c 00
        E 16 b0 0b 44
        E 0 90 34 44
        E 16 b0 0b 4c
        E 16 b0 0b 33
        E 48 80 34 00
        E 16 b0 0b 44
        E 0 90 34 44
        E 16 b0 0b 4c
        E 16 b0 0b 33
        E 48 80 34 00
        E 16 b0 0b 44
        E 0 90 39 44
        E 16 b0 0b 4c
        E 16 b0 0b 33
        E 144 80 39 00
        E 16 b0 0b 44
        E 0 90 39 44
        E 16 b0 0b 4c
        E 16 b0 0b 33
        E 48 80 39 00
        E 16 b0 0b 44
        E 0 90 39 44
        E 16 b0 0b 4c
        E 16 b0 0b 33
        E 48 80 39 00
        E 16 b0 0b 44
        E 0 90 39 44
        E 16 b0 0b 4c
        E 16 b0 0b 33
        E 144 80 39 00
        E 16 b0 0b 44
        E 0 90 39 44
        E 16 b0 0b 4c
        E 16 b0 0b 33
        E 48 80 39 00
        E 16 b0 0b 44
        E 0 90 39 44
        E 16 b0 0b 4c
        E 16 b0 0b 33
        E 48 80 39 00
        E 16 b0 0b 44
        E 0 90 39 44
        E 16 b0 0b 4c
        E 16 b0 0b 33
        E 144 80 39 00
        E 16 b0 0b 44
        E 0 90 39 44
        E 16 b0 0b 4c
        E 16 b0 0b 33
        E 48 80 39 00
        E 16 b0 0b 44
        E 0 90 39 44
        E 16 b0 0b 4c
        E 16 b0 0b 33
        E 48 80 39 00
        E 16 b0 0b 44
        E 0 90 39 44
        E 16 b0 0b 4c
        E 16 b0 0b 33
        E 48 80 39 00
        E 16 b0 0b 44
        E 0 90 39 44
        E 16 b0 0b 4c
        E 16 b0 0b 33
        E 48 80 39 00
        E 16 b0 0b 44
        E 0 90 39 44
        E 400 80 39 00
        E 144 b0 0b 33
        E 0 90 39 33
        E 240 80 39 00
        E 144 b0 0b 22
        E 0 90 39 22
        E 240 80 39 00
        E 144 b0 0b 19
        E 0 90 39 19
        E 240 80 39 00
        E 112 b0 7b 00
        E 0 ff 2f 00
      >
    >
  >
  <TRACK {C96BA79F-9FB4-463C-9506-D1D8EC44E70D}
    NAME "NES - Pulse 2 [ch1]"
    PEAKCOL 10092441
    BEAT -1
    AUTOMODE 0
    PANLAWFLAGS 3
    VOLPAN 1 0 -1 -1 1
    MUTESOLO 0 0 0
    IPHASE 0
    PLAYOFFS 0 1
    ISBUS 0 0
    BUSCOMP 0 0 0 0 0
    SHOWINMIX 1 0.6667 0.5 1 0.5 0 0 0
    FIXEDLANES 9 0 0 0 0
    SEL 0
    REC 0 5088 1 0 0 0 0 0
    VU 2
    TRACKHEIGHT 0 0 0 0 0 0 0
    INQ 0 0 0 0.5 100 0 0 100
    NCHAN 2
    FX 1
    TRACKID {C96BA79F-9FB4-463C-9506-D1D8EC44E70D}
    PERF 0
    MIDIOUT -1
    MAINSEND 1 0
    <FXCHAIN
      WNDRECT 24 52 700 560
      SHOW 0
      LASTSEL 0
      DOCKED 0
      BYPASS 0 0 0
      <JS "ReapNES Studio/ReapNES_Console.jsfx" ""
        2 15 1 10 80 10 100 2 1 15 1 5 60 10 80 1 1 0 50 0 0 15 1 0 100 0 0 0.500000 0.500000 0.400000 0.300000 0.800000 1 1 0 0 0 0 - - - - - - - - - - - - - - - - - - - - - - - - - -
      >
      FLOATPOS 0 0 0 0
      FXID {8849547E-0DD4-4238-8D5C-55448615F025}
      WAK 0 0
    >
    <ITEM
      POSITION 0
      LENGTH 72.1461919
      LOOP 0
      ALLTAKES 0
      FADEIN 0 0 0 0 0 0 0
      FADEOUT 0 0 0 0 0 0 0
      MUTE 0 0
      SEL 0
      IGUID {BF9E5BFF-00F2-4A91-9CA8-6CE15D03F214}
      <SOURCE MIDI
        HASDATA 1 480 QN
        CCINTERP 32
        E 0 c1 51
        E 0 b1 0c 20
        E 0 b1 0b 7f
        E 0 91 24 7f
        E 16 81 24 00
        E 0 91 25 7f
        E 16 81 25 00
        E 0 91 26 7f
        E 16 81 26 00
        E 0 91 27 7f
        E 32 81 27 00
        E 0 91 28 7f
        E 16 81 28 00
        E 0 91 29 7f
        E 16 81 29 00
        E 0 91 2a 7f
        E 16 81 2a 00
        E 0 91 2b 7f
        E 16 81 2b 00
        E 0 91 2c 7f
        E 16 81 2c 00
        E 0 91 2d 7f
        E 16 81 2d 00
        E 0 91 2e 7f
        E 16 81 2e 00
        E 0 91 2f 7f
        E 16 81 2f 00
        E 0 91 30 7f
        E 16 81 30 00
        E 0 91 32 7f
        E 16 81 32 00
        E 0 91 33 7f
        E 16 81 33 00
        E 0 91 35 7f
        E 16 81 35 00
        E 0 91 37 7f
        E 16 81 37 00
        E 0 91 38 7f
        E 16 81 38 00
        E 0 91 39 7f
        E 16 81 39 00
        E 0 91 3a 7f
        E 16 81 3a 00
        E 0 91 3b 7f
        E 16 81 3b 00
        E 0 91 3c 7f
        E 16 81 3c 00
        E 0 91 3e 7f
        E 16 81 3e 00
        E 0 91 3f 7f
        E 16 81 3f 00
        E 0 91 41 7f
        E 16 81 41 00
        E 0 91 43 7f
        E 16 b1 0b 22
        E 0 81 43 00
        E 0 91 39 22
        E 16 81 39 00
        E 0 91 3a 22
        E 16 81 3a 00
        E 0 91 3b 22
        E 16 81 3b 00
        E 0 91 3c 22
        E 16 81 3c 00
        E 0 91 3e 22
        E 16 81 3e 00
        E 0 91 3f 22
        E 16 81 3f 00
        E 0 91 41 22
        E 16 81 41 00
        E 0 91 43 22
        E 16 b1 0c 40
        E 0 b1 0b 7f
        E 0 81 43 00
        E 0 91 56 7f
        E 64 b1 0b 3b
        E 64 81 56 00
        E 8960 b1 0c 20
        E 0 b1 0b 44
        E 0 91 1a 44
        E 16 b1 0b 4c
        E 16 b1 0b 33
        E 112 b1 0b 2a
        E 32 81 1a 00
        E 16 b1 0b 44
        E 0 91 32 44
        E 16 b1 0b 4c
        E 16 b1 0b 33
        E 112 b1 0b 2a
        E 32 81 32 00
        E 16 b1 0b 44
        E 0 91 32 44
        E 16 b1 0b 4c
        E 16 b1 0b 33
        E 112 b1 0b 2a
        E 32 81 32 00
        E 16 b1 0b 11
        E 0 91 32 11
        E 192 b1 0b 44
        E 16 b1 0b 4c
        E 16 b1 0b 33
        E 208 b1 0b 2a
        E 32 81 32 00
        E 16 b1 0b 44
        E 0 91 32 44
        E 16 b1 0b 4c
        E 16 b1 0b 33
        E 64 b1 0b 11
        E 192 b1 0b 44
        E 16 b1 0b 4c
        E 16 b1 0b 33
        E 304 b1 0b 2a
        E 32 81 32 00
        E 16 b1 0b 44
        E 0 91 32 44
        E 16 b1 0b 4c
        E 16 b1 0b 33
        E 64 b1 0b 11
        E 96 b1 0b 44
        E 16 b1 0b 4c
        E 16 b1 0b 33
        E 1072 b1 0b 2a
        E 32 81 32 00
        E 16 b1 0b 44
        E 0 91 32 44
        E 16 b1 0b 4c
        E 16 b1 0b 33
        E 64 b1 0b 11
        E 96 b1 0b 44
        E 16 b1 0b 4c
        E 16 b1 0b 33
        E 64 b1 0b 11
        E 96 b1 0b 44
        E 16 b1 0b 4c
        E 16 b1 0b 33
        E 112 b1 0b 2a
        E 32 81 32 00
        E 16 b1 0b 44
        E 0 91 32 44
        E 16 b1 0b 4c
        E 16 b1 0b 33
        E 64 b1 0b 11
        E 96 b1 0b 44
        E 16 b1 0b 4c
        E 16 b1 0b 33
        E 208 b1 0b 2a
        E 32 81 32 00
        E 16 b1 0b 44
        E 0 91 32 44
        E 16 b1 0b 4c
        E 16 b1 0b 33
        E 64 b1 0b 11
        E 192 b1 0b 44
        E 0 81 32 00
        E 0 91 3c 44
        E 16 b1 0b 4c
        E 16 b1 0b 33
        E 64 b1 0b 44
        E 16 b1 0b 4c
        E 16 b1 0b 33
        E 64 b1 0b 44
        E 16 b1 0b 4c
        E 16 b1 0b 3b
        E 1504 b1 0b 44
        E 0 81 3c 00
        E 0 91 1a 44
        E 16 b1 0b 4c
        E 16 b1 0b 33
        E 112 b1 0b 2a
        E 32 81 1a 00
        E 16 b1 0b 44
        E 0 91 3e 44
        E 16 b1 0b 4c
        E 16 b1 0b 33
        E 112 b1 0b 2a
        E 32 81 3e 00
        E 16 b1 0b 44
        E 0 91 3e 44
        E 16 b1 0b 4c
        E 16 b1 0b 33
        E 112 b1 0b 2a
        E 32 81 3e 00
        E 16 b1 0b 11
        E 0 91 3e 11
        E 192 b1 0b 44
        E 16 b1 0b 4c
        E 16 b1 0b 33
        E 208 b1 0b 2a
        E 32 81 3e 00
        E 16 b1 0b 44
        E 0 91 3e 44
        E 16 b1 0b 4c
        E 16 b1 0b 33
        E 64 b1 0b 11
        E 192 b1 0b 44
        E 16 b1 0b 4c
        E 16 b1 0b 33
        E 304 b1 0b 2a
        E 32 81 3e 00
        E 16 b1 0b 44
        E 0 91 3e 44
        E 16 b1 0b 4c
        E 16 b1 0b 33
        E 64 b1 0b 11
        E 96 b1 0b 44
        E 16 b1 0b 4c
        E 16 b1 0b 33
        E 1072 b1 0b 2a
        E 32 81 3e 00
        E 16 b1 0b 44
        E 0 91 30 44
        E 16 b1 0b 4c
        E 16 b1 0b 33
        E 64 b1 0b 44
        E 16 b1 0b 4c
        E 16 b1 0b 33
        E 64 b1 0b 44
        E 16 b1 0b 4c
        E 16 b1 0b 33
        E 496 b1 0b 2a
        E 32 81 30 00
        E 16 b1 0b 44
        E 0 91 30 44
        E 16 b1 0b 4c
        E 16 b1 0b 33
        E 64 b1 0b 44
        E 16 b1 0b 4c
        E 16 b1 0b 33
        E 64 b1 0b 44
        E 0 81 30 00
        E 0 91 3c 44
        E 16 b1 0b 4c
        E 16 b1 0b 33
        E 496 b1 0b 2a
        E 32 81 3c 00
        E 16 b1 0b 44
        E 0 91 3c 44
        E 16 b1 0b 4c
        E 16 b1 0b 33
        E 64 b1 0b 44
        E 16 b1 0b 4c
        E 16 b1 0b 33
        E 64 b1 0b 44
        E 16 b1 0b 4c
        E 16 b1 0b 33
        E 112 b1 0b 2a
        E 32 81 3c 00
        E 16 b1 0b 44
        E 0 91 3c 44
        E 16 b1 0b 4c
        E 16 b1 0b 33
        E 64 b1 0b 44
        E 16 b1 0b 4c
        E 16 b1 0b 33
        E 64 b1 0b 44
        E 16 b1 0b 4c
        E 16 b1 0b 33
        E 112 b1 0b 2a
        E 32 81 3c 00
        E 16 b1 0b 44
        E 0 91 3c 44
        E 16 b1 0b 4c
        E 16 b1 0b 33
        E 64 b1 0b 44
        E 16 b1 0b 4c
        E 16 b1 0b 33
        E 64 b1 0b 44
        E 16 b1 0b 4c
        E 16 b1 0b 33
        E 112 b1 0b 2a
        E 32 81 3c 00
        E 16 b1 0b 44
        E 0 91 3c 44
        E 16 b1 0b 4c
        E 16 b1 0b 33
        E 64 b1 0b 44
        E 16 b1 0b 4c
        E 16 b1 0b 33
        E 64 b1 0b 44
        E 16 b1 0b 4c
        E 16 b1 0b 33
        E 64 b1 0b 44
        E 16 b1 0b 4c
        E 16 b1 0b 33
        E 64 b1 0b 5d
        E 240 81 3c 00
        E 144 b1 0b 4c
        E 0 91 3c 4c
        E 240 81 3c 00
        E 144 b1 0b 3b
        E 0 91 3c 3b
        E 240 81 3c 00
        E 144 b1 0b 2a
        E 0 91 3c 2a
        E 240 81 3c 00
        E 144 b1 0b 19
        E 0 91 3c 19
        E 240 81 3c 00
        E 144 b1 0b 11
        E 0 91 3c 11
        E 240 81 3c 00
        E 144 b1 0b 08
        E 0 91 3c 08
        E 240 81 3c 00
        E 144 b1 0b 44
        E 0 91 3c 44
        E 16 b1 0b 4c
        E 16 b1 0b 33
        E 64 b1 0b 44
        E 16 b1 0b 4c
        E 16 b1 0b 33
        E 64 b1 0b 44
        E 16 b1 0b 4c
        E 16 b1 0b 33
        E 64 b1 0b 44
        E 16 b1 0b 4c
        E 16 b1 0b 33
        E 64 b1 0b 44
        E 16 b1 0b 4c
        E 16 b1 0b 33
        E 208 b1 0b 2a
        E 32 81 3c 00
        E 16 b1 0b 44
        E 0 91 3c 44
        E 16 b1 0b 4c
        E 16 b1 0b 33
        E 64 b1 0b 11
        E 384 b1 0b 44
        E 0 81 3c 00
        E 0 91 32 44
        E 16 b1 0b 4c
        E 16 b1 0b 33
        E 64 b1 0b 44
        E 16 b1 0b 4c
        E 16 b1 0b 33
        E 64 b1 0b 44
        E 0 81 32 00
        E 0 91 39 44
        E 16 b1 0b 4c
        E 16 b1 0b 33
        E 64 b1 0b 44
        E 16 b1 0b 4c
        E 16 b1 0b 33
        E 400 b1 0b 2a
        E 32 81 39 00
        E 16 b1 0b 44
        E 0 91 39 44
        E 16 b1 0b 4c
        E 16 b1 0b 33
        E 208 b1 0b 2a
        E 32 81 39 00
        E 16 b1 0b 44
        E 0 91 39 44
        E 16 b1 0b 4c
        E 16 b1 0b 33
        E 64 b1 0b 11
        E 192 b1 0b 44
        E 0 81 39 00
        E 0 91 2f 44
        E 16 b1 0b 4c
        E 16 b1 0b 33
        E 64 b1 0b 44
        E 16 b1 0b 4c
        E 16 b1 0b 33
        E 64 b1 0b 44
        E 16 b1 0b 4c
        E 16 b1 0b 33
        E 64 b1 0b 44
        E 16 b1 0b 4c
        E 16 b1 0b 33
        E 64 b1 0b 44
        E 0 81 2f 00
        E 0 91 3b 44
        E 16 b1 0b 4c
        E 16 b1 0b 33
        E 64 b1 0b 44
        E 16 b1 0b 4c
        E 16 b1 0b 33
        E 400 b1 0b 2a
        E 32 81 3b 00
        E 16 b1 0b 44
        E 0 91 3b 44
        E 16 b1 0b 4c
        E 16 b1 0b 33
        E 208 b1 0b 2a
        E 32 81 3b 00
        E 16 b1 0b 44
        E 0 91 3b 44
        E 16 b1 0b 4c
        E 16 b1 0b 33
        E 64 b1 0b 11
        E 96 b1 0b 44
        E 0 81 3b 00
        E 0 91 32 44
        E 16 b1 0b 4c
        E 16 b1 0b 33
        E 64 b1 0b 44
        E 16 b1 0b 4c
        E 16 b1 0b 33
        E 64 b1 0b 44
        E 0 81 32 00
        E 0 91 3a 44
        E 16 b1 0b 4c
        E 16 b1 0b 33
        E 64 b1 0b 44
        E 16 b1 0b 4c
        E 16 b1 0b 33
        E 208 b1 0b 2a
        E 32 81 3a 00
        E 16 b1 0b 44
        E 0 91 3a 44
        E 16 b1 0b 4c
        E 16 b1 0b 33
        E 64 b1 0b 11
        E 96 b1 0b 44
        E 0 81 3a 00
        E 0 91 34 44
        E 16 b1 0b 4c
        E 16 b1 0b 33
        E 64 b1 0b 44
        E 16 b1 0b 4c
        E 16 b1 0b 33
        E 64 b1 0b 44
        E 0 81 34 00
        E 0 91 3c 44
        E 16 b1 0b 4c
        E 16 b1 0b 33
        E 64 b1 0b 44
        E 16 b1 0b 4c
        E 16 b1 0b 33
        E 64 b1 0b 44
        E 16 b1 0b 4c
        E 16 b1 0b 33
        E 64 b1 0b 11
        E 96 b1 0b 44
        E 16 b1 0b 4c
        E 16 b1 0b 33
        E 64 b1 0b 11
        E 96 b1 0b 44
        E 16 b1 0b 4c
        E 16 b1 0b 33
        E 64 b1 0b 44
        E 16 b1 0b 4c
        E 16 b1 0b 33
        E 112 b1 0b 2a
        E 32 81 3c 00
        E 16 b1 0b 44
        E 0 91 3c 44
        E 16 b1 0b 4c
        E 16 b1 0b 33
        E 304 b1 0b 2a
        E 32 81 3c 00
        E 16 b1 0b 44
        E 0 91 3c 44
        E 16 b1 0b 4c
        E 16 b1 0b 33
        E 64 b1 0b 44
        E 16 b1 0b 4c
        E 16 b1 0b 33
        E 64 b1 0b 44
        E 16 b1 0b 4c
        E 16 b1 0b 33
        E 64 b1 0b 44
        E 16 b1 0b 4c
        E 16 b1 0b 33
        E 64 b1 0b 44
        E 16 b1 0b 4c
        E 16 b1 0b 33
        E 208 b1 0b 2a
        E 32 81 3c 00
        E 16 b1 0b 44
        E 0 91 3c 44
        E 16 b1 0b 4c
        E 16 b1 0b 33
        E 64 b1 0b 11
        E 384 b1 0b 44
        E 0 81 3c 00
        E 0 91 32 44
        E 16 b1 0b 4c
        E 16 b1 0b 33
        E 64 b1 0b 44
        E 16 b1 0b 4c
        E 16 b1 0b 33
        E 64 b1 0b 44
        E 0 81 32 00
        E 0 91 39 44
        E 16 b1 0b 4c
        E 16 b1 0b 33
        E 64 b1 0b 44
        E 16 b1 0b 4c
        E 16 b1 0b 33
        E 400 b1 0b 2a
        E 32 81 39 00
        E 16 b1 0b 44
        E 0 91 39 44
        E 16 b1 0b 4c
        E 16 b1 0b 33
        E 208 b1 0b 2a
        E 32 81 39 00
        E 16 b1 0b 44
        E 0 91 39 44
        E 16 b1 0b 4c
        E 16 b1 0b 33
        E 64 b1 0b 11
        E 192 b1 0b 44
        E 0 81 39 00
        E 0 91 2f 44
        E 16 b1 0b 4c
        E 16 b1 0b 33
        E 64 b1 0b 44
        E 16 b1 0b 4c
        E 16 b1 0b 33
        E 64 b1 0b 44
        E 16 b1 0b 4c
        E 16 b1 0b 33
        E 64 b1 0b 44
        E 16 b1 0b 4c
        E 16 b1 0b 33
        E 64 b1 0b 44
        E 0 81 2f 00
        E 0 91 3b 44
        E 16 b1 0b 4c
        E 16 b1 0b 33
        E 64 b1 0b 44
        E 16 b1 0b 4c
        E 16 b1 0b 33
        E 400 b1 0b 2a
        E 32 81 3b 00
        E 16 b1 0b 44
        E 0 91 3b 44
        E 16 b1 0b 4c
        E 16 b1 0b 33
        E 208 b1 0b 2a
        E 32 81 3b 00
        E 16 b1 0b 44
        E 0 91 3b 44
        E 16 b1 0b 4c
        E 16 b1 0b 33
        E 64 b1 0b 11
        E 96 b1 0b 44
        E 0 81 3b 00
        E 0 91 32 44
        E 16 b1 0b 4c
        E 16 b1 0b 33
        E 64 b1 0b 44
        E 16 b1 0b 4c
        E 16 b1 0b 33
        E 64 b1 0b 44
        E 0 81 32 00
        E 0 91 3a 44
        E 16 b1 0b 4c
        E 16 b1 0b 33
        E 64 b1 0b 44
        E 16 b1 0b 4c
        E 16 b1 0b 33
        E 208 b1 0b 2a
        E 32 81 3a 00
        E 16 b1 0b 44
        E 0 91 3a 44
        E 16 b1 0b 4c
        E 16 b1 0b 33
        E 64 b1 0b 11
        E 96 b1 0b 44
        E 0 81 3a 00
        E 0 91 34 44
        E 16 b1 0b 4c
        E 16 b1 0b 33
        E 64 b1 0b 44
        E 16 b1 0b 4c
        E 16 b1 0b 33
        E 64 b1 0b 44
        E 0 81 34 00
        E 0 91 3c 44
        E 16 b1 0b 4c
        E 16 b1 0b 33
        E 64 b1 0b 44
        E 16 b1 0b 4c
        E 16 b1 0b 33
        E 64 b1 0b 44
        E 16 b1 0b 4c
        E 16 b1 0b 33
        E 64 b1 0b 11
        E 96 b1 0b 44
        E 16 b1 0b 4c
        E 16 b1 0b 33
        E 64 b1 0b 11
        E 96 b1 0b 44
        E 16 b1 0b 4c
        E 16 b1 0b 33
        E 64 b1 0b 44
        E 16 b1 0b 4c
        E 16 b1 0b 33
        E 112 b1 0b 2a
        E 32 81 3c 00
        E 16 b1 0b 44
        E 0 91 3c 44
        E 16 b1 0b 4c
        E 16 b1 0b 33
        E 304 b1 0b 2a
        E 32 81 3c 00
        E 16 b1 0b 44
        E 0 91 3c 44
        E 16 b1 0b 4c
        E 16 b1 0b 33
        E 64 b1 0b 44
        E 16 b1 0b 4c
        E 16 b1 0b 33
        E 64 b1 0b 44
        E 16 b1 0b 4c
        E 16 b1 0b 33
        E 64 b1 0b 44
        E 16 b1 0b 4c
        E 16 b1 0b 33
        E 64 b1 0b 44
        E 16 b1 0b 4c
        E 16 b1 0b 33
        E 688 b1 0b 2a
        E 32 81 3c 00
        E 16 b1 0b 44
        E 0 91 3c 44
        E 16 b1 0b 4c
        E 16 b1 0b 33
        E 304 b1 0b 2a
        E 32 81 3c 00
        E 16 b1 0b 44
        E 0 91 3c 44
        E 16 b1 0b 4c
        E 16 b1 0b 33
        E 304 b1 0b 2a
        E 32 81 3c 00
        E 16 b1 0b 44
        E 0 91 3c 44
        E 16 b1 0b 4c
        E 16 b1 0b 33
        E 304 b1 0b 2a
        E 32 81 3c 00
        E 16 b1 0b 44
        E 0 91 3c 44
        E 16 b1 0b 4c
        E 16 b1 0b 33
        E 304 b1 0b 2a
        E 32 81 3c 00
        E 16 b1 0b 44
        E 0 91 37 44
        E 16 b1 0b 4c
        E 16 b1 0b 33
        E 304 b1 0b 2a
        E 32 81 37 00
        E 16 b1 0b 44
        E 0 91 37 44
        E 16 b1 0b 4c
        E 16 b1 0b 33
        E 304 b1 0b 2a
        E 32 81 37 00
        E 16 b1 0b 44
        E 0 91 39 44
        E 16 b1 0b 4c
        E 16 b1 0b 33
        E 496 b1 0b 2a
        E 32 81 39 00
        E 16 b1 0b 44
        E 0 91 36 44
        E 16 b1 0b 4c
        E 16 b1 0b 33
        E 112 b1 0b 2a
        E 32 81 36 00
        E 16 b1 0b 44
        E 0 91 3e 44
        E 16 b1 0b 4c
        E 16 b1 0b 33
        E 688 b1 0b 2a
        E 32 81 3e 00
        E 16 b1 0b 44
        E 0 91 3e 44
        E 16 b1 0b 4c
        E 16 b1 0b 33
        E 688 b1 0b 2a
        E 32 81 3e 00
        E 16 b1 0b 44
        E 0 91 3e 44
        E 16 b1 0b 4c
        E 16 b1 0b 33
        E 688 b1 0b 2a
        E 32 81 3e 00
        E 16 b1 0b 44
        E 0 91 3e 44
        E 16 b1 0b 4c
        E 16 b1 0b 33
        E 688 b1 0b 2a
        E 32 81 3e 00
        E 16 b1 0b 44
        E 0 91 3e 44
        E 16 b1 0b 4c
        E 16 b1 0b 33
        E 304 b1 0b 2a
        E 32 81 3e 00
        E 16 b1 0b 44
        E 0 91 3e 44
        E 16 b1 0b 4c
        E 16 b1 0b 33
        E 304 b1 0b 2a
        E 32 81 3e 00
        E 16 b1 0b 44
        E 0 91 3e 44
        E 16 b1 0b 4c
        E 16 b1 0b 33
        E 304 b1 0b 2a
        E 32 81 3e 00
        E 16 b1 0b 44
        E 0 91 3e 44
        E 16 b1 0b 4c
        E 16 b1 0b 33
        E 304 b1 0b 2a
        E 32 81 3e 00
        E 16 b1 0b 44
        E 0 91 3e 44
        E 16 b1 0b 4c
        E 16 b1 0b 33
        E 304 b1 0b 2a
        E 32 81 3e 00
        E 16 b1 0b 44
        E 0 91 3e 44
        E 16 b1 0b 4c
        E 16 b1 0b 33
        E 304 b1 0b 2a
        E 32 81 3e 00
        E 16 b1 0b 44
        E 0 91 3e 44
        E 16 b1 0b 4c
        E 16 b1 0b 33
        E 1456 b1 0b 2a
        E 32 81 3e 00
        E 16 b1 0b 44
        E 0 91 3e 44
        E 16 b1 0b 4c
        E 16 b1 0b 33
        E 208 b1 0b 2a
        E 32 81 3e 00
        E 16 b1 0b 44
        E 0 91 3e 44
        E 16 b1 0b 4c
        E 16 b1 0b 33
        E 208 b1 0b 2a
        E 32 81 3e 00
        E 16 b1 0b 44
        E 0 91 3e 44
        E 16 b1 0b 4c
        E 16 b1 0b 33
        E 112 b1 0b 2a
        E 32 81 3e 00
        E 112 b1 0b 33
        E 0 91 3e 33
        E 16 b1 0b 3b
        E 16 b1 0b 22
        E 112 b1 0b 19
        E 32 81 3e 00
        E 112 b1 0b 22
        E 0 91 3e 22
        E 16 b1 0b 2a
        E 16 b1 0b 11
        E 112 b1 0b 08
        E 32 81 3e 00
        E 112 91 3e 08
        E 192 81 3e 00
        E 960 b1 0b 7f
        E 0 91 24 7f
        E 16 81 24 00
        E 0 91 25 7f
        E 16 81 25 00
        E 0 91 26 7f
        E 16 81 26 00
        E 0 91 27 7f
        E 32 81 27 00
        E 0 91 28 7f
        E 16 81 28 00
        E 0 91 29 7f
        E 16 81 29 00
        E 0 91 2a 7f
        E 16 81 2a 00
        E 0 91 2b 7f
        E 16 81 2b 00
        E 0 91 2c 7f
        E 16 81 2c 00
        E 0 91 2d 7f
        E 16 81 2d 00
        E 0 91 2e 7f
        E 16 81 2e 00
        E 0 91 2f 7f
        E 16 81 2f 00
        E 0 91 30 7f
        E 16 81 30 00
        E 0 91 32 7f
        E 16 81 32 00
        E 0 91 33 7f
        E 16 81 33 00
        E 0 91 35 7f
        E 16 81 35 00
        E 0 91 37 7f
        E 16 81 37 00
        E 0 91 38 7f
        E 16 81 38 00
        E 0 91 39 7f
        E 16 81 39 00
        E 0 91 3a 7f
        E 16 81 3a 00
        E 0 91 3b 7f
        E 16 81 3b 00
        E 0 91 3c 7f
        E 16 81 3c 00
        E 0 91 3e 7f
        E 16 81 3e 00
        E 0 91 3f 7f
        E 16 81 3f 00
        E 0 91 41 7f
        E 16 81 41 00
        E 0 91 43 7f
        E 16 b1 0b 22
        E 0 81 43 00
        E 0 91 39 22
        E 16 81 39 00
        E 0 91 3a 22
        E 16 81 3a 00
        E 0 91 3b 22
        E 16 81 3b 00
        E 0 91 3c 22
        E 16 81 3c 00
        E 0 91 3e 22
        E 16 81 3e 00
        E 0 91 3f 22
        E 16 81 3f 00
        E 0 91 41 22
        E 16 81 41 00
        E 0 91 43 22
        E 16 b1 0c 40
        E 0 b1 0b 7f
        E 0 81 43 00
        E 0 91 56 7f
        E 64 b1 0b 3b
        E 64 81 56 00
        E 8944 b1 0c 20
        E 0 b1 0b 44
        E 0 91 1a 44
        E 16 b1 0b 4c
        E 16 b1 0b 33
        E 112 b1 0b 2a
        E 32 81 1a 00
        E 16 b1 0b 44
        E 0 91 32 44
        E 16 b1 0b 4c
        E 16 b1 0b 33
        E 112 b1 0b 2a
        E 32 81 32 00
        E 16 b1 0b 44
        E 0 91 32 44
        E 16 b1 0b 4c
        E 16 b1 0b 33
        E 112 b1 0b 2a
        E 32 81 32 00
        E 16 b1 0b 11
        E 0 91 32 11
        E 192 b1 0b 44
        E 16 b1 0b 4c
        E 16 b1 0b 33
        E 208 b1 0b 2a
        E 32 81 32 00
        E 16 b1 0b 44
        E 0 91 32 44
        E 16 b1 0b 4c
        E 16 b1 0b 33
        E 64 b1 0b 11
        E 192 b1 0b 44
        E 16 b1 0b 4c
        E 16 b1 0b 33
        E 304 b1 0b 2a
        E 32 81 32 00
        E 16 b1 0b 44
        E 0 91 32 44
        E 16 b1 0b 4c
        E 16 b1 0b 33
        E 64 b1 0b 11
        E 96 b1 0b 44
        E 16 b1 0b 4c
        E 16 b1 0b 33
        E 1072 b1 0b 2a
        E 32 81 32 00
        E 16 b1 0b 44
        E 0 91 32 44
        E 16 b1 0b 4c
        E 16 b1 0b 33
        E 64 b1 0b 11
        E 96 b1 0b 44
        E 16 b1 0b 4c
        E 16 b1 0b 33
        E 64 b1 0b 11
        E 96 b1 0b 44
        E 16 b1 0b 4c
        E 16 b1 0b 33
        E 112 b1 0b 2a
        E 32 81 32 00
        E 16 b1 0b 44
        E 0 91 32 44
        E 16 b1 0b 4c
        E 16 b1 0b 33
        E 64 b1 0b 11
        E 96 b1 0b 44
        E 16 b1 0b 4c
        E 16 b1 0b 33
        E 208 b1 0b 2a
        E 32 81 32 00
        E 16 b1 0b 44
        E 0 91 32 44
        E 16 b1 0b 4c
        E 16 b1 0b 33
        E 64 b1 0b 11
        E 192 b1 0b 44
        E 0 81 32 00
        E 0 91 3c 44
        E 16 b1 0b 4c
        E 16 b1 0b 33
        E 64 b1 0b 44
        E 16 b1 0b 4c
        E 16 b1 0b 33
        E 64 b1 0b 44
        E 16 b1 0b 4c
        E 16 b1 0b 3b
        E 1504 b1 0b 44
        E 0 81 3c 00
        E 0 91 1a 44
        E 16 b1 0b 4c
        E 16 b1 0b 33
        E 112 b1 0b 2a
        E 32 81 1a 00
        E 16 b1 0b 44
        E 0 91 3e 44
        E 16 b1 0b 4c
        E 16 b1 0b 33
        E 112 b1 0b 2a
        E 32 81 3e 00
        E 16 b1 0b 44
        E 0 91 3e 44
        E 16 b1 0b 4c
        E 16 b1 0b 33
        E 112 b1 0b 2a
        E 32 81 3e 00
        E 16 b1 0b 11
        E 0 91 3e 11
        E 192 b1 0b 44
        E 16 b1 0b 4c
        E 16 b1 0b 33
        E 208 b1 0b 2a
        E 32 81 3e 00
        E 16 b1 0b 44
        E 0 91 3e 44
        E 16 b1 0b 4c
        E 16 b1 0b 33
        E 64 b1 0b 11
        E 192 b1 0b 44
        E 16 b1 0b 4c
        E 16 b1 0b 33
        E 304 b1 0b 2a
        E 32 81 3e 00
        E 16 b1 0b 44
        E 0 91 3e 44
        E 16 b1 0b 4c
        E 16 b1 0b 33
        E 64 b1 0b 11
        E 96 b1 0b 44
        E 16 b1 0b 4c
        E 16 b1 0b 33
        E 1072 b1 0b 2a
        E 32 81 3e 00
        E 16 b1 0b 44
        E 0 91 30 44
        E 16 b1 0b 4c
        E 16 b1 0b 33
        E 64 b1 0b 44
        E 16 b1 0b 4c
        E 16 b1 0b 33
        E 64 b1 0b 44
        E 16 b1 0b 4c
        E 16 b1 0b 33
        E 496 b1 0b 2a
        E 32 81 30 00
        E 16 b1 0b 44
        E 0 91 30 44
        E 16 b1 0b 4c
        E 16 b1 0b 33
        E 64 b1 0b 44
        E 16 b1 0b 4c
        E 16 b1 0b 33
        E 64 b1 0b 44
        E 0 81 30 00
        E 0 91 3c 44
        E 16 b1 0b 4c
        E 16 b1 0b 33
        E 496 b1 0b 2a
        E 32 81 3c 00
        E 16 b1 0b 44
        E 0 91 3c 44
        E 16 b1 0b 4c
        E 16 b1 0b 33
        E 64 b1 0b 44
        E 16 b1 0b 4c
        E 16 b1 0b 33
        E 64 b1 0b 44
        E 16 b1 0b 4c
        E 16 b1 0b 33
        E 112 b1 0b 2a
        E 32 81 3c 00
        E 16 b1 0b 44
        E 0 91 3c 44
        E 16 b1 0b 4c
        E 16 b1 0b 33
        E 64 b1 0b 44
        E 16 b1 0b 4c
        E 16 b1 0b 33
        E 64 b1 0b 44
        E 16 b1 0b 4c
        E 16 b1 0b 33
        E 112 b1 0b 2a
        E 32 81 3c 00
        E 16 b1 0b 44
        E 0 91 3c 44
        E 16 b1 0b 4c
        E 16 b1 0b 33
        E 64 b1 0b 44
        E 16 b1 0b 4c
        E 16 b1 0b 33
        E 64 b1 0b 44
        E 16 b1 0b 4c
        E 16 b1 0b 33
        E 112 b1 0b 2a
        E 32 81 3c 00
        E 16 b1 0b 44
        E 0 91 3c 44
        E 16 b1 0b 4c
        E 16 b1 0b 33
        E 64 b1 0b 44
        E 16 b1 0b 4c
        E 16 b1 0b 33
        E 64 b1 0b 44
        E 16 b1 0b 4c
        E 16 b1 0b 33
        E 64 b1 0b 44
        E 16 b1 0b 4c
        E 16 b1 0b 33
        E 64 b1 0b 5d
        E 240 81 3c 00
        E 144 b1 0b 4c
        E 0 91 3c 4c
        E 240 81 3c 00
        E 144 b1 0b 3b
        E 0 91 3c 3b
        E 240 81 3c 00
        E 144 b1 0b 2a
        E 0 91 3c 2a
        E 240 81 3c 00
        E 144 b1 0b 19
        E 0 91 3c 19
        E 128 81 3c 00
        E 0 b1 7b 00
        E 0 ff 2f 00
      >
    >
  >
  <TRACK {00DCD80B-6F54-43D2-81F3-0109C6158B43}
    NAME "NES - Triangle [ch2]"
    PEAKCOL 16744192
    BEAT -1
    AUTOMODE 0
    PANLAWFLAGS 3
    VOLPAN 1 0 -1 -1 1
    MUTESOLO 0 0 0
    IPHASE 0
    PLAYOFFS 0 1
    ISBUS 0 0
    BUSCOMP 0 0 0 0 0
    SHOWINMIX 1 0.6667 0.5 1 0.5 0 0 0
    FIXEDLANES 9 0 0 0 0
    SEL 0
    REC 0 5088 1 0 0 0 0 0
    VU 2
    TRACKHEIGHT 0 0 0 0 0 0 0
    INQ 0 0 0 0.5 100 0 0 100
    NCHAN 2
    FX 1
    TRACKID {00DCD80B-6F54-43D2-81F3-0109C6158B43}
    PERF 0
    MIDIOUT -1
    MAINSEND 1 0
    <FXCHAIN
      WNDRECT 24 52 700 560
      SHOW 0
      LASTSEL 0
      DOCKED 0
      BYPASS 0 0 0
      <JS "ReapNES Studio/ReapNES_Console.jsfx" ""
        2 15 1 10 80 10 100 2 1 15 1 5 60 10 80 1 1 0 50 0 0 15 1 0 100 0 0 0.500000 0.500000 0.400000 0.300000 0.800000 2 1 0 0 0 0 - - - - - - - - - - - - - - - - - - - - - - - - - -
      >
      FLOATPOS 0 0 0 0
      FXID {4065DDF2-06D0-4C5E-BE1B-561D5378BA93}
      WAK 0 0
    >
    <ITEM
      POSITION 0
      LENGTH 72.1461919
      LOOP 0
      ALLTAKES 0
      FADEIN 0 0 0 0 0 0 0
      FADEOUT 0 0 0 0 0 0 0
      MUTE 0 0
      SEL 0
      IGUID {4D886825-0FAB-4123-9ADE-5D6A2DE7C835}
      <SOURCE MIDI
        HASDATA 1 480 QN
        CCINTERP 32
        E 0 c2 26
        E 9648 b2 0b 7f
        E 0 92 26 7f
        E 192 82 26 00
        E 1344 b2 0b 7f
        E 0 92 3b 7f
        E 16 82 3b 00
        E 0 b2 0b 7f
        E 0 92 39 7f
        E 16 82 39 00
        E 0 b2 0b 7f
        E 0 92 38 7f
        E 16 82 38 00
        E 0 b2 0b 7f
        E 0 92 36 7f
        E 16 82 36 00
        E 0 b2 0b 7f
        E 0 92 34 7f
        E 16 82 34 00
        E 0 b2 0b 7f
        E 0 92 33 7f
        E 16 82 33 00
        E 0 b2 0b 7f
        E 0 92 3b 7f
        E 16 82 3b 00
        E 0 b2 0b 7f
        E 0 92 39 7f
        E 16 82 39 00
        E 0 b2 0b 7f
        E 0 92 38 7f
        E 16 82 38 00
        E 0 b2 0b 7f
        E 0 92 36 7f
        E 16 82 36 00
        E 0 b2 0b 7f
        E 0 92 34 7f
        E 16 82 34 00
        E 0 b2 0b 7f
        E 0 92 33 7f
        E 16 82 33 00
        E 0 b2 0b 7f
        E 0 92 38 7f
        E 16 82 38 00
        E 0 b2 0b 7f
        E 0 92 36 7f
        E 16 82 36 00
        E 0 b2 0b 7f
        E 0 92 34 7f
        E 16 82 34 00
        E 0 b2 0b 7f
        E 0 92 33 7f
        E 16 82 33 00
        E 0 b2 0b 7f
        E 0 92 31 7f
        E 16 82 31 00
        E 0 b2 0b 7f
        E 0 92 2f 7f
        E 16 82 2f 00
        E 96 b2 0b 7f
        E 0 92 38 7f
        E 16 82 38 00
        E 0 b2 0b 7f
        E 0 92 36 7f
        E 16 82 36 00
        E 0 b2 0b 7f
        E 0 92 34 7f
        E 16 82 34 00
        E 0 b2 0b 7f
        E 0 92 33 7f
        E 16 82 33 00
        E 0 b2 0b 7f
        E 0 92 31 7f
        E 16 82 31 00
        E 0 b2 0b 7f
        E 0 92 2f 7f
        E 16 82 2f 00
        E 96 b2 0b 7f
        E 0 92 34 7f
        E 16 82 34 00
        E 0 b2 0b 7f
        E 0 92 32 7f
        E 16 82 32 00
        E 0 b2 0b 7f
        E 0 92 31 7f
        E 16 82 31 00
        E 0 b2 0b 7f
        E 0 92 2f 7f
        E 16 82 2f 00
        E 0 b2 0b 7f
        E 0 92 2d 7f
        E 16 82 2d 00
        E 0 b2 0b 7f
        E 0 92 2c 7f
        E 16 82 2c 00
        E 0 b2 0b 7f
        E 0 92 34 7f
        E 16 82 34 00
        E 0 b2 0b 7f
        E 0 92 32 7f
        E 16 82 32 00
        E 0 b2 0b 7f
        E 0 92 31 7f
        E 16 82 31 00
        E 0 b2 0b 7f
        E 0 92 2f 7f
        E 16 82 2f 00
        E 0 b2 0b 7f
        E 0 92 2d 7f
        E 16 82 2d 00
        E 0 b2 0b 7f
        E 0 92 2c 7f
        E 16 82 2c 00
        E 192 b2 0b 7f
        E 0 92 22 7f
        E 192 82 22 00
        E 0 b2 0b 7f
        E 0 92 24 7f
        E 384 82 24 00
        E 0 b2 0b 7f
        E 0 92 26 7f
        E 384 82 26 00
        E 1152 b2 0b 7f
        E 0 92 29 7f
        E 768 82 29 00
        E 0 b2 0b 7f
        E 0 92 28 7f
        E 768 82 28 00
        E 0 b2 0b 7f
        E 0 92 26 7f
        E 192 82 26 00
        E 1344 b2 0b 7f
        E 0 92 3b 7f
        E 16 82 3b 00
        E 0 b2 0b 7f
        E 0 92 39 7f
        E 16 82 39 00
        E 0 b2 0b 7f
        E 0 92 38 7f
        E 16 82 38 00
        E 0 b2 0b 7f
        E 0 92 36 7f
        E 16 82 36 00
        E 0 b2 0b 7f
        E 0 92 34 7f
        E 16 82 34 00
        E 0 b2 0b 7f
        E 0 92 33 7f
        E 16 82 33 00
        E 0 b2 0b 7f
        E 0 92 3b 7f
        E 16 82 3b 00
        E 0 b2 0b 7f
        E 0 92 39 7f
        E 16 82 39 00
        E 0 b2 0b 7f
        E 0 92 38 7f
        E 16 82 38 00
        E 0 b2 0b 7f
        E 0 92 36 7f
        E 16 82 36 00
        E 0 b2 0b 7f
        E 0 92 34 7f
        E 16 82 34 00
        E 0 b2 0b 7f
        E 0 92 33 7f
        E 16 82 33 00
        E 0 b2 0b 7f
        E 0 92 38 7f
        E 16 82 38 00
        E 0 b2 0b 7f
        E 0 92 36 7f
        E 16 82 36 00
        E 0 b2 0b 7f
        E 0 92 34 7f
        E 16 82 34 00
        E 0 b2 0b 7f
        E 0 92 33 7f
        E 16 82 33 00
        E 0 b2 0b 7f
        E 0 92 31 7f
        E 16 82 31 00
        E 0 b2 0b 7f
        E 0 92 2f 7f
        E 16 82 2f 00
        E 96 b2 0b 7f
        E 0 92 38 7f
        E 16 82 38 00
        E 0 b2 0b 7f
        E 0 92 36 7f
        E 16 82 36 00
        E 0 b2 0b 7f
        E 0 92 34 7f
        E 16 82 34 00
        E 0 b2 0b 7f
        E 0 92 33 7f
        E 16 82 33 00
        E 0 b2 0b 7f
        E 0 92 31 7f
        E 16 82 31 00
        E 0 b2 0b 7f
        E 0 92 2f 7f
        E 16 82 2f 00
        E 96 b2 0b 7f
        E 0 92 34 7f
        E 16 82 34 00
        E 0 b2 0b 7f
        E 0 92 32 7f
        E 16 82 32 00
        E 0 b2 0b 7f
        E 0 92 31 7f
        E 16 82 31 00
        E 0 b2 0b 7f
        E 0 92 2f 7f
        E 16 82 2f 00
        E 0 b2 0b 7f
        E 0 92 2d 7f
        E 16 82 2d 00
        E 0 b2 0b 7f
        E 0 92 2c 7f
        E 16 82 2c 00
        E 0 b2 0b 7f
        E 0 92 34 7f
        E 16 82 34 00
        E 0 b2 0b 7f
        E 0 92 32 7f
        E 16 82 32 00
        E 0 b2 0b 7f
        E 0 92 31 7f
        E 16 82 31 00
        E 0 b2 0b 7f
        E 0 92 2f 7f
        E 16 82 2f 00
        E 0 b2 0b 7f
        E 0 92 2d 7f
        E 16 82 2d 00
        E 0 b2 0b 7f
        E 0 92 2c 7f
        E 16 82 2c 00
        E 192 b2 0b 7f
        E 0 92 22 7f
        E 192 82 22 00
        E 0 b2 0b 7f
        E 0 92 26 7f
        E 384 82 26 00
        E 0 b2 0b 7f
        E 0 92 24 7f
        E 1536 82 24 00
        E 0 b2 0b 7f
        E 0 92 2d 7f
        E 1248 82 2d 00
        E 0 b2 0b 7f
        E 0 92 2b 7f
        E 96 82 2b 00
        E 0 b2 0b 7f
        E 0 92 29 7f
        E 96 82 29 00
        E 0 b2 0b 7f
        E 0 92 28 7f
        E 96 82 28 00
        E 0 b2 0b 7f
        E 0 92 26 7f
        E 32 82 26 00
        E 0 b2 0b 7f
        E 0 92 25 7f
        E 32 82 25 00
        E 0 b2 0b 7f
        E 0 92 24 7f
        E 32 82 24 00
        E 0 b2 0b 7f
        E 0 92 23 7f
        E 32 82 23 00
        E 0 b2 0b 7f
        E 0 92 21 7f
        E 32 82 21 00
        E 0 b2 0b 7f
        E 0 92 20 7f
        E 32 82 20 00
        E 0 b2 0b 7f
        E 0 92 1f 7f
        E 32 82 1f 00
        E 0 b2 0b 7f
        E 0 92 1e 7f
        E 32 82 1e 00
        E 0 b2 0b 7f
        E 0 92 1d 7f
        E 32 82 1d 00
        E 0 b2 0b 7f
        E 0 92 1c 7f
        E 32 82 1c 00
        E 0 b2 0b 7f
        E 0 92 1b 7f
        E 32 82 1b 00
        E 0 b2 0b 7f
        E 0 92 1a 7f
        E 32 82 1a 00
        E 2304 b2 0b 7f
        E 0 92 2d 7f
        E 384 82 2d 00
        E 0 b2 0b 7f
        E 0 92 26 7f
        E 192 82 26 00
        E 96 b2 0b 7f
        E 0 92 26 7f
        E 96 82 26 00
        E 0 b2 0b 7f
        E 0 92 39 7f
        E 16 82 39 00
        E 0 b2 0b 7f
        E 0 92 38 7f
        E 16 82 38 00
        E 0 b2 0b 7f
        E 0 92 37 7f
        E 16 82 37 00
        E 0 b2 0b 7f
        E 0 92 36 7f
        E 16 82 36 00
        E 0 b2 0b 7f
        E 0 92 35 7f
        E 16 82 35 00
        E 0 b2 0b 7f
        E 0 92 34 7f
        E 16 82 34 00
        E 0 b2 0b 7f
        E 0 92 39 7f
        E 16 82 39 00
        E 0 b2 0b 7f
        E 0 92 38 7f
        E 16 82 38 00
        E 0 b2 0b 7f
        E 0 92 37 7f
        E 16 82 37 00
        E 0 b2 0b 7f
        E 0 92 36 7f
        E 16 82 36 00
        E 0 b2 0b 7f
        E 0 92 35 7f
        E 16 82 35 00
        E 0 b2 0b 7f
        E 0 92 34 7f
        E 16 82 34 00
        E 0 b2 0b 7f
        E 0 92 36 7f
        E 16 82 36 00
        E 0 b2 0b 7f
        E 0 92 35 7f
        E 16 82 35 00
        E 0 b2 0b 7f
        E 0 92 34 7f
        E 16 82 34 00
        E 0 b2 0b 7f
        E 0 92 33 7f
        E 16 82 33 00
        E 0 b2 0b 7f
        E 0 92 32 7f
        E 16 82 32 00
        E 0 b2 0b 7f
        E 0 92 31 7f
        E 16 82 31 00
        E 0 b2 0b 7f
        E 0 92 30 7f
        E 16 82 30 00
        E 0 b2 0b 7f
        E 0 92 2f 7f
        E 16 82 2f 00
        E 0 b2 0b 7f
        E 0 92 2e 7f
        E 16 82 2e 00
        E 0 b2 0b 7f
        E 0 92 2d 7f
        E 16 82 2d 00
        E 0 b2 0b 7f
        E 0 92 2c 7f
        E 16 82 2c 00
        E 16 b2 0b 7f
        E 0 92 26 7f
        E 768 82 26 00
        E 0 b2 0b 7f
        E 0 92 2b 7f
        E 192 82 2b 00
        E 96 b2 0b 7f
        E 0 92 2b 7f
        E 96 82 2b 00
        E 0 b2 0b 7f
        E 0 92 39 7f
        E 16 82 39 00
        E 0 b2 0b 7f
        E 0 92 38 7f
        E 16 82 38 00
        E 0 b2 0b 7f
        E 0 92 37 7f
        E 16 82 37 00
        E 0 b2 0b 7f
        E 0 92 36 7f
        E 16 82 36 00
        E 0 b2 0b 7f
        E 0 92 35 7f
        E 16 82 35 00
        E 0 b2 0b 7f
        E 0 92 34 7f
        E 16 82 34 00
        E 0 b2 0b 7f
        E 0 92 39 7f
        E 16 82 39 00
        E 0 b2 0b 7f
        E 0 92 38 7f
        E 16 82 38 00
        E 0 b2 0b 7f
        E 0 92 37 7f
        E 16 82 37 00
        E 0 b2 0b 7f
        E 0 92 36 7f
        E 16 82 36 00
        E 0 b2 0b 7f
        E 0 92 35 7f
        E 16 82 35 00
        E 0 b2 0b 7f
        E 0 92 34 7f
        E 16 82 34 00
        E 0 b2 0b 7f
        E 0 92 36 7f
        E 16 82 36 00
        E 0 b2 0b 7f
        E 0 92 35 7f
        E 16 82 35 00
        E 0 b2 0b 7f
        E 0 92 34 7f
        E 16 82 34 00
        E 0 b2 0b 7f
        E 0 92 33 7f
        E 16 82 33 00
        E 0 b2 0b 7f
        E 0 92 32 7f
        E 16 82 32 00
        E 0 b2 0b 7f
        E 0 92 31 7f
        E 16 82 31 00
        E 0 b2 0b 7f
        E 0 92 30 7f
        E 16 82 30 00
        E 0 b2 0b 7f
        E 0 92 2f 7f
        E 16 82 2f 00
        E 0 b2 0b 7f
        E 0 92 2e 7f
        E 16 82 2e 00
        E 0 b2 0b 7f
        E 0 92 2d 7f
        E 16 82 2d 00
        E 0 b2 0b 7f
        E 0 92 2c 7f
        E 16 82 2c 00
        E 16 b2 0b 7f
        E 0 92 2b 7f
        E 768 82 2b 00
        E 0 b2 0b 7f
        E 0 92 22 7f
        E 192 82 22 00
        E 96 b2 0b 7f
        E 0 92 22 7f
        E 96 82 22 00
        E 0 b2 0b 7f
        E 0 92 39 7f
        E 16 82 39 00
        E 0 b2 0b 7f
        E 0 92 38 7f
        E 16 82 38 00
        E 0 b2 0b 7f
        E 0 92 37 7f
        E 16 82 37 00
        E 0 b2 0b 7f
        E 0 92 36 7f
        E 16 82 36 00
        E 0 b2 0b 7f
        E 0 92 35 7f
        E 16 82 35 00
        E 0 b2 0b 7f
        E 0 92 34 7f
        E 16 82 34 00
        E 0 b2 0b 7f
        E 0 92 39 7f
        E 16 82 39 00
        E 0 b2 0b 7f
        E 0 92 38 7f
        E 16 82 38 00
        E 0 b2 0b 7f
        E 0 92 37 7f
        E 16 82 37 00
        E 0 b2 0b 7f
        E 0 92 36 7f
        E 16 82 36 00
        E 0 b2 0b 7f
        E 0 92 35 7f
        E 16 82 35 00
        E 0 b2 0b 7f
        E 0 92 34 7f
        E 16 82 34 00
        E 0 b2 0b 7f
        E 0 92 36 7f
        E 16 82 36 00
        E 0 b2 0b 7f
        E 0 92 35 7f
        E 16 82 35 00
        E 0 b2 0b 7f
        E 0 92 34 7f
        E 16 82 34 00
        E 0 b2 0b 7f
        E 0 92 33 7f
        E 16 82 33 00
        E 0 b2 0b 7f
        E 0 92 32 7f
        E 16 82 32 00
        E 0 b2 0b 7f
        E 0 92 31 7f
        E 16 82 31 00
        E 0 b2 0b 7f
        E 0 92 30 7f
        E 16 82 30 00
        E 0 b2 0b 7f
        E 0 92 2f 7f
        E 16 82 2f 00
        E 0 b2 0b 7f
        E 0 92 2e 7f
        E 16 82 2e 00
        E 0 b2 0b 7f
        E 0 92 2d 7f
        E 16 82 2d 00
        E 0 b2 0b 7f
        E 0 92 2c 7f
        E 16 82 2c 00
        E 16 b2 0b 7f
        E 0 92 24 7f
        E 192 82 24 00
        E 96 b2 0b 7f
        E 0 92 24 7f
        E 96 82 24 00
        E 0 b2 0b 7f
        E 0 92 39 7f
        E 16 82 39 00
        E 0 b2 0b 7f
        E 0 92 38 7f
        E 16 82 38 00
        E 0 b2 0b 7f
        E 0 92 37 7f
        E 16 82 37 00
        E 0 b2 0b 7f
        E 0 92 36 7f
        E 16 82 36 00
        E 0 b2 0b 7f
        E 0 92 35 7f
        E 16 82 35 00
        E 0 b2 0b 7f
        E 0 92 34 7f
        E 16 82 34 00
        E 0 b2 0b 7f
        E 0 92 39 7f
        E 16 82 39 00
        E 0 b2 0b 7f
        E 0 92 38 7f
        E 16 82 38 00
        E 0 b2 0b 7f
        E 0 92 37 7f
        E 16 82 37 00
        E 0 b2 0b 7f
        E 0 92 36 7f
        E 16 82 36 00
        E 0 b2 0b 7f
        E 0 92 35 7f
        E 16 82 35 00
        E 0 b2 0b 7f
        E 0 92 34 7f
        E 16 82 34 00
        E 0 b2 0b 7f
        E 0 92 36 7f
        E 16 82 36 00
        E 0 b2 0b 7f
        E 0 92 35 7f
        E 16 82 35 00
        E 0 b2 0b 7f
        E 0 92 34 7f
        E 16 82 34 00
        E 0 b2 0b 7f
        E 0 92 33 7f
        E 16 82 33 00
        E 0 b2 0b 7f
        E 0 92 32 7f
        E 16 82 32 00
        E 0 b2 0b 7f
        E 0 92 31 7f
        E 16 82 31 00
        E 0 b2 0b 7f
        E 0 92 30 7f
        E 16 82 30 00
        E 0 b2 0b 7f
        E 0 92 2f 7f
        E 16 82 2f 00
        E 0 b2 0b 7f
        E 0 92 2e 7f
        E 16 82 2e 00
        E 0 b2 0b 7f
        E 0 92 2d 7f
        E 16 82 2d 00
        E 0 b2 0b 7f
        E 0 92 2c 7f
        E 16 82 2c 00
        E 16 b2 0b 7f
        E 0 92 24 7f
        E 96 82 24 00
        E 0 b2 0b 7f
        E 0 92 26 7f
        E 480 82 26 00
        E 0 b2 0b 7f
        E 0 92 24 7f
        E 192 82 24 00
        E 0 b2 0b 7f
        E 0 92 26 7f
        E 384 82 26 00
        E 0 b2 0b 7f
        E 0 92 2d 7f
        E 384 82 2d 00
        E 0 b2 0b 7f
        E 0 92 26 7f
        E 192 82 26 00
        E 96 b2 0b 7f
        E 0 92 26 7f
        E 96 82 26 00
        E 0 b2 0b 7f
        E 0 92 39 7f
        E 16 82 39 00
        E 0 b2 0b 7f
        E 0 92 38 7f
        E 16 82 38 00
        E 0 b2 0b 7f
        E 0 92 37 7f
        E 16 82 37 00
        E 0 b2 0b 7f
        E 0 92 36 7f
        E 16 82 36 00
        E 0 b2 0b 7f
        E 0 92 35 7f
        E 16 82 35 00
        E 0 b2 0b 7f
        E 0 92 34 7f
        E 16 82 34 00
        E 0 b2 0b 7f
        E 0 92 39 7f
        E 16 82 39 00
        E 0 b2 0b 7f
        E 0 92 38 7f
        E 16 82 38 00
        E 0 b2 0b 7f
        E 0 92 37 7f
        E 16 82 37 00
        E 0 b2 0b 7f
        E 0 92 36 7f
        E 16 82 36 00
        E 0 b2 0b 7f
        E 0 92 35 7f
        E 16 82 35 00
        E 0 b2 0b 7f
        E 0 92 34 7f
        E 16 82 34 00
        E 0 b2 0b 7f
        E 0 92 36 7f
        E 16 82 36 00
        E 0 b2 0b 7f
        E 0 92 35 7f
        E 16 82 35 00
        E 0 b2 0b 7f
        E 0 92 34 7f
        E 16 82 34 00
        E 0 b2 0b 7f
        E 0 92 33 7f
        E 16 82 33 00
        E 0 b2 0b 7f
        E 0 92 32 7f
        E 16 82 32 00
        E 0 b2 0b 7f
        E 0 92 31 7f
        E 16 82 31 00
        E 0 b2 0b 7f
        E 0 92 30 7f
        E 16 82 30 00
        E 0 b2 0b 7f
        E 0 92 2f 7f
        E 16 82 2f 00
        E 0 b2 0b 7f
        E 0 92 2e 7f
        E 16 82 2e 00
        E 0 b2 0b 7f
        E 0 92 2d 7f
        E 16 82 2d 00
        E 0 b2 0b 7f
        E 0 92 2c 7f
        E 16 82 2c 00
        E 16 b2 0b 7f
        E 0 92 26 7f
        E 768 82 26 00
        E 0 b2 0b 7f
        E 0 92 2b 7f
        E 192 82 2b 00
        E 96 b2 0b 7f
        E 0 92 2b 7f
        E 96 82 2b 00
        E 0 b2 0b 7f
        E 0 92 39 7f
        E 16 82 39 00
        E 0 b2 0b 7f
        E 0 92 38 7f
        E 16 82 38 00
        E 0 b2 0b 7f
        E 0 92 37 7f
        E 16 82 37 00
        E 0 b2 0b 7f
        E 0 92 36 7f
        E 16 82 36 00
        E 0 b2 0b 7f
        E 0 92 35 7f
        E 16 82 35 00
        E 0 b2 0b 7f
        E 0 92 34 7f
        E 16 82 34 00
        E 0 b2 0b 7f
        E 0 92 39 7f
        E 16 82 39 00
        E 0 b2 0b 7f
        E 0 92 38 7f
        E 16 82 38 00
        E 0 b2 0b 7f
        E 0 92 37 7f
        E 16 82 37 00
        E 0 b2 0b 7f
        E 0 92 36 7f
        E 16 82 36 00
        E 0 b2 0b 7f
        E 0 92 35 7f
        E 16 82 35 00
        E 0 b2 0b 7f
        E 0 92 34 7f
        E 16 82 34 00
        E 0 b2 0b 7f
        E 0 92 36 7f
        E 16 82 36 00
        E 0 b2 0b 7f
        E 0 92 35 7f
        E 16 82 35 00
        E 0 b2 0b 7f
        E 0 92 34 7f
        E 16 82 34 00
        E 0 b2 0b 7f
        E 0 92 33 7f
        E 16 82 33 00
        E 0 b2 0b 7f
        E 0 92 32 7f
        E 16 82 32 00
        E 0 b2 0b 7f
        E 0 92 31 7f
        E 16 82 31 00
        E 0 b2 0b 7f
        E 0 92 30 7f
        E 16 82 30 00
        E 0 b2 0b 7f
        E 0 92 2f 7f
        E 16 82 2f 00
        E 0 b2 0b 7f
        E 0 92 2e 7f
        E 16 82 2e 00
        E 0 b2 0b 7f
        E 0 92 2d 7f
        E 16 82 2d 00
        E 0 b2 0b 7f
        E 0 92 2c 7f
        E 16 82 2c 00
        E 16 b2 0b 7f
        E 0 92 2b 7f
        E 768 82 2b 00
        E 0 b2 0b 7f
        E 0 92 22 7f
        E 192 82 22 00
        E 96 b2 0b 7f
        E 0 92 22 7f
        E 96 82 22 00
        E 0 b2 0b 7f
        E 0 92 39 7f
        E 16 82 39 00
        E 0 b2 0b 7f
        E 0 92 38 7f
        E 16 82 38 00
        E 0 b2 0b 7f
        E 0 92 37 7f
        E 16 82 37 00
        E 0 b2 0b 7f
        E 0 92 36 7f
        E 16 82 36 00
        E 0 b2 0b 7f
        E 0 92 35 7f
        E 16 82 35 00
        E 0 b2 0b 7f
        E 0 92 34 7f
        E 16 82 34 00
        E 0 b2 0b 7f
        E 0 92 39 7f
        E 16 82 39 00
        E 0 b2 0b 7f
        E 0 92 38 7f
        E 16 82 38 00
        E 0 b2 0b 7f
        E 0 92 37 7f
        E 16 82 37 00
        E 0 b2 0b 7f
        E 0 92 36 7f
        E 16 82 36 00
        E 0 b2 0b 7f
        E 0 92 35 7f
        E 16 82 35 00
        E 0 b2 0b 7f
        E 0 92 34 7f
        E 16 82 34 00
        E 0 b2 0b 7f
        E 0 92 36 7f
        E 16 82 36 00
        E 0 b2 0b 7f
        E 0 92 35 7f
        E 16 82 35 00
        E 0 b2 0b 7f
        E 0 92 34 7f
        E 16 82 34 00
        E 0 b2 0b 7f
        E 0 92 33 7f
        E 16 82 33 00
        E 0 b2 0b 7f
        E 0 92 32 7f
        E 16 82 32 00
        E 0 b2 0b 7f
        E 0 92 31 7f
        E 16 82 31 00
        E 0 b2 0b 7f
        E 0 92 30 7f
        E 16 82 30 00
        E 0 b2 0b 7f
        E 0 92 2f 7f
        E 16 82 2f 00
        E 0 b2 0b 7f
        E 0 92 2e 7f
        E 16 82 2e 00
        E 0 b2 0b 7f
        E 0 92 2d 7f
        E 16 82 2d 00
        E 0 b2 0b 7f
        E 0 92 2c 7f
        E 16 82 2c 00
        E 16 b2 0b 7f
        E 0 92 24 7f
        E 192 82 24 00
        E 96 b2 0b 7f
        E 0 92 24 7f
        E 96 82 24 00
        E 0 b2 0b 7f
        E 0 92 39 7f
        E 16 82 39 00
        E 0 b2 0b 7f
        E 0 92 38 7f
        E 16 82 38 00
        E 0 b2 0b 7f
        E 0 92 37 7f
        E 16 82 37 00
        E 0 b2 0b 7f
        E 0 92 36 7f
        E 16 82 36 00
        E 0 b2 0b 7f
        E 0 92 35 7f
        E 16 82 35 00
        E 0 b2 0b 7f
        E 0 92 34 7f
        E 16 82 34 00
        E 0 b2 0b 7f
        E 0 92 39 7f
        E 16 82 39 00
        E 0 b2 0b 7f
        E 0 92 38 7f
        E 16 82 38 00
        E 0 b2 0b 7f
        E 0 92 37 7f
        E 16 82 37 00
        E 0 b2 0b 7f
        E 0 92 36 7f
        E 16 82 36 00
        E 0 b2 0b 7f
        E 0 92 35 7f
        E 16 82 35 00
        E 0 b2 0b 7f
        E 0 92 34 7f
        E 16 82 34 00
        E 0 b2 0b 7f
        E 0 92 36 7f
        E 16 82 36 00
        E 0 b2 0b 7f
        E 0 92 35 7f
        E 16 82 35 00
        E 0 b2 0b 7f
        E 0 92 34 7f
        E 16 82 34 00
        E 0 b2 0b 7f
        E 0 92 33 7f
        E 16 82 33 00
        E 0 b2 0b 7f
        E 0 92 32 7f
        E 16 82 32 00
        E 0 b2 0b 7f
        E 0 92 31 7f
        E 16 82 31 00
        E 0 b2 0b 7f
        E 0 92 30 7f
        E 16 82 30 00
        E 0 b2 0b 7f
        E 0 92 2f 7f
        E 16 82 2f 00
        E 0 b2 0b 7f
        E 0 92 2e 7f
        E 16 82 2e 00
        E 0 b2 0b 7f
        E 0 92 2d 7f
        E 16 82 2d 00
        E 0 b2 0b 7f
        E 0 92 2c 7f
        E 16 82 2c 00
        E 16 b2 0b 7f
        E 0 92 24 7f
        E 96 82 24 00
        E 0 b2 0b 7f
        E 0 92 26 7f
        E 480 82 26 00
        E 0 b2 0b 7f
        E 0 92 24 7f
        E 192 82 24 00
        E 0 b2 0b 7f
        E 0 92 26 7f
        E 480 82 26 00
        E 0 b2 0b 7f
        E 0 92 24 7f
        E 96 82 24 00
        E 0 b2 0b 7f
        E 0 92 22 7f
        E 96 82 22 00
        E 0 b2 0b 7f
        E 0 92 21 7f
        E 96 82 21 00
        E 0 b2 0b 7f
        E 0 92 22 7f
        E 1536 82 22 00
        E 0 b2 0b 7f
        E 0 92 24 7f
        E 1536 82 24 00
        E 0 b2 0b 7f
        E 0 92 26 7f
        E 768 82 26 00
        E 0 b2 0b 7f
        E 0 92 28 7f
        E 768 82 28 00
        E 0 b2 0b 7f
        E 0 92 29 7f
        E 768 82 29 00
        E 0 b2 0b 7f
        E 0 92 2a 7f
        E 768 82 2a 00
        E 0 b2 0b 7f
        E 0 92 22 7f
        E 1536 82 22 00
        E 0 b2 0b 7f
        E 0 92 24 7f
        E 1536 82 24 00
        E 0 b2 0b 7f
        E 0 92 26 7f
        E 384 82 26 00
        E 0 b2 0b 7f
        E 0 92 27 7f
        E 32 82 27 00
        E 0 b2 0b 7f
        E 0 92 28 7f
        E 32 82 28 00
        E 0 b2 0b 7f
        E 0 92 29 7f
        E 32 82 29 00
        E 0 b2 0b 7f
        E 0 92 2a 7f
        E 32 82 2a 00
        E 0 b2 0b 7f
        E 0 92 2b 7f
        E 32 82 2b 00
        E 0 b2 0b 7f
        E 0 92 2c 7f
        E 32 82 2c 00
        E 0 b2 0b 7f
        E 0 92 2d 7f
        E 32 82 2d 00
        E 0 b2 0b 7f
        E 0 92 2e 7f
        E 32 82 2e 00
        E 0 b2 0b 7f
        E 0 92 2f 7f
        E 32 82 2f 00
        E 0 b2 0b 7f
        E 0 92 30 7f
        E 32 82 30 00
        E 0 b2 0b 7f
        E 0 92 31 7f
        E 32 82 31 00
        E 0 b2 0b 7f
        E 0 92 32 7f
        E 800 82 32 00
        E 0 b2 0b 7f
        E 0 92 24 7f
        E 192 82 24 00
        E 96 b2 0b 7f
        E 0 92 24 7f
        E 288 82 24 00
        E 0 b2 0b 7f
        E 0 92 26 7f
        E 192 82 26 00
        E 11456 b2 0b 7f
        E 0 92 26 7f
        E 192 82 26 00
        E 1344 b2 0b 7f
        E 0 92 3b 7f
        E 16 82 3b 00
        E 0 b2 0b 7f
        E 0 92 39 7f
        E 16 82 39 00
        E 0 b2 0b 7f
        E 0 92 38 7f
        E 16 82 38 00
        E 0 b2 0b 7f
        E 0 92 36 7f
        E 16 82 36 00
        E 0 b2 0b 7f
        E 0 92 34 7f
        E 16 82 34 00
        E 0 b2 0b 7f
        E 0 92 33 7f
        E 16 82 33 00
        E 0 b2 0b 7f
        E 0 92 3b 7f
        E 16 82 3b 00
        E 0 b2 0b 7f
        E 0 92 39 7f
        E 16 82 39 00
        E 0 b2 0b 7f
        E 0 92 38 7f
        E 16 82 38 00
        E 0 b2 0b 7f
        E 0 92 36 7f
        E 16 82 36 00
        E 0 b2 0b 7f
        E 0 92 34 7f
        E 16 82 34 00
        E 0 b2 0b 7f
        E 0 92 33 7f
        E 16 82 33 00
        E 0 b2 0b 7f
        E 0 92 38 7f
        E 16 82 38 00
        E 0 b2 0b 7f
        E 0 92 36 7f
        E 16 82 36 00
        E 0 b2 0b 7f
        E 0 92 34 7f
        E 16 82 34 00
        E 0 b2 0b 7f
        E 0 92 33 7f
        E 16 82 33 00
        E 0 b2 0b 7f
        E 0 92 31 7f
        E 16 82 31 00
        E 0 b2 0b 7f
        E 0 92 2f 7f
        E 16 82 2f 00
        E 96 b2 0b 7f
        E 0 92 38 7f
        E 16 82 38 00
        E 0 b2 0b 7f
        E 0 92 36 7f
        E 16 82 36 00
        E 0 b2 0b 7f
        E 0 92 34 7f
        E 16 82 34 00
        E 0 b2 0b 7f
        E 0 92 33 7f
        E 16 82 33 00
        E 0 b2 0b 7f
        E 0 92 31 7f
        E 16 82 31 00
        E 0 b2 0b 7f
        E 0 92 2f 7f
        E 16 82 2f 00
        E 96 b2 0b 7f
        E 0 92 34 7f
        E 16 82 34 00
        E 0 b2 0b 7f
        E 0 92 32 7f
        E 16 82 32 00
        E 0 b2 0b 7f
        E 0 92 31 7f
        E 16 82 31 00
        E 0 b2 0b 7f
        E 0 92 2f 7f
        E 16 82 2f 00
        E 0 b2 0b 7f
        E 0 92 2d 7f
        E 16 82 2d 00
        E 0 b2 0b 7f
        E 0 92 2c 7f
        E 16 82 2c 00
        E 0 b2 0b 7f
        E 0 92 34 7f
        E 16 82 34 00
        E 0 b2 0b 7f
        E 0 92 32 7f
        E 16 82 32 00
        E 0 b2 0b 7f
        E 0 92 31 7f
        E 16 82 31 00
        E 0 b2 0b 7f
        E 0 92 2f 7f
        E 16 82 2f 00
        E 0 b2 0b 7f
        E 0 92 2d 7f
        E 16 82 2d 00
        E 0 b2 0b 7f
        E 0 92 2c 7f
        E 16 82 2c 00
        E 192 b2 0b 7f
        E 0 92 22 7f
        E 192 82 22 00
        E 0 b2 0b 7f
        E 0 92 24 7f
        E 384 82 24 00
        E 0 b2 0b 7f
        E 0 92 26 7f
        E 384 82 26 00
        E 1152 b2 0b 7f
        E 0 92 29 7f
        E 768 82 29 00
        E 0 b2 0b 7f
        E 0 92 28 7f
        E 768 82 28 00
        E 0 b2 0b 7f
        E 0 92 26 7f
        E 192 82 26 00
        E 1344 b2 0b 7f
        E 0 92 3b 7f
        E 16 82 3b 00
        E 0 b2 0b 7f
        E 0 92 39 7f
        E 16 82 39 00
        E 0 b2 0b 7f
        E 0 92 38 7f
        E 16 82 38 00
        E 0 b2 0b 7f
        E 0 92 36 7f
        E 16 82 36 00
        E 0 b2 0b 7f
        E 0 92 34 7f
        E 16 82 34 00
        E 0 b2 0b 7f
        E 0 92 33 7f
        E 16 82 33 00
        E 0 b2 0b 7f
        E 0 92 3b 7f
        E 16 82 3b 00
        E 0 b2 0b 7f
        E 0 92 39 7f
        E 16 82 39 00
        E 0 b2 0b 7f
        E 0 92 38 7f
        E 16 82 38 00
        E 0 b2 0b 7f
        E 0 92 36 7f
        E 16 82 36 00
        E 0 b2 0b 7f
        E 0 92 34 7f
        E 16 82 34 00
        E 0 b2 0b 7f
        E 0 92 33 7f
        E 16 82 33 00
        E 0 b2 0b 7f
        E 0 92 38 7f
        E 16 82 38 00
        E 0 b2 0b 7f
        E 0 92 36 7f
        E 16 82 36 00
        E 0 b2 0b 7f
        E 0 92 34 7f
        E 16 82 34 00
        E 0 b2 0b 7f
        E 0 92 33 7f
        E 16 82 33 00
        E 0 b2 0b 7f
        E 0 92 31 7f
        E 16 82 31 00
        E 0 b2 0b 7f
        E 0 92 2f 7f
        E 16 82 2f 00
        E 96 b2 0b 7f
        E 0 92 38 7f
        E 16 82 38 00
        E 0 b2 0b 7f
        E 0 92 36 7f
        E 16 82 36 00
        E 0 b2 0b 7f
        E 0 92 34 7f
        E 16 82 34 00
        E 0 b2 0b 7f
        E 0 92 33 7f
        E 16 82 33 00
        E 0 b2 0b 7f
        E 0 92 31 7f
        E 16 82 31 00
        E 0 b2 0b 7f
        E 0 92 2f 7f
        E 16 82 2f 00
        E 96 b2 0b 7f
        E 0 92 34 7f
        E 16 82 34 00
        E 0 b2 0b 7f
        E 0 92 32 7f
        E 16 82 32 00
        E 0 b2 0b 7f
        E 0 92 31 7f
        E 16 82 31 00
        E 0 b2 0b 7f
        E 0 92 2f 7f
        E 16 82 2f 00
        E 0 b2 0b 7f
        E 0 92 2d 7f
        E 16 82 2d 00
        E 0 b2 0b 7f
        E 0 92 2c 7f
        E 16 82 2c 00
        E 0 b2 0b 7f
        E 0 92 34 7f
        E 16 82 34 00
        E 0 b2 0b 7f
        E 0 92 32 7f
        E 16 82 32 00
        E 0 b2 0b 7f
        E 0 92 31 7f
        E 16 82 31 00
        E 0 b2 0b 7f
        E 0 92 2f 7f
        E 16 82 2f 00
        E 0 b2 0b 7f
        E 0 92 2d 7f
        E 16 82 2d 00
        E 0 b2 0b 7f
        E 0 92 2c 7f
        E 16 82 2c 00
        E 192 b2 0b 7f
        E 0 92 22 7f
        E 192 82 22 00
        E 0 b2 0b 7f
        E 0 92 26 7f
        E 384 82 26 00
        E 0 b2 0b 7f
        E 0 92 24 7f
        E 1536 82 24 00
        E 0 b2 0b 7f
        E 0 92 2d 7f
        E 1248 82 2d 00
        E 0 b2 0b 7f
        E 0 92 2b 7f
        E 96 82 2b 00
        E 0 b2 0b 7f
        E 0 92 29 7f
        E 96 82 29 00
        E 0 b2 0b 7f
        E 0 92 28 7f
        E 96 82 28 00
        E 0 b2 0b 7f
        E 0 92 26 7f
        E 32 82 26 00
        E 0 b2 0b 7f
        E 0 92 25 7f
        E 32 82 25 00
        E 0 b2 0b 7f
        E 0 92 24 7f
        E 32 82 24 00
        E 0 b2 0b 7f
        E 0 92 23 7f
        E 32 82 23 00
        E 0 b2 0b 7f
        E 0 92 21 7f
        E 32 82 21 00
        E 0 b2 0b 7f
        E 0 92 20 7f
        E 32 82 20 00
        E 0 b2 0b 7f
        E 0 92 1f 7f
        E 32 82 1f 00
        E 0 b2 0b 7f
        E 0 92 1e 7f
        E 32 82 1e 00
        E 0 b2 0b 7f
        E 0 92 1d 7f
        E 32 82 1d 00
        E 0 b2 0b 7f
        E 0 92 1c 7f
        E 32 82 1c 00
        E 0 b2 0b 7f
        E 0 92 1b 7f
        E 32 82 1b 00
        E 0 b2 0b 7f
        E 0 92 1a 7f
        E 32 82 1a 00
        E 1280 b2 7b 00
        E 0 ff 2f 00
      >
    >
  >
  <TRACK {10C89B3C-CE65-44D5-8A54-9863B331A9CE}
    NAME "NES - Noise / Drums [ch3]"
    PEAKCOL 11184810
    BEAT -1
    AUTOMODE 0
    PANLAWFLAGS 3
    VOLPAN 1 0 -1 -1 1
    MUTESOLO 0 0 0
    IPHASE 0
    PLAYOFFS 0 1
    ISBUS 0 0
    BUSCOMP 0 0 0 0 0
    SHOWINMIX 1 0.6667 0.5 1 0.5 0 0 0
    FIXEDLANES 9 0 0 0 0
    SEL 0
    REC 0 5088 1 0 0 0 0 0
    VU 2
    TRACKHEIGHT 0 0 0 0 0 0 0
    INQ 0 0 0 0.5 100 0 0 100
    NCHAN 2
    FX 1
    TRACKID {10C89B3C-CE65-44D5-8A54-9863B331A9CE}
    PERF 0
    MIDIOUT -1
    MAINSEND 1 0
    <FXCHAIN
      WNDRECT 24 52 700 560
      SHOW 0
      LASTSEL 0
      DOCKED 0
      BYPASS 0 0 0
      <JS "ReapNES Studio/ReapNES_Console.jsfx" ""
        2 15 1 10 80 10 100 2 1 15 1 5 60 10 80 1 1 0 50 0 0 15 1 0 100 0 0 0.500000 0.500000 0.400000 0.300000 0.800000 3 1 0 0 0 0 - - - - - - - - - - - - - - - - - - - - - - - - - -
      >
      FLOATPOS 0 0 0 0
      FXID {078BD6CD-DC63-4D3E-8384-88F351EE72A4}
      WAK 0 0
    >
    <ITEM
      POSITION 0
      LENGTH 72.1461919
      LOOP 0
      ALLTAKES 0
      FADEIN 0 0 0 0 0 0 0
      FADEOUT 0 0 0 0 0 0 0
      MUTE 0 0
      SEL 0
      IGUID {69998225-D1B3-4ABB-A922-7B74F3676AF4}
      <SOURCE MIDI
        HASDATA 1 480 QN
        CCINTERP 32
        E 560 93 2a 7f
        E 16 83 2a 00
        E 0 93 2a 7f
        E 16 83 2a 00
        E 0 93 2a 7f
        E 16 83 2a 00
        E 0 93 2a 7f
        E 16 83 2a 00
        E 0 93 2a 7f
        E 16 83 2a 00
        E 0 93 2a 7f
        E 16 83 2a 00
        E 0 93 2a 7f
        E 16 83 2a 00
        E 0 93 2a 7f
        E 16 83 2a 00
        E 16 93 2a 7f
        E 528 83 2a 00
        E 8416 93 2a 66
        E 16 83 2a 00
        E 0 93 2a 66
        E 32 83 2a 00
        E 0 93 2a 2a
        E 256 83 2a 00
        E 80 93 2a 55
        E 16 83 2a 00
        E 0 93 2a 33
        E 16 83 2a 00
        E 0 93 2a 19
        E 16 83 2a 00
        E 336 93 2a 55
        E 16 83 2a 00
        E 0 93 2a 33
        E 16 83 2a 00
        E 0 93 2a 19
        E 16 83 2a 00
        E 336 93 2a 55
        E 16 83 2a 00
        E 0 93 2a 33
        E 16 83 2a 00
        E 0 93 2a 19
        E 16 83 2a 00
        E 336 93 2a 55
        E 16 83 2a 00
        E 0 93 2a 33
        E 16 83 2a 00
        E 0 93 2a 19
        E 16 83 2a 00
        E 336 93 2a 55
        E 16 83 2a 00
        E 0 93 2a 33
        E 16 83 2a 00
        E 0 93 2a 19
        E 16 83 2a 00
        E 336 93 2a 55
        E 16 83 2a 00
        E 0 93 2a 33
        E 16 83 2a 00
        E 0 93 2a 19
        E 16 83 2a 00
        E 144 93 2a 55
        E 16 83 2a 00
        E 0 93 2a 55
        E 32 83 2a 00
        E 0 93 2a 2a
        E 144 83 2a 00
        E 0 93 2a 55
        E 16 83 2a 00
        E 0 93 2a 55
        E 32 83 2a 00
        E 0 93 2a 2a
        E 256 83 2a 00
        E 80 93 2a 55
        E 16 83 2a 00
        E 0 93 2a 55
        E 32 83 2a 00
        E 0 93 2a 2a
        E 144 83 2a 00
        E 0 93 2a 55
        E 16 83 2a 00
        E 0 93 2a 55
        E 32 83 2a 00
        E 0 93 2a 2a
        E 144 83 2a 00
        E 0 93 2a 55
        E 16 83 2a 00
        E 0 93 2a 33
        E 16 83 2a 00
        E 0 93 2a 19
        E 16 83 2a 00
        E 336 93 2a 55
        E 16 83 2a 00
        E 0 93 2a 33
        E 16 83 2a 00
        E 0 93 2a 19
        E 16 83 2a 00
        E 336 93 2a 55
        E 16 83 2a 00
        E 0 93 2a 33
        E 16 83 2a 00
        E 0 93 2a 19
        E 16 83 2a 00
        E 336 93 2a 55
        E 16 83 2a 00
        E 0 93 2a 33
        E 16 83 2a 00
        E 0 93 2a 19
        E 16 83 2a 00
        E 144 93 2a 55
        E 16 83 2a 00
        E 0 93 2a 33
        E 16 83 2a 00
        E 0 93 2a 19
        E 16 83 2a 00
        E 144 93 2a 55
        E 16 83 2a 00
        E 0 93 2a 33
        E 16 83 2a 00
        E 0 93 2a 19
        E 16 83 2a 00
        E 144 93 2a 55
        E 16 83 2a 00
        E 0 93 2a 33
        E 16 83 2a 00
        E 0 93 2a 19
        E 16 83 2a 00
        E 144 93 2a 55
        E 16 83 2a 00
        E 0 93 2a 33
        E 16 83 2a 00
        E 0 93 2a 19
        E 16 83 2a 00
        E 144 93 2a 55
        E 16 83 2a 00
        E 0 93 2a 33
        E 16 83 2a 00
        E 0 93 2a 19
        E 16 83 2a 00
        E 144 93 2a 55
        E 16 83 2a 00
        E 0 93 2a 55
        E 32 83 2a 00
        E 0 93 2a 2a
        E 48 83 2a 00
        E 0 93 2a 55
        E 16 83 2a 00
        E 0 93 2a 55
        E 32 83 2a 00
        E 0 93 2a 2a
        E 48 83 2a 00
        E 0 93 2a 55
        E 16 83 2a 00
        E 0 93 2a 55
        E 32 83 2a 00
        E 0 93 2a 2a
        E 144 83 2a 00
        E 0 93 2a 66
        E 16 83 2a 00
        E 0 93 2a 66
        E 32 83 2a 00
        E 0 93 2a 2a
        E 256 83 2a 00
        E 80 93 2a 55
        E 16 83 2a 00
        E 0 93 2a 33
        E 16 83 2a 00
        E 0 93 2a 19
        E 16 83 2a 00
        E 336 93 2a 55
        E 16 83 2a 00
        E 0 93 2a 33
        E 16 83 2a 00
        E 0 93 2a 19
        E 16 83 2a 00
        E 336 93 2a 55
        E 16 83 2a 00
        E 0 93 2a 33
        E 16 83 2a 00
        E 0 93 2a 19
        E 16 83 2a 00
        E 336 93 2a 55
        E 16 83 2a 00
        E 0 93 2a 33
        E 16 83 2a 00
        E 0 93 2a 19
        E 16 83 2a 00
        E 336 93 2a 55
        E 16 83 2a 00
        E 0 93 2a 33
        E 16 83 2a 00
        E 0 93 2a 19
        E 16 83 2a 00
        E 336 93 2a 55
        E 16 83 2a 00
        E 0 93 2a 33
        E 16 83 2a 00
        E 0 93 2a 19
        E 16 83 2a 00
        E 144 93 2a 55
        E 16 83 2a 00
        E 0 93 2a 55
        E 32 83 2a 00
        E 0 93 2a 2a
        E 144 83 2a 00
        E 0 93 2a 55
        E 16 83 2a 00
        E 0 93 2a 55
        E 32 83 2a 00
        E 0 93 2a 2a
        E 256 83 2a 00
        E 80 93 2a 7f
        E 16 83 2a 00
        E 0 93 2a 55
        E 16 83 2a 00
        E 0 93 2a 19
        E 32 83 2a 00
        E 32 93 2a 55
        E 16 83 2a 00
        E 0 93 2a 33
        E 16 83 2a 00
        E 0 93 2a 19
        E 16 83 2a 00
        E 48 93 2a 6e
        E 16 83 2a 00
        E 0 93 2a 4c
        E 16 83 2a 00
        E 0 93 2a 22
        E 16 83 2a 00
        E 48 93 2a 55
        E 16 83 2a 00
        E 0 93 2a 33
        E 16 83 2a 00
        E 0 93 2a 19
        E 16 83 2a 00
        E 48 93 2a 66
        E 16 83 2a 00
        E 0 93 2a 66
        E 32 83 2a 00
        E 0 93 2a 2a
        E 144 83 2a 00
        E 0 93 2a 6e
        E 16 83 2a 00
        E 0 93 2a 4c
        E 16 83 2a 00
        E 0 93 2a 22
        E 16 83 2a 00
        E 48 93 2a 55
        E 16 83 2a 00
        E 0 93 2a 33
        E 16 83 2a 00
        E 0 93 2a 19
        E 16 83 2a 00
        E 48 93 2a 7f
        E 16 83 2a 00
        E 0 93 2a 55
        E 16 83 2a 00
        E 0 93 2a 19
        E 32 83 2a 00
        E 32 93 2a 55
        E 16 83 2a 00
        E 0 93 2a 33
        E 16 83 2a 00
        E 0 93 2a 19
        E 16 83 2a 00
        E 48 93 2a 6e
        E 16 83 2a 00
        E 0 93 2a 4c
        E 16 83 2a 00
        E 0 93 2a 22
        E 16 83 2a 00
        E 48 93 2a 55
        E 16 83 2a 00
        E 0 93 2a 33
        E 16 83 2a 00
        E 0 93 2a 19
        E 16 83 2a 00
        E 48 93 2a 66
        E 16 83 2a 00
        E 0 93 2a 66
        E 32 83 2a 00
        E 0 93 2a 2a
        E 144 83 2a 00
        E 0 93 2a 6e
        E 16 83 2a 00
        E 0 93 2a 4c
        E 16 83 2a 00
        E 0 93 2a 22
        E 16 83 2a 00
        E 48 93 2a 55
        E 16 83 2a 00
        E 0 93 2a 33
        E 16 83 2a 00
        E 0 93 2a 19
        E 16 83 2a 00
        E 48 93 2a 7f
        E 16 83 2a 00
        E 0 93 2a 55
        E 16 83 2a 00
        E 0 93 2a 19
        E 32 83 2a 00
        E 32 93 2a 55
        E 16 83 2a 00
        E 0 93 2a 33
        E 16 83 2a 00
        E 0 93 2a 19
        E 16 83 2a 00
        E 48 93 2a 6e
        E 16 83 2a 00
        E 0 93 2a 4c
        E 16 83 2a 00
        E 0 93 2a 22
        E 16 83 2a 00
        E 48 93 2a 55
        E 16 83 2a 00
        E 0 93 2a 33
        E 16 83 2a 00
        E 0 93 2a 19
        E 16 83 2a 00
        E 48 93 2a 66
        E 16 83 2a 00
        E 0 93 2a 66
        E 32 83 2a 00
        E 0 93 2a 2a
        E 144 83 2a 00
        E 0 93 2a 6e
        E 16 83 2a 00
        E 0 93 2a 4c
        E 16 83 2a 00
        E 0 93 2a 22
        E 16 83 2a 00
        E 48 93 2a 55
        E 16 83 2a 00
        E 0 93 2a 33
        E 16 83 2a 00
        E 0 93 2a 19
        E 16 83 2a 00
        E 48 93 2a 7f
        E 16 83 2a 00
        E 0 93 2a 55
        E 16 83 2a 00
        E 0 93 2a 19
        E 32 83 2a 00
        E 32 93 2a 55
        E 16 83 2a 00
        E 0 93 2a 33
        E 16 83 2a 00
        E 0 93 2a 19
        E 16 83 2a 00
        E 48 93 2a 6e
        E 16 83 2a 00
        E 0 93 2a 4c
        E 16 83 2a 00
        E 0 93 2a 22
        E 16 83 2a 00
        E 48 93 2a 55
        E 16 83 2a 00
        E 0 93 2a 33
        E 16 83 2a 00
        E 0 93 2a 19
        E 16 83 2a 00
        E 48 93 2a 55
        E 16 83 2a 00
        E 0 93 2a 55
        E 32 83 2a 00
        E 0 93 2a 2a
        E 48 83 2a 00
        E 0 93 2a 55
        E 16 83 2a 00
        E 0 93 2a 55
        E 32 83 2a 00
        E 0 93 2a 2a
        E 48 83 2a 00
        E 0 93 2a 66
        E 16 83 2a 00
        E 0 93 2a 66
        E 32 83 2a 00
        E 0 93 2a 2a
        E 48 83 2a 00
        E 0 93 2a 77
        E 16 83 2a 00
        E 0 93 2a 77
        E 32 83 2a 00
        E 0 93 2a 2a
        E 48 83 2a 00
        E 0 93 2a 55
        E 16 83 2a 00
        E 0 93 2a 33
        E 16 83 2a 00
        E 0 93 2a 19
        E 16 83 2a 00
        E 336 93 2a 55
        E 16 83 2a 00
        E 0 93 2a 33
        E 16 83 2a 00
        E 0 93 2a 19
        E 16 83 2a 00
        E 336 93 2a 55
        E 16 83 2a 00
        E 0 93 2a 33
        E 16 83 2a 00
        E 0 93 2a 19
        E 16 83 2a 00
        E 336 93 2a 55
        E 16 83 2a 00
        E 0 93 2a 33
        E 16 83 2a 00
        E 0 93 2a 19
        E 16 83 2a 00
        E 336 93 2a 55
        E 16 83 2a 00
        E 0 93 2a 33
        E 16 83 2a 00
        E 0 93 2a 19
        E 16 83 2a 00
        E 336 93 2a 55
        E 16 83 2a 00
        E 0 93 2a 33
        E 16 83 2a 00
        E 0 93 2a 19
        E 16 83 2a 00
        E 336 93 2a 55
        E 16 83 2a 00
        E 0 93 2a 33
        E 16 83 2a 00
        E 0 93 2a 19
        E 16 83 2a 00
        E 144 93 2a 55
        E 16 83 2a 00
        E 0 93 2a 33
        E 16 83 2a 00
        E 0 93 2a 19
        E 16 83 2a 00
        E 144 93 2a 55
        E 16 83 2a 00
        E 0 93 2a 55
        E 32 83 2a 00
        E 0 93 2a 2a
        E 48 83 2a 00
        E 0 93 2a 55
        E 16 83 2a 00
        E 0 93 2a 55
        E 32 83 2a 00
        E 0 93 2a 2a
        E 48 83 2a 00
        E 0 93 2a 66
        E 16 83 2a 00
        E 0 93 2a 66
        E 32 83 2a 00
        E 0 93 2a 2a
        E 48 83 2a 00
        E 0 93 2a 77
        E 16 83 2a 00
        E 0 93 2a 77
        E 32 83 2a 00
        E 0 93 2a 2a
        E 48 83 2a 00
        E 0 93 2a 55
        E 16 83 2a 00
        E 0 93 2a 55
        E 32 83 2a 00
        E 0 93 2a 2a
        E 240 83 2a 00
        E 0 93 2a 55
        E 16 83 2a 00
        E 0 93 2a 55
        E 32 83 2a 00
        E 0 93 2a 2a
        E 48 83 2a 00
        E 0 93 2a 55
        E 16 83 2a 00
        E 0 93 2a 33
        E 16 83 2a 00
        E 0 93 2a 19
        E 16 83 2a 00
        E 48 93 2a 55
        E 16 83 2a 00
        E 0 93 2a 33
        E 16 83 2a 00
        E 0 93 2a 19
        E 16 83 2a 00
        E 48 93 2a 55
        E 16 83 2a 00
        E 0 93 2a 33
        E 16 83 2a 00
        E 0 93 2a 19
        E 16 83 2a 00
        E 48 93 2a 55
        E 16 83 2a 00
        E 0 93 2a 33
        E 16 83 2a 00
        E 0 93 2a 19
        E 16 83 2a 00
        E 48 93 2a 55
        E 16 83 2a 00
        E 0 93 2a 33
        E 16 83 2a 00
        E 0 93 2a 19
        E 16 83 2a 00
        E 48 93 2a 55
        E 16 83 2a 00
        E 0 93 2a 33
        E 16 83 2a 00
        E 0 93 2a 19
        E 16 83 2a 00
        E 48 93 2a 5d
        E 16 83 2a 00
        E 0 93 2a 55
        E 16 83 2a 00
        E 0 93 2a 55
        E 160 83 2a 00
        E 0 93 2a 55
        E 16 83 2a 00
        E 0 93 2a 33
        E 16 83 2a 00
        E 0 93 2a 19
        E 16 83 2a 00
        E 48 93 2a 55
        E 16 83 2a 00
        E 0 93 2a 33
        E 16 83 2a 00
        E 0 93 2a 19
        E 16 83 2a 00
        E 48 93 2a 5d
        E 16 83 2a 00
        E 0 93 2a 55
        E 16 83 2a 00
        E 0 93 2a 55
        E 160 83 2a 00
        E 0 93 2a 55
        E 16 83 2a 00
        E 0 93 2a 55
        E 32 83 2a 00
        E 0 93 2a 2a
        E 240 83 2a 00
        E 0 93 2a 55
        E 16 83 2a 00
        E 0 93 2a 55
        E 32 83 2a 00
        E 0 93 2a 2a
        E 48 83 2a 00
        E 0 93 2a 55
        E 16 83 2a 00
        E 0 93 2a 33
        E 16 83 2a 00
        E 0 93 2a 19
        E 16 83 2a 00
        E 48 93 2a 55
        E 16 83 2a 00
        E 0 93 2a 33
        E 16 83 2a 00
        E 0 93 2a 19
        E 16 83 2a 00
        E 48 93 2a 55
        E 16 83 2a 00
        E 0 93 2a 33
        E 16 83 2a 00
        E 0 93 2a 19
        E 16 83 2a 00
        E 48 93 2a 55
        E 16 83 2a 00
        E 0 93 2a 33
        E 16 83 2a 00
        E 0 93 2a 19
        E 16 83 2a 00
        E 48 93 2a 55
        E 16 83 2a 00
        E 0 93 2a 33
        E 16 83 2a 00
        E 0 93 2a 19
        E 16 83 2a 00
        E 48 93 2a 55
        E 16 83 2a 00
        E 0 93 2a 33
        E 16 83 2a 00
        E 0 93 2a 19
        E 16 83 2a 00
        E 48 93 2a 5d
        E 16 83 2a 00
        E 0 93 2a 55
        E 16 83 2a 00
        E 0 93 2a 55
        E 160 83 2a 00
        E 0 93 2a 55
        E 16 83 2a 00
        E 0 93 2a 33
        E 16 83 2a 00
        E 0 93 2a 19
        E 16 83 2a 00
        E 48 93 2a 55
        E 16 83 2a 00
        E 0 93 2a 33
        E 16 83 2a 00
        E 0 93 2a 19
        E 16 83 2a 00
        E 48 93 2a 5d
        E 16 83 2a 00
        E 0 93 2a 55
        E 16 83 2a 00
        E 0 93 2a 55
        E 160 83 2a 00
        E 0 93 2a 55
        E 16 83 2a 00
        E 0 93 2a 55
        E 32 83 2a 00
        E 0 93 2a 2a
        E 240 83 2a 00
        E 0 93 2a 55
        E 16 83 2a 00
        E 0 93 2a 55
        E 32 83 2a 00
        E 0 93 2a 2a
        E 48 83 2a 00
        E 0 93 2a 7f
        E 16 83 2a 00
        E 0 93 2a 55
        E 16 83 2a 00
        E 0 93 2a 19
        E 32 83 2a 00
        E 32 93 2a 55
        E 16 83 2a 00
        E 0 93 2a 33
        E 16 83 2a 00
        E 0 93 2a 19
        E 16 83 2a 00
        E 48 93 2a 55
        E 16 83 2a 00
        E 0 93 2a 33
        E 16 83 2a 00
        E 0 93 2a 19
        E 16 83 2a 00
        E 48 93 2a 55
        E 16 83 2a 00
        E 0 93 2a 33
        E 16 83 2a 00
        E 0 93 2a 19
        E 16 83 2a 00
        E 48 93 2a 55
        E 16 83 2a 00
        E 0 93 2a 55
        E 32 83 2a 00
        E 0 93 2a 2a
        E 240 83 2a 00
        E 0 93 2a 55
        E 16 83 2a 00
        E 0 93 2a 55
        E 32 83 2a 00
        E 0 93 2a 2a
        E 48 83 2a 00
        E 0 93 2a 7f
        E 16 83 2a 00
        E 0 93 2a 55
        E 16 83 2a 00
        E 0 93 2a 19
        E 32 83 2a 00
        E 32 93 2a 55
        E 16 83 2a 00
        E 0 93 2a 33
        E 16 83 2a 00
        E 0 93 2a 19
        E 16 83 2a 00
        E 48 93 2a 55
        E 16 83 2a 00
        E 0 93 2a 33
        E 16 83 2a 00
        E 0 93 2a 19
        E 16 83 2a 00
        E 48 93 2a 55
        E 16 83 2a 00
        E 0 93 2a 33
        E 16 83 2a 00
        E 0 93 2a 19
        E 16 83 2a 00
        E 48 93 2a 55
        E 16 83 2a 00
        E 0 93 2a 55
        E 32 83 2a 00
        E 0 93 2a 2a
        E 48 83 2a 00
        E 0 93 2a 55
        E 16 83 2a 00
        E 0 93 2a 55
        E 32 83 2a 00
        E 0 93 2a 2a
        E 144 83 2a 00
        E 0 93 2a 55
        E 16 83 2a 00
        E 0 93 2a 55
        E 32 83 2a 00
        E 0 93 2a 2a
        E 144 83 2a 00
        E 0 93 2a 55
        E 16 83 2a 00
        E 0 93 2a 55
        E 32 83 2a 00
        E 0 93 2a 2a
        E 48 83 2a 00
        E 0 93 2a 55
        E 16 83 2a 00
        E 0 93 2a 55
        E 32 83 2a 00
        E 0 93 2a 2a
        E 144 83 2a 00
        E 0 93 2a 55
        E 16 83 2a 00
        E 0 93 2a 55
        E 32 83 2a 00
        E 0 93 2a 2a
        E 48 83 2a 00
        E 0 93 2a 55
        E 16 83 2a 00
        E 0 93 2a 55
        E 32 83 2a 00
        E 0 93 2a 2a
        E 48 83 2a 00
        E 0 93 2a 66
        E 16 83 2a 00
        E 0 93 2a 66
        E 32 83 2a 00
        E 0 93 2a 2a
        E 48 83 2a 00
        E 0 93 2a 66
        E 16 83 2a 00
        E 0 93 2a 66
        E 32 83 2a 00
        E 0 93 2a 2a
        E 48 83 2a 00
        E 0 93 2a 55
        E 16 83 2a 00
        E 0 93 2a 55
        E 32 83 2a 00
        E 0 93 2a 2a
        E 48 83 2a 00
        E 0 93 2a 55
        E 16 83 2a 00
        E 0 93 2a 55
        E 32 83 2a 00
        E 0 93 2a 2a
        E 48 83 2a 00
        E 0 93 2a 66
        E 16 83 2a 00
        E 0 93 2a 66
        E 32 83 2a 00
        E 0 93 2a 2a
        E 48 83 2a 00
        E 0 93 2a 77
        E 16 83 2a 00
        E 0 93 2a 77
        E 32 83 2a 00
        E 0 93 2a 2a
        E 48 83 2a 00
        E 0 93 2a 55
        E 16 83 2a 00
        E 0 93 2a 55
        E 32 83 2a 00
        E 0 93 2a 2a
        E 240 83 2a 00
        E 0 93 2a 55
        E 16 83 2a 00
        E 0 93 2a 55
        E 32 83 2a 00
        E 0 93 2a 2a
        E 48 83 2a 00
        E 0 93 2a 55
        E 16 83 2a 00
        E 0 93 2a 33
        E 16 83 2a 00
        E 0 93 2a 19
        E 16 83 2a 00
        E 48 93 2a 55
        E 16 83 2a 00
        E 0 93 2a 33
        E 16 83 2a 00
        E 0 93 2a 19
        E 16 83 2a 00
        E 48 93 2a 55
        E 16 83 2a 00
        E 0 93 2a 33
        E 16 83 2a 00
        E 0 93 2a 19
        E 16 83 2a 00
        E 48 93 2a 55
        E 16 83 2a 00
        E 0 93 2a 33
        E 16 83 2a 00
        E 0 93 2a 19
        E 16 83 2a 00
        E 48 93 2a 55
        E 16 83 2a 00
        E 0 93 2a 33
        E 16 83 2a 00
        E 0 93 2a 19
        E 16 83 2a 00
        E 48 93 2a 55
        E 16 83 2a 00
        E 0 93 2a 33
        E 16 83 2a 00
        E 0 93 2a 19
        E 16 83 2a 00
        E 48 93 2a 5d
        E 16 83 2a 00
        E 0 93 2a 55
        E 16 83 2a 00
        E 0 93 2a 55
        E 160 83 2a 00
        E 0 93 2a 55
        E 16 83 2a 00
        E 0 93 2a 33
        E 16 83 2a 00
        E 0 93 2a 19
        E 16 83 2a 00
        E 48 93 2a 55
        E 16 83 2a 00
        E 0 93 2a 33
        E 16 83 2a 00
        E 0 93 2a 19
        E 16 83 2a 00
        E 48 93 2a 5d
        E 16 83 2a 00
        E 0 93 2a 55
        E 16 83 2a 00
        E 0 93 2a 55
        E 160 83 2a 00
        E 0 93 2a 55
        E 16 83 2a 00
        E 0 93 2a 55
        E 32 83 2a 00
        E 0 93 2a 2a
        E 240 83 2a 00
        E 0 93 2a 55
        E 16 83 2a 00
        E 0 93 2a 55
        E 32 83 2a 00
        E 0 93 2a 2a
        E 48 83 2a 00
        E 0 93 2a 55
        E 16 83 2a 00
        E 0 93 2a 33
        E 16 83 2a 00
        E 0 93 2a 19
        E 16 83 2a 00
        E 48 93 2a 55
        E 16 83 2a 00
        E 0 93 2a 33
        E 16 83 2a 00
        E 0 93 2a 19
        E 16 83 2a 00
        E 48 93 2a 55
        E 16 83 2a 00
        E 0 93 2a 33
        E 16 83 2a 00
        E 0 93 2a 19
        E 16 83 2a 00
        E 48 93 2a 55
        E 16 83 2a 00
        E 0 93 2a 33
        E 16 83 2a 00
        E 0 93 2a 19
        E 16 83 2a 00
        E 48 93 2a 55
        E 16 83 2a 00
        E 0 93 2a 33
        E 16 83 2a 00
        E 0 93 2a 19
        E 16 83 2a 00
        E 48 93 2a 55
        E 16 83 2a 00
        E 0 93 2a 33
        E 16 83 2a 00
        E 0 93 2a 19
        E 16 83 2a 00
        E 48 93 2a 5d
        E 16 83 2a 00
        E 0 93 2a 55
        E 16 83 2a 00
        E 0 93 2a 55
        E 160 83 2a 00
        E 0 93 2a 55
        E 16 83 2a 00
        E 0 93 2a 33
        E 16 83 2a 00
        E 0 93 2a 19
        E 16 83 2a 00
        E 48 93 2a 55
        E 16 83 2a 00
        E 0 93 2a 33
        E 16 83 2a 00
        E 0 93 2a 19
        E 16 83 2a 00
        E 48 93 2a 5d
        E 16 83 2a 00
        E 0 93 2a 55
        E 16 83 2a 00
        E 0 93 2a 55
        E 160 83 2a 00
        E 0 93 2a 55
        E 16 83 2a 00
        E 0 93 2a 55
        E 32 83 2a 00
        E 0 93 2a 2a
        E 240 83 2a 00
        E 0 93 2a 55
        E 16 83 2a 00
        E 0 93 2a 55
        E 32 83 2a 00
        E 0 93 2a 2a
        E 48 83 2a 00
        E 0 93 2a 7f
        E 16 83 2a 00
        E 0 93 2a 55
        E 16 83 2a 00
        E 0 93 2a 19
        E 32 83 2a 00
        E 32 93 2a 55
        E 16 83 2a 00
        E 0 93 2a 33
        E 16 83 2a 00
        E 0 93 2a 19
        E 16 83 2a 00
        E 48 93 2a 55
        E 16 83 2a 00
        E 0 93 2a 33
        E 16 83 2a 00
        E 0 93 2a 19
        E 16 83 2a 00
        E 48 93 2a 55
        E 16 83 2a 00
        E 0 93 2a 33
        E 16 83 2a 00
        E 0 93 2a 19
        E 16 83 2a 00
        E 48 93 2a 55
        E 16 83 2a 00
        E 0 93 2a 55
        E 32 83 2a 00
        E 0 93 2a 2a
        E 240 83 2a 00
        E 0 93 2a 55
        E 16 83 2a 00
        E 0 93 2a 55
        E 32 83 2a 00
        E 0 93 2a 2a
        E 48 83 2a 00
        E 0 93 2a 7f
        E 16 83 2a 00
        E 0 93 2a 55
        E 16 83 2a 00
        E 0 93 2a 19
        E 32 83 2a 00
        E 32 93 2a 55
        E 16 83 2a 00
        E 0 93 2a 33
        E 16 83 2a 00
        E 0 93 2a 19
        E 16 83 2a 00
        E 48 93 2a 55
        E 16 83 2a 00
        E 0 93 2a 33
        E 16 83 2a 00
        E 0 93 2a 19
        E 16 83 2a 00
        E 48 93 2a 55
        E 16 83 2a 00
        E 0 93 2a 33
        E 16 83 2a 00
        E 0 93 2a 19
        E 16 83 2a 00
        E 48 93 2a 55
        E 16 83 2a 00
        E 0 93 2a 55
        E 32 83 2a 00
        E 0 93 2a 2a
        E 48 83 2a 00
        E 0 93 2a 55
        E 16 83 2a 00
        E 0 93 2a 55
        E 32 83 2a 00
        E 0 93 2a 2a
        E 144 83 2a 00
        E 0 93 2a 55
        E 16 83 2a 00
        E 0 93 2a 55
        E 32 83 2a 00
        E 0 93 2a 2a
        E 144 83 2a 00
        E 0 93 2a 55
        E 16 83 2a 00
        E 0 93 2a 55
        E 32 83 2a 00
        E 0 93 2a 2a
        E 48 83 2a 00
        E 0 93 2a 55
        E 16 83 2a 00
        E 0 93 2a 55
        E 32 83 2a 00
        E 0 93 2a 2a
        E 144 83 2a 00
        E 0 93 2a 55
        E 16 83 2a 00
        E 0 93 2a 55
        E 32 83 2a 00
        E 0 93 2a 2a
        E 48 83 2a 00
        E 0 93 2a 55
        E 16 83 2a 00
        E 0 93 2a 55
        E 32 83 2a 00
        E 0 93 2a 2a
        E 48 83 2a 00
        E 0 93 2a 66
        E 16 83 2a 00
        E 0 93 2a 66
        E 32 83 2a 00
        E 0 93 2a 2a
        E 48 83 2a 00
        E 0 93 2a 66
        E 16 83 2a 00
        E 0 93 2a 66
        E 32 83 2a 00
        E 0 93 2a 2a
        E 48 83 2a 00
        E 0 93 2a 55
        E 16 83 2a 00
        E 0 93 2a 55
        E 32 83 2a 00
        E 0 93 2a 2a
        E 48 83 2a 00
        E 0 93 2a 55
        E 16 83 2a 00
        E 0 93 2a 55
        E 32 83 2a 00
        E 0 93 2a 2a
        E 48 83 2a 00
        E 0 93 2a 66
        E 16 83 2a 00
        E 0 93 2a 66
        E 32 83 2a 00
        E 0 93 2a 2a
        E 48 83 2a 00
        E 0 93 2a 77
        E 16 83 2a 00
        E 0 93 2a 77
        E 32 83 2a 00
        E 0 93 2a 2a
        E 48 83 2a 00
        E 0 93 2a 7f
        E 16 83 2a 00
        E 0 93 2a 55
        E 16 83 2a 00
        E 0 93 2a 19
        E 32 83 2a 00
        E 32 93 2a 55
        E 16 83 2a 00
        E 0 93 2a 33
        E 16 83 2a 00
        E 0 93 2a 19
        E 16 83 2a 00
        E 48 93 2a 6e
        E 16 83 2a 00
        E 0 93 2a 4c
        E 16 83 2a 00
        E 0 93 2a 22
        E 16 83 2a 00
        E 48 93 2a 7f
        E 16 83 2a 00
        E 0 93 2a 55
        E 16 83 2a 00
        E 0 93 2a 19
        E 32 83 2a 00
        E 32 93 2a 55
        E 16 83 2a 00
        E 0 93 2a 55
        E 32 83 2a 00
        E 0 93 2a 2a
        E 144 83 2a 00
        E 0 93 2a 55
        E 16 83 2a 00
        E 0 93 2a 33
        E 16 83 2a 00
        E 0 93 2a 19
        E 16 83 2a 00
        E 48 93 2a 6e
        E 16 83 2a 00
        E 0 93 2a 4c
        E 16 83 2a 00
        E 0 93 2a 22
        E 16 83 2a 00
        E 48 93 2a 7f
        E 16 83 2a 00
        E 0 93 2a 55
        E 16 83 2a 00
        E 0 93 2a 19
        E 32 83 2a 00
        E 32 93 2a 7f
        E 16 83 2a 00
        E 0 93 2a 55
        E 16 83 2a 00
        E 0 93 2a 19
        E 32 83 2a 00
        E 32 93 2a 6e
        E 16 83 2a 00
        E 0 93 2a 4c
        E 16 83 2a 00
        E 0 93 2a 22
        E 16 83 2a 00
        E 48 93 2a 55
        E 16 83 2a 00
        E 0 93 2a 33
        E 16 83 2a 00
        E 0 93 2a 19
        E 16 83 2a 00
        E 48 93 2a 55
        E 16 83 2a 00
        E 0 93 2a 55
        E 32 83 2a 00
        E 0 93 2a 2a
        E 144 83 2a 00
        E 0 93 2a 55
        E 16 83 2a 00
        E 0 93 2a 33
        E 16 83 2a 00
        E 0 93 2a 19
        E 16 83 2a 00
        E 48 93 2a 7f
        E 16 83 2a 00
        E 0 93 2a 55
        E 16 83 2a 00
        E 0 93 2a 19
        E 32 83 2a 00
        E 32 93 2a 7f
        E 16 83 2a 00
        E 0 93 2a 55
        E 16 83 2a 00
        E 0 93 2a 19
        E 32 83 2a 00
        E 32 93 2a 55
        E 16 83 2a 00
        E 0 93 2a 33
        E 16 83 2a 00
        E 0 93 2a 19
        E 16 83 2a 00
        E 48 93 2a 6e
        E 16 83 2a 00
        E 0 93 2a 4c
        E 16 83 2a 00
        E 0 93 2a 22
        E 16 83 2a 00
        E 48 93 2a 7f
        E 16 83 2a 00
        E 0 93 2a 55
        E 16 83 2a 00
        E 0 93 2a 19
        E 32 83 2a 00
        E 32 93 2a 55
        E 16 83 2a 00
        E 0 93 2a 55
        E 32 83 2a 00
        E 0 93 2a 2a
        E 144 83 2a 00
        E 0 93 2a 55
        E 16 83 2a 00
        E 0 93 2a 33
        E 16 83 2a 00
        E 0 93 2a 19
        E 16 83 2a 00
        E 48 93 2a 6e
        E 16 83 2a 00
        E 0 93 2a 4c
        E 16 83 2a 00
        E 0 93 2a 22
        E 16 83 2a 00
        E 48 93 2a 7f
        E 16 83 2a 00
        E 0 93 2a 55
        E 16 83 2a 00
        E 0 93 2a 19
        E 32 83 2a 00
        E 32 93 2a 7f
        E 16 83 2a 00
        E 0 93 2a 55
        E 16 83 2a 00
        E 0 93 2a 19
        E 32 83 2a 00
        E 32 93 2a 6e
        E 16 83 2a 00
        E 0 93 2a 4c
        E 16 83 2a 00
        E 0 93 2a 22
        E 16 83 2a 00
        E 48 93 2a 55
        E 16 83 2a 00
        E 0 93 2a 33
        E 16 83 2a 00
        E 0 93 2a 19
        E 16 83 2a 00
        E 48 93 2a 55
        E 16 83 2a 00
        E 0 93 2a 55
        E 32 83 2a 00
        E 0 93 2a 2a
        E 144 83 2a 00
        E 0 93 2a 55
        E 16 83 2a 00
        E 0 93 2a 33
        E 16 83 2a 00
        E 0 93 2a 19
        E 16 83 2a 00
        E 48 93 2a 7f
        E 16 83 2a 00
        E 0 93 2a 55
        E 16 83 2a 00
        E 0 93 2a 19
        E 32 83 2a 00
        E 32 93 2a 7f
        E 16 83 2a 00
        E 0 93 2a 55
        E 16 83 2a 00
        E 0 93 2a 19
        E 32 83 2a 00
        E 32 93 2a 55
        E 16 83 2a 00
        E 0 93 2a 33
        E 16 83 2a 00
        E 0 93 2a 19
        E 16 83 2a 00
        E 48 93 2a 6e
        E 16 83 2a 00
        E 0 93 2a 4c
        E 16 83 2a 00
        E 0 93 2a 22
        E 16 83 2a 00
        E 48 93 2a 7f
        E 16 83 2a 00
        E 0 93 2a 55
        E 16 83 2a 00
        E 0 93 2a 19
        E 32 83 2a 00
        E 32 93 2a 55
        E 16 83 2a 00
        E 0 93 2a 55
        E 32 83 2a 00
        E 0 93 2a 2a
        E 144 83 2a 00
        E 0 93 2a 55
        E 16 83 2a 00
        E 0 93 2a 33
        E 16 83 2a 00
        E 0 93 2a 19
        E 16 83 2a 00
        E 48 93 2a 6e
        E 16 83 2a 00
        E 0 93 2a 4c
        E 16 83 2a 00
        E 0 93 2a 22
        E 16 83 2a 00
        E 48 93 2a 7f
        E 16 83 2a 00
        E 0 93 2a 55
        E 16 83 2a 00
        E 0 93 2a 19
        E 32 83 2a 00
        E 32 93 2a 7f
        E 16 83 2a 00
        E 0 93 2a 55
        E 16 83 2a 00
        E 0 93 2a 19
        E 32 83 2a 00
        E 32 93 2a 6e
        E 16 83 2a 00
        E 0 93 2a 4c
        E 16 83 2a 00
        E 0 93 2a 22
        E 16 83 2a 00
        E 48 93 2a 55
        E 16 83 2a 00
        E 0 93 2a 33
        E 16 83 2a 00
        E 0 93 2a 19
        E 16 83 2a 00
        E 48 93 2a 55
        E 16 83 2a 00
        E 0 93 2a 55
        E 32 83 2a 00
        E 0 93 2a 2a
        E 144 83 2a 00
        E 0 93 2a 55
        E 16 83 2a 00
        E 0 93 2a 33
        E 16 83 2a 00
        E 0 93 2a 19
        E 16 83 2a 00
        E 48 93 2a 7f
        E 16 83 2a 00
        E 0 93 2a 55
        E 16 83 2a 00
        E 0 93 2a 19
        E 32 83 2a 00
        E 32 93 2a 7f
        E 16 83 2a 00
        E 0 93 2a 55
        E 16 83 2a 00
        E 0 93 2a 19
        E 32 83 2a 00
        E 32 93 2a 55
        E 16 83 2a 00
        E 0 93 2a 33
        E 16 83 2a 00
        E 0 93 2a 19
        E 16 83 2a 00
        E 48 93 2a 6e
        E 16 83 2a 00
        E 0 93 2a 4c
        E 16 83 2a 00
        E 0 93 2a 22
        E 16 83 2a 00
        E 48 93 2a 7f
        E 16 83 2a 00
        E 0 93 2a 55
        E 16 83 2a 00
        E 0 93 2a 19
        E 32 83 2a 00
        E 32 93 2a 55
        E 16 83 2a 00
        E 0 93 2a 55
        E 32 83 2a 00
        E 0 93 2a 2a
        E 144 83 2a 00
        E 0 93 2a 55
        E 16 83 2a 00
        E 0 93 2a 33
        E 16 83 2a 00
        E 0 93 2a 19
        E 16 83 2a 00
        E 48 93 2a 6e
        E 16 83 2a 00
        E 0 93 2a 4c
        E 16 83 2a 00
        E 0 93 2a 22
        E 16 83 2a 00
        E 48 93 2a 7f
        E 16 83 2a 00
        E 0 93 2a 55
        E 16 83 2a 00
        E 0 93 2a 19
        E 32 83 2a 00
        E 32 93 2a 7f
        E 16 83 2a 00
        E 0 93 2a 55
        E 16 83 2a 00
        E 0 93 2a 19
        E 32 83 2a 00
        E 32 93 2a 6e
        E 16 83 2a 00
        E 0 93 2a 4c
        E 16 83 2a 00
        E 0 93 2a 22
        E 16 83 2a 00
        E 48 93 2a 55
        E 16 83 2a 00
        E 0 93 2a 33
        E 16 83 2a 00
        E 0 93 2a 19
        E 16 83 2a 00
        E 48 93 2a 55
        E 16 83 2a 00
        E 0 93 2a 55
        E 32 83 2a 00
        E 0 93 2a 2a
        E 144 83 2a 00
        E 0 93 2a 55
        E 16 83 2a 00
        E 0 93 2a 33
        E 16 83 2a 00
        E 0 93 2a 19
        E 16 83 2a 00
        E 48 93 2a 7f
        E 16 83 2a 00
        E 0 93 2a 55
        E 16 83 2a 00
        E 0 93 2a 19
        E 32 83 2a 00
        E 32 93 2a 7f
        E 16 83 2a 00
        E 0 93 2a 55
        E 16 83 2a 00
        E 0 93 2a 19
        E 32 83 2a 00
        E 32 93 2a 55
        E 16 83 2a 00
        E 0 93 2a 33
        E 16 83 2a 00
        E 0 93 2a 19
        E 16 83 2a 00
        E 48 93 2a 6e
        E 16 83 2a 00
        E 0 93 2a 4c
        E 16 83 2a 00
        E 0 93 2a 22
        E 16 83 2a 00
        E 48 93 2a 7f
        E 16 83 2a 00
        E 0 93 2a 55
        E 16 83 2a 00
        E 0 93 2a 19
        E 32 83 2a 00
        E 32 93 2a 55
        E 16 83 2a 00
        E 0 93 2a 55
        E 32 83 2a 00
        E 0 93 2a 2a
        E 144 83 2a 00
        E 0 93 2a 55
        E 16 83 2a 00
        E 0 93 2a 33
        E 16 83 2a 00
        E 0 93 2a 19
        E 16 83 2a 00
        E 48 93 2a 6e
        E 16 83 2a 00
        E 0 93 2a 4c
        E 16 83 2a 00
        E 0 93 2a 22
        E 16 83 2a 00
        E 48 93 2a 7f
        E 16 83 2a 00
        E 0 93 2a 55
        E 16 83 2a 00
        E 0 93 2a 19
        E 32 83 2a 00
        E 32 93 2a 7f
        E 16 83 2a 00
        E 0 93 2a 55
        E 16 83 2a 00
        E 0 93 2a 19
        E 32 83 2a 00
        E 32 93 2a 6e
        E 16 83 2a 00
        E 0 93 2a 4c
        E 16 83 2a 00
        E 0 93 2a 22
        E 16 83 2a 00
        E 48 93 2a 55
        E 16 83 2a 00
        E 0 93 2a 33
        E 16 83 2a 00
        E 0 93 2a 19
        E 16 83 2a 00
        E 48 93 2a 55
        E 16 83 2a 00
        E 0 93 2a 55
        E 32 83 2a 00
        E 0 93 2a 2a
        E 144 83 2a 00
        E 0 93 2a 55
        E 16 83 2a 00
        E 0 93 2a 33
        E 16 83 2a 00
        E 0 93 2a 19
        E 16 83 2a 00
        E 48 93 2a 7f
        E 16 83 2a 00
        E 0 93 2a 55
        E 16 83 2a 00
        E 0 93 2a 19
        E 32 83 2a 00
        E 32 93 2a 7f
        E 16 83 2a 00
        E 0 93 2a 55
        E 16 83 2a 00
        E 0 93 2a 19
        E 32 83 2a 00
        E 32 93 2a 55
        E 16 83 2a 00
        E 0 93 2a 33
        E 16 83 2a 00
        E 0 93 2a 19
        E 16 83 2a 00
        E 48 93 2a 6e
        E 16 83 2a 00
        E 0 93 2a 4c
        E 16 83 2a 00
        E 0 93 2a 22
        E 16 83 2a 00
        E 48 93 2a 7f
        E 16 83 2a 00
        E 0 93 2a 55
        E 16 83 2a 00
        E 0 93 2a 19
        E 32 83 2a 00
        E 32 93 2a 55
        E 16 83 2a 00
        E 0 93 2a 55
        E 32 83 2a 00
        E 0 93 2a 2a
        E 144 83 2a 00
        E 0 93 2a 55
        E 16 83 2a 00
        E 0 93 2a 33
        E 16 83 2a 00
        E 0 93 2a 19
        E 16 83 2a 00
        E 48 93 2a 6e
        E 16 83 2a 00
        E 0 93 2a 4c
        E 16 83 2a 00
        E 0 93 2a 22
        E 16 83 2a 00
        E 48 93 2a 7f
        E 16 83 2a 00
        E 0 93 2a 55
        E 16 83 2a 00
        E 0 93 2a 19
        E 32 83 2a 00
        E 32 93 2a 7f
        E 16 83 2a 00
        E 0 93 2a 55
        E 16 83 2a 00
        E 0 93 2a 19
        E 32 83 2a 00
        E 32 93 2a 6e
        E 16 83 2a 00
        E 0 93 2a 4c
        E 16 83 2a 00
        E 0 93 2a 22
        E 16 83 2a 00
        E 48 93 2a 55
        E 16 83 2a 00
        E 0 93 2a 33
        E 16 83 2a 00
        E 0 93 2a 19
        E 16 83 2a 00
        E 48 93 2a 55
        E 16 83 2a 00
        E 0 93 2a 55
        E 32 83 2a 00
        E 0 93 2a 2a
        E 144 83 2a 00
        E 0 93 2a 55
        E 16 83 2a 00
        E 0 93 2a 33
        E 16 83 2a 00
        E 0 93 2a 19
        E 16 83 2a 00
        E 48 93 2a 7f
        E 16 83 2a 00
        E 0 93 2a 55
        E 16 83 2a 00
        E 0 93 2a 19
        E 32 83 2a 00
        E 32 93 2a 7f
        E 16 83 2a 00
        E 0 93 2a 55
        E 16 83 2a 00
        E 0 93 2a 19
        E 32 83 2a 00
        E 32 93 2a 55
        E 16 83 2a 00
        E 0 93 2a 33
        E 16 83 2a 00
        E 0 93 2a 19
        E 16 83 2a 00
        E 48 93 2a 6e
        E 16 83 2a 00
        E 0 93 2a 4c
        E 16 83 2a 00
        E 0 93 2a 22
        E 16 83 2a 00
        E 48 93 2a 7f
        E 16 83 2a 00
        E 0 93 2a 55
        E 16 83 2a 00
        E 0 93 2a 19
        E 32 83 2a 00
        E 32 93 2a 55
        E 16 83 2a 00
        E 0 93 2a 55
        E 32 83 2a 00
        E 0 93 2a 2a
        E 144 83 2a 00
        E 0 93 2a 55
        E 16 83 2a 00
        E 0 93 2a 33
        E 16 83 2a 00
        E 0 93 2a 19
        E 16 83 2a 00
        E 48 93 2a 6e
        E 16 83 2a 00
        E 0 93 2a 4c
        E 16 83 2a 00
        E 0 93 2a 22
        E 16 83 2a 00
        E 48 93 2a 7f
        E 16 83 2a 00
        E 0 93 2a 55
        E 16 83 2a 00
        E 0 93 2a 19
        E 32 83 2a 00
        E 32 93 2a 7f
        E 16 83 2a 00
        E 0 93 2a 55
        E 16 83 2a 00
        E 0 93 2a 19
        E 32 83 2a 00
        E 32 93 2a 6e
        E 16 83 2a 00
        E 0 93 2a 4c
        E 16 83 2a 00
        E 0 93 2a 22
        E 16 83 2a 00
        E 48 93 2a 55
        E 16 83 2a 00
        E 0 93 2a 33
        E 16 83 2a 00
        E 0 93 2a 19
        E 16 83 2a 00
        E 48 93 2a 55
        E 16 83 2a 00
        E 0 93 2a 55
        E 32 83 2a 00
        E 0 93 2a 2a
        E 144 83 2a 00
        E 0 93 2a 55
        E 16 83 2a 00
        E 0 93 2a 33
        E 16 83 2a 00
        E 0 93 2a 19
        E 16 83 2a 00
        E 48 93 2a 7f
        E 16 83 2a 00
        E 0 93 2a 55
        E 16 83 2a 00
        E 0 93 2a 19
        E 32 83 2a 00
        E 32 93 2a 66
        E 16 83 2a 00
        E 0 93 2a 66
        E 32 83 2a 00
        E 0 93 2a 2a
        E 48 83 2a 00
        E 0 93 2a 55
        E 16 83 2a 00
        E 0 93 2a 33
        E 16 83 2a 00
        E 0 93 2a 19
        E 16 83 2a 00
        E 48 93 2a 55
        E 16 83 2a 00
        E 0 93 2a 33
        E 16 83 2a 00
        E 0 93 2a 19
        E 16 83 2a 00
        E 48 93 2a 66
        E 16 83 2a 00
        E 0 93 2a 66
        E 32 83 2a 00
        E 0 93 2a 2a
        E 48 83 2a 00
        E 0 93 2a 55
        E 16 83 2a 00
        E 0 93 2a 33
        E 16 83 2a 00
        E 0 93 2a 19
        E 16 83 2a 00
        E 48 93 2a 55
        E 16 83 2a 00
        E 0 93 2a 33
        E 16 83 2a 00
        E 0 93 2a 19
        E 16 83 2a 00
        E 48 93 2a 66
        E 16 83 2a 00
        E 0 93 2a 66
        E 32 83 2a 00
        E 0 93 2a 2a
        E 240 83 2a 00
        E 2288 93 2a 7f
        E 16 83 2a 00
        E 0 93 2a 7f
        E 16 83 2a 00
        E 0 93 2a 7f
        E 16 83 2a 00
        E 0 93 2a 7f
        E 16 83 2a 00
        E 0 93 2a 7f
        E 16 83 2a 00
        E 0 93 2a 7f
        E 16 83 2a 00
        E 0 93 2a 7f
        E 16 83 2a 00
        E 0 93 2a 7f
        E 16 83 2a 00
        E 16 93 2a 7f
        E 528 83 2a 00
        E 8400 93 2a 66
        E 16 83 2a 00
        E 0 93 2a 66
        E 32 83 2a 00
        E 0 93 2a 2a
        E 256 83 2a 00
        E 80 93 2a 55
        E 16 83 2a 00
        E 0 93 2a 33
        E 16 83 2a 00
        E 0 93 2a 19
        E 16 83 2a 00
        E 336 93 2a 55
        E 16 83 2a 00
        E 0 93 2a 33
        E 16 83 2a 00
        E 0 93 2a 19
        E 16 83 2a 00
        E 336 93 2a 55
        E 16 83 2a 00
        E 0 93 2a 33
        E 16 83 2a 00
        E 0 93 2a 19
        E 16 83 2a 00
        E 336 93 2a 55
        E 16 83 2a 00
        E 0 93 2a 33
        E 16 83 2a 00
        E 0 93 2a 19
        E 16 83 2a 00
        E 336 93 2a 55
        E 16 83 2a 00
        E 0 93 2a 33
        E 16 83 2a 00
        E 0 93 2a 19
        E 16 83 2a 00
        E 336 93 2a 55
        E 16 83 2a 00
        E 0 93 2a 33
        E 16 83 2a 00
        E 0 93 2a 19
        E 16 83 2a 00
        E 144 93 2a 55
        E 16 83 2a 00
        E 0 93 2a 55
        E 32 83 2a 00
        E 0 93 2a 2a
        E 144 83 2a 00
        E 0 93 2a 55
        E 16 83 2a 00
        E 0 93 2a 55
        E 32 83 2a 00
        E 0 93 2a 2a
        E 256 83 2a 00
        E 80 93 2a 55
        E 16 83 2a 00
        E 0 93 2a 55
        E 32 83 2a 00
        E 0 93 2a 2a
        E 144 83 2a 00
        E 0 93 2a 55
        E 16 83 2a 00
        E 0 93 2a 55
        E 32 83 2a 00
        E 0 93 2a 2a
        E 144 83 2a 00
        E 0 93 2a 55
        E 16 83 2a 00
        E 0 93 2a 33
        E 16 83 2a 00
        E 0 93 2a 19
        E 16 83 2a 00
        E 336 93 2a 55
        E 16 83 2a 00
        E 0 93 2a 33
        E 16 83 2a 00
        E 0 93 2a 19
        E 16 83 2a 00
        E 336 93 2a 55
        E 16 83 2a 00
        E 0 93 2a 33
        E 16 83 2a 00
        E 0 93 2a 19
        E 16 83 2a 00
        E 336 93 2a 55
        E 16 83 2a 00
        E 0 93 2a 33
        E 16 83 2a 00
        E 0 93 2a 19
        E 16 83 2a 00
        E 144 93 2a 55
        E 16 83 2a 00
        E 0 93 2a 33
        E 16 83 2a 00
        E 0 93 2a 19
        E 16 83 2a 00
        E 144 93 2a 55
        E 16 83 2a 00
        E 0 93 2a 33
        E 16 83 2a 00
        E 0 93 2a 19
        E 16 83 2a 00
        E 144 93 2a 55
        E 16 83 2a 00
        E 0 93 2a 33
        E 16 83 2a 00
        E 0 93 2a 19
        E 16 83 2a 00
        E 144 93 2a 55
        E 16 83 2a 00
        E 0 93 2a 33
        E 16 83 2a 00
        E 0 93 2a 19
        E 16 83 2a 00
        E 144 93 2a 55
        E 16 83 2a 00
        E 0 93 2a 33
        E 16 83 2a 00
        E 0 93 2a 19
        E 16 83 2a 00
        E 144 93 2a 55
        E 16 83 2a 00
        E 0 93 2a 55
        E 32 83 2a 00
        E 0 93 2a 2a
        E 48 83 2a 00
        E 0 93 2a 55
        E 16 83 2a 00
        E 0 93 2a 55
        E 32 83 2a 00
        E 0 93 2a 2a
        E 48 83 2a 00
        E 0 93 2a 55
        E 16 83 2a 00
        E 0 93 2a 55
        E 32 83 2a 00
        E 0 93 2a 2a
        E 144 83 2a 00
        E 0 93 2a 66
        E 16 83 2a 00
        E 0 93 2a 66
        E 32 83 2a 00
        E 0 93 2a 2a
        E 256 83 2a 00
        E 80 93 2a 55
        E 16 83 2a 00
        E 0 93 2a 33
        E 16 83 2a 00
        E 0 93 2a 19
        E 16 83 2a 00
        E 336 93 2a 55
        E 16 83 2a 00
        E 0 93 2a 33
        E 16 83 2a 00
        E 0 93 2a 19
        E 16 83 2a 00
        E 336 93 2a 55
        E 16 83 2a 00
        E 0 93 2a 33
        E 16 83 2a 00
        E 0 93 2a 19
        E 16 83 2a 00
        E 336 93 2a 55
        E 16 83 2a 00
        E 0 93 2a 33
        E 16 83 2a 00
        E 0 93 2a 19
        E 16 83 2a 00
        E 336 93 2a 55
        E 16 83 2a 00
        E 0 93 2a 33
        E 16 83 2a 00
        E 0 93 2a 19
        E 16 83 2a 00
        E 336 93 2a 55
        E 16 83 2a 00
        E 0 93 2a 33
        E 16 83 2a 00
        E 0 93 2a 19
        E 16 83 2a 00
        E 144 93 2a 55
        E 16 83 2a 00
        E 0 93 2a 55
        E 32 83 2a 00
        E 0 93 2a 2a
        E 144 83 2a 00
        E 0 93 2a 55
        E 16 83 2a 00
        E 0 93 2a 55
        E 32 83 2a 00
        E 0 93 2a 2a
        E 256 83 2a 00
        E 80 93 2a 7f
        E 16 83 2a 00
        E 0 93 2a 55
        E 16 83 2a 00
        E 0 93 2a 19
        E 32 83 2a 00
        E 32 93 2a 55
        E 16 83 2a 00
        E 0 93 2a 33
        E 16 83 2a 00
        E 0 93 2a 19
        E 16 83 2a 00
        E 48 93 2a 6e
        E 16 83 2a 00
        E 0 93 2a 4c
        E 16 83 2a 00
        E 0 93 2a 22
        E 16 83 2a 00
        E 48 93 2a 55
        E 16 83 2a 00
        E 0 93 2a 33
        E 16 83 2a 00
        E 0 93 2a 19
        E 16 83 2a 00
        E 48 93 2a 66
        E 16 83 2a 00
        E 0 93 2a 66
        E 32 83 2a 00
        E 0 93 2a 2a
        E 144 83 2a 00
        E 0 93 2a 6e
        E 16 83 2a 00
        E 0 93 2a 4c
        E 16 83 2a 00
        E 0 93 2a 22
        E 16 83 2a 00
        E 48 93 2a 55
        E 16 83 2a 00
        E 0 93 2a 33
        E 16 83 2a 00
        E 0 93 2a 19
        E 16 83 2a 00
        E 48 93 2a 7f
        E 16 83 2a 00
        E 0 93 2a 55
        E 16 83 2a 00
        E 0 93 2a 19
        E 32 83 2a 00
        E 32 93 2a 55
        E 16 83 2a 00
        E 0 93 2a 33
        E 16 83 2a 00
        E 0 93 2a 19
        E 16 83 2a 00
        E 48 93 2a 6e
        E 16 83 2a 00
        E 0 93 2a 4c
        E 16 83 2a 00
        E 0 93 2a 22
        E 16 83 2a 00
        E 48 93 2a 55
        E 16 83 2a 00
        E 0 93 2a 33
        E 16 83 2a 00
        E 0 93 2a 19
        E 16 83 2a 00
        E 48 93 2a 66
        E 16 83 2a 00
        E 0 93 2a 66
        E 32 83 2a 00
        E 0 93 2a 2a
        E 144 83 2a 00
        E 0 93 2a 6e
        E 16 83 2a 00
        E 0 93 2a 4c
        E 16 83 2a 00
        E 0 93 2a 22
        E 16 83 2a 00
        E 48 93 2a 55
        E 16 83 2a 00
        E 0 93 2a 33
        E 16 83 2a 00
        E 0 93 2a 19
        E 16 83 2a 00
        E 48 93 2a 7f
        E 16 83 2a 00
        E 0 93 2a 55
        E 16 83 2a 00
        E 0 93 2a 19
        E 32 83 2a 00
        E 32 93 2a 55
        E 16 83 2a 00
        E 0 93 2a 33
        E 16 83 2a 00
        E 0 93 2a 19
        E 16 83 2a 00
        E 48 93 2a 6e
        E 16 83 2a 00
        E 0 93 2a 4c
        E 16 83 2a 00
        E 0 93 2a 22
        E 16 83 2a 00
        E 48 93 2a 55
        E 16 83 2a 00
        E 0 93 2a 33
        E 16 83 2a 00
        E 0 93 2a 19
        E 16 83 2a 00
        E 48 93 2a 66
        E 16 83 2a 00
        E 0 93 2a 66
        E 32 83 2a 00
        E 0 93 2a 2a
        E 144 83 2a 00
        E 0 93 2a 6e
        E 16 83 2a 00
        E 0 93 2a 4c
        E 16 83 2a 00
        E 0 93 2a 22
        E 16 83 2a 00
        E 48 93 2a 55
        E 16 83 2a 00
        E 0 93 2a 33
        E 16 83 2a 00
        E 0 93 2a 19
        E 16 83 2a 00
        E 48 93 2a 7f
        E 16 83 2a 00
        E 0 93 2a 55
        E 16 83 2a 00
        E 0 93 2a 19
        E 32 83 2a 00
        E 32 93 2a 55
        E 16 83 2a 00
        E 0 93 2a 33
        E 16 83 2a 00
        E 0 93 2a 19
        E 16 83 2a 00
        E 48 93 2a 6e
        E 16 83 2a 00
        E 0 93 2a 4c
        E 16 83 2a 00
        E 0 93 2a 22
        E 16 83 2a 00
        E 48 93 2a 55
        E 16 83 2a 00
        E 0 93 2a 33
        E 16 83 2a 00
        E 0 93 2a 19
        E 16 83 2a 00
        E 48 93 2a 55
        E 16 83 2a 00
        E 0 93 2a 55
        E 32 83 2a 00
        E 0 93 2a 2a
        E 48 83 2a 00
        E 0 93 2a 55
        E 16 83 2a 00
        E 0 93 2a 55
        E 32 83 2a 00
        E 0 93 2a 2a
        E 48 83 2a 00
        E 0 93 2a 66
        E 16 83 2a 00
        E 0 93 2a 66
        E 32 83 2a 00
        E 0 93 2a 2a
        E 48 83 2a 00
        E 0 93 2a 77
        E 16 83 2a 00
        E 0 93 2a 77
        E 32 83 2a 00
        E 0 93 2a 2a
        E 48 83 2a 00
        E 0 93 2a 55
        E 16 83 2a 00
        E 0 93 2a 33
        E 16 83 2a 00
        E 0 93 2a 19
        E 16 83 2a 00
        E 336 93 2a 55
        E 16 83 2a 00
        E 0 93 2a 33
        E 16 83 2a 00
        E 0 93 2a 19
        E 16 83 2a 00
        E 336 93 2a 55
        E 16 83 2a 00
        E 0 93 2a 33
        E 16 83 2a 00
        E 0 93 2a 19
        E 16 83 2a 00
        E 336 93 2a 55
        E 16 83 2a 00
        E 0 93 2a 33
        E 16 83 2a 00
        E 0 93 2a 19
        E 16 83 2a 00
        E 336 93 2a 55
        E 16 83 2a 00
        E 0 93 2a 33
        E 16 83 2a 00
        E 0 93 2a 19
        E 16 83 2a 00
        E 80 b3 7b 00
        E 0 ff 2f 00
      >
    >
  >
>