<REAPER_PROJECT 0.1 "7.27/win64" 1707000000
  <NOTES 0 2
    |ReapNES Studio Project
    |MIDI Import - Championship_Bowling_title_rom_v1
  >
  RIPPLE 0
  GROUPOVERRIDE 0 0 0
  AUTOXFADE 129
  ENVATTACH 3
  POOLEDENVATTACH 0
  MIXERUIFLAGS 11 48
  ENVFADESZ10 40
  PEAKGAIN 1
  FEEDBACK 0
  PANLAW 1
  PROJOFFS 0 0 0
  MAXPROJLEN 0 0
  GRID 3199 8 1 8 1 0 0 0
  TIMEMODE 1 5 -1 30 0 0 -1
  VIDEO_CONFIG 0 0 65792
  PANMODE 3
  PANLAWFLAGS 3
  CURSOR 0
  ZOOM 100 0 0
  VZOOMEX 6 0
  USE_REC_CFG 0
  RECMODE 1
  SMPTESYNC 0 30 100 40 1000 300 0 0 1 0 0
  LOOP 0
  LOOPGRAN 0 4
  RECORD_PATH "Media" ""
  <RECORD_CFG
    ZXZhdxgAAQ==
  >
  <APPLYFX_CFG
  >
  RENDER_FILE ""
  RENDER_PATTERN ""
  RENDER_FMT 0 2 0
  RENDER_1X 0
  RENDER_RANGE 1 0 0 18 1000
  RENDER_RESAMPLE 3 0 1
  RENDER_ADDTOPROJ 0
  RENDER_STEMS 0
  RENDER_DITHER 0
  TIMELOCKMODE 1
  TEMPOENVLOCKMODE 1
  ITEMMIX 1
  DEFPITCHMODE 589824 0
  TAKELANE 1
  SAMPLERATE 44100 0 0
  <RENDER_CFG
    ZXZhdxgAAQ==
  >
  LOCK 1
  <METRONOME 6 2
    VOL 0.25 0.125
    BEATLEN 4
    FREQ 1760 880 1
    SAMPLES "" ""
    SPLIGNORE 0 0
    SPLDEF 2 660 "" 0
    SPLDEF 3 440 "" 0
    PATTERN 0 169
    PATTERNSTR ABBB
    MULT 1
  >
  GLOBAL_AUTO -1
  TEMPO 128.59999614200012 4 4
  PLAYRATE 1 0 0.25 4
  SELECTION 0 0
  SELECTION2 0 0
  MASTERAUTOMODE 0
  MASTERTRACKHEIGHT 0 0
  MASTERPEAKCOL 16576
  MASTERMUTESOLO 0
  MASTERTRACKVIEW 0 0.6667 0.5 0.5 0 0 0 0 0 0 0 0 0 0
  MASTERHWOUT 0 0 1 0 0 0 0 -1
  MASTER_NCH 2 2
  MASTER_VOLUME 1 0 -1 -1 1
  MASTER_PANMODE 3
  MASTER_PANLAWFLAGS 3
  MASTER_FX 1
  MASTER_SEL 0
  <MASTERPLAYSPEEDENV
    EGUID {A21FCD08-3830-470E-994B-8BFBA52DCAA8}
    ACT 0 -1
    VIS 0 1 1
    LANEHEIGHT 0 0
    ARM 0
    DEFSHAPE 0 -1 -1
  >
  <TEMPOENVEX
    EGUID {9FF9431B-8271-4FEA-9E6A-374D90D9EAF2}
    ACT 1 -1
    VIS 1 0 1
    LANEHEIGHT 0 0
    ARM 0
    DEFSHAPE 1 -1 -1
  >
  <PROJBAY
  >
  <TRACK {1CAAD22B-14C8-48EB-85BD-A5AB95AF412D}
    NAME "NES - Pulse 1 [ch0]"
    PEAKCOL 16576606
    BEAT -1
    AUTOMODE 0
    PANLAWFLAGS 3
    VOLPAN 1 0 -1 -1 1
    MUTESOLO 0 0 0
    IPHASE 0
    PLAYOFFS 0 1
    ISBUS 0 0
    BUSCOMP 0 0 0 0 0
    SHOWINMIX 1 0.6667 0.5 1 0.5 0 0 0
    FIXEDLANES 9 0 0 0 0
    SEL 1
    REC 1 5088 1 0 0 0 0 0
    VU 2
    TRACKHEIGHT 0 0 0 0 0 0 0
    INQ 0 0 0 0.5 100 0 0 100
    NCHAN 2
    FX 1
    TRACKID {1CAAD22B-14C8-48EB-85BD-A5AB95AF412D}
    PERF 0
    MIDIOUT -1
    MAINSEND 1 0
    <FXCHAIN
      WNDRECT 24 52 700 560
      SHOW 0
      LASTSEL 0
      DOCKED 0
      BYPASS 0 0 0
      <JS "ReapNES Studio/ReapNES_Console.jsfx" ""
        2 15 1 10 80 10 100 2 1 15 1 5 60 10 80 1 1 0 50 0 0 15 1 0 100 0 0 0.500000 0.500000 0.400000 0.300000 0.800000 0 1 0 0 0 0 - - - - - - - - - - - - - - - - - - - - - - - - - -
      >
      FLOATPOS 0 0 0 0
      FXID {16B08FC2-DE2A-4197-8367-C27309A65CA0}
      WAK 0 0
    >
    <ITEM
      POSITION 0
      LENGTH 9.160186900000001
      LOOP 0
      ALLTAKES 0
      FADEIN 0 0 0 0 0 0 0
      FADEOUT 0 0 0 0 0 0 0
      MUTE 0 0
      SEL 0
      IGUID {B8910089-7D40-4B48-877F-2E9F22910A32}
      <SOURCE MIDI
        HASDATA 1 480 QN
        CCINTERP 32
        E 0 c0 50
        E 48 b0 0c 40
        E 0 b0 0b 11
        E 0 90 45 11
        E 32 b0 0b 33
        E 32 b0 0b 55
        E 16 b0 0b 7f
        E 48 b0 0b 66
        E 48 b0 0b 08
        E 96 b0 0b 33
        E 16 80 45 00
        E 96 b0 0b 11
        E 0 90 47 11
        E 32 b0 0b 33
        E 32 b0 0b 55
        E 16 b0 0b 7f
        E 48 b0 0b 66
        E 48 b0 0b 08
        E 96 b0 0b 33
        E 16 80 47 00
        E 48 b0 0c 20
        E 0 b0 0b 11
        E 0 90 4c 11
        E 32 b0 0b 33
        E 32 b0 0b 55
        E 16 b0 0b 7f
        E 48 b0 0b 66
        E 48 b0 0b 08
        E 96 b0 0b 33
        E 32 b0 0b 2a
        E 32 b0 0b 08
        E 128 b0 0b 19
        E 32 b0 0b 11
        E 32 b0 0b 08
        E 128 b0 0b 19
        E 32 b0 0b 11
        E 32 b0 0b 08
        E 48 80 4c 00
        E 768 b0 0c 40
        E 0 b0 0b 11
        E 0 90 3e 11
        E 32 b0 0b 33
        E 32 b0 0b 55
        E 16 b0 0b 7f
        E 48 b0 0b 66
        E 48 b0 0b 08
        E 96 b0 0b 33
        E 32 b0 0b 2a
        E 32 b0 0b 08
        E 128 b0 0b 19
        E 32 b0 0b 11
        E 32 b0 0b 08
        E 128 b0 0b 19
        E 32 b0 0b 11
        E 32 b0 0b 08
        E 816 b0 0b 11
        E 0 80 3e 00
        E 0 90 49 11
        E 32 b0 0b 33
        E 32 b0 0b 55
        E 16 b0 0b 7f
        E 48 b0 0b 66
        E 48 b0 0b 08
        E 96 b0 0b 33
        E 32 b0 0b 2a
        E 32 b0 0b 08
        E 128 b0 0b 19
        E 32 b0 0b 11
        E 32 b0 0b 08
        E 128 b0 0b 19
        E 32 b0 0b 11
        E 32 b0 0b 08
        E 816 b0 0b 11
        E 0 80 49 00
        E 0 90 45 11
        E 32 b0 0b 33
        E 32 b0 0b 55
        E 16 b0 0b 7f
        E 48 b0 0b 66
        E 48 b0 0b 08
        E 96 b0 0b 33
        E 32 b0 0b 2a
        E 32 b0 0b 08
        E 128 b0 0b 19
        E 32 b0 0b 11
        E 32 b0 0b 08
        E 128 b0 0b 19
        E 32 b0 0b 11
        E 32 b0 0b 08
        E 816 b0 0b 11
        E 0 80 45 00
        E 0 90 42 11
        E 32 b0 0b 33
        E 32 b0 0b 55
        E 16 b0 0b 7f
        E 48 b0 0b 66
        E 48 b0 0b 08
        E 96 b0 0b 33
        E 32 b0 0b 2a
        E 32 b0 0b 08
        E 128 b0 0b 19
        E 32 b0 0b 11
        E 32 b0 0b 08
        E 128 b0 0b 19
        E 32 b0 0b 11
        E 32 b0 0b 08
        E 816 b0 0b 11
        E 0 80 42 00
        E 0 90 47 11
        E 32 b0 0b 33
        E 32 b0 0b 55
        E 16 b0 0b 7f
        E 48 b0 0b 66
        E 48 b0 0b 08
        E 96 b0 0b 33
        E 32 b0 0b 2a
        E 32 b0 0b 08
        E 128 b0 0b 19
        E 32 b0 0b 11
        E 32 b0 0b 08
        E 128 b0 0b 19
        E 32 b0 0b 11
        E 32 b0 0b 08
        E 256 80 47 00
        E 0 b0 7b 00
        E 0 ff 2f 00
      >
    >
  >
  <TRACK {9CA98677-66C5-426C-B1E3-F65AE493322F}
    NAME "NES - Pulse 2 [ch1]"
    PEAKCOL 10092441
    BEAT -1
    AUTOMODE 0
    PANLAWFLAGS 3
    VOLPAN 1 0 -1 -1 1
    MUTESOLO 0 0 0
    IPHASE 0
    PLAYOFFS 0 1
    ISBUS 0 0
    BUSCOMP 0 0 0 0 0
    SHOWINMIX 1 0.6667 0.5 1 0.5 0 0 0
    FIXEDLANES 9 0 0 0 0
    SEL 0
    REC 0 5088 1 0 0 0 0 0
    VU 2
    TRACKHEIGHT 0 0 0 0 0 0 0
    INQ 0 0 0 0.5 100 0 0 100
    NCHAN 2
    FX 1
    TRACKID {9CA98677-66C5-426C-B1E3-F65AE493322F}
    PERF 0
    MIDIOUT -1
    MAINSEND 1 0
    <FXCHAIN
      WNDRECT 24 52 700 560
      SHOW 0
      LASTSEL 0
      DOCKED 0
      BYPASS 0 0 0
      <JS "ReapNES Studio/ReapNES_Console.jsfx" ""
        2 15 1 10 80 10 100 2 1 15 1 5 60 10 80 1 1 0 50 0 0 15 1 0 100 0 0 0.500000 0.500000 0.400000 0.300000 0.800000 1 1 0 0 0 0 - - - - - - - - - - - - - - - - - - - - - - - - - -
      >
      FLOATPOS 0 0 0 0
      FXID {A0B0BB87-4C94-4193-8E88-6D0F412EFB81}
      WAK 0 0
    >
    <ITEM
      POSITION 0
      LENGTH 9.160186900000001
      LOOP 0
      ALLTAKES 0
      FADEIN 0 0 0 0 0 0 0
      FADEOUT 0 0 0 0 0 0 0
      MUTE 0 0
      SEL 0
      IGUID {931C94AA-FF0F-4680-9992-911C38D96783}
      <SOURCE MIDI
        HASDATA 1 480 QN
        CCINTERP 32
        E 0 c1 51
        E 0 b1 0c 20
        E 0 b1 0b 33
        E 0 91 4a 33
        E 16 b1 0b 7f
        E 16 b1 0b 66
        E 16 b1 0b 11
        E 32 b1 0b 3b
        E 16 b1 0b 33
        E 16 b1 0b 11
        E 176 81 4a 00
        E 96 b1 0b 33
        E 0 91 4c 33
        E 16 b1 0b 7f
        E 16 b1 0b 66
        E 16 b1 0b 11
        E 32 b1 0b 3b
        E 16 b1 0b 33
        E 16 b1 0b 11
        E 176 81 4c 00
        E 96 b1 0b 33
        E 0 91 51 33
        E 16 b1 0b 7f
        E 16 b1 0b 66
        E 16 b1 0b 11
        E 32 b1 0b 3b
        E 16 b1 0b 33
        E 16 b1 0b 11
        E 656 81 51 00
        E 768 b1 0b 33
        E 0 91 45 33
        E 16 b1 0b 7f
        E 16 b1 0b 66
        E 16 b1 0b 11
        E 32 b1 0b 3b
        E 16 81 45 00
        E 96 b1 0b 33
        E 0 91 4c 33
        E 16 b1 0b 7f
        E 16 b1 0b 66
        E 16 b1 0b 11
        E 32 b1 0b 3b
        E 16 b1 0b 33
        E 0 81 4c 00
        E 0 91 49 33
        E 16 b1 0b 7f
        E 16 b1 0b 66
        E 16 b1 0b 11
        E 32 b1 0b 3b
        E 16 b1 0b 33
        E 0 81 49 00
        E 0 91 4a 33
        E 16 b1 0b 7f
        E 16 b1 0b 66
        E 16 b1 0b 11
        E 32 b1 0b 3b
        E 16 b1 0b 33
        E 16 b1 0b 11
        E 1424 b1 0b 33
        E 0 81 4a 00
        E 0 91 49 33
        E 16 b1 0b 7f
        E 16 b1 0b 66
        E 16 b1 0b 11
        E 32 b1 0b 3b
        E 16 b1 0b 33
        E 16 b1 0b 11
        E 272 b1 0b 33
        E 0 81 49 00
        E 0 91 47 33
        E 16 b1 0b 7f
        E 16 b1 0b 66
        E 16 b1 0b 11
        E 32 b1 0b 3b
        E 16 b1 0b 33
        E 16 b1 0b 11
        E 272 b1 0b 33
        E 0 81 47 00
        E 0 91 4a 33
        E 16 b1 0b 7f
        E 16 b1 0b 66
        E 16 b1 0b 11
        E 32 b1 0b 3b
        E 16 b1 0b 33
        E 16 b1 0b 11
        E 272 b1 0b 33
        E 0 81 4a 00
        E 0 91 49 33
        E 16 b1 0b 7f
        E 16 b1 0b 66
        E 16 b1 0b 11
        E 32 b1 0b 3b
        E 16 b1 0b 33
        E 0 81 49 00
        E 0 91 4a 33
        E 16 b1 0b 7f
        E 16 b1 0b 66
        E 16 b1 0b 11
        E 32 b1 0b 3b
        E 16 b1 0b 33
        E 0 81 4a 00
        E 0 91 4c 33
        E 16 b1 0b 7f
        E 16 b1 0b 66
        E 16 b1 0b 11
        E 32 b1 0b 3b
        E 16 b1 0b 33
        E 0 81 4c 00
        E 0 91 49 33
        E 16 b1 0b 7f
        E 16 b1 0b 66
        E 16 b1 0b 11
        E 32 b1 0b 3b
        E 16 b1 0b 33
        E 0 81 49 00
        E 0 91 47 33
        E 16 b1 0b 7f
        E 16 b1 0b 66
        E 16 b1 0b 11
        E 32 b1 0b 3b
        E 16 b1 0b 33
        E 0 81 47 00
        E 0 91 49 33
        E 16 b1 0b 7f
        E 16 b1 0b 66
        E 16 b1 0b 11
        E 32 b1 0b 3b
        E 16 b1 0b 33
        E 0 81 49 00
        E 0 91 4a 33
        E 16 b1 0b 7f
        E 16 b1 0b 66
        E 16 b1 0b 11
        E 32 b1 0b 3b
        E 16 b1 0b 33
        E 0 81 4a 00
        E 0 91 47 33
        E 16 b1 0b 7f
        E 16 b1 0b 66
        E 16 b1 0b 11
        E 32 b1 0b 3b
        E 16 b1 0b 33
        E 0 81 47 00
        E 0 91 44 33
        E 16 b1 0b 7f
        E 16 b1 0b 66
        E 16 b1 0b 11
        E 32 b1 0b 3b
        E 16 b1 0b 33
        E 0 81 44 00
        E 0 91 45 33
        E 16 b1 0b 7f
        E 16 b1 0b 66
        E 16 b1 0b 11
        E 32 b1 0b 3b
        E 16 b1 0b 33
        E 0 81 45 00
        E 0 91 47 33
        E 16 b1 0b 7f
        E 16 b1 0b 66
        E 16 b1 0b 11
        E 32 b1 0b 3b
        E 16 b1 0b 33
        E 0 81 47 00
        E 0 91 44 33
        E 16 b1 0b 7f
        E 16 b1 0b 66
        E 16 b1 0b 11
        E 32 b1 0b 3b
        E 16 b1 0b 33
        E 0 81 44 00
        E 0 91 42 33
        E 16 b1 0b 7f
        E 16 b1 0b 66
        E 16 b1 0b 11
        E 32 b1 0b 3b
        E 16 b1 0b 33
        E 0 81 42 00
        E 0 91 44 33
        E 16 b1 0b 7f
        E 16 b1 0b 66
        E 16 b1 0b 11
        E 32 b1 0b 3b
        E 16 b1 0b 33
        E 0 81 44 00
        E 0 91 45 33
        E 16 b1 0b 7f
        E 16 b1 0b 66
        E 16 b1 0b 11
        E 32 b1 0b 3b
        E 16 b1 0b 33
        E 0 81 45 00
        E 0 91 42 33
        E 16 b1 0b 7f
        E 16 b1 0b 66
        E 16 b1 0b 11
        E 32 b1 0b 3b
        E 16 b1 0b 33
        E 16 b1 0b 7f
        E 16 b1 0b 66
        E 16 b1 0b 11
        E 32 b1 0b 3b
        E 16 b1 0b 33
        E 16 b1 0b 11
        E 272 b1 0b 33
        E 0 81 42 00
        E 0 91 49 33
        E 16 b1 0b 7f
        E 16 b1 0b 66
        E 16 b1 0b 11
        E 32 b1 0b 3b
        E 16 b1 0b 33
        E 16 b1 0b 11
        E 272 b1 0b 33
        E 0 81 49 00
        E 0 91 47 33
        E 16 b1 0b 7f
        E 16 b1 0b 66
        E 16 b1 0b 11
        E 32 b1 0b 3b
        E 16 b1 0b 33
        E 16 b1 0b 11
        E 272 b1 0b 33
        E 0 81 47 00
        E 0 91 45 33
        E 16 b1 0b 7f
        E 16 b1 0b 66
        E 16 b1 0b 11
        E 32 b1 0b 3b
        E 16 b1 0b 33
        E 16 b1 0b 11
        E 272 b1 0b 33
        E 0 81 45 00
        E 0 91 3e 33
        E 16 b1 0b 7f
        E 16 b1 0b 66
        E 16 b1 0b 11
        E 32 b1 0b 3b
        E 16 b1 0b 33
        E 16 b1 0b 11
        E 272 b1 0b 33
        E 0 81 3e 00
        E 0 91 3d 33
        E 16 b1 0b 7f
        E 16 b1 0b 66
        E 16 b1 0b 11
        E 32 b1 0b 3b
        E 16 b1 0b 33
        E 16 b1 0b 11
        E 272 b1 0b 33
        E 0 81 3d 00
        E 0 91 3b 33
        E 16 b1 0b 7f
        E 16 b1 0b 66
        E 16 b1 0b 11
        E 32 b1 0b 3b
        E 16 b1 0b 33
        E 16 b1 0b 11
        E 96 81 3b 00
        E 0 b1 7b 00
        E 0 ff 2f 00
      >
    >
  >
  <TRACK {2F3B9BA7-9F44-411D-AFD9-E056A88F431A}
    NAME "NES - Triangle [ch2]"
    PEAKCOL 16744192
    BEAT -1
    AUTOMODE 0
    PANLAWFLAGS 3
    VOLPAN 1 0 -1 -1 1
    MUTESOLO 0 0 0
    IPHASE 0
    PLAYOFFS 0 1
    ISBUS 0 0
    BUSCOMP 0 0 0 0 0
    SHOWINMIX 1 0.6667 0.5 1 0.5 0 0 0
    FIXEDLANES 9 0 0 0 0
    SEL 0
    REC 0 5088 1 0 0 0 0 0
    VU 2
    TRACKHEIGHT 0 0 0 0 0 0 0
    INQ 0 0 0 0.5 100 0 0 100
    NCHAN 2
    FX 1
    TRACKID {2F3B9BA7-9F44-411D-AFD9-E056A88F431A}
    PERF 0
    MIDIOUT -1
    MAINSEND 1 0
    <FXCHAIN
      WNDRECT 24 52 700 560
      SHOW 0
      LASTSEL 0
      DOCKED 0
      BYPASS 0 0 0
      <JS "ReapNES Studio/ReapNES_Console.jsfx" ""
        2 15 1 10 80 10 100 2 1 15 1 5 60 10 80 1 1 0 50 0 0 15 1 0 100 0 0 0.500000 0.500000 0.400000 0.300000 0.800000 2 1 0 0 0 0 - - - - - - - - - - - - - - - - - - - - - - - - - -
      >
      FLOATPOS 0 0 0 0
      FXID {E31468D9-36E0-407A-B837-4B38EE327563}
      WAK 0 0
    >
    <ITEM
      POSITION 0
      LENGTH 9.160186900000001
      LOOP 0
      ALLTAKES 0
      FADEIN 0 0 0 0 0 0 0
      FADEOUT 0 0 0 0 0 0 0
      MUTE 0 0
      SEL 0
      IGUID {229C75CA-294E-43A9-8F42-0443B91B58E3}
      <SOURCE MIDI
        HASDATA 1 480 QN
        CCINTERP 32
        E 0 c2 26
        E 0 b2 0b 7f
        E 0 92 34 7f
        E 32 82 34 00
        E 0 b2 0b 7f
        E 0 92 32 7f
        E 32 82 32 00
        E 0 b2 0b 7f
        E 0 92 30 7f
        E 32 82 30 00
        E 0 b2 0b 7f
        E 0 92 34 7f
        E 32 82 34 00
        E 0 b2 0b 7f
        E 0 92 32 7f
        E 32 82 32 00
        E 0 b2 0b 7f
        E 0 92 30 7f
        E 32 82 30 00
        E 0 b2 0b 7f
        E 0 92 34 7f
        E 32 82 34 00
        E 0 b2 0b 7f
        E 0 92 32 7f
        E 32 82 32 00
        E 0 b2 0b 7f
        E 0 92 30 7f
        E 32 82 30 00
        E 0 b2 0b 7f
        E 0 92 34 7f
        E 32 82 34 00
        E 0 b2 0b 7f
        E 0 92 32 7f
        E 32 82 32 00
        E 0 b2 0b 7f
        E 0 92 30 7f
        E 32 82 30 00
        E 0 b2 0b 7f
        E 0 92 2c 7f
        E 32 82 2c 00
        E 0 b2 0b 7f
        E 0 92 2a 7f
        E 32 82 2a 00
        E 0 b2 0b 7f
        E 0 92 28 7f
        E 32 82 28 00
        E 0 b2 0b 7f
        E 0 92 2c 7f
        E 32 82 2c 00
        E 0 b2 0b 7f
        E 0 92 2a 7f
        E 32 82 2a 00
        E 0 b2 0b 7f
        E 0 92 28 7f
        E 32 82 28 00
        E 0 b2 0b 7f
        E 0 92 2c 7f
        E 32 82 2c 00
        E 0 b2 0b 7f
        E 0 92 2a 7f
        E 32 82 2a 00
        E 0 b2 0b 7f
        E 0 92 28 7f
        E 32 82 28 00
        E 0 b2 0b 7f
        E 0 92 2c 7f
        E 32 82 2c 00
        E 0 b2 0b 7f
        E 0 92 2a 7f
        E 32 82 2a 00
        E 0 b2 0b 7f
        E 0 92 28 7f
        E 32 82 28 00
        E 0 b2 0b 7f
        E 0 92 26 7f
        E 64 82 26 00
        E 320 b2 0b 7f
        E 0 92 2d 7f
        E 64 82 2d 00
        E 32 b2 0b 7f
        E 0 92 26 7f
        E 64 82 26 00
        E 128 b2 0b 7f
        E 0 92 26 7f
        E 64 82 26 00
        E 128 b2 0b 7f
        E 0 92 26 7f
        E 64 82 26 00
        E 128 b2 0b 7f
        E 0 92 26 7f
        E 64 82 26 00
        E 32 b2 0b 7f
        E 0 92 2d 7f
        E 32 82 2d 00
        E 64 b2 0b 7f
        E 0 92 26 7f
        E 64 82 26 00
        E 224 b2 0b 7f
        E 0 92 26 7f
        E 64 82 26 00
        E 320 b2 0b 7f
        E 0 92 2d 7f
        E 64 82 2d 00
        E 32 b2 0b 7f
        E 0 92 26 7f
        E 64 82 26 00
        E 128 b2 0b 7f
        E 0 92 26 7f
        E 64 82 26 00
        E 128 b2 0b 7f
        E 0 92 26 7f
        E 64 82 26 00
        E 128 b2 0b 7f
        E 0 92 26 7f
        E 64 82 26 00
        E 32 b2 0b 7f
        E 0 92 2d 7f
        E 32 82 2d 00
        E 64 b2 0b 7f
        E 0 92 26 7f
        E 64 82 26 00
        E 224 b2 0b 7f
        E 0 92 26 7f
        E 64 82 26 00
        E 320 b2 0b 7f
        E 0 92 2d 7f
        E 64 82 2d 00
        E 32 b2 0b 7f
        E 0 92 26 7f
        E 64 82 26 00
        E 128 b2 0b 7f
        E 0 92 26 7f
        E 64 82 26 00
        E 128 b2 0b 7f
        E 0 92 26 7f
        E 64 82 26 00
        E 128 b2 0b 7f
        E 0 92 26 7f
        E 64 82 26 00
        E 32 b2 0b 7f
        E 0 92 2d 7f
        E 32 82 2d 00
        E 64 b2 0b 7f
        E 0 92 26 7f
        E 64 82 26 00
        E 224 b2 0b 7f
        E 0 92 26 7f
        E 64 82 26 00
        E 320 b2 0b 7f
        E 0 92 2d 7f
        E 64 82 2d 00
        E 32 b2 0b 7f
        E 0 92 26 7f
        E 64 82 26 00
        E 128 b2 0b 7f
        E 0 92 26 7f
        E 64 82 26 00
        E 128 b2 0b 7f
        E 0 92 26 7f
        E 64 82 26 00
        E 128 b2 0b 7f
        E 0 92 26 7f
        E 64 82 26 00
        E 32 b2 0b 7f
        E 0 92 2d 7f
        E 32 82 2d 00
        E 64 b2 0b 7f
        E 0 92 26 7f
        E 64 82 26 00
        E 224 b2 0b 7f
        E 0 92 26 7f
        E 64 82 26 00
        E 320 b2 0b 7f
        E 0 92 2d 7f
        E 64 82 2d 00
        E 32 b2 0b 7f
        E 0 92 26 7f
        E 64 82 26 00
        E 128 b2 0b 7f
        E 0 92 26 7f
        E 64 82 26 00
        E 128 b2 0b 7f
        E 0 92 26 7f
        E 64 82 26 00
        E 128 b2 0b 7f
        E 0 92 26 7f
        E 64 82 26 00
        E 32 b2 0b 7f
        E 0 92 2d 7f
        E 32 82 2d 00
        E 64 b2 0b 7f
        E 0 92 26 7f
        E 64 82 26 00
        E 224 b2 0b 7f
        E 0 92 26 7f
        E 64 82 26 00
        E 320 b2 0b 7f
        E 0 92 2d 7f
        E 64 82 2d 00
        E 32 b2 0b 7f
        E 0 92 26 7f
        E 64 82 26 00
        E 128 b2 0b 7f
        E 0 92 26 7f
        E 64 82 26 00
        E 128 b2 0b 7f
        E 0 92 26 7f
        E 64 82 26 00
        E 48 b2 7b 00
        E 0 ff 2f 00
      >
    >
  >
  <TRACK {71FFECC0-6680-4837-B207-749BC05EE8BE}
    NAME "NES - Noise / Drums [ch3]"
    PEAKCOL 11184810
    BEAT -1
    AUTOMODE 0
    PANLAWFLAGS 3
    VOLPAN 1 0 -1 -1 1
    MUTESOLO 0 0 0
    IPHASE 0
    PLAYOFFS 0 1
    ISBUS 0 0
    BUSCOMP 0 0 0 0 0
    SHOWINMIX 1 0.6667 0.5 1 0.5 0 0 0
    FIXEDLANES 9 0 0 0 0
    SEL 0
    REC 0 5088 1 0 0 0 0 0
    VU 2
    TRACKHEIGHT 0 0 0 0 0 0 0
    INQ 0 0 0 0.5 100 0 0 100
    NCHAN 2
    FX 1
    TRACKID {71FFECC0-6680-4837-B207-749BC05EE8BE}
    PERF 0
    MIDIOUT -1
    MAINSEND 1 0
    <FXCHAIN
      WNDRECT 24 52 700 560
      SHOW 0
      LASTSEL 0
      DOCKED 0
      BYPASS 0 0 0
      <JS "ReapNES Studio/ReapNES_Console.jsfx" ""
        2 15 1 10 80 10 100 2 1 15 1 5 60 10 80 1 1 0 50 0 0 15 1 0 100 0 0 0.500000 0.500000 0.400000 0.300000 0.800000 3 1 0 0 0 0 - - - - - - - - - - - - - - - - - - - - - - - - - -
      >
      FLOATPOS 0 0 0 0
      FXID {6E7C1F8A-9B80-4D06-A072-0B82AB61F638}
      WAK 0 0
    >
    <ITEM
      POSITION 0
      LENGTH 9.160186900000001
      LOOP 0
      ALLTAKES 0
      FADEIN 0 0 0 0 0 0 0
      FADEOUT 0 0 0 0 0 0 0
      MUTE 0 0
      SEL 0
      IGUID {0743E027-9EC4-47B3-BD69-77BA3A4F41DD}
      <SOURCE MIDI
        HASDATA 1 480 QN
        CCINTERP 32
        E 0 93 2a 77
        E 768 83 2a 00
        E 0 93 2a 77
        E 160 83 2a 00
        E 32 93 2a 66
        E 64 83 2a 00
        E 32 93 2a 66
        E 64 83 2a 00
        E 32 93 2a 77
        E 96 83 2a 00
        E 0 93 2a 66
        E 64 83 2a 00
        E 32 93 2a 66
        E 64 83 2a 00
        E 32 93 2a 77
        E 160 83 2a 00
        E 32 93 2a 77
        E 160 83 2a 00
        E 32 93 2a 66
        E 64 83 2a 00
        E 32 93 2a 77
        E 96 83 2a 00
        E 0 93 2a 66
        E 64 83 2a 00
        E 32 93 2a 66
        E 64 83 2a 00
        E 32 93 2a 66
        E 64 83 2a 00
        E 32 93 2a 77
        E 160 83 2a 00
        E 32 93 2a 66
        E 64 83 2a 00
        E 32 93 2a 66
        E 64 83 2a 00
        E 32 93 2a 77
        E 96 83 2a 00
        E 0 93 2a 66
        E 64 83 2a 00
        E 32 93 2a 66
        E 64 83 2a 00
        E 32 93 2a 77
        E 160 83 2a 00
        E 32 93 2a 77
        E 160 83 2a 00
        E 32 93 2a 66
        E 64 83 2a 00
        E 32 93 2a 77
        E 96 83 2a 00
        E 0 93 2a 66
        E 64 83 2a 00
        E 32 93 2a 66
        E 64 83 2a 00
        E 32 93 2a 66
        E 64 83 2a 00
        E 32 93 2a 77
        E 160 83 2a 00
        E 32 93 2a 66
        E 64 83 2a 00
        E 32 93 2a 66
        E 64 83 2a 00
        E 32 93 2a 77
        E 96 83 2a 00
        E 0 93 2a 66
        E 64 83 2a 00
        E 32 93 2a 66
        E 64 83 2a 00
        E 32 93 2a 77
        E 160 83 2a 00
        E 32 93 2a 77
        E 160 83 2a 00
        E 32 93 2a 66
        E 64 83 2a 00
        E 32 93 2a 77
        E 96 83 2a 00
        E 0 93 2a 66
        E 64 83 2a 00
        E 32 93 2a 66
        E 64 83 2a 00
        E 32 93 2a 66
        E 64 83 2a 00
        E 32 93 2a 77
        E 160 83 2a 00
        E 32 93 2a 66
        E 64 83 2a 00
        E 32 93 2a 66
        E 64 83 2a 00
        E 32 93 2a 77
        E 96 83 2a 00
        E 0 93 2a 66
        E 64 83 2a 00
        E 32 93 2a 66
        E 64 83 2a 00
        E 32 93 2a 77
        E 160 83 2a 00
        E 32 93 2a 77
        E 160 83 2a 00
        E 32 93 2a 66
        E 64 83 2a 00
        E 32 93 2a 77
        E 96 83 2a 00
        E 0 93 2a 66
        E 64 83 2a 00
        E 32 93 2a 66
        E 64 83 2a 00
        E 32 93 2a 66
        E 64 83 2a 00
        E 32 93 2a 77
        E 160 83 2a 00
        E 32 93 2a 66
        E 64 83 2a 00
        E 32 93 2a 66
        E 64 83 2a 00
        E 32 93 2a 77
        E 96 83 2a 00
        E 0 93 2a 66
        E 64 83 2a 00
        E 32 93 2a 66
        E 64 83 2a 00
        E 32 93 2a 77
        E 160 83 2a 00
        E 32 93 2a 77
        E 160 83 2a 00
        E 32 93 2a 66
        E 64 83 2a 00
        E 32 93 2a 77
        E 96 83 2a 00
        E 0 93 2a 66
        E 64 83 2a 00
        E 32 93 2a 66
        E 64 83 2a 00
        E 32 93 2a 66
        E 64 83 2a 00
        E 32 93 2a 77
        E 160 83 2a 00
        E 32 93 2a 66
        E 64 83 2a 00
        E 32 93 2a 66
        E 64 83 2a 00
        E 32 93 2a 77
        E 96 83 2a 00
        E 0 93 2a 66
        E 64 83 2a 00
        E 32 93 2a 66
        E 64 83 2a 00
        E 32 93 2a 77
        E 160 83 2a 00
        E 32 93 2a 77
        E 112 83 2a 00
        E 0 b3 7b 00
        E 0 ff 2f 00
      >
    >
  >
>