<REAPER_PROJECT 0.1 "7.27/win64" 1707000000
  <NOTES 0 2
    |ReapNES Studio Project
    |MIDI Import - Ghosts_n_Goblins_title_rom_v1
  >
  RIPPLE 0
  GROUPOVERRIDE 0 0 0
  AUTOXFADE 129
  ENVATTACH 3
  POOLEDENVATTACH 0
  MIXERUIFLAGS 11 48
  ENVFADESZ10 40
  PEAKGAIN 1
  FEEDBACK 0
  PANLAW 1
  PROJOFFS 0 0 0
  MAXPROJLEN 0 0
  GRID 3199 8 1 8 1 0 0 0
  TIMEMODE 1 5 -1 30 0 0 -1
  VIDEO_CONFIG 0 0 65792
  PANMODE 3
  PANLAWFLAGS 3
  CURSOR 0
  ZOOM 100 0 0
  VZOOMEX 6 0
  USE_REC_CFG 0
  RECMODE 1
  SMPTESYNC 0 30 100 40 1000 300 0 0 1 0 0
  LOOP 0
  LOOPGRAN 0 4
  RECORD_PATH "Media" ""
  <RECORD_CFG
    ZXZhdxgAAQ==
  >
  <APPLYFX_CFG
  >
  RENDER_FILE ""
  RENDER_PATTERN ""
  RENDER_FMT 0 2 0
  RENDER_1X 0
  RENDER_RANGE 1 0 0 18 1000
  RENDER_RESAMPLE 3 0 1
  RENDER_ADDTOPROJ 0
  RENDER_STEMS 0
  RENDER_DITHER 0
  TIMELOCKMODE 1
  TEMPOENVLOCKMODE 1
  ITEMMIX 1
  DEFPITCHMODE 589824 0
  TAKELANE 1
  SAMPLERATE 44100 0 0
  <RENDER_CFG
    ZXZhdxgAAQ==
  >
  LOCK 1
  <METRONOME 6 2
    VOL 0.25 0.125
    BEATLEN 4
    FREQ 1760 880 1
    SAMPLES "" ""
    SPLIGNORE 0 0
    SPLDEF 2 660 "" 0
    SPLDEF 3 440 "" 0
    PATTERN 0 169
    PATTERNSTR ABBB
    MULT 1
  >
  GLOBAL_AUTO -1
  TEMPO 128.59999614200012 4 4
  PLAYRATE 1 0 0.25 4
  SELECTION 0 0
  SELECTION2 0 0
  MASTERAUTOMODE 0
  MASTERTRACKHEIGHT 0 0
  MASTERPEAKCOL 16576
  MASTERMUTESOLO 0
  MASTERTRACKVIEW 0 0.6667 0.5 0.5 0 0 0 0 0 0 0 0 0 0
  MASTERHWOUT 0 0 1 0 0 0 0 -1
  MASTER_NCH 2 2
  MASTER_VOLUME 1 0 -1 -1 1
  MASTER_PANMODE 3
  MASTER_PANLAWFLAGS 3
  MASTER_FX 1
  MASTER_SEL 0
  <MASTERPLAYSPEEDENV
    EGUID {2ACBC6F9-DBC2-4D96-A4E3-EA3E4CDDAA33}
    ACT 0 -1
    VIS 0 1 1
    LANEHEIGHT 0 0
    ARM 0
    DEFSHAPE 0 -1 -1
  >
  <TEMPOENVEX
    EGUID {E8FAEE48-51EB-457A-820E-6D55E737886E}
    ACT 1 -1
    VIS 1 0 1
    LANEHEIGHT 0 0
    ARM 0
    DEFSHAPE 1 -1 -1
  >
  <PROJBAY
  >
  <TRACK {3D7D1178-EB07-414D-B81E-5D1ACC5CDA23}
    NAME "NES - Pulse 1 [ch0]"
    PEAKCOL 16576606
    BEAT -1
    AUTOMODE 0
    PANLAWFLAGS 3
    VOLPAN 1 0 -1 -1 1
    MUTESOLO 0 0 0
    IPHASE 0
    PLAYOFFS 0 1
    ISBUS 0 0
    BUSCOMP 0 0 0 0 0
    SHOWINMIX 1 0.6667 0.5 1 0.5 0 0 0
    FIXEDLANES 9 0 0 0 0
    SEL 1
    REC 1 5088 1 0 0 0 0 0
    VU 2
    TRACKHEIGHT 0 0 0 0 0 0 0
    INQ 0 0 0 0.5 100 0 0 100
    NCHAN 2
    FX 1
    TRACKID {3D7D1178-EB07-414D-B81E-5D1ACC5CDA23}
    PERF 0
    MIDIOUT -1
    MAINSEND 1 0
    <FXCHAIN
      WNDRECT 24 52 700 560
      SHOW 0
      LASTSEL 0
      DOCKED 0
      BYPASS 0 0 0
      <JS "ReapNES Studio/ReapNES_Console.jsfx" ""
        2 15 1 10 80 10 100 2 1 15 1 5 60 10 80 1 1 0 50 0 0 15 1 0 100 0 0 0.500000 0.500000 0.400000 0.300000 0.800000 0 1 0 0 0 0 - - - - - - - - - - - - - - - - - - - - - - - - - -
      >
      FLOATPOS 0 0 0 0
      FXID {EFD64CFD-74BC-4E2E-8573-51B7638E2F21}
      WAK 0 0
    >
    <ITEM
      POSITION 0
      LENGTH 60.435460600000006
      LOOP 0
      ALLTAKES 0
      FADEIN 0 0 0 0 0 0 0
      FADEOUT 0 0 0 0 0 0 0
      MUTE 0 0
      SEL 0
      IGUID {B10CE768-C9D3-4019-A35A-E3F36F9A3839}
      <SOURCE MIDI
        HASDATA 1 480 QN
        CCINTERP 32
        E 0 c0 50
        E 0 b0 0c 20
        E 0 b0 0b 7f
        E 0 90 3f 7f
        E 80 80 3f 00
        E 0 90 42 7f
        E 160 80 42 00
        E 0 90 40 7f
        E 80 80 40 00
        E 0 90 3f 7f
        E 80 80 3f 00
        E 0 90 42 7f
        E 160 80 42 00
        E 0 90 40 7f
        E 80 80 40 00
        E 0 90 3f 7f
        E 80 80 3f 00
        E 0 90 42 7f
        E 160 80 42 00
        E 0 90 40 7f
        E 80 80 40 00
        E 0 90 3f 7f
        E 80 80 3f 00
        E 0 90 42 7f
        E 160 80 42 00
        E 0 90 40 7f
        E 80 80 40 00
        E 0 90 42 7f
        E 80 80 42 00
        E 0 90 44 7f
        E 80 80 44 00
        E 0 90 43 7f
        E 80 80 43 00
        E 0 90 42 7f
        E 160 80 42 00
        E 0 90 44 7f
        E 80 80 44 00
        E 0 90 43 7f
        E 80 80 43 00
        E 0 90 42 7f
        E 160 80 42 00
        E 0 90 44 7f
        E 80 80 44 00
        E 0 90 43 7f
        E 80 80 43 00
        E 0 90 42 7f
        E 160 80 42 00
        E 0 90 44 7f
        E 80 80 44 00
        E 0 90 43 7f
        E 80 80 43 00
        E 0 90 42 7f
        E 80 b0 0b 19
        E 0 80 42 00
        E 0 90 2a 19
        E 112 80 2a 00
        E 0 90 2f 19
        E 112 80 2f 00
        E 0 90 31 19
        E 96 80 31 00
        E 0 90 2f 19
        E 112 80 2f 00
        E 0 90 31 19
        E 112 80 31 00
        E 0 90 36 19
        E 96 80 36 00
        E 0 90 31 19
        E 112 80 31 00
        E 0 90 36 19
        E 112 80 36 00
        E 0 90 3b 19
        E 96 80 3b 00
        E 0 90 36 19
        E 112 80 36 00
        E 0 90 3b 19
        E 112 80 3b 00
        E 0 90 3d 19
        E 96 80 3d 00
        E 0 90 36 19
        E 112 80 36 00
        E 0 90 3b 19
        E 112 80 3b 00
        E 0 90 3d 19
        E 96 80 3d 00
        E 0 90 3b 19
        E 112 80 3b 00
        E 0 90 3d 19
        E 112 80 3d 00
        E 0 90 42 19
        E 96 80 42 00
        E 0 90 3d 19
        E 112 80 3d 00
        E 0 90 42 19
        E 112 80 42 00
        E 0 90 46 19
        E 96 80 46 00
        E 0 90 42 19
        E 112 80 42 00
        E 0 90 46 19
        E 112 80 46 00
        E 0 90 4b 19
        E 96 80 4b 00
        E 768 b0 0b 44
        E 0 90 43 44
        E 768 80 43 00
        E 0 90 44 44
        E 256 80 44 00
        E 0 90 45 44
        E 256 80 45 00
        E 0 90 44 44
        E 256 80 44 00
        E 0 90 43 44
        E 256 80 43 00
        E 0 90 42 44
        E 256 80 42 00
        E 0 90 43 44
        E 256 80 43 00
        E 128 90 38 44
        E 1664 80 38 00
        E 1152 90 43 44
        E 640 80 43 00
        E 0 90 42 44
        E 960 80 42 00
        E 0 90 40 44
        E 320 80 40 00
        E 0 90 3f 44
        E 320 80 3f 00
        E 0 90 3d 44
        E 160 80 3d 00
        E 0 90 3f 44
        E 160 80 3f 00
        E 160 90 3d 44
        E 80 80 3d 00
        E 0 90 51 44
        E 16 80 51 00
        E 16 b0 0c 10
        E 0 b0 0b 7f
        E 0 90 3e 7f
        E 16 80 3e 00
        E 0 90 45 7f
        E 16 80 45 00
        E 0 90 4a 7f
        E 16 80 4a 00
        E 0 90 41 7f
        E 16 80 41 00
        E 0 90 3b 7f
        E 16 80 3b 00
        E 0 90 37 7f
        E 16 80 37 00
        E 0 90 50 7f
        E 16 80 50 00
        E 0 90 4b 7f
        E 16 80 4b 00
        E 0 90 47 7f
        E 16 80 47 00
        E 0 90 43 7f
        E 16 80 43 00
        E 0 90 40 7f
        E 16 80 40 00
        E 192 b0 0c 20
        E 0 b0 0b 44
        E 0 90 3d 44
        E 160 80 3d 00
        E 0 90 3f 44
        E 160 80 3f 00
        E 160 90 31 44
        E 160 80 31 00
        E 0 90 33 44
        E 160 80 33 00
        E 0 90 31 44
        E 160 80 31 00
        E 0 90 33 44
        E 320 80 33 00
        E 0 90 37 44
        E 320 80 37 00
        E 320 90 43 44
        E 640 80 43 00
        E 0 90 42 44
        E 960 80 42 00
        E 0 90 40 44
        E 320 80 40 00
        E 0 90 3f 44
        E 320 80 3f 00
        E 0 90 3d 44
        E 96 b0 0b 4c
        E 0 80 3d 00
        E 0 90 4e 4c
        E 96 80 4e 00
        E 0 90 4d 4c
        E 96 80 4d 00
        E 0 90 3f 4c
        E 96 80 3f 00
        E 0 90 4b 4c
        E 96 80 4b 00
        E 0 90 49 4c
        E 96 80 49 00
        E 0 90 3d 4c
        E 96 80 3d 00
        E 0 90 45 4c
        E 96 80 45 00
        E 0 90 44 4c
        E 96 80 44 00
        E 0 90 43 4c
        E 96 80 43 00
        E 0 90 3c 4c
        E 96 80 3c 00
        E 0 90 42 4c
        E 96 80 42 00
        E 0 90 40 4c
        E 96 80 40 00
        E 0 90 3b 4c
        E 96 80 3b 00
        E 4160 b0 0b 44
        E 0 90 43 44
        E 768 80 43 00
        E 0 90 44 44
        E 256 80 44 00
        E 0 90 45 44
        E 256 80 45 00
        E 0 90 44 44
        E 256 80 44 00
        E 0 90 43 44
        E 256 80 43 00
        E 0 90 42 44
        E 256 80 42 00
        E 0 90 43 44
        E 256 80 43 00
        E 128 90 38 44
        E 1664 80 38 00
        E 4192 90 43 44
        E 640 80 43 00
        E 0 90 42 44
        E 960 80 42 00
        E 0 90 40 44
        E 320 80 40 00
        E 0 90 3f 44
        E 112 80 3f 00
        E 0 90 51 44
        E 16 80 51 00
        E 16 b0 0c 10
        E 0 b0 0b 7f
        E 0 90 3e 7f
        E 16 80 3e 00
        E 0 90 45 7f
        E 16 80 45 00
        E 0 90 4a 7f
        E 16 80 4a 00
        E 0 90 41 7f
        E 16 80 41 00
        E 0 90 3b 7f
        E 16 80 3b 00
        E 0 90 37 7f
        E 16 80 37 00
        E 0 90 50 7f
        E 16 80 50 00
        E 0 90 4b 7f
        E 16 80 4b 00
        E 0 90 47 7f
        E 16 80 47 00
        E 0 90 43 7f
        E 16 80 43 00
        E 0 90 40 7f
        E 16 80 40 00
        E 160 b0 0c 20
        E 0 b0 0b 44
        E 0 90 3f 44
        E 160 80 3f 00
        E 160 90 3d 44
        E 160 80 3d 00
        E 0 90 3f 44
        E 160 80 3f 00
        E 160 90 3d 44
        E 160 80 3d 00
        E 0 90 3f 44
        E 160 80 3f 00
        E 160 90 31 44
        E 160 80 31 00
        E 0 90 33 44
        E 160 80 33 00
        E 0 90 31 44
        E 144 b0 0b 4c
        E 0 80 31 00
        E 0 90 4e 4c
        E 96 80 4e 00
        E 0 90 4d 4c
        E 96 80 4d 00
        E 0 90 3f 4c
        E 96 80 3f 00
        E 0 90 4b 4c
        E 96 80 4b 00
        E 0 90 49 4c
        E 96 80 49 00
        E 0 90 3d 4c
        E 96 80 3d 00
        E 0 90 45 4c
        E 96 80 45 00
        E 0 90 44 4c
        E 96 80 44 00
        E 0 90 43 4c
        E 96 80 43 00
        E 0 90 3c 4c
        E 96 80 3c 00
        E 0 90 42 4c
        E 96 80 42 00
        E 0 90 40 4c
        E 96 80 40 00
        E 0 90 3b 4c
        E 96 80 3b 00
        E 4160 b0 0b 44
        E 0 90 43 44
        E 768 80 43 00
        E 0 90 44 44
        E 256 80 44 00
        E 0 90 45 44
        E 256 80 45 00
        E 0 90 44 44
        E 256 80 44 00
        E 0 90 43 44
        E 256 80 43 00
        E 0 90 42 44
        E 256 80 42 00
        E 0 90 43 44
        E 256 80 43 00
        E 128 90 38 44
        E 1664 80 38 00
        E 4192 90 43 44
        E 640 80 43 00
        E 0 90 42 44
        E 960 80 42 00
        E 0 90 40 44
        E 320 80 40 00
        E 0 90 3f 44
        E 320 80 3f 00
        E 0 90 3d 44
        E 160 80 3d 00
        E 0 90 3f 44
        E 16 80 3f 00
        E 0 90 51 44
        E 16 80 51 00
        E 16 b0 0c 10
        E 0 b0 0b 7f
        E 0 90 3e 7f
        E 16 80 3e 00
        E 0 90 45 7f
        E 16 80 45 00
        E 0 90 4a 7f
        E 16 80 4a 00
        E 0 90 41 7f
        E 16 80 41 00
        E 0 90 3b 7f
        E 16 80 3b 00
        E 0 90 37 7f
        E 16 80 37 00
        E 0 90 50 7f
        E 16 80 50 00
        E 0 90 4b 7f
        E 16 80 4b 00
        E 0 90 47 7f
        E 16 80 47 00
        E 0 90 43 7f
        E 16 80 43 00
        E 0 90 40 7f
        E 16 80 40 00
        E 96 b0 0c 20
        E 0 b0 0b 44
        E 0 90 3d 44
        E 160 80 3d 00
        E 0 90 3f 44
        E 160 80 3f 00
        E 160 90 3d 44
        E 160 80 3d 00
        E 0 90 3f 44
        E 160 80 3f 00
        E 160 90 31 44
        E 160 80 31 00
        E 0 90 33 44
        E 160 80 33 00
        E 0 90 31 44
        E 160 80 31 00
        E 0 90 33 44
        E 320 80 33 00
        E 0 90 37 44
        E 48 b0 0b 4c
        E 0 80 37 00
        E 0 90 4e 4c
        E 96 80 4e 00
        E 0 90 4d 4c
        E 96 80 4d 00
        E 0 90 3f 4c
        E 96 80 3f 00
        E 0 90 4b 4c
        E 96 80 4b 00
        E 0 90 49 4c
        E 96 80 49 00
        E 0 90 3d 4c
        E 96 80 3d 00
        E 0 90 45 4c
        E 96 80 45 00
        E 0 90 44 4c
        E 96 80 44 00
        E 0 90 43 4c
        E 96 80 43 00
        E 0 90 3c 4c
        E 96 80 3c 00
        E 0 90 42 4c
        E 96 80 42 00
        E 0 90 40 4c
        E 96 80 40 00
        E 0 90 3b 4c
        E 96 80 3b 00
        E 1024 b0 0b 7f
        E 0 90 46 7f
        E 64 80 46 00
        E 0 90 45 7f
        E 64 80 45 00
        E 0 90 44 7f
        E 64 80 44 00
        E 0 90 43 7f
        E 64 80 43 00
        E 0 90 42 7f
        E 128 80 42 00
        E 0 90 40 7f
        E 64 80 40 00
        E 0 90 3f 7f
        E 128 80 3f 00
        E 0 90 3d 7f
        E 64 80 3d 00
        E 0 90 3c 7f
        E 64 80 3c 00
        E 0 90 3b 7f
        E 128 80 3b 00
        E 0 90 39 7f
        E 128 80 39 00
        E 0 90 38 7f
        E 64 80 38 00
        E 0 90 3b 7f
        E 64 80 3b 00
        E 0 90 39 7f
        E 128 80 39 00
        E 0 90 38 7f
        E 64 80 38 00
        E 0 90 37 7f
        E 64 80 37 00
        E 0 90 36 7f
        E 64 80 36 00
        E 0 90 35 7f
        E 64 80 35 00
        E 0 90 34 7f
        E 64 80 34 00
        E 0 90 33 7f
        E 64 80 33 00
        E 0 90 31 7f
        E 64 80 31 00
        E 0 90 30 7f
        E 64 80 30 00
        E 0 90 2f 7f
        E 128 80 2f 00
        E 0 90 2e 7f
        E 64 80 2e 00
        E 0 90 2d 7f
        E 64 80 2d 00
        E 0 90 2c 7f
        E 64 80 2c 00
        E 0 90 36 7f
        E 1024 80 36 00
        E 0 90 39 7f
        E 1024 80 39 00
        E 0 90 3c 7f
        E 832 80 3c 00
        E 320 b0 7b 00
        E 0 ff 2f 00
      >
    >
  >
  <TRACK {3707B442-0462-46DB-842F-5B71D31C0E98}
    NAME "NES - Pulse 2 [ch1]"
    PEAKCOL 10092441
    BEAT -1
    AUTOMODE 0
    PANLAWFLAGS 3
    VOLPAN 1 0 -1 -1 1
    MUTESOLO 0 0 0
    IPHASE 0
    PLAYOFFS 0 1
    ISBUS 0 0
    BUSCOMP 0 0 0 0 0
    SHOWINMIX 1 0.6667 0.5 1 0.5 0 0 0
    FIXEDLANES 9 0 0 0 0
    SEL 0
    REC 0 5088 1 0 0 0 0 0
    VU 2
    TRACKHEIGHT 0 0 0 0 0 0 0
    INQ 0 0 0 0.5 100 0 0 100
    NCHAN 2
    FX 1
    TRACKID {3707B442-0462-46DB-842F-5B71D31C0E98}
    PERF 0
    MIDIOUT -1
    MAINSEND 1 0
    <FXCHAIN
      WNDRECT 24 52 700 560
      SHOW 0
      LASTSEL 0
      DOCKED 0
      BYPASS 0 0 0
      <JS "ReapNES Studio/ReapNES_Console.jsfx" ""
        2 15 1 10 80 10 100 2 1 15 1 5 60 10 80 1 1 0 50 0 0 15 1 0 100 0 0 0.500000 0.500000 0.400000 0.300000 0.800000 1 1 0 0 0 0 - - - - - - - - - - - - - - - - - - - - - - - - - -
      >
      FLOATPOS 0 0 0 0
      FXID {923595D9-697E-4603-9FA0-F9C989D15EA0}
      WAK 0 0
    >
    <ITEM
      POSITION 0
      LENGTH 60.435460600000006
      LOOP 0
      ALLTAKES 0
      FADEIN 0 0 0 0 0 0 0
      FADEOUT 0 0 0 0 0 0 0
      MUTE 0 0
      SEL 0
      IGUID {E56C4F5A-D23A-4E94-9A2D-75896B97C9AB}
      <SOURCE MIDI
        HASDATA 1 480 QN
        CCINTERP 32
        E 0 c1 51
        E 0 b1 0c 20
        E 0 b1 0b 7f
        E 0 91 3b 7f
        E 80 81 3b 00
        E 0 91 3f 7f
        E 80 81 3f 00
        E 0 91 3d 7f
        E 80 81 3d 00
        E 0 91 3c 7f
        E 80 81 3c 00
        E 0 91 3b 7f
        E 80 81 3b 00
        E 0 91 3f 7f
        E 80 81 3f 00
        E 0 91 3d 7f
        E 80 81 3d 00
        E 0 91 3c 7f
        E 80 81 3c 00
        E 0 91 3b 7f
        E 80 81 3b 00
        E 0 91 3f 7f
        E 80 81 3f 00
        E 0 91 3d 7f
        E 80 81 3d 00
        E 0 91 3c 7f
        E 80 81 3c 00
        E 0 91 3b 7f
        E 80 81 3b 00
        E 0 91 3f 7f
        E 80 81 3f 00
        E 0 91 3d 7f
        E 80 81 3d 00
        E 0 91 3c 7f
        E 80 81 3c 00
        E 0 91 3d 7f
        E 80 81 3d 00
        E 0 91 40 7f
        E 80 81 40 00
        E 0 91 3f 7f
        E 160 81 3f 00
        E 0 91 3d 7f
        E 80 81 3d 00
        E 0 91 40 7f
        E 80 81 40 00
        E 0 91 3f 7f
        E 160 81 3f 00
        E 0 91 3d 7f
        E 80 81 3d 00
        E 0 91 40 7f
        E 80 81 40 00
        E 0 91 3f 7f
        E 160 81 3f 00
        E 0 91 3d 7f
        E 80 81 3d 00
        E 0 91 40 7f
        E 80 81 40 00
        E 0 91 3f 7f
        E 128 81 3f 00
        E 0 91 17 7f
        E 16 b1 0c 10
        E 0 81 17 00
        E 0 91 4d 7f
        E 16 81 4d 00
        E 0 91 47 7f
        E 16 81 47 00
        E 48 91 5f 7f
        E 16 81 5f 00
        E 0 91 5b 7f
        E 16 81 5b 00
        E 0 91 17 7f
        E 16 81 17 00
        E 0 91 57 7f
        E 16 81 57 00
        E 0 91 54 7f
        E 32 81 54 00
        E 0 91 51 7f
        E 16 81 51 00
        E 0 91 4e 7f
        E 16 81 4e 00
        E 0 91 16 7f
        E 16 81 16 00
        E 0 91 4c 7f
        E 16 81 4c 00
        E 0 91 49 7f
        E 16 81 49 00
        E 0 91 16 7f
        E 16 81 16 00
        E 0 91 47 7f
        E 16 81 47 00
        E 0 91 44 7f
        E 16 81 44 00
        E 0 91 18 7f
        E 16 81 18 00
        E 0 91 42 7f
        E 16 81 42 00
        E 0 91 40 7f
        E 16 81 40 00
        E 96 b1 0c 20
        E 0 b1 0b 2a
        E 0 91 2f 2a
        E 112 81 2f 00
        E 0 91 31 2a
        E 96 81 31 00
        E 0 91 2f 2a
        E 112 81 2f 00
        E 0 91 31 2a
        E 112 81 31 00
        E 0 91 36 2a
        E 96 81 36 00
        E 0 91 31 2a
        E 112 81 31 00
        E 0 91 36 2a
        E 112 81 36 00
        E 0 91 3b 2a
        E 96 81 3b 00
        E 0 91 36 2a
        E 112 81 36 00
        E 0 91 3b 2a
        E 112 81 3b 00
        E 0 91 3d 2a
        E 96 81 3d 00
        E 0 91 36 2a
        E 112 81 36 00
        E 0 91 3b 2a
        E 112 81 3b 00
        E 0 91 3d 2a
        E 96 81 3d 00
        E 0 91 3b 2a
        E 112 81 3b 00
        E 0 91 3d 2a
        E 112 81 3d 00
        E 0 91 42 2a
        E 96 81 42 00
        E 0 91 3d 2a
        E 112 81 3d 00
        E 0 91 42 2a
        E 112 81 42 00
        E 0 91 46 2a
        E 96 81 46 00
        E 768 b1 0b 44
        E 0 91 3f 44
        E 2304 81 3f 00
        E 128 91 33 44
        E 1664 81 33 00
        E 1152 91 3f 44
        E 400 81 3f 00
        E 0 91 47 44
        E 16 b1 0c 10
        E 0 b1 0b 7f
        E 0 81 47 00
        E 0 91 32 7f
        E 32 81 32 00
        E 0 91 31 7f
        E 16 81 31 00
        E 0 91 43 7f
        E 16 81 43 00
        E 0 91 44 7f
        E 16 81 44 00
        E 0 91 46 7f
        E 16 81 46 00
        E 0 91 47 7f
        E 32 81 47 00
        E 0 91 46 7f
        E 16 81 46 00
        E 0 91 44 7f
        E 16 81 44 00
        E 0 91 43 7f
        E 32 81 43 00
        E 0 91 44 7f
        E 16 81 44 00
        E 0 91 46 7f
        E 16 81 46 00
        E 0 91 47 7f
        E 32 81 47 00
        E 0 91 46 7f
        E 16 81 46 00
        E 0 91 44 7f
        E 16 81 44 00
        E 0 91 43 7f
        E 32 81 43 00
        E 0 91 44 7f
        E 16 81 44 00
        E 0 91 46 7f
        E 16 81 46 00
        E 0 91 47 7f
        E 32 81 47 00
        E 0 91 32 7f
        E 32 81 32 00
        E 0 91 31 7f
        E 16 81 31 00
        E 0 91 43 7f
        E 16 81 43 00
        E 0 91 44 7f
        E 16 81 44 00
        E 0 91 46 7f
        E 16 81 46 00
        E 0 91 47 7f
        E 32 81 47 00
        E 0 91 46 7f
        E 16 81 46 00
        E 0 91 44 7f
        E 16 81 44 00
        E 0 91 43 7f
        E 32 81 43 00
        E 0 91 44 7f
        E 16 81 44 00
        E 0 91 46 7f
        E 16 81 46 00
        E 0 91 47 7f
        E 32 81 47 00
        E 0 91 46 7f
        E 16 81 46 00
        E 0 91 44 7f
        E 16 81 44 00
        E 0 91 43 7f
        E 32 81 43 00
        E 0 91 44 7f
        E 16 81 44 00
        E 0 91 46 7f
        E 16 81 46 00
        E 0 91 47 7f
        E 32 81 47 00
        E 0 91 32 7f
        E 32 81 32 00
        E 0 91 31 7f
        E 16 81 31 00
        E 0 91 43 7f
        E 16 81 43 00
        E 0 91 44 7f
        E 16 81 44 00
        E 0 91 46 7f
        E 16 81 46 00
        E 0 91 47 7f
        E 32 81 47 00
        E 0 91 46 7f
        E 16 81 46 00
        E 0 91 44 7f
        E 16 81 44 00
        E 0 91 43 7f
        E 32 81 43 00
        E 0 91 44 7f
        E 16 81 44 00
        E 0 91 46 7f
        E 16 81 46 00
        E 0 91 47 7f
        E 32 81 47 00
        E 0 91 46 7f
        E 16 81 46 00
        E 0 91 44 7f
        E 16 81 44 00
        E 0 91 43 7f
        E 32 81 43 00
        E 0 91 44 7f
        E 16 81 44 00
        E 0 91 46 7f
        E 16 81 46 00
        E 0 91 47 7f
        E 32 81 47 00
        E 0 91 46 7f
        E 16 81 46 00
        E 0 91 44 7f
        E 16 81 44 00
        E 0 91 43 7f
        E 16 81 43 00
        E 304 b1 0c 20
        E 0 b1 0b 44
        E 0 91 39 44
        E 640 81 39 00
        E 160 91 39 44
        E 80 81 39 00
        E 0 91 4d 44
        E 16 b1 0c 10
        E 0 b1 0b 7f
        E 0 81 4d 00
        E 0 91 6b 7f
        E 16 81 6b 00
        E 0 91 3d 7f
        E 16 81 3d 00
        E 0 91 43 7f
        E 16 81 43 00
        E 0 91 52 7f
        E 16 81 52 00
        E 0 91 46 7f
        E 16 81 46 00
        E 0 91 3e 7f
        E 16 81 3e 00
        E 0 91 39 7f
        E 16 81 39 00
        E 0 91 3d 7f
        E 16 81 3d 00
        E 0 91 3b 7f
        E 16 81 3b 00
        E 0 91 39 7f
        E 16 81 39 00
        E 0 91 38 7f
        E 16 81 38 00
        E 0 91 36 7f
        E 16 81 36 00
        E 192 b1 0c 20
        E 0 b1 0b 44
        E 0 91 39 44
        E 320 81 39 00
        E 160 91 2e 44
        E 320 81 2e 00
        E 160 91 2e 44
        E 320 81 2e 00
        E 0 91 33 44
        E 320 81 33 00
        E 208 91 47 44
        E 16 b1 0c 10
        E 0 b1 0b 7f
        E 0 81 47 00
        E 0 91 32 7f
        E 32 81 32 00
        E 0 91 31 7f
        E 16 81 31 00
        E 0 91 43 7f
        E 16 81 43 00
        E 0 91 44 7f
        E 16 81 44 00
        E 0 91 46 7f
        E 16 81 46 00
        E 0 91 47 7f
        E 32 81 47 00
        E 0 91 46 7f
        E 16 81 46 00
        E 0 91 44 7f
        E 16 81 44 00
        E 0 91 43 7f
        E 32 81 43 00
        E 0 91 44 7f
        E 16 81 44 00
        E 0 91 46 7f
        E 16 81 46 00
        E 0 91 47 7f
        E 32 81 47 00
        E 0 91 46 7f
        E 16 81 46 00
        E 0 91 44 7f
        E 16 81 44 00
        E 0 91 43 7f
        E 32 81 43 00
        E 0 91 44 7f
        E 16 81 44 00
        E 0 91 46 7f
        E 16 81 46 00
        E 0 91 47 7f
        E 32 81 47 00
        E 0 91 32 7f
        E 32 81 32 00
        E 0 91 31 7f
        E 16 81 31 00
        E 0 91 43 7f
        E 16 81 43 00
        E 0 91 44 7f
        E 16 81 44 00
        E 0 91 46 7f
        E 16 81 46 00
        E 0 91 47 7f
        E 32 81 47 00
        E 0 91 46 7f
        E 16 81 46 00
        E 0 91 44 7f
        E 16 81 44 00
        E 0 91 43 7f
        E 32 81 43 00
        E 0 91 44 7f
        E 16 81 44 00
        E 0 91 46 7f
        E 16 81 46 00
        E 0 91 47 7f
        E 32 81 47 00
        E 0 91 46 7f
        E 16 81 46 00
        E 0 91 44 7f
        E 16 81 44 00
        E 0 91 43 7f
        E 32 81 43 00
        E 0 91 44 7f
        E 16 81 44 00
        E 0 91 46 7f
        E 16 81 46 00
        E 0 91 47 7f
        E 32 81 47 00
        E 0 91 32 7f
        E 32 81 32 00
        E 0 91 31 7f
        E 16 81 31 00
        E 0 91 43 7f
        E 16 81 43 00
        E 0 91 44 7f
        E 16 81 44 00
        E 0 91 46 7f
        E 16 81 46 00
        E 0 91 47 7f
        E 32 81 47 00
        E 0 91 46 7f
        E 16 81 46 00
        E 0 91 44 7f
        E 16 81 44 00
        E 0 91 43 7f
        E 32 81 43 00
        E 0 91 44 7f
        E 16 81 44 00
        E 0 91 46 7f
        E 16 81 46 00
        E 0 91 47 7f
        E 32 81 47 00
        E 0 91 46 7f
        E 16 81 46 00
        E 0 91 44 7f
        E 16 81 44 00
        E 0 91 43 7f
        E 32 81 43 00
        E 0 91 44 7f
        E 16 81 44 00
        E 0 91 46 7f
        E 16 81 46 00
        E 0 91 47 7f
        E 32 81 47 00
        E 0 91 46 7f
        E 16 81 46 00
        E 0 91 44 7f
        E 16 81 44 00
        E 0 91 43 7f
        E 16 81 43 00
        E 496 b1 0c 20
        E 0 b1 0b 44
        E 0 91 3f 44
        E 320 81 3f 00
        E 0 91 39 44
        E 416 b1 0b 4c
        E 0 81 39 00
        E 0 91 45 4c
        E 96 81 45 00
        E 0 91 46 4c
        E 96 81 46 00
        E 0 91 47 4c
        E 96 81 47 00
        E 0 91 42 4c
        E 96 81 42 00
        E 0 91 43 4c
        E 96 81 43 00
        E 0 91 44 4c
        E 96 81 44 00
        E 0 91 3d 4c
        E 96 81 3d 00
        E 0 91 3f 4c
        E 192 81 3f 00
        E 0 91 42 4c
        E 96 81 42 00
        E 0 91 43 4c
        E 96 81 43 00
        E 0 91 44 4c
        E 96 81 44 00
        E 0 91 40 4c
        E 96 81 40 00
        E 4160 b1 0b 44
        E 0 91 3f 44
        E 2304 81 3f 00
        E 128 91 33 44
        E 1664 81 33 00
        E 4192 91 3f 44
        E 400 81 3f 00
        E 0 91 47 44
        E 16 b1 0c 10
        E 0 b1 0b 7f
        E 0 81 47 00
        E 0 91 32 7f
        E 32 81 32 00
        E 0 91 31 7f
        E 16 81 31 00
        E 0 91 43 7f
        E 16 81 43 00
        E 0 91 44 7f
        E 16 81 44 00
        E 0 91 46 7f
        E 16 81 46 00
        E 0 91 47 7f
        E 32 81 47 00
        E 0 91 46 7f
        E 16 81 46 00
        E 0 91 44 7f
        E 16 81 44 00
        E 0 91 43 7f
        E 32 81 43 00
        E 0 91 44 7f
        E 16 81 44 00
        E 0 91 46 7f
        E 16 81 46 00
        E 0 91 47 7f
        E 32 81 47 00
        E 0 91 46 7f
        E 16 81 46 00
        E 0 91 44 7f
        E 16 81 44 00
        E 0 91 43 7f
        E 32 81 43 00
        E 0 91 44 7f
        E 16 81 44 00
        E 0 91 46 7f
        E 16 81 46 00
        E 0 91 47 7f
        E 32 81 47 00
        E 0 91 32 7f
        E 32 81 32 00
        E 0 91 31 7f
        E 16 81 31 00
        E 0 91 43 7f
        E 16 81 43 00
        E 0 91 44 7f
        E 16 81 44 00
        E 0 91 46 7f
        E 16 81 46 00
        E 0 91 47 7f
        E 32 81 47 00
        E 0 91 46 7f
        E 16 81 46 00
        E 0 91 44 7f
        E 16 81 44 00
        E 0 91 43 7f
        E 32 81 43 00
        E 0 91 44 7f
        E 16 81 44 00
        E 0 91 46 7f
        E 16 81 46 00
        E 0 91 47 7f
        E 32 81 47 00
        E 0 91 46 7f
        E 16 81 46 00
        E 0 91 44 7f
        E 16 81 44 00
        E 0 91 43 7f
        E 32 81 43 00
        E 0 91 44 7f
        E 16 81 44 00
        E 0 91 46 7f
        E 16 81 46 00
        E 0 91 47 7f
        E 32 81 47 00
        E 0 91 32 7f
        E 32 81 32 00
        E 0 91 31 7f
        E 16 81 31 00
        E 0 91 43 7f
        E 16 81 43 00
        E 0 91 44 7f
        E 16 81 44 00
        E 0 91 46 7f
        E 16 81 46 00
        E 0 91 47 7f
        E 32 81 47 00
        E 0 91 46 7f
        E 16 81 46 00
        E 0 91 44 7f
        E 16 81 44 00
        E 0 91 43 7f
        E 32 81 43 00
        E 0 91 44 7f
        E 16 81 44 00
        E 0 91 46 7f
        E 16 81 46 00
        E 0 91 47 7f
        E 32 81 47 00
        E 0 91 46 7f
        E 16 81 46 00
        E 0 91 44 7f
        E 16 81 44 00
        E 0 91 43 7f
        E 32 81 43 00
        E 0 91 44 7f
        E 16 81 44 00
        E 0 91 46 7f
        E 16 81 46 00
        E 0 91 47 7f
        E 32 81 47 00
        E 0 91 46 7f
        E 16 81 46 00
        E 0 91 44 7f
        E 16 81 44 00
        E 0 91 43 7f
        E 16 81 43 00
        E 304 b1 0c 20
        E 0 b1 0b 44
        E 0 91 39 44
        E 112 81 39 00
        E 0 91 4d 44
        E 16 b1 0c 10
        E 0 b1 0b 7f
        E 0 81 4d 00
        E 0 91 6b 7f
        E 16 81 6b 00
        E 0 91 3d 7f
        E 16 81 3d 00
        E 0 91 43 7f
        E 16 81 43 00
        E 0 91 52 7f
        E 16 81 52 00
        E 0 91 46 7f
        E 16 81 46 00
        E 0 91 3e 7f
        E 16 81 3e 00
        E 0 91 39 7f
        E 16 81 39 00
        E 0 91 3d 7f
        E 16 81 3d 00
        E 0 91 3b 7f
        E 16 81 3b 00
        E 0 91 39 7f
        E 16 81 39 00
        E 0 91 38 7f
        E 16 81 38 00
        E 0 91 36 7f
        E 16 81 36 00
        E 480 b1 0c 20
        E 0 b1 0b 44
        E 0 91 39 44
        E 320 81 39 00
        E 160 91 39 44
        E 320 81 39 00
        E 160 91 2e 44
        E 320 81 2e 00
        E 144 b1 0b 4c
        E 0 91 45 4c
        E 96 81 45 00
        E 0 91 46 4c
        E 96 81 46 00
        E 0 91 47 4c
        E 96 81 47 00
        E 0 91 42 4c
        E 96 81 42 00
        E 0 91 43 4c
        E 96 81 43 00
        E 0 91 44 4c
        E 96 81 44 00
        E 0 91 3d 4c
        E 96 81 3d 00
        E 0 91 3f 4c
        E 192 81 3f 00
        E 0 91 47 4c
        E 16 b1 0c 10
        E 0 b1 0b 7f
        E 0 81 47 00
        E 0 91 32 7f
        E 32 81 32 00
        E 0 91 31 7f
        E 16 81 31 00
        E 0 91 43 7f
        E 16 81 43 00
        E 0 91 44 7f
        E 16 81 44 00
        E 0 91 46 7f
        E 16 81 46 00
        E 0 91 47 7f
        E 32 81 47 00
        E 0 91 46 7f
        E 16 81 46 00
        E 0 91 44 7f
        E 16 81 44 00
        E 0 91 43 7f
        E 32 81 43 00
        E 0 91 44 7f
        E 16 81 44 00
        E 0 91 46 7f
        E 16 81 46 00
        E 0 91 47 7f
        E 32 81 47 00
        E 0 91 46 7f
        E 16 81 46 00
        E 0 91 44 7f
        E 16 81 44 00
        E 0 91 43 7f
        E 32 81 43 00
        E 0 91 44 7f
        E 16 81 44 00
        E 0 91 46 7f
        E 16 81 46 00
        E 0 91 47 7f
        E 32 81 47 00
        E 0 91 32 7f
        E 32 81 32 00
        E 0 91 31 7f
        E 16 81 31 00
        E 0 91 43 7f
        E 16 81 43 00
        E 0 91 44 7f
        E 16 81 44 00
        E 0 91 46 7f
        E 16 81 46 00
        E 0 91 47 7f
        E 32 81 47 00
        E 0 91 46 7f
        E 16 81 46 00
        E 0 91 44 7f
        E 16 81 44 00
        E 0 91 43 7f
        E 32 81 43 00
        E 0 91 44 7f
        E 16 81 44 00
        E 0 91 46 7f
        E 16 81 46 00
        E 0 91 47 7f
        E 32 81 47 00
        E 0 91 46 7f
        E 16 81 46 00
        E 0 91 44 7f
        E 16 81 44 00
        E 0 91 43 7f
        E 32 81 43 00
        E 0 91 44 7f
        E 16 81 44 00
        E 0 91 46 7f
        E 16 81 46 00
        E 0 91 47 7f
        E 32 81 47 00
        E 0 91 32 7f
        E 32 81 32 00
        E 0 91 31 7f
        E 16 81 31 00
        E 0 91 43 7f
        E 16 81 43 00
        E 0 91 44 7f
        E 16 81 44 00
        E 0 91 46 7f
        E 16 81 46 00
        E 0 91 47 7f
        E 16 81 47 00
        E 3648 b1 0c 20
        E 0 b1 0b 44
        E 0 91 3f 44
        E 2304 81 3f 00
        E 128 91 33 44
        E 1664 81 33 00
        E 4192 91 3f 44
        E 400 81 3f 00
        E 0 91 47 44
        E 16 b1 0c 10
        E 0 b1 0b 7f
        E 0 81 47 00
        E 0 91 32 7f
        E 32 81 32 00
        E 0 91 31 7f
        E 16 81 31 00
        E 0 91 43 7f
        E 16 81 43 00
        E 0 91 44 7f
        E 16 81 44 00
        E 0 91 46 7f
        E 16 81 46 00
        E 0 91 47 7f
        E 32 81 47 00
        E 0 91 46 7f
        E 16 81 46 00
        E 0 91 44 7f
        E 16 81 44 00
        E 0 91 43 7f
        E 32 81 43 00
        E 0 91 44 7f
        E 16 81 44 00
        E 0 91 46 7f
        E 16 81 46 00
        E 0 91 47 7f
        E 32 81 47 00
        E 0 91 46 7f
        E 16 81 46 00
        E 0 91 44 7f
        E 16 81 44 00
        E 0 91 43 7f
        E 32 81 43 00
        E 0 91 44 7f
        E 16 81 44 00
        E 0 91 46 7f
        E 16 81 46 00
        E 0 91 47 7f
        E 32 81 47 00
        E 0 91 32 7f
        E 32 81 32 00
        E 0 91 31 7f
        E 16 81 31 00
        E 0 91 43 7f
        E 16 81 43 00
        E 0 91 44 7f
        E 16 81 44 00
        E 0 91 46 7f
        E 16 81 46 00
        E 0 91 47 7f
        E 32 81 47 00
        E 0 91 46 7f
        E 16 81 46 00
        E 0 91 44 7f
        E 16 81 44 00
        E 0 91 43 7f
        E 32 81 43 00
        E 0 91 44 7f
        E 16 81 44 00
        E 0 91 46 7f
        E 16 81 46 00
        E 0 91 47 7f
        E 32 81 47 00
        E 0 91 46 7f
        E 16 81 46 00
        E 0 91 44 7f
        E 16 81 44 00
        E 0 91 43 7f
        E 32 81 43 00
        E 0 91 44 7f
        E 16 81 44 00
        E 0 91 46 7f
        E 16 81 46 00
        E 0 91 47 7f
        E 32 81 47 00
        E 0 91 32 7f
        E 32 81 32 00
        E 0 91 31 7f
        E 16 81 31 00
        E 0 91 43 7f
        E 16 81 43 00
        E 0 91 44 7f
        E 16 81 44 00
        E 0 91 46 7f
        E 16 81 46 00
        E 0 91 47 7f
        E 32 81 47 00
        E 0 91 46 7f
        E 16 81 46 00
        E 0 91 44 7f
        E 16 81 44 00
        E 0 91 43 7f
        E 32 81 43 00
        E 0 91 44 7f
        E 16 81 44 00
        E 0 91 46 7f
        E 16 81 46 00
        E 0 91 47 7f
        E 32 81 47 00
        E 0 91 46 7f
        E 16 81 46 00
        E 0 91 44 7f
        E 16 81 44 00
        E 0 91 43 7f
        E 32 81 43 00
        E 0 91 44 7f
        E 16 81 44 00
        E 0 91 46 7f
        E 16 81 46 00
        E 0 91 47 7f
        E 32 81 47 00
        E 0 91 46 7f
        E 16 81 46 00
        E 0 91 44 7f
        E 16 81 44 00
        E 0 91 43 7f
        E 16 81 43 00
        E 304 b1 0c 20
        E 0 b1 0b 44
        E 0 91 39 44
        E 496 81 39 00
        E 0 91 4d 44
        E 16 b1 0c 10
        E 0 b1 0b 7f
        E 0 81 4d 00
        E 0 91 6b 7f
        E 16 81 6b 00
        E 0 91 3d 7f
        E 16 81 3d 00
        E 0 91 43 7f
        E 16 81 43 00
        E 0 91 52 7f
        E 16 81 52 00
        E 0 91 46 7f
        E 16 81 46 00
        E 0 91 3e 7f
        E 16 81 3e 00
        E 0 91 39 7f
        E 16 81 39 00
        E 0 91 3d 7f
        E 16 81 3d 00
        E 0 91 3b 7f
        E 16 81 3b 00
        E 0 91 39 7f
        E 16 81 39 00
        E 0 91 38 7f
        E 16 81 38 00
        E 0 91 36 7f
        E 16 81 36 00
        E 96 b1 0c 20
        E 0 b1 0b 44
        E 0 91 39 44
        E 320 81 39 00
        E 160 91 39 44
        E 320 81 39 00
        E 160 91 2e 44
        E 320 81 2e 00
        E 160 91 2e 44
        E 320 81 2e 00
        E 0 91 33 44
        E 48 b1 0b 4c
        E 0 81 33 00
        E 0 91 45 4c
        E 96 81 45 00
        E 0 91 46 4c
        E 96 81 46 00
        E 0 91 47 4c
        E 96 81 47 00
        E 0 91 42 4c
        E 96 81 42 00
        E 0 91 43 4c
        E 96 81 43 00
        E 0 91 47 4c
        E 16 b1 0c 10
        E 0 b1 0b 7f
        E 0 81 47 00
        E 0 91 32 7f
        E 32 81 32 00
        E 0 91 31 7f
        E 16 81 31 00
        E 0 91 43 7f
        E 16 81 43 00
        E 0 91 44 7f
        E 16 81 44 00
        E 0 91 46 7f
        E 16 81 46 00
        E 0 91 47 7f
        E 32 81 47 00
        E 0 91 46 7f
        E 16 81 46 00
        E 0 91 44 7f
        E 16 81 44 00
        E 0 91 43 7f
        E 32 81 43 00
        E 0 91 44 7f
        E 16 81 44 00
        E 0 91 46 7f
        E 16 81 46 00
        E 0 91 47 7f
        E 32 81 47 00
        E 0 91 46 7f
        E 16 81 46 00
        E 0 91 44 7f
        E 16 81 44 00
        E 0 91 43 7f
        E 32 81 43 00
        E 0 91 44 7f
        E 16 81 44 00
        E 0 91 46 7f
        E 16 81 46 00
        E 0 91 47 7f
        E 32 81 47 00
        E 0 91 32 7f
        E 32 81 32 00
        E 0 91 31 7f
        E 16 81 31 00
        E 0 91 43 7f
        E 16 81 43 00
        E 0 91 44 7f
        E 16 81 44 00
        E 0 91 46 7f
        E 16 81 46 00
        E 0 91 47 7f
        E 32 81 47 00
        E 0 91 46 7f
        E 16 81 46 00
        E 0 91 44 7f
        E 16 81 44 00
        E 0 91 43 7f
        E 32 81 43 00
        E 0 91 44 7f
        E 16 81 44 00
        E 0 91 46 7f
        E 16 81 46 00
        E 0 91 47 7f
        E 32 81 47 00
        E 0 91 46 7f
        E 16 81 46 00
        E 0 91 44 7f
        E 16 81 44 00
        E 0 91 43 7f
        E 32 81 43 00
        E 0 91 44 7f
        E 16 81 44 00
        E 0 91 46 7f
        E 16 81 46 00
        E 0 91 47 7f
        E 32 81 47 00
        E 0 91 32 7f
        E 32 81 32 00
        E 0 91 31 7f
        E 16 81 31 00
        E 0 91 43 7f
        E 16 81 43 00
        E 0 91 44 7f
        E 16 81 44 00
        E 0 91 46 7f
        E 16 81 46 00
        E 0 91 47 7f
        E 32 81 47 00
        E 0 91 46 7f
        E 16 81 46 00
        E 0 91 44 7f
        E 16 81 44 00
        E 0 91 43 7f
        E 32 81 43 00
        E 0 91 44 7f
        E 16 81 44 00
        E 0 91 46 7f
        E 16 81 46 00
        E 0 91 47 7f
        E 32 81 47 00
        E 0 91 46 7f
        E 16 81 46 00
        E 0 91 44 7f
        E 16 81 44 00
        E 0 91 43 7f
        E 32 81 43 00
        E 0 91 44 7f
        E 16 81 44 00
        E 0 91 46 7f
        E 16 81 46 00
        E 0 91 47 7f
        E 32 81 47 00
        E 0 91 46 7f
        E 16 81 46 00
        E 0 91 44 7f
        E 16 81 44 00
        E 0 91 43 7f
        E 16 81 43 00
        E 832 b1 0c 20
        E 0 91 42 7f
        E 128 81 42 00
        E 0 91 40 7f
        E 64 81 40 00
        E 0 91 3f 7f
        E 128 81 3f 00
        E 0 91 3d 7f
        E 64 81 3d 00
        E 0 91 3c 7f
        E 64 81 3c 00
        E 0 91 3b 7f
        E 128 81 3b 00
        E 0 91 39 7f
        E 128 81 39 00
        E 0 91 38 7f
        E 64 81 38 00
        E 0 91 3b 7f
        E 64 81 3b 00
        E 0 91 39 7f
        E 128 81 39 00
        E 0 91 38 7f
        E 64 81 38 00
        E 0 91 37 7f
        E 64 81 37 00
        E 0 91 36 7f
        E 64 81 36 00
        E 0 91 35 7f
        E 64 81 35 00
        E 0 91 34 7f
        E 64 81 34 00
        E 0 91 33 7f
        E 64 81 33 00
        E 0 91 31 7f
        E 64 81 31 00
        E 0 91 30 7f
        E 64 81 30 00
        E 0 91 2f 7f
        E 128 81 2f 00
        E 0 91 2e 7f
        E 64 81 2e 00
        E 0 91 2d 7f
        E 64 81 2d 00
        E 0 91 2c 7f
        E 64 81 2c 00
        E 0 91 30 7f
        E 1024 81 30 00
        E 0 91 36 7f
        E 1024 81 36 00
        E 0 91 38 7f
        E 832 81 38 00
        E 320 b1 7b 00
        E 0 ff 2f 00
      >
    >
  >
  <TRACK {A60FF71C-4BAD-4BF1-808C-FF7E60AC510C}
    NAME "NES - Triangle [ch2]"
    PEAKCOL 16744192
    BEAT -1
    AUTOMODE 0
    PANLAWFLAGS 3
    VOLPAN 1 0 -1 -1 1
    MUTESOLO 0 0 0
    IPHASE 0
    PLAYOFFS 0 1
    ISBUS 0 0
    BUSCOMP 0 0 0 0 0
    SHOWINMIX 1 0.6667 0.5 1 0.5 0 0 0
    FIXEDLANES 9 0 0 0 0
    SEL 0
    REC 0 5088 1 0 0 0 0 0
    VU 2
    TRACKHEIGHT 0 0 0 0 0 0 0
    INQ 0 0 0 0.5 100 0 0 100
    NCHAN 2
    FX 1
    TRACKID {A60FF71C-4BAD-4BF1-808C-FF7E60AC510C}
    PERF 0
    MIDIOUT -1
    MAINSEND 1 0
    <FXCHAIN
      WNDRECT 24 52 700 560
      SHOW 0
      LASTSEL 0
      DOCKED 0
      BYPASS 0 0 0
      <JS "ReapNES Studio/ReapNES_Console.jsfx" ""
        2 15 1 10 80 10 100 2 1 15 1 5 60 10 80 1 1 0 50 0 0 15 1 0 100 0 0 0.500000 0.500000 0.400000 0.300000 0.800000 2 1 0 0 0 0 - - - - - - - - - - - - - - - - - - - - - - - - - -
      >
      FLOATPOS 0 0 0 0
      FXID {13BE2ADD-D72C-4A29-855F-496D856E6C99}
      WAK 0 0
    >
    <ITEM
      POSITION 0
      LENGTH 60.435460600000006
      LOOP 0
      ALLTAKES 0
      FADEIN 0 0 0 0 0 0 0
      FADEOUT 0 0 0 0 0 0 0
      MUTE 0 0
      SEL 0
      IGUID {6A7CFAC9-3382-4A2F-BB3E-BEB0567ABCD2}
      <SOURCE MIDI
        HASDATA 1 480 QN
        CCINTERP 32
        E 0 c2 26
        E 0 b2 0b 7f
        E 0 92 37 7f
        E 80 82 37 00
        E 0 b2 0b 7f
        E 0 92 3a 7f
        E 80 82 3a 00
        E 0 b2 0b 7f
        E 0 92 39 7f
        E 80 82 39 00
        E 0 b2 0b 7f
        E 0 92 38 7f
        E 80 82 38 00
        E 0 b2 0b 7f
        E 0 92 37 7f
        E 80 82 37 00
        E 0 b2 0b 7f
        E 0 92 3a 7f
        E 80 82 3a 00
        E 0 b2 0b 7f
        E 0 92 39 7f
        E 80 82 39 00
        E 0 b2 0b 7f
        E 0 92 38 7f
        E 80 82 38 00
        E 0 b2 0b 7f
        E 0 92 37 7f
        E 80 82 37 00
        E 0 b2 0b 7f
        E 0 92 3a 7f
        E 80 82 3a 00
        E 0 b2 0b 7f
        E 0 92 39 7f
        E 80 82 39 00
        E 0 b2 0b 7f
        E 0 92 38 7f
        E 80 82 38 00
        E 0 b2 0b 7f
        E 0 92 37 7f
        E 80 82 37 00
        E 0 b2 0b 7f
        E 0 92 3a 7f
        E 80 82 3a 00
        E 0 b2 0b 7f
        E 0 92 39 7f
        E 80 82 39 00
        E 0 b2 0b 7f
        E 0 92 38 7f
        E 80 82 38 00
        E 0 b2 0b 7f
        E 0 92 39 7f
        E 80 82 39 00
        E 0 b2 0b 7f
        E 0 92 3c 7f
        E 80 82 3c 00
        E 0 b2 0b 7f
        E 0 92 3b 7f
        E 80 82 3b 00
        E 0 b2 0b 7f
        E 0 92 3a 7f
        E 80 82 3a 00
        E 0 b2 0b 7f
        E 0 92 39 7f
        E 80 82 39 00
        E 0 b2 0b 7f
        E 0 92 3c 7f
        E 80 82 3c 00
        E 0 b2 0b 7f
        E 0 92 3b 7f
        E 80 82 3b 00
        E 0 b2 0b 7f
        E 0 92 3a 7f
        E 80 82 3a 00
        E 0 b2 0b 7f
        E 0 92 39 7f
        E 80 82 39 00
        E 0 b2 0b 7f
        E 0 92 3c 7f
        E 80 82 3c 00
        E 0 b2 0b 7f
        E 0 92 3b 7f
        E 80 82 3b 00
        E 0 b2 0b 7f
        E 0 92 3a 7f
        E 80 82 3a 00
        E 0 b2 0b 7f
        E 0 92 39 7f
        E 80 82 39 00
        E 0 b2 0b 7f
        E 0 92 3c 7f
        E 80 82 3c 00
        E 0 b2 0b 7f
        E 0 92 3b 7f
        E 80 82 3b 00
        E 0 b2 0b 7f
        E 0 92 3a 7f
        E 80 82 3a 00
        E 640 b2 0b 7f
        E 0 92 2a 7f
        E 112 82 2a 00
        E 0 b2 0b 7f
        E 0 92 2f 7f
        E 112 82 2f 00
        E 0 b2 0b 7f
        E 0 92 31 7f
        E 96 82 31 00
        E 0 b2 0b 7f
        E 0 92 2f 7f
        E 112 82 2f 00
        E 0 b2 0b 7f
        E 0 92 31 7f
        E 112 82 31 00
        E 0 b2 0b 7f
        E 0 92 36 7f
        E 96 82 36 00
        E 0 b2 0b 7f
        E 0 92 31 7f
        E 112 82 31 00
        E 0 b2 0b 7f
        E 0 92 36 7f
        E 112 82 36 00
        E 0 b2 0b 7f
        E 0 92 3a 7f
        E 96 82 3a 00
        E 0 b2 0b 7f
        E 0 92 36 7f
        E 112 82 36 00
        E 0 b2 0b 7f
        E 0 92 3a 7f
        E 112 82 3a 00
        E 0 b2 0b 7f
        E 0 92 3d 7f
        E 96 82 3d 00
        E 0 b2 0b 7f
        E 0 92 36 7f
        E 112 82 36 00
        E 0 b2 0b 7f
        E 0 92 3a 7f
        E 112 82 3a 00
        E 0 b2 0b 7f
        E 0 92 3d 7f
        E 96 82 3d 00
        E 0 b2 0b 7f
        E 0 92 3a 7f
        E 112 82 3a 00
        E 0 b2 0b 7f
        E 0 92 3d 7f
        E 112 82 3d 00
        E 0 b2 0b 7f
        E 0 92 41 7f
        E 96 82 41 00
        E 768 b2 0b 7f
        E 0 92 30 7f
        E 1024 82 30 00
        E 0 b2 0b 7f
        E 0 92 33 7f
        E 256 82 33 00
        E 0 b2 0b 7f
        E 0 92 34 7f
        E 256 82 34 00
        E 0 b2 0b 7f
        E 0 92 36 7f
        E 512 82 36 00
        E 0 b2 0b 7f
        E 0 92 37 7f
        E 256 82 37 00
        E 128 b2 0b 7f
        E 0 92 2c 7f
        E 1664 82 2c 00
        E 832 b2 0b 7f
        E 0 92 2c 7f
        E 160 82 2c 00
        E 0 b2 0b 7f
        E 0 92 2f 7f
        E 160 82 2f 00
        E 0 b2 0b 7f
        E 0 92 33 7f
        E 160 82 33 00
        E 0 b2 0b 7f
        E 0 92 27 7f
        E 160 82 27 00
        E 0 b2 0b 7f
        E 0 92 2c 7f
        E 160 82 2c 00
        E 0 b2 0b 7f
        E 0 92 33 7f
        E 480 82 33 00
        E 0 b2 0b 7f
        E 0 92 2c 7f
        E 160 82 2c 00
        E 0 b2 0b 7f
        E 0 92 2f 7f
        E 160 82 2f 00
        E 0 b2 0b 7f
        E 0 92 33 7f
        E 160 82 33 00
        E 0 b2 0b 7f
        E 0 92 27 7f
        E 160 82 27 00
        E 0 b2 0b 7f
        E 0 92 2c 7f
        E 160 82 2c 00
        E 0 b2 0b 7f
        E 0 92 33 7f
        E 480 82 33 00
        E 0 b2 0b 7f
        E 0 92 2d 7f
        E 160 82 2d 00
        E 0 b2 0b 7f
        E 0 92 30 7f
        E 160 82 30 00
        E 0 b2 0b 7f
        E 0 92 33 7f
        E 160 82 33 00
        E 0 b2 0b 7f
        E 0 92 27 7f
        E 160 82 27 00
        E 0 b2 0b 7f
        E 0 92 2d 7f
        E 160 82 2d 00
        E 0 b2 0b 7f
        E 0 92 33 7f
        E 480 82 33 00
        E 0 b2 0b 7f
        E 0 92 2d 7f
        E 160 82 2d 00
        E 0 b2 0b 7f
        E 0 92 30 7f
        E 160 82 30 00
        E 0 b2 0b 7f
        E 0 92 33 7f
        E 160 82 33 00
        E 0 b2 0b 7f
        E 0 92 27 7f
        E 160 82 27 00
        E 0 b2 0b 7f
        E 0 92 2d 7f
        E 160 82 2d 00
        E 0 b2 0b 7f
        E 0 92 33 7f
        E 480 82 33 00
        E 0 b2 0b 7f
        E 0 92 2c 7f
        E 160 82 2c 00
        E 0 b2 0b 7f
        E 0 92 2f 7f
        E 160 82 2f 00
        E 0 b2 0b 7f
        E 0 92 33 7f
        E 160 82 33 00
        E 0 b2 0b 7f
        E 0 92 27 7f
        E 160 82 27 00
        E 0 b2 0b 7f
        E 0 92 2c 7f
        E 160 82 2c 00
        E 0 b2 0b 7f
        E 0 92 33 7f
        E 480 82 33 00
        E 0 b2 0b 7f
        E 0 92 2c 7f
        E 160 82 2c 00
        E 0 b2 0b 7f
        E 0 92 2f 7f
        E 160 82 2f 00
        E 0 b2 0b 7f
        E 0 92 33 7f
        E 160 82 33 00
        E 0 b2 0b 7f
        E 0 92 27 7f
        E 160 82 27 00
        E 0 b2 0b 7f
        E 0 92 2c 7f
        E 160 82 2c 00
        E 0 b2 0b 7f
        E 0 92 33 7f
        E 480 82 33 00
        E 0 b2 0b 7f
        E 0 92 2d 7f
        E 96 82 2d 00
        E 48 b2 0b 7f
        E 0 92 4e 7f
        E 96 82 4e 00
        E 0 b2 0b 7f
        E 0 92 4d 7f
        E 96 82 4d 00
        E 0 b2 0b 7f
        E 0 92 3f 7f
        E 96 82 3f 00
        E 0 b2 0b 7f
        E 0 92 4b 7f
        E 96 82 4b 00
        E 0 b2 0b 7f
        E 0 92 49 7f
        E 96 82 49 00
        E 0 b2 0b 7f
        E 0 92 3d 7f
        E 96 82 3d 00
        E 0 b2 0b 7f
        E 0 92 45 7f
        E 96 82 45 00
        E 0 b2 0b 7f
        E 0 92 44 7f
        E 96 82 44 00
        E 0 b2 0b 7f
        E 0 92 43 7f
        E 96 82 43 00
        E 0 b2 0b 7f
        E 0 92 3c 7f
        E 96 82 3c 00
        E 0 b2 0b 7f
        E 0 92 41 7f
        E 96 82 41 00
        E 0 b2 0b 7f
        E 0 92 40 7f
        E 96 82 40 00
        E 0 b2 0b 7f
        E 0 92 3a 7f
        E 96 82 3a 00
        E 4112 b2 0b 7f
        E 0 92 30 7f
        E 1024 82 30 00
        E 0 b2 0b 7f
        E 0 92 33 7f
        E 256 82 33 00
        E 0 b2 0b 7f
        E 0 92 34 7f
        E 256 82 34 00
        E 0 b2 0b 7f
        E 0 92 36 7f
        E 512 82 36 00
        E 0 b2 0b 7f
        E 0 92 37 7f
        E 256 82 37 00
        E 128 b2 0b 7f
        E 0 92 2c 7f
        E 1664 82 2c 00
        E 3872 b2 0b 7f
        E 0 92 2c 7f
        E 160 82 2c 00
        E 0 b2 0b 7f
        E 0 92 2f 7f
        E 160 82 2f 00
        E 0 b2 0b 7f
        E 0 92 33 7f
        E 160 82 33 00
        E 0 b2 0b 7f
        E 0 92 27 7f
        E 160 82 27 00
        E 0 b2 0b 7f
        E 0 92 2c 7f
        E 160 82 2c 00
        E 0 b2 0b 7f
        E 0 92 33 7f
        E 480 82 33 00
        E 0 b2 0b 7f
        E 0 92 2c 7f
        E 160 82 2c 00
        E 0 b2 0b 7f
        E 0 92 2f 7f
        E 160 82 2f 00
        E 0 b2 0b 7f
        E 0 92 33 7f
        E 160 82 33 00
        E 0 b2 0b 7f
        E 0 92 27 7f
        E 160 82 27 00
        E 0 b2 0b 7f
        E 0 92 2c 7f
        E 160 82 2c 00
        E 0 b2 0b 7f
        E 0 92 33 7f
        E 480 82 33 00
        E 0 b2 0b 7f
        E 0 92 2d 7f
        E 160 82 2d 00
        E 0 b2 0b 7f
        E 0 92 30 7f
        E 160 82 30 00
        E 0 b2 0b 7f
        E 0 92 33 7f
        E 160 82 33 00
        E 0 b2 0b 7f
        E 0 92 27 7f
        E 160 82 27 00
        E 0 b2 0b 7f
        E 0 92 2d 7f
        E 160 82 2d 00
        E 0 b2 0b 7f
        E 0 92 33 7f
        E 480 82 33 00
        E 0 b2 0b 7f
        E 0 92 2d 7f
        E 160 82 2d 00
        E 0 b2 0b 7f
        E 0 92 30 7f
        E 160 82 30 00
        E 0 b2 0b 7f
        E 0 92 33 7f
        E 160 82 33 00
        E 0 b2 0b 7f
        E 0 92 27 7f
        E 144 82 27 00
        E 48 b2 0b 7f
        E 0 92 4e 7f
        E 96 82 4e 00
        E 0 b2 0b 7f
        E 0 92 4d 7f
        E 96 82 4d 00
        E 0 b2 0b 7f
        E 0 92 3f 7f
        E 96 82 3f 00
        E 0 b2 0b 7f
        E 0 92 4b 7f
        E 96 82 4b 00
        E 0 b2 0b 7f
        E 0 92 49 7f
        E 96 82 49 00
        E 0 b2 0b 7f
        E 0 92 3d 7f
        E 96 82 3d 00
        E 0 b2 0b 7f
        E 0 92 45 7f
        E 96 82 45 00
        E 0 b2 0b 7f
        E 0 92 44 7f
        E 96 82 44 00
        E 0 b2 0b 7f
        E 0 92 43 7f
        E 96 82 43 00
        E 0 b2 0b 7f
        E 0 92 3c 7f
        E 96 82 3c 00
        E 0 b2 0b 7f
        E 0 92 41 7f
        E 96 82 41 00
        E 0 b2 0b 7f
        E 0 92 40 7f
        E 96 82 40 00
        E 0 b2 0b 7f
        E 0 92 3a 7f
        E 96 82 3a 00
        E 4112 b2 0b 7f
        E 0 92 30 7f
        E 1024 82 30 00
        E 0 b2 0b 7f
        E 0 92 33 7f
        E 256 82 33 00
        E 0 b2 0b 7f
        E 0 92 34 7f
        E 256 82 34 00
        E 0 b2 0b 7f
        E 0 92 36 7f
        E 512 82 36 00
        E 0 b2 0b 7f
        E 0 92 37 7f
        E 256 82 37 00
        E 128 b2 0b 7f
        E 0 92 2c 7f
        E 1664 82 2c 00
        E 3872 b2 0b 7f
        E 0 92 2c 7f
        E 160 82 2c 00
        E 0 b2 0b 7f
        E 0 92 2f 7f
        E 160 82 2f 00
        E 0 b2 0b 7f
        E 0 92 33 7f
        E 160 82 33 00
        E 0 b2 0b 7f
        E 0 92 27 7f
        E 160 82 27 00
        E 0 b2 0b 7f
        E 0 92 2c 7f
        E 160 82 2c 00
        E 0 b2 0b 7f
        E 0 92 33 7f
        E 480 82 33 00
        E 0 b2 0b 7f
        E 0 92 2c 7f
        E 160 82 2c 00
        E 0 b2 0b 7f
        E 0 92 2f 7f
        E 160 82 2f 00
        E 0 b2 0b 7f
        E 0 92 33 7f
        E 160 82 33 00
        E 0 b2 0b 7f
        E 0 92 27 7f
        E 160 82 27 00
        E 0 b2 0b 7f
        E 0 92 2c 7f
        E 160 82 2c 00
        E 0 b2 0b 7f
        E 0 92 33 7f
        E 480 82 33 00
        E 0 b2 0b 7f
        E 0 92 2d 7f
        E 160 82 2d 00
        E 0 b2 0b 7f
        E 0 92 30 7f
        E 160 82 30 00
        E 0 b2 0b 7f
        E 0 92 33 7f
        E 160 82 33 00
        E 0 b2 0b 7f
        E 0 92 27 7f
        E 160 82 27 00
        E 0 b2 0b 7f
        E 0 92 2d 7f
        E 160 82 2d 00
        E 0 b2 0b 7f
        E 0 92 33 7f
        E 480 82 33 00
        E 0 b2 0b 7f
        E 0 92 2d 7f
        E 160 82 2d 00
        E 0 b2 0b 7f
        E 0 92 30 7f
        E 160 82 30 00
        E 0 b2 0b 7f
        E 0 92 33 7f
        E 160 82 33 00
        E 0 b2 0b 7f
        E 0 92 27 7f
        E 160 82 27 00
        E 0 b2 0b 7f
        E 0 92 2d 7f
        E 160 82 2d 00
        E 0 b2 0b 7f
        E 0 92 33 7f
        E 208 82 33 00
        E 48 b2 0b 7f
        E 0 92 4e 7f
        E 96 82 4e 00
        E 0 b2 0b 7f
        E 0 92 4d 7f
        E 96 82 4d 00
        E 0 b2 0b 7f
        E 0 92 3f 7f
        E 96 82 3f 00
        E 0 b2 0b 7f
        E 0 92 4b 7f
        E 96 82 4b 00
        E 0 b2 0b 7f
        E 0 92 49 7f
        E 96 82 49 00
        E 0 b2 0b 7f
        E 0 92 3d 7f
        E 96 82 3d 00
        E 0 b2 0b 7f
        E 0 92 45 7f
        E 96 82 45 00
        E 0 b2 0b 7f
        E 0 92 44 7f
        E 96 82 44 00
        E 0 b2 0b 7f
        E 0 92 43 7f
        E 96 82 43 00
        E 0 b2 0b 7f
        E 0 92 3c 7f
        E 96 82 3c 00
        E 0 b2 0b 7f
        E 0 92 41 7f
        E 96 82 41 00
        E 0 b2 0b 7f
        E 0 92 40 7f
        E 96 82 40 00
        E 0 b2 0b 7f
        E 0 92 3a 7f
        E 96 82 3a 00
        E 976 b2 0b 7f
        E 0 92 27 7f
        E 256 82 27 00
        E 0 b2 0b 7f
        E 0 92 25 7f
        E 256 82 25 00
        E 0 b2 0b 7f
        E 0 92 24 7f
        E 256 82 24 00
        E 0 b2 0b 7f
        E 0 92 23 7f
        E 512 82 23 00
        E 0 b2 0b 7f
        E 0 92 22 7f
        E 256 82 22 00
        E 0 b2 0b 7f
        E 0 92 21 7f
        E 256 82 21 00
        E 0 b2 0b 7f
        E 0 92 20 7f
        E 256 82 20 00
        E 0 b2 0b 7f
        E 0 92 24 7f
        E 1024 82 24 00
        E 0 b2 0b 7f
        E 0 92 18 7f
        E 1088 82 18 00
        E 0 b2 0b 7f
        E 0 92 24 7f
        E 64 82 24 00
        E 0 b2 0b 7f
        E 0 92 18 7f
        E 64 82 18 00
        E 0 b2 0b 7f
        E 0 92 24 7f
        E 64 82 24 00
        E 0 b2 0b 7f
        E 0 92 18 7f
        E 64 82 18 00
        E 0 b2 0b 7f
        E 0 92 24 7f
        E 64 82 24 00
        E 0 b2 0b 7f
        E 0 92 18 7f
        E 64 82 18 00
        E 0 b2 0b 7f
        E 0 92 24 7f
        E 64 82 24 00
        E 0 b2 0b 7f
        E 0 92 18 7f
        E 64 82 18 00
        E 0 b2 0b 7f
        E 0 92 24 7f
        E 64 82 24 00
        E 0 b2 0b 7f
        E 0 92 18 7f
        E 64 82 18 00
        E 0 b2 0b 7f
        E 0 92 24 7f
        E 64 82 24 00
        E 0 b2 0b 7f
        E 0 92 18 7f
        E 64 82 18 00
        E 320 b2 7b 00
        E 0 ff 2f 00
      >
    >
  >
  <TRACK {7EC5164A-B33A-4B06-B0CC-967AC8B61199}
    NAME "NES - Noise / Drums [ch3]"
    PEAKCOL 11184810
    BEAT -1
    AUTOMODE 0
    PANLAWFLAGS 3
    VOLPAN 1 0 -1 -1 1
    MUTESOLO 0 0 0
    IPHASE 0
    PLAYOFFS 0 1
    ISBUS 0 0
    BUSCOMP 0 0 0 0 0
    SHOWINMIX 1 0.6667 0.5 1 0.5 0 0 0
    FIXEDLANES 9 0 0 0 0
    SEL 0
    REC 0 5088 1 0 0 0 0 0
    VU 2
    TRACKHEIGHT 0 0 0 0 0 0 0
    INQ 0 0 0 0.5 100 0 0 100
    NCHAN 2
    FX 1
    TRACKID {7EC5164A-B33A-4B06-B0CC-967AC8B61199}
    PERF 0
    MIDIOUT -1
    MAINSEND 1 0
    <FXCHAIN
      WNDRECT 24 52 700 560
      SHOW 0
      LASTSEL 0
      DOCKED 0
      BYPASS 0 0 0
      <JS "ReapNES Studio/ReapNES_Console.jsfx" ""
        2 15 1 10 80 10 100 2 1 15 1 5 60 10 80 1 1 0 50 0 0 15 1 0 100 0 0 0.500000 0.500000 0.400000 0.300000 0.800000 3 1 0 0 0 0 - - - - - - - - - - - - - - - - - - - - - - - - - -
      >
      FLOATPOS 0 0 0 0
      FXID {1D5DB420-E8FE-43E7-B520-F6BC955B3915}
      WAK 0 0
    >
    <ITEM
      POSITION 0
      LENGTH 60.435460600000006
      LOOP 0
      ALLTAKES 0
      FADEIN 0 0 0 0 0 0 0
      FADEOUT 0 0 0 0 0 0 0
      MUTE 0 0
      SEL 0
      IGUID {0160DF9F-DC37-4789-A7E5-2DBAF4F01864}
      <SOURCE MIDI
        HASDATA 1 480 QN
        CCINTERP 32
        E 2528 93 2a 7f
        E 48 83 2a 00
        E 32 93 2a 7f
        E 48 83 2a 00
        E 0 93 2a 7f
        E 48 83 2a 00
        E 0 93 2a 7f
        E 48 83 2a 00
        E 0 93 2a 7f
        E 48 83 2a 00
        E 0 93 2a 7f
        E 48 83 2a 00
        E 0 93 2a 7f
        E 48 83 2a 00
        E 0 93 2a 6e
        E 64 83 2a 00
        E 0 93 2a 5d
        E 80 83 2a 00
        E 0 93 2a 55
        E 96 83 2a 00
        E 59040 b3 7b 00
        E 0 ff 2f 00
      >
    >
  >
>